<svg xmlns="http://www.w3.org/2000/svg" xmlns:xlink="http://www.w3.org/1999/xlink" xmlns:inkscape="http://www.inkscape.org/namespaces/inkscape" version="1.1" width="1135.2621" height="354.47648" viewBox="0 0 1135.2621 354.47648">
<defs>
<path id="font_11_1" d="M.04598999 .23632813H.35598756V-.07368469L.3959961-.06668091V.23632813H.70399478L.70899966 .2763214H.3959961V.58631899L.35598756 .58032229V.2763214H.052993776L.04598999 .23632813Z"/>
<path id="font_11_2" d="M.08999634 .32458497C.08999634 .22958374 .114990238 .13148499 .18299866 .06341553 .23699951 .009384155 .31199647-.016601563 .3880005-.016601563 .46099855-.016601563 .56900027 .010391235 .6569977 .03338623 .6569977 .03338623 .6539917 .216568 .6519928 .30760194L.37599183 .2966156V.27061463L.38198854 .265625C.43598939 .26361085 .5 .25961305 .5439911 .25660707 .57199099 .25460816 .57199099 .22257996 .57199099 .13449097 .57199099 .061416627 .56900027 .04940796 .5519867 .045394899 .5209961 .038391115 .48999024 .03538513 .45799256 .03538513 .37998963 .03538513 .30599977 .060409547 .2619934 .112472537 .20399475 .18052674 .17999268 .25260926 .17999268 .3405609 .17999268 .48339845 .23199463 .5653076 .26098634 .5942688 .3039856 .63623049 .36299134 .6502075 .42199708 .6502075 .5529938 .6502075 .59298709 .5563202 .60598757 .53034976L.6179962 .5293579 .6759949 .58628848C.6649933 .6032715 .6119995 .69921877 .46699525 .69921877 .3619995 .69921877 .25698854 .6682129 .18199158 .593277 .11199951 .5233612 .08999634 .4224701 .08999634 .32458497Z"/>
<path id="font_11_11" d="M.050994874 .049362184 .05899048 .038375856C.10998535 .0033874512 .17098999-.016601563 .23599243-.016601563 .31799317-.016601563 .397995 .008392334 .45700074 .05935669 .5039978 .10131836 .5349884 .15626526 .5349884 .21520996 .5349884 .25416566 .519989 .2911377 .48999024 .31811524 .46899415 .3360901 .44198609 .34709168 .41600038 .35508729 .3789978 .36608888 .34199525 .37109376 .30299378 .37408448V.38209535C.34999085 .39408876 .3939972 .41609193 .42900086 .44610597 .46499635 .47810365 .48199464 .52311709 .48199464 .5681305 .48199464 .60414126 .46798707 .6401367 .43899537 .6651459 .40699769 .6941376 .36099244 .70214846 .31698609 .70214846 .2849884 .70214846 .25498963 .69114688 .22599793 .67814639 .18598938 .6591339 .14698792 .63414 .11199951 .60813906L.12799073 .58613589C.1539917 .60113528 .17999268 .6151428 .20799256 .6261444 .22799683 .6331482 .24699402 .6391449 .2659912 .6391449 .2999878 .6391449 .33299256 .6321411 .35598756 .61112979 .37799073 .59213259 .3889923 .5671234 .3889923 .54011538 .3889923 .502121 .37199403 .46510316 .34098817 .43710328 .32299806 .4210968 .29899598 .40908814 .27398683 .39909364 .24198914 .38609315 .20698548 .37808229 .17298889 .37109376L.17199707 .34509278C.21398926 .34509278 .2559967 .34309388 .29699708 .3340912 .32499696 .32809449 .35299684 .31910707 .37298585 .30012513 .4059906 .26914979 .42900086 .22920227 .42900086 .18623352 .42900086 .14128113 .41299439 .095321658 .3769989 .06335449 .34599305 .036376954 .30599977 .023391724 .2639923 .023391724 .22299195 .023391724 .18499756 .041366579 .1559906 .067352298 .13798523 .08332825 .12399292 .10131836 .10998535 .121292117H.09899902L.050994874 .049362184Z"/>
<path id="font_11_4" d="M.11299133 .24990845C.11299133 .007904053 .1519928-.09008789 .18299866-.13310242 .21099854-.17008972 .25299073-.20809937 .30099488-.21209717V-.1880951C.2809906-.18409729 .25099183-.16809082 .23399353-.1481018 .21998596-.13209534 .16499329-.05809021 .16499329 .24990845 .16499329 .4618988 .19799805 .5659027 .21998596 .6128998 .23599243 .6469116 .2689972 .6769104 .30099488 .684906V.71191409C.2599945 .7049103 .21598816 .6729126 .19099427 .63790896 .1599884 .5919037 .11299133 .4748993 .11299133 .24990845Z"/>
<path id="font_11_5" d="M.051986696 .06642151C.06199646 .047409059 .07598877 .030395508 .09199524 .01638794 .12098694-.009613037 .16099549-.016601563 .19898987-.016601563 .2559967-.016601563 .31199647 .0023956299 .35099793 .044403078 .375 .06941223 .3869934 .10343933 .3869934 .13845825 .3869934 .1634674 .37298585 .18649292 .35499574 .20449829 .34098817 .21850586 .3039856 .24052429 .27198792 .25453187 .24299622 .26654054 .19999695 .2885437 .18798828 .30055238 .17298889 .31655885 .1619873 .3285675 .1619873 .35058595 .1619873 .3725891 .16899109 .39360047 .18499756 .4086151 .19999695 .42362977 .22200012 .43164063 .24398804 .43164063 .2639923 .43164063 .2849884 .42462159 .29599 .4066162 .30599977 .39060975 .30799867 .3715973 .30899049 .35359193L.32099916 .34657289 .37599183 .38360597C.375 .40560914 .3639984 .42662049 .34799195 .44163514 .32499696 .46263124 .29299928 .46662904 .2630005 .46662904 .21398926 .46662904 .16699219 .45063783 .1309967 .4176178 .10398865 .39360047 .08999634 .35858155 .08999634 .32356263 .08999634 .29154969 .10798645 .26353456 .1309967 .2425232 .1539917 .22250366 .18399048 .2084961 .21499634 .1954956 .24099732 .18447876 .2689972 .17248535 .28799439 .1534729 .30299378 .13845825 .31399537 .11845398 .31399537 .09744263 .31399537 .079422 .30499269 .062408449 .29299928 .04940796 .27799989 .03340149 .25099183 .021392823 .22898865 .021392823 .19898987 .021392823 .17199707 .03439331 .1499939 .055404664 .1269989 .076416019 .116989139 .10644531 .114990238 .13645935L.100997928 .13745117 .051986696 .06642151Z"/>
<path id="font_11_6" d="M.085998538-.1880951V-.21209717C.13398743-.20610047 .1789856-.17208863 .20698548-.13510132 .23799134-.09210205 .27598573 .007904053 .27598573 .24990845 .27598573 .50090029 .22399903 .5919037 .19299317 .63790896 .16799927 .6729126 .1269989 .7049103 .085998538 .71191409V.684906C.117996219 .6759033 .14898682 .6469116 .16499329 .6128998 .18699646 .5659027 .22399903 .48190309 .22399903 .24990845 .22399903-.099090579 .17199707-.13209534 .1579895-.1481018 .14099121-.16809082 .10598755-.18409729 .085998538-.1880951Z"/>
<path id="font_11_14" d="M.02999878 .19134522H.34999085L.35899354 .18232727C.35899354 .119262699 .35899354 .03616333 .35299684 .0011138916L.35899354-.0048828127 .44898988 .028152466C.44599916 .0501709 .44599916 .12927246 .44599916 .18333435L.45399476 .19134522H.5469971L.5649872 .22834778 .55999758 .23535156H.45399476L.44599916 .24433899C.44599916 .39926148 .44599916 .67111209 .44699098 .6980896L.43899537 .70410159 .35299684 .66911318 .02999878 .23535156V.19134522M.10398865 .24234009C.10398865 .264328 .19898987 .4022522 .24198914 .46122743 .2749939 .50619509 .30899049 .5521698 .34700013 .591156 .34999085 .5931549 .35499574 .5941467 .35798646 .591156 .35798646 .5901489 .35899354 .5871582 .35899354 .5851593V.24334717L.35198976 .23535156H.10899353L.10398865 .24234009Z"/>
<path id="font_11_12" d="M.051986696 .6781769 .052993776 .6591797C.07299805 .65216067 .10899353 .6411438 .11299133 .6401367 .12298584 .6361389 .125 .6251221 .12599182 .6161041 .1309967 .53297427 .13198853 .44985963 .13198853 .36676026 .13198853 .24482727 .13198853 .11590576 .12199402 .0029907227L.12799073-.0020141602 .21998596 .025970459C.21699524 .051956178 .21499634 .10292053 .21499634 .1798706V.33377076C.21499634 .34075929 .22099304 .34576417 .22799683 .34576417H.57099917C.5799866 .34576417 .58299258 .33876039 .58299258 .33377076 .58299258 .23683167 .5799866 .11790466 .5779877 .020980835L.58898928 0 .73799136 .0078125 .74398806 .013809204 .7429962 .031799318C.72499087 .03981018 .66600039 .03981018 .66600039 .07879639 .66600039 .09979248 .6619873 .24076844 .6619873 .32176209 .6619873 .5129547 .66999819 .64515689 .6729889 .6841736L.66799929 .6901703 .5799866 .673172C.5799866 .58706668 .58299258 .48291017 .58299258 .3967743 .58299258 .39076234 .58200076 .38476563 .57099917 .38476563H.22499085C.21499634 .38476563 .21299744 .3917694 .21299744 .3967743 .21299744 .4618683 .21699524 .54600527 .21899414 .61109927 .21998596 .63414 .22200012 .6581726 .22599793 .6801758L.22099304 .6851654H.05899048L.051986696 .6781769Z"/>
<path id="font_11_3" d="M.1349945 .6123047H.22898865C.25698854 .6123047 .27999879 .59129336 .2809906 .5662842 .28199769 .541275 .28199769 .46824647 .28199769 .41923524 .28199769 .27919007 .27799989 .13916016 .272995 .00010681152L.28599549-.0048828127 .3809967 .022125245C.37799073 .09814453 .37799073 .2962036 .37799073 .43223573 .37799073 .52127078 .37998963 .6112976 .38598634 .7003021L.3789978 .71229556 .1349945 .6392975V.6123047Z"/>
<path id="font_11_10" d="M.04499817 .001953125H.5379944L.56399539 .079940799 .5589905 .08795166H.20999146C.20399475 .08795166 .19799805 .08894348 .19599915 .092941287 .19499207 .094940189 .19599915 .09794617 .19699097 .09895325 .2539978 .1569519 .30799867 .21495056 .35899354 .27496339 .394989 .31697084 .42999269 .358963 .45799256 .40496827 .48799134 .4509735 .5119934 .49998475 .5119934 .5529938 .5119934 .59399417 .49899293 .6349945 .46499635 .66400149 .43199159 .69299319 .3880005 .7080078 .34199525 .7080078 .29899598 .7080078 .2579956 .6970062 .22099304 .67900088 .17599488 .65800479 .13699341 .6279907 .102996829 .59498599L.125 .57598879C.1519928 .59599307 .17799378 .61099246 .20999146 .6259918 .23098755 .6360016 .2559967 .6399994 .2809906 .6399994 .31399537 .6399994 .34700013 .6289978 .37098695 .6069946 .40098573 .5779877 .4079895 .5369873 .4079895 .50798037 .4079895 .4429779 .38198854 .38197328 .34298707 .3259735 .31098939 .27996827 .27198792 .23796082 .23199463 .19696045 .17199707 .13494873 .10899353 .07594299 .04499817 .017944336V.001953125Z"/>
<path id="font_11_7" d="M.04598999 .23046875H.70399478L.70999148 .27046205H.052993776L.04598999 .23046875Z"/>
<path id="font_11_8" d="M.033996583 .6733093 .035995485 .6533203C.037994386 .6533203 .07398987 .6443176 .09199524 .63931277 .12298584 .6313019 .125 .6222992 .125 .54229739 .125 .46427918 .12199402 .38627626 .12199402 .30825807 .12199402 .24723816 .12399292 .17323303 .12998963 .12721253 .1349945 .08821106 .1559906-.0087890629 .31399537-.0087890629 .39698792-.0087890629 .47698976 .02520752 .5469971 .07020569L.5549927 .064208988C.5549927 .048202516 .5549927 .032196046 .55599978 .016204834 .55799868 .0012054443 .57598879-.0047912599 .58799746-.0047912599 .61898806-.0047912599 .6899872 .016204834 .7409973 .032196046L.74598696 .03919983 .74198916 .05619812C.7220001 .05419922 .70399478 .048202516 .6839905 .048202516 .673996 .048202516 .6609955 .050201417 .6539917 .0592041 .6389923 .07620239 .6359863 .15222168 .6359863 .20223999 .6359863 .3642578 .6369934 .5733032 .6519928 .68733218L.6459961 .69433596 .55799868 .659317C.55599978 .47727967 .55400088 .2942505 .55400088 .11122131 .5 .079208377 .43998719 .052200319 .37799073 .052200319 .24598694 .052200319 .22399903 .13922119 .21598816 .16522217 .20599365 .19923401 .20199585 .23423767 .20199585 .26924134L.20999146 .54229739C.20999146 .55929568 .21598816 .6603241 .21798706 .67433169L.21099854 .6803131H.041992189L.033996583 .6733093Z"/>
<path id="font_11_9" d="M.022994996 .6513672C.036987306 .649353 .049987794 .6463623 .06298828 .6433563 .07199097 .6413574 .07998657 .6353607 .085998538 .62835696 .09599304 .61834719 .102996829 .60635378 .10899353 .5943451L.2579956 .29930116C.2579956 .19927979 .2579956 .0982666 .25498963-.0017547608L.2659912-.0107421879 .35598756 .018249512 .34700013 .30630494C.42999269 .4343109 .5039978 .5303345 .61499026 .675354L.61099246 .6933594 .526001 .6763611C.48999024 .619339 .4059906 .47431947 .397995 .46032716 .3849945 .4373169 .34199525 .36730958 .33898927 .3623047 .33599855 .3572998 .33198548 .353302 .32798768 .353302 .32199098 .353302 .31698609 .3592987 .31599427 .36131288L.1749878 .6863556H.02999878L.022994996 .67936709V.6513672Z"/>
</defs>
<path transform="matrix(1,0,0,-1,868.7349,136.60134)" d="M-12.005687-35.67097C53.11529-35.77523 117.69773-35.929006 182.15345-35.79632 182.7263 10.501789 182.01195 57.143854 182.2901 103.629947 117.30181 104.31289 53.37485 103.95964-11.885144 104.32221-11.562236 57.496004-11.536867 10.574653-12.005687-35.67097Z" fill="#d9d9d9"/>
<path transform="matrix(1,0,0,-1,868.7349,136.60134)" stroke-width=".75" stroke-linecap="round" stroke-dasharray="4.5,4.5" stroke-linejoin="round" fill="none" stroke="#000000" d="M-11.514271-36.118658C52.55078-35.71348 117.86653-35.799665 182.05742-35.63536 182.1428 10.598026 182.2666 57.77588 182.60929 103.94549 117.505687 104.376468 52.745889 104.33607-11.436697 104.08751-11.415331 57.224775-12.146104 10.899339-11.514271-36.118658Z"/>
<use data-text="+" xlink:href="#font_11_1" transform="matrix(37.185197,0,0,-37.18505,384.70133,146.12213)"/>
<use data-text="G" xlink:href="#font_11_2" transform="matrix(21.519362,0,0,-21.519398,755.6176,141.9826)"/>
<use data-text="3" xlink:href="#font_11_11" transform="matrix(16.438399,0,0,-16.438426,772.0849,146.11917)"/>
<use data-text="(" xlink:href="#font_11_4" transform="matrix(21.519362,0,0,-21.519398,782.32748,141.9826)"/>
<use data-text="s" xlink:href="#font_11_5" transform="matrix(21.519362,0,0,-21.519398,791.8726,141.9826)"/>
<use data-text=")" xlink:href="#font_11_6" transform="matrix(21.519362,0,0,-21.519398,802.85958,141.9826)"/>
<use data-text="G" xlink:href="#font_11_2" transform="matrix(21.519343,0,0,-21.519398,926.2539,141.9826)"/>
<use data-text="4" xlink:href="#font_11_14" transform="matrix(16.438384,0,0,-16.438426,942.73757,146.15207)"/>
<use data-text="(" xlink:href="#font_11_4" transform="matrix(21.519343,0,0,-21.519398,952.9801,141.9826)"/>
<use data-text="s" xlink:href="#font_11_5" transform="matrix(21.519343,0,0,-21.519398,962.52517,141.9826)"/>
<use data-text=")" xlink:href="#font_11_6" transform="matrix(21.519343,0,0,-21.519398,973.5121,141.9826)"/>
<use data-text="H" xlink:href="#font_11_12" transform="matrix(21.51913,0,0,-21.519398,840.74618,234.391)"/>
<use data-text="1" xlink:href="#font_11_3" transform="matrix(16.438221,0,0,-16.438426,857.60067,238.69197)"/>
<use data-text="(" xlink:href="#font_11_4" transform="matrix(21.51913,0,0,-21.519398,867.8431,234.391)"/>
<use data-text="s" xlink:href="#font_11_5" transform="matrix(21.51913,0,0,-21.519398,877.3881,234.391)"/>
<use data-text=")" xlink:href="#font_11_6" transform="matrix(21.51913,0,0,-21.519398,888.37496,234.391)"/>
<use data-text="H" xlink:href="#font_11_12" transform="matrix(21.51913,0,0,-21.519398,498.97325,49.57422)"/>
<use data-text="2" xlink:href="#font_11_10" transform="matrix(16.438221,0,0,-16.438426,515.82778,53.80948)"/>
<use data-text="(" xlink:href="#font_11_4" transform="matrix(21.51913,0,0,-21.519398,526.0702,49.57422)"/>
<use data-text="s" xlink:href="#font_11_5" transform="matrix(21.51913,0,0,-21.519398,535.61526,49.57422)"/>
<use data-text=")" xlink:href="#font_11_6" transform="matrix(21.51913,0,0,-21.519398,546.60208,49.57422)"/>
<use data-text="H" xlink:href="#font_11_12" transform="matrix(21.51913,0,0,-21.519398,498.97325,326.79939)"/>
<use data-text="3" xlink:href="#font_11_11" transform="matrix(16.438221,0,0,-16.438426,515.82778,330.93595)"/>
<use data-text="(" xlink:href="#font_11_4" transform="matrix(21.51913,0,0,-21.519398,526.0702,326.79939)"/>
<use data-text="s" xlink:href="#font_11_5" transform="matrix(21.51913,0,0,-21.519398,535.61526,326.79939)"/>
<use data-text=")" xlink:href="#font_11_6" transform="matrix(21.51913,0,0,-21.519398,546.60208,326.79939)"/>
<path transform="matrix(1,0,0,-1,868.7349,136.60134)" stroke-width=".75" stroke-linecap="round" stroke-linejoin="round" fill="none" stroke="#000000" d="M-113.677089-25.290894C-113.962558-25.013787-112.261348-25.173356-113.75628-24.398732-93.79037-25.503499-75.98887-24.331315-58.02118-25.851677-43.403047-25.750777-41.69314-24.527918-43.20926-9.786946-41.85079-3.466595-42.70083 2.597743-41.936529 10.327165-42.972837 25.710642-42.84471 24.743285-58.243417 24.839144-76.256427 24.2356-94.55898 25.77346-112.79792 25.727282-127.70455 25.882725-128.91416 24.39362-128.76499 9.251207-128.68914 3.654671-128.17754-2.813648-128.40326-9.161937-128.99791-25.283013-128.09021-24.260392-113.677089-25.290894Z"/>
<path transform="matrix(1,0,0,-1,868.7349,136.60134)" stroke-width=".75" stroke-linecap="round" stroke-linejoin="round" fill="none" stroke="#000000" d="M58.018205-25.901835C56.639413-24.657677 58.309297-24.791306 56.66337-25.78226 76.03919-25.851849 94.971019-24.41098 113.17822-25.341559 128.39826-24.596129 129.10106-24.05026 128.53285-10.509412 129.06587-4.097752 128.25043 2.65074 128.79837 9.02677 127.69492 24.288922 128.0003 25.29796 112.286647 25.53832 94.537 25.692027 77.000919 24.754225 57.18955 24.852055 41.88013 25.446316 42.375814 24.096865 42.109266 9.64222 43.19626 4.091736 41.679819-3.14442 43.406557-9.263692 42.982549-25.89603 41.63321-25.114752 58.018205-25.901835Z"/>
<path transform="matrix(1,0,0,-1,868.7349,136.60134)" stroke-width=".75" stroke-linecap="round" stroke-linejoin="round" fill="none" stroke="#000000" d="M-27.014977-116.52136C-28.312594-117.19245-28.036145-117.24295-28.559784-117.37044-10.142177-117.69739 10.128333-116.655719 28.820057-117.71036 42.707445-116.43532 42.853368-118.32686 43.29455-102.930858 42.697298-95.96481 42.311876-89.434009 43.853208-81.88439 42.58742-67.46909 43.904069-68.03787 28.724532-67.35533 10.15742-66.58739-8.746424-67.4913-27.366522-67.47378-42.43528-68.252918-43.90683-66.90183-42.706079-83.20961-43.00254-88.530178-42.213457-94.9646-42.277956-102.67843-42.666055-116.69944-43.06064-116.8079-27.014977-116.52136Z"/>
<path transform="matrix(1,0,0,-1,868.7349,136.60134)" stroke-width=".75" stroke-linecap="round" stroke-linejoin="round" fill="none" stroke="#000000" d="M-368.88407 66.64144C-370.38136 67.37065-369.98353 68.18587-370.0973 66.841838-352.02024 67.90494-331.9242 67.76541-313.96687 67.83134-298.79557 67.65653-299.2724 67.03016-299.6769 81.546108-298.95429 88.29049-297.83464 96.259418-298.49604 103.03492-299.53459 117.76406-298.47758 117.734188-314.27586 117.00984-332.56385 118.02222-350.70033 116.715999-369.781 116.87533-385.7277 117.44256-383.86604 116.81773-385.0372 102.77121-384.9906 94.81864-384.7985 89.69353-384.7362 83.188739-384.20948 67.69489-385.549 67.661937-368.88407 66.64144Z"/>
<path transform="matrix(1,0,0,-1,868.7349,136.60134)" stroke-width=".75" stroke-linecap="round" stroke-linejoin="round" fill="none" stroke="#000000" d="M-369.2248-209.73851C-368.9247-210.48162-369.5491-208.89693-369.0584-210.27545-350.8295-209.20395-331.8057-209.01398-314.34895-210.03258-298.29557-209.08292-298.1651-209.96944-298.83439-195.4986-298.2758-189.05704-299.44944-182.21413-299.688-174.6592-299.2491-160.84064-299.1209-160.31266-314.40895-160.09088-332.3131-160.06583-350.77403-160.06871-370.62239-160.4181-384.42304-160.75601-385.50529-160.50536-384.1539-174.58107-385.6409-182.24279-384.0549-188.00734-385.21244-194.40741-385.44447-209.25351-385.48249-208.82946-369.2248-209.73851Z"/>
<path transform="matrix(1,0,0,-1,868.7349,136.60134)" stroke-width=".75" stroke-linecap="round" stroke-linejoin="round" fill="none" stroke="#000000" d="M-447.9246-.493685C-449.29563 12.308907-458.83726 22.485499-469.30506 20.924506-482.49903 20.832718-491.7036 12.559677-491.26695-.139313-491.90107-12.755219-481.29093-21.203269-469.87245-21.085803-458.11009-20.72871-448.67433-12.826463-447.9246-.493685Z"/>
<path transform="matrix(1,0,0,-1,868.7349,136.60134)" stroke-width=".75" stroke-linecap="round" stroke-linejoin="round" fill="none" stroke="#000000" d="M-42.29073-.301279C-14.25424-.385324 13.527597 .258842 42.100965 .169695"/>
<path transform="matrix(1,0,0,-1,868.7349,136.60134)" stroke-width=".75" stroke-linecap="round" stroke-linejoin="round" fill="none" stroke="#000000" d="M29.266293-7.613661C32.630868-4.039267 36.900297-1.418883 42.14649 .04199 37.280424 1.048537 32.41665 4.144923 29.11685 7.951854"/>
<path transform="matrix(1,0,0,-1,868.7349,136.60134)" stroke-width=".75" stroke-linecap="round" stroke-linejoin="round" fill="none" stroke="#000000" d="M127.97941 .291272C156.12357 .210191 184.70188-.294828 213.21503 .04079"/>
<path transform="matrix(1,0,0,-1,868.7349,136.60134)" stroke-width=".75" stroke-linecap="round" stroke-linejoin="round" fill="none" stroke="#000000" d="M200.73271-8.190436C203.89836-3.863567 208.26929-1.163515 213.45339 .213663 208.53919 1.316136 203.44713 3.595663 200.18141 7.848341"/>
<path transform="matrix(1,0,0,-1,868.7349,136.60134)" stroke-width=".75" stroke-linecap="round" stroke-linejoin="round" fill="none" stroke="#000000" d="M-384.71974 92.280719C-412.741 92.055889-441.9058 92.75328-469.87495 92.67894-469.85475 69.36207-469.67677 45.37808-469.825 22.005488"/>
<path transform="matrix(1,0,0,-1,868.7349,136.60134)" stroke-width=".75" stroke-linecap="round" stroke-linejoin="round" fill="none" stroke="#000000" d="M-478.20649 35.07777C-473.92857 31.713534-470.86363 27.232434-469.8066 22.457678-468.66465 26.907837-466.40165 31.232058-462.0894 34.79655"/>
<path transform="matrix(1,0,0,-1,868.7349,136.60134)" stroke-width=".75" stroke-linecap="round" stroke-linejoin="round" fill="none" stroke="#000000" d="M170.40787 .042549C170.93305-30.992762 170.9695-61.595746 170.63809-92.491748 127.71354-91.99711 85.57302-92.52325 42.60871-92.50406"/>
<path transform="matrix(1,0,0,-1,868.7349,136.60134)" stroke-width=".75" stroke-linecap="round" stroke-linejoin="round" fill="none" stroke="#000000" d="M55.509298-84.652828C51.817464-88.65221 47.89603-91.05148 42.765977-92.67791 47.48585-93.17994 52.37555-96.279888 55.449045-100.206569"/>
<path transform="matrix(1,0,0,-1,868.7349,136.60134)" stroke-width=".75" stroke-linecap="round" stroke-linejoin="round" fill="none" stroke="#000000" d="M170.29428-.085202C170.74179-61.417516 170.49629-123.10846 170.39447-185.096 14.308021-184.94081-142.98123-184.54048-299.2578-184.49115"/>
<path transform="matrix(1,0,0,-1,868.7349,136.60134)" stroke-width=".75" stroke-linecap="round" stroke-linejoin="round" fill="none" stroke="#000000" d="M-286.23017-176.77738C-289.76597-180.76337-293.7362-183.9773-298.93998-184.96829-294.40077-185.9583-289.9404-188.86222-286.21998-192.96448"/>
<path transform="matrix(1,0,0,-1,868.7349,136.60134)" stroke-width=".75" stroke-linecap="round" stroke-linejoin="round" fill="none" stroke="#000000" d="M-113.61303-24.583273C-112.195117-25.914719-112.790958-24.447779-112.58364-24.768008-95.045688-24.660454-76.79199-24.101649-58.23137-24.178715-42.385068-24.238965-41.923669-24.41651-41.71338-9.40719-42.826726-3.081739-42.155355 2.903943-41.740354 10.427691-41.553853 24.867218-41.799459 25.662096-57.211908 25.00023-75.78381 24.545598-93.89156 25.032988-112.162929 25.43809-127.969799 25.250082-127.72456 25.24752-127.45611 9.729246-127.82319 3.771058-128.50162-2.898961-128.96942-10.918472-128.13452-25.029171-128.31067-24.26176-113.61303-24.583273Z"/>
<path transform="matrix(1,0,0,-1,868.7349,136.60134)" stroke-width=".75" stroke-linecap="round" stroke-linejoin="round" fill="none" stroke="#000000" d="M57.63266-24.556416C57.661508-25.417883 57.485628-25.57758 57.812654-25.463603 76.07933-24.761115 94.245258-23.971972 112.808109-25.201954 129.05873-24.656632 128.54502-25.481598 128.03946-9.351669 129.06755-3.612193 127.90723 3.802534 127.30191 10.095993 128.66434 25.29111 127.2714 25.653101 113.80771 25.29822 95.51307 24.085352 75.261768 24.939507 57.389917 24.777598 41.625616 25.873459 42.613599 25.837832 42.441385 10.888951 42.644704 2.944118 43.093053-3.976482 41.77444-10.13512 42.723405-25.03736 42.896104-25.093686 57.63266-24.556416Z"/>
<path transform="matrix(1,0,0,-1,868.7349,136.60134)" stroke-width=".75" stroke-linecap="round" stroke-linejoin="round" fill="none" stroke="#000000" d="M-27.48905-117.75627C-27.223387-117.6236-27.220318-116.81787-28.519692-117.003208-10.24091-117.22192 9.364923-116.921718 28.209805-117.304798 43.92707-117.1588 42.49738-117.48437 42.624979-102.29223 43.969289-96.54454 43.787168-89.98134 43.602685-83.08577 43.92719-67.422328 43.498716-67.295787 27.828356-67.07676 8.833366-68.21162-9.962694-67.69136-27.56199-67.899318-43.2944-67.41329-42.65678-67.91347-43.07223-82.87582-43.739175-89.3753-42.226026-96.113819-43.47023-101.44634-42.5307-117.25112-43.176836-116.96546-27.48905-117.75627Z"/>
<path transform="matrix(1,0,0,-1,868.7349,136.60134)" stroke-width=".75" stroke-linecap="round" stroke-linejoin="round" fill="none" stroke="#000000" d="M-369.33326 68.40784C-370.01298 67.261089-370.58824 67.92161-370.0642 67.964199-350.4634 68.13207-333.00779 67.54142-313.22007 67.82282-299.37336 68.014179-298.10997 67.69844-298.62327 81.91772-297.93406 88.536548-297.9022 95.126857-298.82688 102.09238-299.0086 118.24657-298.52299 117.61915-312.93388 116.417118-332.55357 117.377788-351.44023 117.92831-370.2508 116.745609-384.8926 117.38835-384.6599 117.19079-384.1693 102.78813-385.20677 95.94066-384.34617 88.335689-384.06449 82.293437-385.64134 66.55695-384.06904 68.26183-369.33326 68.40784Z"/>
<path transform="matrix(1,0,0,-1,868.7349,136.60134)" stroke-width=".75" stroke-linecap="round" stroke-linejoin="round" fill="none" stroke="#000000" d="M-369.20079-210.60102C-370.1331-209.1312-370.62406-210.31487-370.00303-209.67527-351.24769-209.34476-331.6508-209.9796-314.62654-210.6883-298.70329-209.42185-298.896-210.49956-298.1961-194.43558-298.03773-188.80027-299.6434-181.9044-298.5672-174.20226-299.56629-160.02004-298.55943-160.74063-312.8747-159.26624-332.1419-158.96353-350.65794-160.21987-369.9824-159.13031-385.3459-159.97518-385.00263-159.46843-384.32447-174.62052-385.6667-182.34572-384.4022-188.57308-384.51737-194.82707-385.50758-209.0882-384.8741-210.02754-369.20079-210.60102Z"/>
<path transform="matrix(1,0,0,-1,868.7349,136.60134)" stroke-width=".75" stroke-linecap="round" stroke-linejoin="round" fill="none" stroke="#000000" d="M-448.76005 .823286C-449.18348 12.753501-457.49775 21.340895-469.64179 21.467513-482.82987 22.436633-490.89878 11.738716-492.25346 .551095-492.36558-11.758466-481.34245-21.025918-469.8325-20.980935-458.38636-22.589985-448.81617-11.158029-448.76005 .823286Z"/>
<path transform="matrix(1,0,0,-1,868.7349,136.60134)" stroke-width=".75" stroke-linecap="round" stroke-linejoin="round" fill="none" stroke="#000000" d="M-42.91219-.019896C-14.66976-.136727 13.884164-.110219 41.79172-.435728"/>
<path transform="matrix(1,0,0,-1,868.7349,136.60134)" stroke-width=".75" stroke-linecap="round" stroke-linejoin="round" fill="none" stroke="#000000" d="M29.462729-7.632526C32.97899-3.93471 37.328115-.73416 41.92153 .14533 37.210096 1.22864 32.671705 3.844968 29.69686 7.917138"/>
<path transform="matrix(1,0,0,-1,868.7349,136.60134)" stroke-width=".75" stroke-linecap="round" stroke-linejoin="round" fill="none" stroke="#000000" d="M127.83343-.277184C156.82088 .371526 184.91417 .381776 213.0595-.002972"/>
<path transform="matrix(1,0,0,-1,868.7349,136.60134)" stroke-width=".75" stroke-linecap="round" stroke-linejoin="round" fill="none" stroke="#000000" d="M200.56855-7.629198C204.02771-3.751492 208.5734-1.245659 213.18869-.358918 207.73032 .873212 203.75077 3.993864 200.93842 8.461153"/>
<path transform="matrix(1,0,0,-1,868.7349,136.60134)" stroke-width=".75" stroke-linecap="round" stroke-linejoin="round" fill="none" stroke="#000000" d="M-384.82609 92.78832C-413.43263 92.28702-441.56065 92.022228-469.7847 92.67085-469.8912 68.61051-469.9539 45.849985-470.156 21.871447"/>
<path transform="matrix(1,0,0,-1,868.7349,136.60134)" stroke-width=".75" stroke-linecap="round" stroke-linejoin="round" fill="none" stroke="#000000" d="M-478.00929 34.61433C-473.56507 31.059243-471.29487 27.250012-470.26506 22.132164-469.07276 26.910437-465.85969 31.388892-462.3821 34.776659"/>
<path transform="matrix(1,0,0,-1,868.7349,136.60134)" stroke-width=".75" stroke-linecap="round" stroke-linejoin="round" fill="none" stroke="#000000" d="M170.27297 .155951C171.08493-30.820574 170.47502-61.544855 171.05374-92.03781 128.16394-92.16286 84.984607-92.24595 42.56158-92.46501"/>
<path transform="matrix(1,0,0,-1,868.7349,136.60134)" stroke-width=".75" stroke-linecap="round" stroke-linejoin="round" fill="none" stroke="#000000" d="M55.168107-84.219509C51.737257-88.33581 47.293214-91.34475 42.9171-91.99361 47.839056-93.64034 52.464555-96.16174 55.350976-100.59636"/>
<path transform="matrix(1,0,0,-1,868.7349,136.60134)" stroke-width=".75" stroke-linecap="round" stroke-linejoin="round" fill="none" stroke="#000000" d="M170.60663-.051754C170.70754-61.210344 170.89397-123.26834 170.52503-184.6889 14.452294-184.52346-142.97986-184.52252-298.7593-184.90879"/>
<path transform="matrix(1,0,0,-1,868.7349,136.60134)" stroke-width=".75" stroke-linecap="round" stroke-linejoin="round" fill="none" stroke="#000000" d="M-286.6067-176.83905C-289.89598-180.39264-294.14616-183.62616-299.10636-184.96208-294.25297-185.811-289.47999-189.01721-286.14649-193.12442"/>
<path transform="matrix(1,0,0,-1,868.7349,136.60134)" stroke-width=".75" stroke-linecap="round" stroke-linejoin="round" fill="none" stroke="#000000" d="M-112.70343-24.89606C-113.9285-25.660027-112.17119-24.50568-113.262989-24.354893-95.19786-24.337458-75.365909-25.104794-58.064008-24.402007-42.635404-25.3407-41.93589-24.89215-42.077547-9.213106-42.19532-2.644245-43.190309 3.246795-42.321344 9.910396-42.06242 25.638878-42.19971 25.364134-57.474107 24.351588-76.25204 24.402089-93.80482 25.846354-113.29646 25.88011-127.46286 25.059245-128.78852 25.1289-128.87924 10.397159-128.1451 2.49732-127.72133-2.551742-127.66919-10.441444-127.17613-25.060507-127.58977-25.7122-112.70343-24.89606Z"/>
<path transform="matrix(1,0,0,-1,868.7349,136.60134)" stroke-width=".75" stroke-linecap="round" stroke-linejoin="round" fill="none" stroke="#000000" d="M57.114286-24.959387C57.599969-24.828089 57.364088-24.339964 57.305345-25.73399 76.403759-25.835827 94.45581-25.246457 112.53216-24.487248 127.4335-25.04956 128.34058-25.100192 128.31322-10.08716 128.52727-3.704953 128.70853 3.166575 128.268 9.631324 128.3441 24.897345 128.48709 24.422108 113.332828 24.413313 95.2031 25.412478 76.795009 24.849516 57.749116 24.868245 41.581544 25.493567 43.130796 23.998232 42.409685 10.539334 42.983037 3.987946 43.0229-3.481763 41.89884-10.563287 42.06674-25.825623 43.429685-25.853842 57.114286-24.959387Z"/>
<path transform="matrix(1,0,0,-1,868.7349,136.60134)" stroke-width=".75" stroke-linecap="round" stroke-linejoin="round" fill="none" stroke="#000000" d="M-28.85066-117.3546C-27.886883-117.33449-28.836749-117.17878-28.471732-116.974399-9.722344-116.71416 9.242035-116.7428 27.270028-116.54653 42.620866-117.211368 43.490526-118.02945 43.667455-102.13996 43.65471-95.22701 42.088815-89.76864 43.92271-83.08002 42.476854-67.8571 43.715356-66.77218 28.865717-68.20228 10.273403-67.10871-9.917707-66.685558-28.4817-67.386989-42.993505-68.28165-43.450536-68.351589-43.622827-82.32455-43.176527-88.87524-42.715154-96.552448-42.210187-101.67266-42.305555-116.62495-43.19966-117.27094-28.85066-117.3546Z"/>
<path transform="matrix(1,0,0,-1,868.7349,136.60134)" stroke-width=".75" stroke-linecap="round" stroke-linejoin="round" fill="none" stroke="#000000" d="M-369.24327 67.79477C-369.51594 67.251018-369.68666 67.09256-369.3649 67.25547-351.234 67.28704-331.54756 67.58151-313.50968 66.88549-298.46827 66.518009-297.8648 67.1753-298.09458 82.7356-298.52473 89.15981-298.2988 95.8532-297.89518 102.52816-298.41889 117.55411-299.47367 117.260768-313.67768 117.77146-331.76799 117.76337-351.13099 117.34782-370.16633 116.552379-384.87278 117.1555-383.92323 116.43258-384.31654 101.98445-385.51899 95.08057-383.82508 88.75222-384.59413 81.49398-385.01808 67.144039-385.1544 68.16381-369.24327 67.79477Z"/>
<path transform="matrix(1,0,0,-1,868.7349,136.60134)" stroke-width=".75" stroke-linecap="round" stroke-linejoin="round" fill="none" stroke="#000000" d="M-369.5108-210.12364C-369.27647-210.07207-370.23753-210.32303-369.51878-209.72779-351.71693-209.25763-331.7536-210.44794-313.458-209.66872-298.41249-209.49053-299.0004-208.91558-299.4736-195.36052-298.35758-187.99485-298.57978-181.43677-298.93098-175.7407-299.4806-159.90756-299.6119-159.2849-313.20698-160.5403-331.89643-160.70519-351.95655-159.3646-369.05946-158.94683-384.9893-160.1785-384.7233-160.40685-385.08656-174.96146-383.8575-181.14298-384.5895-188.36351-385.33308-195.13153-383.93907-210.4125-384.29826-210.62535-369.5108-210.12364Z"/>
<path transform="matrix(1,0,0,-1,868.7349,136.60134)" stroke-width=".75" stroke-linecap="round" stroke-linejoin="round" fill="none" stroke="#000000" d="M-449.31565 .183607C-448.53279 12.436888-458.21614 21.323826-469.04484 20.759896-481.70359 21.286072-491.44557 11.759294-491.1621 .068027-490.70509-11.516114-481.84257-22.10067-469.45417-21.796553-457.78428-21.99867-448.19316-12.557564-449.31565 .183607Z"/>
<path transform="matrix(1,0,0,-1,868.7349,136.60134)" stroke-width=".75" stroke-linecap="round" stroke-linejoin="round" fill="none" stroke="#000000" d="M-42.771203 .162461C-14.573033-.426696 13.721236-.238674 42.50212 .360532"/>
<path transform="matrix(1,0,0,-1,868.7349,136.60134)" stroke-width=".75" stroke-linecap="round" stroke-linejoin="round" fill="none" stroke="#000000" d="M29.318129-8.476767C32.96292-3.576925 36.872568-1.146242 41.784597-.394848 36.98437 1.413844 32.734056 4.092354 29.542448 7.934663"/>
<path transform="matrix(1,0,0,-1,868.7349,136.60134)" stroke-width=".75" stroke-linecap="round" stroke-linejoin="round" fill="none" stroke="#000000" d="M128.05689 .247329C156.91359 .006169 185.19211 .094869 213.55619-.341235"/>
<path transform="matrix(1,0,0,-1,868.7349,136.60134)" stroke-width=".75" stroke-linecap="round" stroke-linejoin="round" fill="none" stroke="#000000" d="M200.362-8.178916C203.2836-4.298937 207.97551-1.014707 213.00449 .188332 207.98354 .915208 203.8844 4.124702 200.815 8.41404"/>
<path transform="matrix(1,0,0,-1,868.7349,136.60134)" stroke-width=".75" stroke-linecap="round" stroke-linejoin="round" fill="none" stroke="#000000" d="M-384.80183 92.252849C-413.5801 92.036647-441.58473 92.63462-470.0691 91.9621-469.66905 69.116-469.73899 45.404249-469.74818 22.2662"/>
<path transform="matrix(1,0,0,-1,868.7349,136.60134)" stroke-width=".75" stroke-linecap="round" stroke-linejoin="round" fill="none" stroke="#000000" d="M-478.03465 34.938806C-473.6266 31.390032-470.908 26.66152-470.22337 21.865712-468.93186 27.202239-466.2142 31.392495-462.36424 34.58794"/>
<path transform="matrix(1,0,0,-1,868.7349,136.60134)" stroke-width=".75" stroke-linecap="round" stroke-linejoin="round" fill="none" stroke="#000000" d="M170.70149-.37147C170.8412-30.65095 170.54247-61.403539 170.90972-91.96355 128.24073-92.484508 85.225879-91.9713 42.511114-92.44746"/>
<path transform="matrix(1,0,0,-1,868.7349,136.60134)" stroke-width=".75" stroke-linecap="round" stroke-linejoin="round" fill="none" stroke="#000000" d="M55.71289-84.67025C52.537195-88.34627 47.82739-91.38975 42.425516-92.748409 47.221506-93.88176 52.001184-96.57207 54.970266-100.140399"/>
<path transform="matrix(1,0,0,-1,868.7349,136.60134)" stroke-width=".75" stroke-linecap="round" stroke-linejoin="round" fill="none" stroke="#000000" d="M170.917 .36301C170.70157-61.609914 170.83815-122.961368 170.91486-185.1622 14.286607-184.99974-142.21463-184.56945-299.12864-184.88665"/>
<path transform="matrix(1,0,0,-1,868.7349,136.60134)" stroke-width=".75" stroke-linecap="round" stroke-linejoin="round" fill="none" stroke="#000000" d="M-286.68818-177.02765C-289.63569-180.75815-294.27033-183.55027-299.1522-184.45554-293.7565-186.02663-289.46296-188.61255-286.56965-193.01192"/>
<path transform="matrix(1,0,0,-1,868.7349,136.60134)" stroke-width=".75" stroke-linecap="round" stroke-linejoin="round" fill="none" stroke="#000000" d="M-112.29271-24.693707C-112.176-24.092194-113.25745-24.78626-113.46012-25.180874-95.324848-24.027855-75.81312-25.63701-58.416784-25.19719-43.292779-24.226029-42.947057-25.52746-41.930635-10.756381-42.203599-3.46345-41.649488 4.069466-43.133714 10.670527-42.502435 25.137787-42.766637 25.898949-56.60149 24.805092-75.60638 24.149554-95.07993 25.37446-114.05362 24.4655-129.05113 25.276835-127.912418 24.109944-127.5814 9.107027-128.98998 3.000726-127.46679-3.391344-128.80681-10.8586-127.80115-25.297036-128.49942-25.153687-112.29271-24.693707Z"/>
<path transform="matrix(1,0,0,-1,868.7349,136.60134)" stroke-width=".75" stroke-linecap="round" stroke-linejoin="round" fill="none" stroke="#000000" d="M56.750074-24.004002C57.881059-24.67197 57.170988-24.366198 57.67412-25.484374 76.42053-25.549427 94.80598-25.480038 112.81864-25.754044 128.8485-25.199133 127.58705-24.241099 127.67843-9.13834 129.06-2.882754 127.653949 4.042001 127.93361 10.226854 127.38133 24.480212 127.53028 24.713545 113.9266 24.996897 95.08359 25.251624 75.80991 24.696814 57.095689 24.049967 43.352495 25.23267 43.00497 25.914923 41.604993 10.092815 42.016969 2.524566 42.436719-3.688526 43.15572-9.999601 42.392084-24.638649 43.426954-24.526766 56.750074-24.004002Z"/>
<path transform="matrix(1,0,0,-1,868.7349,136.60134)" stroke-width=".75" stroke-linecap="round" stroke-linejoin="round" fill="none" stroke="#000000" d="M-27.714863-117.22748C-27.692067-116.78747-27.46684-116.75564-28.504715-117.039928-9.421257-117.62826 9.065229-117.24819 28.489914-117.87928 42.416669-118.29398 42.34636-117.80458 43.712907-102.07219 42.79781-94.96911 43.771505-89.2796 43.468057-83.03886 43.36483-66.56727 42.65368-66.72641 28.96312-67.50473 10.065657-67.75662-10.05469-68.26266-28.75051-66.51985-42.709905-68.21376-43.554937-67.3131-42.703996-82.884227-43.136568-88.4092-42.463685-95.99935-43.21901-103.04845-43.46259-117.14026-43.311758-117.15484-27.714863-117.22748Z"/>
<path transform="matrix(1,0,0,-1,868.7349,136.60134)" stroke-width=".75" stroke-linecap="round" stroke-linejoin="round" fill="none" stroke="#000000" d="M-370.47026 67.92634C-369.3135 66.80744-369.42878 67.645709-369.3961 68.14606-352.00303 67.10904-331.9345 67.64639-314.74559 67.870288-299.13114 66.84796-299.3142 66.511989-299.24147 81.73729-298.35459 89.31574-298.9812 96.47663-298.16493 102.07577-297.99723 117.3481-299.45854 117.884548-314.50004 117.811389-332.48365 116.92571-350.845 116.65635-370.0043 117.96661-385.44215 117.461688-384.24626 116.635-385.7052 103.226078-384.0755 95.57438-385.5664 89.65245-384.5968 81.8984-385.2487 68.43194-384.76795 67.0968-370.47026 67.92634Z"/>
<path transform="matrix(1,0,0,-1,868.7349,136.60134)" stroke-width=".75" stroke-linecap="round" stroke-linejoin="round" fill="none" stroke="#000000" d="M-370.38938-209.06995C-369.8913-209.88948-369.5721-210.16353-369.44807-209.62334-351.327-209.36573-332.57133-209.72893-314.1394-210.34682-298.9904-210.7066-299.2318-209.20449-298.0495-195.42015-299.50636-188.02054-298.3485-181.81331-299.12739-175.77167-299.1747-160.64813-298.77876-159.2065-314.1585-160.78032-333.03593-160.47972-351.18867-159.52579-369.97709-159.01918-385.65504-160.04598-385.55226-159.99861-384.1805-175.78395-385.5146-181.59244-384.98454-188.24295-384.5295-194.05515-384.49919-209.71129-385.29795-210.51921-370.38938-209.06995Z"/>
<path transform="matrix(1,0,0,-1,868.7349,136.60134)" stroke-width=".75" stroke-linecap="round" stroke-linejoin="round" fill="none" stroke="#000000" d="M-447.9563 .021534C-448.68449 12.070231-457.1982 20.983059-469.35139 22.525357-482.57545 21.78721-490.86045 12.700154-491.39845-.936249-491.46958-11.140987-481.60063-22.517-469.9986-22.1186-457.85649-22.052409-448.20225-12.107132-447.9563 .021534Z"/>
<path transform="matrix(1,0,0,-1,868.7349,136.60134)" stroke-width=".75" stroke-linecap="round" stroke-linejoin="round" fill="none" stroke="#000000" d="M-42.297948-.118957C-14.570657-.245177 13.663786-.303623 42.375478-.280024"/>
<path transform="matrix(1,0,0,-1,868.7349,136.60134)" stroke-width=".75" stroke-linecap="round" stroke-linejoin="round" fill="none" stroke="#000000" d="M29.225327-7.778799C32.4796-4.01092 37.11393-1.024931 42.127038-.068605 36.7986 1.359683 32.75417 3.944699 29.536929 7.890116"/>
<path transform="matrix(1,0,0,-1,868.7349,136.60134)" stroke-width=".75" stroke-linecap="round" stroke-linejoin="round" fill="none" stroke="#000000" d="M127.7644-.066964C156.10289-.019838 185.0071-.178845 213.2597-.335684"/>
<path transform="matrix(1,0,0,-1,868.7349,136.60134)" stroke-width=".75" stroke-linecap="round" stroke-linejoin="round" fill="none" stroke="#000000" d="M200.16219-8.22612C203.89315-3.661993 208.04222-1.506642 212.9254 .060052 208.17354 1.117667 204.00208 4.123471 200.6984 8.425501"/>
<path transform="matrix(1,0,0,-1,868.7349,136.60134)" stroke-width=".75" stroke-linecap="round" stroke-linejoin="round" fill="none" stroke="#000000" d="M-384.5784 92.7153C-413.18434 92.8414-441.2181 92.728359-469.775 92.0628-470.13996 69.3268-470.36738 45.37397-470.102 21.638083"/>
<path transform="matrix(1,0,0,-1,868.7349,136.60134)" stroke-width=".75" stroke-linecap="round" stroke-linejoin="round" fill="none" stroke="#000000" d="M-478.15379 34.511926C-474.309 31.451066-471.48677 26.892022-469.76747 21.759583-468.67085 26.625737-466.07777 31.5087-461.5764 34.405168"/>
<path transform="matrix(1,0,0,-1,868.7349,136.60134)" stroke-width=".75" stroke-linecap="round" stroke-linejoin="round" fill="none" stroke="#000000" d="M171.03144 .278618C170.46649-30.536744 171.00093-61.935644 170.67603-92.7 128.05359-92.29696 85.31158-92.70166 42.52629-92.21656"/>
<path transform="matrix(1,0,0,-1,868.7349,136.60134)" stroke-width=".75" stroke-linecap="round" stroke-linejoin="round" fill="none" stroke="#000000" d="M55.024869-84.15358C52.41978-88.09263 47.830984-91.49952 42.379549-92.34651 47.204549-93.523159 52.15217-96.05568 54.98238-100.406429"/>
<path transform="matrix(1,0,0,-1,868.7349,136.60134)" stroke-width=".75" stroke-linecap="round" stroke-linejoin="round" fill="none" stroke="#000000" d="M170.91892-.446764C170.72545-61.459 170.38317-123.5037 170.77516-184.90175 14.277126-185.1508-142.20819-184.46164-299.39637-184.75748"/>
<path transform="matrix(1,0,0,-1,868.7349,136.60134)" stroke-width=".75" stroke-linecap="round" stroke-linejoin="round" fill="none" stroke="#000000" d="M-286.91954-176.91986C-289.88304-180.77165-294.18367-183.23508-299.14646-184.38498-294.22856-185.59377-289.2315-189.22396-286.6574-192.78467"/>
<path transform="matrix(1,0,0,-1,868.7349,136.60134)" stroke-width=".75" stroke-linecap="round" stroke-linejoin="round" fill="none" stroke="#000000" d="M-112.45055-24.6376C-112.66614-24.510888-112.96822-25.104235-113.905338-24.387564-95.01405-24.895123-77.015148-24.413277-56.655336-24.077857-43.004304-25.008996-41.984079-25.518078-43.017045-10.418042-43.42336-3.540051-41.696966 2.41492-41.623525 9.204629-43.221658 24.463925-41.773679 25.79298-57.295083 25.283587-75.28892 24.675295-95.51675 25.17512-113.0332 25.558192-128.38375 24.544762-128.11171 24.225266-128.00615 10.244576-128.80803 4.017043-127.98039-3.425792-128.1768-10.28585-127.440288-24.24134-128.19692-25.238465-112.45055-24.6376Z"/>
<path transform="matrix(1,0,0,-1,868.7349,136.60134)" stroke-width=".75" stroke-linecap="round" stroke-linejoin="round" fill="none" stroke="#000000" d="M57.11045-25.592583C57.300554-24.704842 57.013544-25.253832 58.321874-25.178639 76.12665-25.446679 94.90552-24.44408 112.61311-24.798949 129.0616-25.22159 127.90163-23.984517 128.55583-9.046966 127.859279-3.369392 127.503559 4.172944 127.4645 10.863842 128.32613 24.244393 127.62818 25.211745 113.29712 25.316033 95.461627 24.560359 76.58585 25.771922 56.59793 24.104756 41.55503 25.449275 43.098615 25.678313 42.411226 9.308957 42.0747 3.603971 41.577409-3.195625 43.420915-8.982677 43.077135-25.710772 42.269109-24.742373 57.11045-25.592583Z"/>
<path transform="matrix(1,0,0,-1,868.7349,136.60134)" stroke-width=".75" stroke-linecap="round" stroke-linejoin="round" fill="none" stroke="#000000" d="M-28.780802-116.79515C-27.900782-118.13791-28.317467-117.19994-28.032732-117.15582-9.64224-117.87764 8.53187-117.10953 28.495093-117.34908 43.599565-118.03401 42.675024-117.72829 43.139886-101.978748 43.42665-95.227108 42.402975-89.10205 43.157178-82.87681 43.42507-68.08588 43.168317-67.163539 27.869004-68.34723 10.247746-68.01814-9.982866-68.284709-27.724963-66.67998-42.4848-66.50278-42.78837-66.51015-43.0542-82.983539-43.48481-89.339717-42.425985-95.19988-42.74406-101.45096-43.330488-117.807338-43.60072-117.40681-28.780802-116.79515Z"/>
<path transform="matrix(1,0,0,-1,868.7349,136.60134)" stroke-width=".75" stroke-linecap="round" stroke-linejoin="round" fill="none" stroke="#000000" d="M-370.15263 67.266979C-368.99586 66.91656-370.13273 68.096439-369.81465 66.61282-350.6158 67.23671-332.95726 67.002338-313.4991 67.41538-298.95347 66.6911-299.55659 66.99306-298.4175 83.30845-297.8819 89.27996-298.66148 95.22258-298.97377 103.23622-298.09455 117.76809-297.98304 118.18755-312.85044 118.11152-331.6174 116.917118-351.74433 117.51579-369.73655 117.324619-384.0937 117.98157-384.88526 117.662677-384.03706 102.975719-385.18238 95.20024-384.60813 88.95237-385.39378 83.12291-384.70878 67.091609-385.53526 67.99064-370.15263 67.266979Z"/>
<path transform="matrix(1,0,0,-1,868.7349,136.60134)" stroke-width=".75" stroke-linecap="round" stroke-linejoin="round" fill="none" stroke="#000000" d="M-369.88487-209.00107C-369.2109-210.62946-370.4984-208.8396-369.03648-209.40554-351.48445-209.75095-331.5085-209.17842-313.5342-210.10498-298.84175-209.66834-299.06983-209.38417-298.83436-195.53006-299.56568-187.93741-299.49696-181.32138-299.2258-174.51564-299.10816-159.66849-298.91154-158.90328-313.52003-159.62729-333.18739-160.25511-350.79997-159.99118-369.32118-159.13642-384.86119-159.19425-384.61244-159.53658-385.28398-175.53859-384.39503-182.33313-384.24555-187.82094-385.38648-194.39089-384.03758-209.53153-384.55714-208.98973-369.88487-209.00107Z"/>
<path transform="matrix(1,0,0,-1,868.7349,136.60134)" stroke-width=".75" stroke-linecap="round" stroke-linejoin="round" fill="none" stroke="#000000" d="M-448.9296 .46826C-449.1358 12.402736-458.56358 21.67039-469.34849 21.394543-482.21846 21.834656-491.36106 11.128599-491.01753-.324501-491.61549-12.061827-482.51506-22.1191-469.81599-22.329588-457.4921-21.009808-448.2476-12.235134-448.9296 .46826Z"/>
<path transform="matrix(1,0,0,-1,868.7349,136.60134)" stroke-width=".75" stroke-linecap="round" stroke-linejoin="round" fill="none" stroke="#000000" d="M-42.40104 .110402C-14.381137-.02005 13.473701 .181705 42.536088 .235377"/>
<path transform="matrix(1,0,0,-1,868.7349,136.60134)" stroke-width=".75" stroke-linecap="round" stroke-linejoin="round" fill="none" stroke="#000000" d="M29.771239-8.034813C32.578588-4.449745 37.36713-.895167 42.05589 .024359 36.968194 1.000989 32.991945 4.231146 29.657542 7.884841"/>
<path transform="matrix(1,0,0,-1,868.7349,136.60134)" stroke-width=".75" stroke-linecap="round" stroke-linejoin="round" fill="none" stroke="#000000" d="M128.40264-.071004C156.90695 .383079 184.94696 .321611 213.07489 .262321"/>
<path transform="matrix(1,0,0,-1,868.7349,136.60134)" stroke-width=".75" stroke-linecap="round" stroke-linejoin="round" fill="none" stroke="#000000" d="M200.9306-8.270637C204.12882-4.108292 207.72888-.733912 212.90019 .221741 208.20236 1.399024 204.02422 3.870327 200.87665 8.181403"/>
<path transform="matrix(1,0,0,-1,868.7349,136.60134)" stroke-width=".75" stroke-linecap="round" stroke-linejoin="round" fill="none" stroke="#000000" d="M-384.33815 92.61613C-413.13423 92.829837-442.0074 92.60888-470.3269 92.11499-470.2877 68.93847-469.88435 45.371576-469.63298 21.72353"/>
<path transform="matrix(1,0,0,-1,868.7349,136.60134)" stroke-width=".75" stroke-linecap="round" stroke-linejoin="round" fill="none" stroke="#000000" d="M-477.95838 34.328805C-474.39448 31.246939-471.0522 27.010399-469.9279 21.982958-469.18223 26.659379-465.55268 31.526793-462.19664 34.327688"/>
<path transform="matrix(1,0,0,-1,868.7349,136.60134)" stroke-width=".75" stroke-linecap="round" stroke-linejoin="round" fill="none" stroke="#000000" d="M170.44417 .40732C170.21035-30.75009 170.50237-61.719644 170.94207-92.8092 127.80279-92.654438 84.909908-92.35909 42.651029-92.282939"/>
<path transform="matrix(1,0,0,-1,868.7349,136.60134)" stroke-width=".75" stroke-linecap="round" stroke-linejoin="round" fill="none" stroke="#000000" d="M54.977018-84.499118C51.718015-88.75869 47.60319-91.576389 42.448648-92.11468 48.039636-93.12138 51.736589-95.997737 55.118577-100.69054"/>
<path transform="matrix(1,0,0,-1,868.7349,136.60134)" stroke-width=".75" stroke-linecap="round" stroke-linejoin="round" fill="none" stroke="#000000" d="M170.56583-.28842C170.56798-61.397195 170.86165-123.34404 170.62288-185.19628 13.610604-184.58853-142.86408-184.82692-298.99134-184.80789"/>
<path transform="matrix(1,0,0,-1,868.7349,136.60134)" stroke-width=".75" stroke-linecap="round" stroke-linejoin="round" fill="none" stroke="#000000" d="M-286.39915-176.79286C-289.94929-180.81995-294.3169-183.79235-299.33219-184.80683-294.10719-185.81029-289.53645-188.6561-286.56297-192.79863"/>
<use data-text="+" xlink:href="#font_11_1" transform="matrix(21.519354,0,0,-21.519316,360.6915,128.85849)"/>
<use data-text="&#x2212;" xlink:href="#font_11_7" transform="matrix(21.519371,0,0,-21.519288,404.89076,111.8038)"/>
<use data-text="U" xlink:href="#font_11_8" transform="matrix(21.519457,0,0,-21.519398,6.814331,141.9826)"/>
<use data-text="(" xlink:href="#font_11_4" transform="matrix(21.519457,0,0,-21.519398,23.470395,141.9826)"/>
<use data-text="s" xlink:href="#font_11_5" transform="matrix(21.519457,0,0,-21.519398,33.015565,141.9826)"/>
<use data-text=")" xlink:href="#font_11_6" transform="matrix(21.519457,0,0,-21.519398,44.00254,141.9826)"/>
<use data-text="Y" xlink:href="#font_11_9" transform="matrix(21.519246,0,0,-21.519398,1086.4069,141.9826)"/>
<use data-text="(" xlink:href="#font_11_4" transform="matrix(21.519246,0,0,-21.519398,1099.5556,141.9826)"/>
<use data-text="s" xlink:href="#font_11_5" transform="matrix(21.519246,0,0,-21.519398,1109.1007,141.9826)"/>
<use data-text=")" xlink:href="#font_11_6" transform="matrix(21.519246,0,0,-21.519398,1120.0875,141.9826)"/>
<path transform="matrix(1,0,0,-1,868.735,136.60134)" d="M1.945467-.429633C2.168437 .443412 2.249029 .755848 1.234863 1.301357 1.133148 2.111121 .350041 2.42063-.261406 2.235663-.374932 2.119742-1.258823 1.76852-1.662973 1.238435-2.201389 1.142576-1.942912 .5792-1.879024-.294895-2.63641-.988329-2.323188-1.577157-1.591582-1.155179-1.430726-1.582206-.153371-2.629399 .24954-2.158813 .25002-2.497228 1.203954-1.861722 1.897936-1.78214 2.29658-1.501342 1.838034-1.017841 1.945467-.429633Z" fill="#d90000"/>
<path transform="matrix(1,0,0,-1,868.735,136.60134)" stroke-width=".75" stroke-linecap="round" stroke-linejoin="round" fill="none" stroke="#000000" d="M.182021-.033974C-.05687 30.84728 .015657 61.38386-.171511 92.04472-99.04922 92.70566-198.6431 92.78876-298.79478 92.4605"/>
<path transform="matrix(1,0,0,-1,868.735,136.60134)" stroke-width=".75" stroke-linecap="round" stroke-linejoin="round" fill="none" stroke="#000000" d="M-285.63697 100.627788C-289.13789 96.77982-292.9864 93.87686-298.24516 92.20762-293.02653 90.85726-289.03514 88.17485-285.80604 83.98368"/>
<path transform="matrix(1,0,0,-1,868.735,136.60134)" stroke-width=".75" stroke-linecap="round" stroke-linejoin="round" fill="none" stroke="#000000" d="M.196957 .211997C.332168 30.427252-.413452 61.8205 .387369 92.04405-99.79412 92.67043-199.0878 92.518558-298.5923 92.14887"/>
<path transform="matrix(1,0,0,-1,868.735,136.60134)" stroke-width=".75" stroke-linecap="round" stroke-linejoin="round" fill="none" stroke="#000000" d="M-286.0598 100.14882C-289.21769 96.13507-293.6094 93.76797-298.44105 92.76395-293.26899 90.875339-288.82356 88.02931-285.53694 84.1497"/>
<path transform="matrix(1,0,0,-1,868.735,136.60134)" stroke-width=".75" stroke-linecap="round" stroke-linejoin="round" fill="none" stroke="#000000" d="M.36018 .021656C-.006812 31.104275-.058137 61.846174-.31992 92.75616-99.851779 91.98049-198.76187 92.23057-298.8473 92.32014"/>
<path transform="matrix(1,0,0,-1,868.735,136.60134)" stroke-width=".75" stroke-linecap="round" stroke-linejoin="round" fill="none" stroke="#000000" d="M-286.0149 100.54648C-288.5389 96.235729-293.4117 93.57874-298.517 92.12573-293.18507 91.64673-288.95356 88.3951-285.39768 84.28314"/>
<path transform="matrix(1,0,0,-1,868.735,136.60134)" stroke-width=".75" stroke-linecap="round" stroke-linejoin="round" fill="none" stroke="#000000" d="M-.074748 .051252C.020969 31.202733 .10698 61.99102-.041107 92.47918-99.22227 92.85843-199.25446 92.85544-298.72065 92.14967"/>
<path transform="matrix(1,0,0,-1,868.735,136.60134)" stroke-width=".75" stroke-linecap="round" stroke-linejoin="round" fill="none" stroke="#000000" d="M-286.06916 100.26796C-289.34495 96.363719-293.6027 93.71311-298.078 92.04865-293.49723 91.46287-288.97233 88.127758-285.40364 83.987079"/>
<path transform="matrix(1,0,0,-1,868.735,136.60134)" stroke-width=".75" stroke-linecap="round" stroke-linejoin="round" fill="none" stroke="#000000" d="M-.416577-.251136C-.275466 30.894703 .006962 61.69218 .150175 92.47037-99.60313 92.608989-199.2416 92.37851-298.6435 92.06305"/>
<path transform="matrix(1,0,0,-1,868.735,136.60134)" stroke-width=".75" stroke-linecap="round" stroke-linejoin="round" fill="none" stroke="#000000" d="M-285.53257 100.807949C-288.67277 96.21782-293.075 93.23417-298.01173 92.27638-293.68656 90.94716-288.9435 88.04816-285.44303 83.98914"/>
<use data-text="+" xlink:href="#font_11_1" transform="matrix(37.185197,0,0,-37.18505,128.25074,146.12213)"/>
<use data-text="+" xlink:href="#font_11_1" transform="matrix(37.185197,0,0,-37.18505,641.152,146.12213)"/>
<use data-text="G" xlink:href="#font_11_2" transform="matrix(21.519362,0,0,-21.519398,242.71637,141.9826)"/>
<use data-text="1" xlink:href="#font_11_3" transform="matrix(16.438399,0,0,-16.438426,259.1836,146.28357)"/>
<use data-text="(" xlink:href="#font_11_4" transform="matrix(21.519362,0,0,-21.519398,269.42619,141.9826)"/>
<use data-text="s" xlink:href="#font_11_5" transform="matrix(21.519362,0,0,-21.519398,278.9713,141.9826)"/>
<use data-text=")" xlink:href="#font_11_6" transform="matrix(21.519362,0,0,-21.519398,289.95829,141.9826)"/>
<use data-text="G" xlink:href="#font_11_2" transform="matrix(21.519362,0,0,-21.519398,499.16703,141.9826)"/>
<use data-text="2" xlink:href="#font_11_10" transform="matrix(16.438399,0,0,-16.438426,515.6343,146.2178)"/>
<use data-text="(" xlink:href="#font_11_4" transform="matrix(21.519362,0,0,-21.519398,525.87686,141.9826)"/>
<use data-text="s" xlink:href="#font_11_5" transform="matrix(21.519362,0,0,-21.519398,535.422,141.9826)"/>
<use data-text=")" xlink:href="#font_11_6" transform="matrix(21.519362,0,0,-21.519398,546.40896,141.9826)"/>
<path transform="matrix(1,0,0,-1,868.735,136.60134)" stroke-width=".75" stroke-linecap="round" stroke-linejoin="round" fill="none" stroke="#000000" d="M-626.02767-24.032879C-625.14419-24.01653-626.46438-24.28734-626.69479-25.740908-607.1123-24.674618-588.6661-25.085717-569.85256-25.288924-554.69967-24.803025-555.1149-24.112589-555.36129-9.99562-554.93826-3.09786-554.7472 4.093731-555.61227 9.67743-554.70468 25.30985-556.131 24.964253-570.0118 24.466202-589.7589 25.811493-607.49716 25.41398-625.34689 24.390776-641.4662 25.087824-641.31137 24.293292-640.2626 9.759035-640.6126 2.943787-640.66116-2.937385-640.3227-9.836973-640.406-25.847287-641.4002-25.371098-626.02767-24.032879Z"/>
<path transform="matrix(1,0,0,-1,868.735,136.60134)" stroke-width=".75" stroke-linecap="round" stroke-linejoin="round" fill="none" stroke="#000000" d="M-369.59849-24.282877C-370.44279-25.538483-368.7391-25.508564-370.15135-24.998314-351.8003-24.502272-332.21214-24.357716-313.683-24.928359-299.47709-24.196673-298.8206-24.715218-298.5006-10.101768-298.61415-3.245291-298.5773 3.957012-299.60179 10.28614-299.15925 25.406134-298.99745 25.03992-314.0679 25.815234-333.24046 25.498646-350.9273 24.239502-369.81294 25.704825-383.77116 24.362751-385.01765 24.490305-383.91966 9.219849-383.7052 2.383536-384.9918-4.122497-384.56974-9.598689-384.01576-25.291834-383.77693-24.714129-369.59849-24.282877Z"/>
<path transform="matrix(1,0,0,-1,868.735,136.60134)" stroke-width=".75" stroke-linecap="round" stroke-linejoin="round" fill="none" stroke="#000000" d="M-705.2359 .142915C-704.2659 11.209769-715.06399 21.61931-726.73599 22.031647-739.2573 22.190932-748.92819 11.242815-747.7402 .127928-749.0685-12.74605-737.9153-22.557023-726.07-21.332295-714.1012-22.065903-705.5354-11.044391-705.2359 .142915Z"/>
<path transform="matrix(1,0,0,-1,868.735,136.60134)" stroke-width=".75" stroke-linecap="round" stroke-linejoin="round" fill="none" stroke="#000000" d="M-190.9566-.62693C-191.87142 12.462084-201.15569 22.324887-214.2446 22.27461-225.85074 21.032937-235.11203 10.981192-235.37897-.000887-235.28389-12.212311-224.99767-22.228869-213.17894-22.299305-201.02426-20.700654-191.87825-11.292164-190.9566-.62693Z"/>
<path transform="matrix(1,0,0,-1,868.735,136.60134)" stroke-width=".75" stroke-linecap="round" stroke-linejoin="round" fill="none" stroke="#000000" d="M-812.21908 .364691C-790.9099-.406598-769.9808-.018472-748.03958-.442239"/>
<path transform="matrix(1,0,0,-1,868.735,136.60134)" stroke-width=".75" stroke-linecap="round" stroke-linejoin="round" fill="none" stroke="#000000" d="M-760.9771-8.046035C-758.1424-3.862214-753.82437-.895643-748.2554-.412557-753.58059 1.336663-757.8467 4.406918-760.8131 7.883164"/>
<path transform="matrix(1,0,0,-1,868.735,136.60134)" stroke-width=".75" stroke-linecap="round" stroke-linejoin="round" fill="none" stroke="#000000" d="M-705.0371 .064905C-683.46206 .306796-662.2903 .185017-641.52389-.080408"/>
<path transform="matrix(1,0,0,-1,868.735,136.60134)" stroke-width=".75" stroke-linecap="round" stroke-linejoin="round" fill="none" stroke="#000000" d="M-653.76577-8.067515C-651.18557-4.447535-646.664-1.389228-641.76 .192926-646.0867 .708359-651.0657 4.273761-654.3114 7.960662"/>
<path transform="matrix(1,0,0,-1,868.735,136.60134)" stroke-width=".75" stroke-linecap="round" stroke-linejoin="round" fill="none" stroke="#000000" d="M-555.2835 .297096C-534.50637-.148643-512.7853 .198745-491.98194-.433835"/>
<path transform="matrix(1,0,0,-1,868.735,136.60134)" stroke-width=".75" stroke-linecap="round" stroke-linejoin="round" fill="none" stroke="#000000" d="M-504.68775-8.317257C-501.6564-3.720571-497.2641-.791244-491.59407-.245884-496.75895 .809031-501.77809 4.091875-505.11427 7.81566"/>
<path transform="matrix(1,0,0,-1,868.735,136.60134)" stroke-width=".75" stroke-linecap="round" stroke-linejoin="round" fill="none" stroke="#000000" d="M-448.606-.315803C-427.30647 .33377-405.6538 .049261-384.7662-.053407"/>
<path transform="matrix(1,0,0,-1,868.735,136.60134)" stroke-width=".75" stroke-linecap="round" stroke-linejoin="round" fill="none" stroke="#000000" d="M-397.35554-7.919737C-394.76087-3.983074-389.79853-.984256-384.51145-.029966-390.1261 1.387778-394.27949 4.110215-397.3542 8.142144"/>
<path transform="matrix(1,0,0,-1,868.735,136.60134)" stroke-width=".75" stroke-linecap="round" stroke-linejoin="round" fill="none" stroke="#000000" d="M-299.05116 .399427C-277.90306-.037874-256.74934-.18857-235.81809 .013917"/>
<path transform="matrix(1,0,0,-1,868.735,136.60134)" stroke-width=".75" stroke-linecap="round" stroke-linejoin="round" fill="none" stroke="#000000" d="M-247.99092-7.819719C-245.08931-3.706816-240.18881-.748044-235.80646 .360593-240.44359 1.339772-244.70668 4.114014-248.01645 7.901032"/>
<path transform="matrix(1,0,0,-1,868.735,136.60134)" stroke-width=".75" stroke-linecap="round" stroke-linejoin="round" fill="none" stroke="#000000" d="M-191.50672-.387427C-170.44626 .092785-149.53553 .354238-128.54819-.064669"/>
<path transform="matrix(1,0,0,-1,868.735,136.60134)" stroke-width=".75" stroke-linecap="round" stroke-linejoin="round" fill="none" stroke="#000000" d="M-140.78606-7.822069C-138.42195-4.422589-133.36511-1.121514-128.3234 .420191-133.78537 1.51455-138.39022 4.025615-141.23004 8.477251"/>
<path transform="matrix(1,0,0,-1,868.735,136.60134)" stroke-width=".75" stroke-linecap="round" stroke-linejoin="round" fill="none" stroke="#000000" d="M-43.034017-92.170848C-99.7885-92.33154-156.4351-92.49326-213.13077-92.587848-213.38092-69.15335-213.96949-45.150075-213.90532-22.031523"/>
<path transform="matrix(1,0,0,-1,868.735,136.60134)" stroke-width=".75" stroke-linecap="round" stroke-linejoin="round" fill="none" stroke="#000000" d="M-205.54122-35.08834C-209.2845-31.590725-212.32163-27.127079-213.6938-22.130873-214.72396-26.618706-217.20514-31.108748-221.974-34.343069"/>
<path transform="matrix(1,0,0,-1,868.735,136.60134)" stroke-width=".75" stroke-linecap="round" stroke-linejoin="round" fill="none" stroke="#000000" d="M-384.33387-184.90183C-498.96504-185.22687-612.21206-185.14626-726.3277-184.70249-726.63558-130.49886-726.56369-75.94897-726.3082-21.77805"/>
<path transform="matrix(1,0,0,-1,868.735,136.60134)" stroke-width=".75" stroke-linecap="round" stroke-linejoin="round" fill="none" stroke="#000000" d="M-718.4288-34.50518C-722.1601-31.839592-725.07626-26.780949-726.2889-22.238963-727.297-26.717597-730.12667-31.123833-734.12026-35.008855"/>
<path transform="matrix(1,0,0,-1,868.735,136.60134)" stroke-width=".75" stroke-linecap="round" stroke-linejoin="round" fill="none" stroke="#000000" d="M-625.28219-24.553063C-626.54348-24.600392-625.4297-24.817902-626.9631-24.85192-607.01577-25.2046-588.2159-24.093909-571.3187-24.52697-554.98086-25.898873-556.02017-24.483008-555.0641-10.615926-554.9854-4.112918-555.1931 2.91073-555.8345 10.446174-554.7658 25.27408-555.37936 23.974125-569.77767 25.71392-589.5506 24.18217-606.61819 25.541098-625.9099 25.438094-641.41909 24.846238-640.3736 24.774458-641.9323 9.627009-640.20388 2.546313-640.6396-3.964543-640.0852-10.738978-640.1315-25.025444-641.0021-25.216235-625.28219-24.553063Z"/>
<path transform="matrix(1,0,0,-1,868.735,136.60134)" stroke-width=".75" stroke-linecap="round" stroke-linejoin="round" fill="none" stroke="#000000" d="M-370.45994-25.383236C-369.33967-24.000777-368.82289-25.127114-369.38938-25.771706-351.053-25.316926-333.16578-24.918938-313.7139-25.06409-298.60169-25.614182-298.57533-25.675026-298.84968-10.59575-298.93284-3.924098-298.3936 2.915626-298.1084 9.809845-299.26744 25.296929-298.11195 24.553137-313.4251 25.032172-331.54768 25.177313-351.86845 24.425427-370.3955 24.852154-384.3026 25.821612-384.1494 24.134615-384.73503 9.697671-385.32609 3.774998-383.8033-3.236251-385.2791-10.630832-385.48435-24.369385-384.71165-25.51044-370.45994-25.383236Z"/>
<path transform="matrix(1,0,0,-1,868.735,136.60134)" stroke-width=".75" stroke-linecap="round" stroke-linejoin="round" fill="none" stroke="#000000" d="M-704.68-.288043C-705.2864 12.110714-713.9942 21.906813-727.34469 22.05985-739.11019 21.6516-748.3571 12.835441-747.6528-.682592-747.5372-11.010526-738.36398-22.059294-726.815-20.947083-715.0338-20.835955-705.3254-12.304893-704.68-.288043Z"/>
<path transform="matrix(1,0,0,-1,868.735,136.60134)" stroke-width=".75" stroke-linecap="round" stroke-linejoin="round" fill="none" stroke="#000000" d="M-191.89423 .291686C-192.55065 12.531865-201.90032 21.053687-213.96903 22.123763-225.66434 22.31686-235.12537 11.006732-236.1309 .524024-235.69338-11.682863-225.37397-21.254292-214.35887-21.973505-201.92372-22.259886-191.42827-12.63189-191.89423 .291686Z"/>
<path transform="matrix(1,0,0,-1,868.735,136.60134)" stroke-width=".75" stroke-linecap="round" stroke-linejoin="round" fill="none" stroke="#000000" d="M-811.8762 .272837C-790.5969-.133899-770.05337-.18816-748.5755 .187938"/>
<path transform="matrix(1,0,0,-1,868.735,136.60134)" stroke-width=".75" stroke-linecap="round" stroke-linejoin="round" fill="none" stroke="#000000" d="M-761.1314-7.739705C-757.82766-4.26362-753.21786-1.064039-748.3058-.311864-753.47946 1.244463-757.8272 4.34521-760.8486 7.647465"/>
<path transform="matrix(1,0,0,-1,868.735,136.60134)" stroke-width=".75" stroke-linecap="round" stroke-linejoin="round" fill="none" stroke="#000000" d="M-704.92306 .399576C-683.22146-.248575-662.5789-.074191-641.1464 .117504"/>
<path transform="matrix(1,0,0,-1,868.735,136.60134)" stroke-width=".75" stroke-linecap="round" stroke-linejoin="round" fill="none" stroke="#000000" d="M-654.2127-7.961422C-650.96566-3.904988-646.1032-1.342036-640.98599-.072995-646.7293 1.128993-651.03567 4.281455-653.89016 7.727685"/>
<path transform="matrix(1,0,0,-1,868.735,136.60134)" stroke-width=".75" stroke-linecap="round" stroke-linejoin="round" fill="none" stroke="#000000" d="M-555.1907 .177091C-534.11416 .18063-513.1897-.302557-492.45994 .435723"/>
<path transform="matrix(1,0,0,-1,868.735,136.60134)" stroke-width=".75" stroke-linecap="round" stroke-linejoin="round" fill="none" stroke="#000000" d="M-504.81327-8.210739C-501.1953-4.153595-496.75086-1.200438-491.69999 .216186-497.14265 1.016696-501.3956 3.873269-504.63719 7.87621"/>
<path transform="matrix(1,0,0,-1,868.735,136.60134)" stroke-width=".75" stroke-linecap="round" stroke-linejoin="round" fill="none" stroke="#000000" d="M-448.7273 .421321C-427.48158 .439114-406.0402 .192966-384.82896 .276912"/>
<path transform="matrix(1,0,0,-1,868.735,136.60134)" stroke-width=".75" stroke-linecap="round" stroke-linejoin="round" fill="none" stroke="#000000" d="M-397.34776-8.142726C-394.30549-4.280786-390.3232-1.330706-385.2807-.343891-390.14878 .728323-394.6963 4.196863-397.21195 8.059571"/>
<path transform="matrix(1,0,0,-1,868.735,136.60134)" stroke-width=".75" stroke-linecap="round" stroke-linejoin="round" fill="none" stroke="#000000" d="M-298.61647 .012914C-278.02665 .430974-256.7915-.252767-235.64736 .033766"/>
<path transform="matrix(1,0,0,-1,868.735,136.60134)" stroke-width=".75" stroke-linecap="round" stroke-linejoin="round" fill="none" stroke="#000000" d="M-248.0215-7.785518C-245.17687-4.312407-240.28836-1.47374-235.74687 .384595-240.38141 1.053635-245.41568 3.988919-248.24347 8.221874"/>
<path transform="matrix(1,0,0,-1,868.735,136.60134)" stroke-width=".75" stroke-linecap="round" stroke-linejoin="round" fill="none" stroke="#000000" d="M-191.59587 .437483C-170.42737-.368791-149.23271-.107236-128.8206-.292684"/>
<path transform="matrix(1,0,0,-1,868.735,136.60134)" stroke-width=".75" stroke-linecap="round" stroke-linejoin="round" fill="none" stroke="#000000" d="M-140.82105-7.621093C-137.88793-4.192309-133.70258-1.28668-128.16939-.372497-133.43791 1.522875-137.9017 3.905175-140.90579 8.084164"/>
<path transform="matrix(1,0,0,-1,868.735,136.60134)" stroke-width=".75" stroke-linecap="round" stroke-linejoin="round" fill="none" stroke="#000000" d="M-42.66976-92.15914C-100.02138-92.72656-156.39373-92.84919-213.41889-92.013248-213.37343-69.00411-213.30576-45.754205-213.65653-22.427937"/>
<path transform="matrix(1,0,0,-1,868.735,136.60134)" stroke-width=".75" stroke-linecap="round" stroke-linejoin="round" fill="none" stroke="#000000" d="M-205.76082-35.10543C-209.75673-31.439332-212.01583-26.889466-213.47422-22.37534-214.62302-27.105845-217.21431-31.37311-221.56221-34.504774"/>
<path transform="matrix(1,0,0,-1,868.735,136.60134)" stroke-width=".75" stroke-linecap="round" stroke-linejoin="round" fill="none" stroke="#000000" d="M-385.21253-185.0091C-498.47257-184.97089-612.6436-185.16927-726.70516-184.80731-726.4516-130.81018-726.0798-76.01568-726.46237-22.060124"/>
<path transform="matrix(1,0,0,-1,868.735,136.60134)" stroke-width=".75" stroke-linecap="round" stroke-linejoin="round" fill="none" stroke="#000000" d="M-718.20266-34.65695C-722.2563-31.929739-725.6776-27.05974-726.30087-21.83696-727.2944-27.194285-730.5679-31.570004-734.346-34.417997"/>
<path transform="matrix(1,0,0,-1,868.735,136.60134)" stroke-width=".75" stroke-linecap="round" stroke-linejoin="round" fill="none" stroke="#000000" d="M-626.46646-25.127512C-626.6564-25.186135-626.95266-24.680804-625.0935-25.489373-607.43368-24.028237-589.3082-25.467185-571.08956-25.221579-556.38388-24.137867-555.1872-25.863289-555.8023-9.986916-555.77249-2.940887-554.5804 4.21031-555.7275 10.702322-555.24386 25.455512-555.5305 25.535698-570.7283 24.839962-589.03408 24.41413-607.75357 25.079035-626.30398 24.04596-640.11788 25.004094-641.1907 24.095215-640.64089 9.337052-641.7736 3.359872-641.10696-2.692558-640.71487-9.865892-641.62576-24.208649-641.9068-25.899376-626.46646-25.127512Z"/>
<path transform="matrix(1,0,0,-1,868.735,136.60134)" stroke-width=".75" stroke-linecap="round" stroke-linejoin="round" fill="none" stroke="#000000" d="M-369.9617-25.471835C-369.25148-23.99163-368.75025-24.907235-368.7596-25.453227-351.13288-25.812747-332.71839-25.600047-314.27449-25.252337-298.58985-25.083962-298.94523-24.219056-299.03547-9.808423-298.5731-3.983947-299.41578 4.273299-298.40638 9.587848-299.0429 25.505698-298.86418 25.857096-313.39567 24.973685-333.3815 24.024407-350.39463 23.993769-370.30906 24.408518-383.83869 24.261832-384.6417 24.510003-384.09947 10.053371-384.72669 3.974058-385.3663-3.292657-383.787-9.318317-385.33937-25.586073-383.59907-24.62263-369.9617-25.471835Z"/>
<path transform="matrix(1,0,0,-1,868.735,136.60134)" stroke-width=".75" stroke-linecap="round" stroke-linejoin="round" fill="none" stroke="#000000" d="M-703.9227 .504596C-705.0245 11.529647-713.58377 21.873204-727.398 21.203074-738.4421 22.56214-748.1729 11.662288-747.2263 .501526-747.92617-12.828417-738.5909-21.696593-726.1216-21.733382-715.1213-20.75924-705.1188-11.394382-703.9227 .504596Z"/>
<path transform="matrix(1,0,0,-1,868.735,136.60134)" stroke-width=".75" stroke-linecap="round" stroke-linejoin="round" fill="none" stroke="#000000" d="M-192.37326 .504261C-191.05362 11.449942-202.1495 22.144259-213.40827 21.729563-225.08705 21.099417-235.16793 12.033192-236.02849 .257432-235.70133-12.293353-225.30358-21.970582-213.69358-22.360836-201.86277-21.76701-191.9935-11.814827-192.37326 .504261Z"/>
<path transform="matrix(1,0,0,-1,868.735,136.60134)" stroke-width=".75" stroke-linecap="round" stroke-linejoin="round" fill="none" stroke="#000000" d="M-811.9262 .440913C-790.942-.347894-769.1948 .339829-748.9125-.200242"/>
<path transform="matrix(1,0,0,-1,868.735,136.60134)" stroke-width=".75" stroke-linecap="round" stroke-linejoin="round" fill="none" stroke="#000000" d="M-761.57369-8.503965C-757.7392-4.437858-753.6823-.914615-748.6608 .229447-753.5619 .908459-758.1259 3.596925-761.3725 7.678085"/>
<path transform="matrix(1,0,0,-1,868.735,136.60134)" stroke-width=".75" stroke-linecap="round" stroke-linejoin="round" fill="none" stroke="#000000" d="M-705.2388 .390198C-683.703-.159356-662.13558 .327991-641.00088-.098617"/>
<path transform="matrix(1,0,0,-1,868.735,136.60134)" stroke-width=".75" stroke-linecap="round" stroke-linejoin="round" fill="none" stroke="#000000" d="M-653.7055-8.001599C-651.1623-3.952511-646.1175-.870142-641.6851 .087983-646.688 .983432-650.7203 4.154132-654.37857 8.492494"/>
<path transform="matrix(1,0,0,-1,868.735,136.60134)" stroke-width=".75" stroke-linecap="round" stroke-linejoin="round" fill="none" stroke="#000000" d="M-555.28536 .424102C-534.17587-.188785-512.83187-.354448-492.14469 .411685"/>
<path transform="matrix(1,0,0,-1,868.735,136.60134)" stroke-width=".75" stroke-linecap="round" stroke-linejoin="round" fill="none" stroke="#000000" d="M-504.23289-8.141018C-501.2636-3.941399-497.13093-1.031083-492.01664-.440302-496.69993 .822174-501.1135 3.637386-504.9954 7.723231"/>
<path transform="matrix(1,0,0,-1,868.735,136.60134)" stroke-width=".75" stroke-linecap="round" stroke-linejoin="round" fill="none" stroke="#000000" d="M-447.9915 .17865C-427.39476-.420338-405.83036 .245324-385.29759 .191239"/>
<path transform="matrix(1,0,0,-1,868.735,136.60134)" stroke-width=".75" stroke-linecap="round" stroke-linejoin="round" fill="none" stroke="#000000" d="M-397.7641-7.933324C-394.2844-3.609164-389.69828-.745096-384.63993-.388603-389.9609 1.117347-394.83625 3.606684-397.5996 8.254138"/>
<path transform="matrix(1,0,0,-1,868.735,136.60134)" stroke-width=".75" stroke-linecap="round" stroke-linejoin="round" fill="none" stroke="#000000" d="M-298.55003-.247142C-277.56877-.439674-256.6278 .441625-235.41834-.021872"/>
<path transform="matrix(1,0,0,-1,868.735,136.60134)" stroke-width=".75" stroke-linecap="round" stroke-linejoin="round" fill="none" stroke="#000000" d="M-248.66298-7.994349C-244.82396-3.768043-240.81296-1.15548-235.88317 .40474-240.49849 .807122-245.10538 3.645219-248.05472 8.243677"/>
<path transform="matrix(1,0,0,-1,868.735,136.60134)" stroke-width=".75" stroke-linecap="round" stroke-linejoin="round" fill="none" stroke="#000000" d="M-192.31229-.296204C-170.95241-.239277-149.18239-.365523-128.94113-.107041"/>
<path transform="matrix(1,0,0,-1,868.735,136.60134)" stroke-width=".75" stroke-linecap="round" stroke-linejoin="round" fill="none" stroke="#000000" d="M-140.91365-8.255822C-137.58316-3.988087-133.66382-1.182042-128.79299-.222291-133.66716 .930127-138.20975 4.066246-141.4142 8.022069"/>
<path transform="matrix(1,0,0,-1,868.735,136.60134)" stroke-width=".75" stroke-linecap="round" stroke-linejoin="round" fill="none" stroke="#000000" d="M-43.043664-92.140529C-100.13964-92.08783-156.35663-92.49604-213.61957-92.02116-213.42966-68.52363-213.72318-45.49257-213.93288-21.772486"/>
<path transform="matrix(1,0,0,-1,868.735,136.60134)" stroke-width=".75" stroke-linecap="round" stroke-linejoin="round" fill="none" stroke="#000000" d="M-205.2577-34.267194C-209.54515-31.86078-212.47093-26.695208-213.68744-22.235323-214.84809-26.741759-217.64102-31.704842-221.96248-34.45805"/>
<path transform="matrix(1,0,0,-1,868.735,136.60134)" stroke-width=".75" stroke-linecap="round" stroke-linejoin="round" fill="none" stroke="#000000" d="M-385.19786-184.78505C-498.71687-185.26284-612.3342-185.23897-726.47769-184.46906-726.4307-130.87786-726.20278-75.93533-726.68948-21.695504"/>
<path transform="matrix(1,0,0,-1,868.735,136.60134)" stroke-width=".75" stroke-linecap="round" stroke-linejoin="round" fill="none" stroke="#000000" d="M-718.069-34.461145C-722.62136-31.116023-725.3786-27.447216-726.2966-21.840657-727.81246-27.227805-730.2665-31.7072-734.95986-34.951379"/>
<path transform="matrix(1,0,0,-1,868.735,136.60134)" stroke-width=".75" stroke-linecap="round" stroke-linejoin="round" fill="none" stroke="#000000" d="M-626.5415-25.670613C-625.0783-25.180348-626.33816-24.994545-625.1742-24.879582-607.042-24.894419-588.45-24.33406-571.1174-24.384808-555.33047-25.78706-554.91598-24.88255-555.0129-10.355411-554.8015-3.572935-555.5675 2.9063-556.1837 8.991375-554.535 25.516638-555.8351 25.25269-570.02426 24.497225-588.5255 24.285384-607.41427 24.067168-626.9642 25.626564-640.22 25.44366-641.5451 24.20688-640.4419 10.457359-641.0494 2.476792-641.8125-4.042969-641.1845-9.619044-641.0984-25.689387-640.0556-24.036673-626.5415-25.670613Z"/>
<path transform="matrix(1,0,0,-1,868.735,136.60134)" stroke-width=".75" stroke-linecap="round" stroke-linejoin="round" fill="none" stroke="#000000" d="M-370.24104-25.518099C-369.36705-25.58541-369.9379-24.593983-369.59724-25.152783-350.76576-24.53425-331.62718-24.74244-314.7084-25.83706-298.3776-25.38791-298.17344-24.081404-299.33137-9.640154-299.70799-3.678698-299.89256 3.547822-298.42155 10.801588-298.2323 24.080124-298.19166 25.523034-314.9478 24.287053-332.9129 25.357897-350.15217 24.137669-369.35517 24.693453-384.98554 23.976073-385.39857 24.05865-384.59959 10.574793-383.9441 3.420539-384.89985-2.8121-384.5552-10.805784-383.6554-24.805434-385.4253-25.727477-370.24104-25.518099Z"/>
<path transform="matrix(1,0,0,-1,868.735,136.60134)" stroke-width=".75" stroke-linecap="round" stroke-linejoin="round" fill="none" stroke="#000000" d="M-704.91629 .799279C-705.1905 11.225524-714.6326 22.249993-727.0701 21.678608-738.40267 22.251858-748.55 11.446883-747.46487 .465778-748.9274-11.155806-738.12716-20.92991-726.24447-22.550095-714.85397-21.644062-705.2253-11.920245-704.91629 .799279Z"/>
<path transform="matrix(1,0,0,-1,868.735,136.60134)" stroke-width=".75" stroke-linecap="round" stroke-linejoin="round" fill="none" stroke="#000000" d="M-191.58985-.405998C-191.037 12.228712-201.44699 21.564089-213.88312 21.290764-224.55507 22.122599-234.30939 11.396429-234.72097-.405261-234.32587-12.142911-225.16463-21.994246-213.08554-20.92171-202.2247-21.88781-192.09925-11.132082-191.58985-.405998Z"/>
<path transform="matrix(1,0,0,-1,868.735,136.60134)" stroke-width=".75" stroke-linecap="round" stroke-linejoin="round" fill="none" stroke="#000000" d="M-811.63528 .401457C-790.58847-.208982-769.57669 .237555-748.42037 .083382"/>
<path transform="matrix(1,0,0,-1,868.735,136.60134)" stroke-width=".75" stroke-linecap="round" stroke-linejoin="round" fill="none" stroke="#000000" d="M-761.4274-8.158983C-757.77236-3.675878-753.1787-1.340151-748.1336 .424068-753.41049 .763713-757.86636 4.008938-760.68948 8.065684"/>
<path transform="matrix(1,0,0,-1,868.735,136.60134)" stroke-width=".75" stroke-linecap="round" stroke-linejoin="round" fill="none" stroke="#000000" d="M-704.7913-.148109C-684.1165 .39952-662.5248 .299291-641.09976-.306372"/>
<path transform="matrix(1,0,0,-1,868.735,136.60134)" stroke-width=".75" stroke-linecap="round" stroke-linejoin="round" fill="none" stroke="#000000" d="M-653.98318-8.505782C-651.0024-4.322842-646.76736-1.282993-641.54757-.375411-646.1169 1.26457-651.0487 4.15868-653.9739 8.142101"/>
<path transform="matrix(1,0,0,-1,868.735,136.60134)" stroke-width=".75" stroke-linecap="round" stroke-linejoin="round" fill="none" stroke="#000000" d="M-555.0219 .021974C-533.8754 .236788-513.11056 .314717-492.133 .129248"/>
<path transform="matrix(1,0,0,-1,868.735,136.60134)" stroke-width=".75" stroke-linecap="round" stroke-linejoin="round" fill="none" stroke="#000000" d="M-505.02235-8.207064C-501.17259-3.984155-496.5961-1.026246-492.43736 .402495-496.84599 1.590875-501.21159 3.828789-504.63999 8.299349"/>
<path transform="matrix(1,0,0,-1,868.735,136.60134)" stroke-width=".75" stroke-linecap="round" stroke-linejoin="round" fill="none" stroke="#000000" d="M-448.30519 .276508C-427.12309 .045348-406.17155-.051295-385.2077 .391255"/>
<path transform="matrix(1,0,0,-1,868.735,136.60134)" stroke-width=".75" stroke-linecap="round" stroke-linejoin="round" fill="none" stroke="#000000" d="M-397.98783-7.738195C-394.70619-3.819873-390.17677-1.395146-385.28947 .427984-390.38398 .911037-394.02986 3.694409-397.92143 7.693954"/>
<path transform="matrix(1,0,0,-1,868.735,136.60134)" stroke-width=".75" stroke-linecap="round" stroke-linejoin="round" fill="none" stroke="#000000" d="M-299.12364 .240522C-277.67488-.33879-256.68235-.178916-235.63498-.216675"/>
<path transform="matrix(1,0,0,-1,868.735,136.60134)" stroke-width=".75" stroke-linecap="round" stroke-linejoin="round" fill="none" stroke="#000000" d="M-248.22292-8.402088C-245.28818-4.139086-240.86397-1.168382-235.45314-.289324-240.80324 1.042742-245.33551 3.858854-248.0215 8.508482"/>
<path transform="matrix(1,0,0,-1,868.735,136.60134)" stroke-width=".75" stroke-linecap="round" stroke-linejoin="round" fill="none" stroke="#000000" d="M-191.90879 .295042C-170.65589 .126809-149.62177-.353656-128.45099 .179382"/>
<path transform="matrix(1,0,0,-1,868.735,136.60134)" stroke-width=".75" stroke-linecap="round" stroke-linejoin="round" fill="none" stroke="#000000" d="M-141.05387-8.438501C-137.9024-3.766064-133.43489-.811148-128.7334-.391064-133.61048 1.277214-137.7263 4.030616-141.13285 8.1241"/>
<path transform="matrix(1,0,0,-1,868.735,136.60134)" stroke-width=".75" stroke-linecap="round" stroke-linejoin="round" fill="none" stroke="#000000" d="M-43.20124-92.30364C-99.62148-92.75185-157.01668-92.181858-213.97162-92.11711-213.52448-68.67248-213.0983-45.29616-213.47579-21.580834"/>
<path transform="matrix(1,0,0,-1,868.735,136.60134)" stroke-width=".75" stroke-linecap="round" stroke-linejoin="round" fill="none" stroke="#000000" d="M-205.36315-34.556928C-209.67504-31.335822-212.76094-26.721497-213.89109-22.471055-214.72054-26.928235-217.61818-31.575922-221.48053-34.70861"/>
<path transform="matrix(1,0,0,-1,868.735,136.60134)" stroke-width=".75" stroke-linecap="round" stroke-linejoin="round" fill="none" stroke="#000000" d="M-385.00849-184.70647C-498.95756-184.72765-612.2988-184.87007-726.12417-184.53357-726.0526-130.85697-726.6899-76.33531-726.7712-22.289082"/>
<path transform="matrix(1,0,0,-1,868.735,136.60134)" stroke-width=".75" stroke-linecap="round" stroke-linejoin="round" fill="none" stroke="#000000" d="M-718.6347-34.627969C-722.2532-31.568188-725.41067-26.781542-726.13-21.971886-727.8483-26.933104-730.34799-31.060654-734.3367-34.40311"/>
<path transform="matrix(1,0,0,-1,868.735,136.60134)" stroke-width=".75" stroke-linecap="round" stroke-linejoin="round" fill="none" stroke="#000000" d="M-625.5766-24.706524C-626.29019-24.9943-626.57699-25.714814-625.99856-24.528048-606.8062-24.346423-588.51156-25.562888-569.50808-24.829449-556.25747-24.946894-554.6704-25.733138-554.73477-10.618342-555.85879-3.921664-554.9036 3.135309-555.99337 9.071983-555.00466 24.876864-555.85049 25.0009-571.0657 25.596999-587.9875 24.430966-607.31936 25.793944-626.5496 25.096133-640.7454 25.134318-641.32278 25.79535-641.16189 10.370768-640.5964 3.29758-641.0019-3.977859-640.1914-10.31016-640.76138-23.977925-641.7394-24.380507-625.5766-24.706524Z"/>
<path transform="matrix(1,0,0,-1,868.735,136.60134)" stroke-width=".75" stroke-linecap="round" stroke-linejoin="round" fill="none" stroke="#000000" d="M-369.85954-24.88956C-369.94197-24.554455-369.06834-25.738486-368.6191-24.634963-351.15037-24.015509-333.01564-24.913229-314.41444-25.290122-299.853-24.13574-299.68788-24.807173-298.2757-10.766441-298.08576-2.424704-299.73704 3.232861-298.2313 9.743371-298.06687 25.916705-299.19023 24.620598-313.90205 24.242846-332.9281 25.44382-350.5952 24.406144-369.01905 24.275815-385.52738 25.589232-383.61283 25.815388-383.86457 10.751154-384.8675 2.592258-384.85826-3.689514-385.38496-10.752924-384.40354-25.667302-385.43489-25.220818-369.85954-24.88956Z"/>
<path transform="matrix(1,0,0,-1,868.735,136.60134)" stroke-width=".75" stroke-linecap="round" stroke-linejoin="round" fill="none" stroke="#000000" d="M-705.2431-.779764C-704.6217 11.405757-714.0557 22.321236-727.07449 21.243487-739.21969 22.129366-748.4003 11.982373-748.7565-.793554-748.9586-11.896857-738.8573-20.888367-726.64419-22.249018-714.4827-21.552109-705.03677-12.745761-705.2431-.779764Z"/>
<path transform="matrix(1,0,0,-1,868.735,136.60134)" stroke-width=".75" stroke-linecap="round" stroke-linejoin="round" fill="none" stroke="#000000" d="M-192.34262-.480969C-192.6225 11.174833-201.80554 22.135218-213.65604 22.377959-224.7085 21.617312-234.32903 11.842758-235.50782-.448816-235.03295-11.43491-224.85869-20.957373-214.13843-22.07804-201.46105-21.86199-192.768-11.367657-192.34262-.480969Z"/>
<path transform="matrix(1,0,0,-1,868.735,136.60134)" stroke-width=".75" stroke-linecap="round" stroke-linejoin="round" fill="none" stroke="#000000" d="M-811.51016-.426482C-791.0717 .397823-770.037 .08074-748.3557 .246388"/>
<path transform="matrix(1,0,0,-1,868.735,136.60134)" stroke-width=".75" stroke-linecap="round" stroke-linejoin="round" fill="none" stroke="#000000" d="M-761.15737-8.482914C-757.8426-4.408025-753.8503-1.540685-748.16098-.045752-753.47079 1.236356-757.6717 4.280499-761.3083 8.138512"/>
<path transform="matrix(1,0,0,-1,868.735,136.60134)" stroke-width=".75" stroke-linecap="round" stroke-linejoin="round" fill="none" stroke="#000000" d="M-705.0053-.44205C-683.6374 .117265-662.8522-.206046-641.82339-.257781"/>
<path transform="matrix(1,0,0,-1,868.735,136.60134)" stroke-width=".75" stroke-linecap="round" stroke-linejoin="round" fill="none" stroke="#000000" d="M-654.0145-8.246369C-651.2868-3.717629-646.1718-1.087945-641.28488-.19224-646.2813 .911191-651.01986 3.808351-654.2529 8.044252"/>
<path transform="matrix(1,0,0,-1,868.735,136.60134)" stroke-width=".75" stroke-linecap="round" stroke-linejoin="round" fill="none" stroke="#000000" d="M-555.0882 .00843C-534.23306-.217752-512.9025-.344873-492.399 .374336"/>
<path transform="matrix(1,0,0,-1,868.735,136.60134)" stroke-width=".75" stroke-linecap="round" stroke-linejoin="round" fill="none" stroke="#000000" d="M-504.86796-8.16005C-501.64704-4.215606-496.59797-1.306818-492.45985 .093284-496.75126 1.29357-501.06803 3.706731-505.0741 7.660311"/>
<path transform="matrix(1,0,0,-1,868.735,136.60134)" stroke-width=".75" stroke-linecap="round" stroke-linejoin="round" fill="none" stroke="#000000" d="M-448.3572 .26137C-427.08 .311768-406.31803 .415251-384.83174 .360461"/>
<path transform="matrix(1,0,0,-1,868.735,136.60134)" stroke-width=".75" stroke-linecap="round" stroke-linejoin="round" fill="none" stroke="#000000" d="M-397.90876-8.219542C-394.57289-3.894666-389.98454-.87315-384.9842 .329117-389.96427 1.21831-394.3734 4.055185-397.8795 8.079735"/>
<path transform="matrix(1,0,0,-1,868.735,136.60134)" stroke-width=".75" stroke-linecap="round" stroke-linejoin="round" fill="none" stroke="#000000" d="M-298.7532 .409795C-277.42576-.021906-257.07603-.081085-235.17002 .341848"/>
<path transform="matrix(1,0,0,-1,868.735,136.60134)" stroke-width=".75" stroke-linecap="round" stroke-linejoin="round" fill="none" stroke="#000000" d="M-248.31732-7.953661C-244.6653-4.428212-240.99387-1.218989-235.6746 .165335-240.98119 1.067941-244.89923 4.085277-248.47905 8.46913"/>
<path transform="matrix(1,0,0,-1,868.735,136.60134)" stroke-width=".75" stroke-linecap="round" stroke-linejoin="round" fill="none" stroke="#000000" d="M-192.3114 .322405C-171.00783-.015394-149.3144 .085907-128.8604-.012468"/>
<path transform="matrix(1,0,0,-1,868.735,136.60134)" stroke-width=".75" stroke-linecap="round" stroke-linejoin="round" fill="none" stroke="#000000" d="M-141.37985-7.774529C-137.66547-4.355283-133.1236-.958173-128.25199 .32276-133.18892 1.087112-137.61013 4.301592-141.32405 8.500057"/>
<path transform="matrix(1,0,0,-1,868.735,136.60134)" stroke-width=".75" stroke-linecap="round" stroke-linejoin="round" fill="none" stroke="#000000" d="M-43.330965-92.25948C-99.66506-92.70564-156.41635-92.28007-213.40218-92.23144-213.45299-68.93227-213.27198-45.28021-213.36887-22.2025"/>
<path transform="matrix(1,0,0,-1,868.735,136.60134)" stroke-width=".75" stroke-linecap="round" stroke-linejoin="round" fill="none" stroke="#000000" d="M-205.54535-35.096235C-209.16503-31.256247-212.27931-27.359829-213.75186-21.897225-215.08695-26.60892-217.85863-31.714249-221.348-34.6784"/>
<path transform="matrix(1,0,0,-1,868.735,136.60134)" stroke-width=".75" stroke-linecap="round" stroke-linejoin="round" fill="none" stroke="#000000" d="M-384.5268-184.71109C-499.0587-185.11969-612.1258-184.9745-726.19528-184.7917-726.6972-130.79993-726.157-76.54473-726.45278-21.732733"/>
<path transform="matrix(1,0,0,-1,868.735,136.60134)" stroke-width=".75" stroke-linecap="round" stroke-linejoin="round" fill="none" stroke="#000000" d="M-718.61447-34.268465C-722.3221-31.699408-725.2054-27.054253-726.58499-21.68019-727.21389-27.097165-730.5937-31.290867-734.4341-35.06444"/>
<use data-text="+" xlink:href="#font_11_1" transform="matrix(21.519354,0,0,-21.519316,104.24097,128.85849)"/>
<use data-text="&#x2212;" xlink:href="#font_11_7" transform="matrix(21.519371,0,0,-21.519288,148.44013,167.21073)"/>
<use data-text="+" xlink:href="#font_11_1" transform="matrix(21.519354,0,0,-21.519316,617.1422,128.85846)"/>
<use data-text="&#x2212;" xlink:href="#font_11_7" transform="matrix(21.519371,0,0,-21.519288,661.34146,167.21073)"/>
</svg>
