<svg xmlns="http://www.w3.org/2000/svg" xmlns:xlink="http://www.w3.org/1999/xlink" version="1.1" width="922.0901" height="353.9263" viewBox="0 0 922.0901 353.9263">
<defs>
<path id="font_7_1" d="M.04598999 .23632813H.35598756V-.07368469L.3959961-.06668091V.23632813H.70399478L.70899966 .2763214H.3959961V.58631899L.35598756 .58032229V.2763214H.052993776L.04598999 .23632813Z"/>
<path id="font_7_2" d="M.08999634 .32458497C.08999634 .22958374 .114990238 .13148499 .18299866 .06341553 .23699951 .009384155 .31199647-.016601563 .3880005-.016601563 .46099855-.016601563 .56900027 .010391235 .6569977 .03338623 .6569977 .03338623 .6539917 .216568 .6519928 .30760194L.37599183 .2966156V.27061463L.38198854 .265625C.43598939 .26361085 .5 .25961305 .5439911 .25660707 .57199099 .25460816 .57199099 .22257996 .57199099 .13449097 .57199099 .061416627 .56900027 .04940796 .5519867 .045394899 .5209961 .038391115 .48999024 .03538513 .45799256 .03538513 .37998963 .03538513 .30599977 .060409547 .2619934 .112472537 .20399475 .18052674 .17999268 .25260926 .17999268 .3405609 .17999268 .48339845 .23199463 .5653076 .26098634 .5942688 .3039856 .63623049 .36299134 .6502075 .42199708 .6502075 .5529938 .6502075 .59298709 .5563202 .60598757 .53034976L.6179962 .5293579 .6759949 .58628848C.6649933 .6032715 .6119995 .69921877 .46699525 .69921877 .3619995 .69921877 .25698854 .6682129 .18199158 .593277 .11199951 .5233612 .08999634 .4224701 .08999634 .32458497Z"/>
<path id="font_7_3" d="M.1349945 .6123047H.22898865C.25698854 .6123047 .27999879 .59129336 .2809906 .5662842 .28199769 .541275 .28199769 .46824647 .28199769 .41923524 .28199769 .27919007 .27799989 .13916016 .272995 .00010681152L.28599549-.0048828127 .3809967 .022125245C.37799073 .09814453 .37799073 .2962036 .37799073 .43223573 .37799073 .52127078 .37998963 .6112976 .38598634 .7003021L.3789978 .71229556 .1349945 .6392975V.6123047Z"/>
<path id="font_7_4" d="M.11299133 .24990845C.11299133 .007904053 .1519928-.09008789 .18299866-.13310242 .21099854-.17008972 .25299073-.20809937 .30099488-.21209717V-.1880951C.2809906-.18409729 .25099183-.16809082 .23399353-.1481018 .21998596-.13209534 .16499329-.05809021 .16499329 .24990845 .16499329 .4618988 .19799805 .5659027 .21998596 .6128998 .23599243 .6469116 .2689972 .6769104 .30099488 .684906V.71191409C.2599945 .7049103 .21598816 .6729126 .19099427 .63790896 .1599884 .5919037 .11299133 .4748993 .11299133 .24990845Z"/>
<path id="font_7_5" d="M.051986696 .06642151C.06199646 .047409059 .07598877 .030395508 .09199524 .01638794 .12098694-.009613037 .16099549-.016601563 .19898987-.016601563 .2559967-.016601563 .31199647 .0023956299 .35099793 .044403078 .375 .06941223 .3869934 .10343933 .3869934 .13845825 .3869934 .1634674 .37298585 .18649292 .35499574 .20449829 .34098817 .21850586 .3039856 .24052429 .27198792 .25453187 .24299622 .26654054 .19999695 .2885437 .18798828 .30055238 .17298889 .31655885 .1619873 .3285675 .1619873 .35058595 .1619873 .3725891 .16899109 .39360047 .18499756 .4086151 .19999695 .42362977 .22200012 .43164063 .24398804 .43164063 .2639923 .43164063 .2849884 .42462159 .29599 .4066162 .30599977 .39060975 .30799867 .3715973 .30899049 .35359193L.32099916 .34657289 .37599183 .38360597C.375 .40560914 .3639984 .42662049 .34799195 .44163514 .32499696 .46263124 .29299928 .46662904 .2630005 .46662904 .21398926 .46662904 .16699219 .45063783 .1309967 .4176178 .10398865 .39360047 .08999634 .35858155 .08999634 .32356263 .08999634 .29154969 .10798645 .26353456 .1309967 .2425232 .1539917 .22250366 .18399048 .2084961 .21499634 .1954956 .24099732 .18447876 .2689972 .17248535 .28799439 .1534729 .30299378 .13845825 .31399537 .11845398 .31399537 .09744263 .31399537 .079422 .30499269 .062408449 .29299928 .04940796 .27799989 .03340149 .25099183 .021392823 .22898865 .021392823 .19898987 .021392823 .17199707 .03439331 .1499939 .055404664 .1269989 .076416019 .116989139 .10644531 .114990238 .13645935L.100997928 .13745117 .051986696 .06642151Z"/>
<path id="font_7_6" d="M.085998538-.1880951V-.21209717C.13398743-.20610047 .1789856-.17208863 .20698548-.13510132 .23799134-.09210205 .27598573 .007904053 .27598573 .24990845 .27598573 .50090029 .22399903 .5919037 .19299317 .63790896 .16799927 .6729126 .1269989 .7049103 .085998538 .71191409V.684906C.117996219 .6759033 .14898682 .6469116 .16499329 .6128998 .18699646 .5659027 .22399903 .48190309 .22399903 .24990845 .22399903-.099090579 .17199707-.13209534 .1579895-.1481018 .14099121-.16809082 .10598755-.18409729 .085998538-.1880951Z"/>
<path id="font_7_12" d="M.051986696 .6781769 .052993776 .6591797C.07299805 .65216067 .10899353 .6411438 .11299133 .6401367 .12298584 .6361389 .125 .6251221 .12599182 .6161041 .1309967 .53297427 .13198853 .44985963 .13198853 .36676026 .13198853 .24482727 .13198853 .11590576 .12199402 .0029907227L.12799073-.0020141602 .21998596 .025970459C.21699524 .051956178 .21499634 .10292053 .21499634 .1798706V.33377076C.21499634 .34075929 .22099304 .34576417 .22799683 .34576417H.57099917C.5799866 .34576417 .58299258 .33876039 .58299258 .33377076 .58299258 .23683167 .5799866 .11790466 .5779877 .020980835L.58898928 0 .73799136 .0078125 .74398806 .013809204 .7429962 .031799318C.72499087 .03981018 .66600039 .03981018 .66600039 .07879639 .66600039 .09979248 .6619873 .24076844 .6619873 .32176209 .6619873 .5129547 .66999819 .64515689 .6729889 .6841736L.66799929 .6901703 .5799866 .673172C.5799866 .58706668 .58299258 .48291017 .58299258 .3967743 .58299258 .39076234 .58200076 .38476563 .57099917 .38476563H.22499085C.21499634 .38476563 .21299744 .3917694 .21299744 .3967743 .21299744 .4618683 .21699524 .54600527 .21899414 .61109927 .21998596 .63414 .22200012 .6581726 .22599793 .6801758L.22099304 .6851654H.05899048L.051986696 .6781769Z"/>
<path id="font_7_11" d="M.050994874 .049362184 .05899048 .038375856C.10998535 .0033874512 .17098999-.016601563 .23599243-.016601563 .31799317-.016601563 .397995 .008392334 .45700074 .05935669 .5039978 .10131836 .5349884 .15626526 .5349884 .21520996 .5349884 .25416566 .519989 .2911377 .48999024 .31811524 .46899415 .3360901 .44198609 .34709168 .41600038 .35508729 .3789978 .36608888 .34199525 .37109376 .30299378 .37408448V.38209535C.34999085 .39408876 .3939972 .41609193 .42900086 .44610597 .46499635 .47810365 .48199464 .52311709 .48199464 .5681305 .48199464 .60414126 .46798707 .6401367 .43899537 .6651459 .40699769 .6941376 .36099244 .70214846 .31698609 .70214846 .2849884 .70214846 .25498963 .69114688 .22599793 .67814639 .18598938 .6591339 .14698792 .63414 .11199951 .60813906L.12799073 .58613589C.1539917 .60113528 .17999268 .6151428 .20799256 .6261444 .22799683 .6331482 .24699402 .6391449 .2659912 .6391449 .2999878 .6391449 .33299256 .6321411 .35598756 .61112979 .37799073 .59213259 .3889923 .5671234 .3889923 .54011538 .3889923 .502121 .37199403 .46510316 .34098817 .43710328 .32299806 .4210968 .29899598 .40908814 .27398683 .39909364 .24198914 .38609315 .20698548 .37808229 .17298889 .37109376L.17199707 .34509278C.21398926 .34509278 .2559967 .34309388 .29699708 .3340912 .32499696 .32809449 .35299684 .31910707 .37298585 .30012513 .4059906 .26914979 .42900086 .22920227 .42900086 .18623352 .42900086 .14128113 .41299439 .095321658 .3769989 .06335449 .34599305 .036376954 .30599977 .023391724 .2639923 .023391724 .22299195 .023391724 .18499756 .041366579 .1559906 .067352298 .13798523 .08332825 .12399292 .10131836 .10998535 .121292117H.09899902L.050994874 .049362184Z"/>
<path id="font_7_7" d="M.04598999 .23046875H.70399478L.70999148 .27046205H.052993776L.04598999 .23046875Z"/>
<path id="font_7_8" d="M.033996583 .6733093 .035995485 .6533203C.037994386 .6533203 .07398987 .6443176 .09199524 .63931277 .12298584 .6313019 .125 .6222992 .125 .54229739 .125 .46427918 .12199402 .38627626 .12199402 .30825807 .12199402 .24723816 .12399292 .17323303 .12998963 .12721253 .1349945 .08821106 .1559906-.0087890629 .31399537-.0087890629 .39698792-.0087890629 .47698976 .02520752 .5469971 .07020569L.5549927 .064208988C.5549927 .048202516 .5549927 .032196046 .55599978 .016204834 .55799868 .0012054443 .57598879-.0047912599 .58799746-.0047912599 .61898806-.0047912599 .6899872 .016204834 .7409973 .032196046L.74598696 .03919983 .74198916 .05619812C.7220001 .05419922 .70399478 .048202516 .6839905 .048202516 .673996 .048202516 .6609955 .050201417 .6539917 .0592041 .6389923 .07620239 .6359863 .15222168 .6359863 .20223999 .6359863 .3642578 .6369934 .5733032 .6519928 .68733218L.6459961 .69433596 .55799868 .659317C.55599978 .47727967 .55400088 .2942505 .55400088 .11122131 .5 .079208377 .43998719 .052200319 .37799073 .052200319 .24598694 .052200319 .22399903 .13922119 .21598816 .16522217 .20599365 .19923401 .20199585 .23423767 .20199585 .26924134L.20999146 .54229739C.20999146 .55929568 .21598816 .6603241 .21798706 .67433169L.21099854 .6803131H.041992189L.033996583 .6733093Z"/>
<path id="font_7_9" d="M.022994996 .6513672C.036987306 .649353 .049987794 .6463623 .06298828 .6433563 .07199097 .6413574 .07998657 .6353607 .085998538 .62835696 .09599304 .61834719 .102996829 .60635378 .10899353 .5943451L.2579956 .29930116C.2579956 .19927979 .2579956 .0982666 .25498963-.0017547608L.2659912-.0107421879 .35598756 .018249512 .34700013 .30630494C.42999269 .4343109 .5039978 .5303345 .61499026 .675354L.61099246 .6933594 .526001 .6763611C.48999024 .619339 .4059906 .47431947 .397995 .46032716 .3849945 .4373169 .34199525 .36730958 .33898927 .3623047 .33599855 .3572998 .33198548 .353302 .32798768 .353302 .32199098 .353302 .31698609 .3592987 .31599427 .36131288L.1749878 .6863556H.02999878L.022994996 .67936709V.6513672Z"/>
<path id="font_7_10" d="M.04499817 .001953125H.5379944L.56399539 .079940799 .5589905 .08795166H.20999146C.20399475 .08795166 .19799805 .08894348 .19599915 .092941287 .19499207 .094940189 .19599915 .09794617 .19699097 .09895325 .2539978 .1569519 .30799867 .21495056 .35899354 .27496339 .394989 .31697084 .42999269 .358963 .45799256 .40496827 .48799134 .4509735 .5119934 .49998475 .5119934 .5529938 .5119934 .59399417 .49899293 .6349945 .46499635 .66400149 .43199159 .69299319 .3880005 .7080078 .34199525 .7080078 .29899598 .7080078 .2579956 .6970062 .22099304 .67900088 .17599488 .65800479 .13699341 .6279907 .102996829 .59498599L.125 .57598879C.1519928 .59599307 .17799378 .61099246 .20999146 .6259918 .23098755 .6360016 .2559967 .6399994 .2809906 .6399994 .31399537 .6399994 .34700013 .6289978 .37098695 .6069946 .40098573 .5779877 .4079895 .5369873 .4079895 .50798037 .4079895 .4429779 .38198854 .38197328 .34298707 .3259735 .31098939 .27996827 .27198792 .23796082 .23199463 .19696045 .17199707 .13494873 .10899353 .07594299 .04499817 .017944336V.001953125Z"/>
<path id="font_7_13" d="M.09199524 .6121063H.1749878C.19999695 .6121063 .21998596 .5911102 .22099304 .56611636 .22200012 .5411072 .22200012 .46810914 .22200012 .41911317 .22200012 .27911378 .21899414 .13911438 .21398926 .00010681152L.22599793-.0048828127 .30999757 .022109986C.30699159 .09811401 .30699159 .29611207 .30699159 .43211366 .30699159 .52111819 .30899049 .6111145 .31399537 .70010378L.30799867 .7121124 .09199524 .6391144V.6121063Z"/>
</defs>
<use data-text="+" xlink:href="#font_7_1" transform="matrix(37.185197,0,0,-37.18505,277.6274,53.209077)"/>
<use data-text="G" xlink:href="#font_7_2" transform="matrix(21.519362,0,0,-21.519398,135.64244,49.06952)"/>
<use data-text="1" xlink:href="#font_7_3" transform="matrix(16.438399,0,0,-16.438426,152.1097,53.370515)"/>
<use data-text="(" xlink:href="#font_7_4" transform="matrix(21.519362,0,0,-21.519398,162.35228,49.06952)"/>
<use data-text="s" xlink:href="#font_7_5" transform="matrix(21.519362,0,0,-21.519398,171.8974,49.06952)"/>
<use data-text=")" xlink:href="#font_7_6" transform="matrix(21.519362,0,0,-21.519398,182.88434,49.06952)"/>
<use data-text="H" xlink:href="#font_7_12" transform="matrix(21.51913,0,0,-21.519398,638.2163,326.2947)"/>
<use data-text="3" xlink:href="#font_7_11" transform="matrix(16.438221,0,0,-16.438426,655.07077,330.43128)"/>
<use data-text="(" xlink:href="#font_7_4" transform="matrix(21.51913,0,0,-21.519398,665.3133,326.2947)"/>
<use data-text="s" xlink:href="#font_7_5" transform="matrix(21.51913,0,0,-21.519398,674.85836,326.2947)"/>
<use data-text=")" xlink:href="#font_7_6" transform="matrix(21.51913,0,0,-21.519398,685.8451,326.2947)"/>
<path transform="matrix(1,0,0,-1,291.6669,43.688295)" stroke-width=".75" stroke-linecap="round" stroke-linejoin="round" fill="none" stroke="#000000" d="M-155.63353-24.9556C-155.05904-25.458655-155.31009-24.84728-155.63779-24.988739-136.5896-24.876982-119.62225-25.76234-99.92779-25.027239-84.86654-24.41068-85.8911-25.35524-85.06277-10.863241-85.38229-2.939628-85.07928 4.220393-86.39713 10.616167-86.09963 23.975028-84.55618 24.59207-101.31301 25.439969-118.67331 24.675885-137.94017 25.355246-156.59998 25.414483-170.39835 25.62412-171.51541 25.398936-171.16881 9.699018-171.44258 3.407633-171.54651-4.02331-170.72332-9.994947-170.99308-25.008587-171.92914-24.793494-155.63353-24.9556Z"/>
<path transform="matrix(1,0,0,-1,291.6669,43.688295)" stroke-width=".75" stroke-linecap="round" stroke-linejoin="round" fill="none" stroke="#000000" d="M347.48939-302.9485C346.5667-302.15464 346.5611-303.03565 347.51844-302.93855 365.93128-302.8042 383.63609-303.12007 402.42619-302.29798 417.23185-302.11656 417.1131-302.29365 417.96327-287.56089 417.87544-280.87327 418.20545-274.7898 417.5433-266.73997 418.33525-252.70383 417.2949-251.9954 402.4885-251.86765 383.93699-251.45427 365.06544-251.451 345.9519-252.66101 330.66563-252.95287 331.23405-252.6046 332.17308-266.38978 331.15193-273.53355 331.42945-280.15138 332.13319-287.58317 331.31584-301.7009 331.89305-303.0572 347.48939-302.9485Z"/>
<path transform="matrix(1,0,0,-1,291.6669,43.688295)" stroke-width=".75" stroke-linecap="round" stroke-linejoin="round" fill="none" stroke="#000000" d="M22.585289 .643636C21.596356 10.982594 12.831508 21.383275-.538004 21.586153-11.635282 22.463772-21.220967 12.054574-21.184416 .228694-21.509972-12.334895-12.710865-21.689433-.317033-22.60583 11.826373-20.915787 21.115122-11.636685 22.585289 .643636Z"/>
<path transform="matrix(1,0,0,-1,291.6669,43.688295)" stroke-width=".75" stroke-linecap="round" stroke-linejoin="round" fill="none" stroke="#000000" d="M-234.92684-.392697C-214.03676 .291338-192.69025-.123491-171.45023-.316516"/>
<path transform="matrix(1,0,0,-1,291.6669,43.688295)" stroke-width=".75" stroke-linecap="round" stroke-linejoin="round" fill="none" stroke="#000000" d="M-183.90799-7.801082C-181.02231-3.731446-176.82242-1.180762-171.52335 .406975-176.12183 1.317672-181.08077 4.266723-183.752 7.673468"/>
<path transform="matrix(1,0,0,-1,291.6669,43.688295)" stroke-width=".75" stroke-linecap="round" stroke-linejoin="round" fill="none" stroke="#000000" d="M-85.45462 .061591C-63.886957 .075768-42.93448-.204316-22.062569-.400648"/>
<path transform="matrix(1,0,0,-1,291.6669,43.688295)" stroke-width=".75" stroke-linecap="round" stroke-linejoin="round" fill="none" stroke="#000000" d="M-34.845529-8.325546C-31.175353-4.422047-27.40767-.812613-21.982537 .174246-26.888924 .756981-31.89671 4.106613-34.624055 8.127759"/>
<path transform="matrix(1,0,0,-1,291.6669,43.688295)" stroke-width=".75" stroke-linecap="round" stroke-linejoin="round" fill="none" stroke="#000000" d="M21.672339-.361304C35.923379-.407908 49.42287 .024844 64.18097 .346338"/>
<path transform="matrix(1,0,0,-1,291.6669,43.688295)" stroke-width=".75" stroke-linecap="round" stroke-linejoin="round" fill="none" stroke="#000000" d="M51.20087-7.767928C53.892198-3.953045 58.766134-.92801 63.988435 .355384 59.184045 1.083715 54.57853 4.388921 50.713144 8.150253"/>
<path transform="matrix(1,0,0,-1,291.6669,43.688295)" stroke-width=".75" stroke-linecap="round" stroke-linejoin="round" fill="none" stroke="#000000" d="M491.7701-.427844C520.6588 .224873 548.91799 .008839 577.1686 .327457"/>
<path transform="matrix(1,0,0,-1,291.6669,43.688295)" stroke-width=".75" stroke-linecap="round" stroke-linejoin="round" fill="none" stroke="#000000" d="M564.63497-7.88843C567.6665-4.334202 571.8009-1.561191 577.32406-.196615 572.2311 1.024037 568.00979 3.955685 564.076 7.665612"/>
<path transform="matrix(1,0,0,-1,291.6669,43.688295)" stroke-width=".75" stroke-linecap="round" stroke-linejoin="round" fill="none" stroke="#000000" d="M534.8454-.26299C534.6124-92.07409 534.70626-184.38503 534.80709-277.00956 495.25096-276.93058 456.2032-277.22438 416.9886-277.3118"/>
<path transform="matrix(1,0,0,-1,291.6669,43.688295)" stroke-width=".75" stroke-linecap="round" stroke-linejoin="round" fill="none" stroke="#000000" d="M430.08335-269.2755C427.01618-272.98 422.49266-276.47587 417.08705-276.90016 422.24223-277.99967 426.28108-281.56269 429.49726-285.04093"/>
<path transform="matrix(1,0,0,-1,291.6669,43.688295)" stroke-width=".75" stroke-linecap="round" stroke-linejoin="round" fill="none" stroke="#000000" d="M331.3283-276.89347C221.38588-277.00218 110.90333-277.54374 .023996-277.58097 .28259-192.1354-.071013-106.955417-.002089-22.248175"/>
<path transform="matrix(1,0,0,-1,291.6669,43.688295)" stroke-width=".75" stroke-linecap="round" stroke-linejoin="round" fill="none" stroke="#000000" d="M7.612842-34.66218C3.987828-31.882164 .835864-27.019385-.283812-22.376675-1.572055-27.189105-4.124581-31.94403-8.308966-34.384916"/>
<path transform="matrix(1,0,0,-1,291.6669,43.688295)" stroke-width=".75" stroke-linecap="round" stroke-linejoin="round" fill="none" stroke="#000000" d="M-155.37653-25.495669C-156.7492-24.866517-155.71436-24.260899-155.22362-25.917376-137.40145-24.008294-119.43846-25.228075-101.303958-24.316229-85.69668-24.739985-85.51985-24.356739-85.92202-9.202059-86.17316-2.95423-85.936679 2.786306-86.383419 9.757188-85.39415 25.9087-85.87442 24.591326-100.35101 25.225884-118.30885 24.82814-137.10204 24.348603-156.96234 25.538508-170.42264 24.601157-171.66513 24.20487-171.68442 10.521083-171.84809 3.9504-170.19437-3.043676-171.9055-9.903615-170.07056-24.829562-170.07816-25.062058-155.37653-25.495669Z"/>
<path transform="matrix(1,0,0,-1,291.6669,43.688295)" stroke-width=".75" stroke-linecap="round" stroke-linejoin="round" fill="none" stroke="#000000" d="M346.66108-301.25209C347.4427-302.26017 346.87763-301.457 345.75535-302.6096 364.80595-302.1836 383.78428-302.80903 402.26094-301.55854 417.83638-302.5321 418.00944-301.6687 418.11259-286.8841 416.88365-280.6909 416.6149-274.0176 417.92628-267.32917 417.90568-253.13216 417.3337-251.8935 402.0751-251.51918 384.07017-252.69351 365.50086-252.1696 346.94486-252.72344 331.1974-253.01953 330.6484-251.71685 330.9447-266.7742 332.2909-274.17683 332.16426-279.5813 331.48506-286.9467 331.7569-301.56257 331.21934-301.93907 346.66108-301.25209Z"/>
<path transform="matrix(1,0,0,-1,291.6669,43.688295)" stroke-width=".75" stroke-linecap="round" stroke-linejoin="round" fill="none" stroke="#000000" d="M22.192362 .264598C21.836935 11.119434 12.018167 20.697335 .579958 22.556277-11.165883 22.060324-21.129876 11.709444-21.168232-.4642-22.164105-12.453445-11.640127-21.833893-.1322-20.959996 11.553407-21.045727 21.326994-11.917535 22.192362 .264598Z"/>
<path transform="matrix(1,0,0,-1,291.6669,43.688295)" stroke-width=".75" stroke-linecap="round" stroke-linejoin="round" fill="none" stroke="#000000" d="M-235.22884 .060005C-213.75514-.165713-192.13701-.043982-170.97942-.191351"/>
<path transform="matrix(1,0,0,-1,291.6669,43.688295)" stroke-width=".75" stroke-linecap="round" stroke-linejoin="round" fill="none" stroke="#000000" d="M-184.2148-8.367707C-180.83219-3.73586-176.29703-1.276601-171.57537-.430525-176.71137 .759528-181.25106 4.28663-184.2653 7.963541"/>
<path transform="matrix(1,0,0,-1,291.6669,43.688295)" stroke-width=".75" stroke-linecap="round" stroke-linejoin="round" fill="none" stroke="#000000" d="M-85.78873 .404263C-63.95388-.341202-43.00824-.383576-21.642613 .247371"/>
<path transform="matrix(1,0,0,-1,291.6669,43.688295)" stroke-width=".75" stroke-linecap="round" stroke-linejoin="round" fill="none" stroke="#000000" d="M-35.0184-8.333021C-31.22792-3.560655-27.324572-1.263175-22.151667 .444405-26.661759 .858667-31.209218 3.873424-34.3906 7.775495"/>
<path transform="matrix(1,0,0,-1,291.6669,43.688295)" stroke-width=".75" stroke-linecap="round" stroke-linejoin="round" fill="none" stroke="#000000" d="M21.218323-.063201C35.94768 .189521 49.909055-.243264 63.586507 .146966"/>
<path transform="matrix(1,0,0,-1,291.6669,43.688295)" stroke-width=".75" stroke-linecap="round" stroke-linejoin="round" fill="none" stroke="#000000" d="M50.73293-8.037483C54.546277-3.80044 59.213735-1.471357 63.407323-.027298 58.911104 1.505541 54.264505 4.157228 50.763139 8.456031"/>
<path transform="matrix(1,0,0,-1,291.6669,43.688295)" stroke-width=".75" stroke-linecap="round" stroke-linejoin="round" fill="none" stroke="#000000" d="M492.34437-.328619C520.58187-.386502 549.166 .399636 577.29409 .135387"/>
<path transform="matrix(1,0,0,-1,291.6669,43.688295)" stroke-width=".75" stroke-linecap="round" stroke-linejoin="round" fill="none" stroke="#000000" d="M564.1811-7.717307C567.6215-4.267674 571.6205-1.486298 577.5211 .280994 571.9163 1.193135 567.52426 4.343564 564.1771 7.859109"/>
<path transform="matrix(1,0,0,-1,291.6669,43.688295)" stroke-width=".75" stroke-linecap="round" stroke-linejoin="round" fill="none" stroke="#000000" d="M534.5566 .195044C534.1433-92.81788 534.22238-185.06885 534.9399-276.85014 495.86674-277.66307 456.44944-276.80473 417.07929-277.43489"/>
<path transform="matrix(1,0,0,-1,291.6669,43.688295)" stroke-width=".75" stroke-linecap="round" stroke-linejoin="round" fill="none" stroke="#000000" d="M430.00465-269.5907C426.7805-273.48976 422.03675-276.5138 416.9718-277.1234 421.94129-278.64488 426.41889-281.53196 429.39744-285.56553"/>
<path transform="matrix(1,0,0,-1,291.6669,43.688295)" stroke-width=".75" stroke-linecap="round" stroke-linejoin="round" fill="none" stroke="#000000" d="M331.1391-277.06333C220.70871-276.89643 110.927318-277.25807 .390113-277.28279-.0212-192.60588 .291235-106.97942 .293249-21.617547"/>
<path transform="matrix(1,0,0,-1,291.6669,43.688295)" stroke-width=".75" stroke-linecap="round" stroke-linejoin="round" fill="none" stroke="#000000" d="M8.424989-35.03252C3.733577-31.436312 .796218-27.003613 .022252-22.21343-.917462-26.963698-3.820234-31.08785-8.196362-34.244379"/>
<path transform="matrix(1,0,0,-1,291.6669,43.688295)" stroke-width=".75" stroke-linecap="round" stroke-linejoin="round" fill="none" stroke="#000000" d="M-155.19155-24.932967C-156.06201-24.55706-155.79685-25.360236-156.8388-24.068148-138.43874-24.467438-118.54658-25.799908-100.33349-24.682154-86.281627-25.729296-85.67282-24.9583-84.669399-10.840484-86.206279-3.32656-86.028247 2.491336-85.01875 9.852924-85.11168 25.671193-84.771709 24.615216-100.23 25.296782-118.021709 24.208497-138.36997 24.027779-156.17868 25.326495-170.84845 24.263722-170.968 25.504448-171.97495 10.139237-170.24996 2.449344-170.93929-3.613948-171.20023-9.050545-171.7891-25.250304-170.55348-24.794119-155.19155-24.932967Z"/>
<path transform="matrix(1,0,0,-1,291.6669,43.688295)" stroke-width=".75" stroke-linecap="round" stroke-linejoin="round" fill="none" stroke="#000000" d="M345.6687-301.7386C345.8196-301.99787 347.22746-302.75959 345.9036-302.49354 364.51045-301.85139 384.53526-302.00749 403.47657-303.05226 416.7867-302.10466 417.75608-302.5482 416.68336-286.6126 417.97029-280.92716 416.82865-274.13536 417.06178-267.89903 417.0019-251.88065 418.27528-252.85056 402.73908-253.03543 383.66249-252.73253 364.33897-253.00238 346.04264-251.58083 331.3766-252.40453 332.36317-252.77463 330.57987-267.62095 330.66813-273.6078 332.05778-280.20899 332.34077-287.43507 331.3326-302.8905 331.1093-302.22419 345.6687-301.7386Z"/>
<path transform="matrix(1,0,0,-1,291.6669,43.688295)" stroke-width=".75" stroke-linecap="round" stroke-linejoin="round" fill="none" stroke="#000000" d="M21.473176 .338978C22.330916 11.296283 11.877176 21.85567 .329469 20.941353-11.128234 21.802792-21.145245 12.509936-22.336855-.767964-21.885964-12.86064-12.63119-21.82674-.172397-21.721049 12.81003-22.154496 21.172772-12.902934 21.473176 .338978Z"/>
<path transform="matrix(1,0,0,-1,291.6669,43.688295)" stroke-width=".75" stroke-linecap="round" stroke-linejoin="round" fill="none" stroke="#000000" d="M-235.23705-.156502C-214.0307 .15773-192.82689 .287837-171.75052-.421999"/>
<path transform="matrix(1,0,0,-1,291.6669,43.688295)" stroke-width=".75" stroke-linecap="round" stroke-linejoin="round" fill="none" stroke="#000000" d="M-183.83258-7.835874C-180.88297-4.406709-176.84848-1.006924-171.75307-.373097-176.7639 1.182624-181.19979 3.803906-183.65895 7.764118"/>
<path transform="matrix(1,0,0,-1,291.6669,43.688295)" stroke-width=".75" stroke-linecap="round" stroke-linejoin="round" fill="none" stroke="#000000" d="M-85.437168 .394509C-64.43244-.177877-43.102678 .370236-22.012564-.132277"/>
<path transform="matrix(1,0,0,-1,291.6669,43.688295)" stroke-width=".75" stroke-linecap="round" stroke-linejoin="round" fill="none" stroke="#000000" d="M-34.529829-7.710885C-31.245923-4.323222-26.79583-1.406629-22.386267-.404245-27.291846 .89803-31.367148 4.016711-34.669298 8.285599"/>
<path transform="matrix(1,0,0,-1,291.6669,43.688295)" stroke-width=".75" stroke-linecap="round" stroke-linejoin="round" fill="none" stroke="#000000" d="M21.520594 .23806C35.96404-.26283 49.56454 .21568 64.21541-.183058"/>
<path transform="matrix(1,0,0,-1,291.6669,43.688295)" stroke-width=".75" stroke-linecap="round" stroke-linejoin="round" fill="none" stroke="#000000" d="M51.535455-8.350896C54.29526-4.428353 58.872514-1.122225 64.00845 .182201 58.511289 1.054528 53.99773 4.318325 51.26846 7.883798"/>
<path transform="matrix(1,0,0,-1,291.6669,43.688295)" stroke-width=".75" stroke-linecap="round" stroke-linejoin="round" fill="none" stroke="#000000" d="M491.84553-.047408C520.61 .414088 548.5518-.264567 577.35739-.017448"/>
<path transform="matrix(1,0,0,-1,291.6669,43.688295)" stroke-width=".75" stroke-linecap="round" stroke-linejoin="round" fill="none" stroke="#000000" d="M564.0624-8.092289C567.93569-4.206865 572.44839-1.046606 577.2468 .059434 572.2933 1.278119 567.17538 4.176646 564.12338 7.735435"/>
<path transform="matrix(1,0,0,-1,291.6669,43.688295)" stroke-width=".75" stroke-linecap="round" stroke-linejoin="round" fill="none" stroke="#000000" d="M534.2425-.130844C534.60757-92.753498 534.87197-185.1177 534.52816-277.03578 495.11296-277.38459 456.3869-276.82838 417.21138-276.94416"/>
<path transform="matrix(1,0,0,-1,291.6669,43.688295)" stroke-width=".75" stroke-linecap="round" stroke-linejoin="round" fill="none" stroke="#000000" d="M429.8725-269.0876C426.694-273.11534 422.33833-275.6367 417.33006-277.63783 421.95356-278.8358 426.83586-281.41514 429.75407-285.44496"/>
<path transform="matrix(1,0,0,-1,291.6669,43.688295)" stroke-width=".75" stroke-linecap="round" stroke-linejoin="round" fill="none" stroke="#000000" d="M331.73393-276.87574C221.45563-277.17875 110.95243-277.07646 .007367-276.92893-.091521-191.77619-.276232-107.41086 .442824-21.935328"/>
<path transform="matrix(1,0,0,-1,291.6669,43.688295)" stroke-width=".75" stroke-linecap="round" stroke-linejoin="round" fill="none" stroke="#000000" d="M7.891276-34.885C3.85423-31.491793 1.056876-26.870995 .378841-21.929923-1.345764-26.905106-3.785371-31.119542-7.913319-34.26753"/>
<path transform="matrix(1,0,0,-1,291.6669,43.688295)" stroke-width=".75" stroke-linecap="round" stroke-linejoin="round" fill="none" stroke="#000000" d="M-156.11095-24.076874C-156.89511-25.393185-155.71166-24.741877-155.39966-25.096968-137.69568-24.211245-118.69132-24.710528-101.05697-24.556408-85.54706-24.09373-86.027088-25.690178-84.96555-10.207731-85.430789-3.230509-85.846309 3.297836-85.13212 10.060347-86.112789 25.607138-85.16387 24.174437-99.674419 24.006112-118.228359 25.315268-137.68598 25.636645-155.89069 24.008584-171.93181 25.096095-170.24553 25.286786-170.96649 10.62409-170.15985 4.289171-170.57529-2.996484-170.62166-9.369943-170.47843-24.721873-171.78873-25.165156-156.11095-24.076874Z"/>
<path transform="matrix(1,0,0,-1,291.6669,43.688295)" stroke-width=".75" stroke-linecap="round" stroke-linejoin="round" fill="none" stroke="#000000" d="M345.61698-301.86698C347.51283-302.03889 346.9355-302.62229 347.24513-302.1803 364.38035-302.46208 383.97325-301.24446 402.1835-302.85755 418.2036-301.95576 417.45899-302.9711 416.79698-286.23649 418.1751-280.50947 417.2502-273.50004 416.75184-268.11393 417.84236-251.6046 417.7197-253.04105 402.3173-252.18965 383.894-252.9301 365.7548-253.08084 346.89375-252.88535 332.0233-252.95995 332.37199-251.4409 331.66316-266.75608 331.88017-274.23976 330.89997-280.09349 331.5024-286.81278 332.4715-303.0116 331.5787-302.4202 345.61698-301.86698Z"/>
<path transform="matrix(1,0,0,-1,291.6669,43.688295)" stroke-width=".75" stroke-linecap="round" stroke-linejoin="round" fill="none" stroke="#000000" d="M21.642369-.782069C21.753958 11.188925 12.37708 21.019225 .666774 21.251963-12.903228 21.797192-21.498705 11.836123-21.068766-.146926-21.778094-11.509912-12.696562-20.822583 .14577-22.353949 11.40742-22.030663 20.959065-12.711577 21.642369-.782069Z"/>
<path transform="matrix(1,0,0,-1,291.6669,43.688295)" stroke-width=".75" stroke-linecap="round" stroke-linejoin="round" fill="none" stroke="#000000" d="M-234.42282-.109572C-213.78095-.284726-192.09387-.34373-171.27353-.005842"/>
<path transform="matrix(1,0,0,-1,291.6669,43.688295)" stroke-width=".75" stroke-linecap="round" stroke-linejoin="round" fill="none" stroke="#000000" d="M-184.00916-8.105974C-180.68724-3.936585-176.11502-1.143724-171.82649 .153647-176.71689 .801898-180.54853 4.161765-184.49764 7.8873"/>
<path transform="matrix(1,0,0,-1,291.6669,43.688295)" stroke-width=".75" stroke-linecap="round" stroke-linejoin="round" fill="none" stroke="#000000" d="M-85.61116-.415845C-64.273029 .384071-42.86366 .043897-21.9506-.269752"/>
<path transform="matrix(1,0,0,-1,291.6669,43.688295)" stroke-width=".75" stroke-linecap="round" stroke-linejoin="round" fill="none" stroke="#000000" d="M-34.79809-8.220773C-31.113015-3.854725-27.231904-1.537697-21.770562-.201689-27.128697 1.155465-31.082352 3.959398-35.065885 8.160709"/>
<path transform="matrix(1,0,0,-1,291.6669,43.688295)" stroke-width=".75" stroke-linecap="round" stroke-linejoin="round" fill="none" stroke="#000000" d="M21.369275-.070281C35.477914-.181669 49.869325-.056372 63.942945-.147596"/>
<path transform="matrix(1,0,0,-1,291.6669,43.688295)" stroke-width=".75" stroke-linecap="round" stroke-linejoin="round" fill="none" stroke="#000000" d="M51.024164-7.696376C54.53203-4.293904 58.925748-1.346198 63.7106 .051687 58.345964 1.071613 53.926496 4.073563 51.13342 8.380638"/>
<path transform="matrix(1,0,0,-1,291.6669,43.688295)" stroke-width=".75" stroke-linecap="round" stroke-linejoin="round" fill="none" stroke="#000000" d="M492.4418-.259906C520.39688-.374756 548.717 .338693 577.10366 .372098"/>
<path transform="matrix(1,0,0,-1,291.6669,43.688295)" stroke-width=".75" stroke-linecap="round" stroke-linejoin="round" fill="none" stroke="#000000" d="M564.156-8.054423C567.61007-3.708558 572.4279-1.025757 576.7578 .328699 571.6885 1.079198 567.83627 3.570127 564.4327 8.338887"/>
<path transform="matrix(1,0,0,-1,291.6669,43.688295)" stroke-width=".75" stroke-linecap="round" stroke-linejoin="round" fill="none" stroke="#000000" d="M534.3634-.302645C534.7536-92.527408 534.22317-185.02167 534.10916-276.78047 495.82878-277.34278 456.5237-277.15147 417.22084-277.6434"/>
<path transform="matrix(1,0,0,-1,291.6669,43.688295)" stroke-width=".75" stroke-linecap="round" stroke-linejoin="round" fill="none" stroke="#000000" d="M429.81556-269.4129C426.99659-272.86033 422.549-275.85859 417.3116-276.84648 422.5878-278.7797 426.64765-281.2578 429.79136-285.2683"/>
<path transform="matrix(1,0,0,-1,291.6669,43.688295)" stroke-width=".75" stroke-linecap="round" stroke-linejoin="round" fill="none" stroke="#000000" d="M331.5507-277.049C220.94156-276.88594 110.48322-277.36299 .241344-277.1085-.044658-192.39537-.184163-106.80872 .431179-22.13459"/>
<path transform="matrix(1,0,0,-1,291.6669,43.688295)" stroke-width=".75" stroke-linecap="round" stroke-linejoin="round" fill="none" stroke="#000000" d="M8.467665-34.882219C3.900981-31.872515 1.182812-26.969628-.117131-22.066079-1.450567-26.66273-4.358384-31.660376-8.370018-34.237733"/>
<path transform="matrix(1,0,0,-1,291.6669,43.688295)" stroke-width=".75" stroke-linecap="round" stroke-linejoin="round" fill="none" stroke="#000000" d="M-155.90187-25.172417C-156.18769-24.672665-155.10881-25.897015-156.75864-24.108895-137.54636-24.178822-118.8845-24.440796-101.34158-25.424889-85.67287-24.54099-85.22929-24.787419-85.36154-9.374158-85.17858-3.648659-84.90862 4.011946-85.50448 9.080418-86.023708 24.956404-85.91517 24.41107-100.94451 25.708127-118.22991 25.411629-137.23926 24.34082-155.9124 25.308302-171.74826 25.818926-171.06604 25.689652-171.62075 9.451628-170.63596 3.193606-171.61318-2.615818-170.7098-10.418035-171.49385-24.19197-171.3061-24.123965-155.90187-25.172417Z"/>
<path transform="matrix(1,0,0,-1,291.6669,43.688295)" stroke-width=".75" stroke-linecap="round" stroke-linejoin="round" fill="none" stroke="#000000" d="M346.32337-301.2763C345.97337-302.40409 346.05158-302.2717 347.44676-303.0237 365.4043-302.23277 384.48735-302.17823 402.49345-301.77565 417.6552-301.21125 417.20777-301.89888 417.49064-286.9037 418.26744-280.57936 417.57853-273.82328 417.09233-267.66233 418.08424-252.84796 417.64689-251.52916 401.61723-252.16233 384.4251-251.8723 365.71003-252.38617 346.78794-251.76146 332.4966-252.73686 330.98066-252.48476 331.77586-266.82536 330.60206-273.74415 331.1736-280.61677 331.03288-287.9597 332.43238-302.13047 332.02095-302.14903 346.32337-301.2763Z"/>
<path transform="matrix(1,0,0,-1,291.6669,43.688295)" stroke-width=".75" stroke-linecap="round" stroke-linejoin="round" fill="none" stroke="#000000" d="M21.750809-.648815C22.52047 11.520303 11.581312 21.179633-.004983 20.88838-11.49362 22.476386-21.449034 11.697943-21.42659 .780502-22.416142-11.946935-12.397063-21.085162-.677548-20.770506 12.268001-21.422204 21.425055-11.023729 21.750809-.648815Z"/>
<path transform="matrix(1,0,0,-1,291.6669,43.688295)" stroke-width=".75" stroke-linecap="round" stroke-linejoin="round" fill="none" stroke="#000000" d="M-234.6047 .129061C-213.91315-.193269-192.69689-.308996-171.0868-.303119"/>
<path transform="matrix(1,0,0,-1,291.6669,43.688295)" stroke-width=".75" stroke-linecap="round" stroke-linejoin="round" fill="none" stroke="#000000" d="M-183.74698-8.11913C-180.95256-3.788014-176.23308-1.346043-171.81792 .022821-176.14504 1.103678-180.77938 4.250628-184.17273 8.110491"/>
<path transform="matrix(1,0,0,-1,291.6669,43.688295)" stroke-width=".75" stroke-linecap="round" stroke-linejoin="round" fill="none" stroke="#000000" d="M-85.13562-.038249C-63.952745 .151446-42.828546-.443171-21.608599-.034981"/>
<path transform="matrix(1,0,0,-1,291.6669,43.688295)" stroke-width=".75" stroke-linecap="round" stroke-linejoin="round" fill="none" stroke="#000000" d="M-34.87105-8.163408C-31.473439-3.835975-26.819462-1.151068-22.218441-.396341-26.661137 .86265-31.555289 4.050967-34.25996 8.020965"/>
<path transform="matrix(1,0,0,-1,291.6669,43.688295)" stroke-width=".75" stroke-linecap="round" stroke-linejoin="round" fill="none" stroke="#000000" d="M21.756777 .351166C35.349748 .101057 49.476869-.05988 63.537775 .227139"/>
<path transform="matrix(1,0,0,-1,291.6669,43.688295)" stroke-width=".75" stroke-linecap="round" stroke-linejoin="round" fill="none" stroke="#000000" d="M51.2588-8.270581C53.916154-3.780836 58.476564-.887799 63.72015-.274814 58.51293 1.391309 54.490755 4.3139 51.365125 7.946369"/>
<path transform="matrix(1,0,0,-1,291.6669,43.688295)" stroke-width=".75" stroke-linecap="round" stroke-linejoin="round" fill="none" stroke="#000000" d="M492.1976 .20068C520.6401-.145729 548.5202 .006053 576.8543-.355291"/>
<path transform="matrix(1,0,0,-1,291.6669,43.688295)" stroke-width=".75" stroke-linecap="round" stroke-linejoin="round" fill="none" stroke="#000000" d="M564.33157-8.236327C567.84909-4.187185 572.27786-1.505864 577.0735 .054903 571.91018 .809319 567.35446 3.806137 564.49716 8.189042"/>
<path transform="matrix(1,0,0,-1,291.6669,43.688295)" stroke-width=".75" stroke-linecap="round" stroke-linejoin="round" fill="none" stroke="#000000" d="M534.77267-.179822C534.82186-92.14441 534.1941-185.13214 534.3293-276.86888 495.36573-277.0805 456.26918-277.00065 416.75166-277.56138"/>
<path transform="matrix(1,0,0,-1,291.6669,43.688295)" stroke-width=".75" stroke-linecap="round" stroke-linejoin="round" fill="none" stroke="#000000" d="M429.69725-268.94596C426.20234-273.08708 421.9287-276.0216 416.96675-277.36036 422.23149-278.62123 426.5808-281.10166 429.94966-285.36933"/>
<path transform="matrix(1,0,0,-1,291.6669,43.688295)" stroke-width=".75" stroke-linecap="round" stroke-linejoin="round" fill="none" stroke="#000000" d="M331.8003-277.6509C221.31319-277.0733 110.49245-276.9681 .223419-277.44944 .335965-192.42816 .357927-107.30385 .398926-21.952628"/>
<path transform="matrix(1,0,0,-1,291.6669,43.688295)" stroke-width=".75" stroke-linecap="round" stroke-linejoin="round" fill="none" stroke="#000000" d="M8.354909-34.98853C3.576133-31.062647 1.1222-27.037625-.137328-22.003655-1.133081-27.34314-4.327631-31.171458-7.627319-34.871816"/>
<use data-text="+" xlink:href="#font_7_1" transform="matrix(21.519354,0,0,-21.519316,253.61762,35.945466)"/>
<use data-text="&#x2212;" xlink:href="#font_7_7" transform="matrix(21.519371,0,0,-21.519288,297.8168,74.2977)"/>
<use data-text="U" xlink:href="#font_7_8" transform="matrix(21.519457,0,0,-21.519398,6.8143007,49.06952)"/>
<use data-text="(" xlink:href="#font_7_4" transform="matrix(21.519457,0,0,-21.519398,23.470364,49.06952)"/>
<use data-text="s" xlink:href="#font_7_5" transform="matrix(21.519457,0,0,-21.519398,33.015535,49.06952)"/>
<use data-text=")" xlink:href="#font_7_6" transform="matrix(21.519457,0,0,-21.519398,44.00251,49.06952)"/>
<use data-text="Y" xlink:href="#font_7_9" transform="matrix(21.519246,0,0,-21.519398,873.23489,49.06952)"/>
<use data-text="(" xlink:href="#font_7_4" transform="matrix(21.519246,0,0,-21.519398,886.38357,49.06952)"/>
<use data-text="s" xlink:href="#font_7_5" transform="matrix(21.519246,0,0,-21.519398,895.9286,49.06952)"/>
<use data-text=")" xlink:href="#font_7_6" transform="matrix(21.519246,0,0,-21.519398,906.9154,49.06952)"/>
<use data-text="G" xlink:href="#font_7_2" transform="matrix(21.520495,0,0,-21.519562,512.9811,130.24112)"/>
<use data-text="2" xlink:href="#font_7_10" transform="matrix(16.439263,0,0,-16.43855,529.4492,134.47635)"/>
<use data-text="(" xlink:href="#font_7_4" transform="matrix(21.520495,0,0,-21.519562,539.6924,130.24112)"/>
<use data-text="s" xlink:href="#font_7_5" transform="matrix(21.520495,0,0,-21.519562,549.238,130.24112)"/>
<use data-text=")" xlink:href="#font_7_6" transform="matrix(21.520495,0,0,-21.519562,560.2255,130.24112)"/>
<use data-text="G" xlink:href="#font_7_2" transform="matrix(21.520495,0,0,-21.519562,570.9666,130.24112)"/>
<use data-text="3" xlink:href="#font_7_11" transform="matrix(16.439263,0,0,-16.43855,587.4424,134.37769)"/>
<use data-text="(" xlink:href="#font_7_4" transform="matrix(21.520495,0,0,-21.519562,597.68557,130.24112)"/>
<use data-text="s" xlink:href="#font_7_5" transform="matrix(21.520495,0,0,-21.519562,607.23117,130.24112)"/>
<use data-text=")" xlink:href="#font_7_6" transform="matrix(21.520495,0,0,-21.519562,618.2186,130.24112)"/>
<path transform="matrix(1.5000832,0,0,-1.5000182,366.61427,136.09619)" stroke-width=".574019" stroke-linecap="butt" stroke-linejoin="round" fill="none" stroke="#000000" d="M0 0H270.8709"/>
<use data-text="1" xlink:href="#font_7_13" transform="matrix(21.520495,0,0,-21.519562,366.61427,152.71424)"/>
<use data-text="+" xlink:href="#font_7_1" transform="matrix(21.520495,0,0,-21.519562,382.13526,152.71424)"/>
<use data-text="G" xlink:href="#font_7_2" transform="matrix(21.520495,0,0,-21.519562,403.1656,152.71424)"/>
<use data-text="2" xlink:href="#font_7_10" transform="matrix(16.439263,0,0,-16.43855,419.64186,156.94947)"/>
<use data-text="(" xlink:href="#font_7_4" transform="matrix(21.520495,0,0,-21.519562,429.88496,152.71424)"/>
<use data-text="s" xlink:href="#font_7_5" transform="matrix(21.520495,0,0,-21.519562,439.4306,152.71424)"/>
<use data-text=")" xlink:href="#font_7_6" transform="matrix(21.520495,0,0,-21.519562,450.41816,152.71424)"/>
<use data-text="G" xlink:href="#font_7_2" transform="matrix(21.520495,0,0,-21.519562,461.15919,152.71424)"/>
<use data-text="3" xlink:href="#font_7_11" transform="matrix(16.439263,0,0,-16.43855,477.63508,156.85083)"/>
<use data-text="(" xlink:href="#font_7_4" transform="matrix(21.520495,0,0,-21.519562,487.87818,152.71424)"/>
<use data-text="s" xlink:href="#font_7_5" transform="matrix(21.520495,0,0,-21.519562,497.42384,152.71424)"/>
<use data-text=")" xlink:href="#font_7_6" transform="matrix(21.520495,0,0,-21.519562,508.41139,152.71424)"/>
<use data-text="H" xlink:href="#font_7_12" transform="matrix(21.520495,0,0,-21.519562,519.1524,152.71424)"/>
<use data-text="1" xlink:href="#font_7_3" transform="matrix(16.439263,0,0,-16.43855,536.01577,157.01523)"/>
<use data-text="(" xlink:href="#font_7_4" transform="matrix(21.520495,0,0,-21.519562,546.2589,152.71424)"/>
<use data-text="s" xlink:href="#font_7_5" transform="matrix(21.520495,0,0,-21.519562,555.8045,152.71424)"/>
<use data-text=")" xlink:href="#font_7_6" transform="matrix(21.520495,0,0,-21.519562,566.79208,152.71424)"/>
<use data-text="+" xlink:href="#font_7_1" transform="matrix(21.520495,0,0,-21.519562,579.92428,152.71424)"/>
<use data-text="G" xlink:href="#font_7_2" transform="matrix(21.520495,0,0,-21.519562,600.9545,152.71424)"/>
<use data-text="2" xlink:href="#font_7_10" transform="matrix(16.439263,0,0,-16.43855,617.4353,156.94947)"/>
<use data-text="(" xlink:href="#font_7_4" transform="matrix(21.520495,0,0,-21.519562,627.6785,152.71424)"/>
<use data-text="s" xlink:href="#font_7_5" transform="matrix(21.520495,0,0,-21.519562,637.2241,152.71424)"/>
<use data-text=")" xlink:href="#font_7_6" transform="matrix(21.520495,0,0,-21.519562,648.2116,152.71424)"/>
<use data-text="G" xlink:href="#font_7_2" transform="matrix(21.520495,0,0,-21.519562,658.9527,152.71424)"/>
<use data-text="3" xlink:href="#font_7_11" transform="matrix(16.439263,0,0,-16.43855,675.4285,156.85083)"/>
<use data-text="(" xlink:href="#font_7_4" transform="matrix(21.520495,0,0,-21.519562,685.6717,152.71424)"/>
<use data-text="s" xlink:href="#font_7_5" transform="matrix(21.520495,0,0,-21.519562,695.2173,152.71424)"/>
<use data-text=")" xlink:href="#font_7_6" transform="matrix(21.520495,0,0,-21.519562,706.2048,152.71424)"/>
<use data-text="H" xlink:href="#font_7_12" transform="matrix(21.520495,0,0,-21.519562,716.9459,152.71424)"/>
<use data-text="2" xlink:href="#font_7_10" transform="matrix(16.439263,0,0,-16.43855,733.8092,156.94947)"/>
<use data-text="(" xlink:href="#font_7_4" transform="matrix(21.520495,0,0,-21.519562,744.0524,152.71424)"/>
<use data-text="s" xlink:href="#font_7_5" transform="matrix(21.520495,0,0,-21.519562,753.598,152.71424)"/>
<use data-text=")" xlink:href="#font_7_6" transform="matrix(21.520495,0,0,-21.519562,764.5855,152.71424)"/>
<path transform="matrix(1,0,0,-1,291.66694,43.6883)" stroke-width=".75" stroke-linecap="round" stroke-linejoin="round" fill="none" stroke="#000000" d="M79.62818-209.56343C79.9884-209.45023 78.7111-208.99721 78.87187-210.6161 211.62485-209.77375 344.10316-210.1264 476.58-210.18184 492.11155-210.24877 491.09956-209.27834 491.73725-193.98635 492.35777-126.26029 492.92018-58.678674 492.1062 9.194455 492.54624 24.22381 491.37385 24.70267 476.42247 25.255274 344.8437 24.705693 211.18096 24.43815 78.9967 25.383614 64.19955 24.633933 64.005428 24.3296 64.344318 9.045778 64.4745-58.82658 63.355539-126.47065 65.01088-194.4997 64.12311-210.01917 65.09094-209.8353 79.62818-209.56343Z"/>
<path transform="matrix(1,0,0,-1,291.66694,43.6883)" stroke-width=".75" stroke-linecap="round" stroke-linejoin="round" fill="none" stroke="#000000" d="M80.11891-208.99996C78.62385-210.15508 78.822559-209.16809 79.50749-209.89684 212.36815-208.9842 343.44746-210.68154 477.21995-209.18567 492.46458-210.10166 491.77659-208.98944 492.26908-195.60785 491.21449-125.78233 492.18373-58.453329 492.45536 10.305705 491.5089 24.267754 491.3423 25.402419 477.22898 25.655886 344.74208 24.622809 211.24051 25.297564 79.76839 24.247458 64.639408 24.67166 64.599399 24.536818 64.71335 10.102361 65.04412-57.384939 63.377183-126.73437 63.600214-194.33692 64.13625-209.81348 64.05176-209.55055 80.11891-208.99996Z"/>
<path transform="matrix(1,0,0,-1,291.66694,43.6883)" stroke-width=".75" stroke-linecap="round" stroke-linejoin="round" fill="none" stroke="#000000" d="M79.49913-209.48876C79.65252-209.50913 79.04661-208.93282 78.27208-209.28955 212.68692-209.18094 344.09556-210.2954 477.6509-209.69011 492.72615-209.01799 491.46437-210.12409 492.89094-195.49317 491.82676-127.37631 491.74189-58.155263 492.62336 10.536487 491.59443 25.32204 491.76713 25.722176 477.63047 25.265624 344.09983 24.896544 212.56722 25.606545 78.82571 25.46634 63.860708 25.302142 63.641756 25.399113 64.23856 9.513042 63.22991-59.04878 63.84524-125.98154 63.92-194.64769 64.61309-209.61458 65.0798-208.97992 79.49913-209.48876Z"/>
<path transform="matrix(1,0,0,-1,291.66694,43.6883)" stroke-width=".75" stroke-linecap="round" stroke-linejoin="round" fill="none" stroke="#000000" d="M79.20082-209.32259C78.937328-210.62397 79.58396-209.37656 79.25264-209.81018 212.51134-210.11426 344.50785-209.61579 477.35603-210.00554 491.60719-208.83072 492.78767-210.0115 492.75996-194.7966 492.90003-127.17146 491.42179-58.840044 492.64918 10.624705 492.68565 25.731602 492.29936 25.471053 477.57148 24.500033 343.77095 25.519782 211.35236 24.247435 79.20152 24.156632 64.32232 25.759823 65.01254 25.801779 64.17354 9.106297 63.39572-58.881696 64.3522-125.9322 64.19262-195.69675 64.116558-209.14389 63.724306-210.03202 79.20082-209.32259Z"/>
<path transform="matrix(1,0,0,-1,291.66694,43.6883)" stroke-width=".75" stroke-linecap="round" stroke-linejoin="round" fill="none" stroke="#000000" d="M79.74652-209.02875C78.83238-209.83466 78.53737-209.99813 80.044528-209.29677 212.71689-209.57897 344.7583-209.85456 476.5833-210.66783 492.8103-209.96886 491.2562-209.74253 491.28819-194.41684 492.29893-126.984088 491.5889-58.069284 492.87895 9.939919 491.86976 25.867276 491.91606 25.525729 477.97306 24.789923 344.05995 24.192868 212.04697 24.921652 79.42383 25.514122 63.847394 25.271183 63.863836 24.211119 63.40409 9.574343 64.33728-57.806299 63.386495-127.09879 64.62775-194.53234 63.80317-209.38574 64.98199-209.85791 79.74652-209.02875Z"/>
</svg>
