<svg xmlns="http://www.w3.org/2000/svg" xmlns:xlink="http://www.w3.org/1999/xlink" version="1.1" width="750.4615" height="179.49468" viewBox="0 0 750.4615 179.49468">
<defs>
<path id="font_0_1" d="M.04598999 .23632813H.35598756V-.07368469L.3959961-.06668091V.23632813H.70399478L.70899966 .2763214H.3959961V.58631899L.35598756 .58032229V.2763214H.052993776L.04598999 .23632813Z"/>
<path id="font_0_2" d="M.08999634 .32458497C.08999634 .22958374 .114990238 .13148499 .18299866 .06341553 .23699951 .009384155 .31199647-.016601563 .3880005-.016601563 .46099855-.016601563 .56900027 .010391235 .6569977 .03338623 .6569977 .03338623 .6539917 .216568 .6519928 .30760194L.37599183 .2966156V.27061463L.38198854 .265625C.43598939 .26361085 .5 .25961305 .5439911 .25660707 .57199099 .25460816 .57199099 .22257996 .57199099 .13449097 .57199099 .061416627 .56900027 .04940796 .5519867 .045394899 .5209961 .038391115 .48999024 .03538513 .45799256 .03538513 .37998963 .03538513 .30599977 .060409547 .2619934 .112472537 .20399475 .18052674 .17999268 .25260926 .17999268 .3405609 .17999268 .48339845 .23199463 .5653076 .26098634 .5942688 .3039856 .63623049 .36299134 .6502075 .42199708 .6502075 .5529938 .6502075 .59298709 .5563202 .60598757 .53034976L.6179962 .5293579 .6759949 .58628848C.6649933 .6032715 .6119995 .69921877 .46699525 .69921877 .3619995 .69921877 .25698854 .6682129 .18199158 .593277 .11199951 .5233612 .08999634 .4224701 .08999634 .32458497Z"/>
<path id="font_0_3" d="M.1349945 .6123047H.22898865C.25698854 .6123047 .27999879 .59129336 .2809906 .5662842 .28199769 .541275 .28199769 .46824647 .28199769 .41923524 .28199769 .27919007 .27799989 .13916016 .272995 .00010681152L.28599549-.0048828127 .3809967 .022125245C.37799073 .09814453 .37799073 .2962036 .37799073 .43223573 .37799073 .52127078 .37998963 .6112976 .38598634 .7003021L.3789978 .71229556 .1349945 .6392975V.6123047Z"/>
<path id="font_0_4" d="M.11299133 .24990845C.11299133 .007904053 .1519928-.09008789 .18299866-.13310242 .21099854-.17008972 .25299073-.20809937 .30099488-.21209717V-.1880951C.2809906-.18409729 .25099183-.16809082 .23399353-.1481018 .21998596-.13209534 .16499329-.05809021 .16499329 .24990845 .16499329 .4618988 .19799805 .5659027 .21998596 .6128998 .23599243 .6469116 .2689972 .6769104 .30099488 .684906V.71191409C.2599945 .7049103 .21598816 .6729126 .19099427 .63790896 .1599884 .5919037 .11299133 .4748993 .11299133 .24990845Z"/>
<path id="font_0_5" d="M.051986696 .06642151C.06199646 .047409059 .07598877 .030395508 .09199524 .01638794 .12098694-.009613037 .16099549-.016601563 .19898987-.016601563 .2559967-.016601563 .31199647 .0023956299 .35099793 .044403078 .375 .06941223 .3869934 .10343933 .3869934 .13845825 .3869934 .1634674 .37298585 .18649292 .35499574 .20449829 .34098817 .21850586 .3039856 .24052429 .27198792 .25453187 .24299622 .26654054 .19999695 .2885437 .18798828 .30055238 .17298889 .31655885 .1619873 .3285675 .1619873 .35058595 .1619873 .3725891 .16899109 .39360047 .18499756 .4086151 .19999695 .42362977 .22200012 .43164063 .24398804 .43164063 .2639923 .43164063 .2849884 .42462159 .29599 .4066162 .30599977 .39060975 .30799867 .3715973 .30899049 .35359193L.32099916 .34657289 .37599183 .38360597C.375 .40560914 .3639984 .42662049 .34799195 .44163514 .32499696 .46263124 .29299928 .46662904 .2630005 .46662904 .21398926 .46662904 .16699219 .45063783 .1309967 .4176178 .10398865 .39360047 .08999634 .35858155 .08999634 .32356263 .08999634 .29154969 .10798645 .26353456 .1309967 .2425232 .1539917 .22250366 .18399048 .2084961 .21499634 .1954956 .24099732 .18447876 .2689972 .17248535 .28799439 .1534729 .30299378 .13845825 .31399537 .11845398 .31399537 .09744263 .31399537 .079422 .30499269 .062408449 .29299928 .04940796 .27799989 .03340149 .25099183 .021392823 .22898865 .021392823 .19898987 .021392823 .17199707 .03439331 .1499939 .055404664 .1269989 .076416019 .116989139 .10644531 .114990238 .13645935L.100997928 .13745117 .051986696 .06642151Z"/>
<path id="font_0_6" d="M.085998538-.1880951V-.21209717C.13398743-.20610047 .1789856-.17208863 .20698548-.13510132 .23799134-.09210205 .27598573 .007904053 .27598573 .24990845 .27598573 .50090029 .22399903 .5919037 .19299317 .63790896 .16799927 .6729126 .1269989 .7049103 .085998538 .71191409V.684906C.117996219 .6759033 .14898682 .6469116 .16499329 .6128998 .18699646 .5659027 .22399903 .48190309 .22399903 .24990845 .22399903-.099090579 .17199707-.13209534 .1579895-.1481018 .14099121-.16809082 .10598755-.18409729 .085998538-.1880951Z"/>
<path id="font_0_7" d="M.04598999 .23046875H.70399478L.70999148 .27046205H.052993776L.04598999 .23046875Z"/>
<path id="font_0_8" d="M.033996583 .6733093 .035995485 .6533203C.037994386 .6533203 .07398987 .6443176 .09199524 .63931277 .12298584 .6313019 .125 .6222992 .125 .54229739 .125 .46427918 .12199402 .38627626 .12199402 .30825807 .12199402 .24723816 .12399292 .17323303 .12998963 .12721253 .1349945 .08821106 .1559906-.0087890629 .31399537-.0087890629 .39698792-.0087890629 .47698976 .02520752 .5469971 .07020569L.5549927 .064208988C.5549927 .048202516 .5549927 .032196046 .55599978 .016204834 .55799868 .0012054443 .57598879-.0047912599 .58799746-.0047912599 .61898806-.0047912599 .6899872 .016204834 .7409973 .032196046L.74598696 .03919983 .74198916 .05619812C.7220001 .05419922 .70399478 .048202516 .6839905 .048202516 .673996 .048202516 .6609955 .050201417 .6539917 .0592041 .6389923 .07620239 .6359863 .15222168 .6359863 .20223999 .6359863 .3642578 .6369934 .5733032 .6519928 .68733218L.6459961 .69433596 .55799868 .659317C.55599978 .47727967 .55400088 .2942505 .55400088 .11122131 .5 .079208377 .43998719 .052200319 .37799073 .052200319 .24598694 .052200319 .22399903 .13922119 .21598816 .16522217 .20599365 .19923401 .20199585 .23423767 .20199585 .26924134L.20999146 .54229739C.20999146 .55929568 .21598816 .6603241 .21798706 .67433169L.21099854 .6803131H.041992189L.033996583 .6733093Z"/>
<path id="font_0_9" d="M.022994996 .6513672C.036987306 .649353 .049987794 .6463623 .06298828 .6433563 .07199097 .6413574 .07998657 .6353607 .085998538 .62835696 .09599304 .61834719 .102996829 .60635378 .10899353 .5943451L.2579956 .29930116C.2579956 .19927979 .2579956 .0982666 .25498963-.0017547608L.2659912-.0107421879 .35598756 .018249512 .34700013 .30630494C.42999269 .4343109 .5039978 .5303345 .61499026 .675354L.61099246 .6933594 .526001 .6763611C.48999024 .619339 .4059906 .47431947 .397995 .46032716 .3849945 .4373169 .34199525 .36730958 .33898927 .3623047 .33599855 .3572998 .33198548 .353302 .32798768 .353302 .32199098 .353302 .31698609 .3592987 .31599427 .36131288L.1749878 .6863556H.02999878L.022994996 .67936709V.6513672Z"/>
<path id="font_0_10" d="M.04499817 .001953125H.5379944L.56399539 .079940799 .5589905 .08795166H.20999146C.20399475 .08795166 .19799805 .08894348 .19599915 .092941287 .19499207 .094940189 .19599915 .09794617 .19699097 .09895325 .2539978 .1569519 .30799867 .21495056 .35899354 .27496339 .394989 .31697084 .42999269 .358963 .45799256 .40496827 .48799134 .4509735 .5119934 .49998475 .5119934 .5529938 .5119934 .59399417 .49899293 .6349945 .46499635 .66400149 .43199159 .69299319 .3880005 .7080078 .34199525 .7080078 .29899598 .7080078 .2579956 .6970062 .22099304 .67900088 .17599488 .65800479 .13699341 .6279907 .102996829 .59498599L.125 .57598879C.1519928 .59599307 .17799378 .61099246 .20999146 .6259918 .23098755 .6360016 .2559967 .6399994 .2809906 .6399994 .31399537 .6399994 .34700013 .6289978 .37098695 .6069946 .40098573 .5779877 .4079895 .5369873 .4079895 .50798037 .4079895 .4429779 .38198854 .38197328 .34298707 .3259735 .31098939 .27996827 .27198792 .23796082 .23199463 .19696045 .17199707 .13494873 .10899353 .07594299 .04499817 .017944336V.001953125Z"/>
<path id="font_0_11" d="M.050994874 .049362184 .05899048 .038375856C.10998535 .0033874512 .17098999-.016601563 .23599243-.016601563 .31799317-.016601563 .397995 .008392334 .45700074 .05935669 .5039978 .10131836 .5349884 .15626526 .5349884 .21520996 .5349884 .25416566 .519989 .2911377 .48999024 .31811524 .46899415 .3360901 .44198609 .34709168 .41600038 .35508729 .3789978 .36608888 .34199525 .37109376 .30299378 .37408448V.38209535C.34999085 .39408876 .3939972 .41609193 .42900086 .44610597 .46499635 .47810365 .48199464 .52311709 .48199464 .5681305 .48199464 .60414126 .46798707 .6401367 .43899537 .6651459 .40699769 .6941376 .36099244 .70214846 .31698609 .70214846 .2849884 .70214846 .25498963 .69114688 .22599793 .67814639 .18598938 .6591339 .14698792 .63414 .11199951 .60813906L.12799073 .58613589C.1539917 .60113528 .17999268 .6151428 .20799256 .6261444 .22799683 .6331482 .24699402 .6391449 .2659912 .6391449 .2999878 .6391449 .33299256 .6321411 .35598756 .61112979 .37799073 .59213259 .3889923 .5671234 .3889923 .54011538 .3889923 .502121 .37199403 .46510316 .34098817 .43710328 .32299806 .4210968 .29899598 .40908814 .27398683 .39909364 .24198914 .38609315 .20698548 .37808229 .17298889 .37109376L.17199707 .34509278C.21398926 .34509278 .2559967 .34309388 .29699708 .3340912 .32499696 .32809449 .35299684 .31910707 .37298585 .30012513 .4059906 .26914979 .42900086 .22920227 .42900086 .18623352 .42900086 .14128113 .41299439 .095321658 .3769989 .06335449 .34599305 .036376954 .30599977 .023391724 .2639923 .023391724 .22299195 .023391724 .18499756 .041366579 .1559906 .067352298 .13798523 .08332825 .12399292 .10131836 .10998535 .121292117H.09899902L.050994874 .049362184Z"/>
<path id="font_0_12" d="M.051986696 .6781769 .052993776 .6591797C.07299805 .65216067 .10899353 .6411438 .11299133 .6401367 .12298584 .6361389 .125 .6251221 .12599182 .6161041 .1309967 .53297427 .13198853 .44985963 .13198853 .36676026 .13198853 .24482727 .13198853 .11590576 .12199402 .0029907227L.12799073-.0020141602 .21998596 .025970459C.21699524 .051956178 .21499634 .10292053 .21499634 .1798706V.33377076C.21499634 .34075929 .22099304 .34576417 .22799683 .34576417H.57099917C.5799866 .34576417 .58299258 .33876039 .58299258 .33377076 .58299258 .23683167 .5799866 .11790466 .5779877 .020980835L.58898928 0 .73799136 .0078125 .74398806 .013809204 .7429962 .031799318C.72499087 .03981018 .66600039 .03981018 .66600039 .07879639 .66600039 .09979248 .6619873 .24076844 .6619873 .32176209 .6619873 .5129547 .66999819 .64515689 .6729889 .6841736L.66799929 .6901703 .5799866 .673172C.5799866 .58706668 .58299258 .48291017 .58299258 .3967743 .58299258 .39076234 .58200076 .38476563 .57099917 .38476563H.22499085C.21499634 .38476563 .21299744 .3917694 .21299744 .3967743 .21299744 .4618683 .21699524 .54600527 .21899414 .61109927 .21998596 .63414 .22200012 .6581726 .22599793 .6801758L.22099304 .6851654H.05899048L.051986696 .6781769Z"/>
</defs>
<use data-text="+" xlink:href="#font_0_1" transform="matrix(37.185197,0,0,-37.18505,277.6274,53.21135)"/>
<use data-text="G" xlink:href="#font_0_2" transform="matrix(21.519362,0,0,-21.519398,135.64244,49.071855)"/>
<use data-text="1" xlink:href="#font_0_3" transform="matrix(16.438399,0,0,-16.438426,152.1097,53.372819)"/>
<use data-text="(" xlink:href="#font_0_4" transform="matrix(21.519362,0,0,-21.519398,162.35228,49.071855)"/>
<use data-text="s" xlink:href="#font_0_5" transform="matrix(21.519362,0,0,-21.519398,171.8974,49.071855)"/>
<use data-text=")" xlink:href="#font_0_6" transform="matrix(21.519362,0,0,-21.519398,182.88434,49.071855)"/>
<path transform="matrix(1,0,0,-1,291.6669,43.69055)" stroke-width=".75" stroke-linecap="round" stroke-linejoin="round" fill="none" stroke="#000000" d="M-155.78536-24.470898C-156.40941-24.731007-155.39424-24.837029-156.2076-24.937037-137.41826-24.251372-119.89808-23.992848-101.271739-25.156828-84.88281-25.8806-85.79507-25.100152-86.33844-10.452656-84.55233-2.477495-84.76387 3.459582-85.06718 10.82445-85.52791 24.648873-84.98742 25.41686-99.8429 25.829207-118.07833 24.608952-138.31137 24.67255-155.10263 24.88694-170.91904 24.188025-170.81673 25.723179-171.36167 9.353773-170.37566 3.582601-171.1689-3.452783-171.0003-10.66027-171.64682-25.007107-171.36371-24.51257-155.78536-24.470898Z"/>
<path transform="matrix(1,0,0,-1,291.6669,43.69055)" stroke-width=".75" stroke-linecap="round" stroke-linejoin="round" fill="none" stroke="#000000" d="M21.029894 .267697C21.722002 12.344104 11.84629 21.187815 .32359 21.428565-12.028782 20.76278-20.885748 11.411098-21.275376 .209293-22.569563-12.284994-12.035262-21.393012-.870889-21.492606 11.65595-22.408892 20.674822-11.906383 21.029894 .267697Z"/>
<path transform="matrix(1,0,0,-1,291.6669,43.69055)" stroke-width=".75" stroke-linecap="round" stroke-linejoin="round" fill="none" stroke="#000000" d="M-234.52495 .180952C-214.05187-.178218-192.66805 .100291-171.78316 .208023"/>
<path transform="matrix(1,0,0,-1,291.6669,43.69055)" stroke-width=".75" stroke-linecap="round" stroke-linejoin="round" fill="none" stroke="#000000" d="M-184.06674-7.972826C-180.483-3.899673-176.8509-.931183-171.1829 .396004-176.43169 1.012715-180.76895 4.39921-184.04875 8.040825"/>
<path transform="matrix(1,0,0,-1,291.6669,43.69055)" stroke-width=".75" stroke-linecap="round" stroke-linejoin="round" fill="none" stroke="#000000" d="M-85.53676 .223093C-64.72393 .348359-42.9436 .419857-21.878363 .107542"/>
<path transform="matrix(1,0,0,-1,291.6669,43.69055)" stroke-width=".75" stroke-linecap="round" stroke-linejoin="round" fill="none" stroke="#000000" d="M-34.490686-7.646102C-31.674656-4.158951-26.958199-1.22402-21.771803-.301189-27.408579 1.402125-31.74489 4.4056-34.403177 8.285826"/>
<path transform="matrix(1,0,0,-1,291.6669,43.69055)" stroke-width=".75" stroke-linecap="round" stroke-linejoin="round" fill="none" stroke="#000000" d="M22.003365-.079697C42.85844 .41401 64.224109 .169968 85.281528-.157453"/>
<path transform="matrix(1,0,0,-1,291.6669,43.69055)" stroke-width=".75" stroke-linecap="round" stroke-linejoin="round" fill="none" stroke="#000000" d="M72.76559-7.926726C75.98917-4.0466 80.3846-.811683 85.165218-.410827 79.75223 1.576542 75.791439 4.118821 72.134769 7.994565"/>
<path transform="matrix(1,0,0,-1,291.6669,43.69055)" stroke-width=".75" stroke-linecap="round" stroke-linejoin="round" fill="none" stroke="#000000" d="M320.15876 .27806C349.03349-.404719 376.663-.106806 405.45774-.448757"/>
<path transform="matrix(1,0,0,-1,291.6669,43.69055)" stroke-width=".75" stroke-linecap="round" stroke-linejoin="round" fill="none" stroke="#000000" d="M392.8324-8.361394C396.39573-4.00303 400.11604-.805736 405.52796 .023122 400.85939 1.009648 396.06263 4.216546 392.72584 8.281444"/>
<path transform="matrix(1,0,0,-1,291.6669,43.69055)" stroke-width=".75" stroke-linecap="round" stroke-linejoin="round" fill="none" stroke="#000000" d="M85.268909-91.9624C56.543874-92.243228 28.22453-92.33338 .184054-92.775699 .109441-69.360279 .235622-45.48933-.316083-22.360316"/>
<path transform="matrix(1,0,0,-1,291.6669,43.69055)" stroke-width=".75" stroke-linecap="round" stroke-linejoin="round" fill="none" stroke="#000000" d="M8.141181-35.102457C4.107882-31.34476 1.365071-26.737706 .40939-22.12494-1.579275-26.668595-4.284561-31.199618-8.470194-34.304925"/>
<path transform="matrix(1,0,0,-1,291.6669,43.69055)" stroke-width=".75" stroke-linecap="round" stroke-linejoin="round" fill="none" stroke="#000000" d="M362.70933-.317681C363.11268-30.90422 363.2487-61.276384 362.53346-92.84978 348.94664-92.20742 334.80995-92.79812 320.3646-92.7835"/>
<path transform="matrix(1,0,0,-1,291.6669,43.69055)" stroke-width=".75" stroke-linecap="round" stroke-linejoin="round" fill="none" stroke="#000000" d="M333.09675-83.90608C329.6287-88.29822 325.65696-91.261447 320.60768-92.61738 325.668-93.96056 329.76814-96.651187 332.78767-100.287548"/>
<path transform="matrix(1,0,0,-1,291.6669,43.69055)" stroke-width=".75" stroke-linecap="round" stroke-linejoin="round" fill="none" stroke="#000000" d="M-155.11345-24.82297C-156.24077-24.039448-156.8707-24.151896-156.59774-25.279807-137.62491-25.519417-119.43199-24.181273-100.81257-25.085949-84.964588-24.830643-86.13432-24.807198-85.50084-9.852346-85.40358-2.614223-86.36502 2.783234-85.204319 9.926131-85.09193 25.380417-85.66239 25.040419-100.869579 25.370434-118.958209 24.635642-138.3609 24.598942-155.73819 24.306408-171.03285 24.392556-170.61753 24.997157-170.52469 9.473598-171.90848 2.867942-170.61376-3.135342-171.84943-9.854654-170.46108-24.482865-171.237-25.092444-155.11345-24.82297Z"/>
<path transform="matrix(1,0,0,-1,291.6669,43.69055)" stroke-width=".75" stroke-linecap="round" stroke-linejoin="round" fill="none" stroke="#000000" d="M22.210419 .734529C21.331152 12.788088 12.178827 22.546324-.063364 21.400179-11.293564 20.775458-22.308144 12.656436-21.30979-.902512-21.936217-11.236356-11.062483-21.477416 .358683-22.343317 12.475478-21.15375 22.3231-12.501651 22.210419 .734529Z"/>
<path transform="matrix(1,0,0,-1,291.6669,43.69055)" stroke-width=".75" stroke-linecap="round" stroke-linejoin="round" fill="none" stroke="#000000" d="M-235.02629 .253706C-214.08423-.065518-192.44907-.34426-171.63736 .388483"/>
<path transform="matrix(1,0,0,-1,291.6669,43.69055)" stroke-width=".75" stroke-linecap="round" stroke-linejoin="round" fill="none" stroke="#000000" d="M-184.2616-7.859131C-180.82025-4.180166-176.36756-.896625-171.63124 .288247-176.81162 .768525-181.18521 3.739859-183.77605 7.796651"/>
<path transform="matrix(1,0,0,-1,291.6669,43.69055)" stroke-width=".75" stroke-linecap="round" stroke-linejoin="round" fill="none" stroke="#000000" d="M-85.05188 .056972C-64.04942-.006141-43.004625-.382223-22.435873 .441845"/>
<path transform="matrix(1,0,0,-1,291.6669,43.69055)" stroke-width=".75" stroke-linecap="round" stroke-linejoin="round" fill="none" stroke="#000000" d="M-34.23238-8.505868C-31.651373-3.885375-27.360543-.88707-22.098143 .145239-26.647606 1.098255-31.715237 3.594274-34.512086 7.811099"/>
<path transform="matrix(1,0,0,-1,291.6669,43.69055)" stroke-width=".75" stroke-linecap="round" stroke-linejoin="round" fill="none" stroke="#000000" d="M21.481993 .06072C42.50806 .331182 64.36538-.159059 84.908008-.3331"/>
<path transform="matrix(1,0,0,-1,291.6669,43.69055)" stroke-width=".75" stroke-linecap="round" stroke-linejoin="round" fill="none" stroke="#000000" d="M72.5204-8.051003C75.87201-4.111013 80.39171-.756276 84.92743-.102447 79.66269 1.322351 75.32259 4.280299 72.61319 8.373979"/>
<path transform="matrix(1,0,0,-1,291.6669,43.69055)" stroke-width=".75" stroke-linecap="round" stroke-linejoin="round" fill="none" stroke="#000000" d="M320.71595-.389017C348.97999 .347098 377.40547-.303303 405.54545-.106879"/>
<path transform="matrix(1,0,0,-1,291.6669,43.69055)" stroke-width=".75" stroke-linecap="round" stroke-linejoin="round" fill="none" stroke="#000000" d="M392.3684-8.433098C396.37916-3.908551 400.41065-1.415152 405.75303 .002539 400.7983 1.503701 396.3888 4.194084 392.59617 8.475374"/>
<path transform="matrix(1,0,0,-1,291.6669,43.69055)" stroke-width=".75" stroke-linecap="round" stroke-linejoin="round" fill="none" stroke="#000000" d="M85.394039-92.24162C57.190538-92.77616 28.252543-92.23956 .349376-92.49265 .390116-69.291408 .180651-45.499479-.239755-21.95347"/>
<path transform="matrix(1,0,0,-1,291.6669,43.69055)" stroke-width=".75" stroke-linecap="round" stroke-linejoin="round" fill="none" stroke="#000000" d="M7.750934-34.679944C3.564086-31.81339 .749655-27.303435-.325501-22.159659-1.201305-27.260958-3.561319-31.374522-7.732971-34.52892"/>
<path transform="matrix(1,0,0,-1,291.6669,43.69055)" stroke-width=".75" stroke-linecap="round" stroke-linejoin="round" fill="none" stroke="#000000" d="M363.22779-.172132C363.08277-31.222434 363.04127-61.79134 362.96018-92.74449 348.31367-92.27313 334.3592-92.66486 319.87928-92.64866"/>
<path transform="matrix(1,0,0,-1,291.6669,43.69055)" stroke-width=".75" stroke-linecap="round" stroke-linejoin="round" fill="none" stroke="#000000" d="M332.9689-84.62694C329.60957-88.14333 325.60084-91.01292 319.93608-92.36077 325.0104-93.60832 329.3164-96.68232 332.63047-100.50882"/>
<path transform="matrix(1,0,0,-1,291.6669,43.69055)" stroke-width=".75" stroke-linecap="round" stroke-linejoin="round" fill="none" stroke="#000000" d="M-155.99138-25.017912C-155.18019-24.387568-156.84452-24.336785-156.49367-25.820544-137.45963-25.228602-119.410617-25.850945-100.76734-24.74484-84.6364-24.375243-84.92781-24.99746-85.091709-10.802162-84.93729-3.179278-85.027469 3.104837-85.54676 9.284365-84.53691 24.03742-85.96315 25.796492-99.69023 25.797749-118.03836 25.145712-138.05242 25.120078-155.05489 24.666649-171.2898 24.662274-170.60373 24.502493-171.35628 9.141213-170.22002 2.450751-170.13103-3.625196-171.8321-10.761666-171.63999-25.069172-170.63187-24.179419-155.99138-25.017912Z"/>
<path transform="matrix(1,0,0,-1,291.6669,43.69055)" stroke-width=".75" stroke-linecap="round" stroke-linejoin="round" fill="none" stroke="#000000" d="M22.526406 .58083C22.40793 12.387571 12.243379 21.692267 .399665 21.914784-11.560576 21.311287-22.195715 12.018778-21.72354-.189537-21.835259-11.320863-11.310163-21.491818 .582133-22.424813 12.809646-21.280373 20.690257-12.23101 22.526406 .58083Z"/>
<path transform="matrix(1,0,0,-1,291.6669,43.69055)" stroke-width=".75" stroke-linecap="round" stroke-linejoin="round" fill="none" stroke="#000000" d="M-234.75762 .33952C-213.46735-.374585-192.46541 .198416-171.58422-.441501"/>
<path transform="matrix(1,0,0,-1,291.6669,43.69055)" stroke-width=".75" stroke-linecap="round" stroke-linejoin="round" fill="none" stroke="#000000" d="M-184.24874-8.009215C-180.6322-4.166921-176.2366-1.414789-171.2644 .371341-176.59304 1.084931-180.68204 4.377978-184.4577 7.727634"/>
<path transform="matrix(1,0,0,-1,291.6669,43.69055)" stroke-width=".75" stroke-linecap="round" stroke-linejoin="round" fill="none" stroke="#000000" d="M-85.05292-.31048C-64.644107 .400938-43.169134-.083973-22.415827 .32071"/>
<path transform="matrix(1,0,0,-1,291.6669,43.69055)" stroke-width=".75" stroke-linecap="round" stroke-linejoin="round" fill="none" stroke="#000000" d="M-34.67868-7.874649C-31.747973-4.241543-27.119376-.761104-21.60913-.415344-26.778666 1.068809-31.779879 3.85559-34.728616 8.205841"/>
<path transform="matrix(1,0,0,-1,291.6669,43.69055)" stroke-width=".75" stroke-linecap="round" stroke-linejoin="round" fill="none" stroke="#000000" d="M21.979723-.424771C42.46803-.188811 64.127368-.412434 84.754 .294943"/>
<path transform="matrix(1,0,0,-1,291.6669,43.69055)" stroke-width=".75" stroke-linecap="round" stroke-linejoin="round" fill="none" stroke="#000000" d="M72.72063-8.30874C75.4812-4.299525 79.68265-1.057881 84.96317 .171086 79.93364 .910832 75.87616 4.407869 72.62096 8.18026"/>
<path transform="matrix(1,0,0,-1,291.6669,43.69055)" stroke-width=".75" stroke-linecap="round" stroke-linejoin="round" fill="none" stroke="#000000" d="M320.7919-.385482C348.50123-.20465 376.8691 .309946 405.4157 .189245"/>
<path transform="matrix(1,0,0,-1,291.6669,43.69055)" stroke-width=".75" stroke-linecap="round" stroke-linejoin="round" fill="none" stroke="#000000" d="M392.51374-7.874465C395.52323-4.191206 400.01036-.75265 405.6102 .287482 400.5295 1.509539 395.85148 3.70171 392.82899 7.73468"/>
<path transform="matrix(1,0,0,-1,291.6669,43.69055)" stroke-width=".75" stroke-linecap="round" stroke-linejoin="round" fill="none" stroke="#000000" d="M85.09936-92.131809C56.868665-92.855419 28.379483-91.9769 .063867-92.33191-.220039-68.91416-.046117-45.336194-.205439-21.714518"/>
<path transform="matrix(1,0,0,-1,291.6669,43.69055)" stroke-width=".75" stroke-linecap="round" stroke-linejoin="round" fill="none" stroke="#000000" d="M8.238664-35.05234C4.36678-31.450194 1.370238-27.340649 .1975-22.204527-1.298262-26.856068-3.869071-31.946997-8.306029-34.520185"/>
<path transform="matrix(1,0,0,-1,291.6669,43.69055)" stroke-width=".75" stroke-linecap="round" stroke-linejoin="round" fill="none" stroke="#000000" d="M363.23036 .410848C363.25773-30.482569 362.5003-61.94121 362.7809-92.640857 348.93809-92.5602 334.78208-92.27947 320.1934-92.00572"/>
<path transform="matrix(1,0,0,-1,291.6669,43.69055)" stroke-width=".75" stroke-linecap="round" stroke-linejoin="round" fill="none" stroke="#000000" d="M333.04008-84.18892C329.52946-88.75547 325.18403-90.87358 320.25547-92.48489 325.0713-93.351528 329.93879-96.45087 333.0051-100.81634"/>
<path transform="matrix(1,0,0,-1,291.6669,43.69055)" stroke-width=".75" stroke-linecap="round" stroke-linejoin="round" fill="none" stroke="#000000" d="M-155.6802-25.661362C-156.93595-24.535578-155.43354-24.900673-156.97068-25.784323-136.78806-25.41356-118.26591-25.450467-99.47908-24.062737-84.87263-25.448868-85.90729-24.243615-86.18231-10.217033-85.48227-3.938938-85.66249 3.256071-85.28971 9.807375-85.018527 25.506262-85.515277 24.770522-99.56704 24.142006-119.200489 25.660746-137.7391 24.599728-156.04544 25.031689-170.05698 24.136736-170.61605 25.901747-171.55377 10.407649-171.96866 2.623998-171.90726-2.743853-171.0055-9.595518-171.02577-25.378037-171.89237-25.539618-155.6802-25.661362Z"/>
<path transform="matrix(1,0,0,-1,291.6669,43.69055)" stroke-width=".75" stroke-linecap="round" stroke-linejoin="round" fill="none" stroke="#000000" d="M22.33316 .435682C22.236546 11.380395 11.203238 21.410386-.801533 20.791245-12.474445 20.97168-22.100884 11.123629-22.282534-.237161-21.68901-12.792053-12.642632-21.565903 .387914-22.140589 11.722029-22.226187 21.869635-12.378957 22.33316 .435682Z"/>
<path transform="matrix(1,0,0,-1,291.6669,43.69055)" stroke-width=".75" stroke-linecap="round" stroke-linejoin="round" fill="none" stroke="#000000" d="M-234.58339 .429009C-213.3493-.229376-192.20195-.232707-171.12737-.019466"/>
<path transform="matrix(1,0,0,-1,291.6669,43.69055)" stroke-width=".75" stroke-linecap="round" stroke-linejoin="round" fill="none" stroke="#000000" d="M-183.82592-8.471013C-180.46454-3.68103-176.21663-1.59312-171.37863-.343191-176.02568 1.60101-180.73683 4.034491-184.09247 8.268128"/>
<path transform="matrix(1,0,0,-1,291.6669,43.69055)" stroke-width=".75" stroke-linecap="round" stroke-linejoin="round" fill="none" stroke="#000000" d="M-85.33494-.164728C-64.08702-.413942-43.231977 .237005-21.869803-.057842"/>
<path transform="matrix(1,0,0,-1,291.6669,43.69055)" stroke-width=".75" stroke-linecap="round" stroke-linejoin="round" fill="none" stroke="#000000" d="M-34.708436-8.30823C-31.143733-3.848736-26.679816-.842824-22.01204 .158264-27.329728 1.531611-31.811322 3.869024-34.282659 8.498346"/>
<path transform="matrix(1,0,0,-1,291.6669,43.69055)" stroke-width=".75" stroke-linecap="round" stroke-linejoin="round" fill="none" stroke="#000000" d="M21.472247 .355705C42.3933-.315366 64.11017-.175255 84.6522-.33952"/>
<path transform="matrix(1,0,0,-1,291.6669,43.69055)" stroke-width=".75" stroke-linecap="round" stroke-linejoin="round" fill="none" stroke="#000000" d="M72.56468-7.789174C75.60529-3.784336 79.60833-1.300039 85.400669 .340763 80.19214 1.573338 75.45352 3.815341 72.51898 8.369318"/>
<path transform="matrix(1,0,0,-1,291.6669,43.69055)" stroke-width=".75" stroke-linecap="round" stroke-linejoin="round" fill="none" stroke="#000000" d="M320.14567-.337914C349.01353 .014616 377.28395 .121778 405.8483 .358541"/>
<path transform="matrix(1,0,0,-1,291.6669,43.69055)" stroke-width=".75" stroke-linecap="round" stroke-linejoin="round" fill="none" stroke="#000000" d="M392.77275-8.36697C396.1272-3.80767 400.5836-1.202615 405.48649 .349713 400.02745 1.00132 395.8653 4.315151 393.02864 8.08331"/>
<path transform="matrix(1,0,0,-1,291.6669,43.69055)" stroke-width=".75" stroke-linecap="round" stroke-linejoin="round" fill="none" stroke="#000000" d="M84.94059-92.84431C56.708585-92.75102 28.676796-92.60934-.135233-91.98248-.327451-68.841838 .217056-45.913549-.402166-21.782088"/>
<path transform="matrix(1,0,0,-1,291.6669,43.69055)" stroke-width=".75" stroke-linecap="round" stroke-linejoin="round" fill="none" stroke="#000000" d="M8.157835-35.07333C4.318616-31.408616 1.069919-27.129305-.073124-21.65171-1.493992-27.30645-4.09561-31.730906-8.180225-35.089208"/>
<path transform="matrix(1,0,0,-1,291.6669,43.69055)" stroke-width=".75" stroke-linecap="round" stroke-linejoin="round" fill="none" stroke="#000000" d="M362.68586-.411526C363.35066-30.508219 363.27885-62.03082 362.5002-92.678 349.1097-92.25268 334.5183-92.21951 319.93757-92.0407"/>
<path transform="matrix(1,0,0,-1,291.6669,43.69055)" stroke-width=".75" stroke-linecap="round" stroke-linejoin="round" fill="none" stroke="#000000" d="M332.5988-84.335109C329.58103-88.54071 325.61918-91.31048 320.11903-92.24153 324.97685-93.67714 329.86897-96.069599 332.6636-100.46745"/>
<path transform="matrix(1,0,0,-1,291.6669,43.69055)" stroke-width=".75" stroke-linecap="round" stroke-linejoin="round" fill="none" stroke="#000000" d="M-156.94319-24.386996C-156.04141-25.583462-155.67534-25.554245-155.43317-25.886864-138.00366-24.379158-119.428348-24.69045-100.93251-25.821389-85.43196-24.563757-84.89879-25.723528-86.26495-10.059079-85.80089-3.625117-85.69497 2.757751-84.93807 9.457983-86.10941 24.209389-84.66726 24.908465-100.73721 24.76686-118.09802 25.221444-136.73403 23.993239-156.40064 24.437123-171.39232 25.256064-170.25382 25.706994-170.89473 10.264889-170.29442 3.495543-170.1077-2.898206-171.66843-10.336912-171.93088-24.098155-170.9228-24.660496-156.94319-24.386996Z"/>
<path transform="matrix(1,0,0,-1,291.6669,43.69055)" stroke-width=".75" stroke-linecap="round" stroke-linejoin="round" fill="none" stroke="#000000" d="M21.661953-.287371C20.779368 12.050147 12.134948 21.949074 .409905 22.252955-12.23255 21.308884-21.142645 11.260585-20.79407-.358048-21.669245-11.11366-11.761364-22.58265 .433907-20.940463 11.594944-21.70908 22.343338-11.420858 21.661953-.287371Z"/>
<path transform="matrix(1,0,0,-1,291.6669,43.69055)" stroke-width=".75" stroke-linecap="round" stroke-linejoin="round" fill="none" stroke="#000000" d="M-234.96366-.200247C-213.47672 .102231-192.27416 .10798-171.75945-.362168"/>
<path transform="matrix(1,0,0,-1,291.6669,43.69055)" stroke-width=".75" stroke-linecap="round" stroke-linejoin="round" fill="none" stroke="#000000" d="M-184.05249-7.96509C-180.45926-4.176658-176.09987-1.305081-171.7252 .223611-176.85076 .717544-181.03234 4.37339-183.82027 8.401913"/>
<path transform="matrix(1,0,0,-1,291.6669,43.69055)" stroke-width=".75" stroke-linecap="round" stroke-linejoin="round" fill="none" stroke="#000000" d="M-85.46237-.195903C-64.66767 .44107-42.97593-.390399-21.910172-.179946"/>
<path transform="matrix(1,0,0,-1,291.6669,43.69055)" stroke-width=".75" stroke-linecap="round" stroke-linejoin="round" fill="none" stroke="#000000" d="M-35.120027-7.643542C-31.892786-4.359293-26.6898-1.210708-22.406668 .010517-26.741702 .763692-31.952879 3.787509-35.081678 8.214605"/>
<path transform="matrix(1,0,0,-1,291.6669,43.69055)" stroke-width=".75" stroke-linecap="round" stroke-linejoin="round" fill="none" stroke="#000000" d="M21.836453-.321723C42.340147 .413174 63.955766-.407033 85.069217 .296192"/>
<path transform="matrix(1,0,0,-1,291.6669,43.69055)" stroke-width=".75" stroke-linecap="round" stroke-linejoin="round" fill="none" stroke="#000000" d="M72.26745-7.72986C75.57689-3.556762 80.32329-1.446221 85.46645 .426233 79.97147 1.556303 75.997348 4.363559 72.71936 8.406459"/>
<path transform="matrix(1,0,0,-1,291.6669,43.69055)" stroke-width=".75" stroke-linecap="round" stroke-linejoin="round" fill="none" stroke="#000000" d="M320.45298 .31229C349.05628-.228265 376.96745-.438055 405.2208 .150869"/>
<path transform="matrix(1,0,0,-1,291.6669,43.69055)" stroke-width=".75" stroke-linecap="round" stroke-linejoin="round" fill="none" stroke="#000000" d="M392.39845-7.810127C396.10267-4.217775 400.522-1.452138 405.8364-.032412 400.22865 1.100247 395.7659 4.297383 392.9531 8.337678"/>
<path transform="matrix(1,0,0,-1,291.6669,43.69055)" stroke-width=".75" stroke-linecap="round" stroke-linejoin="round" fill="none" stroke="#000000" d="M84.85592-92.33455C56.579549-92.39671 28.631487-92.426288-.447876-92.64884 .437057-69.326938 .396927-45.159795-.396482-21.835379"/>
<path transform="matrix(1,0,0,-1,291.6669,43.69055)" stroke-width=".75" stroke-linecap="round" stroke-linejoin="round" fill="none" stroke="#000000" d="M8.441017-34.2872C3.808786-31.501929 1.38283-27.103222 .29434-21.806527-1.598454-26.9008-4.313335-31.40038-7.862649-34.965044"/>
<path transform="matrix(1,0,0,-1,291.6669,43.69055)" stroke-width=".75" stroke-linecap="round" stroke-linejoin="round" fill="none" stroke="#000000" d="M363.25373-.298932C363.24607-30.529747 363.36299-61.820058 362.97257-92.360469 348.46894-92.13055 334.58345-92.39511 320.06166-92.83677"/>
<path transform="matrix(1,0,0,-1,291.6669,43.69055)" stroke-width=".75" stroke-linecap="round" stroke-linejoin="round" fill="none" stroke="#000000" d="M332.97908-84.212139C329.72309-88.61194 324.9013-91.59939 320.45573-92.2198 325.37748-93.2999 329.98155-96.56718 333.11073-100.412189"/>
<use data-text="+" xlink:href="#font_0_1" transform="matrix(21.519354,0,0,-21.519316,253.61762,35.94774)"/>
<use data-text="&#x2212;" xlink:href="#font_0_7" transform="matrix(21.519371,0,0,-21.519288,297.8168,74.29996)"/>
<use data-text="U" xlink:href="#font_0_8" transform="matrix(21.519457,0,0,-21.519398,6.8143007,49.071855)"/>
<use data-text="(" xlink:href="#font_0_4" transform="matrix(21.519457,0,0,-21.519398,23.470364,49.071855)"/>
<use data-text="s" xlink:href="#font_0_5" transform="matrix(21.519457,0,0,-21.519398,33.015535,49.071855)"/>
<use data-text=")" xlink:href="#font_0_6" transform="matrix(21.519457,0,0,-21.519398,44.00251,49.071855)"/>
<use data-text="Y" xlink:href="#font_0_9" transform="matrix(21.519246,0,0,-21.519398,701.60629,49.071855)"/>
<use data-text="(" xlink:href="#font_0_4" transform="matrix(21.519246,0,0,-21.519398,714.75497,49.071855)"/>
<use data-text="s" xlink:href="#font_0_5" transform="matrix(21.519246,0,0,-21.519398,724.3,49.071855)"/>
<use data-text=")" xlink:href="#font_0_6" transform="matrix(21.519246,0,0,-21.519398,735.2868,49.071855)"/>
<use data-text="G" xlink:href="#font_0_2" transform="matrix(21.519362,0,0,-21.519398,392.09306,49.071855)"/>
<use data-text="2" xlink:href="#font_0_10" transform="matrix(16.438399,0,0,-16.438426,408.56028,53.307054)"/>
<use data-text="(" xlink:href="#font_0_4" transform="matrix(21.519362,0,0,-21.519398,418.80296,49.071855)"/>
<use data-text="s" xlink:href="#font_0_5" transform="matrix(21.519362,0,0,-21.519398,428.34806,49.071855)"/>
<use data-text=")" xlink:href="#font_0_6" transform="matrix(21.519362,0,0,-21.519398,439.335,49.071855)"/>
<use data-text="G" xlink:href="#font_0_2" transform="matrix(21.519362,0,0,-21.519398,541.4698,49.071855)"/>
<use data-text="3" xlink:href="#font_0_11" transform="matrix(16.438399,0,0,-16.438426,557.937,53.208406)"/>
<use data-text="(" xlink:href="#font_0_4" transform="matrix(21.519362,0,0,-21.519398,568.1796,49.071855)"/>
<use data-text="s" xlink:href="#font_0_5" transform="matrix(21.519362,0,0,-21.519398,577.72476,49.071855)"/>
<use data-text=")" xlink:href="#font_0_6" transform="matrix(21.519362,0,0,-21.519398,588.7117,49.071855)"/>
<use data-text="H" xlink:href="#font_0_12" transform="matrix(21.51913,0,0,-21.519398,541.27609,141.4802)"/>
<use data-text="1" xlink:href="#font_0_3" transform="matrix(16.438221,0,0,-16.438426,558.1306,145.78116)"/>
<use data-text="(" xlink:href="#font_0_4" transform="matrix(21.51913,0,0,-21.519398,568.37307,141.4802)"/>
<use data-text="s" xlink:href="#font_0_5" transform="matrix(21.51913,0,0,-21.519398,577.9181,141.4802)"/>
<use data-text=")" xlink:href="#font_0_6" transform="matrix(21.51913,0,0,-21.519398,588.9049,141.4802)"/>
<use data-text="H" xlink:href="#font_0_12" transform="matrix(21.51913,0,0,-21.519398,391.89933,141.4802)"/>
<use data-text="2" xlink:href="#font_0_10" transform="matrix(16.438221,0,0,-16.438426,408.7538,145.71541)"/>
<use data-text="(" xlink:href="#font_0_4" transform="matrix(21.51913,0,0,-21.519398,418.9963,141.4802)"/>
<use data-text="s" xlink:href="#font_0_5" transform="matrix(21.51913,0,0,-21.519398,428.54136,141.4802)"/>
<use data-text=")" xlink:href="#font_0_6" transform="matrix(21.51913,0,0,-21.519398,439.52824,141.4802)"/>
<path transform="matrix(1,0,0,-1,291.6669,43.690546)" stroke-width=".75" stroke-linecap="round" stroke-linejoin="round" fill="none" stroke="#000000" d="M100.8258-25.445185C99.66074-25.437558 101.31611-25.295199 100.2632-25.0269 118.11199-25.060582 137.98938-24.999056 155.46517-25.599226 170.64788-25.644371 171.61444-24.657114 170.7406-9.020442 170.51927-3.098273 171.58683 4.217104 170.76792 10.110796 171.5964 24.176985 170.94742 24.897109 155.65976 24.278046 137.38353 25.87955 119.47832 25.12373 99.874309 25.83433 84.71917 24.426512 84.81535 24.687272 84.928668 10.067449 85.287929 3.972516 84.94598-3.272881 86.33329-10.326698 85.70659-25.242327 86.10395-25.802287 100.8258-25.445185Z"/>
<path transform="matrix(1,0,0,-1,291.6669,43.690546)" stroke-width=".75" stroke-linecap="round" stroke-linejoin="round" fill="none" stroke="#000000" d="M248.87363-24.708745C249.48532-24.889489 249.11322-25.333027 250.55362-25.016076 268.61186-25.87334 286.85438-25.083094 305.38926-24.539984 320.4771-25.219546 319.63194-25.840088 320.63414-9.526552 320.41007-3.080475 320.31733 3.25614 320.80506 9.360915 321.12239 25.616118 320.1901 25.842597 305.43605 24.553378 286.7309 25.055203 269.30329 25.283555 249.84552 24.963862 234.4679 25.809048 234.97695 25.543219 234.40489 10.299606 234.2439 3.443493 235.15706-2.910574 235.45456-10.035226 234.74797-24.465405 234.05457-24.12483 248.87363-24.708745Z"/>
<path transform="matrix(1,0,0,-1,291.6669,43.690546)" stroke-width=".75" stroke-linecap="round" stroke-linejoin="round" fill="none" stroke="#000000" d="M250.41197-117.94222C248.97306-117.49493 250.27637-117.921268 248.91881-117.35374 268.77568-117.5689 287.4108-117.238239 305.65086-116.64428 321.42228-117.29743 320.64759-117.95923 321.00953-102.754947 320.48805-96.314739 320.7526-89.85008 320.4154-81.51592 321.11729-68.13963 320.74006-68.38477 305.98274-67.47979 287.521-67.80801 268.36479-67.7059 250.39183-68.05337 234.59329-68.3841 235.14708-67.60407 234.05118-83.40556 234.37569-89.3271 233.72814-96.59547 235.4981-101.67499 234.65082-117.01634 234.95546-117.39546 250.41197-117.94222Z"/>
<path transform="matrix(1,0,0,-1,291.6669,43.690546)" stroke-width=".75" stroke-linecap="round" stroke-linejoin="round" fill="none" stroke="#000000" d="M99.66738-116.48613C99.662929-117.22802 100.55286-117.083629 100.19577-116.91926 119.68332-116.45946 136.63414-116.792858 156.5442-117.70482 171.49787-116.43008 171.83374-117.26048 171.43518-102.76107 171.06488-94.82385 170.95238-88.84756 171.84883-82.80204 171.72045-67.11858 170.69185-67.35086 156.06803-68.25918 138.38837-67.00879 118.72469-66.898509 99.99469-68.12266 85.41383-68.06874 85.312549-68.18797 84.371768-81.60656 84.41923-88.88208 84.94891-94.873699 85.28491-102.35978 84.92787-117.89873 84.58532-117.97467 99.66738-116.48613Z"/>
<path transform="matrix(1,0,0,-1,291.6669,43.690546)" stroke-width=".75" stroke-linecap="round" stroke-linejoin="round" fill="none" stroke="#000000" d="M170.95362-.406156C192.04648-.175687 213.15566 .317215 234.63516 .409324"/>
<path transform="matrix(1,0,0,-1,291.6669,43.690546)" stroke-width=".75" stroke-linecap="round" stroke-linejoin="round" fill="none" stroke="#000000" d="M221.62755-8.276089C224.84444-4.325835 229.2429-.72761 234.11443 .406283 229.41355 .820219 224.7519 3.765698 221.83547 8.073268"/>
<path transform="matrix(1,0,0,-1,291.6669,43.690546)" stroke-width=".75" stroke-linecap="round" stroke-linejoin="round" fill="none" stroke="#000000" d="M234.68515-92.072559C213.3173-92.7531 192.66823-92.84774 171.60414-92.068958"/>
<path transform="matrix(1,0,0,-1,291.6669,43.690546)" stroke-width=".75" stroke-linecap="round" stroke-linejoin="round" fill="none" stroke="#000000" d="M184.55638-84.33946C180.8171-87.98375 176.18247-91.01878 171.99546-92.154727 177.00487-93.69064 181.31418-96.71008 183.95201-100.896579"/>
<path transform="matrix(1,0,0,-1,291.6669,43.690546)" stroke-width=".75" stroke-linecap="round" stroke-linejoin="round" fill="none" stroke="#000000" d="M101.034839-25.750462C101.20667-24.72486 99.60395-24.690842 99.70868-25.018877 119.34351-24.626187 137.16709-24.172528 155.51631-24.024399 171.81436-25.869706 171.25962-24.63273 171.96736-9.472389 171.18482-3.968881 171.01563 2.997035 170.8446 9.400454 170.89118 25.50625 170.94057 25.273316 155.27449 25.499878 137.07732 23.993172 118.64252 25.6404 99.929187 24.561705 86.30675 24.18795 85.64125 24.139519 84.56113 10.852224 84.929668 2.462958 85.68886-3.176931 85.75464-10.071097 85.12269-24.127337 84.705829-24.668602 101.034839-25.750462Z"/>
<path transform="matrix(1,0,0,-1,291.6669,43.690546)" stroke-width=".75" stroke-linecap="round" stroke-linejoin="round" fill="none" stroke="#000000" d="M249.95874-25.46414C250.13417-25.344357 250.20156-24.761069 249.30345-25.505656 267.81663-25.828608 287.67436-25.731244 305.86228-25.564015 320.97148-24.907837 319.54743-24.956501 320.3402-9.424268 321.03459-3.763544 319.43653 2.598802 320.3332 9.405815 319.6705 23.976515 319.58494 24.56833 304.9865 24.775963 286.0036 24.148587 267.79417 25.083329 249.88803 25.650027 235.16442 25.084956 233.94197 25.436909 234.89354 9.508743 234.25069 3.032435 234.2576-3.771371 235.57064-9.156114 235.65734-24.567078 235.22769-25.874146 249.95874-25.46414Z"/>
<path transform="matrix(1,0,0,-1,291.6669,43.690546)" stroke-width=".75" stroke-linecap="round" stroke-linejoin="round" fill="none" stroke="#000000" d="M249.7292-116.732799C250.00052-118.02404 250.25614-117.66186 250.5483-117.06105 269.00575-117.25684 286.56263-118.20077 305.99494-117.29022 321.02375-117.209568 320.72053-116.98518 321.52006-101.40696 320.69169-96.542247 321.46604-89.36921 320.8015-83.053028 320.68476-67.35188 319.74436-68.37725 305.28025-67.63883 286.82499-68.4203 268.64659-66.61553 249.6446-68.02194 234.93236-67.536548 233.71163-68.208209 234.38564-82.04612 234.08535-88.70561 235.51129-96.23248 233.98703-102.35792 235.10282-117.26354 234.49439-116.82383 249.7292-116.732799Z"/>
<path transform="matrix(1,0,0,-1,291.6669,43.690546)" stroke-width=".75" stroke-linecap="round" stroke-linejoin="round" fill="none" stroke="#000000" d="M99.3469-116.7014C100.45579-116.97587 101.10337-117.480258 100.17734-118.31493 119.63584-116.663417 138.49909-117.36738 156.62047-116.709369 171.44709-116.772129 171.77698-116.38104 171.15535-103.05648 171.72823-94.99805 170.70163-88.8385 171.09452-83.11226 170.88275-67.210239 171.13532-67.95225 155.78302-67.62246 137.4061-67.50975 118.07225-66.69601 100.35982-68.16918 85.93627-67.349559 85.39306-67.69963 85.91008-82.07363 85.5538-88.92609 84.78679-95.694278 85.79755-101.57746 84.86525-116.49474 86.0903-117.54502 99.3469-116.7014Z"/>
<path transform="matrix(1,0,0,-1,291.6669,43.690546)" stroke-width=".75" stroke-linecap="round" stroke-linejoin="round" fill="none" stroke="#000000" d="M171.35906 .352169C192.58089-.022196 213.71701-.218628 234.66844-.0997"/>
<path transform="matrix(1,0,0,-1,291.6669,43.690546)" stroke-width=".75" stroke-linecap="round" stroke-linejoin="round" fill="none" stroke="#000000" d="M221.77881-7.794321C225.14846-4.384769 229.03809-1.116137 233.99337-.332949 229.18517 1.010596 224.88076 3.57978 221.44295 7.998394"/>
<path transform="matrix(1,0,0,-1,291.6669,43.690546)" stroke-width=".75" stroke-linecap="round" stroke-linejoin="round" fill="none" stroke="#000000" d="M234.20908-92.32196C213.89093-92.622798 192.67511-92.63722 171.88965-92.66932"/>
<path transform="matrix(1,0,0,-1,291.6669,43.690546)" stroke-width=".75" stroke-linecap="round" stroke-linejoin="round" fill="none" stroke="#000000" d="M184.44335-84.53817C181.37406-88.29395 176.344-91.36566 171.64214-92.34178 176.31844-93.332309 180.64473-96.60896 184.58745-100.4717"/>
<path transform="matrix(1,0,0,-1,291.6669,43.690546)" stroke-width=".75" stroke-linecap="round" stroke-linejoin="round" fill="none" stroke="#000000" d="M101.32488-25.885609C100.97294-25.461226 100.77622-25.574673 99.96352-24.654873 119.20227-25.824183 137.97075-25.653416 156.48079-24.70291 171.09555-24.943934 171.97029-24.865733 170.26692-10.908753 170.94956-3.575035 171.73923 3.772482 171.65534 10.680027 170.79123 25.308585 170.32324 25.761157 155.56227 25.749009 138.44145 25.134272 118.01528 24.916317 99.45998 24.51897 85.79739 25.787398 85.90698 24.571331 84.72674 10.543118 85.94704 2.795503 85.19633-3.622924 85.27497-9.145323 86.01448-25.087225 85.47118-25.673104 101.32488-25.885609Z"/>
<path transform="matrix(1,0,0,-1,291.6669,43.690546)" stroke-width=".75" stroke-linecap="round" stroke-linejoin="round" fill="none" stroke="#000000" d="M250.0232-24.126723C250.64664-25.30525 249.63869-24.326283 250.19107-25.79716 268.3525-25.003554 286.19584-25.462138 305.9805-25.652117 319.55223-25.193076 319.76216-25.707566 319.48353-9.76705 320.93647-2.719545 319.94834 3.781297 321.0318 8.98493 321.1228 25.23449 319.7163 25.573954 306.0286 25.755114 286.61619 24.401614 269.13713 24.938679 250.3566 25.376542 235.06873 25.41428 235.6702 24.20148 234.96303 9.383376 234.7436 2.499125 234.15699-2.599724 234.08162-9.811558 234.69554-24.961844 235.34104-24.790904 250.0232-24.126723Z"/>
<path transform="matrix(1,0,0,-1,291.6669,43.690546)" stroke-width=".75" stroke-linecap="round" stroke-linejoin="round" fill="none" stroke="#000000" d="M249.07242-117.839778C248.80443-117.18105 249.48934-117.10112 248.8099-117.658649 269.20259-116.432369 286.14817-117.08163 305.25273-118.230937 320.1809-116.43488 320.6335-118.078968 321.08033-102.25497 319.75523-95.31192 320.76097-89.30122 319.9237-82.97813 320.8206-67.330318 319.80744-66.83287 306.37208-67.863498 286.6161-66.87966 268.50019-66.50376 249.5921-67.46676 235.14632-68.248859 234.6827-66.88745 235.20227-82.10187 235.11684-89.14894 234.70272-94.875377 234.58206-101.70566 234.23412-118.01075 235.3952-118.23083 249.07242-117.839778Z"/>
<path transform="matrix(1,0,0,-1,291.6669,43.690546)" stroke-width=".75" stroke-linecap="round" stroke-linejoin="round" fill="none" stroke="#000000" d="M99.31559-116.81941C101.10229-117.19253 99.63016-117.3077 99.55607-118.31165 119.236309-117.74547 137.2137-118.10576 157.17166-117.059108 170.4562-118.248729 171.0752-117.51987 170.35449-101.96156 171.73702-96.53813 171.72357-88.90389 171.42102-82.87369 170.47734-67.14823 171.35324-66.875827 156.42649-66.97433 137.50904-66.928638 118.341938-66.60133 99.586299-67.49714 85.162929-67.18028 86.01656-68.03257 85.98001-82.812038 84.752628-88.46864 85.07981-95.858928 84.83438-103.12516 84.89029-117.41937 84.62134-117.127788 99.31559-116.81941Z"/>
<path transform="matrix(1,0,0,-1,291.6669,43.690546)" stroke-width=".75" stroke-linecap="round" stroke-linejoin="round" fill="none" stroke="#000000" d="M170.97908 .302679C192.2686-.405644 213.18332 .374365 234.73058 .390993"/>
<path transform="matrix(1,0,0,-1,291.6669,43.690546)" stroke-width=".75" stroke-linecap="round" stroke-linejoin="round" fill="none" stroke="#000000" d="M221.47682-7.682805C224.97197-3.795957 229.05858-.90409 234.14302-.419744 229.00284 1.327471 224.90792 4.296456 221.66838 8.411666"/>
<path transform="matrix(1,0,0,-1,291.6669,43.690546)" stroke-width=".75" stroke-linecap="round" stroke-linejoin="round" fill="none" stroke="#000000" d="M234.4058-92.35979C213.61414-92.71502 192.72742-92.16827 171.32709-92.76136"/>
<path transform="matrix(1,0,0,-1,291.6669,43.690546)" stroke-width=".75" stroke-linecap="round" stroke-linejoin="round" fill="none" stroke="#000000" d="M184.14145-84.5448C180.99729-88.524669 176.71643-91.17592 172.02413-92.51903 176.92389-93.76988 181.05289-96.080699 183.86692-100.185848"/>
<path transform="matrix(1,0,0,-1,291.6669,43.690546)" stroke-width=".75" stroke-linecap="round" stroke-linejoin="round" fill="none" stroke="#000000" d="M100.57993-24.037117C99.543529-25.564743 100.648418-24.150549 100.04191-25.409306 118.89406-24.591376 136.95456-25.705332 156.93178-24.786087 170.56299-25.354594 170.32772-24.234133 171.50116-10.910395 171.17108-2.714931 170.46012 3.133959 171.77834 10.303642 171.96935 25.91163 171.40325 25.233054 156.36936 24.11294 137.0493 25.088198 119.701869 24.137259 100.37537 24.245335 85.75055 24.747883 84.608249 24.216519 84.64889 9.011853 85.105678 4.163363 85.1741-2.612842 85.04802-9.657961 86.329708-25.483107 86.38649-25.722779 100.57993-24.037117Z"/>
<path transform="matrix(1,0,0,-1,291.6669,43.690546)" stroke-width=".75" stroke-linecap="round" stroke-linejoin="round" fill="none" stroke="#000000" d="M250.64366-24.684447C250.60683-24.1955 249.31978-24.004536 250.27547-25.55895 269.14076-25.12107 286.6288-24.165953 305.52003-25.528056 320.82267-24.001349 319.78428-24.093598 321.33634-9.039468 319.5238-3.595979 319.6553 3.092479 320.49177 10.69214 320.17945 24.112034 320.93675 24.468232 306.2635 25.860642 286.8517 24.810782 269.04127 24.583676 249.2177 24.362837 234.61495 24.627503 234.54654 24.648598 235.04395 10.69764 234.37784 4.28055 235.42896-2.681865 235.46868-10.897663 235.49806-24.476368 235.28015-24.665156 250.64366-24.684447Z"/>
<path transform="matrix(1,0,0,-1,291.6669,43.690546)" stroke-width=".75" stroke-linecap="round" stroke-linejoin="round" fill="none" stroke="#000000" d="M249.20835-118.314388C248.8405-117.93277 250.05602-117.171527 249.99393-117.89618 268.61003-117.63556 286.44157-118.15295 304.9871-118.28127 319.68107-116.392 321.1645-117.53582 320.2816-102.70746 319.637-95.30246 320.5185-88.28516 319.7421-81.917018 320.21385-66.94522 320.4188-68.114048 306.11174-66.66939 286.05094-68.01411 267.9491-66.973499 249.14302-67.25201 233.74889-66.927089 235.1983-66.71878 235.44376-83.41526 234.50107-88.35132 233.67469-95.4676 233.84558-102.06471 233.81496-116.38296 235.15363-117.84024 249.20835-118.314388Z"/>
<path transform="matrix(1,0,0,-1,291.6669,43.690546)" stroke-width=".75" stroke-linecap="round" stroke-linejoin="round" fill="none" stroke="#000000" d="M100.94955-118.25825C99.920948-117.45833 99.35627-117.89427 101.07155-117.07391 118.31267-116.6313 137.44257-118.20254 156.45812-117.79063 171.90015-117.855609 171.25838-117.785449 170.56777-101.54437 171.6791-95.29043 171.40599-89.466487 170.3282-82.528278 171.37639-68.02384 171.0476-66.86058 155.38796-67.453 136.90546-67.1307 118.93404-67.26657 99.37976-66.6638 85.72849-67.83603 85.46372-67.52573 84.32266-83.139537 86.16031-88.1731 84.80724-95.77212 85.76417-103.24436 84.756809-118.03684 85.003627-117.87353 100.94955-118.25825Z"/>
<path transform="matrix(1,0,0,-1,291.6669,43.690546)" stroke-width=".75" stroke-linecap="round" stroke-linejoin="round" fill="none" stroke="#000000" d="M171.40099 .105532C192.00205-.029879 213.19252 .175187 234.16619 .409763"/>
<path transform="matrix(1,0,0,-1,291.6669,43.690546)" stroke-width=".75" stroke-linecap="round" stroke-linejoin="round" fill="none" stroke="#000000" d="M222.0389-7.645724C225.00749-4.000269 229.38887-.816011 234.6013 .36412 229.84917 1.059778 225.22603 4.017693 221.78826 8.344019"/>
<path transform="matrix(1,0,0,-1,291.6669,43.690546)" stroke-width=".75" stroke-linecap="round" stroke-linejoin="round" fill="none" stroke="#000000" d="M235.04254-92.42078C213.68273-92.543209 192.55568-92.570209 171.57645-92.029277"/>
<path transform="matrix(1,0,0,-1,291.6669,43.690546)" stroke-width=".75" stroke-linecap="round" stroke-linejoin="round" fill="none" stroke="#000000" d="M183.85655-83.996547C181.21385-88.72364 176.96103-91.0508 171.99466-92.795299 176.21698-93.5704 181.3162-96.06223 183.79732-100.17485"/>
<path transform="matrix(1,0,0,-1,291.6669,43.690546)" stroke-width=".75" stroke-linecap="round" stroke-linejoin="round" fill="none" stroke="#000000" d="M101.33056-24.357186C100.61214-24.817818 100.94326-25.790265 100.58725-25.39219 119.47619-24.7039 136.93025-24.890006 156.80278-25.471098 170.0901-25.40344 171.37766-24.494166 170.37494-10.08034 170.63803-4.268139 170.58339 2.940408 171.6 9.594364 170.72885 24.2168 170.83438 25.071162 155.37075 24.26213 137.75859 25.848967 119.74479 24.419384 99.84212 25.19526 86.10064 24.647208 86.2819 25.073073 84.81086 10.716569 86.173877 3.096608 84.71425-2.984216 84.53302-9.865849 85.8105-25.051203 85.51403-24.31074 101.33056-24.357186Z"/>
<path transform="matrix(1,0,0,-1,291.6669,43.690546)" stroke-width=".75" stroke-linecap="round" stroke-linejoin="round" fill="none" stroke="#000000" d="M248.981-25.32622C249.18355-24.593913 250.24129-24.003468 249.16088-25.837393 268.62416-25.70941 286.40196-24.898114 306.25996-24.473605 319.6641-25.586676 321.24894-24.338217 320.75675-10.188756 321.04713-4.172164 320.12849 2.866785 319.44755 9.598824 319.71415 25.639853 319.59419 25.03525 305.62944 25.83736 287.56239 24.445063 268.69017 25.05006 249.21117 24.545912 235.14594 24.188075 234.8808 25.688654 235.54912 10.593636 235.13636 3.337926 235.68512-4.052051 234.34098-9.83713 234.2835-25.364846 234.35608-25.104496 248.981-25.32622Z"/>
<path transform="matrix(1,0,0,-1,291.6669,43.690546)" stroke-width=".75" stroke-linecap="round" stroke-linejoin="round" fill="none" stroke="#000000" d="M250.11258-118.166828C248.86829-117.54322 248.85237-116.590389 249.52294-116.52106 269.0442-117.580608 286.75154-117.6553 305.03764-117.58372 319.7305-117.44469 319.73503-117.483928 320.54234-101.704448 321.2018-95.50885 321.52818-89.176258 320.1588-82.711048 320.30165-66.58487 321.4211-67.734477 305.81089-67.72774 286.6361-68.138988 267.65626-68.27861 248.90998-68.23914 233.75519-67.47435 234.91919-66.78342 234.67806-83.20088 234.17078-88.33365 235.17336-96.08402 234.08165-103.18836 233.691-117.9941 235.12985-116.6299 250.11258-118.166828Z"/>
<path transform="matrix(1,0,0,-1,291.6669,43.690546)" stroke-width=".75" stroke-linecap="round" stroke-linejoin="round" fill="none" stroke="#000000" d="M100.51476-117.68072C99.5026-116.46647 100.16618-117.50346 100.52417-118.13209 119.51686-116.97226 137.91788-117.65319 156.25954-117.82468 171.14429-116.551609 170.27155-116.6818 171.8645-102.75704 172.15384-96.09738 172.19414-89.16728 171.04938-81.74826 170.39098-67.8745 171.7946-66.56749 156.2719-67.387859 136.85596-67.80981 119.47136-68.325878 99.5258-67.10698 86.14557-67.25692 85.07854-66.557209 85.38485-82.332698 85.610279-89.31495 84.612689-95.08708 85.93929-102.965709 85.942378-117.71236 85.93333-117.25093 100.51476-117.68072Z"/>
<path transform="matrix(1,0,0,-1,291.6669,43.690546)" stroke-width=".75" stroke-linecap="round" stroke-linejoin="round" fill="none" stroke="#000000" d="M170.93448-.059764C191.9518 .259264 213.58621-.206828 234.30687 .441696"/>
<path transform="matrix(1,0,0,-1,291.6669,43.690546)" stroke-width=".75" stroke-linecap="round" stroke-linejoin="round" fill="none" stroke="#000000" d="M221.96619-7.716861C224.5599-3.563803 229.58396-.731673 234.5736 .2877 229.10776 .733458 224.54578 4.237638 222.1054 7.766276"/>
<path transform="matrix(1,0,0,-1,291.6669,43.690546)" stroke-width=".75" stroke-linecap="round" stroke-linejoin="round" fill="none" stroke="#000000" d="M234.67868-91.96925C213.91643-92.5672 192.53444-92.76439 171.34369-92.69408"/>
<path transform="matrix(1,0,0,-1,291.6669,43.690546)" stroke-width=".75" stroke-linecap="round" stroke-linejoin="round" fill="none" stroke="#000000" d="M184.41039-84.323787C181.5158-88.21009 176.3083-91.60995 171.7578-92.4902 176.30379-93.16948 181.11957-96.263889 184.62874-100.27099"/>
</svg>
