<svg xmlns="http://www.w3.org/2000/svg" xmlns:xlink="http://www.w3.org/1999/xlink" version="1.1" width="922.0901" height="360.48304" viewBox="0 0 922.0901 360.48304">
<defs>
<path id="font_8_1" d="M.04598999 .23632813H.35598756V-.07368469L.3959961-.06668091V.23632813H.70399478L.70899966 .2763214H.3959961V.58631899L.35598756 .58032229V.2763214H.052993776L.04598999 .23632813Z"/>
<path id="font_8_2" d="M.08999634 .32458497C.08999634 .22958374 .114990238 .13148499 .18299866 .06341553 .23699951 .009384155 .31199647-.016601563 .3880005-.016601563 .46099855-.016601563 .56900027 .010391235 .6569977 .03338623 .6569977 .03338623 .6539917 .216568 .6519928 .30760194L.37599183 .2966156V.27061463L.38198854 .265625C.43598939 .26361085 .5 .25961305 .5439911 .25660707 .57199099 .25460816 .57199099 .22257996 .57199099 .13449097 .57199099 .061416627 .56900027 .04940796 .5519867 .045394899 .5209961 .038391115 .48999024 .03538513 .45799256 .03538513 .37998963 .03538513 .30599977 .060409547 .2619934 .112472537 .20399475 .18052674 .17999268 .25260926 .17999268 .3405609 .17999268 .48339845 .23199463 .5653076 .26098634 .5942688 .3039856 .63623049 .36299134 .6502075 .42199708 .6502075 .5529938 .6502075 .59298709 .5563202 .60598757 .53034976L.6179962 .5293579 .6759949 .58628848C.6649933 .6032715 .6119995 .69921877 .46699525 .69921877 .3619995 .69921877 .25698854 .6682129 .18199158 .593277 .11199951 .5233612 .08999634 .4224701 .08999634 .32458497Z"/>
<path id="font_8_3" d="M.1349945 .6123047H.22898865C.25698854 .6123047 .27999879 .59129336 .2809906 .5662842 .28199769 .541275 .28199769 .46824647 .28199769 .41923524 .28199769 .27919007 .27799989 .13916016 .272995 .00010681152L.28599549-.0048828127 .3809967 .022125245C.37799073 .09814453 .37799073 .2962036 .37799073 .43223573 .37799073 .52127078 .37998963 .6112976 .38598634 .7003021L.3789978 .71229556 .1349945 .6392975V.6123047Z"/>
<path id="font_8_4" d="M.11299133 .24990845C.11299133 .007904053 .1519928-.09008789 .18299866-.13310242 .21099854-.17008972 .25299073-.20809937 .30099488-.21209717V-.1880951C.2809906-.18409729 .25099183-.16809082 .23399353-.1481018 .21998596-.13209534 .16499329-.05809021 .16499329 .24990845 .16499329 .4618988 .19799805 .5659027 .21998596 .6128998 .23599243 .6469116 .2689972 .6769104 .30099488 .684906V.71191409C.2599945 .7049103 .21598816 .6729126 .19099427 .63790896 .1599884 .5919037 .11299133 .4748993 .11299133 .24990845Z"/>
<path id="font_8_5" d="M.051986696 .06642151C.06199646 .047409059 .07598877 .030395508 .09199524 .01638794 .12098694-.009613037 .16099549-.016601563 .19898987-.016601563 .2559967-.016601563 .31199647 .0023956299 .35099793 .044403078 .375 .06941223 .3869934 .10343933 .3869934 .13845825 .3869934 .1634674 .37298585 .18649292 .35499574 .20449829 .34098817 .21850586 .3039856 .24052429 .27198792 .25453187 .24299622 .26654054 .19999695 .2885437 .18798828 .30055238 .17298889 .31655885 .1619873 .3285675 .1619873 .35058595 .1619873 .3725891 .16899109 .39360047 .18499756 .4086151 .19999695 .42362977 .22200012 .43164063 .24398804 .43164063 .2639923 .43164063 .2849884 .42462159 .29599 .4066162 .30599977 .39060975 .30799867 .3715973 .30899049 .35359193L.32099916 .34657289 .37599183 .38360597C.375 .40560914 .3639984 .42662049 .34799195 .44163514 .32499696 .46263124 .29299928 .46662904 .2630005 .46662904 .21398926 .46662904 .16699219 .45063783 .1309967 .4176178 .10398865 .39360047 .08999634 .35858155 .08999634 .32356263 .08999634 .29154969 .10798645 .26353456 .1309967 .2425232 .1539917 .22250366 .18399048 .2084961 .21499634 .1954956 .24099732 .18447876 .2689972 .17248535 .28799439 .1534729 .30299378 .13845825 .31399537 .11845398 .31399537 .09744263 .31399537 .079422 .30499269 .062408449 .29299928 .04940796 .27799989 .03340149 .25099183 .021392823 .22898865 .021392823 .19898987 .021392823 .17199707 .03439331 .1499939 .055404664 .1269989 .076416019 .116989139 .10644531 .114990238 .13645935L.100997928 .13745117 .051986696 .06642151Z"/>
<path id="font_8_6" d="M.085998538-.1880951V-.21209717C.13398743-.20610047 .1789856-.17208863 .20698548-.13510132 .23799134-.09210205 .27598573 .007904053 .27598573 .24990845 .27598573 .50090029 .22399903 .5919037 .19299317 .63790896 .16799927 .6729126 .1269989 .7049103 .085998538 .71191409V.684906C.117996219 .6759033 .14898682 .6469116 .16499329 .6128998 .18699646 .5659027 .22399903 .48190309 .22399903 .24990845 .22399903-.099090579 .17199707-.13209534 .1579895-.1481018 .14099121-.16809082 .10598755-.18409729 .085998538-.1880951Z"/>
<path id="font_8_10" d="M.04499817 .001953125H.5379944L.56399539 .079940799 .5589905 .08795166H.20999146C.20399475 .08795166 .19799805 .08894348 .19599915 .092941287 .19499207 .094940189 .19599915 .09794617 .19699097 .09895325 .2539978 .1569519 .30799867 .21495056 .35899354 .27496339 .394989 .31697084 .42999269 .358963 .45799256 .40496827 .48799134 .4509735 .5119934 .49998475 .5119934 .5529938 .5119934 .59399417 .49899293 .6349945 .46499635 .66400149 .43199159 .69299319 .3880005 .7080078 .34199525 .7080078 .29899598 .7080078 .2579956 .6970062 .22099304 .67900088 .17599488 .65800479 .13699341 .6279907 .102996829 .59498599L.125 .57598879C.1519928 .59599307 .17799378 .61099246 .20999146 .6259918 .23098755 .6360016 .2559967 .6399994 .2809906 .6399994 .31399537 .6399994 .34700013 .6289978 .37098695 .6069946 .40098573 .5779877 .4079895 .5369873 .4079895 .50798037 .4079895 .4429779 .38198854 .38197328 .34298707 .3259735 .31098939 .27996827 .27198792 .23796082 .23199463 .19696045 .17199707 .13494873 .10899353 .07594299 .04499817 .017944336V.001953125Z"/>
<path id="font_8_11" d="M.050994874 .049362184 .05899048 .038375856C.10998535 .0033874512 .17098999-.016601563 .23599243-.016601563 .31799317-.016601563 .397995 .008392334 .45700074 .05935669 .5039978 .10131836 .5349884 .15626526 .5349884 .21520996 .5349884 .25416566 .519989 .2911377 .48999024 .31811524 .46899415 .3360901 .44198609 .34709168 .41600038 .35508729 .3789978 .36608888 .34199525 .37109376 .30299378 .37408448V.38209535C.34999085 .39408876 .3939972 .41609193 .42900086 .44610597 .46499635 .47810365 .48199464 .52311709 .48199464 .5681305 .48199464 .60414126 .46798707 .6401367 .43899537 .6651459 .40699769 .6941376 .36099244 .70214846 .31698609 .70214846 .2849884 .70214846 .25498963 .69114688 .22599793 .67814639 .18598938 .6591339 .14698792 .63414 .11199951 .60813906L.12799073 .58613589C.1539917 .60113528 .17999268 .6151428 .20799256 .6261444 .22799683 .6331482 .24699402 .6391449 .2659912 .6391449 .2999878 .6391449 .33299256 .6321411 .35598756 .61112979 .37799073 .59213259 .3889923 .5671234 .3889923 .54011538 .3889923 .502121 .37199403 .46510316 .34098817 .43710328 .32299806 .4210968 .29899598 .40908814 .27398683 .39909364 .24198914 .38609315 .20698548 .37808229 .17298889 .37109376L.17199707 .34509278C.21398926 .34509278 .2559967 .34309388 .29699708 .3340912 .32499696 .32809449 .35299684 .31910707 .37298585 .30012513 .4059906 .26914979 .42900086 .22920227 .42900086 .18623352 .42900086 .14128113 .41299439 .095321658 .3769989 .06335449 .34599305 .036376954 .30599977 .023391724 .2639923 .023391724 .22299195 .023391724 .18499756 .041366579 .1559906 .067352298 .13798523 .08332825 .12399292 .10131836 .10998535 .121292117H.09899902L.050994874 .049362184Z"/>
<path id="font_8_7" d="M.04598999 .23046875H.70399478L.70999148 .27046205H.052993776L.04598999 .23046875Z"/>
<path id="font_8_8" d="M.033996583 .6733093 .035995485 .6533203C.037994386 .6533203 .07398987 .6443176 .09199524 .63931277 .12298584 .6313019 .125 .6222992 .125 .54229739 .125 .46427918 .12199402 .38627626 .12199402 .30825807 .12199402 .24723816 .12399292 .17323303 .12998963 .12721253 .1349945 .08821106 .1559906-.0087890629 .31399537-.0087890629 .39698792-.0087890629 .47698976 .02520752 .5469971 .07020569L.5549927 .064208988C.5549927 .048202516 .5549927 .032196046 .55599978 .016204834 .55799868 .0012054443 .57598879-.0047912599 .58799746-.0047912599 .61898806-.0047912599 .6899872 .016204834 .7409973 .032196046L.74598696 .03919983 .74198916 .05619812C.7220001 .05419922 .70399478 .048202516 .6839905 .048202516 .673996 .048202516 .6609955 .050201417 .6539917 .0592041 .6389923 .07620239 .6359863 .15222168 .6359863 .20223999 .6359863 .3642578 .6369934 .5733032 .6519928 .68733218L.6459961 .69433596 .55799868 .659317C.55599978 .47727967 .55400088 .2942505 .55400088 .11122131 .5 .079208377 .43998719 .052200319 .37799073 .052200319 .24598694 .052200319 .22399903 .13922119 .21598816 .16522217 .20599365 .19923401 .20199585 .23423767 .20199585 .26924134L.20999146 .54229739C.20999146 .55929568 .21598816 .6603241 .21798706 .67433169L.21099854 .6803131H.041992189L.033996583 .6733093Z"/>
<path id="font_8_9" d="M.022994996 .6513672C.036987306 .649353 .049987794 .6463623 .06298828 .6433563 .07199097 .6413574 .07998657 .6353607 .085998538 .62835696 .09599304 .61834719 .102996829 .60635378 .10899353 .5943451L.2579956 .29930116C.2579956 .19927979 .2579956 .0982666 .25498963-.0017547608L.2659912-.0107421879 .35598756 .018249512 .34700013 .30630494C.42999269 .4343109 .5039978 .5303345 .61499026 .675354L.61099246 .6933594 .526001 .6763611C.48999024 .619339 .4059906 .47431947 .397995 .46032716 .3849945 .4373169 .34199525 .36730958 .33898927 .3623047 .33599855 .3572998 .33198548 .353302 .32798768 .353302 .32199098 .353302 .31698609 .3592987 .31599427 .36131288L.1749878 .6863556H.02999878L.022994996 .67936709V.6513672Z"/>
<path id="font_8_12" d="M.051986696 .6781769 .052993776 .6591797C.07299805 .65216067 .10899353 .6411438 .11299133 .6401367 .12298584 .6361389 .125 .6251221 .12599182 .6161041 .1309967 .53297427 .13198853 .44985963 .13198853 .36676026 .13198853 .24482727 .13198853 .11590576 .12199402 .0029907227L.12799073-.0020141602 .21998596 .025970459C.21699524 .051956178 .21499634 .10292053 .21499634 .1798706V.33377076C.21499634 .34075929 .22099304 .34576417 .22799683 .34576417H.57099917C.5799866 .34576417 .58299258 .33876039 .58299258 .33377076 .58299258 .23683167 .5799866 .11790466 .5779877 .020980835L.58898928 0 .73799136 .0078125 .74398806 .013809204 .7429962 .031799318C.72499087 .03981018 .66600039 .03981018 .66600039 .07879639 .66600039 .09979248 .6619873 .24076844 .6619873 .32176209 .6619873 .5129547 .66999819 .64515689 .6729889 .6841736L.66799929 .6901703 .5799866 .673172C.5799866 .58706668 .58299258 .48291017 .58299258 .3967743 .58299258 .39076234 .58200076 .38476563 .57099917 .38476563H.22499085C.21499634 .38476563 .21299744 .3917694 .21299744 .3967743 .21299744 .4618683 .21699524 .54600527 .21899414 .61109927 .21998596 .63414 .22200012 .6581726 .22599793 .6801758L.22099304 .6851654H.05899048L.051986696 .6781769Z"/>
</defs>
<path transform="matrix(1,0,0,-1,291.6669,40.21698)" d="M-32.51954 32.85683C46.27184 33.313234 125.45174 33.244649 204.20238 32.534788 204.66481 3.398712 204.55661-26.500685 204.83699-56.77692 317.15309-56.666494 429.776-57.122835 541.8639-57.035608 542.4178-142.21955 542.03109-227.84653 542.31796-312.7794 350.83119-313.1804 159.20703-313.1932-32.694837-313.28846-32.326208-197.74546-32.493124-82.07958-32.51954 32.85683Z" fill="#e0e0e0"/>
<path transform="matrix(1,0,0,-1,291.6669,40.21698)" stroke-width=".75" stroke-linecap="round" stroke-dasharray="4.5,4.5" stroke-linejoin="round" fill="none" stroke="#000000" d="M-32.36407 32.796686C46.388437 33.203695 125.80973 33.018465 204.11698 32.667127 204.14421 2.851279 204.15254-26.829493 204.36962-57.054159 316.76203-57.020349 429.76387-56.47603 542.1926-56.486528 541.92648-142.42836 541.93838-227.71756 541.7337-313.08039 350.88877-312.73078 158.48851-313.33836-32.37893-312.80558-32.71028-197.33792-32.21223-82.69787-32.36407 32.796686Z"/>
<use data-text="+" xlink:href="#font_8_1" transform="matrix(37.185197,0,0,-37.18505,277.6274,49.737764)"/>
<use data-text="G" xlink:href="#font_8_2" transform="matrix(21.519362,0,0,-21.519398,135.64244,45.598237)"/>
<use data-text="1" xlink:href="#font_8_3" transform="matrix(16.438399,0,0,-16.438426,152.1097,49.89923)"/>
<use data-text="(" xlink:href="#font_8_4" transform="matrix(21.519362,0,0,-21.519398,162.35228,45.598237)"/>
<use data-text="s" xlink:href="#font_8_5" transform="matrix(21.519362,0,0,-21.519398,171.8974,45.598237)"/>
<use data-text=")" xlink:href="#font_8_6" transform="matrix(21.519362,0,0,-21.519398,182.88434,45.598237)"/>
<use data-text="G" xlink:href="#font_8_2" transform="matrix(21.519362,0,0,-21.519398,563.7217,45.598237)"/>
<use data-text="2" xlink:href="#font_8_10" transform="matrix(16.438399,0,0,-16.438426,580.18899,49.833436)"/>
<use data-text="(" xlink:href="#font_8_4" transform="matrix(21.519362,0,0,-21.519398,590.4315,45.598237)"/>
<use data-text="s" xlink:href="#font_8_5" transform="matrix(21.519362,0,0,-21.519398,599.9767,45.598237)"/>
<use data-text=")" xlink:href="#font_8_6" transform="matrix(21.519362,0,0,-21.519398,610.96359,45.598237)"/>
<use data-text="G" xlink:href="#font_8_2" transform="matrix(21.519362,0,0,-21.519398,713.0984,45.598237)"/>
<use data-text="3" xlink:href="#font_8_11" transform="matrix(16.438399,0,0,-16.438426,729.56558,49.734804)"/>
<use data-text="(" xlink:href="#font_8_4" transform="matrix(21.519362,0,0,-21.519398,739.8082,45.598237)"/>
<use data-text="s" xlink:href="#font_8_5" transform="matrix(21.519362,0,0,-21.519398,749.3534,45.598237)"/>
<use data-text=")" xlink:href="#font_8_6" transform="matrix(21.519362,0,0,-21.519398,760.34036,45.598237)"/>
<path transform="matrix(1,0,0,-1,291.6669,40.21698)" stroke-width=".75" stroke-linecap="round" stroke-linejoin="round" fill="none" stroke="#000000" d="M-156.88765-24.207938C-155.26766-24.484843-155.43334-24.721457-155.4109-24.56559-138.06966-24.769879-119.097858-25.366713-101.119518-24.67259-85.86056-25.727997-84.77248-25.134436-86.33319-10.343903-84.59427-3.379746-84.84325 2.799901-85.20004 10.023949-84.630779 24.27797-86.1556 25.46878-99.703357 25.379174-119.13376 24.980002-138.06034 24.059247-155.6342 24.552783-171.30767 25.095789-171.50429 24.832398-171.22904 10.272993-170.48723 4.261085-171.49497-4.000719-170.53842-9.744951-170.59954-25.45205-170.75989-24.650609-156.88765-24.207938Z"/>
<path transform="matrix(1,0,0,-1,291.6669,40.21698)" stroke-width=".75" stroke-linecap="round" stroke-linejoin="round" fill="none" stroke="#000000" d="M271.62748-24.76855C272.5427-25.184617 271.30284-25.561137 272.3938-25.840794 290.21977-24.887585 308.20097-24.876097 326.72456-25.629063 342.31333-24.90829 342.47175-24.707644 341.77735-10.103826 341.7412-3.354628 343.1348 4.187269 341.75486 9.065687 343.14469 25.235808 342.80256 24.816599 328.1207 24.795485 309.3469 25.881823 289.673 24.374415 272.00917 24.779316 256.21635 24.068692 256.31886 24.353058 257.54496 10.521498 257.81599 4.158952 256.63453-3.481385 256.399-9.855403 257.72257-24.408833 257.12419-25.059929 271.62748-24.76855Z"/>
<path transform="matrix(1,0,0,-1,291.6669,40.21698)" stroke-width=".75" stroke-linecap="round" stroke-linejoin="round" fill="none" stroke="#000000" d="M422.2591-24.373269C421.6353-24.93828 420.69093-24.210312 420.6812-24.893092 439.92124-25.151034 459.11885-24.812354 476.5748-25.199042 491.4156-25.587639 492.07759-24.46763 491.76414-10.655232 491.92515-3.069947 492.94419 3.4505 491.47059 10.729064 491.16178 24.992312 491.3751 25.053421 476.3394 25.440487 459.43974 25.074219 439.75648 25.70413 420.56556 24.419611 405.4781 24.713698 405.7437 24.885956 405.7956 10.314096 405.52186 4.288073 406.7916-3.142029 405.6837-10.489418 406.89106-25.379168 405.84446-24.378293 422.2591-24.373269Z"/>
<path transform="matrix(1,0,0,-1,291.6669,40.21698)" stroke-width=".75" stroke-linecap="round" stroke-linejoin="round" fill="none" stroke="#000000" d="M22.112555-.399347C21.698296 11.916482 11.631711 20.946024-.868923 21.379979-11.863965 22.298926-22.03524 11.231008-20.955838-.305671-21.38824-12.315161-11.559775-22.327307-.337135-21.293503 12.299739-21.521309 20.836009-11.521359 22.112555-.399347Z"/>
<path transform="matrix(1,0,0,-1,291.6669,40.21698)" stroke-width=".75" stroke-linecap="round" stroke-linejoin="round" fill="none" stroke="#000000" d="M-234.55243 .216427C-213.45847-.107211-192.59595-.143794-171.69841 .012892"/>
<path transform="matrix(1,0,0,-1,291.6669,40.21698)" stroke-width=".75" stroke-linecap="round" stroke-linejoin="round" fill="none" stroke="#000000" d="M-183.6791-8.175032C-180.97606-3.641858-176.65169-1.113707-171.44902-.316118-176.28221 1.295856-180.45806 4.076827-184.34398 8.220442"/>
<path transform="matrix(1,0,0,-1,291.6669,40.21698)" stroke-width=".75" stroke-linecap="round" stroke-linejoin="round" fill="none" stroke="#000000" d="M-85.628948 .042757C-64.23358 .308768-43.063325 .048163-22.129153 .156958"/>
<path transform="matrix(1,0,0,-1,291.6669,40.21698)" stroke-width=".75" stroke-linecap="round" stroke-linejoin="round" fill="none" stroke="#000000" d="M-34.577154-8.032167C-31.30076-4.443984-27.356516-1.576381-21.932412-.095402-26.877669 1.370131-31.083659 3.70816-34.507646 7.993441"/>
<path transform="matrix(1,0,0,-1,291.6669,40.21698)" stroke-width=".75" stroke-linecap="round" stroke-linejoin="round" fill="none" stroke="#000000" d="M342.60783 .041244C364.17344 .291948 384.59654 .157497 406.31483-.245342"/>
<path transform="matrix(1,0,0,-1,291.6669,40.21698)" stroke-width=".75" stroke-linecap="round" stroke-linejoin="round" fill="none" stroke="#000000" d="M393.0712-8.29358C396.46965-4.272459 401.3302-1.454034 406.18666 .267552 400.8155 1.206464 396.29127 3.660861 393.76286 8.135252"/>
<path transform="matrix(1,0,0,-1,291.6669,40.21698)" stroke-width=".75" stroke-linecap="round" stroke-linejoin="round" fill="none" stroke="#000000" d="M492.4321 .231097C520.5576 .368158 548.65597 .09644 577.37069 .418739"/>
<path transform="matrix(1,0,0,-1,291.6669,40.21698)" stroke-width=".75" stroke-linecap="round" stroke-linejoin="round" fill="none" stroke="#000000" d="M564.1281-8.420272C567.96609-3.909527 571.75497-.95817 576.70138-.341392 571.975 1.166119 567.37478 3.898555 564.273 8.080217"/>
<path transform="matrix(1,0,0,-1,291.6669,40.21698)" stroke-width=".75" stroke-linecap="round" stroke-linejoin="round" fill="none" stroke="#000000" d="M534.95748 .049772C534.59548-61.704736 534.7614-123.14062 534.5804-184.90825 495.4215-184.9522 456.48817-185.08968 416.84126-185.08502"/>
<path transform="matrix(1,0,0,-1,291.6669,40.21698)" stroke-width=".75" stroke-linecap="round" stroke-linejoin="round" fill="none" stroke="#000000" d="M429.85304-176.96045C427.02998-180.48517 422.25135-183.89073 416.7159-184.43666 421.90049-185.79709 426.30424-189.25389 429.44129-192.6329"/>
<path transform="matrix(1,0,0,-1,291.6669,40.21698)" stroke-width=".75" stroke-linecap="round" stroke-linejoin="round" fill="none" stroke="#000000" d="M-156.65209-24.880656C-155.55202-24.885973-155.66658-24.046-155.061-23.976252-137.45409-25.038952-119.46276-25.346125-100.233-25.793368-86.219959-25.24124-85.87238-24.534527-86.02529-10.257094-84.59273-2.625552-84.691959 2.913149-86.26614 8.976723-85.107349 24.857504-85.62152 25.189089-101.10985 24.248658-118.092189 25.472346-136.81884 24.889603-155.74738 24.50053-171.44268 24.75788-171.91744 25.103634-171.98267 10.148122-170.1436 4.252729-170.7737-4.20352-170.93703-9.945589-171.99373-24.409039-171.03347-24.69567-156.65209-24.880656Z"/>
<path transform="matrix(1,0,0,-1,291.6669,40.21698)" stroke-width=".75" stroke-linecap="round" stroke-linejoin="round" fill="none" stroke="#000000" d="M273.01438-24.801337C272.4834-25.35164 271.50746-24.83041 271.39363-24.061453 290.79563-25.190617 308.50959-24.06208 328.17747-25.806777 341.8473-24.988944 342.08757-24.266993 343.55036-9.74014 342.7856-2.749728 343.03279 4.050245 342.77348 10.86855 342.3864 25.28039 342.57249 25.304112 327.22077 25.54347 309.08195 25.109862 291.17955 25.562138 271.32847 25.06786 257.0402 25.127837 256.7989 24.324566 257.72166 9.10344 256.45796 3.978844 257.33274-3.344743 256.9749-9.901714 256.4199-24.331032 256.4665-25.007508 273.01438-24.801337Z"/>
<path transform="matrix(1,0,0,-1,291.6669,40.21698)" stroke-width=".75" stroke-linecap="round" stroke-linejoin="round" fill="none" stroke="#000000" d="M421.23533-25.89213C421.47908-25.745121 421.69023-24.694756 420.86073-24.421914 439.68898-24.243599 458.3246-24.541028 477.33125-24.037983 491.18846-24.75871 491.42137-25.059662 491.5856-9.819966 492.75413-3.246715 491.4974 3.499788 491.3615 9.463992 492.8729 25.019396 492.29447 25.200024 476.54444 24.671647 457.5368 24.501942 440.6667 25.64138 422.0303 25.784827 405.7142 24.298672 406.98698 24.356217 406.38563 9.7621 407.1135 3.147031 405.60066-3.137932 405.47523-9.410361 406.72679-25.714072 406.8955-25.175692 421.23533-25.89213Z"/>
<path transform="matrix(1,0,0,-1,291.6669,40.21698)" stroke-width=".75" stroke-linecap="round" stroke-linejoin="round" fill="none" stroke="#000000" d="M21.598423-.726649C21.996634 12.840586 12.375726 21.208468-.09472 22.474188-11.516362 22.024767-22.613217 11.726775-21.325884-.041934-22.473742-11.438852-11.445371-20.765278 .81607-22.086333 11.03954-22.115073 20.918967-12.14112 21.598423-.726649Z"/>
<path transform="matrix(1,0,0,-1,291.6669,40.21698)" stroke-width=".75" stroke-linecap="round" stroke-linejoin="round" fill="none" stroke="#000000" d="M-235.06763-.186301C-213.81632-.39438-192.54084 .077645-171.38738 .070334"/>
<path transform="matrix(1,0,0,-1,291.6669,40.21698)" stroke-width=".75" stroke-linecap="round" stroke-linejoin="round" fill="none" stroke="#000000" d="M-184.08196-7.968999C-180.7979-4.063214-176.48693-1.150455-171.60977 .441981-176.54747 1.035619-180.85773 3.754241-184.10141 7.833369"/>
<path transform="matrix(1,0,0,-1,291.6669,40.21698)" stroke-width=".75" stroke-linecap="round" stroke-linejoin="round" fill="none" stroke="#000000" d="M-85.8056 .176772C-63.953176-.211219-43.158975-.235501-22.166043-.314807"/>
<path transform="matrix(1,0,0,-1,291.6669,40.21698)" stroke-width=".75" stroke-linecap="round" stroke-linejoin="round" fill="none" stroke="#000000" d="M-34.486787-7.672095C-31.099926-4.219312-27.067358-1.063324-22.275572-.39194-27.402325 1.380498-31.696476 3.731186-34.251054 7.839054"/>
<path transform="matrix(1,0,0,-1,291.6669,40.21698)" stroke-width=".75" stroke-linecap="round" stroke-linejoin="round" fill="none" stroke="#000000" d="M342.7216 .05663C364.2228-.373136 384.7836 .185891 406.29685 .059173"/>
<path transform="matrix(1,0,0,-1,291.6669,40.21698)" stroke-width=".75" stroke-linecap="round" stroke-linejoin="round" fill="none" stroke="#000000" d="M393.6194-7.762491C396.1631-4.161857 400.6648-.903641 405.63124-.23566 401.37425 .802297 396.96098 4.31455 393.64115 8.429292"/>
<path transform="matrix(1,0,0,-1,291.6669,40.21698)" stroke-width=".75" stroke-linecap="round" stroke-linejoin="round" fill="none" stroke="#000000" d="M491.90385-.121179C520.6016-.284307 548.903 .189188 577.41287-.257947"/>
<path transform="matrix(1,0,0,-1,291.6669,40.21698)" stroke-width=".75" stroke-linecap="round" stroke-linejoin="round" fill="none" stroke="#000000" d="M564.49459-8.118125C567.2237-3.973607 571.7146-1.499965 576.93569 .305197 572.39 1.252065 567.9238 3.818872 564.2526 7.91742"/>
<path transform="matrix(1,0,0,-1,291.6669,40.21698)" stroke-width=".75" stroke-linecap="round" stroke-linejoin="round" fill="none" stroke="#000000" d="M534.9312-.28694C534.34548-61.604085 534.71249-123.452358 534.99179-184.94783 495.67863-185.15583 455.90577-184.99011 417.58433-184.78849"/>
<path transform="matrix(1,0,0,-1,291.6669,40.21698)" stroke-width=".75" stroke-linecap="round" stroke-linejoin="round" fill="none" stroke="#000000" d="M429.99345-176.48221C426.36207-181.21088 422.0495-183.85707 416.74784-185.02068 422.38133-185.97455 426.90144-188.43973 429.41087-192.68346"/>
<path transform="matrix(1,0,0,-1,291.6669,40.21698)" stroke-width=".75" stroke-linecap="round" stroke-linejoin="round" fill="none" stroke="#000000" d="M-156.2242-24.378558C-155.18453-24.955792-156.0907-25.288146-156.22629-24.19153-136.62368-25.353463-119.789829-24.717589-99.53042-23.985007-86.04309-25.368744-85.48926-24.58271-84.68553-10.432143-85.33425-4.08849-84.79011 3.266779-85.10995 10.238285-84.61183 25.622637-85.101039 24.835486-100.48903 24.861636-119.005107 24.708353-136.96486 25.212536-155.83365 25.444575-171.99784 24.642104-170.21746 25.363045-171.92853 10.866744-171.48058 2.738912-171.35811-2.930523-171.69248-9.688767-171.61286-25.518366-170.41132-24.40051-156.2242-24.378558Z"/>
<path transform="matrix(1,0,0,-1,291.6669,40.21698)" stroke-width=".75" stroke-linecap="round" stroke-linejoin="round" fill="none" stroke="#000000" d="M272.01356-25.411782C272.11976-24.953932 272.1689-25.731129 271.3206-24.767186 290.5713-25.917824 308.80427-25.201838 327.99473-23.983347 342.62043-24.181864 343.42304-25.293314 341.8384-9.75589 342.54-3.558301 343.3154 3.189411 342.13087 9.250673 342.07603 24.002469 342.16325 25.552929 327.2264 24.02779 308.74943 24.991234 291.2513 24.496178 271.8088 25.28328 257.45735 25.428109 257.5561 24.375945 257.1545 9.866915 257.31797 3.308914 256.2396-2.620308 256.80198-10.036917 257.70549-25.78109 257.17897-24.017846 272.01356-25.411782Z"/>
<path transform="matrix(1,0,0,-1,291.6669,40.21698)" stroke-width=".75" stroke-linecap="round" stroke-linejoin="round" fill="none" stroke="#000000" d="M422.31169-24.881575C421.89036-25.226784 421.75846-24.825312 421.12919-25.585066 439.2231-25.166123 458.79576-25.342904 477.55693-25.672713 492.55339-24.372378 491.5277-24.33699 492.23466-10.34695 492.2212-3.348151 491.2531 2.718386 492.8041 10.640197 492.53236 24.147322 492.18278 25.606293 477.8353 24.498425 459.10685 25.86663 439.2601 24.10877 421.53703 24.884188 407.22563 24.25009 405.93769 24.377308 407.37043 9.657842 406.9615 2.938252 406.0766-2.538371 406.45896-10.575282 407.24275-24.5858 406.36985-24.077412 422.31169-24.881575Z"/>
<path transform="matrix(1,0,0,-1,291.6669,40.21698)" stroke-width=".75" stroke-linecap="round" stroke-linejoin="round" fill="none" stroke="#000000" d="M22.440983-.472111C21.47608 11.716001 11.735031 22.252491-.852958 21.453-11.823495 21.996253-21.934855 12.764798-21.874644 .346813-21.957137-12.796605-12.696991-21.78283-.807738-22.165942 12.522185-22.440859 21.597527-11.655866 22.440983-.472111Z"/>
<path transform="matrix(1,0,0,-1,291.6669,40.21698)" stroke-width=".75" stroke-linecap="round" stroke-linejoin="round" fill="none" stroke="#000000" d="M-234.77825-.31826C-213.23267 .022176-192.43656-.400243-171.40613-.103197"/>
<path transform="matrix(1,0,0,-1,291.6669,40.21698)" stroke-width=".75" stroke-linecap="round" stroke-linejoin="round" fill="none" stroke="#000000" d="M-183.70864-7.962218C-180.67557-3.618493-176.52845-.925777-171.80782-.322221-176.75214 .890453-180.97995 3.851687-183.90966 8.110295"/>
<path transform="matrix(1,0,0,-1,291.6669,40.21698)" stroke-width=".75" stroke-linecap="round" stroke-linejoin="round" fill="none" stroke="#000000" d="M-85.045879-.293741C-63.988286 .007124-42.740736 .34813-22.338589-.422487"/>
<path transform="matrix(1,0,0,-1,291.6669,40.21698)" stroke-width=".75" stroke-linecap="round" stroke-linejoin="round" fill="none" stroke="#000000" d="M-34.257017-7.964611C-31.515034-4.353138-26.762042-1.170938-22.092305 .088088-27.024703 1.56233-31.221434 3.612313-34.301595 8.118327"/>
<path transform="matrix(1,0,0,-1,291.6669,40.21698)" stroke-width=".75" stroke-linecap="round" stroke-linejoin="round" fill="none" stroke="#000000" d="M342.32356 .250469C363.51799-.056181 384.9203-.386986 406.24275-.045033"/>
<path transform="matrix(1,0,0,-1,291.6669,40.21698)" stroke-width=".75" stroke-linecap="round" stroke-linejoin="round" fill="none" stroke="#000000" d="M393.52729-8.143774C396.79075-4.082386 401.16868-.901653 405.82225 .185769 401.27549 1.1789 396.57664 4.234883 393.39817 7.9303"/>
<path transform="matrix(1,0,0,-1,291.6669,40.21698)" stroke-width=".75" stroke-linecap="round" stroke-linejoin="round" fill="none" stroke="#000000" d="M491.86985 .447993C520.65817-.395378 548.54196 .286629 576.7499-.435981"/>
<path transform="matrix(1,0,0,-1,291.6669,40.21698)" stroke-width=".75" stroke-linecap="round" stroke-linejoin="round" fill="none" stroke="#000000" d="M564.84158-8.247765C567.254-4.432203 571.8634-1.070954 577.34329 .231264 571.84707 .923502 567.425 3.986978 564.16006 7.675563"/>
<path transform="matrix(1,0,0,-1,291.6669,40.21698)" stroke-width=".75" stroke-linecap="round" stroke-linejoin="round" fill="none" stroke="#000000" d="M534.64547 .281678C534.13497-61.420358 534.3473-123.20669 534.37826-184.7386 495.6087-184.55078 455.92344-184.72966 417.1174-185.05661"/>
<path transform="matrix(1,0,0,-1,291.6669,40.21698)" stroke-width=".75" stroke-linecap="round" stroke-linejoin="round" fill="none" stroke="#000000" d="M430.21159-177.1457C426.98457-181.06955 422.59846-183.80786 416.86814-185.01609 422.61399-185.88729 426.8127-188.85912 429.66065-192.67964"/>
<path transform="matrix(1,0,0,-1,291.6669,40.21698)" stroke-width=".75" stroke-linecap="round" stroke-linejoin="round" fill="none" stroke="#000000" d="M-155.78675-25.770155C-156.13997-25.57055-155.45455-25.644492-155.62314-25.846964-138.15816-24.269209-118.599628-23.984282-101.15417-24.945166-85.15314-25.064974-85.5385-24.858006-84.59548-9.44313-85.922809-2.94629-85.83044 2.595224-85.851909 9.36286-84.6226 25.257138-85.63939 25.70916-100.84492 24.167473-118.31469 24.086876-137.49889 25.258437-156.75606 24.608397-171.63323 25.777712-171.313 24.438715-171.64466 10.918345-170.10326 2.811607-171.15366-3.764103-171.63372-10.748868-171.66118-25.034689-171.36119-24.29327-155.78675-25.770155Z"/>
<path transform="matrix(1,0,0,-1,291.6669,40.21698)" stroke-width=".75" stroke-linecap="round" stroke-linejoin="round" fill="none" stroke="#000000" d="M272.49473-24.84359C271.41865-24.100855 271.68983-25.681363 271.69825-25.15391 290.1045-24.144425 309.30717-25.364619 327.0017-25.552783 342.623-24.907755 342.58369-25.614895 342.5765-9.865983 341.87406-2.728487 343.53544 3.553121 341.89799 9.940683 343.58158 25.161149 342.9469 24.990048 326.8348 24.980692 308.84223 25.71884 289.8886 24.071955 272.9237 24.651314 256.61973 24.434105 256.09504 24.276576 256.22953 10.707523 257.70729 2.997637 256.41517-2.953644 257.38706-9.668701 256.66584-24.676854 257.2763-24.42893 272.49473-24.84359Z"/>
<path transform="matrix(1,0,0,-1,291.6669,40.21698)" stroke-width=".75" stroke-linecap="round" stroke-linejoin="round" fill="none" stroke="#000000" d="M421.16215-24.66439C420.92033-25.161047 420.59254-24.429976 421.4447-25.543692 440.56965-25.37635 457.83366-24.179997 477.31663-24.58616 492.99028-25.118985 491.15797-25.187302 491.53007-9.987858 491.88456-3.616499 491.86216 4.273444 492.95509 10.365961 491.1554 24.544777 492.2985 25.214442 476.92848 24.014229 457.74244 24.001017 439.0154 25.21535 420.615 24.461123 406.75883 24.45405 405.55885 25.667315 406.46357 9.546425 405.60408 2.662888 407.06513-2.700705 406.4007-9.576167 407.37287-25.177498 406.9481-25.638508 421.16215-24.66439Z"/>
<path transform="matrix(1,0,0,-1,291.6669,40.21698)" stroke-width=".75" stroke-linecap="round" stroke-linejoin="round" fill="none" stroke="#000000" d="M20.723429 .492226C22.374823 11.498003 12.710986 21.097987-.713569 21.419817-12.492771 20.845763-21.518279 11.631608-21.923684-.081087-20.775794-11.172254-12.781128-21.865229-.316004-22.460459 12.276825-21.016314 21.640986-11.953655 20.723429 .492226Z"/>
<path transform="matrix(1,0,0,-1,291.6669,40.21698)" stroke-width=".75" stroke-linecap="round" stroke-linejoin="round" fill="none" stroke="#000000" d="M-235.04645 .348976C-213.755-.407324-192.81528 .22566-171.783-.386456"/>
<path transform="matrix(1,0,0,-1,291.6669,40.21698)" stroke-width=".75" stroke-linecap="round" stroke-linejoin="round" fill="none" stroke="#000000" d="M-184.29132-8.044033C-181.09043-3.896779-176.79068-.907058-171.77144 .159687-176.36933 1.578694-180.63063 4.083626-183.8784 8.28802"/>
<path transform="matrix(1,0,0,-1,291.6669,40.21698)" stroke-width=".75" stroke-linecap="round" stroke-linejoin="round" fill="none" stroke="#000000" d="M-85.05306 .393227C-64.50148-.205161-42.88967-.329243-21.809323-.259217"/>
<path transform="matrix(1,0,0,-1,291.6669,40.21698)" stroke-width=".75" stroke-linecap="round" stroke-linejoin="round" fill="none" stroke="#000000" d="M-34.74614-8.223033C-31.313113-4.196108-27.47159-.955192-22.187439 .351892-27.14214 .745107-31.523888 3.814962-34.386327 8.490055"/>
<path transform="matrix(1,0,0,-1,291.6669,40.21698)" stroke-width=".75" stroke-linecap="round" stroke-linejoin="round" fill="none" stroke="#000000" d="M343.10505-.359048C363.92118-.08822 385.20509 .436354 406.49787 .116589"/>
<path transform="matrix(1,0,0,-1,291.6669,40.21698)" stroke-width=".75" stroke-linecap="round" stroke-linejoin="round" fill="none" stroke="#000000" d="M393.83335-8.290204C396.1923-3.736859 400.80076-1.49495 405.8884 .390982 401.43177 1.254345 396.85145 4.207276 393.3949 7.996767"/>
<path transform="matrix(1,0,0,-1,291.6669,40.21698)" stroke-width=".75" stroke-linecap="round" stroke-linejoin="round" fill="none" stroke="#000000" d="M492.3602 .171442C520.10696 .107061 548.3447-.401115 577.38418-.060691"/>
<path transform="matrix(1,0,0,-1,291.6669,40.21698)" stroke-width=".75" stroke-linecap="round" stroke-linejoin="round" fill="none" stroke="#000000" d="M564.33438-8.279285C567.5294-4.161378 572.2011-1.148962 576.64199 .172912 572.1791 .812068 567.41067 4.232237 564.4805 7.848493"/>
<path transform="matrix(1,0,0,-1,291.6669,40.21698)" stroke-width=".75" stroke-linecap="round" stroke-linejoin="round" fill="none" stroke="#000000" d="M534.247 .214965C534.1192-61.18491 534.7584-123.51087 534.9302-184.96756 495.72145-185.14574 455.8742-184.8077 416.89146-184.37505"/>
<path transform="matrix(1,0,0,-1,291.6669,40.21698)" stroke-width=".75" stroke-linecap="round" stroke-linejoin="round" fill="none" stroke="#000000" d="M429.8887-176.31381C426.47267-180.54312 422.05766-183.63195 417.3323-184.52204 422.26725-186.04254 427.03138-189.13454 429.49345-192.95464"/>
<path transform="matrix(1,0,0,-1,291.6669,40.21698)" stroke-width=".75" stroke-linecap="round" stroke-linejoin="round" fill="none" stroke="#000000" d="M-155.96172-25.39165C-156.2565-24.260529-156.94036-25.09248-155.81778-24.93055-137.12729-25.352498-119.49534-25.002507-99.47323-24.817069-84.97718-25.125296-86.34175-24.474856-84.88452-9.839305-86.40141-2.861767-84.58874 2.968859-85.10856 10.321376-86.32875 25.473776-85.12185 24.976382-99.82399 25.298983-117.99455 25.15899-138.11228 25.056387-156.21245 24.957306-171.15004 25.150856-171.7676 25.5505-170.55548 10.085262-171.0889 3.607027-170.88545-3.121657-171.92913-9.242312-171.73777-25.68076-171.55678-24.545588-155.96172-25.39165Z"/>
<path transform="matrix(1,0,0,-1,291.6669,40.21698)" stroke-width=".75" stroke-linecap="round" stroke-linejoin="round" fill="none" stroke="#000000" d="M273.00276-25.86111C272.64317-24.148638 271.8499-25.272366 272.45976-24.132609 290.65983-24.72738 308.3662-25.031844 328.36369-24.446372 342.52598-24.862702 342.70896-24.091105 342.0319-10.775133 343.21617-2.538194 342.79209 4.253167 343.3678 9.032948 341.7835 25.767853 341.79557 24.079739 327.2545 25.129427 309.88835 25.349583 291.24989 25.374363 271.80079 25.19344 256.17304 24.442229 257.40089 24.638813 257.87748 9.72784 256.87916 3.927255 256.20817-3.487666 256.34196-10.037019 256.49183-25.803967 257.19374-24.302226 273.00276-25.86111Z"/>
<path transform="matrix(1,0,0,-1,291.6669,40.21698)" stroke-width=".75" stroke-linecap="round" stroke-linejoin="round" fill="none" stroke="#000000" d="M421.9232-24.011948C420.8993-25.039282 420.56278-25.347638 421.41148-25.547781 439.63517-24.918402 457.5996-25.464594 477.06083-24.464129 492.51353-24.548434 492.8377-25.552327 492.4545-9.64278 491.9328-2.564221 492.71614 4.15112 492.88917 10.359228 491.9391 25.534592 492.03434 25.330594 477.73606 24.618559 459.4469 25.432139 440.69596 24.854023 421.3229 24.031014 406.92787 25.784707 406.40263 25.43416 406.98994 10.553705 405.82536 2.489468 406.5779-3.207372 406.82533-10.328156 406.62458-25.430598 406.0486-24.123463 421.9232-24.011948Z"/>
<path transform="matrix(1,0,0,-1,291.6669,40.21698)" stroke-width=".75" stroke-linecap="round" stroke-linejoin="round" fill="none" stroke="#000000" d="M21.51939-.415861C22.033076 12.674627 12.064551 22.01302-.799719 22.480294-12.226146 20.882718-22.506619 11.148023-22.229384-.271035-21.127816-11.71202-11.561033-20.982129-.444694-21.964404 11.842284-21.775658 21.12381-12.480806 21.51939-.415861Z"/>
<path transform="matrix(1,0,0,-1,291.6669,40.21698)" stroke-width=".75" stroke-linecap="round" stroke-linejoin="round" fill="none" stroke="#000000" d="M-234.44127-.290909C-213.24808 .429504-192.47856-.063885-171.12419 .297416"/>
<path transform="matrix(1,0,0,-1,291.6669,40.21698)" stroke-width=".75" stroke-linecap="round" stroke-linejoin="round" fill="none" stroke="#000000" d="M-183.73644-8.175991C-180.97605-4.275734-176.07837-1.055426-171.04027 .302563-176.09528 1.01495-180.61534 4.105784-183.74474 8.057089"/>
<path transform="matrix(1,0,0,-1,291.6669,40.21698)" stroke-width=".75" stroke-linecap="round" stroke-linejoin="round" fill="none" stroke="#000000" d="M-85.19066-.151528C-64.646778 .303882-42.72316 .231587-22.466223-.132559"/>
<path transform="matrix(1,0,0,-1,291.6669,40.21698)" stroke-width=".75" stroke-linecap="round" stroke-linejoin="round" fill="none" stroke="#000000" d="M-34.35453-8.331973C-31.50665-4.308487-26.790732-1.182652-21.832947 .237447-26.746497 1.086455-31.802498 4.248531-34.961648 8.177831"/>
<path transform="matrix(1,0,0,-1,291.6669,40.21698)" stroke-width=".75" stroke-linecap="round" stroke-linejoin="round" fill="none" stroke="#000000" d="M342.7633-.29325C364.1761-.167037 384.8009 .049218 406.06657-.41809"/>
<path transform="matrix(1,0,0,-1,291.6669,40.21698)" stroke-width=".75" stroke-linecap="round" stroke-linejoin="round" fill="none" stroke="#000000" d="M393.44563-7.773362C396.3208-4.084366 401.42216-.745013 406.29316-.333815 400.86705 1.144833 396.3499 4.203069 393.79148 8.505537"/>
<path transform="matrix(1,0,0,-1,291.6669,40.21698)" stroke-width=".75" stroke-linecap="round" stroke-linejoin="round" fill="none" stroke="#000000" d="M491.84056 .248599C520.61276 .234157 548.4269 .229783 577.1334 .086126"/>
<path transform="matrix(1,0,0,-1,291.6669,40.21698)" stroke-width=".75" stroke-linecap="round" stroke-linejoin="round" fill="none" stroke="#000000" d="M564.60958-8.223136C567.58328-4.307705 571.68228-1.472283 576.87258-.050446 571.74636 1.547982 567.8528 3.93032 564.0982 8.195884"/>
<path transform="matrix(1,0,0,-1,291.6669,40.21698)" stroke-width=".75" stroke-linecap="round" stroke-linejoin="round" fill="none" stroke="#000000" d="M534.6531-.347508C534.4882-61.442575 534.7259-123.40067 534.4952-185.03083 495.59193-184.92479 456.47724-184.51438 417.0001-185.0869"/>
<path transform="matrix(1,0,0,-1,291.6669,40.21698)" stroke-width=".75" stroke-linecap="round" stroke-linejoin="round" fill="none" stroke="#000000" d="M429.89045-176.78632C426.5657-180.76175 422.02217-183.38306 417.60914-184.47356 422.31953-186.08048 426.40296-188.38282 429.92839-192.43534"/>
<use data-text="+" xlink:href="#font_8_1" transform="matrix(21.519354,0,0,-21.519316,253.61762,32.47412)"/>
<use data-text="&#x2212;" xlink:href="#font_8_7" transform="matrix(21.519371,0,0,-21.519288,297.8168,70.826389)"/>
<use data-text="U" xlink:href="#font_8_8" transform="matrix(21.519457,0,0,-21.519398,6.8143007,45.598237)"/>
<use data-text="(" xlink:href="#font_8_4" transform="matrix(21.519457,0,0,-21.519398,23.470364,45.598237)"/>
<use data-text="s" xlink:href="#font_8_5" transform="matrix(21.519457,0,0,-21.519398,33.015535,45.598237)"/>
<use data-text=")" xlink:href="#font_8_6" transform="matrix(21.519457,0,0,-21.519398,44.00251,45.598237)"/>
<use data-text="Y" xlink:href="#font_8_9" transform="matrix(21.519246,0,0,-21.519398,873.23489,45.598237)"/>
<use data-text="(" xlink:href="#font_8_4" transform="matrix(21.519246,0,0,-21.519398,886.38357,45.598237)"/>
<use data-text="s" xlink:href="#font_8_5" transform="matrix(21.519246,0,0,-21.519398,895.9286,45.598237)"/>
<use data-text=")" xlink:href="#font_8_6" transform="matrix(21.519246,0,0,-21.519398,906.9154,45.598237)"/>
<use data-text="+" xlink:href="#font_8_1" transform="matrix(37.185197,0,0,-37.18505,363.4417,49.737764)"/>
<use data-text="+" xlink:href="#font_8_1" transform="matrix(37.185197,0,0,-37.18505,449.256,49.737764)"/>
<use data-text="H" xlink:href="#font_8_12" transform="matrix(21.51913,0,0,-21.519398,638.2163,138.00662)"/>
<use data-text="1" xlink:href="#font_8_3" transform="matrix(16.438221,0,0,-16.438426,655.07077,142.30759)"/>
<use data-text="(" xlink:href="#font_8_4" transform="matrix(21.51913,0,0,-21.519398,665.3133,138.00662)"/>
<use data-text="s" xlink:href="#font_8_5" transform="matrix(21.51913,0,0,-21.519398,674.85836,138.00662)"/>
<use data-text=")" xlink:href="#font_8_6" transform="matrix(21.51913,0,0,-21.519398,685.8451,138.00662)"/>
<use data-text="H" xlink:href="#font_8_12" transform="matrix(21.51913,0,0,-21.519398,638.2163,230.41503)"/>
<use data-text="2" xlink:href="#font_8_10" transform="matrix(16.438221,0,0,-16.438426,655.07077,234.6502)"/>
<use data-text="(" xlink:href="#font_8_4" transform="matrix(21.51913,0,0,-21.519398,665.3133,230.41503)"/>
<use data-text="s" xlink:href="#font_8_5" transform="matrix(21.51913,0,0,-21.519398,674.85836,230.41503)"/>
<use data-text=")" xlink:href="#font_8_6" transform="matrix(21.51913,0,0,-21.519398,685.8451,230.41503)"/>
<use data-text="H" xlink:href="#font_8_12" transform="matrix(21.51913,0,0,-21.519398,638.2163,322.82337)"/>
<use data-text="3" xlink:href="#font_8_11" transform="matrix(16.438221,0,0,-16.438426,655.07077,326.95994)"/>
<use data-text="(" xlink:href="#font_8_4" transform="matrix(21.51913,0,0,-21.519398,665.3133,322.82337)"/>
<use data-text="s" xlink:href="#font_8_5" transform="matrix(21.51913,0,0,-21.519398,674.85836,322.82337)"/>
<use data-text=")" xlink:href="#font_8_6" transform="matrix(21.51913,0,0,-21.519398,685.8451,322.82337)"/>
<path transform="matrix(1,0,0,-1,291.6669,40.21695)" stroke-width=".75" stroke-linecap="round" stroke-linejoin="round" fill="none" stroke="#000000" d="M345.8172-117.46862C346.18833-117.40624 345.6313-117.57004 347.2923-117.17259 364.74687-116.769557 384.5355-116.98727 401.78169-117.67343 417.93153-116.529727 417.59754-117.50155 418.25798-103.106349 418.1539-95.76332 417.62547-89.55525 418.00645-82.91946 417.7913-67.24849 417.41224-67.6605 403.27546-67.97063 384.58753-67.0005 365.31123-68.370738 346.14097-68.25394 331.41908-68.11068 331.08415-66.789089 332.41874-81.95246 330.7253-89.0155 330.9588-96.28067 331.60243-103.07598 330.6677-116.79472 330.77088-117.711208 345.8172-117.46862Z"/>
<path transform="matrix(1,0,0,-1,291.6669,40.21695)" stroke-width=".75" stroke-linecap="round" stroke-linejoin="round" fill="none" stroke="#000000" d="M347.17164-209.51482C346.772-209.10767 347.01454-209.30411 346.9565-209.83081 365.31535-210.3352 383.90708-209.14653 402.33158-209.25655 417.5043-209.19171 418.10255-210.05876 417.42869-195.52729 417.9617-187.7972 418.0128-180.8446 418.04206-174.3252 416.90397-159.10236 418.2438-160.63806 402.8264-160.53208 383.23606-159.13254 364.90205-160.74637 346.40425-158.98224 331.3305-160.7725 331.69413-159.59564 330.68806-174.5393 331.62843-181.64829 332.2802-187.27416 331.52436-195.17527 331.35578-209.8693 330.9838-210.69243 347.17164-209.51482Z"/>
<path transform="matrix(1,0,0,-1,291.6669,40.21695)" stroke-width=".75" stroke-linecap="round" stroke-linejoin="round" fill="none" stroke="#000000" d="M346.35615-302.81919C346.12345-302.59294 346.24366-301.6737 347.1805-302.61567 366.1214-302.14253 383.41029-302.3469 401.86836-302.3397 416.74174-301.3499 418.34388-301.41297 417.01023-286.82923 417.64555-280.8493 416.97703-274.6804 416.86354-267.6401 418.46-252.27649 417.76719-252.42813 401.9395-251.96457 383.24549-251.45017 365.44389-251.68845 346.8773-253.08362 330.64753-253.04064 331.1009-251.63576 331.4027-268.2057 331.92637-273.63294 331.0373-280.83955 332.01918-286.91749 331.55744-302.42805 330.73118-301.81956 346.35615-302.81919Z"/>
<path transform="matrix(1,0,0,-1,291.6669,40.21695)" stroke-width=".75" stroke-linecap="round" stroke-linejoin="round" fill="none" stroke="#000000" d="M106.576969 .764779C107.78656 11.028882 98.1758 21.634718 86.22208 21.095288 73.446208 21.525753 64.273059 11.959455 63.372865 .329687 64.01951-11.758943 72.94379-22.479004 86.527469-20.72398 97.763629-21.625365 108.27446-11.534755 106.576969 .764779Z"/>
<path transform="matrix(1,0,0,-1,291.6669,40.21695)" stroke-width=".75" stroke-linecap="round" stroke-linejoin="round" fill="none" stroke="#000000" d="M193.037-.367066C193.3648 11.278068 183.15807 22.222254 171.82599 21.794417 160.07141 21.746184 150.32238 12.825326 150.13608-.771171 150.91054-12.613242 160.5291-22.15683 171.67627-22.342839 182.71897-20.816655 192.71836-12.451032 193.037-.367066Z"/>
<path transform="matrix(1,0,0,-1,291.6669,40.21695)" stroke-width=".75" stroke-linecap="round" stroke-linejoin="round" fill="none" stroke="#000000" d="M21.683234 .252593C35.98341-.397462 49.394746-.140985 63.494836 .157385"/>
<path transform="matrix(1,0,0,-1,291.6669,40.21695)" stroke-width=".75" stroke-linecap="round" stroke-linejoin="round" fill="none" stroke="#000000" d="M51.37052-8.34224C54.01081-4.295608 58.328859-1.003008 63.77085 .210006 58.624486 .807539 53.920698 4.292006 51.297407 8.503527"/>
<path transform="matrix(1,0,0,-1,291.6669,40.21695)" stroke-width=".75" stroke-linecap="round" stroke-linejoin="round" fill="none" stroke="#000000" d="M107.15914-.39843C121.39762 .288759 135.53154 .002908 150.0536 .228386"/>
<path transform="matrix(1,0,0,-1,291.6669,40.21695)" stroke-width=".75" stroke-linecap="round" stroke-linejoin="round" fill="none" stroke="#000000" d="M137.08545-7.670146C140.47783-3.988554 144.29752-.842463 149.20073-.237527 144.49416 1.35428 140.08171 4.33351 137.23094 7.688976"/>
<path transform="matrix(1,0,0,-1,291.6669,40.21695)" stroke-width=".75" stroke-linecap="round" stroke-linejoin="round" fill="none" stroke="#000000" d="M193.41776-.1993C214.33301 .386461 235.10932-.011047 256.943-.187869"/>
<path transform="matrix(1,0,0,-1,291.6669,40.21695)" stroke-width=".75" stroke-linecap="round" stroke-linejoin="round" fill="none" stroke="#000000" d="M243.76117-8.447171C247.36342-4.33826 251.87328-1.019841 256.4133-.431055 251.86266 .981132 247.00844 4.060201 243.68022 7.938993"/>
<path transform="matrix(1,0,0,-1,291.6669,40.21695)" stroke-width=".75" stroke-linecap="round" stroke-linejoin="round" fill="none" stroke="#000000" d="M534.6891-.207848C534.8424-30.537438 534.1433-61.339994 534.32168-92.37284 495.81004-92.16289 456.64399-92.36336 416.94639-92.81414"/>
<path transform="matrix(1,0,0,-1,291.6669,40.21695)" stroke-width=".75" stroke-linecap="round" stroke-linejoin="round" fill="none" stroke="#000000" d="M429.5449-84.589969C426.4446-88.33037 422.008-90.96148 417.10008-92.61841 422.55076-93.53555 426.52296-96.43972 429.6639-100.808658"/>
<path transform="matrix(1,0,0,-1,291.6669,40.21695)" stroke-width=".75" stroke-linecap="round" stroke-linejoin="round" fill="none" stroke="#000000" d="M331.74436-92.81383C278.6565-92.78838 225.37143-92.147678 171.62596-92.79046 171.37773-68.524349 171.1814-45.243204 171.79857-21.942065"/>
<path transform="matrix(1,0,0,-1,291.6669,40.21695)" stroke-width=".75" stroke-linecap="round" stroke-linejoin="round" fill="none" stroke="#000000" d="M180.00366-35.05134C175.48352-31.652237 172.86652-26.917946 171.9104-22.139595 170.78548-26.660914 167.37989-31.376463 163.53287-34.28756"/>
<path transform="matrix(1,0,0,-1,291.6669,40.21695)" stroke-width=".75" stroke-linecap="round" stroke-linejoin="round" fill="none" stroke="#000000" d="M331.89683-184.75531C249.80788-184.47235 167.82816-184.70592 86.2643-185.06435 85.70972-130.48613 85.899997-76.22353 86.0351-22.442599"/>
<path transform="matrix(1,0,0,-1,291.6669,40.21695)" stroke-width=".75" stroke-linecap="round" stroke-linejoin="round" fill="none" stroke="#000000" d="M94.01573-34.962259C89.81625-31.74101 86.98321-27.325963 85.83973-21.775229 84.57129-26.997546 82.19241-31.612814 77.98052-34.35467"/>
<path transform="matrix(1,0,0,-1,291.6669,40.21695)" stroke-width=".75" stroke-linecap="round" stroke-linejoin="round" fill="none" stroke="#000000" d="M534.7836 .32099C534.3469-92.65787 534.82369-184.53153 534.78506-277.52854 495.23167-277.13844 455.9977-277.59114 416.8369-276.88166"/>
<path transform="matrix(1,0,0,-1,291.6669,40.21695)" stroke-width=".75" stroke-linecap="round" stroke-linejoin="round" fill="none" stroke="#000000" d="M430.23759-269.49766C426.4451-272.94023 422.46269-276.2115 417.58674-276.8946 422.12574-278.0836 426.74009-280.804 429.56333-285.41578"/>
<path transform="matrix(1,0,0,-1,291.6669,40.21695)" stroke-width=".75" stroke-linecap="round" stroke-linejoin="round" fill="none" stroke="#000000" d="M331.13758-276.9941C221.0292-277.48326 110.354488-277.06327 .371786-277.15574 .264543-192.20812-.436744-107.52776 .357771-21.946614"/>
<path transform="matrix(1,0,0,-1,291.6669,40.21695)" stroke-width=".75" stroke-linecap="round" stroke-linejoin="round" fill="none" stroke="#000000" d="M7.7382-34.698495C3.925342-31.527808 1.042033-26.833226-.434178-22.124598-1.607916-27.237202-4.022776-31.267533-8.084329-34.6661"/>
<path transform="matrix(1,0,0,-1,291.6669,40.21695)" stroke-width=".75" stroke-linecap="round" stroke-linejoin="round" fill="none" stroke="#000000" d="M346.78337-118.16424C347.2043-116.56912 347.31205-117.60981 347.45808-117.29947 364.5015-116.41669 384.68116-117.71182 402.10456-116.59127 416.81327-117.67175 416.8823-116.794589 416.7822-102.198329 418.21376-95.65959 417.2799-89.70728 417.8101-82.345767 417.95698-67.31679 418.17597-68.30841 401.95814-67.246257 384.6061-67.23414 365.55339-67.54912 347.43977-67.80351 332.22737-67.2713 331.74766-67.67579 331.58448-81.878429 330.86058-89.85725 331.51676-96.152919 331.27903-102.317249 332.51329-117.78912 331.55216-116.84944 346.78337-118.16424Z"/>
<path transform="matrix(1,0,0,-1,291.6669,40.21695)" stroke-width=".75" stroke-linecap="round" stroke-linejoin="round" fill="none" stroke="#000000" d="M346.29615-210.04181C347.13743-209.96932 347.21363-210.04927 345.90977-210.54795 366.13374-209.19005 383.14164-209.29616 403.4531-210.27039 418.3724-209.33444 417.89753-208.85977 418.30058-195.49121 418.49794-187.76256 417.4012-180.99442 416.81465-174.88745 418.21043-159.2555 417.95765-159.26024 403.24043-160.03412 384.08659-160.10823 365.87443-159.209 346.56025-160.16844 330.95603-159.05927 332.21699-159.27288 330.80848-174.21628 331.1921-181.53467 330.7791-188.46878 332.38035-194.67618 332.39448-209.25443 330.72804-209.66333 346.29615-210.04181Z"/>
<path transform="matrix(1,0,0,-1,291.6669,40.21695)" stroke-width=".75" stroke-linecap="round" stroke-linejoin="round" fill="none" stroke="#000000" d="M346.35029-302.76994C347.51756-301.74357 346.23966-301.339 346.21974-302.49378 364.9068-302.86949 383.43437-302.6141 402.15467-302.97718 418.31004-301.56553 418.20207-301.83708 418.01338-287.62184 418.09877-280.1845 417.34474-274.261 418.17588-266.62663 417.8659-253.1825 417.16267-251.3672 401.8307-252.68312 384.26136-252.20246 364.92744-251.98189 346.7667-252.6273 330.61314-252.98706 332.51045-252.9586 332.5016-266.59834 331.18598-274.126 332.16105-281.434 330.6004-287.2724 331.66828-301.83445 331.3514-302.31257 346.35029-302.76994Z"/>
<path transform="matrix(1,0,0,-1,291.6669,40.21695)" stroke-width=".75" stroke-linecap="round" stroke-linejoin="round" fill="none" stroke="#000000" d="M106.97226 .207573C106.573299 11.63632 97.64306 21.49586 86.1758 21.57485 72.977039 21.632046 64.5055 11.024778 63.657789-.016984 64.62655-11.101358 74.270969-21.869959 85.16882-21.29004 97.29915-21.84332 107.82434-12.029156 106.97226 .207573Z"/>
<path transform="matrix(1,0,0,-1,291.6669,40.21695)" stroke-width=".75" stroke-linecap="round" stroke-linejoin="round" fill="none" stroke="#000000" d="M193.93994-.611246C192.75594 12.020097 184.32115 21.423619 170.9458 21.911774 159.48238 20.7699 149.32411 12.641965 150.67974-.215021 149.77756-11.322115 159.50922-20.711005 172.29604-22.414044 184.2133-21.932757 193.75371-11.92841 193.93994-.611246Z"/>
<path transform="matrix(1,0,0,-1,291.6669,40.21695)" stroke-width=".75" stroke-linecap="round" stroke-linejoin="round" fill="none" stroke="#000000" d="M21.601979-.330135C35.895368 .101048 49.927316-.037118 63.48259 .189452"/>
<path transform="matrix(1,0,0,-1,291.6669,40.21695)" stroke-width=".75" stroke-linecap="round" stroke-linejoin="round" fill="none" stroke="#000000" d="M51.15298-8.471177C54.005685-4.10075 58.60578-.947192 63.645299-.320644 58.373159 1.277677 54.220476 4.200985 50.70485 8.230811"/>
<path transform="matrix(1,0,0,-1,291.6669,40.21695)" stroke-width=".75" stroke-linecap="round" stroke-linejoin="round" fill="none" stroke="#000000" d="M107.48712-.180652C121.74347 .309999 135.20642 .148421 149.97539 .281074"/>
<path transform="matrix(1,0,0,-1,291.6669,40.21695)" stroke-width=".75" stroke-linecap="round" stroke-linejoin="round" fill="none" stroke="#000000" d="M136.85822-7.84408C140.26187-3.604554 144.23217-.988347 150.03974-.443162 144.33138 1.06573 140.08567 3.864256 136.67711 8.48085"/>
<path transform="matrix(1,0,0,-1,291.6669,40.21695)" stroke-width=".75" stroke-linecap="round" stroke-linejoin="round" fill="none" stroke="#000000" d="M193.27301-.093677C214.56433 .214791 235.37397-.350208 256.79533-.025418"/>
<path transform="matrix(1,0,0,-1,291.6669,40.21695)" stroke-width=".75" stroke-linecap="round" stroke-linejoin="round" fill="none" stroke="#000000" d="M243.95169-7.67961C246.79376-3.629898 251.5028-1.448566 256.93858-.085833 252.06592 1.56251 246.75527 3.705323 244.36577 7.997226"/>
<path transform="matrix(1,0,0,-1,291.6669,40.21695)" stroke-width=".75" stroke-linecap="round" stroke-linejoin="round" fill="none" stroke="#000000" d="M534.4704 .397588C534.397-30.652485 534.632-61.913866 534.16738-92.75866 495.4395-92.425029 456.70399-92.038539 417.33683-92.501399"/>
<path transform="matrix(1,0,0,-1,291.6669,40.21695)" stroke-width=".75" stroke-linecap="round" stroke-linejoin="round" fill="none" stroke="#000000" d="M429.59788-84.29131C426.59107-88.70857 421.9855-91.362689 417.046-92.39719 422.18254-93.981967 426.9549-96.45182 429.6668-100.20416"/>
<path transform="matrix(1,0,0,-1,291.6669,40.21695)" stroke-width=".75" stroke-linecap="round" stroke-linejoin="round" fill="none" stroke="#000000" d="M331.78614-92.641498C278.58775-92.65507 224.7683-92.520549 171.50327-92.290218 171.98366-68.56686 171.9589-45.40606 171.32999-22.035498"/>
<path transform="matrix(1,0,0,-1,291.6669,40.21695)" stroke-width=".75" stroke-linecap="round" stroke-linejoin="round" fill="none" stroke="#000000" d="M179.37728-34.596735C175.69249-31.124272 172.44178-27.217644 171.28154-21.847 170.72368-26.839175 167.57741-31.749207 163.61157-34.68242"/>
<path transform="matrix(1,0,0,-1,291.6669,40.21695)" stroke-width=".75" stroke-linecap="round" stroke-linejoin="round" fill="none" stroke="#000000" d="M331.5596-185.07324C249.28095-184.73992 167.33663-184.52881 85.91213-184.83397 86.073459-130.27718 86.02591-75.88145 86.01008-22.45401"/>
<path transform="matrix(1,0,0,-1,291.6669,40.21695)" stroke-width=".75" stroke-linecap="round" stroke-linejoin="round" fill="none" stroke="#000000" d="M94.307979-34.437986C89.46011-31.30883 86.86563-26.889195 86.14235-21.727677 84.47097-27.008097 82.20239-31.514765 77.838809-34.74934"/>
<path transform="matrix(1,0,0,-1,291.6669,40.21695)" stroke-width=".75" stroke-linecap="round" stroke-linejoin="round" fill="none" stroke="#000000" d="M534.35519 .414802C534.65029-92.4919 534.9001-184.7635 534.84097-277.33757 495.42759-277.58 456.16688-276.9424 417.51329-277.5434"/>
<path transform="matrix(1,0,0,-1,291.6669,40.21695)" stroke-width=".75" stroke-linecap="round" stroke-linejoin="round" fill="none" stroke="#000000" d="M429.5159-269.357C426.33317-273.1141 422.6075-275.92799 417.53306-277.26609 422.35316-277.96965 426.32893-281.0995 429.81983-284.912"/>
<path transform="matrix(1,0,0,-1,291.6669,40.21695)" stroke-width=".75" stroke-linecap="round" stroke-linejoin="round" fill="none" stroke="#000000" d="M331.64363-277.42475C221.25572-277.26783 110.2006-277.02659 .011609-277.00007-.042643-191.85353 .154491-107.41645-.372531-22.109555"/>
<path transform="matrix(1,0,0,-1,291.6669,40.21695)" stroke-width=".75" stroke-linecap="round" stroke-linejoin="round" fill="none" stroke="#000000" d="M8.334927-34.36331C3.759468-31.235863 1.440658-27.080929 .380118-22.068148-.768122-27.006497-4.177142-31.56929-8.339038-34.49701"/>
<path transform="matrix(1,0,0,-1,291.6669,40.21695)" stroke-width=".75" stroke-linecap="round" stroke-linejoin="round" fill="none" stroke="#000000" d="M346.14949-117.634578C347.11323-118.27445 347.32237-117.091869 346.04414-116.81953 365.78016-116.95199 383.2293-118.248348 403.35786-117.95909 416.76734-116.47121 418.1772-118.2842 418.11497-103.26193 417.6397-95.862117 417.69834-89.625598 417.50334-81.69403 417.101-67.67692 418.33393-67.17367 403.46788-67.36859 384.65135-68.10091 365.0164-67.447 346.7464-66.71535 331.57945-67.18265 332.33036-67.41944 332.4795-81.82325 330.93293-88.8197 331.8674-94.83925 331.37724-102.44955 332.2269-118.086009 331.35969-117.04886 346.14949-117.634578Z"/>
<path transform="matrix(1,0,0,-1,291.6669,40.21695)" stroke-width=".75" stroke-linecap="round" stroke-linejoin="round" fill="none" stroke="#000000" d="M345.67033-209.13872C346.40379-209.74947 346.26319-210.54148 345.9496-209.55608 366.177-209.04978 384.03993-210.28504 401.7019-209.00299 417.5899-209.32668 418.41056-210.60704 417.28416-194.7172 416.69798-187.36208 418.06675-181.6315 418.3487-174.0983 417.3446-160.3782 417.58567-159.30127 401.98689-160.58499 383.81959-159.0556 364.87904-159.4952 347.151-158.92186 332.00709-159.94974 332.16297-159.32245 331.78526-174.98189 332.12367-182.38277 331.57646-187.67397 331.54145-195.50351 330.8655-209.35602 331.95985-209.64635 345.67033-209.13872Z"/>
<path transform="matrix(1,0,0,-1,291.6669,40.21695)" stroke-width=".75" stroke-linecap="round" stroke-linejoin="round" fill="none" stroke="#000000" d="M345.81095-302.08027C347.08543-302.95695 346.04508-303.1099 345.90867-302.1212 365.6656-302.60285 384.402-302.47776 402.3792-301.2817 418.25996-301.20234 417.28868-302.5023 416.80497-287.96095 418.13053-281.39265 417.37126-273.43644 417.77397-266.36936 418.2485-252.81366 417.3233-252.40195 402.36228-252.07166 384.48506-252.90474 365.89009-251.98409 345.85615-252.19626 332.10264-252.7531 330.59745-251.7537 331.30665-266.3316 331.75444-273.56675 331.73698-279.8813 332.23573-286.86244 331.27146-302.56227 331.774-301.59559 345.81095-302.08027Z"/>
<path transform="matrix(1,0,0,-1,291.6669,40.21695)" stroke-width=".75" stroke-linecap="round" stroke-linejoin="round" fill="none" stroke="#000000" d="M107.43375 .201219C107.4365 11.716375 98.089778 20.724949 86.40869 22.472912 74.30901 21.488717 63.578588 11.804823 65.09453-.276696 63.673448-11.513536 74.61216-22.539685 86.147159-22.45348 98.28845-21.321768 108.015338-11.980501 107.43375 .201219Z"/>
<path transform="matrix(1,0,0,-1,291.6669,40.21695)" stroke-width=".75" stroke-linecap="round" stroke-linejoin="round" fill="none" stroke="#000000" d="M192.457 .939629C194.10897 12.814059 182.67504 21.074376 172.16193 21.142373 160.25795 21.951434 149.73581 11.353668 150.3994-.806256 150.70088-11.941156 159.23673-21.395514 171.56058-21.773873 182.81995-22.244034 193.49231-12.22805 192.457 .939629Z"/>
<path transform="matrix(1,0,0,-1,291.6669,40.21695)" stroke-width=".75" stroke-linecap="round" stroke-linejoin="round" fill="none" stroke="#000000" d="M21.35903 .173929C35.293874 .237711 49.84362-.069822 63.599096-.198304"/>
<path transform="matrix(1,0,0,-1,291.6669,40.21695)" stroke-width=".75" stroke-linecap="round" stroke-linejoin="round" fill="none" stroke="#000000" d="M51.261556-7.73804C54.284738-3.663594 59.217515-1.087655 64.00639 .045362 58.88033 1.298291 54.621206 4.016521 50.72177 8.118165"/>
<path transform="matrix(1,0,0,-1,291.6669,40.21695)" stroke-width=".75" stroke-linecap="round" stroke-linejoin="round" fill="none" stroke="#000000" d="M107.339267-.290242C121.508388 .419283 135.17304 .22713 149.99062 .340324"/>
<path transform="matrix(1,0,0,-1,291.6669,40.21695)" stroke-width=".75" stroke-linecap="round" stroke-linejoin="round" fill="none" stroke="#000000" d="M137.2363-7.929327C140.0454-3.683067 144.46044-1.376645 149.50128-.318562 144.75742 1.401157 140.14804 3.993735 136.58736 8.219631"/>
<path transform="matrix(1,0,0,-1,291.6669,40.21695)" stroke-width=".75" stroke-linecap="round" stroke-linejoin="round" fill="none" stroke="#000000" d="M192.95595-.334759C214.85726 .111646 235.94283-.273753 256.39164-.112151"/>
<path transform="matrix(1,0,0,-1,291.6669,40.21695)" stroke-width=".75" stroke-linecap="round" stroke-linejoin="round" fill="none" stroke="#000000" d="M243.93465-7.821865C247.36461-3.824067 251.79158-.790047 256.36454-.332794 252.02544 .718687 247.18585 3.952681 244.32497 7.851853"/>
<path transform="matrix(1,0,0,-1,291.6669,40.21695)" stroke-width=".75" stroke-linecap="round" stroke-linejoin="round" fill="none" stroke="#000000" d="M534.98806 .187888C534.6663-30.547354 534.89089-61.893465 534.8046-92.78877 495.70887-92.28772 456.4465-92.3432 416.83988-92.295619"/>
<path transform="matrix(1,0,0,-1,291.6669,40.21695)" stroke-width=".75" stroke-linecap="round" stroke-linejoin="round" fill="none" stroke="#000000" d="M429.76295-84.62833C426.1973-88.08929 421.73558-90.863628 417.29505-92.184497 421.75263-93.15822 426.41239-96.117908 429.44154-100.41278"/>
<path transform="matrix(1,0,0,-1,291.6669,40.21695)" stroke-width=".75" stroke-linecap="round" stroke-linejoin="round" fill="none" stroke="#000000" d="M331.47828-92.750698C278.27958-92.10055 225.06224-92.099727 171.91512-92.01461 171.45473-69.16115 172.07416-45.225515 171.58753-21.642109"/>
<path transform="matrix(1,0,0,-1,291.6669,40.21695)" stroke-width=".75" stroke-linecap="round" stroke-linejoin="round" fill="none" stroke="#000000" d="M180.00669-34.934984C175.84738-31.808388 172.76042-27.31628 171.34377-21.758685 170.87764-26.877066 167.40454-31.93142 163.93585-34.60158"/>
<path transform="matrix(1,0,0,-1,291.6669,40.21695)" stroke-width=".75" stroke-linecap="round" stroke-linejoin="round" fill="none" stroke="#000000" d="M331.71965-184.83391C249.91623-184.53043 167.88294-184.68766 85.509288-185.22116 85.93564-130.84929 85.86404-75.84187 85.99474-21.935717"/>
<path transform="matrix(1,0,0,-1,291.6669,40.21695)" stroke-width=".75" stroke-linecap="round" stroke-linejoin="round" fill="none" stroke="#000000" d="M93.59387-34.812246C89.719509-31.299124 86.53165-27.213038 86.22095-22.348977 84.478679-26.63441 81.49411-31.211943 78.16281-34.85248"/>
<path transform="matrix(1,0,0,-1,291.6669,40.21695)" stroke-width=".75" stroke-linecap="round" stroke-linejoin="round" fill="none" stroke="#000000" d="M534.55697 .259673C534.8946-92.172519 534.8475-185.04651 534.92349-277.06135 495.19447-277.58384 456.41767-276.89543 417.48-277.59489"/>
<path transform="matrix(1,0,0,-1,291.6669,40.21695)" stroke-width=".75" stroke-linecap="round" stroke-linejoin="round" fill="none" stroke="#000000" d="M429.9656-268.94874C426.6842-273.31709 422.09239-275.64469 416.77323-276.9578 422.31477-277.97264 426.27525-281.2954 430.20097-285.60874"/>
<path transform="matrix(1,0,0,-1,291.6669,40.21695)" stroke-width=".75" stroke-linecap="round" stroke-linejoin="round" fill="none" stroke="#000000" d="M331.32673-277.45948C220.90001-276.8785 110.09612-276.81748-.250024-276.87626 .016688-192.37229-.200395-106.78796 .38495-21.898943"/>
<path transform="matrix(1,0,0,-1,291.6669,40.21695)" stroke-width=".75" stroke-linecap="round" stroke-linejoin="round" fill="none" stroke="#000000" d="M7.778997-34.618364C3.869643-31.790043 .755287-27.082 .413243-22.199744-1.259235-27.239483-3.845583-31.34812-7.845085-34.642698"/>
<path transform="matrix(1,0,0,-1,291.6669,40.21695)" stroke-width=".75" stroke-linecap="round" stroke-linejoin="round" fill="none" stroke="#000000" d="M345.6684-116.841068C346.49174-117.07767 346.28233-117.57853 347.4999-118.24312 365.64619-116.99996 384.3659-117.81145 403.03169-116.96175 417.56465-118.021289 417.04719-118.23754 417.96928-102.75174 417.55064-94.93278 417.22627-89.876979 417.84858-83.26839 417.71858-67.4655 416.72428-67.506198 402.6904-67.60232 383.0277-66.53622 364.2939-66.52189 346.25886-66.799198 331.44215-67.7936 330.82209-67.812519 331.14945-82.86925 332.33079-88.57775 331.41246-95.486148 332.40428-103.089 330.8701-117.76816 332.20268-117.18992 345.6684-116.841068Z"/>
<path transform="matrix(1,0,0,-1,291.6669,40.21695)" stroke-width=".75" stroke-linecap="round" stroke-linejoin="round" fill="none" stroke="#000000" d="M346.80326-209.00279C345.87257-209.44226 346.52116-209.09709 346.84483-210.62528 365.9725-210.49834 383.8851-209.29579 401.72434-209.506 418.03913-208.86876 416.82518-210.13072 418.1151-194.47266 417.18644-188.60376 417.98783-180.90605 417.08518-175.45615 417.75294-159.48925 417.5945-159.70894 401.6643-159.81331 383.43428-160.76526 364.90037-160.48352 346.5115-159.0392 330.89717-159.01992 330.752-159.85256 332.012-174.17409 331.82365-182.4262 330.59819-187.26815 331.8846-195.45528 332.0087-209.99881 331.47569-209.67464 346.80326-209.00279Z"/>
<path transform="matrix(1,0,0,-1,291.6669,40.21695)" stroke-width=".75" stroke-linecap="round" stroke-linejoin="round" fill="none" stroke="#000000" d="M345.64009-302.94755C346.8626-303.09403 347.41169-302.93238 347.5041-301.91914 365.97584-302.48005 384.10508-301.2452 402.74024-301.46604 417.02189-302.94627 418.23918-302.7147 417.90306-287.25257 418.36024-281.22715 417.42649-273.11607 417.7953-267.93064 418.46766-251.82814 417.29386-251.45215 402.98863-251.53369 384.71748-252.64014 364.69834-253.23172 345.60008-251.67418 330.6949-252.38472 331.46907-251.54476 330.85954-266.87699 332.44-273.5079 332.1054-280.02696 331.83366-287.6911 330.76524-301.7342 332.15248-303.08113 345.64009-302.94755Z"/>
<path transform="matrix(1,0,0,-1,291.6669,40.21695)" stroke-width=".75" stroke-linecap="round" stroke-linejoin="round" fill="none" stroke="#000000" d="M108.38883 .770048C107.55979 11.48016 97.43442 21.342164 86.05577 22.181956 73.20052 20.799294 63.899888 12.502667 64.58442 .746406 64.860019-12.489181 74.20606-21.98016 86.7664-22.443612 98.56167-20.7671 108.06421-11.234756 108.38883 .770048Z"/>
<path transform="matrix(1,0,0,-1,291.6669,40.21695)" stroke-width=".75" stroke-linecap="round" stroke-linejoin="round" fill="none" stroke="#000000" d="M192.45467-.570529C193.43195 12.306495 183.47766 22.577452 171.47887 20.887528 159.42592 20.765938 149.03194 12.858287 150.16753-.015513 149.05884-11.045872 158.86647-22.398644 172.32294-22.33046 184.0962-21.61528 194.22397-12.451987 192.45467-.570529Z"/>
<path transform="matrix(1,0,0,-1,291.6669,40.21695)" stroke-width=".75" stroke-linecap="round" stroke-linejoin="round" fill="none" stroke="#000000" d="M21.374773 .258967C35.477739-.24126 50.032335-.241032 63.898874-.372002"/>
<path transform="matrix(1,0,0,-1,291.6669,40.21695)" stroke-width=".75" stroke-linecap="round" stroke-linejoin="round" fill="none" stroke="#000000" d="M50.772817-7.730364C54.718133-3.581609 58.58312-1.51501 63.421854-.228874 58.379034 1.128658 54.17641 3.696346 51.10936 8.125959"/>
<path transform="matrix(1,0,0,-1,291.6669,40.21695)" stroke-width=".75" stroke-linecap="round" stroke-linejoin="round" fill="none" stroke="#000000" d="M107.468379 .013986C121.659-.274926 135.24436-.174137 149.47759 .144284"/>
<path transform="matrix(1,0,0,-1,291.6669,40.21695)" stroke-width=".75" stroke-linecap="round" stroke-linejoin="round" fill="none" stroke="#000000" d="M136.8694-7.842192C140.41217-4.233717 144.1861-.760852 149.20154-.269249 144.54375 1.445375 140.56401 3.559517 136.51616 8.233559"/>
<path transform="matrix(1,0,0,-1,291.6669,40.21695)" stroke-width=".75" stroke-linecap="round" stroke-linejoin="round" fill="none" stroke="#000000" d="M193.70136-.389744C214.04984-.388901 235.18563 .358821 256.3298 .340042"/>
<path transform="matrix(1,0,0,-1,291.6669,40.21695)" stroke-width=".75" stroke-linecap="round" stroke-linejoin="round" fill="none" stroke="#000000" d="M244.46341-8.184771C247.4442-4.434258 251.86814-.8483 256.78727-.419862 251.34934 1.207493 246.83182 3.639441 243.62253 8.284937"/>
<path transform="matrix(1,0,0,-1,291.6669,40.21695)" stroke-width=".75" stroke-linecap="round" stroke-linejoin="round" fill="none" stroke="#000000" d="M534.63479-.01919C534.121-30.823767 534.9939-61.24774 534.19827-92.52815 495.41886-92.26077 456.2139-92.54878 416.82453-92.47134"/>
<path transform="matrix(1,0,0,-1,291.6669,40.21695)" stroke-width=".75" stroke-linecap="round" stroke-linejoin="round" fill="none" stroke="#000000" d="M430.23536-84.71172C427.05805-87.98939 421.731-90.973049 417.2332-92.122798 422.4592-93.136188 426.7018-96.17417 430.20423-100.6277"/>
<path transform="matrix(1,0,0,-1,291.6669,40.21695)" stroke-width=".75" stroke-linecap="round" stroke-linejoin="round" fill="none" stroke="#000000" d="M331.43739-92.62961C277.8329-92.39709 224.56827-92.15099 171.35071-92.18005 172.0575-68.81034 171.51773-45.905969 171.8214-22.094052"/>
<path transform="matrix(1,0,0,-1,291.6669,40.21695)" stroke-width=".75" stroke-linecap="round" stroke-linejoin="round" fill="none" stroke="#000000" d="M180.0723-34.630746C175.42102-31.153658 172.52268-26.761994 171.19605-21.582938 170.12291-27.278397 167.45311-31.35618 163.6602-34.492414"/>
<path transform="matrix(1,0,0,-1,291.6669,40.21695)" stroke-width=".75" stroke-linecap="round" stroke-linejoin="round" fill="none" stroke="#000000" d="M331.59016-184.99791C249.61302-185.04354 168.0222-184.5359 85.91482-185.19486 86.08086-130.67638 85.39332-76.3061 85.50456-22.040198"/>
<path transform="matrix(1,0,0,-1,291.6669,40.21695)" stroke-width=".75" stroke-linecap="round" stroke-linejoin="round" fill="none" stroke="#000000" d="M93.75895-34.598108C89.72666-31.239907 86.75359-26.970309 85.733509-22.380997 84.846729-26.66323 82.26082-31.616538 77.988269-34.585474"/>
<path transform="matrix(1,0,0,-1,291.6669,40.21695)" stroke-width=".75" stroke-linecap="round" stroke-linejoin="round" fill="none" stroke="#000000" d="M534.9094 .039144C534.1325-92.30387 534.31826-184.73439 534.22488-276.9715 495.8213-277.27885 456.11418-277.2172 417.35224-276.82688"/>
<path transform="matrix(1,0,0,-1,291.6669,40.21695)" stroke-width=".75" stroke-linecap="round" stroke-linejoin="round" fill="none" stroke="#000000" d="M429.82337-269.2553C426.52064-273.04866 422.24525-276.39039 417.33863-277.5381 422.28068-278.2469 426.65513-281.2128 430.22117-284.9471"/>
<path transform="matrix(1,0,0,-1,291.6669,40.21695)" stroke-width=".75" stroke-linecap="round" stroke-linejoin="round" fill="none" stroke="#000000" d="M331.62666-277.06175C220.94358-277.3353 110.19303-276.822-.106932-277.23667-.293936-192.42508-.353893-107.37648 .434307-21.96516"/>
<path transform="matrix(1,0,0,-1,291.6669,40.21695)" stroke-width=".75" stroke-linecap="round" stroke-linejoin="round" fill="none" stroke="#000000" d="M7.926353-35.016046C3.67024-31.571724 1.273218-27.107123-.285918-21.863617-1.206219-26.739302-3.904435-31.947489-7.75942-34.38824"/>
<path transform="matrix(1,0,0,-1,291.6669,40.21695)" stroke-width=".75" stroke-linecap="round" stroke-linejoin="round" fill="none" stroke="#000000" d="M346.8533-118.03392C346.43574-117.41046 346.7355-117.72924 346.27519-118.077487 365.20597-116.68937 384.69194-117.851978 402.3234-116.4217 418.50556-117.55255 417.33335-116.974399 417.83464-102.20542 417.64588-96.014659 417.33988-89.8552 417.41886-83.240619 417.40965-66.89771 417.22944-67.291118 402.60325-68.195888 383.8198-67.573787 366.11839-66.95619 346.5338-68.008098 330.99436-67.828609 332.1795-68.371349 331.5518-81.625629 332.12757-89.51037 332.442-95.74689 331.3413-103.11486 330.7214-116.402599 330.63917-116.857509 346.8533-118.03392Z"/>
<path transform="matrix(1,0,0,-1,291.6669,40.21695)" stroke-width=".75" stroke-linecap="round" stroke-linejoin="round" fill="none" stroke="#000000" d="M345.6084-209.4149C346.13346-209.50894 346.9392-210.41408 345.9808-209.94281 364.94325-209.81555 383.68229-209.04015 401.8046-209.82909 417.92778-209.84833 418.1928-209.14221 416.59657-195.25197 417.1686-188.03217 418.11015-181.18387 418.38755-174.49987 417.19264-159.45847 416.98893-159.36322 401.65269-160.82352 383.9466-160.53058 364.81294-159.67922 346.46235-159.9944 330.86936-160.11713 331.177-159.77797 332.09339-175.54779 332.0618-181.69402 331.49287-188.79689 332.29627-195.65186 332.31309-210.42282 331.40397-209.45209 345.6084-209.4149Z"/>
<path transform="matrix(1,0,0,-1,291.6669,40.21695)" stroke-width=".75" stroke-linecap="round" stroke-linejoin="round" fill="none" stroke="#000000" d="M346.67829-302.22819C347.28843-302.66673 346.76118-302.60844 346.5269-302.7422 365.72898-302.4161 383.0664-301.86729 403.48744-301.81114 416.65409-301.647 416.8687-302.1086 418.46058-287.4573 417.03639-280.7936 417.03733-273.2627 417.61448-268.1644 417.3497-252.49552 418.13233-253.09929 402.01127-253.077 383.54655-252.20156 365.78749-251.4842 345.80744-253.1692 332.52268-252.4788 331.25328-252.1582 332.47593-267.3928 331.3303-273.55448 331.73448-280.40226 331.88609-287.39848 330.5864-302.93095 331.37327-303.03224 346.67829-302.22819Z"/>
<path transform="matrix(1,0,0,-1,291.6669,40.21695)" stroke-width=".75" stroke-linecap="round" stroke-linejoin="round" fill="none" stroke="#000000" d="M108.05379 .104411C107.667438 12.691607 96.978778 20.810248 85.0073 21.938063 73.20858 21.436396 63.35468 11.55465 64.104038-.792676 64.10726-11.900624 73.57174-20.845812 86.095859-21.12262 98.68914-21.015368 108.35867-11.165222 108.05379 .104411Z"/>
<path transform="matrix(1,0,0,-1,291.6669,40.21695)" stroke-width=".75" stroke-linecap="round" stroke-linejoin="round" fill="none" stroke="#000000" d="M192.87036-.565578C193.01358 12.657893 183.41458 22.573506 171.0308 21.891087 159.84215 20.863692 149.74489 12.921598 150.84185-.807343 149.84807-11.864407 159.17903-22.489899 171.99144-21.351725 184.17746-21.754847 193.48368-12.093197 192.87036-.565578Z"/>
<path transform="matrix(1,0,0,-1,291.6669,40.21695)" stroke-width=".75" stroke-linecap="round" stroke-linejoin="round" fill="none" stroke="#000000" d="M22.012993 .277718C35.474416 .098782 49.66966 .212701 63.89802 .1604"/>
<path transform="matrix(1,0,0,-1,291.6669,40.21695)" stroke-width=".75" stroke-linecap="round" stroke-linejoin="round" fill="none" stroke="#000000" d="M50.990777-8.348169C54.3043-3.617093 58.374139-1.246163 64.08111 .250267 58.37105 1.148316 53.997026 4.037815 50.99512 8.070256"/>
<path transform="matrix(1,0,0,-1,291.6669,40.21695)" stroke-width=".75" stroke-linecap="round" stroke-linejoin="round" fill="none" stroke="#000000" d="M107.616458-.153914C121.85843-.237905 135.46807 .259611 149.32855-.051495"/>
<path transform="matrix(1,0,0,-1,291.6669,40.21695)" stroke-width=".75" stroke-linecap="round" stroke-linejoin="round" fill="none" stroke="#000000" d="M136.50759-8.320684C140.28981-4.111849 144.85799-.926769 149.93483 .326747 144.23401 .745041 139.7308 3.762623 136.61792 8.202715"/>
<path transform="matrix(1,0,0,-1,291.6669,40.21695)" stroke-width=".75" stroke-linecap="round" stroke-linejoin="round" fill="none" stroke="#000000" d="M192.98117 .309403C214.4257 .074496 235.34882-.427555 257.08045 .096747"/>
<path transform="matrix(1,0,0,-1,291.6669,40.21695)" stroke-width=".75" stroke-linecap="round" stroke-linejoin="round" fill="none" stroke="#000000" d="M243.61038-7.989528C246.90377-3.958784 251.53884-1.428305 256.4132 .383227 251.60034 1.266546 247.42662 4.245077 244.38887 8.485111"/>
<path transform="matrix(1,0,0,-1,291.6669,40.21695)" stroke-width=".75" stroke-linecap="round" stroke-linejoin="round" fill="none" stroke="#000000" d="M534.53347 .033488C534.7915-30.546803 534.963-61.41711 534.65408-92.66263 495.7509-92.31947 456.39613-92.283519 417.57905-92.623378"/>
<path transform="matrix(1,0,0,-1,291.6669,40.21695)" stroke-width=".75" stroke-linecap="round" stroke-linejoin="round" fill="none" stroke="#000000" d="M429.8098-84.00969C426.91215-88.01576 421.84605-91.55722 417.60676-92.18363 422.4739-93.75492 426.50019-96.75786 429.47093-100.39588"/>
<path transform="matrix(1,0,0,-1,291.6669,40.21695)" stroke-width=".75" stroke-linecap="round" stroke-linejoin="round" fill="none" stroke="#000000" d="M331.2355-92.29977C278.62858-92.08609 224.68415-92.29466 171.29685-92.28508 171.84728-69.37089 172.03925-45.834726 171.46823-22.06638"/>
<path transform="matrix(1,0,0,-1,291.6669,40.21695)" stroke-width=".75" stroke-linecap="round" stroke-linejoin="round" fill="none" stroke="#000000" d="M179.65894-35.1119C175.62726-31.076909 172.77208-27.345847 171.86542-22.225613 170.39122-27.209559 167.62062-31.502316 163.99678-34.58287"/>
<path transform="matrix(1,0,0,-1,291.6669,40.21695)" stroke-width=".75" stroke-linecap="round" stroke-linejoin="round" fill="none" stroke="#000000" d="M331.23338-184.40274C250.07636-185.12558 168.07646-184.50629 85.845409-185.21974 85.70808-130.60808 85.75888-76.48979 85.95205-21.689387"/>
<path transform="matrix(1,0,0,-1,291.6669,40.21695)" stroke-width=".75" stroke-linecap="round" stroke-linejoin="round" fill="none" stroke="#000000" d="M93.68596-34.800638C90.04743-31.777838 87.025928-27.074055 85.519489-21.610943 84.39586-26.66438 81.432888-31.85546 77.49966-34.980329"/>
<path transform="matrix(1,0,0,-1,291.6669,40.21695)" stroke-width=".75" stroke-linecap="round" stroke-linejoin="round" fill="none" stroke="#000000" d="M534.2379 .050471C534.40359-91.97985 534.84097-185.13199 534.9298-277.46934 495.3989-277.16755 456.53636-277.5139 417.10948-277.23365"/>
<path transform="matrix(1,0,0,-1,291.6669,40.21695)" stroke-width=".75" stroke-linecap="round" stroke-linejoin="round" fill="none" stroke="#000000" d="M429.99745-269.17549C426.38658-273.45307 422.13288-276.38829 417.15428-276.78178 422.0074-278.09196 426.8824-281.39503 429.7324-285.49284"/>
<path transform="matrix(1,0,0,-1,291.6669,40.21695)" stroke-width=".75" stroke-linecap="round" stroke-linejoin="round" fill="none" stroke="#000000" d="M331.90119-277.40013C220.85735-277.6763 110.33188-277.58125 .205321-277.2993-.122648-192.46552-.033377-106.72408 .415866-21.981009"/>
<path transform="matrix(1,0,0,-1,291.6669,40.21695)" stroke-width=".75" stroke-linecap="round" stroke-linejoin="round" fill="none" stroke="#000000" d="M8.167813-34.967737C3.588366-31.239699 1.443532-26.82388-.040605-21.881247-1.557964-27.444987-4.346216-31.801348-8.326951-35.015825"/>
<use data-text="+" xlink:href="#font_8_1" transform="matrix(21.519354,0,0,-21.519316,339.43193,32.47406)"/>
<use data-text="&#x2212;" xlink:href="#font_8_7" transform="matrix(21.519371,0,0,-21.519288,383.6311,70.826358)"/>
<use data-text="+" xlink:href="#font_8_1" transform="matrix(21.519354,0,0,-21.519316,425.2462,32.47406)"/>
<use data-text="&#x2212;" xlink:href="#font_8_7" transform="matrix(21.519371,0,0,-21.519288,469.44538,70.826358)"/>
</svg>
