<svg xmlns="http://www.w3.org/2000/svg" xmlns:xlink="http://www.w3.org/1999/xlink" version="1.1" width="1135.2621" height="343.26905" viewBox="0 0 1135.2621 343.26905">
<defs>
<path id="font_11_1" d="M.04598999 .23632813H.35598756V-.07368469L.3959961-.06668091V.23632813H.70399478L.70899966 .2763214H.3959961V.58631899L.35598756 .58032229V.2763214H.052993776L.04598999 .23632813Z"/>
<path id="font_11_2" d="M.08999634 .32458497C.08999634 .22958374 .114990238 .13148499 .18299866 .06341553 .23699951 .009384155 .31199647-.016601563 .3880005-.016601563 .46099855-.016601563 .56900027 .010391235 .6569977 .03338623 .6569977 .03338623 .6539917 .216568 .6519928 .30760194L.37599183 .2966156V.27061463L.38198854 .265625C.43598939 .26361085 .5 .25961305 .5439911 .25660707 .57199099 .25460816 .57199099 .22257996 .57199099 .13449097 .57199099 .061416627 .56900027 .04940796 .5519867 .045394899 .5209961 .038391115 .48999024 .03538513 .45799256 .03538513 .37998963 .03538513 .30599977 .060409547 .2619934 .112472537 .20399475 .18052674 .17999268 .25260926 .17999268 .3405609 .17999268 .48339845 .23199463 .5653076 .26098634 .5942688 .3039856 .63623049 .36299134 .6502075 .42199708 .6502075 .5529938 .6502075 .59298709 .5563202 .60598757 .53034976L.6179962 .5293579 .6759949 .58628848C.6649933 .6032715 .6119995 .69921877 .46699525 .69921877 .3619995 .69921877 .25698854 .6682129 .18199158 .593277 .11199951 .5233612 .08999634 .4224701 .08999634 .32458497Z"/>
<path id="font_11_3" d="M.1349945 .6123047H.22898865C.25698854 .6123047 .27999879 .59129336 .2809906 .5662842 .28199769 .541275 .28199769 .46824647 .28199769 .41923524 .28199769 .27919007 .27799989 .13916016 .272995 .00010681152L.28599549-.0048828127 .3809967 .022125245C.37799073 .09814453 .37799073 .2962036 .37799073 .43223573 .37799073 .52127078 .37998963 .6112976 .38598634 .7003021L.3789978 .71229556 .1349945 .6392975V.6123047Z"/>
<path id="font_11_4" d="M.11299133 .24990845C.11299133 .007904053 .1519928-.09008789 .18299866-.13310242 .21099854-.17008972 .25299073-.20809937 .30099488-.21209717V-.1880951C.2809906-.18409729 .25099183-.16809082 .23399353-.1481018 .21998596-.13209534 .16499329-.05809021 .16499329 .24990845 .16499329 .4618988 .19799805 .5659027 .21998596 .6128998 .23599243 .6469116 .2689972 .6769104 .30099488 .684906V.71191409C.2599945 .7049103 .21598816 .6729126 .19099427 .63790896 .1599884 .5919037 .11299133 .4748993 .11299133 .24990845Z"/>
<path id="font_11_5" d="M.051986696 .06642151C.06199646 .047409059 .07598877 .030395508 .09199524 .01638794 .12098694-.009613037 .16099549-.016601563 .19898987-.016601563 .2559967-.016601563 .31199647 .0023956299 .35099793 .044403078 .375 .06941223 .3869934 .10343933 .3869934 .13845825 .3869934 .1634674 .37298585 .18649292 .35499574 .20449829 .34098817 .21850586 .3039856 .24052429 .27198792 .25453187 .24299622 .26654054 .19999695 .2885437 .18798828 .30055238 .17298889 .31655885 .1619873 .3285675 .1619873 .35058595 .1619873 .3725891 .16899109 .39360047 .18499756 .4086151 .19999695 .42362977 .22200012 .43164063 .24398804 .43164063 .2639923 .43164063 .2849884 .42462159 .29599 .4066162 .30599977 .39060975 .30799867 .3715973 .30899049 .35359193L.32099916 .34657289 .37599183 .38360597C.375 .40560914 .3639984 .42662049 .34799195 .44163514 .32499696 .46263124 .29299928 .46662904 .2630005 .46662904 .21398926 .46662904 .16699219 .45063783 .1309967 .4176178 .10398865 .39360047 .08999634 .35858155 .08999634 .32356263 .08999634 .29154969 .10798645 .26353456 .1309967 .2425232 .1539917 .22250366 .18399048 .2084961 .21499634 .1954956 .24099732 .18447876 .2689972 .17248535 .28799439 .1534729 .30299378 .13845825 .31399537 .11845398 .31399537 .09744263 .31399537 .079422 .30499269 .062408449 .29299928 .04940796 .27799989 .03340149 .25099183 .021392823 .22898865 .021392823 .19898987 .021392823 .17199707 .03439331 .1499939 .055404664 .1269989 .076416019 .116989139 .10644531 .114990238 .13645935L.100997928 .13745117 .051986696 .06642151Z"/>
<path id="font_11_6" d="M.085998538-.1880951V-.21209717C.13398743-.20610047 .1789856-.17208863 .20698548-.13510132 .23799134-.09210205 .27598573 .007904053 .27598573 .24990845 .27598573 .50090029 .22399903 .5919037 .19299317 .63790896 .16799927 .6729126 .1269989 .7049103 .085998538 .71191409V.684906C.117996219 .6759033 .14898682 .6469116 .16499329 .6128998 .18699646 .5659027 .22399903 .48190309 .22399903 .24990845 .22399903-.099090579 .17199707-.13209534 .1579895-.1481018 .14099121-.16809082 .10598755-.18409729 .085998538-.1880951Z"/>
<path id="font_11_10" d="M.04499817 .001953125H.5379944L.56399539 .079940799 .5589905 .08795166H.20999146C.20399475 .08795166 .19799805 .08894348 .19599915 .092941287 .19499207 .094940189 .19599915 .09794617 .19699097 .09895325 .2539978 .1569519 .30799867 .21495056 .35899354 .27496339 .394989 .31697084 .42999269 .358963 .45799256 .40496827 .48799134 .4509735 .5119934 .49998475 .5119934 .5529938 .5119934 .59399417 .49899293 .6349945 .46499635 .66400149 .43199159 .69299319 .3880005 .7080078 .34199525 .7080078 .29899598 .7080078 .2579956 .6970062 .22099304 .67900088 .17599488 .65800479 .13699341 .6279907 .102996829 .59498599L.125 .57598879C.1519928 .59599307 .17799378 .61099246 .20999146 .6259918 .23098755 .6360016 .2559967 .6399994 .2809906 .6399994 .31399537 .6399994 .34700013 .6289978 .37098695 .6069946 .40098573 .5779877 .4079895 .5369873 .4079895 .50798037 .4079895 .4429779 .38198854 .38197328 .34298707 .3259735 .31098939 .27996827 .27198792 .23796082 .23199463 .19696045 .17199707 .13494873 .10899353 .07594299 .04499817 .017944336V.001953125Z"/>
<path id="font_11_11" d="M.050994874 .049362184 .05899048 .038375856C.10998535 .0033874512 .17098999-.016601563 .23599243-.016601563 .31799317-.016601563 .397995 .008392334 .45700074 .05935669 .5039978 .10131836 .5349884 .15626526 .5349884 .21520996 .5349884 .25416566 .519989 .2911377 .48999024 .31811524 .46899415 .3360901 .44198609 .34709168 .41600038 .35508729 .3789978 .36608888 .34199525 .37109376 .30299378 .37408448V.38209535C.34999085 .39408876 .3939972 .41609193 .42900086 .44610597 .46499635 .47810365 .48199464 .52311709 .48199464 .5681305 .48199464 .60414126 .46798707 .6401367 .43899537 .6651459 .40699769 .6941376 .36099244 .70214846 .31698609 .70214846 .2849884 .70214846 .25498963 .69114688 .22599793 .67814639 .18598938 .6591339 .14698792 .63414 .11199951 .60813906L.12799073 .58613589C.1539917 .60113528 .17999268 .6151428 .20799256 .6261444 .22799683 .6331482 .24699402 .6391449 .2659912 .6391449 .2999878 .6391449 .33299256 .6321411 .35598756 .61112979 .37799073 .59213259 .3889923 .5671234 .3889923 .54011538 .3889923 .502121 .37199403 .46510316 .34098817 .43710328 .32299806 .4210968 .29899598 .40908814 .27398683 .39909364 .24198914 .38609315 .20698548 .37808229 .17298889 .37109376L.17199707 .34509278C.21398926 .34509278 .2559967 .34309388 .29699708 .3340912 .32499696 .32809449 .35299684 .31910707 .37298585 .30012513 .4059906 .26914979 .42900086 .22920227 .42900086 .18623352 .42900086 .14128113 .41299439 .095321658 .3769989 .06335449 .34599305 .036376954 .30599977 .023391724 .2639923 .023391724 .22299195 .023391724 .18499756 .041366579 .1559906 .067352298 .13798523 .08332825 .12399292 .10131836 .10998535 .121292117H.09899902L.050994874 .049362184Z"/>
<path id="font_11_14" d="M.02999878 .19134522H.34999085L.35899354 .18232727C.35899354 .119262699 .35899354 .03616333 .35299684 .0011138916L.35899354-.0048828127 .44898988 .028152466C.44599916 .0501709 .44599916 .12927246 .44599916 .18333435L.45399476 .19134522H.5469971L.5649872 .22834778 .55999758 .23535156H.45399476L.44599916 .24433899C.44599916 .39926148 .44599916 .67111209 .44699098 .6980896L.43899537 .70410159 .35299684 .66911318 .02999878 .23535156V.19134522M.10398865 .24234009C.10398865 .264328 .19898987 .4022522 .24198914 .46122743 .2749939 .50619509 .30899049 .5521698 .34700013 .591156 .34999085 .5931549 .35499574 .5941467 .35798646 .591156 .35798646 .5901489 .35899354 .5871582 .35899354 .5851593V.24334717L.35198976 .23535156H.10899353L.10398865 .24234009Z"/>
<path id="font_11_12" d="M.051986696 .6781769 .052993776 .6591797C.07299805 .65216067 .10899353 .6411438 .11299133 .6401367 .12298584 .6361389 .125 .6251221 .12599182 .6161041 .1309967 .53297427 .13198853 .44985963 .13198853 .36676026 .13198853 .24482727 .13198853 .11590576 .12199402 .0029907227L.12799073-.0020141602 .21998596 .025970459C.21699524 .051956178 .21499634 .10292053 .21499634 .1798706V.33377076C.21499634 .34075929 .22099304 .34576417 .22799683 .34576417H.57099917C.5799866 .34576417 .58299258 .33876039 .58299258 .33377076 .58299258 .23683167 .5799866 .11790466 .5779877 .020980835L.58898928 0 .73799136 .0078125 .74398806 .013809204 .7429962 .031799318C.72499087 .03981018 .66600039 .03981018 .66600039 .07879639 .66600039 .09979248 .6619873 .24076844 .6619873 .32176209 .6619873 .5129547 .66999819 .64515689 .6729889 .6841736L.66799929 .6901703 .5799866 .673172C.5799866 .58706668 .58299258 .48291017 .58299258 .3967743 .58299258 .39076234 .58200076 .38476563 .57099917 .38476563H.22499085C.21499634 .38476563 .21299744 .3917694 .21299744 .3967743 .21299744 .4618683 .21699524 .54600527 .21899414 .61109927 .21998596 .63414 .22200012 .6581726 .22599793 .6801758L.22099304 .6851654H.05899048L.051986696 .6781769Z"/>
<path id="font_11_7" d="M.04598999 .23046875H.70399478L.70999148 .27046205H.052993776L.04598999 .23046875Z"/>
<path id="font_11_8" d="M.033996583 .6733093 .035995485 .6533203C.037994386 .6533203 .07398987 .6443176 .09199524 .63931277 .12298584 .6313019 .125 .6222992 .125 .54229739 .125 .46427918 .12199402 .38627626 .12199402 .30825807 .12199402 .24723816 .12399292 .17323303 .12998963 .12721253 .1349945 .08821106 .1559906-.0087890629 .31399537-.0087890629 .39698792-.0087890629 .47698976 .02520752 .5469971 .07020569L.5549927 .064208988C.5549927 .048202516 .5549927 .032196046 .55599978 .016204834 .55799868 .0012054443 .57598879-.0047912599 .58799746-.0047912599 .61898806-.0047912599 .6899872 .016204834 .7409973 .032196046L.74598696 .03919983 .74198916 .05619812C.7220001 .05419922 .70399478 .048202516 .6839905 .048202516 .673996 .048202516 .6609955 .050201417 .6539917 .0592041 .6389923 .07620239 .6359863 .15222168 .6359863 .20223999 .6359863 .3642578 .6369934 .5733032 .6519928 .68733218L.6459961 .69433596 .55799868 .659317C.55599978 .47727967 .55400088 .2942505 .55400088 .11122131 .5 .079208377 .43998719 .052200319 .37799073 .052200319 .24598694 .052200319 .22399903 .13922119 .21598816 .16522217 .20599365 .19923401 .20199585 .23423767 .20199585 .26924134L.20999146 .54229739C.20999146 .55929568 .21598816 .6603241 .21798706 .67433169L.21099854 .6803131H.041992189L.033996583 .6733093Z"/>
<path id="font_11_9" d="M.022994996 .6513672C.036987306 .649353 .049987794 .6463623 .06298828 .6433563 .07199097 .6413574 .07998657 .6353607 .085998538 .62835696 .09599304 .61834719 .102996829 .60635378 .10899353 .5943451L.2579956 .29930116C.2579956 .19927979 .2579956 .0982666 .25498963-.0017547608L.2659912-.0107421879 .35598756 .018249512 .34700013 .30630494C.42999269 .4343109 .5039978 .5303345 .61499026 .675354L.61099246 .6933594 .526001 .6763611C.48999024 .619339 .4059906 .47431947 .397995 .46032716 .3849945 .4373169 .34199525 .36730958 .33898927 .3623047 .33599855 .3572998 .33198548 .353302 .32798768 .353302 .32199098 .353302 .31698609 .3592987 .31599427 .36131288L.1749878 .6863556H.02999878L.022994996 .67936709V.6513672Z"/>
</defs>
<use data-text="+" xlink:href="#font_11_1" transform="matrix(37.185197,0,0,-37.18505,128.25067,134.98947)"/>
<use data-text="+" xlink:href="#font_11_1" transform="matrix(37.185197,0,0,-37.18505,384.70133,134.98947)"/>
<use data-text="+" xlink:href="#font_11_1" transform="matrix(37.185197,0,0,-37.18505,641.152,134.98947)"/>
<use data-text="G" xlink:href="#font_11_2" transform="matrix(21.519362,0,0,-21.519398,242.71637,130.84995)"/>
<use data-text="1" xlink:href="#font_11_3" transform="matrix(16.438399,0,0,-16.438426,259.1836,135.15091)"/>
<use data-text="(" xlink:href="#font_11_4" transform="matrix(21.519362,0,0,-21.519398,269.42619,130.84995)"/>
<use data-text="s" xlink:href="#font_11_5" transform="matrix(21.519362,0,0,-21.519398,278.9713,130.84995)"/>
<use data-text=")" xlink:href="#font_11_6" transform="matrix(21.519362,0,0,-21.519398,289.95829,130.84995)"/>
<use data-text="G" xlink:href="#font_11_2" transform="matrix(21.519362,0,0,-21.519398,499.16703,130.84995)"/>
<use data-text="2" xlink:href="#font_11_10" transform="matrix(16.438399,0,0,-16.438426,515.6343,135.08515)"/>
<use data-text="(" xlink:href="#font_11_4" transform="matrix(21.519362,0,0,-21.519398,525.87686,130.84995)"/>
<use data-text="s" xlink:href="#font_11_5" transform="matrix(21.519362,0,0,-21.519398,535.422,130.84995)"/>
<use data-text=")" xlink:href="#font_11_6" transform="matrix(21.519362,0,0,-21.519398,546.40896,130.84995)"/>
<use data-text="G" xlink:href="#font_11_2" transform="matrix(21.519362,0,0,-21.519398,755.6177,130.84995)"/>
<use data-text="3" xlink:href="#font_11_11" transform="matrix(16.438399,0,0,-16.438426,772.08499,134.98651)"/>
<use data-text="(" xlink:href="#font_11_4" transform="matrix(21.519362,0,0,-21.519398,782.3275,130.84995)"/>
<use data-text="s" xlink:href="#font_11_5" transform="matrix(21.519362,0,0,-21.519398,791.8727,130.84995)"/>
<use data-text=")" xlink:href="#font_11_6" transform="matrix(21.519362,0,0,-21.519398,802.8596,130.84995)"/>
<use data-text="G" xlink:href="#font_11_2" transform="matrix(21.519343,0,0,-21.519398,926.25399,130.84995)"/>
<use data-text="4" xlink:href="#font_11_14" transform="matrix(16.438384,0,0,-16.438426,942.7376,135.01938)"/>
<use data-text="(" xlink:href="#font_11_4" transform="matrix(21.519343,0,0,-21.519398,952.98019,130.84995)"/>
<use data-text="s" xlink:href="#font_11_5" transform="matrix(21.519343,0,0,-21.519398,962.5252,130.84995)"/>
<use data-text=")" xlink:href="#font_11_6" transform="matrix(21.519343,0,0,-21.519398,973.51217,130.84995)"/>
<use data-text="H" xlink:href="#font_11_12" transform="matrix(21.51913,0,0,-21.519398,840.7462,223.25835)"/>
<use data-text="1" xlink:href="#font_11_3" transform="matrix(16.438221,0,0,-16.438426,857.6007,227.55931)"/>
<use data-text="(" xlink:href="#font_11_4" transform="matrix(21.51913,0,0,-21.519398,867.84317,223.25835)"/>
<use data-text="s" xlink:href="#font_11_5" transform="matrix(21.51913,0,0,-21.519398,877.3882,223.25835)"/>
<use data-text=")" xlink:href="#font_11_6" transform="matrix(21.51913,0,0,-21.519398,888.375,223.25835)"/>
<use data-text="H" xlink:href="#font_11_12" transform="matrix(21.51913,0,0,-21.519398,498.9733,38.44162)"/>
<use data-text="2" xlink:href="#font_11_10" transform="matrix(16.438221,0,0,-16.438426,515.82778,42.67685)"/>
<use data-text="(" xlink:href="#font_11_4" transform="matrix(21.51913,0,0,-21.519398,526.0703,38.44162)"/>
<use data-text="s" xlink:href="#font_11_5" transform="matrix(21.51913,0,0,-21.519398,535.61526,38.44162)"/>
<use data-text=")" xlink:href="#font_11_6" transform="matrix(21.51913,0,0,-21.519398,546.60208,38.44162)"/>
<use data-text="H" xlink:href="#font_11_12" transform="matrix(21.51913,0,0,-21.519398,498.9733,315.66676)"/>
<use data-text="3" xlink:href="#font_11_11" transform="matrix(16.438221,0,0,-16.438426,515.82778,319.80329)"/>
<use data-text="(" xlink:href="#font_11_4" transform="matrix(21.51913,0,0,-21.519398,526.0703,315.66676)"/>
<use data-text="s" xlink:href="#font_11_5" transform="matrix(21.51913,0,0,-21.519398,535.61526,315.66676)"/>
<use data-text=")" xlink:href="#font_11_6" transform="matrix(21.51913,0,0,-21.519398,546.60208,315.66676)"/>
<path transform="matrix(1,0,0,-1,868.735,125.46867)" stroke-width=".75" stroke-linecap="round" stroke-linejoin="round" fill="none" stroke="#000000" d="M-626.7964-25.34988C-626.7131-24.4471-626.7074-24.885054-625.1406-24.445437-608.3151-24.76233-589.2522-25.87261-571.1184-25.31201-555.1949-24.527714-554.8524-24.514563-554.978-9.253305-556.34249-3.127776-556.30197 4.075622-555.2608 10.587436-555.9108 24.901816-556.34817 24.608613-570.7204 24.33365-588.25588 25.81569-606.9607 24.042515-626.0234 23.988589-640.1974 25.213877-641.17898 25.528233-641.6147 10.690192-640.46847 4.079813-640.88528-2.351604-641.7152-10.233301-641.3267-25.621899-641.9054-24.101527-626.7964-25.34988Z"/>
<path transform="matrix(1,0,0,-1,868.735,125.46867)" stroke-width=".75" stroke-linecap="round" stroke-linejoin="round" fill="none" stroke="#000000" d="M-368.83045-24.648636C-369.35093-23.991108-370.20356-24.117453-369.18269-24.021939-350.46467-24.284293-331.74824-25.59197-314.5043-24.618165-299.8539-24.570677-298.8666-24.785134-298.8082-10.258105-298.7493-2.687231-298.02143 3.929317-299.83018 10.83883-299.4459 24.92493-298.00267 24.31204-314.44233 24.69588-331.81806 25.869212-350.8749 24.55571-369.92536 25.65132-385.07646 25.143504-384.15525 25.841324-384.44505 9.495238-384.09336 4.093981-383.60374-2.842262-384.31547-9.221273-383.95295-25.48474-385.22633-25.437836-368.83045-24.648636Z"/>
<path transform="matrix(1,0,0,-1,868.735,125.46867)" stroke-width=".75" stroke-linecap="round" stroke-linejoin="round" fill="none" stroke="#000000" d="M-113.07933-25.59967C-112.81243-25.614394-112.34329-24.092953-114.02131-24.720318-93.67598-24.814995-76.07589-24.2419-57.65669-24.118979-42.832284-24.815682-42.19777-24.168494-42.368974-9.627777-43.12623-4.081637-42.243497 3.324725-42.806386 9.540528-43.007757 25.788838-43.30865 24.968754-56.794687 24.413294-76.744869 25.625397-94.53395 24.360514-112.276729 24.02478-127.744579 24.307742-128.27194 25.247286-127.635478 9.76628-129.06078 3.484441-128.37825-3.301368-127.261959-10.673542-129.04865-24.386744-127.75283-24.499276-113.07933-25.59967Z"/>
<path transform="matrix(1,0,0,-1,868.735,125.46867)" stroke-width=".75" stroke-linecap="round" stroke-linejoin="round" fill="none" stroke="#000000" d="M57.485357-24.246504C58.263399-25.624007 57.087175-24.684056 58.296659-25.85955 76.52553-25.656788 94.05287-24.141057 114.04689-24.66022 128.17169-24.414134 127.53709-24.974888 128.18653-10.767536 127.37983-2.815319 127.85294 4.038949 127.49046 10.724607 127.53426 24.203263 128.92166 24.579535 113.168888 25.26144 94.715328 24.846074 75.167499 25.61976 57.607118 25.342743 43.311674 25.439 41.751535 24.060019 42.27595 10.788709 42.694128 2.516478 41.914106-3.797936 42.8594-9.772952 42.0044-25.792227 43.45137-25.767369 57.485357-24.246504Z"/>
<path transform="matrix(1,0,0,-1,868.735,125.46867)" stroke-width=".75" stroke-linecap="round" stroke-linejoin="round" fill="none" stroke="#000000" d="M-27.587416-116.77626C-27.84687-118.14706-27.26602-116.54315-28.554358-117.824817-9.982795-116.78013 9.416585-117.37241 28.442807-116.64991 42.668275-117.787189 42.550535-117.20659 43.00333-103.08978 43.391138-94.93984 42.32483-88.37301 42.213487-82.24713 43.139028-67.289447 42.982458-67.79616 27.697049-67.25007 8.412294-68.16879-8.866174-66.781978-27.108145-68.07357-43.8223-67.023578-42.154485-67.32221-43.44084-82.66947-42.797636-88.55818-43.038217-95.40555-42.619646-102.6732-43.3055-116.447368-42.711694-117.28203-27.587416-116.77626Z"/>
<path transform="matrix(1,0,0,-1,868.735,125.46867)" stroke-width=".75" stroke-linecap="round" stroke-linejoin="round" fill="none" stroke="#000000" d="M-370.0724 66.77464C-369.714 66.776729-370.6145 67.96647-370.68614 68.09476-351.7481 66.85926-332.53038 67.09866-312.84706 67.00834-299.6917 68.37462-298.8619 67.723728-298.22798 81.912738-298.4819 88.17643-298.90718 96.62081-298.6971 102.02659-298.86433 117.55088-299.0966 116.773387-314.0399 117.05807-331.85447 118.147228-351.56565 116.59059-370.337 116.7936-385.2939 117.84205-384.1772 117.1043-384.76609 101.84858-383.94969 96.3438-384.77543 89.75395-384.65336 82.08557-384.07716 67.0053-385.4322 68.333438-370.0724 66.77464Z"/>
<path transform="matrix(1,0,0,-1,868.735,125.46867)" stroke-width=".75" stroke-linecap="round" stroke-linejoin="round" fill="none" stroke="#000000" d="M-369.88096-209.69293C-369.139-209.63037-370.61643-208.80677-369.85585-209.36324-350.2027-209.02449-332.5024-209.04682-314.642-208.91925-298.51506-209.39694-298.75413-210.4414-299.69029-195.72867-297.94386-187.57759-299.566-181.03-298.12147-175.62754-298.6811-159.99748-298.13868-160.58371-313.479-158.95412-333.0609-159.10808-350.17167-159.25824-368.92173-160.10245-385.7307-159.26815-385.673-159.3169-384.28468-174.19243-384.21928-181.71341-385.5539-188.21535-383.98326-195.07137-384.508-210.6261-385.03285-208.96237-369.88096-209.69293Z"/>
<path transform="matrix(1,0,0,-1,868.735,125.46867)" stroke-width=".75" stroke-linecap="round" stroke-linejoin="round" fill="none" stroke="#000000" d="M-703.9021 .947535C-705.0626 11.905298-714.22909 21.228686-726.5744 20.946763-739.1111 20.901789-748.06527 11.922231-748.3085-.929126-747.6715-11.710855-737.54318-21.230586-725.81918-21.234251-713.7765-21.014878-704.6837-11.427909-703.9021 .947535Z"/>
<path transform="matrix(1,0,0,-1,868.735,125.46867)" stroke-width=".75" stroke-linecap="round" stroke-linejoin="round" fill="none" stroke="#000000" d="M-448.56816 .380049C-448.02906 12.73236-457.59156 21.825848-470.6396 21.15712-482.57179 21.481968-491.90403 12.782575-490.87193-.674513-491.16474-12.514387-481.36137-21.868859-470.9591-20.951703-458.50346-22.533007-447.47679-11.75694-448.56816 .380049Z"/>
<path transform="matrix(1,0,0,-1,868.735,125.46867)" stroke-width=".75" stroke-linecap="round" stroke-linejoin="round" fill="none" stroke="#000000" d="M-191.84052 .747686C-191.46903 12.073475-201.7668 21.958384-213.177 21.35203-225.82178 22.058478-234.2952 12.591861-235.5199-.759281-235.16973-12.78634-224.6237-22.223402-214.20008-20.7701-202.04833-21.774233-192.84772-11.605998-191.84052 .747686Z"/>
<path transform="matrix(1,0,0,-1,868.735,125.46867)" stroke-width=".75" stroke-linecap="round" stroke-linejoin="round" fill="none" stroke="#000000" d="M-811.6863-.00917C-791.1062-.038502-769.4243 .332295-748.23208-.334293"/>
<path transform="matrix(1,0,0,-1,868.735,125.46867)" stroke-width=".75" stroke-linecap="round" stroke-linejoin="round" fill="none" stroke="#000000" d="M-760.6782-8.06844C-757.8558-4.396465-753.609-.720225-748.4131 .401386-753.6365 .932723-757.7951 4.421187-761.30636 7.782521"/>
<path transform="matrix(1,0,0,-1,868.735,125.46867)" stroke-width=".75" stroke-linecap="round" stroke-linejoin="round" fill="none" stroke="#000000" d="M-704.5182 .018641C-683.51248-.023669-662.4733 .35344-641.65267 .321404"/>
<path transform="matrix(1,0,0,-1,868.735,125.46867)" stroke-width=".75" stroke-linecap="round" stroke-linejoin="round" fill="none" stroke="#000000" d="M-654.3093-8.192446C-651.0212-4.443229-646.73269-1.344995-641.38967-.426966-646.36276 .963158-650.9719 4.156557-654.0412 7.826687"/>
<path transform="matrix(1,0,0,-1,868.735,125.46867)" stroke-width=".75" stroke-linecap="round" stroke-linejoin="round" fill="none" stroke="#000000" d="M-555.8204 .362141C-534.5001-.409196-513.0181-.426093-492.1939 .081251"/>
<path transform="matrix(1,0,0,-1,868.735,125.46867)" stroke-width=".75" stroke-linecap="round" stroke-linejoin="round" fill="none" stroke="#000000" d="M-505.03279-7.820873C-501.43446-4.278924-497.36-1.055156-491.65144 .253286-497.0853 1.122234-501.3995 4.085298-505.0709 8.237241"/>
<path transform="matrix(1,0,0,-1,868.735,125.46867)" stroke-width=".75" stroke-linecap="round" stroke-linejoin="round" fill="none" stroke="#000000" d="M-447.98924-.056022C-426.84358-.164994-406.06877-.11581-384.6753 .002008"/>
<path transform="matrix(1,0,0,-1,868.735,125.46867)" stroke-width=".75" stroke-linecap="round" stroke-linejoin="round" fill="none" stroke="#000000" d="M-397.5729-8.109395C-394.7461-4.007324-390.22096-.86153-384.67048-.240887-390.11106 1.459571-394.82655 4.09037-397.89976 8.372137"/>
<path transform="matrix(1,0,0,-1,868.735,125.46867)" stroke-width=".75" stroke-linecap="round" stroke-linejoin="round" fill="none" stroke="#000000" d="M-298.70045 .110379C-277.79096-.040239-256.40623-.06427-235.44234 .111249"/>
<path transform="matrix(1,0,0,-1,868.735,125.46867)" stroke-width=".75" stroke-linecap="round" stroke-linejoin="round" fill="none" stroke="#000000" d="M-248.07289-8.209042C-244.96605-4.075464-241.00096-.761697-235.57535-.41346-240.18672 .714133-245.32889 4.370664-247.78247 7.822746"/>
<path transform="matrix(1,0,0,-1,868.735,125.46867)" stroke-width=".75" stroke-linecap="round" stroke-linejoin="round" fill="none" stroke="#000000" d="M-192.05103 .161424C-171.20096-.232591-149.94661-.138267-128.636 .364717"/>
<path transform="matrix(1,0,0,-1,868.735,125.46867)" stroke-width=".75" stroke-linecap="round" stroke-linejoin="round" fill="none" stroke="#000000" d="M-140.81037-8.325234C-137.86296-3.850441-133.44022-1.042124-128.04878 .383518-133.93025 1.417472-137.55393 3.914239-140.73926 7.941997"/>
<path transform="matrix(1,0,0,-1,868.735,125.46867)" stroke-width=".75" stroke-linecap="round" stroke-linejoin="round" fill="none" stroke="#000000" d="M-42.272069-.333966C-14.600803 .095977 14.187905-.296738 42.24773-.404889"/>
<path transform="matrix(1,0,0,-1,868.735,125.46867)" stroke-width=".75" stroke-linecap="round" stroke-linejoin="round" fill="none" stroke="#000000" d="M29.65384-7.70345C32.771944-3.920048 37.017717-.754485 41.717935-.250397 36.984 .715525 32.92806 4.382557 29.51392 8.27783"/>
<path transform="matrix(1,0,0,-1,868.735,125.46867)" stroke-width=".75" stroke-linecap="round" stroke-linejoin="round" fill="none" stroke="#000000" d="M127.75535-.22927C156.15671-.088056 184.80228-.087149 213.2963-.151306"/>
<path transform="matrix(1,0,0,-1,868.735,125.46867)" stroke-width=".75" stroke-linecap="round" stroke-linejoin="round" fill="none" stroke="#000000" d="M200.52411-8.314175C204.10062-3.68883 208.27841-1.560496 213.14824-.005941 208.10663 1.38905 203.98387 3.754123 200.33754 8.233061"/>
<path transform="matrix(1,0,0,-1,868.735,125.46867)" stroke-width=".75" stroke-linecap="round" stroke-linejoin="round" fill="none" stroke="#000000" d="M-.039775 .293431C.06298 31.122315-.051416 61.85397-.072637 92.284297-99.41628 92.71106-199.47559 92.3185-299.06986 92.484409"/>
<path transform="matrix(1,0,0,-1,868.735,125.46867)" stroke-width=".75" stroke-linecap="round" stroke-linejoin="round" fill="none" stroke="#000000" d="M-286.43693 100.515018C-289.88005 96.660579-293.77119 93.775798-299.22773 92.21437-293.86326 91.402828-290.09736 88.06347-286.39173 84.462978"/>
<path transform="matrix(1,0,0,-1,868.735,125.46867)" stroke-width=".75" stroke-linecap="round" stroke-linejoin="round" fill="none" stroke="#000000" d="M-384.74223 92.1189C-413.0088 92.0775-441.37236 92.151348-470.1054 92.40623-470.3269 69.02746-470.2708 45.870275-470.38829 22.08496"/>
<path transform="matrix(1,0,0,-1,868.735,125.46867)" stroke-width=".75" stroke-linecap="round" stroke-linejoin="round" fill="none" stroke="#000000" d="M-478.3236 34.62363C-473.89707 31.32727-471.3479 26.777493-470.03266 22.430396-468.85325 26.873728-465.98844 31.67597-461.77238 34.3337"/>
<path transform="matrix(1,0,0,-1,868.735,125.46867)" stroke-width=".75" stroke-linecap="round" stroke-linejoin="round" fill="none" stroke="#000000" d="M171.071-.118134C170.46929-30.530753 170.27013-61.40155 170.46256-92.8455 128.0824-92.307918 85.418178-92.63508 42.671197-92.37687"/>
<path transform="matrix(1,0,0,-1,868.735,125.46867)" stroke-width=".75" stroke-linecap="round" stroke-linejoin="round" fill="none" stroke="#000000" d="M55.16361-83.99641C52.47742-88.31739 47.64239-90.92955 42.763219-92.42561 47.714479-93.19076 51.742517-96.36347 55.722684-100.61984"/>
<path transform="matrix(1,0,0,-1,868.735,125.46867)" stroke-width=".75" stroke-linecap="round" stroke-linejoin="round" fill="none" stroke="#000000" d="M-42.725545-91.98377C-99.60553-92.60308-156.54467-92.08774-213.76097-92.62134-213.8883-68.80777-213.55864-45.38321-213.41303-21.91791"/>
<path transform="matrix(1,0,0,-1,868.735,125.46867)" stroke-width=".75" stroke-linecap="round" stroke-linejoin="round" fill="none" stroke="#000000" d="M-205.14061-34.287107C-209.70374-31.3058-212.2981-27.323239-213.66916-22.371277-214.60503-26.622054-217.72496-31.73358-222.039-34.744737"/>
<path transform="matrix(1,0,0,-1,868.735,125.46867)" stroke-width=".75" stroke-linecap="round" stroke-linejoin="round" fill="none" stroke="#000000" d="M170.36376-.148044C170.70966-61.157304 170.62779-123.43426 170.43039-184.54862 14.39056-184.67823-142.8197-184.94007-298.99229-184.83319"/>
<path transform="matrix(1,0,0,-1,868.735,125.46867)" stroke-width=".75" stroke-linecap="round" stroke-linejoin="round" fill="none" stroke="#000000" d="M-286.17884-176.37018C-289.38853-180.88475-294.0304-183.7865-299.0629-184.97963-294.47648-185.52793-290.04887-188.81749-286.8743-192.56002"/>
<path transform="matrix(1,0,0,-1,868.735,125.46867)" stroke-width=".75" stroke-linecap="round" stroke-linejoin="round" fill="none" stroke="#000000" d="M-384.96238-184.70092C-498.70884-184.41924-612.43948-185.0702-726.48776-184.41855-726.353-130.62862-726.719-76.70423-726.49758-22.044816"/>
<path transform="matrix(1,0,0,-1,868.735,125.46867)" stroke-width=".75" stroke-linecap="round" stroke-linejoin="round" fill="none" stroke="#000000" d="M-718.08-34.435556C-722.29287-31.243546-725.3974-26.640959-726.2124-21.949465-727.91958-26.829049-730.4684-31.857876-734.5702-34.521818"/>
<path transform="matrix(1,0,0,-1,868.735,125.46867)" stroke-width=".75" stroke-linecap="round" stroke-linejoin="round" fill="none" stroke="#000000" d="M-626.84127-25.705569C-626.77847-25.323733-626.26406-25.278336-625.1771-24.248618-606.746-24.010087-588.97439-25.267102-570.53726-25.532525-555.57589-25.8189-555.21316-25.693623-556.0026-10.268369-555.10116-2.388733-555.60848 2.720324-555.7511 10.3683-554.60287 25.301163-555.9363 24.891797-570.81338 25.11042-588.56607 25.914162-607.1271 25.443526-625.1469 25.432953-641.9758 25.266692-641.4556 25.757882-641.9656 10.556604-641.72647 3.904787-641.40237-3.893544-640.6396-9.509494-641.3669-24.192156-641.72048-24.310757-626.84127-25.705569Z"/>
<path transform="matrix(1,0,0,-1,868.735,125.46867)" stroke-width=".75" stroke-linecap="round" stroke-linejoin="round" fill="none" stroke="#000000" d="M-369.69017-23.99176C-370.54005-25.780064-370.38926-25.105547-370.20503-24.315005-351.5904-24.04706-332.53376-25.754874-313.99995-25.783474-299.28138-24.247357-299.80708-24.15243-298.307-9.082325-298.68406-2.590198-299.94013 3.84447-299.33464 10.754615-298.78425 24.851403-298.5856 24.174546-314.5369 24.177952-333.4175 25.02547-350.47175 24.224282-370.5072 24.99808-384.43949 24.350556-383.90464 24.488484-383.7467 9.781332-385.07225 2.897991-383.65635-4.100992-384.68965-9.869219-385.13874-24.885777-384.8485-25.906083-369.69017-23.99176Z"/>
<path transform="matrix(1,0,0,-1,868.735,125.46867)" stroke-width=".75" stroke-linecap="round" stroke-linejoin="round" fill="none" stroke="#000000" d="M-113.03162-25.014147C-113.05391-25.065806-112.427867-24.228985-113.183818-24.194756-95.039699-25.70263-76.17917-24.777655-56.79765-24.858298-43.02716-25.330128-42.4148-24.361836-42.707628-10.257259-42.213045-2.940423-42.52232 3.403973-41.699014 10.452853-42.408143 25.788649-41.659475 24.066266-57.00852 25.28175-75.90605 25.199467-95.53086 25.188935-113.562458 25.110724-127.95529 24.797497-127.64059 24.592259-128.05298 10.795219-127.73952 3.107564-128.25833-4.073705-128.31632-10.109913-128.78598-25.006234-128.34746-25.409308-113.03162-25.014147Z"/>
<path transform="matrix(1,0,0,-1,868.735,125.46867)" stroke-width=".75" stroke-linecap="round" stroke-linejoin="round" fill="none" stroke="#000000" d="M56.98134-24.024397C58.46758-24.25862 57.458147-25.58702 57.254499-25.47983 75.82249-24.573977 94.24458-24.145787 113.01902-24.470726 128.80805-25.676352 128.76302-25.17866 128.36954-10.163948 127.16667-3.383594 128.81912 2.728764 128.29932 9.918831 128.57277 24.42011 127.84532 25.642462 113.91682 24.521447 95.41091 24.628314 76.74903 24.245814 57.976728 24.431445 42.854364 25.206009 41.96139 24.028954 42.85202 10.367395 42.366067 3.080718 43.392229-2.850732 42.960794-9.909371 42.562898-25.497138 42.61389-25.054568 56.98134-24.024397Z"/>
<path transform="matrix(1,0,0,-1,868.735,125.46867)" stroke-width=".75" stroke-linecap="round" stroke-linejoin="round" fill="none" stroke="#000000" d="M-27.508276-117.540309C-28.170586-117.13399-28.347229-117.691638-28.169207-118.038768-8.625385-117.61376 9.071766-117.49855 28.30236-118.328227 42.712175-118.02733 42.977273-118.18897 42.758195-102.83777 42.206094-95.04215 43.20199-89.81431 42.98403-82.24903 42.407594-66.99327 43.841859-67.5011 27.468228-66.921 8.54771-68.0232-8.609905-67.590778-28.820895-67.55496-43.858903-68.1558-42.140367-68.40251-43.858018-83.103168-43.479043-88.66818-42.94871-95.843608-42.35136-103.31318-42.602056-117.7584-43.128355-117.08116-27.508276-117.540309Z"/>
<path transform="matrix(1,0,0,-1,868.735,125.46867)" stroke-width=".75" stroke-linecap="round" stroke-linejoin="round" fill="none" stroke="#000000" d="M-369.25743 67.090259C-370.32408 66.68307-370.4916 67.41221-369.5551 68.09853-350.223 67.40654-331.6183 67.46522-313.13685 67.963268-299.50254 67.52995-299.7339 67.465259-298.59318 81.98151-298.95759 89.85315-299.694 95.054378-299.54383 102.50814-298.9143 118.22733-299.63667 118.144748-313.96568 116.383769-332.1496 117.724887-351.4173 118.32926-370.6807 116.59481-384.35517 117.79447-384.83808 117.66074-385.49348 101.983539-384.52986 94.84481-384.26335 88.706439-384.4849 82.29929-383.92634 67.22441-385.67219 67.07423-369.25743 67.090259Z"/>
<path transform="matrix(1,0,0,-1,868.735,125.46867)" stroke-width=".75" stroke-linecap="round" stroke-linejoin="round" fill="none" stroke="#000000" d="M-369.13563-210.08527C-370.09385-210.47919-369.1796-209.20046-369.86216-209.872-352.06095-210.10996-332.50865-208.88253-314.20597-210.58626-298.64308-209.86202-299.07435-209.0337-299.60768-195.16724-299.41035-187.20374-299.61299-181.78687-299.0267-174.47234-298.88929-159.36327-298.07179-160.27516-313.2953-158.96991-333.07414-159.65013-350.87855-160.4772-369.70375-160.15085-385.66398-159.53012-384.0594-159.46132-385.58787-174.54384-384.00413-180.69667-385.18284-187.34925-385.05857-194.02455-384.53434-209.51476-384.4482-210.41718-369.13563-210.08527Z"/>
<path transform="matrix(1,0,0,-1,868.735,125.46867)" stroke-width=".75" stroke-linecap="round" stroke-linejoin="round" fill="none" stroke="#000000" d="M-705.54208 .369335C-704.6401 12.806515-714.1484 21.952532-727.2544 21.09049-737.7026 20.680722-747.567 11.150366-747.9722-.948807-748.40396-12.355959-739.0253-22.387818-727.11087-22.425095-714.31387-22.145197-703.86758-12.677724-705.54208 .369335Z"/>
<path transform="matrix(1,0,0,-1,868.735,125.46867)" stroke-width=".75" stroke-linecap="round" stroke-linejoin="round" fill="none" stroke="#000000" d="M-448.93418 .470953C-447.65089 12.19826-458.69804 22.587958-470.82646 22.604617-482.54219 20.886626-492.45063 11.485739-492.57685 .857039-492.11848-10.983412-481.5842-22.436667-469.24617-21.884795-458.28993-21.652085-449.04396-12.606575-448.93418 .470953Z"/>
<path transform="matrix(1,0,0,-1,868.735,125.46867)" stroke-width=".75" stroke-linecap="round" stroke-linejoin="round" fill="none" stroke="#000000" d="M-191.24544 .617249C-191.78684 11.657878-201.26096 21.264193-212.58905 22.555659-224.99292 21.8892-236.00705 11.5775-234.42325 .610625-236.0037-11.059832-226.09848-21.476838-212.58185-22.379792-200.68048-20.798726-192.23908-12.53137-191.24544 .617249Z"/>
<path transform="matrix(1,0,0,-1,868.735,125.46867)" stroke-width=".75" stroke-linecap="round" stroke-linejoin="round" fill="none" stroke="#000000" d="M-812.10446-.139189C-790.9097-.216826-769.6788-.299669-748.22128 .342853"/>
<path transform="matrix(1,0,0,-1,868.735,125.46867)" stroke-width=".75" stroke-linecap="round" stroke-linejoin="round" fill="none" stroke="#000000" d="M-761.5437-8.314138C-758.27499-4.115899-753.44387-1.200865-748.52517-.339482-753.82217 1.594521-758.1685 3.68011-761.5467 8.142237"/>
<path transform="matrix(1,0,0,-1,868.735,125.46867)" stroke-width=".75" stroke-linecap="round" stroke-linejoin="round" fill="none" stroke="#000000" d="M-704.77316 .237548C-683.28158 .178611-662.89358-.078795-641.80398-.065846"/>
<path transform="matrix(1,0,0,-1,868.735,125.46867)" stroke-width=".75" stroke-linecap="round" stroke-linejoin="round" fill="none" stroke="#000000" d="M-654.1689-8.208717C-650.6108-3.989658-646.34359-1.017685-641.371-.392736-646.7568 .92081-651.2857 4.298032-654.1135 7.774317"/>
<path transform="matrix(1,0,0,-1,868.735,125.46867)" stroke-width=".75" stroke-linecap="round" stroke-linejoin="round" fill="none" stroke="#000000" d="M-555.0315-.02208C-534.05136-.265721-512.9275-.029264-492.05574-.254504"/>
<path transform="matrix(1,0,0,-1,868.735,125.46867)" stroke-width=".75" stroke-linecap="round" stroke-linejoin="round" fill="none" stroke="#000000" d="M-504.5018-7.766009C-501.53294-3.628568-497.31867-1.168805-491.7632 .233566-497.3478 .971401-501.83985 4.340566-504.24037 7.980929"/>
<path transform="matrix(1,0,0,-1,868.735,125.46867)" stroke-width=".75" stroke-linecap="round" stroke-linejoin="round" fill="none" stroke="#000000" d="M-448.14024 .204C-427.48536 .430338-406.10734 .11203-384.53599-.436105"/>
<path transform="matrix(1,0,0,-1,868.735,125.46867)" stroke-width=".75" stroke-linecap="round" stroke-linejoin="round" fill="none" stroke="#000000" d="M-397.33-7.858702C-394.50083-3.930955-389.86155-.784983-385.36705 .26481-389.7932 .84537-394.48023 3.658749-397.5427 8.268776"/>
<path transform="matrix(1,0,0,-1,868.735,125.46867)" stroke-width=".75" stroke-linecap="round" stroke-linejoin="round" fill="none" stroke="#000000" d="M-298.98463 .33734C-278.12425 .165985-256.32286 .315813-235.47225-.421119"/>
<path transform="matrix(1,0,0,-1,868.735,125.46867)" stroke-width=".75" stroke-linecap="round" stroke-linejoin="round" fill="none" stroke="#000000" d="M-248.54744-8.019026C-244.85868-3.803164-240.48822-.743307-235.3584 .228553-240.69532 1.207746-244.99683 3.670142-247.82999 8.358197"/>
<path transform="matrix(1,0,0,-1,868.735,125.46867)" stroke-width=".75" stroke-linecap="round" stroke-linejoin="round" fill="none" stroke="#000000" d="M-191.84014 .243831C-170.54816 .290237-149.92079-.182687-128.21796 .032868"/>
<path transform="matrix(1,0,0,-1,868.735,125.46867)" stroke-width=".75" stroke-linecap="round" stroke-linejoin="round" fill="none" stroke="#000000" d="M-141.53853-7.837556C-138.2761-4.032828-133.49547-1.398396-128.71346-.058486-133.13172 1.139295-138.13051 3.934008-140.98607 8.133639"/>
<path transform="matrix(1,0,0,-1,868.735,125.46867)" stroke-width=".75" stroke-linecap="round" stroke-linejoin="round" fill="none" stroke="#000000" d="M-42.61062-.092505C-14.309333 .2292 14.079254 .086641 42.132169-.06885"/>
<path transform="matrix(1,0,0,-1,868.735,125.46867)" stroke-width=".75" stroke-linecap="round" stroke-linejoin="round" fill="none" stroke="#000000" d="M29.368693-7.695453C32.35325-3.732193 36.90744-1.539012 42.00411 .135111 37.274576 1.312604 32.56053 4.235658 29.937487 8.37302"/>
<path transform="matrix(1,0,0,-1,868.735,125.46867)" stroke-width=".75" stroke-linecap="round" stroke-linejoin="round" fill="none" stroke="#000000" d="M128.43685 .261361C156.24405-.215304 184.5331 .319439 213.58037-.118589"/>
<path transform="matrix(1,0,0,-1,868.735,125.46867)" stroke-width=".75" stroke-linecap="round" stroke-linejoin="round" fill="none" stroke="#000000" d="M200.794-8.17224C203.72303-3.888383 208.03115-1.142743 212.97316 .064788 208.60062 .960324 203.34839 4.249027 200.4939 8.281757"/>
<path transform="matrix(1,0,0,-1,868.735,125.46867)" stroke-width=".75" stroke-linecap="round" stroke-linejoin="round" fill="none" stroke="#000000" d="M.273453-.247011C.104925 30.87869 .23605 62.011816-.227688 92.01182-99.44279 92.796749-199.56421 92.686519-298.92533 92.334438"/>
<path transform="matrix(1,0,0,-1,868.735,125.46867)" stroke-width=".75" stroke-linecap="round" stroke-linejoin="round" fill="none" stroke="#000000" d="M-286.12614 100.671558C-289.53053 96.24591-294.07627 93.21344-299.56074 92.11787-294.36665 91.41628-289.99525 88.050807-286.9087 84.72772"/>
<path transform="matrix(1,0,0,-1,868.735,125.46867)" stroke-width=".75" stroke-linecap="round" stroke-linejoin="round" fill="none" stroke="#000000" d="M-384.387 92.74467C-413.55186 92.303768-441.3156 92.77777-469.95497 92.44834-469.79646 69.17081-469.5693 45.752847-470.29545 22.340338"/>
<path transform="matrix(1,0,0,-1,868.735,125.46867)" stroke-width=".75" stroke-linecap="round" stroke-linejoin="round" fill="none" stroke="#000000" d="M-477.75465 34.286199C-473.80143 31.483859-471.2413 26.999323-469.72465 22.30749-469.1951 26.685835-466.34947 31.67868-462.16545 34.75058"/>
<path transform="matrix(1,0,0,-1,868.735,125.46867)" stroke-width=".75" stroke-linecap="round" stroke-linejoin="round" fill="none" stroke="#000000" d="M170.2144-.033927C171.05706-30.652388 170.96445-61.694997 170.94072-92.30042 128.34449-92.23712 85.544719-92.337398 42.683977-92.43322"/>
<path transform="matrix(1,0,0,-1,868.735,125.46867)" stroke-width=".75" stroke-linecap="round" stroke-linejoin="round" fill="none" stroke="#000000" d="M55.00728-84.67944C52.42489-88.21047 47.603815-91.42934 42.852327-92.317188 47.26695-93.3221 52.211507-96.51778 55.10166-100.69127"/>
<path transform="matrix(1,0,0,-1,868.735,125.46867)" stroke-width=".75" stroke-linecap="round" stroke-linejoin="round" fill="none" stroke="#000000" d="M-42.890089-92.53251C-99.51978-92.80728-156.5887-92.61297-213.1603-92.10665-213.9183-69.01332-213.45085-45.67588-213.31558-22.05725"/>
<path transform="matrix(1,0,0,-1,868.735,125.46867)" stroke-width=".75" stroke-linecap="round" stroke-linejoin="round" fill="none" stroke="#000000" d="M-205.37155-34.414789C-209.9881-31.714949-212.23938-27.433846-213.8355-22.344185-214.4837-26.735566-217.72812-31.204623-221.37538-34.43615"/>
<path transform="matrix(1,0,0,-1,868.735,125.46867)" stroke-width=".75" stroke-linecap="round" stroke-linejoin="round" fill="none" stroke="#000000" d="M170.8583 .071561C170.43134-61.2372 170.79706-123.394969 170.87493-185.03897 13.87142-184.90396-142.76006-185.14243-299.2159-184.82183"/>
<path transform="matrix(1,0,0,-1,868.735,125.46867)" stroke-width=".75" stroke-linecap="round" stroke-linejoin="round" fill="none" stroke="#000000" d="M-286.15705-176.84696C-290.08094-180.90245-294.0143-183.7554-299.46986-184.6889-293.90229-186.28603-289.7539-188.75403-286.94493-192.6271"/>
<path transform="matrix(1,0,0,-1,868.735,125.46867)" stroke-width=".75" stroke-linecap="round" stroke-linejoin="round" fill="none" stroke="#000000" d="M-384.90623-184.85179C-498.75694-184.5279-612.7376-185.20566-726.1527-184.5029-726.3912-130.68309-726.3459-76.141269-726.43569-22.418946"/>
<path transform="matrix(1,0,0,-1,868.735,125.46867)" stroke-width=".75" stroke-linecap="round" stroke-linejoin="round" fill="none" stroke="#000000" d="M-718.6034-34.40334C-722.16348-31.836363-725.06808-27.374739-726.87698-21.588044-727.56826-27.1896-730.4135-31.481198-734.535-34.22949"/>
<path transform="matrix(1,0,0,-1,868.735,125.46867)" stroke-width=".75" stroke-linecap="round" stroke-linejoin="round" fill="none" stroke="#000000" d="M-626.4874-24.984225C-626.9714-23.973244-625.408-24.946164-625.36587-25.74148-608.4378-24.583737-589.59817-25.224267-570.70877-25.351712-555.26559-24.383975-555.6428-25.515633-555.41708-9.663017-554.6928-3.084658-555.54336 2.669746-554.9739 9.736313-554.91696 24.663954-555.5129 25.692692-570.0319 25.00598-588.10299 25.233572-607.10409 25.0557-626.83798 24.131112-640.5625 24.181292-640.9994 24.339392-640.6993 9.122646-640.91549 2.966142-640.36746-3.612657-640.0748-10.046026-640.8164-24.813214-640.1411-25.551478-626.4874-24.984225Z"/>
<path transform="matrix(1,0,0,-1,868.735,125.46867)" stroke-width=".75" stroke-linecap="round" stroke-linejoin="round" fill="none" stroke="#000000" d="M-370.22969-25.49154C-369.00276-24.646506-370.09953-24.425637-370.22816-24.55862-351.40605-24.24225-332.40708-25.836144-314.52925-25.41023-299.05143-24.266795-299.39323-25.915059-299.61836-10.83262-299.1869-4.283062-298.30986 3.060993-299.56675 9.55188-299.4509 24.354565-299.14094 24.082707-314.31449 24.159119-332.6986 25.09874-351.1296 25.739663-369.7729 25.831519-384.12034 24.86732-385.21629 24.442429-385.1744 10.495238-384.55958 2.654924-385.42753-3.609986-384.99259-9.681567-385.33586-24.833346-384.45945-24.223414-370.22969-25.49154Z"/>
<path transform="matrix(1,0,0,-1,868.735,125.46867)" stroke-width=".75" stroke-linecap="round" stroke-linejoin="round" fill="none" stroke="#000000" d="M-112.735538-24.99604C-113.56937-25.745276-113.546718-24.230992-113.671817-25.140183-94.001857-25.412907-75.43583-24.135552-57.137247-25.303404-42.359739-24.553326-43.2008-24.411349-42.230085-10.53002-41.755189-2.454709-42.55645 3.289732-42.37065 9.300208-42.20976 24.29512-42.168546 25.127556-57.25654 25.73545-75.2097 24.17138-94.299839 23.986819-113.36752 24.129979-127.87104 25.534182-128.98789 23.989525-128.13468 9.356899-128.43395 4.107685-127.39103-3.51875-128.36127-10.468346-128.96277-25.003962-127.602687-25.156697-112.735538-24.99604Z"/>
<path transform="matrix(1,0,0,-1,868.735,125.46867)" stroke-width=".75" stroke-linecap="round" stroke-linejoin="round" fill="none" stroke="#000000" d="M58.358797-24.227614C58.474027-24.313618 56.882909-24.722292 57.72456-25.553963 75.78773-24.279452 95.22806-24.327267 113.48781-24.852744 128.30818-24.413863 127.58388-24.968758 127.94624-10.418143 128.76894-3.21485 128.24321 3.493995 129.05301 10.714126 128.5899 24.623417 127.39034 25.239605 112.324108 24.670315 93.963169 25.724204 76.000698 25.650742 58.076276 25.87154 42.18144 24.029036 42.94203 24.200615 42.381536 9.935498 41.588705 2.84637 41.834264-3.172165 42.59197-9.177047 43.030904-24.628375 42.584756-24.958186 58.358797-24.227614Z"/>
<path transform="matrix(1,0,0,-1,868.735,125.46867)" stroke-width=".75" stroke-linecap="round" stroke-linejoin="round" fill="none" stroke="#000000" d="M-28.690812-117.141498C-27.985869-117.086078-27.855109-117.58216-28.446169-117.795368-8.866278-117.26795 9.542819-116.572078 28.095019-116.67537 43.73003-116.75968 42.26094-117.22047 42.835935-101.56478 43.74857-95.7249 42.433588-88.14734 42.96738-81.79739 43.474878-68.401828 42.74999-66.769039 27.243586-67.38 10.069512-67.6698-9.616306-67.535-27.014107-68.30555-42.96992-66.86768-43.631277-68.157619-43.199899-82.00495-43.220289-89.80901-42.15232-96.45469-43.202356-103.0224-43.061716-116.53918-43.673978-116.71005-28.690812-117.141498Z"/>
<path transform="matrix(1,0,0,-1,868.735,125.46867)" stroke-width=".75" stroke-linecap="round" stroke-linejoin="round" fill="none" stroke="#000000" d="M-370.6887 66.687229C-368.81147 66.526927-370.1722 68.37728-370.49339 68.30292-350.98716 66.97-332.52497 67.90965-314.38279 67.318729-297.86137 67.04743-299.17045 66.98251-298.2287 81.767658-297.9583 89.910358-297.9817 96.008487-298.87257 101.4871-299.13999 117.76168-298.76899 117.918079-313.87916 116.38713-332.95668 118.208049-352.02568 118.14677-369.444 116.72523-385.72886 117.195079-384.84199 116.68714-384.2746 101.89714-383.93995 95.76967-385.53773 88.12554-385.40397 81.54651-384.64674 68.4178-384.17369 67.64903-370.6887 66.687229Z"/>
<path transform="matrix(1,0,0,-1,868.735,125.46867)" stroke-width=".75" stroke-linecap="round" stroke-linejoin="round" fill="none" stroke="#000000" d="M-370.34675-209.98668C-369.57148-210.55895-369.6094-208.94809-370.13563-209.64516-351.13734-210.57616-332.2887-208.92061-314.1112-210.2717-299.0323-210.33525-299.59819-209.97898-298.3132-194.48679-298.01985-189.0673-298.5792-181.19547-299.05467-173.9157-298.82215-160.76976-298.9914-160.44568-313.42073-159.18947-333.3204-159.75435-350.67597-160.60356-368.90745-159.49619-384.88648-159.22583-383.88984-159.82736-383.94197-174.57334-384.38224-182.06676-384.58753-188.34421-384.05558-193.95722-383.8293-210.20359-383.89735-209.95465-370.34675-209.98668Z"/>
<path transform="matrix(1,0,0,-1,868.735,125.46867)" stroke-width=".75" stroke-linecap="round" stroke-linejoin="round" fill="none" stroke="#000000" d="M-705.4172 .935137C-704.9597 12.377831-714.12747 22.312747-725.71249 21.19037-738.35366 21.148978-747.54519 12.395921-748.56387-.532724-749.0159-11.818989-738.64797-21.521695-725.9195-21.268527-714.6865-20.89599-705.07119-12.633268-705.4172 .935137Z"/>
<path transform="matrix(1,0,0,-1,868.735,125.46867)" stroke-width=".75" stroke-linecap="round" stroke-linejoin="round" fill="none" stroke="#000000" d="M-448.2604-.899321C-448.8759 12.28855-457.87925 21.7227-470.31626 21.947495-481.44358 21.627617-491.88414 12.772358-492.2866-.038289-491.77513-12.358603-482.2365-22.23367-469.4385-22.61995-457.75538-22.360058-448.8796-11.645709-448.2604-.899321Z"/>
<path transform="matrix(1,0,0,-1,868.735,125.46867)" stroke-width=".75" stroke-linecap="round" stroke-linejoin="round" fill="none" stroke="#000000" d="M-191.13545-.08112C-191.2073 12.156347-201.7882 21.7282-213.91205 22.182152-225.23043 21.326077-234.8838 11.739329-234.3629 .290637-234.43347-11.990105-226.2469-22.5585-213.32605-22.132559-200.87828-20.70357-191.05139-11.96048-191.13545-.08112Z"/>
<path transform="matrix(1,0,0,-1,868.735,125.46867)" stroke-width=".75" stroke-linecap="round" stroke-linejoin="round" fill="none" stroke="#000000" d="M-811.6737 .436816C-791.14419 .182912-769.8465-.253999-748.8222-.445562"/>
<path transform="matrix(1,0,0,-1,868.735,125.46867)" stroke-width=".75" stroke-linecap="round" stroke-linejoin="round" fill="none" stroke="#000000" d="M-761.1731-7.91367C-757.72549-4.425609-753.92929-.774994-748.7853-.146358-753.3388 1.086191-758.1884 4.316122-760.8833 8.044388"/>
<path transform="matrix(1,0,0,-1,868.735,125.46867)" stroke-width=".75" stroke-linecap="round" stroke-linejoin="round" fill="none" stroke="#000000" d="M-705.15756-.169484C-683.5945 .446282-662.4451 .272955-641.2652-.068429"/>
<path transform="matrix(1,0,0,-1,868.735,125.46867)" stroke-width=".75" stroke-linecap="round" stroke-linejoin="round" fill="none" stroke="#000000" d="M-654.0936-7.653846C-650.72286-4.081737-646.73348-1.250676-641.6179 .077126-646.2754 .723771-650.64987 4.198067-654.26858 8.077638"/>
<path transform="matrix(1,0,0,-1,868.735,125.46867)" stroke-width=".75" stroke-linecap="round" stroke-linejoin="round" fill="none" stroke="#000000" d="M-555.22879-.006101C-533.87637-.438252-513.57339 .319879-492.40629 .078264"/>
<path transform="matrix(1,0,0,-1,868.735,125.46867)" stroke-width=".75" stroke-linecap="round" stroke-linejoin="round" fill="none" stroke="#000000" d="M-504.95689-8.48961C-501.8634-3.859016-497.10847-.852467-492.06779-.007111-496.8113 1.14629-501.5599 4.124984-504.59803 8.26024"/>
<path transform="matrix(1,0,0,-1,868.735,125.46867)" stroke-width=".75" stroke-linecap="round" stroke-linejoin="round" fill="none" stroke="#000000" d="M-448.17948-.174185C-427.5222-.208782-405.79869 .184012-384.78526-.447532"/>
<path transform="matrix(1,0,0,-1,868.735,125.46867)" stroke-width=".75" stroke-linecap="round" stroke-linejoin="round" fill="none" stroke="#000000" d="M-397.39048-8.206414C-394.58534-3.622457-390.3888-1.340877-385.02217 .147016-389.51557 .715329-394.03306 3.709286-397.2265 8.00319"/>
<path transform="matrix(1,0,0,-1,868.735,125.46867)" stroke-width=".75" stroke-linecap="round" stroke-linejoin="round" fill="none" stroke="#000000" d="M-298.91108 .244891C-277.97709 .345958-256.824-.197449-235.9902-.041736"/>
<path transform="matrix(1,0,0,-1,868.735,125.46867)" stroke-width=".75" stroke-linecap="round" stroke-linejoin="round" fill="none" stroke="#000000" d="M-248.50908-8.477632C-245.30025-3.688226-240.4436-.840088-235.3804 .192372-240.43686 .801776-245.26587 3.563963-248.27262 8.437729"/>
<path transform="matrix(1,0,0,-1,868.735,125.46867)" stroke-width=".75" stroke-linecap="round" stroke-linejoin="round" fill="none" stroke="#000000" d="M-191.67205 .395886C-171.00902 .316621-149.83571-.413831-128.24698 .427868"/>
<path transform="matrix(1,0,0,-1,868.735,125.46867)" stroke-width=".75" stroke-linecap="round" stroke-linejoin="round" fill="none" stroke="#000000" d="M-141.03876-8.245371C-137.61115-4.235933-133.80768-1.379019-128.42144-.160293-133.28313 .895474-137.78559 3.613882-140.78427 7.778731"/>
<path transform="matrix(1,0,0,-1,868.735,125.46867)" stroke-width=".75" stroke-linecap="round" stroke-linejoin="round" fill="none" stroke="#000000" d="M-42.252424 .325906C-14.187327-.396345 14.101607 .040628 42.27839-.306522"/>
<path transform="matrix(1,0,0,-1,868.735,125.46867)" stroke-width=".75" stroke-linecap="round" stroke-linejoin="round" fill="none" stroke="#000000" d="M29.884474-8.190064C32.33179-3.715046 36.81016-1.379368 42.582727 .444119 36.842477 1.068573 32.405015 4.386448 29.568083 8.380867"/>
<path transform="matrix(1,0,0,-1,868.735,125.46867)" stroke-width=".75" stroke-linecap="round" stroke-linejoin="round" fill="none" stroke="#000000" d="M127.9813 .13707C156.14054 .308192 185.18404-.18101 213.25557 .346413"/>
<path transform="matrix(1,0,0,-1,868.735,125.46867)" stroke-width=".75" stroke-linecap="round" stroke-linejoin="round" fill="none" stroke="#000000" d="M200.90999-8.042522C203.32796-3.946413 208.52367-1.063777 212.94861-.343915 208.23587 1.52449 203.69 4.194365 200.95549 7.821981"/>
<path transform="matrix(1,0,0,-1,868.735,125.46867)" stroke-width=".75" stroke-linecap="round" stroke-linejoin="round" fill="none" stroke="#000000" d="M.195039-.099789C.354788 31.110753 .273686 61.726099-.062238 92.2944-100.12487 91.98149-199.72336 92.38501-298.96775 92.58988"/>
<path transform="matrix(1,0,0,-1,868.735,125.46867)" stroke-width=".75" stroke-linecap="round" stroke-linejoin="round" fill="none" stroke="#000000" d="M-286.72227 100.330158C-289.8476 96.61673-294.1962 93.4063-299.48527 92.43653-293.8894 91.63255-289.97007 88.674869-286.11665 84.28023"/>
<path transform="matrix(1,0,0,-1,868.735,125.46867)" stroke-width=".75" stroke-linecap="round" stroke-linejoin="round" fill="none" stroke="#000000" d="M-384.39637 92.30767C-413.08525 92.61076-441.863 92.74204-469.96159 92.26271-469.86073 68.721569-470.0185 45.595468-470.28749 21.907372"/>
<path transform="matrix(1,0,0,-1,868.735,125.46867)" stroke-width=".75" stroke-linecap="round" stroke-linejoin="round" fill="none" stroke="#000000" d="M-478.13664 34.33676C-473.90309 31.575154-471.04365 27.261414-470.41163 22.187352-469.1718 26.931269-465.56825 31.523259-461.57374 34.81362"/>
<path transform="matrix(1,0,0,-1,868.735,125.46867)" stroke-width=".75" stroke-linecap="round" stroke-linejoin="round" fill="none" stroke="#000000" d="M171.05591 .273096C170.52318-31.12272 170.28975-61.365457 171.00067-92.26397 127.849758-92.31405 85.707218-92.74652 42.70194-92.50644"/>
<path transform="matrix(1,0,0,-1,868.735,125.46867)" stroke-width=".75" stroke-linecap="round" stroke-linejoin="round" fill="none" stroke="#000000" d="M55.524824-83.90402C52.209417-88.35315 47.65488-91.37816 42.220438-92.02022 47.807596-93.11823 52.134553-96.54799 54.836229-100.79826"/>
<path transform="matrix(1,0,0,-1,868.735,125.46867)" stroke-width=".75" stroke-linecap="round" stroke-linejoin="round" fill="none" stroke="#000000" d="M-43.27679-92.72281C-99.59452-92.78397-156.95992-92.29648-213.76355-92.037967-213.22408-68.665569-213.29097-45.846414-213.83414-22.094256"/>
<path transform="matrix(1,0,0,-1,868.735,125.46867)" stroke-width=".75" stroke-linecap="round" stroke-linejoin="round" fill="none" stroke="#000000" d="M-205.03917-34.281145C-209.27878-31.500056-212.42711-27.391615-213.38594-22.075129-214.73342-27.346308-217.46419-31.10863-221.30774-34.506647"/>
<path transform="matrix(1,0,0,-1,868.735,125.46867)" stroke-width=".75" stroke-linecap="round" stroke-linejoin="round" fill="none" stroke="#000000" d="M170.51715-.146724C171.02771-61.676897 171.00263-122.902408 170.47064-184.78891 14.398728-184.82253-142.73856-185.24495-299.1052-184.50505"/>
<path transform="matrix(1,0,0,-1,868.735,125.46867)" stroke-width=".75" stroke-linecap="round" stroke-linejoin="round" fill="none" stroke="#000000" d="M-286.35404-177.18863C-289.28889-180.59137-293.71595-184.04819-299.50483-185.20748-294.05537-186.35544-289.57978-188.45511-286.80195-192.66667"/>
<path transform="matrix(1,0,0,-1,868.735,125.46867)" stroke-width=".75" stroke-linecap="round" stroke-linejoin="round" fill="none" stroke="#000000" d="M-384.90977-185.23232C-498.64747-185.24808-612.9844-185.11898-726.23336-185.02576-726.3101-130.43743-726.31167-76.468608-726.0434-22.072066"/>
<path transform="matrix(1,0,0,-1,868.735,125.46867)" stroke-width=".75" stroke-linecap="round" stroke-linejoin="round" fill="none" stroke="#000000" d="M-718.1505-34.70077C-722.65-31.071463-725.1551-27.324446-726.25106-22.06201-727.32669-27.022183-730.0608-31.494893-734.24606-34.243627"/>
<path transform="matrix(1,0,0,-1,868.735,125.46867)" stroke-width=".75" stroke-linecap="round" stroke-linejoin="round" fill="none" stroke="#000000" d="M-625.34408-25.232382C-626.22848-24.648558-626.2699-25.773612-626.37918-24.018687-608.4145-25.429547-588.01559-25.392939-570.26968-25.057684-554.9638-24.365914-556.30776-24.474013-555.6188-9.425189-554.93606-4.143061-554.73379 3.982241-556.2985 10.724241-554.8949 23.986386-556.31167 25.092532-570.6 24.678793-588.36148 25.355408-607.73477 24.130537-626.80429 24.353358-641.2762 24.945076-641.2152 23.994399-641.87637 9.093817-641.70797 3.698516-641.4401-3.35192-641.6629-9.172189-641.6679-24.511967-641.86508-24.962599-625.34408-25.232382Z"/>
<path transform="matrix(1,0,0,-1,868.735,125.46867)" stroke-width=".75" stroke-linecap="round" stroke-linejoin="round" fill="none" stroke="#000000" d="M-369.79997-25.888857C-368.77476-24.224797-370.02046-25.239626-369.7092-24.90781-351.22904-24.520703-332.81416-25.028307-314.06639-24.35861-299.7714-24.436692-299.9328-25.63984-298.70094-9.582-298.92808-2.533755-299.06095 3.430982-299.68348 9.826414-299.76573 25.789603-298.17869 25.647103-314.1564 25.176037-333.37944 24.01669-350.5812 25.531935-370.48396 24.550063-384.2061 24.266602-385.33549 25.29564-384.9726 10.891671-384.58515 2.618487-383.77149-3.674437-384.8433-9.257646-383.85734-24.927895-384.1099-24.180689-369.79997-25.888857Z"/>
<path transform="matrix(1,0,0,-1,868.735,125.46867)" stroke-width=".75" stroke-linecap="round" stroke-linejoin="round" fill="none" stroke="#000000" d="M-113.07294-24.070876C-113.021099-25.150725-112.70673-25.575184-114.0679-25.248547-94.440708-25.619896-75.25499-25.8268-56.669134-25.769648-42.761316-24.333142-42.037988-24.773928-41.802938-9.284063-42.657636-2.389391-42.335889 3.518068-42.068735 9.518753-41.8671 25.28467-42.229043 25.068793-57.647695 24.496634-76.85912 25.724562-95.454448 24.77288-112.94009 25.686467-128.67655 23.994877-127.41075 25.372179-127.78058 9.520023-128.34067 2.495063-127.1522-2.873236-128.97385-9.221806-128.80048-24.131859-129.05712-24.366044-113.07294-24.070876Z"/>
<path transform="matrix(1,0,0,-1,868.735,125.46867)" stroke-width=".75" stroke-linecap="round" stroke-linejoin="round" fill="none" stroke="#000000" d="M56.970808-24.0422C57.596807-24.540032 58.345659-24.80372 57.733613-24.607974 76.91972-25.585593 94.089199-24.400425 113.6439-24.748196 128.64302-25.809082 128.68378-25.185286 127.53521-9.502267 127.46705-4.151344 128.27269 3.872587 127.61668 10.722448 127.934108 25.065478 127.92088 25.509732 112.83918 25.609234 94.49417 25.443856 75.94845 24.21586 57.463617 23.984013 43.135309 24.477059 42.389448 25.873335 43.469736 9.160392 41.800638 2.695682 43.080114-2.396279 43.203393-9.550775 42.154718-24.601284 42.809419-24.32344 56.970808-24.0422Z"/>
<path transform="matrix(1,0,0,-1,868.735,125.46867)" stroke-width=".75" stroke-linecap="round" stroke-linejoin="round" fill="none" stroke="#000000" d="M-28.175358-116.75083C-27.466538-117.45911-27.85142-117.19545-27.043642-117.082958-9.749855-117.46317 9.630422-117.157779 27.036732-116.62156 42.391435-117.48764 43.817464-116.74956 43.583635-102.271358 43.438364-95.37608 42.056787-89.32009 42.458364-83.16588 42.859594-68.063838 43.222078-66.73978 27.045809-67.388797 9.625782-67.13329-8.696623-67.45525-27.318577-68.07401-43.746908-67.04938-43.031694-67.83317-42.926179-81.491268-42.830175-88.5775-43.62304-96.25818-43.404596-101.954349-42.571588-116.71166-43.809427-117.63931-28.175358-116.75083Z"/>
<path transform="matrix(1,0,0,-1,868.735,125.46867)" stroke-width=".75" stroke-linecap="round" stroke-linejoin="round" fill="none" stroke="#000000" d="M-370.39369 67.91797C-369.10896 67.44562-370.52796 66.56139-368.88737 66.77646-351.1046 67.34542-333.0066 67.6083-314.49186 67.46779-298.54136 66.58292-298.7704 66.51868-298.10343 82.82643-298.17619 88.59595-299.19578 95.44017-298.82508 102.64837-298.5744 117.123607-297.9657 117.12687-314.27528 116.868488-332.45124 118.24711-351.13658 117.580669-369.20475 117.58822-385.0442 116.39705-384.56803 116.462299-384.28953 102.59105-385.29039 96.57026-384.5495 89.45669-383.85267 83.32571-385.29768 68.08886-385.01759 67.42798-370.39369 67.91797Z"/>
<path transform="matrix(1,0,0,-1,868.735,125.46867)" stroke-width=".75" stroke-linecap="round" stroke-linejoin="round" fill="none" stroke="#000000" d="M-369.53584-209.72315C-370.3989-210.30615-369.18894-208.85382-369.71879-209.17572-350.83869-209.60416-331.80937-209.07749-313.23527-208.99394-299.32109-210.15697-298.27384-210.24158-299.09507-195.67952-298.59095-188.29796-298.18983-182.13146-299.493-174.64936-297.84999-159.02158-299.40296-160.39066-313.33943-159.59847-333.41014-159.14397-351.85963-160.45526-369.1532-160.48912-385.7081-160.20122-384.53047-160.20221-384.2542-175.57262-384.97969-181.9623-384.84217-187.5232-384.0444-195.10872-384.17839-210.04756-383.98973-209.61522-369.53584-209.72315Z"/>
<path transform="matrix(1,0,0,-1,868.735,125.46867)" stroke-width=".75" stroke-linecap="round" stroke-linejoin="round" fill="none" stroke="#000000" d="M-703.9366 .293712C-703.9116 11.534574-714.8006 22.321564-725.8322 22.452075-737.97 20.734459-748.9402 12.79405-748.1401-.143235-747.14138-12.546793-737.90676-22.41534-726.03848-21.57842-714.65237-21.16707-705.05117-12.050968-703.9366 .293712Z"/>
<path transform="matrix(1,0,0,-1,868.735,125.46867)" stroke-width=".75" stroke-linecap="round" stroke-linejoin="round" fill="none" stroke="#000000" d="M-449.31825-.302245C-447.8342 11.686513-458.0168 20.908366-469.0284 21.98196-481.89268 21.26598-491.6405 11.627451-492.3051 .883441-491.50825-12.80833-481.56373-21.768252-470.38883-21.626988-457.88697-21.76295-447.62794-12.507363-449.31825-.302245Z"/>
<path transform="matrix(1,0,0,-1,868.735,125.46867)" stroke-width=".75" stroke-linecap="round" stroke-linejoin="round" fill="none" stroke="#000000" d="M-190.93668-.047619C-191.53421 12.323375-202.27967 20.90804-214.00923 22.592644-225.50186 22.06734-235.63195 12.407946-234.76415-.59869-235.04674-11.829773-226.47248-20.709355-214.08835-22.245034-202.54271-21.387658-191.07437-11.586581-190.93668-.047619Z"/>
<path transform="matrix(1,0,0,-1,868.735,125.46867)" stroke-width=".75" stroke-linecap="round" stroke-linejoin="round" fill="none" stroke="#000000" d="M-811.51669-.438103C-790.3703 .348221-769.2922 .312578-748.0414 .393977"/>
<path transform="matrix(1,0,0,-1,868.735,125.46867)" stroke-width=".75" stroke-linecap="round" stroke-linejoin="round" fill="none" stroke="#000000" d="M-761.3869-8.47164C-757.7106-4.409376-753.1577-1.173718-748.03359 .199746-753.2561 .991607-758.16067 4.0673-760.8347 7.990889"/>
<path transform="matrix(1,0,0,-1,868.735,125.46867)" stroke-width=".75" stroke-linecap="round" stroke-linejoin="round" fill="none" stroke="#000000" d="M-704.9386 .184158C-683.6465-.037799-662.5379 .444496-641.85049-.025143"/>
<path transform="matrix(1,0,0,-1,868.735,125.46867)" stroke-width=".75" stroke-linecap="round" stroke-linejoin="round" fill="none" stroke="#000000" d="M-653.7666-7.664978C-650.59066-3.868682-646.33609-.851975-641.33169-.315856-646.82138 1.047514-651.3237 4.017555-654.32479 7.753858"/>
<path transform="matrix(1,0,0,-1,868.735,125.46867)" stroke-width=".75" stroke-linecap="round" stroke-linejoin="round" fill="none" stroke="#000000" d="M-555.5171 .434462C-534.49368 .290967-512.9838 .394516-491.9443 .051872"/>
<path transform="matrix(1,0,0,-1,868.735,125.46867)" stroke-width=".75" stroke-linecap="round" stroke-linejoin="round" fill="none" stroke="#000000" d="M-504.79075-8.502332C-501.8536-3.845635-496.66056-.770284-492.0071 .21207-497.35459 1.472279-501.75468 3.736998-504.34046 8.22363"/>
<path transform="matrix(1,0,0,-1,868.735,125.46867)" stroke-width=".75" stroke-linecap="round" stroke-linejoin="round" fill="none" stroke="#000000" d="M-448.08595 .177265C-426.97666 .110655-406.21064 .292355-385.10307-.078485"/>
<path transform="matrix(1,0,0,-1,868.735,125.46867)" stroke-width=".75" stroke-linecap="round" stroke-linejoin="round" fill="none" stroke="#000000" d="M-397.27458-7.635773C-394.43894-4.195905-390.03083-1.218437-385.10774-.279846-389.5775 1.46179-393.9807 4.327235-397.57518 8.299046"/>
<path transform="matrix(1,0,0,-1,868.735,125.46867)" stroke-width=".75" stroke-linecap="round" stroke-linejoin="round" fill="none" stroke="#000000" d="M-299.1231-.164592C-277.44544-.116058-257.02268-.429729-235.6963-.196771"/>
<path transform="matrix(1,0,0,-1,868.735,125.46867)" stroke-width=".75" stroke-linecap="round" stroke-linejoin="round" fill="none" stroke="#000000" d="M-247.79434-7.63239C-245.15177-4.010727-240.41281-1.36322-235.53519-.377833-241.00606 1.111201-245.37639 4.353392-248.45896 8.425459"/>
<path transform="matrix(1,0,0,-1,868.735,125.46867)" stroke-width=".75" stroke-linecap="round" stroke-linejoin="round" fill="none" stroke="#000000" d="M-191.7761 .228226C-170.70523-.317951-149.85942 .229655-128.42043-.070195"/>
<path transform="matrix(1,0,0,-1,868.735,125.46867)" stroke-width=".75" stroke-linecap="round" stroke-linejoin="round" fill="none" stroke="#000000" d="M-141.49999-7.906916C-137.90811-3.672127-133.54402-1.302116-128.56687-.304791-133.0689 1.197129-138.269 3.612856-141.58589 7.999956"/>
<path transform="matrix(1,0,0,-1,868.735,125.46867)" stroke-width=".75" stroke-linecap="round" stroke-linejoin="round" fill="none" stroke="#000000" d="M-42.329198 .24798C-13.854202 .032525 14.050367 .043143 42.473829 .434795"/>
<path transform="matrix(1,0,0,-1,868.735,125.46867)" stroke-width=".75" stroke-linecap="round" stroke-linejoin="round" fill="none" stroke="#000000" d="M29.816992-8.021579C32.221536-3.939445 37.16458-1.316811 41.865034-.055788 36.702939 1.264413 32.622068 4.447744 29.766507 8.112691"/>
<path transform="matrix(1,0,0,-1,868.735,125.46867)" stroke-width=".75" stroke-linecap="round" stroke-linejoin="round" fill="none" stroke="#000000" d="M128.33124 .02684C156.59438 .265783 184.60625-.277785 213.38932-.245487"/>
<path transform="matrix(1,0,0,-1,868.735,125.46867)" stroke-width=".75" stroke-linecap="round" stroke-linejoin="round" fill="none" stroke="#000000" d="M200.35164-8.197024C203.47064-4.317983 208.22257-1.335259 212.837-.126339 208.16855 1.160048 203.32834 3.86235 200.59964 8.015247"/>
<path transform="matrix(1,0,0,-1,868.735,125.46867)" stroke-width=".75" stroke-linecap="round" stroke-linejoin="round" fill="none" stroke="#000000" d="M.087122 .010355C-.051902 30.787602-.208364 61.554166-.30924 92.581409-99.9999 92.34442-198.98975 92.63095-298.71485 92.49277"/>
<path transform="matrix(1,0,0,-1,868.735,125.46867)" stroke-width=".75" stroke-linecap="round" stroke-linejoin="round" fill="none" stroke="#000000" d="M-286.9191 100.25367C-290.047 96.36423-294.13496 93.776599-299.19776 92.36991-294.02217 91.09025-289.79859 88.72159-286.06678 83.996669"/>
<path transform="matrix(1,0,0,-1,868.735,125.46867)" stroke-width=".75" stroke-linecap="round" stroke-linejoin="round" fill="none" stroke="#000000" d="M-385.0656 92.19578C-413.09196 92.23071-441.30174 92.764339-469.85746 92.15892-470.41487 69.16941-470.30998 45.59458-470.23036 21.617018"/>
<path transform="matrix(1,0,0,-1,868.735,125.46867)" stroke-width=".75" stroke-linecap="round" stroke-linejoin="round" fill="none" stroke="#000000" d="M-478.0008 34.53739C-474.2379 31.43262-471.48826 27.453286-469.57743 22.34775-468.62556 27.005991-466.0175 31.058035-461.54884 34.966886"/>
<path transform="matrix(1,0,0,-1,868.735,125.46867)" stroke-width=".75" stroke-linecap="round" stroke-linejoin="round" fill="none" stroke="#000000" d="M170.88263-.250673C170.32386-30.699662 170.23003-61.406419 171.0863-92.46681 128.20926-92.53888 84.96128-92.14787 42.728937-92.223308"/>
<path transform="matrix(1,0,0,-1,868.735,125.46867)" stroke-width=".75" stroke-linecap="round" stroke-linejoin="round" fill="none" stroke="#000000" d="M54.82472-83.937938C52.24754-88.813327 47.666547-91.1583 42.644849-91.99315 48.03786-93.19266 51.8067-96.00099 55.67321-100.55417"/>
<path transform="matrix(1,0,0,-1,868.735,125.46867)" stroke-width=".75" stroke-linecap="round" stroke-linejoin="round" fill="none" stroke="#000000" d="M-42.60197-91.99056C-99.672008-92.40512-156.76076-92.21803-213.30506-92.717868-213.16519-69.00408-213.27512-45.505105-213.60715-21.61646"/>
<path transform="matrix(1,0,0,-1,868.735,125.46867)" stroke-width=".75" stroke-linecap="round" stroke-linejoin="round" fill="none" stroke="#000000" d="M-205.47975-34.442853C-209.8025-31.589444-212.65299-26.92357-213.09705-21.878396-214.37279-27.44566-217.75942-31.492798-221.46747-34.900323"/>
<path transform="matrix(1,0,0,-1,868.735,125.46867)" stroke-width=".75" stroke-linecap="round" stroke-linejoin="round" fill="none" stroke="#000000" d="M170.26976 .402435C170.54103-61.85845 170.34088-122.8832 170.36118-185.0212 13.960922-185.0507-142.50623-185.24817-298.92887-185.00524"/>
<path transform="matrix(1,0,0,-1,868.735,125.46867)" stroke-width=".75" stroke-linecap="round" stroke-linejoin="round" fill="none" stroke="#000000" d="M-286.0628-177.0521C-289.97355-180.84809-294.3581-183.39229-299.34355-184.92096-293.8224-186.38246-289.2909-188.68091-286.6855-192.74524"/>
<path transform="matrix(1,0,0,-1,868.735,125.46867)" stroke-width=".75" stroke-linecap="round" stroke-linejoin="round" fill="none" stroke="#000000" d="M-384.96873-184.70856C-498.54627-184.65503-612.918-185.15576-726.69436-185.21465-726.4652-130.55709-726.333-76.50266-726.8999-22.469445"/>
<path transform="matrix(1,0,0,-1,868.735,125.46867)" stroke-width=".75" stroke-linecap="round" stroke-linejoin="round" fill="none" stroke="#000000" d="M-718.65176-34.667135C-722.1742-31.857054-725.2558-26.818177-726.1525-21.697333-727.6729-27.064059-730.19949-31.934351-734.86917-34.577077"/>
<path transform="matrix(1,0,0,-1,868.735,125.46867)" stroke-width=".75" stroke-linecap="round" stroke-linejoin="round" fill="none" stroke="#000000" d="M-626.02639-25.052657C-625.5175-24.98616-626.41079-25.598088-626.66238-24.506157-607.0805-25.25756-588.13436-25.478432-570.29708-25.465109-554.7651-25.14821-554.6208-25.379128-556.3142-9.440079-555.4263-3.433801-554.88406 3.921304-554.9271 10.801546-555.6626 25.328965-554.7062 25.694489-571.35537 25.023184-588.71896 25.885079-607.192 24.838337-626.7991 24.19203-641.36508 25.3416-640.2047 24.06747-641.9338 9.676958-641.54708 3.723955-640.12496-2.555174-641.8274-10.091494-641.2219-24.722754-640.7486-25.450234-626.02639-25.052657Z"/>
<path transform="matrix(1,0,0,-1,868.735,125.46867)" stroke-width=".75" stroke-linecap="round" stroke-linejoin="round" fill="none" stroke="#000000" d="M-369.85353-23.988909C-369.0716-24.509558-368.7255-23.975775-370.47889-24.322506-351.9463-25.734948-331.8725-24.118813-313.6375-24.949439-298.82118-25.348504-298.78938-25.747857-299.3261-10.083597-299.77537-3.219697-298.3641 2.371148-299.0387 10.12126-299.28846 25.887955-298.35459 24.455813-314.05937 24.002068-332.06037 25.86023-351.92256 24.933402-368.6266 23.974595-385.4484 24.441952-384.17945 25.300168-384.884 9.552168-383.6271 3.453122-384.92213-4.085249-384.97563-9.452395-383.68373-25.027369-383.7495-24.98414-369.85353-23.988909Z"/>
<path transform="matrix(1,0,0,-1,868.735,125.46867)" stroke-width=".75" stroke-linecap="round" stroke-linejoin="round" fill="none" stroke="#000000" d="M-114.01178-25.827933C-112.53938-25.676306-112.51403-25.781294-112.61612-24.460274-95.54912-25.193659-76.1265-25.464007-56.965349-24.81812-41.737176-25.795939-42.228895-25.187289-42.870168-9.835007-42.970186-2.927652-41.778856 4.101297-43.180479 9.773589-43.48944 24.771704-41.89997 24.92201-58.080198 24.15107-76.59255 24.27216-95.303768 23.972647-113.17979 24.6605-127.345317 25.18493-127.355419 25.135106-129.04328 10.188855-127.91056 3.00467-128.65442-2.715868-127.40103-9.855577-127.41366-25.612332-127.90076-24.048108-114.01178-25.827933Z"/>
<path transform="matrix(1,0,0,-1,868.735,125.46867)" stroke-width=".75" stroke-linecap="round" stroke-linejoin="round" fill="none" stroke="#000000" d="M56.916059-25.464819C57.975774-24.177012 57.975835-25.36449 58.207647-24.80658 76.950717-24.01107 93.7775-24.750252 113.220317-24.951014 127.52547-25.90792 127.84353-25.661429 127.71945-9.68998 128.76969-4.271192 128.05817 4.193723 127.47859 10.348642 128.6089 24.488204 128.19107 25.904294 113.5146 25.035204 94.36224 24.851674 76.3081 24.813328 56.685598 24.966546 41.832105 24.748972 43.17649 23.989298 42.503477 9.410546 42.52661 3.06109 42.875627-3.805294 42.40387-9.412322 41.68685-24.95079 42.00326-24.90397 56.916059-25.464819Z"/>
<path transform="matrix(1,0,0,-1,868.735,125.46867)" stroke-width=".75" stroke-linecap="round" stroke-linejoin="round" fill="none" stroke="#000000" d="M-28.394854-118.30534C-28.401265-117.82789-27.358296-117.78984-27.687348-118.07772-9.563658-117.79308 8.890455-116.58527 28.674859-117.46967 42.794687-117.76132 43.818696-117.94639 42.087755-102.09592 43.62687-95.67043 42.72461-88.48299 43.96771-81.593479 43.41568-67.17435 43.20442-67.088039 28.489476-67.663669 8.875889-68.28395-10.046381-67.51645-28.194565-66.50802-42.424814-67.50577-42.885488-67.09111-43.4468-81.713298-43.024374-89.096569-43.932229-95.63392-42.735456-102.2331-42.729814-117.290409-43.396055-117.188228-28.394854-118.30534Z"/>
<path transform="matrix(1,0,0,-1,868.735,125.46867)" stroke-width=".75" stroke-linecap="round" stroke-linejoin="round" fill="none" stroke="#000000" d="M-369.564 66.76313C-369.55378 66.71657-368.95088 66.815319-369.05628 66.990749-351.4214 67.124698-332.5597 68.069438-312.9337 66.76939-298.77256 66.73465-297.89198 66.83935-299.50593 83.046649-298.35389 88.56182-298.38798 96.62092-298.99336 101.48408-298.76316 117.54495-298.09449 117.24711-314.0461 117.43255-331.8637 118.19492-351.96266 117.12932-368.93894 118.28075-385.72779 118.04655-385.69319 117.421-384.07273 101.48975-384.1463 95.44133-383.88667 88.17419-384.98448 82.54111-384.7338 67.29714-385.62208 67.89525-369.564 66.76313Z"/>
<path transform="matrix(1,0,0,-1,868.735,125.46867)" stroke-width=".75" stroke-linecap="round" stroke-linejoin="round" fill="none" stroke="#000000" d="M-369.40943-209.1449C-370.4204-208.92688-368.9013-209.30687-369.54237-210.61353-350.39628-209.85039-331.81373-209.5173-313.19273-209.67136-298.83073-209.94907-298.55796-209.52194-298.75239-194.02465-298.09388-188.61655-298.8306-180.5903-299.38066-175.80036-298.1641-160.49906-299.16038-159.89696-314.09193-159.15804-332.3467-159.64685-351.1986-160.33533-370.21144-160.80583-384.6098-159.04033-384.5074-160.21279-384.56935-175.47722-384.04328-181.70555-384.5287-188.1737-383.89268-193.98201-385.29978-210.60739-385.03755-210.12361-369.40943-209.1449Z"/>
<path transform="matrix(1,0,0,-1,868.735,125.46867)" stroke-width=".75" stroke-linecap="round" stroke-linejoin="round" fill="none" stroke="#000000" d="M-704.2424 .395157C-704.1973 11.636998-715.3403 21.783526-727.11758 21.071244-739.0136 21.157645-748.53799 11.217498-748.8938 .832489-747.45327-11.630718-738.61618-22.258456-726.58578-22.388976-713.99526-21.808619-705.1017-11.304239-704.2424 .395157Z"/>
<path transform="matrix(1,0,0,-1,868.735,125.46867)" stroke-width=".75" stroke-linecap="round" stroke-linejoin="round" fill="none" stroke="#000000" d="M-447.88798-.095719C-448.1839 11.634656-458.96098 21.520464-470.78456 22.140532-481.7888 20.777895-490.8806 12.531803-492.294 .341641-491.52906-12.593864-481.21266-22.273108-469.97959-21.424042-457.91545-21.385735-448.14158-12.016951-447.88798-.095719Z"/>
<path transform="matrix(1,0,0,-1,868.735,125.46867)" stroke-width=".75" stroke-linecap="round" stroke-linejoin="round" fill="none" stroke="#000000" d="M-192.84336 .749813C-190.98659 11.605578-202.48851 20.80351-214.2244 22.207123-226.0466 22.322445-235.50128 12.758533-235.03878 .781218-235.45215-11.763628-225.92897-21.518513-212.82404-21.928418-201.22707-21.079993-192.41681-11.41447-192.84336 .749813Z"/>
<path transform="matrix(1,0,0,-1,868.735,125.46867)" stroke-width=".75" stroke-linecap="round" stroke-linejoin="round" fill="none" stroke="#000000" d="M-811.7024 .145567C-790.6887-.00821-769.8017 .124474-748.094-.226015"/>
<path transform="matrix(1,0,0,-1,868.735,125.46867)" stroke-width=".75" stroke-linecap="round" stroke-linejoin="round" fill="none" stroke="#000000" d="M-761.45986-8.292433C-758.0123-4.398357-753.8309-.870139-748.0383-.065367-753.6107 1.45523-757.754 4.122894-760.898 7.906727"/>
<path transform="matrix(1,0,0,-1,868.735,125.46867)" stroke-width=".75" stroke-linecap="round" stroke-linejoin="round" fill="none" stroke="#000000" d="M-704.5533-.197862C-684.05697 .207314-662.30996 .121132-641.68777 .285435"/>
<path transform="matrix(1,0,0,-1,868.735,125.46867)" stroke-width=".75" stroke-linecap="round" stroke-linejoin="round" fill="none" stroke="#000000" d="M-654.25387-8.189658C-650.9607-3.603822-646.15188-1.237535-641.53598 .351458-646.60818 1.469079-650.55337 4.065798-653.70138 7.908248"/>
<path transform="matrix(1,0,0,-1,868.735,125.46867)" stroke-width=".75" stroke-linecap="round" stroke-linejoin="round" fill="none" stroke="#000000" d="M-555.80667 .171534C-534.063-.377316-512.71719 .283649-492.06825-.084134"/>
<path transform="matrix(1,0,0,-1,868.735,125.46867)" stroke-width=".75" stroke-linecap="round" stroke-linejoin="round" fill="none" stroke="#000000" d="M-504.5978-8.037751C-501.86695-3.808396-497.32847-.948438-492.20393-.401774-497.29396 1.163932-501.36949 3.816901-504.6441 7.833466"/>
<path transform="matrix(1,0,0,-1,868.735,125.46867)" stroke-width=".75" stroke-linecap="round" stroke-linejoin="round" fill="none" stroke="#000000" d="M-448.60884 .21444C-427.02934 .257957-405.88566-.290983-385.12467 .128867"/>
<path transform="matrix(1,0,0,-1,868.735,125.46867)" stroke-width=".75" stroke-linecap="round" stroke-linejoin="round" fill="none" stroke="#000000" d="M-397.9713-7.768121C-394.5324-3.717835-389.87644-1.202968-385.37889 .203962-389.68363 1.604475-394.46345 3.748413-397.64057 8.191022"/>
<path transform="matrix(1,0,0,-1,868.735,125.46867)" stroke-width=".75" stroke-linecap="round" stroke-linejoin="round" fill="none" stroke="#000000" d="M-298.9215 .059975C-278.01524 .43538-256.2786 .298778-235.88486-.077669"/>
<path transform="matrix(1,0,0,-1,868.735,125.46867)" stroke-width=".75" stroke-linecap="round" stroke-linejoin="round" fill="none" stroke="#000000" d="M-248.35123-8.467483C-245.06612-4.051836-240.41492-1.459178-235.22481 .30347-240.66028 1.513147-245.32848 4.206228-248.50756 8.371351"/>
<path transform="matrix(1,0,0,-1,868.735,125.46867)" stroke-width=".75" stroke-linecap="round" stroke-linejoin="round" fill="none" stroke="#000000" d="M-191.46672-.219867C-170.70922 .054107-149.56185 .331351-128.18296-.028938"/>
<path transform="matrix(1,0,0,-1,868.735,125.46867)" stroke-width=".75" stroke-linecap="round" stroke-linejoin="round" fill="none" stroke="#000000" d="M-141.0136-7.816189C-138.08803-4.075597-133.6282-1.260027-128.81925 .23967-133.93532 .902681-137.91619 4.156013-140.86693 7.680825"/>
<path transform="matrix(1,0,0,-1,868.735,125.46867)" stroke-width=".75" stroke-linecap="round" stroke-linejoin="round" fill="none" stroke="#000000" d="M-42.484617 .173449C-14.325955 .027873 14.304379-.244187 41.835889-.253655"/>
<path transform="matrix(1,0,0,-1,868.735,125.46867)" stroke-width=".75" stroke-linecap="round" stroke-linejoin="round" fill="none" stroke="#000000" d="M29.189673-7.745761C32.54672-4.234726 37.03253-.991852 42.36433 .256678 37.230825 1.538499 32.699979 3.703841 29.087792 8.381421"/>
<path transform="matrix(1,0,0,-1,868.735,125.46867)" stroke-width=".75" stroke-linecap="round" stroke-linejoin="round" fill="none" stroke="#000000" d="M128.41852 .177546C156.46323 .222535 184.73352 .310229 213.32479 .404316"/>
<path transform="matrix(1,0,0,-1,868.735,125.46867)" stroke-width=".75" stroke-linecap="round" stroke-linejoin="round" fill="none" stroke="#000000" d="M200.41252-8.507384C203.43292-4.325881 207.84961-1.494686 213.44232-.02277 208.3039 1.262661 203.88153 3.581172 200.11679 7.75985"/>
<path transform="matrix(1,0,0,-1,868.735,125.46867)" stroke-width=".75" stroke-linecap="round" stroke-linejoin="round" fill="none" stroke="#000000" d="M.206138-.12245C.397307 30.544974-.003907 61.161386-.020332 92.222988-99.35943 92.36193-199.76363 92.38547-299.3875 92.009479"/>
<path transform="matrix(1,0,0,-1,868.735,125.46867)" stroke-width=".75" stroke-linecap="round" stroke-linejoin="round" fill="none" stroke="#000000" d="M-286.6548 100.06937C-289.84306 96.86014-293.72068 93.22941-298.94078 92.672618-294.41435 91.41614-289.91255 88.59939-286.78089 84.60246"/>
<path transform="matrix(1,0,0,-1,868.735,125.46867)" stroke-width=".75" stroke-linecap="round" stroke-linejoin="round" fill="none" stroke="#000000" d="M-384.34358 92.416728C-413.09263 92.58533-442.0073 92.6385-470.02107 92.623348-470.2492 68.55323-470.27537 45.350416-470.04014 22.32322"/>
<path transform="matrix(1,0,0,-1,868.735,125.46867)" stroke-width=".75" stroke-linecap="round" stroke-linejoin="round" fill="none" stroke="#000000" d="M-478.05787 34.504365C-474.3831 31.378245-471.34974 27.41616-469.56697 22.114052-469.00764 26.823044-465.63337 31.444148-461.82856 34.429849"/>
<path transform="matrix(1,0,0,-1,868.735,125.46867)" stroke-width=".75" stroke-linecap="round" stroke-linejoin="round" fill="none" stroke="#000000" d="M170.2885-.246264C170.81678-30.578488 170.21775-61.236795 170.32741-92.395679 128.32889-92.82453 85.227878-92.7833 42.83902-92.39792"/>
<path transform="matrix(1,0,0,-1,868.735,125.46867)" stroke-width=".75" stroke-linecap="round" stroke-linejoin="round" fill="none" stroke="#000000" d="M55.532194-84.135257C52.339818-88.84997 47.412748-91.27186 42.46127-92.00161 47.314287-93.9591 52.126039-96.76637 55.307756-100.53444"/>
<path transform="matrix(1,0,0,-1,868.735,125.46867)" stroke-width=".75" stroke-linecap="round" stroke-linejoin="round" fill="none" stroke="#000000" d="M-43.132024-92.791919C-99.93743-92.31151-156.90352-92.54864-213.21532-91.998767-213.40624-68.91064-213.68163-45.542863-213.93004-21.669339"/>
<path transform="matrix(1,0,0,-1,868.735,125.46867)" stroke-width=".75" stroke-linecap="round" stroke-linejoin="round" fill="none" stroke="#000000" d="M-205.7227-35.068075C-209.72702-31.208455-212.05904-26.814234-213.23049-22.07644-214.2853-26.657593-217.6311-31.269215-221.16802-34.43312"/>
<path transform="matrix(1,0,0,-1,868.735,125.46867)" stroke-width=".75" stroke-linecap="round" stroke-linejoin="round" fill="none" stroke="#000000" d="M170.96674 .291402C170.95507-61.693635 170.69301-122.952327 170.53856-184.85704 13.753377-184.60916-142.43555-184.48914-299.43028-185.14119"/>
<path transform="matrix(1,0,0,-1,868.735,125.46867)" stroke-width=".75" stroke-linecap="round" stroke-linejoin="round" fill="none" stroke="#000000" d="M-286.0894-177.19496C-289.76118-180.66928-293.7202-183.28533-299.19837-184.98535-294.45805-185.66526-289.90437-189.15035-286.33503-193.30579"/>
<path transform="matrix(1,0,0,-1,868.735,125.46867)" stroke-width=".75" stroke-linecap="round" stroke-linejoin="round" fill="none" stroke="#000000" d="M-384.8479-184.57689C-498.57603-184.44762-612.907-184.98545-726.3008-184.40302-726.2049-130.41014-726.36837-76.40212-726.58828-22.305974"/>
<path transform="matrix(1,0,0,-1,868.735,125.46867)" stroke-width=".75" stroke-linecap="round" stroke-linejoin="round" fill="none" stroke="#000000" d="M-718.5123-34.31199C-722.747-31.445128-725.2959-26.618014-726.0462-21.594336-727.8136-26.735459-730.7653-31.872702-734.3377-34.55004"/>
<use data-text="+" xlink:href="#font_11_1" transform="matrix(21.519354,0,0,-21.519316,104.24097,117.72583)"/>
<use data-text="&#x2212;" xlink:href="#font_11_7" transform="matrix(21.519371,0,0,-21.519288,148.44013,156.07807)"/>
<use data-text="+" xlink:href="#font_11_1" transform="matrix(21.519354,0,0,-21.519316,360.69157,117.72583)"/>
<use data-text="&#x2212;" xlink:href="#font_11_7" transform="matrix(21.519371,0,0,-21.519288,404.8908,100.67114)"/>
<use data-text="+" xlink:href="#font_11_1" transform="matrix(21.519354,0,0,-21.519316,617.1422,117.72583)"/>
<use data-text="&#x2212;" xlink:href="#font_11_7" transform="matrix(21.519371,0,0,-21.519288,661.34146,156.07807)"/>
<use data-text="U" xlink:href="#font_11_8" transform="matrix(21.519457,0,0,-21.519398,6.814392,130.84995)"/>
<use data-text="(" xlink:href="#font_11_4" transform="matrix(21.519457,0,0,-21.519398,23.470456,130.84995)"/>
<use data-text="s" xlink:href="#font_11_5" transform="matrix(21.519457,0,0,-21.519398,33.015626,130.84995)"/>
<use data-text=")" xlink:href="#font_11_6" transform="matrix(21.519457,0,0,-21.519398,44.0026,130.84995)"/>
<use data-text="Y" xlink:href="#font_11_9" transform="matrix(21.519246,0,0,-21.519398,1086.4069,130.84995)"/>
<use data-text="(" xlink:href="#font_11_4" transform="matrix(21.519246,0,0,-21.519398,1099.5556,130.84995)"/>
<use data-text="s" xlink:href="#font_11_5" transform="matrix(21.519246,0,0,-21.519398,1109.1007,130.84995)"/>
<use data-text=")" xlink:href="#font_11_6" transform="matrix(21.519246,0,0,-21.519398,1120.0875,130.84995)"/>
</svg>
