<svg xmlns="http://www.w3.org/2000/svg" xmlns:xlink="http://www.w3.org/1999/xlink" xmlns:inkscape="http://www.inkscape.org/namespaces/inkscape" version="1.1" width="922.0901" height="354.0624" viewBox="0 0 922.0901 354.0624">
<defs>
<path id="font_6_1" d="M.04598999 .23632813H.35598756V-.07368469L.3959961-.06668091V.23632813H.70399478L.70899966 .2763214H.3959961V.58631899L.35598756 .58032229V.2763214H.052993776L.04598999 .23632813Z"/>
<path id="font_6_2" d="M.08999634 .32458497C.08999634 .22958374 .114990238 .13148499 .18299866 .06341553 .23699951 .009384155 .31199647-.016601563 .3880005-.016601563 .46099855-.016601563 .56900027 .010391235 .6569977 .03338623 .6569977 .03338623 .6539917 .216568 .6519928 .30760194L.37599183 .2966156V.27061463L.38198854 .265625C.43598939 .26361085 .5 .25961305 .5439911 .25660707 .57199099 .25460816 .57199099 .22257996 .57199099 .13449097 .57199099 .061416627 .56900027 .04940796 .5519867 .045394899 .5209961 .038391115 .48999024 .03538513 .45799256 .03538513 .37998963 .03538513 .30599977 .060409547 .2619934 .112472537 .20399475 .18052674 .17999268 .25260926 .17999268 .3405609 .17999268 .48339845 .23199463 .5653076 .26098634 .5942688 .3039856 .63623049 .36299134 .6502075 .42199708 .6502075 .5529938 .6502075 .59298709 .5563202 .60598757 .53034976L.6179962 .5293579 .6759949 .58628848C.6649933 .6032715 .6119995 .69921877 .46699525 .69921877 .3619995 .69921877 .25698854 .6682129 .18199158 .593277 .11199951 .5233612 .08999634 .4224701 .08999634 .32458497Z"/>
<path id="font_6_3" d="M.1349945 .6123047H.22898865C.25698854 .6123047 .27999879 .59129336 .2809906 .5662842 .28199769 .541275 .28199769 .46824647 .28199769 .41923524 .28199769 .27919007 .27799989 .13916016 .272995 .00010681152L.28599549-.0048828127 .3809967 .022125245C.37799073 .09814453 .37799073 .2962036 .37799073 .43223573 .37799073 .52127078 .37998963 .6112976 .38598634 .7003021L.3789978 .71229556 .1349945 .6392975V.6123047Z"/>
<path id="font_6_4" d="M.11299133 .24990845C.11299133 .007904053 .1519928-.09008789 .18299866-.13310242 .21099854-.17008972 .25299073-.20809937 .30099488-.21209717V-.1880951C.2809906-.18409729 .25099183-.16809082 .23399353-.1481018 .21998596-.13209534 .16499329-.05809021 .16499329 .24990845 .16499329 .4618988 .19799805 .5659027 .21998596 .6128998 .23599243 .6469116 .2689972 .6769104 .30099488 .684906V.71191409C.2599945 .7049103 .21598816 .6729126 .19099427 .63790896 .1599884 .5919037 .11299133 .4748993 .11299133 .24990845Z"/>
<path id="font_6_5" d="M.051986696 .06642151C.06199646 .047409059 .07598877 .030395508 .09199524 .01638794 .12098694-.009613037 .16099549-.016601563 .19898987-.016601563 .2559967-.016601563 .31199647 .0023956299 .35099793 .044403078 .375 .06941223 .3869934 .10343933 .3869934 .13845825 .3869934 .1634674 .37298585 .18649292 .35499574 .20449829 .34098817 .21850586 .3039856 .24052429 .27198792 .25453187 .24299622 .26654054 .19999695 .2885437 .18798828 .30055238 .17298889 .31655885 .1619873 .3285675 .1619873 .35058595 .1619873 .3725891 .16899109 .39360047 .18499756 .4086151 .19999695 .42362977 .22200012 .43164063 .24398804 .43164063 .2639923 .43164063 .2849884 .42462159 .29599 .4066162 .30599977 .39060975 .30799867 .3715973 .30899049 .35359193L.32099916 .34657289 .37599183 .38360597C.375 .40560914 .3639984 .42662049 .34799195 .44163514 .32499696 .46263124 .29299928 .46662904 .2630005 .46662904 .21398926 .46662904 .16699219 .45063783 .1309967 .4176178 .10398865 .39360047 .08999634 .35858155 .08999634 .32356263 .08999634 .29154969 .10798645 .26353456 .1309967 .2425232 .1539917 .22250366 .18399048 .2084961 .21499634 .1954956 .24099732 .18447876 .2689972 .17248535 .28799439 .1534729 .30299378 .13845825 .31399537 .11845398 .31399537 .09744263 .31399537 .079422 .30499269 .062408449 .29299928 .04940796 .27799989 .03340149 .25099183 .021392823 .22898865 .021392823 .19898987 .021392823 .17199707 .03439331 .1499939 .055404664 .1269989 .076416019 .116989139 .10644531 .114990238 .13645935L.100997928 .13745117 .051986696 .06642151Z"/>
<path id="font_6_6" d="M.085998538-.1880951V-.21209717C.13398743-.20610047 .1789856-.17208863 .20698548-.13510132 .23799134-.09210205 .27598573 .007904053 .27598573 .24990845 .27598573 .50090029 .22399903 .5919037 .19299317 .63790896 .16799927 .6729126 .1269989 .7049103 .085998538 .71191409V.684906C.117996219 .6759033 .14898682 .6469116 .16499329 .6128998 .18699646 .5659027 .22399903 .48190309 .22399903 .24990845 .22399903-.099090579 .17199707-.13209534 .1579895-.1481018 .14099121-.16809082 .10598755-.18409729 .085998538-.1880951Z"/>
<path id="font_6_12" d="M.051986696 .6781769 .052993776 .6591797C.07299805 .65216067 .10899353 .6411438 .11299133 .6401367 .12298584 .6361389 .125 .6251221 .12599182 .6161041 .1309967 .53297427 .13198853 .44985963 .13198853 .36676026 .13198853 .24482727 .13198853 .11590576 .12199402 .0029907227L.12799073-.0020141602 .21998596 .025970459C.21699524 .051956178 .21499634 .10292053 .21499634 .1798706V.33377076C.21499634 .34075929 .22099304 .34576417 .22799683 .34576417H.57099917C.5799866 .34576417 .58299258 .33876039 .58299258 .33377076 .58299258 .23683167 .5799866 .11790466 .5779877 .020980835L.58898928 0 .73799136 .0078125 .74398806 .013809204 .7429962 .031799318C.72499087 .03981018 .66600039 .03981018 .66600039 .07879639 .66600039 .09979248 .6619873 .24076844 .6619873 .32176209 .6619873 .5129547 .66999819 .64515689 .6729889 .6841736L.66799929 .6901703 .5799866 .673172C.5799866 .58706668 .58299258 .48291017 .58299258 .3967743 .58299258 .39076234 .58200076 .38476563 .57099917 .38476563H.22499085C.21499634 .38476563 .21299744 .3917694 .21299744 .3967743 .21299744 .4618683 .21699524 .54600527 .21899414 .61109927 .21998596 .63414 .22200012 .6581726 .22599793 .6801758L.22099304 .6851654H.05899048L.051986696 .6781769Z"/>
<path id="font_6_11" d="M.050994874 .049362184 .05899048 .038375856C.10998535 .0033874512 .17098999-.016601563 .23599243-.016601563 .31799317-.016601563 .397995 .008392334 .45700074 .05935669 .5039978 .10131836 .5349884 .15626526 .5349884 .21520996 .5349884 .25416566 .519989 .2911377 .48999024 .31811524 .46899415 .3360901 .44198609 .34709168 .41600038 .35508729 .3789978 .36608888 .34199525 .37109376 .30299378 .37408448V.38209535C.34999085 .39408876 .3939972 .41609193 .42900086 .44610597 .46499635 .47810365 .48199464 .52311709 .48199464 .5681305 .48199464 .60414126 .46798707 .6401367 .43899537 .6651459 .40699769 .6941376 .36099244 .70214846 .31698609 .70214846 .2849884 .70214846 .25498963 .69114688 .22599793 .67814639 .18598938 .6591339 .14698792 .63414 .11199951 .60813906L.12799073 .58613589C.1539917 .60113528 .17999268 .6151428 .20799256 .6261444 .22799683 .6331482 .24699402 .6391449 .2659912 .6391449 .2999878 .6391449 .33299256 .6321411 .35598756 .61112979 .37799073 .59213259 .3889923 .5671234 .3889923 .54011538 .3889923 .502121 .37199403 .46510316 .34098817 .43710328 .32299806 .4210968 .29899598 .40908814 .27398683 .39909364 .24198914 .38609315 .20698548 .37808229 .17298889 .37109376L.17199707 .34509278C.21398926 .34509278 .2559967 .34309388 .29699708 .3340912 .32499696 .32809449 .35299684 .31910707 .37298585 .30012513 .4059906 .26914979 .42900086 .22920227 .42900086 .18623352 .42900086 .14128113 .41299439 .095321658 .3769989 .06335449 .34599305 .036376954 .30599977 .023391724 .2639923 .023391724 .22299195 .023391724 .18499756 .041366579 .1559906 .067352298 .13798523 .08332825 .12399292 .10131836 .10998535 .121292117H.09899902L.050994874 .049362184Z"/>
<path id="font_6_7" d="M.04598999 .23046875H.70399478L.70999148 .27046205H.052993776L.04598999 .23046875Z"/>
<path id="font_6_8" d="M.033996583 .6733093 .035995485 .6533203C.037994386 .6533203 .07398987 .6443176 .09199524 .63931277 .12298584 .6313019 .125 .6222992 .125 .54229739 .125 .46427918 .12199402 .38627626 .12199402 .30825807 .12199402 .24723816 .12399292 .17323303 .12998963 .12721253 .1349945 .08821106 .1559906-.0087890629 .31399537-.0087890629 .39698792-.0087890629 .47698976 .02520752 .5469971 .07020569L.5549927 .064208988C.5549927 .048202516 .5549927 .032196046 .55599978 .016204834 .55799868 .0012054443 .57598879-.0047912599 .58799746-.0047912599 .61898806-.0047912599 .6899872 .016204834 .7409973 .032196046L.74598696 .03919983 .74198916 .05619812C.7220001 .05419922 .70399478 .048202516 .6839905 .048202516 .673996 .048202516 .6609955 .050201417 .6539917 .0592041 .6389923 .07620239 .6359863 .15222168 .6359863 .20223999 .6359863 .3642578 .6369934 .5733032 .6519928 .68733218L.6459961 .69433596 .55799868 .659317C.55599978 .47727967 .55400088 .2942505 .55400088 .11122131 .5 .079208377 .43998719 .052200319 .37799073 .052200319 .24598694 .052200319 .22399903 .13922119 .21598816 .16522217 .20599365 .19923401 .20199585 .23423767 .20199585 .26924134L.20999146 .54229739C.20999146 .55929568 .21598816 .6603241 .21798706 .67433169L.21099854 .6803131H.041992189L.033996583 .6733093Z"/>
<path id="font_6_9" d="M.022994996 .6513672C.036987306 .649353 .049987794 .6463623 .06298828 .6433563 .07199097 .6413574 .07998657 .6353607 .085998538 .62835696 .09599304 .61834719 .102996829 .60635378 .10899353 .5943451L.2579956 .29930116C.2579956 .19927979 .2579956 .0982666 .25498963-.0017547608L.2659912-.0107421879 .35598756 .018249512 .34700013 .30630494C.42999269 .4343109 .5039978 .5303345 .61499026 .675354L.61099246 .6933594 .526001 .6763611C.48999024 .619339 .4059906 .47431947 .397995 .46032716 .3849945 .4373169 .34199525 .36730958 .33898927 .3623047 .33599855 .3572998 .33198548 .353302 .32798768 .353302 .32199098 .353302 .31698609 .3592987 .31599427 .36131288L.1749878 .6863556H.02999878L.022994996 .67936709V.6513672Z"/>
<path id="font_6_10" d="M.04499817 .001953125H.5379944L.56399539 .079940799 .5589905 .08795166H.20999146C.20399475 .08795166 .19799805 .08894348 .19599915 .092941287 .19499207 .094940189 .19599915 .09794617 .19699097 .09895325 .2539978 .1569519 .30799867 .21495056 .35899354 .27496339 .394989 .31697084 .42999269 .358963 .45799256 .40496827 .48799134 .4509735 .5119934 .49998475 .5119934 .5529938 .5119934 .59399417 .49899293 .6349945 .46499635 .66400149 .43199159 .69299319 .3880005 .7080078 .34199525 .7080078 .29899598 .7080078 .2579956 .6970062 .22099304 .67900088 .17599488 .65800479 .13699341 .6279907 .102996829 .59498599L.125 .57598879C.1519928 .59599307 .17799378 .61099246 .20999146 .6259918 .23098755 .6360016 .2559967 .6399994 .2809906 .6399994 .31399537 .6399994 .34700013 .6289978 .37098695 .6069946 .40098573 .5779877 .4079895 .5369873 .4079895 .50798037 .4079895 .4429779 .38198854 .38197328 .34298707 .3259735 .31098939 .27996827 .27198792 .23796082 .23199463 .19696045 .17199707 .13494873 .10899353 .07594299 .04499817 .017944336V.001953125Z"/>
<path id="font_6_13" d="M.09199524 .6121063H.1749878C.19999695 .6121063 .21998596 .5911102 .22099304 .56611636 .22200012 .5411072 .22200012 .46810914 .22200012 .41911317 .22200012 .27911378 .21899414 .13911438 .21398926 .00010681152L.22599793-.0048828127 .30999757 .022109986C.30699159 .09811401 .30699159 .29611207 .30699159 .43211366 .30699159 .52111819 .30899049 .6111145 .31399537 .70010378L.30799867 .7121124 .09199524 .6391144V.6121063Z"/>
</defs>
<path transform="matrix(1,0,0,-1,291.6669,43.795625)" d="M53.197404-220.63538C217.6311-221.23567 381.81324-221.23497 545.9354-221.06908 546.10848-135.05826 546.45986-49.80384 546.19149 36.299005 382.3482 35.838544 217.35047 36.36891 53.191747 35.71526 52.612947-49.588197 52.772935-134.89832 53.197404-220.63538Z" fill="#d9d9d9"/>
<path transform="matrix(1,0,0,-1,291.6669,43.795625)" stroke-width=".75" stroke-linecap="round" stroke-dasharray="4.5,4.5" stroke-linejoin="round" fill="none" stroke="#000000" d="M52.8162-221.03299C217.18912-221.05828 382.02595-220.57207 546.4113-221.01284 546.16366-135.52048 546.6751-49.214517 546.69369 36.14068 381.67643 36.334329 217.67711 36.328859 53.1643 36.55068 53.208448-49.80844 52.75503-135.1795 52.8162-221.03299Z"/>
<use data-text="+" xlink:href="#font_6_1" transform="matrix(37.185197,0,0,-37.18505,277.6274,53.316438)"/>
<use data-text="G" xlink:href="#font_6_2" transform="matrix(21.519362,0,0,-21.519398,135.64244,49.17691)"/>
<use data-text="1" xlink:href="#font_6_3" transform="matrix(16.438399,0,0,-16.438426,152.1097,53.477907)"/>
<use data-text="(" xlink:href="#font_6_4" transform="matrix(21.519362,0,0,-21.519398,162.35228,49.17691)"/>
<use data-text="s" xlink:href="#font_6_5" transform="matrix(21.519362,0,0,-21.519398,171.8974,49.17691)"/>
<use data-text=")" xlink:href="#font_6_6" transform="matrix(21.519362,0,0,-21.519398,182.88434,49.17691)"/>
<use data-text="H" xlink:href="#font_6_12" transform="matrix(21.51913,0,0,-21.519398,638.2163,326.40208)"/>
<use data-text="3" xlink:href="#font_6_11" transform="matrix(16.438221,0,0,-16.438426,655.07077,330.53865)"/>
<use data-text="(" xlink:href="#font_6_4" transform="matrix(21.51913,0,0,-21.519398,665.3133,326.40208)"/>
<use data-text="s" xlink:href="#font_6_5" transform="matrix(21.51913,0,0,-21.519398,674.85836,326.40208)"/>
<use data-text=")" xlink:href="#font_6_6" transform="matrix(21.51913,0,0,-21.519398,685.8451,326.40208)"/>
<path transform="matrix(1,0,0,-1,291.6669,43.795625)" stroke-width=".75" stroke-linecap="round" stroke-linejoin="round" fill="none" stroke="#000000" d="M-155.28202-25.679656C-156.4662-25.717947-156.33188-25.745482-155.39856-24.050412-137.21782-25.08705-119.896648-24.28414-100.03111-25.241755-85.643398-25.53574-85.61193-25.55347-84.605998-9.343808-86.337879-3.157255-86.3727 2.70955-85.26916 9.712498-85.59359 25.246432-84.91445 25.35738-100.14267 24.931115-119.88482 25.01657-138.03913 25.43911-155.35756 24.724257-170.06801 25.34779-170.70424 24.953959-170.54833 9.201211-170.57036 3.006002-171.84253-4.256786-171.13857-10.812539-171.74315-24.055134-170.78722-24.479641-155.28202-25.679656Z"/>
<path transform="matrix(1,0,0,-1,291.6669,43.795625)" stroke-width=".75" stroke-linecap="round" stroke-linejoin="round" fill="none" stroke="#000000" d="M347.2043-303.08103C347.34284-302.51747 346.31044-301.68409 346.5429-303.02113 364.94676-301.86183 384.36894-301.77949 402.1688-302.39234 417.28575-301.43516 418.20915-301.60093 418.0428-287.21833 416.64009-280.4701 417.49024-274.86726 416.93714-267.53224 417.14573-252.68251 416.85139-252.10767 401.57569-251.59365 384.55668-251.78244 364.38175-253.23288 345.63307-252.36679 331.25813-252.0994 332.2497-252.66922 331.17948-267.10569 331.14585-274.13584 330.69624-280.58308 330.83055-286.75196 330.91227-302.83903 330.5789-302.5908 347.2043-303.08103Z"/>
<path transform="matrix(1,0,0,-1,291.6669,43.795625)" stroke-width=".75" stroke-linecap="round" stroke-linejoin="round" fill="none" stroke="#000000" d="M20.814339-.348926C22.397835 12.867063 12.08139 21.035445 .901985 21.823662-12.135868 22.12555-22.11439 10.988479-20.786898-.656282-21.86674-12.570607-12.67159-21.735848-.844765-20.974276 12.020285-21.029839 20.719843-11.176054 20.814339-.348926Z"/>
<path transform="matrix(1,0,0,-1,291.6669,43.795625)" stroke-width=".75" stroke-linecap="round" stroke-linejoin="round" fill="none" stroke="#000000" d="M-235.24877-.264711C-213.6471-.075697-192.57566-.264701-171.3295 .352034"/>
<path transform="matrix(1,0,0,-1,291.6669,43.795625)" stroke-width=".75" stroke-linecap="round" stroke-linejoin="round" fill="none" stroke="#000000" d="M-184.34993-7.909658C-180.8881-3.878618-176.28867-.893241-171.65584-.113353-176.6178 1.057088-181.09192 3.654258-184.10987 8.329139"/>
<path transform="matrix(1,0,0,-1,291.6669,43.795625)" stroke-width=".75" stroke-linecap="round" stroke-linejoin="round" fill="none" stroke="#000000" d="M-85.55395-.430802C-64.34026-.268607-43.067739 .213936-21.838162-.429498"/>
<path transform="matrix(1,0,0,-1,291.6669,43.795625)" stroke-width=".75" stroke-linecap="round" stroke-linejoin="round" fill="none" stroke="#000000" d="M-34.5901-7.680761C-31.864426-4.140337-26.958987-.813511-21.669718-.086348-27.007983 1.141065-31.20811 3.847624-34.260305 7.764925"/>
<path transform="matrix(1,0,0,-1,291.6669,43.795625)" stroke-width=".75" stroke-linecap="round" stroke-linejoin="round" fill="none" stroke="#000000" d="M21.73409-.391496C35.960695-.048715 49.44738 .08767 63.719888-.213511"/>
<path transform="matrix(1,0,0,-1,291.6669,43.795625)" stroke-width=".75" stroke-linecap="round" stroke-linejoin="round" fill="none" stroke="#000000" d="M50.87605-7.715803C54.407258-4.333436 58.865907-.710593 63.4904 .006553 58.41041 1.330198 54.12439 4.103214 51.325963 7.692102"/>
<path transform="matrix(1,0,0,-1,291.6669,43.795625)" stroke-width=".75" stroke-linecap="round" stroke-linejoin="round" fill="none" stroke="#000000" d="M491.7157 .039904C520.1929-.125465 548.55087 .252947 577.009-.162264"/>
<path transform="matrix(1,0,0,-1,291.6669,43.795625)" stroke-width=".75" stroke-linecap="round" stroke-linejoin="round" fill="none" stroke="#000000" d="M564.5798-7.900778C567.35928-3.75941 572.115-1.331162 577.27517-.021652 571.69509 .950258 567.5451 3.685683 563.9927 8.129807"/>
<path transform="matrix(1,0,0,-1,291.6669,43.795625)" stroke-width=".75" stroke-linecap="round" stroke-linejoin="round" fill="none" stroke="#000000" d="M534.8009 .198736C534.1397-92.409099 534.22628-184.7829 534.90206-277.56028 495.83595-277.4788 455.92268-277.39073 417.02937-277.11555"/>
<path transform="matrix(1,0,0,-1,291.6669,43.795625)" stroke-width=".75" stroke-linecap="round" stroke-linejoin="round" fill="none" stroke="#000000" d="M429.40498-268.99293C427.06349-273.05348 422.0272-276.4834 416.90553-277.11265 422.44169-278.40467 426.5635-281.072 430.18553-285.6299"/>
<path transform="matrix(1,0,0,-1,291.6669,43.795625)" stroke-width=".75" stroke-linecap="round" stroke-linejoin="round" fill="none" stroke="#000000" d="M331.2503-277.07377C220.63259-276.9803 110.91005-277.5122 .412282-277.08699 .118444-192.3457 .069785-107.11645 .385923-21.771485"/>
<path transform="matrix(1,0,0,-1,291.6669,43.795625)" stroke-width=".75" stroke-linecap="round" stroke-linejoin="round" fill="none" stroke="#000000" d="M7.657484-35.081686C4.15783-31.23364 .760656-27.310334 .204139-21.603234-.747637-27.219185-4.306071-31.142718-8.033701-34.453958"/>
<path transform="matrix(1,0,0,-1,291.6669,43.795625)" stroke-width=".75" stroke-linecap="round" stroke-linejoin="round" fill="none" stroke="#000000" d="M-156.30269-24.18612C-155.81368-24.886958-156.83477-24.081564-155.8518-25.130202-137.99365-24.545477-119.24838-25.830376-100.218639-24.869973-86.1903-25.223135-85.74375-25.885956-85.8797-10.883384-86.06958-3.496196-84.95432 4.074386-85.63607 9.833398-85.747 24.619528-85.18706 24.66557-100.38028 24.380887-118.54889 24.604424-138.34127 25.545462-156.30609 25.485972-170.22782 25.128905-170.98709 25.05159-171.0992 10.069806-170.641 3.011309-171.5523-3.198207-170.3148-9.072016-171.0481-24.595065-171.70978-24.73402-156.30269-24.18612Z"/>
<path transform="matrix(1,0,0,-1,291.6669,43.795625)" stroke-width=".75" stroke-linecap="round" stroke-linejoin="round" fill="none" stroke="#000000" d="M346.4236-301.32728C345.94764-301.8447 347.39823-302.18647 346.6943-301.31843 365.0028-302.31208 383.68745-302.3314 402.72648-301.90888 416.81733-302.14057 417.814-302.38157 418.18028-286.5644 418.2776-280.0655 417.42173-274.57347 418.43553-268.0254 416.67814-251.9651 418.4023-252.1996 401.78425-252.33124 383.91508-251.4142 364.79444-251.80614 345.82-252.21805 331.76454-252.03684 330.6018-252.69489 331.27098-267.27165 331.3129-274.8642 331.41615-281.41419 332.49623-286.3597 330.61524-301.42695 331.04353-303.09309 346.4236-301.32728Z"/>
<path transform="matrix(1,0,0,-1,291.6669,43.795625)" stroke-width=".75" stroke-linecap="round" stroke-linejoin="round" fill="none" stroke="#000000" d="M21.228234-.213956C21.6118 12.775267 11.028283 22.090647-.431909 21.941433-12.50168 20.795737-22.58437 12.352965-21.810574-.719526-21.504878-12.151611-12.534126-21.497525 .005878-21.181693 11.887486-22.526759 21.869883-11.746688 21.228234-.213956Z"/>
<path transform="matrix(1,0,0,-1,291.6669,43.795625)" stroke-width=".75" stroke-linecap="round" stroke-linejoin="round" fill="none" stroke="#000000" d="M-235.2183-.252741C-213.3121 .392159-192.97393 .342637-171.39592-.248836"/>
<path transform="matrix(1,0,0,-1,291.6669,43.795625)" stroke-width=".75" stroke-linecap="round" stroke-linejoin="round" fill="none" stroke="#000000" d="M-184.19559-8.159595C-180.72377-3.706193-176.68032-1.488111-171.29308 .088366-176.39824 .925718-181.14829 4.040319-183.88228 8.310884"/>
<path transform="matrix(1,0,0,-1,291.6669,43.795625)" stroke-width=".75" stroke-linecap="round" stroke-linejoin="round" fill="none" stroke="#000000" d="M-85.05124-.266856C-64.09605-.285246-43.168519-.423045-21.691823-.186107"/>
<path transform="matrix(1,0,0,-1,291.6669,43.795625)" stroke-width=".75" stroke-linecap="round" stroke-linejoin="round" fill="none" stroke="#000000" d="M-34.67197-8.380025C-31.297434-3.840112-26.853676-.877184-22.221394 .359733-26.74743 1.054251-31.155646 3.980775-35.0168 7.755569"/>
<path transform="matrix(1,0,0,-1,291.6669,43.795625)" stroke-width=".75" stroke-linecap="round" stroke-linejoin="round" fill="none" stroke="#000000" d="M21.476 .320706C36.025659 .364059 49.61054-.116408 63.408-.329785"/>
<path transform="matrix(1,0,0,-1,291.6669,43.795625)" stroke-width=".75" stroke-linecap="round" stroke-linejoin="round" fill="none" stroke="#000000" d="M50.703054-8.322627C53.8866-3.629937 59.107114-1.222947 64.05851-.042631 58.47717 1.381899 54.24322 4.292336 51.386777 8.003148"/>
<path transform="matrix(1,0,0,-1,291.6669,43.795625)" stroke-width=".75" stroke-linecap="round" stroke-linejoin="round" fill="none" stroke="#000000" d="M492.37654 .337062C520.8214-.16427 549.1214 .13659 577.042 .326285"/>
<path transform="matrix(1,0,0,-1,291.6669,43.795625)" stroke-width=".75" stroke-linecap="round" stroke-linejoin="round" fill="none" stroke="#000000" d="M564.4606-7.990523C567.7217-3.941496 572.3342-1.294887 576.68136-.003922 572.367 1.209249 567.9634 3.623103 564.278 8.406663"/>
<path transform="matrix(1,0,0,-1,291.6669,43.795625)" stroke-width=".75" stroke-linecap="round" stroke-linejoin="round" fill="none" stroke="#000000" d="M534.6492-.421626C534.54037-92.6272 534.36447-184.71094 534.96188-277.4498 495.03126-277.07319 455.95805-276.8182 417.51829-276.78056"/>
<path transform="matrix(1,0,0,-1,291.6669,43.795625)" stroke-width=".75" stroke-linecap="round" stroke-linejoin="round" fill="none" stroke="#000000" d="M429.91838-269.42955C426.5371-273.20726 422.46357-276.34339 417.5717-277.50425 422.57899-278.05604 426.4211-281.0376 430.1797-285.7183"/>
<path transform="matrix(1,0,0,-1,291.6669,43.795625)" stroke-width=".75" stroke-linecap="round" stroke-linejoin="round" fill="none" stroke="#000000" d="M331.6354-276.82075C221.18477-277.13456 110.64145-276.96385-.347574-276.94184 .433013-192.45658 .41268-106.95771 .187482-22.07548"/>
<path transform="matrix(1,0,0,-1,291.6669,43.795625)" stroke-width=".75" stroke-linecap="round" stroke-linejoin="round" fill="none" stroke="#000000" d="M7.911885-35.04732C3.764481-31.83295 1.025279-27.220242-.273531-22.416005-1.47196-27.455313-4.402255-31.147654-8.407614-34.266126"/>
<path transform="matrix(1,0,0,-1,291.6669,43.795625)" stroke-width=".75" stroke-linecap="round" stroke-linejoin="round" fill="none" stroke="#000000" d="M-156.01718-24.367535C-155.62364-25.38351-156.01985-23.981202-155.9825-24.64768-137.59384-24.845444-119.83343-24.747738-99.55647-25.043509-86.01823-25.4191-86.13011-25.78622-85.0497-10.713978-86.01462-3.584686-86.13021 2.963625-85.88473 10.590042-85.45343 25.065625-85.36655 25.61091-99.90238 24.081402-119.61944 24.39273-138.07334 25.417553-156.36093 25.68039-171.74486 25.564423-170.8576 25.57802-171.1269 8.981362-171.30759 3.317151-170.92859-3.063811-171.95192-9.204243-171.83669-24.4356-171.93753-24.72069-156.01718-24.367535Z"/>
<path transform="matrix(1,0,0,-1,291.6669,43.795625)" stroke-width=".75" stroke-linecap="round" stroke-linejoin="round" fill="none" stroke="#000000" d="M345.9322-301.61604C346.3016-302.40974 347.1182-302.624 346.73554-302.88804 366.06956-302.55418 384.63148-302.1773 401.87074-302.45634 417.03935-301.5456 417.71885-302.4121 417.08949-287.65498 418.0843-280.88658 416.96467-274.2207 418.43858-268.13475 418.01823-252.86081 417.61347-251.33779 403.409-251.93564 384.47779-251.88884 366.03788-251.35752 345.7349-251.76358 332.50444-251.98258 330.98576-251.67441 332.03614-266.92878 330.59797-273.70753 331.4188-280.66545 331.2641-287.34675 332.31996-302.22315 331.95439-301.96949 345.9322-301.61604Z"/>
<path transform="matrix(1,0,0,-1,291.6669,43.795625)" stroke-width=".75" stroke-linecap="round" stroke-linejoin="round" fill="none" stroke="#000000" d="M20.783835-.564059C22.465939 12.577005 12.555349 21.439364 .030113 20.900673-12.60926 21.174946-21.381062 12.183812-20.977334 .376614-20.7284-12.049679-11.20221-20.763066-.339635-20.819262 11.155714-21.699412 20.673134-11.572842 20.783835-.564059Z"/>
<path transform="matrix(1,0,0,-1,291.6669,43.795625)" stroke-width=".75" stroke-linecap="round" stroke-linejoin="round" fill="none" stroke="#000000" d="M-234.5028 .115048C-213.56577 .433735-192.26224 .376364-171.44205 .068827"/>
<path transform="matrix(1,0,0,-1,291.6669,43.795625)" stroke-width=".75" stroke-linecap="round" stroke-linejoin="round" fill="none" stroke="#000000" d="M-184.08544-8.071215C-181.20343-4.027922-176.40845-1.108759-171.31015 .132683-176.23546 .796146-180.77684 3.919733-184.29738 7.748275"/>
<path transform="matrix(1,0,0,-1,291.6669,43.795625)" stroke-width=".75" stroke-linecap="round" stroke-linejoin="round" fill="none" stroke="#000000" d="M-85.78213 .036116C-64.48863-.099342-43.53633-.0168-22.462103-.236587"/>
<path transform="matrix(1,0,0,-1,291.6669,43.795625)" stroke-width=".75" stroke-linecap="round" stroke-linejoin="round" fill="none" stroke="#000000" d="M-34.8286-7.721791C-31.288104-4.405881-27.188138-1.336551-22.255059 .438013-27.437333 1.156021-31.06911 4.344535-34.84551 7.756764"/>
<path transform="matrix(1,0,0,-1,291.6669,43.795625)" stroke-width=".75" stroke-linecap="round" stroke-linejoin="round" fill="none" stroke="#000000" d="M21.270047 .393128C35.765535-.409764 50.15128-.092053 63.939355 .224828"/>
<path transform="matrix(1,0,0,-1,291.6669,43.795625)" stroke-width=".75" stroke-linecap="round" stroke-linejoin="round" fill="none" stroke="#000000" d="M51.186883-8.371694C54.104578-3.825371 58.775224-.80128 64.11904-.140319 59.063608 1.135546 53.964727 4.387135 50.74553 8.286056"/>
<path transform="matrix(1,0,0,-1,291.6669,43.795625)" stroke-width=".75" stroke-linecap="round" stroke-linejoin="round" fill="none" stroke="#000000" d="M491.7118-.36531C520.7228-.350968 548.8981-.21088 576.6937 .293463"/>
<path transform="matrix(1,0,0,-1,291.6669,43.795625)" stroke-width=".75" stroke-linecap="round" stroke-linejoin="round" fill="none" stroke="#000000" d="M564.66909-7.728741C567.18038-3.751835 571.8529-.767644 576.6643-.176442 572.4321 .947349 567.3467 3.798791 564.8281 7.740841"/>
<path transform="matrix(1,0,0,-1,291.6669,43.795625)" stroke-width=".75" stroke-linecap="round" stroke-linejoin="round" fill="none" stroke="#000000" d="M534.78219 .40818C534.4337-92.2157 534.82339-184.3817 534.22378-277.1027 495.12159-276.80897 455.87269-276.9086 417.50703-277.08186"/>
<path transform="matrix(1,0,0,-1,291.6669,43.795625)" stroke-width=".75" stroke-linecap="round" stroke-linejoin="round" fill="none" stroke="#000000" d="M429.77119-269.39695C426.95805-273.33946 421.84614-275.66868 417.27326-277.53919 422.22987-278.37608 426.6772-280.84193 430.01948-285.53907"/>
<path transform="matrix(1,0,0,-1,291.6669,43.795625)" stroke-width=".75" stroke-linecap="round" stroke-linejoin="round" fill="none" stroke="#000000" d="M331.25914-277.33445C221.12395-276.83973 110.96303-276.964-.17515-276.96437 .289439-191.80565-.149439-106.6935-.380187-22.371853"/>
<path transform="matrix(1,0,0,-1,291.6669,43.795625)" stroke-width=".75" stroke-linecap="round" stroke-linejoin="round" fill="none" stroke="#000000" d="M7.895449-34.397397C3.924189-31.342572 1.108614-26.836295 .218681-21.702757-1.042342-26.719344-4.376141-31.714737-8.109779-34.97734"/>
<path transform="matrix(1,0,0,-1,291.6669,43.795625)" stroke-width=".75" stroke-linecap="round" stroke-linejoin="round" fill="none" stroke="#000000" d="M-155.969-24.836548C-156.65042-24.365077-155.80768-25.01763-156.23918-25.364836-136.8857-25.446728-118.082798-24.761765-100.13976-24.53837-85.00017-25.118224-85.91094-25.557026-86.14752-10.258291-86.38305-3.565935-85.66859 2.817145-85.19567 9.195937-84.72491 24.383336-84.95659 24.091176-100.38962 24.308329-118.32184 24.920046-138.28008 25.008254-155.75283 25.760022-171.11144 25.901932-170.43482 25.76698-171.38292 9.346973-170.30452 3.901598-171.54349-3.37595-170.11823-9.639244-170.22008-24.87966-170.38755-25.59944-155.969-24.836548Z"/>
<path transform="matrix(1,0,0,-1,291.6669,43.795625)" stroke-width=".75" stroke-linecap="round" stroke-linejoin="round" fill="none" stroke="#000000" d="M345.73918-301.86613C347.50733-302.928 346.6342-301.41874 346.46315-302.8292 364.36668-302.6395 383.72233-302.46577 402.83503-302.63868 417.88136-301.62309 418.3151-302.77189 417.55009-287.5144 417.63087-279.66966 417.56959-273.16444 417.50248-267.85987 417.43855-251.32442 417.7183-251.57393 403.06153-252.27265 384.63783-252.97219 364.8209-253.01488 347.11198-252.05768 331.9264-252.97534 332.28688-251.93589 332.51487-267.05937 331.12544-273.1573 331.92256-280.79573 330.90315-286.71754 332.40888-301.79005 331.0763-302.3413 345.73918-301.86613Z"/>
<path transform="matrix(1,0,0,-1,291.6669,43.795625)" stroke-width=".75" stroke-linecap="round" stroke-linejoin="round" fill="none" stroke="#000000" d="M22.081482 .868161C21.05048 11.981149 11.171375 21.67529 .454952 21.545756-11.330788 20.949643-21.392594 12.023976-22.62005 .074896-21.433873-11.94306-11.632135-21.64933 .530769-20.82719 12.222589-22.402205 21.183955-11.620984 22.081482 .868161Z"/>
<path transform="matrix(1,0,0,-1,291.6669,43.795625)" stroke-width=".75" stroke-linecap="round" stroke-linejoin="round" fill="none" stroke="#000000" d="M-234.7363-.272855C-213.29627 .108235-192.28446-.401848-171.6933 .083098"/>
<path transform="matrix(1,0,0,-1,291.6669,43.795625)" stroke-width=".75" stroke-linecap="round" stroke-linejoin="round" fill="none" stroke="#000000" d="M-183.92369-8.123024C-181.20156-3.906202-176.46611-1.375418-171.067-.262713-176.44647 .864758-180.56328 3.989439-183.71166 8.145955"/>
<path transform="matrix(1,0,0,-1,291.6669,43.795625)" stroke-width=".75" stroke-linecap="round" stroke-linejoin="round" fill="none" stroke="#000000" d="M-85.36541-.054194C-64.54832-.10617-43.58801-.095257-21.649886-.042661"/>
<path transform="matrix(1,0,0,-1,291.6669,43.795625)" stroke-width=".75" stroke-linecap="round" stroke-linejoin="round" fill="none" stroke="#000000" d="M-34.329084-8.057305C-31.739846-3.933069-27.14685-1.091527-22.357468-.42842-27.249747 .794554-31.132536 3.965302-34.730787 7.956504"/>
<path transform="matrix(1,0,0,-1,291.6669,43.795625)" stroke-width=".75" stroke-linecap="round" stroke-linejoin="round" fill="none" stroke="#000000" d="M21.402009 .103007C35.618818-.167245 49.611246 .134405 64.06361 .097119"/>
<path transform="matrix(1,0,0,-1,291.6669,43.795625)" stroke-width=".75" stroke-linecap="round" stroke-linejoin="round" fill="none" stroke="#000000" d="M51.190828-7.912256C54.105817-3.836574 58.35231-.862954 63.36417-.251153 58.383638 1.537305 54.432069 3.960649 51.232099 7.822323"/>
<path transform="matrix(1,0,0,-1,291.6669,43.795625)" stroke-width=".75" stroke-linecap="round" stroke-linejoin="round" fill="none" stroke="#000000" d="M492.0627-.377562C520.03817 .266798 549.1534-.075197 576.9943-.263913"/>
<path transform="matrix(1,0,0,-1,291.6669,43.795625)" stroke-width=".75" stroke-linecap="round" stroke-linejoin="round" fill="none" stroke="#000000" d="M564.859-8.157428C567.1691-3.920992 572.02786-1.561165 577.5182-.233686 572.1052 1.32499 567.72268 4.392705 564.4035 8.028329"/>
<path transform="matrix(1,0,0,-1,291.6669,43.795625)" stroke-width=".75" stroke-linecap="round" stroke-linejoin="round" fill="none" stroke="#000000" d="M534.4345-.017789C534.20126-92.43646 534.80838-184.37979 534.5043-276.8519 495.7052-277.3579 456.01356-277.43659 417.61058-277.36167"/>
<path transform="matrix(1,0,0,-1,291.6669,43.795625)" stroke-width=".75" stroke-linecap="round" stroke-linejoin="round" fill="none" stroke="#000000" d="M430.1215-269.4086C426.90669-273.49259 422.11805-276.15687 417.48603-277.3027 421.86286-278.47465 427.0842-281.32884 429.49427-285.23374"/>
<path transform="matrix(1,0,0,-1,291.6669,43.795625)" stroke-width=".75" stroke-linecap="round" stroke-linejoin="round" fill="none" stroke="#000000" d="M331.81724-277.16703C220.91652-277.42747 110.296329-277.33946-.014393-277.01564-.392767-192.54125-.273623-107.1215-.418414-21.868437"/>
<path transform="matrix(1,0,0,-1,291.6669,43.795625)" stroke-width=".75" stroke-linecap="round" stroke-linejoin="round" fill="none" stroke="#000000" d="M8.175204-34.547594C4.033107-31.82178 1.197097-27.349005 .350603-21.997532-1.490956-26.68883-3.690521-31.204974-8.304452-34.84027"/>
<path transform="matrix(1,0,0,-1,291.6669,43.795625)" stroke-width=".75" stroke-linecap="round" stroke-linejoin="round" fill="none" stroke="#000000" d="M-155.86568-25.359406C-155.21027-25.897526-155.92006-24.203022-156.95603-25.803717-137.9931-25.588948-118.89382-25.782952-99.9331-24.513108-84.56963-25.854647-84.61022-24.336897-85.27709-10.917345-86.200428-3.463493-86.11841 2.634364-86.04576 9.066926-85.432308 24.031224-86.075168 25.214879-101.11202 24.166869-118.34251 25.685214-137.89894 24.14992-155.32054 25.820826-171.92272 25.541697-171.13356 24.776152-171.04764 10.659907-170.40923 4.042027-171.4967-2.469109-171.94098-10.40867-170.68524-25.047194-171.62169-24.355257-155.86568-25.359406Z"/>
<path transform="matrix(1,0,0,-1,291.6669,43.795625)" stroke-width=".75" stroke-linecap="round" stroke-linejoin="round" fill="none" stroke="#000000" d="M347.42424-301.93C347.31788-302.60188 346.01509-302.28767 345.76698-302.8226 364.55216-301.21159 382.96815-303.1459 403.3797-301.319 417.31629-302.9027 416.79997-302.97 416.80308-286.42976 417.74894-281.2932 416.60038-274.58296 416.6774-267.7629 417.2155-252.98453 416.97575-252.78041 403.034-253.22768 382.9267-253.12598 365.8832-252.38454 346.49479-252.60967 332.03617-253.00466 330.98118-252.08325 332.2236-266.76188 332.26023-273.5385 331.177-280.62345 332.11387-287.73985 331.988-302.11225 331.3008-301.62638 347.42424-301.93Z"/>
<path transform="matrix(1,0,0,-1,291.6669,43.795625)" stroke-width=".75" stroke-linecap="round" stroke-linejoin="round" fill="none" stroke="#000000" d="M22.384266 .369899C21.6538 12.840262 11.605125 22.24215-.278272 21.845337-12.435445 22.43691-22.059178 11.280306-21.64455-.92756-20.992026-11.175973-12.042696-21.234852-.396299-22.141743 11.349337-21.473078 21.85971-11.879421 22.384266 .369899Z"/>
<path transform="matrix(1,0,0,-1,291.6669,43.795625)" stroke-width=".75" stroke-linecap="round" stroke-linejoin="round" fill="none" stroke="#000000" d="M-235.03842-.030892C-213.54271 .008547-192.83934 .381171-171.1299-.398615"/>
<path transform="matrix(1,0,0,-1,291.6669,43.795625)" stroke-width=".75" stroke-linecap="round" stroke-linejoin="round" fill="none" stroke="#000000" d="M-183.69434-7.650577C-180.66707-4.291816-176.4898-.900825-171.55597-.294566-175.99416 .803976-181.03734 4.00123-184.05274 8.502508"/>
<path transform="matrix(1,0,0,-1,291.6669,43.795625)" stroke-width=".75" stroke-linecap="round" stroke-linejoin="round" fill="none" stroke="#000000" d="M-85.399929-.073789C-64.19918 .325355-43.24873 .386733-21.641697-.371639"/>
<path transform="matrix(1,0,0,-1,291.6669,43.795625)" stroke-width=".75" stroke-linecap="round" stroke-linejoin="round" fill="none" stroke="#000000" d="M-34.55241-8.320882C-31.696066-4.039804-26.625697-1.267824-21.58208 .061838-26.713248 1.396314-31.681277 3.850238-35.05159 7.69853"/>
<path transform="matrix(1,0,0,-1,291.6669,43.795625)" stroke-width=".75" stroke-linecap="round" stroke-linejoin="round" fill="none" stroke="#000000" d="M21.970347-.17203C35.7668-.404551 49.887346-.088916 63.693628 .311517"/>
<path transform="matrix(1,0,0,-1,291.6669,43.795625)" stroke-width=".75" stroke-linecap="round" stroke-linejoin="round" fill="none" stroke="#000000" d="M51.39404-7.780871C54.62273-4.094225 58.685377-1.270072 64.11301-.177213 58.36165 .826367 53.903829 4.409248 51.092355 8.465628"/>
<path transform="matrix(1,0,0,-1,291.6669,43.795625)" stroke-width=".75" stroke-linecap="round" stroke-linejoin="round" fill="none" stroke="#000000" d="M492.40357 .036047C520.01779 .029834 548.6439-.347298 576.6574 .158911"/>
<path transform="matrix(1,0,0,-1,291.6669,43.795625)" stroke-width=".75" stroke-linecap="round" stroke-linejoin="round" fill="none" stroke="#000000" d="M564.0162-8.127007C567.36898-3.769816 571.641-1.132144 577.36898 .052523 572.31509 1.102357 567.55599 4.38525 564.6173 7.959253"/>
<path transform="matrix(1,0,0,-1,291.6669,43.795625)" stroke-width=".75" stroke-linecap="round" stroke-linejoin="round" fill="none" stroke="#000000" d="M534.86087 .144296C534.1104-92.24792 534.5549-185.15474 534.88858-277.27958 495.2373-277.652 456.01899-277.25358 417.52055-276.7851"/>
<path transform="matrix(1,0,0,-1,291.6669,43.795625)" stroke-width=".75" stroke-linecap="round" stroke-linejoin="round" fill="none" stroke="#000000" d="M430.25227-268.8352C426.8669-273.44343 421.92903-276.39814 416.82765-277.2292 422.4858-278.3437 426.9312-281.41517 429.419-285.47865"/>
<path transform="matrix(1,0,0,-1,291.6669,43.795625)" stroke-width=".75" stroke-linecap="round" stroke-linejoin="round" fill="none" stroke="#000000" d="M331.8169-276.94789C220.80728-277.09867 110.42981-277.01536 .197839-277.12858 .390936-192.38607-.387517-107.1718 .235006-22.23171"/>
<path transform="matrix(1,0,0,-1,291.6669,43.795625)" stroke-width=".75" stroke-linecap="round" stroke-linejoin="round" fill="none" stroke="#000000" d="M8.245516-35.080484C3.670458-31.158038 .940155-26.70011-.274467-22.33943-.72494-27.374775-3.924481-31.209568-8.311706-34.711896"/>
<use data-text="+" xlink:href="#font_6_1" transform="matrix(21.519354,0,0,-21.519316,253.61762,36.052766)"/>
<use data-text="&#x2212;" xlink:href="#font_6_7" transform="matrix(21.519371,0,0,-21.519288,297.8168,74.40503)"/>
<use data-text="U" xlink:href="#font_6_8" transform="matrix(21.519457,0,0,-21.519398,6.8143007,49.17691)"/>
<use data-text="(" xlink:href="#font_6_4" transform="matrix(21.519457,0,0,-21.519398,23.470364,49.17691)"/>
<use data-text="s" xlink:href="#font_6_5" transform="matrix(21.519457,0,0,-21.519398,33.015535,49.17691)"/>
<use data-text=")" xlink:href="#font_6_6" transform="matrix(21.519457,0,0,-21.519398,44.00251,49.17691)"/>
<use data-text="Y" xlink:href="#font_6_9" transform="matrix(21.519246,0,0,-21.519398,873.23489,49.17691)"/>
<use data-text="(" xlink:href="#font_6_4" transform="matrix(21.519246,0,0,-21.519398,886.38357,49.17691)"/>
<use data-text="s" xlink:href="#font_6_5" transform="matrix(21.519246,0,0,-21.519398,895.9286,49.17691)"/>
<use data-text=")" xlink:href="#font_6_6" transform="matrix(21.519246,0,0,-21.519398,906.9154,49.17691)"/>
<use data-text="G" xlink:href="#font_6_2" transform="matrix(21.51804,0,0,-21.519562,555.8762,84.14426)"/>
<use data-text="2" xlink:href="#font_6_10" transform="matrix(16.437388,0,0,-16.43855,572.34249,88.379489)"/>
<use data-text="(" xlink:href="#font_6_4" transform="matrix(21.51804,0,0,-21.519562,582.5844,84.14426)"/>
<use data-text="s" xlink:href="#font_6_5" transform="matrix(21.51804,0,0,-21.519562,592.12899,84.14426)"/>
<use data-text=")" xlink:href="#font_6_6" transform="matrix(21.51804,0,0,-21.519562,603.11526,84.14426)"/>
<use data-text="G" xlink:href="#font_6_2" transform="matrix(21.51804,0,0,-21.519562,613.8551,84.14426)"/>
<use data-text="3" xlink:href="#font_6_11" transform="matrix(16.437388,0,0,-16.43855,630.32907,88.28082)"/>
<use data-text="(" xlink:href="#font_6_4" transform="matrix(21.51804,0,0,-21.519562,640.5711,84.14426)"/>
<use data-text="s" xlink:href="#font_6_5" transform="matrix(21.51804,0,0,-21.519562,650.11569,84.14426)"/>
<use data-text=")" xlink:href="#font_6_6" transform="matrix(21.51804,0,0,-21.519562,661.10189,84.14426)"/>
<path transform="matrix(1.4999122,0,0,-1.5000182,508.41157,89.9993)" stroke-width=".574019" stroke-linecap="butt" stroke-linejoin="round" fill="none" stroke="#000000" d="M0 0H139.0159"/>
<use data-text="1" xlink:href="#font_6_13" transform="matrix(21.51804,0,0,-21.519562,508.41157,106.61734)"/>
<use data-text="+" xlink:href="#font_6_1" transform="matrix(21.51804,0,0,-21.519562,523.9308,106.61734)"/>
<use data-text="G" xlink:href="#font_6_2" transform="matrix(21.51804,0,0,-21.519562,544.95858,106.61734)"/>
<use data-text="2" xlink:href="#font_6_10" transform="matrix(16.437388,0,0,-16.43855,561.43307,110.85257)"/>
<use data-text="(" xlink:href="#font_6_4" transform="matrix(21.51804,0,0,-21.519562,571.6751,106.61734)"/>
<use data-text="s" xlink:href="#font_6_5" transform="matrix(21.51804,0,0,-21.519562,581.21969,106.61734)"/>
<use data-text=")" xlink:href="#font_6_6" transform="matrix(21.51804,0,0,-21.519562,592.2059,106.61734)"/>
<use data-text="G" xlink:href="#font_6_2" transform="matrix(21.51804,0,0,-21.519562,602.94577,106.61734)"/>
<use data-text="3" xlink:href="#font_6_11" transform="matrix(16.437388,0,0,-16.43855,619.41976,110.75397)"/>
<use data-text="(" xlink:href="#font_6_4" transform="matrix(21.51804,0,0,-21.519562,629.6617,106.61734)"/>
<use data-text="s" xlink:href="#font_6_5" transform="matrix(21.51804,0,0,-21.519562,639.20626,106.61734)"/>
<use data-text=")" xlink:href="#font_6_6" transform="matrix(21.51804,0,0,-21.519562,650.19247,106.61734)"/>
<use data-text="H" xlink:href="#font_6_12" transform="matrix(21.51804,0,0,-21.519562,660.9323,106.61734)"/>
<use data-text="1" xlink:href="#font_6_3" transform="matrix(16.437388,0,0,-16.43855,677.7937,110.918369)"/>
<use data-text="(" xlink:href="#font_6_4" transform="matrix(21.51804,0,0,-21.519562,688.03579,106.61734)"/>
<use data-text="s" xlink:href="#font_6_5" transform="matrix(21.51804,0,0,-21.519562,697.5803,106.61734)"/>
<use data-text=")" xlink:href="#font_6_6" transform="matrix(21.51804,0,0,-21.519562,708.5665,106.61734)"/>
<path transform="matrix(1,0,0,-1,291.66694,43.795625)" stroke-width=".75" stroke-linecap="round" stroke-linejoin="round" fill="none" stroke="#000000" d="M165.94412-116.48746C164.45995-116.9716 165.6061-117.27566 164.29926-117.94252 269.53047-118.165248 372.8458-117.82503 476.68284-117.53899 492.9631-117.06514 492.35554-117.18973 491.64756-102.07538 491.97935-64.968349 491.0945-26.895565 492.62388 10.76907 492.0771 24.954947 491.374 25.564406 476.12358 25.31874 372.08088 25.531258 269.26713 25.593384 165.7323 25.661524 149.44052 24.735672 149.79535 25.417357 149.96495 9.827515 150.76287-26.630208 149.17168-65.0285 150.6379-103.297718 149.40888-116.40497 150.23096-117.1141 165.94412-116.48746Z"/>
<path transform="matrix(1,0,0,-1,291.66694,43.795625)" stroke-width=".75" stroke-linecap="round" stroke-linejoin="round" fill="none" stroke="#000000" d="M165.46633-117.38609C165.37778-116.46841 164.43161-117.124538 165.45764-116.53257 268.28117-117.55511 373.8216-118.14962 477.4657-116.67078 492.7182-118.08549 492.4125-117.48099 492.78007-101.57854 492.6543-65.75509 492.22993-26.8945 491.13108 9.906887 492.38026 24.689936 491.40275 25.34235 476.62623 24.340193 372.80403 25.650658 268.38294 24.823624 164.63187 25.127909 150.7033 24.195418 149.08339 25.74205 150.93798 10.332937 150.57776-27.29519 149.74063-65.29594 149.07646-101.52003 149.72801-117.93467 149.48084-116.54275 165.46633-117.38609Z"/>
<path transform="matrix(1,0,0,-1,291.66694,43.795625)" stroke-width=".75" stroke-linecap="round" stroke-linejoin="round" fill="none" stroke="#000000" d="M164.8863-116.83177C165.86127-117.91501 164.2881-116.72223 165.58184-116.67355 269.57075-116.9892 372.44078-117.75917 476.3761-117.44305 491.15043-116.399578 492.62574-117.018009 491.15937-102.521129 491.844-64.203899 492.5097-28.362053 491.74613 10.916194 491.36878 24.577296 491.47666 25.311839 477.4152 24.450358 372.46046 25.645468 269.80183 25.48547 164.13738 25.345288 150.88504 24.159667 149.2839 25.143197 150.70023 9.836595 150.51523-26.82669 150.46327-64.76399 149.50038-101.697788 150.64885-117.918949 150.73854-118.31219 164.8863-116.83177Z"/>
<path transform="matrix(1,0,0,-1,291.66694,43.795625)" stroke-width=".75" stroke-linecap="round" stroke-linejoin="round" fill="none" stroke="#000000" d="M165.21065-117.102748C164.70879-118.26109 164.67844-116.53491 165.74533-117.92818 268.0693-116.9975 372.89448-118.32285 477.18406-117.809139 492.60597-117.75432 491.16954-116.46329 492.6941-101.46934 492.62248-65.24258 491.99714-26.850655 492.69898 9.91915 491.9589 24.440148 491.9547 25.595137 476.46736 25.78712 372.61088 25.287678 268.13725 24.913119 165.79323 24.06735 150.47328 24.955779 149.37509 24.362807 150.3775 9.405079 149.58498-28.31601 150.03264-64.90625 149.67829-101.600467 150.85272-116.637569 149.38658-117.43797 165.21065-117.102748Z"/>
<path transform="matrix(1,0,0,-1,291.66694,43.795625)" stroke-width=".75" stroke-linecap="round" stroke-linejoin="round" fill="none" stroke="#000000" d="M165.72797-117.29285C165.77371-116.59258 164.6203-117.42447 165.70984-117.12008 269.89976-117.249668 373.46836-116.716548 477.34123-118.080699 492.54283-117.55257 491.63746-117.328578 491.44929-101.5606 492.65644-65.00861 491.42549-28.110812 491.3159 10.100074 492.81678 25.484702 491.27848 25.072838 476.97727 24.316475 372.06959 24.839512 268.33918 25.69085 165.20809 24.884493 149.28847 25.08109 149.85704 25.658265 150.9478 10.375357 150.61432-28.255255 150.81137-65.36629 149.24047-103.15447 149.22757-118.11917 149.86589-118.19845 165.72797-117.29285Z"/>
<use data-text="+" xlink:href="#font_6_1" transform="matrix(37.185197,0,0,-37.18505,363.4417,53.316438)"/>
<use data-text="H" xlink:href="#font_6_12" transform="matrix(21.51913,0,0,-21.519398,638.2163,233.99365)"/>
<use data-text="2" xlink:href="#font_6_10" transform="matrix(16.438221,0,0,-16.438426,655.07077,238.22887)"/>
<use data-text="(" xlink:href="#font_6_4" transform="matrix(21.51913,0,0,-21.519398,665.3133,233.99365)"/>
<use data-text="s" xlink:href="#font_6_5" transform="matrix(21.51913,0,0,-21.519398,674.85836,233.99365)"/>
<use data-text=")" xlink:href="#font_6_6" transform="matrix(21.51913,0,0,-21.519398,685.8451,233.99365)"/>
<path transform="matrix(1,0,0,-1,291.6669,43.795625)" stroke-width=".75" stroke-linecap="round" stroke-linejoin="round" fill="none" stroke="#000000" d="M345.91767-209.8459C345.78379-209.94428 346.8921-210.50452 347.42564-210.3167 364.24183-210.63622 383.85218-210.4709 402.75907-209.49308 416.74513-209.2954 417.87709-209.26293 417.96318-194.26757 417.28663-188.90068 417.88969-181.05875 416.62428-174.78582 417.5742-160.79544 418.44477-158.95177 401.91526-160.49407 383.31129-160.84746 365.01676-160.57982 346.1028-159.20829 330.6252-158.9933 331.5284-159.10512 332.14103-175.6545 332.52647-180.9343 331.69859-188.71736 332.51533-193.98311 331.61759-210.30815 331.42198-208.8999 345.91767-209.8459Z"/>
<path transform="matrix(1,0,0,-1,291.6669,43.795625)" stroke-width=".75" stroke-linecap="round" stroke-linejoin="round" fill="none" stroke="#000000" d="M107.94945-.780277C108.35697 12.50905 96.846179 21.078303 85.68312 21.151818 73.57825 21.048285 63.680368 12.704882 63.670515-.645863 64.0646-12.484022 73.92961-21.415505 85.954158-21.213364 97.95601-21.826607 108.24067-12.521061 107.94945-.780277Z"/>
<path transform="matrix(1,0,0,-1,291.6669,43.795625)" stroke-width=".75" stroke-linecap="round" stroke-linejoin="round" fill="none" stroke="#000000" d="M107.77998-.017138C121.67562-.346858 135.57906 .225556 149.56758-.245608"/>
<path transform="matrix(1,0,0,-1,291.6669,43.795625)" stroke-width=".75" stroke-linecap="round" stroke-linejoin="round" fill="none" stroke="#000000" d="M136.86985-8.422767C139.93306-3.899197 144.2116-1.001738 149.65578-.104037 144.79196 .773191 139.8271 4.121756 136.973 7.894772"/>
<path transform="matrix(1,0,0,-1,291.6669,43.795625)" stroke-width=".75" stroke-linecap="round" stroke-linejoin="round" fill="none" stroke="#000000" d="M534.12826-.407002C534.1393-61.16079 534.91366-122.96663 534.3431-184.66797 495.2549-184.56632 455.88365-185.02031 417.16795-184.84456"/>
<path transform="matrix(1,0,0,-1,291.6669,43.795625)" stroke-width=".75" stroke-linecap="round" stroke-linejoin="round" fill="none" stroke="#000000" d="M430.19505-177.03487C426.5389-181.2608 422.1661-183.60555 417.1799-185.12725 421.73713-185.79244 426.2482-188.79558 429.6122-192.64299"/>
<path transform="matrix(1,0,0,-1,291.6669,43.795625)" stroke-width=".75" stroke-linecap="round" stroke-linejoin="round" fill="none" stroke="#000000" d="M331.74906-184.58683C249.56212-184.82694 167.9834-184.37735 85.45729-185.20136 85.82537-130.44808 86.23173-76.51405 85.92594-21.894652"/>
<path transform="matrix(1,0,0,-1,291.6669,43.795625)" stroke-width=".75" stroke-linecap="round" stroke-linejoin="round" fill="none" stroke="#000000" d="M93.53829-34.77527C89.7009-31.656109 87.126789-27.24101 85.82501-22.178305 84.9072-27.026566 81.62507-31.291098 78.11845-34.354768"/>
<path transform="matrix(1,0,0,-1,291.6669,43.795625)" stroke-width=".75" stroke-linecap="round" stroke-linejoin="round" fill="none" stroke="#000000" d="M347.1066-210.73407C346.16029-210.53304 347.47776-210.6171 347.1771-210.07117 366.1512-208.85202 384.14277-210.58892 401.85383-210.70726 418.45744-210.64664 417.4651-209.66767 418.13896-194.02608 416.79817-188.48586 417.76274-181.59162 417.22676-174.1329 418.21287-159.87879 417.52763-159.38828 402.38893-160.48676 384.11094-159.99666 365.10908-159.85509 346.56797-159.7493 330.6799-160.45029 332.11705-160.81836 331.63688-175.62635 330.95738-182.12876 331.4503-187.30388 332.2996-194.70452 330.60575-209.9376 330.81706-209.36779 347.1066-210.73407Z"/>
<path transform="matrix(1,0,0,-1,291.6669,43.795625)" stroke-width=".75" stroke-linecap="round" stroke-linejoin="round" fill="none" stroke="#000000" d="M107.167018-.970872C107.77622 11.876272 98.12881 20.850529 85.18595 21.050486 74.6261 21.680497 64.24648 12.349648 63.65729 .74076 65.13572-11.240869 73.92425-21.157843 85.57027-22.323357 97.59333-21.391884 108.0072-11.737804 107.167018-.970872Z"/>
<path transform="matrix(1,0,0,-1,291.6669,43.795625)" stroke-width=".75" stroke-linecap="round" stroke-linejoin="round" fill="none" stroke="#000000" d="M107.32917-.42037C121.75031 .303012 135.86162 .008995 149.75495 .112071"/>
<path transform="matrix(1,0,0,-1,291.6669,43.795625)" stroke-width=".75" stroke-linecap="round" stroke-linejoin="round" fill="none" stroke="#000000" d="M136.82207-8.462914C140.55144-3.787574 144.64824-1.03169 149.30525-.113892 144.31937 .961495 140.27988 3.645733 137.06867 8.018799"/>
<path transform="matrix(1,0,0,-1,291.6669,43.795625)" stroke-width=".75" stroke-linecap="round" stroke-linejoin="round" fill="none" stroke="#000000" d="M534.7314-.357744C534.5934-62.045824 534.74197-123.379817 534.9289-184.83669 495.11949-184.55298 456.11344-185.21668 417.49266-185.05318"/>
<path transform="matrix(1,0,0,-1,291.6669,43.795625)" stroke-width=".75" stroke-linecap="round" stroke-linejoin="round" fill="none" stroke="#000000" d="M429.39546-176.32575C427.0799-180.59149 422.30726-183.9396 416.9686-184.94554 422.18888-186.22689 426.69367-188.57648 429.42698-193.26149"/>
<path transform="matrix(1,0,0,-1,291.6669,43.795625)" stroke-width=".75" stroke-linecap="round" stroke-linejoin="round" fill="none" stroke="#000000" d="M331.3226-184.79178C249.6106-185.11092 168.097-184.37192 86.09051-184.8807 85.72287-130.27793 85.81975-76.05519 85.396839-21.92619"/>
<path transform="matrix(1,0,0,-1,291.6669,43.795625)" stroke-width=".75" stroke-linecap="round" stroke-linejoin="round" fill="none" stroke="#000000" d="M93.74383-34.714746C89.69948-31.443715 86.735088-26.707026 85.49822-22.375018 84.64578-26.6234 81.71331-31.12316 77.65259-34.26156"/>
<path transform="matrix(1,0,0,-1,291.6669,43.795625)" stroke-width=".75" stroke-linecap="round" stroke-linejoin="round" fill="none" stroke="#000000" d="M347.28584-210.71973C345.85243-210.3687 347.0204-210.20104 347.34599-210.60192 365.5239-209.70403 384.5302-209.7942 401.8461-210.69945 416.84788-209.12256 417.834-209.09299 418.0213-194.73802 417.30839-188.08438 417.98265-182.325 418.3665-175.63654 417.1078-160.18259 418.4756-159.3694 401.79359-159.39337 384.84159-159.29077 365.1573-159.76831 346.04103-159.87464 331.034-158.94727 330.72309-160.37973 332.18196-175.34905 330.98176-180.82364 332.30644-187.53568 330.62004-195.47597 331.9104-210.37084 331.15327-208.94553 347.28584-210.71973Z"/>
<path transform="matrix(1,0,0,-1,291.6669,43.795625)" stroke-width=".75" stroke-linecap="round" stroke-linejoin="round" fill="none" stroke="#000000" d="M107.59489-.018695C106.71699 12.645975 96.89476 22.061839 84.896068 22.054255 74.11402 22.455916 63.573675 12.116488 63.701456-.69183 63.603864-11.729958 74.662097-20.760582 86.42661-21.780865 96.96979-21.536622 108.19914-11.702407 107.59489-.018695Z"/>
<path transform="matrix(1,0,0,-1,291.6669,43.795625)" stroke-width=".75" stroke-linecap="round" stroke-linejoin="round" fill="none" stroke="#000000" d="M107.74215 .328792C121.4139 .350684 135.61479 .135594 149.92818 .249495"/>
<path transform="matrix(1,0,0,-1,291.6669,43.795625)" stroke-width=".75" stroke-linecap="round" stroke-linejoin="round" fill="none" stroke="#000000" d="M137.23592-8.116631C139.73754-3.662753 144.14324-.72317 149.66555 .402109 144.47798 .795254 140.44516 3.96357 137.17917 8.09193"/>
<path transform="matrix(1,0,0,-1,291.6669,43.795625)" stroke-width=".75" stroke-linecap="round" stroke-linejoin="round" fill="none" stroke="#000000" d="M534.6653 .166307C534.3908-61.77803 534.5306-122.93531 534.7188-185.13083 494.99153-184.39685 456.71839-185.1836 417.28678-184.7319"/>
<path transform="matrix(1,0,0,-1,291.6669,43.795625)" stroke-width=".75" stroke-linecap="round" stroke-linejoin="round" fill="none" stroke="#000000" d="M429.70927-177.06839C426.58229-180.39228 421.73136-183.74938 417.01985-184.99785 421.90684-185.75795 426.4664-189.12776 429.7892-193.2534"/>
<path transform="matrix(1,0,0,-1,291.6669,43.795625)" stroke-width=".75" stroke-linecap="round" stroke-linejoin="round" fill="none" stroke="#000000" d="M331.4084-185.15502C249.50289-184.44042 167.54605-184.40628 85.82397-185.06891 86.2284-130.62299 85.39679-76.221309 86.10266-21.816672"/>
<path transform="matrix(1,0,0,-1,291.6669,43.795625)" stroke-width=".75" stroke-linecap="round" stroke-linejoin="round" fill="none" stroke="#000000" d="M93.55458-34.629167C89.88704-31.338362 86.74455-26.623877 85.48766-22.363867 84.31492-27.445023 81.772937-31.72787 77.72531-34.610315"/>
<path transform="matrix(1,0,0,-1,291.6669,43.795625)" stroke-width=".75" stroke-linecap="round" stroke-linejoin="round" fill="none" stroke="#000000" d="M347.36659-208.84809C347.1732-209.7481 345.79353-209.20149 346.4035-210.32883 364.8081-209.93314 383.4129-209.47965 402.73194-208.84912 417.85594-209.65795 417.61735-209.73406 418.18315-194.56784 417.78849-187.64304 417.00828-181.7075 418.45787-175.76589 418.46049-160.10126 417.29896-160.21672 403.40434-159.44689 383.6609-160.01902 364.82585-159.60918 346.09397-160.1494 330.7094-160.11815 331.81059-159.00577 331.0773-174.32366 332.16658-181.78929 331.70243-187.92949 331.94386-194.0669 330.6359-209.44669 332.0008-209.77564 347.36659-208.84809Z"/>
<path transform="matrix(1,0,0,-1,291.6669,43.795625)" stroke-width=".75" stroke-linecap="round" stroke-linejoin="round" fill="none" stroke="#000000" d="M107.69139 .955933C108.11635 11.776446 97.32398 21.352599 84.92866 21.558705 74.16339 21.892479 63.55292 12.603945 64.53693 .52823 64.826229-11.359017 74.26061-20.840714 85.25658-20.801888 98.71668-21.950825 107.80188-12.79576 107.69139 .955933Z"/>
<path transform="matrix(1,0,0,-1,291.6669,43.795625)" stroke-width=".75" stroke-linecap="round" stroke-linejoin="round" fill="none" stroke="#000000" d="M107.66227 .39552C121.75133-.108139 135.11067-.176772 149.44875 .209223"/>
<path transform="matrix(1,0,0,-1,291.6669,43.795625)" stroke-width=".75" stroke-linecap="round" stroke-linejoin="round" fill="none" stroke="#000000" d="M137.40116-7.64886C139.7816-4.251115 145.01737-1.053825 149.7007-.408997 144.29026 .95289 140.30469 4.225018 137.17797 7.621701"/>
<path transform="matrix(1,0,0,-1,291.6669,43.795625)" stroke-width=".75" stroke-linecap="round" stroke-linejoin="round" fill="none" stroke="#000000" d="M534.8527 .420553C534.9407-61.601716 534.75619-123.01712 534.44088-184.39247 495.0226-184.74779 455.85163-184.87293 417.57908-185.02774"/>
<path transform="matrix(1,0,0,-1,291.6669,43.795625)" stroke-width=".75" stroke-linecap="round" stroke-linejoin="round" fill="none" stroke="#000000" d="M429.4714-176.32083C426.98017-180.76238 421.77626-183.30335 416.8398-184.99185 421.93919-185.7829 426.69956-188.84543 429.908-192.51015"/>
<path transform="matrix(1,0,0,-1,291.6669,43.795625)" stroke-width=".75" stroke-linecap="round" stroke-linejoin="round" fill="none" stroke="#000000" d="M331.91023-184.41857C249.47547-184.4448 167.37491-184.37863 85.90571-184.96617 85.366939-130.6941 85.60808-75.95362 86.09013-21.782465"/>
<path transform="matrix(1,0,0,-1,291.6669,43.795625)" stroke-width=".75" stroke-linecap="round" stroke-linejoin="round" fill="none" stroke="#000000" d="M93.63915-34.824354C89.57841-31.274876 87.21981-26.744942 85.49548-22.402102 84.83815-27.384282 81.76936-31.285094 77.85735-34.90555"/>
<path transform="matrix(1,0,0,-1,291.6669,43.795625)" stroke-width=".75" stroke-linecap="round" stroke-linejoin="round" fill="none" stroke="#000000" d="M345.76713-209.52379C346.59007-209.24468 345.84373-210.35675 345.77558-209.39153 364.81764-209.82245 382.96769-209.903 401.82887-209.11078 416.9806-209.43132 418.10444-209.19152 418.4285-194.9529 418.02717-188.89981 417.96504-180.5672 417.26814-174.5547 418.0206-159.72707 417.63505-160.089 402.5356-160.26247 383.27998-160.57819 366.04194-160.07743 346.83424-160.66139 331.0119-160.62015 330.94099-160.3024 331.78529-175.31139 331.2203-181.54109 332.30018-187.7391 331.33897-194.42008 330.9996-208.9972 330.80046-209.50157 345.76713-209.52379Z"/>
<path transform="matrix(1,0,0,-1,291.6669,43.795625)" stroke-width=".75" stroke-linecap="round" stroke-linejoin="round" fill="none" stroke="#000000" d="M107.47568 .770006C108.34444 11.106292 97.30515 20.936207 85.27054 21.35001 74.143 21.689297 63.406705 12.339561 64.79616-.044339 64.21856-12.678291 73.223209-21.872988 85.34781-22.074347 98.204-22.396815 107.64658-12.449956 107.47568 .770006Z"/>
<path transform="matrix(1,0,0,-1,291.6669,43.795625)" stroke-width=".75" stroke-linecap="round" stroke-linejoin="round" fill="none" stroke="#000000" d="M107.10213-.189101C121.73698-.105998 136.0071 .049444 149.84099-.36514"/>
<path transform="matrix(1,0,0,-1,291.6669,43.795625)" stroke-width=".75" stroke-linecap="round" stroke-linejoin="round" fill="none" stroke="#000000" d="M137.0754-7.908234C139.93343-3.952899 144.35684-1.303842 149.81505 .254385 144.53774 .766642 140.19641 3.871496 137.12145 8.354453"/>
<path transform="matrix(1,0,0,-1,291.6669,43.795625)" stroke-width=".75" stroke-linecap="round" stroke-linejoin="round" fill="none" stroke="#000000" d="M534.4135-.232748C534.6394-61.651014 534.59017-122.88631 534.6726-184.97418 495.2784-184.87714 455.98487-184.39229 417.12416-184.89426"/>
<path transform="matrix(1,0,0,-1,291.6669,43.795625)" stroke-width=".75" stroke-linecap="round" stroke-linejoin="round" fill="none" stroke="#000000" d="M430.09757-176.71544C426.81156-181.1319 422.29707-183.43622 416.74507-184.58434 421.87687-186.42563 426.95338-188.54709 429.65464-192.87456"/>
<path transform="matrix(1,0,0,-1,291.6669,43.795625)" stroke-width=".75" stroke-linecap="round" stroke-linejoin="round" fill="none" stroke="#000000" d="M331.4582-185.12992C250.06458-184.74951 167.35243-185.18846 86.05644-185.07318 85.95028-130.77172 86.14184-75.94891 86.16936-22.296057"/>
<path transform="matrix(1,0,0,-1,291.6669,43.795625)" stroke-width=".75" stroke-linecap="round" stroke-linejoin="round" fill="none" stroke="#000000" d="M93.83992-34.715288C89.86967-31.211627 87.19316-26.898913 86.06722-21.96237 84.34529-26.87979 81.92103-31.121125 77.39961-34.35734"/>
<use data-text="+" xlink:href="#font_6_1" transform="matrix(21.519354,0,0,-21.519316,339.43193,36.052766)"/>
<use data-text="&#x2212;" xlink:href="#font_6_7" transform="matrix(21.519371,0,0,-21.519288,383.6311,74.40503)"/>
</svg>
