<svg xmlns="http://www.w3.org/2000/svg" xmlns:xlink="http://www.w3.org/1999/xlink" version="1.1" width="922.0901" height="353.77586" viewBox="0 0 922.0901 353.77586">
<defs>
<path id="font_5_1" d="M.04598999 .23632813H.35598756V-.07368469L.3959961-.06668091V.23632813H.70399478L.70899966 .2763214H.3959961V.58631899L.35598756 .58032229V.2763214H.052993776L.04598999 .23632813Z"/>
<path id="font_5_2" d="M.08999634 .32458497C.08999634 .22958374 .114990238 .13148499 .18299866 .06341553 .23699951 .009384155 .31199647-.016601563 .3880005-.016601563 .46099855-.016601563 .56900027 .010391235 .6569977 .03338623 .6569977 .03338623 .6539917 .216568 .6519928 .30760194L.37599183 .2966156V.27061463L.38198854 .265625C.43598939 .26361085 .5 .25961305 .5439911 .25660707 .57199099 .25460816 .57199099 .22257996 .57199099 .13449097 .57199099 .061416627 .56900027 .04940796 .5519867 .045394899 .5209961 .038391115 .48999024 .03538513 .45799256 .03538513 .37998963 .03538513 .30599977 .060409547 .2619934 .112472537 .20399475 .18052674 .17999268 .25260926 .17999268 .3405609 .17999268 .48339845 .23199463 .5653076 .26098634 .5942688 .3039856 .63623049 .36299134 .6502075 .42199708 .6502075 .5529938 .6502075 .59298709 .5563202 .60598757 .53034976L.6179962 .5293579 .6759949 .58628848C.6649933 .6032715 .6119995 .69921877 .46699525 .69921877 .3619995 .69921877 .25698854 .6682129 .18199158 .593277 .11199951 .5233612 .08999634 .4224701 .08999634 .32458497Z"/>
<path id="font_5_3" d="M.1349945 .6123047H.22898865C.25698854 .6123047 .27999879 .59129336 .2809906 .5662842 .28199769 .541275 .28199769 .46824647 .28199769 .41923524 .28199769 .27919007 .27799989 .13916016 .272995 .00010681152L.28599549-.0048828127 .3809967 .022125245C.37799073 .09814453 .37799073 .2962036 .37799073 .43223573 .37799073 .52127078 .37998963 .6112976 .38598634 .7003021L.3789978 .71229556 .1349945 .6392975V.6123047Z"/>
<path id="font_5_4" d="M.11299133 .24990845C.11299133 .007904053 .1519928-.09008789 .18299866-.13310242 .21099854-.17008972 .25299073-.20809937 .30099488-.21209717V-.1880951C.2809906-.18409729 .25099183-.16809082 .23399353-.1481018 .21998596-.13209534 .16499329-.05809021 .16499329 .24990845 .16499329 .4618988 .19799805 .5659027 .21998596 .6128998 .23599243 .6469116 .2689972 .6769104 .30099488 .684906V.71191409C.2599945 .7049103 .21598816 .6729126 .19099427 .63790896 .1599884 .5919037 .11299133 .4748993 .11299133 .24990845Z"/>
<path id="font_5_5" d="M.051986696 .06642151C.06199646 .047409059 .07598877 .030395508 .09199524 .01638794 .12098694-.009613037 .16099549-.016601563 .19898987-.016601563 .2559967-.016601563 .31199647 .0023956299 .35099793 .044403078 .375 .06941223 .3869934 .10343933 .3869934 .13845825 .3869934 .1634674 .37298585 .18649292 .35499574 .20449829 .34098817 .21850586 .3039856 .24052429 .27198792 .25453187 .24299622 .26654054 .19999695 .2885437 .18798828 .30055238 .17298889 .31655885 .1619873 .3285675 .1619873 .35058595 .1619873 .3725891 .16899109 .39360047 .18499756 .4086151 .19999695 .42362977 .22200012 .43164063 .24398804 .43164063 .2639923 .43164063 .2849884 .42462159 .29599 .4066162 .30599977 .39060975 .30799867 .3715973 .30899049 .35359193L.32099916 .34657289 .37599183 .38360597C.375 .40560914 .3639984 .42662049 .34799195 .44163514 .32499696 .46263124 .29299928 .46662904 .2630005 .46662904 .21398926 .46662904 .16699219 .45063783 .1309967 .4176178 .10398865 .39360047 .08999634 .35858155 .08999634 .32356263 .08999634 .29154969 .10798645 .26353456 .1309967 .2425232 .1539917 .22250366 .18399048 .2084961 .21499634 .1954956 .24099732 .18447876 .2689972 .17248535 .28799439 .1534729 .30299378 .13845825 .31399537 .11845398 .31399537 .09744263 .31399537 .079422 .30499269 .062408449 .29299928 .04940796 .27799989 .03340149 .25099183 .021392823 .22898865 .021392823 .19898987 .021392823 .17199707 .03439331 .1499939 .055404664 .1269989 .076416019 .116989139 .10644531 .114990238 .13645935L.100997928 .13745117 .051986696 .06642151Z"/>
<path id="font_5_6" d="M.085998538-.1880951V-.21209717C.13398743-.20610047 .1789856-.17208863 .20698548-.13510132 .23799134-.09210205 .27598573 .007904053 .27598573 .24990845 .27598573 .50090029 .22399903 .5919037 .19299317 .63790896 .16799927 .6729126 .1269989 .7049103 .085998538 .71191409V.684906C.117996219 .6759033 .14898682 .6469116 .16499329 .6128998 .18699646 .5659027 .22399903 .48190309 .22399903 .24990845 .22399903-.099090579 .17199707-.13209534 .1579895-.1481018 .14099121-.16809082 .10598755-.18409729 .085998538-.1880951Z"/>
<path id="font_5_12" d="M.051986696 .6781769 .052993776 .6591797C.07299805 .65216067 .10899353 .6411438 .11299133 .6401367 .12298584 .6361389 .125 .6251221 .12599182 .6161041 .1309967 .53297427 .13198853 .44985963 .13198853 .36676026 .13198853 .24482727 .13198853 .11590576 .12199402 .0029907227L.12799073-.0020141602 .21998596 .025970459C.21699524 .051956178 .21499634 .10292053 .21499634 .1798706V.33377076C.21499634 .34075929 .22099304 .34576417 .22799683 .34576417H.57099917C.5799866 .34576417 .58299258 .33876039 .58299258 .33377076 .58299258 .23683167 .5799866 .11790466 .5779877 .020980835L.58898928 0 .73799136 .0078125 .74398806 .013809204 .7429962 .031799318C.72499087 .03981018 .66600039 .03981018 .66600039 .07879639 .66600039 .09979248 .6619873 .24076844 .6619873 .32176209 .6619873 .5129547 .66999819 .64515689 .6729889 .6841736L.66799929 .6901703 .5799866 .673172C.5799866 .58706668 .58299258 .48291017 .58299258 .3967743 .58299258 .39076234 .58200076 .38476563 .57099917 .38476563H.22499085C.21499634 .38476563 .21299744 .3917694 .21299744 .3967743 .21299744 .4618683 .21699524 .54600527 .21899414 .61109927 .21998596 .63414 .22200012 .6581726 .22599793 .6801758L.22099304 .6851654H.05899048L.051986696 .6781769Z"/>
<path id="font_5_11" d="M.050994874 .049362184 .05899048 .038375856C.10998535 .0033874512 .17098999-.016601563 .23599243-.016601563 .31799317-.016601563 .397995 .008392334 .45700074 .05935669 .5039978 .10131836 .5349884 .15626526 .5349884 .21520996 .5349884 .25416566 .519989 .2911377 .48999024 .31811524 .46899415 .3360901 .44198609 .34709168 .41600038 .35508729 .3789978 .36608888 .34199525 .37109376 .30299378 .37408448V.38209535C.34999085 .39408876 .3939972 .41609193 .42900086 .44610597 .46499635 .47810365 .48199464 .52311709 .48199464 .5681305 .48199464 .60414126 .46798707 .6401367 .43899537 .6651459 .40699769 .6941376 .36099244 .70214846 .31698609 .70214846 .2849884 .70214846 .25498963 .69114688 .22599793 .67814639 .18598938 .6591339 .14698792 .63414 .11199951 .60813906L.12799073 .58613589C.1539917 .60113528 .17999268 .6151428 .20799256 .6261444 .22799683 .6331482 .24699402 .6391449 .2659912 .6391449 .2999878 .6391449 .33299256 .6321411 .35598756 .61112979 .37799073 .59213259 .3889923 .5671234 .3889923 .54011538 .3889923 .502121 .37199403 .46510316 .34098817 .43710328 .32299806 .4210968 .29899598 .40908814 .27398683 .39909364 .24198914 .38609315 .20698548 .37808229 .17298889 .37109376L.17199707 .34509278C.21398926 .34509278 .2559967 .34309388 .29699708 .3340912 .32499696 .32809449 .35299684 .31910707 .37298585 .30012513 .4059906 .26914979 .42900086 .22920227 .42900086 .18623352 .42900086 .14128113 .41299439 .095321658 .3769989 .06335449 .34599305 .036376954 .30599977 .023391724 .2639923 .023391724 .22299195 .023391724 .18499756 .041366579 .1559906 .067352298 .13798523 .08332825 .12399292 .10131836 .10998535 .121292117H.09899902L.050994874 .049362184Z"/>
<path id="font_5_7" d="M.04598999 .23046875H.70399478L.70999148 .27046205H.052993776L.04598999 .23046875Z"/>
<path id="font_5_8" d="M.033996583 .6733093 .035995485 .6533203C.037994386 .6533203 .07398987 .6443176 .09199524 .63931277 .12298584 .6313019 .125 .6222992 .125 .54229739 .125 .46427918 .12199402 .38627626 .12199402 .30825807 .12199402 .24723816 .12399292 .17323303 .12998963 .12721253 .1349945 .08821106 .1559906-.0087890629 .31399537-.0087890629 .39698792-.0087890629 .47698976 .02520752 .5469971 .07020569L.5549927 .064208988C.5549927 .048202516 .5549927 .032196046 .55599978 .016204834 .55799868 .0012054443 .57598879-.0047912599 .58799746-.0047912599 .61898806-.0047912599 .6899872 .016204834 .7409973 .032196046L.74598696 .03919983 .74198916 .05619812C.7220001 .05419922 .70399478 .048202516 .6839905 .048202516 .673996 .048202516 .6609955 .050201417 .6539917 .0592041 .6389923 .07620239 .6359863 .15222168 .6359863 .20223999 .6359863 .3642578 .6369934 .5733032 .6519928 .68733218L.6459961 .69433596 .55799868 .659317C.55599978 .47727967 .55400088 .2942505 .55400088 .11122131 .5 .079208377 .43998719 .052200319 .37799073 .052200319 .24598694 .052200319 .22399903 .13922119 .21598816 .16522217 .20599365 .19923401 .20199585 .23423767 .20199585 .26924134L.20999146 .54229739C.20999146 .55929568 .21598816 .6603241 .21798706 .67433169L.21099854 .6803131H.041992189L.033996583 .6733093Z"/>
<path id="font_5_9" d="M.022994996 .6513672C.036987306 .649353 .049987794 .6463623 .06298828 .6433563 .07199097 .6413574 .07998657 .6353607 .085998538 .62835696 .09599304 .61834719 .102996829 .60635378 .10899353 .5943451L.2579956 .29930116C.2579956 .19927979 .2579956 .0982666 .25498963-.0017547608L.2659912-.0107421879 .35598756 .018249512 .34700013 .30630494C.42999269 .4343109 .5039978 .5303345 .61499026 .675354L.61099246 .6933594 .526001 .6763611C.48999024 .619339 .4059906 .47431947 .397995 .46032716 .3849945 .4373169 .34199525 .36730958 .33898927 .3623047 .33599855 .3572998 .33198548 .353302 .32798768 .353302 .32199098 .353302 .31698609 .3592987 .31599427 .36131288L.1749878 .6863556H.02999878L.022994996 .67936709V.6513672Z"/>
<path id="font_5_10" d="M.04499817 .001953125H.5379944L.56399539 .079940799 .5589905 .08795166H.20999146C.20399475 .08795166 .19799805 .08894348 .19599915 .092941287 .19499207 .094940189 .19599915 .09794617 .19699097 .09895325 .2539978 .1569519 .30799867 .21495056 .35899354 .27496339 .394989 .31697084 .42999269 .358963 .45799256 .40496827 .48799134 .4509735 .5119934 .49998475 .5119934 .5529938 .5119934 .59399417 .49899293 .6349945 .46499635 .66400149 .43199159 .69299319 .3880005 .7080078 .34199525 .7080078 .29899598 .7080078 .2579956 .6970062 .22099304 .67900088 .17599488 .65800479 .13699341 .6279907 .102996829 .59498599L.125 .57598879C.1519928 .59599307 .17799378 .61099246 .20999146 .6259918 .23098755 .6360016 .2559967 .6399994 .2809906 .6399994 .31399537 .6399994 .34700013 .6289978 .37098695 .6069946 .40098573 .5779877 .4079895 .5369873 .4079895 .50798037 .4079895 .4429779 .38198854 .38197328 .34298707 .3259735 .31098939 .27996827 .27198792 .23796082 .23199463 .19696045 .17199707 .13494873 .10899353 .07594299 .04499817 .017944336V.001953125Z"/>
<path id="font_5_13" d="M.09199524 .6121063H.1749878C.19999695 .6121063 .21998596 .5911102 .22099304 .56611636 .22200012 .5411072 .22200012 .46810914 .22200012 .41911317 .22200012 .27911378 .21899414 .13911438 .21398926 .00010681152L.22599793-.0048828127 .30999757 .022109986C.30699159 .09811401 .30699159 .29611207 .30699159 .43211366 .30699159 .52111819 .30899049 .6111145 .31399537 .70010378L.30799867 .7121124 .09199524 .6391144V.6121063Z"/>
</defs>
<use data-text="+" xlink:href="#font_5_1" transform="matrix(37.185197,0,0,-37.18505,277.6274,53.19458)"/>
<use data-text="G" xlink:href="#font_5_2" transform="matrix(21.519362,0,0,-21.519398,135.64244,49.055086)"/>
<use data-text="1" xlink:href="#font_5_3" transform="matrix(16.438399,0,0,-16.438426,152.1097,53.35608)"/>
<use data-text="(" xlink:href="#font_5_4" transform="matrix(21.519362,0,0,-21.519398,162.35228,49.055086)"/>
<use data-text="s" xlink:href="#font_5_5" transform="matrix(21.519362,0,0,-21.519398,171.8974,49.055086)"/>
<use data-text=")" xlink:href="#font_5_6" transform="matrix(21.519362,0,0,-21.519398,182.88434,49.055086)"/>
<use data-text="H" xlink:href="#font_5_12" transform="matrix(21.51913,0,0,-21.519398,638.2163,326.2802)"/>
<use data-text="3" xlink:href="#font_5_11" transform="matrix(16.438221,0,0,-16.438426,655.07077,330.41679)"/>
<use data-text="(" xlink:href="#font_5_4" transform="matrix(21.51913,0,0,-21.519398,665.3133,326.2802)"/>
<use data-text="s" xlink:href="#font_5_5" transform="matrix(21.51913,0,0,-21.519398,674.85836,326.2802)"/>
<use data-text=")" xlink:href="#font_5_6" transform="matrix(21.51913,0,0,-21.519398,685.8451,326.2802)"/>
<path transform="matrix(1,0,0,-1,291.6669,43.673799)" stroke-width=".75" stroke-linecap="round" stroke-linejoin="round" fill="none" stroke="#000000" d="M-156.73528-24.622717C-156.03498-24.093482-155.18189-25.454283-156.08081-25.585247-137.9155-24.064003-119.15695-25.868762-100.0822-24.714238-85.991718-24.62446-85.94757-25.569891-85.43139-10.740762-84.74563-3.152329-86.351398 3.596388-84.81978 10.650559-85.973079 24.615052-85.511508 24.44601-100.58437 24.976872-118.77836 24.52433-137.12982 25.761885-155.92464 24.127934-171.99849 24.024147-170.17801 25.470293-170.94977 9.376538-171.16184 3.71775-170.71532-2.879512-171.56812-8.9756-171.25806-25.22502-171.73024-25.610377-156.73528-24.622717Z"/>
<path transform="matrix(1,0,0,-1,291.6669,43.673799)" stroke-width=".75" stroke-linecap="round" stroke-linejoin="round" fill="none" stroke="#000000" d="M347.338-302.84226C345.739-303.0956 347.10356-301.83955 347.07267-301.75044 365.23588-302.25743 384.5892-302.1579 402.72114-301.8183 416.83024-302.74943 417.89915-303.00386 417.45127-287.2672 417.3274-281.38215 417.29646-273.95588 416.65135-267.20875 417.5985-252.19223 417.93919-252.1642 401.77989-252.91225 383.20039-252.88083 365.14143-251.74552 346.21736-251.30855 332.00044-252.95507 330.59565-252.54878 331.59666-268.0355 332.0083-273.69407 331.78895-281.47224 331.8476-286.4756 331.11405-302.873 332.21516-302.48204 347.338-302.84226Z"/>
<path transform="matrix(1,0,0,-1,291.6669,43.673799)" stroke-width=".75" stroke-linecap="round" stroke-linejoin="round" fill="none" stroke="#000000" d="M21.220265-.337759C21.252442 11.172779 12.079294 21.156615 .178898 22.310519-12.635183 22.519145-21.714163 12.414081-21.104498-.287092-21.063796-12.634662-12.031634-22.468094 .515495-21.114384 12.903315-21.406355 22.266537-12.893899 21.220265-.337759Z"/>
<path transform="matrix(1,0,0,-1,291.6669,43.673799)" stroke-width=".75" stroke-linecap="round" stroke-linejoin="round" fill="none" stroke="#000000" d="M-234.9542-.270449C-213.22946 .327891-192.9651 .297366-171.42746-.123029"/>
<path transform="matrix(1,0,0,-1,291.6669,43.673799)" stroke-width=".75" stroke-linecap="round" stroke-linejoin="round" fill="none" stroke="#000000" d="M-183.92719-7.963443C-180.8964-4.405334-176.53287-1.15566-171.8501-.117072-176.62422 1.509902-181.24878 3.719829-183.70381 8.0762"/>
<path transform="matrix(1,0,0,-1,291.6669,43.673799)" stroke-width=".75" stroke-linecap="round" stroke-linejoin="round" fill="none" stroke="#000000" d="M-85.79718 .036311C-64.1411-.36328-43.04126-.024452-22.22355 .23249"/>
<path transform="matrix(1,0,0,-1,291.6669,43.673799)" stroke-width=".75" stroke-linecap="round" stroke-linejoin="round" fill="none" stroke="#000000" d="M-35.059789-7.705007C-31.397772-4.153689-27.296599-.900428-21.852282-.357452-26.647162 1.250678-31.800387 3.777636-34.278837 7.900885"/>
<path transform="matrix(1,0,0,-1,291.6669,43.673799)" stroke-width=".75" stroke-linecap="round" stroke-linejoin="round" fill="none" stroke="#000000" d="M21.913619-.182356C35.333387-.221908 49.58479 .048438 63.88332-.284535"/>
<path transform="matrix(1,0,0,-1,291.6669,43.673799)" stroke-width=".75" stroke-linecap="round" stroke-linejoin="round" fill="none" stroke="#000000" d="M51.40622-8.488912C54.589849-3.805126 58.561189-1.340292 63.956815-.243644 58.485414 .930722 54.49341 4.131487 51.502504 7.65829"/>
<path transform="matrix(1,0,0,-1,291.6669,43.673799)" stroke-width=".75" stroke-linecap="round" stroke-linejoin="round" fill="none" stroke="#000000" d="M492.34223 .15377C520.07357-.083764 548.32437 .214148 576.66757-.315819"/>
<path transform="matrix(1,0,0,-1,291.6669,43.673799)" stroke-width=".75" stroke-linecap="round" stroke-linejoin="round" fill="none" stroke="#000000" d="M564.254-8.482843C567.8311-4.102617 571.90286-1.371349 576.9198-.049143 572.1527 1.231592 567.34298 4.11888 564.66256 8.200256"/>
<path transform="matrix(1,0,0,-1,291.6669,43.673799)" stroke-width=".75" stroke-linecap="round" stroke-linejoin="round" fill="none" stroke="#000000" d="M534.9352 .243693C534.92056-92.59634 534.6437-185.05359 534.4293-277.50178 495.27976-277.25776 456.3412-277.4145 417.4178-276.8734"/>
<path transform="matrix(1,0,0,-1,291.6669,43.673799)" stroke-width=".75" stroke-linecap="round" stroke-linejoin="round" fill="none" stroke="#000000" d="M429.85044-269.48616C426.22825-273.34819 421.88499-275.9418 417.1246-277.3276 421.95359-278.1539 426.4569-281.4632 429.65617-285.2172"/>
<path transform="matrix(1,0,0,-1,291.6669,43.673799)" stroke-width=".75" stroke-linecap="round" stroke-linejoin="round" fill="none" stroke="#000000" d="M331.39378-277.35578C220.60858-276.8139 110.756999-277.54975 .433642-277.5494-.053658-191.89756-.180672-106.69616 .277922-22.445576"/>
<path transform="matrix(1,0,0,-1,291.6669,43.673799)" stroke-width=".75" stroke-linecap="round" stroke-linejoin="round" fill="none" stroke="#000000" d="M8.195276-34.600847C3.611306-31.662852 .953629-26.930348 .302689-21.745509-.971374-27.031878-4.135033-31.715546-7.781066-34.26879"/>
<path transform="matrix(1,0,0,-1,291.6669,43.673799)" stroke-width=".75" stroke-linecap="round" stroke-linejoin="round" fill="none" stroke="#000000" d="M-156.69095-25.4862C-156.95482-24.377385-155.86263-24.770808-156.9685-24.073109-137.39757-25.43299-118.80934-25.771349-100.077129-24.928177-86.10464-25.037018-84.56591-25.139035-84.910709-9.369677-84.55949-4.286084-85.98468 4.215718-86.086238 9.588372-85.43087 24.62791-84.46587 24.968379-100.53716 25.67899-118.4262 25.444785-137.30544 25.456225-155.57592 25.545502-170.43248 25.42598-171.68161 25.640969-170.3769 9.076801-171.68419 3.867427-170.66414-2.358385-171.11437-10.196218-171.324-24.47311-171.02664-25.86524-156.69095-25.4862Z"/>
<path transform="matrix(1,0,0,-1,291.6669,43.673799)" stroke-width=".75" stroke-linecap="round" stroke-linejoin="round" fill="none" stroke="#000000" d="M346.61827-301.6123C347.17338-301.47926 346.57136-302.89784 346.6234-302.4462 365.34989-303.07475 383.10368-302.9882 401.64195-301.22306 418.29637-302.31303 418.44108-302.02177 418.4199-286.84083 417.52839-279.59889 416.74726-273.0585 417.24736-267.2967 418.33238-252.92667 418.2974-252.73879 402.20143-252.5571 383.97923-251.91307 364.315-251.90012 346.93034-251.33049 332.44129-253.14196 330.83366-251.7723 331.92524-267.42127 331.77598-274.6348 331.99217-281.11347 332.00248-287.7132 331.59248-302.42024 331.85777-303.06025 346.61827-301.6123Z"/>
<path transform="matrix(1,0,0,-1,291.6669,43.673799)" stroke-width=".75" stroke-linecap="round" stroke-linejoin="round" fill="none" stroke="#000000" d="M21.864714-.473228C20.704789 11.545965 12.735387 21.854537 .087026 21.532542-12.769733 21.69488-21.946482 11.374059-20.978577 .307013-21.029969-12.307846-11.532412-21.51067 .852106-21.67415 11.756392-21.714972 21.082669-12.030412 21.864714-.473228Z"/>
<path transform="matrix(1,0,0,-1,291.6669,43.673799)" stroke-width=".75" stroke-linecap="round" stroke-linejoin="round" fill="none" stroke="#000000" d="M-234.64987 .067576C-214.03916 .260707-192.13413 .088795-170.97574-.31305"/>
<path transform="matrix(1,0,0,-1,291.6669,43.673799)" stroke-width=".75" stroke-linecap="round" stroke-linejoin="round" fill="none" stroke="#000000" d="M-184.12812-8.082338C-180.69129-3.768986-176.12137-.751094-171.03423-.158395-176.34999 1.488198-180.80355 4.110354-184.4162 7.75177"/>
<path transform="matrix(1,0,0,-1,291.6669,43.673799)" stroke-width=".75" stroke-linecap="round" stroke-linejoin="round" fill="none" stroke="#000000" d="M-85.366619 .22062C-64.48809-.405321-43.25781-.181382-22.321736 .004469"/>
<path transform="matrix(1,0,0,-1,291.6669,43.673799)" stroke-width=".75" stroke-linecap="round" stroke-linejoin="round" fill="none" stroke="#000000" d="M-34.820867-8.216821C-31.92369-3.558649-26.603682-.904393-21.938303 .362053-26.64384 .789814-31.40217 4.325605-34.394666 8.236864"/>
<path transform="matrix(1,0,0,-1,291.6669,43.673799)" stroke-width=".75" stroke-linecap="round" stroke-linejoin="round" fill="none" stroke="#000000" d="M21.656685-.399522C35.422609-.439277 49.350126 .235608 63.41096-.346436"/>
<path transform="matrix(1,0,0,-1,291.6669,43.673799)" stroke-width=".75" stroke-linecap="round" stroke-linejoin="round" fill="none" stroke="#000000" d="M51.44838-7.977683C54.557024-3.566175 58.70466-1.508915 63.51033-.103657 58.498594 .892228 54.41486 3.833578 51.56254 8.336087"/>
<path transform="matrix(1,0,0,-1,291.6669,43.673799)" stroke-width=".75" stroke-linecap="round" stroke-linejoin="round" fill="none" stroke="#000000" d="M491.8829-.366416C520.8147-.226923 549.07308 .201229 576.78176 .239949"/>
<path transform="matrix(1,0,0,-1,291.6669,43.673799)" stroke-width=".75" stroke-linecap="round" stroke-linejoin="round" fill="none" stroke="#000000" d="M564.1038-7.712926C567.46377-3.579041 571.62289-1.249509 577.22689 .417835 571.98416 1.010273 567.5346 3.713973 564.67959 7.952755"/>
<path transform="matrix(1,0,0,-1,291.6669,43.673799)" stroke-width=".75" stroke-linecap="round" stroke-linejoin="round" fill="none" stroke="#000000" d="M534.1171 .211338C534.737-92.257648 534.55459-184.54291 534.34188-276.79643 494.9892-277.4722 456.47578-277.60108 416.83699-277.58628"/>
<path transform="matrix(1,0,0,-1,291.6669,43.673799)" stroke-width=".75" stroke-linecap="round" stroke-linejoin="round" fill="none" stroke="#000000" d="M429.56324-269.43147C427.01286-273.14857 422.5742-276.08326 417.36497-276.82966 422.31199-278.4244 426.56016-281.5713 430.0044-285.0883"/>
<path transform="matrix(1,0,0,-1,291.6669,43.673799)" stroke-width=".75" stroke-linecap="round" stroke-linejoin="round" fill="none" stroke="#000000" d="M331.59413-277.46684C220.81687-276.85768 110.81837-277.6062-.169711-277.4548-.361773-192.48317-.128037-107.41673-.163978-21.697812"/>
<path transform="matrix(1,0,0,-1,291.6669,43.673799)" stroke-width=".75" stroke-linecap="round" stroke-linejoin="round" fill="none" stroke="#000000" d="M8.294247-34.586927C3.846796-31.332646 1.197311-27.022074 .01361-21.94967-1.373526-27.29922-3.798545-31.784945-7.939936-34.721544"/>
<path transform="matrix(1,0,0,-1,291.6669,43.673799)" stroke-width=".75" stroke-linecap="round" stroke-linejoin="round" fill="none" stroke="#000000" d="M-155.58145-25.658717C-156.44812-24.06201-156.67302-24.726704-155.91167-25.649659-136.65557-25.185343-118.718479-24.481625-99.766559-25.058342-85.04797-24.73809-86.1888-24.107863-85.40705-10.527212-86.13987-3.271913-84.50656 2.746501-85.00769 9.875904-85.057918 24.688038-85.18465 24.065295-99.47246 24.972268-118.25557 24.331686-138.37557 25.270934-156.7476 25.836297-171.2151 24.978547-171.42105 24.673228-171.25807 9.565695-171.4413 3.568413-171.49144-2.673801-170.2709-10.413002-171.60482-24.653946-171.90154-25.068562-155.58145-25.658717Z"/>
<path transform="matrix(1,0,0,-1,291.6669,43.673799)" stroke-width=".75" stroke-linecap="round" stroke-linejoin="round" fill="none" stroke="#000000" d="M346.5028-302.33027C347.13145-301.56965 346.9917-302.97178 345.71263-302.56553 365.2712-301.99324 383.4846-302.35353 402.2153-302.21595 416.79304-302.32978 418.0839-301.9574 418.21034-287.92375 416.67503-281.1919 417.338-274.12147 417.09443-267.47666 416.82518-251.44492 417.5008-252.60791 402.54557-251.33177 384.24156-252.41045 364.335-251.95439 347.52107-251.35028 331.58897-251.57405 331.9314-252.73506 332.19578-267.96839 330.8302-273.56785 331.7264-280.82255 332.344-287.59877 330.61079-303.10298 331.83653-301.49488 346.5028-302.33027Z"/>
<path transform="matrix(1,0,0,-1,291.6669,43.673799)" stroke-width=".75" stroke-linecap="round" stroke-linejoin="round" fill="none" stroke="#000000" d="M22.512589-.105797C20.809859 11.913058 11.596964 20.897965 .286035 21.832827-12.140708 22.606949-22.604599 11.846403-21.515698 .386728-20.81091-11.497819-11.634489-21.910033 .744917-21.240643 11.117222-21.971358 22.138058-12.141082 22.512589-.105797Z"/>
<path transform="matrix(1,0,0,-1,291.6669,43.673799)" stroke-width=".75" stroke-linecap="round" stroke-linejoin="round" fill="none" stroke="#000000" d="M-234.87656 .259678C-213.287-.012565-192.69762-.28241-171.69384-.299475"/>
<path transform="matrix(1,0,0,-1,291.6669,43.673799)" stroke-width=".75" stroke-linecap="round" stroke-linejoin="round" fill="none" stroke="#000000" d="M-183.9803-7.777605C-180.57501-3.869294-176.79222-.930153-171.04439 .117355-176.86647 1.089589-180.9843 3.571731-184.34378 7.775016"/>
<path transform="matrix(1,0,0,-1,291.6669,43.673799)" stroke-width=".75" stroke-linecap="round" stroke-linejoin="round" fill="none" stroke="#000000" d="M-85.57723-.183334C-63.971094 .39833-42.70796 .263521-22.203213 .069278"/>
<path transform="matrix(1,0,0,-1,291.6669,43.673799)" stroke-width=".75" stroke-linecap="round" stroke-linejoin="round" fill="none" stroke="#000000" d="M-34.95237-7.957205C-31.418112-3.580056-26.846205-1.483188-21.77676 .093043-26.999819 1.274033-31.156962 3.702889-34.936574 7.781517"/>
<path transform="matrix(1,0,0,-1,291.6669,43.673799)" stroke-width=".75" stroke-linecap="round" stroke-linejoin="round" fill="none" stroke="#000000" d="M21.749018 .117596C35.929288 .389926 49.557924 .255887 63.78238 .06376"/>
<path transform="matrix(1,0,0,-1,291.6669,43.673799)" stroke-width=".75" stroke-linecap="round" stroke-linejoin="round" fill="none" stroke="#000000" d="M51.394556-7.811295C54.355344-4.404442 58.70632-1.150421 63.56656 .02326 59.060159 1.12556 54.1187 4.242508 51.578378 8.438081"/>
<path transform="matrix(1,0,0,-1,291.6669,43.673799)" stroke-width=".75" stroke-linecap="round" stroke-linejoin="round" fill="none" stroke="#000000" d="M492.19044 .394735C520.652 .21404 548.8373 .435104 577.444 .34529"/>
<path transform="matrix(1,0,0,-1,291.6669,43.673799)" stroke-width=".75" stroke-linecap="round" stroke-linejoin="round" fill="none" stroke="#000000" d="M564.1512-7.765095C567.2699-4.119573 571.7629-1.29637 577.4633 .210414 571.8034 .81911 567.752 3.601048 564.0954 8.112794"/>
<path transform="matrix(1,0,0,-1,291.6669,43.673799)" stroke-width=".75" stroke-linecap="round" stroke-linejoin="round" fill="none" stroke="#000000" d="M534.14157 .307351C534.8408-92.80103 534.9592-185.08916 534.3178-277.5904 495.344-277.3488 456.39216-277.28913 417.02973-276.88423"/>
<path transform="matrix(1,0,0,-1,291.6669,43.673799)" stroke-width=".75" stroke-linecap="round" stroke-linejoin="round" fill="none" stroke="#000000" d="M429.61265-269.00578C426.78755-272.90977 422.00065-275.7094 417.37638-277.33335 421.99369-278.1912 426.75639-281.0136 429.57038-285.49153"/>
<path transform="matrix(1,0,0,-1,291.6669,43.673799)" stroke-width=".75" stroke-linecap="round" stroke-linejoin="round" fill="none" stroke="#000000" d="M331.99989-276.8161C221.40604-277.43507 110.42133-277.494 .398018-277.30723 .184825-192.36576 .065967-107.31289-.2528-21.606427"/>
<path transform="matrix(1,0,0,-1,291.6669,43.673799)" stroke-width=".75" stroke-linecap="round" stroke-linejoin="round" fill="none" stroke="#000000" d="M8.187384-34.40705C3.930093-31.754693 .828841-27.32414 .164062-21.685376-1.176225-27.395915-4.044863-31.750182-7.701038-34.579549"/>
<path transform="matrix(1,0,0,-1,291.6669,43.673799)" stroke-width=".75" stroke-linecap="round" stroke-linejoin="round" fill="none" stroke="#000000" d="M-156.45503-25.520047C-155.28617-24.930403-155.86928-24.368294-155.63047-25.399586-138.35259-25.690834-118.125049-24.529183-100.58391-24.871306-85.42742-24.752793-86.09287-24.262097-85.41168-9.997563-85.61534-3.969391-85.282688 2.620951-84.588138 10.1275-85.21026 25.275015-85.2558 25.506459-100.48726 25.5418-119.07652 25.7362-136.86746 24.26425-156.16027 25.236865-170.96248 25.188979-170.77573 25.161778-171.51763 10.07134-171.70867 2.876843-170.83621-2.825944-170.14977-10.125055-170.34308-23.976189-170.52623-24.597817-156.45503-25.520047Z"/>
<path transform="matrix(1,0,0,-1,291.6669,43.673799)" stroke-width=".75" stroke-linecap="round" stroke-linejoin="round" fill="none" stroke="#000000" d="M345.90373-301.98997C346.19233-301.82633 347.0443-302.1645 346.07817-302.44569 365.585-301.671 383.34608-301.61 402.8243-301.23268 416.82566-301.5314 416.78807-301.662 417.04283-288.09123 416.91603-281.23503 417.7496-273.63285 417.6615-266.90998 418.17799-252.68927 417.62858-251.90033 403.1535-252.6661 384.06916-253.14455 365.6036-252.7498 346.0405-252.62894 332.05567-251.77892 330.78733-252.28905 330.58207-268.0429 330.75575-274.7574 332.15528-280.27159 331.3984-287.6932 330.84757-301.24409 331.3844-302.1351 345.90373-301.98997Z"/>
<path transform="matrix(1,0,0,-1,291.6669,43.673799)" stroke-width=".75" stroke-linecap="round" stroke-linejoin="round" fill="none" stroke="#000000" d="M20.79715 .946113C21.895276 12.062337 11.492477 21.498993 .49443 22.178956-11.388609 22.430174-21.162726 12.805863-20.758725 .151819-21.66009-12.295087-11.363181-22.37633 .291248-22.543967 11.340454-22.027234 21.728392-11.676781 20.79715 .946113Z"/>
<path transform="matrix(1,0,0,-1,291.6669,43.673799)" stroke-width=".75" stroke-linecap="round" stroke-linejoin="round" fill="none" stroke="#000000" d="M-234.62299 .082933C-213.50675 .231767-192.34095-.293425-171.73137-.143783"/>
<path transform="matrix(1,0,0,-1,291.6669,43.673799)" stroke-width=".75" stroke-linecap="round" stroke-linejoin="round" fill="none" stroke="#000000" d="M-183.91254-8.462238C-180.67559-3.738977-176.69272-1.103357-171.69123 .130799-175.97193 1.316982-180.92981 4.187888-184.21053 8.46554"/>
<path transform="matrix(1,0,0,-1,291.6669,43.673799)" stroke-width=".75" stroke-linecap="round" stroke-linejoin="round" fill="none" stroke="#000000" d="M-85.243579-.325369C-64.16781-.009994-42.806844-.181074-21.937426-.333942"/>
<path transform="matrix(1,0,0,-1,291.6669,43.673799)" stroke-width=".75" stroke-linecap="round" stroke-linejoin="round" fill="none" stroke="#000000" d="M-34.595014-7.720685C-31.95013-3.893875-26.736786-.870662-21.595515-.10637-26.77228 1.236482-31.11158 4.13908-35.089685 7.893989"/>
<path transform="matrix(1,0,0,-1,291.6669,43.673799)" stroke-width=".75" stroke-linecap="round" stroke-linejoin="round" fill="none" stroke="#000000" d="M21.934788 .178828C36.10059-.39019 49.332258-.193625 63.779085-.250853"/>
<path transform="matrix(1,0,0,-1,291.6669,43.673799)" stroke-width=".75" stroke-linecap="round" stroke-linejoin="round" fill="none" stroke="#000000" d="M51.214864-8.448933C54.74011-3.97481 58.446168-1.126491 64.04645-.239224 58.807718 1.122379 53.981767 4.205163 51.541139 8.414509"/>
<path transform="matrix(1,0,0,-1,291.6669,43.673799)" stroke-width=".75" stroke-linecap="round" stroke-linejoin="round" fill="none" stroke="#000000" d="M491.6434 .081463C520.5105 .156346 548.71536-.041264 576.8484-.087302"/>
<path transform="matrix(1,0,0,-1,291.6669,43.673799)" stroke-width=".75" stroke-linecap="round" stroke-linejoin="round" fill="none" stroke="#000000" d="M564.6876-8.489085C567.5639-4.003764 571.6517-1.456606 577.3512 .058186 571.8017 1.089515 568.0302 4.339651 564.28457 7.949363"/>
<path transform="matrix(1,0,0,-1,291.6669,43.673799)" stroke-width=".75" stroke-linecap="round" stroke-linejoin="round" fill="none" stroke="#000000" d="M534.59988 .011803C534.6347-92.52466 534.42807-184.53159 534.13076-277.1132 495.82096-277.06947 456.4904-277.44108 417.0197-277.37379"/>
<path transform="matrix(1,0,0,-1,291.6669,43.673799)" stroke-width=".75" stroke-linecap="round" stroke-linejoin="round" fill="none" stroke="#000000" d="M430.04277-269.05885C426.28559-273.2793 422.56654-276.46366 417.50114-276.85105 421.76844-278.8354 426.3035-281.04457 429.79463-285.04847"/>
<path transform="matrix(1,0,0,-1,291.6669,43.673799)" stroke-width=".75" stroke-linecap="round" stroke-linejoin="round" fill="none" stroke="#000000" d="M331.12776-276.77888C220.89478-277.54356 110.85681-277.52659 .232266-276.933-.216106-192.36649-.217906-107.14534 .289703-22.070557"/>
<path transform="matrix(1,0,0,-1,291.6669,43.673799)" stroke-width=".75" stroke-linecap="round" stroke-linejoin="round" fill="none" stroke="#000000" d="M8.009665-34.3179C3.764938-31.486084 1.380398-27.427895 .335826-22.311703-.762557-27.236037-4.071657-31.596728-8.495578-34.315618"/>
<path transform="matrix(1,0,0,-1,291.6669,43.673799)" stroke-width=".75" stroke-linecap="round" stroke-linejoin="round" fill="none" stroke="#000000" d="M-155.73419-25.284722C-155.8649-25.438796-155.45523-24.639603-156.37021-25.228192-138.33951-25.20036-119.6293-25.143355-101.23259-24.558323-85.87186-24.832373-85.0696-24.848298-84.755649-9.013436-85.80394-3.071282-86.366558 3.094413-85.840038 9.363861-85.92682 24.238276-86.11794 24.822566-100.80732 24.28263-118.69505 24.808358-138.33167 25.868262-156.1722 24.383204-171.44095 25.800496-171.45508 24.736248-171.20529 10.744377-171.43413 3.355777-170.8119-2.447929-171.71562-9.718444-170.60222-25.089123-171.37071-24.551375-155.73419-25.284722Z"/>
<path transform="matrix(1,0,0,-1,291.6669,43.673799)" stroke-width=".75" stroke-linecap="round" stroke-linejoin="round" fill="none" stroke="#000000" d="M345.81214-302.17729C345.77809-302.1193 346.6593-301.203 345.66099-302.91627 365.22413-301.779 383.2768-302.50123 403.46754-302.05836 418.38594-301.37767 417.54994-301.64939 417.73255-286.47016 416.81767-280.07746 417.0531-273.82725 417.3011-268.0007 417.40187-252.50159 417.38459-252.58423 402.92353-251.92362 384.36537-252.51206 365.93345-252.55027 346.98368-251.32077 331.14073-252.88683 331.1712-253.24712 332.51445-267.6816 332.06663-273.80308 331.2866-279.9225 331.75846-286.53123 331.71833-302.17308 332.16075-302.54 345.81214-302.17729Z"/>
<path transform="matrix(1,0,0,-1,291.6669,43.673799)" stroke-width=".75" stroke-linecap="round" stroke-linejoin="round" fill="none" stroke="#000000" d="M21.544985-.159674C21.042122 11.084709 11.236459 21.839007-.206808 21.84788-12.895641 21.541213-21.860217 12.387576-21.961709-.618027-21.937718-12.525478-12.214192-20.703993-.790391-20.948187 11.889175-21.471146 21.681035-11.121442 21.544985-.159674Z"/>
<path transform="matrix(1,0,0,-1,291.6669,43.673799)" stroke-width=".75" stroke-linecap="round" stroke-linejoin="round" fill="none" stroke="#000000" d="M-234.43468-.013402C-213.29396 .019425-192.9647-.253566-170.98041-.090775"/>
<path transform="matrix(1,0,0,-1,291.6669,43.673799)" stroke-width=".75" stroke-linecap="round" stroke-linejoin="round" fill="none" stroke="#000000" d="M-184.09767-7.941043C-181.19278-4.246957-176.481-.889193-171.65341 .21186-176.50263 1.456875-181.19058 4.31996-183.98345 8.160021"/>
<path transform="matrix(1,0,0,-1,291.6669,43.673799)" stroke-width=".75" stroke-linecap="round" stroke-linejoin="round" fill="none" stroke="#000000" d="M-85.00541 .095015C-64.473529 .42087-43.1027 .277957-22.071253-.047635"/>
<path transform="matrix(1,0,0,-1,291.6669,43.673799)" stroke-width=".75" stroke-linecap="round" stroke-linejoin="round" fill="none" stroke="#000000" d="M-34.39339-7.615993C-31.410504-4.436451-26.884633-1.401092-21.622456 .006763-26.793633 1.095235-31.182309 3.559731-34.632497 8.222144"/>
<path transform="matrix(1,0,0,-1,291.6669,43.673799)" stroke-width=".75" stroke-linecap="round" stroke-linejoin="round" fill="none" stroke="#000000" d="M21.272736-.286984C35.617055-.000233 49.424589-.019048 64.15789 .111149"/>
<path transform="matrix(1,0,0,-1,291.6669,43.673799)" stroke-width=".75" stroke-linecap="round" stroke-linejoin="round" fill="none" stroke="#000000" d="M50.714776-8.118472C54.647359-3.829927 58.96871-1.548544 64.11585-.410275 58.38056 1.068924 53.93777 3.603174 51.18407 7.914412"/>
<path transform="matrix(1,0,0,-1,291.6669,43.673799)" stroke-width=".75" stroke-linecap="round" stroke-linejoin="round" fill="none" stroke="#000000" d="M492.0713 .437897C520.3019-.241766 548.77688 .046524 576.863-.338153"/>
<path transform="matrix(1,0,0,-1,291.6669,43.673799)" stroke-width=".75" stroke-linecap="round" stroke-linejoin="round" fill="none" stroke="#000000" d="M564.69668-8.031315C567.172-4.273216 571.6923-.891366 577.1179 .307321 572.24459 1.389857 567.409 4.163597 564.345 8.009594"/>
<path transform="matrix(1,0,0,-1,291.6669,43.673799)" stroke-width=".75" stroke-linecap="round" stroke-linejoin="round" fill="none" stroke="#000000" d="M534.96566-.183514C534.81857-92.19496 534.29598-184.47975 534.8309-277.50599 495.7504-277.41734 455.90129-277.14155 417.22019-277.09257"/>
<path transform="matrix(1,0,0,-1,291.6669,43.673799)" stroke-width=".75" stroke-linecap="round" stroke-linejoin="round" fill="none" stroke="#000000" d="M429.54286-268.77357C426.82157-273.2469 422.37065-275.86717 417.10249-277.32087 421.79768-278.82164 426.5397-281.17048 429.97227-284.9357"/>
<path transform="matrix(1,0,0,-1,291.6669,43.673799)" stroke-width=".75" stroke-linecap="round" stroke-linejoin="round" fill="none" stroke="#000000" d="M331.75593-277.59837C221.18624-277.4238 110.80679-277.09968 .143329-276.92353 .384956-192.38808-.017482-106.65911 .37472-22.353409"/>
<path transform="matrix(1,0,0,-1,291.6669,43.673799)" stroke-width=".75" stroke-linecap="round" stroke-linejoin="round" fill="none" stroke="#000000" d="M7.930995-34.25938C4.322219-31.571599 .813205-26.699168 .259079-22.122357-.889573-26.807034-3.814183-31.902678-7.910647-34.44249"/>
<use data-text="+" xlink:href="#font_5_1" transform="matrix(21.519354,0,0,-21.519316,253.61762,35.931)"/>
<use data-text="&#x2212;" xlink:href="#font_5_7" transform="matrix(21.519371,0,0,-21.519288,297.8168,74.2832)"/>
<use data-text="U" xlink:href="#font_5_8" transform="matrix(21.519457,0,0,-21.519398,6.8143007,49.055086)"/>
<use data-text="(" xlink:href="#font_5_4" transform="matrix(21.519457,0,0,-21.519398,23.470364,49.055086)"/>
<use data-text="s" xlink:href="#font_5_5" transform="matrix(21.519457,0,0,-21.519398,33.015535,49.055086)"/>
<use data-text=")" xlink:href="#font_5_6" transform="matrix(21.519457,0,0,-21.519398,44.00251,49.055086)"/>
<use data-text="Y" xlink:href="#font_5_9" transform="matrix(21.519246,0,0,-21.519398,873.23489,49.055086)"/>
<use data-text="(" xlink:href="#font_5_4" transform="matrix(21.519246,0,0,-21.519398,886.38357,49.055086)"/>
<use data-text="s" xlink:href="#font_5_5" transform="matrix(21.519246,0,0,-21.519398,895.9286,49.055086)"/>
<use data-text=")" xlink:href="#font_5_6" transform="matrix(21.519246,0,0,-21.519398,906.9154,49.055086)"/>
<use data-text="G" xlink:href="#font_5_2" transform="matrix(21.51804,0,0,-21.519562,555.8762,84.02243)"/>
<use data-text="2" xlink:href="#font_5_10" transform="matrix(16.437388,0,0,-16.43855,572.34249,88.25766)"/>
<use data-text="(" xlink:href="#font_5_4" transform="matrix(21.51804,0,0,-21.519562,582.5844,84.02243)"/>
<use data-text="s" xlink:href="#font_5_5" transform="matrix(21.51804,0,0,-21.519562,592.12899,84.02243)"/>
<use data-text=")" xlink:href="#font_5_6" transform="matrix(21.51804,0,0,-21.519562,603.11526,84.02243)"/>
<use data-text="G" xlink:href="#font_5_2" transform="matrix(21.51804,0,0,-21.519562,613.8551,84.02243)"/>
<use data-text="3" xlink:href="#font_5_11" transform="matrix(16.437388,0,0,-16.43855,630.32907,88.159)"/>
<use data-text="(" xlink:href="#font_5_4" transform="matrix(21.51804,0,0,-21.519562,640.5711,84.02243)"/>
<use data-text="s" xlink:href="#font_5_5" transform="matrix(21.51804,0,0,-21.519562,650.11569,84.02243)"/>
<use data-text=")" xlink:href="#font_5_6" transform="matrix(21.51804,0,0,-21.519562,661.10189,84.02243)"/>
<path transform="matrix(1.4999122,0,0,-1.5000182,508.41157,89.87747)" stroke-width=".574019" stroke-linecap="butt" stroke-linejoin="round" fill="none" stroke="#000000" d="M0 0H139.0159"/>
<use data-text="1" xlink:href="#font_5_13" transform="matrix(21.51804,0,0,-21.519562,508.41157,106.495548)"/>
<use data-text="+" xlink:href="#font_5_1" transform="matrix(21.51804,0,0,-21.519562,523.9308,106.495548)"/>
<use data-text="G" xlink:href="#font_5_2" transform="matrix(21.51804,0,0,-21.519562,544.95858,106.495548)"/>
<use data-text="2" xlink:href="#font_5_10" transform="matrix(16.437388,0,0,-16.43855,561.43307,110.730777)"/>
<use data-text="(" xlink:href="#font_5_4" transform="matrix(21.51804,0,0,-21.519562,571.6751,106.495548)"/>
<use data-text="s" xlink:href="#font_5_5" transform="matrix(21.51804,0,0,-21.519562,581.21969,106.495548)"/>
<use data-text=")" xlink:href="#font_5_6" transform="matrix(21.51804,0,0,-21.519562,592.2059,106.495548)"/>
<use data-text="G" xlink:href="#font_5_2" transform="matrix(21.51804,0,0,-21.519562,602.94577,106.495548)"/>
<use data-text="3" xlink:href="#font_5_11" transform="matrix(16.437388,0,0,-16.43855,619.41976,110.63214)"/>
<use data-text="(" xlink:href="#font_5_4" transform="matrix(21.51804,0,0,-21.519562,629.6617,106.495548)"/>
<use data-text="s" xlink:href="#font_5_5" transform="matrix(21.51804,0,0,-21.519562,639.20626,106.495548)"/>
<use data-text=")" xlink:href="#font_5_6" transform="matrix(21.51804,0,0,-21.519562,650.19247,106.495548)"/>
<use data-text="H" xlink:href="#font_5_12" transform="matrix(21.51804,0,0,-21.519562,660.9323,106.495548)"/>
<use data-text="1" xlink:href="#font_5_3" transform="matrix(16.437388,0,0,-16.43855,677.7937,110.79654)"/>
<use data-text="(" xlink:href="#font_5_4" transform="matrix(21.51804,0,0,-21.519562,688.03579,106.495548)"/>
<use data-text="s" xlink:href="#font_5_5" transform="matrix(21.51804,0,0,-21.519562,697.5803,106.495548)"/>
<use data-text=")" xlink:href="#font_5_6" transform="matrix(21.51804,0,0,-21.519562,708.5665,106.495548)"/>
<path transform="matrix(1,0,0,-1,291.66694,43.673799)" stroke-width=".75" stroke-linecap="round" stroke-linejoin="round" fill="none" stroke="#000000" d="M165.22144-116.39177C164.04242-117.61451 164.80179-116.4361 164.48134-117.06387 268.09169-117.664 373.34593-116.55917 476.57707-117.82566 492.24253-117.96894 491.46769-118.06131 492.46836-102.94383 491.32057-64.82172 492.0668-27.836619 491.31663 10.470171 491.78178 24.92689 491.73204 24.468874 477.06547 25.037064 373.9656 25.484307 268.8513 24.41718 165.66004 24.398596 149.47026 25.003022 150.75704 24.078042 150.47846 9.373514 149.70049-26.671523 149.67444-64.161228 149.2758-102.037 150.14968-117.00001 150.5449-117.33436 165.22144-116.39177Z"/>
<path transform="matrix(1,0,0,-1,291.66694,43.673799)" stroke-width=".75" stroke-linecap="round" stroke-linejoin="round" fill="none" stroke="#000000" d="M164.1638-116.39853C164.68599-117.63878 165.0499-117.783199 164.13712-118.08023 268.70735-118.06627 372.1808-116.72756 477.52095-118.003459 492.88688-116.572528 491.21049-117.56097 491.3893-101.98009 492.74305-65.089717 492.8626-28.432459 492.964 9.025013 491.86579 24.36349 491.10896 25.500514 477.86576 25.085394 372.26307 23.974829 268.59159 25.17252 164.87096 25.043993 149.35402 24.27062 149.07347 25.916752 150.78446 9.483573 149.4354-27.606965 149.40647-65.87367 150.95334-102.368808 150.74805-117.03846 150.05377-117.02961 164.1638-116.39853Z"/>
<path transform="matrix(1,0,0,-1,291.66694,43.673799)" stroke-width=".75" stroke-linecap="round" stroke-linejoin="round" fill="none" stroke="#000000" d="M164.01604-117.698848C164.139-116.49401 164.07424-116.44578 165.37284-117.855449 268.48667-116.63017 372.6368-116.71935 476.13813-117.38455 492.3411-117.47044 492.16603-118.17711 492.13548-102.705989 491.93397-64.08297 492.88813-27.65422 491.88053 10.342178 491.15983 24.600192 492.7057 25.443717 477.71797 25.548068 372.28108 24.98394 269.04588 24.68249 164.09832 25.564629 150.69916 24.52353 149.82984 24.579039 150.79422 9.734754 149.58158-28.390105 150.8809-65.7066 149.43659-102.0026 149.3071-116.98147 150.10819-116.93054 164.01604-117.698848Z"/>
<path transform="matrix(1,0,0,-1,291.66694,43.673799)" stroke-width=".75" stroke-linecap="round" stroke-linejoin="round" fill="none" stroke="#000000" d="M165.6371-117.70521C165.66083-118.131137 164.94913-118.19693 164.87503-116.838199 269.60063-116.43568 373.56178-116.903308 476.68983-117.383358 491.85798-118.14245 492.5949-116.98253 491.63099-102.9143 491.9059-64.71592 492.53874-28.044064 492.35285 9.37505 492.62318 25.745757 491.97456 25.53704 476.31864 24.823737 372.62538 24.250748 269.46525 25.627293 165.7149 24.30823 150.93576 25.405299 150.56259 25.402279 150.3234 9.184971 149.6016-28.128966 150.54051-65.20875 149.92716-101.56646 149.53107-117.41904 150.34969-116.73741 165.6371-117.70521Z"/>
<path transform="matrix(1,0,0,-1,291.66694,43.673799)" stroke-width=".75" stroke-linecap="round" stroke-linejoin="round" fill="none" stroke="#000000" d="M165.41576-117.40556C165.71678-117.2281 165.33054-118.2101 165.4091-116.677448 269.86787-117.306919 373.81245-117.43527 477.80683-117.473697 491.68775-118.303768 492.33897-116.99641 492.65284-101.68751 492.68916-65.67757 492.42076-27.631999 491.8792 10.247082 491.33396 25.113469 491.06275 24.47523 476.12187 24.938195 373.0423 24.12241 268.35789 25.414128 164.10611 24.151808 150.1004 24.74857 149.9312 24.240738 149.5182 10.792399 150.52667-27.474244 150.58405-64.95518 150.03311-103.07809 149.62674-118.08638 150.53298-116.445697 165.41576-117.40556Z"/>
<use data-text="+" xlink:href="#font_5_1" transform="matrix(37.185197,0,0,-37.18505,363.4417,53.19458)"/>
<use data-text="H" xlink:href="#font_5_12" transform="matrix(21.51913,0,0,-21.519398,638.2163,233.87184)"/>
<use data-text="2" xlink:href="#font_5_10" transform="matrix(16.438221,0,0,-16.438426,655.07077,238.10706)"/>
<use data-text="(" xlink:href="#font_5_4" transform="matrix(21.51913,0,0,-21.519398,665.3133,233.87184)"/>
<use data-text="s" xlink:href="#font_5_5" transform="matrix(21.51913,0,0,-21.519398,674.85836,233.87184)"/>
<use data-text=")" xlink:href="#font_5_6" transform="matrix(21.51913,0,0,-21.519398,685.8451,233.87184)"/>
<path transform="matrix(1,0,0,-1,291.6669,43.673799)" stroke-width=".75" stroke-linecap="round" stroke-linejoin="round" fill="none" stroke="#000000" d="M347.22505-209.19402C346.67304-210.50823 347.02534-210.53626 346.42488-209.44852 365.3339-209.5242 383.67668-209.95482 402.09767-208.97943 416.68809-209.1819 417.64888-209.75774 417.3928-193.91075 418.27485-188.71538 417.046-181.09835 417.6426-174.12465 417.10417-159.11096 416.90043-159.96515 403.24937-160.302 383.32875-159.13755 365.81858-158.96709 346.37553-159.20046 332.28083-159.08794 330.68223-160.05022 331.24864-174.64189 332.21058-181.0641 331.2581-188.55333 331.71516-194.64487 331.6103-209.46669 331.078-209.32386 347.22505-209.19402Z"/>
<path transform="matrix(1,0,0,-1,291.6669,43.673799)" stroke-width=".75" stroke-linecap="round" stroke-linejoin="round" fill="none" stroke="#000000" d="M106.823909 .146426C107.40427 11.458455 97.494548 21.03526 86.51957 21.70709 73.2803 22.154452 65.01208 11.950786 63.517869-.648789 64.47327-11.17699 74.34717-21.20976 85.01466-21.889815 97.22239-22.061079 107.2976-11.670625 106.823909 .146426Z"/>
<path transform="matrix(1,0,0,-1,291.6669,43.673799)" stroke-width=".75" stroke-linecap="round" stroke-linejoin="round" fill="none" stroke="#000000" d="M107.35184 .303597C121.33056 .365157 135.94936 .069935 149.87583 .37922"/>
<path transform="matrix(1,0,0,-1,291.6669,43.673799)" stroke-width=".75" stroke-linecap="round" stroke-linejoin="round" fill="none" stroke="#000000" d="M137.06037-8.258034C140.45473-3.679682 144.35916-1.359216 149.97457-.098204 144.84937 1.344191 140.33768 4.33826 137.28705 7.832134"/>
<path transform="matrix(1,0,0,-1,291.6669,43.673799)" stroke-width=".75" stroke-linecap="round" stroke-linejoin="round" fill="none" stroke="#000000" d="M534.873 .293815C534.1493-61.92319 534.6446-123.270549 534.9071-185.22148 495.1691-184.40203 455.96058-184.54357 417.15476-184.43059"/>
<path transform="matrix(1,0,0,-1,291.6669,43.673799)" stroke-width=".75" stroke-linecap="round" stroke-linejoin="round" fill="none" stroke="#000000" d="M429.53785-177.12802C426.31245-180.66497 421.99156-183.76404 417.51737-184.53124 421.7349-185.82817 426.2963-188.70108 429.68855-193.13837"/>
<path transform="matrix(1,0,0,-1,291.6669,43.673799)" stroke-width=".75" stroke-linecap="round" stroke-linejoin="round" fill="none" stroke="#000000" d="M331.35179-184.41298C249.80416-184.94159 167.67525-184.61115 85.875827-185.00981 85.68767-130.56186 86.07609-75.968189 85.4598-22.143029"/>
<path transform="matrix(1,0,0,-1,291.6669,43.673799)" stroke-width=".75" stroke-linecap="round" stroke-linejoin="round" fill="none" stroke="#000000" d="M93.93907-35.092004C89.50408-31.430632 86.897129-27.233948 86.12051-22.035973 84.91822-27.28704 82.12553-31.387898 78.03737-34.297304"/>
<path transform="matrix(1,0,0,-1,291.6669,43.673799)" stroke-width=".75" stroke-linecap="round" stroke-linejoin="round" fill="none" stroke="#000000" d="M346.0739-209.57149C346.65498-209.84459 346.48158-208.99237 345.86219-210.06656 365.362-209.10469 383.06953-209.78559 402.86216-209.61205 417.10926-210.14658 417.4022-210.57126 417.19245-194.88318 417.3887-188.03404 416.5919-181.83823 417.17448-175.43105 417.08723-159.72287 417.46754-159.88167 402.42485-160.45388 383.5968-158.92806 364.99519-160.77434 345.88807-160.04668 331.976-159.56128 332.12275-160.43097 332.18113-174.0684 331.63414-181.88449 331.93977-187.789 331.5498-195.16468 332.33644-209.47011 330.9761-210.48653 346.0739-209.57149Z"/>
<path transform="matrix(1,0,0,-1,291.6669,43.673799)" stroke-width=".75" stroke-linecap="round" stroke-linejoin="round" fill="none" stroke="#000000" d="M107.58742-.553865C107.62382 11.522711 98.28808 22.055386 85.31593 21.051548 74.2159 21.93172 63.723257 12.743819 63.88778-.25851 63.47759-11.952548 73.10739-21.17521 86.514278-21.767203 98.364299-22.226735 106.54508-12.718431 107.58742-.553865Z"/>
<path transform="matrix(1,0,0,-1,291.6669,43.673799)" stroke-width=".75" stroke-linecap="round" stroke-linejoin="round" fill="none" stroke="#000000" d="M107.41458 .11502C121.145877-.034011 135.47563 .015737 149.66645 .349846"/>
<path transform="matrix(1,0,0,-1,291.6669,43.673799)" stroke-width=".75" stroke-linecap="round" stroke-linejoin="round" fill="none" stroke="#000000" d="M136.60073-8.364392C140.02016-3.625191 144.70705-1.20722 149.8883-.016098 144.97945 1.40387 140.37157 4.393646 136.62845 8.495511"/>
<path transform="matrix(1,0,0,-1,291.6669,43.673799)" stroke-width=".75" stroke-linecap="round" stroke-linejoin="round" fill="none" stroke="#000000" d="M534.4489 .431107C534.30258-61.569658 534.6963-123.41622 534.3689-184.93535 495.86967-184.82741 456.64097-185.23363 417.25444-185.06671"/>
<path transform="matrix(1,0,0,-1,291.6669,43.673799)" stroke-width=".75" stroke-linecap="round" stroke-linejoin="round" fill="none" stroke="#000000" d="M429.86964-176.42482C426.42973-180.46161 421.80296-183.49182 417.20753-184.87912 422.03288-186.08866 426.72419-188.99755 430.24308-192.62526"/>
<path transform="matrix(1,0,0,-1,291.6669,43.673799)" stroke-width=".75" stroke-linecap="round" stroke-linejoin="round" fill="none" stroke="#000000" d="M331.76164-185.15132C249.96285-184.7141 168.00498-184.6756 86.02022-184.78272 85.52576-130.50153 85.639408-76.23863 85.917308-22.294636"/>
<path transform="matrix(1,0,0,-1,291.6669,43.673799)" stroke-width=".75" stroke-linecap="round" stroke-linejoin="round" fill="none" stroke="#000000" d="M93.524707-34.290056C90.21374-31.459946 86.822429-27.029578 85.64822-22.413462 84.449779-27.355607 81.4564-31.678566 77.87929-34.766599"/>
<path transform="matrix(1,0,0,-1,291.6669,43.673799)" stroke-width=".75" stroke-linecap="round" stroke-linejoin="round" fill="none" stroke="#000000" d="M347.38307-209.82683C346.06806-210.4927 347.34776-210.64797 345.85636-210.54204 365.81208-208.83914 384.4376-209.26714 403.46684-210.7039 417.79847-210.07796 417.15184-209.79878 418.27558-195.04784 417.06349-187.86319 416.89234-181.45603 416.8532-174.31385 417.08818-159.20139 416.7062-159.56009 403.13948-159.6242 383.02098-160.81482 365.1593-160.09696 346.83924-160.51229 330.80039-159.37889 331.02827-159.57166 330.8971-175.59549 331.46235-181.34416 331.39009-187.20162 330.8999-195.0059 331.41587-210.17629 332.36399-209.2305 347.38307-209.82683Z"/>
<path transform="matrix(1,0,0,-1,291.6669,43.673799)" stroke-width=".75" stroke-linecap="round" stroke-linejoin="round" fill="none" stroke="#000000" d="M106.60791-.336153C107.805667 12.776036 97.2014 21.273495 86.17237 22.523859 73.17222 20.904067 63.72163 12.128155 64.373569 .153696 63.853719-11.824064 74.77853-20.777472 85.90087-20.691044 98.144008-21.900324 106.85552-11.30167 106.60791-.336153Z"/>
<path transform="matrix(1,0,0,-1,291.6669,43.673799)" stroke-width=".75" stroke-linecap="round" stroke-linejoin="round" fill="none" stroke="#000000" d="M107.19933-.044158C121.578258-.08151 135.337 .236588 149.29631 .05029"/>
<path transform="matrix(1,0,0,-1,291.6669,43.673799)" stroke-width=".75" stroke-linecap="round" stroke-linejoin="round" fill="none" stroke="#000000" d="M136.5641-8.304434C140.35897-4.371236 144.35602-1.090003 149.33153 .098721 144.86273 1.116359 140.26734 4.446182 136.85948 8.218507"/>
<path transform="matrix(1,0,0,-1,291.6669,43.673799)" stroke-width=".75" stroke-linecap="round" stroke-linejoin="round" fill="none" stroke="#000000" d="M534.7135-.240605C534.373-61.49794 534.2753-122.96644 534.63479-185.14482 495.55384-184.81352 456.7202-185.0829 417.55006-184.52472"/>
<path transform="matrix(1,0,0,-1,291.6669,43.673799)" stroke-width=".75" stroke-linecap="round" stroke-linejoin="round" fill="none" stroke="#000000" d="M429.52656-176.64058C426.80369-180.98827 421.84913-183.81423 417.3543-185.20102 422.40373-185.68674 426.47169-188.6263 430.0847-192.62154"/>
<path transform="matrix(1,0,0,-1,291.6669,43.673799)" stroke-width=".75" stroke-linecap="round" stroke-linejoin="round" fill="none" stroke="#000000" d="M331.227-185.18343C249.67908-185.04483 167.81858-185.24819 85.92031-185.25676 86.03795-130.83728 85.37688-76.652507 85.909488-22.096419"/>
<path transform="matrix(1,0,0,-1,291.6669,43.673799)" stroke-width=".75" stroke-linecap="round" stroke-linejoin="round" fill="none" stroke="#000000" d="M93.43183-34.73711C89.941608-31.682278 87.40247-26.995604 85.724628-22.372557 84.93229-27.021918 81.46703-31.177334 78.175418-34.920545"/>
<path transform="matrix(1,0,0,-1,291.6669,43.673799)" stroke-width=".75" stroke-linecap="round" stroke-linejoin="round" fill="none" stroke="#000000" d="M346.35685-210.13498C345.75904-209.9322 346.55268-209.75653 347.23344-209.04116 365.82725-210.619 384.25917-210.24443 403.22489-209.93387 418.05723-210.15355 418.19416-209.61873 417.4897-194.40804 417.93367-187.72319 418.26097-180.98664 418.02729-174.36933 417.89573-159.53299 417.369-160.83008 401.71708-160.63048 383.01158-160.17305 364.3779-160.8001 347.02836-160.49338 331.35514-160.45648 332.27583-160.25164 330.95173-174.40013 332.2833-182.3854 331.794-187.84442 332.1102-194.66436 330.82084-210.01816 332.2385-210.72032 346.35685-210.13498Z"/>
<path transform="matrix(1,0,0,-1,291.6669,43.673799)" stroke-width=".75" stroke-linecap="round" stroke-linejoin="round" fill="none" stroke="#000000" d="M106.98296-.330952C106.91355 12.686302 96.99876 21.076083 86.04193 22.454909 72.967769 21.736397 65.0661 11.544301 64.93357 .319373 65.1379-12.099136 73.095027-21.899096 86.617458-22.106966 98.64665-21.721257 107.4189-12.33914 106.98296-.330952Z"/>
<path transform="matrix(1,0,0,-1,291.6669,43.673799)" stroke-width=".75" stroke-linecap="round" stroke-linejoin="round" fill="none" stroke="#000000" d="M107.401729-.237198C121.93821-.351949 135.82251 .061677 149.38643 .206836"/>
<path transform="matrix(1,0,0,-1,291.6669,43.673799)" stroke-width=".75" stroke-linecap="round" stroke-linejoin="round" fill="none" stroke="#000000" d="M137.4029-7.872676C140.31732-4.135734 144.21071-.731319 149.1668 .0992 144.417 1.247624 140.53708 3.966618 137.12453 7.74777"/>
<path transform="matrix(1,0,0,-1,291.6669,43.673799)" stroke-width=".75" stroke-linecap="round" stroke-linejoin="round" fill="none" stroke="#000000" d="M534.51876 .313055C534.4534-61.97856 534.7707-123.287929 534.8359-185.05863 495.14768-185.12114 456.60307-184.79814 417.45823-184.6967"/>
<path transform="matrix(1,0,0,-1,291.6669,43.673799)" stroke-width=".75" stroke-linecap="round" stroke-linejoin="round" fill="none" stroke="#000000" d="M429.41413-176.4421C426.69084-181.19661 421.79154-183.695 417.03468-184.59044 421.91737-185.645 426.67173-189.17787 429.7005-192.87995"/>
<path transform="matrix(1,0,0,-1,291.6669,43.673799)" stroke-width=".75" stroke-linecap="round" stroke-linejoin="round" fill="none" stroke="#000000" d="M331.79429-185.05092C249.80011-185.07598 167.67197-184.38648 86.04295-184.67215 85.6404-130.38318 86.08769-76.45035 86.231449-22.452193"/>
<path transform="matrix(1,0,0,-1,291.6669,43.673799)" stroke-width=".75" stroke-linecap="round" stroke-linejoin="round" fill="none" stroke="#000000" d="M93.85375-35.080919C89.809329-31.626116 86.69232-26.72281 85.964038-22.2433 84.74985-26.604447 82.041339-31.615748 77.928157-35.03428"/>
<path transform="matrix(1,0,0,-1,291.6669,43.673799)" stroke-width=".75" stroke-linecap="round" stroke-linejoin="round" fill="none" stroke="#000000" d="M347.38868-209.85881C346.40916-209.81806 345.7789-210.54094 347.22523-209.26439 365.8915-209.50188 384.18107-209.6674 402.89845-210.57392 417.94047-209.78345 416.8749-209.09397 417.5776-193.80176 417.8591-188.10445 418.0896-180.82769 416.89888-175.51888 418.5137-159.85689 418.34907-159.87212 403.35487-158.92093 383.35798-159.11606 364.93119-159.53473 347.1494-160.11592 331.30488-160.10085 330.87025-159.9083 330.63478-174.33359 332.40083-181.76282 331.3482-188.45726 331.69947-195.42072 331.94517-208.88155 331.4645-209.82654 347.38868-209.85881Z"/>
<path transform="matrix(1,0,0,-1,291.6669,43.673799)" stroke-width=".75" stroke-linecap="round" stroke-linejoin="round" fill="none" stroke="#000000" d="M107.96309 .701704C107.7141 12.905483 97.373 20.80619 85.17683 22.450152 74.03066 22.103947 64.08453 12.673622 63.60774-.281743 63.887128-12.498992 74.62551-21.271006 86.03494-21.79448 96.92346-21.354632 107.77015-11.509541 107.96309 .701704Z"/>
<path transform="matrix(1,0,0,-1,291.6669,43.673799)" stroke-width=".75" stroke-linecap="round" stroke-linejoin="round" fill="none" stroke="#000000" d="M107.43049-.200438C121.913509-.162268 135.1776 .430569 149.55985-.296662"/>
<path transform="matrix(1,0,0,-1,291.6669,43.673799)" stroke-width=".75" stroke-linecap="round" stroke-linejoin="round" fill="none" stroke="#000000" d="M136.77669-7.671756C140.25466-4.18424 145.02973-.998068 149.41603-.081502 144.67227 .907882 140.46717 3.742999 136.50917 8.125598"/>
<path transform="matrix(1,0,0,-1,291.6669,43.673799)" stroke-width=".75" stroke-linecap="round" stroke-linejoin="round" fill="none" stroke="#000000" d="M534.9547-.053188C535.00228-61.27111 534.9444-122.8161 534.455-184.55983 495.6087-185.15741 456.12257-185.21349 417.4195-184.81026"/>
<path transform="matrix(1,0,0,-1,291.6669,43.673799)" stroke-width=".75" stroke-linecap="round" stroke-linejoin="round" fill="none" stroke="#000000" d="M430.05714-176.46312C426.56986-180.5744 421.78593-183.40175 416.9666-184.64926 421.92686-185.9128 427.08329-188.57338 430.00709-192.4913"/>
<path transform="matrix(1,0,0,-1,291.6669,43.673799)" stroke-width=".75" stroke-linecap="round" stroke-linejoin="round" fill="none" stroke="#000000" d="M331.60923-184.84062C249.6696-184.44011 167.94083-184.44211 86.09663-185.22139 85.47814-130.29048 86.18008-76.482608 85.53174-21.826527"/>
<path transform="matrix(1,0,0,-1,291.6669,43.673799)" stroke-width=".75" stroke-linecap="round" stroke-linejoin="round" fill="none" stroke="#000000" d="M94.31203-34.930307C89.93166-31.058875 87.19979-26.732047 85.9881-21.64683 84.81356-27.116835 81.52099-31.104125 77.59159-34.903566"/>
<use data-text="+" xlink:href="#font_5_1" transform="matrix(21.519354,0,0,-21.519316,339.43193,35.931)"/>
<use data-text="&#x2212;" xlink:href="#font_5_7" transform="matrix(21.519371,0,0,-21.519288,383.6311,74.2832)"/>
</svg>
