<svg xmlns="http://www.w3.org/2000/svg" xmlns:xlink="http://www.w3.org/1999/xlink" version="1.1" width="750.4615" height="179.41326" viewBox="0 0 750.4615 179.41326">
<defs>
<path id="font_1_1" d="M.04598999 .23632813H.35598756V-.07368469L.3959961-.06668091V.23632813H.70399478L.70899966 .2763214H.3959961V.58631899L.35598756 .58032229V.2763214H.052993776L.04598999 .23632813Z"/>
<path id="font_1_2" d="M.08999634 .32458497C.08999634 .22958374 .114990238 .13148499 .18299866 .06341553 .23699951 .009384155 .31199647-.016601563 .3880005-.016601563 .46099855-.016601563 .56900027 .010391235 .6569977 .03338623 .6569977 .03338623 .6539917 .216568 .6519928 .30760194L.37599183 .2966156V.27061463L.38198854 .265625C.43598939 .26361085 .5 .25961305 .5439911 .25660707 .57199099 .25460816 .57199099 .22257996 .57199099 .13449097 .57199099 .061416627 .56900027 .04940796 .5519867 .045394899 .5209961 .038391115 .48999024 .03538513 .45799256 .03538513 .37998963 .03538513 .30599977 .060409547 .2619934 .112472537 .20399475 .18052674 .17999268 .25260926 .17999268 .3405609 .17999268 .48339845 .23199463 .5653076 .26098634 .5942688 .3039856 .63623049 .36299134 .6502075 .42199708 .6502075 .5529938 .6502075 .59298709 .5563202 .60598757 .53034976L.6179962 .5293579 .6759949 .58628848C.6649933 .6032715 .6119995 .69921877 .46699525 .69921877 .3619995 .69921877 .25698854 .6682129 .18199158 .593277 .11199951 .5233612 .08999634 .4224701 .08999634 .32458497Z"/>
<path id="font_1_3" d="M.1349945 .6123047H.22898865C.25698854 .6123047 .27999879 .59129336 .2809906 .5662842 .28199769 .541275 .28199769 .46824647 .28199769 .41923524 .28199769 .27919007 .27799989 .13916016 .272995 .00010681152L.28599549-.0048828127 .3809967 .022125245C.37799073 .09814453 .37799073 .2962036 .37799073 .43223573 .37799073 .52127078 .37998963 .6112976 .38598634 .7003021L.3789978 .71229556 .1349945 .6392975V.6123047Z"/>
<path id="font_1_4" d="M.11299133 .24990845C.11299133 .007904053 .1519928-.09008789 .18299866-.13310242 .21099854-.17008972 .25299073-.20809937 .30099488-.21209717V-.1880951C.2809906-.18409729 .25099183-.16809082 .23399353-.1481018 .21998596-.13209534 .16499329-.05809021 .16499329 .24990845 .16499329 .4618988 .19799805 .5659027 .21998596 .6128998 .23599243 .6469116 .2689972 .6769104 .30099488 .684906V.71191409C.2599945 .7049103 .21598816 .6729126 .19099427 .63790896 .1599884 .5919037 .11299133 .4748993 .11299133 .24990845Z"/>
<path id="font_1_5" d="M.051986696 .06642151C.06199646 .047409059 .07598877 .030395508 .09199524 .01638794 .12098694-.009613037 .16099549-.016601563 .19898987-.016601563 .2559967-.016601563 .31199647 .0023956299 .35099793 .044403078 .375 .06941223 .3869934 .10343933 .3869934 .13845825 .3869934 .1634674 .37298585 .18649292 .35499574 .20449829 .34098817 .21850586 .3039856 .24052429 .27198792 .25453187 .24299622 .26654054 .19999695 .2885437 .18798828 .30055238 .17298889 .31655885 .1619873 .3285675 .1619873 .35058595 .1619873 .3725891 .16899109 .39360047 .18499756 .4086151 .19999695 .42362977 .22200012 .43164063 .24398804 .43164063 .2639923 .43164063 .2849884 .42462159 .29599 .4066162 .30599977 .39060975 .30799867 .3715973 .30899049 .35359193L.32099916 .34657289 .37599183 .38360597C.375 .40560914 .3639984 .42662049 .34799195 .44163514 .32499696 .46263124 .29299928 .46662904 .2630005 .46662904 .21398926 .46662904 .16699219 .45063783 .1309967 .4176178 .10398865 .39360047 .08999634 .35858155 .08999634 .32356263 .08999634 .29154969 .10798645 .26353456 .1309967 .2425232 .1539917 .22250366 .18399048 .2084961 .21499634 .1954956 .24099732 .18447876 .2689972 .17248535 .28799439 .1534729 .30299378 .13845825 .31399537 .11845398 .31399537 .09744263 .31399537 .079422 .30499269 .062408449 .29299928 .04940796 .27799989 .03340149 .25099183 .021392823 .22898865 .021392823 .19898987 .021392823 .17199707 .03439331 .1499939 .055404664 .1269989 .076416019 .116989139 .10644531 .114990238 .13645935L.100997928 .13745117 .051986696 .06642151Z"/>
<path id="font_1_6" d="M.085998538-.1880951V-.21209717C.13398743-.20610047 .1789856-.17208863 .20698548-.13510132 .23799134-.09210205 .27598573 .007904053 .27598573 .24990845 .27598573 .50090029 .22399903 .5919037 .19299317 .63790896 .16799927 .6729126 .1269989 .7049103 .085998538 .71191409V.684906C.117996219 .6759033 .14898682 .6469116 .16499329 .6128998 .18699646 .5659027 .22399903 .48190309 .22399903 .24990845 .22399903-.099090579 .17199707-.13209534 .1579895-.1481018 .14099121-.16809082 .10598755-.18409729 .085998538-.1880951Z"/>
<path id="font_1_7" d="M.04598999 .23046875H.70399478L.70999148 .27046205H.052993776L.04598999 .23046875Z"/>
<path id="font_1_8" d="M.033996583 .6733093 .035995485 .6533203C.037994386 .6533203 .07398987 .6443176 .09199524 .63931277 .12298584 .6313019 .125 .6222992 .125 .54229739 .125 .46427918 .12199402 .38627626 .12199402 .30825807 .12199402 .24723816 .12399292 .17323303 .12998963 .12721253 .1349945 .08821106 .1559906-.0087890629 .31399537-.0087890629 .39698792-.0087890629 .47698976 .02520752 .5469971 .07020569L.5549927 .064208988C.5549927 .048202516 .5549927 .032196046 .55599978 .016204834 .55799868 .0012054443 .57598879-.0047912599 .58799746-.0047912599 .61898806-.0047912599 .6899872 .016204834 .7409973 .032196046L.74598696 .03919983 .74198916 .05619812C.7220001 .05419922 .70399478 .048202516 .6839905 .048202516 .673996 .048202516 .6609955 .050201417 .6539917 .0592041 .6389923 .07620239 .6359863 .15222168 .6359863 .20223999 .6359863 .3642578 .6369934 .5733032 .6519928 .68733218L.6459961 .69433596 .55799868 .659317C.55599978 .47727967 .55400088 .2942505 .55400088 .11122131 .5 .079208377 .43998719 .052200319 .37799073 .052200319 .24598694 .052200319 .22399903 .13922119 .21598816 .16522217 .20599365 .19923401 .20199585 .23423767 .20199585 .26924134L.20999146 .54229739C.20999146 .55929568 .21598816 .6603241 .21798706 .67433169L.21099854 .6803131H.041992189L.033996583 .6733093Z"/>
<path id="font_1_9" d="M.022994996 .6513672C.036987306 .649353 .049987794 .6463623 .06298828 .6433563 .07199097 .6413574 .07998657 .6353607 .085998538 .62835696 .09599304 .61834719 .102996829 .60635378 .10899353 .5943451L.2579956 .29930116C.2579956 .19927979 .2579956 .0982666 .25498963-.0017547608L.2659912-.0107421879 .35598756 .018249512 .34700013 .30630494C.42999269 .4343109 .5039978 .5303345 .61499026 .675354L.61099246 .6933594 .526001 .6763611C.48999024 .619339 .4059906 .47431947 .397995 .46032716 .3849945 .4373169 .34199525 .36730958 .33898927 .3623047 .33599855 .3572998 .33198548 .353302 .32798768 .353302 .32199098 .353302 .31698609 .3592987 .31599427 .36131288L.1749878 .6863556H.02999878L.022994996 .67936709V.6513672Z"/>
<path id="font_1_10" d="M.04499817 .001953125H.5379944L.56399539 .079940799 .5589905 .08795166H.20999146C.20399475 .08795166 .19799805 .08894348 .19599915 .092941287 .19499207 .094940189 .19599915 .09794617 .19699097 .09895325 .2539978 .1569519 .30799867 .21495056 .35899354 .27496339 .394989 .31697084 .42999269 .358963 .45799256 .40496827 .48799134 .4509735 .5119934 .49998475 .5119934 .5529938 .5119934 .59399417 .49899293 .6349945 .46499635 .66400149 .43199159 .69299319 .3880005 .7080078 .34199525 .7080078 .29899598 .7080078 .2579956 .6970062 .22099304 .67900088 .17599488 .65800479 .13699341 .6279907 .102996829 .59498599L.125 .57598879C.1519928 .59599307 .17799378 .61099246 .20999146 .6259918 .23098755 .6360016 .2559967 .6399994 .2809906 .6399994 .31399537 .6399994 .34700013 .6289978 .37098695 .6069946 .40098573 .5779877 .4079895 .5369873 .4079895 .50798037 .4079895 .4429779 .38198854 .38197328 .34298707 .3259735 .31098939 .27996827 .27198792 .23796082 .23199463 .19696045 .17199707 .13494873 .10899353 .07594299 .04499817 .017944336V.001953125Z"/>
<path id="font_1_11" d="M.050994874 .049362184 .05899048 .038375856C.10998535 .0033874512 .17098999-.016601563 .23599243-.016601563 .31799317-.016601563 .397995 .008392334 .45700074 .05935669 .5039978 .10131836 .5349884 .15626526 .5349884 .21520996 .5349884 .25416566 .519989 .2911377 .48999024 .31811524 .46899415 .3360901 .44198609 .34709168 .41600038 .35508729 .3789978 .36608888 .34199525 .37109376 .30299378 .37408448V.38209535C.34999085 .39408876 .3939972 .41609193 .42900086 .44610597 .46499635 .47810365 .48199464 .52311709 .48199464 .5681305 .48199464 .60414126 .46798707 .6401367 .43899537 .6651459 .40699769 .6941376 .36099244 .70214846 .31698609 .70214846 .2849884 .70214846 .25498963 .69114688 .22599793 .67814639 .18598938 .6591339 .14698792 .63414 .11199951 .60813906L.12799073 .58613589C.1539917 .60113528 .17999268 .6151428 .20799256 .6261444 .22799683 .6331482 .24699402 .6391449 .2659912 .6391449 .2999878 .6391449 .33299256 .6321411 .35598756 .61112979 .37799073 .59213259 .3889923 .5671234 .3889923 .54011538 .3889923 .502121 .37199403 .46510316 .34098817 .43710328 .32299806 .4210968 .29899598 .40908814 .27398683 .39909364 .24198914 .38609315 .20698548 .37808229 .17298889 .37109376L.17199707 .34509278C.21398926 .34509278 .2559967 .34309388 .29699708 .3340912 .32499696 .32809449 .35299684 .31910707 .37298585 .30012513 .4059906 .26914979 .42900086 .22920227 .42900086 .18623352 .42900086 .14128113 .41299439 .095321658 .3769989 .06335449 .34599305 .036376954 .30599977 .023391724 .2639923 .023391724 .22299195 .023391724 .18499756 .041366579 .1559906 .067352298 .13798523 .08332825 .12399292 .10131836 .10998535 .121292117H.09899902L.050994874 .049362184Z"/>
<path id="font_1_12" d="M.051986696 .6781769 .052993776 .6591797C.07299805 .65216067 .10899353 .6411438 .11299133 .6401367 .12298584 .6361389 .125 .6251221 .12599182 .6161041 .1309967 .53297427 .13198853 .44985963 .13198853 .36676026 .13198853 .24482727 .13198853 .11590576 .12199402 .0029907227L.12799073-.0020141602 .21998596 .025970459C.21699524 .051956178 .21499634 .10292053 .21499634 .1798706V.33377076C.21499634 .34075929 .22099304 .34576417 .22799683 .34576417H.57099917C.5799866 .34576417 .58299258 .33876039 .58299258 .33377076 .58299258 .23683167 .5799866 .11790466 .5779877 .020980835L.58898928 0 .73799136 .0078125 .74398806 .013809204 .7429962 .031799318C.72499087 .03981018 .66600039 .03981018 .66600039 .07879639 .66600039 .09979248 .6619873 .24076844 .6619873 .32176209 .6619873 .5129547 .66999819 .64515689 .6729889 .6841736L.66799929 .6901703 .5799866 .673172C.5799866 .58706668 .58299258 .48291017 .58299258 .3967743 .58299258 .39076234 .58200076 .38476563 .57099917 .38476563H.22499085C.21499634 .38476563 .21299744 .3917694 .21299744 .3967743 .21299744 .4618683 .21699524 .54600527 .21899414 .61109927 .21998596 .63414 .22200012 .6581726 .22599793 .6801758L.22099304 .6851654H.05899048L.051986696 .6781769Z"/>
</defs>
<path transform="matrix(1,0,0,-1,291.6669,43.60408)" d="M74.30429-36.28075C160.02695-35.97733 246.2122-35.77669 331.86927-35.865594 331.79216-12.449373 331.17207 12.209385 331.80979 36.1799 245.84029 36.36981 160.42627 36.211717 74.46588 35.74667 73.87059 12.047438 73.880649-12.006321 74.30429-36.28075Z" fill="#e0e0e0"/>
<path transform="matrix(1,0,0,-1,291.6669,43.60408)" stroke-width=".75" stroke-linecap="round" stroke-dasharray="4.5,4.5" stroke-linejoin="round" fill="none" stroke="#000000" d="M74.34674-35.861917C159.60607-35.823438 246.03154-36.229494 331.22224-35.84662 331.1808-12.160757 331.33174 11.658506 331.42329 35.846303 245.72446 35.510568 160.07428 35.842424 73.78548 36.074384 74.030078 12.108648 73.7727-12.077323 74.34674-35.861917Z"/>
<path transform="matrix(1,0,0,-1,291.6669,43.60408)" d="M74.51078-128.57643C159.72736-127.978328 245.76583-128.32515 331.38838-128.54135 331.82298-104.47223 331.89347-80.18443 331.39457-56.053644 245.71102-56.58305 160.27227-55.93449 73.86665-56.539396 73.95395-80.643138 74.54554-104.22211 74.51078-128.57643Z" fill="#e0e0e0"/>
<path transform="matrix(1,0,0,-1,291.6669,43.60408)" stroke-width=".75" stroke-linecap="round" stroke-dasharray="4.5,4.5" stroke-linejoin="round" fill="none" stroke="#000000" d="M74.16064-128.06566C160.30738-128.04877 246.08946-128.15129 331.80067-128.62137 331.67869-104.61396 332.03736-80.81282 331.47959-55.926839 246.16199-55.98597 159.90862-56.493864 74.43779-56.349195 74.06486-80.74808 74.25329-104.832118 74.16064-128.06566Z"/>
<use data-text="+" xlink:href="#font_1_1" transform="matrix(37.185197,0,0,-37.18505,277.6274,53.124895)"/>
<use data-text="G" xlink:href="#font_1_2" transform="matrix(21.519362,0,0,-21.519398,135.64244,48.985368)"/>
<use data-text="1" xlink:href="#font_1_3" transform="matrix(16.438399,0,0,-16.438426,152.1097,53.28633)"/>
<use data-text="(" xlink:href="#font_1_4" transform="matrix(21.519362,0,0,-21.519398,162.35228,48.985368)"/>
<use data-text="s" xlink:href="#font_1_5" transform="matrix(21.519362,0,0,-21.519398,171.8974,48.985368)"/>
<use data-text=")" xlink:href="#font_1_6" transform="matrix(21.519362,0,0,-21.519398,182.88434,48.985368)"/>
<path transform="matrix(1,0,0,-1,291.6669,43.60408)" stroke-width=".75" stroke-linecap="round" stroke-linejoin="round" fill="none" stroke="#000000" d="M-156.5356-24.343214C-156.78009-24.440079-156.64444-25.54611-156.04073-24.484353-138.12712-24.303769-119.6051-25.0436-100.71871-25.292492-85.03306-25.107672-85.12239-24.7982-85.06857-9.499528-86.00828-4.000536-86.16427 4.134172-86.107738 10.902873-85.68746 24.260363-85.07714 24.519656-100.58943 24.743252-118.89418 25.401089-136.77957 24.155709-155.70702 25.814988-170.50287 25.646208-171.44034 24.469014-170.85987 10.20234-171.96376 4.037603-170.86534-4.014722-170.06804-9.77033-170.91368-24.074133-170.95455-25.62885-156.5356-24.343214Z"/>
<path transform="matrix(1,0,0,-1,291.6669,43.60408)" stroke-width=".75" stroke-linecap="round" stroke-linejoin="round" fill="none" stroke="#000000" d="M20.855534 .058054C21.733658 12.337864 12.085622 21.16896-.740082 22.107182-11.744356 21.885777-20.829434 12.49882-21.80217-.943376-21.817696-12.699637-11.491487-21.943476-.543796-22.234927 12.292282-22.30498 21.83104-12.230943 20.855534 .058054Z"/>
<path transform="matrix(1,0,0,-1,291.6669,43.60408)" stroke-width=".75" stroke-linecap="round" stroke-linejoin="round" fill="none" stroke="#000000" d="M-234.83649 .061623C-213.22768 .06459-192.41977 .136091-171.64876-.392507"/>
<path transform="matrix(1,0,0,-1,291.6669,43.60408)" stroke-width=".75" stroke-linecap="round" stroke-linejoin="round" fill="none" stroke="#000000" d="M-184.45618-7.933493C-180.61133-4.415947-176.30609-1.094627-171.04543 .309686-176.71292 1.468281-181.20513 3.945148-184.26183 8.319116"/>
<path transform="matrix(1,0,0,-1,291.6669,43.60408)" stroke-width=".75" stroke-linecap="round" stroke-linejoin="round" fill="none" stroke="#000000" d="M-85.59436 .183334C-64.214328-.0211-42.96133-.415396-22.295498-.381511"/>
<path transform="matrix(1,0,0,-1,291.6669,43.60408)" stroke-width=".75" stroke-linecap="round" stroke-linejoin="round" fill="none" stroke="#000000" d="M-34.323476-8.162312C-31.248335-3.842599-26.625802-1.591605-22.471432 .009927-27.246596 .97613-31.123305 4.371078-34.26955 7.873751"/>
<path transform="matrix(1,0,0,-1,291.6669,43.60408)" stroke-width=".75" stroke-linecap="round" stroke-linejoin="round" fill="none" stroke="#000000" d="M21.63141 .274932C42.523038-.052473 64.35541-.352106 84.64812 .337282"/>
<path transform="matrix(1,0,0,-1,291.6669,43.60408)" stroke-width=".75" stroke-linecap="round" stroke-linejoin="round" fill="none" stroke="#000000" d="M72.19546-8.28257C75.91506-4.388355 79.817478-1.49959 85.17453 .192682 80.43035 1.003088 75.49178 4.420745 71.98597 7.702733"/>
<path transform="matrix(1,0,0,-1,291.6669,43.60408)" stroke-width=".75" stroke-linecap="round" stroke-linejoin="round" fill="none" stroke="#000000" d="M320.52354 .080106C348.68937-.408799 376.9395-.203352 405.45237 .146144"/>
<path transform="matrix(1,0,0,-1,291.6669,43.60408)" stroke-width=".75" stroke-linecap="round" stroke-linejoin="round" fill="none" stroke="#000000" d="M392.39186-8.215105C395.63224-3.698271 400.56764-1.428972 405.32896 .087982 400.84504 1.033855 396.2905 3.722875 392.63859 8.102659"/>
<path transform="matrix(1,0,0,-1,291.6669,43.60408)" stroke-width=".75" stroke-linecap="round" stroke-linejoin="round" fill="none" stroke="#000000" d="M85.429439-92.527629C57.03385-92.26872 28.76816-92.11262 .103995-92.570339 .020157-68.78416 .204119-45.591188-.060821-22.35096"/>
<path transform="matrix(1,0,0,-1,291.6669,43.60408)" stroke-width=".75" stroke-linecap="round" stroke-linejoin="round" fill="none" stroke="#000000" d="M8.345478-34.876138C4.167613-31.709507 1.415577-27.07116-.272919-21.671816-.883324-26.860533-4.18226-31.405222-8.029105-34.419019"/>
<path transform="matrix(1,0,0,-1,291.6669,43.60408)" stroke-width=".75" stroke-linecap="round" stroke-linejoin="round" fill="none" stroke="#000000" d="M362.8463-.440372C363.09324-30.379235 362.66194-61.334646 363.06687-92.53818 348.7265-92.63766 334.82078-92.747989 319.90843-92.32614"/>
<path transform="matrix(1,0,0,-1,291.6669,43.60408)" stroke-width=".75" stroke-linecap="round" stroke-linejoin="round" fill="none" stroke="#000000" d="M332.6972-83.99602C329.28926-88.52257 325.5358-90.80187 320.46894-92.38481 325.38584-93.85667 329.49867-96.75236 332.9527-100.13932"/>
<path transform="matrix(1,0,0,-1,291.6669,43.60408)" stroke-width=".75" stroke-linecap="round" stroke-linejoin="round" fill="none" stroke="#000000" d="M-156.88402-24.776652C-156.30954-25.502774-156.32643-25.678412-155.90032-24.39048-137.4906-24.295174-118.00127-25.154986-99.76613-24.05828-84.57181-25.894726-85.41501-25.472523-86.000537-10.638004-85.39535-4.078854-85.72689 4.174363-85.85929 10.484048-84.935077 25.460705-85.0754 25.297928-101.01393 25.842499-118.06502 24.573166-137.49237 25.106419-155.66031 24.38013-171.14333 25.143225-171.05899 25.23838-170.76474 10.610423-171.79431 3.334302-171.09258-4.11904-170.52634-10.576791-171.07727-24.955372-170.157-25.850367-156.88402-24.776652Z"/>
<path transform="matrix(1,0,0,-1,291.6669,43.60408)" stroke-width=".75" stroke-linecap="round" stroke-linejoin="round" fill="none" stroke="#000000" d="M20.687279-.935132C21.32698 12.193601 12.307724 22.512028-.803103 21.99367-12.268891 21.095103-22.372794 12.173776-22.350487-.902188-21.788672-12.039582-11.700791-21.402924-.234995-22.332928 11.973491-21.868956 21.807795-12.61615 20.687279-.935132Z"/>
<path transform="matrix(1,0,0,-1,291.6669,43.60408)" stroke-width=".75" stroke-linecap="round" stroke-linejoin="round" fill="none" stroke="#000000" d="M-234.61396-.307089C-213.86954 .036403-192.38173 .269049-171.74965 .172073"/>
<path transform="matrix(1,0,0,-1,291.6669,43.60408)" stroke-width=".75" stroke-linecap="round" stroke-linejoin="round" fill="none" stroke="#000000" d="M-184.29073-7.792797C-181.10988-4.214673-176.74417-1.413934-171.40843-.402889-176.29236 1.279981-181.20897 3.850018-183.7799 8.285092"/>
<path transform="matrix(1,0,0,-1,291.6669,43.60408)" stroke-width=".75" stroke-linecap="round" stroke-linejoin="round" fill="none" stroke="#000000" d="M-85.337909 .121156C-64.16734-.412251-43.377744 .379274-21.901516 .305457"/>
<path transform="matrix(1,0,0,-1,291.6669,43.60408)" stroke-width=".75" stroke-linecap="round" stroke-linejoin="round" fill="none" stroke="#000000" d="M-34.354486-8.402648C-31.360735-4.129139-26.789093-1.207832-21.627779 .385591-26.604836 1.373764-31.834004 3.639331-34.247758 8.327708"/>
<path transform="matrix(1,0,0,-1,291.6669,43.60408)" stroke-width=".75" stroke-linecap="round" stroke-linejoin="round" fill="none" stroke="#000000" d="M21.353388-.104259C43.03644-.159788 63.55722-.304501 85.123-.274371"/>
<path transform="matrix(1,0,0,-1,291.6669,43.60408)" stroke-width=".75" stroke-linecap="round" stroke-linejoin="round" fill="none" stroke="#000000" d="M72.414058-8.239921C75.90212-4.233976 80.24142-1.488585 85.076038-.056647 80.4035 .878933 75.24372 4.427292 72.39181 7.729658"/>
<path transform="matrix(1,0,0,-1,291.6669,43.60408)" stroke-width=".75" stroke-linecap="round" stroke-linejoin="round" fill="none" stroke="#000000" d="M320.27284 .32136C348.86225-.434496 376.88429-.058463 405.7509 .155307"/>
<path transform="matrix(1,0,0,-1,291.6669,43.60408)" stroke-width=".75" stroke-linecap="round" stroke-linejoin="round" fill="none" stroke="#000000" d="M392.67933-8.206994C396.19285-3.900446 400.11579-.796322 405.6794-.439581 400.23628 1.298104 395.51945 4.062975 392.3845 7.905363"/>
<path transform="matrix(1,0,0,-1,291.6669,43.60408)" stroke-width=".75" stroke-linecap="round" stroke-linejoin="round" fill="none" stroke="#000000" d="M85.49849-92.42369C56.5121-92.32158 28.256863-92.71132 .063775-92.03879-.433615-68.60735 .025541-45.78391-.332194-22.343302"/>
<path transform="matrix(1,0,0,-1,291.6669,43.60408)" stroke-width=".75" stroke-linecap="round" stroke-linejoin="round" fill="none" stroke="#000000" d="M7.827761-34.684785C4.388134-31.6766 1.18978-26.907996 .254262-21.711985-.988448-27.090989-3.676413-31.22547-7.861396-34.49789"/>
<path transform="matrix(1,0,0,-1,291.6669,43.60408)" stroke-width=".75" stroke-linecap="round" stroke-linejoin="round" fill="none" stroke="#000000" d="M363.2202 .288435C362.904-31.070523 362.47856-61.34445 362.82395-92.590747 348.8644-92.14424 334.23548-92.41615 319.83824-92.48311"/>
<path transform="matrix(1,0,0,-1,291.6669,43.60408)" stroke-width=".75" stroke-linecap="round" stroke-linejoin="round" fill="none" stroke="#000000" d="M332.511-84.50624C329.9957-87.99172 325.61213-91.13599 320.45118-92.10319 324.95527-93.85993 329.59135-96.42719 332.95368-100.80302"/>
<path transform="matrix(1,0,0,-1,291.6669,43.60408)" stroke-width=".75" stroke-linecap="round" stroke-linejoin="round" fill="none" stroke="#000000" d="M-156.79611-24.018408C-155.11379-25.470582-155.87657-25.723225-156.92511-24.319344-136.62345-24.000559-119.5712-24.927052-100.174-24.322129-86.30377-25.652268-85.36332-25.019387-85.09757-8.997123-85.04573-2.775525-84.655498 3.503715-86.10547 9.89221-85.1715 24.350012-84.49136 25.004645-100.44545 24.336504-118.368007 25.169453-136.9573 23.995192-155.59322 24.33345-170.38228 24.700175-170.26859 24.01502-170.37535 9.291498-171.59088 2.700402-171.73479-2.706474-171.77225-9.509269-171.18672-25.771315-170.93814-24.026522-156.79611-24.018408Z"/>
<path transform="matrix(1,0,0,-1,291.6669,43.60408)" stroke-width=".75" stroke-linecap="round" stroke-linejoin="round" fill="none" stroke="#000000" d="M22.582232 .526455C21.36451 12.320804 12.479514 22.155814 .297364 20.870192-12.542006 22.50496-21.727782 12.364416-22.292155-.299848-21.766835-12.92743-11.893279-20.830134-.860669-21.180693 12.596388-21.708992 22.445868-11.686502 22.582232 .526455Z"/>
<path transform="matrix(1,0,0,-1,291.6669,43.60408)" stroke-width=".75" stroke-linecap="round" stroke-linejoin="round" fill="none" stroke="#000000" d="M-234.7421 .258616C-214.09918-.029934-192.71337-.332853-171.64762 .221672"/>
<path transform="matrix(1,0,0,-1,291.6669,43.60408)" stroke-width=".75" stroke-linecap="round" stroke-linejoin="round" fill="none" stroke="#000000" d="M-184.32437-8.181704C-180.55353-3.64929-176.44893-1.562896-171.31948 .266332-176.12242 1.043885-181.27037 3.889273-184.01979 7.898794"/>
<path transform="matrix(1,0,0,-1,291.6669,43.60408)" stroke-width=".75" stroke-linecap="round" stroke-linejoin="round" fill="none" stroke="#000000" d="M-85.02792-.006831C-63.89766-.448853-43.344629-.42828-21.808392-.29159"/>
<path transform="matrix(1,0,0,-1,291.6669,43.60408)" stroke-width=".75" stroke-linecap="round" stroke-linejoin="round" fill="none" stroke="#000000" d="M-34.782426-8.077303C-31.47337-3.955655-27.254183-.810295-22.03733 .3152-27.025197 1.497757-31.337786 4.231275-34.91836 7.912824"/>
<path transform="matrix(1,0,0,-1,291.6669,43.60408)" stroke-width=".75" stroke-linecap="round" stroke-linejoin="round" fill="none" stroke="#000000" d="M21.887444-.238216C42.938264 .446082 64.04324-.122225 84.66161-.103364"/>
<path transform="matrix(1,0,0,-1,291.6669,43.60408)" stroke-width=".75" stroke-linecap="round" stroke-linejoin="round" fill="none" stroke="#000000" d="M72.77049-8.205014C75.35258-4.000774 80.042339-1.351384 84.71715 .292894 79.587619 .829921 75.49051 4.221794 72.05388 8.459553"/>
<path transform="matrix(1,0,0,-1,291.6669,43.60408)" stroke-width=".75" stroke-linecap="round" stroke-linejoin="round" fill="none" stroke="#000000" d="M320.3104-.010158C349.09007 .29447 377.06556 .204937 405.7993 .446377"/>
<path transform="matrix(1,0,0,-1,291.6669,43.60408)" stroke-width=".75" stroke-linecap="round" stroke-linejoin="round" fill="none" stroke="#000000" d="M392.98985-8.006764C395.71717-3.55754 400.7251-1.25361 405.53605-.346681 400.7119 1.122769 396.0989 4.395425 392.5898 7.806098"/>
<path transform="matrix(1,0,0,-1,291.6669,43.60408)" stroke-width=".75" stroke-linecap="round" stroke-linejoin="round" fill="none" stroke="#000000" d="M85.116397-92.00218C56.70099-92.40826 28.824545-92.12358 .25614-92.1325-.442574-69.086589-.34316-45.31288 .328918-21.814446"/>
<path transform="matrix(1,0,0,-1,291.6669,43.60408)" stroke-width=".75" stroke-linecap="round" stroke-linejoin="round" fill="none" stroke="#000000" d="M7.709397-34.23964C3.776358-31.682776 .867289-27.15662-.405636-21.86884-1.40428-27.20011-4.229059-31.651038-7.629986-34.948736"/>
<path transform="matrix(1,0,0,-1,291.6669,43.60408)" stroke-width=".75" stroke-linecap="round" stroke-linejoin="round" fill="none" stroke="#000000" d="M363.24464 .335298C362.57237-30.499695 362.74009-61.734289 362.8184-92.1055 348.4344-92.17284 334.3802-92.12209 319.81745-92.6172"/>
<path transform="matrix(1,0,0,-1,291.6669,43.60408)" stroke-width=".75" stroke-linecap="round" stroke-linejoin="round" fill="none" stroke="#000000" d="M333.29603-84.48359C329.4857-88.09589 325.39173-90.951389 319.93754-92.020587 325.47373-93.308818 329.6346-96.04383 332.4863-100.02836"/>
<path transform="matrix(1,0,0,-1,291.6669,43.60408)" stroke-width=".75" stroke-linecap="round" stroke-linejoin="round" fill="none" stroke="#000000" d="M-155.59406-25.047162C-155.91072-24.440619-155.2428-24.52331-155.13082-24.28107-136.86576-24.72405-118.63786-24.295218-101.054889-24.168379-86.10681-25.026543-84.98-25.409037-86.377338-10.771151-86.28917-3.638904-86.072399 2.481734-84.62894 9.390964-85.53306 25.641325-85.21387 24.119679-100.40895 25.181-119.03966 24.475604-137.57218 25.778222-155.48041 24.618813-171.648 24.768124-170.7986 25.589196-171.24965 9.19646-170.57161 3.736269-171.88773-3.300583-171.73415-10.222574-171.74323-25.817093-170.05564-23.984768-155.59406-25.047162Z"/>
<path transform="matrix(1,0,0,-1,291.6669,43.60408)" stroke-width=".75" stroke-linecap="round" stroke-linejoin="round" fill="none" stroke="#000000" d="M21.99003-.866317C22.543938 12.669908 12.752411 22.543953-.698549 22.24432-11.407611 21.750817-21.294432 11.357284-21.256482-.824393-22.042422-12.702117-12.826919-21.819628-.30516-22.288386 11.44546-22.414944 21.07133-12.25413 21.99003-.866317Z"/>
<path transform="matrix(1,0,0,-1,291.6669,43.60408)" stroke-width=".75" stroke-linecap="round" stroke-linejoin="round" fill="none" stroke="#000000" d="M-234.48777-.069384C-213.53668-.286205-192.86615-.017819-171.60672-.442905"/>
<path transform="matrix(1,0,0,-1,291.6669,43.60408)" stroke-width=".75" stroke-linecap="round" stroke-linejoin="round" fill="none" stroke="#000000" d="M-183.76271-7.717666C-180.6309-4.375948-176.04666-.938859-170.9587 .084484-176.23749 1.40537-181.17438 3.663922-184.31644 8.01288"/>
<path transform="matrix(1,0,0,-1,291.6669,43.60408)" stroke-width=".75" stroke-linecap="round" stroke-linejoin="round" fill="none" stroke="#000000" d="M-85.81891 .225635C-64.15771-.282604-43.133989 .123304-22.465865-.057201"/>
<path transform="matrix(1,0,0,-1,291.6669,43.60408)" stroke-width=".75" stroke-linecap="round" stroke-linejoin="round" fill="none" stroke="#000000" d="M-34.377218-7.641398C-31.911929-4.395649-27.284909-1.520278-21.995715 .311693-27.429116 .968386-31.081002 4.263959-34.72665 7.954646"/>
<path transform="matrix(1,0,0,-1,291.6669,43.60408)" stroke-width=".75" stroke-linecap="round" stroke-linejoin="round" fill="none" stroke="#000000" d="M21.418087 .294964C42.67856-.072453 64.2623-.037624 85.31804-.263965"/>
<path transform="matrix(1,0,0,-1,291.6669,43.60408)" stroke-width=".75" stroke-linecap="round" stroke-linejoin="round" fill="none" stroke="#000000" d="M72.47628-7.717072C76.01845-3.861995 79.85052-.98681 85.22304-.001431 79.86838 1.556568 75.758449 4.410213 72.18641 7.697129"/>
<path transform="matrix(1,0,0,-1,291.6669,43.60408)" stroke-width=".75" stroke-linecap="round" stroke-linejoin="round" fill="none" stroke="#000000" d="M320.48127-.329012C349.12284-.233445 377.2892-.042419 405.78904-.320215"/>
<path transform="matrix(1,0,0,-1,291.6669,43.60408)" stroke-width=".75" stroke-linecap="round" stroke-linejoin="round" fill="none" stroke="#000000" d="M393.07398-8.289185C396.12089-4.172276 400.35704-1.186916 405.2747-.060926 400.01148 .766718 396.32154 4.097516 392.96247 7.879885"/>
<path transform="matrix(1,0,0,-1,291.6669,43.60408)" stroke-width=".75" stroke-linecap="round" stroke-linejoin="round" fill="none" stroke="#000000" d="M85.139919-92.033588C57.11557-92.54593 28.441758-92.63002 .301921-92.61112-.155082-68.73922-.289252-45.597806-.25351-21.798668"/>
<path transform="matrix(1,0,0,-1,291.6669,43.60408)" stroke-width=".75" stroke-linecap="round" stroke-linejoin="round" fill="none" stroke="#000000" d="M8.193696-34.647768C4.317609-31.156628 1.134201-26.882149 .379558-22.404753-.887252-27.18509-3.613713-31.920498-8.100017-34.312623"/>
<path transform="matrix(1,0,0,-1,291.6669,43.60408)" stroke-width=".75" stroke-linecap="round" stroke-linejoin="round" fill="none" stroke="#000000" d="M363.35426 .419598C362.9433-30.568636 363.10108-61.168825 362.85304-92.85276 348.49443-92.098949 334.7196-91.99497 320.27827-92.24468"/>
<path transform="matrix(1,0,0,-1,291.6669,43.60408)" stroke-width=".75" stroke-linecap="round" stroke-linejoin="round" fill="none" stroke="#000000" d="M333.2925-83.90422C329.59669-88.06264 325.05607-91.099437 319.9299-92.074718 324.90827-93.593029 329.29536-96.43568 332.5815-100.85615"/>
<path transform="matrix(1,0,0,-1,291.6669,43.60408)" stroke-width=".75" stroke-linecap="round" stroke-linejoin="round" fill="none" stroke="#000000" d="M-156.98874-25.918179C-155.50536-25.770087-156.36635-24.556977-156.45865-25.21347-137.99687-25.52029-119.42243-25.720664-99.84115-24.15962-86.15884-24.747218-85.64495-24.545859-84.5411-10.509334-85.45799-3.491251-85.297267 3.974411-84.73697 9.009446-84.52025 25.524447-86.12749 25.057049-100.227687 25.016716-119.308368 24.985259-137.00167 25.699648-156.32802 24.653203-170.41791 24.996678-171.60324 24.815154-171.27617 10.500087-171.58795 3.752662-170.63507-2.562358-171.25405-9.097903-170.59111-25.05473-170.20537-25.822747-156.98874-25.918179Z"/>
<path transform="matrix(1,0,0,-1,291.6669,43.60408)" stroke-width=".75" stroke-linecap="round" stroke-linejoin="round" fill="none" stroke="#000000" d="M21.82511-.262994C21.271536 12.245846 11.506128 20.74608-.316494 22.017022-12.897156 21.588078-22.03072 11.470302-20.958359-.297728-20.938315-11.239789-11.675083-21.04641-.80404-22.119057 12.76115-22.067496 22.27218-12.774714 21.82511-.262994Z"/>
<path transform="matrix(1,0,0,-1,291.6669,43.60408)" stroke-width=".75" stroke-linecap="round" stroke-linejoin="round" fill="none" stroke="#000000" d="M-235.04264 .303205C-213.49536-.126412-192.969-.358683-171.68355 .087877"/>
<path transform="matrix(1,0,0,-1,291.6669,43.60408)" stroke-width=".75" stroke-linecap="round" stroke-linejoin="round" fill="none" stroke="#000000" d="M-184.11193-7.611411C-180.89084-4.011918-176.23096-.756288-171.42359 .270861-176.0837 .943161-181.25258 3.84128-183.95464 8.355028"/>
<path transform="matrix(1,0,0,-1,291.6669,43.60408)" stroke-width=".75" stroke-linecap="round" stroke-linejoin="round" fill="none" stroke="#000000" d="M-85.45152-.062218C-64.53108 .2501-42.86042-.102189-21.652512 .397271"/>
<path transform="matrix(1,0,0,-1,291.6669,43.60408)" stroke-width=".75" stroke-linecap="round" stroke-linejoin="round" fill="none" stroke="#000000" d="M-34.636629-8.202083C-31.72427-4.420024-27.155299-1.229215-22.433545-.01197-26.609978 1.432597-31.542895 4.085234-34.30569 8.358226"/>
<path transform="matrix(1,0,0,-1,291.6669,43.60408)" stroke-width=".75" stroke-linecap="round" stroke-linejoin="round" fill="none" stroke="#000000" d="M21.203587-.147922C43.070264 .031582 64.28842 .411064 85.28448-.296764"/>
<path transform="matrix(1,0,0,-1,291.6669,43.60408)" stroke-width=".75" stroke-linecap="round" stroke-linejoin="round" fill="none" stroke="#000000" d="M72.26422-7.886908C75.1564-3.712231 80.05286-1.553209 85.01888-.0112 80.1657 1.379015 75.21376 3.839114 72.718547 7.910099"/>
<path transform="matrix(1,0,0,-1,291.6669,43.60408)" stroke-width=".75" stroke-linecap="round" stroke-linejoin="round" fill="none" stroke="#000000" d="M320.56864 .393238C348.41789-.001753 376.711-.399241 405.84999 .309373"/>
<path transform="matrix(1,0,0,-1,291.6669,43.60408)" stroke-width=".75" stroke-linecap="round" stroke-linejoin="round" fill="none" stroke="#000000" d="M393.00254-7.726749C395.85395-3.652113 400.8148-1.354266 405.61186 .359554 400.87565 .725492 395.67124 4.008012 392.58518 7.760037"/>
<path transform="matrix(1,0,0,-1,291.6669,43.60408)" stroke-width=".75" stroke-linecap="round" stroke-linejoin="round" fill="none" stroke="#000000" d="M85.05213-92.1133C57.147298-92.22182 28.309773-92.00851-.351657-92.349727 .329639-69.06537 .212909-45.07091-.300627-22.435986"/>
<path transform="matrix(1,0,0,-1,291.6669,43.60408)" stroke-width=".75" stroke-linecap="round" stroke-linejoin="round" fill="none" stroke="#000000" d="M8.009115-34.96692C4.086807-31.288443 .715533-26.89094-.409879-22.335623-.926242-26.736348-4.256673-31.458184-8.466478-34.98336"/>
<path transform="matrix(1,0,0,-1,291.6669,43.60408)" stroke-width=".75" stroke-linecap="round" stroke-linejoin="round" fill="none" stroke="#000000" d="M363.3572-.111305C363.23045-30.869757 362.84205-61.221609 362.9295-92.52538 349.0589-92.509769 334.87583-92.24956 320.40928-92.30296"/>
<path transform="matrix(1,0,0,-1,291.6669,43.60408)" stroke-width=".75" stroke-linecap="round" stroke-linejoin="round" fill="none" stroke="#000000" d="M332.68388-84.08577C329.3927-88.78352 325.37834-90.974849 320.26283-92.63928 325.39747-93.84109 329.698-96.14668 332.5586-100.520168"/>
<use data-text="+" xlink:href="#font_1_1" transform="matrix(21.519354,0,0,-21.519316,253.61762,35.861268)"/>
<use data-text="&#x2212;" xlink:href="#font_1_7" transform="matrix(21.519371,0,0,-21.519288,297.8168,74.213489)"/>
<use data-text="U" xlink:href="#font_1_8" transform="matrix(21.519457,0,0,-21.519398,6.8143007,48.985368)"/>
<use data-text="(" xlink:href="#font_1_4" transform="matrix(21.519457,0,0,-21.519398,23.470364,48.985368)"/>
<use data-text="s" xlink:href="#font_1_5" transform="matrix(21.519457,0,0,-21.519398,33.015535,48.985368)"/>
<use data-text=")" xlink:href="#font_1_6" transform="matrix(21.519457,0,0,-21.519398,44.00251,48.985368)"/>
<use data-text="Y" xlink:href="#font_1_9" transform="matrix(21.519246,0,0,-21.519398,701.60629,48.985368)"/>
<use data-text="(" xlink:href="#font_1_4" transform="matrix(21.519246,0,0,-21.519398,714.75497,48.985368)"/>
<use data-text="s" xlink:href="#font_1_5" transform="matrix(21.519246,0,0,-21.519398,724.3,48.985368)"/>
<use data-text=")" xlink:href="#font_1_6" transform="matrix(21.519246,0,0,-21.519398,735.2868,48.985368)"/>
<use data-text="G" xlink:href="#font_1_2" transform="matrix(21.519362,0,0,-21.519398,392.09306,48.985368)"/>
<use data-text="2" xlink:href="#font_1_10" transform="matrix(16.438399,0,0,-16.438426,408.56028,53.220567)"/>
<use data-text="(" xlink:href="#font_1_4" transform="matrix(21.519362,0,0,-21.519398,418.80296,48.985368)"/>
<use data-text="s" xlink:href="#font_1_5" transform="matrix(21.519362,0,0,-21.519398,428.34806,48.985368)"/>
<use data-text=")" xlink:href="#font_1_6" transform="matrix(21.519362,0,0,-21.519398,439.335,48.985368)"/>
<use data-text="G" xlink:href="#font_1_2" transform="matrix(21.519362,0,0,-21.519398,541.4698,48.985368)"/>
<use data-text="3" xlink:href="#font_1_11" transform="matrix(16.438399,0,0,-16.438426,557.937,53.121934)"/>
<use data-text="(" xlink:href="#font_1_4" transform="matrix(21.519362,0,0,-21.519398,568.1796,48.985368)"/>
<use data-text="s" xlink:href="#font_1_5" transform="matrix(21.519362,0,0,-21.519398,577.72476,48.985368)"/>
<use data-text=")" xlink:href="#font_1_6" transform="matrix(21.519362,0,0,-21.519398,588.7117,48.985368)"/>
<use data-text="H" xlink:href="#font_1_12" transform="matrix(21.51913,0,0,-21.519398,541.27609,141.39374)"/>
<use data-text="1" xlink:href="#font_1_3" transform="matrix(16.438221,0,0,-16.438426,558.1306,145.6947)"/>
<use data-text="(" xlink:href="#font_1_4" transform="matrix(21.51913,0,0,-21.519398,568.37307,141.39374)"/>
<use data-text="s" xlink:href="#font_1_5" transform="matrix(21.51913,0,0,-21.519398,577.9181,141.39374)"/>
<use data-text=")" xlink:href="#font_1_6" transform="matrix(21.51913,0,0,-21.519398,588.9049,141.39374)"/>
<use data-text="H" xlink:href="#font_1_12" transform="matrix(21.51913,0,0,-21.519398,391.89933,141.39374)"/>
<use data-text="2" xlink:href="#font_1_10" transform="matrix(16.438221,0,0,-16.438426,408.7538,145.62894)"/>
<use data-text="(" xlink:href="#font_1_4" transform="matrix(21.51913,0,0,-21.519398,418.9963,141.39374)"/>
<use data-text="s" xlink:href="#font_1_5" transform="matrix(21.51913,0,0,-21.519398,428.54136,141.39374)"/>
<use data-text=")" xlink:href="#font_1_6" transform="matrix(21.51913,0,0,-21.519398,439.52824,141.39374)"/>
<path transform="matrix(1,0,0,-1,291.6669,43.604089)" stroke-width=".75" stroke-linecap="round" stroke-linejoin="round" fill="none" stroke="#000000" d="M101.14345-25.130173C100.2828-24.4876 100.42936-25.01709 100.94365-24.430842 118.14675-25.087422 137.17084-24.522477 156.26514-25.405329 170.9291-25.483815 170.15972-24.996258 171.38787-9.49734 171.54358-4.127935 170.74594 3.983019 170.72303 9.237501 171.03853 25.51943 170.78168 25.672762 156.29257 24.107144 136.6693 24.454499 118.12611 24.469912 100.54675 24.938206 86.23732 24.16299 85.33155 24.214467 84.888889 10.463431 85.68415 4.236303 86.267749-3.876155 84.520618-9.948044 84.55343-24.27067 84.7397-24.991507 101.14345-25.130173Z"/>
<path transform="matrix(1,0,0,-1,291.6669,43.604089)" stroke-width=".75" stroke-linecap="round" stroke-linejoin="round" fill="none" stroke="#000000" d="M249.99675-24.648976C249.38694-25.854044 249.32173-25.021588 250.55622-25.269478 267.8485-24.911658 287.7622-24.319745 306.08345-24.856999 321.24043-24.791844 320.19587-25.155926 319.60078-9.466475 320.1606-4.018306 321.11067 3.993125 320.22834 9.016618 321.20646 25.82367 320.12388 24.13905 304.64378 24.551968 287.13896 25.754422 268.6416 24.391585 249.65293 24.8332 234.02939 25.64889 235.7241 25.001324 235.29387 9.982837 235.24532 4.153021 234.53012-2.64674 233.86843-8.97731 235.76479-24.105082 235.6729-24.24879 249.99675-24.648976Z"/>
<path transform="matrix(1,0,0,-1,291.6669,43.604089)" stroke-width=".75" stroke-linecap="round" stroke-linejoin="round" fill="none" stroke="#000000" d="M249.97304-117.29709C249.60062-116.586078 249.6493-116.38371 249.78597-116.54682 267.91627-118.06202 287.7932-117.48631 305.29978-116.59175 319.95826-116.88235 320.4168-116.80307 320.71134-102.340839 320.31364-95.97887 320.8101-89.53347 320.75779-82.97009 320.0129-67.31333 321.01853-67.562709 304.91163-66.86646 286.77976-67.88601 268.92524-66.95153 249.37204-68.34069 235.12201-67.17741 234.44011-68.04812 234.40822-82.38429 235.49301-89.328189 234.91704-95.102687 234.02854-102.77321 234.83925-117.58345 234.864-117.293148 249.97304-117.29709Z"/>
<path transform="matrix(1,0,0,-1,291.6669,43.604089)" stroke-width=".75" stroke-linecap="round" stroke-linejoin="round" fill="none" stroke="#000000" d="M100.09557-117.881427C100.54592-117.951328 100.43174-117.17051 100.82745-116.385288 119.21377-116.97139 137.27648-117.27041 156.82534-117.282878 171.22748-118.16678 171.54778-116.72757 170.84378-101.38946 171.79799-95.6774 172.0991-89.60446 172.02487-82.80415 172.11008-67.718929 171.64258-68.027828 156.25299-68.08397 137.99452-67.97289 119.43813-66.74725 100.796077-67.8952 85.29835-67.14121 85.50405-67.71199 85.92257-82.62952 84.67021-89.50079 85.1419-96.3854 85.73015-102.28929 85.321208-118.20202 85.597568-117.68205 100.09557-117.881427Z"/>
<path transform="matrix(1,0,0,-1,291.6669,43.604089)" stroke-width=".75" stroke-linecap="round" stroke-linejoin="round" fill="none" stroke="#000000" d="M171.0262 .090355C192.58054-.395161 213.55812 .334349 234.82953-.237908"/>
<path transform="matrix(1,0,0,-1,291.6669,43.604089)" stroke-width=".75" stroke-linecap="round" stroke-linejoin="round" fill="none" stroke="#000000" d="M221.53319-7.640769C224.65644-3.969117 229.59645-.909258 234.00131-.192469 229.80069 .98757 225.36145 3.941178 221.66458 8.080468"/>
<path transform="matrix(1,0,0,-1,291.6669,43.604089)" stroke-width=".75" stroke-linecap="round" stroke-linejoin="round" fill="none" stroke="#000000" d="M234.2908-92.16995C213.68572-92.7042 193.0212-92.195079 171.706-92.68937"/>
<path transform="matrix(1,0,0,-1,291.6669,43.604089)" stroke-width=".75" stroke-linecap="round" stroke-linejoin="round" fill="none" stroke="#000000" d="M183.81085-84.049518C180.71926-88.41209 176.25414-90.99987 171.68907-92.46069 176.27982-93.52077 180.75133-96.30949 184.55339-100.218738"/>
<path transform="matrix(1,0,0,-1,291.6669,43.604089)" stroke-width=".75" stroke-linecap="round" stroke-linejoin="round" fill="none" stroke="#000000" d="M101.01286-25.015479C100.08548-24.077925 101.16149-24.672675 99.60527-24.31983 119.72209-25.106385 137.24259-24.71668 155.67386-25.60658 170.6252-25.31742 170.11788-25.692656 170.83988-9.808277 171.09627-3.46984 171.56826 3.960709 170.53151 10.404564 170.81319 24.382603 170.66127 24.886685 156.75959 25.777434 137.10894 24.08395 117.992679 25.02093 99.89495 24.126233 86.087078 24.332253 85.60023 25.222319 86.00964 10.866977 85.43179 3.602187 86.199848-3.085001 86.11744-9.692177 85.06191-24.612666 86.19489-25.59884 101.01286-25.015479Z"/>
<path transform="matrix(1,0,0,-1,291.6669,43.604089)" stroke-width=".75" stroke-linecap="round" stroke-linejoin="round" fill="none" stroke="#000000" d="M248.92093-24.408585C248.92263-25.127528 250.73738-24.116166 250.21164-24.624354 267.88648-25.780385 287.0076-25.548235 306.12919-24.760212 321.10426-24.384104 320.06224-25.319457 319.87547-10.48164 320.67988-3.557692 320.85798 3.741278 319.8154 9.565667 319.65437 24.277865 319.93598 25.369929 306.20585 25.859356 287.58906 24.98281 268.96537 24.557339 250.0829 25.158482 234.94945 25.63986 233.9588 25.066126 235.44315 10.142758 234.11658 3.352166 235.76299-3.661188 234.79422-10.644711 234.91619-24.33055 233.84784-24.546353 248.92093-24.408585Z"/>
<path transform="matrix(1,0,0,-1,291.6669,43.604089)" stroke-width=".75" stroke-linecap="round" stroke-linejoin="round" fill="none" stroke="#000000" d="M250.36098-117.77022C249.80356-118.182849 250.07823-117.81896 249.83795-116.433917 268.78144-117.021129 287.6582-117.64963 304.8704-116.8362 320.79487-116.54611 321.31025-117.20013 321.4848-101.714557 320.75828-95.73368 320.02888-89.03094 320.68247-82.88433 320.62007-68.12612 319.81159-67.36274 305.12324-67.95391 287.1768-66.61966 269.24617-67.39924 250.07245-67.48026 234.86672-66.7564 234.974-66.959049 235.55124-82.09732 233.71205-89.74547 234.33705-96.05528 234.20886-101.99463 235.31644-116.49639 233.7835-116.84004 250.36098-117.77022Z"/>
<path transform="matrix(1,0,0,-1,291.6669,43.604089)" stroke-width=".75" stroke-linecap="round" stroke-linejoin="round" fill="none" stroke="#000000" d="M100.60103-118.2769C99.314998-117.53254 101.1291-118.281948 100.66702-117.465488 119.54429-117.2505 137.75644-117.47017 157.15976-117.81305 171.7377-116.409618 172.0272-117.404209 170.83177-101.40343 171.29196-95.93177 170.4279-89.28729 172.00444-82.55554 170.63738-67.51415 171.99967-66.91627 156.93595-67.616977 136.7198-68.31761 119.03315-67.448009 100.07213-67.90561 85.839908-66.576869 86.11611-66.84963 85.07455-83.10895 85.91644-89.2881 85.65823-95.27759 85.05854-103.1088 86.20613-116.958438 84.3202-117.874469 100.60103-118.2769Z"/>
<path transform="matrix(1,0,0,-1,291.6669,43.604089)" stroke-width=".75" stroke-linecap="round" stroke-linejoin="round" fill="none" stroke="#000000" d="M171.42395-.132156C192.38968-.089477 213.09706 .144782 234.09044 .224609"/>
<path transform="matrix(1,0,0,-1,291.6669,43.604089)" stroke-width=".75" stroke-linecap="round" stroke-linejoin="round" fill="none" stroke="#000000" d="M221.91547-7.977532C224.54003-4.025117 229.7054-1.122552 234.85915-.069484 229.81763 .745519 224.8189 3.73326 221.86775 7.803556"/>
<path transform="matrix(1,0,0,-1,291.6669,43.604089)" stroke-width=".75" stroke-linecap="round" stroke-linejoin="round" fill="none" stroke="#000000" d="M234.89524-92.0525C213.2127-92.59744 192.48827-92.11161 171.29744-92.54887"/>
<path transform="matrix(1,0,0,-1,291.6669,43.604089)" stroke-width=".75" stroke-linecap="round" stroke-linejoin="round" fill="none" stroke="#000000" d="M184.15503-84.03334C181.39345-88.18528 176.75682-91.69758 171.6343-92.32481 176.27834-93.896129 181.18296-96.55448 184.5955-100.76741"/>
<path transform="matrix(1,0,0,-1,291.6669,43.604089)" stroke-width=".75" stroke-linecap="round" stroke-linejoin="round" fill="none" stroke="#000000" d="M99.53913-24.112586C101.085079-25.14162 101.14452-25.116429 101.17972-25.683203 119.50451-25.142769 137.11318-24.650036 155.10837-24.983208 171.67922-25.677426 170.4916-25.47761 171.11389-10.684537 171.02256-3.462194 171.33866 4.162847 171.35112 10.039498 170.52031 25.27496 171.67902 24.912798 156.44876 25.055209 137.54846 24.390036 118.063449 24.827342 99.457218 24.754843 84.76312 24.644858 85.1343 24.906582 86.077129 9.105507 85.4178 4.040494 85.63925-3.462023 85.540348-10.508774 85.47971-24.46084 84.461238-24.807045 99.53913-24.112586Z"/>
<path transform="matrix(1,0,0,-1,291.6669,43.604089)" stroke-width=".75" stroke-linecap="round" stroke-linejoin="round" fill="none" stroke="#000000" d="M249.23113-25.683798C250.25981-25.032303 249.73624-25.117707 250.03304-24.344403 268.10874-25.647664 287.38243-24.78844 304.83839-24.794243 320.02714-25.661234 320.97996-24.884129 319.56825-9.334945 320.74385-3.490556 320.02543 2.942004 320.08345 9.695463 320.65373 25.01246 319.999 25.52651 304.54664 25.104025 286.28929 24.275876 268.5267 24.000075 250.72702 25.508944 234.26557 24.69767 234.7364 25.600615 235.37087 9.711362 234.00444 3.601526 234.06342-2.830993 235.04572-9.0238 234.54433-25.42676 233.85352-24.38546 249.23113-25.683798Z"/>
<path transform="matrix(1,0,0,-1,291.6669,43.604089)" stroke-width=".75" stroke-linecap="round" stroke-linejoin="round" fill="none" stroke="#000000" d="M250.37325-117.58304C250.35726-117.84192 250.37044-117.72519 249.63733-117.76818 267.3487-117.241809 287.4776-118.31832 306.24577-118.06986 320.14659-117.22927 321.27223-117.5912 321.04417-101.96911 319.69175-95.52136 320.04447-90.06063 319.76097-82.58417 320.59217-67.60696 321.01194-66.91829 306.53736-67.78638 286.12306-67.76577 268.36338-67.56345 249.2623-67.604999 233.68647-67.84216 234.70017-66.74485 234.76619-81.91522 233.78188-88.81277 234.20616-94.77645 233.66263-102.24226 235.3333-117.8752 234.69342-116.88808 250.37325-117.58304Z"/>
<path transform="matrix(1,0,0,-1,291.6669,43.604089)" stroke-width=".75" stroke-linecap="round" stroke-linejoin="round" fill="none" stroke="#000000" d="M99.69418-116.86216C100.42263-118.28665 99.95494-116.979518 100.25574-118.08291 118.297359-116.803028 137.50513-117.73204 155.50684-117.40692 170.25002-116.64305 171.09095-117.79774 171.29848-103.045719 170.63742-96.26076 170.69263-88.33581 170.48407-83.32666 171.77899-67.03891 171.4897-67.50735 155.93819-67.34348 138.48758-67.1178 119.55292-67.918338 100.45273-68.125629 85.46372-68.32736 85.23915-67.82737 85.30988-81.779819 84.73584-88.47608 84.634899-95.69993 86.11713-103.04413 84.39458-117.683048 86.136058-117.89455 99.69418-116.86216Z"/>
<path transform="matrix(1,0,0,-1,291.6669,43.604089)" stroke-width=".75" stroke-linecap="round" stroke-linejoin="round" fill="none" stroke="#000000" d="M170.63648-.23221C192.59503 .353769 212.88845 .209614 234.2133 .157961"/>
<path transform="matrix(1,0,0,-1,291.6669,43.604089)" stroke-width=".75" stroke-linecap="round" stroke-linejoin="round" fill="none" stroke="#000000" d="M222.18772-7.783661C224.72299-4.451075 229.79-1.213798 234.61103 .140144 229.34882 1.560653 225.27408 4.053116 221.56758 7.635306"/>
<path transform="matrix(1,0,0,-1,291.6669,43.604089)" stroke-width=".75" stroke-linecap="round" stroke-linejoin="round" fill="none" stroke="#000000" d="M235.02846-92.10236C213.94535-92.79427 192.40595-92.581 172.00609-92.320629"/>
<path transform="matrix(1,0,0,-1,291.6669,43.604089)" stroke-width=".75" stroke-linecap="round" stroke-linejoin="round" fill="none" stroke="#000000" d="M184.57212-84.12649C181.33226-88.32727 176.4064-91.081508 171.81993-92.453388 177.04959-93.73406 181.33618-96.41092 183.81848-100.63709"/>
<path transform="matrix(1,0,0,-1,291.6669,43.604089)" stroke-width=".75" stroke-linecap="round" stroke-linejoin="round" fill="none" stroke="#000000" d="M101.2761-24.995139C99.59539-24.721833 100.2203-25.09108 100.57827-25.33201 118.346569-25.343628 137.11808-24.449282 155.72217-24.523648 170.98543-24.07661 170.49417-24.193106 171.43618-10.511273 170.33997-3.285557 171.89777 3.110218 171.47435 10.856846 170.64395 24.345259 170.77602 24.207219 155.8412 24.969182 137.40683 25.701952 119.77489 25.47745 100.13925 24.958394 86.04029 25.602673 84.871189 25.459 86.13035 10.564281 85.134258 3.223509 84.868038-3.497938 86.10764-9.170408 84.55548-24.559182 85.5315-25.88461 101.2761-24.995139Z"/>
<path transform="matrix(1,0,0,-1,291.6669,43.604089)" stroke-width=".75" stroke-linecap="round" stroke-linejoin="round" fill="none" stroke="#000000" d="M248.97974-24.412875C250.60297-25.80853 249.79814-25.148987 249.87667-24.616492 268.33979-24.187153 287.523-25.72154 304.4945-24.33537 320.56193-25.128029 320.58833-25.546586 320.5974-10.123653 319.67445-2.533053 320.43043 3.521726 320.99015 9.884574 321.17073 23.998198 321.2678 25.051609 306.19377 25.282975 285.93666 25.160723 268.2478 24.994902 250.1642 25.360747 235.11263 24.04854 235.70378 25.845124 235.05565 10.304514 235.66004 4.247631 234.42629-2.360484 235.44873-8.970542 234.36923-25.71784 233.98363-24.543118 248.97974-24.412875Z"/>
<path transform="matrix(1,0,0,-1,291.6669,43.604089)" stroke-width=".75" stroke-linecap="round" stroke-linejoin="round" fill="none" stroke="#000000" d="M249.67919-117.16073C250.1611-117.95101 250.26042-118.26532 250.44022-117.824298 268.03266-116.67465 286.66368-118.183689 305.51704-117.0473 320.89424-118.14648 320.19517-116.449748 320.9696-103.02824 320.30213-95.112728 320.60737-88.69382 321.37086-83.33333 319.80528-66.72313 320.4901-66.63744 305.27259-66.84932 287.5666-66.708377 268.77583-67.76194 250.32607-66.73858 235.19866-67.97345 234.76526-66.77018 234.64519-83.0834 233.98523-89.09111 234.14542-95.76654 235.45183-102.31021 234.60405-116.884609 234.03507-118.22166 249.67919-117.16073Z"/>
<path transform="matrix(1,0,0,-1,291.6669,43.604089)" stroke-width=".75" stroke-linecap="round" stroke-linejoin="round" fill="none" stroke="#000000" d="M100.89044-116.51298C99.86777-116.854457 100.18957-117.86373 99.78446-117.41658 117.956249-117.68621 136.89037-117.922229 155.58043-116.75923 171.70363-117.118198 171.38574-117.4796 171.102-103.27845 172.00151-95.94566 171.20116-88.884738 170.75756-83.03437 170.71195-66.98183 171.22588-66.74641 156.60149-68.0915 137.92969-68.368618 118.58896-66.81047 100.18424-68.16452 84.53-66.52921 85.45709-67.44735 84.948719-82.32611 85.941249-88.19386 84.43811-95.418338 85.46113-101.50131 84.55407-118.08939 85.0634-117.16638 100.89044-116.51298Z"/>
<path transform="matrix(1,0,0,-1,291.6669,43.604089)" stroke-width=".75" stroke-linecap="round" stroke-linejoin="round" fill="none" stroke="#000000" d="M170.84854 .204394C192.13817 .297373 213.25267 .233518 234.436-.166073"/>
<path transform="matrix(1,0,0,-1,291.6669,43.604089)" stroke-width=".75" stroke-linecap="round" stroke-linejoin="round" fill="none" stroke="#000000" d="M221.50865-8.170698C224.71326-3.782741 229.25193-.997837 233.98865-.072501 229.54444 1.583838 225.0632 4.343457 222.1854 8.291399"/>
<path transform="matrix(1,0,0,-1,291.6669,43.604089)" stroke-width=".75" stroke-linecap="round" stroke-linejoin="round" fill="none" stroke="#000000" d="M234.9002-92.16917C214.03258-92.39637 193.02829-92.44329 171.68444-92.263469"/>
<path transform="matrix(1,0,0,-1,291.6669,43.604089)" stroke-width=".75" stroke-linecap="round" stroke-linejoin="round" fill="none" stroke="#000000" d="M183.80008-84.41537C180.65935-88.64133 176.51377-90.98612 171.77854-92.17819 176.85135-93.74921 180.9244-95.99033 183.9945-100.57999"/>
<path transform="matrix(1,0,0,-1,291.6669,43.604089)" stroke-width=".75" stroke-linecap="round" stroke-linejoin="round" fill="none" stroke="#000000" d="M100.58774-25.538449C100.03972-25.537377 101.02154-24.21478 99.54599-24.708092 118.175098-25.098685 138.40993-25.44228 156.04256-24.910325 170.28388-24.587105 171.18482-24.482962 171.01956-10.816021 170.40122-2.95481 171.86795 3.868238 170.56562 9.397253 170.57524 25.423676 170.52756 25.071116 155.51343 25.624085 136.80843 24.731442 118.83623 25.333718 100.597568 25.001446 85.06121 24.111617 85.128368 24.479079 84.79165 9.310214 84.73698 3.161439 85.873538-2.969616 84.534259-9.575066 85.27391-25.290188 84.562259-24.134734 100.58774-25.538449Z"/>
<path transform="matrix(1,0,0,-1,291.6669,43.604089)" stroke-width=".75" stroke-linecap="round" stroke-linejoin="round" fill="none" stroke="#000000" d="M250.73601-24.547337C250.65404-24.091467 250.1004-25.757084 249.4197-24.088829 268.83006-25.335505 286.98365-24.115399 305.4274-25.136462 320.73924-24.620322 319.76106-24.983609 321.23515-10.736216 320.7618-3.321977 319.76023 2.973916 320.81086 10.664493 319.7162 24.24648 320.63957 25.184557 304.71327 24.907752 286.51567 25.87555 269.18379 24.589884 249.69858 24.004261 234.3203 24.726206 234.50054 25.262152 235.19641 9.1399 234.29407 2.357561 233.9896-3.743449 234.8272-9.661171 235.39023-24.170077 234.11463-24.100544 250.73601-24.547337Z"/>
<path transform="matrix(1,0,0,-1,291.6669,43.604089)" stroke-width=".75" stroke-linecap="round" stroke-linejoin="round" fill="none" stroke="#000000" d="M250.29065-116.391887C249.64354-117.69229 248.83069-117.41469 248.83213-117.15335 267.6898-117.6945 287.3112-117.409809 305.95158-117.94288 321.37797-117.22259 320.32826-117.22823 320.41233-102.76876 320.28569-96.59219 321.54219-88.6751 321.25663-81.65968 321.54823-68.06487 320.01689-66.69436 305.06739-67.612979 286.9167-67.12148 268.33003-68.085308 249.33753-68.39307 235.55448-66.890727 234.32976-66.67648 233.95922-82.315479 234.8929-88.14498 234.25748-95.14763 235.2983-103.04026 235.17606-118.287189 233.74866-117.24924 250.29065-116.391887Z"/>
<path transform="matrix(1,0,0,-1,291.6669,43.604089)" stroke-width=".75" stroke-linecap="round" stroke-linejoin="round" fill="none" stroke="#000000" d="M100.49392-117.37196C100.31163-118.03811 99.47446-117.40137 99.81789-117.985149 119.28495-117.6382 137.29608-117.47721 155.48313-117.944599 170.55535-117.58022 170.39644-117.17358 170.47345-102.08467 171.93968-96.13998 171.9535-88.33409 171.20285-82.37656 170.88353-68.09563 170.29859-67.3743 156.1655-67.97243 137.81108-66.839389 118.80442-67.642719 99.53292-66.99721 85.97236-66.64324 85.97167-67.852619 84.8993-81.5473 84.85361-88.450069 85.88559-95.31542 85.68902-101.77956 86.15564-118.11995 85.4967-116.58354 100.49392-117.37196Z"/>
<path transform="matrix(1,0,0,-1,291.6669,43.604089)" stroke-width=".75" stroke-linecap="round" stroke-linejoin="round" fill="none" stroke="#000000" d="M170.70693-.331808C191.91313-.278563 212.99832 .112135 234.25899 .300071"/>
<path transform="matrix(1,0,0,-1,291.6669,43.604089)" stroke-width=".75" stroke-linecap="round" stroke-linejoin="round" fill="none" stroke="#000000" d="M221.35495-7.846786C225.06574-3.945976 229.05759-.917572 234.64527 .250877 229.39598 .860474 224.97747 3.562751 221.86115 8.127841"/>
<path transform="matrix(1,0,0,-1,291.6669,43.604089)" stroke-width=".75" stroke-linecap="round" stroke-linejoin="round" fill="none" stroke="#000000" d="M234.90155-92.409458C213.8943-92.11672 192.74607-92.745288 171.75408-92.27958"/>
<path transform="matrix(1,0,0,-1,291.6669,43.604089)" stroke-width=".75" stroke-linecap="round" stroke-linejoin="round" fill="none" stroke="#000000" d="M183.85239-84.60955C181.49932-88.30061 176.41527-91.289798 171.92967-92.650768 176.84214-93.94923 181.34787-96.04184 184.24704-100.2074"/>
</svg>
