<svg xmlns="http://www.w3.org/2000/svg" xmlns:xlink="http://www.w3.org/1999/xlink" version="1.1" width="1135.2621" height="354.4767" viewBox="0 0 1135.2621 354.4767">
<defs>
<path id="font_12_1" d="M.04598999 .23632813H.35598756V-.07368469L.3959961-.06668091V.23632813H.70399478L.70899966 .2763214H.3959961V.58631899L.35598756 .58032229V.2763214H.052993776L.04598999 .23632813Z"/>
<path id="font_12_2" d="M.08999634 .32458497C.08999634 .22958374 .114990238 .13148499 .18299866 .06341553 .23699951 .009384155 .31199647-.016601563 .3880005-.016601563 .46099855-.016601563 .56900027 .010391235 .6569977 .03338623 .6569977 .03338623 .6539917 .216568 .6519928 .30760194L.37599183 .2966156V.27061463L.38198854 .265625C.43598939 .26361085 .5 .25961305 .5439911 .25660707 .57199099 .25460816 .57199099 .22257996 .57199099 .13449097 .57199099 .061416627 .56900027 .04940796 .5519867 .045394899 .5209961 .038391115 .48999024 .03538513 .45799256 .03538513 .37998963 .03538513 .30599977 .060409547 .2619934 .112472537 .20399475 .18052674 .17999268 .25260926 .17999268 .3405609 .17999268 .48339845 .23199463 .5653076 .26098634 .5942688 .3039856 .63623049 .36299134 .6502075 .42199708 .6502075 .5529938 .6502075 .59298709 .5563202 .60598757 .53034976L.6179962 .5293579 .6759949 .58628848C.6649933 .6032715 .6119995 .69921877 .46699525 .69921877 .3619995 .69921877 .25698854 .6682129 .18199158 .593277 .11199951 .5233612 .08999634 .4224701 .08999634 .32458497Z"/>
<path id="font_12_11" d="M.050994874 .049362184 .05899048 .038375856C.10998535 .0033874512 .17098999-.016601563 .23599243-.016601563 .31799317-.016601563 .397995 .008392334 .45700074 .05935669 .5039978 .10131836 .5349884 .15626526 .5349884 .21520996 .5349884 .25416566 .519989 .2911377 .48999024 .31811524 .46899415 .3360901 .44198609 .34709168 .41600038 .35508729 .3789978 .36608888 .34199525 .37109376 .30299378 .37408448V.38209535C.34999085 .39408876 .3939972 .41609193 .42900086 .44610597 .46499635 .47810365 .48199464 .52311709 .48199464 .5681305 .48199464 .60414126 .46798707 .6401367 .43899537 .6651459 .40699769 .6941376 .36099244 .70214846 .31698609 .70214846 .2849884 .70214846 .25498963 .69114688 .22599793 .67814639 .18598938 .6591339 .14698792 .63414 .11199951 .60813906L.12799073 .58613589C.1539917 .60113528 .17999268 .6151428 .20799256 .6261444 .22799683 .6331482 .24699402 .6391449 .2659912 .6391449 .2999878 .6391449 .33299256 .6321411 .35598756 .61112979 .37799073 .59213259 .3889923 .5671234 .3889923 .54011538 .3889923 .502121 .37199403 .46510316 .34098817 .43710328 .32299806 .4210968 .29899598 .40908814 .27398683 .39909364 .24198914 .38609315 .20698548 .37808229 .17298889 .37109376L.17199707 .34509278C.21398926 .34509278 .2559967 .34309388 .29699708 .3340912 .32499696 .32809449 .35299684 .31910707 .37298585 .30012513 .4059906 .26914979 .42900086 .22920227 .42900086 .18623352 .42900086 .14128113 .41299439 .095321658 .3769989 .06335449 .34599305 .036376954 .30599977 .023391724 .2639923 .023391724 .22299195 .023391724 .18499756 .041366579 .1559906 .067352298 .13798523 .08332825 .12399292 .10131836 .10998535 .121292117H.09899902L.050994874 .049362184Z"/>
<path id="font_12_4" d="M.11299133 .24990845C.11299133 .007904053 .1519928-.09008789 .18299866-.13310242 .21099854-.17008972 .25299073-.20809937 .30099488-.21209717V-.1880951C.2809906-.18409729 .25099183-.16809082 .23399353-.1481018 .21998596-.13209534 .16499329-.05809021 .16499329 .24990845 .16499329 .4618988 .19799805 .5659027 .21998596 .6128998 .23599243 .6469116 .2689972 .6769104 .30099488 .684906V.71191409C.2599945 .7049103 .21598816 .6729126 .19099427 .63790896 .1599884 .5919037 .11299133 .4748993 .11299133 .24990845Z"/>
<path id="font_12_5" d="M.051986696 .06642151C.06199646 .047409059 .07598877 .030395508 .09199524 .01638794 .12098694-.009613037 .16099549-.016601563 .19898987-.016601563 .2559967-.016601563 .31199647 .0023956299 .35099793 .044403078 .375 .06941223 .3869934 .10343933 .3869934 .13845825 .3869934 .1634674 .37298585 .18649292 .35499574 .20449829 .34098817 .21850586 .3039856 .24052429 .27198792 .25453187 .24299622 .26654054 .19999695 .2885437 .18798828 .30055238 .17298889 .31655885 .1619873 .3285675 .1619873 .35058595 .1619873 .3725891 .16899109 .39360047 .18499756 .4086151 .19999695 .42362977 .22200012 .43164063 .24398804 .43164063 .2639923 .43164063 .2849884 .42462159 .29599 .4066162 .30599977 .39060975 .30799867 .3715973 .30899049 .35359193L.32099916 .34657289 .37599183 .38360597C.375 .40560914 .3639984 .42662049 .34799195 .44163514 .32499696 .46263124 .29299928 .46662904 .2630005 .46662904 .21398926 .46662904 .16699219 .45063783 .1309967 .4176178 .10398865 .39360047 .08999634 .35858155 .08999634 .32356263 .08999634 .29154969 .10798645 .26353456 .1309967 .2425232 .1539917 .22250366 .18399048 .2084961 .21499634 .1954956 .24099732 .18447876 .2689972 .17248535 .28799439 .1534729 .30299378 .13845825 .31399537 .11845398 .31399537 .09744263 .31399537 .079422 .30499269 .062408449 .29299928 .04940796 .27799989 .03340149 .25099183 .021392823 .22898865 .021392823 .19898987 .021392823 .17199707 .03439331 .1499939 .055404664 .1269989 .076416019 .116989139 .10644531 .114990238 .13645935L.100997928 .13745117 .051986696 .06642151Z"/>
<path id="font_12_6" d="M.085998538-.1880951V-.21209717C.13398743-.20610047 .1789856-.17208863 .20698548-.13510132 .23799134-.09210205 .27598573 .007904053 .27598573 .24990845 .27598573 .50090029 .22399903 .5919037 .19299317 .63790896 .16799927 .6729126 .1269989 .7049103 .085998538 .71191409V.684906C.117996219 .6759033 .14898682 .6469116 .16499329 .6128998 .18699646 .5659027 .22399903 .48190309 .22399903 .24990845 .22399903-.099090579 .17199707-.13209534 .1579895-.1481018 .14099121-.16809082 .10598755-.18409729 .085998538-.1880951Z"/>
<path id="font_12_14" d="M.02999878 .19134522H.34999085L.35899354 .18232727C.35899354 .119262699 .35899354 .03616333 .35299684 .0011138916L.35899354-.0048828127 .44898988 .028152466C.44599916 .0501709 .44599916 .12927246 .44599916 .18333435L.45399476 .19134522H.5469971L.5649872 .22834778 .55999758 .23535156H.45399476L.44599916 .24433899C.44599916 .39926148 .44599916 .67111209 .44699098 .6980896L.43899537 .70410159 .35299684 .66911318 .02999878 .23535156V.19134522M.10398865 .24234009C.10398865 .264328 .19898987 .4022522 .24198914 .46122743 .2749939 .50619509 .30899049 .5521698 .34700013 .591156 .34999085 .5931549 .35499574 .5941467 .35798646 .591156 .35798646 .5901489 .35899354 .5871582 .35899354 .5851593V.24334717L.35198976 .23535156H.10899353L.10398865 .24234009Z"/>
<path id="font_12_12" d="M.051986696 .6781769 .052993776 .6591797C.07299805 .65216067 .10899353 .6411438 .11299133 .6401367 .12298584 .6361389 .125 .6251221 .12599182 .6161041 .1309967 .53297427 .13198853 .44985963 .13198853 .36676026 .13198853 .24482727 .13198853 .11590576 .12199402 .0029907227L.12799073-.0020141602 .21998596 .025970459C.21699524 .051956178 .21499634 .10292053 .21499634 .1798706V.33377076C.21499634 .34075929 .22099304 .34576417 .22799683 .34576417H.57099917C.5799866 .34576417 .58299258 .33876039 .58299258 .33377076 .58299258 .23683167 .5799866 .11790466 .5779877 .020980835L.58898928 0 .73799136 .0078125 .74398806 .013809204 .7429962 .031799318C.72499087 .03981018 .66600039 .03981018 .66600039 .07879639 .66600039 .09979248 .6619873 .24076844 .6619873 .32176209 .6619873 .5129547 .66999819 .64515689 .6729889 .6841736L.66799929 .6901703 .5799866 .673172C.5799866 .58706668 .58299258 .48291017 .58299258 .3967743 .58299258 .39076234 .58200076 .38476563 .57099917 .38476563H.22499085C.21499634 .38476563 .21299744 .3917694 .21299744 .3967743 .21299744 .4618683 .21699524 .54600527 .21899414 .61109927 .21998596 .63414 .22200012 .6581726 .22599793 .6801758L.22099304 .6851654H.05899048L.051986696 .6781769Z"/>
<path id="font_12_3" d="M.1349945 .6123047H.22898865C.25698854 .6123047 .27999879 .59129336 .2809906 .5662842 .28199769 .541275 .28199769 .46824647 .28199769 .41923524 .28199769 .27919007 .27799989 .13916016 .272995 .00010681152L.28599549-.0048828127 .3809967 .022125245C.37799073 .09814453 .37799073 .2962036 .37799073 .43223573 .37799073 .52127078 .37998963 .6112976 .38598634 .7003021L.3789978 .71229556 .1349945 .6392975V.6123047Z"/>
<path id="font_12_10" d="M.04499817 .001953125H.5379944L.56399539 .079940799 .5589905 .08795166H.20999146C.20399475 .08795166 .19799805 .08894348 .19599915 .092941287 .19499207 .094940189 .19599915 .09794617 .19699097 .09895325 .2539978 .1569519 .30799867 .21495056 .35899354 .27496339 .394989 .31697084 .42999269 .358963 .45799256 .40496827 .48799134 .4509735 .5119934 .49998475 .5119934 .5529938 .5119934 .59399417 .49899293 .6349945 .46499635 .66400149 .43199159 .69299319 .3880005 .7080078 .34199525 .7080078 .29899598 .7080078 .2579956 .6970062 .22099304 .67900088 .17599488 .65800479 .13699341 .6279907 .102996829 .59498599L.125 .57598879C.1519928 .59599307 .17799378 .61099246 .20999146 .6259918 .23098755 .6360016 .2559967 .6399994 .2809906 .6399994 .31399537 .6399994 .34700013 .6289978 .37098695 .6069946 .40098573 .5779877 .4079895 .5369873 .4079895 .50798037 .4079895 .4429779 .38198854 .38197328 .34298707 .3259735 .31098939 .27996827 .27198792 .23796082 .23199463 .19696045 .17199707 .13494873 .10899353 .07594299 .04499817 .017944336V.001953125Z"/>
<path id="font_12_7" d="M.04598999 .23046875H.70399478L.70999148 .27046205H.052993776L.04598999 .23046875Z"/>
<path id="font_12_8" d="M.033996583 .6733093 .035995485 .6533203C.037994386 .6533203 .07398987 .6443176 .09199524 .63931277 .12298584 .6313019 .125 .6222992 .125 .54229739 .125 .46427918 .12199402 .38627626 .12199402 .30825807 .12199402 .24723816 .12399292 .17323303 .12998963 .12721253 .1349945 .08821106 .1559906-.0087890629 .31399537-.0087890629 .39698792-.0087890629 .47698976 .02520752 .5469971 .07020569L.5549927 .064208988C.5549927 .048202516 .5549927 .032196046 .55599978 .016204834 .55799868 .0012054443 .57598879-.0047912599 .58799746-.0047912599 .61898806-.0047912599 .6899872 .016204834 .7409973 .032196046L.74598696 .03919983 .74198916 .05619812C.7220001 .05419922 .70399478 .048202516 .6839905 .048202516 .673996 .048202516 .6609955 .050201417 .6539917 .0592041 .6389923 .07620239 .6359863 .15222168 .6359863 .20223999 .6359863 .3642578 .6369934 .5733032 .6519928 .68733218L.6459961 .69433596 .55799868 .659317C.55599978 .47727967 .55400088 .2942505 .55400088 .11122131 .5 .079208377 .43998719 .052200319 .37799073 .052200319 .24598694 .052200319 .22399903 .13922119 .21598816 .16522217 .20599365 .19923401 .20199585 .23423767 .20199585 .26924134L.20999146 .54229739C.20999146 .55929568 .21598816 .6603241 .21798706 .67433169L.21099854 .6803131H.041992189L.033996583 .6733093Z"/>
<path id="font_12_9" d="M.022994996 .6513672C.036987306 .649353 .049987794 .6463623 .06298828 .6433563 .07199097 .6413574 .07998657 .6353607 .085998538 .62835696 .09599304 .61834719 .102996829 .60635378 .10899353 .5943451L.2579956 .29930116C.2579956 .19927979 .2579956 .0982666 .25498963-.0017547608L.2659912-.0107421879 .35598756 .018249512 .34700013 .30630494C.42999269 .4343109 .5039978 .5303345 .61499026 .675354L.61099246 .6933594 .526001 .6763611C.48999024 .619339 .4059906 .47431947 .397995 .46032716 .3849945 .4373169 .34199525 .36730958 .33898927 .3623047 .33599855 .3572998 .33198548 .353302 .32798768 .353302 .32199098 .353302 .31698609 .3592987 .31599427 .36131288L.1749878 .6863556H.02999878L.022994996 .67936709V.6513672Z"/>
<path id="font_12_13" d="M.09199524 .6121063H.1749878C.19999695 .6121063 .21998596 .5911102 .22099304 .56611636 .22200012 .5411072 .22200012 .46810914 .22200012 .41911317 .22200012 .27911378 .21899414 .13911438 .21398926 .00010681152L.22599793-.0048828127 .30999757 .022109986C.30699159 .09811401 .30699159 .29611207 .30699159 .43211366 .30699159 .52111819 .30899049 .6111145 .31399537 .70010378L.30799867 .7121124 .09199524 .6391144V.6121063Z"/>
</defs>
<use data-text="+" xlink:href="#font_12_1" transform="matrix(37.185197,0,0,-37.18505,384.70133,146.0823)"/>
<use data-text="G" xlink:href="#font_12_2" transform="matrix(21.519362,0,0,-21.519398,755.6176,141.94281)"/>
<use data-text="3" xlink:href="#font_12_11" transform="matrix(16.438399,0,0,-16.438426,772.0849,146.07938)"/>
<use data-text="(" xlink:href="#font_12_4" transform="matrix(21.519362,0,0,-21.519398,782.32748,141.94281)"/>
<use data-text="s" xlink:href="#font_12_5" transform="matrix(21.519362,0,0,-21.519398,791.8726,141.94281)"/>
<use data-text=")" xlink:href="#font_12_6" transform="matrix(21.519362,0,0,-21.519398,802.85958,141.94281)"/>
<use data-text="G" xlink:href="#font_12_2" transform="matrix(21.519343,0,0,-21.519398,926.2539,141.94281)"/>
<use data-text="4" xlink:href="#font_12_14" transform="matrix(16.438384,0,0,-16.438426,942.73757,146.11225)"/>
<use data-text="(" xlink:href="#font_12_4" transform="matrix(21.519343,0,0,-21.519398,952.9801,141.94281)"/>
<use data-text="s" xlink:href="#font_12_5" transform="matrix(21.519343,0,0,-21.519398,962.52517,141.94281)"/>
<use data-text=")" xlink:href="#font_12_6" transform="matrix(21.519343,0,0,-21.519398,973.5121,141.94281)"/>
<use data-text="H" xlink:href="#font_12_12" transform="matrix(21.51913,0,0,-21.519398,840.74618,234.35117)"/>
<use data-text="1" xlink:href="#font_12_3" transform="matrix(16.438221,0,0,-16.438426,857.60067,238.65213)"/>
<use data-text="(" xlink:href="#font_12_4" transform="matrix(21.51913,0,0,-21.519398,867.8431,234.35117)"/>
<use data-text="s" xlink:href="#font_12_5" transform="matrix(21.51913,0,0,-21.519398,877.3881,234.35117)"/>
<use data-text=")" xlink:href="#font_12_6" transform="matrix(21.51913,0,0,-21.519398,888.37496,234.35117)"/>
<use data-text="H" xlink:href="#font_12_12" transform="matrix(21.51913,0,0,-21.519398,498.97325,49.534425)"/>
<use data-text="2" xlink:href="#font_12_10" transform="matrix(16.438221,0,0,-16.438426,515.82778,53.769624)"/>
<use data-text="(" xlink:href="#font_12_4" transform="matrix(21.51913,0,0,-21.519398,526.0702,49.534425)"/>
<use data-text="s" xlink:href="#font_12_5" transform="matrix(21.51913,0,0,-21.519398,535.61526,49.534425)"/>
<use data-text=")" xlink:href="#font_12_6" transform="matrix(21.51913,0,0,-21.519398,546.60208,49.534425)"/>
<use data-text="H" xlink:href="#font_12_12" transform="matrix(21.51913,0,0,-21.519398,498.97325,326.75959)"/>
<use data-text="3" xlink:href="#font_12_11" transform="matrix(16.438221,0,0,-16.438426,515.82778,330.89616)"/>
<use data-text="(" xlink:href="#font_12_4" transform="matrix(21.51913,0,0,-21.519398,526.0702,326.75959)"/>
<use data-text="s" xlink:href="#font_12_5" transform="matrix(21.51913,0,0,-21.519398,535.61526,326.75959)"/>
<use data-text=")" xlink:href="#font_12_6" transform="matrix(21.51913,0,0,-21.519398,546.60208,326.75959)"/>
<path transform="matrix(1,0,0,-1,868.7349,136.56154)" stroke-width=".75" stroke-linecap="round" stroke-linejoin="round" fill="none" stroke="#000000" d="M-112.68702-24.802647C-112.17486-25.900385-112.44456-24.358325-113.74528-25.328536-95.24558-24.10539-75.93007-24.524199-57.585828-24.437176-43.291669-25.169789-41.704957-24.173085-41.945856-10.629176-42.545747-2.832783-43.188657 3.1738-43.477434 9.418392-41.959589 24.377255-42.458166 24.283003-56.965635 25.53884-76.507068 25.65352-94.95579 24.937985-112.27812 25.855538-128.56133 25.32805-127.3112 25.638537-128.12569 10.52247-128.74233 2.883025-127.37925-2.550846-128.24407-10.188966-127.85321-25.07442-128.08977-25.490204-112.68702-24.802647Z"/>
<path transform="matrix(1,0,0,-1,868.7349,136.56154)" stroke-width=".75" stroke-linecap="round" stroke-linejoin="round" fill="none" stroke="#000000" d="M58.401754-24.336264C57.44442-25.438113 57.9426-24.802046 57.96329-25.630522 75.64281-24.166794 95.07966-25.390275 112.56457-24.59645 127.34988-24.052746 129.03304-24.546174 128.54413-9.045969 127.69051-3.361271 128.81885 3.807368 128.43892 10.902481 128.63521 24.760024 127.65381 25.913146 112.687099 24.168255 95.38772 24.394776 75.90779 25.102902 57.570009 24.204094 42.45374 25.309529 42.441419 24.71307 42.015508 10.28711 43.049844 3.750245 42.740667-3.352716 43.007776-9.637504 43.01892-24.994597 41.553995-24.408495 58.401754-24.336264Z"/>
<path transform="matrix(1,0,0,-1,868.7349,136.56154)" stroke-width=".75" stroke-linecap="round" stroke-linejoin="round" fill="none" stroke="#000000" d="M-27.405318-117.9592C-28.676512-117.01165-27.936995-116.51375-28.82884-117.9144-9.868993-117.334209 9.535282-117.402538 28.490576-116.43979 43.197065-116.58064 42.721368-118.0371 43.46294-102.80779 43.71039-95.2396 42.864297-89.85596 43.217176-82.01592 43.673376-67.54282 43.557069-68.33025 28.507735-66.68598 9.025313-67.90416-9.331882-67.87764-27.073634-67.69034-42.24379-66.69962-42.59376-67.57491-42.112775-82.63819-42.08265-89.85517-43.938695-96.1926-43.402399-101.88319-43.92232-117.59501-42.196088-117.49138-27.405318-117.9592Z"/>
<path transform="matrix(1,0,0,-1,868.7349,136.56154)" stroke-width=".75" stroke-linecap="round" stroke-linejoin="round" fill="none" stroke="#000000" d="M-370.38468 66.86396C-369.00434 68.23316-368.79264 66.980899-369.9785 67.08106-350.47569 67.42559-332.32917 67.76252-314.13 67.37889-299.29594 66.70109-298.67695 67.339649-298.22996 82.74482-298.25398 89.73131-299.15254 94.84693-298.31004 101.53017-299.28767 117.6434-298.49186 117.393589-313.12159 117.55636-331.49559 117.73669-351.19 117.22877-370.05696 118.04962-385.01579 116.40188-385.2747 117.56527-384.02696 101.44349-384.0207 96.476497-385.27314 88.25528-385.64317 82.511318-385.18199 66.85225-384.15919 68.35202-370.38468 66.86396Z"/>
<path transform="matrix(1,0,0,-1,868.7349,136.56154)" stroke-width=".75" stroke-linecap="round" stroke-linejoin="round" fill="none" stroke="#000000" d="M-369.34504-210.08855C-369.1712-209.2422-370.51649-209.39061-370.6915-209.29056-350.66764-209.5032-331.69084-209.71825-312.87297-210.72837-297.88945-209.25266-299.00517-210.55762-298.0135-194.29865-298.69947-188.43338-299.38215-181.68933-299.67375-174.43294-298.21687-160.16719-299.34147-160.64197-314.36604-159.97624-333.14988-158.98107-350.20408-160.83744-370.4718-159.29787-383.7966-159.58415-385.1921-159.64495-383.92036-175.5621-384.1643-181.9494-384.05464-187.279-384.91169-195.65998-385.5956-209.84273-384.8064-209.39279-369.34504-210.08855Z"/>
<path transform="matrix(1,0,0,-1,868.7349,136.56154)" stroke-width=".75" stroke-linecap="round" stroke-linejoin="round" fill="none" stroke="#000000" d="M-447.8029 .146634C-448.1039 11.732329-458.50099 22.233372-469.1611 21.654168-482.5459 22.423808-492.47865 12.483481-491.49455 .696419-490.98417-12.352174-482.88243-20.765702-469.10368-22.028658-457.8107-22.087584-448.31916-11.42958-447.8029 .146634Z"/>
<path transform="matrix(1,0,0,-1,868.7349,136.56154)" stroke-width=".75" stroke-linecap="round" stroke-linejoin="round" fill="none" stroke="#000000" d="M-42.1922-.314113C-13.936278-.153837 13.723275-.368926 42.082159-.354194"/>
<path transform="matrix(1,0,0,-1,868.7349,136.56154)" stroke-width=".75" stroke-linecap="round" stroke-linejoin="round" fill="none" stroke="#000000" d="M29.826836-8.358798C32.633939-3.74201 36.985597-1.142791 42.536794 .073826 37.034425 1.407629 33.09298 3.635483 29.057957 7.668979"/>
<path transform="matrix(1,0,0,-1,868.7349,136.56154)" stroke-width=".75" stroke-linecap="round" stroke-linejoin="round" fill="none" stroke="#000000" d="M128.49964-.03962C156.15917-.082167 184.90795-.109416 212.73937 .383298"/>
<path transform="matrix(1,0,0,-1,868.7349,136.56154)" stroke-width=".75" stroke-linecap="round" stroke-linejoin="round" fill="none" stroke="#000000" d="M200.79189-7.955925C203.97029-3.875569 207.84111-1.240396 213.4605-.247029 208.33242 .945675 203.37223 3.635749 200.75902 7.687456"/>
<path transform="matrix(1,0,0,-1,868.7349,136.56154)" stroke-width=".75" stroke-linecap="round" stroke-linejoin="round" fill="none" stroke="#000000" d="M-384.85136 92.22759C-412.7526 92.26307-441.41798 92.6847-469.97367 92.84713-469.76054 68.78191-469.63618 45.2499-469.5763 22.399964"/>
<path transform="matrix(1,0,0,-1,868.7349,136.56154)" stroke-width=".75" stroke-linecap="round" stroke-linejoin="round" fill="none" stroke="#000000" d="M-477.88945 34.839994C-474.11558 31.151408-470.91514 26.929112-469.9441 22.42681-469.1023 26.649163-465.687 31.735217-462.17393 34.872049"/>
<path transform="matrix(1,0,0,-1,868.7349,136.56154)" stroke-width=".75" stroke-linecap="round" stroke-linejoin="round" fill="none" stroke="#000000" d="M170.74988-.106109C171.04383-30.360873 170.64125-61.16461 170.88312-92.59073 127.78871-92.63685 85.19211-92.00299 42.997564-92.246898"/>
<path transform="matrix(1,0,0,-1,868.7349,136.56154)" stroke-width=".75" stroke-linecap="round" stroke-linejoin="round" fill="none" stroke="#000000" d="M54.91313-84.634998C52.23017-88.06474 47.534414-91.28007 42.361558-92.28983 48.01994-93.47064 52.116949-96.5908 54.88388-100.651409"/>
<path transform="matrix(1,0,0,-1,868.7349,136.56154)" stroke-width=".75" stroke-linecap="round" stroke-linejoin="round" fill="none" stroke="#000000" d="M170.36978 .139758C170.72434-61.69964 171.00798-123.03742 170.61875-185.10204 13.639647-184.93778-142.64958-185.17072-298.90254-185.26369"/>
<path transform="matrix(1,0,0,-1,868.7349,136.56154)" stroke-width=".75" stroke-linecap="round" stroke-linejoin="round" fill="none" stroke="#000000" d="M-286.6656-176.81125C-289.30628-180.62372-294.03669-183.87177-298.993-184.70067-293.93769-185.58467-289.59013-189.12844-286.22813-193.05661"/>
<path transform="matrix(1,0,0,-1,868.7349,136.56154)" stroke-width=".75" stroke-linecap="round" stroke-linejoin="round" fill="none" stroke="#000000" d="M-113.55951-25.820778C-112.29956-24.059964-113.07452-24.557707-112.43518-24.479205-95.43454-25.890696-75.51825-24.934903-58.40864-24.753829-43.313608-25.641617-43.014776-24.70975-41.971464-9.752798-42.848428-3.359074-42.46625 3.10209-42.006307 9.750277-42.10925 24.615-41.57846 25.445023-58.411844 24.406743-75.499729 25.641144-94.37852 24.919053-112.891658 25.112626-128.21216 24.634776-128.25168 24.538935-128.87258 9.415203-128.25322 2.352221-127.66887-2.744018-127.893527-9.690208-128.49216-24.149758-128.86666-24.896967-113.55951-25.820778Z"/>
<path transform="matrix(1,0,0,-1,868.7349,136.56154)" stroke-width=".75" stroke-linecap="round" stroke-linejoin="round" fill="none" stroke="#000000" d="M57.925245-25.077929C57.138395-25.656775 57.548967-25.910893 57.25211-25.696503 75.16348-23.996521 94.53922-25.56307 113.149127-25.552466 128.59952-25.730553 128.71791-24.83436 128.25762-9.008025 128.38103-2.910491 127.56185 2.791136 128.04 9.9452 128.71102 24.801766 127.986598 24.892235 112.627048 25.284493 93.898159 24.269188 75.26827 23.978978 58.42163 25.367684 43.37531 25.292506 43.27257 24.864499 42.473367 9.824346 41.93513 2.709999 42.96646-3.769268 42.442258-9.011086 41.733716-24.664702 41.937368-24.668406 57.925245-25.077929Z"/>
<path transform="matrix(1,0,0,-1,868.7349,136.56154)" stroke-width=".75" stroke-linecap="round" stroke-linejoin="round" fill="none" stroke="#000000" d="M-27.920529-116.86803C-28.479714-117.17533-27.627348-118.25203-27.494242-117.23748-10.288395-117.84499 9.873425-117.84577 28.643782-117.99516 42.95116-116.96227 42.073415-117.1829 43.645383-101.9338 42.859628-95.23392 42.640897-89.41236 43.015939-82.51805 43.51333-68.27755 42.299028-66.87335 28.557864-66.975528 9.554097-66.84961-9.935496-67.182338-28.004012-66.8066-43.236547-67.305309-43.78074-68.24928-43.328664-81.903888-42.06912-89.84352-43.45667-96.31886-42.650297-102.97915-42.10355-116.54295-42.603906-117.24022-27.920529-116.86803Z"/>
<path transform="matrix(1,0,0,-1,868.7349,136.56154)" stroke-width=".75" stroke-linecap="round" stroke-linejoin="round" fill="none" stroke="#000000" d="M-368.8708 66.76311C-369.86253 67.46019-370.69099 68.04572-369.04756 67.2135-350.5174 67.468418-332.95335 68.31461-314.3774 68.05383-298.54548 67.00971-298.19248 66.80508-298.36735 83.10109-299.36683 88.80555-299.7188 95.942638-298.71 101.64623-298.3463 116.597248-299.43159 116.752338-314.44728 117.59432-333.3623 116.81523-350.8541 117.78611-370.514 117.515499-385.2672 118.26022-384.40354 116.62588-385.09306 103.24703-384.60383 95.62117-384.5794 89.23133-384.4754 81.9842-384.4255 67.37024-385.12223 67.16254-368.8708 66.76311Z"/>
<path transform="matrix(1,0,0,-1,868.7349,136.56154)" stroke-width=".75" stroke-linecap="round" stroke-linejoin="round" fill="none" stroke="#000000" d="M-369.53843-209.83434C-370.06065-209.23256-369.0779-210.49245-369.49778-210.29259-351.2341-209.49462-333.08598-210.456-314.52333-210.4756-298.57084-210.48082-298.64555-209.21549-298.0143-194.22756-298.36515-188.75392-298.0465-181.26987-298.3078-175.01815-298.01567-160.01009-297.95133-159.0002-312.85923-159.16498-331.52796-160.64958-350.75843-159.20775-368.92613-159.39249-384.7998-159.33399-385.61619-160.41391-384.31263-174.44489-384.72315-180.86643-384.83345-187.42249-384.1316-195.15509-385.3185-210.24373-385.3701-210.70696-369.53843-209.83434Z"/>
<path transform="matrix(1,0,0,-1,868.7349,136.56154)" stroke-width=".75" stroke-linecap="round" stroke-linejoin="round" fill="none" stroke="#000000" d="M-448.37144-.251336C-448.75733 12.625187-458.60273 21.225203-470.4313 20.823342-481.05839 21.714457-492.57313 12.729038-491.30854-.188337-491.44285-12.137764-482.53804-21.95736-470.0751-22.432425-458.52424-22.308457-448.45564-11.783537-448.37144-.251336Z"/>
<path transform="matrix(1,0,0,-1,868.7349,136.56154)" stroke-width=".75" stroke-linecap="round" stroke-linejoin="round" fill="none" stroke="#000000" d="M-42.383996 .196003C-14.689253 .413909 13.938959 .051588 42.085393 .18756"/>
<path transform="matrix(1,0,0,-1,868.7349,136.56154)" stroke-width=".75" stroke-linecap="round" stroke-linejoin="round" fill="none" stroke="#000000" d="M29.780388-8.03275C32.213899-4.387585 37.260877-.81822 41.89916-.061478 37.51101 1.285448 32.818525 3.806285 29.637503 8.368769"/>
<path transform="matrix(1,0,0,-1,868.7349,136.56154)" stroke-width=".75" stroke-linecap="round" stroke-linejoin="round" fill="none" stroke="#000000" d="M128.4311 .350429C156.91756 .03189 184.5633 .01424 213.45215-.300728"/>
<path transform="matrix(1,0,0,-1,868.7349,136.56154)" stroke-width=".75" stroke-linecap="round" stroke-linejoin="round" fill="none" stroke="#000000" d="M200.82057-8.205367C203.3313-4.274025 208.38373-1.313265 213.2284 .388837 208.29367 1.350468 203.6906 4.004958 200.93019 8.014148"/>
<path transform="matrix(1,0,0,-1,868.7349,136.56154)" stroke-width=".75" stroke-linecap="round" stroke-linejoin="round" fill="none" stroke="#000000" d="M-384.8037 92.16692C-412.7736 92.09695-441.192 92.33012-470.31269 92.683338-470.4025 69.09798-470.29988 45.445287-469.9681 21.617804"/>
<path transform="matrix(1,0,0,-1,868.7349,136.56154)" stroke-width=".75" stroke-linecap="round" stroke-linejoin="round" fill="none" stroke="#000000" d="M-478.0205 34.288595C-473.6359 31.830689-470.9514 27.440854-470.02894 21.746693-469.0955 26.674489-465.84617 31.927777-461.7638 34.63871"/>
<path transform="matrix(1,0,0,-1,868.7349,136.56154)" stroke-width=".75" stroke-linecap="round" stroke-linejoin="round" fill="none" stroke="#000000" d="M170.43489-.106222C171.01578-31.14399 170.70067-61.466985 170.50043-92.80158 128.24558-92.63447 85.36772-92.83594 42.58687-92.70556"/>
<path transform="matrix(1,0,0,-1,868.7349,136.56154)" stroke-width=".75" stroke-linecap="round" stroke-linejoin="round" fill="none" stroke="#000000" d="M54.964525-84.22626C52.277318-88.42682 47.77787-90.91869 42.618486-92.708538 48.08537-93.97018 51.975877-96.6999 55.700128-100.53109"/>
<path transform="matrix(1,0,0,-1,868.7349,136.56154)" stroke-width=".75" stroke-linecap="round" stroke-linejoin="round" fill="none" stroke="#000000" d="M170.87339 .125439C170.73976-61.240705 170.7081-123.374988 170.63123-184.51456 13.956245-185.17049-142.64019-184.48389-299.24977-184.80118"/>
<path transform="matrix(1,0,0,-1,868.7349,136.56154)" stroke-width=".75" stroke-linecap="round" stroke-linejoin="round" fill="none" stroke="#000000" d="M-286.40419-176.83368C-289.7012-180.86772-294.00285-183.28513-299.15919-185.20543-293.88066-186.0701-289.69114-189.07411-286.89909-193.0465"/>
<path transform="matrix(1,0,0,-1,868.7349,136.56154)" stroke-width=".75" stroke-linecap="round" stroke-linejoin="round" fill="none" stroke="#000000" d="M-112.54744-25.610587C-113.649539-24.005932-112.35297-25.131299-113.756618-25.678654-95.31227-25.685797-76.98462-24.506203-56.801496-25.66119-42.78191-24.804842-41.739538-25.864796-41.77518-9.374059-42.46869-3.073199-41.871717 2.575944-43.432798 9.78953-42.85101 24.688017-43.000757 25.81402-58.26441 25.470055-75.48976 25.325434-94.55261 24.418467-113.02118 25.859932-128.4281 25.362576-127.33813 24.924807-128.12203 9.320705-127.704 3.006819-127.38076-3.83359-127.83325-10.668795-128.5157-24.006144-128.89333-24.724814-112.54744-25.610587Z"/>
<path transform="matrix(1,0,0,-1,868.7349,136.56154)" stroke-width=".75" stroke-linecap="round" stroke-linejoin="round" fill="none" stroke="#000000" d="M57.005468-25.860507C56.613019-25.287159 56.824949-25.615828 57.233675-24.28087 75.15019-24.432297 94.00627-25.886088 113.82036-24.35253 127.84128-24.885569 128.43338-24.986495 127.61506-9.743339 128.86238-2.343851 128.14806 3.549185 127.89133 10.321936 127.20073 24.68091 127.98539 24.515488 112.98548 24.10222 94.69972 25.136309 76.27118 24.260283 56.580488 24.361725 42.793764 24.0666 42.34185 25.040572 42.922456 10.499066 41.888566 3.533578 43.23992-2.773175 42.83118-9.906713 42.22658-24.617865 43.458978-25.785197 57.005468-25.860507Z"/>
<path transform="matrix(1,0,0,-1,868.7349,136.56154)" stroke-width=".75" stroke-linecap="round" stroke-linejoin="round" fill="none" stroke="#000000" d="M-28.12775-117.04072C-28.182812-116.83683-27.102837-116.635349-27.091942-116.74881-8.774305-116.60906 9.066224-117.709598 27.917296-116.38396 43.018556-116.61577 43.240087-117.20211 42.660516-102.01401 42.93301-96.35495 43.13921-89.53316 42.295427-83.08103 43.794969-67.04129 42.031198-67.5637 27.818959-67.15855 9.993374-66.639278-9.505244-67.96466-28.92409-67.05047-43.936166-66.9497-42.44588-67.06338-43.862497-83.00789-43.805067-88.482509-43.247255-96.068218-43.157724-102.50672-43.482446-118.20861-43.544965-118.17984-28.12775-117.04072Z"/>
<path transform="matrix(1,0,0,-1,868.7349,136.56154)" stroke-width=".75" stroke-linecap="round" stroke-linejoin="round" fill="none" stroke="#000000" d="M-369.38334 66.63479C-368.9286 66.75969-369.39234 66.553249-369.2382 67.60659-351.31056 68.1812-331.98768 66.63673-314.57963 66.92547-298.26359 66.82129-299.0848 67.40827-299.65336 82.57583-298.21336 88.303318-298.9684 95.03347-299.4718 101.8134-299.25523 116.512477-299.4746 118.27494-312.90928 116.747638-333.04627 118.194118-350.9152 116.525959-369.13044 118.25605-384.9903 117.69781-385.72709 117.21586-384.26628 101.52166-384.28013 96.0954-385.71513 88.330699-384.44819 83.12736-384.68693 67.269039-384.52644 66.959987-369.38334 66.63479Z"/>
<path transform="matrix(1,0,0,-1,868.7349,136.56154)" stroke-width=".75" stroke-linecap="round" stroke-linejoin="round" fill="none" stroke="#000000" d="M-370.5901-210.48394C-369.90895-210.54009-369.1339-210.58965-369.3095-210.186-350.18876-209.64893-332.96839-210.46369-314.35725-209.00316-299.11836-210.43352-298.6172-209.87799-298.0162-195.30347-299.29035-188.56761-298.92997-181.51804-298.76927-175.0445-298.98799-160.2311-297.86399-159.00441-313.6354-159.41965-333.11848-158.91255-351.60636-160.61057-369.92698-159.66303-384.20845-160.32875-384.2881-159.9095-385.72145-175.01296-385.2034-180.70569-384.5235-188.76009-384.36149-195.21942-385.02888-210.5844-385.6275-210.448-370.5901-210.48394Z"/>
<path transform="matrix(1,0,0,-1,868.7349,136.56154)" stroke-width=".75" stroke-linecap="round" stroke-linejoin="round" fill="none" stroke="#000000" d="M-448.59428 .958326C-448.26658 11.680118-457.18208 21.066443-469.23033 20.919474-482.2116 22.087843-492.5338 12.818542-491.12739-.477855-491.35694-11.818541-482.52204-22.597203-470.3863-22.24962-457.31636-21.332627-448.21949-12.621908-448.59428 .958326Z"/>
<path transform="matrix(1,0,0,-1,868.7349,136.56154)" stroke-width=".75" stroke-linecap="round" stroke-linejoin="round" fill="none" stroke="#000000" d="M-42.81729 .070227C-14.624774-.235533 13.973654 .042283 42.051946-.149938"/>
<path transform="matrix(1,0,0,-1,868.7349,136.56154)" stroke-width=".75" stroke-linecap="round" stroke-linejoin="round" fill="none" stroke="#000000" d="M29.183659-8.378896C32.662405-4.350232 36.84199-.825906 41.84355-.004229 37.421628 .784239 32.741647 4.414345 29.15471 8.084941"/>
<path transform="matrix(1,0,0,-1,868.7349,136.56154)" stroke-width=".75" stroke-linecap="round" stroke-linejoin="round" fill="none" stroke="#000000" d="M127.75162-.093177C156.47217-.024609 184.87248 .213133 212.78649 .188854"/>
<path transform="matrix(1,0,0,-1,868.7349,136.56154)" stroke-width=".75" stroke-linecap="round" stroke-linejoin="round" fill="none" stroke="#000000" d="M200.16345-7.964935C204.12152-4.406204 208.37395-1.321578 213.15196 .434317 207.91577 .934448 204.07 4.058632 200.92598 8.005475"/>
<path transform="matrix(1,0,0,-1,868.7349,136.56154)" stroke-width=".75" stroke-linecap="round" stroke-linejoin="round" fill="none" stroke="#000000" d="M-384.89906 92.611278C-413.18934 92.18783-442.0136 92.57264-469.67808 92.211208-469.98518 68.9377-470.3373 45.366849-469.6711 21.755028"/>
<path transform="matrix(1,0,0,-1,868.7349,136.56154)" stroke-width=".75" stroke-linecap="round" stroke-linejoin="round" fill="none" stroke="#000000" d="M-477.6643 34.320505C-473.8557 31.482148-471.25993 26.970215-470.21125 22.21989-468.5021 27.214276-465.65455 31.486603-461.65208 34.72288"/>
<path transform="matrix(1,0,0,-1,868.7349,136.56154)" stroke-width=".75" stroke-linecap="round" stroke-linejoin="round" fill="none" stroke="#000000" d="M170.45944 .364919C170.57579-31.19841 170.99608-61.94424 170.65424-92.52617 127.61116-92.57927 85.432437-92.74595 42.38545-92.0779"/>
<path transform="matrix(1,0,0,-1,868.7349,136.56154)" stroke-width=".75" stroke-linecap="round" stroke-linejoin="round" fill="none" stroke="#000000" d="M54.935564-84.31513C51.73825-88.09221 47.38002-91.14146 42.796606-92.83905 47.59248-93.215778 51.987535-96.0611 55.21189-100.39453"/>
<path transform="matrix(1,0,0,-1,868.7349,136.56154)" stroke-width=".75" stroke-linecap="round" stroke-linejoin="round" fill="none" stroke="#000000" d="M170.99097 .127511C170.80889-61.7075 170.49457-123.4468 170.51703-184.59523 14.455096-185.03972-142.37519-184.89495-298.74208-184.89409"/>
<path transform="matrix(1,0,0,-1,868.7349,136.56154)" stroke-width=".75" stroke-linecap="round" stroke-linejoin="round" fill="none" stroke="#000000" d="M-286.13417-177.04012C-289.7111-180.67359-294.49537-183.74501-298.97819-184.38135-294.22703-186.10158-289.67875-188.99204-286.94007-193.18982"/>
<path transform="matrix(1,0,0,-1,868.7349,136.56154)" stroke-width=".75" stroke-linecap="round" stroke-linejoin="round" fill="none" stroke="#000000" d="M-113.16803-25.366187C-112.81805-24.852358-112.9168-25.64788-112.34319-24.872374-94.84842-24.402325-75.0987-24.415411-57.31856-24.363427-41.62829-24.148192-42.82867-24.465098-42.766546-9.05115-43.04967-3.608382-42.688627 2.46282-42.365625 10.789278-42.060209 24.893074-42.093187 25.308024-58.160417 25.068732-76.56312 24.69211-95.24693 24.766509-113.5095 25.871542-128.77408 24.266549-127.31087 24.446185-127.43692 9.528659-128.62877 3.578471-127.974308-2.725974-127.46338-9.846874-127.90653-25.208405-127.8615-25.572958-113.16803-25.366187Z"/>
<path transform="matrix(1,0,0,-1,868.7349,136.56154)" stroke-width=".75" stroke-linecap="round" stroke-linejoin="round" fill="none" stroke="#000000" d="M58.223688-24.027548C57.680929-25.74328 56.732347-25.775969 57.604085-24.372023 76.55289-25.839518 95.31868-24.784613 112.53807-24.921065 128.53188-24.135178 128.56914-25.076685 128.5431-9.364606 128.80142-3.928474 127.24844 2.743889 128.71576 9.871606 128.61013 24.501019 127.733898 24.153382 113.145 24.57092 94.3946 25.074759 75.95284 24.028037 56.597597 24.113493 42.404806 25.696492 42.503679 24.29389 41.919969 10.336469 41.93747 2.60958 42.53254-2.701374 42.534715-10.366081 43.390157-24.000466 42.96909-24.338749 58.223688-24.027548Z"/>
<path transform="matrix(1,0,0,-1,868.7349,136.56154)" stroke-width=".75" stroke-linecap="round" stroke-linejoin="round" fill="none" stroke="#000000" d="M-28.17643-117.912387C-28.731539-117.577999-27.124028-117.89934-27.989188-117.2416-10.118116-116.49601 9.748111-116.99849 28.490248-117.84138 42.4331-117.50769 43.074758-116.37969 43.06249-103.12306 43.01189-95.96238 43.536375-89.37969 42.362085-81.77006 42.326627-68.22339 42.271856-67.96135 28.71683-66.65995 8.806532-67.77398-8.958359-67.2753-28.12343-66.78706-43.412427-66.980709-42.60733-66.60869-42.527799-83.10002-42.965-90.0276-43.101129-96.62733-43.718267-102.55787-42.22899-118.00818-42.527795-117.27587-28.17643-117.912387Z"/>
<path transform="matrix(1,0,0,-1,868.7349,136.56154)" stroke-width=".75" stroke-linecap="round" stroke-linejoin="round" fill="none" stroke="#000000" d="M-369.65599 67.630558C-369.12803 67.994678-368.97819 67.8816-368.86326 68.286098-351.98805 68.10895-332.20768 67.34322-313.3159 67.61273-299.21113 66.88437-297.925 67.91905-298.4654 81.87751-299.73249 90.06267-298.87556 95.55429-298.78178 103.08518-297.93193 116.56164-298.9166 116.73049-314.65827 117.83017-331.88865 117.35699-351.19377 117.38741-370.67039 117.12064-385.2064 116.9142-383.91664 117.24904-385.7178 103.018268-384.00895 94.85938-385.3794 89.65189-385.1807 82.71508-384.1895 67.99105-385.0324 68.19238-369.65599 67.630558Z"/>
<path transform="matrix(1,0,0,-1,868.7349,136.56154)" stroke-width=".75" stroke-linecap="round" stroke-linejoin="round" fill="none" stroke="#000000" d="M-368.80448-210.50467C-370.63825-209.6381-368.82624-209.84067-369.84025-210.52234-350.61384-209.78638-332.2403-210.4795-314.3182-209.83892-299.5767-210.4105-298.93983-210.5311-297.9889-195.28517-299.36045-188.68115-298.94596-182.43125-299.71195-174.3842-298.44664-160.3451-298.31199-160.31012-313.91233-160.1234-332.52796-159.7327-351.02473-159.72985-370.44108-159.17386-385.6088-159.27278-384.38273-160.78289-384.7844-175.13803-384.84428-182.34944-385.02458-187.78185-383.87193-195.25942-384.07307-209.77663-384.84516-209.68445-368.80448-210.50467Z"/>
<path transform="matrix(1,0,0,-1,868.7349,136.56154)" stroke-width=".75" stroke-linecap="round" stroke-linejoin="round" fill="none" stroke="#000000" d="M-447.833 .516265C-449.27705 12.309493-458.72834 22.616253-469.3295 21.49272-482.85069 21.336258-491.29624 11.155535-491.8372-.288396-492.4254-12.080091-482.15589-21.170012-470.56153-21.157925-458.237-21.73881-448.77934-11.87174-447.833 .516265Z"/>
<path transform="matrix(1,0,0,-1,868.7349,136.56154)" stroke-width=".75" stroke-linecap="round" stroke-linejoin="round" fill="none" stroke="#000000" d="M-42.135198-.400625C-14.078847 .326813 14.194769 .183858 41.870473-.395676"/>
<path transform="matrix(1,0,0,-1,868.7349,136.56154)" stroke-width=".75" stroke-linecap="round" stroke-linejoin="round" fill="none" stroke="#000000" d="M29.649237-7.862371C32.316087-3.569208 37.489286-.987368 42.534425-.009693 36.949899 1.501001 32.65172 4.134452 29.53995 7.938345"/>
<path transform="matrix(1,0,0,-1,868.7349,136.56154)" stroke-width=".75" stroke-linecap="round" stroke-linejoin="round" fill="none" stroke="#000000" d="M128.22959-.149173C156.3102-.249003 185.07428-.210068 213.46115-.37459"/>
<path transform="matrix(1,0,0,-1,868.7349,136.56154)" stroke-width=".75" stroke-linecap="round" stroke-linejoin="round" fill="none" stroke="#000000" d="M200.41567-8.022446C203.78202-4.268024 207.94156-1.426784 212.83483 .24219 208.09123 .853968 203.99256 3.787968 200.54358 8.315486"/>
<path transform="matrix(1,0,0,-1,868.7349,136.56154)" stroke-width=".75" stroke-linecap="round" stroke-linejoin="round" fill="none" stroke="#000000" d="M-384.77885 92.31952C-413.42924 92.37674-441.31517 92.167438-470.34889 92.28657-469.82066 69.26383-470.3856 45.355508-469.93797 21.807866"/>
<path transform="matrix(1,0,0,-1,868.7349,136.56154)" stroke-width=".75" stroke-linecap="round" stroke-linejoin="round" fill="none" stroke="#000000" d="M-477.65043 35.0472C-474.1898 31.905938-470.76029 27.23515-469.92268 21.86186-468.9249 27.020747-466.10426 31.063727-461.59193 34.60927"/>
<path transform="matrix(1,0,0,-1,868.7349,136.56154)" stroke-width=".75" stroke-linecap="round" stroke-linejoin="round" fill="none" stroke="#000000" d="M170.3854-.184134C170.22829-30.771157 170.84926-61.68903 170.23426-92.56814 127.54033-92.585788 85.113178-92.25444 42.774789-92.3691"/>
<path transform="matrix(1,0,0,-1,868.7349,136.56154)" stroke-width=".75" stroke-linecap="round" stroke-linejoin="round" fill="none" stroke="#000000" d="M55.100988-84.12895C51.689279-88.053028 47.226388-91.30786 43.04629-92.402797 48.083425-93.41996 51.831026-96.42616 55.708036-100.25469"/>
<path transform="matrix(1,0,0,-1,868.7349,136.56154)" stroke-width=".75" stroke-linecap="round" stroke-linejoin="round" fill="none" stroke="#000000" d="M170.63906 .378434C170.77587-61.783678 170.54047-123.18147 170.45084-184.83953 13.945275-184.57253-142.93619-185.05638-299.2759-184.98796"/>
<path transform="matrix(1,0,0,-1,868.7349,136.56154)" stroke-width=".75" stroke-linecap="round" stroke-linejoin="round" fill="none" stroke="#000000" d="M-286.9019-176.77863C-289.47834-180.48673-293.93699-183.73876-299.45344-184.40793-294.34666-185.89763-289.34178-188.93785-286.30708-192.82303"/>
<path transform="matrix(1,0,0,-1,868.7349,136.56154)" stroke-width=".75" stroke-linecap="round" stroke-linejoin="round" fill="none" stroke="#000000" d="M-112.64338-25.167315C-113.825489-24.326668-112.85018-25.65935-113.45101-24.937329-93.87736-25.021565-75.358158-24.548125-57.916559-24.563105-41.950548-25.180554-42.598875-25.896319-41.807519-9.45207-41.61887-4.236729-42.824365 3.116927-42.6656 9.19091-42.406358 24.15752-43.02286 24.741469-57.405546 24.354447-75.63358 24.47199-93.65766 25.755372-112.76976 25.174565-127.89866 24.380869-128.65514 24.109999-128.2868 10.49442-127.36901 3.504535-128.51088-2.610848-127.82708-10.714618-128.55158-24.632065-128.69208-25.204087-112.64338-25.167315Z"/>
<path transform="matrix(1,0,0,-1,868.7349,136.56154)" stroke-width=".75" stroke-linecap="round" stroke-linejoin="round" fill="none" stroke="#000000" d="M58.34512-25.422978C56.902826-25.154055 58.299539-24.950339 57.40873-24.309264 75.7143-24.084 94.895488-24.023324 113.1262-24.239399 127.61185-24.943522 129.07503-25.155425 128.9742-9.540763 128.62874-2.739425 128.81319 3.672935 128.9763 9.646063 127.99998 25.280484 127.43232 25.02451 113.77167 24.027453 93.71151 25.459607 76.91629 24.329548 57.597864 24.51537 43.418085 25.428847 43.03889 25.633269 43.09955 9.533127 41.636156 3.970588 41.806657-3.979215 43.188619-10.728997 42.83802-25.15658 42.21607-25.817652 58.34512-25.422978Z"/>
<path transform="matrix(1,0,0,-1,868.7349,136.56154)" stroke-width=".75" stroke-linecap="round" stroke-linejoin="round" fill="none" stroke="#000000" d="M-28.37744-117.13704C-27.671004-117.05011-27.7709-116.78058-28.447337-118.30566-9.674348-116.93724 9.907039-116.758647 28.453307-117.97828 43.321046-117.73972 43.18192-118.22166 43.57368-102.94841 42.9727-95.56404 42.575109-88.90163 43.19738-83.23074 43.656408-67.42387 43.491994-67.221309 27.527136-68.3706 10.27262-67.48791-9.822723-68.07651-27.50994-67.62583-43.10034-67.57319-43.694086-66.53789-42.607126-81.9263-42.547376-89.49812-42.71873-94.920909-42.806749-102.98134-43.81703-117.57024-43.353456-118.326198-28.37744-117.13704Z"/>
<path transform="matrix(1,0,0,-1,868.7349,136.56154)" stroke-width=".75" stroke-linecap="round" stroke-linejoin="round" fill="none" stroke="#000000" d="M-370.68009 66.86534C-368.86247 68.3433-370.4089 67.06384-370.19514 66.88293-351.08116 66.8623-333.1962 68.29225-314.6728 66.67348-298.4647 68.29233-298.85636 66.51489-299.20689 82.88014-298.92533 88.16398-298.41029 94.94857-297.85816 101.58536-298.40437 116.47478-298.22148 118.06927-313.12968 116.5044-331.5781 117.1837-351.37849 117.999568-369.03993 116.778919-385.37586 116.69355-384.4025 117.46853-385.06227 102.34927-384.0733 94.934749-384.28169 89.95231-385.08314 82.4386-384.04478 68.343997-385.13636 67.879947-370.68009 66.86534Z"/>
<path transform="matrix(1,0,0,-1,868.7349,136.56154)" stroke-width=".75" stroke-linecap="round" stroke-linejoin="round" fill="none" stroke="#000000" d="M-369.47419-208.78885C-370.44084-210.35312-370.47-209.2998-370.04698-208.90764-350.80708-209.26811-332.37953-210.25452-314.42893-208.92137-298.85429-210.32144-298.42887-208.85483-299.17503-193.79282-299.27897-187.9047-299.39726-181.82952-298.23216-174.14078-297.91246-159.12874-298.28678-159.81673-313.67564-159.29158-332.6596-160.61379-351.5616-159.64768-370.11146-159.86708-384.8078-159.85988-384.12773-159.45427-384.7089-174.485-385.49684-181.10147-384.88346-188.75794-385.70115-193.97249-384.47343-210.3759-384.97804-210.17617-369.47419-208.78885Z"/>
<path transform="matrix(1,0,0,-1,868.7349,136.56154)" stroke-width=".75" stroke-linecap="round" stroke-linejoin="round" fill="none" stroke="#000000" d="M-447.56007 .445735C-447.5435 11.434924-457.1096 22.11892-470.9525 21.011096-481.22627 21.048693-490.83106 11.358001-490.8442 .317814-492.53288-12.892045-482.35926-22.588778-470.29365-22.360392-458.67555-21.318722-448.447-11.003027-447.56007 .445735Z"/>
<path transform="matrix(1,0,0,-1,868.7349,136.56154)" stroke-width=".75" stroke-linecap="round" stroke-linejoin="round" fill="none" stroke="#000000" d="M-42.544195-.151128C-14.607947 .133744 13.75079 .133598 42.406305 .392127"/>
<path transform="matrix(1,0,0,-1,868.7349,136.56154)" stroke-width=".75" stroke-linecap="round" stroke-linejoin="round" fill="none" stroke="#000000" d="M29.873793-7.903719C32.754396-3.910195 37.30301-1.239863 42.392477 .315623 36.82551 1.125309 32.788984 3.955886 29.54276 8.227877"/>
<path transform="matrix(1,0,0,-1,868.7349,136.56154)" stroke-width=".75" stroke-linecap="round" stroke-linejoin="round" fill="none" stroke="#000000" d="M128.13954 .038556C156.21361 .033886 185.13469-.268877 213.02149-.393805"/>
<path transform="matrix(1,0,0,-1,868.7349,136.56154)" stroke-width=".75" stroke-linecap="round" stroke-linejoin="round" fill="none" stroke="#000000" d="M200.78369-7.63665C203.40554-3.872805 208.02457-1.496904 213.40187-.225182 208.18239 1.340507 203.43721 4.36192 200.80268 8.443721"/>
<path transform="matrix(1,0,0,-1,868.7349,136.56154)" stroke-width=".75" stroke-linecap="round" stroke-linejoin="round" fill="none" stroke="#000000" d="M-385.0406 92.26756C-412.90177 92.032489-441.1683 92.23966-469.55085 92.03409-469.9083 69.05471-469.87544 45.680898-469.97383 21.767935"/>
<path transform="matrix(1,0,0,-1,868.7349,136.56154)" stroke-width=".75" stroke-linecap="round" stroke-linejoin="round" fill="none" stroke="#000000" d="M-477.61653 34.587289C-474.25553 31.515522-471.45307 27.125639-470.11408 21.960225-469.00627 27.461102-466.06086 31.408684-461.73329 34.244405"/>
<path transform="matrix(1,0,0,-1,868.7349,136.56154)" stroke-width=".75" stroke-linecap="round" stroke-linejoin="round" fill="none" stroke="#000000" d="M171.05797-.367898C170.61248-31.012679 170.47516-61.224695 170.38362-92.41848 128.16719-91.982479 85.56349-92.51907 42.794614-92.83837"/>
<path transform="matrix(1,0,0,-1,868.7349,136.56154)" stroke-width=".75" stroke-linecap="round" stroke-linejoin="round" fill="none" stroke="#000000" d="M55.642717-84.32848C52.39024-88.75214 47.88264-90.926677 42.242753-92.02717 47.99269-93.88198 51.927869-96.114559 55.106416-100.872089"/>
<path transform="matrix(1,0,0,-1,868.7349,136.56154)" stroke-width=".75" stroke-linecap="round" stroke-linejoin="round" fill="none" stroke="#000000" d="M170.70943-.275721C170.54528-61.57674 170.7601-123.51078 170.7201-184.50824 14.188018-184.88172-142.33844-184.73867-299.5149-184.75168"/>
<path transform="matrix(1,0,0,-1,868.7349,136.56154)" stroke-width=".75" stroke-linecap="round" stroke-linejoin="round" fill="none" stroke="#000000" d="M-286.68025-176.86864C-289.3347-181.03525-294.10008-183.77388-299.11836-184.64139-294.34208-185.99028-289.428-189.15232-286.52619-193.24188"/>
<use data-text="+" xlink:href="#font_12_1" transform="matrix(21.519354,0,0,-21.519316,360.6915,128.81873)"/>
<use data-text="&#x2212;" xlink:href="#font_12_7" transform="matrix(21.519371,0,0,-21.519288,404.89076,111.76404)"/>
<use data-text="U" xlink:href="#font_12_8" transform="matrix(21.519457,0,0,-21.519398,6.814331,141.94281)"/>
<use data-text="(" xlink:href="#font_12_4" transform="matrix(21.519457,0,0,-21.519398,23.470395,141.94281)"/>
<use data-text="s" xlink:href="#font_12_5" transform="matrix(21.519457,0,0,-21.519398,33.015565,141.94281)"/>
<use data-text=")" xlink:href="#font_12_6" transform="matrix(21.519457,0,0,-21.519398,44.00254,141.94281)"/>
<use data-text="Y" xlink:href="#font_12_9" transform="matrix(21.519246,0,0,-21.519398,1086.4069,141.94281)"/>
<use data-text="(" xlink:href="#font_12_4" transform="matrix(21.519246,0,0,-21.519398,1099.5556,141.94281)"/>
<use data-text="s" xlink:href="#font_12_5" transform="matrix(21.519246,0,0,-21.519398,1109.1007,141.94281)"/>
<use data-text=")" xlink:href="#font_12_6" transform="matrix(21.519246,0,0,-21.519398,1120.0875,141.94281)"/>
<use data-text="+" xlink:href="#font_12_1" transform="matrix(37.185197,0,0,-37.18505,128.25074,146.08234)"/>
<use data-text="+" xlink:href="#font_12_1" transform="matrix(37.185197,0,0,-37.18505,641.152,146.08234)"/>
<use data-text="G" xlink:href="#font_12_2" transform="matrix(21.519362,0,0,-21.519398,242.71637,141.94281)"/>
<use data-text="1" xlink:href="#font_12_3" transform="matrix(16.438399,0,0,-16.438426,259.1836,146.2438)"/>
<use data-text="(" xlink:href="#font_12_4" transform="matrix(21.519362,0,0,-21.519398,269.42619,141.94281)"/>
<use data-text="s" xlink:href="#font_12_5" transform="matrix(21.519362,0,0,-21.519398,278.9713,141.94281)"/>
<use data-text=")" xlink:href="#font_12_6" transform="matrix(21.519362,0,0,-21.519398,289.95829,141.94281)"/>
<use data-text="G" xlink:href="#font_12_2" transform="matrix(21.519362,0,0,-21.519398,499.16703,141.94281)"/>
<use data-text="2" xlink:href="#font_12_10" transform="matrix(16.438399,0,0,-16.438426,515.6343,146.17804)"/>
<use data-text="(" xlink:href="#font_12_4" transform="matrix(21.519362,0,0,-21.519398,525.87686,141.94281)"/>
<use data-text="s" xlink:href="#font_12_5" transform="matrix(21.519362,0,0,-21.519398,535.422,141.94281)"/>
<use data-text=")" xlink:href="#font_12_6" transform="matrix(21.519362,0,0,-21.519398,546.40896,141.94281)"/>
<path transform="matrix(1,0,0,-1,868.735,136.56154)" stroke-width=".75" stroke-linecap="round" stroke-linejoin="round" fill="none" stroke="#000000" d="M-626.29928-25.110369C-626.405-25.871676-625.2432-25.83674-625.85159-25.518132-606.7202-24.988053-588.01748-25.257107-570.98739-24.294219-554.52737-24.687842-556.0659-25.197258-555.1808-9.111063-555.7743-4.071652-555.4144 2.978921-556.28109 10.309087-555.31997 25.611536-555.7681 24.593312-569.9734 24.234377-588.2927 24.841773-608.3991 25.120648-625.98696 24.494877-641.6265 24.555798-640.7711 25.649813-640.93319 10.471076-640.1407 2.837866-640.8461-3.305449-641.4085-9.407701-640.7575-25.29887-641.5892-24.910279-626.29928-25.110369Z"/>
<path transform="matrix(1,0,0,-1,868.735,136.56154)" stroke-width=".75" stroke-linecap="round" stroke-linejoin="round" fill="none" stroke="#000000" d="M-369.6643-24.920363C-368.62986-24.101742-368.8063-24.547224-369.8639-24.894997-350.18263-24.366227-333.37528-25.481524-314.48695-24.50798-299.39588-24.869963-298.96549-24.16242-298.18305-10.903263-299.24974-2.694213-299.00285 3.837305-298.88038 10.562972-299.77058 24.525893-299.19233 24.261979-314.282 25.090392-332.1455 25.65951-350.67256 25.63919-368.65754 24.95308-384.75096 25.45829-383.77793 25.202445-384.8893 9.683782-385.00526 2.61107-384.8764-3.5851-383.76179-9.709662-384.53288-25.648318-384.30998-24.371319-369.6643-24.920363Z"/>
<path transform="matrix(1,0,0,-1,868.735,136.56154)" stroke-width=".75" stroke-linecap="round" stroke-linejoin="round" fill="none" stroke="#000000" d="M-704.3996 .757938C-705.4212 10.99289-714.58578 21.932969-726.2076 22.352849-738.61489 20.724989-747.48696 12.556855-748.0122-.886717-748.81759-11.42303-738.33047-21.143944-727.289-20.936839-715.38796-22.088759-704.97598-11.119374-704.3996 .757938Z"/>
<path transform="matrix(1,0,0,-1,868.735,136.56154)" stroke-width=".75" stroke-linecap="round" stroke-linejoin="round" fill="none" stroke="#000000" d="M-191.13391 .429635C-191.72309 12.06707-202.33533 22.370863-212.69669 21.657067-225.39508 21.007575-234.82366 12.614525-234.87073 .341729-235.63475-12.737718-226.1127-20.69485-213.18447-22.061066-202.34291-22.397742-191.23249-12.826252-191.13391 .429635Z"/>
<path transform="matrix(1,0,0,-1,868.735,136.56154)" stroke-width=".75" stroke-linecap="round" stroke-linejoin="round" fill="none" stroke="#000000" d="M-811.83578-.03776C-790.3964 .000935-769.9217-.233967-748.7638-.443416"/>
<path transform="matrix(1,0,0,-1,868.735,136.56154)" stroke-width=".75" stroke-linecap="round" stroke-linejoin="round" fill="none" stroke="#000000" d="M-761.57217-8.174359C-757.57626-3.944213-753.17056-1.393345-748.2588 .012162-753.7136 1.570237-757.61776 3.750196-761.514 7.853277"/>
<path transform="matrix(1,0,0,-1,868.735,136.56154)" stroke-width=".75" stroke-linecap="round" stroke-linejoin="round" fill="none" stroke="#000000" d="M-704.78347-.1263C-683.24606 .111092-662.5015-.410367-640.98587-.086218"/>
<path transform="matrix(1,0,0,-1,868.735,136.56154)" stroke-width=".75" stroke-linecap="round" stroke-linejoin="round" fill="none" stroke="#000000" d="M-653.95376-8.471501C-651.15249-4.366075-646.8589-1.119782-641.26486-.140874-646.201 1.414953-650.5447 4.334791-654.0657 7.666196"/>
<path transform="matrix(1,0,0,-1,868.735,136.56154)" stroke-width=".75" stroke-linecap="round" stroke-linejoin="round" fill="none" stroke="#000000" d="M-554.97958-.349273C-534.4655-.135379-513.4546-.342289-492.28239-.433211"/>
<path transform="matrix(1,0,0,-1,868.735,136.56154)" stroke-width=".75" stroke-linecap="round" stroke-linejoin="round" fill="none" stroke="#000000" d="M-504.28788-8.28318C-501.1154-4.186928-497.23466-1.326671-491.79173 .312084-497.4474 1.384445-501.84648 3.790904-504.54866 8.066018"/>
<path transform="matrix(1,0,0,-1,868.735,136.56154)" stroke-width=".75" stroke-linecap="round" stroke-linejoin="round" fill="none" stroke="#000000" d="M-448.69285 .446508C-427.19953-.373152-406.47297-.231014-385.1946-.055318"/>
<path transform="matrix(1,0,0,-1,868.735,136.56154)" stroke-width=".75" stroke-linecap="round" stroke-linejoin="round" fill="none" stroke="#000000" d="M-397.46937-8.239431C-394.62104-4.022655-389.70085-.845956-385.19429-.1202-389.61985 .889853-394.28794 3.976555-397.86158 8.053498"/>
<path transform="matrix(1,0,0,-1,868.735,136.56154)" stroke-width=".75" stroke-linecap="round" stroke-linejoin="round" fill="none" stroke="#000000" d="M-298.73847-.057106C-277.40934 .100795-257.08226-.198729-235.41527 .311149"/>
<path transform="matrix(1,0,0,-1,868.735,136.56154)" stroke-width=".75" stroke-linecap="round" stroke-linejoin="round" fill="none" stroke="#000000" d="M-247.8125-7.642363C-245.02397-3.967763-240.24726-1.495177-235.85967 .41307-240.26213 1.337235-244.69847 4.176075-247.99784 8.43262"/>
<path transform="matrix(1,0,0,-1,868.735,136.56154)" stroke-width=".75" stroke-linecap="round" stroke-linejoin="round" fill="none" stroke="#000000" d="M-191.83152-.436633C-171.16017-.011603-149.97418 .13189-128.55153-.318954"/>
<path transform="matrix(1,0,0,-1,868.735,136.56154)" stroke-width=".75" stroke-linecap="round" stroke-linejoin="round" fill="none" stroke="#000000" d="M-140.88123-8.203166C-137.75414-3.903286-133.5063-1.505538-128.54149-.378344-133.7013 1.060981-137.82649 4.005299-141.35193 7.871547"/>
<path transform="matrix(1,0,0,-1,868.735,136.56154)" stroke-width=".75" stroke-linecap="round" stroke-linejoin="round" fill="none" stroke="#000000" d="M-43.294389-92.357479C-99.52216-92.60985-156.52054-92.13143-213.67676-91.993709-213.1375-68.81761-213.7564-45.922739-213.64974-21.689595"/>
<path transform="matrix(1,0,0,-1,868.735,136.56154)" stroke-width=".75" stroke-linecap="round" stroke-linejoin="round" fill="none" stroke="#000000" d="M-205.48604-34.58142C-209.5156-31.45674-212.82372-27.03215-213.22115-21.994082-214.65177-27.454499-217.49051-31.379965-221.54738-34.41755"/>
<path transform="matrix(1,0,0,-1,868.735,136.56154)" stroke-width=".75" stroke-linecap="round" stroke-linejoin="round" fill="none" stroke="#000000" d="M-384.80308-185.14803C-499.10066-185.21822-612.9375-185.13805-726.5996-184.55045-726.0494-130.37903-726.3646-76.47282-726.7866-22.240656"/>
<path transform="matrix(1,0,0,-1,868.735,136.56154)" stroke-width=".75" stroke-linecap="round" stroke-linejoin="round" fill="none" stroke="#000000" d="M-718.5023-34.539777C-722.24057-31.81758-725.3631-27.228505-726.00979-21.720606-727.9222-27.16336-730.69686-31.854399-734.1568-34.39535"/>
<path transform="matrix(1,0,0,-1,868.735,136.56154)" stroke-width=".75" stroke-linecap="round" stroke-linejoin="round" fill="none" stroke="#000000" d="M-626.37368-24.328574C-626.61019-24.85278-626.0218-24.560196-625.05776-25.225138-607.87289-24.649189-589.758-25.515164-570.41506-25.746764-555.7986-24.012753-555.39108-24.259203-555.35549-9.227072-555.2381-4.105799-555.38577 3.310055-554.47189 9.424351-555.2872 25.736649-554.63888 25.266352-570.04757 24.304438-589.12136 24.440724-607.8418 25.047059-625.4234 24.705954-641.18649 25.516308-641.11599 24.45553-640.60067 9.583601-640.99447 4.031013-641.77169-2.791199-641.2906-9.450807-641.63467-25.210558-641.05838-25.857508-626.37368-24.328574Z"/>
<path transform="matrix(1,0,0,-1,868.735,136.56154)" stroke-width=".75" stroke-linecap="round" stroke-linejoin="round" fill="none" stroke="#000000" d="M-369.2038-24.890295C-369.1684-25.200957-369.23027-24.60884-369.93937-25.81039-351.6991-24.732811-333.0949-24.532883-314.08799-24.774012-298.902-25.647246-298.74467-25.314875-299.5827-9.375634-298.89216-3.62018-299.64155 2.358887-298.3191 9.130375-298.05558 24.928109-298.78126 25.678732-313.10035 24.244206-332.29844 24.252764-351.92738 24.543017-368.6834 25.155316-383.93406 25.10227-383.94273 24.874222-385.03938 9.338076-384.1732 2.555837-385.0182-3.676421-383.9637-9.598918-384.17198-24.137887-384.44703-24.406212-369.2038-24.890295Z"/>
<path transform="matrix(1,0,0,-1,868.735,136.56154)" stroke-width=".75" stroke-linecap="round" stroke-linejoin="round" fill="none" stroke="#000000" d="M-704.691 .024824C-704.8989 11.430952-715.2467 21.35933-726.8089 22.038464-738.9377 21.974284-748.40609 11.641732-749.0523-.107201-747.20956-12.31156-737.92166-21.794077-725.6564-21.9118-713.7435-20.823397-704.15359-12.602212-704.691 .024824Z"/>
<path transform="matrix(1,0,0,-1,868.735,136.56154)" stroke-width=".75" stroke-linecap="round" stroke-linejoin="round" fill="none" stroke="#000000" d="M-191.86833 .435458C-192.43279 12.517077-202.16306 21.625983-213.56267 22.5829-225.3086 21.522437-235.9534 12.788534-236.04985 .224667-235.24907-10.980945-226.30699-21.86733-213.26697-21.055453-202.15116-22.22915-191.86972-11.810217-191.86833 .435458Z"/>
<path transform="matrix(1,0,0,-1,868.735,136.56154)" stroke-width=".75" stroke-linecap="round" stroke-linejoin="round" fill="none" stroke="#000000" d="M-811.475 .160478C-791.0553-.15849-769.8881 .207264-748.14437 .332478"/>
<path transform="matrix(1,0,0,-1,868.735,136.56154)" stroke-width=".75" stroke-linecap="round" stroke-linejoin="round" fill="none" stroke="#000000" d="M-761.3675-7.708853C-757.88278-4.081929-753.06777-.953426-748.22579-.423746-753.33737 1.556663-757.8923 3.928574-761.15939 8.111562"/>
<path transform="matrix(1,0,0,-1,868.735,136.56154)" stroke-width=".75" stroke-linecap="round" stroke-linejoin="round" fill="none" stroke="#000000" d="M-704.42086-.137072C-683.867 .086863-662.6628 .263895-641.0006 .350415"/>
<path transform="matrix(1,0,0,-1,868.735,136.56154)" stroke-width=".75" stroke-linecap="round" stroke-linejoin="round" fill="none" stroke="#000000" d="M-654.2679-8.249183C-651.16598-4.149882-646.15969-1.373859-641.3819-.14865-646.67166 1.3719-651.1626 3.553336-653.97799 8.037826"/>
<path transform="matrix(1,0,0,-1,868.735,136.56154)" stroke-width=".75" stroke-linecap="round" stroke-linejoin="round" fill="none" stroke="#000000" d="M-555.0741 .247417C-534.3329-.423864-513.4796-.128436-492.24388 .093575"/>
<path transform="matrix(1,0,0,-1,868.735,136.56154)" stroke-width=".75" stroke-linecap="round" stroke-linejoin="round" fill="none" stroke="#000000" d="M-504.36677-7.877936C-501.47456-4.095606-496.85639-1.504559-491.76 .119337-497.09703 1.561657-501.671 3.603159-504.8148 8.182433"/>
<path transform="matrix(1,0,0,-1,868.735,136.56154)" stroke-width=".75" stroke-linecap="round" stroke-linejoin="round" fill="none" stroke="#000000" d="M-447.94889-.06217C-426.86625-.201996-406.0855 .081403-384.70487-.39397"/>
<path transform="matrix(1,0,0,-1,868.735,136.56154)" stroke-width=".75" stroke-linecap="round" stroke-linejoin="round" fill="none" stroke="#000000" d="M-397.3197-8.094937C-394.68128-4.375422-389.96519-.987455-385.32099-.370999-390.35408 1.428639-394.7678 3.592803-397.44645 7.91195"/>
<path transform="matrix(1,0,0,-1,868.735,136.56154)" stroke-width=".75" stroke-linecap="round" stroke-linejoin="round" fill="none" stroke="#000000" d="M-298.8724 .047825C-278.20014-.324059-256.8531-.246974-235.26451-.18895"/>
<path transform="matrix(1,0,0,-1,868.735,136.56154)" stroke-width=".75" stroke-linecap="round" stroke-linejoin="round" fill="none" stroke="#000000" d="M-248.65424-7.611119C-244.83789-4.325052-240.60913-1.294167-235.50734-.149756-240.26529 1.593715-244.6781 3.859415-247.86394 7.630184"/>
<path transform="matrix(1,0,0,-1,868.735,136.56154)" stroke-width=".75" stroke-linecap="round" stroke-linejoin="round" fill="none" stroke="#000000" d="M-191.78887-.329731C-170.62218-.217997-149.38195-.257534-128.42647 .136592"/>
<path transform="matrix(1,0,0,-1,868.735,136.56154)" stroke-width=".75" stroke-linecap="round" stroke-linejoin="round" fill="none" stroke="#000000" d="M-141.53629-8.489885C-137.68453-3.757794-133.24529-.787944-128.59307-.09388-133.42234 1.122059-137.94353 3.762098-141.4301 8.151548"/>
<path transform="matrix(1,0,0,-1,868.735,136.56154)" stroke-width=".75" stroke-linecap="round" stroke-linejoin="round" fill="none" stroke="#000000" d="M-42.82711-92.12986C-99.58907-92.13021-156.4068-92.5085-213.9688-92.75526-213.41194-69.2032-213.22483-45.597894-213.7835-21.572896"/>
<path transform="matrix(1,0,0,-1,868.735,136.56154)" stroke-width=".75" stroke-linecap="round" stroke-linejoin="round" fill="none" stroke="#000000" d="M-205.66603-34.39226C-209.96677-31.36458-212.47046-27.46242-213.91056-21.630673-214.5419-26.901646-217.52462-31.468985-221.47733-35.032255"/>
<path transform="matrix(1,0,0,-1,868.735,136.56154)" stroke-width=".75" stroke-linecap="round" stroke-linejoin="round" fill="none" stroke="#000000" d="M-385.13468-185.11138C-498.65046-185.15564-612.8299-185.04772-726.8427-184.60106-726.2309-130.55672-726.4161-76.42617-726.75057-22.342055"/>
<path transform="matrix(1,0,0,-1,868.735,136.56154)" stroke-width=".75" stroke-linecap="round" stroke-linejoin="round" fill="none" stroke="#000000" d="M-718.0545-34.754938C-722.6989-31.21216-724.88308-26.968163-726.5482-22.085246-727.6304-26.640402-730.42886-31.416813-734.2102-34.821847"/>
<path transform="matrix(1,0,0,-1,868.735,136.56154)" stroke-width=".75" stroke-linecap="round" stroke-linejoin="round" fill="none" stroke="#000000" d="M-626.96737-24.352814C-626.9125-24.298539-626.1985-24.555159-625.4097-25.518033-608.28939-25.276988-589.36526-25.835536-570.7013-24.813868-556.0451-25.285756-555.84249-25.784876-555.41159-10.098973-554.9044-2.863982-554.80599 4.089717-556.1081 10.055788-554.66238 25.833825-555.27206 24.999268-569.707 24.64222-589.6383 25.460392-608.2231 24.7296-625.9163 25.438979-641.403 25.297636-641.88937 24.863253-641.6898 9.958792-641.3739 4.097878-641.98709-2.383587-640.5706-9.793561-640.4094-25.241808-640.2722-24.570155-626.96737-24.352814Z"/>
<path transform="matrix(1,0,0,-1,868.735,136.56154)" stroke-width=".75" stroke-linecap="round" stroke-linejoin="round" fill="none" stroke="#000000" d="M-370.16368-25.348183C-370.3423-24.671742-368.699-25.46923-368.8307-25.06318-350.75804-24.56232-332.131-24.243857-313.9689-25.080332-299.0579-25.496743-299.32456-25.525649-298.91795-8.990447-298.51026-3.314937-299.60658 3.903176-299.45518 10.499725-298.46565 25.124039-299.59004 24.159708-313.1201 24.357483-331.6461 24.741003-350.57728 25.057963-370.38996 25.278424-385.2665 25.568993-383.71607 24.238518-384.42726 9.363228-385.11595 3.460045-385.1147-3.44092-384.1577-10.078171-384.51957-25.671103-385.49839-25.657816-370.16368-25.348183Z"/>
<path transform="matrix(1,0,0,-1,868.735,136.56154)" stroke-width=".75" stroke-linecap="round" stroke-linejoin="round" fill="none" stroke="#000000" d="M-704.0058 .251958C-705.30258 12.429969-713.64889 21.965287-726.02969 22.601277-738.3099 21.209977-748.4629 11.219425-748.6891 .462891-747.4279-12.600884-738.3275-21.064286-726.2594-22.109173-715.2112-22.35532-704.4831-11.014027-704.0058 .251958Z"/>
<path transform="matrix(1,0,0,-1,868.735,136.56154)" stroke-width=".75" stroke-linecap="round" stroke-linejoin="round" fill="none" stroke="#000000" d="M-192.60024-.115327C-191.4604 12.732554-202.04375 21.637967-214.03598 20.983605-224.70862 21.347414-235.24825 12.018439-234.79486 .284343-235.81682-12.069023-226.07474-22.362179-212.91686-22.324709-200.74448-21.385544-192.75156-12.727356-192.60024-.115327Z"/>
<path transform="matrix(1,0,0,-1,868.735,136.56154)" stroke-width=".75" stroke-linecap="round" stroke-linejoin="round" fill="none" stroke="#000000" d="M-812.0847 .275154C-791.0368 .234265-769.67056-.312585-748.21206-.007786"/>
<path transform="matrix(1,0,0,-1,868.735,136.56154)" stroke-width=".75" stroke-linecap="round" stroke-linejoin="round" fill="none" stroke="#000000" d="M-760.7798-8.414578C-757.5889-4.129597-753.8077-1.163279-748.8215 .013287-753.55038 .729982-757.7092 4.108997-760.8673 8.49159"/>
<path transform="matrix(1,0,0,-1,868.735,136.56154)" stroke-width=".75" stroke-linecap="round" stroke-linejoin="round" fill="none" stroke="#000000" d="M-705.14126 .436591C-683.7677-.062877-662.0997 .259381-641.56649-.003693"/>
<path transform="matrix(1,0,0,-1,868.735,136.56154)" stroke-width=".75" stroke-linecap="round" stroke-linejoin="round" fill="none" stroke="#000000" d="M-654.44247-7.900083C-650.94277-3.610768-646.36978-.945183-641.1866 .395346-646.7219 .827828-651.173 3.924568-653.8808 8.417139"/>
<path transform="matrix(1,0,0,-1,868.735,136.56154)" stroke-width=".75" stroke-linecap="round" stroke-linejoin="round" fill="none" stroke="#000000" d="M-555.5664 .231751C-534.21176 .224185-512.94778 .424804-492.0675 .000294"/>
<path transform="matrix(1,0,0,-1,868.735,136.56154)" stroke-width=".75" stroke-linecap="round" stroke-linejoin="round" fill="none" stroke="#000000" d="M-504.97554-8.337138C-501.1665-4.429347-496.8873-1.574142-492.42018-.23346-496.725 .858506-501.33567 3.620125-504.48783 7.898958"/>
<path transform="matrix(1,0,0,-1,868.735,136.56154)" stroke-width=".75" stroke-linecap="round" stroke-linejoin="round" fill="none" stroke="#000000" d="M-448.58369 .209495C-427.4005-.16642-406.38133-.421748-384.65937 .395612"/>
<path transform="matrix(1,0,0,-1,868.735,136.56154)" stroke-width=".75" stroke-linecap="round" stroke-linejoin="round" fill="none" stroke="#000000" d="M-397.28767-8.039085C-393.99003-3.710827-389.95304-.907999-385.29689 .335532-389.65989 .994474-394.3395 4.405942-397.6146 8.313001"/>
<path transform="matrix(1,0,0,-1,868.735,136.56154)" stroke-width=".75" stroke-linecap="round" stroke-linejoin="round" fill="none" stroke="#000000" d="M-298.73674 .153448C-277.39347 .10229-256.7861 .108427-235.53237 .230651"/>
<path transform="matrix(1,0,0,-1,868.735,136.56154)" stroke-width=".75" stroke-linecap="round" stroke-linejoin="round" fill="none" stroke="#000000" d="M-248.1088-8.202769C-244.64185-4.308742-240.181-1.108808-235.43105 .019002-241.02788 .878863-245.03679 3.973475-247.89679 7.96512"/>
<path transform="matrix(1,0,0,-1,868.735,136.56154)" stroke-width=".75" stroke-linecap="round" stroke-linejoin="round" fill="none" stroke="#000000" d="M-191.76703 .090759C-170.49124 .192419-149.82666-.268149-128.70064 .42973"/>
<path transform="matrix(1,0,0,-1,868.735,136.56154)" stroke-width=".75" stroke-linecap="round" stroke-linejoin="round" fill="none" stroke="#000000" d="M-141.27178-8.343831C-138.22187-4.118715-133.3288-.987408-128.26541 .021333-133.30632 .926359-137.9773 4.364846-141.06241 8.323767"/>
<path transform="matrix(1,0,0,-1,868.735,136.56154)" stroke-width=".75" stroke-linecap="round" stroke-linejoin="round" fill="none" stroke="#000000" d="M-42.650369-92.486789C-100.23906-92.61623-156.62087-92.09912-213.28273-92.14226-213.32663-69.13269-213.66469-45.312887-213.82584-21.577757"/>
<path transform="matrix(1,0,0,-1,868.735,136.56154)" stroke-width=".75" stroke-linecap="round" stroke-linejoin="round" fill="none" stroke="#000000" d="M-205.05912-34.768C-209.88539-31.599452-212.58113-26.963776-213.29543-22.098048-214.9629-27.069302-217.59607-31.86693-221.97403-34.712495"/>
<path transform="matrix(1,0,0,-1,868.735,136.56154)" stroke-width=".75" stroke-linecap="round" stroke-linejoin="round" fill="none" stroke="#000000" d="M-384.4872-185.09496C-499.03886-184.45032-612.7537-184.97928-726.40786-184.3949-726.6043-130.8558-726.6208-76.26436-726.7669-21.80639"/>
<path transform="matrix(1,0,0,-1,868.735,136.56154)" stroke-width=".75" stroke-linecap="round" stroke-linejoin="round" fill="none" stroke="#000000" d="M-718.5657-34.9534C-722.3025-31.625779-724.9894-26.745474-726.21957-21.942177-727.68637-27.014668-730.0731-31.489974-734.31637-34.56193"/>
<path transform="matrix(1,0,0,-1,868.735,136.56154)" stroke-width=".75" stroke-linecap="round" stroke-linejoin="round" fill="none" stroke="#000000" d="M-625.5595-25.859507C-625.95016-25.734259-626.76199-24.520182-626.9965-25.849864-606.7688-25.152926-588.2762-25.223973-570.2018-24.026797-556.37228-25.091914-554.65249-25.05282-556.2546-10.609946-555.11117-4.052395-555.39199 3.875713-555.4699 9.326279-555.47268 24.644288-555.852 24.545449-571.3034 24.839097-588.1554 25.2278-606.82266 25.43848-626.8258 24.972937-640.5345 24.776574-641.65689 25.664282-641.94918 9.128616-641.03488 2.4744-641.0653-3.598361-641.43197-10.521765-640.08999-25.177157-640.1662-24.634184-625.5595-25.859507Z"/>
<path transform="matrix(1,0,0,-1,868.735,136.56154)" stroke-width=".75" stroke-linecap="round" stroke-linejoin="round" fill="none" stroke="#000000" d="M-369.75419-25.493575C-370.5074-25.89047-369.79209-25.831437-370.31724-25.641585-351.23268-24.62202-332.16139-25.154278-313.79167-25.454119-299.00093-24.45999-298.0225-24.104275-298.79185-10.786205-299.0375-2.717187-298.8825 2.428932-298.85166 9.245763-298.5158 23.976136-298.7443 24.258599-314.31858 24.271672-332.23786 25.905467-351.40754 24.64428-369.5904 25.245085-384.15147 24.97607-384.23545 25.48294-384.68467 9.502526-384.7668 2.978954-384.06089-2.838575-385.08839-9.697936-384.38926-25.550467-384.421-24.460804-369.75419-25.493575Z"/>
<path transform="matrix(1,0,0,-1,868.735,136.56154)" stroke-width=".75" stroke-linecap="round" stroke-linejoin="round" fill="none" stroke="#000000" d="M-704.2605 .032889C-704.42977 12.300395-714.31326 21.512146-726.9474 20.718127-737.78457 21.217835-748.9196 11.769295-748.43807 .770139-747.68899-12.133463-738.06967-21.116286-727.3547-21.108153-714.80166-21.00147-704.9626-11.221371-704.2605 .032889Z"/>
<path transform="matrix(1,0,0,-1,868.735,136.56154)" stroke-width=".75" stroke-linecap="round" stroke-linejoin="round" fill="none" stroke="#000000" d="M-191.24726-.036183C-191.3651 12.196303-202.09847 21.783766-212.76572 22.519579-225.16338 22.148047-236.12075 12.807999-235.91638 .321285-234.46988-12.607163-224.69303-22.477316-214.25737-22.294177-202.10567-21.265822-192.58148-12.183472-191.24726-.036183Z"/>
<path transform="matrix(1,0,0,-1,868.735,136.56154)" stroke-width=".75" stroke-linecap="round" stroke-linejoin="round" fill="none" stroke="#000000" d="M-812.31948-.437606C-790.8315-.235956-769.3162 .101492-748.2343-.231279"/>
<path transform="matrix(1,0,0,-1,868.735,136.56154)" stroke-width=".75" stroke-linecap="round" stroke-linejoin="round" fill="none" stroke="#000000" d="M-760.84359-8.140425C-758.3155-4.142721-753.3563-.90659-748.2852-.289834-753.288 .726631-757.7177 3.617421-761.38546 8.260323"/>
<path transform="matrix(1,0,0,-1,868.735,136.56154)" stroke-width=".75" stroke-linecap="round" stroke-linejoin="round" fill="none" stroke="#000000" d="M-705.02206 .312455C-683.75076-.367141-662.14328 .211514-641.4871 .309743"/>
<path transform="matrix(1,0,0,-1,868.735,136.56154)" stroke-width=".75" stroke-linecap="round" stroke-linejoin="round" fill="none" stroke="#000000" d="M-654.37246-8.509625C-650.9636-3.879839-646.64846-1.437196-641.39126 .077237-646.6952 1.442492-650.93167 3.583115-654.04336 8.29591"/>
<path transform="matrix(1,0,0,-1,868.735,136.56154)" stroke-width=".75" stroke-linecap="round" stroke-linejoin="round" fill="none" stroke="#000000" d="M-555.6605-.291122C-534.0047-.078462-513.3316-.342142-492.42469 .072104"/>
<path transform="matrix(1,0,0,-1,868.735,136.56154)" stroke-width=".75" stroke-linecap="round" stroke-linejoin="round" fill="none" stroke="#000000" d="M-504.9793-8.143801C-501.1636-3.967335-497.18629-1.175588-491.98738-.256812-497.0645 1.38994-501.30213 4.414573-504.62123 7.672912"/>
<path transform="matrix(1,0,0,-1,868.735,136.56154)" stroke-width=".75" stroke-linecap="round" stroke-linejoin="round" fill="none" stroke="#000000" d="M-448.5363-.124306C-427.5964 .265115-405.86259 .226257-384.93934 .329979"/>
<path transform="matrix(1,0,0,-1,868.735,136.56154)" stroke-width=".75" stroke-linecap="round" stroke-linejoin="round" fill="none" stroke="#000000" d="M-397.72108-7.666799C-394.4024-4.377174-390.26734-.881252-384.62934-.037476-390.23799 .956278-394.7659 4.097189-397.51829 8.034677"/>
<path transform="matrix(1,0,0,-1,868.735,136.56154)" stroke-width=".75" stroke-linecap="round" stroke-linejoin="round" fill="none" stroke="#000000" d="M-298.97099 .363499C-278.1922-.307721-256.79124-.418532-235.9094-.280519"/>
<path transform="matrix(1,0,0,-1,868.735,136.56154)" stroke-width=".75" stroke-linecap="round" stroke-linejoin="round" fill="none" stroke="#000000" d="M-248.26183-8.22827C-245.08159-3.754868-240.52144-.746724-235.23748 .157558-240.91349 1.121531-245.3528 3.724379-247.9316 7.804232"/>
<path transform="matrix(1,0,0,-1,868.735,136.56154)" stroke-width=".75" stroke-linecap="round" stroke-linejoin="round" fill="none" stroke="#000000" d="M-191.68338-.064567C-170.88558 .393613-149.77837-.38568-128.11728-.320457"/>
<path transform="matrix(1,0,0,-1,868.735,136.56154)" stroke-width=".75" stroke-linecap="round" stroke-linejoin="round" fill="none" stroke="#000000" d="M-140.98667-8.268826C-138.34244-4.126878-133.837-1.126033-128.64243-.134855-133.7253 .710055-137.56557 3.849429-140.90259 7.902229"/>
<path transform="matrix(1,0,0,-1,868.735,136.56154)" stroke-width=".75" stroke-linecap="round" stroke-linejoin="round" fill="none" stroke="#000000" d="M-43.224084-92.1772C-99.676548-92.677608-156.31488-92.42773-213.77178-92.74956-213.65048-68.74008-213.74997-45.469614-213.39443-22.262368"/>
<path transform="matrix(1,0,0,-1,868.735,136.56154)" stroke-width=".75" stroke-linecap="round" stroke-linejoin="round" fill="none" stroke="#000000" d="M-205.29894-35.124147C-209.84989-31.948552-212.0515-26.928883-213.63898-21.861233-214.91445-27.29696-217.70616-31.826584-221.83625-34.974519"/>
<path transform="matrix(1,0,0,-1,868.735,136.56154)" stroke-width=".75" stroke-linecap="round" stroke-linejoin="round" fill="none" stroke="#000000" d="M-385.0437-184.88436C-498.71183-184.40627-612.7164-185.06516-726.3542-184.51003-726.3818-130.72568-726.0501-75.92926-726.2253-22.325367"/>
<path transform="matrix(1,0,0,-1,868.735,136.56154)" stroke-width=".75" stroke-linecap="round" stroke-linejoin="round" fill="none" stroke="#000000" d="M-718.1005-34.309694C-722.5011-31.128537-725.59286-26.622216-726.67416-21.943272-727.58578-27.069979-730.57369-31.458182-734.6776-34.564634"/>
<path transform="matrix(1,0,0,-1,868.735,136.56154)" stroke-width=".75" stroke-linecap="round" stroke-linejoin="round" fill="none" stroke="#000000" d="M-625.6443-25.259709C-626.1564-24.151972-626.11178-25.00013-625.72659-25.030457-607.3497-25.668257-588.0366-25.438057-570.25497-25.647864-554.8405-25.337309-555.64797-24.32739-555.8914-10.668205-555.19699-2.866491-555.8058 4.117516-554.50357 9.417116-554.6636 24.95674-555.6936 25.659722-569.7883 24.217759-588.6224 24.044129-607.067 24.252629-626.5103 24.352269-641.2179 25.352038-641.21707 25.292452-641.0131 10.230711-640.30087 3.939217-640.9762-2.923244-640.95138-9.432491-641.36679-25.74648-641.6945-24.113034-625.6443-25.259709Z"/>
<path transform="matrix(1,0,0,-1,868.735,136.56154)" stroke-width=".75" stroke-linecap="round" stroke-linejoin="round" fill="none" stroke="#000000" d="M-370.45326-25.67764C-369.36824-25.319037-368.6882-24.772858-369.12339-25.275416-351.2948-24.397038-331.9722-24.4963-313.02326-25.582446-298.08018-25.352843-299.32203-25.232983-298.74928-10.219298-298.27665-2.341434-299.07875 2.74767-298.08815 9.603536-298.59919 24.48252-299.80006 24.784136-314.3195 24.539216-332.0636 24.676066-351.06208 25.854998-370.06517 24.247832-385.03169 25.289914-384.6865 24.119404-384.29075 10.112173-385.26805 2.929546-385.54255-3.95712-384.52507-9.760163-384.9729-24.808962-384.5148-24.190665-370.45326-25.67764Z"/>
<path transform="matrix(1,0,0,-1,868.735,136.56154)" stroke-width=".75" stroke-linecap="round" stroke-linejoin="round" fill="none" stroke="#000000" d="M-705.3638 .349359C-704.27218 12.508041-714.6877 21.77168-725.75 21.98545-739.05697 22.55702-748.87136 12.217544-747.77359-.871413-748.73709-12.121238-738.862-22.376523-726.3335-21.107195-715.1714-21.637087-704.27926-11.286671-705.3638 .349359Z"/>
<path transform="matrix(1,0,0,-1,868.735,136.56154)" stroke-width=".75" stroke-linecap="round" stroke-linejoin="round" fill="none" stroke="#000000" d="M-191.70896 .105822C-192.78205 12.713702-201.41652 21.428824-214.25493 22.126715-224.7784 22.385764-234.87944 11.518355-235.98529-.207158-234.33042-11.094856-225.0938-21.098149-212.63397-21.454545-200.9566-22.054669-191.71804-12.561948-191.70896 .105822Z"/>
<path transform="matrix(1,0,0,-1,868.735,136.56154)" stroke-width=".75" stroke-linecap="round" stroke-linejoin="round" fill="none" stroke="#000000" d="M-812.19418-.389955C-790.65206 .374471-769.83926-.372815-748.4202 .138592"/>
<path transform="matrix(1,0,0,-1,868.735,136.56154)" stroke-width=".75" stroke-linecap="round" stroke-linejoin="round" fill="none" stroke="#000000" d="M-761.47647-8.097466C-758.3149-3.570462-753.7626-1.307217-748.52426 .230639-753.1098 1.419087-758.3258 4.267382-761.287 8.106069"/>
<path transform="matrix(1,0,0,-1,868.735,136.56154)" stroke-width=".75" stroke-linecap="round" stroke-linejoin="round" fill="none" stroke="#000000" d="M-704.9626-.432333C-683.88949-.438247-662.53726 .395524-641.401-.074491"/>
<path transform="matrix(1,0,0,-1,868.735,136.56154)" stroke-width=".75" stroke-linecap="round" stroke-linejoin="round" fill="none" stroke="#000000" d="M-653.8083-8.187333C-650.58456-3.830469-646.43887-1.359607-641.53427-.443149-646.4344 1.414381-651.29177 4.114725-653.6303 8.037169"/>
<path transform="matrix(1,0,0,-1,868.735,136.56154)" stroke-width=".75" stroke-linecap="round" stroke-linejoin="round" fill="none" stroke="#000000" d="M-555.4765 .238188C-534.33767 .218294-513.08126-.4179-492.2475 .001723"/>
<path transform="matrix(1,0,0,-1,868.735,136.56154)" stroke-width=".75" stroke-linecap="round" stroke-linejoin="round" fill="none" stroke="#000000" d="M-504.71449-8.352574C-501.33494-4.299144-497.1195-.872578-491.7981 .212-497.30339 1.535671-501.27543 3.966261-504.5561 7.856005"/>
<path transform="matrix(1,0,0,-1,868.735,136.56154)" stroke-width=".75" stroke-linecap="round" stroke-linejoin="round" fill="none" stroke="#000000" d="M-448.72306 .106849C-427.41496-.11975-405.69429-.153773-385.0548 .242168"/>
<path transform="matrix(1,0,0,-1,868.735,136.56154)" stroke-width=".75" stroke-linecap="round" stroke-linejoin="round" fill="none" stroke="#000000" d="M-398.00273-7.782651C-394.265-3.85219-389.53169-.870228-385.1464-.338645-389.62297 .83915-394.53846 4.061107-397.8592 7.749655"/>
<path transform="matrix(1,0,0,-1,868.735,136.56154)" stroke-width=".75" stroke-linecap="round" stroke-linejoin="round" fill="none" stroke="#000000" d="M-298.87675-.258661C-277.70454 .293885-256.57945-.091212-235.43695-.360636"/>
<path transform="matrix(1,0,0,-1,868.735,136.56154)" stroke-width=".75" stroke-linecap="round" stroke-linejoin="round" fill="none" stroke="#000000" d="M-248.44454-7.62482C-244.83573-3.604263-240.31082-.860776-235.25505-.079557-241.03429 .994733-245.19466 3.834593-247.88466 8.43048"/>
<path transform="matrix(1,0,0,-1,868.735,136.56154)" stroke-width=".75" stroke-linecap="round" stroke-linejoin="round" fill="none" stroke="#000000" d="M-191.59134-.315051C-170.4014 .12438-149.2998-.119958-128.12442-.293752"/>
<path transform="matrix(1,0,0,-1,868.735,136.56154)" stroke-width=".75" stroke-linecap="round" stroke-linejoin="round" fill="none" stroke="#000000" d="M-141.37085-8.132789C-137.74582-4.209436-133.87604-.794735-128.08824-.152511-133.46456 .949762-137.74434 4.339188-140.894 7.745159"/>
<path transform="matrix(1,0,0,-1,868.735,136.56154)" stroke-width=".75" stroke-linecap="round" stroke-linejoin="round" fill="none" stroke="#000000" d="M-43.24647-92.18788C-100.14278-91.979549-156.53482-92.80456-213.82132-92.20829-213.32901-69.21471-213.40766-45.66452-213.11438-21.882599"/>
<path transform="matrix(1,0,0,-1,868.735,136.56154)" stroke-width=".75" stroke-linecap="round" stroke-linejoin="round" fill="none" stroke="#000000" d="M-205.28917-34.637689C-209.89441-31.304259-212.6752-27.189312-213.33792-21.800332-214.74022-26.898556-217.7461-31.516922-221.80524-35.101385"/>
<path transform="matrix(1,0,0,-1,868.735,136.56154)" stroke-width=".75" stroke-linecap="round" stroke-linejoin="round" fill="none" stroke="#000000" d="M-384.6864-184.47432C-499.05387-184.98194-612.1599-184.64698-726.8723-184.73346-726.8158-130.1366-726.51278-76.167987-726.514-22.256482"/>
<path transform="matrix(1,0,0,-1,868.735,136.56154)" stroke-width=".75" stroke-linecap="round" stroke-linejoin="round" fill="none" stroke="#000000" d="M-718.8058-34.95094C-722.8382-31.814063-725.1261-26.625569-726.38449-22.218937-727.4117-26.94076-730.26358-31.209233-734.2471-34.559206"/>
<use data-text="+" xlink:href="#font_12_1" transform="matrix(21.519354,0,0,-21.519316,104.24097,128.81873)"/>
<use data-text="&#x2212;" xlink:href="#font_12_7" transform="matrix(21.519371,0,0,-21.519288,148.44013,167.17093)"/>
<use data-text="+" xlink:href="#font_12_1" transform="matrix(21.519354,0,0,-21.519316,617.1422,128.8187)"/>
<use data-text="&#x2212;" xlink:href="#font_12_7" transform="matrix(21.519371,0,0,-21.519288,661.34146,167.17093)"/>
<use data-text="1" xlink:href="#font_12_13" transform="matrix(21.519343,0,0,-21.519562,948.691,38.297609)"/>
<path transform="matrix(1.500003,0,0,-1.5000182,926.25399,44.15265)" stroke-width=".574019" stroke-linecap="butt" stroke-linejoin="round" fill="none" stroke="#000000" d="M0 0H37.076936"/>
<use data-text="G" xlink:href="#font_12_2" transform="matrix(21.519343,0,0,-21.519562,926.25399,60.77072)"/>
<use data-text="4" xlink:href="#font_12_14" transform="matrix(16.438384,0,0,-16.43855,942.7376,64.94025)"/>
<use data-text="(" xlink:href="#font_12_4" transform="matrix(21.519343,0,0,-21.519562,952.98019,60.77072)"/>
<use data-text="s" xlink:href="#font_12_5" transform="matrix(21.519343,0,0,-21.519562,962.5252,60.77072)"/>
<use data-text=")" xlink:href="#font_12_6" transform="matrix(21.519343,0,0,-21.519562,973.51217,60.77072)"/>
<path transform="matrix(1,0,0,-1,868.735,136.56153)" stroke-width=".75" stroke-linecap="round" stroke-linejoin="round" fill="none" stroke="#000000" d="M57.515813 56.782403C58.44394 56.921827 57.94508 56.423215 58.346239 55.9 75.694988 56.23333 94.68763 55.91146 113.512149 56.167684 127.78538 56.530755 127.70258 56.813474 127.5574 71.8389 128.55467 85.76372 127.77338 98.767208 127.68913 114.12454 128.4108 128.27277 127.26094 128.88022 112.277858 128.81328 95.35184 128.77782 75.405048 129.05934 56.86613 127.79265 42.449007 128.55742 42.007364 129.36118 42.51549 112.71322 42.61323 99.33478 42.1888 84.815959 42.625726 71.9674 41.957315 55.310998 43.286638 56.448144 57.515813 56.782403Z"/>
<path transform="matrix(1,0,0,-1,868.735,136.56153)" stroke-width=".75" stroke-linecap="round" stroke-linejoin="round" fill="none" stroke="#000000" d="M170.91956-.444117C170.23015 30.397253 171.03592 61.2646 170.85887 92.8387 156.45873 92.29906 142.50994 91.99868 128.2805 92.057079"/>
<path transform="matrix(1,0,0,-1,868.735,136.56153)" stroke-width=".75" stroke-linecap="round" stroke-linejoin="round" fill="none" stroke="#000000" d="M141.44005 100.717868C138.18798 96.10239 133.54909 93.670978 128.08155 92.1198 133.39997 91.17112 138.10649 88.093578 141.04105 84.3484"/>
<path transform="matrix(1,0,0,-1,868.735,136.56153)" stroke-width=".75" stroke-linecap="round" stroke-linejoin="round" fill="none" stroke="#000000" d="M42.82679 92.06974C-71.28174 92.339138-185.09587 92.06467-298.01295 92.6973"/>
<path transform="matrix(1,0,0,-1,868.735,136.56153)" stroke-width=".75" stroke-linecap="round" stroke-linejoin="round" fill="none" stroke="#000000" d="M-285.69569 100.644779C-289.32084 96.73251-293.10258 93.75046-298.2106 92.20564-293.7003 91.13935-289.23683 87.99878-285.8379 84.58748"/>
<path transform="matrix(1,0,0,-1,868.735,136.56153)" stroke-width=".75" stroke-linecap="round" stroke-linejoin="round" fill="none" stroke="#000000" d="M57.036157 55.777067C58.490228 56.617319 57.44663 55.480516 57.352838 56.13501 76.11385 56.23327 94.60014 56.574506 113.08649 55.60312 129.03876 55.334077 127.754009 56.11437 127.62431 70.39856 128.10832 85.01896 128.66481 100.10251 128.66475 114.40037 128.49068 127.65617 128.4169 127.6794 113.47898 128.67346 93.78679 128.63072 77.00543 128.59052 58.330484 129.23175 42.835527 127.91917 42.294069 129.5596 43.18087 113.8226 43.318529 98.99041 41.58548 85.05019 42.489503 70.538249 42.318838 56.470376 43.371515 55.917554 57.036157 55.777067Z"/>
<path transform="matrix(1,0,0,-1,868.735,136.56153)" stroke-width=".75" stroke-linecap="round" stroke-linejoin="round" fill="none" stroke="#000000" d="M170.56952-.116446C170.39769 30.842379 170.71848 61.940618 170.90079 92.031299 156.73705 92.82473 142.38057 92.33439 128.42552 92.33265"/>
<path transform="matrix(1,0,0,-1,868.735,136.56153)" stroke-width=".75" stroke-linecap="round" stroke-linejoin="round" fill="none" stroke="#000000" d="M140.98438 100.8694C137.73018 96.54114 133.25223 93.30948 128.21996 92.227268 133.24272 91.381328 137.92882 88.454158 141.54647 84.42759"/>
<path transform="matrix(1,0,0,-1,868.735,136.56153)" stroke-width=".75" stroke-linecap="round" stroke-linejoin="round" fill="none" stroke="#000000" d="M42.253938 92.62369C-70.97297 92.2328-184.69162 92.842929-298.56468 92.80756"/>
<path transform="matrix(1,0,0,-1,868.735,136.56153)" stroke-width=".75" stroke-linecap="round" stroke-linejoin="round" fill="none" stroke="#000000" d="M-285.46339 100.23063C-288.68797 96.413089-293.051 93.96846-298.26393 92.08774-293.66603 91.211399-288.49809 87.977397-285.747 83.93197"/>
<path transform="matrix(1,0,0,-1,868.735,136.56153)" stroke-width=".75" stroke-linecap="round" stroke-linejoin="round" fill="none" stroke="#000000" d="M57.060564 56.083978C56.655645 55.36407 57.78467 56.042604 56.663248 56.832464 75.39137 56.636556 95.07427 56.04165 113.6599 56.059755 127.59306 55.838094 128.52722 56.48339 128.16262 70.35358 128.30638 84.76423 128.8546 100.034648 128.02555 114.20839 127.421 129.39597 127.29783 129.08084 113.39592 129.37374 95.09936 128.60611 76.02833 127.94147 58.48792 129.21218 42.59666 128.75461 41.89794 128.94052 43.402799 113.44018 42.91122 99.244 42.998899 86.02404 42.17462 71.84679 43.279756 55.265314 41.637689 56.37631 57.060564 56.083978Z"/>
<path transform="matrix(1,0,0,-1,868.735,136.56153)" stroke-width=".75" stroke-linecap="round" stroke-linejoin="round" fill="none" stroke="#000000" d="M170.6533-.089651C170.84252 31.15674 170.65547 61.398408 170.44797 91.96631 156.37075 92.71589 142.66655 92.81577 128.91139 92.0403"/>
<path transform="matrix(1,0,0,-1,868.735,136.56153)" stroke-width=".75" stroke-linecap="round" stroke-linejoin="round" fill="none" stroke="#000000" d="M141.30608 100.88114C138.28786 96.31817 133.26393 93.913997 128.1961 92.74923 133.46027 91.13977 138.04293 88.434528 140.94905 84.67306"/>
<path transform="matrix(1,0,0,-1,868.735,136.56153)" stroke-width=".75" stroke-linecap="round" stroke-linejoin="round" fill="none" stroke="#000000" d="M42.89269 92.3626C-70.7023 92.63969-184.93743 92.85155-298.7468 92.74869"/>
<path transform="matrix(1,0,0,-1,868.735,136.56153)" stroke-width=".75" stroke-linecap="round" stroke-linejoin="round" fill="none" stroke="#000000" d="M-285.88179 100.14056C-288.56849 96.34707-293.78248 93.55364-298.1422 92.85893-293.16609 91.55744-289.09449 88.82027-285.3789 84.28128"/>
<path transform="matrix(1,0,0,-1,868.735,136.56153)" stroke-width=".75" stroke-linecap="round" stroke-linejoin="round" fill="none" stroke="#000000" d="M58.243738 55.569486C57.41425 56.114126 58.12115 56.01248 56.646539 57.06311 75.394718 55.60367 94.515239 56.988878 114.04407 56.090276 128.53981 56.252557 128.79878 55.689577 127.80209 71.59377 127.672069 85.288158 128.00684 99.99904 128.44455 114.21938 128.18015 128.52663 128.94852 128.0089 113.92361 128.15602 94.50216 128.78585 76.82096 128.33983 57.420438 128.53018 43.36208 129.3126 41.7379 128.20934 43.349699 114.42656 41.785074 99.08425 41.833745 85.33338 42.668256 72.126338 42.61862 56.32257 43.47697 56.845468 58.243738 55.569486Z"/>
<path transform="matrix(1,0,0,-1,868.735,136.56153)" stroke-width=".75" stroke-linecap="round" stroke-linejoin="round" fill="none" stroke="#000000" d="M170.43624-.087237C171.01139 30.792506 170.52606 61.594999 171.06377 92.62491 156.94512 92.337909 142.86606 92.69932 128.8064 91.98268"/>
<path transform="matrix(1,0,0,-1,868.735,136.56153)" stroke-width=".75" stroke-linecap="round" stroke-linejoin="round" fill="none" stroke="#000000" d="M140.83782 100.84328C137.68665 96.6647 133.59586 93.13872 128.28148 92.22079 133.15474 90.91854 137.99582 88.78556 141.45905 84.29669"/>
<path transform="matrix(1,0,0,-1,868.735,136.56153)" stroke-width=".75" stroke-linecap="round" stroke-linejoin="round" fill="none" stroke="#000000" d="M42.569585 92.25317C-70.916629 92.22373-184.3571 92.57633-298.27705 91.97228"/>
<path transform="matrix(1,0,0,-1,868.735,136.56153)" stroke-width=".75" stroke-linecap="round" stroke-linejoin="round" fill="none" stroke="#000000" d="M-285.5733 100.16848C-288.9628 96.52369-293.7426 93.25835-298.6491 92.56892-293.77644 91.10914-288.8852 88.01751-285.71784 84.45206"/>
<path transform="matrix(1,0,0,-1,868.735,136.56153)" stroke-width=".75" stroke-linecap="round" stroke-linejoin="round" fill="none" stroke="#000000" d="M57.194097 55.667394C57.402086 55.890077 56.820779 55.960409 57.195966 55.888025 76.81647 56.300817 93.66453 55.695474 113.72376 56.254716 128.22644 55.661397 127.36072 56.268526 127.18414 70.83217 128.697 84.692348 128.56279 99.120227 128.729 113.87693 128.59413 128.40808 127.466648 129.333 113.98533 129.04611 95.49428 128.66545 75.170047 128.99132 57.103639 127.885608 42.69472 128.67847 43.34177 128.82352 42.17115 113.82278 41.814619 98.74869 43.06536 85.94827 43.330915 71.589618 41.702295 57.065118 42.090269 55.862489 57.194097 55.667394Z"/>
<path transform="matrix(1,0,0,-1,868.735,136.56153)" stroke-width=".75" stroke-linecap="round" stroke-linejoin="round" fill="none" stroke="#000000" d="M171.0621 .275243C170.65166 30.942145 171.02199 61.738328 170.42462 91.97991 156.94025 92.1897 142.22486 92.24541 128.2881 92.3129"/>
<path transform="matrix(1,0,0,-1,868.735,136.56153)" stroke-width=".75" stroke-linecap="round" stroke-linejoin="round" fill="none" stroke="#000000" d="M140.75896 100.42294C138.29563 96.23268 133.17469 93.64909 128.7052 92.390079 133.10454 91.69575 138.0525 88.52223 141.21128 84.58339"/>
<path transform="matrix(1,0,0,-1,868.735,136.56153)" stroke-width=".75" stroke-linecap="round" stroke-linejoin="round" fill="none" stroke="#000000" d="M42.489347 92.19206C-70.97184 92.83715-184.65216 92.38101-298.1276 92.27986"/>
<path transform="matrix(1,0,0,-1,868.735,136.56153)" stroke-width=".75" stroke-linecap="round" stroke-linejoin="round" fill="none" stroke="#000000" d="M-285.66746 100.21813C-289.27903 96.696018-293.7502 93.96552-298.84559 92.26469-293.1888 91.04354-289.16905 87.98677-285.55943 84.163738"/>
</svg>
