<svg xmlns="http://www.w3.org/2000/svg" xmlns:xlink="http://www.w3.org/1999/xlink" xmlns:inkscape="http://www.inkscape.org/namespaces/inkscape" version="1.1" width="1135.2621" height="354.36274" viewBox="0 0 1135.2621 354.36274">
<defs>
<path id="font_13_1" d="M.04598999 .23632813H.35598756V-.07368469L.3959961-.06668091V.23632813H.70399478L.70899966 .2763214H.3959961V.58631899L.35598756 .58032229V.2763214H.052993776L.04598999 .23632813Z"/>
<path id="font_13_2" d="M.08999634 .32458497C.08999634 .22958374 .114990238 .13148499 .18299866 .06341553 .23699951 .009384155 .31199647-.016601563 .3880005-.016601563 .46099855-.016601563 .56900027 .010391235 .6569977 .03338623 .6569977 .03338623 .6539917 .216568 .6519928 .30760194L.37599183 .2966156V.27061463L.38198854 .265625C.43598939 .26361085 .5 .25961305 .5439911 .25660707 .57199099 .25460816 .57199099 .22257996 .57199099 .13449097 .57199099 .061416627 .56900027 .04940796 .5519867 .045394899 .5209961 .038391115 .48999024 .03538513 .45799256 .03538513 .37998963 .03538513 .30599977 .060409547 .2619934 .112472537 .20399475 .18052674 .17999268 .25260926 .17999268 .3405609 .17999268 .48339845 .23199463 .5653076 .26098634 .5942688 .3039856 .63623049 .36299134 .6502075 .42199708 .6502075 .5529938 .6502075 .59298709 .5563202 .60598757 .53034976L.6179962 .5293579 .6759949 .58628848C.6649933 .6032715 .6119995 .69921877 .46699525 .69921877 .3619995 .69921877 .25698854 .6682129 .18199158 .593277 .11199951 .5233612 .08999634 .4224701 .08999634 .32458497Z"/>
<path id="font_13_11" d="M.050994874 .049362184 .05899048 .038375856C.10998535 .0033874512 .17098999-.016601563 .23599243-.016601563 .31799317-.016601563 .397995 .008392334 .45700074 .05935669 .5039978 .10131836 .5349884 .15626526 .5349884 .21520996 .5349884 .25416566 .519989 .2911377 .48999024 .31811524 .46899415 .3360901 .44198609 .34709168 .41600038 .35508729 .3789978 .36608888 .34199525 .37109376 .30299378 .37408448V.38209535C.34999085 .39408876 .3939972 .41609193 .42900086 .44610597 .46499635 .47810365 .48199464 .52311709 .48199464 .5681305 .48199464 .60414126 .46798707 .6401367 .43899537 .6651459 .40699769 .6941376 .36099244 .70214846 .31698609 .70214846 .2849884 .70214846 .25498963 .69114688 .22599793 .67814639 .18598938 .6591339 .14698792 .63414 .11199951 .60813906L.12799073 .58613589C.1539917 .60113528 .17999268 .6151428 .20799256 .6261444 .22799683 .6331482 .24699402 .6391449 .2659912 .6391449 .2999878 .6391449 .33299256 .6321411 .35598756 .61112979 .37799073 .59213259 .3889923 .5671234 .3889923 .54011538 .3889923 .502121 .37199403 .46510316 .34098817 .43710328 .32299806 .4210968 .29899598 .40908814 .27398683 .39909364 .24198914 .38609315 .20698548 .37808229 .17298889 .37109376L.17199707 .34509278C.21398926 .34509278 .2559967 .34309388 .29699708 .3340912 .32499696 .32809449 .35299684 .31910707 .37298585 .30012513 .4059906 .26914979 .42900086 .22920227 .42900086 .18623352 .42900086 .14128113 .41299439 .095321658 .3769989 .06335449 .34599305 .036376954 .30599977 .023391724 .2639923 .023391724 .22299195 .023391724 .18499756 .041366579 .1559906 .067352298 .13798523 .08332825 .12399292 .10131836 .10998535 .121292117H.09899902L.050994874 .049362184Z"/>
<path id="font_13_4" d="M.11299133 .24990845C.11299133 .007904053 .1519928-.09008789 .18299866-.13310242 .21099854-.17008972 .25299073-.20809937 .30099488-.21209717V-.1880951C.2809906-.18409729 .25099183-.16809082 .23399353-.1481018 .21998596-.13209534 .16499329-.05809021 .16499329 .24990845 .16499329 .4618988 .19799805 .5659027 .21998596 .6128998 .23599243 .6469116 .2689972 .6769104 .30099488 .684906V.71191409C.2599945 .7049103 .21598816 .6729126 .19099427 .63790896 .1599884 .5919037 .11299133 .4748993 .11299133 .24990845Z"/>
<path id="font_13_5" d="M.051986696 .06642151C.06199646 .047409059 .07598877 .030395508 .09199524 .01638794 .12098694-.009613037 .16099549-.016601563 .19898987-.016601563 .2559967-.016601563 .31199647 .0023956299 .35099793 .044403078 .375 .06941223 .3869934 .10343933 .3869934 .13845825 .3869934 .1634674 .37298585 .18649292 .35499574 .20449829 .34098817 .21850586 .3039856 .24052429 .27198792 .25453187 .24299622 .26654054 .19999695 .2885437 .18798828 .30055238 .17298889 .31655885 .1619873 .3285675 .1619873 .35058595 .1619873 .3725891 .16899109 .39360047 .18499756 .4086151 .19999695 .42362977 .22200012 .43164063 .24398804 .43164063 .2639923 .43164063 .2849884 .42462159 .29599 .4066162 .30599977 .39060975 .30799867 .3715973 .30899049 .35359193L.32099916 .34657289 .37599183 .38360597C.375 .40560914 .3639984 .42662049 .34799195 .44163514 .32499696 .46263124 .29299928 .46662904 .2630005 .46662904 .21398926 .46662904 .16699219 .45063783 .1309967 .4176178 .10398865 .39360047 .08999634 .35858155 .08999634 .32356263 .08999634 .29154969 .10798645 .26353456 .1309967 .2425232 .1539917 .22250366 .18399048 .2084961 .21499634 .1954956 .24099732 .18447876 .2689972 .17248535 .28799439 .1534729 .30299378 .13845825 .31399537 .11845398 .31399537 .09744263 .31399537 .079422 .30499269 .062408449 .29299928 .04940796 .27799989 .03340149 .25099183 .021392823 .22898865 .021392823 .19898987 .021392823 .17199707 .03439331 .1499939 .055404664 .1269989 .076416019 .116989139 .10644531 .114990238 .13645935L.100997928 .13745117 .051986696 .06642151Z"/>
<path id="font_13_6" d="M.085998538-.1880951V-.21209717C.13398743-.20610047 .1789856-.17208863 .20698548-.13510132 .23799134-.09210205 .27598573 .007904053 .27598573 .24990845 .27598573 .50090029 .22399903 .5919037 .19299317 .63790896 .16799927 .6729126 .1269989 .7049103 .085998538 .71191409V.684906C.117996219 .6759033 .14898682 .6469116 .16499329 .6128998 .18699646 .5659027 .22399903 .48190309 .22399903 .24990845 .22399903-.099090579 .17199707-.13209534 .1579895-.1481018 .14099121-.16809082 .10598755-.18409729 .085998538-.1880951Z"/>
<path id="font_13_14" d="M.02999878 .19134522H.34999085L.35899354 .18232727C.35899354 .119262699 .35899354 .03616333 .35299684 .0011138916L.35899354-.0048828127 .44898988 .028152466C.44599916 .0501709 .44599916 .12927246 .44599916 .18333435L.45399476 .19134522H.5469971L.5649872 .22834778 .55999758 .23535156H.45399476L.44599916 .24433899C.44599916 .39926148 .44599916 .67111209 .44699098 .6980896L.43899537 .70410159 .35299684 .66911318 .02999878 .23535156V.19134522M.10398865 .24234009C.10398865 .264328 .19898987 .4022522 .24198914 .46122743 .2749939 .50619509 .30899049 .5521698 .34700013 .591156 .34999085 .5931549 .35499574 .5941467 .35798646 .591156 .35798646 .5901489 .35899354 .5871582 .35899354 .5851593V.24334717L.35198976 .23535156H.10899353L.10398865 .24234009Z"/>
<path id="font_13_12" d="M.051986696 .6781769 .052993776 .6591797C.07299805 .65216067 .10899353 .6411438 .11299133 .6401367 .12298584 .6361389 .125 .6251221 .12599182 .6161041 .1309967 .53297427 .13198853 .44985963 .13198853 .36676026 .13198853 .24482727 .13198853 .11590576 .12199402 .0029907227L.12799073-.0020141602 .21998596 .025970459C.21699524 .051956178 .21499634 .10292053 .21499634 .1798706V.33377076C.21499634 .34075929 .22099304 .34576417 .22799683 .34576417H.57099917C.5799866 .34576417 .58299258 .33876039 .58299258 .33377076 .58299258 .23683167 .5799866 .11790466 .5779877 .020980835L.58898928 0 .73799136 .0078125 .74398806 .013809204 .7429962 .031799318C.72499087 .03981018 .66600039 .03981018 .66600039 .07879639 .66600039 .09979248 .6619873 .24076844 .6619873 .32176209 .6619873 .5129547 .66999819 .64515689 .6729889 .6841736L.66799929 .6901703 .5799866 .673172C.5799866 .58706668 .58299258 .48291017 .58299258 .3967743 .58299258 .39076234 .58200076 .38476563 .57099917 .38476563H.22499085C.21499634 .38476563 .21299744 .3917694 .21299744 .3967743 .21299744 .4618683 .21699524 .54600527 .21899414 .61109927 .21998596 .63414 .22200012 .6581726 .22599793 .6801758L.22099304 .6851654H.05899048L.051986696 .6781769Z"/>
<path id="font_13_3" d="M.1349945 .6123047H.22898865C.25698854 .6123047 .27999879 .59129336 .2809906 .5662842 .28199769 .541275 .28199769 .46824647 .28199769 .41923524 .28199769 .27919007 .27799989 .13916016 .272995 .00010681152L.28599549-.0048828127 .3809967 .022125245C.37799073 .09814453 .37799073 .2962036 .37799073 .43223573 .37799073 .52127078 .37998963 .6112976 .38598634 .7003021L.3789978 .71229556 .1349945 .6392975V.6123047Z"/>
<path id="font_13_10" d="M.04499817 .001953125H.5379944L.56399539 .079940799 .5589905 .08795166H.20999146C.20399475 .08795166 .19799805 .08894348 .19599915 .092941287 .19499207 .094940189 .19599915 .09794617 .19699097 .09895325 .2539978 .1569519 .30799867 .21495056 .35899354 .27496339 .394989 .31697084 .42999269 .358963 .45799256 .40496827 .48799134 .4509735 .5119934 .49998475 .5119934 .5529938 .5119934 .59399417 .49899293 .6349945 .46499635 .66400149 .43199159 .69299319 .3880005 .7080078 .34199525 .7080078 .29899598 .7080078 .2579956 .6970062 .22099304 .67900088 .17599488 .65800479 .13699341 .6279907 .102996829 .59498599L.125 .57598879C.1519928 .59599307 .17799378 .61099246 .20999146 .6259918 .23098755 .6360016 .2559967 .6399994 .2809906 .6399994 .31399537 .6399994 .34700013 .6289978 .37098695 .6069946 .40098573 .5779877 .4079895 .5369873 .4079895 .50798037 .4079895 .4429779 .38198854 .38197328 .34298707 .3259735 .31098939 .27996827 .27198792 .23796082 .23199463 .19696045 .17199707 .13494873 .10899353 .07594299 .04499817 .017944336V.001953125Z"/>
<path id="font_13_7" d="M.04598999 .23046875H.70399478L.70999148 .27046205H.052993776L.04598999 .23046875Z"/>
<path id="font_13_8" d="M.033996583 .6733093 .035995485 .6533203C.037994386 .6533203 .07398987 .6443176 .09199524 .63931277 .12298584 .6313019 .125 .6222992 .125 .54229739 .125 .46427918 .12199402 .38627626 .12199402 .30825807 .12199402 .24723816 .12399292 .17323303 .12998963 .12721253 .1349945 .08821106 .1559906-.0087890629 .31399537-.0087890629 .39698792-.0087890629 .47698976 .02520752 .5469971 .07020569L.5549927 .064208988C.5549927 .048202516 .5549927 .032196046 .55599978 .016204834 .55799868 .0012054443 .57598879-.0047912599 .58799746-.0047912599 .61898806-.0047912599 .6899872 .016204834 .7409973 .032196046L.74598696 .03919983 .74198916 .05619812C.7220001 .05419922 .70399478 .048202516 .6839905 .048202516 .673996 .048202516 .6609955 .050201417 .6539917 .0592041 .6389923 .07620239 .6359863 .15222168 .6359863 .20223999 .6359863 .3642578 .6369934 .5733032 .6519928 .68733218L.6459961 .69433596 .55799868 .659317C.55599978 .47727967 .55400088 .2942505 .55400088 .11122131 .5 .079208377 .43998719 .052200319 .37799073 .052200319 .24598694 .052200319 .22399903 .13922119 .21598816 .16522217 .20599365 .19923401 .20199585 .23423767 .20199585 .26924134L.20999146 .54229739C.20999146 .55929568 .21598816 .6603241 .21798706 .67433169L.21099854 .6803131H.041992189L.033996583 .6733093Z"/>
<path id="font_13_9" d="M.022994996 .6513672C.036987306 .649353 .049987794 .6463623 .06298828 .6433563 .07199097 .6413574 .07998657 .6353607 .085998538 .62835696 .09599304 .61834719 .102996829 .60635378 .10899353 .5943451L.2579956 .29930116C.2579956 .19927979 .2579956 .0982666 .25498963-.0017547608L.2659912-.0107421879 .35598756 .018249512 .34700013 .30630494C.42999269 .4343109 .5039978 .5303345 .61499026 .675354L.61099246 .6933594 .526001 .6763611C.48999024 .619339 .4059906 .47431947 .397995 .46032716 .3849945 .4373169 .34199525 .36730958 .33898927 .3623047 .33599855 .3572998 .33198548 .353302 .32798768 .353302 .32199098 .353302 .31698609 .3592987 .31599427 .36131288L.1749878 .6863556H.02999878L.022994996 .67936709V.6513672Z"/>
<path id="font_13_13" d="M.09199524 .6121063H.1749878C.19999695 .6121063 .21998596 .5911102 .22099304 .56611636 .22200012 .5411072 .22200012 .46810914 .22200012 .41911317 .22200012 .27911378 .21899414 .13911438 .21398926 .00010681152L.22599793-.0048828127 .30999757 .022109986C.30699159 .09811401 .30699159 .29611207 .30699159 .43211366 .30699159 .52111819 .30899049 .6111145 .31399537 .70010378L.30799867 .7121124 .09199524 .6391144V.6121063Z"/>
</defs>
<path transform="matrix(1,0,0,-1,868.7349,136.45166)" d="M-758.83047-104.29102C-687.4499-104.29237-616.26608-104.183208-544.7319-104.409229-544.322-57.599996-544.123-11.223815-544.47549 35.856458-615.57937 35.298666-687.04147 35.821958-759.0074 35.278806-758.9927-11.231384-759.12387-57.104719-758.83047-104.29102Z" fill="#d9d9d9"/>
<path transform="matrix(1,0,0,-1,868.7349,136.45166)" stroke-width=".75" stroke-linecap="round" stroke-dasharray="4.5,4.5" stroke-linejoin="round" fill="none" stroke="#000000" d="M-759.01779-103.842128C-687.4044-103.8878-616.10147-103.90174-544.92037-104.10768-544.69387-57.384805-544.9443-11.161562-544.0925 35.353326-615.5721 35.99479-687.70907 35.693109-758.875 35.83323-758.43289-11.080207-758.4467-57.60198-759.01779-103.842128Z"/>
<path transform="matrix(1,0,0,-1,868.7349,136.45166)" d="M-395.67518-104.22459C-323.65507-104.16513-252.04982-103.83621-180.64022-103.498638-180.55591-56.931398-180.82099-10.345189-180.53342 35.899629-252.81316 36.038328-323.75187 35.942129-395.93687 36.261674-395.77796-10.900309-395.1314-57.33022-395.67518-104.22459Z" fill="#d9d9d9"/>
<path transform="matrix(1,0,0,-1,868.7349,136.45166)" stroke-width=".75" stroke-linecap="round" stroke-dasharray="4.5,4.5" stroke-linejoin="round" fill="none" stroke="#000000" d="M-395.4275-103.580379C-323.82594-103.48044-252.36962-104.027919-181.12265-103.44492-181.3657-57.09818-181.21573-10.255743-181.23317 35.914106-252.35309 35.808-323.91108 35.45589-395.21424 35.90275-395.938-10.384215-395.59077-56.980276-395.4275-103.580379Z"/>
<use data-text="+" xlink:href="#font_13_1" transform="matrix(37.185197,0,0,-37.18505,384.70133,145.9725)"/>
<use data-text="G" xlink:href="#font_13_2" transform="matrix(21.519362,0,0,-21.519398,755.6176,141.83292)"/>
<use data-text="3" xlink:href="#font_13_11" transform="matrix(16.438399,0,0,-16.438426,772.0849,145.96952)"/>
<use data-text="(" xlink:href="#font_13_4" transform="matrix(21.519362,0,0,-21.519398,782.32748,141.83292)"/>
<use data-text="s" xlink:href="#font_13_5" transform="matrix(21.519362,0,0,-21.519398,791.8726,141.83292)"/>
<use data-text=")" xlink:href="#font_13_6" transform="matrix(21.519362,0,0,-21.519398,802.85958,141.83292)"/>
<use data-text="G" xlink:href="#font_13_2" transform="matrix(21.519343,0,0,-21.519398,926.2539,141.83292)"/>
<use data-text="4" xlink:href="#font_13_14" transform="matrix(16.438384,0,0,-16.438426,942.73757,146.00238)"/>
<use data-text="(" xlink:href="#font_13_4" transform="matrix(21.519343,0,0,-21.519398,952.9801,141.83292)"/>
<use data-text="s" xlink:href="#font_13_5" transform="matrix(21.519343,0,0,-21.519398,962.52517,141.83292)"/>
<use data-text=")" xlink:href="#font_13_6" transform="matrix(21.519343,0,0,-21.519398,973.5121,141.83292)"/>
<use data-text="H" xlink:href="#font_13_12" transform="matrix(21.51913,0,0,-21.519398,840.74618,234.2413)"/>
<use data-text="1" xlink:href="#font_13_3" transform="matrix(16.438221,0,0,-16.438426,857.60067,238.54228)"/>
<use data-text="(" xlink:href="#font_13_4" transform="matrix(21.51913,0,0,-21.519398,867.8431,234.2413)"/>
<use data-text="s" xlink:href="#font_13_5" transform="matrix(21.51913,0,0,-21.519398,877.3881,234.2413)"/>
<use data-text=")" xlink:href="#font_13_6" transform="matrix(21.51913,0,0,-21.519398,888.37496,234.2413)"/>
<use data-text="H" xlink:href="#font_13_12" transform="matrix(21.51913,0,0,-21.519398,498.97325,49.42459)"/>
<use data-text="2" xlink:href="#font_13_10" transform="matrix(16.438221,0,0,-16.438426,515.82778,53.65979)"/>
<use data-text="(" xlink:href="#font_13_4" transform="matrix(21.51913,0,0,-21.519398,526.0702,49.42459)"/>
<use data-text="s" xlink:href="#font_13_5" transform="matrix(21.51913,0,0,-21.519398,535.61526,49.42459)"/>
<use data-text=")" xlink:href="#font_13_6" transform="matrix(21.51913,0,0,-21.519398,546.60208,49.42459)"/>
<use data-text="H" xlink:href="#font_13_12" transform="matrix(21.51913,0,0,-21.519398,498.97325,326.64973)"/>
<use data-text="3" xlink:href="#font_13_11" transform="matrix(16.438221,0,0,-16.438426,515.82778,330.7863)"/>
<use data-text="(" xlink:href="#font_13_4" transform="matrix(21.51913,0,0,-21.519398,526.0702,326.64973)"/>
<use data-text="s" xlink:href="#font_13_5" transform="matrix(21.51913,0,0,-21.519398,535.61526,326.64973)"/>
<use data-text=")" xlink:href="#font_13_6" transform="matrix(21.51913,0,0,-21.519398,546.60208,326.64973)"/>
<path transform="matrix(1,0,0,-1,868.7349,136.45168)" stroke-width=".75" stroke-linecap="round" stroke-linejoin="round" fill="none" stroke="#000000" d="M-113.14201-24.327916C-112.82362-24.605572-113.20194-25.454655-113.63126-25.524369-95.392787-24.94433-76.06335-24.51975-57.447526-24.312142-42.209596-24.111275-41.58774-24.293597-42.322515-10.893724-42.59897-3.014485-42.095224 4.099431-42.899129 10.121436-43.005498 25.586588-41.601366 24.937224-57.836587 24.057112-75.32661 25.455254-94.99884 25.53993-113.31175 25.414906-127.90681 25.096385-128.94127 24.538725-127.787769 10.205141-128.79206 4.21589-128.03208-2.959472-128.28499-9.432985-128.4882-25.321499-127.67977-24.208308-113.14201-24.327916Z"/>
<path transform="matrix(1,0,0,-1,868.7349,136.45168)" stroke-width=".75" stroke-linecap="round" stroke-linejoin="round" fill="none" stroke="#000000" d="M57.63655-25.001832C57.941167-25.068137 57.789178-24.591868 57.37647-24.26448 75.40744-25.652606 95.01232-24.312478 113.37287-25.571478 128.95285-24.971062 127.912097-25.12777 128.63886-9.831855 128.00685-3.61333 127.94807 3.103274 128.47956 10.42715 128.6602 24.05458 128.5012 24.746684 114.01037 24.253954 95.33501 25.850543 76.12967 24.6552 57.999383 24.558148 43.188924 25.338084 42.43738 24.312987 42.66063 10.070288 41.73188 2.985876 42.675287-2.753219 42.51035-9.14521 43.15523-24.506783 42.96048-25.087695 57.63655-25.001832Z"/>
<path transform="matrix(1,0,0,-1,868.7349,136.45168)" stroke-width=".75" stroke-linecap="round" stroke-linejoin="round" fill="none" stroke="#000000" d="M-27.377903-116.99986C-28.949414-117.88536-28.774743-117.70546-27.942278-117.820598-9.125217-118.041797 8.9932-116.65627 27.819363-117.58953 42.50528-118.319339 42.146749-117.09054 43.457345-102.54239 42.77163-96.52074 42.210466-88.51241 43.54062-82.270229 43.438684-68.3691 42.26814-66.881069 28.014895-68.08899 9.579552-67.12792-8.706156-66.90521-27.637194-66.86153-43.51583-67.836719-43.120744-66.535648-43.90821-82.48163-43.504674-88.96455-42.695104-95.53936-42.204988-103.07076-43.427709-117.386-43.471166-118.191188-27.377903-116.99986Z"/>
<path transform="matrix(1,0,0,-1,868.7349,136.45168)" stroke-width=".75" stroke-linecap="round" stroke-linejoin="round" fill="none" stroke="#000000" d="M-369.98429 66.742519C-369.1808 68.37441-369.61576 67.9598-369.38594 67.79397-351.52146 67.53737-333.10227 67.05522-314.65837 68.14399-299.21284 66.795337-298.66813 68.19509-299.3624 82.23302-298.64616 89.814647-298.92539 94.813579-298.1263 102.42297-298.9001 117.924518-299.5183 116.80726-314.69496 117.7228-333.17265 116.68378-350.3452 118.2467-368.89439 118.245738-385.12855 117.59276-385.72093 116.81932-385.05998 102.26619-384.53919 96.62698-384.0808 88.60578-385.35539 83.366039-383.7958 67.485958-385.3603 66.62937-369.98429 66.742519Z"/>
<path transform="matrix(1,0,0,-1,868.7349,136.45168)" stroke-width=".75" stroke-linecap="round" stroke-linejoin="round" fill="none" stroke="#000000" d="M-370.47135-208.94196C-370.311-209.31282-369.41746-209.73073-368.92686-208.84761-351.5788-209.20839-332.74559-209.94144-313.2883-209.80098-299.31599-209.83008-299.75428-210.32364-297.97563-194.57422-297.8923-188.48473-299.63383-180.96248-299.74748-174.9606-298.00819-159.19733-298.77165-159.17827-312.85563-160.61678-332.4303-160.82018-350.38536-160.66855-369.12553-159.75423-384.42436-159.80052-384.78889-160.07343-384.07319-175.1994-384.4683-182.47353-385.3431-187.34235-385.39094-193.9313-385.1129-210.70558-384.92625-209.51677-370.47135-208.94196Z"/>
<path transform="matrix(1,0,0,-1,868.7349,136.45168)" stroke-width=".75" stroke-linecap="round" stroke-linejoin="round" fill="none" stroke="#000000" d="M-448.54423 .343527C-448.10237 12.856964-458.68708 21.917252-470.35066 21.037306-481.6875 22.480799-492.36097 12.664855-490.9821 .078667-491.36323-12.462709-482.74507-21.798163-469.46134-20.756888-457.28303-22.55805-448.07435-11.872716-448.54423 .343527Z"/>
<path transform="matrix(1,0,0,-1,868.7349,136.45168)" stroke-width=".75" stroke-linecap="round" stroke-linejoin="round" fill="none" stroke="#000000" d="M-42.268438 .335536C-13.93915 .133629 13.974857-.106463 42.11053-.410327"/>
<path transform="matrix(1,0,0,-1,868.7349,136.45168)" stroke-width=".75" stroke-linecap="round" stroke-linejoin="round" fill="none" stroke="#000000" d="M29.819308-7.863516C32.435617-4.164764 36.77885-1.255131 42.02866-.433304 37.204309 1.471098 32.674516 3.724728 29.251669 8.157375"/>
<path transform="matrix(1,0,0,-1,868.7349,136.45168)" stroke-width=".75" stroke-linecap="round" stroke-linejoin="round" fill="none" stroke="#000000" d="M127.84228 .351908C156.87723-.233629 184.6869 .122113 212.96717-.063143"/>
<path transform="matrix(1,0,0,-1,868.7349,136.45168)" stroke-width=".75" stroke-linecap="round" stroke-linejoin="round" fill="none" stroke="#000000" d="M200.44951-8.428794C203.2564-4.037855 208.37317-1.590883 213.6084-.44734 207.77513 .738724 204.0537 4.255845 200.25234 8.037307"/>
<path transform="matrix(1,0,0,-1,868.7349,136.45168)" stroke-width=".75" stroke-linecap="round" stroke-linejoin="round" fill="none" stroke="#000000" d="M-385.2069 92.125949C-413.33494 92.33501-441.32884 92.130908-470.31044 92.10756-470.17378 69.24614-470.00486 45.730295-469.5751 22.029627"/>
<path transform="matrix(1,0,0,-1,868.7349,136.45168)" stroke-width=".75" stroke-linecap="round" stroke-linejoin="round" fill="none" stroke="#000000" d="M-477.80558 34.226144C-474.19743 31.37989-470.86463 26.770974-470.29978 21.943232-468.8551 26.71976-465.58757 31.19596-461.7998 34.445928"/>
<path transform="matrix(1,0,0,-1,868.7349,136.45168)" stroke-width=".75" stroke-linecap="round" stroke-linejoin="round" fill="none" stroke="#000000" d="M170.92891 .374067C170.88736-31.074069 170.87248-61.206979 170.83571-92.22051 127.67738-92.51832 85.30192-92.17616 42.295095-92.598"/>
<path transform="matrix(1,0,0,-1,868.7349,136.45168)" stroke-width=".75" stroke-linecap="round" stroke-linejoin="round" fill="none" stroke="#000000" d="M54.950986-83.974468C51.972417-88.01889 47.6849-90.908329 42.83916-92.84502 47.68239-94.00187 52.03615-96.71827 55.190256-100.50185"/>
<path transform="matrix(1,0,0,-1,868.7349,136.45168)" stroke-width=".75" stroke-linecap="round" stroke-linejoin="round" fill="none" stroke="#000000" d="M170.32526 .218293C170.95903-62.005296 170.32308-123.1789 170.23017-185.11484 13.963326-184.47129-142.96613-184.53018-298.85368-184.5517"/>
<path transform="matrix(1,0,0,-1,868.7349,136.45168)" stroke-width=".75" stroke-linecap="round" stroke-linejoin="round" fill="none" stroke="#000000" d="M-286.41883-176.32982C-289.37287-180.92166-293.79817-183.97864-299.3378-184.51805-294.57203-185.97254-289.57826-188.40386-286.91078-192.54866"/>
<path transform="matrix(1,0,0,-1,868.7349,136.45168)" stroke-width=".75" stroke-linecap="round" stroke-linejoin="round" fill="none" stroke="#000000" d="M-112.93189-24.418427C-113.03163-24.223599-112.53929-24.729695-112.2755-25.310042-94.315708-24.510727-76.7719-24.427021-58.359899-24.309567-41.686208-25.795619-42.91327-25.37274-42.75001-10.898683-42.1933-2.570478-42.402967 3.875145-42.91436 10.232365-41.833246 24.7936-43.066816 24.662573-58.28075 25.335249-76.39264 24.877495-94.317607 25.561072-112.20775 24.148238-127.33531 25.593895-128.87284 24.740803-127.66215 10.283983-129.04344 2.506574-128.1903-3.303704-128.8208-9.439891-127.71748-24.68296-128.73799-25.420292-112.93189-24.418427Z"/>
<path transform="matrix(1,0,0,-1,868.7349,136.45168)" stroke-width=".75" stroke-linecap="round" stroke-linejoin="round" fill="none" stroke="#000000" d="M58.266317-25.334885C56.624467-25.499016 56.882493-24.298136 56.721456-25.833228 75.83109-25.232329 94.95064-25.252848 113.04452-24.9275 128.57427-25.237055 129.01612-24.970229 127.327358-9.984022 127.26319-3.425034 129.01219 3.640021 127.714908 9.917165 128.26676 24.73267 127.30407 25.438134 113.28951 25.759127 94.255268 25.12024 75.48413 24.093302 57.783575 25.505749 42.5233 24.475129 42.206567 24.575806 41.90127 9.950024 43.10424 2.727762 43.132997-3.753216 42.78081-9.814445 42.51503-24.4988 43.385084-25.89837 58.266317-25.334885Z"/>
<path transform="matrix(1,0,0,-1,868.7349,136.45168)" stroke-width=".75" stroke-linecap="round" stroke-linejoin="round" fill="none" stroke="#000000" d="M-28.81555-116.88084C-28.24705-117.39209-27.671347-116.68357-28.956952-118.14545-9.170582-117.555309 10.213624-117.87035 27.087929-117.455669 42.36122-116.81498 42.177625-116.69901 42.067457-101.55045 42.10839-96.39437 43.061838-88.2285 43.632417-83.35297 42.04987-67.54699 43.556268-67.02579 28.766512-66.595058 9.050788-67.1454-9.90982-68.1249-28.638697-67.549098-43.1584-67.66002-43.613149-67.12041-42.411088-82.96205-43.27711-88.48283-43.63504-96.38111-42.580209-101.841358-43.886095-117.94768-42.87719-117.61416-28.81555-116.88084Z"/>
<path transform="matrix(1,0,0,-1,868.7349,136.45168)" stroke-width=".75" stroke-linecap="round" stroke-linejoin="round" fill="none" stroke="#000000" d="M-370.46406 66.73104C-370.73017 66.99774-370.7385 68.21475-370.40718 66.57376-352.0481 67.323619-331.90126 67.33139-312.8421 67.02048-297.95033 68.12146-298.39369 67.06048-298.28306 82.94922-298.26173 89.044498-299.36625 96.148319-299.47166 103.14325-298.407 118.06403-298.68363 118.14212-314.39118 117.617809-332.60307 118.213748-350.4914 117.81246-369.94416 116.57924-385.3943 117.72738-385.0943 117.42406-383.90144 102.56552-383.85835 95.54159-384.16673 89.47177-384.6697 82.01154-384.77125 67.08361-385.03746 66.568378-370.46406 66.73104Z"/>
<path transform="matrix(1,0,0,-1,868.7349,136.45168)" stroke-width=".75" stroke-linecap="round" stroke-linejoin="round" fill="none" stroke="#000000" d="M-369.82859-210.27667C-370.38996-210.08777-369.59309-210.55731-368.81455-210.52687-350.77659-209.9782-333.15043-210.32247-313.69004-208.90135-299.04328-208.85024-298.5427-209.90535-298.58857-195.15285-297.83439-188.2838-299.2738-180.54738-299.39454-175.06388-298.97853-159.74889-298.46315-160.44777-314.67524-159.25579-332.57429-160.5069-351.90858-160.35083-368.79164-159.24416-384.39228-159.5945-384.22425-159.40073-385.33757-175.10565-383.9808-181.26136-384.45753-187.85364-384.5851-195.59824-385.47126-208.9044-385.05278-210.40216-369.82859-210.27667Z"/>
<path transform="matrix(1,0,0,-1,868.7349,136.45168)" stroke-width=".75" stroke-linecap="round" stroke-linejoin="round" fill="none" stroke="#000000" d="M-448.77433-.803602C-448.92057 11.616336-458.2519 22.017579-470.33366 21.61459-481.9371 22.48617-490.78367 11.714864-491.0091 .932795-491.6793-11.420858-481.88746-22.16886-469.16316-22.167626-458.16258-21.974669-448.47389-11.971412-448.77433-.803602Z"/>
<path transform="matrix(1,0,0,-1,868.7349,136.45168)" stroke-width=".75" stroke-linecap="round" stroke-linejoin="round" fill="none" stroke="#000000" d="M-42.346906-.189237C-14.382141-.134188 14.167474-.326966 42.331327-.072034"/>
<path transform="matrix(1,0,0,-1,868.7349,136.45168)" stroke-width=".75" stroke-linecap="round" stroke-linejoin="round" fill="none" stroke="#000000" d="M29.798283-8.109225C32.986215-4.21813 37.133245-1.095067 42.2363-.297832 36.731218 .887566 32.86419 4.368755 29.121235 7.944031"/>
<path transform="matrix(1,0,0,-1,868.7349,136.45168)" stroke-width=".75" stroke-linecap="round" stroke-linejoin="round" fill="none" stroke="#000000" d="M128.3861 .165647C156.17002-.173553 185.25923 .217457 213.11124-.251929"/>
<path transform="matrix(1,0,0,-1,868.7349,136.45168)" stroke-width=".75" stroke-linecap="round" stroke-linejoin="round" fill="none" stroke="#000000" d="M200.88309-7.934205C203.37557-4.120465 207.97263-.891752 213.3659 .439954 208.60147 .906205 203.87558 4.033244 200.77646 8.34832"/>
<path transform="matrix(1,0,0,-1,868.7349,136.45168)" stroke-width=".75" stroke-linecap="round" stroke-linejoin="round" fill="none" stroke="#000000" d="M-384.91197 92.29122C-412.96629 92.00641-441.97087 91.979038-469.6227 92.638957-470.10063 68.50693-470.00523 45.783449-470.19206 21.80138"/>
<path transform="matrix(1,0,0,-1,868.7349,136.45168)" stroke-width=".75" stroke-linecap="round" stroke-linejoin="round" fill="none" stroke="#000000" d="M-477.94514 34.91406C-473.90629 31.1623-471.57478 27.467902-470.0343 21.891375-468.45365 27.054997-466.30769 31.54874-462.12019 34.840288"/>
<path transform="matrix(1,0,0,-1,868.7349,136.45168)" stroke-width=".75" stroke-linecap="round" stroke-linejoin="round" fill="none" stroke="#000000" d="M170.61794 .176422C170.76969-30.802645 170.62412-61.982816 170.91387-92.06982 128.16358-92.74205 85.4783-92.85158 42.870126-92.847949"/>
<path transform="matrix(1,0,0,-1,868.7349,136.45168)" stroke-width=".75" stroke-linecap="round" stroke-linejoin="round" fill="none" stroke="#000000" d="M55.586965-84.12696C52.467676-88.815547 47.723394-91.21329 42.79814-92.08045 47.376039-93.43921 52.341814-95.995449 55.503236-100.14875"/>
<path transform="matrix(1,0,0,-1,868.7349,136.45168)" stroke-width=".75" stroke-linecap="round" stroke-linejoin="round" fill="none" stroke="#000000" d="M170.4054 .358478C170.74092-61.24202 170.50537-123.20057 170.90895-184.89826 14.369358-184.8404-142.25885-184.95717-299.06748-184.68138"/>
<path transform="matrix(1,0,0,-1,868.7349,136.45168)" stroke-width=".75" stroke-linecap="round" stroke-linejoin="round" fill="none" stroke="#000000" d="M-286.51374-176.38092C-289.6557-180.53076-294.31129-183.99695-298.83863-184.90834-293.72224-185.57677-289.63816-188.95298-286.2442-192.79886"/>
<path transform="matrix(1,0,0,-1,868.7349,136.45168)" stroke-width=".75" stroke-linecap="round" stroke-linejoin="round" fill="none" stroke="#000000" d="M-112.40459-25.086037C-112.54169-24.879567-112.728839-24.548073-113.3842-25.878178-95.064388-24.944672-76.95266-25.446585-58.450227-24.92845-41.96988-25.593909-41.848974-24.599604-43.104444-10.555526-43.122926-3.109843-42.159337 3.752916-43.11707 9.76397-42.030656 25.236289-42.72016 25.918648-57.3382 24.239504-75.23322 25.650708-93.81472 25.556689-113.393619 25.715569-128.57093 25.53176-128.3198 24.585457-127.45996 9.468043-127.33895 4.16345-128.17119-3.404172-128.4708-9.346848-129.03458-24.021388-127.584598-24.021294-112.40459-25.086037Z"/>
<path transform="matrix(1,0,0,-1,868.7349,136.45168)" stroke-width=".75" stroke-linecap="round" stroke-linejoin="round" fill="none" stroke="#000000" d="M57.116224-24.933234C58.454809-24.057677 57.165143-24.28838 56.57449-24.292817 75.45404-25.287983 93.912799-25.709567 112.708209-24.500908 129.04216-23.991826 128.20299-24.112063 128.89182-9.990836 128.13727-2.629454 127.35264 4.225339 128.06439 10.518045 128.37162 25.544896 128.95499 24.331999 113.57086 25.820315 95.55428 25.199507 76.31126 24.096308 58.489568 25.628643 43.26945 24.314393 42.65698 24.297806 42.66143 10.34269 42.77816 2.402646 41.591756-3.087228 42.45315-10.846838 41.759344-24.23332 43.16765-25.265065 57.116224-24.933234Z"/>
<path transform="matrix(1,0,0,-1,868.7349,136.45168)" stroke-width=".75" stroke-linecap="round" stroke-linejoin="round" fill="none" stroke="#000000" d="M-28.741135-117.91928C-28.865134-116.99705-27.516497-117.64405-27.028468-118.27994-8.403968-116.87101 9.644074-117.77458 27.619633-117.76892 43.28147-116.81317 42.15422-116.65397 42.691255-101.81303 43.188196-94.92311 42.410074-88.456157 42.173265-82.420078 42.559453-67.72975 42.710886-66.61661 28.862463-66.65404 9.854932-67.2141-8.513628-67.95512-28.006833-68.20152-42.51027-67.10663-42.24736-68.06804-42.2424-83.17812-42.682256-88.68879-42.41694-96.12986-43.67347-101.99362-42.246316-117.24857-43.159086-118.15776-28.741135-117.91928Z"/>
<path transform="matrix(1,0,0,-1,868.7349,136.45168)" stroke-width=".75" stroke-linecap="round" stroke-linejoin="round" fill="none" stroke="#000000" d="M-370.42604 67.14019C-370.2614 68.34334-369.72358 68.38503-369.12263 67.532817-351.106 66.5029-331.53398 66.549289-313.90657 67.16949-299.6364 67.58424-298.01554 67.77758-299.70677 83.13831-298.35243 88.48591-298.53019 95.36063-298.14555 102.13276-299.43333 116.695178-298.75187 117.996829-314.18898 117.14326-331.5027 116.72286-351.24009 118.265979-369.3954 116.44559-384.90025 117.4351-384.89018 117.87007-384.16767 103.31119-385.59925 95.32659-385.66706 89.56198-383.9006 82.69275-384.22434 68.23479-385.56727 67.861049-370.42604 67.14019Z"/>
<path transform="matrix(1,0,0,-1,868.7349,136.45168)" stroke-width=".75" stroke-linecap="round" stroke-linejoin="round" fill="none" stroke="#000000" d="M-369.91087-209.80403C-368.97117-208.9346-369.99488-210.54279-370.30244-210.72423-351.19425-210.6065-333.1106-210.18059-314.18605-209.3942-299.42127-210.49877-299.62208-210.44118-299.09245-194.23709-297.84904-188.54077-299.20143-180.56879-298.08213-174.705-299.73246-159.8812-297.9747-159.32709-313.86839-158.91686-333.3081-159.3205-351.59779-159.52462-370.30809-159.70291-383.93544-159.69828-385.31858-160.37949-384.264-174.98856-384.7586-180.61423-384.69416-188.35239-385.0399-194.5616-384.96064-210.68985-385.2348-209.36858-369.91087-209.80403Z"/>
<path transform="matrix(1,0,0,-1,868.7349,136.45168)" stroke-width=".75" stroke-linecap="round" stroke-linejoin="round" fill="none" stroke="#000000" d="M-448.09938 .057032C-448.56007 11.81694-457.42454 21.21249-469.24839 21.682137-482.91593 21.134362-491.31449 11.771001-492.46318 .948337-491.82756-12.199961-481.61015-20.875117-469.67539-21.040352-458.5677-22.621367-448.15275-12.925097-448.09938 .057032Z"/>
<path transform="matrix(1,0,0,-1,868.7349,136.45168)" stroke-width=".75" stroke-linecap="round" stroke-linejoin="round" fill="none" stroke="#000000" d="M-42.549585-.220304C-13.864285 .285867 14.258584-.015537 42.195104 .119777"/>
<path transform="matrix(1,0,0,-1,868.7349,136.45168)" stroke-width=".75" stroke-linecap="round" stroke-linejoin="round" fill="none" stroke="#000000" d="M29.720719-7.676972C32.86402-4.392373 37.461874-1.244265 42.411489-.176599 37.193174 1.067226 32.57572 4.30125 29.420569 8.241094"/>
<path transform="matrix(1,0,0,-1,868.7349,136.45168)" stroke-width=".75" stroke-linecap="round" stroke-linejoin="round" fill="none" stroke="#000000" d="M127.71603 .135767C156.2361-.329619 184.84719-.013924 213.41622-.436769"/>
<path transform="matrix(1,0,0,-1,868.7349,136.45168)" stroke-width=".75" stroke-linecap="round" stroke-linejoin="round" fill="none" stroke="#000000" d="M200.1902-7.738266C204.1195-4.427305 208.0706-1.109913 213.58658 .205895 208.36232 .887399 203.54521 4.033998 200.28484 7.700564"/>
<path transform="matrix(1,0,0,-1,868.7349,136.45168)" stroke-width=".75" stroke-linecap="round" stroke-linejoin="round" fill="none" stroke="#000000" d="M-384.4011 92.08625C-412.80049 92.081058-441.7402 92.77737-469.6936 92.48032-469.5548 68.90138-469.6009 45.880846-470.20936 21.843018"/>
<path transform="matrix(1,0,0,-1,868.7349,136.45168)" stroke-width=".75" stroke-linecap="round" stroke-linejoin="round" fill="none" stroke="#000000" d="M-477.70079 34.478017C-474.0689 31.608136-470.92536 26.711977-470.2769 22.065346-469.2182 27.36165-465.84559 31.545287-462.16227 34.57212"/>
<path transform="matrix(1,0,0,-1,868.7349,136.45168)" stroke-width=".75" stroke-linecap="round" stroke-linejoin="round" fill="none" stroke="#000000" d="M171.07225 .240739C170.58304-30.385104 170.96248-61.685247 170.35634-92.72315 127.77404-92.68039 85.24407-92.19974 42.80076-92.32165"/>
<path transform="matrix(1,0,0,-1,868.7349,136.45168)" stroke-width=".75" stroke-linecap="round" stroke-linejoin="round" fill="none" stroke="#000000" d="M55.70679-84.43694C52.30643-88.06629 47.898767-90.9282 42.26551-92.44371 47.77595-93.590839 52.012029-96.32967 55.701505-100.71616"/>
<path transform="matrix(1,0,0,-1,868.7349,136.45168)" stroke-width=".75" stroke-linecap="round" stroke-linejoin="round" fill="none" stroke="#000000" d="M170.63246 .412959C170.29622-61.990034 170.29668-123.42002 170.49674-184.38898 13.841246-185.04317-142.82585-184.9488-299.5636-184.4881"/>
<path transform="matrix(1,0,0,-1,868.7349,136.45168)" stroke-width=".75" stroke-linecap="round" stroke-linejoin="round" fill="none" stroke="#000000" d="M-286.1558-176.4608C-289.89033-180.36789-294.14408-183.86899-299.06974-184.50408-294.0022-186.13791-290.01838-188.38269-286.35426-193.31208"/>
<path transform="matrix(1,0,0,-1,868.7349,136.45168)" stroke-width=".75" stroke-linecap="round" stroke-linejoin="round" fill="none" stroke="#000000" d="M-114.00249-24.423012C-113.38688-24.126763-113.23339-25.100615-112.981388-25.197648-95.42603-24.789605-75.54449-25.526143-57.008726-25.186045-42.567457-24.238127-43.23644-24.07023-42.312875-10.813755-41.976579-3.48149-41.62478 3.264038-42.3681 10.228357-42.270074 24.288277-41.707147 24.851527-58.439229 24.096497-76.25884 25.28829-94.235149 24.295956-113.960758 25.412518-128.8409 25.225327-127.99844 25.718213-128.2506 10.761238-127.26598 2.813791-128.4309-4.067398-128.9111-10.746464-129.00415-24.326279-128.4114-24.14611-114.00249-24.423012Z"/>
<path transform="matrix(1,0,0,-1,868.7349,136.45168)" stroke-width=".75" stroke-linecap="round" stroke-linejoin="round" fill="none" stroke="#000000" d="M57.48441-25.411042C57.35264-25.36476 57.343145-25.08181 57.362276-24.590718 75.87391-25.538346 94.22174-25.906275 113.873729-24.605765 128.51766-23.98286 128.66533-24.57237 127.616939-10.870904 128.76099-2.605879 127.29359 3.8207 128.16545 10.823473 128.00684 25.152539 128.27068 25.917239 112.16309 25.49216 95.085079 24.586348 75.29115 24.183978 58.317014 24.736269 42.50471 25.868155 42.685594 24.127463 42.095376 9.884314 43.06755 2.806045 42.603029-2.519063 42.189447-9.82398 43.26235-24.181414 42.4502-24.00739 57.48441-25.411042Z"/>
<path transform="matrix(1,0,0,-1,868.7349,136.45168)" stroke-width=".75" stroke-linecap="round" stroke-linejoin="round" fill="none" stroke="#000000" d="M-28.642985-118.32306C-28.580836-117.27558-28.081526-116.74351-28.783326-117.94646-9.913508-118.18497 9.187312-116.43836 27.24739-116.639629 42.717096-118.19142 42.967824-116.55116 42.571199-101.511157 42.921865-96.205059 42.025575-89.601589 43.00921-81.730289 42.61979-67.19372 43.815015-68.02103 27.999165-66.77905 9.14373-67.43119-9.973161-67.26138-28.804886-67.34224-43.953126-66.58692-42.11345-67.19928-42.062387-82.36364-43.726888-88.95014-42.30134-95.94886-43.69142-101.59973-42.36638-116.871158-43.17561-117.51953-28.642985-118.32306Z"/>
<path transform="matrix(1,0,0,-1,868.7349,136.45168)" stroke-width=".75" stroke-linecap="round" stroke-linejoin="round" fill="none" stroke="#000000" d="M-370.6732 66.57102C-370.2566 66.994098-370.5487 67.18924-369.43083 67.89343-351.38304 67.15066-333.28614 67.09413-314.4814 67.4507-299.57859 68.09663-299.21299 68.246669-299.39775 81.57727-299.0647 89.142368-297.84098 96.03959-298.05543 102.965038-299.2471 116.69946-299.6619 117.2418-314.72267 117.663867-332.19554 117.81725-350.3111 118.184139-369.27265 118.329257-384.22496 117.544628-385.34739 116.49154-385.70527 103.02467-384.27647 95.593868-384.14585 89.54972-385.5278 82.58105-385.3509 68.2492-383.97285 68.177509-370.6732 66.57102Z"/>
<path transform="matrix(1,0,0,-1,868.7349,136.45168)" stroke-width=".75" stroke-linecap="round" stroke-linejoin="round" fill="none" stroke="#000000" d="M-369.27-210.33975C-369.16978-210.16074-369.3707-209.56893-369.78248-210.67967-350.23445-210.11003-332.96925-209.15213-313.18266-210.07158-299.18528-209.07959-299.62483-210.4776-298.58058-195.72332-298.95948-187.56761-297.8868-182.32852-298.3637-175.46977-298.48249-159.28975-299.19215-159.12676-314.27619-159.51415-331.76969-160.25489-350.99305-160.72206-368.8003-159.47974-385.70393-159.1358-383.94123-159.68935-384.74574-175.1547-384.8414-181.57361-385.43577-188.88608-384.81248-193.9898-384.29719-210.2231-384.00514-209.44646-369.27-210.33975Z"/>
<path transform="matrix(1,0,0,-1,868.7349,136.45168)" stroke-width=".75" stroke-linecap="round" stroke-linejoin="round" fill="none" stroke="#000000" d="M-448.17893-.055979C-448.75917 11.766493-457.3384 21.696238-469.1876 21.123246-481.0144 20.988627-491.27943 12.313848-490.68803 .968823-492.03157-11.409613-481.81809-21.663697-470.3825-20.77366-457.94065-20.856423-449.22367-11.864481-448.17893-.055979Z"/>
<path transform="matrix(1,0,0,-1,868.7349,136.45168)" stroke-width=".75" stroke-linecap="round" stroke-linejoin="round" fill="none" stroke="#000000" d="M-42.781934-.360153C-14.692056-.366453 13.602532-.431244 42.086915-.009113"/>
<path transform="matrix(1,0,0,-1,868.7349,136.45168)" stroke-width=".75" stroke-linecap="round" stroke-linejoin="round" fill="none" stroke="#000000" d="M29.353819-8.257243C32.89616-3.870561 36.855875-1.511002 41.739595 .122137 37.10915 1.348342 32.728609 4.412313 29.531878 7.894464"/>
<path transform="matrix(1,0,0,-1,868.7349,136.45168)" stroke-width=".75" stroke-linecap="round" stroke-linejoin="round" fill="none" stroke="#000000" d="M128.45137 .167382C156.10137 .068411 184.39963 .316301 213.26538-.009305"/>
<path transform="matrix(1,0,0,-1,868.7349,136.45168)" stroke-width=".75" stroke-linecap="round" stroke-linejoin="round" fill="none" stroke="#000000" d="M200.73166-8.203005C203.3985-3.702212 207.7828-.953059 212.78134-.426374 208.13072 1.393797 203.83345 3.627873 200.95679 8.378586"/>
<path transform="matrix(1,0,0,-1,868.7349,136.45168)" stroke-width=".75" stroke-linecap="round" stroke-linejoin="round" fill="none" stroke="#000000" d="M-385.00407 92.73733C-412.9193 92.160037-441.16987 92.502559-469.71733 92.09636-469.75535 68.6734-470.12303 45.055887-470.1502 21.657616"/>
<path transform="matrix(1,0,0,-1,868.7349,136.45168)" stroke-width=".75" stroke-linecap="round" stroke-linejoin="round" fill="none" stroke="#000000" d="M-477.76023 34.594987C-474.2442 31.333878-471.23713 27.354775-470.2433 21.697182-468.5395 27.404152-466.39305 31.408188-462.074 34.478384"/>
<path transform="matrix(1,0,0,-1,868.7349,136.45168)" stroke-width=".75" stroke-linecap="round" stroke-linejoin="round" fill="none" stroke="#000000" d="M170.83429 .320811C171.01198-31.115939 170.21552-61.682527 170.39649-92.68424 128.35123-92.41873 85.584438-91.9799 42.30211-91.96516"/>
<path transform="matrix(1,0,0,-1,868.7349,136.45168)" stroke-width=".75" stroke-linecap="round" stroke-linejoin="round" fill="none" stroke="#000000" d="M55.335206-84.07966C52.016107-88.17705 47.761789-91.67929 42.795663-92.07843 47.40824-93.367038 52.487329-96.21576 55.507886-100.67285"/>
<path transform="matrix(1,0,0,-1,868.7349,136.45168)" stroke-width=".75" stroke-linecap="round" stroke-linejoin="round" fill="none" stroke="#000000" d="M170.29097-.434325C170.92247-61.632497 170.28003-122.77388 170.65-184.63842 14.256329-184.69107-142.28589-185.21251-299.40177-184.53406"/>
<path transform="matrix(1,0,0,-1,868.7349,136.45168)" stroke-width=".75" stroke-linecap="round" stroke-linejoin="round" fill="none" stroke="#000000" d="M-286.33665-177.10292C-289.5352-181.22528-294.2911-183.73656-299.59623-184.67487-294.02174-186.03383-289.4864-189.26259-286.39427-192.46382"/>
<path transform="matrix(1,0,0,-1,868.7349,136.45168)" stroke-width=".75" stroke-linecap="round" stroke-linejoin="round" fill="none" stroke="#000000" d="M-113.53215-24.881804C-113.49649-25.847722-113.313899-25.15444-112.26128-25.59576-94.135929-25.08835-75.5249-24.684908-58.42285-24.060978-41.629659-24.16875-41.872095-25.803317-43.40547-10.470868-41.88241-2.388649-42.396009 2.628093-43.040288 9.590042-43.45474 24.195328-42.134847 25.891982-57.070199 25.619893-76.77499 24.852658-94.08505 24.054238-112.22529 25.744332-127.161197 25.52716-128.75655 25.372004-127.48992 10.821047-128.79918 3.385101-128.83803-2.679648-127.51088-10.066857-127.19331-23.984789-127.55721-24.080784-113.53215-24.881804Z"/>
<path transform="matrix(1,0,0,-1,868.7349,136.45168)" stroke-width=".75" stroke-linecap="round" stroke-linejoin="round" fill="none" stroke="#000000" d="M57.58662-25.60933C58.454828-25.435708 57.6049-24.758128 57.892988-25.339224 75.48666-25.333003 94.87216-25.621829 113.31277-25.593815 128.48079-24.363444 128.74393-25.102644 128.33849-9.563566 127.66852-3.609172 128.29113 3.311195 128.71062 10.364073 127.61982 25.497632 129.09566 24.568268 112.42192 25.663466 94.181697 25.099089 76.02091 25.18476 57.83217 23.979346 42.950864 25.166586 41.784925 25.836249 42.890558 9.201859 41.694238 2.419149 43.258687-3.230126 42.953584-10.396965 42.585485-25.50943 42.620298-25.3652 57.58662-25.60933Z"/>
<path transform="matrix(1,0,0,-1,868.7349,136.45168)" stroke-width=".75" stroke-linecap="round" stroke-linejoin="round" fill="none" stroke="#000000" d="M-27.356509-118.073688C-28.720597-117.05458-27.266896-117.660488-28.539458-116.39645-9.880149-117.97209 8.569576-117.691059 27.974041-116.93938 43.88524-117.63359 42.61364-117.56609 42.598825-103.16916 42.20042-95.51206 42.869855-88.67272 42.149194-83.4336 42.94676-67.59872 42.25863-67.93706 27.426396-67.68119 8.627406-67.033748-8.864036-66.638149-28.33747-66.993419-43.38444-67.96124-42.82165-67.199527-43.08075-81.63543-42.566919-88.78545-43.258024-96.15079-42.72603-102.43388-43.67971-117.90174-43.230028-116.58586-27.356509-118.073688Z"/>
<path transform="matrix(1,0,0,-1,868.7349,136.45168)" stroke-width=".75" stroke-linecap="round" stroke-linejoin="round" fill="none" stroke="#000000" d="M-370.52079 67.20842C-369.2945 67.078639-370.67109 68.032878-369.78224 67.403568-351.11485 66.83107-333.15885 67.9489-313.28575 68.049388-298.77143 67.35891-298.72709 67.84035-299.58204 83.42183-299.4228 88.42601-299.58985 96.55112-299.5455 102.21028-298.4789 118.18593-298.03584 117.71989-313.94703 118.114078-332.61274 116.86605-352.03608 116.65098-370.66593 116.90503-384.31626 118.03782-384.42469 117.02245-384.5863 103.09564-385.5986 96.42417-385.3231 89.37047-385.26124 81.78072-384.42979 68.09631-385.1621 67.758289-370.52079 67.20842Z"/>
<path transform="matrix(1,0,0,-1,868.7349,136.45168)" stroke-width=".75" stroke-linecap="round" stroke-linejoin="round" fill="none" stroke="#000000" d="M-370.4702-209.1622C-370.64677-209.53917-369.87928-210.62491-369.17488-210.32236-351.14387-209.01576-332.22904-210.69983-312.9424-209.35039-298.4464-209.74701-299.26786-210.65947-298.8241-194.71817-299.70835-187.62287-298.78514-181.29549-298.80857-175.22272-299.4577-159.28647-299.55253-159.5249-313.86515-160.78348-332.7133-160.17467-351.4887-159.91527-369.94425-159.73447-384.02873-159.19307-384.2959-159.54535-384.05616-174.687-384.67158-182.39694-383.84593-187.9155-384.93656-195.37213-385.4649-209.50067-384.7295-209.54947-370.4702-209.1622Z"/>
<path transform="matrix(1,0,0,-1,868.7349,136.45168)" stroke-width=".75" stroke-linecap="round" stroke-linejoin="round" fill="none" stroke="#000000" d="M-447.86958-.499572C-448.24217 11.293912-457.98997 22.03178-470.44868 21.295567-481.27919 21.312739-491.3197 11.984668-490.8201-.974135-492.02186-12.144941-482.27555-21.755343-469.2496-22.423859-457.79295-21.719935-447.87028-12.480453-447.86958-.499572Z"/>
<path transform="matrix(1,0,0,-1,868.7349,136.45168)" stroke-width=".75" stroke-linecap="round" stroke-linejoin="round" fill="none" stroke="#000000" d="M-42.714265-.398716C-14.419286 .016203 14.052999 .317931 42.572698-.291307"/>
<path transform="matrix(1,0,0,-1,868.7349,136.45168)" stroke-width=".75" stroke-linecap="round" stroke-linejoin="round" fill="none" stroke="#000000" d="M29.287676-8.507745C32.22038-3.886963 36.721467-.889508 41.752397-.16453 36.72903 1.353308 32.97526 3.667813 29.457152 7.617929"/>
<path transform="matrix(1,0,0,-1,868.7349,136.45168)" stroke-width=".75" stroke-linecap="round" stroke-linejoin="round" fill="none" stroke="#000000" d="M128.09595-.312769C156.68715-.0034 184.65702-.186164 213.10138 .291094"/>
<path transform="matrix(1,0,0,-1,868.7349,136.45168)" stroke-width=".75" stroke-linecap="round" stroke-linejoin="round" fill="none" stroke="#000000" d="M200.64345-8.121519C204.06273-4.184868 207.79193-1.105648 213.38393 .281842 207.73853 .831889 203.24613 4.441854 200.42977 8.316051"/>
<path transform="matrix(1,0,0,-1,868.7349,136.45168)" stroke-width=".75" stroke-linecap="round" stroke-linejoin="round" fill="none" stroke="#000000" d="M-384.64927 92.04028C-413.35273 92.295749-441.863 92.27937-469.89436 92.79646-470.29026 69.394107-470.44429 45.674257-470.35847 22.446246"/>
<path transform="matrix(1,0,0,-1,868.7349,136.45168)" stroke-width=".75" stroke-linecap="round" stroke-linejoin="round" fill="none" stroke="#000000" d="M-478.3127 34.802854C-474.2557 31.586236-470.8999 27.210776-470.1068 21.585959-469.13987 27.064013-465.81028 31.760462-462.09928 34.28788"/>
<path transform="matrix(1,0,0,-1,868.7349,136.45168)" stroke-width=".75" stroke-linecap="round" stroke-linejoin="round" fill="none" stroke="#000000" d="M170.71065-.024573C170.29402-30.888407 170.58362-61.448865 170.41364-92.790088 128.15773-92.071689 85.040828-92.179248 42.9015-92.3689"/>
<path transform="matrix(1,0,0,-1,868.7349,136.45168)" stroke-width=".75" stroke-linecap="round" stroke-linejoin="round" fill="none" stroke="#000000" d="M55.296449-84.382419C51.955907-88.44502 47.909044-90.88695 42.711187-92.75495 47.52801-93.19572 52.3486-96.36035 55.574254-100.051609"/>
<path transform="matrix(1,0,0,-1,868.7349,136.45168)" stroke-width=".75" stroke-linecap="round" stroke-linejoin="round" fill="none" stroke="#000000" d="M170.52097 .229029C171.01383-61.638219 170.91815-123.20439 170.72002-185.04184 14.322388-185.10878-142.94345-184.86383-299.59687-185.07758"/>
<path transform="matrix(1,0,0,-1,868.7349,136.45168)" stroke-width=".75" stroke-linecap="round" stroke-linejoin="round" fill="none" stroke="#000000" d="M-286.837-176.75977C-290.01173-181.14046-294.00395-183.9137-299.36659-184.5606-293.75514-185.6065-289.53913-188.5469-286.25917-192.8977"/>
<use data-text="+" xlink:href="#font_13_1" transform="matrix(21.519354,0,0,-21.519316,360.6915,128.70886)"/>
<use data-text="&#x2212;" xlink:href="#font_13_7" transform="matrix(21.519371,0,0,-21.519288,404.89076,111.654148)"/>
<use data-text="U" xlink:href="#font_13_8" transform="matrix(21.519457,0,0,-21.519398,6.814331,141.83292)"/>
<use data-text="(" xlink:href="#font_13_4" transform="matrix(21.519457,0,0,-21.519398,23.470395,141.83292)"/>
<use data-text="s" xlink:href="#font_13_5" transform="matrix(21.519457,0,0,-21.519398,33.015565,141.83292)"/>
<use data-text=")" xlink:href="#font_13_6" transform="matrix(21.519457,0,0,-21.519398,44.00254,141.83292)"/>
<use data-text="Y" xlink:href="#font_13_9" transform="matrix(21.519246,0,0,-21.519398,1086.4069,141.83292)"/>
<use data-text="(" xlink:href="#font_13_4" transform="matrix(21.519246,0,0,-21.519398,1099.5556,141.83292)"/>
<use data-text="s" xlink:href="#font_13_5" transform="matrix(21.519246,0,0,-21.519398,1109.1007,141.83292)"/>
<use data-text=")" xlink:href="#font_13_6" transform="matrix(21.519246,0,0,-21.519398,1120.0875,141.83292)"/>
<use data-text="+" xlink:href="#font_13_1" transform="matrix(37.185197,0,0,-37.18505,128.25074,145.9725)"/>
<use data-text="+" xlink:href="#font_13_1" transform="matrix(37.185197,0,0,-37.18505,641.152,145.9725)"/>
<use data-text="G" xlink:href="#font_13_2" transform="matrix(21.519362,0,0,-21.519398,242.71637,141.83292)"/>
<use data-text="1" xlink:href="#font_13_3" transform="matrix(16.438399,0,0,-16.438426,259.1836,146.13391)"/>
<use data-text="(" xlink:href="#font_13_4" transform="matrix(21.519362,0,0,-21.519398,269.42619,141.83292)"/>
<use data-text="s" xlink:href="#font_13_5" transform="matrix(21.519362,0,0,-21.519398,278.9713,141.83292)"/>
<use data-text=")" xlink:href="#font_13_6" transform="matrix(21.519362,0,0,-21.519398,289.95829,141.83292)"/>
<use data-text="G" xlink:href="#font_13_2" transform="matrix(21.519362,0,0,-21.519398,499.16703,141.83292)"/>
<use data-text="2" xlink:href="#font_13_10" transform="matrix(16.438399,0,0,-16.438426,515.6343,146.06815)"/>
<use data-text="(" xlink:href="#font_13_4" transform="matrix(21.519362,0,0,-21.519398,525.87686,141.83292)"/>
<use data-text="s" xlink:href="#font_13_5" transform="matrix(21.519362,0,0,-21.519398,535.422,141.83292)"/>
<use data-text=")" xlink:href="#font_13_6" transform="matrix(21.519362,0,0,-21.519398,546.40896,141.83292)"/>
<path transform="matrix(1,0,0,-1,868.735,136.45168)" stroke-width=".75" stroke-linecap="round" stroke-linejoin="round" fill="none" stroke="#000000" d="M-626.7129-25.592934C-625.39437-24.869589-625.2498-24.496722-626.51986-24.251456-607.6982-24.184449-588.0953-24.010659-571.2018-24.779549-555.72457-25.339652-556.2035-24.571803-554.5244-9.668576-555.81558-2.765738-555.87026 2.877219-556.3975 9.558424-554.66848 24.637854-555.2622 24.81718-569.69656 25.56827-589.1581 25.770087-608.41018 25.398758-626.1909 25.64955-641.4796 25.356423-640.77359 24.710505-640.4665 9.724602-641.4009 2.771806-640.25729-2.687158-641.1071-9.484113-641.9706-24.481228-641.27969-24.55287-626.7129-25.592934Z"/>
<path transform="matrix(1,0,0,-1,868.735,136.45168)" stroke-width=".75" stroke-linecap="round" stroke-linejoin="round" fill="none" stroke="#000000" d="M-368.92393-25.221852C-370.03938-25.618599-369.6684-24.403378-369.02174-24.031565-351.88768-24.431584-331.62077-25.832354-314.0274-24.538006-299.33219-24.85946-299.94163-24.791295-298.71949-10.759442-299.93418-4.243243-299.48799 2.5317-298.66694 9.172293-298.1101 24.247523-298.03147 25.087264-313.65928 24.385508-332.63447 24.284575-350.88236 25.696059-369.09535 25.445424-384.51615 25.250689-383.73893 24.927773-384.6243 10.459842-385.30387 2.724529-383.7995-3.412838-384.88127-9.112449-384.5021-25.898367-385.1964-25.790774-368.92393-25.221852Z"/>
<path transform="matrix(1,0,0,-1,868.735,136.45168)" stroke-width=".75" stroke-linecap="round" stroke-linejoin="round" fill="none" stroke="#000000" d="M-705.0848 .860186C-704.7398 12.865167-713.7364 21.397276-725.69656 21.035618-737.6963 21.34464-748.91488 12.062536-747.2958 .427655-747.8295-11.006164-738.641-22.60678-726.3326-21.642102-714.40457-20.966538-705.0022-12.811711-705.0848 .860186Z"/>
<path transform="matrix(1,0,0,-1,868.735,136.45168)" stroke-width=".75" stroke-linecap="round" stroke-linejoin="round" fill="none" stroke="#000000" d="M-192.07108-.515669C-191.4523 12.181782-201.16622 22.54462-213.48343 21.559573-224.55873 20.858777-236.08197 12.470803-234.7226 .541886-234.84333-12.815685-226.36963-22.232127-213.04537-22.430193-202.4444-20.852265-191.196-11.392522-192.07108-.515669Z"/>
<path transform="matrix(1,0,0,-1,868.735,136.45168)" stroke-width=".75" stroke-linecap="round" stroke-linejoin="round" fill="none" stroke="#000000" d="M-812.0567 .353263C-790.77059 .106796-769.188 .127406-748.02828-.344925"/>
<path transform="matrix(1,0,0,-1,868.735,136.45168)" stroke-width=".75" stroke-linecap="round" stroke-linejoin="round" fill="none" stroke="#000000" d="M-760.6991-8.485973C-757.7377-3.665543-753.1424-1.330366-748.5128 .295485-753.1281 .935629-758.31106 3.96023-761.30648 8.466956"/>
<path transform="matrix(1,0,0,-1,868.735,136.45168)" stroke-width=".75" stroke-linecap="round" stroke-linejoin="round" fill="none" stroke="#000000" d="M-704.3737-.175989C-684.0453 .376139-662.86447 .300301-641.07247 .046404"/>
<path transform="matrix(1,0,0,-1,868.735,136.45168)" stroke-width=".75" stroke-linecap="round" stroke-linejoin="round" fill="none" stroke="#000000" d="M-654.2756-8.2382C-650.9269-4.358627-646.3161-1.423661-641.6009-.059843-646.80929 .8421-650.4702 3.991321-654.463 7.869134"/>
<path transform="matrix(1,0,0,-1,868.735,136.45168)" stroke-width=".75" stroke-linecap="round" stroke-linejoin="round" fill="none" stroke="#000000" d="M-555.6537 .046309C-534.1741-.350568-512.71609 .061682-492.07759-.269772"/>
<path transform="matrix(1,0,0,-1,868.735,136.45168)" stroke-width=".75" stroke-linecap="round" stroke-linejoin="round" fill="none" stroke="#000000" d="M-504.30506-8.008808C-501.14939-3.624808-497.06617-1.429377-491.76 .098246-497.42649 1.083586-501.47993 4.393204-504.49403 7.670452"/>
<path transform="matrix(1,0,0,-1,868.735,136.45168)" stroke-width=".75" stroke-linecap="round" stroke-linejoin="round" fill="none" stroke="#000000" d="M-448.39875 .131501C-426.98774-.360053-405.8771-.038767-385.1661-.368476"/>
<path transform="matrix(1,0,0,-1,868.735,136.45168)" stroke-width=".75" stroke-linecap="round" stroke-linejoin="round" fill="none" stroke="#000000" d="M-398.0455-7.931408C-394.00459-4.242543-389.5438-1.196711-384.67945 .208311-389.9507 .861823-394.0064 4.12439-397.21943 8.133465"/>
<path transform="matrix(1,0,0,-1,868.735,136.45168)" stroke-width=".75" stroke-linecap="round" stroke-linejoin="round" fill="none" stroke="#000000" d="M-299.1592 .390944C-278.07405 .374519-256.55033-.225824-235.51184-.304263"/>
<path transform="matrix(1,0,0,-1,868.735,136.45168)" stroke-width=".75" stroke-linecap="round" stroke-linejoin="round" fill="none" stroke="#000000" d="M-248.40506-8.312302C-244.7259-4.417109-240.14072-1.391422-235.7321-.446322-240.8124 1.044405-245.08057 3.971326-248.48125 7.691711"/>
<path transform="matrix(1,0,0,-1,868.735,136.45168)" stroke-width=".75" stroke-linecap="round" stroke-linejoin="round" fill="none" stroke="#000000" d="M-191.51917-.193365C-170.68735-.233242-149.71857-.328824-128.63727 .158992"/>
<path transform="matrix(1,0,0,-1,868.735,136.45168)" stroke-width=".75" stroke-linecap="round" stroke-linejoin="round" fill="none" stroke="#000000" d="M-141.18134-8.342472C-137.87668-4.212567-133.62976-.989989-128.72739 .304546-133.8835 1.072252-137.8987 3.668013-141.23508 8.432527"/>
<path transform="matrix(1,0,0,-1,868.735,136.45168)" stroke-width=".75" stroke-linecap="round" stroke-linejoin="round" fill="none" stroke="#000000" d="M-42.896684-92.793689C-100.014087-92.30166-156.78427-92.45436-213.43453-92.5477-213.68685-69.31667-213.2992-45.135484-213.54062-21.94888"/>
<path transform="matrix(1,0,0,-1,868.735,136.45168)" stroke-width=".75" stroke-linecap="round" stroke-linejoin="round" fill="none" stroke="#000000" d="M-205.15534-34.352529C-209.61324-31.548232-212.65654-26.599377-213.20157-21.720005-214.79357-27.185263-217.84189-31.63715-221.53189-34.468038"/>
<path transform="matrix(1,0,0,-1,868.735,136.45168)" stroke-width=".75" stroke-linecap="round" stroke-linejoin="round" fill="none" stroke="#000000" d="M-385.11216-184.75557C-498.6997-184.92639-612.8581-184.78374-726.71029-184.39698-726.0298-130.559-726.1177-76.67096-726.0398-21.897433"/>
<path transform="matrix(1,0,0,-1,868.735,136.45168)" stroke-width=".75" stroke-linecap="round" stroke-linejoin="round" fill="none" stroke="#000000" d="M-718.5648-35.069608C-722.7777-31.545615-725.468-26.77054-726.05947-22.005827-727.3483-27.034136-730.1957-31.510745-734.1105-34.87567"/>
<path transform="matrix(1,0,0,-1,868.735,136.45168)" stroke-width=".75" stroke-linecap="round" stroke-linejoin="round" fill="none" stroke="#000000" d="M-626.8027-25.769989C-625.66317-24.484822-626.751-25.838088-625.54989-24.89753-607.67446-25.0766-588.6983-24.161213-571.37258-25.199275-554.65927-25.282286-555.3941-25.259844-555.7449-9.760833-555.18148-3.267354-556.387 2.896552-555.99166 10.586263-555.5266 24.7855-555.52426 23.977667-570.4697 24.419325-588.1424 25.5649-607.70999 25.631342-626.37698 25.222905-640.2391 25.894459-641.9743 25.86281-640.2594 10.700779-641.32699 3.940046-640.55166-3.982272-640.25607-9.051832-641.98367-24.454306-641.1065-24.415566-626.8027-25.769989Z"/>
<path transform="matrix(1,0,0,-1,868.735,136.45168)" stroke-width=".75" stroke-linecap="round" stroke-linejoin="round" fill="none" stroke="#000000" d="M-368.73698-25.737877C-370.4414-24.278733-368.95198-25.875683-370.0177-25.22137-351.6874-24.786793-333.09745-24.093764-313.1966-25.3243-298.1623-25.081484-298.287-25.641037-299.37419-10.708078-299.54957-3.596903-298.62928 2.873269-298.83766 9.889146-299.8373 25.260348-299.70826 25.556792-313.8625 25.22139-332.00816 24.797602-350.14729 24.743563-370.33067 24.957015-385.11647 24.29352-384.61677 24.63842-383.8689 9.939739-384.93534 3.118374-384.35298-3.687733-385.4775-9.525345-385.33439-24.214653-384.37367-24.719086-368.73698-25.737877Z"/>
<path transform="matrix(1,0,0,-1,868.735,136.45168)" stroke-width=".75" stroke-linecap="round" stroke-linejoin="round" fill="none" stroke="#000000" d="M-704.1872-.657867C-704.7279 12.285053-715.4469 21.022086-725.7738 22.354367-737.4379 21.037987-747.4573 11.436026-748.0526 .155612-748.3505-11.25425-738.58218-21.311448-725.48397-20.980988-713.77847-22.333489-704.9826-11.488609-704.1872-.657867Z"/>
<path transform="matrix(1,0,0,-1,868.735,136.45168)" stroke-width=".75" stroke-linecap="round" stroke-linejoin="round" fill="none" stroke="#000000" d="M-191.57373-.247822C-191.45755 11.5795-200.83434 20.95862-212.90984 21.224186-224.90444 22.577679-234.2496 11.962903-236.10652 .866033-236.16875-12.114388-224.66873-21.92114-213.28527-22.223193-201.7183-21.57592-192.74085-12.557507-191.57373-.247822Z"/>
<path transform="matrix(1,0,0,-1,868.735,136.45168)" stroke-width=".75" stroke-linecap="round" stroke-linejoin="round" fill="none" stroke="#000000" d="M-811.82449-.16118C-791.1319-.086256-769.64749 .183866-748.7846 .223127"/>
<path transform="matrix(1,0,0,-1,868.735,136.45168)" stroke-width=".75" stroke-linecap="round" stroke-linejoin="round" fill="none" stroke="#000000" d="M-761.26278-7.711314C-757.6799-3.904372-753.42398-1.281075-748.54727 .220322-753.8236 1.600206-757.80697 4.279926-760.8609 8.343681"/>
<path transform="matrix(1,0,0,-1,868.735,136.45168)" stroke-width=".75" stroke-linecap="round" stroke-linejoin="round" fill="none" stroke="#000000" d="M-705.17636 .378344C-683.37966 .356741-662.42086 .220892-641.7647-.363884"/>
<path transform="matrix(1,0,0,-1,868.735,136.45168)" stroke-width=".75" stroke-linecap="round" stroke-linejoin="round" fill="none" stroke="#000000" d="M-653.85818-7.661983C-651.25997-4.421455-646.0118-.771678-641.3186-.226277-646.0225 1.206741-650.92208 3.992642-654.0743 8.202843"/>
<path transform="matrix(1,0,0,-1,868.735,136.45168)" stroke-width=".75" stroke-linecap="round" stroke-linejoin="round" fill="none" stroke="#000000" d="M-555.7145 .250181C-534.5127 .077198-512.961-.373626-492.3449-.315706"/>
<path transform="matrix(1,0,0,-1,868.735,136.45168)" stroke-width=".75" stroke-linecap="round" stroke-linejoin="round" fill="none" stroke="#000000" d="M-504.3239-7.935623C-501.12684-4.27898-497.40266-1.032676-492.1677 .259364-497.20997 1.456686-501.33964 4.175082-504.70567 7.709533"/>
<path transform="matrix(1,0,0,-1,868.735,136.45168)" stroke-width=".75" stroke-linecap="round" stroke-linejoin="round" fill="none" stroke="#000000" d="M-448.01078-.03511C-427.65925-.301692-406.10285-.176975-385.08244-.424475"/>
<path transform="matrix(1,0,0,-1,868.735,136.45168)" stroke-width=".75" stroke-linecap="round" stroke-linejoin="round" fill="none" stroke="#000000" d="M-397.2981-7.727545C-394.32328-3.629582-389.546-1.0807-385.21974 .446383-389.7303 1.11-394.04505 4.270082-397.89567 8.091532"/>
<path transform="matrix(1,0,0,-1,868.735,136.45168)" stroke-width=".75" stroke-linecap="round" stroke-linejoin="round" fill="none" stroke="#000000" d="M-298.9714-.394802C-277.58076 .223174-256.35649 .231204-235.80905 .141827"/>
<path transform="matrix(1,0,0,-1,868.735,136.45168)" stroke-width=".75" stroke-linecap="round" stroke-linejoin="round" fill="none" stroke="#000000" d="M-248.11891-8.506541C-245.41756-3.601085-240.94464-1.595199-235.48178-.276167-240.48952 1.021416-245.34345 4.232287-248.17911 7.888829"/>
<path transform="matrix(1,0,0,-1,868.735,136.45168)" stroke-width=".75" stroke-linecap="round" stroke-linejoin="round" fill="none" stroke="#000000" d="M-192.21195 .198189C-170.96833 .404706-149.85593-.38428-128.27249-.107127"/>
<path transform="matrix(1,0,0,-1,868.735,136.45168)" stroke-width=".75" stroke-linecap="round" stroke-linejoin="round" fill="none" stroke="#000000" d="M-141.39786-7.906966C-138.4156-3.695012-133.62491-.957217-128.21811-.372123-133.58945 1.019605-137.84117 4.057782-141.36731 7.651841"/>
<path transform="matrix(1,0,0,-1,868.735,136.45168)" stroke-width=".75" stroke-linecap="round" stroke-linejoin="round" fill="none" stroke="#000000" d="M-43.234899-92.63715C-100.04163-92.55079-156.80614-92.06409-213.86277-92.78929-213.76984-69.1779-213.77599-45.782556-213.51996-22.42995"/>
<path transform="matrix(1,0,0,-1,868.735,136.45168)" stroke-width=".75" stroke-linecap="round" stroke-linejoin="round" fill="none" stroke="#000000" d="M-205.7825-35.102884C-209.8929-31.214045-212.60787-27.2421-213.48223-21.995102-214.98094-27.375216-217.74695-31.604033-221.5517-34.25996"/>
<path transform="matrix(1,0,0,-1,868.735,136.45168)" stroke-width=".75" stroke-linecap="round" stroke-linejoin="round" fill="none" stroke="#000000" d="M-384.4173-184.68296C-498.92283-184.98317-612.2338-184.50847-726.3501-184.51888-726.301-130.36255-726.1968-75.898868-726.0175-22.082568"/>
<path transform="matrix(1,0,0,-1,868.735,136.45168)" stroke-width=".75" stroke-linecap="round" stroke-linejoin="round" fill="none" stroke="#000000" d="M-718.2528-34.484098C-722.05679-31.820202-724.96377-27.309893-726.1017-21.964055-727.5368-27.342049-730.446-31.095744-734.183-34.45292"/>
<path transform="matrix(1,0,0,-1,868.735,136.45168)" stroke-width=".75" stroke-linecap="round" stroke-linejoin="round" fill="none" stroke="#000000" d="M-626.5593-25.587155C-625.52639-24.977253-625.06448-25.668951-625.8487-24.98004-607.4766-24.739304-588.2537-24.358439-571.1935-25.530354-555.63607-25.240592-554.61587-24.865845-555.0394-9.402424-554.8163-3.323056-554.49478 2.6632-554.8352 10.503864-555.71896 25.071249-554.50619 24.362727-570.8224 24.30196-589.83029 24.724516-607.1745 24.0152-626.5168 25.147553-640.5384 24.480687-640.0553 25.480376-640.1061 10.052262-641.5664 3.257886-640.8425-3.067146-641.06149-10.559485-641.1126-24.678814-640.18618-24.922095-626.5593-25.587155Z"/>
<path transform="matrix(1,0,0,-1,868.735,136.45168)" stroke-width=".75" stroke-linecap="round" stroke-linejoin="round" fill="none" stroke="#000000" d="M-369.0793-25.017325C-370.54295-25.599633-369.42018-25.416686-369.40278-25.490389-351.6304-25.761715-333.28096-24.711733-314.42515-24.236235-298.82069-24.380446-299.05509-25.672118-299.17353-10.857929-298.92353-3.205075-299.7168 2.428672-299.6968 10.277508-299.28303 24.987368-299.24577 25.346346-313.93727 25.316954-332.15888 24.948874-351.4575 24.19155-369.31803 24.202736-383.87385 25.176842-385.45109 25.453427-385.4319 10.300884-383.68217 3.670499-384.18214-3.275525-384.84629-9.301638-385.12187-25.190278-384.25669-24.62651-369.0793-25.017325Z"/>
<path transform="matrix(1,0,0,-1,868.735,136.45168)" stroke-width=".75" stroke-linecap="round" stroke-linejoin="round" fill="none" stroke="#000000" d="M-705.24179 .636405C-705.64309 12.849621-713.53866 21.717585-726.36477 20.93534-739.1219 22.621872-747.73226 11.087214-747.4758-.482588-747.88766-11.344997-737.51986-22.497778-725.7399-21.803019-714.5282-21.573964-704.55929-11.594124-705.24179 .636405Z"/>
<path transform="matrix(1,0,0,-1,868.735,136.45168)" stroke-width=".75" stroke-linecap="round" stroke-linejoin="round" fill="none" stroke="#000000" d="M-191.07329-.057628C-192.70085 11.21148-201.32778 21.95189-214.21996 21.717862-226.06935 22.305857-234.32784 12.644362-235.46744-.700307-235.50107-11.347013-224.95714-21.79237-212.81906-21.796908-201.13622-21.796429-191.90613-12.436007-191.07329-.057628Z"/>
<path transform="matrix(1,0,0,-1,868.735,136.45168)" stroke-width=".75" stroke-linecap="round" stroke-linejoin="round" fill="none" stroke="#000000" d="M-811.80776 .17388C-790.75216-.274324-770.0591-.135349-748.7282 .100117"/>
<path transform="matrix(1,0,0,-1,868.735,136.45168)" stroke-width=".75" stroke-linecap="round" stroke-linejoin="round" fill="none" stroke="#000000" d="M-761.4248-8.070514C-758.4049-4.019998-753.2673-.913244-748.5139-.233451-753.0613 1.248887-757.95669 4.360534-761.2865 8.320452"/>
<path transform="matrix(1,0,0,-1,868.735,136.45168)" stroke-width=".75" stroke-linecap="round" stroke-linejoin="round" fill="none" stroke="#000000" d="M-704.4882-.255719C-683.26528-.358059-662.69418-.228621-641.67318-.327217"/>
<path transform="matrix(1,0,0,-1,868.735,136.45168)" stroke-width=".75" stroke-linecap="round" stroke-linejoin="round" fill="none" stroke="#000000" d="M-654.22988-8.257308C-650.6911-4.427371-646.4484-.750418-641.4134-.325724-646.4803 1.332387-650.727 4.200506-654.01339 8.384784"/>
<path transform="matrix(1,0,0,-1,868.735,136.45168)" stroke-width=".75" stroke-linecap="round" stroke-linejoin="round" fill="none" stroke="#000000" d="M-555.04916-.244768C-534.481-.313549-513.5928-.014434-492.03169 .386519"/>
<path transform="matrix(1,0,0,-1,868.735,136.45168)" stroke-width=".75" stroke-linecap="round" stroke-linejoin="round" fill="none" stroke="#000000" d="M-504.73857-8.415899C-501.20658-4.38571-496.9898-1.058634-492.41236-.032403-496.89338 1.158151-501.23756 3.928833-504.34849 8.402556"/>
<path transform="matrix(1,0,0,-1,868.735,136.45168)" stroke-width=".75" stroke-linecap="round" stroke-linejoin="round" fill="none" stroke="#000000" d="M-448.43418 .162332C-426.89128-.206556-405.95277 .444769-385.09037-.059379"/>
<path transform="matrix(1,0,0,-1,868.735,136.45168)" stroke-width=".75" stroke-linecap="round" stroke-linejoin="round" fill="none" stroke="#000000" d="M-397.5785-8.160972C-394.02925-4.386061-389.70835-.876578-384.59083 .2774-390.1622 1.454751-394.7015 4.143917-397.4709 8.333967"/>
<path transform="matrix(1,0,0,-1,868.735,136.45168)" stroke-width=".75" stroke-linecap="round" stroke-linejoin="round" fill="none" stroke="#000000" d="M-299.23933-.034759C-277.56465 .374258-256.87684 .134797-235.96012 .262257"/>
<path transform="matrix(1,0,0,-1,868.735,136.45168)" stroke-width=".75" stroke-linecap="round" stroke-linejoin="round" fill="none" stroke="#000000" d="M-247.8734-7.78862C-245.02285-4.097515-240.84885-1.100138-235.79361-.058546-240.82167 1.323923-244.68631 4.330888-248.36643 7.978548"/>
<path transform="matrix(1,0,0,-1,868.735,136.45168)" stroke-width=".75" stroke-linecap="round" stroke-linejoin="round" fill="none" stroke="#000000" d="M-192.08306-.151807C-170.64278 .429652-149.93788 .010928-128.88069-.132339"/>
<path transform="matrix(1,0,0,-1,868.735,136.45168)" stroke-width=".75" stroke-linecap="round" stroke-linejoin="round" fill="none" stroke="#000000" d="M-140.7847-8.299521C-137.95127-3.616042-133.65547-1.159029-128.55152-.283786-133.24387 .890325-138.4047 3.753461-141.16767 8.425891"/>
<path transform="matrix(1,0,0,-1,868.735,136.45168)" stroke-width=".75" stroke-linecap="round" stroke-linejoin="round" fill="none" stroke="#000000" d="M-42.626234-91.96933C-100.06967-92.449108-156.79912-92.427349-213.77793-92.18513-213.5472-68.78516-213.98746-45.840318-213.94689-22.15509"/>
<path transform="matrix(1,0,0,-1,868.735,136.45168)" stroke-width=".75" stroke-linecap="round" stroke-linejoin="round" fill="none" stroke="#000000" d="M-205.56723-34.648168C-209.16362-31.264075-212.11966-27.399914-213.72364-22.175652-214.53728-27.470057-217.25147-31.081332-221.80258-34.595224"/>
<path transform="matrix(1,0,0,-1,868.735,136.45168)" stroke-width=".75" stroke-linecap="round" stroke-linejoin="round" fill="none" stroke="#000000" d="M-384.8293-185.21987C-498.8209-184.74089-612.48397-184.68347-726.7855-185.24907-726.47549-130.16844-726.80197-76.68354-726.8376-22.242556"/>
<path transform="matrix(1,0,0,-1,868.735,136.45168)" stroke-width=".75" stroke-linecap="round" stroke-linejoin="round" fill="none" stroke="#000000" d="M-717.99777-34.37294C-722.13259-31.231528-724.97317-27.189974-726.37149-21.851769-727.16189-27.43276-730.80807-31.7762-734.1646-35.063825"/>
<path transform="matrix(1,0,0,-1,868.735,136.45168)" stroke-width=".75" stroke-linecap="round" stroke-linejoin="round" fill="none" stroke="#000000" d="M-625.7611-24.11662C-626.24868-24.941267-625.89559-25.5707-625.2618-25.536202-607.5246-24.189898-589.6885-24.089545-570.70889-25.76613-555.08596-24.914568-555.19137-25.243027-556.32138-10.439814-554.8613-3.175928-556.1926 3.373921-555.9135 9.553038-555.7733 25.528428-555.9698 25.30323-569.6751 24.785454-588.8549 24.774809-608.31997 24.611742-625.99649 25.807368-641.3323 25.560786-641.1014 24.269972-640.9153 9.407205-641.45138 2.883908-641.49508-3.145905-641.05966-9.345515-640.6393-25.142443-641.23397-24.911013-625.7611-24.11662Z"/>
<path transform="matrix(1,0,0,-1,868.735,136.45168)" stroke-width=".75" stroke-linecap="round" stroke-linejoin="round" fill="none" stroke="#000000" d="M-369.273-25.57045C-369.81745-25.342337-369.6059-24.104895-368.90693-25.103903-351.80964-24.99934-333.2447-24.253176-313.55015-25.367529-298.27403-25.766583-298.60014-24.82146-299.5106-10.644193-299.23216-2.658875-299.6162 4.013007-299.1393 10.37426-298.42866 25.155652-298.95173 25.455977-313.87367 25.211733-333.19767 24.746375-350.42347 25.766196-369.3259 24.876029-383.8237 24.342249-384.70744 25.65471-385.32807 10.101472-383.83384 2.940877-384.35356-3.250996-383.73426-10.686758-385.3673-25.05248-384.00868-25.072497-369.273-25.57045Z"/>
<path transform="matrix(1,0,0,-1,868.735,136.45168)" stroke-width=".75" stroke-linecap="round" stroke-linejoin="round" fill="none" stroke="#000000" d="M-705.0232-.93924C-705.59158 11.601532-715.2816 20.837143-726.37747 21.678343-737.9121 21.42732-747.57138 12.81034-747.74667 .110291-747.3844-12.03475-739.252-22.250086-725.7825-21.555335-714.3627-21.580706-705.58999-12.352766-705.0232-.93924Z"/>
<path transform="matrix(1,0,0,-1,868.735,136.45168)" stroke-width=".75" stroke-linecap="round" stroke-linejoin="round" fill="none" stroke="#000000" d="M-192.68926 .782614C-191.7367 11.087502-202.40384 22.193432-213.71431 21.98039-224.59346 20.995038-234.48937 12.879192-234.57735 .668923-235.14487-12.672247-226.06838-21.334927-214.3854-22.062726-201.87894-20.947043-192.78087-12.568591-192.68926 .782614Z"/>
<path transform="matrix(1,0,0,-1,868.735,136.45168)" stroke-width=".75" stroke-linecap="round" stroke-linejoin="round" fill="none" stroke="#000000" d="M-812.1868 .389121C-790.96389-.393333-769.9502 .313118-748.4926 .422848"/>
<path transform="matrix(1,0,0,-1,868.735,136.45168)" stroke-width=".75" stroke-linecap="round" stroke-linejoin="round" fill="none" stroke="#000000" d="M-760.749-8.356428C-758.2819-4.311541-753.5245-1.493931-748.36679-.093592-753.27999 1.460931-758.16226 3.886765-761.40786 8.49014"/>
<path transform="matrix(1,0,0,-1,868.735,136.45168)" stroke-width=".75" stroke-linecap="round" stroke-linejoin="round" fill="none" stroke="#000000" d="M-704.3827 .074917C-683.8772 .417058-662.4042 .364795-641.21328 .054381"/>
<path transform="matrix(1,0,0,-1,868.735,136.45168)" stroke-width=".75" stroke-linecap="round" stroke-linejoin="round" fill="none" stroke="#000000" d="M-654.2192-8.144771C-651.1929-4.440044-646.6957-1.385981-641.3214 .118059-646.3246 1.318997-650.70486 3.779488-653.6886 8.160961"/>
<path transform="matrix(1,0,0,-1,868.735,136.45168)" stroke-width=".75" stroke-linecap="round" stroke-linejoin="round" fill="none" stroke="#000000" d="M-555.0859-.155261C-534.5844-.312998-513.0831-.446452-492.04847 .172484"/>
<path transform="matrix(1,0,0,-1,868.735,136.45168)" stroke-width=".75" stroke-linecap="round" stroke-linejoin="round" fill="none" stroke="#000000" d="M-504.50065-8.358231C-501.7128-3.733226-496.9641-1.579841-491.68946-.173218-496.93116 1.53054-501.1316 3.668274-504.23304 8.013319"/>
<path transform="matrix(1,0,0,-1,868.735,136.45168)" stroke-width=".75" stroke-linecap="round" stroke-linejoin="round" fill="none" stroke="#000000" d="M-448.67317-.114425C-427.3387 .389064-405.67839-.214642-385.0022 .041061"/>
<path transform="matrix(1,0,0,-1,868.735,136.45168)" stroke-width=".75" stroke-linecap="round" stroke-linejoin="round" fill="none" stroke="#000000" d="M-397.5879-7.869108C-394.75178-4.333241-389.7081-1.233076-384.6443-.032413-390.30128 1.179246-394.10633 3.933736-397.74797 8.38698"/>
<path transform="matrix(1,0,0,-1,868.735,136.45168)" stroke-width=".75" stroke-linecap="round" stroke-linejoin="round" fill="none" stroke="#000000" d="M-298.7205 .036115C-277.70677-.081668-256.99833 .024503-235.52562-.184921"/>
<path transform="matrix(1,0,0,-1,868.735,136.45168)" stroke-width=".75" stroke-linecap="round" stroke-linejoin="round" fill="none" stroke="#000000" d="M-248.05466-8.388922C-244.7652-3.903663-240.52643-1.320825-235.81867-.395122-240.7917 1.27248-244.68277 4.379268-248.46839 8.430537"/>
<path transform="matrix(1,0,0,-1,868.735,136.45168)" stroke-width=".75" stroke-linecap="round" stroke-linejoin="round" fill="none" stroke="#000000" d="M-191.61547 .350797C-170.87253 .015984-149.65746-.080505-128.66834 .291674"/>
<path transform="matrix(1,0,0,-1,868.735,136.45168)" stroke-width=".75" stroke-linecap="round" stroke-linejoin="round" fill="none" stroke="#000000" d="M-141.58177-8.408837C-138.14302-4.39599-133.62001-1.484864-128.74015 .182814-133.41591 .872304-138.35427 3.78477-140.89214 7.770289"/>
<path transform="matrix(1,0,0,-1,868.735,136.45168)" stroke-width=".75" stroke-linecap="round" stroke-linejoin="round" fill="none" stroke="#000000" d="M-43.133726-92.18976C-99.675029-92.60331-156.81075-92.26459-213.7597-92.50978-213.60582-68.56594-213.50957-45.182603-213.85301-22.286677"/>
<path transform="matrix(1,0,0,-1,868.735,136.45168)" stroke-width=".75" stroke-linecap="round" stroke-linejoin="round" fill="none" stroke="#000000" d="M-205.5616-34.46142C-209.75708-31.836909-212.37204-27.247576-213.95714-22.199044-214.70845-26.627509-217.57816-31.150162-221.71672-34.403036"/>
<path transform="matrix(1,0,0,-1,868.735,136.45168)" stroke-width=".75" stroke-linecap="round" stroke-linejoin="round" fill="none" stroke="#000000" d="M-384.42167-184.43701C-498.76573-184.71347-612.13229-184.97376-726.4267-185.07042-726.5473-130.63486-726.5651-76.20221-726.7261-22.123133"/>
<path transform="matrix(1,0,0,-1,868.735,136.45168)" stroke-width=".75" stroke-linecap="round" stroke-linejoin="round" fill="none" stroke="#000000" d="M-718.47146-34.509519C-722.301-31.731963-725.42166-26.74835-726.5969-22.107192-727.5199-27.201348-730.8429-31.819878-734.7694-34.675504"/>
<path transform="matrix(1,0,0,-1,868.735,136.45168)" stroke-width=".75" stroke-linecap="round" stroke-linejoin="round" fill="none" stroke="#000000" d="M-625.8781-25.568625C-626.8644-25.727204-625.7588-24.6552-626.2419-25.38001-606.5562-25.512572-588.8854-25.214808-569.9838-24.920258-555.42288-24.970648-555.94027-25.103985-555.3381-10.641213-554.5997-2.895037-555.702 3.069145-554.5086 10.817659-554.9051 25.69739-554.9236 25.660037-570.7612 24.547648-589.4425 25.232527-608.0052 25.056557-626.4238 25.194436-641.3682 24.81237-640.5503 25.915062-640.9644 10.357451-640.782 3.980144-641.5668-2.91375-641.8003-9.294446-641.94088-25.026007-641.6333-24.778676-625.8781-25.568625Z"/>
<path transform="matrix(1,0,0,-1,868.735,136.45168)" stroke-width=".75" stroke-linecap="round" stroke-linejoin="round" fill="none" stroke="#000000" d="M-368.6709-24.091235C-369.9847-24.546853-368.80766-24.406373-369.91145-24.684187-350.55488-25.133246-333.29768-24.49144-313.53459-25.086426-298.2785-25.362992-299.48237-25.275885-298.63285-10.290482-298.71333-3.877853-299.5841 2.798735-298.18345 10.739414-299.14659 23.989752-299.09504 24.807404-313.80455 25.211588-332.95536 25.68332-350.48939 24.281966-370.06538 24.57716-384.2537 24.281332-384.81764 24.199858-384.0612 8.9801-385.29649 3.718608-384.94206-3.720972-383.73066-9.428575-385.13478-25.407338-384.20106-25.756184-368.6709-24.091235Z"/>
<path transform="matrix(1,0,0,-1,868.735,136.45168)" stroke-width=".75" stroke-linecap="round" stroke-linejoin="round" fill="none" stroke="#000000" d="M-705.6589-.86311C-704.5603 11.865485-714.78738 21.933876-726.675 20.89132-738.16629 22.016827-747.6471 12.813575-747.43447-.897285-747.7273-12.334283-739.35629-22.31866-726.08847-21.401656-715.46389-21.14762-704.06619-12.836646-705.6589-.86311Z"/>
<path transform="matrix(1,0,0,-1,868.735,136.45168)" stroke-width=".75" stroke-linecap="round" stroke-linejoin="round" fill="none" stroke="#000000" d="M-191.44391-.195892C-190.93282 12.60668-201.58034 20.974513-213.33568 22.087033-224.64664 22.168732-235.84517 11.61636-234.39183-.726816-234.34249-12.643379-225.3994-21.641652-213.90319-21.380007-200.81639-22.013749-191.49227-11.787866-191.44391-.195892Z"/>
<path transform="matrix(1,0,0,-1,868.735,136.45168)" stroke-width=".75" stroke-linecap="round" stroke-linejoin="round" fill="none" stroke="#000000" d="M-811.6216 .30261C-791.1148-.090123-769.50167-.217477-748.53897-.374498"/>
<path transform="matrix(1,0,0,-1,868.735,136.45168)" stroke-width=".75" stroke-linecap="round" stroke-linejoin="round" fill="none" stroke="#000000" d="M-761.2292-7.892791C-758.2105-3.57917-753.2996-1.273957-748.0672 .370377-753.06808 1.53201-757.6761 4.037314-761.29446 8.135963"/>
<path transform="matrix(1,0,0,-1,868.735,136.45168)" stroke-width=".75" stroke-linecap="round" stroke-linejoin="round" fill="none" stroke="#000000" d="M-705.0217-.361131C-684.03939-.250575-662.411 .257082-641.5063-.40585"/>
<path transform="matrix(1,0,0,-1,868.735,136.45168)" stroke-width=".75" stroke-linecap="round" stroke-linejoin="round" fill="none" stroke="#000000" d="M-653.85769-7.740442C-650.61868-3.660034-646.4555-1.000258-641.59689-.378157-646.664 1.327793-651.1302 4.2034-654.4096 8.4425"/>
<path transform="matrix(1,0,0,-1,868.735,136.45168)" stroke-width=".75" stroke-linecap="round" stroke-linejoin="round" fill="none" stroke="#000000" d="M-555.83529-.360206C-534.3017-.292209-513.2679-.074789-491.66184 .001626"/>
<path transform="matrix(1,0,0,-1,868.735,136.45168)" stroke-width=".75" stroke-linecap="round" stroke-linejoin="round" fill="none" stroke="#000000" d="M-504.7844-8.069293C-501.3288-3.796333-497.16355-1.094773-492.3647 .427528-497.22474 .924053-501.47474 4.186497-504.47404 8.085183"/>
<path transform="matrix(1,0,0,-1,868.735,136.45168)" stroke-width=".75" stroke-linecap="round" stroke-linejoin="round" fill="none" stroke="#000000" d="M-448.02717-.407789C-427.56739-.185829-405.92326-.284178-384.94953 .096625"/>
<path transform="matrix(1,0,0,-1,868.735,136.45168)" stroke-width=".75" stroke-linecap="round" stroke-linejoin="round" fill="none" stroke="#000000" d="M-397.74076-8.297573C-394.859-4.385247-389.62019-1.603219-385.0783 .234597-389.7732 1.167415-394.77894 3.887905-397.30439 7.932512"/>
<path transform="matrix(1,0,0,-1,868.735,136.45168)" stroke-width=".75" stroke-linecap="round" stroke-linejoin="round" fill="none" stroke="#000000" d="M-298.71656-.243114C-278.27796 .084543-256.26924 .2324-235.54167-.065166"/>
<path transform="matrix(1,0,0,-1,868.735,136.45168)" stroke-width=".75" stroke-linecap="round" stroke-linejoin="round" fill="none" stroke="#000000" d="M-248.26085-7.780839C-245.40409-3.627407-240.61687-1.06614-235.21938-.061691-240.85717 1.154971-245.46558 4.271249-248.46996 7.79906"/>
<path transform="matrix(1,0,0,-1,868.735,136.45168)" stroke-width=".75" stroke-linecap="round" stroke-linejoin="round" fill="none" stroke="#000000" d="M-191.88666-.103225C-170.49398 .348685-150.00605-.181707-128.35933 .253464"/>
<path transform="matrix(1,0,0,-1,868.735,136.45168)" stroke-width=".75" stroke-linecap="round" stroke-linejoin="round" fill="none" stroke="#000000" d="M-141.19968-8.453972C-138.3098-3.69359-133.79317-1.321854-128.45122 .235511-133.49689 .739993-138.41838 3.857193-141.47368 7.639598"/>
<path transform="matrix(1,0,0,-1,868.735,136.45168)" stroke-width=".75" stroke-linecap="round" stroke-linejoin="round" fill="none" stroke="#000000" d="M-43.31113-92.17151C-99.50345-92.79846-156.45656-92.66329-213.28397-92.56984-213.36164-68.99801-213.30309-45.905809-213.88979-22.03288"/>
<path transform="matrix(1,0,0,-1,868.735,136.45168)" stroke-width=".75" stroke-linecap="round" stroke-linejoin="round" fill="none" stroke="#000000" d="M-205.84325-34.691175C-209.84851-31.666815-211.9408-26.745562-213.74527-22.051053-214.7184-27.483756-217.22138-31.587998-221.72595-34.356687"/>
<path transform="matrix(1,0,0,-1,868.735,136.45168)" stroke-width=".75" stroke-linecap="round" stroke-linejoin="round" fill="none" stroke="#000000" d="M-385.1094-184.37747C-498.31629-185.02846-612.96847-184.48667-726.37136-184.92563-726.66836-130.65425-726.51248-76.08058-726.23239-22.010172"/>
<path transform="matrix(1,0,0,-1,868.735,136.45168)" stroke-width=".75" stroke-linecap="round" stroke-linejoin="round" fill="none" stroke="#000000" d="M-718.48049-35.10793C-722.8677-31.231394-725.5841-27.068343-726.7483-22.133828-727.35-26.93125-730.2539-31.806748-734.24606-34.849386"/>
<use data-text="+" xlink:href="#font_13_1" transform="matrix(21.519354,0,0,-21.519316,104.24097,128.70886)"/>
<use data-text="&#x2212;" xlink:href="#font_13_7" transform="matrix(21.519371,0,0,-21.519288,148.44013,167.06107)"/>
<use data-text="+" xlink:href="#font_13_1" transform="matrix(21.519354,0,0,-21.519316,617.1422,128.70886)"/>
<use data-text="&#x2212;" xlink:href="#font_13_7" transform="matrix(21.519371,0,0,-21.519288,661.34146,167.06107)"/>
<use data-text="1" xlink:href="#font_13_13" transform="matrix(21.519343,0,0,-21.519562,948.691,38.187746)"/>
<path transform="matrix(1.500003,0,0,-1.5000182,926.25399,44.042787)" stroke-width=".574019" stroke-linecap="butt" stroke-linejoin="round" fill="none" stroke="#000000" d="M0 0H37.076936"/>
<use data-text="G" xlink:href="#font_13_2" transform="matrix(21.519343,0,0,-21.519562,926.25399,60.66086)"/>
<use data-text="4" xlink:href="#font_13_14" transform="matrix(16.438384,0,0,-16.43855,942.7376,64.83032)"/>
<use data-text="(" xlink:href="#font_13_4" transform="matrix(21.519343,0,0,-21.519562,952.98019,60.66086)"/>
<use data-text="s" xlink:href="#font_13_5" transform="matrix(21.519343,0,0,-21.519562,962.5252,60.66086)"/>
<use data-text=")" xlink:href="#font_13_6" transform="matrix(21.519343,0,0,-21.519562,973.51217,60.66086)"/>
<path transform="matrix(1,0,0,-1,868.735,136.45166)" stroke-width=".75" stroke-linecap="round" stroke-linejoin="round" fill="none" stroke="#000000" d="M57.71836 56.0311C57.89841 55.44108 57.138124 55.553838 56.895597 56.109064 76.856517 55.33587 95.43674 56.985719 112.62397 56.816896 127.421878 56.77411 129.04915 55.911348 128.08148 70.932529 127.35568 84.90476 128.99338 98.89214 127.422779 112.72856 128.34395 128.89374 127.96385 129.41303 113.62491 128.82839 95.19915 129.15628 76.782138 128.97728 56.546686 128.55846 43.196977 128.2545 41.568445 128.50736 43.313936 113.820819 42.973085 99.743907 42.32419 84.48906 41.64004 70.958469 42.663106 55.575159 42.824327 55.697374 57.71836 56.0311Z"/>
<path transform="matrix(1,0,0,-1,868.735,136.45166)" stroke-width=".75" stroke-linecap="round" stroke-linejoin="round" fill="none" stroke="#000000" d="M170.73305-.003097C170.7214 30.425595 170.5951 61.956556 170.61605 92.76693 156.67528 92.40677 142.28252 92.56459 128.69278 92.14094"/>
<path transform="matrix(1,0,0,-1,868.735,136.45166)" stroke-width=".75" stroke-linecap="round" stroke-linejoin="round" fill="none" stroke="#000000" d="M141.60227 100.08199C138.25078 96.72304 133.84403 93.9089 128.17319 92.424648 133.29553 91.432559 137.70473 88.04276 141.29996 84.200839"/>
<path transform="matrix(1,0,0,-1,868.735,136.45166)" stroke-width=".75" stroke-linecap="round" stroke-linejoin="round" fill="none" stroke="#000000" d="M42.532999 92.56771C-70.69339 92.62843-185.1079 92.57118-298.40159 92.547168"/>
<path transform="matrix(1,0,0,-1,868.735,136.45166)" stroke-width=".75" stroke-linecap="round" stroke-linejoin="round" fill="none" stroke="#000000" d="M-285.30537 100.61158C-288.6369 96.62024-293.11045 93.93387-298.66575 92.1181-293.04005 91.183109-288.70625 88.29-285.57084 84.168079"/>
<path transform="matrix(1,0,0,-1,868.735,136.45166)" stroke-width=".75" stroke-linecap="round" stroke-linejoin="round" fill="none" stroke="#000000" d="M58.088178 55.83997C57.528505 55.667585 56.796594 55.608839 57.02319 57.091657 75.80008 55.51175 95.25805 56.562116 113.19959 55.810758 127.795108 55.39262 128.22594 55.582235 127.82108 71.34488 129.06758 86.08283 128.46637 100.27801 127.49474 113.477718 128.25832 127.760128 127.25939 129.34854 113.63458 128.04752 94.023769 128.47986 75.411067 128.8838 58.332246 128.30977 43.092615 128.65073 43.325624 127.65828 42.105665 114.56205 42.263795 99.03572 42.277017 85.09808 41.704145 70.421428 42.88908 56.95778 41.614595 56.819856 58.088178 55.83997Z"/>
<path transform="matrix(1,0,0,-1,868.735,136.45166)" stroke-width=".75" stroke-linecap="round" stroke-linejoin="round" fill="none" stroke="#000000" d="M170.93975 .339783C170.65499 30.73509 170.94326 61.345945 170.50334 92.775508 156.74567 92.50391 142.7356 92.298259 128.71886 92.735507"/>
<path transform="matrix(1,0,0,-1,868.735,136.45166)" stroke-width=".75" stroke-linecap="round" stroke-linejoin="round" fill="none" stroke="#000000" d="M140.95166 100.83597C138.14176 96.22093 133.61336 93.58037 128.6404 92.076999 133.45603 91.295658 137.9801 88.30837 141.30873 84.05336"/>
<path transform="matrix(1,0,0,-1,868.735,136.45166)" stroke-width=".75" stroke-linecap="round" stroke-linejoin="round" fill="none" stroke="#000000" d="M42.794359 92.4697C-70.97678 92.672489-185.05127 92.14509-298.8291 92.486148"/>
<path transform="matrix(1,0,0,-1,868.735,136.45166)" stroke-width=".75" stroke-linecap="round" stroke-linejoin="round" fill="none" stroke="#000000" d="M-285.42558 100.50457C-289.25694 96.4639-293.10475 93.9882-298.36546 92.45561-293.12483 90.94408-288.95344 88.031208-285.97789 84.65764"/>
<path transform="matrix(1,0,0,-1,868.735,136.45166)" stroke-width=".75" stroke-linecap="round" stroke-linejoin="round" fill="none" stroke="#000000" d="M57.4107 55.7199C57.129377 55.709264 57.42589 57.17106 58.358564 56.734384 75.969348 56.67309 94.87342 55.557638 114.03915 56.539995 128.46623 55.90418 127.47092 55.325716 128.05548 71.28283 128.84323 85.34144 127.4634 99.27724 127.896968 113.74255 128.46161 128.69359 127.80969 128.99608 113.86308 127.62164 93.72558 129.17623 76.28147 128.82848 57.79787 129.26387 42.862344 128.92087 41.928594 129.24845 42.819959 113.60536 42.122049 100.29617 41.55405 85.93938 42.38114 70.37771 41.638925 56.93894 41.796926 56.60533 57.4107 55.7199Z"/>
<path transform="matrix(1,0,0,-1,868.735,136.45166)" stroke-width=".75" stroke-linecap="round" stroke-linejoin="round" fill="none" stroke="#000000" d="M170.94884 .382272C170.77135 31.241198 170.7418 61.942468 170.43195 92.16727 156.31044 92.19017 142.66329 92.539348 128.94026 92.41226"/>
<path transform="matrix(1,0,0,-1,868.735,136.45166)" stroke-width=".75" stroke-linecap="round" stroke-linejoin="round" fill="none" stroke="#000000" d="M141.27768 100.25327C138.33559 96.541599 133.30532 93.46161 128.57947 92.806499 133.54236 91.357257 138.26497 88.48057 140.83197 84.55802"/>
<path transform="matrix(1,0,0,-1,868.735,136.45166)" stroke-width=".75" stroke-linecap="round" stroke-linejoin="round" fill="none" stroke="#000000" d="M42.874876 92.74622C-70.78179 92.34646-184.71424 92.46195-298.20176 92.05535"/>
<path transform="matrix(1,0,0,-1,868.735,136.45166)" stroke-width=".75" stroke-linecap="round" stroke-linejoin="round" fill="none" stroke="#000000" d="M-285.88099 100.24249C-288.70759 96.787677-293.7027 93.14661-298.6822 92.04265-293.3699 91.40103-289.12617 88.44149-285.39686 84.69212"/>
<path transform="matrix(1,0,0,-1,868.735,136.45166)" stroke-width=".75" stroke-linecap="round" stroke-linejoin="round" fill="none" stroke="#000000" d="M57.30009 56.744966C56.93683 55.93864 56.739904 56.925298 57.155435 55.253225 76.00493 55.674627 95.32528 56.44573 112.9483 55.705026 129.06313 56.830949 128.72266 55.72082 128.90622 70.576099 127.49163 85.62823 128.27848 100.289768 128.54705 113.12586 127.243618 129.18038 128.34957 129.05104 113.96462 127.6227 94.11129 128.84026 76.80981 129.46042 57.84667 127.93583 42.419359 128.10929 42.58452 127.96776 42.43026 113.40956 41.888326 99.06171 41.977758 85.63941 43.36984 70.4245 42.851808 57.066 42.725797 56.00366 57.30009 56.744966Z"/>
<path transform="matrix(1,0,0,-1,868.735,136.45166)" stroke-width=".75" stroke-linecap="round" stroke-linejoin="round" fill="none" stroke="#000000" d="M170.97025 .058554C170.98894 31.108334 170.49135 61.256555 170.6433 92.51841 156.87236 92.31243 142.51157 92.186458 128.86006 92.26404"/>
<path transform="matrix(1,0,0,-1,868.735,136.45166)" stroke-width=".75" stroke-linecap="round" stroke-linejoin="round" fill="none" stroke="#000000" d="M141.1262 100.33239C138.32932 96.4969 133.64215 93.9489 128.40213 92.771518 133.32682 90.941799 138.41417 88.38996 140.93259 84.612949"/>
<path transform="matrix(1,0,0,-1,868.735,136.45166)" stroke-width=".75" stroke-linecap="round" stroke-linejoin="round" fill="none" stroke="#000000" d="M42.30635 92.152248C-71.05633 92.843708-184.39029 92.52287-298.16859 92.33574"/>
<path transform="matrix(1,0,0,-1,868.735,136.45166)" stroke-width=".75" stroke-linecap="round" stroke-linejoin="round" fill="none" stroke="#000000" d="M-285.3858 100.316158C-288.78639 96.65553-293.34425 93.468418-298.5162 92.218189-292.93986 91.56781-288.6695 88.36293-285.37785 83.91439"/>
<path transform="matrix(1,0,0,-1,868.735,136.45166)" stroke-width=".75" stroke-linecap="round" stroke-linejoin="round" fill="none" stroke="#000000" d="M58.326749 57.050817C57.935255 56.032175 57.739889 56.918684 56.577859 56.62499 76.55291 55.61988 94.42428 57.184648 112.22665 55.647226 127.285648 56.86565 128.07707 55.5875 128.11405 70.461627 129.0912 85.95261 128.60503 98.535198 127.832569 113.17576 127.67714 128.09873 129.03833 128.1592 113.030757 128.89926 93.93001 129.29985 76.64221 128.2148 56.999 128.71904 41.964673 129.50299 42.388315 129.47841 41.740434 113.28597 41.601446 100.29942 42.288698 85.70854 43.458623 71.91304 41.936269 55.50633 41.799337 56.322019 58.326749 57.050817Z"/>
<path transform="matrix(1,0,0,-1,868.735,136.45166)" stroke-width=".75" stroke-linecap="round" stroke-linejoin="round" fill="none" stroke="#000000" d="M170.44037 .218737C170.94602 31.132752 171.0689 61.18115 170.99767 92.24679 156.23145 92.22576 142.26042 92.4505 128.15229 92.4484"/>
<path transform="matrix(1,0,0,-1,868.735,136.45166)" stroke-width=".75" stroke-linecap="round" stroke-linejoin="round" fill="none" stroke="#000000" d="M140.72133 100.883838C138.33089 96.50278 133.84079 93.1963 128.61164 92.11333 133.38822 90.84171 137.63951 88.74096 141.03478 83.90114"/>
<path transform="matrix(1,0,0,-1,868.735,136.45166)" stroke-width=".75" stroke-linecap="round" stroke-linejoin="round" fill="none" stroke="#000000" d="M42.240488 92.7374C-71.01065 92.14875-184.43489 91.98266-298.49516 92.20254"/>
<path transform="matrix(1,0,0,-1,868.735,136.45166)" stroke-width=".75" stroke-linecap="round" stroke-linejoin="round" fill="none" stroke="#000000" d="M-285.55647 100.55877C-289.25715 96.52538-292.94087 93.84885-298.81599 92.205959-293.80137 91.54191-288.95045 88.476528-285.9395 84.419078"/>
</svg>
