<svg xmlns="http://www.w3.org/2000/svg" xmlns:xlink="http://www.w3.org/1999/xlink" version="1.1" width="922.0901" height="353.7042" viewBox="0 0 922.0901 353.7042">
<defs>
<path id="font_3_1" d="M.04598999 .23632813H.35598756V-.07368469L.3959961-.06668091V.23632813H.70399478L.70899966 .2763214H.3959961V.58631899L.35598756 .58032229V.2763214H.052993776L.04598999 .23632813Z"/>
<path id="font_3_2" d="M.08999634 .32458497C.08999634 .22958374 .114990238 .13148499 .18299866 .06341553 .23699951 .009384155 .31199647-.016601563 .3880005-.016601563 .46099855-.016601563 .56900027 .010391235 .6569977 .03338623 .6569977 .03338623 .6539917 .216568 .6519928 .30760194L.37599183 .2966156V.27061463L.38198854 .265625C.43598939 .26361085 .5 .25961305 .5439911 .25660707 .57199099 .25460816 .57199099 .22257996 .57199099 .13449097 .57199099 .061416627 .56900027 .04940796 .5519867 .045394899 .5209961 .038391115 .48999024 .03538513 .45799256 .03538513 .37998963 .03538513 .30599977 .060409547 .2619934 .112472537 .20399475 .18052674 .17999268 .25260926 .17999268 .3405609 .17999268 .48339845 .23199463 .5653076 .26098634 .5942688 .3039856 .63623049 .36299134 .6502075 .42199708 .6502075 .5529938 .6502075 .59298709 .5563202 .60598757 .53034976L.6179962 .5293579 .6759949 .58628848C.6649933 .6032715 .6119995 .69921877 .46699525 .69921877 .3619995 .69921877 .25698854 .6682129 .18199158 .593277 .11199951 .5233612 .08999634 .4224701 .08999634 .32458497Z"/>
<path id="font_3_3" d="M.1349945 .6123047H.22898865C.25698854 .6123047 .27999879 .59129336 .2809906 .5662842 .28199769 .541275 .28199769 .46824647 .28199769 .41923524 .28199769 .27919007 .27799989 .13916016 .272995 .00010681152L.28599549-.0048828127 .3809967 .022125245C.37799073 .09814453 .37799073 .2962036 .37799073 .43223573 .37799073 .52127078 .37998963 .6112976 .38598634 .7003021L.3789978 .71229556 .1349945 .6392975V.6123047Z"/>
<path id="font_3_4" d="M.11299133 .24990845C.11299133 .007904053 .1519928-.09008789 .18299866-.13310242 .21099854-.17008972 .25299073-.20809937 .30099488-.21209717V-.1880951C.2809906-.18409729 .25099183-.16809082 .23399353-.1481018 .21998596-.13209534 .16499329-.05809021 .16499329 .24990845 .16499329 .4618988 .19799805 .5659027 .21998596 .6128998 .23599243 .6469116 .2689972 .6769104 .30099488 .684906V.71191409C.2599945 .7049103 .21598816 .6729126 .19099427 .63790896 .1599884 .5919037 .11299133 .4748993 .11299133 .24990845Z"/>
<path id="font_3_5" d="M.051986696 .06642151C.06199646 .047409059 .07598877 .030395508 .09199524 .01638794 .12098694-.009613037 .16099549-.016601563 .19898987-.016601563 .2559967-.016601563 .31199647 .0023956299 .35099793 .044403078 .375 .06941223 .3869934 .10343933 .3869934 .13845825 .3869934 .1634674 .37298585 .18649292 .35499574 .20449829 .34098817 .21850586 .3039856 .24052429 .27198792 .25453187 .24299622 .26654054 .19999695 .2885437 .18798828 .30055238 .17298889 .31655885 .1619873 .3285675 .1619873 .35058595 .1619873 .3725891 .16899109 .39360047 .18499756 .4086151 .19999695 .42362977 .22200012 .43164063 .24398804 .43164063 .2639923 .43164063 .2849884 .42462159 .29599 .4066162 .30599977 .39060975 .30799867 .3715973 .30899049 .35359193L.32099916 .34657289 .37599183 .38360597C.375 .40560914 .3639984 .42662049 .34799195 .44163514 .32499696 .46263124 .29299928 .46662904 .2630005 .46662904 .21398926 .46662904 .16699219 .45063783 .1309967 .4176178 .10398865 .39360047 .08999634 .35858155 .08999634 .32356263 .08999634 .29154969 .10798645 .26353456 .1309967 .2425232 .1539917 .22250366 .18399048 .2084961 .21499634 .1954956 .24099732 .18447876 .2689972 .17248535 .28799439 .1534729 .30299378 .13845825 .31399537 .11845398 .31399537 .09744263 .31399537 .079422 .30499269 .062408449 .29299928 .04940796 .27799989 .03340149 .25099183 .021392823 .22898865 .021392823 .19898987 .021392823 .17199707 .03439331 .1499939 .055404664 .1269989 .076416019 .116989139 .10644531 .114990238 .13645935L.100997928 .13745117 .051986696 .06642151Z"/>
<path id="font_3_6" d="M.085998538-.1880951V-.21209717C.13398743-.20610047 .1789856-.17208863 .20698548-.13510132 .23799134-.09210205 .27598573 .007904053 .27598573 .24990845 .27598573 .50090029 .22399903 .5919037 .19299317 .63790896 .16799927 .6729126 .1269989 .7049103 .085998538 .71191409V.684906C.117996219 .6759033 .14898682 .6469116 .16499329 .6128998 .18699646 .5659027 .22399903 .48190309 .22399903 .24990845 .22399903-.099090579 .17199707-.13209534 .1579895-.1481018 .14099121-.16809082 .10598755-.18409729 .085998538-.1880951Z"/>
<path id="font_3_12" d="M.051986696 .6781769 .052993776 .6591797C.07299805 .65216067 .10899353 .6411438 .11299133 .6401367 .12298584 .6361389 .125 .6251221 .12599182 .6161041 .1309967 .53297427 .13198853 .44985963 .13198853 .36676026 .13198853 .24482727 .13198853 .11590576 .12199402 .0029907227L.12799073-.0020141602 .21998596 .025970459C.21699524 .051956178 .21499634 .10292053 .21499634 .1798706V.33377076C.21499634 .34075929 .22099304 .34576417 .22799683 .34576417H.57099917C.5799866 .34576417 .58299258 .33876039 .58299258 .33377076 .58299258 .23683167 .5799866 .11790466 .5779877 .020980835L.58898928 0 .73799136 .0078125 .74398806 .013809204 .7429962 .031799318C.72499087 .03981018 .66600039 .03981018 .66600039 .07879639 .66600039 .09979248 .6619873 .24076844 .6619873 .32176209 .6619873 .5129547 .66999819 .64515689 .6729889 .6841736L.66799929 .6901703 .5799866 .673172C.5799866 .58706668 .58299258 .48291017 .58299258 .3967743 .58299258 .39076234 .58200076 .38476563 .57099917 .38476563H.22499085C.21499634 .38476563 .21299744 .3917694 .21299744 .3967743 .21299744 .4618683 .21699524 .54600527 .21899414 .61109927 .21998596 .63414 .22200012 .6581726 .22599793 .6801758L.22099304 .6851654H.05899048L.051986696 .6781769Z"/>
<path id="font_3_11" d="M.050994874 .049362184 .05899048 .038375856C.10998535 .0033874512 .17098999-.016601563 .23599243-.016601563 .31799317-.016601563 .397995 .008392334 .45700074 .05935669 .5039978 .10131836 .5349884 .15626526 .5349884 .21520996 .5349884 .25416566 .519989 .2911377 .48999024 .31811524 .46899415 .3360901 .44198609 .34709168 .41600038 .35508729 .3789978 .36608888 .34199525 .37109376 .30299378 .37408448V.38209535C.34999085 .39408876 .3939972 .41609193 .42900086 .44610597 .46499635 .47810365 .48199464 .52311709 .48199464 .5681305 .48199464 .60414126 .46798707 .6401367 .43899537 .6651459 .40699769 .6941376 .36099244 .70214846 .31698609 .70214846 .2849884 .70214846 .25498963 .69114688 .22599793 .67814639 .18598938 .6591339 .14698792 .63414 .11199951 .60813906L.12799073 .58613589C.1539917 .60113528 .17999268 .6151428 .20799256 .6261444 .22799683 .6331482 .24699402 .6391449 .2659912 .6391449 .2999878 .6391449 .33299256 .6321411 .35598756 .61112979 .37799073 .59213259 .3889923 .5671234 .3889923 .54011538 .3889923 .502121 .37199403 .46510316 .34098817 .43710328 .32299806 .4210968 .29899598 .40908814 .27398683 .39909364 .24198914 .38609315 .20698548 .37808229 .17298889 .37109376L.17199707 .34509278C.21398926 .34509278 .2559967 .34309388 .29699708 .3340912 .32499696 .32809449 .35299684 .31910707 .37298585 .30012513 .4059906 .26914979 .42900086 .22920227 .42900086 .18623352 .42900086 .14128113 .41299439 .095321658 .3769989 .06335449 .34599305 .036376954 .30599977 .023391724 .2639923 .023391724 .22299195 .023391724 .18499756 .041366579 .1559906 .067352298 .13798523 .08332825 .12399292 .10131836 .10998535 .121292117H.09899902L.050994874 .049362184Z"/>
<path id="font_3_7" d="M.04598999 .23046875H.70399478L.70999148 .27046205H.052993776L.04598999 .23046875Z"/>
<path id="font_3_8" d="M.033996583 .6733093 .035995485 .6533203C.037994386 .6533203 .07398987 .6443176 .09199524 .63931277 .12298584 .6313019 .125 .6222992 .125 .54229739 .125 .46427918 .12199402 .38627626 .12199402 .30825807 .12199402 .24723816 .12399292 .17323303 .12998963 .12721253 .1349945 .08821106 .1559906-.0087890629 .31399537-.0087890629 .39698792-.0087890629 .47698976 .02520752 .5469971 .07020569L.5549927 .064208988C.5549927 .048202516 .5549927 .032196046 .55599978 .016204834 .55799868 .0012054443 .57598879-.0047912599 .58799746-.0047912599 .61898806-.0047912599 .6899872 .016204834 .7409973 .032196046L.74598696 .03919983 .74198916 .05619812C.7220001 .05419922 .70399478 .048202516 .6839905 .048202516 .673996 .048202516 .6609955 .050201417 .6539917 .0592041 .6389923 .07620239 .6359863 .15222168 .6359863 .20223999 .6359863 .3642578 .6369934 .5733032 .6519928 .68733218L.6459961 .69433596 .55799868 .659317C.55599978 .47727967 .55400088 .2942505 .55400088 .11122131 .5 .079208377 .43998719 .052200319 .37799073 .052200319 .24598694 .052200319 .22399903 .13922119 .21598816 .16522217 .20599365 .19923401 .20199585 .23423767 .20199585 .26924134L.20999146 .54229739C.20999146 .55929568 .21598816 .6603241 .21798706 .67433169L.21099854 .6803131H.041992189L.033996583 .6733093Z"/>
<path id="font_3_9" d="M.022994996 .6513672C.036987306 .649353 .049987794 .6463623 .06298828 .6433563 .07199097 .6413574 .07998657 .6353607 .085998538 .62835696 .09599304 .61834719 .102996829 .60635378 .10899353 .5943451L.2579956 .29930116C.2579956 .19927979 .2579956 .0982666 .25498963-.0017547608L.2659912-.0107421879 .35598756 .018249512 .34700013 .30630494C.42999269 .4343109 .5039978 .5303345 .61499026 .675354L.61099246 .6933594 .526001 .6763611C.48999024 .619339 .4059906 .47431947 .397995 .46032716 .3849945 .4373169 .34199525 .36730958 .33898927 .3623047 .33599855 .3572998 .33198548 .353302 .32798768 .353302 .32199098 .353302 .31698609 .3592987 .31599427 .36131288L.1749878 .6863556H.02999878L.022994996 .67936709V.6513672Z"/>
<path id="font_3_10" d="M.04499817 .001953125H.5379944L.56399539 .079940799 .5589905 .08795166H.20999146C.20399475 .08795166 .19799805 .08894348 .19599915 .092941287 .19499207 .094940189 .19599915 .09794617 .19699097 .09895325 .2539978 .1569519 .30799867 .21495056 .35899354 .27496339 .394989 .31697084 .42999269 .358963 .45799256 .40496827 .48799134 .4509735 .5119934 .49998475 .5119934 .5529938 .5119934 .59399417 .49899293 .6349945 .46499635 .66400149 .43199159 .69299319 .3880005 .7080078 .34199525 .7080078 .29899598 .7080078 .2579956 .6970062 .22099304 .67900088 .17599488 .65800479 .13699341 .6279907 .102996829 .59498599L.125 .57598879C.1519928 .59599307 .17799378 .61099246 .20999146 .6259918 .23098755 .6360016 .2559967 .6399994 .2809906 .6399994 .31399537 .6399994 .34700013 .6289978 .37098695 .6069946 .40098573 .5779877 .4079895 .5369873 .4079895 .50798037 .4079895 .4429779 .38198854 .38197328 .34298707 .3259735 .31098939 .27996827 .27198792 .23796082 .23199463 .19696045 .17199707 .13494873 .10899353 .07594299 .04499817 .017944336V.001953125Z"/>
</defs>
<use data-text="+" xlink:href="#font_3_1" transform="matrix(37.185197,0,0,-37.18505,277.6274,52.92865)"/>
<use data-text="G" xlink:href="#font_3_2" transform="matrix(21.519362,0,0,-21.519398,135.64244,48.789125)"/>
<use data-text="1" xlink:href="#font_3_3" transform="matrix(16.438399,0,0,-16.438426,152.1097,53.090059)"/>
<use data-text="(" xlink:href="#font_3_4" transform="matrix(21.519362,0,0,-21.519398,162.35228,48.789125)"/>
<use data-text="s" xlink:href="#font_3_5" transform="matrix(21.519362,0,0,-21.519398,171.8974,48.789125)"/>
<use data-text=")" xlink:href="#font_3_6" transform="matrix(21.519362,0,0,-21.519398,182.88434,48.789125)"/>
<use data-text="H" xlink:href="#font_3_12" transform="matrix(21.51913,0,0,-21.519398,638.2163,326.01426)"/>
<use data-text="3" xlink:href="#font_3_11" transform="matrix(16.438221,0,0,-16.438426,655.07077,330.1508)"/>
<use data-text="(" xlink:href="#font_3_4" transform="matrix(21.51913,0,0,-21.519398,665.3133,326.01426)"/>
<use data-text="s" xlink:href="#font_3_5" transform="matrix(21.51913,0,0,-21.519398,674.85836,326.01426)"/>
<use data-text=")" xlink:href="#font_3_6" transform="matrix(21.51913,0,0,-21.519398,685.8451,326.01426)"/>
<path transform="matrix(1,0,0,-1,291.6669,43.407838)" stroke-width=".75" stroke-linecap="round" stroke-linejoin="round" fill="none" stroke="#000000" d="M-156.42633-24.078154C-155.1755-24.144602-155.5197-24.02269-155.30252-24.418755-138.13339-24.930443-118.113018-25.860449-100.39602-25.262452-85.868328-24.931254-86.37983-25.007494-84.82107-9.41669-84.89817-3.477788-85.76683 3.083398-85.16776 10.606411-85.434719 24.786318-85.93478 25.695067-100.927379 25.728829-118.47676 25.342814-136.7922 25.066857-156.22992 25.633374-171.17884 25.810868-170.42536 25.338587-171.98522 10.47299-170.65613 2.832129-171.14885-4.184771-170.9917-10.793934-170.105-25.713957-170.08087-24.4261-156.42633-24.078154Z"/>
<path transform="matrix(1,0,0,-1,291.6669,43.407838)" stroke-width=".75" stroke-linecap="round" stroke-linejoin="round" fill="none" stroke="#000000" d="M346.7242-302.4229C347.42695-302.95866 345.96488-301.31184 346.2188-301.29219 365.39198-302.2436 384.01914-302.89207 402.3146-302.8641 417.61427-302.561 418.39399-301.6513 417.28889-286.20283 417.5065-281.1481 418.40577-273.10856 418.2166-267.89387 418.36186-251.34923 418.27384-251.41728 402.254-252.3874 383.9702-252.59185 364.88908-252.17784 346.33494-251.63538 332.21324-252.08863 331.5973-253.03644 332.52006-266.39146 332.18955-274.1968 330.67655-280.05897 330.81999-286.5172 330.86167-301.63169 331.7652-302.93025 346.7242-302.4229Z"/>
<path transform="matrix(1,0,0,-1,291.6669,43.407838)" stroke-width=".75" stroke-linecap="round" stroke-linejoin="round" fill="none" stroke="#000000" d="M21.823233-.551629C21.995028 11.533032 12.139747 21.939908-.642119 20.964657-12.406565 22.347939-20.954897 11.975537-21.393845 .471139-21.172982-11.621346-11.05165-21.886336 .378793-21.697985 12.187973-22.105175 21.84896-12.405198 21.823233-.551629Z"/>
<path transform="matrix(1,0,0,-1,291.6669,43.407838)" stroke-width=".75" stroke-linecap="round" stroke-linejoin="round" fill="none" stroke="#000000" d="M-234.38535 .263262C-214.04827 .031645-192.20975 .367102-171.053 .277581"/>
<path transform="matrix(1,0,0,-1,291.6669,43.407838)" stroke-width=".75" stroke-linecap="round" stroke-linejoin="round" fill="none" stroke="#000000" d="M-184.0673-8.499857C-180.70131-4.275106-176.37609-1.150618-171.36994-.398367-176.71791 .872615-180.4651 3.734238-183.91417 7.75809"/>
<path transform="matrix(1,0,0,-1,291.6669,43.407838)" stroke-width=".75" stroke-linecap="round" stroke-linejoin="round" fill="none" stroke="#000000" d="M-85.48091 .096587C-64.16319-.049664-43.266366 .330476-22.107966 .350946"/>
<path transform="matrix(1,0,0,-1,291.6669,43.407838)" stroke-width=".75" stroke-linecap="round" stroke-linejoin="round" fill="none" stroke="#000000" d="M-34.710355-7.732093C-31.686587-3.595334-27.166394-1.518177-22.302884-.261562-27.096922 1.359797-31.560303 3.676329-34.802556 7.638962"/>
<path transform="matrix(1,0,0,-1,291.6669,43.407838)" stroke-width=".75" stroke-linecap="round" stroke-linejoin="round" fill="none" stroke="#000000" d="M21.562146 .014012C35.85509 .161221 49.903715-.3505 64.05274-.135252"/>
<path transform="matrix(1,0,0,-1,291.6669,43.407838)" stroke-width=".75" stroke-linecap="round" stroke-linejoin="round" fill="none" stroke="#000000" d="M51.3082-7.715773C54.266824-4.276989 58.50501-.976282 63.78136-.259397 58.605588 1.147761 54.45128 3.788027 50.713834 7.699936"/>
<path transform="matrix(1,0,0,-1,291.6669,43.407838)" stroke-width=".75" stroke-linecap="round" stroke-linejoin="round" fill="none" stroke="#000000" d="M491.848-.235606C519.95217 .234013 548.4297-.21775 577.0044-.418607"/>
<path transform="matrix(1,0,0,-1,291.6669,43.407838)" stroke-width=".75" stroke-linecap="round" stroke-linejoin="round" fill="none" stroke="#000000" d="M564.54629-8.288402C567.3306-3.974996 571.7992-.810281 576.8967 .437628 572.2721 1.504215 567.6813 3.792072 564.7418 8.273563"/>
<path transform="matrix(1,0,0,-1,291.6669,43.407838)" stroke-width=".75" stroke-linecap="round" stroke-linejoin="round" fill="none" stroke="#000000" d="M534.76907 .362435C534.39627-92.08382 534.56088-184.89916 534.7357-277.62776 495.62538-276.95225 455.96913-276.83937 417.26536-277.5141"/>
<path transform="matrix(1,0,0,-1,291.6669,43.407838)" stroke-width=".75" stroke-linecap="round" stroke-linejoin="round" fill="none" stroke="#000000" d="M429.6062-268.78538C426.40095-273.15956 422.21809-275.8507 417.516-277.076 422.36033-278.31394 426.77784-280.87965 430.25733-285.5984"/>
<path transform="matrix(1,0,0,-1,291.6669,43.407838)" stroke-width=".75" stroke-linecap="round" stroke-linejoin="round" fill="none" stroke="#000000" d="M331.8081-276.95045C221.31282-277.0054 110.28111-277.09288-.130641-277.63386-.22228-192.37329-.120917-107.32877 .427425-21.650807"/>
<path transform="matrix(1,0,0,-1,291.6669,43.407838)" stroke-width=".75" stroke-linecap="round" stroke-linejoin="round" fill="none" stroke="#000000" d="M8.169196-34.688028C4.175438-31.421654 1.530816-26.758496 .183529-22.090956-1.557945-27.075097-4.12248-31.897944-8.073467-34.689519"/>
<path transform="matrix(1,0,0,-1,291.6669,43.407838)" stroke-width=".75" stroke-linecap="round" stroke-linejoin="round" fill="none" stroke="#000000" d="M-155.92267-25.471287C-156.88843-25.182887-156.58058-25.735573-155.52115-25.370682-137.21988-24.18268-117.99378-24.422242-100.40765-25.45169-85.80905-24.130326-84.83101-25.222685-86.25516-9.362132-85.83461-3.966396-85.00901 2.600877-85.14388 9.572547-84.67673 24.660286-86.04473 25.388253-99.962688 25.891156-118.82448 24.887513-138.43334 25.314827-156.13835 25.457034-171.56244 25.46958-171.58103 25.672175-170.08473 9.409767-171.5021 2.452951-171.8187-3.887059-171.00946-9.538324-171.07741-24.118775-171.58342-25.789807-155.92267-25.471287Z"/>
<path transform="matrix(1,0,0,-1,291.6669,43.407838)" stroke-width=".75" stroke-linecap="round" stroke-linejoin="round" fill="none" stroke="#000000" d="M345.79466-301.42127C347.27897-302.2678 346.68037-302.27735 345.92195-301.8468 364.427-301.84477 384.57533-301.47328 402.3177-303.1106 418.45176-301.37919 417.4442-301.31718 417.5004-286.47944 416.7093-280.92903 418.4512-273.8726 418.2629-267.52363 418.14356-251.74098 417.40794-251.71938 402.09519-252.89623 383.5484-253.16635 365.9811-252.69864 346.1677-251.64138 331.64796-251.8711 331.7906-252.34859 331.60786-266.50856 330.63923-273.0077 330.8547-281.32655 332.18925-286.50776 332.30876-302.04887 332.36039-302.02345 345.79466-301.42127Z"/>
<path transform="matrix(1,0,0,-1,291.6669,43.407838)" stroke-width=".75" stroke-linecap="round" stroke-linejoin="round" fill="none" stroke="#000000" d="M20.675717 .042291C21.563202 11.407855 12.887072 21.723853 .79534 21.2614-11.859609 22.220273-22.376456 12.275465-22.51203-.666202-21.241169-11.31502-12.014112-21.621977 .78337-21.463353 11.580664-21.631335 21.517457-11.384926 20.675717 .042291Z"/>
<path transform="matrix(1,0,0,-1,291.6669,43.407838)" stroke-width=".75" stroke-linecap="round" stroke-linejoin="round" fill="none" stroke="#000000" d="M-234.98017 .294692C-214.0619 .038651-192.82744-.21039-171.43292 .287151"/>
<path transform="matrix(1,0,0,-1,291.6669,43.407838)" stroke-width=".75" stroke-linecap="round" stroke-linejoin="round" fill="none" stroke="#000000" d="M-183.63013-8.408218C-181.15125-4.110767-176.68599-1.377165-171.33296-.214002-176.09558 1.562774-180.91777 3.672033-183.76392 7.686214"/>
<path transform="matrix(1,0,0,-1,291.6669,43.407838)" stroke-width=".75" stroke-linecap="round" stroke-linejoin="round" fill="none" stroke="#000000" d="M-85.53577 .418646C-64.60383-.376876-42.79883-.218003-22.193558 .310441"/>
<path transform="matrix(1,0,0,-1,291.6669,43.407838)" stroke-width=".75" stroke-linecap="round" stroke-linejoin="round" fill="none" stroke="#000000" d="M-34.94985-7.696161C-31.324738-3.918385-27.477326-1.170247-21.730908 .090113-26.749466 1.586916-31.424298 3.663753-34.53392 8.239443"/>
<path transform="matrix(1,0,0,-1,291.6669,43.407838)" stroke-width=".75" stroke-linecap="round" stroke-linejoin="round" fill="none" stroke="#000000" d="M21.595826-.341035C35.685487 .224478 49.9987-.372726 63.62918 .191239"/>
<path transform="matrix(1,0,0,-1,291.6669,43.407838)" stroke-width=".75" stroke-linecap="round" stroke-linejoin="round" fill="none" stroke="#000000" d="M51.01887-8.298433C54.422468-4.18144 59.135866-.990502 63.495157-.17441 58.98861 1.088254 54.736219 3.868523 51.397527 8.272554"/>
<path transform="matrix(1,0,0,-1,291.6669,43.407838)" stroke-width=".75" stroke-linecap="round" stroke-linejoin="round" fill="none" stroke="#000000" d="M492.20323 .213018C520.14498 .122142 548.862-.330233 577.39639 .023579"/>
<path transform="matrix(1,0,0,-1,291.6669,43.407838)" stroke-width=".75" stroke-linecap="round" stroke-linejoin="round" fill="none" stroke="#000000" d="M564.26876-8.227603C567.5577-3.940107 572.3296-.959385 576.75119-.015755 571.65139 .771006 567.36386 4.191416 564.7766 7.977802"/>
<path transform="matrix(1,0,0,-1,291.6669,43.407838)" stroke-width=".75" stroke-linecap="round" stroke-linejoin="round" fill="none" stroke="#000000" d="M534.62197 .095399C534.3381-92.4582 534.26986-184.52545 534.95516-276.9724 495.01945-277.46073 456.67839-277.60978 416.9581-277.1088"/>
<path transform="matrix(1,0,0,-1,291.6669,43.407838)" stroke-width=".75" stroke-linecap="round" stroke-linejoin="round" fill="none" stroke="#000000" d="M429.395-269.4257C426.64488-273.1513 422.4377-276.08879 417.6144-277.03587 422.07865-278.2566 426.91697-280.92076 429.71614-285.6126"/>
<path transform="matrix(1,0,0,-1,291.6669,43.407838)" stroke-width=".75" stroke-linecap="round" stroke-linejoin="round" fill="none" stroke="#000000" d="M331.9983-277.22825C221.1369-277.4393 110.15653-277.218 .155159-277.57966-.337341-192.21306 .007554-106.814739 .423017-21.681002"/>
<path transform="matrix(1,0,0,-1,291.6669,43.407838)" stroke-width=".75" stroke-linecap="round" stroke-linejoin="round" fill="none" stroke="#000000" d="M8.241468-34.747945C4.097352-31.445805 1.101566-26.813994-.020492-21.6642-1.492156-26.771506-4.268292-31.949254-7.757132-34.949766"/>
<path transform="matrix(1,0,0,-1,291.6669,43.407838)" stroke-width=".75" stroke-linecap="round" stroke-linejoin="round" fill="none" stroke="#000000" d="M-155.22248-25.717465C-156.54764-25.6699-155.95656-25.40436-155.12744-25.74239-136.84365-25.025475-119.32717-25.811596-100.01724-25.566756-85.8889-24.182705-85.42356-25.913022-85.5138-10.717133-84.7959-2.52821-84.930789 3.232053-84.98085 10.332628-85.075428 25.886595-85.38819 25.627425-100.86065 24.597453-119.094318 24.97895-138.31577 25.616972-155.5968 25.039717-170.22657 25.516888-170.8504 25.17498-171.21993 10.482253-171.1154 2.840842-171.3915-3.203039-171.54436-9.814975-171.94213-25.25721-170.33596-25.234936-155.22248-25.717465Z"/>
<path transform="matrix(1,0,0,-1,291.6669,43.407838)" stroke-width=".75" stroke-linecap="round" stroke-linejoin="round" fill="none" stroke="#000000" d="M346.66673-302.0008C347.0619-302.8042 346.19706-302.94767 345.89268-302.07707 365.9908-301.79078 383.12629-302.9355 402.80674-301.91819 417.2492-301.9947 417.55668-302.72126 417.18653-286.59944 416.96766-279.98088 417.5678-273.0331 416.79539-268.18836 417.7202-253.15398 417.61778-253.18883 403.16477-251.8923 383.1835-252.72203 364.2464-252.89986 346.22355-252.88407 330.6294-253.00652 331.51228-252.67314 331.00099-266.43907 331.60456-273.4352 332.12434-280.73905 330.83406-286.3918 332.26969-301.30714 331.07975-301.91218 346.66673-302.0008Z"/>
<path transform="matrix(1,0,0,-1,291.6669,43.407838)" stroke-width=".75" stroke-linecap="round" stroke-linejoin="round" fill="none" stroke="#000000" d="M21.943329 .9668C22.290423 11.799199 12.83594 22.441254 .95681 22.33117-11.147955 22.27409-22.10549 11.546486-21.7027 .761945-21.812006-12.185758-11.907447-21.312857-.848175-20.94481 12.740032-20.950322 20.688445-11.034053 21.943329 .9668Z"/>
<path transform="matrix(1,0,0,-1,291.6669,43.407838)" stroke-width=".75" stroke-linecap="round" stroke-linejoin="round" fill="none" stroke="#000000" d="M-234.72779 .270823C-213.34418 .258849-192.85906 .029127-171.62944-.244082"/>
<path transform="matrix(1,0,0,-1,291.6669,43.407838)" stroke-width=".75" stroke-linecap="round" stroke-linejoin="round" fill="none" stroke="#000000" d="M-184.47774-8.334111C-180.62187-3.554362-176.75302-.801219-171.38339-.156793-176.12084 1.411583-180.48979 3.713446-184.03554 8.188565"/>
<path transform="matrix(1,0,0,-1,291.6669,43.407838)" stroke-width=".75" stroke-linecap="round" stroke-linejoin="round" fill="none" stroke="#000000" d="M-85.49194-.089421C-64.3853 .14515-43.069864-.350202-22.432118-.26938"/>
<path transform="matrix(1,0,0,-1,291.6669,43.407838)" stroke-width=".75" stroke-linecap="round" stroke-linejoin="round" fill="none" stroke="#000000" d="M-34.25679-7.688936C-31.945202-3.986357-26.71174-.799005-21.933178-.301644-26.74642 1.356071-31.22612 3.63864-35.024549 7.99178"/>
<path transform="matrix(1,0,0,-1,291.6669,43.407838)" stroke-width=".75" stroke-linecap="round" stroke-linejoin="round" fill="none" stroke="#000000" d="M21.439318-.324791C36.04358 .005876 49.45739-.141248 64.130558 .44099"/>
<path transform="matrix(1,0,0,-1,291.6669,43.407838)" stroke-width=".75" stroke-linecap="round" stroke-linejoin="round" fill="none" stroke="#000000" d="M51.565927-8.008892C54.111036-3.893676 58.72034-.834702 63.551305 .396907 59.127504 .743094 54.661226 4.092176 51.175676 8.312587"/>
<path transform="matrix(1,0,0,-1,291.6669,43.407838)" stroke-width=".75" stroke-linecap="round" stroke-linejoin="round" fill="none" stroke="#000000" d="M491.76579 .359195C520.2871-.233527 549.0906-.186482 576.8695-.299441"/>
<path transform="matrix(1,0,0,-1,291.6669,43.407838)" stroke-width=".75" stroke-linecap="round" stroke-linejoin="round" fill="none" stroke="#000000" d="M564.4772-7.757303C567.18148-4.37686 572.3119-1.350428 577.21188-.268775 571.9602 .939058 567.44497 3.590084 564.5669 7.639365"/>
<path transform="matrix(1,0,0,-1,291.6669,43.407838)" stroke-width=".75" stroke-linecap="round" stroke-linejoin="round" fill="none" stroke="#000000" d="M534.6875-.441955C534.4043-92.057819 534.4662-184.39266 534.61209-277.1287 495.60945-276.9892 456.68696-276.9301 416.99009-276.9297"/>
<path transform="matrix(1,0,0,-1,291.6669,43.407838)" stroke-width=".75" stroke-linecap="round" stroke-linejoin="round" fill="none" stroke="#000000" d="M429.95277-269.188C426.4411-273.25727 422.04804-275.93397 417.5954-276.90525 421.93-278.16438 426.58995-281.64744 429.70539-284.9251"/>
<path transform="matrix(1,0,0,-1,291.6669,43.407838)" stroke-width=".75" stroke-linecap="round" stroke-linejoin="round" fill="none" stroke="#000000" d="M331.16307-276.86756C220.64914-277.55448 110.372318-277.42558 .398799-277.52857 .425908-192.05727-.343941-107.05443 .303369-21.773957"/>
<path transform="matrix(1,0,0,-1,291.6669,43.407838)" stroke-width=".75" stroke-linecap="round" stroke-linejoin="round" fill="none" stroke="#000000" d="M7.873136-34.51218C3.735746-31.951985 1.440941-26.675839-.355007-21.830262-.855234-27.072348-4.208176-31.230799-8.415544-34.961236"/>
<path transform="matrix(1,0,0,-1,291.6669,43.407838)" stroke-width=".75" stroke-linecap="round" stroke-linejoin="round" fill="none" stroke="#000000" d="M-156.6689-23.97171C-156.65587-25.50318-156.81034-24.590935-155.71712-24.696988-138.20339-25.777684-118.7885-24.86117-100.28442-25.46478-86.024478-24.51444-84.920558-25.734438-86.29952-9.191267-86.195209-3.535351-84.536708 2.597194-84.82303 10.50145-85.046749 24.97578-84.694629 24.797169-100.26022 24.89465-118.77095 24.30178-137.16028 25.715468-155.99184 25.177582-170.71616 24.008727-170.43418 25.243786-170.89035 9.351122-170.5243 2.640595-170.67636-3.465349-170.32796-10.902039-170.9774-24.160727-171.08969-25.059168-156.6689-23.97171Z"/>
<path transform="matrix(1,0,0,-1,291.6669,43.407838)" stroke-width=".75" stroke-linecap="round" stroke-linejoin="round" fill="none" stroke="#000000" d="M347.46345-302.93504C346.17204-303.0719 346.77857-302.79734 346.6514-302.4499 365.3211-302.79713 384.01646-301.73979 403.17597-303.04679 416.84336-302.37696 418.0661-302.7498 418.42677-287.9006 418.4415-280.1506 418.3815-273.94126 417.94477-266.40394 417.194-252.37126 417.15156-253.23854 402.69947-253.02855 383.98118-252.66931 364.76823-251.93187 347.4308-252.29904 332.16325-252.4906 331.59886-253.09793 331.8762-266.96495 332.29856-273.56153 331.20384-279.71968 331.3685-286.52345 332.0098-302.78724 332.4493-301.3566 347.46345-302.93504Z"/>
<path transform="matrix(1,0,0,-1,291.6669,43.407838)" stroke-width=".75" stroke-linecap="round" stroke-linejoin="round" fill="none" stroke="#000000" d="M21.252348 .402411C20.695975 12.20605 11.605251 20.792017-.767024 21.841341-12.559396 21.62835-21.390076 12.668648-22.58961-.404379-20.67679-12.132378-11.493503-21.771832 .057495-20.677802 11.43617-21.911675 22.427927-11.921493 21.252348 .402411Z"/>
<path transform="matrix(1,0,0,-1,291.6669,43.407838)" stroke-width=".75" stroke-linecap="round" stroke-linejoin="round" fill="none" stroke="#000000" d="M-235.24698-.053244C-213.68854-.367546-192.6382 .233651-171.56909-.095866"/>
<path transform="matrix(1,0,0,-1,291.6669,43.407838)" stroke-width=".75" stroke-linecap="round" stroke-linejoin="round" fill="none" stroke="#000000" d="M-183.64781-8.271642C-181.12967-3.980021-176.10657-1.34006-171.78298-.063784-176.1805 .845812-180.73319 3.825157-183.73696 8.284899"/>
<path transform="matrix(1,0,0,-1,291.6669,43.407838)" stroke-width=".75" stroke-linecap="round" stroke-linejoin="round" fill="none" stroke="#000000" d="M-85.26996 .128246C-64.09623-.083373-42.955339 .055617-22.225224 .195722"/>
<path transform="matrix(1,0,0,-1,291.6669,43.407838)" stroke-width=".75" stroke-linecap="round" stroke-linejoin="round" fill="none" stroke="#000000" d="M-34.56637-8.058346C-31.568015-4.125603-26.813546-1.486109-21.83017-.358205-26.792857 .878245-31.823548 3.862211-34.45569 7.689197"/>
<path transform="matrix(1,0,0,-1,291.6669,43.407838)" stroke-width=".75" stroke-linecap="round" stroke-linejoin="round" fill="none" stroke="#000000" d="M22.045884 .259996C35.89993 .119383 49.326395-.04184 63.556844 .373407"/>
<path transform="matrix(1,0,0,-1,291.6669,43.407838)" stroke-width=".75" stroke-linecap="round" stroke-linejoin="round" fill="none" stroke="#000000" d="M50.824094-7.787623C53.91988-3.700039 58.452688-1.521514 64.2289-.418022 58.60249 1.434204 54.46493 4.278882 50.836519 8.031334"/>
<path transform="matrix(1,0,0,-1,291.6669,43.407838)" stroke-width=".75" stroke-linecap="round" stroke-linejoin="round" fill="none" stroke="#000000" d="M492.4438-.163946C519.9648 .168565 548.3387-.192788 576.76266 .082941"/>
<path transform="matrix(1,0,0,-1,291.6669,43.407838)" stroke-width=".75" stroke-linecap="round" stroke-linejoin="round" fill="none" stroke="#000000" d="M564.7798-8.17178C567.82968-4.326731 572.13137-1.495721 577.45388 .258807 572.02346 1.54302 567.4748 4.147369 564.45278 8.430462"/>
<path transform="matrix(1,0,0,-1,291.6669,43.407838)" stroke-width=".75" stroke-linecap="round" stroke-linejoin="round" fill="none" stroke="#000000" d="M534.5541 .146914C534.54696-92.38353 534.45126-184.53974 534.1775-277.11436 495.8255-277.43769 456.37397-277.55778 417.31846-277.6752"/>
<path transform="matrix(1,0,0,-1,291.6669,43.407838)" stroke-width=".75" stroke-linecap="round" stroke-linejoin="round" fill="none" stroke="#000000" d="M429.44978-269.25975C427.0111-273.47856 422.0317-276.02964 417.50105-276.841 422.08598-278.43125 426.27436-281.18635 429.4983-284.93736"/>
<path transform="matrix(1,0,0,-1,291.6669,43.407838)" stroke-width=".75" stroke-linecap="round" stroke-linejoin="round" fill="none" stroke="#000000" d="M331.66694-277.06434C221.43022-277.41767 110.76706-276.88084-.429339-277.26918-.312596-192.24773-.199701-106.89191 .156386-22.437178"/>
<path transform="matrix(1,0,0,-1,291.6669,43.407838)" stroke-width=".75" stroke-linecap="round" stroke-linejoin="round" fill="none" stroke="#000000" d="M7.631475-34.896257C4.302362-31.64547 1.219077-26.85984-.368872-21.758542-.866937-27.144272-4.212575-31.56658-7.717767-35.09877"/>
<path transform="matrix(1,0,0,-1,291.6669,43.407838)" stroke-width=".75" stroke-linecap="round" stroke-linejoin="round" fill="none" stroke="#000000" d="M-155.5686-24.666373C-155.93012-24.394272-156.84218-25.378445-156.84857-24.687806-137.922-24.420516-118.684139-24.874732-100.39756-24.142178-85.33905-25.69366-85.378749-25.337576-85.91215-10.326841-85.073078-2.809331-84.9213 4.286146-85.53393 10.815072-86.19493 24.739548-85.7187 25.074082-100.41364 24.534663-119.8009 25.557997-138.09741 24.089945-155.16982 24.294917-171.12793 25.835503-170.6021 24.800679-170.54618 10.762111-171.27433 3.058304-170.62996-3.759511-170.87987-10.353227-171.09127-25.226538-170.34612-25.292323-155.5686-24.666373Z"/>
<path transform="matrix(1,0,0,-1,291.6669,43.407838)" stroke-width=".75" stroke-linecap="round" stroke-linejoin="round" fill="none" stroke="#000000" d="M346.9571-302.66545C345.6047-303.05274 345.8446-302.02198 346.2457-303.09184 365.9223-302.76264 384.6532-301.2365 401.93333-301.80729 418.28758-302.4789 417.52287-302.78086 418.19975-287.5238 417.43-281.4735 417.64176-274.41047 416.99443-268.17573 418.43739-253.06705 418.17366-253.13329 403.1178-251.605 382.9068-252.0609 365.3101-251.70058 346.0935-252.56536 331.1371-252.2666 331.15599-252.91728 331.67399-267.01805 331.05223-274.7842 330.9816-279.6431 331.1058-286.2715 331.098-302.43254 330.8207-302.56095 346.9571-302.66545Z"/>
<path transform="matrix(1,0,0,-1,291.6669,43.407838)" stroke-width=".75" stroke-linecap="round" stroke-linejoin="round" fill="none" stroke="#000000" d="M20.688597 .861494C21.741826 11.663347 11.316254 22.242966 .35534 22.261603-11.140769 20.980332-22.022307 12.192173-22.08859 .236176-21.500336-12.353152-11.326005-21.52006 .493916-21.701231 12.273666-21.130246 21.973532-11.693159 20.688597 .861494Z"/>
<path transform="matrix(1,0,0,-1,291.6669,43.407838)" stroke-width=".75" stroke-linecap="round" stroke-linejoin="round" fill="none" stroke="#000000" d="M-235.14847 .244445C-213.74175 .321457-192.36693-.235624-171.75516 .29037"/>
<path transform="matrix(1,0,0,-1,291.6669,43.407838)" stroke-width=".75" stroke-linecap="round" stroke-linejoin="round" fill="none" stroke="#000000" d="M-184.03401-7.965644C-181.05698-4.212555-176.13028-1.262988-171.47464 .142844-176.71543 .72417-180.77675 3.668053-184.46552 8.394781"/>
<path transform="matrix(1,0,0,-1,291.6669,43.407838)" stroke-width=".75" stroke-linecap="round" stroke-linejoin="round" fill="none" stroke="#000000" d="M-85.62001-.203931C-63.970655-.365598-43.430795 .358983-21.887545 .135497"/>
<path transform="matrix(1,0,0,-1,291.6669,43.407838)" stroke-width=".75" stroke-linecap="round" stroke-linejoin="round" fill="none" stroke="#000000" d="M-34.256765-7.93283C-31.267657-4.032704-26.986706-.989699-22.077099 .135731-26.638255 1.528075-31.131772 3.732616-34.81414 8.256367"/>
<path transform="matrix(1,0,0,-1,291.6669,43.407838)" stroke-width=".75" stroke-linecap="round" stroke-linejoin="round" fill="none" stroke="#000000" d="M22.01711 .400102C35.80522-.03069 49.938089-.191151 64.01351-.277369"/>
<path transform="matrix(1,0,0,-1,291.6669,43.407838)" stroke-width=".75" stroke-linecap="round" stroke-linejoin="round" fill="none" stroke="#000000" d="M51.216089-8.164757C53.880708-3.748412 58.529916-1.001528 63.91207-.275277 59.14806 .910665 54.211984 4.417143 50.82572 7.966749"/>
<path transform="matrix(1,0,0,-1,291.6669,43.407838)" stroke-width=".75" stroke-linecap="round" stroke-linejoin="round" fill="none" stroke="#000000" d="M491.95396-.041759C520.00119 .24321 548.5095 .392056 577.3682 .281401"/>
<path transform="matrix(1,0,0,-1,291.6669,43.407838)" stroke-width=".75" stroke-linecap="round" stroke-linejoin="round" fill="none" stroke="#000000" d="M564.3004-8.264388C567.37088-3.616596 571.876-1.529227 576.7211 .427005 571.9437 .811695 567.9008 4.116435 564.261 8.304541"/>
<path transform="matrix(1,0,0,-1,291.6669,43.407838)" stroke-width=".75" stroke-linecap="round" stroke-linejoin="round" fill="none" stroke="#000000" d="M534.42898 .196365C534.7473-92.45876 534.81338-184.5232 534.7086-277.3656 495.16386-276.87245 456.5474-277.06236 417.0876-277.52946"/>
<path transform="matrix(1,0,0,-1,291.6669,43.407838)" stroke-width=".75" stroke-linecap="round" stroke-linejoin="round" fill="none" stroke="#000000" d="M430.0848-269.15415C426.403-272.8227 421.83644-276.20533 417.0784-277.36415 422.20875-277.94374 426.2824-280.94178 429.70457-284.92448"/>
<path transform="matrix(1,0,0,-1,291.6669,43.407838)" stroke-width=".75" stroke-linecap="round" stroke-linejoin="round" fill="none" stroke="#000000" d="M331.2729-277.67057C220.62926-276.99089 110.432949-277.00639-.29765-277.50965 .374441-192.47724 .359082-106.767139-.271424-21.612284"/>
<path transform="matrix(1,0,0,-1,291.6669,43.407838)" stroke-width=".75" stroke-linecap="round" stroke-linejoin="round" fill="none" stroke="#000000" d="M8.047297-34.754278C4.411021-31.454756 .804647-27.468245-.126525-22.000344-.973082-27.083054-3.80021-31.243174-8.106849-34.714044"/>
<use data-text="+" xlink:href="#font_3_1" transform="matrix(21.519354,0,0,-21.519316,253.61762,35.66504)"/>
<use data-text="&#x2212;" xlink:href="#font_3_7" transform="matrix(21.519371,0,0,-21.519288,297.8168,74.01724)"/>
<use data-text="U" xlink:href="#font_3_8" transform="matrix(21.519457,0,0,-21.519398,6.8143007,48.789125)"/>
<use data-text="(" xlink:href="#font_3_4" transform="matrix(21.519457,0,0,-21.519398,23.470364,48.789125)"/>
<use data-text="s" xlink:href="#font_3_5" transform="matrix(21.519457,0,0,-21.519398,33.015535,48.789125)"/>
<use data-text=")" xlink:href="#font_3_6" transform="matrix(21.519457,0,0,-21.519398,44.00251,48.789125)"/>
<use data-text="Y" xlink:href="#font_3_9" transform="matrix(21.519246,0,0,-21.519398,873.23489,48.789125)"/>
<use data-text="(" xlink:href="#font_3_4" transform="matrix(21.519246,0,0,-21.519398,886.38357,48.789125)"/>
<use data-text="s" xlink:href="#font_3_5" transform="matrix(21.519246,0,0,-21.519398,895.9286,48.789125)"/>
<use data-text=")" xlink:href="#font_3_6" transform="matrix(21.519246,0,0,-21.519398,906.9154,48.789125)"/>
<use data-text="+" xlink:href="#font_3_1" transform="matrix(37.185197,0,0,-37.18505,449.256,52.92865)"/>
<use data-text="G" xlink:href="#font_3_2" transform="matrix(21.519362,0,0,-21.519398,563.7217,48.789125)"/>
<use data-text="2" xlink:href="#font_3_10" transform="matrix(16.438399,0,0,-16.438426,580.18899,53.024324)"/>
<use data-text="(" xlink:href="#font_3_4" transform="matrix(21.519362,0,0,-21.519398,590.4315,48.789125)"/>
<use data-text="s" xlink:href="#font_3_5" transform="matrix(21.519362,0,0,-21.519398,599.9767,48.789125)"/>
<use data-text=")" xlink:href="#font_3_6" transform="matrix(21.519362,0,0,-21.519398,610.96359,48.789125)"/>
<use data-text="G" xlink:href="#font_3_2" transform="matrix(21.519362,0,0,-21.519398,713.0984,48.789125)"/>
<use data-text="3" xlink:href="#font_3_11" transform="matrix(16.438399,0,0,-16.438426,729.56558,52.92569)"/>
<use data-text="(" xlink:href="#font_3_4" transform="matrix(21.519362,0,0,-21.519398,739.8082,48.789125)"/>
<use data-text="s" xlink:href="#font_3_5" transform="matrix(21.519362,0,0,-21.519398,749.3534,48.789125)"/>
<use data-text=")" xlink:href="#font_3_6" transform="matrix(21.519362,0,0,-21.519398,760.34036,48.789125)"/>
<use data-text="H" xlink:href="#font_3_12" transform="matrix(21.51913,0,0,-21.519398,638.2163,141.19748)"/>
<use data-text="1" xlink:href="#font_3_3" transform="matrix(16.438221,0,0,-16.438426,655.07077,145.49845)"/>
<use data-text="(" xlink:href="#font_3_4" transform="matrix(21.51913,0,0,-21.519398,665.3133,141.19748)"/>
<use data-text="s" xlink:href="#font_3_5" transform="matrix(21.51913,0,0,-21.519398,674.85836,141.19748)"/>
<use data-text=")" xlink:href="#font_3_6" transform="matrix(21.51913,0,0,-21.519398,685.8451,141.19748)"/>
<path transform="matrix(1,0,0,-1,291.6669,43.40783)" stroke-width=".75" stroke-linecap="round" stroke-linejoin="round" fill="none" stroke="#000000" d="M272.38154-25.043875C272.96595-25.70783 272.88426-25.56291 272.8058-23.977128 291.23484-24.596646 309.67796-25.435256 328.5879-24.151593 342.00047-24.681643 342.52018-25.434977 342.99354-10.680472 342.29185-4.115292 342.92753 4.264246 342.43135 10.446353 342.6464 24.650425 342.06895 25.560164 327.03636 24.629223 309.1384 24.61289 289.94953 24.477883 272.9268 24.409234 257.2393 25.314387 257.37876 24.963953 256.50776 10.189907 257.03224 2.96355 257.27146-3.698985 256.83918-9.294577 256.7499-24.484419 256.21754-24.09884 272.38154-25.043875Z"/>
<path transform="matrix(1,0,0,-1,291.6669,43.40783)" stroke-width=".75" stroke-linecap="round" stroke-linejoin="round" fill="none" stroke="#000000" d="M421.57725-25.75106C421.0291-24.58586 422.31159-25.105406 421.84376-24.390929 440.4555-24.957034 459.07493-24.667084 476.2188-25.06055 492.14863-24.77656 492.43354-24.07592 491.62696-9.781141 491.77439-2.944049 491.98365 3.800751 491.13896 10.435975 492.93574 25.159806 491.55567 25.842892 477.2124 25.877495 459.23548 25.713843 439.84169 24.616566 420.5216 25.874884 405.87849 24.73109 405.89286 25.397715 406.00508 9.51524 405.5235 2.836869 406.76203-3.852136 407.13307-10.415681 405.65574-24.185345 405.7264-24.376338 421.57725-25.75106Z"/>
<path transform="matrix(1,0,0,-1,291.6669,43.40783)" stroke-width=".75" stroke-linecap="round" stroke-linejoin="round" fill="none" stroke="#000000" d="M346.4925-116.46819C346.21916-117.911228 345.8052-117.9359 347.00517-116.96354 365.3274-117.04553 383.51628-117.65598 403.37126-117.80463 417.13435-118.03571 417.42793-116.41759 416.7864-101.69328 416.61875-95.00416 416.7844-88.20639 418.01667-82.73179 417.85865-66.60997 418.35844-68.028537 403.46934-66.919689 383.89143-66.96015 365.2338-67.302669 346.89698-67.65643 330.61946-66.76797 331.5658-67.21675 331.58589-83.22955 331.80024-89.15786 332.45713-95.19208 331.95729-102.369129 330.92243-117.768848 330.70463-117.27089 346.4925-116.46819Z"/>
<path transform="matrix(1,0,0,-1,291.6669,43.40783)" stroke-width=".75" stroke-linecap="round" stroke-linejoin="round" fill="none" stroke="#000000" d="M193.86269 .309795C193.0774 11.121221 184.371 22.200062 171.07776 21.848919 160.43779 21.78038 149.31136 11.45194 149.09627 .345104 149.77489-12.269859 160.5724-20.925593 171.95337-22.545912 182.86112-21.440321 192.9759-11.093932 193.86269 .309795Z"/>
<path transform="matrix(1,0,0,-1,291.6669,43.40783)" stroke-width=".75" stroke-linecap="round" stroke-linejoin="round" fill="none" stroke="#000000" d="M193.55986 .189258C214.29558 .154466 235.95655-.435052 256.33909-.234633"/>
<path transform="matrix(1,0,0,-1,291.6669,43.40783)" stroke-width=".75" stroke-linecap="round" stroke-linejoin="round" fill="none" stroke="#000000" d="M243.94728-8.278762C246.81639-4.18499 251.94841-1.140374 256.78868 .339471 251.69573 1.229178 247.26165 4.389598 244.18228 8.268695"/>
<path transform="matrix(1,0,0,-1,291.6669,43.40783)" stroke-width=".75" stroke-linecap="round" stroke-linejoin="round" fill="none" stroke="#000000" d="M342.27726-.371849C363.94627-.220363 384.91966 .42708 406.372-.026231"/>
<path transform="matrix(1,0,0,-1,291.6669,43.40783)" stroke-width=".75" stroke-linecap="round" stroke-linejoin="round" fill="none" stroke="#000000" d="M393.62364-8.389385C396.83708-3.559139 400.84803-.774381 406.31733 .124505 400.8929 1.295994 396.81584 3.592697 393.59049 8.282577"/>
<path transform="matrix(1,0,0,-1,291.6669,43.40783)" stroke-width=".75" stroke-linecap="round" stroke-linejoin="round" fill="none" stroke="#000000" d="M534.7645 .397261C534.3956-30.563792 534.9943-61.316209 534.65817-92.055507 495.02494-92.40152 455.8881-92.78042 417.29066-92.59825"/>
<path transform="matrix(1,0,0,-1,291.6669,43.40783)" stroke-width=".75" stroke-linecap="round" stroke-linejoin="round" fill="none" stroke="#000000" d="M429.63914-84.38861C427.03987-88.16353 422.56193-91.2638 417.57685-92.544178 421.94078-93.744068 426.54658-96.677829 429.42295-100.07986"/>
<path transform="matrix(1,0,0,-1,291.6669,43.40783)" stroke-width=".75" stroke-linecap="round" stroke-linejoin="round" fill="none" stroke="#000000" d="M331.736-92.68516C277.9504-92.28714 224.70043-92.75917 171.20357-92.26774 171.35991-68.66063 171.55612-45.250116 171.84615-22.389485"/>
<path transform="matrix(1,0,0,-1,291.6669,43.40783)" stroke-width=".75" stroke-linecap="round" stroke-linejoin="round" fill="none" stroke="#000000" d="M179.6232-34.973768C175.39986-31.572884 173.0817-26.828518 171.30982-22.421504 170.44168-27.128993 168.07588-31.550103 163.73503-34.994489"/>
<path transform="matrix(1,0,0,-1,291.6669,43.40783)" stroke-width=".75" stroke-linecap="round" stroke-linejoin="round" fill="none" stroke="#000000" d="M272.87528-25.14503C272.01713-24.483628 271.22859-24.372462 271.2908-24.066823 290.3913-25.724242 309.7718-24.215487 327.14924-24.193968 343.5306-25.518189 341.95439-25.489575 342.37525-10.116656 342.16954-3.695262 342.20414 3.003287 342.9661 9.512868 342.88517 24.16921 343.07963 24.748753 327.87318 25.822009 310.04698 24.523196 290.34519 25.1146 271.31477 24.99002 257.15495 24.95777 257.075 24.05527 257.6133 9.411887 257.3557 3.415695 257.20704-3.560573 257.69026-9.119431 257.2246-25.83154 256.9381-24.9778 272.87528-25.14503Z"/>
<path transform="matrix(1,0,0,-1,291.6669,43.40783)" stroke-width=".75" stroke-linecap="round" stroke-linejoin="round" fill="none" stroke="#000000" d="M422.4107-24.118765C421.5744-25.132203 422.00749-24.47226 421.8623-25.110379 439.83976-25.769701 457.7198-25.365677 476.94844-24.3513 491.86576-25.455079 492.19276-24.628655 492.98167-9.359781 491.0901-4.107677 491.22138 3.321136 492.35765 10.748503 491.30174 25.668454 491.38749 25.154152 477.68223 25.550686 457.73597 25.19182 440.108 24.584799 422.26396 25.830544 407.2489 24.511973 406.6296 24.646529 406.78114 9.437006 406.79795 2.559187 405.73567-3.590391 405.953-9.018742 405.9841-25.652546 406.64515-24.27185 422.4107-24.118765Z"/>
<path transform="matrix(1,0,0,-1,291.6669,43.40783)" stroke-width=".75" stroke-linecap="round" stroke-linejoin="round" fill="none" stroke="#000000" d="M346.08909-117.035449C345.96766-116.76215 346.13597-116.97164 346.2332-117.81166 365.21839-117.715198 383.17054-118.20882 403.4536-117.80294 416.75779-117.55609 417.93363-117.85787 418.43943-101.88564 417.935-96.67945 416.92399-89.50359 417.2785-81.965358 417.78675-68.172557 417.16587-67.85446 401.8655-66.723209 384.395-67.871349 366.02656-66.807849 345.7134-66.71532 330.65995-67.07514 332.0131-67.13236 331.31407-82.804828 332.43254-89.1315 332.24357-95.7766 331.18675-102.102458 331.43473-117.59818 331.23844-116.53749 346.08909-117.035449Z"/>
<path transform="matrix(1,0,0,-1,291.6669,43.40783)" stroke-width=".75" stroke-linecap="round" stroke-linejoin="round" fill="none" stroke="#000000" d="M193.82648 .547167C192.7528 11.626346 184.28983 20.90793 171.64296 20.83738 159.9968 21.623713 149.9636 11.825465 149.2445 .141216 150.4207-11.58595 159.74506-20.899479 172.52584-22.028882 184.15799-21.646634 193.90006-12.265441 193.82648 .547167Z"/>
<path transform="matrix(1,0,0,-1,291.6669,43.40783)" stroke-width=".75" stroke-linecap="round" stroke-linejoin="round" fill="none" stroke="#000000" d="M192.9993 .39876C214.82054 .060348 235.12306-.186829 257.05345 .201708"/>
<path transform="matrix(1,0,0,-1,291.6669,43.40783)" stroke-width=".75" stroke-linecap="round" stroke-linejoin="round" fill="none" stroke="#000000" d="M244.31749-7.821587C247.13535-3.820027 252.04254-.991646 257.12947 .326458 251.93685 1.429541 247.1204 4.424869 243.81912 8.120302"/>
<path transform="matrix(1,0,0,-1,291.6669,43.40783)" stroke-width=".75" stroke-linecap="round" stroke-linejoin="round" fill="none" stroke="#000000" d="M343.0149-.317106C364.078 .42775 385.24345 .025334 405.67359-.358203"/>
<path transform="matrix(1,0,0,-1,291.6669,43.40783)" stroke-width=".75" stroke-linecap="round" stroke-linejoin="round" fill="none" stroke="#000000" d="M393.5284-7.67577C396.79966-4.419691 401.49058-1.02342 405.63175 .250831 400.82148 1.474993 396.74443 4.388273 393.088 8.136408"/>
<path transform="matrix(1,0,0,-1,291.6669,43.40783)" stroke-width=".75" stroke-linecap="round" stroke-linejoin="round" fill="none" stroke="#000000" d="M534.66177 .004077C534.2766-30.396084 534.37869-61.292936 534.5124-92.04849 495.59678-92.25884 456.7113-92.055179 416.93205-92.6289"/>
<path transform="matrix(1,0,0,-1,291.6669,43.40783)" stroke-width=".75" stroke-linecap="round" stroke-linejoin="round" fill="none" stroke="#000000" d="M429.9781-83.901088C426.31056-88.07309 422.6216-91.58247 417.1429-92.69008 421.82804-93.98805 426.42546-96.53368 430.16117-100.16054"/>
<path transform="matrix(1,0,0,-1,291.6669,43.40783)" stroke-width=".75" stroke-linecap="round" stroke-linejoin="round" fill="none" stroke="#000000" d="M331.14149-92.06596C278.02644-91.96344 225.37073-92.76853 171.61888-92.10185 171.30965-68.8662 171.19596-45.066404 171.46286-21.812487"/>
<path transform="matrix(1,0,0,-1,291.6669,43.40783)" stroke-width=".75" stroke-linecap="round" stroke-linejoin="round" fill="none" stroke="#000000" d="M179.42049-34.76387C175.39522-31.944876 172.84349-27.290347 171.46274-21.67354 170.7887-26.742337 167.22261-31.096167 163.14109-34.887624"/>
<path transform="matrix(1,0,0,-1,291.6669,43.40783)" stroke-width=".75" stroke-linecap="round" stroke-linejoin="round" fill="none" stroke="#000000" d="M272.00263-25.80043C271.52424-24.968609 271.91276-24.671294 272.8614-24.924954 289.81288-24.306952 309.54795-25.910922 328.44975-24.24448 341.8296-25.614657 342.70826-25.457747 342.56565-10.807348 341.83735-3.300098 342.6509 3.87304 343.48194 10.062824 343.59144 24.18504 342.41606 25.836173 327.61259 24.483403 309.06654 24.443802 290.59596 24.526816 272.8721 25.282002 257.6208 25.536957 256.1912 25.801823 257.60203 9.381156 257.8485 3.669497 256.22007-2.848072 257.44117-9.423658 256.4004-25.641978 256.75086-25.836968 272.00263-25.80043Z"/>
<path transform="matrix(1,0,0,-1,291.6669,43.40783)" stroke-width=".75" stroke-linecap="round" stroke-linejoin="round" fill="none" stroke="#000000" d="M421.64979-25.464325C421.29566-25.455454 420.86497-24.673209 421.7073-25.686663 439.92134-24.172833 458.40419-24.84415 476.7783-24.9618 492.70634-25.624339 491.32939-24.143124 491.74156-9.258871 492.25947-2.568888 492.54728 3.49571 492.94859 9.972048 491.6561 25.116375 492.63896 25.604351 477.62184 24.931275 459.0007 23.98299 439.85664 24.04976 422.09303 25.24112 407.15278 24.681813 406.7891 24.705447 406.15953 9.225205 407.2177 2.811204 407.39018-2.590576 406.61393-10.347153 407.20259-24.670016 407.27177-25.055356 421.64979-25.464325Z"/>
<path transform="matrix(1,0,0,-1,291.6669,43.40783)" stroke-width=".75" stroke-linecap="round" stroke-linejoin="round" fill="none" stroke="#000000" d="M347.25709-118.120517C347.30558-117.26951 347.4357-117.092449 347.04768-117.03884 365.83354-117.5017 384.48197-116.90707 402.52635-116.92905 417.88618-117.4331 417.19804-117.00005 417.96629-102.68051 417.84327-95.391948 418.1815-89.388828 417.05638-82.095249 418.47257-67.20301 417.5307-67.178157 403.25868-67.83311 383.70314-67.94046 364.7744-67.38719 345.8133-67.82334 332.11634-67.39821 332.4471-68.40932 331.50328-82.1966 331.96824-89.40627 332.42558-96.52671 331.67668-102.60052 331.5838-117.331897 332.2767-117.13267 347.25709-118.120517Z"/>
<path transform="matrix(1,0,0,-1,291.6669,43.40783)" stroke-width=".75" stroke-linecap="round" stroke-linejoin="round" fill="none" stroke="#000000" d="M192.95404 .669436C194.2237 12.26091 184.28849 20.774142 171.65673 22.600474 160.53705 21.908879 149.632 12.579928 149.12407 .613884 150.68219-12.41391 158.70598-21.388865 171.79654-20.75565 183.87822-22.242259 193.24811-12.074948 192.95404 .669436Z"/>
<path transform="matrix(1,0,0,-1,291.6669,43.40783)" stroke-width=".75" stroke-linecap="round" stroke-linejoin="round" fill="none" stroke="#000000" d="M193.14443 .194822C214.71428 .107515 235.2261-.061374 256.4186 .344609"/>
<path transform="matrix(1,0,0,-1,291.6669,43.40783)" stroke-width=".75" stroke-linecap="round" stroke-linejoin="round" fill="none" stroke="#000000" d="M243.7276-8.471861C246.75214-4.182844 251.61397-.728648 257.07579 .431059 251.41635 1.223238 247.40608 4.310489 244.113 8.066897"/>
<path transform="matrix(1,0,0,-1,291.6669,43.40783)" stroke-width=".75" stroke-linecap="round" stroke-linejoin="round" fill="none" stroke="#000000" d="M342.24537-.220139C364.1797 .393261 384.83726-.411366 405.8345 .13387"/>
<path transform="matrix(1,0,0,-1,291.6669,43.40783)" stroke-width=".75" stroke-linecap="round" stroke-linejoin="round" fill="none" stroke="#000000" d="M393.7253-7.76206C396.96745-4.399509 400.66728-1.191944 406.01673-.120455 400.6961 .933919 396.54426 3.910883 393.79804 7.989033"/>
<path transform="matrix(1,0,0,-1,291.6669,43.40783)" stroke-width=".75" stroke-linecap="round" stroke-linejoin="round" fill="none" stroke="#000000" d="M534.544 .4047C534.15628-30.75569 534.4416-61.599569 535.0029-92.245029 494.99897-92.70073 456.12687-92.546459 417.255-92.05005"/>
<path transform="matrix(1,0,0,-1,291.6669,43.40783)" stroke-width=".75" stroke-linecap="round" stroke-linejoin="round" fill="none" stroke="#000000" d="M430.07243-84.02418C426.2146-88.23882 421.871-91.66493 416.92097-92.6271 421.98796-93.40865 426.6272-96.10261 430.01933-100.824298"/>
<path transform="matrix(1,0,0,-1,291.6669,43.40783)" stroke-width=".75" stroke-linecap="round" stroke-linejoin="round" fill="none" stroke="#000000" d="M331.97343-92.2879C278.00926-92.083858 224.84897-92.70959 171.83943-92.398059 171.30411-69.10417 171.96389-45.61994 171.74436-22.09923"/>
<path transform="matrix(1,0,0,-1,291.6669,43.40783)" stroke-width=".75" stroke-linecap="round" stroke-linejoin="round" fill="none" stroke="#000000" d="M180.08354-34.793535C175.82276-31.823668 173.08216-27.485932 171.6053-22.218899 170.12267-26.657677 167.87471-31.70288 163.69863-34.992185"/>
<path transform="matrix(1,0,0,-1,291.6669,43.40783)" stroke-width=".75" stroke-linecap="round" stroke-linejoin="round" fill="none" stroke="#000000" d="M272.99476-24.1562C271.988-24.837815 272.14189-25.035838 272.22337-25.880099 291.1404-25.322619 309.1771-25.863106 328.4514-25.182913 341.7327-25.760045 343.30274-24.618638 342.68739-10.091398 342.3392-2.595717 342.03907 4.128171 343.6055 10.676709 343.5791 24.328364 342.49183 24.33155 327.12947 23.970368 308.6409 24.02704 289.80528 25.214472 272.77613 24.226572 258.0325 25.871914 257.44868 24.82672 256.2907 10.270793 256.46479 3.287954 256.37074-2.99922 256.86564-10.355126 256.58769-25.03046 257.51899-24.184447 272.99476-24.1562Z"/>
<path transform="matrix(1,0,0,-1,291.6669,43.40783)" stroke-width=".75" stroke-linecap="round" stroke-linejoin="round" fill="none" stroke="#000000" d="M421.2687-24.623518C420.93055-24.910838 420.99464-24.662856 421.2772-24.562207 440.3847-25.416783 458.99848-25.270308 476.924-24.455252 492.19459-24.302489 491.52986-24.012566 491.91447-9.665564 492.4285-3.325952 492.1941 3.792702 492.92466 9.149966 492.36265 24.893164 492.4609 23.99388 477.85325 25.222126 458.35264 24.909905 440.92088 24.608586 420.97077 25.072676 406.54475 25.725844 406.32463 24.028943 406.3972 9.959582 406.39158 4.25756 406.7765-2.811855 407.1456-10.08661 407.06358-24.08995 407.40296-24.39589 421.2687-24.623518Z"/>
<path transform="matrix(1,0,0,-1,291.6669,43.40783)" stroke-width=".75" stroke-linecap="round" stroke-linejoin="round" fill="none" stroke="#000000" d="M347.47163-117.08154C346.23783-117.26114 346.88853-116.63483 346.90208-116.89269 365.1388-116.83998 383.48258-116.51571 402.26896-117.47332 417.00669-118.312198 418.2032-117.71742 418.04585-103.053798 416.97377-94.927249 417.11936-88.39564 416.76747-82.09952 417.78105-67.69928 417.59065-67.94337 402.034-67.99833 383.11817-67.882198 364.36439-67.57615 346.2909-66.78 331.25474-67.384029 330.69679-67.88392 330.58958-82.659427 332.5156-88.159168 330.7835-95.29001 331.12037-103.00629 331.0116-117.519008 331.81404-116.88984 347.47163-117.08154Z"/>
<path transform="matrix(1,0,0,-1,291.6669,43.40783)" stroke-width=".75" stroke-linecap="round" stroke-linejoin="round" fill="none" stroke="#000000" d="M193.58348 .858348C193.85289 11.549675 184.44661 22.152573 170.78612 22.062417 160.2785 22.400597 150.77295 11.786493 149.13634 .155147 149.75218-12.152917 160.00983-20.727911 171.60912-22.533808 184.30303-21.241692 192.4954-11.605945 193.58348 .858348Z"/>
<path transform="matrix(1,0,0,-1,291.6669,43.40783)" stroke-width=".75" stroke-linecap="round" stroke-linejoin="round" fill="none" stroke="#000000" d="M193.42595-.228051C214.18378-.037782 235.59809-.355916 257.03004-.177449"/>
<path transform="matrix(1,0,0,-1,291.6669,43.40783)" stroke-width=".75" stroke-linecap="round" stroke-linejoin="round" fill="none" stroke="#000000" d="M243.83698-8.09769C247.39592-3.938734 251.70615-1.271883 256.26295-.32389 251.34612 .739519 247.34604 4.036372 243.79865 7.837063"/>
<path transform="matrix(1,0,0,-1,291.6669,43.40783)" stroke-width=".75" stroke-linecap="round" stroke-linejoin="round" fill="none" stroke="#000000" d="M342.32814 .371939C363.6871-.281675 384.6848 .260071 406.37425-.067431"/>
<path transform="matrix(1,0,0,-1,291.6669,43.40783)" stroke-width=".75" stroke-linecap="round" stroke-linejoin="round" fill="none" stroke="#000000" d="M392.98857-7.909518C396.1556-3.615716 400.9424-1.031493 405.97254-.289954 400.63093 1.580985 397.00508 4.213692 393.31629 7.661127"/>
<path transform="matrix(1,0,0,-1,291.6669,43.40783)" stroke-width=".75" stroke-linecap="round" stroke-linejoin="round" fill="none" stroke="#000000" d="M534.201 .334909C534.9742-30.43149 534.155-61.635545 534.2208-92.46233 495.4102-92.77161 456.71815-92.20234 417.5444-92.088718"/>
<path transform="matrix(1,0,0,-1,291.6669,43.40783)" stroke-width=".75" stroke-linecap="round" stroke-linejoin="round" fill="none" stroke="#000000" d="M430.21876-83.95765C426.46977-88.26757 421.898-91.65671 416.84135-92.16731 421.98893-93.75664 427.0914-96.72726 429.39436-100.1054"/>
<path transform="matrix(1,0,0,-1,291.6669,43.40783)" stroke-width=".75" stroke-linecap="round" stroke-linejoin="round" fill="none" stroke="#000000" d="M331.26545-92.1226C278.18855-92.77174 224.79608-92.19691 171.88159-92.37436 171.61562-68.88305 171.94437-45.672384 171.45127-22.357783"/>
<path transform="matrix(1,0,0,-1,291.6669,43.40783)" stroke-width=".75" stroke-linecap="round" stroke-linejoin="round" fill="none" stroke="#000000" d="M179.71231-34.609155C175.96521-31.137398 172.67284-27.405694 171.80458-21.815268 170.73268-27.034869 167.48073-31.667445 163.69493-34.715349"/>
<path transform="matrix(1,0,0,-1,291.6669,43.40783)" stroke-width=".75" stroke-linecap="round" stroke-linejoin="round" fill="none" stroke="#000000" d="M271.4449-25.195338C271.43403-25.219122 271.5033-25.717089 272.93876-24.440779 291.54103-24.425074 309.28358-25.07771 327.196-25.162848 343.51518-24.722796 342.33247-24.748187 343.34214-9.06421 343.06584-2.48344 343.5074 3.264857 342.86308 9.223657 342.0122 24.846262 342.47795 24.544449 326.7962 24.274827 309.28105 24.030844 291.0755 25.239314 271.31575 25.459769 257.48426 25.603768 257.7363 25.291962 257.2269 10.691443 256.88145 2.64692 257.9897-2.676232 256.349-10.574396 257.49543-24.282464 257.1988-24.385893 271.4449-25.195338Z"/>
<path transform="matrix(1,0,0,-1,291.6669,43.40783)" stroke-width=".75" stroke-linecap="round" stroke-linejoin="round" fill="none" stroke="#000000" d="M421.7005-24.677933C420.4726-25.483727 421.7916-25.79288 421.97123-24.321772 440.85035-25.461159 458.11448-24.5516 477.60383-24.82222 492.97993-24.675242 491.0617-25.62259 492.70845-10.32965 491.93684-2.9264 491.44194 2.373227 492.05534 10.441028 491.80409 24.9332 492.57914 24.970137 476.48808 25.287484 458.8813 25.351847 440.3349 25.911572 421.08097 25.400643 407.32823 24.49981 406.38316 24.505129 407.012 10.284328 407.3314 2.764941 406.14414-3.276895 406.5474-9.023636 405.91267-24.609833 406.079-24.181088 421.7005-24.677933Z"/>
<path transform="matrix(1,0,0,-1,291.6669,43.40783)" stroke-width=".75" stroke-linecap="round" stroke-linejoin="round" fill="none" stroke="#000000" d="M346.85136-118.19699C345.7687-117.71956 346.58518-117.34699 346.23448-116.98072 364.54978-117.306118 383.953-117.23177 403.3336-117.62563 417.62294-117.115 416.98674-118.01651 417.46574-102.10193 417.39906-96.29971 417.80406-88.43077 417.8567-82.53958 416.77616-67.5895 417.06318-67.7436 402.27146-67.18434 383.80586-68.39915 365.15168-66.85294 346.69059-67.3214 331.7214-67.012409 331.94178-67.05131 331.6484-83.1775 332.4593-88.969989 331.01908-95.8372 332.21076-102.14328 332.02848-117.07353 331.9015-116.49244 346.85136-118.19699Z"/>
<path transform="matrix(1,0,0,-1,291.6669,43.40783)" stroke-width=".75" stroke-linecap="round" stroke-linejoin="round" fill="none" stroke="#000000" d="M192.8945-.69189C192.41524 11.341526 184.18834 21.11883 171.45719 20.83021 159.1915 21.158856 149.82413 12.7581 149.15493-.962185 150.94062-11.506681 160.64603-22.31679 171.54517-21.432364 183.4486-20.994544 193.32389-12.248978 192.8945-.69189Z"/>
<path transform="matrix(1,0,0,-1,291.6669,43.40783)" stroke-width=".75" stroke-linecap="round" stroke-linejoin="round" fill="none" stroke="#000000" d="M193.339 .258094C214.22924-.258165 235.70276-.179253 257.1251-.194403"/>
<path transform="matrix(1,0,0,-1,291.6669,43.40783)" stroke-width=".75" stroke-linecap="round" stroke-linejoin="round" fill="none" stroke="#000000" d="M244.1824-7.885054C247.33289-4.130685 251.807-1.139745 256.69465 .322561 251.9646 .750515 247.38118 3.771634 244.34581 8.072067"/>
<path transform="matrix(1,0,0,-1,291.6669,43.40783)" stroke-width=".75" stroke-linecap="round" stroke-linejoin="round" fill="none" stroke="#000000" d="M342.78489 .315661C363.36885-.075338 385.1175-.130661 406.2891 .113215"/>
<path transform="matrix(1,0,0,-1,291.6669,43.40783)" stroke-width=".75" stroke-linecap="round" stroke-linejoin="round" fill="none" stroke="#000000" d="M393.31153-7.635C396.84007-4.087526 401.10054-1.076132 406.29609-.141432 400.9122 1.385257 396.61744 3.995413 393.59153 8.471443"/>
<path transform="matrix(1,0,0,-1,291.6669,43.40783)" stroke-width=".75" stroke-linecap="round" stroke-linejoin="round" fill="none" stroke="#000000" d="M534.6894 .174176C534.93698-31.147828 534.5351-61.843484 534.9476-92.31153 495.7255-92.74766 456.28083-92.6328 417.05488-92.265079"/>
<path transform="matrix(1,0,0,-1,291.6669,43.40783)" stroke-width=".75" stroke-linecap="round" stroke-linejoin="round" fill="none" stroke="#000000" d="M429.54035-84.58582C426.2542-88.24257 422.38029-91.33439 417.60466-92.00913 421.7741-93.88006 426.80607-96.12685 429.44013-100.32511"/>
<path transform="matrix(1,0,0,-1,291.6669,43.40783)" stroke-width=".75" stroke-linecap="round" stroke-linejoin="round" fill="none" stroke="#000000" d="M331.9502-91.998767C278.11149-92.46874 225.35004-92.03706 171.44303-92.391849 171.69025-68.907878 172.07402-45.85657 171.4683-21.582268"/>
<path transform="matrix(1,0,0,-1,291.6669,43.40783)" stroke-width=".75" stroke-linecap="round" stroke-linejoin="round" fill="none" stroke="#000000" d="M179.34484-34.50969C175.57332-31.360619 172.66316-26.802189 171.22496-22.184329 170.39858-27.012484 167.59255-31.455258 163.18639-34.907178"/>
<use data-text="+" xlink:href="#font_3_1" transform="matrix(21.519354,0,0,-21.519316,425.24623,35.66501)"/>
<use data-text="&#x2212;" xlink:href="#font_3_7" transform="matrix(21.519371,0,0,-21.519288,469.44544,74.01721)"/>
<use data-text="+" xlink:href="#font_3_1" transform="matrix(37.185197,0,0,-37.18505,363.4417,52.92865)"/>
<use data-text="H" xlink:href="#font_3_12" transform="matrix(21.51913,0,0,-21.519398,638.2163,233.60587)"/>
<use data-text="2" xlink:href="#font_3_10" transform="matrix(16.438221,0,0,-16.438426,655.07077,237.84107)"/>
<use data-text="(" xlink:href="#font_3_4" transform="matrix(21.51913,0,0,-21.519398,665.3133,233.60587)"/>
<use data-text="s" xlink:href="#font_3_5" transform="matrix(21.51913,0,0,-21.519398,674.85836,233.60587)"/>
<use data-text=")" xlink:href="#font_3_6" transform="matrix(21.51913,0,0,-21.519398,685.8451,233.60587)"/>
<path transform="matrix(1,0,0,-1,291.6669,43.40782)" stroke-width=".75" stroke-linecap="round" stroke-linejoin="round" fill="none" stroke="#000000" d="M347.43778-209.79282C346.5331-209.00386 345.60588-208.90367 346.58558-210.36875 365.70533-210.42922 383.23887-210.65991 403.3918-210.5639 417.95695-209.1014 418.276-208.9411 416.9436-195.72489 417.619-188.04106 416.70964-180.9044 417.23963-174.16179 417.9935-160.16898 417.6918-160.51982 402.4411-159.62688 383.03773-160.67752 365.91697-160.77942 345.85734-159.19687 332.44169-160.43506 332.44184-159.58989 331.82524-174.27832 331.05528-180.89334 332.03263-187.6214 332.3328-195.49227 331.70909-208.8389 331.72755-208.85993 347.43778-209.79282Z"/>
<path transform="matrix(1,0,0,-1,291.6669,43.40782)" stroke-width=".75" stroke-linecap="round" stroke-linejoin="round" fill="none" stroke="#000000" d="M106.92886 .904216C107.97968 12.452141 96.99118 22.304839 85.4408 21.857584 74.63918 22.384488 64.61784 11.984577 64.85192-.318687 64.23442-12.314459 74.24748-20.742495 86.772937-21.662756 97.35679-22.396985 108.05712-12.631351 106.92886 .904216Z"/>
<path transform="matrix(1,0,0,-1,291.6669,43.40782)" stroke-width=".75" stroke-linecap="round" stroke-linejoin="round" fill="none" stroke="#000000" d="M107.733539-.243862C121.924709-.125737 135.11916 .42678 149.2505-.076028"/>
<path transform="matrix(1,0,0,-1,291.6669,43.40782)" stroke-width=".75" stroke-linecap="round" stroke-linejoin="round" fill="none" stroke="#000000" d="M137.31797-8.205459C139.88242-4.189233 144.23169-1.587341 149.92978 .369606 144.53629 .7911 140.44219 4.147953 136.5973 7.771934"/>
<path transform="matrix(1,0,0,-1,291.6669,43.40782)" stroke-width=".75" stroke-linecap="round" stroke-linejoin="round" fill="none" stroke="#000000" d="M534.56918 .196954C534.40188-61.36193 534.15646-123.170909 534.4942-184.82624 495.29338-184.39189 455.93165-184.37602 416.82905-184.46775"/>
<path transform="matrix(1,0,0,-1,291.6669,43.40782)" stroke-width=".75" stroke-linecap="round" stroke-linejoin="round" fill="none" stroke="#000000" d="M429.39405-176.50635C426.9924-180.68798 422.08677-183.63555 417.07319-184.61725 422.33567-186.2919 426.81599-188.4742 430.17829-192.62128"/>
<path transform="matrix(1,0,0,-1,291.6669,43.40782)" stroke-width=".75" stroke-linecap="round" stroke-linejoin="round" fill="none" stroke="#000000" d="M331.9074-184.57556C249.66727-184.47599 167.86833-184.86148 85.46405-185.23113 86.21646-130.85297 85.9357-75.92432 85.42342-22.065285"/>
<path transform="matrix(1,0,0,-1,291.6669,43.40782)" stroke-width=".75" stroke-linecap="round" stroke-linejoin="round" fill="none" stroke="#000000" d="M93.655948-34.917665C89.5555-31.501318 86.85564-26.907649 86.23057-22.040236 84.52509-27.161696 81.63315-31.651114 78.07959-34.961717"/>
<path transform="matrix(1,0,0,-1,291.6669,43.40782)" stroke-width=".75" stroke-linecap="round" stroke-linejoin="round" fill="none" stroke="#000000" d="M347.41737-209.27393C346.47245-208.84069 347.4253-209.87509 347.17869-208.88127 365.56477-209.45619 383.44084-210.46617 403.46769-209.66614 416.81474-210.64955 417.75648-209.09084 416.62385-195.35803 418.08964-187.4004 416.94868-181.39327 417.37477-174.83098 418.0392-160.48593 417.92747-159.27317 401.96748-160.7669 384.19914-159.454 365.83909-159.52358 345.6225-159.25753 331.08326-160.69245 331.1286-159.92433 330.7916-175.33666 330.94834-182.07305 330.6061-188.86339 330.72837-194.27323 331.5277-209.52999 330.79887-210.50702 347.41737-209.27393Z"/>
<path transform="matrix(1,0,0,-1,291.6669,43.40782)" stroke-width=".75" stroke-linecap="round" stroke-linejoin="round" fill="none" stroke="#000000" d="M107.52831 .713807C107.55483 11.519076 96.819759 22.2248 85.61517 22.29363 73.72162 21.252268 63.261274 11.94413 64.68745-.223214 64.85863-12.830493 74.728099-21.508597 85.58035-22.573155 98.12573-20.68741 106.76285-11.85828 107.52831 .713807Z"/>
<path transform="matrix(1,0,0,-1,291.6669,43.40782)" stroke-width=".75" stroke-linecap="round" stroke-linejoin="round" fill="none" stroke="#000000" d="M107.06794-.173652C121.41635-.408778 135.47762-.082208 149.81737 .12455"/>
<path transform="matrix(1,0,0,-1,291.6669,43.40782)" stroke-width=".75" stroke-linecap="round" stroke-linejoin="round" fill="none" stroke="#000000" d="M137.33464-8.303768C139.87792-3.849031 144.5871-.84922 149.87079-.134093 144.85449 1.475252 140.02429 4.187707 137.00135 7.663436"/>
<path transform="matrix(1,0,0,-1,291.6669,43.40782)" stroke-width=".75" stroke-linecap="round" stroke-linejoin="round" fill="none" stroke="#000000" d="M534.712 .289661C534.2883-61.56955 534.8756-122.82282 534.1539-184.87023 495.4985-184.67125 456.49006-185.2046 417.30064-184.86643"/>
<path transform="matrix(1,0,0,-1,291.6669,43.40782)" stroke-width=".75" stroke-linecap="round" stroke-linejoin="round" fill="none" stroke="#000000" d="M429.62376-176.41587C426.67286-180.8165 422.10447-183.8686 416.82469-184.75962 422.1474-186.07288 426.6518-188.93138 429.67268-192.67205"/>
<path transform="matrix(1,0,0,-1,291.6669,43.40782)" stroke-width=".75" stroke-linecap="round" stroke-linejoin="round" fill="none" stroke="#000000" d="M331.81535-184.67722C249.3573-184.74085 167.65294-184.70522 86.09966-185.0579 85.89856-130.99419 85.695629-76.6115 85.93919-22.378239"/>
<path transform="matrix(1,0,0,-1,291.6669,43.40782)" stroke-width=".75" stroke-linecap="round" stroke-linejoin="round" fill="none" stroke="#000000" d="M93.71936-34.523519C89.762187-31.163455 86.98721-27.321082 85.385898-21.78935 84.75163-26.75406 82.17667-31.28576 77.58079-35.07115"/>
<path transform="matrix(1,0,0,-1,291.6669,43.40782)" stroke-width=".75" stroke-linecap="round" stroke-linejoin="round" fill="none" stroke="#000000" d="M345.64698-209.15424C345.97825-210.14171 346.8703-209.98093 347.46055-208.8928 364.96156-209.69298 383.88639-208.9681 402.52696-209.13936 416.7246-210.43144 417.71086-209.83638 416.93019-194.0413 417.64295-188.00331 417.34593-181.83077 418.17698-174.60562 417.20735-160.46099 417.34294-159.2468 403.34788-159.92382 383.89033-160.61882 364.7333-160.29605 346.0434-159.97435 332.1253-159.92072 331.62519-160.79099 331.88017-175.18282 330.77333-182.43433 331.9046-188.94622 331.23948-194.73387 331.94508-208.85326 331.58885-209.05155 345.64698-209.15424Z"/>
<path transform="matrix(1,0,0,-1,291.6669,43.40782)" stroke-width=".75" stroke-linecap="round" stroke-linejoin="round" fill="none" stroke="#000000" d="M107.41848 .49771C107.44245 12.884043 97.47488 22.587529 86.147388 20.705666 74.23429 21.539748 64.86536 11.25731 63.774629 .455884 63.50648-11.35312 74.78654-22.365607 85.33067-21.197314 98.009609-21.09862 108.00628-12.503257 107.41848 .49771Z"/>
<path transform="matrix(1,0,0,-1,291.6669,43.40782)" stroke-width=".75" stroke-linecap="round" stroke-linejoin="round" fill="none" stroke="#000000" d="M107.235149 .168574C121.753429 .441525 135.55411 .089056 149.90508-.018854"/>
<path transform="matrix(1,0,0,-1,291.6669,43.40782)" stroke-width=".75" stroke-linecap="round" stroke-linejoin="round" fill="none" stroke="#000000" d="M136.78694-8.333355C140.56098-4.068551 144.16693-1.078515 149.40842 .261559 144.92755 1.101138 140.46042 3.613492 137.25165 7.616612"/>
<path transform="matrix(1,0,0,-1,291.6669,43.40782)" stroke-width=".75" stroke-linecap="round" stroke-linejoin="round" fill="none" stroke="#000000" d="M534.8888-.388983C534.3939-61.959604 534.7192-123.431728 534.5929-185.12798 495.55393-184.65915 456.38227-184.76499 417.42985-184.43825"/>
<path transform="matrix(1,0,0,-1,291.6669,43.40782)" stroke-width=".75" stroke-linecap="round" stroke-linejoin="round" fill="none" stroke="#000000" d="M429.57145-176.6881C426.86576-180.58264 422.27873-183.51174 417.5439-185.18415 422.53428-185.95491 426.8475-189.06734 429.52473-192.98619"/>
<path transform="matrix(1,0,0,-1,291.6669,43.40782)" stroke-width=".75" stroke-linecap="round" stroke-linejoin="round" fill="none" stroke="#000000" d="M331.7362-185.17354C249.27301-184.43946 167.40348-185.10323 85.48533-184.47359 85.48902-130.92568 85.76309-76.70449 85.378139-22.136904"/>
<path transform="matrix(1,0,0,-1,291.6669,43.40782)" stroke-width=".75" stroke-linecap="round" stroke-linejoin="round" fill="none" stroke="#000000" d="M93.88401-34.50647C89.85022-31.67971 87.07148-27.049199 86.01306-22.019572 84.21659-26.832158 81.69333-31.808943 77.947-34.732946"/>
<path transform="matrix(1,0,0,-1,291.6669,43.40782)" stroke-width=".75" stroke-linecap="round" stroke-linejoin="round" fill="none" stroke="#000000" d="M347.39723-209.94666C346.9864-210.52246 347.42887-209.25543 345.6716-209.25708 365.53559-209.05739 383.9229-209.1483 402.7811-209.98863 417.35124-209.10874 416.70793-209.12386 418.36076-194.2377 416.7646-188.40235 416.93095-181.35315 418.37974-175.38158 416.57707-159.45725 417.7395-159.14632 403.3167-159.51372 383.07624-160.52266 364.63969-160.73955 345.8768-159.9763 331.49046-159.01486 330.87953-160.42113 330.80705-174.52649 331.1916-180.83406 331.08775-187.69489 331.51097-195.03491 331.24958-209.55788 331.4444-209.53847 347.39723-209.94666Z"/>
<path transform="matrix(1,0,0,-1,291.6669,43.40782)" stroke-width=".75" stroke-linecap="round" stroke-linejoin="round" fill="none" stroke="#000000" d="M107.70351 .615905C107.46828 11.643148 96.85486 21.317784 85.03238 21.042904 73.03331 22.536694 63.37837 11.653104 64.22975-.719609 63.792589-11.138262 73.65622-21.54797 85.317798-21.59211 97.22458-22.585358 107.28272-11.785792 107.70351 .615905Z"/>
<path transform="matrix(1,0,0,-1,291.6669,43.40782)" stroke-width=".75" stroke-linecap="round" stroke-linejoin="round" fill="none" stroke="#000000" d="M107.24506 .380456C121.63844-.317878 135.85485 .342525 149.49936 .303161"/>
<path transform="matrix(1,0,0,-1,291.6669,43.40782)" stroke-width=".75" stroke-linecap="round" stroke-linejoin="round" fill="none" stroke="#000000" d="M137.05239-7.621668C140.21385-3.894537 144.32074-.855698 150.05194-.232199 144.62009 1.234369 139.70157 3.995724 136.93842 7.891069"/>
<path transform="matrix(1,0,0,-1,291.6669,43.40782)" stroke-width=".75" stroke-linecap="round" stroke-linejoin="round" fill="none" stroke="#000000" d="M534.8031 .164226C534.26998-61.61161 534.58798-123.48827 534.6752-184.98079 495.45985-184.56746 456.11509-184.39363 417.09834-184.87943"/>
<path transform="matrix(1,0,0,-1,291.6669,43.40782)" stroke-width=".75" stroke-linecap="round" stroke-linejoin="round" fill="none" stroke="#000000" d="M429.56285-177.07317C427.05299-180.85228 422.27174-183.34546 417.50346-184.9549 421.99314-185.92908 426.72666-188.67086 429.62867-193.15273"/>
<path transform="matrix(1,0,0,-1,291.6669,43.40782)" stroke-width=".75" stroke-linecap="round" stroke-linejoin="round" fill="none" stroke="#000000" d="M331.73109-185.19867C249.81229-184.81815 167.43466-184.99649 85.94017-184.54927 85.58966-130.31777 85.87637-76.21262 85.48343-21.992144"/>
<path transform="matrix(1,0,0,-1,291.6669,43.40782)" stroke-width=".75" stroke-linecap="round" stroke-linejoin="round" fill="none" stroke="#000000" d="M93.68269-34.823629C90.1476-31.623579 87.31573-27.245688 86.06767-22.421029 84.5872-27.432305 81.481678-31.529967 77.683788-34.49309"/>
<path transform="matrix(1,0,0,-1,291.6669,43.40782)" stroke-width=".75" stroke-linecap="round" stroke-linejoin="round" fill="none" stroke="#000000" d="M347.22868-209.42165C347.2741-209.0604 347.47254-209.85446 345.9276-210.34969 364.80903-209.33557 383.74153-210.13544 403.32344-209.4225 417.2949-210.10323 417.1534-209.00414 416.94197-194.92893 417.635-188.89669 417.01289-181.6348 418.23896-173.91333 417.37788-160.58699 417.6863-160.6758 403.03398-160.29483 383.56263-160.49155 366.06819-160.05034 347.51716-160.01573 331.05335-159.65839 330.69825-160.21216 331.6071-173.93224 332.30326-180.97144 331.53556-187.40563 330.98039-194.88474 332.3683-209.72808 330.72666-209.66289 347.22868-209.42165Z"/>
<path transform="matrix(1,0,0,-1,291.6669,43.40782)" stroke-width=".75" stroke-linecap="round" stroke-linejoin="round" fill="none" stroke="#000000" d="M107.81401-.323114C107.92544 11.639918 96.81683 20.88271 85.120059 22.21347 73.01052 22.477898 63.573347 11.431402 63.68453 .516459 63.295286-12.656748 73.16999-22.491316 85.19019-22.052908 98.11536-22.114224 107.589069-11.293293 107.81401-.323114Z"/>
<path transform="matrix(1,0,0,-1,291.6669,43.40782)" stroke-width=".75" stroke-linecap="round" stroke-linejoin="round" fill="none" stroke="#000000" d="M107.90205 .331767C121.58006 .086365 135.6173-.401329 149.6524-.357798"/>
<path transform="matrix(1,0,0,-1,291.6669,43.40782)" stroke-width=".75" stroke-linecap="round" stroke-linejoin="round" fill="none" stroke="#000000" d="M136.73972-7.969693C140.1563-3.957562 144.45516-1.337568 149.89572 .236709 144.28612 .738297 140.49149 4.374744 136.7167 8.249599"/>
<path transform="matrix(1,0,0,-1,291.6669,43.40782)" stroke-width=".75" stroke-linecap="round" stroke-linejoin="round" fill="none" stroke="#000000" d="M534.243 .01277C534.17098-61.630449 534.3508-122.96119 534.52157-184.69617 495.497-184.92099 456.5299-184.6096 417.37788-185.24788"/>
<path transform="matrix(1,0,0,-1,291.6669,43.40782)" stroke-width=".75" stroke-linecap="round" stroke-linejoin="round" fill="none" stroke="#000000" d="M429.46998-176.46239C426.29145-180.77552 421.79017-183.61632 417.24763-184.77346 421.75898-186.40215 426.45899-188.37776 429.49256-192.85076"/>
<path transform="matrix(1,0,0,-1,291.6669,43.40782)" stroke-width=".75" stroke-linecap="round" stroke-linejoin="round" fill="none" stroke="#000000" d="M331.78544-185.0873C249.99146-184.41242 167.38996-185.1152 86.0954-184.98532 85.693088-130.14508 85.533908-76.31006 85.87955-22.301697"/>
<path transform="matrix(1,0,0,-1,291.6669,43.40782)" stroke-width=".75" stroke-linecap="round" stroke-linejoin="round" fill="none" stroke="#000000" d="M94.03058-34.817655C90.18012-31.65592 87.39011-26.980128 85.777309-22.007758 84.55796-26.896597 81.70977-31.187685 77.55763-34.743555"/>
<use data-text="+" xlink:href="#font_3_1" transform="matrix(21.519354,0,0,-21.519316,339.43193,35.66501)"/>
<use data-text="&#x2212;" xlink:href="#font_3_7" transform="matrix(21.519371,0,0,-21.519288,383.6311,74.01721)"/>
</svg>
