<svg xmlns="http://www.w3.org/2000/svg" xmlns:xlink="http://www.w3.org/1999/xlink" xmlns:inkscape="http://www.inkscape.org/namespaces/inkscape" version="1.1" width="1135.2621" height="354.58207" viewBox="0 0 1135.2621 354.58207">
<defs>
<path id="font_10_1" d="M.04598999 .23632813H.35598756V-.07368469L.3959961-.06668091V.23632813H.70399478L.70899966 .2763214H.3959961V.58631899L.35598756 .58032229V.2763214H.052993776L.04598999 .23632813Z"/>
<path id="font_10_2" d="M.08999634 .32458497C.08999634 .22958374 .114990238 .13148499 .18299866 .06341553 .23699951 .009384155 .31199647-.016601563 .3880005-.016601563 .46099855-.016601563 .56900027 .010391235 .6569977 .03338623 .6569977 .03338623 .6539917 .216568 .6519928 .30760194L.37599183 .2966156V.27061463L.38198854 .265625C.43598939 .26361085 .5 .25961305 .5439911 .25660707 .57199099 .25460816 .57199099 .22257996 .57199099 .13449097 .57199099 .061416627 .56900027 .04940796 .5519867 .045394899 .5209961 .038391115 .48999024 .03538513 .45799256 .03538513 .37998963 .03538513 .30599977 .060409547 .2619934 .112472537 .20399475 .18052674 .17999268 .25260926 .17999268 .3405609 .17999268 .48339845 .23199463 .5653076 .26098634 .5942688 .3039856 .63623049 .36299134 .6502075 .42199708 .6502075 .5529938 .6502075 .59298709 .5563202 .60598757 .53034976L.6179962 .5293579 .6759949 .58628848C.6649933 .6032715 .6119995 .69921877 .46699525 .69921877 .3619995 .69921877 .25698854 .6682129 .18199158 .593277 .11199951 .5233612 .08999634 .4224701 .08999634 .32458497Z"/>
<path id="font_10_11" d="M.050994874 .049362184 .05899048 .038375856C.10998535 .0033874512 .17098999-.016601563 .23599243-.016601563 .31799317-.016601563 .397995 .008392334 .45700074 .05935669 .5039978 .10131836 .5349884 .15626526 .5349884 .21520996 .5349884 .25416566 .519989 .2911377 .48999024 .31811524 .46899415 .3360901 .44198609 .34709168 .41600038 .35508729 .3789978 .36608888 .34199525 .37109376 .30299378 .37408448V.38209535C.34999085 .39408876 .3939972 .41609193 .42900086 .44610597 .46499635 .47810365 .48199464 .52311709 .48199464 .5681305 .48199464 .60414126 .46798707 .6401367 .43899537 .6651459 .40699769 .6941376 .36099244 .70214846 .31698609 .70214846 .2849884 .70214846 .25498963 .69114688 .22599793 .67814639 .18598938 .6591339 .14698792 .63414 .11199951 .60813906L.12799073 .58613589C.1539917 .60113528 .17999268 .6151428 .20799256 .6261444 .22799683 .6331482 .24699402 .6391449 .2659912 .6391449 .2999878 .6391449 .33299256 .6321411 .35598756 .61112979 .37799073 .59213259 .3889923 .5671234 .3889923 .54011538 .3889923 .502121 .37199403 .46510316 .34098817 .43710328 .32299806 .4210968 .29899598 .40908814 .27398683 .39909364 .24198914 .38609315 .20698548 .37808229 .17298889 .37109376L.17199707 .34509278C.21398926 .34509278 .2559967 .34309388 .29699708 .3340912 .32499696 .32809449 .35299684 .31910707 .37298585 .30012513 .4059906 .26914979 .42900086 .22920227 .42900086 .18623352 .42900086 .14128113 .41299439 .095321658 .3769989 .06335449 .34599305 .036376954 .30599977 .023391724 .2639923 .023391724 .22299195 .023391724 .18499756 .041366579 .1559906 .067352298 .13798523 .08332825 .12399292 .10131836 .10998535 .121292117H.09899902L.050994874 .049362184Z"/>
<path id="font_10_4" d="M.11299133 .24990845C.11299133 .007904053 .1519928-.09008789 .18299866-.13310242 .21099854-.17008972 .25299073-.20809937 .30099488-.21209717V-.1880951C.2809906-.18409729 .25099183-.16809082 .23399353-.1481018 .21998596-.13209534 .16499329-.05809021 .16499329 .24990845 .16499329 .4618988 .19799805 .5659027 .21998596 .6128998 .23599243 .6469116 .2689972 .6769104 .30099488 .684906V.71191409C.2599945 .7049103 .21598816 .6729126 .19099427 .63790896 .1599884 .5919037 .11299133 .4748993 .11299133 .24990845Z"/>
<path id="font_10_5" d="M.051986696 .06642151C.06199646 .047409059 .07598877 .030395508 .09199524 .01638794 .12098694-.009613037 .16099549-.016601563 .19898987-.016601563 .2559967-.016601563 .31199647 .0023956299 .35099793 .044403078 .375 .06941223 .3869934 .10343933 .3869934 .13845825 .3869934 .1634674 .37298585 .18649292 .35499574 .20449829 .34098817 .21850586 .3039856 .24052429 .27198792 .25453187 .24299622 .26654054 .19999695 .2885437 .18798828 .30055238 .17298889 .31655885 .1619873 .3285675 .1619873 .35058595 .1619873 .3725891 .16899109 .39360047 .18499756 .4086151 .19999695 .42362977 .22200012 .43164063 .24398804 .43164063 .2639923 .43164063 .2849884 .42462159 .29599 .4066162 .30599977 .39060975 .30799867 .3715973 .30899049 .35359193L.32099916 .34657289 .37599183 .38360597C.375 .40560914 .3639984 .42662049 .34799195 .44163514 .32499696 .46263124 .29299928 .46662904 .2630005 .46662904 .21398926 .46662904 .16699219 .45063783 .1309967 .4176178 .10398865 .39360047 .08999634 .35858155 .08999634 .32356263 .08999634 .29154969 .10798645 .26353456 .1309967 .2425232 .1539917 .22250366 .18399048 .2084961 .21499634 .1954956 .24099732 .18447876 .2689972 .17248535 .28799439 .1534729 .30299378 .13845825 .31399537 .11845398 .31399537 .09744263 .31399537 .079422 .30499269 .062408449 .29299928 .04940796 .27799989 .03340149 .25099183 .021392823 .22898865 .021392823 .19898987 .021392823 .17199707 .03439331 .1499939 .055404664 .1269989 .076416019 .116989139 .10644531 .114990238 .13645935L.100997928 .13745117 .051986696 .06642151Z"/>
<path id="font_10_6" d="M.085998538-.1880951V-.21209717C.13398743-.20610047 .1789856-.17208863 .20698548-.13510132 .23799134-.09210205 .27598573 .007904053 .27598573 .24990845 .27598573 .50090029 .22399903 .5919037 .19299317 .63790896 .16799927 .6729126 .1269989 .7049103 .085998538 .71191409V.684906C.117996219 .6759033 .14898682 .6469116 .16499329 .6128998 .18699646 .5659027 .22399903 .48190309 .22399903 .24990845 .22399903-.099090579 .17199707-.13209534 .1579895-.1481018 .14099121-.16809082 .10598755-.18409729 .085998538-.1880951Z"/>
<path id="font_10_14" d="M.02999878 .19134522H.34999085L.35899354 .18232727C.35899354 .119262699 .35899354 .03616333 .35299684 .0011138916L.35899354-.0048828127 .44898988 .028152466C.44599916 .0501709 .44599916 .12927246 .44599916 .18333435L.45399476 .19134522H.5469971L.5649872 .22834778 .55999758 .23535156H.45399476L.44599916 .24433899C.44599916 .39926148 .44599916 .67111209 .44699098 .6980896L.43899537 .70410159 .35299684 .66911318 .02999878 .23535156V.19134522M.10398865 .24234009C.10398865 .264328 .19898987 .4022522 .24198914 .46122743 .2749939 .50619509 .30899049 .5521698 .34700013 .591156 .34999085 .5931549 .35499574 .5941467 .35798646 .591156 .35798646 .5901489 .35899354 .5871582 .35899354 .5851593V.24334717L.35198976 .23535156H.10899353L.10398865 .24234009Z"/>
<path id="font_10_12" d="M.051986696 .6781769 .052993776 .6591797C.07299805 .65216067 .10899353 .6411438 .11299133 .6401367 .12298584 .6361389 .125 .6251221 .12599182 .6161041 .1309967 .53297427 .13198853 .44985963 .13198853 .36676026 .13198853 .24482727 .13198853 .11590576 .12199402 .0029907227L.12799073-.0020141602 .21998596 .025970459C.21699524 .051956178 .21499634 .10292053 .21499634 .1798706V.33377076C.21499634 .34075929 .22099304 .34576417 .22799683 .34576417H.57099917C.5799866 .34576417 .58299258 .33876039 .58299258 .33377076 .58299258 .23683167 .5799866 .11790466 .5779877 .020980835L.58898928 0 .73799136 .0078125 .74398806 .013809204 .7429962 .031799318C.72499087 .03981018 .66600039 .03981018 .66600039 .07879639 .66600039 .09979248 .6619873 .24076844 .6619873 .32176209 .6619873 .5129547 .66999819 .64515689 .6729889 .6841736L.66799929 .6901703 .5799866 .673172C.5799866 .58706668 .58299258 .48291017 .58299258 .3967743 .58299258 .39076234 .58200076 .38476563 .57099917 .38476563H.22499085C.21499634 .38476563 .21299744 .3917694 .21299744 .3967743 .21299744 .4618683 .21699524 .54600527 .21899414 .61109927 .21998596 .63414 .22200012 .6581726 .22599793 .6801758L.22099304 .6851654H.05899048L.051986696 .6781769Z"/>
<path id="font_10_3" d="M.1349945 .6123047H.22898865C.25698854 .6123047 .27999879 .59129336 .2809906 .5662842 .28199769 .541275 .28199769 .46824647 .28199769 .41923524 .28199769 .27919007 .27799989 .13916016 .272995 .00010681152L.28599549-.0048828127 .3809967 .022125245C.37799073 .09814453 .37799073 .2962036 .37799073 .43223573 .37799073 .52127078 .37998963 .6112976 .38598634 .7003021L.3789978 .71229556 .1349945 .6392975V.6123047Z"/>
<path id="font_10_10" d="M.04499817 .001953125H.5379944L.56399539 .079940799 .5589905 .08795166H.20999146C.20399475 .08795166 .19799805 .08894348 .19599915 .092941287 .19499207 .094940189 .19599915 .09794617 .19699097 .09895325 .2539978 .1569519 .30799867 .21495056 .35899354 .27496339 .394989 .31697084 .42999269 .358963 .45799256 .40496827 .48799134 .4509735 .5119934 .49998475 .5119934 .5529938 .5119934 .59399417 .49899293 .6349945 .46499635 .66400149 .43199159 .69299319 .3880005 .7080078 .34199525 .7080078 .29899598 .7080078 .2579956 .6970062 .22099304 .67900088 .17599488 .65800479 .13699341 .6279907 .102996829 .59498599L.125 .57598879C.1519928 .59599307 .17799378 .61099246 .20999146 .6259918 .23098755 .6360016 .2559967 .6399994 .2809906 .6399994 .31399537 .6399994 .34700013 .6289978 .37098695 .6069946 .40098573 .5779877 .4079895 .5369873 .4079895 .50798037 .4079895 .4429779 .38198854 .38197328 .34298707 .3259735 .31098939 .27996827 .27198792 .23796082 .23199463 .19696045 .17199707 .13494873 .10899353 .07594299 .04499817 .017944336V.001953125Z"/>
<path id="font_10_7" d="M.04598999 .23046875H.70399478L.70999148 .27046205H.052993776L.04598999 .23046875Z"/>
<path id="font_10_8" d="M.033996583 .6733093 .035995485 .6533203C.037994386 .6533203 .07398987 .6443176 .09199524 .63931277 .12298584 .6313019 .125 .6222992 .125 .54229739 .125 .46427918 .12199402 .38627626 .12199402 .30825807 .12199402 .24723816 .12399292 .17323303 .12998963 .12721253 .1349945 .08821106 .1559906-.0087890629 .31399537-.0087890629 .39698792-.0087890629 .47698976 .02520752 .5469971 .07020569L.5549927 .064208988C.5549927 .048202516 .5549927 .032196046 .55599978 .016204834 .55799868 .0012054443 .57598879-.0047912599 .58799746-.0047912599 .61898806-.0047912599 .6899872 .016204834 .7409973 .032196046L.74598696 .03919983 .74198916 .05619812C.7220001 .05419922 .70399478 .048202516 .6839905 .048202516 .673996 .048202516 .6609955 .050201417 .6539917 .0592041 .6389923 .07620239 .6359863 .15222168 .6359863 .20223999 .6359863 .3642578 .6369934 .5733032 .6519928 .68733218L.6459961 .69433596 .55799868 .659317C.55599978 .47727967 .55400088 .2942505 .55400088 .11122131 .5 .079208377 .43998719 .052200319 .37799073 .052200319 .24598694 .052200319 .22399903 .13922119 .21598816 .16522217 .20599365 .19923401 .20199585 .23423767 .20199585 .26924134L.20999146 .54229739C.20999146 .55929568 .21598816 .6603241 .21798706 .67433169L.21099854 .6803131H.041992189L.033996583 .6733093Z"/>
<path id="font_10_9" d="M.022994996 .6513672C.036987306 .649353 .049987794 .6463623 .06298828 .6433563 .07199097 .6413574 .07998657 .6353607 .085998538 .62835696 .09599304 .61834719 .102996829 .60635378 .10899353 .5943451L.2579956 .29930116C.2579956 .19927979 .2579956 .0982666 .25498963-.0017547608L.2659912-.0107421879 .35598756 .018249512 .34700013 .30630494C.42999269 .4343109 .5039978 .5303345 .61499026 .675354L.61099246 .6933594 .526001 .6763611C.48999024 .619339 .4059906 .47431947 .397995 .46032716 .3849945 .4373169 .34199525 .36730958 .33898927 .3623047 .33599855 .3572998 .33198548 .353302 .32798768 .353302 .32199098 .353302 .31698609 .3592987 .31599427 .36131288L.1749878 .6863556H.02999878L.022994996 .67936709V.6513672Z"/>
</defs>
<use data-text="+" xlink:href="#font_10_1" transform="matrix(37.185197,0,0,-37.18505,384.70133,146.20343)"/>
<use data-text="G" xlink:href="#font_10_2" transform="matrix(21.519362,0,0,-21.519398,755.6176,142.0639)"/>
<use data-text="3" xlink:href="#font_10_11" transform="matrix(16.438399,0,0,-16.438426,772.0849,146.20047)"/>
<use data-text="(" xlink:href="#font_10_4" transform="matrix(21.519362,0,0,-21.519398,782.32748,142.0639)"/>
<use data-text="s" xlink:href="#font_10_5" transform="matrix(21.519362,0,0,-21.519398,791.8726,142.0639)"/>
<use data-text=")" xlink:href="#font_10_6" transform="matrix(21.519362,0,0,-21.519398,802.85958,142.0639)"/>
<use data-text="G" xlink:href="#font_10_2" transform="matrix(21.519343,0,0,-21.519398,926.2539,142.0639)"/>
<use data-text="4" xlink:href="#font_10_14" transform="matrix(16.438384,0,0,-16.438426,942.73757,146.23334)"/>
<use data-text="(" xlink:href="#font_10_4" transform="matrix(21.519343,0,0,-21.519398,952.9801,142.0639)"/>
<use data-text="s" xlink:href="#font_10_5" transform="matrix(21.519343,0,0,-21.519398,962.52517,142.0639)"/>
<use data-text=")" xlink:href="#font_10_6" transform="matrix(21.519343,0,0,-21.519398,973.5121,142.0639)"/>
<use data-text="H" xlink:href="#font_10_12" transform="matrix(21.51913,0,0,-21.519398,840.74618,234.4723)"/>
<use data-text="1" xlink:href="#font_10_3" transform="matrix(16.438221,0,0,-16.438426,857.60067,238.77327)"/>
<use data-text="(" xlink:href="#font_10_4" transform="matrix(21.51913,0,0,-21.519398,867.8431,234.4723)"/>
<use data-text="s" xlink:href="#font_10_5" transform="matrix(21.51913,0,0,-21.519398,877.3881,234.4723)"/>
<use data-text=")" xlink:href="#font_10_6" transform="matrix(21.51913,0,0,-21.519398,888.37496,234.4723)"/>
<use data-text="H" xlink:href="#font_10_12" transform="matrix(21.51913,0,0,-21.519398,498.97325,49.655519)"/>
<use data-text="2" xlink:href="#font_10_10" transform="matrix(16.438221,0,0,-16.438426,515.82778,53.890779)"/>
<use data-text="(" xlink:href="#font_10_4" transform="matrix(21.51913,0,0,-21.519398,526.0702,49.655519)"/>
<use data-text="s" xlink:href="#font_10_5" transform="matrix(21.51913,0,0,-21.519398,535.61526,49.655519)"/>
<use data-text=")" xlink:href="#font_10_6" transform="matrix(21.51913,0,0,-21.519398,546.60208,49.655519)"/>
<use data-text="H" xlink:href="#font_10_12" transform="matrix(21.51913,0,0,-21.519398,498.97325,326.88069)"/>
<use data-text="3" xlink:href="#font_10_11" transform="matrix(16.438221,0,0,-16.438426,515.82778,331.01725)"/>
<use data-text="(" xlink:href="#font_10_4" transform="matrix(21.51913,0,0,-21.519398,526.0702,326.88069)"/>
<use data-text="s" xlink:href="#font_10_5" transform="matrix(21.51913,0,0,-21.519398,535.61526,326.88069)"/>
<use data-text=")" xlink:href="#font_10_6" transform="matrix(21.51913,0,0,-21.519398,546.60208,326.88069)"/>
<path transform="matrix(1,0,0,-1,868.7349,136.68264)" stroke-width=".75" stroke-linecap="round" stroke-linejoin="round" fill="none" stroke="#000000" d="M-113.13026-24.898016C-112.879238-24.558238-113.87045-25.612912-114.01946-25.758275-94.46953-25.300959-76.401767-24.408802-58.464155-24.587439-42.371164-25.755078-42.68218-24.284245-42.670099-8.979496-42.762456-2.537436-42.4147 2.735338-43.461614 9.286601-42.33517 24.505496-41.91613 25.34758-56.73407 24.900496-75.61749 25.642228-93.69384 24.674408-112.524257 24.85833-127.22718 24.768532-128.56906 24.97472-128.62392 9.791531-127.49829 2.620704-128.64583-3.935543-127.63719-10.530077-127.249988-24.10339-128.15807-25.74269-113.13026-24.898016Z"/>
<path transform="matrix(1,0,0,-1,868.7349,136.68264)" stroke-width=".75" stroke-linecap="round" stroke-linejoin="round" fill="none" stroke="#000000" d="M56.95958-25.322527C57.177129-25.197615 58.324918-25.812523 56.79474-24.451096 75.31093-24.902716 95.13316-24.357174 113.150348-24.344655 127.72739-23.986439 128.892-24.2317 127.47388-9.312314 128.17073-2.868443 128.99974 2.476795 128.09699 9.230609 128.17958 24.411986 129.08074 25.774443 113.31539 24.097641 94.14782 25.038826 76.3307 24.59938 57.051156 24.593539 42.19334 24.62958 43.23681 24.381819 42.9409 10.267105 41.56467 2.5871 42.800313-2.538109 43.19507-10.899669 42.04049-24.693602 42.769247-24.633566 56.95958-25.322527Z"/>
<path transform="matrix(1,0,0,-1,868.7349,136.68264)" stroke-width=".75" stroke-linecap="round" stroke-linejoin="round" fill="none" stroke="#000000" d="M-27.30658-117.43989C-27.251603-116.409938-27.784512-117.384189-27.877423-117.687587-8.877771-117.50154 8.790194-117.767337 27.735592-117.39106 42.073755-117.290058 42.32975-116.79457 43.380647-101.872989 42.931909-96.649127 43.724924-88.301868 43.940359-82.67345 43.679979-66.63785 42.472829-66.88372 27.192704-67.12921 8.640967-68.19865-9.287349-66.69454-28.536578-67.55914-42.56076-66.70617-43.167528-67.033008-42.090295-82.160167-43.770715-89.59558-43.96014-96.20474-42.86979-102.8418-42.88204-116.98866-43.68318-117.58412-27.30658-117.43989Z"/>
<path transform="matrix(1,0,0,-1,868.7349,136.68264)" stroke-width=".75" stroke-linecap="round" stroke-linejoin="round" fill="none" stroke="#000000" d="M-370.64057 67.21008C-369.32518 68.1643-369.95228 66.958049-370.03843 67.87049-350.87669 67.785549-332.65647 67.247287-314.6181 67.225177-298.4107 67.16257-298.75083 66.92934-299.2252 82.96938-299.62559 88.50368-298.49699 95.12884-298.9147 102.52736-299.37828 116.71929-297.8074 118.05767-313.35414 116.4327-331.49449 117.23078-351.3902 116.94572-370.12785 116.385898-384.14204 117.53935-385.289 117.87936-384.16468 102.042308-384.45057 95.92451-384.81886 89.24054-383.81 82.30452-383.97935 68.26579-385.22837 67.9787-370.64057 67.21008Z"/>
<path transform="matrix(1,0,0,-1,868.7349,136.68264)" stroke-width=".75" stroke-linecap="round" stroke-linejoin="round" fill="none" stroke="#000000" d="M-370.24949-208.87487C-368.81858-209.98592-368.92869-210.36313-370.24714-209.61029-350.81703-209.36823-331.56706-209.72594-314.62696-208.98555-299.3718-209.41284-298.66087-210.67205-299.67887-194.0824-297.9325-188.58841-299.55256-180.82506-298.92729-175.41217-299.64073-160.77733-299.33177-160.14653-313.78263-160.4173-331.80464-160.75994-351.3197-159.14662-369.2571-159.39797-384.9221-160.0573-383.814-159.04451-384.40119-175.7477-385.3838-180.63657-385.2189-187.69907-385.50599-195.6917-383.90153-209.77036-384.41798-208.894-370.24949-208.87487Z"/>
<path transform="matrix(1,0,0,-1,868.7349,136.68264)" stroke-width=".75" stroke-linecap="round" stroke-linejoin="round" fill="none" stroke="#000000" d="M-448.25135 .16926C-447.49369 12.010245-458.72126 22.10496-469.74324 22.382439-482.4865 21.727904-491.38407 12.865738-492.28276 .047976-491.81846-11.04743-481.3864-22.494782-470.22047-22.590914-458.72917-22.204-448.41758-12.132591-448.25135 .16926Z"/>
<path transform="matrix(1,0,0,-1,868.7349,136.68264)" stroke-width=".75" stroke-linecap="round" stroke-linejoin="round" fill="none" stroke="#000000" d="M-42.418107 .353753C-14.196592 .393892 13.636794-.449446 42.321054 .113406"/>
<path transform="matrix(1,0,0,-1,868.7349,136.68264)" stroke-width=".75" stroke-linecap="round" stroke-linejoin="round" fill="none" stroke="#000000" d="M29.588204-7.776862C32.35971-4.168105 37.410436-.787733 42.23515-.143567 36.879037 .729144 32.31398 4.220196 29.654528 8.440442"/>
<path transform="matrix(1,0,0,-1,868.7349,136.68264)" stroke-width=".75" stroke-linecap="round" stroke-linejoin="round" fill="none" stroke="#000000" d="M128.52605 .217985C156.88358-.28385 185.18743 .395095 212.98647-.396116"/>
<path transform="matrix(1,0,0,-1,868.7349,136.68264)" stroke-width=".75" stroke-linecap="round" stroke-linejoin="round" fill="none" stroke="#000000" d="M200.31969-7.878974C203.91689-4.434785 208.15479-1.044485 213.59116-.31598 207.84349 1.256093 203.68407 3.767643 200.85709 8.318933"/>
<path transform="matrix(1,0,0,-1,868.7349,136.68264)" stroke-width=".75" stroke-linecap="round" stroke-linejoin="round" fill="none" stroke="#000000" d="M-384.89787 92.248798C-412.9375 91.98943-441.84193 92.30714-470.1134 92.69886-470.26966 68.90478-469.7584 45.26743-469.85429 22.315506"/>
<path transform="matrix(1,0,0,-1,868.7349,136.68264)" stroke-width=".75" stroke-linecap="round" stroke-linejoin="round" fill="none" stroke="#000000" d="M-478.3706 34.9544C-474.07789 31.44091-471.56394 26.739247-470.10768 22.038887-469.26869 27.260636-466.34034 31.617476-462.08424 34.35539"/>
<path transform="matrix(1,0,0,-1,868.7349,136.68264)" stroke-width=".75" stroke-linecap="round" stroke-linejoin="round" fill="none" stroke="#000000" d="M170.30747-.057233C170.60582-30.73057 170.2375-62.048666 170.41962-92.62272 127.87937-92.60217 85.5699-92.57239 42.711519-92.425319"/>
<path transform="matrix(1,0,0,-1,868.7349,136.68264)" stroke-width=".75" stroke-linecap="round" stroke-linejoin="round" fill="none" stroke="#000000" d="M55.254629-84.50456C52.245843-87.98504 47.193727-91.65348 42.718416-92.25615 47.858076-93.984508 52.084829-96.27031 55.31524-100.525218"/>
<path transform="matrix(1,0,0,-1,868.7349,136.68264)" stroke-width=".75" stroke-linecap="round" stroke-linejoin="round" fill="none" stroke="#000000" d="M170.4334 .190549C170.72743-61.830839 170.33695-123.54196 170.5476-184.83725 13.895465-184.55074-142.52503-184.67755-298.7796-184.68103"/>
<path transform="matrix(1,0,0,-1,868.7349,136.68264)" stroke-width=".75" stroke-linecap="round" stroke-linejoin="round" fill="none" stroke="#000000" d="M-286.49818-177.15697C-289.9678-180.84268-294.01295-183.65206-299.15226-185.2206-293.71726-186.14691-289.41178-189.17469-286.3328-192.78401"/>
<path transform="matrix(1,0,0,-1,868.7349,136.68264)" stroke-width=".75" stroke-linecap="round" stroke-linejoin="round" fill="none" stroke="#000000" d="M-112.97007-25.686C-113.733058-25.86278-112.79966-24.350413-112.83561-24.249928-95.09081-24.21029-75.22697-24.075367-56.996454-24.58948-42.156244-24.09321-42.557138-25.1002-42.9648-9.022328-41.782323-3.709535-42.867738 2.614101-43.45603 9.495471-41.982988 24.468365-42.195787 24.500184-58.000955 24.192206-76.16888 25.678988-94.60479 25.578009-112.35187 25.10187-128.78128 24.121586-128.1352 25.378565-128.26802 10.453874-127.888118 4.061178-127.74129-4.112601-128.33043-9.17211-127.92635-25.754309-128.08306-25.604828-112.97007-25.686Z"/>
<path transform="matrix(1,0,0,-1,868.7349,136.68264)" stroke-width=".75" stroke-linecap="round" stroke-linejoin="round" fill="none" stroke="#000000" d="M57.39004-25.382689C57.616369-25.358164 56.689077-25.468525 58.34354-25.367728 76.14652-25.284333 95.57057-24.741324 113.37947-25.408589 127.85027-24.01246 128.92424-24.703568 128.3752-9.270925 128.78646-2.404752 127.45708 2.429046 128.44918 10.679121 127.59486 25.810364 127.868999 25.261588 113.95033 25.156765 94.49763 25.27704 76.551189 24.040274 57.6308 25.067387 42.96579 25.16795 41.764268 23.98044 41.557565 10.131792 42.04864 3.902065 41.577444-3.313982 43.05306-10.135556 42.27622-25.521733 42.85619-25.828335 57.39004-25.382689Z"/>
<path transform="matrix(1,0,0,-1,868.7349,136.68264)" stroke-width=".75" stroke-linecap="round" stroke-linejoin="round" fill="none" stroke="#000000" d="M-27.026503-118.03097C-27.151412-116.683849-28.906638-117.7496-27.373496-118.27709-8.382953-116.7779 9.233626-118.24185 28.55326-116.82986 43.148004-118.13527 43.34196-116.89908 42.663167-101.64179 43.22827-95.99167 42.940404-89.352909 42.263925-83.19599 43.296255-67.01946 42.198915-68.22866 28.081006-67.72829 9.317197-66.88272-9.869443-67.85891-28.933524-67.42436-43.383955-66.92417-43.8042-67.40405-43.79929-82.75339-43.52478-89.99527-43.432725-96.64417-43.952177-101.770168-42.16843-117.69604-43.439897-117.50751-27.026503-118.03097Z"/>
<path transform="matrix(1,0,0,-1,868.7349,136.68264)" stroke-width=".75" stroke-linecap="round" stroke-linejoin="round" fill="none" stroke="#000000" d="M-369.4274 67.34584C-369.58149 66.68075-368.88133 67.78335-369.05958 68.07895-351.24845 66.80201-333.16725 68.21926-313.27174 67.47362-298.3637 67.746547-298.18867 67.44185-299.65956 82.31848-299.51097 88.36202-298.74824 95.19052-299.43687 101.40442-298.50474 116.62465-299.34626 118.247028-313.33323 116.71319-333.348 117.9185-351.01713 116.49684-369.61689 117.406528-384.10966 117.20212-385.10694 117.63249-384.86216 102.06142-384.89225 95.019649-384.83683 89.77529-385.46473 82.308429-385.48185 68.101367-384.14109 66.85795-369.4274 67.34584Z"/>
<path transform="matrix(1,0,0,-1,868.7349,136.68264)" stroke-width=".75" stroke-linecap="round" stroke-linejoin="round" fill="none" stroke="#000000" d="M-368.82234-210.59993C-369.62953-209.42455-370.06745-209.66542-369.1306-209.16728-351.60047-210.73288-332.14363-210.0579-313.25526-210.61525-298.6262-209.7028-299.13069-209.56208-298.19029-195.52838-298.07844-187.8713-298.8762-181.4886-298.87867-174.8074-298.27928-159.68068-298.62394-158.94139-312.814-160.61492-333.27799-160.3003-350.64823-160.18202-369.75004-159.01932-383.9266-159.12929-384.61903-159.93025-385.2191-175.34682-385.1658-182.14809-384.16816-187.96558-384.21977-195.44838-384.41194-209.30054-385.08314-209.94147-368.82234-210.59993Z"/>
<path transform="matrix(1,0,0,-1,868.7349,136.68264)" stroke-width=".75" stroke-linecap="round" stroke-linejoin="round" fill="none" stroke="#000000" d="M-448.2633-.366142C-448.40333 11.916228-457.4932 22.561608-470.41276 20.693232-481.88493 21.120236-492.31123 11.507465-491.7625 .299208-491.42658-12.685648-481.5701-21.739716-469.3684-20.674115-458.46495-22.219775-447.69197-11.117245-448.2633-.366142Z"/>
<path transform="matrix(1,0,0,-1,868.7349,136.68264)" stroke-width=".75" stroke-linecap="round" stroke-linejoin="round" fill="none" stroke="#000000" d="M-42.85571 .105409C-14.602463 .288728 13.659682 .237099 41.74285-.37168"/>
<path transform="matrix(1,0,0,-1,868.7349,136.68264)" stroke-width=".75" stroke-linecap="round" stroke-linejoin="round" fill="none" stroke="#000000" d="M29.108855-8.246816C32.94783-3.628261 37.141927-.854956 41.97529 .407282 36.898996 1.364065 33.063089 3.914842 29.89871 8.442965"/>
<path transform="matrix(1,0,0,-1,868.7349,136.68264)" stroke-width=".75" stroke-linecap="round" stroke-linejoin="round" fill="none" stroke="#000000" d="M128.25032-.401552C156.85579 .264306 184.76224-.145622 213.20362 .364368"/>
<path transform="matrix(1,0,0,-1,868.7349,136.68264)" stroke-width=".75" stroke-linecap="round" stroke-linejoin="round" fill="none" stroke="#000000" d="M200.11624-7.949489C203.48546-3.76347 208.02576-.927611 213.54302 .207735 207.71828 .987147 204.08779 3.99817 200.8214 7.634961"/>
<path transform="matrix(1,0,0,-1,868.7349,136.68264)" stroke-width=".75" stroke-linecap="round" stroke-linejoin="round" fill="none" stroke="#000000" d="M-384.7903 92.258869C-413.30415 92.79531-441.98289 92.45491-469.75599 92.56034-469.66615 68.69548-469.91065 45.216585-469.62196 21.722247"/>
<path transform="matrix(1,0,0,-1,868.7349,136.68264)" stroke-width=".75" stroke-linecap="round" stroke-linejoin="round" fill="none" stroke="#000000" d="M-477.63197 34.764997C-473.62776 31.458422-471.57139 27.382422-469.9273 21.612776-469.1385 27.135382-465.8845 31.098008-462.25996 35.01755"/>
<path transform="matrix(1,0,0,-1,868.7349,136.68264)" stroke-width=".75" stroke-linecap="round" stroke-linejoin="round" fill="none" stroke="#000000" d="M170.50885 .24595C170.5606-31.205163 171.07625-61.551214 170.25443-92.57041 128.18947-92.29781 85.42445-92.649608 42.54423-92.24878"/>
<path transform="matrix(1,0,0,-1,868.7349,136.68264)" stroke-width=".75" stroke-linecap="round" stroke-linejoin="round" fill="none" stroke="#000000" d="M55.650419-84.55688C51.888654-88.61629 47.634546-91.54539 42.647779-92.159229 47.559988-93.6638 51.901945-96.03865 55.531114-100.73004"/>
<path transform="matrix(1,0,0,-1,868.7349,136.68264)" stroke-width=".75" stroke-linecap="round" stroke-linejoin="round" fill="none" stroke="#000000" d="M170.9613-.187238C170.61484-61.580125 171.10285-123.2556 170.29302-184.57624 14.162897-184.4179-142.63109-184.84844-299.27018-184.91597"/>
<path transform="matrix(1,0,0,-1,868.7349,136.68264)" stroke-width=".75" stroke-linecap="round" stroke-linejoin="round" fill="none" stroke="#000000" d="M-286.70976-176.31586C-289.82609-180.99205-294.41593-183.72698-298.96815-185.00737-294.49403-186.03945-289.4962-189.09485-286.18403-192.44898"/>
<path transform="matrix(1,0,0,-1,868.7349,136.68264)" stroke-width=".75" stroke-linecap="round" stroke-linejoin="round" fill="none" stroke="#000000" d="M-113.219409-25.703673C-112.37007-24.51209-113.4786-25.608838-112.48736-24.573605-94.250339-24.241164-75.99496-24.876126-57.080568-24.478688-41.974699-24.618147-43.314699-24.21678-42.838167-10.401304-42.93156-3.794326-42.63275 4.184801-43.24061 9.456373-43.204866 24.176663-42.642187 25.77257-57.839136 24.256918-75.499828 24.573412-94.18951 25.572247-113.672359 24.120949-128.73024 24.124743-129.00995 23.992373-128.9459 9.795127-128.39554 3.412295-128.20085-2.411697-128.69263-10.108301-127.835918-25.480183-127.69514-24.696717-113.219409-25.703673Z"/>
<path transform="matrix(1,0,0,-1,868.7349,136.68264)" stroke-width=".75" stroke-linecap="round" stroke-linejoin="round" fill="none" stroke="#000000" d="M57.213499-25.883332C57.1697-25.411976 58.44546-25.138415 57.19952-24.098542 75.28233-24.732716 94.553089-24.507975 113.73152-25.619645 128.63678-25.84252 127.331-24.467303 127.77486-9.366097 128.97208-3.713298 128.15232 2.809964 128.80113 10.016604 128.6148 24.953694 128.8694 24.116074 113.87576 25.693566 94.74769 25.313269 75.476238 25.639569 56.58119 25.569596 42.0767 25.538958 41.655305 25.137337 42.3764 10.341934 43.395708 2.495728 41.922605-3.480662 42.403444-9.861252 42.5387-25.495289 41.76427-25.391194 57.213499-25.883332Z"/>
<path transform="matrix(1,0,0,-1,868.7349,136.68264)" stroke-width=".75" stroke-linecap="round" stroke-linejoin="round" fill="none" stroke="#000000" d="M-27.084893-117.21401C-28.159188-117.8063-27.137515-118.28041-27.971478-118.22095-8.903676-117.78148 10.299057-117.96602 27.147826-116.70445 42.328638-117.87056 43.5331-117.74216 42.236967-103.1391 43.517545-96.34702 43.464159-88.26598 42.328786-83.38877 43.846986-66.92894 43.411817-67.5055 27.882769-67.32036 10.232686-67.778049-9.548849-67.14809-28.646245-67.85041-43.833158-67.42058-42.01445-66.94753-42.674367-82.700679-42.191076-89.37221-42.829675-95.56655-43.54401-101.62567-43.600294-117.54545-43.71196-118.10321-27.084893-117.21401Z"/>
<path transform="matrix(1,0,0,-1,868.7349,136.68264)" stroke-width=".75" stroke-linecap="round" stroke-linejoin="round" fill="none" stroke="#000000" d="M-370.6608 66.544017C-370.2951 67.255748-369.16136 67.2944-368.81666 66.92725-350.3159 67.65455-331.703 66.730609-313.0988 67.71878-298.7096 67.73125-299.39085 67.06451-297.9676 83.10378-297.9161 89.98461-298.28706 96.13433-298.32185 101.381008-298.89524 117.75013-299.04216 118.0296-313.01353 116.83096-332.56355 116.485408-350.88374 117.542728-370.542 117.734668-384.5651 117.00621-384.1749 117.72555-384.9726 101.80324-383.9565 96.32068-385.18235 88.82945-384.21299 81.689067-384.25114 68.12741-384.57319 67.64708-370.6608 66.544017Z"/>
<path transform="matrix(1,0,0,-1,868.7349,136.68264)" stroke-width=".75" stroke-linecap="round" stroke-linejoin="round" fill="none" stroke="#000000" d="M-370.33647-210.01128C-368.85914-208.79424-369.5057-210.01317-369.61885-210.41033-350.89167-210.50405-332.64747-209.10811-313.3748-209.99391-298.88755-210.37397-298.1715-209.70626-298.55448-194.38602-299.07087-188.01619-298.27015-181.14531-297.8112-174.45815-298.09153-160.08286-298.6342-160.67815-313.5465-160.09952-332.02555-160.7566-350.61457-159.74164-368.90589-159.92205-385.24818-159.14624-383.8418-158.96695-385.33717-174.11237-384.4809-181.35465-384.1236-188.97327-385.04197-194.65917-383.9537-209.41944-385.19367-209.76958-370.33647-210.01128Z"/>
<path transform="matrix(1,0,0,-1,868.7349,136.68264)" stroke-width=".75" stroke-linecap="round" stroke-linejoin="round" fill="none" stroke="#000000" d="M-449.09443 .738813C-448.58247 12.555145-457.872 21.119542-469.45323 21.277859-482.10615 22.132405-491.07505 11.898612-490.73353 .107862-492.48725-12.354072-481.79389-20.923249-470.0562-22.226376-457.1263-20.932108-447.67494-12.848068-449.09443 .738813Z"/>
<path transform="matrix(1,0,0,-1,868.7349,136.68264)" stroke-width=".75" stroke-linecap="round" stroke-linejoin="round" fill="none" stroke="#000000" d="M-42.78323-.258797C-14.541899 .225102 14.194965-.115396 42.144628-.233423"/>
<path transform="matrix(1,0,0,-1,868.7349,136.68264)" stroke-width=".75" stroke-linecap="round" stroke-linejoin="round" fill="none" stroke="#000000" d="M29.87058-7.7736C32.658655-3.698726 37.18096-1.33288 42.462598-.211965 36.821508 1.55898 32.60995 4.035793 29.7832 8.121049"/>
<path transform="matrix(1,0,0,-1,868.7349,136.68264)" stroke-width=".75" stroke-linecap="round" stroke-linejoin="round" fill="none" stroke="#000000" d="M127.74256 .441697C156.44005 .184862 185.24388 .34121 213.1464 .330903"/>
<path transform="matrix(1,0,0,-1,868.7349,136.68264)" stroke-width=".75" stroke-linecap="round" stroke-linejoin="round" fill="none" stroke="#000000" d="M200.1253-7.669835C203.81468-3.83386 208.1704-1.47074 212.75409-.445337 208.54436 1.414716 203.32962 4.221901 200.8271 7.711834"/>
<path transform="matrix(1,0,0,-1,868.7349,136.68264)" stroke-width=".75" stroke-linecap="round" stroke-linejoin="round" fill="none" stroke="#000000" d="M-384.3491 92.84677C-413.2959 92.386157-441.4645 92.216-470.0555 92.085887-470.32365 68.60291-469.9831 45.469549-470.09535 21.59398"/>
<path transform="matrix(1,0,0,-1,868.7349,136.68264)" stroke-width=".75" stroke-linecap="round" stroke-linejoin="round" fill="none" stroke="#000000" d="M-477.86125 34.787355C-473.6033 31.697529-470.86497 27.229632-469.66685 22.314929-468.78538 27.28238-466.09614 31.680373-461.7907 35.032758"/>
<path transform="matrix(1,0,0,-1,868.7349,136.68264)" stroke-width=".75" stroke-linecap="round" stroke-linejoin="round" fill="none" stroke="#000000" d="M170.86348 .082173C170.35935-31.02962 170.37023-61.68284 170.53629-92.02783 128.33518-92.72076 85.52255-92.667278 42.896459-92.51147"/>
<path transform="matrix(1,0,0,-1,868.7349,136.68264)" stroke-width=".75" stroke-linecap="round" stroke-linejoin="round" fill="none" stroke="#000000" d="M54.830236-84.028728C51.89178-88.81492 48.041814-91.15973 42.648923-92.06436 47.83604-93.51307 52.02242-96.26918 55.443395-100.60539"/>
<path transform="matrix(1,0,0,-1,868.7349,136.68264)" stroke-width=".75" stroke-linecap="round" stroke-linejoin="round" fill="none" stroke="#000000" d="M170.75975 .082001C170.2577-61.428934 171.01728-123.268619 171.02809-184.98389 14.064983-184.9347-142.27951-184.81688-299.12873-184.86841"/>
<path transform="matrix(1,0,0,-1,868.7349,136.68264)" stroke-width=".75" stroke-linecap="round" stroke-linejoin="round" fill="none" stroke="#000000" d="M-286.81694-176.7612C-289.928-180.51819-293.8607-183.90149-299.30244-184.51734-294.53465-185.8901-289.9713-188.51084-286.22737-192.77022"/>
<path transform="matrix(1,0,0,-1,868.7349,136.68264)" stroke-width=".75" stroke-linecap="round" stroke-linejoin="round" fill="none" stroke="#000000" d="M-113.69458-25.84635C-113.21489-24.992568-112.4406-24.426564-112.77874-24.377736-94.807369-24.082592-75.53108-24.785977-58.18775-24.49012-42.545156-25.708786-42.642827-24.613465-43.335115-10.705569-43.272294-3.69381-42.757898 2.98151-41.67096 10.641152-41.7728 25.879683-42.53415 24.622668-57.630018 24.357245-76.20167 24.07087-94.37189 24.196148-113.694408 24.6214-127.79292 25.871113-128.30025 24.350247-128.44289 10.3683-127.29459 3.671239-128.62804-3.368049-128.50514-9.779349-127.72481-23.975607-127.75288-24.446244-113.69458-25.84635Z"/>
<path transform="matrix(1,0,0,-1,868.7349,136.68264)" stroke-width=".75" stroke-linecap="round" stroke-linejoin="round" fill="none" stroke="#000000" d="M58.39859-24.456816C56.56971-24.623078 57.08987-24.131886 56.579919-24.333165 75.35754-24.355059 94.22011-25.523467 113.52134-24.509495 127.79405-24.192156 127.44045-24.310757 128.01715-8.991761 127.16729-4.150141 127.31807 3.154299 127.5023 10.574764 127.58392 25.842709 128.10759 24.134896 113.10841 24.106295 94.28852 25.642413 75.22436 25.737339 58.185949 25.807444 42.808889 25.669648 41.55282 25.474394 42.158338 10.754615 42.7087 3.221479 42.907365-4.085301 41.95605-10.711817 41.60842-24.864298 43.087198-25.665488 58.39859-24.456816Z"/>
<path transform="matrix(1,0,0,-1,868.7349,136.68264)" stroke-width=".75" stroke-linecap="round" stroke-linejoin="round" fill="none" stroke="#000000" d="M-28.924069-117.30113C-27.856339-117.94866-27.32151-117.81073-27.163569-117.51788-9.826946-117.7713 10.251085-118.14036 27.879925-117.27866 42.43084-117.29522 42.72104-118.31553 43.084348-102.42359 43.06205-95.84533 43.688097-88.378589 42.93214-81.71443 42.543275-68.222309 42.870817-67.29733 28.719347-67.377979 8.827694-67.8498-9.222085-66.88151-28.177056-67.77693-42.68247-67.09002-42.991746-67.37555-42.168439-81.95659-42.877569-88.25072-42.1289-96.60303-42.477945-102.01746-42.84249-117.09975-43.93431-117.110279-28.924069-117.30113Z"/>
<path transform="matrix(1,0,0,-1,868.7349,136.68264)" stroke-width=".75" stroke-linecap="round" stroke-linejoin="round" fill="none" stroke="#000000" d="M-370.20979 67.6304C-369.60264 67.31717-369.28794 67.11193-369.70033 68.314899-350.7247 67.257167-332.58137 66.70582-313.97724 67.29953-299.4469 67.40321-299.00837 67.00014-299.31788 83.38505-297.83164 89.78075-298.84107 95.08227-299.0447 101.81938-299.0152 117.725238-299.13157 118.15343-313.8956 117.82848-331.7687 116.62286-350.4759 117.12055-369.5315 117.13526-385.73439 117.2857-384.0819 116.76813-384.6017 102.32828-384.32829 95.19963-385.05574 89.79206-383.98423 82.04112-383.95167 67.14799-384.07508 66.76549-370.20979 67.6304Z"/>
<path transform="matrix(1,0,0,-1,868.7349,136.68264)" stroke-width=".75" stroke-linecap="round" stroke-linejoin="round" fill="none" stroke="#000000" d="M-369.30894-210.2772C-369.43128-209.50266-370.32426-210.6797-369.43363-209.34127-351.25746-209.99802-331.56913-209.29955-313.33845-209.72826-298.73634-210.31603-298.68534-209.87346-298.2987-194.94976-298.96104-187.91352-299.13768-181.84123-298.95967-175.55844-298.07798-160.13344-299.04298-160.01824-313.47453-160.8479-332.72685-160.547-351.12388-160.70865-370.0051-160.35746-385.5572-159.19174-384.5613-160.59383-384.77928-174.65848-385.35569-181.03264-383.92143-188.1704-385.29508-194.22022-385.55345-210.32242-384.04893-209.88999-369.30894-210.2772Z"/>
<path transform="matrix(1,0,0,-1,868.7349,136.68264)" stroke-width=".75" stroke-linecap="round" stroke-linejoin="round" fill="none" stroke="#000000" d="M-448.1409 .633973C-447.47093 11.897731-457.2204 21.648467-469.35688 22.146513-482.67829 21.713198-492.6017 11.95645-491.461-.483055-491.8254-11.197088-482.86976-22.31784-470.76383-21.493996-458.1786-20.774804-449.20887-11.165339-448.1409 .633973Z"/>
<path transform="matrix(1,0,0,-1,868.7349,136.68264)" stroke-width=".75" stroke-linecap="round" stroke-linejoin="round" fill="none" stroke="#000000" d="M-42.71725 .329489C-14.553539-.090138 14.192668-.21601 42.429368 .373538"/>
<path transform="matrix(1,0,0,-1,868.7349,136.68264)" stroke-width=".75" stroke-linecap="round" stroke-linejoin="round" fill="none" stroke="#000000" d="M29.670338-8.224946C32.73684-3.822377 36.814626-.911715 42.27833-.270063 37.48183 1.555002 32.64605 3.991453 29.56261 7.761933"/>
<path transform="matrix(1,0,0,-1,868.7349,136.68264)" stroke-width=".75" stroke-linecap="round" stroke-linejoin="round" fill="none" stroke="#000000" d="M128.2781-.299891C156.64359 .08431 184.94944 .364877 213.56349-.357003"/>
<path transform="matrix(1,0,0,-1,868.7349,136.68264)" stroke-width=".75" stroke-linecap="round" stroke-linejoin="round" fill="none" stroke="#000000" d="M200.65528-8.5018C203.57775-4.379277 208.27294-.885999 212.77324-.440935 208.15125 .886604 203.54709 4.369039 200.85918 7.96556"/>
<path transform="matrix(1,0,0,-1,868.7349,136.68264)" stroke-width=".75" stroke-linecap="round" stroke-linejoin="round" fill="none" stroke="#000000" d="M-384.71607 92.49207C-412.7535 92.76448-441.37846 92.26107-470.3433 92.54547-470.37385 68.8205-470.2919 45.844705-470.02607 22.348587"/>
<path transform="matrix(1,0,0,-1,868.7349,136.68264)" stroke-width=".75" stroke-linecap="round" stroke-linejoin="round" fill="none" stroke="#000000" d="M-477.80259 35.102014C-474.15898 31.082266-470.96266 26.69525-470.06333 22.018475-469.2712 26.822487-466.3126 31.570872-461.90629 35.02871"/>
<path transform="matrix(1,0,0,-1,868.7349,136.68264)" stroke-width=".75" stroke-linecap="round" stroke-linejoin="round" fill="none" stroke="#000000" d="M170.8907 .146082C170.68479-30.809287 170.33089-61.508066 170.65625-92.28563 128.03913-92.514598 85.088848-92.613 42.834947-92.369579"/>
<path transform="matrix(1,0,0,-1,868.7349,136.68264)" stroke-width=".75" stroke-linecap="round" stroke-linejoin="round" fill="none" stroke="#000000" d="M55.36894-83.98897C52.149019-88.093 47.976156-90.977039 42.282457-92.347667 47.563497-93.202999 52.450658-96.41275 55.012918-100.03174"/>
<path transform="matrix(1,0,0,-1,868.7349,136.68264)" stroke-width=".75" stroke-linecap="round" stroke-linejoin="round" fill="none" stroke="#000000" d="M170.36029-.423716C170.70978-61.166337 170.92812-123.12745 170.3867-184.92177 14.141425-185.18589-142.47919-184.44242-299.32518-184.76415"/>
<path transform="matrix(1,0,0,-1,868.7349,136.68264)" stroke-width=".75" stroke-linecap="round" stroke-linejoin="round" fill="none" stroke="#000000" d="M-286.51567-177.13213C-289.59965-180.42552-294.29057-183.89504-299.2712-185.08264-294.5153-186.07649-289.45503-188.69527-286.14955-193.31143"/>
<path transform="matrix(1,0,0,-1,868.7349,136.68264)" stroke-width=".75" stroke-linecap="round" stroke-linejoin="round" fill="none" stroke="#000000" d="M-112.53959-24.238757C-112.87836-25.80363-112.73214-24.856856-112.828929-25.609017-93.73926-25.227826-76.770328-24.320775-58.210474-25.424597-41.57056-23.982626-43.140455-25.138562-43.07869-9.11429-42.3588-2.618613-42.852865 3.611946-43.258485 10.612635-41.7482 24.552697-42.343866 25.695448-56.681978 24.98192-76.84275 25.067852-93.7948 25.148995-113.6079 24.199736-127.951328 25.738986-128.1243 25.359147-127.18235 9.430008-127.69605 3.098752-127.34993-2.648483-127.52565-9.685312-128.25348-25.194138-128.99979-25.87212-112.53959-24.238757Z"/>
<path transform="matrix(1,0,0,-1,868.7349,136.68264)" stroke-width=".75" stroke-linecap="round" stroke-linejoin="round" fill="none" stroke="#000000" d="M56.897848-24.997828C57.924417-24.55394 57.04658-25.245265 57.141477-24.502335 75.934078-25.293894 93.88005-24.886195 113.67571-24.119269 127.49154-24.363232 128.97418-25.096278 128.93587-10.165391 128.33428-2.878771 127.54001 4.035594 128.21738 9.62696 128.43592 24.45594 128.09404 25.18419 112.51126 24.694775 94.42943 24.213496 76.27432 25.096959 57.766515 25.4273 41.626867 25.301398 41.80409 24.711987 43.447008 9.984522 43.312524 3.616769 43.38886-2.723254 42.234605-10.637291 41.728834-24.423062 43.26916-24.629685 56.897848-24.997828Z"/>
<path transform="matrix(1,0,0,-1,868.7349,136.68264)" stroke-width=".75" stroke-linecap="round" stroke-linejoin="round" fill="none" stroke="#000000" d="M-28.265395-117.14764C-27.106373-118.08466-27.816599-117.564479-27.443713-116.38803-9.098408-117.23902 9.371789-117.62878 27.126572-116.51101 43.36481-116.381137 43.063676-117.64784 42.050756-103.068 42.373994-96.40336 43.5322-89.90596 42.420457-82.21981 42.525865-66.65968 43.694726-66.85428 28.549794-68.247577 8.710785-67.61936-8.358712-66.61266-27.41738-67.45392-43.073999-68.22908-42.642389-67.57793-43.052869-83.13091-42.80478-88.235759-42.343168-95.3611-43.287244-102.67223-42.181039-117.50729-42.23538-116.68226-28.265395-117.14764Z"/>
<path transform="matrix(1,0,0,-1,868.7349,136.68264)" stroke-width=".75" stroke-linecap="round" stroke-linejoin="round" fill="none" stroke="#000000" d="M-370.1649 67.52952C-369.01399 67.45669-370.17137 66.54141-369.65904 68.14454-350.78718 66.529727-331.61537 67.948398-312.8662 66.6248-299.5385 66.62261-298.60169 66.64498-298.58348 83.26188-299.43336 89.558017-299.0911 94.82865-298.74873 101.42442-299.70457 116.70415-298.30335 116.9061-313.46958 117.60588-332.1351 116.96337-350.21604 117.2476-369.2407 117.29801-385.2 118.29433-384.46263 116.73573-384.3281 102.26939-384.14945 95.76071-383.90834 89.11704-384.18684 83.39873-384.0842 67.17706-384.96858 67.76089-370.1649 67.52952Z"/>
<path transform="matrix(1,0,0,-1,868.7349,136.68264)" stroke-width=".75" stroke-linecap="round" stroke-linejoin="round" fill="none" stroke="#000000" d="M-370.01-210.5925C-370.11927-208.83757-370.6876-210.24843-368.82167-210.21183-350.94657-209.87657-331.97865-209.1848-314.6604-209.29291-298.97148-209.24408-298.28868-210.59188-298.08644-194.0965-299.65119-187.35449-298.2476-182.46242-299.6643-174.72637-298.95265-160.14009-298.18116-159.46349-314.02146-160.68836-333.22013-160.46553-351.3542-159.87381-369.95536-160.8245-385.6165-160.72507-385.44807-159.49045-385.18028-174.91097-385.403-180.73123-385.40803-187.70093-385.60517-194.78148-384.99369-210.70775-383.96849-209.04369-370.01-210.5925Z"/>
<path transform="matrix(1,0,0,-1,868.7349,136.68264)" stroke-width=".75" stroke-linecap="round" stroke-linejoin="round" fill="none" stroke="#000000" d="M-447.55717 .702219C-448.53489 12.186906-458.91697 20.719613-469.5415 22.234856-482.867 21.252984-491.28123 11.27747-492.4106 .350756-492.04774-11.008967-481.96824-22.34428-469.1988-22.007283-458.31486-20.96057-447.63685-11.938764-447.55717 .702219Z"/>
<path transform="matrix(1,0,0,-1,868.7349,136.68264)" stroke-width=".75" stroke-linecap="round" stroke-linejoin="round" fill="none" stroke="#000000" d="M-42.350297 .004322C-14.365308 .191409 14.164123-.308424 42.525445-.05685"/>
<path transform="matrix(1,0,0,-1,868.7349,136.68264)" stroke-width=".75" stroke-linecap="round" stroke-linejoin="round" fill="none" stroke="#000000" d="M29.76467-8.079559C32.601827-3.596751 37.13529-.92649 41.88481-.084479 36.863939 1.273152 33.11194 4.147509 29.825022 7.652575"/>
<path transform="matrix(1,0,0,-1,868.7349,136.68264)" stroke-width=".75" stroke-linecap="round" stroke-linejoin="round" fill="none" stroke="#000000" d="M127.92493 .012168C156.61992-.225997 184.443 .402435 213.0607-.252154"/>
<path transform="matrix(1,0,0,-1,868.7349,136.68264)" stroke-width=".75" stroke-linecap="round" stroke-linejoin="round" fill="none" stroke="#000000" d="M200.20949-7.730229C203.39904-4.205466 208.06792-1.389792 213.21964-.429277 208.38434 .97164 204.12999 3.708241 200.22008 8.026212"/>
<path transform="matrix(1,0,0,-1,868.7349,136.68264)" stroke-width=".75" stroke-linecap="round" stroke-linejoin="round" fill="none" stroke="#000000" d="M-384.7267 92.6302C-412.87657 92.73492-441.65007 92.38432-469.7424 91.9804-470.35536 69.04494-469.99983 45.43528-469.76493 22.003756"/>
<path transform="matrix(1,0,0,-1,868.7349,136.68264)" stroke-width=".75" stroke-linecap="round" stroke-linejoin="round" fill="none" stroke="#000000" d="M-478.23713 34.372846C-474.29664 31.707455-470.96726 26.894448-469.61854 21.776555-468.78163 26.798657-465.69084 31.411122-461.5676 34.473905"/>
<path transform="matrix(1,0,0,-1,868.7349,136.68264)" stroke-width=".75" stroke-linecap="round" stroke-linejoin="round" fill="none" stroke="#000000" d="M170.24523 .232987C170.65503-30.857998 170.90529-61.326448 170.88539-92.01406 127.86847-92.23218 85.63243-92.06347 42.19381-92.37331"/>
<path transform="matrix(1,0,0,-1,868.7349,136.68264)" stroke-width=".75" stroke-linecap="round" stroke-linejoin="round" fill="none" stroke="#000000" d="M55.384294-83.91607C52.242769-88.45554 47.28112-91.59896 42.465757-92.22634 48.016969-93.97236 51.684888-96.53618 55.03254-100.28011"/>
<path transform="matrix(1,0,0,-1,868.7349,136.68264)" stroke-width=".75" stroke-linecap="round" stroke-linejoin="round" fill="none" stroke="#000000" d="M170.78896-.111878C170.49298-61.555585 170.44683-123.03384 170.99668-184.45597 13.746667-184.89795-142.99903-184.89882-298.86854-184.82946"/>
<path transform="matrix(1,0,0,-1,868.7349,136.68264)" stroke-width=".75" stroke-linecap="round" stroke-linejoin="round" fill="none" stroke="#000000" d="M-286.75889-177.12355C-289.91944-181.12517-294.4689-184.10933-299.18278-184.95015-293.78056-185.86638-289.318-188.7353-286.92695-192.768"/>
<use data-text="+" xlink:href="#font_10_1" transform="matrix(21.519354,0,0,-21.519316,360.6915,128.93979)"/>
<use data-text="&#x2212;" xlink:href="#font_10_7" transform="matrix(21.519371,0,0,-21.519288,404.89076,111.8851)"/>
<use data-text="U" xlink:href="#font_10_8" transform="matrix(21.519457,0,0,-21.519398,6.814331,142.0639)"/>
<use data-text="(" xlink:href="#font_10_4" transform="matrix(21.519457,0,0,-21.519398,23.470395,142.0639)"/>
<use data-text="s" xlink:href="#font_10_5" transform="matrix(21.519457,0,0,-21.519398,33.015565,142.0639)"/>
<use data-text=")" xlink:href="#font_10_6" transform="matrix(21.519457,0,0,-21.519398,44.00254,142.0639)"/>
<use data-text="Y" xlink:href="#font_10_9" transform="matrix(21.519246,0,0,-21.519398,1086.4069,142.0639)"/>
<use data-text="(" xlink:href="#font_10_4" transform="matrix(21.519246,0,0,-21.519398,1099.5556,142.0639)"/>
<use data-text="s" xlink:href="#font_10_5" transform="matrix(21.519246,0,0,-21.519398,1109.1007,142.0639)"/>
<use data-text=")" xlink:href="#font_10_6" transform="matrix(21.519246,0,0,-21.519398,1120.0875,142.0639)"/>
<path transform="matrix(1,0,0,-1,868.735,136.68264)" stroke-width=".75" stroke-linecap="round" stroke-linejoin="round" fill="none" stroke="#000000" d="M.244663-.050424C-.442833 30.78988 .215407 61.278547-.322647 92.83881-99.391849 92.24663-199.19692 91.96094-298.33717 92.085689"/>
<path transform="matrix(1,0,0,-1,868.735,136.68264)" stroke-width=".75" stroke-linecap="round" stroke-linejoin="round" fill="none" stroke="#000000" d="M-285.74537 100.44482C-289.2743 96.044559-293.22859 93.61938-298.47663 92.0138-293.3679 91.468929-289.0057 88.16114-285.7628 84.16072"/>
<path transform="matrix(1,0,0,-1,868.735,136.68264)" stroke-width=".75" stroke-linecap="round" stroke-linejoin="round" fill="none" stroke="#000000" d="M-.130536 .14613C.345547 30.496163 .310756 61.394289-.284762 92.52821-99.06768 92.57746-198.67938 92.170238-298.19078 92.40391"/>
<path transform="matrix(1,0,0,-1,868.735,136.68264)" stroke-width=".75" stroke-linecap="round" stroke-linejoin="round" fill="none" stroke="#000000" d="M-285.30415 100.57816C-289.3417 96.52236-293.71223 93.30249-298.68888 92.11727-293.7246 91.29083-288.9896 88.42783-286.07026 84.69166"/>
<path transform="matrix(1,0,0,-1,868.735,136.68264)" stroke-width=".75" stroke-linecap="round" stroke-linejoin="round" fill="none" stroke="#000000" d="M.045443-.056993C.295792 30.47559 .138709 62.03086-.285804 92.76295-99.03796 92.69364-198.5467 92.30401-298.84983 92.68907"/>
<path transform="matrix(1,0,0,-1,868.735,136.68264)" stroke-width=".75" stroke-linecap="round" stroke-linejoin="round" fill="none" stroke="#000000" d="M-286.1697 100.72773C-288.69877 96.72795-293.1355 93.47096-298.76823 92.371829-293.02656 91.10927-288.80186 88.007518-285.87425 84.71816"/>
<path transform="matrix(1,0,0,-1,868.735,136.68264)" stroke-width=".75" stroke-linecap="round" stroke-linejoin="round" fill="none" stroke="#000000" d="M-.111986-.241597C-.389598 30.775883 .238133 61.508539 .387287 92.74049-99.02771 92.7008-199.23026 92.51218-298.30998 92.128337"/>
<path transform="matrix(1,0,0,-1,868.735,136.68264)" stroke-width=".75" stroke-linecap="round" stroke-linejoin="round" fill="none" stroke="#000000" d="M-285.87586 100.777729C-288.6295 96.69843-293.225 93.610179-298.32466 92.65453-293.6422 91.24022-289.00807 88.18708-285.45854 84.39449"/>
<path transform="matrix(1,0,0,-1,868.735,136.68264)" stroke-width=".75" stroke-linecap="round" stroke-linejoin="round" fill="none" stroke="#000000" d="M-.220616 .268318C-.189003 30.701075 .315078 61.20101 .379377 92.55164-99.65348 92.54481-199.13912 92.519779-298.28913 92.5733"/>
<path transform="matrix(1,0,0,-1,868.735,136.68264)" stroke-width=".75" stroke-linecap="round" stroke-linejoin="round" fill="none" stroke="#000000" d="M-286.11164 100.13372C-289.16209 96.017627-293.39985 93.564098-298.2844 92.19495-293.83457 90.8046-289.17967 88.413158-285.47554 83.99654"/>
<use data-text="+" xlink:href="#font_10_1" transform="matrix(37.185197,0,0,-37.18505,128.25074,146.20343)"/>
<use data-text="+" xlink:href="#font_10_1" transform="matrix(37.185197,0,0,-37.18505,641.152,146.20343)"/>
<use data-text="G" xlink:href="#font_10_2" transform="matrix(21.519362,0,0,-21.519398,242.71637,142.0639)"/>
<use data-text="1" xlink:href="#font_10_3" transform="matrix(16.438399,0,0,-16.438426,259.1836,146.36487)"/>
<use data-text="(" xlink:href="#font_10_4" transform="matrix(21.519362,0,0,-21.519398,269.42619,142.0639)"/>
<use data-text="s" xlink:href="#font_10_5" transform="matrix(21.519362,0,0,-21.519398,278.9713,142.0639)"/>
<use data-text=")" xlink:href="#font_10_6" transform="matrix(21.519362,0,0,-21.519398,289.95829,142.0639)"/>
<use data-text="G" xlink:href="#font_10_2" transform="matrix(21.519362,0,0,-21.519398,499.16703,142.0639)"/>
<use data-text="2" xlink:href="#font_10_10" transform="matrix(16.438399,0,0,-16.438426,515.6343,146.2991)"/>
<use data-text="(" xlink:href="#font_10_4" transform="matrix(21.519362,0,0,-21.519398,525.87686,142.0639)"/>
<use data-text="s" xlink:href="#font_10_5" transform="matrix(21.519362,0,0,-21.519398,535.422,142.0639)"/>
<use data-text=")" xlink:href="#font_10_6" transform="matrix(21.519362,0,0,-21.519398,546.40896,142.0639)"/>
<path transform="matrix(1,0,0,-1,868.735,136.68264)" stroke-width=".75" stroke-linecap="round" stroke-linejoin="round" fill="none" stroke="#000000" d="M-626.6197-24.874997C-626.85867-24.728348-626.6154-25.796727-625.37966-25.668135-607.52529-25.895754-588.1764-25.17355-570.7296-25.609313-554.9543-24.262206-556.00308-25.099337-554.4771-10.227335-556.20217-3.010431-555.168 4.062183-554.8049 9.538627-555.6421 25.476824-555.6053 24.116194-571.2672 24.399792-588.8035 24.60082-606.8387 25.516646-625.8833 24.817337-640.2681 24.394566-641.5879 24.376374-640.8054 10.694379-641.7018 3.386796-641.581-2.656241-640.3556-10.873317-641.03579-25.901024-640.33297-24.247706-626.6197-24.874997Z"/>
<path transform="matrix(1,0,0,-1,868.735,136.68264)" stroke-width=".75" stroke-linecap="round" stroke-linejoin="round" fill="none" stroke="#000000" d="M-370.35356-24.317065C-368.64579-25.895318-370.37159-25.85907-369.7652-25.489233-351.3269-24.634043-333.06388-25.0413-314.9271-24.262839-299.47959-25.25435-299.14118-24.428933-298.4667-10.208963-299.6491-3.890136-299.8206 3.521475-299.85115 10.055199-299.27406 25.749447-298.88368 25.687445-313.3775 25.288384-332.6956 24.991278-351.1206 25.750092-369.4132 24.056735-385.24693 24.460612-385.0737 24.972632-384.0825 9.187407-384.33543 3.398565-383.59788-3.756872-384.7169-10.672855-385.23924-25.689719-384.62486-24.351786-370.35356-24.317065Z"/>
<path transform="matrix(1,0,0,-1,868.735,136.68264)" stroke-width=".75" stroke-linecap="round" stroke-linejoin="round" fill="none" stroke="#000000" d="M-704.86386 .649689C-705.19796 11.127334-713.7222 20.985426-726.68197 21.412169-738.61947 21.708664-747.5846 11.161654-748.41629 .314664-747.37417-11.19842-737.8857-20.720404-725.6779-20.780743-713.692-22.338362-704.79678-12.812131-704.86386 .649689Z"/>
<path transform="matrix(1,0,0,-1,868.735,136.68264)" stroke-width=".75" stroke-linecap="round" stroke-linejoin="round" fill="none" stroke="#000000" d="M-192.82642-.416842C-192.70165 12.427904-201.62674 21.038268-212.64385 22.134749-225.76885 22.35521-234.46567 10.987476-236.00299 .92184-234.78595-11.142239-226.20626-21.094613-214.34397-22.588345-201.43608-21.572882-192.7363-11.310207-192.82642-.416842Z"/>
<path transform="matrix(1,0,0,-1,868.735,136.68264)" stroke-width=".75" stroke-linecap="round" stroke-linejoin="round" fill="none" stroke="#000000" d="M-812.2178-.319314C-790.80148 .355593-770.03 .235934-748.08309 .148292"/>
<path transform="matrix(1,0,0,-1,868.735,136.68264)" stroke-width=".75" stroke-linecap="round" stroke-linejoin="round" fill="none" stroke="#000000" d="M-761.2427-8.199292C-758.39248-3.871028-753.68508-1.140991-748.1322-.395659-753.77987 .738352-758.32077 4.351646-761.34786 7.676938"/>
<path transform="matrix(1,0,0,-1,868.735,136.68264)" stroke-width=".75" stroke-linecap="round" stroke-linejoin="round" fill="none" stroke="#000000" d="M-704.9336-.304883C-683.3576 .322633-662.9425-.415891-641.75057 .212226"/>
<path transform="matrix(1,0,0,-1,868.735,136.68264)" stroke-width=".75" stroke-linecap="round" stroke-linejoin="round" fill="none" stroke="#000000" d="M-653.6848-8.201594C-651.25759-3.773274-646.60098-.794859-641.4627 .047211-646.3311 1.415469-650.4531 3.958082-654.1443 8.324431"/>
<path transform="matrix(1,0,0,-1,868.735,136.68264)" stroke-width=".75" stroke-linecap="round" stroke-linejoin="round" fill="none" stroke="#000000" d="M-555.59097 .340784C-534.2554 .319399-513.27658 .20853-492.36155-.328533"/>
<path transform="matrix(1,0,0,-1,868.735,136.68264)" stroke-width=".75" stroke-linecap="round" stroke-linejoin="round" fill="none" stroke="#000000" d="M-504.6907-7.880118C-501.0658-3.968657-496.72636-1.469524-492.3209 .2425-497.3005 .900627-501.42359 4.049237-504.7379 8.390617"/>
<path transform="matrix(1,0,0,-1,868.735,136.68264)" stroke-width=".75" stroke-linecap="round" stroke-linejoin="round" fill="none" stroke="#000000" d="M-448.55494 .34928C-427.23674 .212844-405.7132 .333239-384.77668-.287603"/>
<path transform="matrix(1,0,0,-1,868.735,136.68264)" stroke-width=".75" stroke-linecap="round" stroke-linejoin="round" fill="none" stroke="#000000" d="M-397.3574-7.834943C-394.87184-3.70285-389.6463-1.540937-384.94325 .067604-390.29817 .997448-394.08723 3.670817-397.39906 8.067285"/>
<path transform="matrix(1,0,0,-1,868.735,136.68264)" stroke-width=".75" stroke-linecap="round" stroke-linejoin="round" fill="none" stroke="#000000" d="M-298.85676 .049457C-278.19847-.112145-256.84324 .193658-235.6133 .108777"/>
<path transform="matrix(1,0,0,-1,868.735,136.68264)" stroke-width=".75" stroke-linecap="round" stroke-linejoin="round" fill="none" stroke="#000000" d="M-248.59859-8.39647C-245.30596-4.347176-240.56244-1.49697-235.59249-.119634-240.27806 1.333247-245.46587 3.576213-248.08756 8.264653"/>
<path transform="matrix(1,0,0,-1,868.735,136.68264)" stroke-width=".75" stroke-linecap="round" stroke-linejoin="round" fill="none" stroke="#000000" d="M-191.49665 .337681C-170.91739 .111084-149.63704-.243274-128.70996-.110486"/>
<path transform="matrix(1,0,0,-1,868.735,136.68264)" stroke-width=".75" stroke-linecap="round" stroke-linejoin="round" fill="none" stroke="#000000" d="M-141.36466-8.00602C-138.3335-4.394892-133.25229-1.539351-128.5246 .27662-133.93126 .744935-137.8999 4.384396-141.55004 8.192043"/>
<path transform="matrix(1,0,0,-1,868.735,136.68264)" stroke-width=".75" stroke-linecap="round" stroke-linejoin="round" fill="none" stroke="#000000" d="M-43.145696-92.33411C-99.99677-92.57119-156.43158-92.26471-213.74356-92.4691-213.1287-69.038219-213.2396-45.663316-213.47931-22.147503"/>
<path transform="matrix(1,0,0,-1,868.735,136.68264)" stroke-width=".75" stroke-linecap="round" stroke-linejoin="round" fill="none" stroke="#000000" d="M-205.34645-34.905744C-209.46517-31.650315-212.13225-26.807362-213.27196-22.313944-214.4052-26.704426-217.58998-31.667954-221.66109-34.39672"/>
<path transform="matrix(1,0,0,-1,868.735,136.68264)" stroke-width=".75" stroke-linecap="round" stroke-linejoin="round" fill="none" stroke="#000000" d="M-385.0979-184.41815C-498.78376-184.73746-612.4265-185.05689-726.1684-184.97072-726.04757-130.89966-726.5125-76.25046-726.439-21.949177"/>
<path transform="matrix(1,0,0,-1,868.735,136.68264)" stroke-width=".75" stroke-linecap="round" stroke-linejoin="round" fill="none" stroke="#000000" d="M-718.4826-34.549005C-722.7215-31.535946-725.0151-26.968386-726.5071-22.009192-727.36727-27.300621-730.8787-31.365708-734.7289-34.498575"/>
<path transform="matrix(1,0,0,-1,868.735,136.68264)" stroke-width=".75" stroke-linecap="round" stroke-linejoin="round" fill="none" stroke="#000000" d="M-626.9158-25.186875C-625.583-24.121287-626.759-24.268778-626.3652-24.176173-607.50759-23.997069-588.3853-24.497908-570.24398-24.301613-554.5366-24.556323-555.8706-24.782969-554.8936-9.572319-554.5019-3.70718-554.715 3.236225-555.3554 10.426531-554.8419 25.039509-554.5648 25.67822-569.4581 25.252064-588.23098 24.459872-607.3298 24.939213-625.7977 24.131724-640.3994 25.738978-641.8286 25.3249-641.57699 10.3015-641.64767 3.022711-641.43838-2.979436-641.5774-10.808366-640.75228-25.634112-640.4652-25.7139-626.9158-25.186875Z"/>
<path transform="matrix(1,0,0,-1,868.735,136.68264)" stroke-width=".75" stroke-linecap="round" stroke-linejoin="round" fill="none" stroke="#000000" d="M-368.69657-25.341216C-370.27009-24.424017-368.76985-24.365153-368.73847-24.2976-351.43775-25.842514-331.71128-25.487175-313.17366-24.831175-299.82893-24.48431-299.6199-25.065505-298.84394-9.291905-298.98567-2.867412-299.33024 2.844993-299.87419 10.033674-298.97334 24.21111-299.80299 25.324295-313.91215 25.521395-332.52534 25.418368-350.17839 25.509949-369.49449 25.205477-385.1703 24.822772-384.58799 24.631779-384.49226 9.361732-384.9589 3.169476-383.96546-3.913125-384.86854-9.088057-385.0223-25.809796-384.8921-25.40295-368.69657-25.341216Z"/>
<path transform="matrix(1,0,0,-1,868.735,136.68264)" stroke-width=".75" stroke-linecap="round" stroke-linejoin="round" fill="none" stroke="#000000" d="M-704.943-.855373C-704.24398 12.581542-713.9373 21.405192-726.57266 22.117156-738.92068 21.180222-748.2911 11.272428-747.33517-.191926-747.37399-11.803325-738.70669-21.834052-726.4784-21.289357-713.90328-22.133318-703.88027-11.474243-704.943-.855373Z"/>
<path transform="matrix(1,0,0,-1,868.735,136.68264)" stroke-width=".75" stroke-linecap="round" stroke-linejoin="round" fill="none" stroke="#000000" d="M-191.89633 .007849C-191.9493 12.330182-201.84758 20.902512-213.8854 21.443474-225.72891 21.1949-234.38716 11.549163-234.97019 .735639-235.58843-11.496433-225.62306-22.140898-214.15451-21.944598-200.98726-20.756573-191.93624-11.74303-191.89633 .007849Z"/>
<path transform="matrix(1,0,0,-1,868.735,136.68264)" stroke-width=".75" stroke-linecap="round" stroke-linejoin="round" fill="none" stroke="#000000" d="M-811.75759-.246399C-791.0388 .419471-769.9135 .362802-748.5304 .158237"/>
<path transform="matrix(1,0,0,-1,868.735,136.68264)" stroke-width=".75" stroke-linecap="round" stroke-linejoin="round" fill="none" stroke="#000000" d="M-761.09439-8.441163C-758.2798-4.267797-753.49716-.890103-748.6584-.070501-753.3653 1.441532-758.1237 3.647039-760.76907 8.261945"/>
<path transform="matrix(1,0,0,-1,868.735,136.68264)" stroke-width=".75" stroke-linecap="round" stroke-linejoin="round" fill="none" stroke="#000000" d="M-704.80667 .085233C-684.0811 .07551-662.1619-.142768-641.69216-.112681"/>
<path transform="matrix(1,0,0,-1,868.735,136.68264)" stroke-width=".75" stroke-linecap="round" stroke-linejoin="round" fill="none" stroke="#000000" d="M-654.4135-7.612577C-650.5427-4.32745-646.772-1.474159-641.1485 .296465-646.491 .987347-651.0613 3.65843-654.37008 7.766957"/>
<path transform="matrix(1,0,0,-1,868.735,136.68264)" stroke-width=".75" stroke-linecap="round" stroke-linejoin="round" fill="none" stroke="#000000" d="M-555.19107-.300322C-534.5114 .155113-513.042 .166325-492.0701-.053597"/>
<path transform="matrix(1,0,0,-1,868.735,136.68264)" stroke-width=".75" stroke-linecap="round" stroke-linejoin="round" fill="none" stroke="#000000" d="M-504.94898-7.989462C-501.65608-4.005451-497.47703-1.313837-492.02885-.447928-496.63594 1.105857-501.31077 3.787534-504.33149 7.894938"/>
<path transform="matrix(1,0,0,-1,868.735,136.68264)" stroke-width=".75" stroke-linecap="round" stroke-linejoin="round" fill="none" stroke="#000000" d="M-448.68153-.40609C-427.4837 .440806-406.331-.207359-384.6679-.147685"/>
<path transform="matrix(1,0,0,-1,868.735,136.68264)" stroke-width=".75" stroke-linecap="round" stroke-linejoin="round" fill="none" stroke="#000000" d="M-397.9796-8.107361C-394.74565-4.341704-390.1037-.975278-384.9664-.222442-389.54539 .971034-394.41877 3.721331-397.93589 8.247813"/>
<path transform="matrix(1,0,0,-1,868.735,136.68264)" stroke-width=".75" stroke-linecap="round" stroke-linejoin="round" fill="none" stroke="#000000" d="M-298.70704-.273015C-277.50419 .03041-256.79554-.237645-235.54636 .139451"/>
<path transform="matrix(1,0,0,-1,868.735,136.68264)" stroke-width=".75" stroke-linecap="round" stroke-linejoin="round" fill="none" stroke="#000000" d="M-248.03818-7.690063C-244.72406-3.926444-240.56327-1.46709-235.82517 .100211-240.71648 1.281767-245.06185 3.894776-247.78289 7.72216"/>
<path transform="matrix(1,0,0,-1,868.735,136.68264)" stroke-width=".75" stroke-linecap="round" stroke-linejoin="round" fill="none" stroke="#000000" d="M-191.84745-.12766C-170.32147-.079408-149.68144 .30286-128.21108 .267532"/>
<path transform="matrix(1,0,0,-1,868.735,136.68264)" stroke-width=".75" stroke-linecap="round" stroke-linejoin="round" fill="none" stroke="#000000" d="M-140.84839-8.293068C-138.05785-3.613349-133.502-1.0309-128.29747 .164359-133.5804 1.159118-138.397 4.352784-140.88152 8.093838"/>
<path transform="matrix(1,0,0,-1,868.735,136.68264)" stroke-width=".75" stroke-linecap="round" stroke-linejoin="round" fill="none" stroke="#000000" d="M-43.032415-92.76436C-99.97079-92.77098-156.75055-92.665599-213.71204-92.65705-213.83727-68.824039-213.69847-45.142004-213.44087-22.121333"/>
<path transform="matrix(1,0,0,-1,868.735,136.68264)" stroke-width=".75" stroke-linecap="round" stroke-linejoin="round" fill="none" stroke="#000000" d="M-205.3672-34.622545C-209.5889-31.557929-212.78215-27.460989-213.4955-22.062367-214.39583-26.858181-217.55097-31.510912-221.97882-34.524007"/>
<path transform="matrix(1,0,0,-1,868.735,136.68264)" stroke-width=".75" stroke-linecap="round" stroke-linejoin="round" fill="none" stroke="#000000" d="M-384.39784-184.9225C-498.9246-184.57065-612.2823-185.20537-726.1003-184.67723-726.748-130.50786-726.28359-76.71837-726.6605-21.774344"/>
<path transform="matrix(1,0,0,-1,868.735,136.68264)" stroke-width=".75" stroke-linecap="round" stroke-linejoin="round" fill="none" stroke="#000000" d="M-718.5239-34.309415C-722.8058-31.458195-725.05477-27.32851-726.16067-22.250283-727.4815-26.905476-730.4393-31.318894-734.2518-35.08914"/>
<path transform="matrix(1,0,0,-1,868.735,136.68264)" stroke-width=".75" stroke-linecap="round" stroke-linejoin="round" fill="none" stroke="#000000" d="M-626.1813-25.24629C-625.3318-24.415114-626.0841-25.280549-626.1256-24.553254-606.9919-25.841387-589.45706-24.347767-571.0647-24.2346-554.69869-25.406466-554.52236-25.761742-555.39877-9.024026-555.6801-3.492345-554.45846 3.605752-554.4577 10.648255-555.05276 25.488339-555.7739 25.483412-570.7725 24.361804-589.6134 24.154257-606.92306 25.489119-625.2387 24.132733-641.6994 24.93258-640.3057 25.597348-640.24807 10.434627-641.83016 2.568375-640.0747-3.792608-640.3421-9.141512-641.1136-24.982375-641.13479-24.071829-626.1813-25.24629Z"/>
<path transform="matrix(1,0,0,-1,868.735,136.68264)" stroke-width=".75" stroke-linecap="round" stroke-linejoin="round" fill="none" stroke="#000000" d="M-369.13618-25.68508C-369.1794-24.628136-369.11137-25.88504-369.04109-25.669596-350.63819-25.183354-333.2045-25.65361-313.76078-25.04232-299.78715-24.91758-299.54985-25.0325-299.2411-10.766398-299.5496-4.182867-298.56007 3.634083-298.02879 9.710649-299.36936 24.328555-299.37684 25.09645-313.74613 25.187785-331.90354 24.388939-350.8986 25.462325-369.96037 25.662884-384.99455 25.224547-384.52247 24.566872-384.2884 9.371203-384.89219 3.739649-384.50578-3.011742-385.17033-9.142905-384.3838-24.852599-385.4559-25.884104-369.13618-25.68508Z"/>
<path transform="matrix(1,0,0,-1,868.735,136.68264)" stroke-width=".75" stroke-linecap="round" stroke-linejoin="round" fill="none" stroke="#000000" d="M-704.92636-.860502C-705.09249 11.190512-714.5086 21.509505-727.0438 22.510836-738.32656 21.486939-747.9587 11.2393-747.9343 .089619-748.7955-11.500256-738.72189-22.44562-725.6442-22.041718-715.3369-22.326985-703.9981-12.241481-704.92636-.860502Z"/>
<path transform="matrix(1,0,0,-1,868.735,136.68264)" stroke-width=".75" stroke-linecap="round" stroke-linejoin="round" fill="none" stroke="#000000" d="M-191.2895 .661254C-192.1361 12.829456-201.00868 22.066485-213.41904 20.980113-225.42398 21.98509-234.23473 12.199718-235.42618-.213281-236.10405-11.000397-226.15428-21.44545-213.4611-20.843716-201.67005-21.115258-192.2847-11.710661-191.2895 .661254Z"/>
<path transform="matrix(1,0,0,-1,868.735,136.68264)" stroke-width=".75" stroke-linecap="round" stroke-linejoin="round" fill="none" stroke="#000000" d="M-812.1522 .343988C-790.4884 .353008-769.5459 .444627-748.7941-.133116"/>
<path transform="matrix(1,0,0,-1,868.735,136.68264)" stroke-width=".75" stroke-linecap="round" stroke-linejoin="round" fill="none" stroke="#000000" d="M-761.2663-8.372347C-758.364-3.614055-753.14956-1.02129-748.37387 .440205-753.78329 1.539911-757.7783 4.429272-760.86227 8.364768"/>
<path transform="matrix(1,0,0,-1,868.735,136.68264)" stroke-width=".75" stroke-linecap="round" stroke-linejoin="round" fill="none" stroke="#000000" d="M-704.48776 .426612C-683.59469-.179619-662.69869 .326047-641.63357 .091671"/>
<path transform="matrix(1,0,0,-1,868.735,136.68264)" stroke-width=".75" stroke-linecap="round" stroke-linejoin="round" fill="none" stroke="#000000" d="M-653.85989-7.646138C-650.8243-4.210827-646.19577-.798473-640.95388 .218169-646.2983 1.491995-650.5971 3.754133-654.3542 7.832363"/>
<path transform="matrix(1,0,0,-1,868.735,136.68264)" stroke-width=".75" stroke-linecap="round" stroke-linejoin="round" fill="none" stroke="#000000" d="M-555.29946 .004506C-534.4244-.186626-513.38247 .389517-492.3865 .011016"/>
<path transform="matrix(1,0,0,-1,868.735,136.68264)" stroke-width=".75" stroke-linecap="round" stroke-linejoin="round" fill="none" stroke="#000000" d="M-504.33924-8.305229C-501.82398-3.689215-497.01445-1.427729-491.6338-.424663-496.86567 .863954-501.57527 4.142867-504.45085 7.977446"/>
<path transform="matrix(1,0,0,-1,868.735,136.68264)" stroke-width=".75" stroke-linecap="round" stroke-linejoin="round" fill="none" stroke="#000000" d="M-447.9309 .131384C-427.2 .244962-406.35807-.013847-384.9235-.379685"/>
<path transform="matrix(1,0,0,-1,868.735,136.68264)" stroke-width=".75" stroke-linecap="round" stroke-linejoin="round" fill="none" stroke="#000000" d="M-397.9473-7.829275C-394.55958-3.669149-390.26069-.798148-385.22456-.342287-389.60014 .989397-394.41377 4.1494-397.5439 8.014274"/>
<path transform="matrix(1,0,0,-1,868.735,136.68264)" stroke-width=".75" stroke-linecap="round" stroke-linejoin="round" fill="none" stroke="#000000" d="M-299.38435 .311481C-277.79808 .183627-256.33808 .228053-235.9233-.408399"/>
<path transform="matrix(1,0,0,-1,868.735,136.68264)" stroke-width=".75" stroke-linecap="round" stroke-linejoin="round" fill="none" stroke="#000000" d="M-248.33272-7.670422C-244.97037-4.371828-240.8642-1.380931-235.41197 .079353-240.82253 .766939-244.62088 3.623689-248.03485 8.326678"/>
<path transform="matrix(1,0,0,-1,868.735,136.68264)" stroke-width=".75" stroke-linecap="round" stroke-linejoin="round" fill="none" stroke="#000000" d="M-191.8325-.365876C-170.42958 .374387-149.88936-.217146-128.79633 .265017"/>
<path transform="matrix(1,0,0,-1,868.735,136.68264)" stroke-width=".75" stroke-linecap="round" stroke-linejoin="round" fill="none" stroke="#000000" d="M-141.10755-8.068226C-137.77016-3.678182-133.66144-1.3578-128.69985 .068186-133.5068 .818578-137.794 4.365404-141.45549 8.392866"/>
<path transform="matrix(1,0,0,-1,868.735,136.68264)" stroke-width=".75" stroke-linecap="round" stroke-linejoin="round" fill="none" stroke="#000000" d="M-43.13682-92.2199C-99.42667-92.11585-156.8442-92.75988-213.53485-92.79279-213.14072-69.21289-213.84786-45.079927-213.7574-22.081158"/>
<path transform="matrix(1,0,0,-1,868.735,136.68264)" stroke-width=".75" stroke-linecap="round" stroke-linejoin="round" fill="none" stroke="#000000" d="M-205.92432-34.512899C-209.34844-31.514136-212.74849-27.077261-213.35948-21.690512-214.4601-27.373053-217.10007-31.513525-221.50353-35.067495"/>
<path transform="matrix(1,0,0,-1,868.735,136.68264)" stroke-width=".75" stroke-linecap="round" stroke-linejoin="round" fill="none" stroke="#000000" d="M-384.7185-184.85913C-498.36433-184.88317-612.43099-184.70764-726.3058-184.96805-726.3683-130.62569-726.86947-75.891849-726.4598-22.436268"/>
<path transform="matrix(1,0,0,-1,868.735,136.68264)" stroke-width=".75" stroke-linecap="round" stroke-linejoin="round" fill="none" stroke="#000000" d="M-717.995-35.118669C-722.7277-31.13794-724.8573-27.276074-726.606-21.861384-728.0489-27.27153-730.7747-31.643574-734.6557-34.310064"/>
<path transform="matrix(1,0,0,-1,868.735,136.68264)" stroke-width=".75" stroke-linecap="round" stroke-linejoin="round" fill="none" stroke="#000000" d="M-626.59817-25.05472C-625.79666-25.32989-626.43826-25.510964-626.09756-24.061776-607.5182-25.302454-588.943-24.574374-570.06448-25.682906-554.525-25.200842-555.82876-24.354695-556.26028-9.501268-555.8433-4.259747-555.1991 3.534948-555.1704 9.456009-555.321 25.015469-555.6641 25.711022-569.6176 25.137663-588.9503 25.64241-607.18759 24.909844-625.8601 25.76094-641.8089 25.051152-640.05178 24.617806-640.4548 10.867173-640.51486 2.895409-640.703-2.617934-641.4917-10.403991-641.7676-24.642716-641.05337-24.724299-626.59817-25.05472Z"/>
<path transform="matrix(1,0,0,-1,868.735,136.68264)" stroke-width=".75" stroke-linecap="round" stroke-linejoin="round" fill="none" stroke="#000000" d="M-369.2842-24.717608C-368.8238-24.105914-369.92127-24.513358-369.3776-25.561255-351.3062-25.6999-332.29188-24.042023-314.35395-25.440217-299.91175-25.097439-299.6038-25.265646-298.8543-8.972062-299.03169-3.79524-299.45939 3.900558-298.23899 10.249659-299.5545 24.682333-298.62168 24.913907-313.277 25.783362-331.89585 24.793049-350.80723 24.672118-369.3737 24.596615-385.3068 25.918246-385.39253 24.957045-385.3828 10.639497-384.99778 3.57056-384.67436-2.449042-384.3166-10.489397-384.64723-24.07748-384.35533-25.107579-369.2842-24.717608Z"/>
<path transform="matrix(1,0,0,-1,868.735,136.68264)" stroke-width=".75" stroke-linecap="round" stroke-linejoin="round" fill="none" stroke="#000000" d="M-705.63717-.090402C-705.6752 11.264516-713.6487 20.709853-727.3221 21.009205-738.89889 22.074105-748.06057 11.836551-747.4632-.958847-747.7139-12.359824-738.54818-21.37464-725.9446-22.022112-715.0555-22.429303-705.531-12.008108-705.63717-.090402Z"/>
<path transform="matrix(1,0,0,-1,868.735,136.68264)" stroke-width=".75" stroke-linecap="round" stroke-linejoin="round" fill="none" stroke="#000000" d="M-192.08426-.970563C-191.60607 12.326306-201.90367 22.62274-214.4607 20.88829-225.09091 22.087952-235.26589 12.262171-235.92128-.370795-234.95764-12.83535-224.99909-22.03585-213.26488-21.813073-200.75055-21.887959-192.80437-12.34609-192.08426-.970563Z"/>
<path transform="matrix(1,0,0,-1,868.735,136.68264)" stroke-width=".75" stroke-linecap="round" stroke-linejoin="round" fill="none" stroke="#000000" d="M-811.738-.166566C-790.683-.353948-770.017-.291575-748.7037 .164781"/>
<path transform="matrix(1,0,0,-1,868.735,136.68264)" stroke-width=".75" stroke-linecap="round" stroke-linejoin="round" fill="none" stroke="#000000" d="M-761.44967-8.415489C-758.36288-3.625677-753.1129-.822797-748.85067-.105677-753.2191 1.526344-757.9135 4.042199-760.9243 8.283452"/>
<path transform="matrix(1,0,0,-1,868.735,136.68264)" stroke-width=".75" stroke-linecap="round" stroke-linejoin="round" fill="none" stroke="#000000" d="M-704.49569-.0887C-683.3845 .10902-662.16848 .172326-641.15597 .072047"/>
<path transform="matrix(1,0,0,-1,868.735,136.68264)" stroke-width=".75" stroke-linecap="round" stroke-linejoin="round" fill="none" stroke="#000000" d="M-653.99069-8.083652C-651.1488-4.332735-646.0958-.962127-641.435-.177846-646.18679 1.250282-651.254 4.248597-653.94479 7.954623"/>
<path transform="matrix(1,0,0,-1,868.735,136.68264)" stroke-width=".75" stroke-linecap="round" stroke-linejoin="round" fill="none" stroke="#000000" d="M-555.71646-.321378C-534.0718 .303193-513.33609 .300342-491.7919 .238176"/>
<path transform="matrix(1,0,0,-1,868.735,136.68264)" stroke-width=".75" stroke-linecap="round" stroke-linejoin="round" fill="none" stroke="#000000" d="M-504.47029-7.988319C-501.7279-3.634203-496.896-1.340392-491.8022-.220079-497.21855 1.072947-501.7131 3.679758-504.7352 8.056943"/>
<path transform="matrix(1,0,0,-1,868.735,136.68264)" stroke-width=".75" stroke-linecap="round" stroke-linejoin="round" fill="none" stroke="#000000" d="M-448.28977-.129556C-427.10966 .146899-406.0646-.396139-385.15766 .271441"/>
<path transform="matrix(1,0,0,-1,868.735,136.68264)" stroke-width=".75" stroke-linecap="round" stroke-linejoin="round" fill="none" stroke="#000000" d="M-397.31248-8.390935C-394.20234-4.339095-390.38697-.723256-384.90425-.15066-389.92005 1.182128-394.451 4.448588-397.81178 8.041722"/>
<path transform="matrix(1,0,0,-1,868.735,136.68264)" stroke-width=".75" stroke-linecap="round" stroke-linejoin="round" fill="none" stroke="#000000" d="M-299.40968 .44845C-277.55329-.000591-256.399-.367659-236.0049 .166684"/>
<path transform="matrix(1,0,0,-1,868.735,136.68264)" stroke-width=".75" stroke-linecap="round" stroke-linejoin="round" fill="none" stroke="#000000" d="M-248.51485-8.188825C-245.18099-4.191064-240.51026-.899138-235.66841-.263423-240.58017 1.288113-244.7121 4.109591-248.274 7.762087"/>
<path transform="matrix(1,0,0,-1,868.735,136.68264)" stroke-width=".75" stroke-linecap="round" stroke-linejoin="round" fill="none" stroke="#000000" d="M-191.68907-.096264C-170.52794-.12966-149.66817 .345142-128.31136 .028198"/>
<path transform="matrix(1,0,0,-1,868.735,136.68264)" stroke-width=".75" stroke-linecap="round" stroke-linejoin="round" fill="none" stroke="#000000" d="M-140.74962-7.926639C-137.79634-3.952152-133.88439-1.533607-128.27979-.352428-133.49738 .878561-137.82506 3.623803-141.09418 7.898886"/>
<path transform="matrix(1,0,0,-1,868.735,136.68264)" stroke-width=".75" stroke-linecap="round" stroke-linejoin="round" fill="none" stroke="#000000" d="M-43.002923-92.101528C-99.62098-92.842029-156.80783-92.08843-213.89383-92.370418-213.20703-69.04196-213.6795-45.517534-213.09597-22.410956"/>
<path transform="matrix(1,0,0,-1,868.735,136.68264)" stroke-width=".75" stroke-linecap="round" stroke-linejoin="round" fill="none" stroke="#000000" d="M-205.4772-34.39884C-209.83904-31.824837-212.48523-26.826634-213.65265-22.352593-214.31778-27.375813-217.64769-31.813307-221.63938-34.298105"/>
<path transform="matrix(1,0,0,-1,868.735,136.68264)" stroke-width=".75" stroke-linecap="round" stroke-linejoin="round" fill="none" stroke="#000000" d="M-384.6735-184.67652C-498.78868-184.37659-612.5771-185.23232-726.5509-185.08274-726.28756-130.2376-726.8587-76.23294-726.2557-22.359526"/>
<path transform="matrix(1,0,0,-1,868.735,136.68264)" stroke-width=".75" stroke-linecap="round" stroke-linejoin="round" fill="none" stroke="#000000" d="M-717.9967-34.500406C-722.5053-31.206149-724.8907-27.017416-726.0728-21.884034-727.4341-27.298707-730.37429-31.602398-734.1855-34.30252"/>
<path transform="matrix(1,0,0,-1,868.735,136.68264)" stroke-width=".75" stroke-linecap="round" stroke-linejoin="round" fill="none" stroke="#000000" d="M-625.8611-23.977942C-625.8297-24.353484-625.73196-25.093148-626.1154-24.065146-607.14596-25.114836-589.64596-25.14564-570.8973-24.777779-555.12057-25.885758-554.92178-24.522885-555.89547-9.906406-554.9977-3.328181-554.52627 2.365416-556.3286 10.637956-556.25869 25.114455-556.04019 24.013802-571.2045 25.257496-589.1119 25.606917-607.59127 24.929478-625.53408 24.91947-641.14596 25.208539-640.8616 25.379002-640.6526 9.567483-641.6873 2.862601-640.4118-2.916268-640.67489-10.914536-640.57467-25.262377-641.3637-24.11973-625.8611-23.977942Z"/>
<path transform="matrix(1,0,0,-1,868.735,136.68264)" stroke-width=".75" stroke-linecap="round" stroke-linejoin="round" fill="none" stroke="#000000" d="M-370.4944-25.341074C-369.73457-24.62635-368.60243-25.904049-368.71357-25.58191-350.2328-25.06771-332.37153-24.414286-314.27369-24.195309-299.23417-25.37269-299.8864-25.035313-299.5991-10.850015-299.51356-2.632306-298.66758 4.003815-298.56517 10.361691-298.65296 24.173022-299.43907 23.992993-314.08677 25.763558-332.01637 25.802638-351.57164 25.630898-370.02125 24.04825-384.0378 25.871932-384.3418 24.542986-383.78224 9.44084-385.21815 2.836132-384.41578-3.662264-384.0816-10.513735-384.1602-25.788619-383.79045-25.554039-370.4944-25.341074Z"/>
<path transform="matrix(1,0,0,-1,868.735,136.68264)" stroke-width=".75" stroke-linecap="round" stroke-linejoin="round" fill="none" stroke="#000000" d="M-705.25357-.294742C-704.9423 11.992828-714.6872 22.071988-726.76107 21.564385-738.502 22.234082-748.8991 12.463946-749.0605-.694955-747.8286-11.592869-738.3637-20.866602-726.54086-21.531788-715.2076-21.766278-705.5978-11.111035-705.25357-.294742Z"/>
<path transform="matrix(1,0,0,-1,868.735,136.68264)" stroke-width=".75" stroke-linecap="round" stroke-linejoin="round" fill="none" stroke="#000000" d="M-191.43579 .764196C-191.85245 12.829763-201.49266 21.441967-213.13405 21.017508-226.45098 21.344145-235.04883 11.280743-234.39609-.881915-234.34322-12.780516-225.74335-21.036065-213.06427-21.47685-200.87346-20.986985-192.0361-11.030184-191.43579 .764196Z"/>
<path transform="matrix(1,0,0,-1,868.735,136.68264)" stroke-width=".75" stroke-linecap="round" stroke-linejoin="round" fill="none" stroke="#000000" d="M-811.50027 .170387C-790.38186-.438103-769.2355 .348221-748.15737 .312578"/>
<path transform="matrix(1,0,0,-1,868.735,136.68264)" stroke-width=".75" stroke-linecap="round" stroke-linejoin="round" fill="none" stroke="#000000" d="M-760.6928-7.665903C-758.2175-4.415058-753.2444-1.564099-748.1418-.015698-753.0495 1.357767-757.7223 3.836884-761.33 8.123882"/>
<path transform="matrix(1,0,0,-1,868.735,136.68264)" stroke-width=".75" stroke-linecap="round" stroke-linejoin="round" fill="none" stroke="#000000" d="M-705.0778-.306021C-683.7607 .434462-662.7373 .290967-641.2275 .394516"/>
<path transform="matrix(1,0,0,-1,868.735,136.68264)" stroke-width=".75" stroke-linecap="round" stroke-linejoin="round" fill="none" stroke="#000000" d="M-653.97427-8.008007C-650.9999-4.44575-646.76589-1.000358-641.0231 .387736-646.40158 1.37009-651.1993 4.317556-654.3025 7.79358"/>
<path transform="matrix(1,0,0,-1,868.735,136.68264)" stroke-width=".75" stroke-linecap="round" stroke-linejoin="round" fill="none" stroke="#000000" d="M-555.4033 .239167C-534.44186-.164592-512.7642-.116058-492.34144-.429729"/>
<path transform="matrix(1,0,0,-1,868.735,136.68264)" stroke-width=".75" stroke-linecap="round" stroke-linejoin="round" fill="none" stroke="#000000" d="M-504.8014-8.25665C-501.07859-3.575808-497.1392-1.165449-491.85047-.2052-497.00474 .780187-501.92585 3.956478-504.99934 8.409974"/>
<path transform="matrix(1,0,0,-1,868.735,136.68264)" stroke-width=".75" stroke-linecap="round" stroke-linejoin="round" fill="none" stroke="#000000" d="M-448.79255-.059923C-427.02644 .24798-405.63807 .032525-384.8201 .043143"/>
<path transform="matrix(1,0,0,-1,868.735,136.68264)" stroke-width=".75" stroke-linecap="round" stroke-linejoin="round" fill="none" stroke="#000000" d="M-397.26957-7.625085C-394.1062-3.965401-390.40467-1.094368-384.91166-.158849-390.2428 1.102232-394.8554 4.109749-397.63969 8.504526"/>
<path transform="matrix(1,0,0,-1,868.735,136.68264)" stroke-width=".75" stroke-linecap="round" stroke-linejoin="round" fill="none" stroke="#000000" d="M-298.7006 .053215C-277.64228 .02684-256.59077 .265783-235.7905-.277785"/>
<path transform="matrix(1,0,0,-1,868.735,136.68264)" stroke-width=".75" stroke-linecap="round" stroke-linejoin="round" fill="none" stroke="#000000" d="M-248.00536-8.305366C-245.22261-4.140705-240.80667-1.472836-235.50485-.177276-240.92212 1.031681-245.041 4.005363-248.58452 7.919062"/>
<path transform="matrix(1,0,0,-1,868.735,136.68264)" stroke-width=".75" stroke-linecap="round" stroke-linejoin="round" fill="none" stroke="#000000" d="M-191.82187-.044369C-170.6762 .010355-149.68038-.015547-128.702-.052132"/>
<path transform="matrix(1,0,0,-1,868.735,136.68264)" stroke-width=".75" stroke-linecap="round" stroke-linejoin="round" fill="none" stroke="#000000" d="M-141.45435-7.887914C-138.25748-4.06832-133.06296-.936515-128.05393 .083321-133.92476 .942897-138.34972 3.955051-141.14113 8.269087"/>
<path transform="matrix(1,0,0,-1,868.735,136.68264)" stroke-width=".75" stroke-linecap="round" stroke-linejoin="round" fill="none" stroke="#000000" d="M-42.573316-92.05877C-100.21134-92.47711-156.78418-92.30692-213.41802-92.642688-213.67578-68.50601-213.3149-45.2841-213.15515-21.575526"/>
<path transform="matrix(1,0,0,-1,868.735,136.68264)" stroke-width=".75" stroke-linecap="round" stroke-linejoin="round" fill="none" stroke="#000000" d="M-205.9045-34.387075C-209.96129-31.86961-212.09543-26.657496-213.39099-22.024909-214.63378-27.225047-217.46439-31.875569-221.7687-34.738348"/>
<path transform="matrix(1,0,0,-1,868.735,136.68264)" stroke-width=".75" stroke-linecap="round" stroke-linejoin="round" fill="none" stroke="#000000" d="M-384.66993-184.9621C-498.909-184.54239-612.2262-184.77767-726.1278-185.12694-726.3526-130.13964-726.73178-76.52814-726.2427-21.668404"/>
<path transform="matrix(1,0,0,-1,868.735,136.68264)" stroke-width=".75" stroke-linecap="round" stroke-linejoin="round" fill="none" stroke="#000000" d="M-718.18246-34.868444C-722.1322-31.441473-724.8831-26.607949-726.83126-21.932976-727.5719-27.041769-730.738-31.949786-734.6479-35.005495"/>
<use data-text="+" xlink:href="#font_10_1" transform="matrix(21.519354,0,0,-21.519316,104.24097,128.93979)"/>
<use data-text="&#x2212;" xlink:href="#font_10_7" transform="matrix(21.519371,0,0,-21.519288,148.44013,167.29203)"/>
<use data-text="+" xlink:href="#font_10_1" transform="matrix(21.519354,0,0,-21.519316,617.1422,128.93976)"/>
<use data-text="&#x2212;" xlink:href="#font_10_7" transform="matrix(21.519371,0,0,-21.519288,661.34146,167.29203)"/>
</svg>
