<svg xmlns="http://www.w3.org/2000/svg" xmlns:xlink="http://www.w3.org/1999/xlink" version="1.1" width="1135.2621" height="343.219" viewBox="0 0 1135.2621 343.219">
<defs>
<path id="font_10_1" d="M.04598999 .23632813H.35598756V-.07368469L.3959961-.06668091V.23632813H.70399478L.70899966 .2763214H.3959961V.58631899L.35598756 .58032229V.2763214H.052993776L.04598999 .23632813Z"/>
<path id="font_10_2" d="M.08999634 .32458497C.08999634 .22958374 .114990238 .13148499 .18299866 .06341553 .23699951 .009384155 .31199647-.016601563 .3880005-.016601563 .46099855-.016601563 .56900027 .010391235 .6569977 .03338623 .6569977 .03338623 .6539917 .216568 .6519928 .30760194L.37599183 .2966156V.27061463L.38198854 .265625C.43598939 .26361085 .5 .25961305 .5439911 .25660707 .57199099 .25460816 .57199099 .22257996 .57199099 .13449097 .57199099 .061416627 .56900027 .04940796 .5519867 .045394899 .5209961 .038391115 .48999024 .03538513 .45799256 .03538513 .37998963 .03538513 .30599977 .060409547 .2619934 .112472537 .20399475 .18052674 .17999268 .25260926 .17999268 .3405609 .17999268 .48339845 .23199463 .5653076 .26098634 .5942688 .3039856 .63623049 .36299134 .6502075 .42199708 .6502075 .5529938 .6502075 .59298709 .5563202 .60598757 .53034976L.6179962 .5293579 .6759949 .58628848C.6649933 .6032715 .6119995 .69921877 .46699525 .69921877 .3619995 .69921877 .25698854 .6682129 .18199158 .593277 .11199951 .5233612 .08999634 .4224701 .08999634 .32458497Z"/>
<path id="font_10_3" d="M.1349945 .6123047H.22898865C.25698854 .6123047 .27999879 .59129336 .2809906 .5662842 .28199769 .541275 .28199769 .46824647 .28199769 .41923524 .28199769 .27919007 .27799989 .13916016 .272995 .00010681152L.28599549-.0048828127 .3809967 .022125245C.37799073 .09814453 .37799073 .2962036 .37799073 .43223573 .37799073 .52127078 .37998963 .6112976 .38598634 .7003021L.3789978 .71229556 .1349945 .6392975V.6123047Z"/>
<path id="font_10_4" d="M.11299133 .24990845C.11299133 .007904053 .1519928-.09008789 .18299866-.13310242 .21099854-.17008972 .25299073-.20809937 .30099488-.21209717V-.1880951C.2809906-.18409729 .25099183-.16809082 .23399353-.1481018 .21998596-.13209534 .16499329-.05809021 .16499329 .24990845 .16499329 .4618988 .19799805 .5659027 .21998596 .6128998 .23599243 .6469116 .2689972 .6769104 .30099488 .684906V.71191409C.2599945 .7049103 .21598816 .6729126 .19099427 .63790896 .1599884 .5919037 .11299133 .4748993 .11299133 .24990845Z"/>
<path id="font_10_5" d="M.051986696 .06642151C.06199646 .047409059 .07598877 .030395508 .09199524 .01638794 .12098694-.009613037 .16099549-.016601563 .19898987-.016601563 .2559967-.016601563 .31199647 .0023956299 .35099793 .044403078 .375 .06941223 .3869934 .10343933 .3869934 .13845825 .3869934 .1634674 .37298585 .18649292 .35499574 .20449829 .34098817 .21850586 .3039856 .24052429 .27198792 .25453187 .24299622 .26654054 .19999695 .2885437 .18798828 .30055238 .17298889 .31655885 .1619873 .3285675 .1619873 .35058595 .1619873 .3725891 .16899109 .39360047 .18499756 .4086151 .19999695 .42362977 .22200012 .43164063 .24398804 .43164063 .2639923 .43164063 .2849884 .42462159 .29599 .4066162 .30599977 .39060975 .30799867 .3715973 .30899049 .35359193L.32099916 .34657289 .37599183 .38360597C.375 .40560914 .3639984 .42662049 .34799195 .44163514 .32499696 .46263124 .29299928 .46662904 .2630005 .46662904 .21398926 .46662904 .16699219 .45063783 .1309967 .4176178 .10398865 .39360047 .08999634 .35858155 .08999634 .32356263 .08999634 .29154969 .10798645 .26353456 .1309967 .2425232 .1539917 .22250366 .18399048 .2084961 .21499634 .1954956 .24099732 .18447876 .2689972 .17248535 .28799439 .1534729 .30299378 .13845825 .31399537 .11845398 .31399537 .09744263 .31399537 .079422 .30499269 .062408449 .29299928 .04940796 .27799989 .03340149 .25099183 .021392823 .22898865 .021392823 .19898987 .021392823 .17199707 .03439331 .1499939 .055404664 .1269989 .076416019 .116989139 .10644531 .114990238 .13645935L.100997928 .13745117 .051986696 .06642151Z"/>
<path id="font_10_6" d="M.085998538-.1880951V-.21209717C.13398743-.20610047 .1789856-.17208863 .20698548-.13510132 .23799134-.09210205 .27598573 .007904053 .27598573 .24990845 .27598573 .50090029 .22399903 .5919037 .19299317 .63790896 .16799927 .6729126 .1269989 .7049103 .085998538 .71191409V.684906C.117996219 .6759033 .14898682 .6469116 .16499329 .6128998 .18699646 .5659027 .22399903 .48190309 .22399903 .24990845 .22399903-.099090579 .17199707-.13209534 .1579895-.1481018 .14099121-.16809082 .10598755-.18409729 .085998538-.1880951Z"/>
<path id="font_10_10" d="M.04499817 .001953125H.5379944L.56399539 .079940799 .5589905 .08795166H.20999146C.20399475 .08795166 .19799805 .08894348 .19599915 .092941287 .19499207 .094940189 .19599915 .09794617 .19699097 .09895325 .2539978 .1569519 .30799867 .21495056 .35899354 .27496339 .394989 .31697084 .42999269 .358963 .45799256 .40496827 .48799134 .4509735 .5119934 .49998475 .5119934 .5529938 .5119934 .59399417 .49899293 .6349945 .46499635 .66400149 .43199159 .69299319 .3880005 .7080078 .34199525 .7080078 .29899598 .7080078 .2579956 .6970062 .22099304 .67900088 .17599488 .65800479 .13699341 .6279907 .102996829 .59498599L.125 .57598879C.1519928 .59599307 .17799378 .61099246 .20999146 .6259918 .23098755 .6360016 .2559967 .6399994 .2809906 .6399994 .31399537 .6399994 .34700013 .6289978 .37098695 .6069946 .40098573 .5779877 .4079895 .5369873 .4079895 .50798037 .4079895 .4429779 .38198854 .38197328 .34298707 .3259735 .31098939 .27996827 .27198792 .23796082 .23199463 .19696045 .17199707 .13494873 .10899353 .07594299 .04499817 .017944336V.001953125Z"/>
<path id="font_10_11" d="M.050994874 .049362184 .05899048 .038375856C.10998535 .0033874512 .17098999-.016601563 .23599243-.016601563 .31799317-.016601563 .397995 .008392334 .45700074 .05935669 .5039978 .10131836 .5349884 .15626526 .5349884 .21520996 .5349884 .25416566 .519989 .2911377 .48999024 .31811524 .46899415 .3360901 .44198609 .34709168 .41600038 .35508729 .3789978 .36608888 .34199525 .37109376 .30299378 .37408448V.38209535C.34999085 .39408876 .3939972 .41609193 .42900086 .44610597 .46499635 .47810365 .48199464 .52311709 .48199464 .5681305 .48199464 .60414126 .46798707 .6401367 .43899537 .6651459 .40699769 .6941376 .36099244 .70214846 .31698609 .70214846 .2849884 .70214846 .25498963 .69114688 .22599793 .67814639 .18598938 .6591339 .14698792 .63414 .11199951 .60813906L.12799073 .58613589C.1539917 .60113528 .17999268 .6151428 .20799256 .6261444 .22799683 .6331482 .24699402 .6391449 .2659912 .6391449 .2999878 .6391449 .33299256 .6321411 .35598756 .61112979 .37799073 .59213259 .3889923 .5671234 .3889923 .54011538 .3889923 .502121 .37199403 .46510316 .34098817 .43710328 .32299806 .4210968 .29899598 .40908814 .27398683 .39909364 .24198914 .38609315 .20698548 .37808229 .17298889 .37109376L.17199707 .34509278C.21398926 .34509278 .2559967 .34309388 .29699708 .3340912 .32499696 .32809449 .35299684 .31910707 .37298585 .30012513 .4059906 .26914979 .42900086 .22920227 .42900086 .18623352 .42900086 .14128113 .41299439 .095321658 .3769989 .06335449 .34599305 .036376954 .30599977 .023391724 .2639923 .023391724 .22299195 .023391724 .18499756 .041366579 .1559906 .067352298 .13798523 .08332825 .12399292 .10131836 .10998535 .121292117H.09899902L.050994874 .049362184Z"/>
<path id="font_10_14" d="M.02999878 .19134522H.34999085L.35899354 .18232727C.35899354 .119262699 .35899354 .03616333 .35299684 .0011138916L.35899354-.0048828127 .44898988 .028152466C.44599916 .0501709 .44599916 .12927246 .44599916 .18333435L.45399476 .19134522H.5469971L.5649872 .22834778 .55999758 .23535156H.45399476L.44599916 .24433899C.44599916 .39926148 .44599916 .67111209 .44699098 .6980896L.43899537 .70410159 .35299684 .66911318 .02999878 .23535156V.19134522M.10398865 .24234009C.10398865 .264328 .19898987 .4022522 .24198914 .46122743 .2749939 .50619509 .30899049 .5521698 .34700013 .591156 .34999085 .5931549 .35499574 .5941467 .35798646 .591156 .35798646 .5901489 .35899354 .5871582 .35899354 .5851593V.24334717L.35198976 .23535156H.10899353L.10398865 .24234009Z"/>
<path id="font_10_12" d="M.051986696 .6781769 .052993776 .6591797C.07299805 .65216067 .10899353 .6411438 .11299133 .6401367 .12298584 .6361389 .125 .6251221 .12599182 .6161041 .1309967 .53297427 .13198853 .44985963 .13198853 .36676026 .13198853 .24482727 .13198853 .11590576 .12199402 .0029907227L.12799073-.0020141602 .21998596 .025970459C.21699524 .051956178 .21499634 .10292053 .21499634 .1798706V.33377076C.21499634 .34075929 .22099304 .34576417 .22799683 .34576417H.57099917C.5799866 .34576417 .58299258 .33876039 .58299258 .33377076 .58299258 .23683167 .5799866 .11790466 .5779877 .020980835L.58898928 0 .73799136 .0078125 .74398806 .013809204 .7429962 .031799318C.72499087 .03981018 .66600039 .03981018 .66600039 .07879639 .66600039 .09979248 .6619873 .24076844 .6619873 .32176209 .6619873 .5129547 .66999819 .64515689 .6729889 .6841736L.66799929 .6901703 .5799866 .673172C.5799866 .58706668 .58299258 .48291017 .58299258 .3967743 .58299258 .39076234 .58200076 .38476563 .57099917 .38476563H.22499085C.21499634 .38476563 .21299744 .3917694 .21299744 .3967743 .21299744 .4618683 .21699524 .54600527 .21899414 .61109927 .21998596 .63414 .22200012 .6581726 .22599793 .6801758L.22099304 .6851654H.05899048L.051986696 .6781769Z"/>
<path id="font_10_7" d="M.04598999 .23046875H.70399478L.70999148 .27046205H.052993776L.04598999 .23046875Z"/>
<path id="font_10_8" d="M.033996583 .6733093 .035995485 .6533203C.037994386 .6533203 .07398987 .6443176 .09199524 .63931277 .12298584 .6313019 .125 .6222992 .125 .54229739 .125 .46427918 .12199402 .38627626 .12199402 .30825807 .12199402 .24723816 .12399292 .17323303 .12998963 .12721253 .1349945 .08821106 .1559906-.0087890629 .31399537-.0087890629 .39698792-.0087890629 .47698976 .02520752 .5469971 .07020569L.5549927 .064208988C.5549927 .048202516 .5549927 .032196046 .55599978 .016204834 .55799868 .0012054443 .57598879-.0047912599 .58799746-.0047912599 .61898806-.0047912599 .6899872 .016204834 .7409973 .032196046L.74598696 .03919983 .74198916 .05619812C.7220001 .05419922 .70399478 .048202516 .6839905 .048202516 .673996 .048202516 .6609955 .050201417 .6539917 .0592041 .6389923 .07620239 .6359863 .15222168 .6359863 .20223999 .6359863 .3642578 .6369934 .5733032 .6519928 .68733218L.6459961 .69433596 .55799868 .659317C.55599978 .47727967 .55400088 .2942505 .55400088 .11122131 .5 .079208377 .43998719 .052200319 .37799073 .052200319 .24598694 .052200319 .22399903 .13922119 .21598816 .16522217 .20599365 .19923401 .20199585 .23423767 .20199585 .26924134L.20999146 .54229739C.20999146 .55929568 .21598816 .6603241 .21798706 .67433169L.21099854 .6803131H.041992189L.033996583 .6733093Z"/>
<path id="font_10_9" d="M.022994996 .6513672C.036987306 .649353 .049987794 .6463623 .06298828 .6433563 .07199097 .6413574 .07998657 .6353607 .085998538 .62835696 .09599304 .61834719 .102996829 .60635378 .10899353 .5943451L.2579956 .29930116C.2579956 .19927979 .2579956 .0982666 .25498963-.0017547608L.2659912-.0107421879 .35598756 .018249512 .34700013 .30630494C.42999269 .4343109 .5039978 .5303345 .61499026 .675354L.61099246 .6933594 .526001 .6763611C.48999024 .619339 .4059906 .47431947 .397995 .46032716 .3849945 .4373169 .34199525 .36730958 .33898927 .3623047 .33599855 .3572998 .33198548 .353302 .32798768 .353302 .32199098 .353302 .31698609 .3592987 .31599427 .36131288L.1749878 .6863556H.02999878L.022994996 .67936709V.6513672Z"/>
</defs>
<use data-text="+" xlink:href="#font_10_1" transform="matrix(37.185197,0,0,-37.18505,128.25067,134.89154)"/>
<use data-text="+" xlink:href="#font_10_1" transform="matrix(37.185197,0,0,-37.18505,384.70133,134.89154)"/>
<use data-text="+" xlink:href="#font_10_1" transform="matrix(37.185197,0,0,-37.18505,641.152,134.89154)"/>
<use data-text="G" xlink:href="#font_10_2" transform="matrix(21.519362,0,0,-21.519398,242.71637,130.75208)"/>
<use data-text="1" xlink:href="#font_10_3" transform="matrix(16.438399,0,0,-16.438426,259.1836,135.05304)"/>
<use data-text="(" xlink:href="#font_10_4" transform="matrix(21.519362,0,0,-21.519398,269.42619,130.75208)"/>
<use data-text="s" xlink:href="#font_10_5" transform="matrix(21.519362,0,0,-21.519398,278.9713,130.75208)"/>
<use data-text=")" xlink:href="#font_10_6" transform="matrix(21.519362,0,0,-21.519398,289.95829,130.75208)"/>
<use data-text="G" xlink:href="#font_10_2" transform="matrix(21.519362,0,0,-21.519398,499.16703,130.75208)"/>
<use data-text="2" xlink:href="#font_10_10" transform="matrix(16.438399,0,0,-16.438426,515.6343,134.98728)"/>
<use data-text="(" xlink:href="#font_10_4" transform="matrix(21.519362,0,0,-21.519398,525.87686,130.75208)"/>
<use data-text="s" xlink:href="#font_10_5" transform="matrix(21.519362,0,0,-21.519398,535.422,130.75208)"/>
<use data-text=")" xlink:href="#font_10_6" transform="matrix(21.519362,0,0,-21.519398,546.40896,130.75208)"/>
<use data-text="G" xlink:href="#font_10_2" transform="matrix(21.519362,0,0,-21.519398,755.6177,130.75208)"/>
<use data-text="3" xlink:href="#font_10_11" transform="matrix(16.438399,0,0,-16.438426,772.08499,134.88861)"/>
<use data-text="(" xlink:href="#font_10_4" transform="matrix(21.519362,0,0,-21.519398,782.3275,130.75208)"/>
<use data-text="s" xlink:href="#font_10_5" transform="matrix(21.519362,0,0,-21.519398,791.8727,130.75208)"/>
<use data-text=")" xlink:href="#font_10_6" transform="matrix(21.519362,0,0,-21.519398,802.8596,130.75208)"/>
<use data-text="G" xlink:href="#font_10_2" transform="matrix(21.519343,0,0,-21.519398,926.25399,130.75208)"/>
<use data-text="4" xlink:href="#font_10_14" transform="matrix(16.438384,0,0,-16.438426,942.7376,134.92151)"/>
<use data-text="(" xlink:href="#font_10_4" transform="matrix(21.519343,0,0,-21.519398,952.98019,130.75208)"/>
<use data-text="s" xlink:href="#font_10_5" transform="matrix(21.519343,0,0,-21.519398,962.5252,130.75208)"/>
<use data-text=")" xlink:href="#font_10_6" transform="matrix(21.519343,0,0,-21.519398,973.51217,130.75208)"/>
<use data-text="H" xlink:href="#font_10_12" transform="matrix(21.51913,0,0,-21.519398,840.7462,223.16042)"/>
<use data-text="1" xlink:href="#font_10_3" transform="matrix(16.438221,0,0,-16.438426,857.6007,227.46138)"/>
<use data-text="(" xlink:href="#font_10_4" transform="matrix(21.51913,0,0,-21.519398,867.84317,223.16042)"/>
<use data-text="s" xlink:href="#font_10_5" transform="matrix(21.51913,0,0,-21.519398,877.3882,223.16042)"/>
<use data-text=")" xlink:href="#font_10_6" transform="matrix(21.51913,0,0,-21.519398,888.375,223.16042)"/>
<use data-text="H" xlink:href="#font_10_12" transform="matrix(21.51913,0,0,-21.519398,498.9733,38.34369)"/>
<use data-text="2" xlink:href="#font_10_10" transform="matrix(16.438221,0,0,-16.438426,515.82778,42.57892)"/>
<use data-text="(" xlink:href="#font_10_4" transform="matrix(21.51913,0,0,-21.519398,526.0703,38.34369)"/>
<use data-text="s" xlink:href="#font_10_5" transform="matrix(21.51913,0,0,-21.519398,535.61526,38.34369)"/>
<use data-text=")" xlink:href="#font_10_6" transform="matrix(21.51913,0,0,-21.519398,546.60208,38.34369)"/>
<use data-text="H" xlink:href="#font_10_12" transform="matrix(21.51913,0,0,-21.519398,498.9733,315.5688)"/>
<use data-text="3" xlink:href="#font_10_11" transform="matrix(16.438221,0,0,-16.438426,515.82778,319.70536)"/>
<use data-text="(" xlink:href="#font_10_4" transform="matrix(21.51913,0,0,-21.519398,526.0703,315.5688)"/>
<use data-text="s" xlink:href="#font_10_5" transform="matrix(21.51913,0,0,-21.519398,535.61526,315.5688)"/>
<use data-text=")" xlink:href="#font_10_6" transform="matrix(21.51913,0,0,-21.519398,546.60208,315.5688)"/>
<path transform="matrix(1,0,0,-1,868.735,125.37074)" stroke-width=".75" stroke-linecap="round" stroke-linejoin="round" fill="none" stroke="#000000" d="M-626.8489-24.870196C-625.3822-25.112925-626.05459-24.285405-626.8303-25.533307-607.3639-24.447678-589.4445-24.465039-571.3008-25.38856-556.1859-25.865023-554.5803-24.071396-555.54989-10.440081-556.27297-3.755339-555.4786 2.381027-555.6773 9.836945-555.6529 25.465998-555.5059 24.990359-570.4142 25.715035-588.53659 25.527087-608.2188 24.261786-625.65658 24.351313-641.59426 24.452319-640.1094 24.068699-641.6771 10.595406-640.8964 3.280769-640.0674-3.462353-640.2417-10.23907-640.7881-24.788233-641.01467-25.683259-626.8489-24.870196Z"/>
<path transform="matrix(1,0,0,-1,868.735,125.37074)" stroke-width=".75" stroke-linecap="round" stroke-linejoin="round" fill="none" stroke="#000000" d="M-368.76185-25.879509C-370.43519-24.5855-370.52455-25.416758-369.17414-24.67384-350.41407-25.471306-333.3508-24.685124-314.83055-24.95592-298.43519-24.768815-299.35038-25.199736-298.4587-9.939792-299.92625-3.696922-298.94706 4.067438-298.74107 10.707937-299.2931 24.389973-299.54096 24.554345-314.79399 25.176386-332.36216 24.539498-351.34596 24.586567-369.51249 25.236039-383.77796 25.803889-384.1745 24.690022-383.80363 9.333539-384.16389 3.659597-384.82994-2.483661-384.19145-9.29307-385.23243-25.041655-385.11103-25.102133-368.76185-25.879509Z"/>
<path transform="matrix(1,0,0,-1,868.735,125.37074)" stroke-width=".75" stroke-linecap="round" stroke-linejoin="round" fill="none" stroke="#000000" d="M-114.0719-24.285666C-112.96326-25.0657-113.48427-25.521975-112.84322-25.737923-94.64725-25.133627-76.14122-24.164032-58.39581-24.177952-42.92745-24.990775-42.481115-24.210959-41.637468-10.876646-42.302179-3.757138-42.589769 3.160388-42.008214 9.33918-43.074419 25.04724-41.85283 24.374459-57.089899 24.852496-75.10607 25.542162-94.36816 25.394043-112.836788 24.780104-127.779888 24.886523-128.18259 25.74466-128.73416 9.832726-127.21975 3.810962-127.792278-3.20403-128.47559-10.331213-127.67159-25.01377-128.43575-25.871743-114.0719-24.285666Z"/>
<path transform="matrix(1,0,0,-1,868.735,125.37074)" stroke-width=".75" stroke-linecap="round" stroke-linejoin="round" fill="none" stroke="#000000" d="M58.330396-24.115374C56.853509-24.340826 56.95582-25.245196 56.557008-24.359013 75.48453-24.773715 94.07327-25.501257 114.01706-23.981022 128.94765-24.6073 127.916919-25.076146 127.57174-9.780663 127.9703-2.743944 128.76372 2.605478 127.48005 10.324263 127.23421 24.576533 128.87888 24.48043 113.599529 24.652403 95.232257 24.877947 76.47363 24.153918 57.384775 24.991534 43.399709 24.69811 43.037527 25.314854 41.64488 10.809786 43.432596 3.003496 43.29786-3.354938 42.851255-10.903245 42.191774-25.67678 41.574697-25.714882 58.330396-24.115374Z"/>
<path transform="matrix(1,0,0,-1,868.735,125.37074)" stroke-width=".75" stroke-linecap="round" stroke-linejoin="round" fill="none" stroke="#000000" d="M-27.427012-116.72751C-28.40649-118.032619-27.349646-116.93474-28.615258-117.50137-9.87349-117.695529 8.614334-117.33442 27.07566-117.64893 43.82088-117.75818 43.098417-116.76879 42.146524-103.0804 43.66122-95.45488 43.0181-89.33035 43.44328-82.58393 43.964757-67.46849 43.54572-68.1461 27.71762-67.94363 8.589465-67.7001-9.445605-66.610668-27.678006-66.6453-43.722497-66.563037-42.163454-67.529659-42.051115-82.35178-42.15792-89.70902-43.79714-95.58058-43.49508-101.615489-43.129865-118.10256-43.944616-116.790699-27.427012-116.72751Z"/>
<path transform="matrix(1,0,0,-1,868.735,125.37074)" stroke-width=".75" stroke-linecap="round" stroke-linejoin="round" fill="none" stroke="#000000" d="M-370.23439 68.398769C-369.23365 67.67198-370.63273 67.81568-369.53288 66.750537-351.09956 68.15597-331.7107 67.88178-314.1685 67.46436-299.6783 67.95457-299.64869 67.176059-299.5302 82.64851-299.3916 88.5488-298.12278 96.58801-299.6977 102.25993-298.53117 117.273838-299.4518 117.67744-313.56126 116.44155-331.84873 117.595829-351.56117 117.88294-370.4114 116.70504-384.61137 117.44171-384.74739 117.734828-384.35163 102.15032-384.94868 95.63977-384.19966 89.42531-385.0966 83.1534-385.0842 66.919269-385.35633 67.639179-370.23439 68.398769Z"/>
<path transform="matrix(1,0,0,-1,868.735,125.37074)" stroke-width=".75" stroke-linecap="round" stroke-linejoin="round" fill="none" stroke="#000000" d="M-370.53254-210.55399C-369.14857-209.98184-370.08024-209.34957-369.02046-210.20981-351.71403-210.20629-333.23719-208.87943-314.51246-209.42623-298.962-208.94443-299.0178-210.32382-297.88798-194.01413-298.022-188.2947-299.12034-181.78917-299.4546-174.71346-298.26789-158.98128-297.87236-160.66884-313.79258-159.0681-331.57298-159.14235-350.23536-160.09104-369.49275-159.3855-385.71815-160.06095-385.25559-160.69443-385.32875-175.46266-384.96839-181.9323-385.41566-188.63063-384.13713-194.02825-383.926-209.45757-385.2049-209.81594-370.53254-210.55399Z"/>
<path transform="matrix(1,0,0,-1,868.735,125.37074)" stroke-width=".75" stroke-linecap="round" stroke-linejoin="round" fill="none" stroke="#000000" d="M-705.7553 .715317C-705.6594 12.212724-714.0354 22.035937-725.6867 21.144448-737.8975 21.534714-748.0863 12.133411-747.1296-.807803-749.00527-11.973021-738.8251-21.23866-726.4306-21.37516-714.4032-20.71292-705.2353-12.400195-705.7553 .715317Z"/>
<path transform="matrix(1,0,0,-1,868.735,125.37074)" stroke-width=".75" stroke-linecap="round" stroke-linejoin="round" fill="none" stroke="#000000" d="M-449.17436 .679074C-447.46669 12.087453-458.51957 21.634207-470.55256 21.65252-482.91276 22.159462-492.39213 11.275084-492.44194-.332821-491.15547-11.456811-482.42869-22.233258-470.08934-21.47181-457.29737-22.131678-448.27445-12.555788-449.17436 .679074Z"/>
<path transform="matrix(1,0,0,-1,868.735,125.37074)" stroke-width=".75" stroke-linecap="round" stroke-linejoin="round" fill="none" stroke="#000000" d="M-191.89624-.060912C-192.12602 11.825851-201.28197 21.720992-213.53063 20.889134-225.01543 21.26891-234.36986 11.34755-235.335-.466325-235.96579-11.465117-224.5704-21.763222-214.43991-22.385045-201.27129-21.611578-191.499-11.533387-191.89624-.060912Z"/>
<path transform="matrix(1,0,0,-1,868.735,125.37074)" stroke-width=".75" stroke-linecap="round" stroke-linejoin="round" fill="none" stroke="#000000" d="M-811.983 .203042C-790.8-.327068-769.6073-.061503-748.75009 .032256"/>
<path transform="matrix(1,0,0,-1,868.735,125.37074)" stroke-width=".75" stroke-linecap="round" stroke-linejoin="round" fill="none" stroke="#000000" d="M-761.51187-7.959939C-758.23019-4.396455-753.19369-1.491828-748.4909-.438862-753.1303 1.052482-758.0978 3.696639-760.9093 8.374962"/>
<path transform="matrix(1,0,0,-1,868.735,125.37074)" stroke-width=".75" stroke-linecap="round" stroke-linejoin="round" fill="none" stroke="#000000" d="M-705.0713-.071286C-683.2322-.130362-662.8935 .140552-641.2814 .344871"/>
<path transform="matrix(1,0,0,-1,868.735,125.37074)" stroke-width=".75" stroke-linecap="round" stroke-linejoin="round" fill="none" stroke="#000000" d="M-653.7652-8.247382C-650.9823-3.757787-646.49917-1.540493-641.7887-.251582-646.3446 .999222-650.58108 4.267187-653.9865 8.001011"/>
<path transform="matrix(1,0,0,-1,868.735,125.37074)" stroke-width=".75" stroke-linecap="round" stroke-linejoin="round" fill="none" stroke="#000000" d="M-555.07717-.253993C-534.55148-.26239-513.0555 .34592-492.33433 .033155"/>
<path transform="matrix(1,0,0,-1,868.735,125.37074)" stroke-width=".75" stroke-linecap="round" stroke-linejoin="round" fill="none" stroke="#000000" d="M-504.93006-7.755855C-501.19514-4.431805-497.04289-1.599315-491.70259 .321775-497.3989 1.447783-501.0769 3.564636-505.04277 7.637947"/>
<path transform="matrix(1,0,0,-1,868.735,125.37074)" stroke-width=".75" stroke-linecap="round" stroke-linejoin="round" fill="none" stroke="#000000" d="M-448.4408-.251238C-427.34968 .143466-406.33946-.0445-385.38746 .31479"/>
<path transform="matrix(1,0,0,-1,868.735,125.37074)" stroke-width=".75" stroke-linecap="round" stroke-linejoin="round" fill="none" stroke="#000000" d="M-397.8324-8.20271C-394.50688-3.765165-389.72938-1.279902-385.25917-.265465-390.35426 1.253334-394.83454 4.054212-397.73756 8.431216"/>
<path transform="matrix(1,0,0,-1,868.735,125.37074)" stroke-width=".75" stroke-linecap="round" stroke-linejoin="round" fill="none" stroke="#000000" d="M-298.93193 .34272C-277.56349 .158538-256.791 .021413-235.60631 .371634"/>
<path transform="matrix(1,0,0,-1,868.735,125.37074)" stroke-width=".75" stroke-linecap="round" stroke-linejoin="round" fill="none" stroke="#000000" d="M-248.14685-8.469794C-245.36228-4.226808-240.81615-1.145214-235.34273-.349605-240.47539 1.196606-244.60118 3.799339-248.287 7.723893"/>
<path transform="matrix(1,0,0,-1,868.735,125.37074)" stroke-width=".75" stroke-linecap="round" stroke-linejoin="round" fill="none" stroke="#000000" d="M-192.206-.34377C-170.7876 .273738-149.63384 .021632-128.38315 .178453"/>
<path transform="matrix(1,0,0,-1,868.735,125.37074)" stroke-width=".75" stroke-linecap="round" stroke-linejoin="round" fill="none" stroke="#000000" d="M-141.49211-8.368199C-138.39153-4.378708-133.45598-1.322362-128.65476 .247423-133.94548 1.322995-137.90723 3.629362-141.22011 8.364789"/>
<path transform="matrix(1,0,0,-1,868.735,125.37074)" stroke-width=".75" stroke-linecap="round" stroke-linejoin="round" fill="none" stroke="#000000" d="M-42.589105 .445564C-14.410277 .358858 13.971676-.267518 41.709936-.303823"/>
<path transform="matrix(1,0,0,-1,868.735,125.37074)" stroke-width=".75" stroke-linecap="round" stroke-linejoin="round" fill="none" stroke="#000000" d="M29.578988-8.262271C32.94158-3.817237 37.491579-1.17845 42.345525 .321851 37.540594 1.033127 32.93735 3.963148 29.905274 7.978082"/>
<path transform="matrix(1,0,0,-1,868.735,125.37074)" stroke-width=".75" stroke-linecap="round" stroke-linejoin="round" fill="none" stroke="#000000" d="M127.927188 .01377C156.24832-.070779 185.11429-.320427 212.9311-.286422"/>
<path transform="matrix(1,0,0,-1,868.735,125.37074)" stroke-width=".75" stroke-linecap="round" stroke-linejoin="round" fill="none" stroke="#000000" d="M200.74558-8.329705C204.09352-3.614784 208.14046-1.5262 212.91593-.174296 208.00055 1.041338 204.06426 3.602718 200.18878 8.287518"/>
<path transform="matrix(1,0,0,-1,868.735,125.37074)" stroke-width=".75" stroke-linecap="round" stroke-linejoin="round" fill="none" stroke="#000000" d="M-.344867 .019462C.247639 31.0744 .007048 61.883325-.188166 92.85181-99.36883 92.73861-199.74153 92.7014-299.1381 92.61553"/>
<path transform="matrix(1,0,0,-1,868.735,125.37074)" stroke-width=".75" stroke-linecap="round" stroke-linejoin="round" fill="none" stroke="#000000" d="M-286.10484 100.08194C-289.6906 96.08281-294.1184 93.321437-298.71809 92.79232-294.05574 90.860469-289.8802 88.44977-286.3781 84.190639"/>
<path transform="matrix(1,0,0,-1,868.735,125.37074)" stroke-width=".75" stroke-linecap="round" stroke-linejoin="round" fill="none" stroke="#000000" d="M-384.9822 92.247287C-413.3278 92.263919-441.2574 92.14957-469.80516 92.55816-470.44035 68.6113-469.87004 45.843568-469.68785 21.582137"/>
<path transform="matrix(1,0,0,-1,868.735,125.37074)" stroke-width=".75" stroke-linecap="round" stroke-linejoin="round" fill="none" stroke="#000000" d="M-478.2806 34.790304C-473.88768 31.64865-470.84257 26.999272-469.65919 22.458682-468.7471 27.024979-465.9447 31.351155-461.73234 34.60638"/>
<path transform="matrix(1,0,0,-1,868.735,125.37074)" stroke-width=".75" stroke-linecap="round" stroke-linejoin="round" fill="none" stroke="#000000" d="M170.40322-.190617C170.53395-30.8201 170.22849-61.576635 170.34665-92.15109 128.15419-92.18729 85.26961-92.836238 42.958139-92.04362"/>
<path transform="matrix(1,0,0,-1,868.735,125.37074)" stroke-width=".75" stroke-linecap="round" stroke-linejoin="round" fill="none" stroke="#000000" d="M55.70835-84.44642C52.419-88.0248 47.39591-90.983409 42.250959-92.25467 47.317579-93.906208 52.12221-96.05713 55.020425-100.512538"/>
<path transform="matrix(1,0,0,-1,868.735,125.37074)" stroke-width=".75" stroke-linecap="round" stroke-linejoin="round" fill="none" stroke="#000000" d="M-42.791406-92.05942C-99.92374-92.210269-156.27884-92.26895-213.9067-92.64072-213.99413-69.16892-213.49089-45.710008-213.49654-21.854039"/>
<path transform="matrix(1,0,0,-1,868.735,125.37074)" stroke-width=".75" stroke-linecap="round" stroke-linejoin="round" fill="none" stroke="#000000" d="M-205.8064-34.78038C-209.9463-31.622416-212.1845-26.715804-213.63195-22.256585-214.82973-26.851407-217.44443-31.356818-221.70499-34.774606"/>
<path transform="matrix(1,0,0,-1,868.735,125.37074)" stroke-width=".75" stroke-linecap="round" stroke-linejoin="round" fill="none" stroke="#000000" d="M170.26772-.110486C170.82498-61.745676 170.66802-123.45962 170.44908-184.58589 13.661174-185.09157-142.42102-185.09377-299.21693-184.73903"/>
<path transform="matrix(1,0,0,-1,868.735,125.37074)" stroke-width=".75" stroke-linecap="round" stroke-linejoin="round" fill="none" stroke="#000000" d="M-286.77653-177.05027C-289.2216-180.49005-293.94114-184.08597-298.71739-184.87592-294.26963-186.16576-289.83729-189.27007-286.21223-192.79521"/>
<path transform="matrix(1,0,0,-1,868.735,125.37074)" stroke-width=".75" stroke-linecap="round" stroke-linejoin="round" fill="none" stroke="#000000" d="M-385.00736-184.57657C-498.3842-184.96289-612.41189-184.72653-726.47756-184.75148-726.01199-130.6274-726.0901-75.918369-726.66659-21.78551"/>
<path transform="matrix(1,0,0,-1,868.735,125.37074)" stroke-width=".75" stroke-linecap="round" stroke-linejoin="round" fill="none" stroke="#000000" d="M-718.61618-34.264516C-722.01248-31.607834-724.9086-27.315567-726.67526-21.951968-727.4788-26.856383-730.0529-31.487843-734.9045-34.315599"/>
<path transform="matrix(1,0,0,-1,868.735,125.37074)" stroke-width=".75" stroke-linecap="round" stroke-linejoin="round" fill="none" stroke="#000000" d="M-626.6181-24.593962C-625.90719-25.853157-626.9252-24.263514-625.1788-25.399449-608.26589-24.266018-589.1076-25.483056-571.288-25.848204-555.97909-25.217406-555.42996-25.488175-554.7898-10.830807-555.64279-2.587579-554.918 3.791006-555.583 9.761592-554.4749 25.774384-555.06216 24.071187-571.0447 25.812249-589.4128 25.379664-608.23287 24.016966-625.1614 24.938309-640.67788 25.814658-641.08438 25.594574-641.4184 9.116465-640.2507 2.652581-641.2546-3.5506-641.2364-9.884028-640.50949-25.738984-641.3411-24.63022-626.6181-24.593962Z"/>
<path transform="matrix(1,0,0,-1,868.735,125.37074)" stroke-width=".75" stroke-linecap="round" stroke-linejoin="round" fill="none" stroke="#000000" d="M-368.84544-24.187552C-369.04899-24.01748-368.797-24.07782-368.76686-25.635439-351.03068-25.801262-332.40586-24.775624-313.1152-24.890393-299.65074-24.487732-298.71696-24.210253-299.5045-9.864787-298.70997-2.404977-299.60868 3.362938-299.14436 10.853208-298.4044 24.097912-299.19419 24.001778-314.65864 24.38869-332.57209 24.768048-351.9675 24.528042-370.37574 25.417035-384.60877 24.335345-383.67015 25.431826-384.83937 10.652288-383.84416 2.346684-385.38148-2.393121-384.16444-9.131369-385.27677-24.39169-385.37025-25.885422-368.84544-24.187552Z"/>
<path transform="matrix(1,0,0,-1,868.735,125.37074)" stroke-width=".75" stroke-linecap="round" stroke-linejoin="round" fill="none" stroke="#000000" d="M-112.96451-24.86996C-113.956798-24.299338-113.03889-25.72053-112.56041-24.780735-93.62721-25.46636-76.5186-25.096728-58.016809-24.295407-41.84127-25.77031-42.449804-25.906472-42.330747-10.119748-42.178396-3.936983-42.82665 2.7058-42.495615 9.953621-41.78638 25.418692-42.932447 24.771216-57.975584 24.436272-76.56852 24.023745-94.31292 25.385518-112.490558 25.019614-127.25151 25.892333-128.12044 25.402947-127.146808 10.364479-128.91625 4.243116-128.03925-2.943232-127.79819-9.291837-127.896-25.640435-128.21977-25.111382-112.96451-24.86996Z"/>
<path transform="matrix(1,0,0,-1,868.735,125.37074)" stroke-width=".75" stroke-linecap="round" stroke-linejoin="round" fill="none" stroke="#000000" d="M58.05266-25.612416C56.66236-24.339554 58.04397-25.594544 57.45379-25.073075 75.63377-25.619233 94.25265-25.4228 112.8647-24.394072 128.43425-25.23491 127.66376-25.821074 127.83341-9.73609 127.280559-3.764259 128.12363 4.075667 127.7579 9.465712 128.26226 25.665154 128.88002 25.25743 112.54091 25.307669 95.18661 25.457638 75.58425 25.491847 57.721368 25.592133 41.658487 24.364579 41.79206 24.806294 42.19792 9.796448 41.632204 2.598153 43.420755-3.698261 42.624303-9.444808 42.133489-25.012206 42.624158-24.073996 58.05266-25.612416Z"/>
<path transform="matrix(1,0,0,-1,868.735,125.37074)" stroke-width=".75" stroke-linecap="round" stroke-linejoin="round" fill="none" stroke="#000000" d="M-27.371165-117.34403C-28.868098-118.0579-28.37245-117.72473-27.167077-117.326198-9.219288-117.17234 9.003029-118.04477 28.501458-117.907489 42.433057-117.34792 42.583097-116.543888 43.61808-102.02728 42.272779-95.0063 42.76843-89.351879 42.145448-82.299488 43.294385-67.64675 43.67171-66.605487 27.063208-66.60193 9.801854-67.595058-10.283772-67.729999-28.520327-68.231807-42.358476-66.96631-43.865819-67.2984-43.832307-82.59023-43.915597-89.1885-43.74337-96.25973-42.854959-102.80069-43.39498-118.05729-42.19951-117.46703-27.371165-117.34403Z"/>
<path transform="matrix(1,0,0,-1,868.735,125.37074)" stroke-width=".75" stroke-linecap="round" stroke-linejoin="round" fill="none" stroke="#000000" d="M-370.61994 67.13446C-370.53486 67.143398-369.94453 67.21281-370.24195 67.83523-351.27513 66.85726-333.24177 68.0483-312.89418 66.56998-298.8677 66.79701-298.76399 66.56033-299.16313 82.76959-299.63697 89.24531-299.6712 96.5104-299.3697 102.98757-298.93763 117.27995-299.74058 117.515-313.41444 117.59526-331.96678 117.94557-350.81007 117.08072-369.41984 116.902408-384.7344 117.281719-384.26048 117.91376-384.3741 101.41089-385.06709 94.98796-384.31724 90.063198-385.19328 82.60714-384.47303 68.2942-384.4298 68.21445-370.61994 67.13446Z"/>
<path transform="matrix(1,0,0,-1,868.735,125.37074)" stroke-width=".75" stroke-linecap="round" stroke-linejoin="round" fill="none" stroke="#000000" d="M-369.83836-208.98316C-369.25599-210.04425-370.5596-209.37587-370.00093-210.38254-351.4806-210.59645-332.37648-209.22116-313.5626-210.27046-298.2481-210.70795-299.48707-210.08177-298.11415-195.37575-298.90919-187.5086-299.4366-182.21569-299.3086-174.93306-298.62977-158.93485-298.3369-160.12976-314.49867-159.4643-331.57649-159.4931-350.29176-160.41432-369.77085-160.41132-384.97084-159.05162-385.58537-159.15718-384.71617-174.92534-385.40843-180.776-385.39973-189.01738-385.25044-195.01767-384.80796-210.13919-385.45777-209.31975-369.83836-208.98316Z"/>
<path transform="matrix(1,0,0,-1,868.735,125.37074)" stroke-width=".75" stroke-linecap="round" stroke-linejoin="round" fill="none" stroke="#000000" d="M-704.07608 .715923C-704.1696 12.27134-713.88949 21.356394-726.2484 21.75143-739.36386 20.721726-747.82839 12.289563-748.0184-.917071-748.25027-12.40615-738.64956-21.855868-727.1804-22.564137-714.78939-22.607117-704.47177-12.336254-704.07608 .715923Z"/>
<path transform="matrix(1,0,0,-1,868.735,125.37074)" stroke-width=".75" stroke-linecap="round" stroke-linejoin="round" fill="none" stroke="#000000" d="M-448.1073-.893927C-447.69358 12.470697-457.93525 22.584399-469.32997 22.212174-481.60008 21.333527-491.93775 12.627467-490.81083 .684861-491.582-12.753262-482.0965-21.444745-469.42277-21.299504-457.8205-22.25526-447.9407-12.037674-448.1073-.893927Z"/>
<path transform="matrix(1,0,0,-1,868.735,125.37074)" stroke-width=".75" stroke-linecap="round" stroke-linejoin="round" fill="none" stroke="#000000" d="M-192.02301 .570051C-192.57634 12.629166-202.321 20.95596-213.66693 22.418259-226.41004 22.158997-234.34244 12.277053-235.44351-.30206-236.13484-11.66917-225.9202-21.61091-212.80112-22.505068-202.21414-22.557089-192.68387-11.200999-192.02301 .570051Z"/>
<path transform="matrix(1,0,0,-1,868.735,125.37074)" stroke-width=".75" stroke-linecap="round" stroke-linejoin="round" fill="none" stroke="#000000" d="M-812.1009-.382941C-790.93429 .265837-769.9301 .279723-748.4374 .243067"/>
<path transform="matrix(1,0,0,-1,868.735,125.37074)" stroke-width=".75" stroke-linecap="round" stroke-linejoin="round" fill="none" stroke="#000000" d="M-761.4487-8.372433C-758.1648-4.310595-753.33-1.382523-748.6383-.322711-753.81588 .848927-758.26559 3.763295-761.03927 8.139153"/>
<path transform="matrix(1,0,0,-1,868.735,125.37074)" stroke-width=".75" stroke-linecap="round" stroke-linejoin="round" fill="none" stroke="#000000" d="M-704.90658-.352569C-683.79879-.304883-662.2227 .322633-641.8077-.415891"/>
<path transform="matrix(1,0,0,-1,868.735,125.37074)" stroke-width=".75" stroke-linecap="round" stroke-linejoin="round" fill="none" stroke="#000000" d="M-654.40206-7.847653C-650.5155-4.145012-646.7914-.927997-641.585 .363161-646.47866 1.205231-650.79739 4.260746-653.6225 8.014664"/>
<path transform="matrix(1,0,0,-1,868.735,125.37074)" stroke-width=".75" stroke-linecap="round" stroke-linejoin="round" fill="none" stroke="#000000" d="M-555.51889 .264552C-534.3662-.04238-512.80087-.393612-491.64454 .011594"/>
<path transform="matrix(1,0,0,-1,868.735,125.37074)" stroke-width=".75" stroke-linecap="round" stroke-linejoin="round" fill="none" stroke="#000000" d="M-504.4258-8.383947C-501.15455-3.730671-496.72343-1.123327-492.1755 .213964-496.67994 1.035702-501.219 4.076098-504.2551 8.153815"/>
<path transform="matrix(1,0,0,-1,868.735,125.37074)" stroke-width=".75" stroke-linecap="round" stroke-linejoin="round" fill="none" stroke="#000000" d="M-448.58918-.158298C-427.38099 .340784-406.0454 .319399-385.06663 .20853"/>
<path transform="matrix(1,0,0,-1,868.735,125.37074)" stroke-width=".75" stroke-linecap="round" stroke-linejoin="round" fill="none" stroke="#000000" d="M-397.9379-8.388413C-394.44624-3.823536-389.52449-1.123379-384.63529-.311504-390.26173 1.40052-394.69157 3.745904-397.5178 8.105818"/>
<path transform="matrix(1,0,0,-1,868.735,125.37074)" stroke-width=".75" stroke-linecap="round" stroke-linejoin="round" fill="none" stroke="#000000" d="M-299.03733 .330737C-277.69047 .225642-256.3361-.184696-235.8388-.060518"/>
<path transform="matrix(1,0,0,-1,868.735,125.37074)" stroke-width=".75" stroke-linecap="round" stroke-linejoin="round" fill="none" stroke="#000000" d="M-248.00342-7.935887C-244.72296-4.044952-240.14225-1.527133-235.78813-.39333-240.67929 .760379-245.10755 4.267998-248.54569 8.485651"/>
<path transform="matrix(1,0,0,-1,868.735,125.37074)" stroke-width=".75" stroke-linecap="round" stroke-linejoin="round" fill="none" stroke="#000000" d="M-191.54463-.173481C-170.96649 .34928-149.64827 .212844-128.12477 .333239"/>
<path transform="matrix(1,0,0,-1,868.735,125.37074)" stroke-width=".75" stroke-linecap="round" stroke-linejoin="round" fill="none" stroke="#000000" d="M-140.97457-8.347483C-137.73445-3.778362-133.95203-.857573-128.17676-.382917-133.50557 1.225624-138.31073 3.842725-140.80295 7.727399"/>
<path transform="matrix(1,0,0,-1,868.735,125.37074)" stroke-width=".75" stroke-linecap="round" stroke-linejoin="round" fill="none" stroke="#000000" d="M-42.32002 .007406C-14.181701 .049457 13.56321-.112145 42.00504 .193658"/>
<path transform="matrix(1,0,0,-1,868.735,125.37074)" stroke-width=".75" stroke-linecap="round" stroke-linejoin="round" fill="none" stroke="#000000" d="M29.449294-7.950698C32.28467-4.339688 36.873918-1.501841 42.166936-.338949 37.105276 1.038328 32.969655 4.178324 29.078858 7.632391"/>
<path transform="matrix(1,0,0,-1,868.735,125.37074)" stroke-width=".75" stroke-linecap="round" stroke-linejoin="round" fill="none" stroke="#000000" d="M128.26776 .204774C156.88303 .337681 184.6739 .111084 213.16587-.243274"/>
<path transform="matrix(1,0,0,-1,868.735,125.37074)" stroke-width=".75" stroke-linecap="round" stroke-linejoin="round" fill="none" stroke="#000000" d="M200.30704-8.170102C203.47307-3.949308 207.80092-1.549577 213.4317-.381331 208.1277 1.434603 203.27094 3.590082 200.59923 8.440715"/>
<path transform="matrix(1,0,0,-1,868.735,125.37074)" stroke-width=".75" stroke-linecap="round" stroke-linejoin="round" fill="none" stroke="#000000" d="M-.404922 .132164C-.109471 30.481087-.169399 61.506975-.380453 92.31686-99.480548 92.84602-199.45604 92.08347-298.82859 92.67561"/>
<path transform="matrix(1,0,0,-1,868.735,125.37074)" stroke-width=".75" stroke-linecap="round" stroke-linejoin="round" fill="none" stroke="#000000" d="M-286.84336 100.4411C-289.6318 96.56024-294.43473 93.57306-299.57038 92.68767-294.3633 91.00507-290.0514 88.1455-286.79225 84.78977"/>
<path transform="matrix(1,0,0,-1,868.735,125.37074)" stroke-width=".75" stroke-linecap="round" stroke-linejoin="round" fill="none" stroke="#000000" d="M-384.6573 92.18128C-412.96006 92.338649-441.36659 92.068988-470.16426 92.37368-469.60365 68.727939-470.33964 45.272268-470.32826 21.725735"/>
<path transform="matrix(1,0,0,-1,868.735,125.37074)" stroke-width=".75" stroke-linecap="round" stroke-linejoin="round" fill="none" stroke="#000000" d="M-478.42439 34.743459C-474.04209 31.10143-471.38725 27.323563-470.08998 21.581915-468.5695 26.869233-466.17875 31.13069-462.0869 34.481584"/>
<path transform="matrix(1,0,0,-1,868.735,125.37074)" stroke-width=".75" stroke-linecap="round" stroke-linejoin="round" fill="none" stroke="#000000" d="M170.35774-.34492C170.65328-30.536877 170.8058-61.785638 170.8719-91.99209 127.61747-92.48474 85.26008-92.77213 42.723894-92.05569"/>
<path transform="matrix(1,0,0,-1,868.735,125.37074)" stroke-width=".75" stroke-linecap="round" stroke-linejoin="round" fill="none" stroke="#000000" d="M55.374738-83.956119C51.817499-88.85581 47.81436-91.138088 42.716695-92.12683 47.33467-93.73241 52.385377-96.04229 55.36358-100.61245"/>
<path transform="matrix(1,0,0,-1,868.735,125.37074)" stroke-width=".75" stroke-linecap="round" stroke-linejoin="round" fill="none" stroke="#000000" d="M-43.239057-92.838268C-100.19043-92.192348-156.53298-92.02848-213.15499-92.19146-213.14392-69.23108-213.18651-45.089925-213.73392-22.418923"/>
<path transform="matrix(1,0,0,-1,868.735,125.37074)" stroke-width=".75" stroke-linecap="round" stroke-linejoin="round" fill="none" stroke="#000000" d="M-205.68973-34.493684C-209.31838-31.936583-212.3918-26.925263-213.12923-22.338788-215.01915-26.940649-217.5578-31.740489-221.27214-34.41501"/>
<path transform="matrix(1,0,0,-1,868.735,125.37074)" stroke-width=".75" stroke-linecap="round" stroke-linejoin="round" fill="none" stroke="#000000" d="M170.89942-.050424C170.21192-61.619565 170.87017-123.54034 170.3321-184.38951 14.127991-184.9817-142.812-185.2674-299.08717-185.14264"/>
<path transform="matrix(1,0,0,-1,868.735,125.37074)" stroke-width=".75" stroke-linecap="round" stroke-linejoin="round" fill="none" stroke="#000000" d="M-286.49449-176.78296C-290.02366-181.1835-293.9782-183.60887-299.22663-185.21454-294.11756-185.75949-289.75505-189.06748-286.5119-193.06818"/>
<path transform="matrix(1,0,0,-1,868.735,125.37074)" stroke-width=".75" stroke-linecap="round" stroke-linejoin="round" fill="none" stroke="#000000" d="M-384.89787-184.97954C-498.42204-185.23889-612.811-184.92119-726.567-184.52948-726.72329-130.59598-726.212-76.50575-726.30789-21.730109"/>
<path transform="matrix(1,0,0,-1,868.735,125.37074)" stroke-width=".75" stroke-linecap="round" stroke-linejoin="round" fill="none" stroke="#000000" d="M-718.7041-34.394704C-722.5247-31.56936-725.7015-27.338454-726.5613-22.006728-728.0384-26.817063-730.8007-31.392796-734.6579-34.993715"/>
<path transform="matrix(1,0,0,-1,868.735,125.37074)" stroke-width=".75" stroke-linecap="round" stroke-linejoin="round" fill="none" stroke="#000000" d="M-626.7783-25.06889C-626.13186-24.787632-626.9299-25.903349-626.5353-25.406979-607.70498-25.362467-588.37466-25.297936-570.23367-24.979268-555.4669-25.279747-555.1194-24.032011-556.3894-10.815878-555.2187-2.982817-554.95 2.411237-555.46829 10.253007-555.3356 24.822834-555.7662 25.108119-570.76358 24.594437-588.39199 25.25848-607.921 24.815625-625.12179 24.747756-640.36209 24.558575-640.8814 24.67471-640.7234 9.443481-640.858 3.000039-640.47189-2.813601-640.4322-10.57568-640.3785-24.220496-641.1141-25.298029-626.7783-25.06889Z"/>
<path transform="matrix(1,0,0,-1,868.735,125.37074)" stroke-width=".75" stroke-linecap="round" stroke-linejoin="round" fill="none" stroke="#000000" d="M-369.6919-24.343413C-369.34736-24.728123-369.05668-25.09789-369.48817-24.97456-352.01197-25.913737-333.1179-24.936926-313.9115-25.373744-298.8546-24.679102-299.5604-25.47426-298.5014-10.045768-298.31809-3.001228-298.69514 2.787137-299.45683 9.425592-298.65757 25.284285-299.2984 25.345192-314.32554 24.002654-332.78858 25.698502-350.9004 25.0244-368.67237 25.378144-383.7891 25.21274-385.22254 24.384366-384.52076 10.083946-384.50733 4.033525-383.9849-2.589088-385.39537-10.798245-384.1371-24.748759-385.05186-24.532029-369.6919-24.343413Z"/>
<path transform="matrix(1,0,0,-1,868.735,125.37074)" stroke-width=".75" stroke-linecap="round" stroke-linejoin="round" fill="none" stroke="#000000" d="M-112.96116-25.43139C-113.80723-25.658518-113.35077-24.984686-113.45705-24.363898-94.52842-24.63865-75.24027-24.646183-57.515314-25.811114-43.164369-25.005543-42.249876-24.926375-42.51468-10.815249-41.60922-3.682724-41.959634 2.553189-42.156965 10.154175-43.238866 25.813155-42.784128 25.121304-57.235967 24.429236-75.435688 24.615904-93.70682 24.194924-113.2472 25.026587-128.08806 25.104418-128.31288 25.217398-128.70749 9.878497-127.51192 3.467832-128.23545-3.285462-127.59008-10.51186-129.03325-24.64242-128.58563-24.563109-112.96116-25.43139Z"/>
<path transform="matrix(1,0,0,-1,868.735,125.37074)" stroke-width=".75" stroke-linecap="round" stroke-linejoin="round" fill="none" stroke="#000000" d="M56.956239-24.552256C57.986036-25.130789 58.026-24.904036 57.4666-24.306759 76.15664-24.39125 95.03873-25.529599 113.09695-25.243514 128.0528-25.600413 127.208179-24.760268 127.31205-10.663086 128.73268-3.48495 127.561748 3.18377 128.74768 9.527369 128.12282 25.858063 127.89053 25.577345 112.896289 24.673644 94.56609 24.940085 75.450649 24.108063 56.998655 24.410012 43.291467 24.856698 42.519945 25.436547 41.72632 10.394946 41.60996 3.140239 42.963148-2.784985 42.750268-10.261345 41.98197-24.91904 42.2453-24.613274 56.956239-24.552256Z"/>
<path transform="matrix(1,0,0,-1,868.735,125.37074)" stroke-width=".75" stroke-linecap="round" stroke-linejoin="round" fill="none" stroke="#000000" d="M-28.042559-117.901638C-28.530779-116.90046-28.39832-116.42236-28.612778-117.917179-9.754105-117.15802 9.277839-117.84027 27.21588-117.53695 43.74083-116.866588 42.94259-116.612407 42.517557-101.970607 43.97111-95.71847 42.47927-89.6411 43.54945-82.98798 42.849355-66.55141 43.381605-66.93141 28.79138-67.07845 8.47837-67.061779-8.515711-68.27486-28.382605-67.55765-42.272-67.04627-43.55122-66.61077-43.166315-82.26965-43.3419-89.492748-43.879018-95.96639-42.546285-101.53073-43.72226-116.67822-43.328424-116.58562-28.042559-117.901638Z"/>
<path transform="matrix(1,0,0,-1,868.735,125.37074)" stroke-width=".75" stroke-linecap="round" stroke-linejoin="round" fill="none" stroke="#000000" d="M-369.78068 68.41238C-369.19145 67.91154-369.58308 68.107837-368.87574 67.85312-351.54759 67.62647-331.90846 67.83713-312.85456 67.07234-298.06773 67.385829-298.70808 67.946208-298.1946 82.55918-297.9175 89.82782-297.8108 96.031589-298.05064 101.869319-298.6165 117.348659-298.55143 116.54117-313.1531 118.14842-333.24446 117.734348-351.65495 117.710948-370.3878 117.06208-385.1785 117.68986-385.3175 116.490848-384.4924 101.6651-384.20533 94.95539-383.8903 88.69815-385.4638 82.98543-383.96357 68.04429-383.9322 68.11184-369.78068 68.41238Z"/>
<path transform="matrix(1,0,0,-1,868.735,125.37074)" stroke-width=".75" stroke-linecap="round" stroke-linejoin="round" fill="none" stroke="#000000" d="M-370.16447-210.6614C-368.97099-210.30606-368.96635-209.65006-370.6216-209.30319-351.75047-209.8844-332.31236-209.1108-313.79194-209.31623-299.1365-210.23374-299.68043-209.67499-298.7796-195.49755-299.60926-187.75444-298.7184-180.92742-298.7986-174.40052-297.91868-159.30895-298.70179-159.61342-314.3776-159.99611-332.45744-160.1871-351.02384-160.45716-370.15263-160.01949-384.15919-160.47217-385.06227-159.01718-385.21607-175.73892-385.08583-181.96199-384.6174-188.87497-385.38038-195.68167-384.447-209.1693-384.48295-209.06882-370.16447-210.6614Z"/>
<path transform="matrix(1,0,0,-1,868.735,125.37074)" stroke-width=".75" stroke-linecap="round" stroke-linejoin="round" fill="none" stroke="#000000" d="M-705.3105 .734594C-703.9797 12.825271-713.9742 22.003214-726.0897 22.499482-738.44638 21.49249-748.5461 12.87831-747.3636-.394573-748.44906-12.656614-739.3453-22.09722-725.91647-22.124327-714.1735-22.092509-705.2866-12.708433-705.3105 .734594Z"/>
<path transform="matrix(1,0,0,-1,868.735,125.37074)" stroke-width=".75" stroke-linecap="round" stroke-linejoin="round" fill="none" stroke="#000000" d="M-448.46797 .734103C-448.37089 12.588878-457.27705 21.804793-470.6622 20.824509-481.97187 22.081488-491.79676 12.464744-491.41685 .746216-491.27003-12.753393-482.1671-20.875033-469.80729-22.457232-458.0082-22.30775-448.48139-12.393558-448.46797 .734103Z"/>
<path transform="matrix(1,0,0,-1,868.735,125.37074)" stroke-width=".75" stroke-linecap="round" stroke-linejoin="round" fill="none" stroke="#000000" d="M-191.80146-.413279C-192.72875 11.432114-200.76634 21.224965-213.45758 21.30836-224.52774 21.851368-234.94937 11.492049-235.47856 .932424-234.4046-11.714437-225.26158-20.973847-212.89458-20.737597-202.2682-22.533724-191.58406-11.221517-191.80146-.413279Z"/>
<path transform="matrix(1,0,0,-1,868.735,125.37074)" stroke-width=".75" stroke-linecap="round" stroke-linejoin="round" fill="none" stroke="#000000" d="M-812.1298 .399452C-790.86849 .146171-769.23458 .097791-748.52169 .153303"/>
<path transform="matrix(1,0,0,-1,868.735,125.37074)" stroke-width=".75" stroke-linecap="round" stroke-linejoin="round" fill="none" stroke="#000000" d="M-760.8999-8.477392C-757.9068-3.946758-753.286-1.055067-748.8246-.445128-753.936 1.244285-758.1755 4.274269-761.5623 8.060331"/>
<path transform="matrix(1,0,0,-1,868.735,125.37074)" stroke-width=".75" stroke-linecap="round" stroke-linejoin="round" fill="none" stroke="#000000" d="M-704.55917-.088002C-683.7829-.266238-662.3804-.407746-640.95657-.312295"/>
<path transform="matrix(1,0,0,-1,868.735,125.37074)" stroke-width=".75" stroke-linecap="round" stroke-linejoin="round" fill="none" stroke="#000000" d="M-653.6657-7.750427C-651.30648-4.185732-646.1326-1.583911-640.96517 .266045-646.4636 .748395-650.6264 4.24536-653.9828 7.699444"/>
<path transform="matrix(1,0,0,-1,868.735,125.37074)" stroke-width=".75" stroke-linecap="round" stroke-linejoin="round" fill="none" stroke="#000000" d="M-555.2678 .210116C-534.4463 .328861-513.0506-.123351-492.04866-.119272"/>
<path transform="matrix(1,0,0,-1,868.735,125.37074)" stroke-width=".75" stroke-linecap="round" stroke-linejoin="round" fill="none" stroke="#000000" d="M-505.01234-8.397463C-501.36653-3.797867-497.4068-1.510683-491.98374-.121721-497.0466 1.426562-501.75486 3.821289-505.1097 8.078432"/>
<path transform="matrix(1,0,0,-1,868.735,125.37074)" stroke-width=".75" stroke-linecap="round" stroke-linejoin="round" fill="none" stroke="#000000" d="M-448.534 .249408C-427.5931 .027925-406.456-.133304-385.19447-.415747"/>
<path transform="matrix(1,0,0,-1,868.735,125.37074)" stroke-width=".75" stroke-linecap="round" stroke-linejoin="round" fill="none" stroke="#000000" d="M-397.80348-8.484387C-394.87388-3.733685-389.5844-1.31573-385.1553-.070696-389.80693 1.103228-394.3442 3.641538-397.1904 8.207012"/>
<path transform="matrix(1,0,0,-1,868.735,125.37074)" stroke-width=".75" stroke-linecap="round" stroke-linejoin="round" fill="none" stroke="#000000" d="M-298.64726 .283564C-277.90519-.305791-257.03849 .348325-235.33438 .004179"/>
<path transform="matrix(1,0,0,-1,868.735,125.37074)" stroke-width=".75" stroke-linecap="round" stroke-linejoin="round" fill="none" stroke="#000000" d="M-248.02832-7.929733C-244.77819-4.013779-240.99086-1.22544-235.90634-.338058-240.57025 .911612-245.35427 3.564878-248.0934 7.723105"/>
<path transform="matrix(1,0,0,-1,868.735,125.37074)" stroke-width=".75" stroke-linecap="round" stroke-linejoin="round" fill="none" stroke="#000000" d="M-192.1597 .412012C-170.55733-.295911-150.04677 .26039-128.45363-.395762"/>
<path transform="matrix(1,0,0,-1,868.735,125.37074)" stroke-width=".75" stroke-linecap="round" stroke-linejoin="round" fill="none" stroke="#000000" d="M-141.07631-8.035789C-137.67285-4.073547-133.66695-1.029637-128.53803-.13519-133.56786 .832747-138.00847 4.317519-141.4676 7.987818"/>
<path transform="matrix(1,0,0,-1,868.735,125.37074)" stroke-width=".75" stroke-linecap="round" stroke-linejoin="round" fill="none" stroke="#000000" d="M-42.850076 .293908C-14.009818-.279976 14.358755-.385921 42.207658 .15657"/>
<path transform="matrix(1,0,0,-1,868.735,125.37074)" stroke-width=".75" stroke-linecap="round" stroke-linejoin="round" fill="none" stroke="#000000" d="M29.35469-8.014082C32.956266-3.727792 36.899778-1.60524 42.28224-.135756 37.370969 .764972 32.7338 4.031234 29.331776 8.152566"/>
<path transform="matrix(1,0,0,-1,868.735,125.37074)" stroke-width=".75" stroke-linecap="round" stroke-linejoin="round" fill="none" stroke="#000000" d="M128.40705-.352894C156.80512 .12117 184.78337 .00707 213.12868 .030742"/>
<path transform="matrix(1,0,0,-1,868.735,125.37074)" stroke-width=".75" stroke-linecap="round" stroke-linejoin="round" fill="none" stroke="#000000" d="M200.75426-7.970391C203.76444-3.572731 208.60428-1.499938 212.78844-.196749 208.36894 1.015822 203.69997 4.397641 200.91077 8.403333"/>
<path transform="matrix(1,0,0,-1,868.735,125.37074)" stroke-width=".75" stroke-linecap="round" stroke-linejoin="round" fill="none" stroke="#000000" d="M.067821-.025959C-.209138 30.584925-.184546 61.308996 .27591 92.48711-99.46609 92.09347-199.27297 92.623249-299.30094 92.32743"/>
<path transform="matrix(1,0,0,-1,868.735,125.37074)" stroke-width=".75" stroke-linecap="round" stroke-linejoin="round" fill="none" stroke="#000000" d="M-286.56745 100.074C-289.41395 96.7013-293.88047 93.455417-299.2097 92.62607-294.37513 91.03569-289.7608 88.09103-286.15046 84.26152"/>
<path transform="matrix(1,0,0,-1,868.735,125.37074)" stroke-width=".75" stroke-linecap="round" stroke-linejoin="round" fill="none" stroke="#000000" d="M-384.43043 92.4798C-413.31459 92.32349-441.6 92.57488-469.72535 92.18536-469.57258 69.169467-469.95875 45.316034-470.02339 22.004565"/>
<path transform="matrix(1,0,0,-1,868.735,125.37074)" stroke-width=".75" stroke-linecap="round" stroke-linejoin="round" fill="none" stroke="#000000" d="M-477.80534 35.096078C-474.19358 31.064393-471.1251 26.795266-470.30598 21.815905-468.89469 27.176856-465.89436 31.16809-461.76188 34.631906"/>
<path transform="matrix(1,0,0,-1,868.735,125.37074)" stroke-width=".75" stroke-linecap="round" stroke-linejoin="round" fill="none" stroke="#000000" d="M170.94605 .449397C170.46039-31.067133 170.95928-61.21929 170.6556-92.40582 127.95367-92.23663 85.181018-92.753429 42.46565-92.50375"/>
<path transform="matrix(1,0,0,-1,868.735,125.37074)" stroke-width=".75" stroke-linecap="round" stroke-linejoin="round" fill="none" stroke="#000000" d="M55.16824-84.559047C52.476205-88.594028 47.741174-90.911968 42.44017-92.19745 47.581975-93.79498 51.82306-96.5495 55.551385-100.05754"/>
<path transform="matrix(1,0,0,-1,868.735,125.37074)" stroke-width=".75" stroke-linecap="round" stroke-linejoin="round" fill="none" stroke="#000000" d="M-43.00668-92.311267C-100.22392-92.66785-156.28787-92.59337-213.37075-92.11344-213.3487-68.82123-213.52748-45.632528-213.78206-22.425517"/>
<path transform="matrix(1,0,0,-1,868.735,125.37074)" stroke-width=".75" stroke-linecap="round" stroke-linejoin="round" fill="none" stroke="#000000" d="M-205.04953-34.24191C-209.7492-31.422417-212.77968-27.01066-213.50473-22.270613-215.13466-27.154078-217.84188-31.285437-221.61643-34.91902"/>
<path transform="matrix(1,0,0,-1,868.735,125.37074)" stroke-width=".75" stroke-linecap="round" stroke-linejoin="round" fill="none" stroke="#000000" d="M170.53267 .056004C170.27863-61.55509 170.36284-123.077678 171.07527-185.25135 14.337548-185.23162-142.2062-184.62534-298.70475-184.98796"/>
<path transform="matrix(1,0,0,-1,868.735,125.37074)" stroke-width=".75" stroke-linecap="round" stroke-linejoin="round" fill="none" stroke="#000000" d="M-286.38307-176.65488C-289.58485-180.84836-294.1896-183.83594-299.15675-184.6479-294.5454-186.42314-289.53797-188.8395-286.92649-192.59624"/>
<path transform="matrix(1,0,0,-1,868.735,125.37074)" stroke-width=".75" stroke-linecap="round" stroke-linejoin="round" fill="none" stroke="#000000" d="M-385.17927-184.36896C-498.39088-184.84908-612.17166-185.14459-726.8417-184.9375-726.1878-130.26628-726.05636-76.714427-726.7455-22.350604"/>
<path transform="matrix(1,0,0,-1,868.735,125.37074)" stroke-width=".75" stroke-linecap="round" stroke-linejoin="round" fill="none" stroke="#000000" d="M-718.7677-34.66759C-722.12716-31.18769-725.4455-27.019387-726.83096-21.81162-727.4736-26.723477-730.6527-31.21588-734.751-34.75079"/>
<path transform="matrix(1,0,0,-1,868.735,125.37074)" stroke-width=".75" stroke-linecap="round" stroke-linejoin="round" fill="none" stroke="#000000" d="M-625.9057-24.908535C-626.82199-24.620768-625.75857-24.078038-625.8272-24.948317-606.56649-25.596385-589.5806-24.76682-570.47006-24.08252-556.35488-25.096707-554.95449-24.44755-555.8018-9.358273-556.17819-2.888255-556.3721 3.040585-556.1904 9.084471-554.50399 24.18551-556.2583 24.684659-570.0384 25.677645-589.14358 25.37829-606.75228 25.292038-625.9303 25.526946-640.45779 24.75805-640.70187 25.657828-641.95559 9.785503-641.6953 4.270971-641.01339-2.631437-641.7087-9.456512-641.24099-25.65046-641.8267-24.387282-625.9057-24.908535Z"/>
<path transform="matrix(1,0,0,-1,868.735,125.37074)" stroke-width=".75" stroke-linecap="round" stroke-linejoin="round" fill="none" stroke="#000000" d="M-370.49378-25.817315C-370.37263-24.372052-368.75498-24.376715-370.3968-24.794917-351.61888-25.526137-332.49855-24.074172-313.1386-25.214457-299.79017-25.40527-299.17497-24.224684-299.67308-10.84484-298.77293-2.595929-298.34809 3.626709-298.7295 10.206258-298.91273 25.069573-298.62849 25.174397-314.53099 24.305182-333.0908 24.181385-350.77967 24.062476-370.03593 25.505919-385.05503 24.1295-384.69288 24.759419-384.38844 10.525885-385.46369 3.283174-383.7444-2.742297-385.03623-10.60761-385.09266-24.856322-384.72694-24.003457-370.49378-25.817315Z"/>
<path transform="matrix(1,0,0,-1,868.735,125.37074)" stroke-width=".75" stroke-linecap="round" stroke-linejoin="round" fill="none" stroke="#000000" d="M-113.71847-24.2404C-113.254489-24.822953-112.56007-24.693177-112.40754-25.057095-93.955089-25.188019-75.87796-24.29236-57.471685-23.982779-42.711004-25.772212-42.649156-24.168345-42.756597-9.034602-43.046865-3.402841-42.86267 3.929517-41.753488 10.220893-42.760774 24.211125-41.547487 25.49239-56.652715 24.450934-75.15901 24.415982-93.661449 24.690062-112.29393 25.249524-128.42362 25.8302-127.558109 25.801642-128.2774 10.208046-128.24764 4.252424-127.984317-3.859137-127.83571-9.128043-128.36995-25.905243-127.47588-25.475546-113.71847-24.2404Z"/>
<path transform="matrix(1,0,0,-1,868.735,125.37074)" stroke-width=".75" stroke-linecap="round" stroke-linejoin="round" fill="none" stroke="#000000" d="M57.570516-25.279349C56.591264-24.547663 57.722414-24.748566 57.389055-24.811562 75.87835-25.335785 94.56551-25.749295 113.262767-24.03894 127.54183-24.425299 128.14478-24.877816 128.26865-10.648725 128.04712-3.618989 128.25896 3.148553 128.49712 10.449695 128.57093 24.972064 127.40306 24.781474 112.83205 24.138232 94.95404 24.400736 75.94734 25.521834 58.31745 25.30922 43.412744 24.142735 42.169038 24.925568 43.04401 10.042838 42.67361 2.616687 43.21076-2.966681 43.14338-10.389252 42.83945-24.817803 42.476564-24.938834 57.570516-25.279349Z"/>
<path transform="matrix(1,0,0,-1,868.735,125.37074)" stroke-width=".75" stroke-linecap="round" stroke-linejoin="round" fill="none" stroke="#000000" d="M-27.226315-117.59508C-27.965439-118.04175-28.163739-117.82107-27.278552-116.706058-8.695677-117.354419 10.107936-118.10012 28.840029-117.27749 42.128644-117.83332 42.034479-117.176799 42.063264-101.67797 43.263589-96.25827 42.36205-88.18563 42.341424-81.67849 42.879404-67.12171 43.06896-68.29067 27.300337-68.03764 9.323886-66.88407-9.722178-67.61731-27.714797-66.85028-43.347993-68.23645-42.21256-67.02675-42.742136-81.731739-43.23357-88.18566-43.444517-95.80117-43.326539-102.64359-42.305067-117.122478-43.81889-116.58546-27.226315-117.59508Z"/>
<path transform="matrix(1,0,0,-1,868.735,125.37074)" stroke-width=".75" stroke-linecap="round" stroke-linejoin="round" fill="none" stroke="#000000" d="M-368.98094 68.37661C-369.65617 68.19526-370.6889 67.024929-369.331 68.07752-350.61219 66.49864-332.44447 67.64923-314.66923 67.62817-297.96977 67.15523-299.4107 67.22041-299.56217 83.433719-298.04243 88.39215-299.5492 95.03944-298.23286 102.996669-298.9404 116.984539-299.16593 116.60712-314.46797 116.719669-332.74693 117.401348-350.23356 117.76619-370.6097 117.50452-385.18128 117.82746-385.54374 116.74927-383.79573 102.142398-385.15904 95.88698-384.04649 89.15814-384.99357 82.73436-384.64128 68.3117-385.67216 66.51182-368.98094 68.37661Z"/>
<path transform="matrix(1,0,0,-1,868.735,125.37074)" stroke-width=".75" stroke-linecap="round" stroke-linejoin="round" fill="none" stroke="#000000" d="M-369.25498-210.41448C-370.24128-209.42769-369.5164-209.4034-369.86943-209.8799-351.69996-209.6112-332.77015-209.76844-314.73008-210.10138-298.79356-210.73429-297.90776-209.87679-298.35984-195.23126-298.03776-188.49123-298.94844-181.01689-298.43919-175.83684-298.29856-159.94384-299.19346-159.76615-314.05253-160.78372-332.65187-158.93076-351.82099-160.81536-368.9738-159.1497-385.42753-160.55702-385.56117-159.84647-384.39985-175.4192-385.48048-182.38379-385.34403-187.17877-385.3053-195.21305-384.16075-210.08376-385.59129-209.86666-369.25498-210.41448Z"/>
<path transform="matrix(1,0,0,-1,868.735,125.37074)" stroke-width=".75" stroke-linecap="round" stroke-linejoin="round" fill="none" stroke="#000000" d="M-705.4906-.733214C-705.10989 12.351695-714.53897 21.16585-725.5479 21.24267-738.386 21.03688-748.83157 12.362944-747.5241-.591533-747.3768-11.889865-738.6081-22.162705-726.4046-21.345664-714.1029-20.846539-704.0972-11.789238-705.4906-.733214Z"/>
<path transform="matrix(1,0,0,-1,868.735,125.37074)" stroke-width=".75" stroke-linecap="round" stroke-linejoin="round" fill="none" stroke="#000000" d="M-448.3053-.669652C-448.9073 12.172878-458.3293 21.915926-470.02333 21.412678-481.00773 20.916083-491.5375 11.679158-490.69004-.172051-491.76216-11.299556-481.3431-21.068154-469.35667-22.15305-458.22166-20.802918-448.33534-11.680326-448.3053-.669652Z"/>
<path transform="matrix(1,0,0,-1,868.735,125.37074)" stroke-width=".75" stroke-linecap="round" stroke-linejoin="round" fill="none" stroke="#000000" d="M-191.47312 .35611C-192.05159 11.958133-202.50289 22.405028-212.97481 21.721385-224.64678 21.033146-235.24753 12.146966-234.662-.255727-236.12291-12.0557-224.95275-21.70224-212.8838-21.32638-202.39742-21.22445-191.62009-11.532271-191.47312 .35611Z"/>
<path transform="matrix(1,0,0,-1,868.735,125.37074)" stroke-width=".75" stroke-linecap="round" stroke-linejoin="round" fill="none" stroke="#000000" d="M-811.7474 .195322C-790.9748 .103285-769.4184-.081524-748.7573 .317998"/>
<path transform="matrix(1,0,0,-1,868.735,125.37074)" stroke-width=".75" stroke-linecap="round" stroke-linejoin="round" fill="none" stroke="#000000" d="M-760.78109-8.011332C-758.3952-3.980095-753.6864-1.058951-748.08279 .288642-753.55746 .797251-758.25857 3.954753-760.7116 7.877368"/>
<path transform="matrix(1,0,0,-1,868.735,125.37074)" stroke-width=".75" stroke-linecap="round" stroke-linejoin="round" fill="none" stroke="#000000" d="M-705.21469 .217096C-683.69766-.22084-662.96096 .094951-641.2949 .299271"/>
<path transform="matrix(1,0,0,-1,868.735,125.37074)" stroke-width=".75" stroke-linecap="round" stroke-linejoin="round" fill="none" stroke="#000000" d="M-654.2701-7.994431C-650.99728-3.795077-646.5446-1.240101-641.2136 .245886-645.99337 1.387542-650.7429 3.897718-653.70858 8.343445"/>
<path transform="matrix(1,0,0,-1,868.735,125.37074)" stroke-width=".75" stroke-linecap="round" stroke-linejoin="round" fill="none" stroke="#000000" d="M-554.98446-.183116C-533.93087-.291008-513.02438-.08689-492.3584 .105409"/>
<path transform="matrix(1,0,0,-1,868.735,125.37074)" stroke-width=".75" stroke-linecap="round" stroke-linejoin="round" fill="none" stroke="#000000" d="M-504.9781-7.771152C-501.76805-3.766198-497.44013-1.5297-492.40736-.18734-496.75349 1.532856-501.49156 4.306303-504.84324 8.467161"/>
<path transform="matrix(1,0,0,-1,868.735,125.37074)" stroke-width=".75" stroke-linecap="round" stroke-linejoin="round" fill="none" stroke="#000000" d="M-448.58177 .206103C-426.81684-.088255-405.6772 .383489-384.832-.401552"/>
<path transform="matrix(1,0,0,-1,868.735,125.37074)" stroke-width=".75" stroke-linecap="round" stroke-linejoin="round" fill="none" stroke="#000000" d="M-397.22447-7.795574C-394.49513-4.14892-389.934-.793652-385.35438 .110127-390.17033 1.397717-394.56227 4.233669-397.23014 8.267614"/>
<path transform="matrix(1,0,0,-1,868.735,125.37074)" stroke-width=".75" stroke-linecap="round" stroke-linejoin="round" fill="none" stroke="#000000" d="M-299.41368-.170835C-277.44328-.004997-256.40559-.424655-235.6993 .14613"/>
<path transform="matrix(1,0,0,-1,868.735,125.37074)" stroke-width=".75" stroke-linecap="round" stroke-linejoin="round" fill="none" stroke="#000000" d="M-247.8747-8.366865C-244.74013-4.215307-240.86946-1.03925-235.16826 .168015-240.32772 .918807-244.83712 3.997765-247.7733 8.167438"/>
<path transform="matrix(1,0,0,-1,868.735,125.37074)" stroke-width=".75" stroke-linecap="round" stroke-linejoin="round" fill="none" stroke="#000000" d="M-192.31894 .108988C-171.08773-.26516-149.9128-.292175-128.83043 .039591"/>
<path transform="matrix(1,0,0,-1,868.735,125.37074)" stroke-width=".75" stroke-linecap="round" stroke-linejoin="round" fill="none" stroke="#000000" d="M-141.21379-8.037554C-138.29496-3.659927-133.53394-1.3086-128.6206 .385866-133.9041 1.203486-137.73218 4.154193-140.81169 7.808126"/>
<path transform="matrix(1,0,0,-1,868.735,125.37074)" stroke-width=".75" stroke-linecap="round" stroke-linejoin="round" fill="none" stroke="#000000" d="M-42.43078-.268435C-13.920627-.30056 14.350714 .09067 42.519796-.046544"/>
<path transform="matrix(1,0,0,-1,868.735,125.37074)" stroke-width=".75" stroke-linecap="round" stroke-linejoin="round" fill="none" stroke="#000000" d="M29.080029-7.715814C32.735284-4.413129 36.832029-1.06134 42.256444-.406958 36.808694 1.501188 32.517118 4.249047 29.399682 7.657461"/>
<path transform="matrix(1,0,0,-1,868.735,125.37074)" stroke-width=".75" stroke-linecap="round" stroke-linejoin="round" fill="none" stroke="#000000" d="M128.55658 .055082C156.0812-.160964 185.04018 .111633 213.29909-.240164"/>
<path transform="matrix(1,0,0,-1,868.735,125.37074)" stroke-width=".75" stroke-linecap="round" stroke-linejoin="round" fill="none" stroke="#000000" d="M200.44527-7.898948C204.06992-4.210038 207.94338-1.367907 213.17099-.2939 208.18412 1.4082 203.61461 3.906761 200.32138 8.433486"/>
<path transform="matrix(1,0,0,-1,868.735,125.37074)" stroke-width=".75" stroke-linecap="round" stroke-linejoin="round" fill="none" stroke="#000000" d="M.258009-.261158C-.043312 30.448233-.129399 61.24476-.056884 92.1533-99.88427 92.16184-199.72768 92.53264-299.30708 92.752468"/>
<path transform="matrix(1,0,0,-1,868.735,125.37074)" stroke-width=".75" stroke-linecap="round" stroke-linejoin="round" fill="none" stroke="#000000" d="M-286.39884 100.37026C-289.5542 96.46426-294.18519 93.51442-299.54878 91.98721-294.0885 91.21194-289.3649 88.58699-286.5056 84.344158"/>
<path transform="matrix(1,0,0,-1,868.735,125.37074)" stroke-width=".75" stroke-linecap="round" stroke-linejoin="round" fill="none" stroke="#000000" d="M-385.13893 92.55976C-412.78535 91.96437-441.3901 92.303089-470.4287 92.53151-470.3421 69.152339-469.8251 45.494127-470.08976 22.068179"/>
<path transform="matrix(1,0,0,-1,868.735,125.37074)" stroke-width=".75" stroke-linecap="round" stroke-linejoin="round" fill="none" stroke="#000000" d="M-478.09629 35.048456C-474.25688 31.95328-471.1477 27.31669-470.3304 21.852953-469.21565 27.154894-465.8324 31.09815-461.67124 34.6696"/>
<path transform="matrix(1,0,0,-1,868.735,125.37074)" stroke-width=".75" stroke-linecap="round" stroke-linejoin="round" fill="none" stroke="#000000" d="M170.8024 .082414C170.84775-30.778458 170.80031-61.993204 170.33061-92.411449 128.29288-92.2934 85.08365-92.649578 42.261827-92.51469"/>
<path transform="matrix(1,0,0,-1,868.735,125.37074)" stroke-width=".75" stroke-linecap="round" stroke-linejoin="round" fill="none" stroke="#000000" d="M55.03135-84.12841C51.921796-88.61783 47.959596-90.94737 42.22011-92.60879 47.48743-93.93659 52.41048-96.59976 55.23319-100.44271"/>
<path transform="matrix(1,0,0,-1,868.735,125.37074)" stroke-width=".75" stroke-linecap="round" stroke-linejoin="round" fill="none" stroke="#000000" d="M-42.541009-92.45245C-100.20312-92.16679-156.58243-92.008449-213.6256-92.438999-213.66158-69.04431-213.75553-45.043706-213.70177-22.200186"/>
<path transform="matrix(1,0,0,-1,868.735,125.37074)" stroke-width=".75" stroke-linecap="round" stroke-linejoin="round" fill="none" stroke="#000000" d="M-205.76453-34.740697C-209.35626-31.693448-212.74448-27.101025-213.37187-22.294566-214.38782-26.607129-217.18114-31.608574-221.86876-34.42608"/>
<path transform="matrix(1,0,0,-1,868.735,125.37074)" stroke-width=".75" stroke-linecap="round" stroke-linejoin="round" fill="none" stroke="#000000" d="M170.92987-.386479C171.00763-61.464635 170.3599-123.166919 170.82431-185.2491 13.844309-184.57042-142.68244-184.45352-299.51066-184.77178"/>
<path transform="matrix(1,0,0,-1,868.735,125.37074)" stroke-width=".75" stroke-linecap="round" stroke-linejoin="round" fill="none" stroke="#000000" d="M-286.25984-177.04674C-289.37779-181.04216-294.00776-183.52715-299.13719-184.63248-293.8759-186.39154-289.45075-188.78389-286.71513-192.99629"/>
<path transform="matrix(1,0,0,-1,868.735,125.37074)" stroke-width=".75" stroke-linecap="round" stroke-linejoin="round" fill="none" stroke="#000000" d="M-385.00178-184.59966C-498.87156-184.44225-612.63009-184.70807-726.2267-184.56195-726.8856-130.55953-726.0154-76.37813-726.1112-22.081139"/>
<path transform="matrix(1,0,0,-1,868.735,125.37074)" stroke-width=".75" stroke-linecap="round" stroke-linejoin="round" fill="none" stroke="#000000" d="M-718.58706-34.619443C-722.436-31.738846-725.28109-26.780917-726.77389-22.216235-727.20889-26.712622-730.4376-31.563788-734.922-34.764524"/>
<path transform="matrix(1,0,0,-1,868.735,125.37074)" stroke-width=".75" stroke-linecap="round" stroke-linejoin="round" fill="none" stroke="#000000" d="M-625.77627-25.084679C-625.6937-24.549527-625.3958-24.053992-626.2241-25.560357-607.6807-24.569233-589.8485-25.627404-570.2075-24.728266-555.97836-25.656767-555.8235-25.61908-555.25216-10.205163-555.9898-2.593515-555.47488 3.529547-554.79617 9.724568-554.51968 25.873446-554.55276 24.295994-571.1853 25.459719-589.4393 25.391213-607.3981 25.493968-625.44869 25.782448-640.2373 24.864266-641.76809 24.311913-640.0831 10.387005-640.27157 3.005175-640.9982-3.631431-641.5999-9.731611-640.18618-24.124707-641.9632-24.538556-625.77627-25.084679Z"/>
<path transform="matrix(1,0,0,-1,868.735,125.37074)" stroke-width=".75" stroke-linecap="round" stroke-linejoin="round" fill="none" stroke="#000000" d="M-370.04753-24.683417C-369.235-24.938336-368.70484-24.263424-369.3973-25.230776-351.9415-24.69641-331.84138-24.532015-313.48713-24.212288-299.1287-25.24629-298.2792-24.415114-299.03157-10.280549-299.07307-2.92333-298.47233 2.41846-299.47047 10.542003-299.6111 25.655169-298.24507 24.483304-313.06874 24.128029-332.47816 25.865744-351.2925 24.767502-368.6038 25.235676-383.60307 25.648255-384.1981 25.488339-384.91926 10.483411-384.9179 2.731881-385.22578-4.10559-384.00245-9.40065-383.78514-25.757037-385.2458-24.957188-370.04753-24.683417Z"/>
<path transform="matrix(1,0,0,-1,868.735,125.37074)" stroke-width=".75" stroke-linecap="round" stroke-linejoin="round" fill="none" stroke="#000000" d="M-112.39854-24.292422C-112.34083-24.455142-113.92293-25.691472-112.16749-25.422532-93.90193-24.141512-76.14039-24.982375-57.628595-24.071829-42.08361-25.68508-42.12685-24.628136-42.05881-10.88504-41.988504-4.039672-42.118604 3.076491-43.217927 9.236159-42.307176 24.847449-43.33355 24.972189-58.096235 24.85727-76.32047 24.123372-95.16197 24.076979-112.70542 25.264006-127.17415 24.71065-128.51473 24.328555-128.52219 10.096451-127.89147 3.557861-127.51591-3.870908-127.97798-9.427445-128.50675-24.226887-128.54093-24.66522-112.39854-24.292422Z"/>
<path transform="matrix(1,0,0,-1,868.735,125.37074)" stroke-width=".75" stroke-linecap="round" stroke-linejoin="round" fill="none" stroke="#000000" d="M57.569467-25.322897C57.803518-25.518567 57.199739-24.520197 57.58613-24.641665 75.46007-24.142905 94.78504-24.852599 112.25142-25.884104 128.0343-25.703673 128.88364-24.51209 127.775119-10.608837 128.76636-2.943682 128.4704 4.018683 128.19278 10.013644 128.57419 25.411082 128.68006 25.271622 112.34005 25.672989 94.27812 24.488465 75.646259 24.46552 57.406599 25.814724 41.79874 24.456374 41.834486 24.176663 42.397165 10.772569 42.20022 2.626994 43.072515-3.686435 42.91582-9.317522 41.965955-25.76882 41.908067-25.765027 57.569467-25.322897Z"/>
<path transform="matrix(1,0,0,-1,868.735,125.37074)" stroke-width=".75" stroke-linecap="round" stroke-linejoin="round" fill="none" stroke="#000000" d="M-28.880412-118.30684C-28.816367-117.50409-28.266009-117.256999-28.07132-116.451068-9.900956-117.517749 9.617899-117.889629 28.420823-117.10616 42.691144-118.29278 42.64735-117.82142 43.923109-102.54786 42.677167-94.87806 42.22151-88.88232 42.9538-82.02765 43.59377-68.13932 43.49902-68.3622 27.19325-66.98698 8.974959-66.88577-8.489962-67.8629-27.97186-67.96956-42.32304-67.39284-42.509378-67.45575-42.254777-83.29337-42.248418-88.3458-42.838026-95.35602-43.57101-101.659648-43.927587-116.729618-43.43208-116.760257-28.880412-118.30684Z"/>
<path transform="matrix(1,0,0,-1,868.735,125.37074)" stroke-width=".75" stroke-linecap="round" stroke-linejoin="round" fill="none" stroke="#000000" d="M-370.63035 67.65701C-369.90925 67.86161-368.88993 66.645328-370.36305 67.29886-351.22007 67.548198-332.42268 66.914157-314.53495 67.01825-297.87535 67.60487-298.94963 67.01259-297.92796 81.538478-298.76194 88.22786-298.35627 95.29726-297.81568 101.74264-299.62904 118.0042-299.44825 116.8381-313.24378 116.9665-333.20204 116.56956-350.58363 116.73171-369.29914 118.18282-385.4345 116.430118-383.9163 117.889949-384.35148 102.313388-384.88053 95.86861-383.86848 88.78099-384.98786 82.78104-385.4231 67.078708-385.61003 67.508548-370.63035 67.65701Z"/>
<path transform="matrix(1,0,0,-1,868.735,125.37074)" stroke-width=".75" stroke-linecap="round" stroke-linejoin="round" fill="none" stroke="#000000" d="M-368.79133-209.24675C-369.45124-209.9999-368.96794-210.04149-369.60655-209.60591-351.65873-209.03511-333.0529-209.9549-314.5024-210.51267-299.67439-210.68433-299.3087-209.97258-298.17494-194.93393-297.83024-188.67116-297.9916-181.31394-298.04084-175.60796-298.0988-159.61978-298.7096-159.60732-314.39085-160.27405-331.62974-159.23479-350.2404-158.98387-369.27348-159.46408-384.30827-160.84734-384.88166-159.4782-385.02857-174.19873-383.99995-182.0273-384.88783-189.00278-384.54588-194.57538-385.542-209.38344-384.5651-210.1119-368.79133-209.24675Z"/>
<path transform="matrix(1,0,0,-1,868.735,125.37074)" stroke-width=".75" stroke-linecap="round" stroke-linejoin="round" fill="none" stroke="#000000" d="M-704.2143 .371218C-705.01199 11.404663-713.6879 22.244078-726.8695 21.382779-737.8559 20.87231-747.5861 12.618602-747.9082 .18252-748.67147-12.203263-737.5021-20.678267-726.1929-21.8972-714.3503-22.294367-704.5932-12.696028-704.2143 .371218Z"/>
<path transform="matrix(1,0,0,-1,868.735,125.37074)" stroke-width=".75" stroke-linecap="round" stroke-linejoin="round" fill="none" stroke="#000000" d="M-448.55754 .65566C-447.947 11.725613-458.1518 21.037613-469.39155 21.705328-481.73023 22.02556-491.9387 12.073411-491.13798 .358621-490.679-11.539892-481.26728-21.856665-469.8542-22.451949-457.8108-21.873322-447.9356-12.83835-448.55754 .65566Z"/>
<path transform="matrix(1,0,0,-1,868.735,125.37074)" stroke-width=".75" stroke-linecap="round" stroke-linejoin="round" fill="none" stroke="#000000" d="M-191.40888 .132364C-191.03807 11.907721-202.07239 22.375565-212.62178 22.554865-226.0729 22.409441-234.90869 12.105034-234.5514-.839415-235.46976-11.851147-224.68944-21.303473-213.97364-21.653609-201.71117-22.508309-192.18527-12.720995-191.40888 .132364Z"/>
<path transform="matrix(1,0,0,-1,868.735,125.37074)" stroke-width=".75" stroke-linecap="round" stroke-linejoin="round" fill="none" stroke="#000000" d="M-811.8856-.063832C-791.01828 .39832-769.57278-.074247-748.4103-.330671"/>
<path transform="matrix(1,0,0,-1,868.735,125.37074)" stroke-width=".75" stroke-linecap="round" stroke-linejoin="round" fill="none" stroke="#000000" d="M-761.05056-8.018517C-758.2786-3.793068-753.63638-1.526241-748.1026-.181805-753.87936 .844554-757.5855 3.871423-761.4702 8.40087"/>
<path transform="matrix(1,0,0,-1,868.735,125.37074)" stroke-width=".75" stroke-linecap="round" stroke-linejoin="round" fill="none" stroke="#000000" d="M-704.91189 .276642C-683.59127-.243815-662.2835-.170745-641.47048 .223661"/>
<path transform="matrix(1,0,0,-1,868.735,125.37074)" stroke-width=".75" stroke-linecap="round" stroke-linejoin="round" fill="none" stroke="#000000" d="M-653.78817-8.086252C-650.4612-3.953515-646.8044-1.341859-641.32638 .334412-646.44296 .890988-650.45956 4.333621-653.7399 7.648042"/>
<path transform="matrix(1,0,0,-1,868.735,125.37074)" stroke-width=".75" stroke-linecap="round" stroke-linejoin="round" fill="none" stroke="#000000" d="M-555.14596 .305194C-534.40188 .403247-512.8888 .193236-491.96379-.308167"/>
<path transform="matrix(1,0,0,-1,868.735,125.37074)" stroke-width=".75" stroke-linecap="round" stroke-linejoin="round" fill="none" stroke="#000000" d="M-504.63798-7.904209C-501.06187-3.890698-497.14558-1.256458-492.4425 .440934-497.33949 1.251416-501.46534 4.374417-504.7107 8.305671"/>
<path transform="matrix(1,0,0,-1,868.735,125.37074)" stroke-width=".75" stroke-linecap="round" stroke-linejoin="round" fill="none" stroke="#000000" d="M-448.53016 .11312C-427.39494-.042091-405.912 .205094-385.0306 .003221"/>
<path transform="matrix(1,0,0,-1,868.735,125.37074)" stroke-width=".75" stroke-linecap="round" stroke-linejoin="round" fill="none" stroke="#000000" d="M-397.20994-8.098835C-394.74604-4.090912-390.0127-1.241077-385.07325 .239433-390.1175 1.195078-394.7303 4.112155-397.53596 8.212301"/>
<path transform="matrix(1,0,0,-1,868.735,125.37074)" stroke-width=".75" stroke-linecap="round" stroke-linejoin="round" fill="none" stroke="#000000" d="M-299.29029 .112485C-277.84919 .059889-256.43876-.254532-235.41617-.195485"/>
<path transform="matrix(1,0,0,-1,868.735,125.37074)" stroke-width=".75" stroke-linecap="round" stroke-linejoin="round" fill="none" stroke="#000000" d="M-248.53946-7.919311C-245.4134-4.319809-240.44011-1.590954-235.36794-.259796-240.62316 1.533007-244.66756 4.211152-247.80818 8.462027"/>
<path transform="matrix(1,0,0,-1,868.735,125.37074)" stroke-width=".75" stroke-linecap="round" stroke-linejoin="round" fill="none" stroke="#000000" d="M-191.79715-.263581C-171.10564-.015737-149.85791-.26841-128.83049 .288321"/>
<path transform="matrix(1,0,0,-1,868.735,125.37074)" stroke-width=".75" stroke-linecap="round" stroke-linejoin="round" fill="none" stroke="#000000" d="M-140.95529-8.403046C-137.69788-3.938414-133.87934-1.079574-128.49517-.440193-133.53774 .999005-138.04842 3.993099-141.44165 8.159759"/>
<path transform="matrix(1,0,0,-1,868.735,125.37074)" stroke-width=".75" stroke-linecap="round" stroke-linejoin="round" fill="none" stroke="#000000" d="M-42.555227-.292536C-13.87099 .008858 13.478644-.292166 42.415128 .30639"/>
<path transform="matrix(1,0,0,-1,868.735,125.37074)" stroke-width=".75" stroke-linecap="round" stroke-linejoin="round" fill="none" stroke="#000000" d="M29.55178-7.767357C32.717115-4.24054 36.72982-1.523775 42.12668-.445755 37.046396 1.482479 32.836107 3.992397 29.582499 8.213136"/>
<path transform="matrix(1,0,0,-1,868.735,125.37074)" stroke-width=".75" stroke-linecap="round" stroke-linejoin="round" fill="none" stroke="#000000" d="M127.86226 .344752C156.70269 .395457 185.06064-.148461 213.11162 .436928"/>
<path transform="matrix(1,0,0,-1,868.735,125.37074)" stroke-width=".75" stroke-linecap="round" stroke-linejoin="round" fill="none" stroke="#000000" d="M200.83962-8.248187C203.6794-3.892752 207.82692-.734783 213.60985-.166873 208.5573 .891039 203.97562 4.041412 200.44832 8.179788"/>
<path transform="matrix(1,0,0,-1,868.735,125.37074)" stroke-width=".75" stroke-linecap="round" stroke-linejoin="round" fill="none" stroke="#000000" d="M.385617 .123891C.177403 30.76738-.249296 62.049505-.352168 92.06282-99.52279 92.04092-199.4883 92.04134-298.73005 92.66855"/>
<path transform="matrix(1,0,0,-1,868.735,125.37074)" stroke-width=".75" stroke-linecap="round" stroke-linejoin="round" fill="none" stroke="#000000" d="M-286.4846 100.830829C-289.4597 96.54293-294.4248 93.279468-299.10609 92.78009-293.78263 91.22301-289.35688 88.35857-286.33354 84.70351"/>
<path transform="matrix(1,0,0,-1,868.735,125.37074)" stroke-width=".75" stroke-linecap="round" stroke-linejoin="round" fill="none" stroke="#000000" d="M-384.73768 92.66489C-413.1314 92.221279-441.41923 92.4306-469.66719 92.418148-469.9655 68.561328-469.92283 45.076147-469.9724 21.64852"/>
<path transform="matrix(1,0,0,-1,868.735,125.37074)" stroke-width=".75" stroke-linecap="round" stroke-linejoin="round" fill="none" stroke="#000000" d="M-478.16673 34.829908C-474.40434 31.831109-471.42555 26.749674-470.12785 21.946648-469.17613 27.171586-465.83335 31.796328-462.34446 34.68857"/>
<path transform="matrix(1,0,0,-1,868.735,125.37074)" stroke-width=".75" stroke-linecap="round" stroke-linejoin="round" fill="none" stroke="#000000" d="M171.04149 .398033C170.32238-30.809412 170.79245-61.805986 170.43271-92.7464 128.0276-92.35506 85.5494-92.590999 43.06562-92.851329"/>
<path transform="matrix(1,0,0,-1,868.735,125.37074)" stroke-width=".75" stroke-linecap="round" stroke-linejoin="round" fill="none" stroke="#000000" d="M55.14267-83.99835C52.136297-88.58258 48.013257-90.835628 42.58759-92.05002 47.80007-93.52675 51.912904-96.38635 54.97189-100.43211"/>
<path transform="matrix(1,0,0,-1,868.735,125.37074)" stroke-width=".75" stroke-linecap="round" stroke-linejoin="round" fill="none" stroke="#000000" d="M-43.0059-92.29007C-99.47229-92.84016-156.45339-92.0985-213.32315-92.4319-213.94237-69.20309-213.50789-45.480257-213.88578-21.800053"/>
<path transform="matrix(1,0,0,-1,868.735,125.37074)" stroke-width=".75" stroke-linecap="round" stroke-linejoin="round" fill="none" stroke="#000000" d="M-205.05243-34.7162C-209.27994-31.675606-212.66318-26.617697-213.56276-21.885159-215.04648-27.342612-217.5452-31.296023-221.76535-34.583784"/>
<path transform="matrix(1,0,0,-1,868.735,125.37074)" stroke-width=".75" stroke-linecap="round" stroke-linejoin="round" fill="none" stroke="#000000" d="M170.72783 .324874C170.48188-61.74514 170.52277-123.6467 170.53685-184.74433 14.385581-185.13408-142.71346-184.40586-298.866-185.05017"/>
<path transform="matrix(1,0,0,-1,868.735,125.37074)" stroke-width=".75" stroke-linecap="round" stroke-linejoin="round" fill="none" stroke="#000000" d="M-286.32078-176.98952C-289.93263-181.05562-294.14286-183.30301-298.98039-184.42679-294.07984-185.5928-289.80928-188.57453-286.83714-193.18405"/>
<path transform="matrix(1,0,0,-1,868.735,125.37074)" stroke-width=".75" stroke-linecap="round" stroke-linejoin="round" fill="none" stroke="#000000" d="M-384.7316-185.24547C-498.59849-184.60402-612.9046-184.69649-726.486-184.92702-726.2824-130.11133-726.6977-76.07482-726.34646-21.966689"/>
<path transform="matrix(1,0,0,-1,868.735,125.37074)" stroke-width=".75" stroke-linecap="round" stroke-linejoin="round" fill="none" stroke="#000000" d="M-718.82919-35.098714C-722.8175-31.398684-725.3288-26.946629-726.28628-22.431435-727.47616-27.29745-730.762-31.505789-734.69796-34.84261"/>
<use data-text="+" xlink:href="#font_10_1" transform="matrix(21.519354,0,0,-21.519316,104.24097,117.62793)"/>
<use data-text="&#x2212;" xlink:href="#font_10_7" transform="matrix(21.519371,0,0,-21.519288,148.44013,155.98014)"/>
<use data-text="+" xlink:href="#font_10_1" transform="matrix(21.519354,0,0,-21.519316,360.69157,117.62793)"/>
<use data-text="&#x2212;" xlink:href="#font_10_7" transform="matrix(21.519371,0,0,-21.519288,404.8908,100.57324)"/>
<use data-text="+" xlink:href="#font_10_1" transform="matrix(21.519354,0,0,-21.519316,617.1422,117.62793)"/>
<use data-text="&#x2212;" xlink:href="#font_10_7" transform="matrix(21.519371,0,0,-21.519288,661.34146,155.98014)"/>
<use data-text="U" xlink:href="#font_10_8" transform="matrix(21.519457,0,0,-21.519398,6.814392,130.75205)"/>
<use data-text="(" xlink:href="#font_10_4" transform="matrix(21.519457,0,0,-21.519398,23.470456,130.75205)"/>
<use data-text="s" xlink:href="#font_10_5" transform="matrix(21.519457,0,0,-21.519398,33.015626,130.75205)"/>
<use data-text=")" xlink:href="#font_10_6" transform="matrix(21.519457,0,0,-21.519398,44.0026,130.75205)"/>
<use data-text="Y" xlink:href="#font_10_9" transform="matrix(21.519246,0,0,-21.519398,1086.4069,130.75205)"/>
<use data-text="(" xlink:href="#font_10_4" transform="matrix(21.519246,0,0,-21.519398,1099.5556,130.75205)"/>
<use data-text="s" xlink:href="#font_10_5" transform="matrix(21.519246,0,0,-21.519398,1109.1007,130.75205)"/>
<use data-text=")" xlink:href="#font_10_6" transform="matrix(21.519246,0,0,-21.519398,1120.0875,130.75205)"/>
</svg>
