<svg xmlns="http://www.w3.org/2000/svg" xmlns:xlink="http://www.w3.org/1999/xlink" version="1.1" width="922.0901" height="353.88795" viewBox="0 0 922.0901 353.88795">
<defs>
<path id="font_4_1" d="M.04598999 .23632813H.35598756V-.07368469L.3959961-.06668091V.23632813H.70399478L.70899966 .2763214H.3959961V.58631899L.35598756 .58032229V.2763214H.052993776L.04598999 .23632813Z"/>
<path id="font_4_2" d="M.08999634 .32458497C.08999634 .22958374 .114990238 .13148499 .18299866 .06341553 .23699951 .009384155 .31199647-.016601563 .3880005-.016601563 .46099855-.016601563 .56900027 .010391235 .6569977 .03338623 .6569977 .03338623 .6539917 .216568 .6519928 .30760194L.37599183 .2966156V.27061463L.38198854 .265625C.43598939 .26361085 .5 .25961305 .5439911 .25660707 .57199099 .25460816 .57199099 .22257996 .57199099 .13449097 .57199099 .061416627 .56900027 .04940796 .5519867 .045394899 .5209961 .038391115 .48999024 .03538513 .45799256 .03538513 .37998963 .03538513 .30599977 .060409547 .2619934 .112472537 .20399475 .18052674 .17999268 .25260926 .17999268 .3405609 .17999268 .48339845 .23199463 .5653076 .26098634 .5942688 .3039856 .63623049 .36299134 .6502075 .42199708 .6502075 .5529938 .6502075 .59298709 .5563202 .60598757 .53034976L.6179962 .5293579 .6759949 .58628848C.6649933 .6032715 .6119995 .69921877 .46699525 .69921877 .3619995 .69921877 .25698854 .6682129 .18199158 .593277 .11199951 .5233612 .08999634 .4224701 .08999634 .32458497Z"/>
<path id="font_4_3" d="M.1349945 .6123047H.22898865C.25698854 .6123047 .27999879 .59129336 .2809906 .5662842 .28199769 .541275 .28199769 .46824647 .28199769 .41923524 .28199769 .27919007 .27799989 .13916016 .272995 .00010681152L.28599549-.0048828127 .3809967 .022125245C.37799073 .09814453 .37799073 .2962036 .37799073 .43223573 .37799073 .52127078 .37998963 .6112976 .38598634 .7003021L.3789978 .71229556 .1349945 .6392975V.6123047Z"/>
<path id="font_4_4" d="M.11299133 .24990845C.11299133 .007904053 .1519928-.09008789 .18299866-.13310242 .21099854-.17008972 .25299073-.20809937 .30099488-.21209717V-.1880951C.2809906-.18409729 .25099183-.16809082 .23399353-.1481018 .21998596-.13209534 .16499329-.05809021 .16499329 .24990845 .16499329 .4618988 .19799805 .5659027 .21998596 .6128998 .23599243 .6469116 .2689972 .6769104 .30099488 .684906V.71191409C.2599945 .7049103 .21598816 .6729126 .19099427 .63790896 .1599884 .5919037 .11299133 .4748993 .11299133 .24990845Z"/>
<path id="font_4_5" d="M.051986696 .06642151C.06199646 .047409059 .07598877 .030395508 .09199524 .01638794 .12098694-.009613037 .16099549-.016601563 .19898987-.016601563 .2559967-.016601563 .31199647 .0023956299 .35099793 .044403078 .375 .06941223 .3869934 .10343933 .3869934 .13845825 .3869934 .1634674 .37298585 .18649292 .35499574 .20449829 .34098817 .21850586 .3039856 .24052429 .27198792 .25453187 .24299622 .26654054 .19999695 .2885437 .18798828 .30055238 .17298889 .31655885 .1619873 .3285675 .1619873 .35058595 .1619873 .3725891 .16899109 .39360047 .18499756 .4086151 .19999695 .42362977 .22200012 .43164063 .24398804 .43164063 .2639923 .43164063 .2849884 .42462159 .29599 .4066162 .30599977 .39060975 .30799867 .3715973 .30899049 .35359193L.32099916 .34657289 .37599183 .38360597C.375 .40560914 .3639984 .42662049 .34799195 .44163514 .32499696 .46263124 .29299928 .46662904 .2630005 .46662904 .21398926 .46662904 .16699219 .45063783 .1309967 .4176178 .10398865 .39360047 .08999634 .35858155 .08999634 .32356263 .08999634 .29154969 .10798645 .26353456 .1309967 .2425232 .1539917 .22250366 .18399048 .2084961 .21499634 .1954956 .24099732 .18447876 .2689972 .17248535 .28799439 .1534729 .30299378 .13845825 .31399537 .11845398 .31399537 .09744263 .31399537 .079422 .30499269 .062408449 .29299928 .04940796 .27799989 .03340149 .25099183 .021392823 .22898865 .021392823 .19898987 .021392823 .17199707 .03439331 .1499939 .055404664 .1269989 .076416019 .116989139 .10644531 .114990238 .13645935L.100997928 .13745117 .051986696 .06642151Z"/>
<path id="font_4_6" d="M.085998538-.1880951V-.21209717C.13398743-.20610047 .1789856-.17208863 .20698548-.13510132 .23799134-.09210205 .27598573 .007904053 .27598573 .24990845 .27598573 .50090029 .22399903 .5919037 .19299317 .63790896 .16799927 .6729126 .1269989 .7049103 .085998538 .71191409V.684906C.117996219 .6759033 .14898682 .6469116 .16499329 .6128998 .18699646 .5659027 .22399903 .48190309 .22399903 .24990845 .22399903-.099090579 .17199707-.13209534 .1579895-.1481018 .14099121-.16809082 .10598755-.18409729 .085998538-.1880951Z"/>
<path id="font_4_12" d="M.051986696 .6781769 .052993776 .6591797C.07299805 .65216067 .10899353 .6411438 .11299133 .6401367 .12298584 .6361389 .125 .6251221 .12599182 .6161041 .1309967 .53297427 .13198853 .44985963 .13198853 .36676026 .13198853 .24482727 .13198853 .11590576 .12199402 .0029907227L.12799073-.0020141602 .21998596 .025970459C.21699524 .051956178 .21499634 .10292053 .21499634 .1798706V.33377076C.21499634 .34075929 .22099304 .34576417 .22799683 .34576417H.57099917C.5799866 .34576417 .58299258 .33876039 .58299258 .33377076 .58299258 .23683167 .5799866 .11790466 .5779877 .020980835L.58898928 0 .73799136 .0078125 .74398806 .013809204 .7429962 .031799318C.72499087 .03981018 .66600039 .03981018 .66600039 .07879639 .66600039 .09979248 .6619873 .24076844 .6619873 .32176209 .6619873 .5129547 .66999819 .64515689 .6729889 .6841736L.66799929 .6901703 .5799866 .673172C.5799866 .58706668 .58299258 .48291017 .58299258 .3967743 .58299258 .39076234 .58200076 .38476563 .57099917 .38476563H.22499085C.21499634 .38476563 .21299744 .3917694 .21299744 .3967743 .21299744 .4618683 .21699524 .54600527 .21899414 .61109927 .21998596 .63414 .22200012 .6581726 .22599793 .6801758L.22099304 .6851654H.05899048L.051986696 .6781769Z"/>
<path id="font_4_11" d="M.050994874 .049362184 .05899048 .038375856C.10998535 .0033874512 .17098999-.016601563 .23599243-.016601563 .31799317-.016601563 .397995 .008392334 .45700074 .05935669 .5039978 .10131836 .5349884 .15626526 .5349884 .21520996 .5349884 .25416566 .519989 .2911377 .48999024 .31811524 .46899415 .3360901 .44198609 .34709168 .41600038 .35508729 .3789978 .36608888 .34199525 .37109376 .30299378 .37408448V.38209535C.34999085 .39408876 .3939972 .41609193 .42900086 .44610597 .46499635 .47810365 .48199464 .52311709 .48199464 .5681305 .48199464 .60414126 .46798707 .6401367 .43899537 .6651459 .40699769 .6941376 .36099244 .70214846 .31698609 .70214846 .2849884 .70214846 .25498963 .69114688 .22599793 .67814639 .18598938 .6591339 .14698792 .63414 .11199951 .60813906L.12799073 .58613589C.1539917 .60113528 .17999268 .6151428 .20799256 .6261444 .22799683 .6331482 .24699402 .6391449 .2659912 .6391449 .2999878 .6391449 .33299256 .6321411 .35598756 .61112979 .37799073 .59213259 .3889923 .5671234 .3889923 .54011538 .3889923 .502121 .37199403 .46510316 .34098817 .43710328 .32299806 .4210968 .29899598 .40908814 .27398683 .39909364 .24198914 .38609315 .20698548 .37808229 .17298889 .37109376L.17199707 .34509278C.21398926 .34509278 .2559967 .34309388 .29699708 .3340912 .32499696 .32809449 .35299684 .31910707 .37298585 .30012513 .4059906 .26914979 .42900086 .22920227 .42900086 .18623352 .42900086 .14128113 .41299439 .095321658 .3769989 .06335449 .34599305 .036376954 .30599977 .023391724 .2639923 .023391724 .22299195 .023391724 .18499756 .041366579 .1559906 .067352298 .13798523 .08332825 .12399292 .10131836 .10998535 .121292117H.09899902L.050994874 .049362184Z"/>
<path id="font_4_7" d="M.04598999 .23046875H.70399478L.70999148 .27046205H.052993776L.04598999 .23046875Z"/>
<path id="font_4_8" d="M.033996583 .6733093 .035995485 .6533203C.037994386 .6533203 .07398987 .6443176 .09199524 .63931277 .12298584 .6313019 .125 .6222992 .125 .54229739 .125 .46427918 .12199402 .38627626 .12199402 .30825807 .12199402 .24723816 .12399292 .17323303 .12998963 .12721253 .1349945 .08821106 .1559906-.0087890629 .31399537-.0087890629 .39698792-.0087890629 .47698976 .02520752 .5469971 .07020569L.5549927 .064208988C.5549927 .048202516 .5549927 .032196046 .55599978 .016204834 .55799868 .0012054443 .57598879-.0047912599 .58799746-.0047912599 .61898806-.0047912599 .6899872 .016204834 .7409973 .032196046L.74598696 .03919983 .74198916 .05619812C.7220001 .05419922 .70399478 .048202516 .6839905 .048202516 .673996 .048202516 .6609955 .050201417 .6539917 .0592041 .6389923 .07620239 .6359863 .15222168 .6359863 .20223999 .6359863 .3642578 .6369934 .5733032 .6519928 .68733218L.6459961 .69433596 .55799868 .659317C.55599978 .47727967 .55400088 .2942505 .55400088 .11122131 .5 .079208377 .43998719 .052200319 .37799073 .052200319 .24598694 .052200319 .22399903 .13922119 .21598816 .16522217 .20599365 .19923401 .20199585 .23423767 .20199585 .26924134L.20999146 .54229739C.20999146 .55929568 .21598816 .6603241 .21798706 .67433169L.21099854 .6803131H.041992189L.033996583 .6733093Z"/>
<path id="font_4_9" d="M.022994996 .6513672C.036987306 .649353 .049987794 .6463623 .06298828 .6433563 .07199097 .6413574 .07998657 .6353607 .085998538 .62835696 .09599304 .61834719 .102996829 .60635378 .10899353 .5943451L.2579956 .29930116C.2579956 .19927979 .2579956 .0982666 .25498963-.0017547608L.2659912-.0107421879 .35598756 .018249512 .34700013 .30630494C.42999269 .4343109 .5039978 .5303345 .61499026 .675354L.61099246 .6933594 .526001 .6763611C.48999024 .619339 .4059906 .47431947 .397995 .46032716 .3849945 .4373169 .34199525 .36730958 .33898927 .3623047 .33599855 .3572998 .33198548 .353302 .32798768 .353302 .32199098 .353302 .31698609 .3592987 .31599427 .36131288L.1749878 .6863556H.02999878L.022994996 .67936709V.6513672Z"/>
<path id="font_4_10" d="M.04499817 .001953125H.5379944L.56399539 .079940799 .5589905 .08795166H.20999146C.20399475 .08795166 .19799805 .08894348 .19599915 .092941287 .19499207 .094940189 .19599915 .09794617 .19699097 .09895325 .2539978 .1569519 .30799867 .21495056 .35899354 .27496339 .394989 .31697084 .42999269 .358963 .45799256 .40496827 .48799134 .4509735 .5119934 .49998475 .5119934 .5529938 .5119934 .59399417 .49899293 .6349945 .46499635 .66400149 .43199159 .69299319 .3880005 .7080078 .34199525 .7080078 .29899598 .7080078 .2579956 .6970062 .22099304 .67900088 .17599488 .65800479 .13699341 .6279907 .102996829 .59498599L.125 .57598879C.1519928 .59599307 .17799378 .61099246 .20999146 .6259918 .23098755 .6360016 .2559967 .6399994 .2809906 .6399994 .31399537 .6399994 .34700013 .6289978 .37098695 .6069946 .40098573 .5779877 .4079895 .5369873 .4079895 .50798037 .4079895 .4429779 .38198854 .38197328 .34298707 .3259735 .31098939 .27996827 .27198792 .23796082 .23199463 .19696045 .17199707 .13494873 .10899353 .07594299 .04499817 .017944336V.001953125Z"/>
</defs>
<path transform="matrix(1,0,0,-1,291.6669,43.56018)" d="M138.82328-128.86907C274.9374-128.84445 410.46336-128.37999 545.8749-128.03597 546.21536-73.85121 546.308-18.780945 545.87136 35.47896 410.76445 35.6153 274.5562 35.48979 139.30843 36.033739 138.75818-18.651309 138.7311-73.91067 138.82328-128.86907Z" fill="#e0e0e0"/>
<path transform="matrix(1,0,0,-1,291.6669,43.56018)" stroke-width=".75" stroke-linecap="round" stroke-dasharray="4.5,4.5" stroke-linejoin="round" fill="none" stroke="#000000" d="M139.50003-128.24529C274.45188-128.55414 410.97203-128.39217 545.9524-128.64667 546.1212-73.254688 546.0879-18.885083 546.52328 35.863885 410.3591 35.840867 275.03575 35.506444 139.11034 35.954065 139.52024-18.979022 138.78511-73.648387 139.50003-128.24529Z"/>
<use data-text="+" xlink:href="#font_4_1" transform="matrix(37.185197,0,0,-37.18505,277.6274,53.080995)"/>
<use data-text="G" xlink:href="#font_4_2" transform="matrix(21.519362,0,0,-21.519398,135.64244,48.941469)"/>
<use data-text="1" xlink:href="#font_4_3" transform="matrix(16.438399,0,0,-16.438426,152.1097,53.242464)"/>
<use data-text="(" xlink:href="#font_4_4" transform="matrix(21.519362,0,0,-21.519398,162.35228,48.941469)"/>
<use data-text="s" xlink:href="#font_4_5" transform="matrix(21.519362,0,0,-21.519398,171.8974,48.941469)"/>
<use data-text=")" xlink:href="#font_4_6" transform="matrix(21.519362,0,0,-21.519398,182.88434,48.941469)"/>
<use data-text="H" xlink:href="#font_4_12" transform="matrix(21.51913,0,0,-21.519398,638.2163,326.16664)"/>
<use data-text="3" xlink:href="#font_4_11" transform="matrix(16.438221,0,0,-16.438426,655.07077,330.30317)"/>
<use data-text="(" xlink:href="#font_4_4" transform="matrix(21.51913,0,0,-21.519398,665.3133,326.16664)"/>
<use data-text="s" xlink:href="#font_4_5" transform="matrix(21.51913,0,0,-21.519398,674.85836,326.16664)"/>
<use data-text=")" xlink:href="#font_4_6" transform="matrix(21.51913,0,0,-21.519398,685.8451,326.16664)"/>
<path transform="matrix(1,0,0,-1,291.6669,43.56018)" stroke-width=".75" stroke-linecap="round" stroke-linejoin="round" fill="none" stroke="#000000" d="M-156.03038-24.221339C-156.55178-24.926068-156.63681-24.202616-156.71454-24.411044-137.34754-24.920474-118.229839-24.590378-100.11962-25.047619-84.46176-25.71955-85.44016-25.34824-84.82298-10.814598-84.49473-3.463574-84.47591 4.242673-84.571979 10.619797-86.130619 24.489439-84.74264 25.015145-99.47531 24.610167-118.936679 24.881644-138.3824 24.838772-156.57775 25.40718-171.53333 24.62704-170.36704 25.552577-170.40656 10.634749-171.18451 2.754411-171.9656-3.028007-171.01354-10.508533-170.63198-25.111062-170.93369-24.00036-156.03038-24.221339Z"/>
<path transform="matrix(1,0,0,-1,291.6669,43.56018)" stroke-width=".75" stroke-linecap="round" stroke-linejoin="round" fill="none" stroke="#000000" d="M346.3711-303.05323C346.93055-301.8192 347.08283-302.2056 346.77989-303.14198 365.60276-303.09608 383.80238-302.9738 401.77275-302.44239 418.44606-302.19364 418.09364-303.01554 416.82646-287.80177 416.87153-281.0697 417.21119-274.24446 417.0835-267.83247 418.15425-251.51668 417.89805-252.37612 403.37376-251.64287 384.56156-251.86794 364.54304-251.6413 346.2183-252.26288 331.73838-253.23918 332.30906-252.60153 332.09489-267.7055 330.9724-274.18434 331.28303-280.8626 332.42457-286.82325 331.3886-302.60307 331.2253-301.7695 346.3711-303.05323Z"/>
<path transform="matrix(1,0,0,-1,291.6669,43.56018)" stroke-width=".75" stroke-linecap="round" stroke-linejoin="round" fill="none" stroke="#000000" d="M21.601187 .105871C21.520949 11.510387 11.670224 22.42739-.471497 21.493235-12.4495 22.046496-22.458886 12.039159-21.328896-.366635-21.151156-11.829823-12.661244-20.81306 .291771-20.977574 11.759758-21.60207 20.758835-11.071679 21.601187 .105871Z"/>
<path transform="matrix(1,0,0,-1,291.6669,43.56018)" stroke-width=".75" stroke-linecap="round" stroke-linejoin="round" fill="none" stroke="#000000" d="M-234.47055 .266666C-213.8767 .086306-192.67781-.237266-171.7082 .192559"/>
<path transform="matrix(1,0,0,-1,291.6669,43.56018)" stroke-width=".75" stroke-linecap="round" stroke-linejoin="round" fill="none" stroke="#000000" d="M-184.36225-8.26121C-181.27735-3.680442-176.66986-1.479425-170.9969-.148971-176.43083 .786997-181.10631 3.868581-184.12334 8.372043"/>
<path transform="matrix(1,0,0,-1,291.6669,43.56018)" stroke-width=".75" stroke-linecap="round" stroke-linejoin="round" fill="none" stroke="#000000" d="M-85.76782 .097402C-64.223-.306558-43.096277 .025711-21.624438 .02025"/>
<path transform="matrix(1,0,0,-1,291.6669,43.56018)" stroke-width=".75" stroke-linecap="round" stroke-linejoin="round" fill="none" stroke="#000000" d="M-35.074636-8.152131C-31.535676-4.327264-27.466238-1.066291-21.976702 .407664-27.206463 .934497-31.60497 4.169148-34.763494 7.730628"/>
<path transform="matrix(1,0,0,-1,291.6669,43.56018)" stroke-width=".75" stroke-linecap="round" stroke-linejoin="round" fill="none" stroke="#000000" d="M21.33943 .387561C35.703008-.135075 49.5668-.243279 63.5812-.181525"/>
<path transform="matrix(1,0,0,-1,291.6669,43.56018)" stroke-width=".75" stroke-linecap="round" stroke-linejoin="round" fill="none" stroke="#000000" d="M51.238405-7.830981C54.0417-4.420046 59.015489-.870216 63.945684 .436798 58.945634 1.15769 54.022817 3.85553 51.2618 7.724345"/>
<path transform="matrix(1,0,0,-1,291.6669,43.56018)" stroke-width=".75" stroke-linecap="round" stroke-linejoin="round" fill="none" stroke="#000000" d="M491.74455-.296097C520.22787-.046403 548.8623-.440685 577.2592 .202034"/>
<path transform="matrix(1,0,0,-1,291.6669,43.56018)" stroke-width=".75" stroke-linecap="round" stroke-linejoin="round" fill="none" stroke="#000000" d="M564.5406-8.110365C567.741-4.334257 572.4535-1.062306 577.4194-.320261 572.33639 1.603847 567.83877 4.044837 564.01638 7.937325"/>
<path transform="matrix(1,0,0,-1,291.6669,43.56018)" stroke-width=".75" stroke-linecap="round" stroke-linejoin="round" fill="none" stroke="#000000" d="M534.70236-.14434C534.78677-92.02982 534.70736-184.59336 534.7332-276.78703 495.01966-277.36015 456.1889-277.67488 417.1955-276.78779"/>
<path transform="matrix(1,0,0,-1,291.6669,43.56018)" stroke-width=".75" stroke-linecap="round" stroke-linejoin="round" fill="none" stroke="#000000" d="M429.7985-269.16813C426.46699-273.37385 422.3345-276.33448 417.59574-277.60704 422.14637-278.04753 426.62309-280.82688 430.16505-285.47969"/>
<path transform="matrix(1,0,0,-1,291.6669,43.56018)" stroke-width=".75" stroke-linecap="round" stroke-linejoin="round" fill="none" stroke="#000000" d="M331.89976-276.83979C221.03258-277.56547 110.53153-277.50724 .063361-276.85118 .158391-191.81018 .411699-107.13463 .290514-22.17994"/>
<path transform="matrix(1,0,0,-1,291.6669,43.56018)" stroke-width=".75" stroke-linecap="round" stroke-linejoin="round" fill="none" stroke="#000000" d="M8.439091-34.556219C4.223716-31.39693 .900517-26.781308-.413655-21.593564-1.100727-27.422984-3.55453-31.188921-7.702027-34.2862"/>
<path transform="matrix(1,0,0,-1,291.6669,43.56018)" stroke-width=".75" stroke-linecap="round" stroke-linejoin="round" fill="none" stroke="#000000" d="M-155.08715-24.74849C-156.94689-24.263066-155.17832-24.749672-155.95671-25.096886-138.45177-24.631014-118.59782-24.721732-100.54955-25.876996-86.32396-25.782137-85.268329-25.116868-85.56513-10.289294-85.26875-2.448617-84.75619 3.984116-86.23231 9.776291-85.69527 24.056733-86.281978 23.997117-100.58326 24.113005-119.59887 24.206782-136.66962 25.571724-156.29683 25.489842-171.06342 24.656893-170.95854 25.786257-170.94934 9.363549-171.38437 3.556311-171.37059-2.365432-171.34857-9.996543-170.77768-25.574549-170.35236-24.228117-155.08715-24.74849Z"/>
<path transform="matrix(1,0,0,-1,291.6669,43.56018)" stroke-width=".75" stroke-linecap="round" stroke-linejoin="round" fill="none" stroke="#000000" d="M347.2386-301.3532C346.82157-302.75505 346.4549-302.80165 346.21669-302.40608 365.93708-302.5758 383.1144-302.3071 403.04823-301.90089 416.8245-302.03645 417.28739-302.8405 417.25135-287.96476 418.01185-279.74583 417.2685-273.79634 418.0171-266.91468 418.43629-252.83069 418.22483-252.7876 402.70716-251.8182 384.1332-252.30905 364.34828-251.88202 345.60078-252.68093 331.0445-252.36287 332.10285-251.49387 331.41755-266.9756 332.271-273.5092 332.25694-280.7806 331.73155-286.94728 331.4783-302.74687 331.12748-301.45079 347.2386-301.3532Z"/>
<path transform="matrix(1,0,0,-1,291.6669,43.56018)" stroke-width=".75" stroke-linecap="round" stroke-linejoin="round" fill="none" stroke="#000000" d="M22.08755 .482217C21.636063 11.147437 11.082463 21.34614 .422997 22.369595-12.377396 21.307915-22.139374 11.073996-21.118083 .049462-20.804055-11.069061-12.017044-20.879807-.906016-21.422232 12.894099-22.527888 22.23959-12.49835 22.08755 .482217Z"/>
<path transform="matrix(1,0,0,-1,291.6669,43.56018)" stroke-width=".75" stroke-linecap="round" stroke-linejoin="round" fill="none" stroke="#000000" d="M-234.58969-.041538C-213.52739-.09628-192.2008 .120798-171.08266 .139965"/>
<path transform="matrix(1,0,0,-1,291.6669,43.56018)" stroke-width=".75" stroke-linecap="round" stroke-linejoin="round" fill="none" stroke="#000000" d="M-183.92499-7.887853C-181.13982-3.738365-176.51412-1.405944-171.21968 .18119-175.98181 1.146196-180.74852 4.09982-183.82715 8.007322"/>
<path transform="matrix(1,0,0,-1,291.6669,43.56018)" stroke-width=".75" stroke-linecap="round" stroke-linejoin="round" fill="none" stroke="#000000" d="M-85.6906 .323547C-63.93171 .291935-43.57363-.316827-21.90525 .131608"/>
<path transform="matrix(1,0,0,-1,291.6669,43.56018)" stroke-width=".75" stroke-linecap="round" stroke-linejoin="round" fill="none" stroke="#000000" d="M-35.120786-7.716795C-31.554896-4.450916-27.299628-1.249293-22.00263 .09615-27.43953 1.524907-31.474677 4.279717-34.465574 7.778332"/>
<path transform="matrix(1,0,0,-1,291.6669,43.56018)" stroke-width=".75" stroke-linecap="round" stroke-linejoin="round" fill="none" stroke="#000000" d="M21.672276-.361218C35.73474-.051819 49.916738-.161151 63.879137 .079304"/>
<path transform="matrix(1,0,0,-1,291.6669,43.56018)" stroke-width=".75" stroke-linecap="round" stroke-linejoin="round" fill="none" stroke="#000000" d="M50.83242-7.678743C54.54302-4.059157 58.735807-.98064 63.381345-.190055 58.719434 .716281 54.747404 3.772905 51.327299 8.164316"/>
<path transform="matrix(1,0,0,-1,291.6669,43.56018)" stroke-width=".75" stroke-linecap="round" stroke-linejoin="round" fill="none" stroke="#000000" d="M491.8492 .002781C520.4644-.38674 548.5624-.003192 577.0973 .297421"/>
<path transform="matrix(1,0,0,-1,291.6669,43.56018)" stroke-width=".75" stroke-linecap="round" stroke-linejoin="round" fill="none" stroke="#000000" d="M564.7359-8.190173C567.2882-3.565038 572.0036-1.411125 576.8764-.002409 571.6359 1.463084 567.2573 3.632023 564.61447 8.267129"/>
<path transform="matrix(1,0,0,-1,291.6669,43.56018)" stroke-width=".75" stroke-linecap="round" stroke-linejoin="round" fill="none" stroke="#000000" d="M534.41397-.101989C534.81417-92.39245 534.7654-184.6194 534.7942-277.11387 495.1217-277.34519 456.5596-277.0579 417.00166-276.98078"/>
<path transform="matrix(1,0,0,-1,291.6669,43.56018)" stroke-width=".75" stroke-linecap="round" stroke-linejoin="round" fill="none" stroke="#000000" d="M429.8856-269.42576C427.09324-273.3058 422.17369-276.12568 417.19767-276.9046 422.55198-278.75935 426.67185-281.2687 429.45405-285.1732"/>
<path transform="matrix(1,0,0,-1,291.6669,43.56018)" stroke-width=".75" stroke-linecap="round" stroke-linejoin="round" fill="none" stroke="#000000" d="M331.52845-277.5993C221.26667-277.3812 110.183078-277.66416-.277299-276.8517-.380842-192.47733-.206759-107.075809-.010083-22.151925"/>
<path transform="matrix(1,0,0,-1,291.6669,43.56018)" stroke-width=".75" stroke-linecap="round" stroke-linejoin="round" fill="none" stroke="#000000" d="M8.086031-34.87749C4.220235-31.93691 1.485816-26.851067 .262747-22.375636-1.160369-26.729165-4.23056-31.084322-8.428519-34.250978"/>
<path transform="matrix(1,0,0,-1,291.6669,43.56018)" stroke-width=".75" stroke-linecap="round" stroke-linejoin="round" fill="none" stroke="#000000" d="M-156.89336-25.745759C-155.94441-25.719864-155.37229-24.674834-155.22618-23.973757-137.05673-24.429759-119.46757-25.065457-99.59274-25.690049-86.03484-25.14034-86.28187-24.173155-85.033267-9.557214-86.16353-3.302234-85.082248 2.469159-85.29942 10.402015-84.947269 25.50705-85.32723 24.065283-100.31456 24.895897-119.86484 25.280217-137.63034 25.713179-155.0572 24.772566-170.95313 24.217196-171.82425 25.027762-171.88005 9.1996-170.88175 3.239341-170.95719-3.794316-170.77722-9.325112-171.30142-25.369166-171.51317-25.520405-156.89336-25.745759Z"/>
<path transform="matrix(1,0,0,-1,291.6669,43.56018)" stroke-width=".75" stroke-linecap="round" stroke-linejoin="round" fill="none" stroke="#000000" d="M346.40403-302.03108C346.97163-302.09559 347.37153-303.10353 347.45466-302.7575 364.41044-302.9718 383.1843-302.09864 401.95399-302.17463 417.85124-302.08134 418.21098-303.1115 417.85145-287.50587 416.6022-281.37297 416.6041-273.9398 418.1282-268.17356 418.4179-252.74657 418.44987-252.25276 402.91075-252.88365 384.74299-252.29969 365.96928-251.67885 345.8982-253.11254 331.73234-252.04508 331.87318-252.69394 330.61265-267.37406 332.21083-274.6554 330.80046-280.657 331.45454-288.03169 330.95265-302.38679 331.9129-301.8598 346.40403-302.03108Z"/>
<path transform="matrix(1,0,0,-1,291.6669,43.56018)" stroke-width=".75" stroke-linecap="round" stroke-linejoin="round" fill="none" stroke="#000000" d="M21.405615 .425596C22.615027 12.870597 11.636169 21.865752 .731485 21.35892-11.559882 22.202733-21.73293 11.083494-20.933934-.414396-22.57242-12.357294-12.764233-21.936852 .42951-22.583577 12.31358-21.540429 21.708348-12.87153 21.405615 .425596Z"/>
<path transform="matrix(1,0,0,-1,291.6669,43.56018)" stroke-width=".75" stroke-linecap="round" stroke-linejoin="round" fill="none" stroke="#000000" d="M-235.12836-.412496C-213.42256-.249995-192.85488 .01261-171.5236-.14668"/>
<path transform="matrix(1,0,0,-1,291.6669,43.56018)" stroke-width=".75" stroke-linecap="round" stroke-linejoin="round" fill="none" stroke="#000000" d="M-183.65903-8.122694C-180.70926-4.312336-176.5815-1.295376-171.7664 .185482-176.74802 1.41576-180.79936 3.938644-183.93451 7.64664"/>
<path transform="matrix(1,0,0,-1,291.6669,43.56018)" stroke-width=".75" stroke-linecap="round" stroke-linejoin="round" fill="none" stroke="#000000" d="M-85.04772-.1634C-64.39749-.306725-42.8113-.114671-21.578854 .183528"/>
<path transform="matrix(1,0,0,-1,291.6669,43.56018)" stroke-width=".75" stroke-linecap="round" stroke-linejoin="round" fill="none" stroke="#000000" d="M-34.354024-7.799945C-31.091938-4.026363-26.712933-1.391172-22.267357-.406654-27.283028 .825836-31.100998 4.301067-34.42203 7.668896"/>
<path transform="matrix(1,0,0,-1,291.6669,43.56018)" stroke-width=".75" stroke-linecap="round" stroke-linejoin="round" fill="none" stroke="#000000" d="M21.498543 .420614C35.267244 .181636 50.177404 .217228 63.551725-.162076"/>
<path transform="matrix(1,0,0,-1,291.6669,43.56018)" stroke-width=".75" stroke-linecap="round" stroke-linejoin="round" fill="none" stroke="#000000" d="M51.168218-7.624742C54.23873-4.289649 58.570577-1.423046 63.414995-.036422 58.729326 .843059 54.353807 3.927187 50.706407 8.263983"/>
<path transform="matrix(1,0,0,-1,291.6669,43.56018)" stroke-width=".75" stroke-linecap="round" stroke-linejoin="round" fill="none" stroke="#000000" d="M491.6252-.298154C520.40066-.075104 548.88088-.314849 576.72518 .069955"/>
<path transform="matrix(1,0,0,-1,291.6669,43.56018)" stroke-width=".75" stroke-linecap="round" stroke-linejoin="round" fill="none" stroke="#000000" d="M564.6968-7.714035C567.7208-3.864165 571.66946-1.118797 576.8389 .359417 572.1703 .777013 567.5689 3.555972 564.05056 8.346976"/>
<path transform="matrix(1,0,0,-1,291.6669,43.56018)" stroke-width=".75" stroke-linecap="round" stroke-linejoin="round" fill="none" stroke="#000000" d="M534.9026 .237344C534.61959-92.00614 534.65017-184.77732 534.99417-277.3189 495.2235-277.31303 455.86869-277.09379 417.14778-277.31053"/>
<path transform="matrix(1,0,0,-1,291.6669,43.56018)" stroke-width=".75" stroke-linecap="round" stroke-linejoin="round" fill="none" stroke="#000000" d="M429.55076-269.4566C426.2334-272.78065 421.9026-275.6701 417.2591-277.4536 422.2018-278.83015 427.0035-280.9331 429.881-285.41349"/>
<path transform="matrix(1,0,0,-1,291.6669,43.56018)" stroke-width=".75" stroke-linecap="round" stroke-linejoin="round" fill="none" stroke="#000000" d="M331.18388-277.5702C221.38782-276.82194 110.36641-277.2871-.118463-277.53639-.326077-191.86835-.401634-107.31533-.190666-21.71579"/>
<path transform="matrix(1,0,0,-1,291.6669,43.56018)" stroke-width=".75" stroke-linecap="round" stroke-linejoin="round" fill="none" stroke="#000000" d="M8.275794-34.994306C4.299705-31.732424 .783454-27.43553 .215752-22.412417-1.086287-26.792014-4.424758-31.79267-8.159863-34.689188"/>
<path transform="matrix(1,0,0,-1,291.6669,43.56018)" stroke-width=".75" stroke-linecap="round" stroke-linejoin="round" fill="none" stroke="#000000" d="M-156.557-24.147557C-155.87021-25.085984-156.73419-25.686297-156.83319-25.850495-137.7504-25.425784-118.08812-25.237687-99.911838-25.017504-85.64563-25.174277-84.48017-24.93829-84.694049-10.723133-85.69998-4.065163-85.91215 3.561784-85.58575 9.488062-84.62188 25.411219-86.20396 25.256203-100.32949 25.780356-119.619419 25.716378-137.91854 25.873587-155.33812 24.035994-170.62227 24.971602-171.35919 24.48917-171.7246 9.220939-171.54096 3.767851-171.87186-3.87545-170.56168-9.162886-170.50685-24.94595-170.61806-24.846833-156.557-24.147557Z"/>
<path transform="matrix(1,0,0,-1,291.6669,43.56018)" stroke-width=".75" stroke-linecap="round" stroke-linejoin="round" fill="none" stroke="#000000" d="M346.01133-301.95585C346.6841-301.20585 347.06587-302.33219 346.6204-302.49229 365.72746-302.5959 384.56764-302.74525 401.9009-302.72639 418.2623-301.3433 417.86137-302.49293 417.54273-287.71174 416.65528-280.32136 416.6616-273.55879 418.3584-267.27088 416.81105-252.98017 418.0503-253.02509 403.35139-252.06972 384.3137-253.1483 365.4437-251.76889 346.86695-252.96009 331.381-253.08156 330.95094-251.96855 332.4893-267.64479 330.9462-274.76625 331.06468-281.04948 331.38713-286.4134 331.1881-302.5161 331.32154-303.0164 346.01133-301.95585Z"/>
<path transform="matrix(1,0,0,-1,291.6669,43.56018)" stroke-width=".75" stroke-linecap="round" stroke-linejoin="round" fill="none" stroke="#000000" d="M20.942357 .909953C21.108899 12.722093 12.62437 22.137732 .956271 21.805867-11.851039 22.549876-21.788079 12.571173-21.62263 .436285-21.967589-11.582453-12.662721-21.040957-.138622-22.543318 12.283394-22.460335 21.457314-12.530913 20.942357 .909953Z"/>
<path transform="matrix(1,0,0,-1,291.6669,43.56018)" stroke-width=".75" stroke-linecap="round" stroke-linejoin="round" fill="none" stroke="#000000" d="M-234.50988-.165288C-213.51004-.315591-192.773 .419152-171.32263-.237268"/>
<path transform="matrix(1,0,0,-1,291.6669,43.56018)" stroke-width=".75" stroke-linecap="round" stroke-linejoin="round" fill="none" stroke="#000000" d="M-184.26326-7.733583C-181.00801-3.555843-176.80458-1.236334-171.22425-.20688-176.34323 1.320913-181.03754 3.77639-184.2769 7.94753"/>
<path transform="matrix(1,0,0,-1,291.6669,43.56018)" stroke-width=".75" stroke-linecap="round" stroke-linejoin="round" fill="none" stroke="#000000" d="M-85.3782 .19681C-64.69912 .212587-43.11747-.051417-22.464648 .243402"/>
<path transform="matrix(1,0,0,-1,291.6669,43.56018)" stroke-width=".75" stroke-linecap="round" stroke-linejoin="round" fill="none" stroke="#000000" d="M-35.112516-7.671329C-31.19744-3.732551-26.751019-.808036-22.357033 .249579-27.398694 1.515867-31.636288 3.77153-34.42073 8.367571"/>
<path transform="matrix(1,0,0,-1,291.6669,43.56018)" stroke-width=".75" stroke-linecap="round" stroke-linejoin="round" fill="none" stroke="#000000" d="M22.013318 .40972C36.03677 .114051 49.60569-.044891 63.79217-.273805"/>
<path transform="matrix(1,0,0,-1,291.6669,43.56018)" stroke-width=".75" stroke-linecap="round" stroke-linejoin="round" fill="none" stroke="#000000" d="M50.767595-7.955961C54.02838-3.746809 58.85556-.990474 63.36448 .113384 59.119058 1.507904 54.20932 4.287416 50.758077 7.692783"/>
<path transform="matrix(1,0,0,-1,291.6669,43.56018)" stroke-width=".75" stroke-linecap="round" stroke-linejoin="round" fill="none" stroke="#000000" d="M492.3445-.297052C520.74197 .409225 549.0026 .342277 576.8454-.061982"/>
<path transform="matrix(1,0,0,-1,291.6669,43.56018)" stroke-width=".75" stroke-linecap="round" stroke-linejoin="round" fill="none" stroke="#000000" d="M564.34-8.006998C567.69949-3.955304 571.9575-1.03779 577.1984-.370877 571.87869 .932593 567.84756 3.95262 564.096 7.954956"/>
<path transform="matrix(1,0,0,-1,291.6669,43.56018)" stroke-width=".75" stroke-linecap="round" stroke-linejoin="round" fill="none" stroke="#000000" d="M534.2469 .233347C534.1393-92.19797 534.61-184.89414 534.15536-277.526 495.61024-277.35856 456.25337-277.01564 417.44227-277.12236"/>
<path transform="matrix(1,0,0,-1,291.6669,43.56018)" stroke-width=".75" stroke-linecap="round" stroke-linejoin="round" fill="none" stroke="#000000" d="M429.37919-269.0539C427.06285-273.1478 422.04978-275.69886 417.16813-277.45564 422.5045-278.78379 426.8781-281.455 429.53559-285.11857"/>
<path transform="matrix(1,0,0,-1,291.6669,43.56018)" stroke-width=".75" stroke-linecap="round" stroke-linejoin="round" fill="none" stroke="#000000" d="M331.20976-277.2901C220.94338-277.36738 110.436428-277.60713-.199419-276.9573 .391353-191.95322-.022048-106.83263 .320168-22.204007"/>
<path transform="matrix(1,0,0,-1,291.6669,43.56018)" stroke-width=".75" stroke-linecap="round" stroke-linejoin="round" fill="none" stroke="#000000" d="M7.8705-35.089536C4.450485-31.344922 1.215931-26.71384-.349859-21.59761-1.197141-27.404377-3.609515-31.498524-7.919708-35.101514"/>
<path transform="matrix(1,0,0,-1,291.6669,43.56018)" stroke-width=".75" stroke-linecap="round" stroke-linejoin="round" fill="none" stroke="#000000" d="M-155.59468-25.221188C-155.4223-24.850523-155.67819-25.099112-155.1605-25.51766-137.28063-24.011862-118.86178-24.291569-99.83771-25.45919-84.54784-24.358426-84.811107-25.222476-85.34146-9.995023-85.26816-3.401006-85.56087 4.014775-86.134098 9.419782-84.46305 25.552489-85.621417 25.333487-99.91552 25.26513-118.185398 25.402083-137.92937 24.503684-155.63733 25.79037-170.51509 24.670935-170.05812 24.178074-171.40622 9.525693-171.62177 3.379018-171.03404-3.400952-171.9225-10.507573-171.40254-24.419737-170.89638-25.814448-155.59468-25.221188Z"/>
<path transform="matrix(1,0,0,-1,291.6669,43.56018)" stroke-width=".75" stroke-linecap="round" stroke-linejoin="round" fill="none" stroke="#000000" d="M347.0686-302.38343C346.48487-302.56199 346.57798-302.51564 346.55354-302.0088 364.76115-301.27903 384.17619-301.46156 401.73356-303.09956 416.99195-301.61668 417.22236-303.11613 416.66453-286.37144 417.1537-281.09974 417.48457-273.20918 417.78755-266.89537 416.75547-252.134 418.26853-251.63755 403.187-253.18631 383.09837-251.34941 364.27659-251.60616 345.74638-253.05838 330.88887-252.58629 330.85023-251.63806 331.8606-267.64704 331.7504-273.9319 331.34907-280.46846 331.15443-286.31706 330.93309-302.5428 331.21003-302.78944 347.0686-302.38343Z"/>
<path transform="matrix(1,0,0,-1,291.6669,43.56018)" stroke-width=".75" stroke-linecap="round" stroke-linejoin="round" fill="none" stroke="#000000" d="M22.469912 .441044C22.39308 12.167605 12.446327 21.761174 .216652 20.807398-12.039214 20.758112-22.279997 11.468236-21.42978-.65387-22.07061-12.177327-11.691663-20.953698 .56021-22.56931 12.716204-22.469962 22.52352-12.065518 22.469912 .441044Z"/>
<path transform="matrix(1,0,0,-1,291.6669,43.56018)" stroke-width=".75" stroke-linecap="round" stroke-linejoin="round" fill="none" stroke="#000000" d="M-234.64127 .380723C-213.25113 .08135-192.90785 .008227-171.50115-.043731"/>
<path transform="matrix(1,0,0,-1,291.6669,43.56018)" stroke-width=".75" stroke-linecap="round" stroke-linejoin="round" fill="none" stroke="#000000" d="M-183.6827-8.272749C-180.75241-4.389185-176.08783-.989761-171.44017 .215638-176.30788 1.146068-180.89295 3.615808-183.78171 7.744399"/>
<path transform="matrix(1,0,0,-1,291.6669,43.56018)" stroke-width=".75" stroke-linecap="round" stroke-linejoin="round" fill="none" stroke="#000000" d="M-85.303447 .177594C-64.52527 .386077-43.104715 .246047-22.128695 .26565"/>
<path transform="matrix(1,0,0,-1,291.6669,43.56018)" stroke-width=".75" stroke-linecap="round" stroke-linejoin="round" fill="none" stroke="#000000" d="M-34.51599-8.086519C-31.583762-4.017461-27.408024-1.041218-21.602372 .085993-26.62068 1.108651-31.067515 4.212821-34.34283 8.508569"/>
<path transform="matrix(1,0,0,-1,291.6669,43.56018)" stroke-width=".75" stroke-linecap="round" stroke-linejoin="round" fill="none" stroke="#000000" d="M21.819478-.35034C35.917737-.401378 50.12777 .13617 63.65179-.135103"/>
<path transform="matrix(1,0,0,-1,291.6669,43.56018)" stroke-width=".75" stroke-linecap="round" stroke-linejoin="round" fill="none" stroke="#000000" d="M50.83076-8.211248C54.512968-3.912358 58.445276-1.582105 63.437845-.295133 59.113718 1.070494 53.95076 4.332305 50.860044 8.03634"/>
<path transform="matrix(1,0,0,-1,291.6669,43.56018)" stroke-width=".75" stroke-linecap="round" stroke-linejoin="round" fill="none" stroke="#000000" d="M491.84074-.121461C520.68557-.391193 548.97109-.319437 576.86849 .408358"/>
<path transform="matrix(1,0,0,-1,291.6669,43.56018)" stroke-width=".75" stroke-linecap="round" stroke-linejoin="round" fill="none" stroke="#000000" d="M564.6408-8.502327C567.33956-3.839373 571.70339-.887444 576.80508-.302356 571.8214 1.24954 567.7937 3.581885 564.42959 8.195771"/>
<path transform="matrix(1,0,0,-1,291.6669,43.56018)" stroke-width=".75" stroke-linecap="round" stroke-linejoin="round" fill="none" stroke="#000000" d="M534.2478 .391053C534.90609-91.97538 534.20919-184.77587 534.5641-277.1142 495.44523-277.4718 456.4967-276.867 417.0317-276.9669"/>
<path transform="matrix(1,0,0,-1,291.6669,43.56018)" stroke-width=".75" stroke-linecap="round" stroke-linejoin="round" fill="none" stroke="#000000" d="M429.53428-269.08094C426.27607-273.13923 422.51567-276.36274 417.2845-276.9486 422.49507-278.2353 426.26478-281.66627 429.51136-285.7311"/>
<path transform="matrix(1,0,0,-1,291.6669,43.56018)" stroke-width=".75" stroke-linecap="round" stroke-linejoin="round" fill="none" stroke="#000000" d="M331.96144-277.21415C220.95139-276.96156 110.416667-277.00398-.220478-277.35429 .301878-192.51914-.157835-106.94144-.025996-21.965237"/>
<path transform="matrix(1,0,0,-1,291.6669,43.56018)" stroke-width=".75" stroke-linecap="round" stroke-linejoin="round" fill="none" stroke="#000000" d="M7.916125-34.71341C4.387266-31.335635 1.131993-26.739314 .064824-22.445294-1.278236-26.791897-3.610106-31.427746-8.152472-34.473257"/>
<use data-text="+" xlink:href="#font_4_1" transform="matrix(21.519354,0,0,-21.519316,253.61762,35.81732)"/>
<use data-text="&#x2212;" xlink:href="#font_4_7" transform="matrix(21.519371,0,0,-21.519288,297.8168,74.169589)"/>
<use data-text="U" xlink:href="#font_4_8" transform="matrix(21.519457,0,0,-21.519398,6.8143007,48.941469)"/>
<use data-text="(" xlink:href="#font_4_4" transform="matrix(21.519457,0,0,-21.519398,23.470364,48.941469)"/>
<use data-text="s" xlink:href="#font_4_5" transform="matrix(21.519457,0,0,-21.519398,33.015535,48.941469)"/>
<use data-text=")" xlink:href="#font_4_6" transform="matrix(21.519457,0,0,-21.519398,44.00251,48.941469)"/>
<use data-text="Y" xlink:href="#font_4_9" transform="matrix(21.519246,0,0,-21.519398,873.23489,48.941469)"/>
<use data-text="(" xlink:href="#font_4_4" transform="matrix(21.519246,0,0,-21.519398,886.38357,48.941469)"/>
<use data-text="s" xlink:href="#font_4_5" transform="matrix(21.519246,0,0,-21.519398,895.9286,48.941469)"/>
<use data-text=")" xlink:href="#font_4_6" transform="matrix(21.519246,0,0,-21.519398,906.9154,48.941469)"/>
<use data-text="+" xlink:href="#font_4_1" transform="matrix(37.185197,0,0,-37.18505,449.256,53.080995)"/>
<use data-text="G" xlink:href="#font_4_2" transform="matrix(21.519362,0,0,-21.519398,563.7217,48.941469)"/>
<use data-text="2" xlink:href="#font_4_10" transform="matrix(16.438399,0,0,-16.438426,580.18899,53.176698)"/>
<use data-text="(" xlink:href="#font_4_4" transform="matrix(21.519362,0,0,-21.519398,590.4315,48.941469)"/>
<use data-text="s" xlink:href="#font_4_5" transform="matrix(21.519362,0,0,-21.519398,599.9767,48.941469)"/>
<use data-text=")" xlink:href="#font_4_6" transform="matrix(21.519362,0,0,-21.519398,610.96359,48.941469)"/>
<use data-text="G" xlink:href="#font_4_2" transform="matrix(21.519362,0,0,-21.519398,713.0984,48.941469)"/>
<use data-text="3" xlink:href="#font_4_11" transform="matrix(16.438399,0,0,-16.438426,729.56558,53.078035)"/>
<use data-text="(" xlink:href="#font_4_4" transform="matrix(21.519362,0,0,-21.519398,739.8082,48.941469)"/>
<use data-text="s" xlink:href="#font_4_5" transform="matrix(21.519362,0,0,-21.519398,749.3534,48.941469)"/>
<use data-text=")" xlink:href="#font_4_6" transform="matrix(21.519362,0,0,-21.519398,760.34036,48.941469)"/>
<use data-text="H" xlink:href="#font_4_12" transform="matrix(21.51913,0,0,-21.519398,638.2163,141.34983)"/>
<use data-text="1" xlink:href="#font_4_3" transform="matrix(16.438221,0,0,-16.438426,655.07077,145.65079)"/>
<use data-text="(" xlink:href="#font_4_4" transform="matrix(21.51913,0,0,-21.519398,665.3133,141.34983)"/>
<use data-text="s" xlink:href="#font_4_5" transform="matrix(21.51913,0,0,-21.519398,674.85836,141.34983)"/>
<use data-text=")" xlink:href="#font_4_6" transform="matrix(21.51913,0,0,-21.519398,685.8451,141.34983)"/>
<path transform="matrix(1,0,0,-1,291.6669,43.560174)" stroke-width=".75" stroke-linecap="round" stroke-linejoin="round" fill="none" stroke="#000000" d="M272.18269-25.191826C272.60966-24.933444 271.3588-25.156119 271.66798-25.626994 289.71345-24.065356 309.95719-25.354792 326.88935-24.844204 341.88438-25.362542 342.91923-24.280478 343.19145-10.572092 342.26237-3.143023 341.8035 4.216701 343.10603 10.505998 343.24418 25.776646 343.61683 24.547694 327.91279 25.04806 309.65489 24.324372 291.2529 25.699883 271.51377 25.494923 256.351 25.275618 256.86015 24.309782 257.7918 9.841259 257.52278 3.213814 256.754-3.477389 256.8111-9.257605 257.76478-24.486832 256.73664-25.307808 272.18269-25.191826Z"/>
<path transform="matrix(1,0,0,-1,291.6669,43.560174)" stroke-width=".75" stroke-linecap="round" stroke-linejoin="round" fill="none" stroke="#000000" d="M421.81083-24.249085C421.14649-24.417262 421.19917-24.593028 420.54609-24.47962 439.20286-25.540566 458.77043-25.916073 477.45527-24.501214 492.0832-25.615685 492.5332-24.41282 492.17674-9.743364 492.65309-4.108147 492.14677 2.831865 491.5357 10.19296 492.94297 25.640852 492.25468 24.312275 477.8102 25.022673 459.38569 24.410094 440.26039 25.091593 421.4272 24.385468 405.8844 25.845173 407.35099 24.186936 406.63694 10.573079 406.07963 3.747347 406.4757-2.833422 405.63804-9.472153 405.5265-25.135554 406.33363-24.30612 421.81083-24.249085Z"/>
<path transform="matrix(1,0,0,-1,291.6669,43.560174)" stroke-width=".75" stroke-linecap="round" stroke-linejoin="round" fill="none" stroke="#000000" d="M346.34306-117.38888C346.56877-117.46449 347.42713-116.44509 347.36296-118.088108 364.90824-116.624088 384.17149-116.87011 402.29423-116.49857 416.97135-116.75639 417.21696-117.081989 417.5923-103.26819 418.32069-95.14742 416.70826-89.57665 418.39579-82.73663 416.70359-66.69257 417.7585-66.545787 402.46199-67.800739 384.4388-68.215908 365.8273-67.26812 346.9778-67.05685 331.9302-67.60758 330.62989-67.076 330.7729-81.816669 330.77308-88.4538 332.1455-96.15408 332.24397-102.66915 332.4489-117.02373 331.86738-118.29893 346.34306-117.38888Z"/>
<path transform="matrix(1,0,0,-1,291.6669,43.560174)" stroke-width=".75" stroke-linecap="round" stroke-linejoin="round" fill="none" stroke="#000000" d="M194.124-.27331C194.18422 12.772339 182.61597 20.87771 171.00626 22.35378 158.93726 22.327094 150.6561 12.355064 150.76258 .363962 150.55213-12.836167 159.32167-22.238043 171.87883-21.272494 183.81179-22.38779 192.50969-12.731264 194.124-.27331Z"/>
<path transform="matrix(1,0,0,-1,291.6669,43.560174)" stroke-width=".75" stroke-linecap="round" stroke-linejoin="round" fill="none" stroke="#000000" d="M193.18326 .374901C214.01737-.025009 235.1511 .368827 256.59327-.238418"/>
<path transform="matrix(1,0,0,-1,291.6669,43.560174)" stroke-width=".75" stroke-linecap="round" stroke-linejoin="round" fill="none" stroke="#000000" d="M244.30638-7.977283C246.78609-3.667429 251.22245-1.086704 256.90486 .215511 251.3602 1.045606 247.04622 4.303435 243.78234 8.45547"/>
<path transform="matrix(1,0,0,-1,291.6669,43.560174)" stroke-width=".75" stroke-linecap="round" stroke-linejoin="round" fill="none" stroke="#000000" d="M342.88273-.255521C363.4562 .176174 385.0203 .231073 405.89195 .276685"/>
<path transform="matrix(1,0,0,-1,291.6669,43.560174)" stroke-width=".75" stroke-linecap="round" stroke-linejoin="round" fill="none" stroke="#000000" d="M393.5564-7.663861C396.76716-3.655621 400.91218-1.37961 406.02418-.031881 400.8699 .867124 396.7698 3.878658 393.55238 7.928599"/>
<path transform="matrix(1,0,0,-1,291.6669,43.560174)" stroke-width=".75" stroke-linecap="round" stroke-linejoin="round" fill="none" stroke="#000000" d="M534.1136-.05547C534.6295-30.626708 534.83578-61.747903 534.47927-91.96049 495.6493-92.70882 456.34513-92.65525 417.2659-92.15094"/>
<path transform="matrix(1,0,0,-1,291.6669,43.560174)" stroke-width=".75" stroke-linecap="round" stroke-linejoin="round" fill="none" stroke="#000000" d="M430.0089-84.581119C426.58958-88.79772 422.49894-90.98206 417.21144-92.007198 422.5267-93.356639 426.5012-96.20497 430.0015-100.84048"/>
<path transform="matrix(1,0,0,-1,291.6669,43.560174)" stroke-width=".75" stroke-linecap="round" stroke-linejoin="round" fill="none" stroke="#000000" d="M331.31733-92.69105C278.1524-92.57948 224.82933-92.68992 171.79932-92.00649 171.81362-69.32275 171.69872-45.874769 171.67272-21.612004"/>
<path transform="matrix(1,0,0,-1,291.6669,43.560174)" stroke-width=".75" stroke-linecap="round" stroke-linejoin="round" fill="none" stroke="#000000" d="M179.95475-34.68425C175.30419-31.545277 172.83609-27.406414 171.38803-22.354155 170.55547-26.677989 167.4302-31.364886 163.75226-34.915334"/>
<path transform="matrix(1,0,0,-1,291.6669,43.560174)" stroke-width=".75" stroke-linecap="round" stroke-linejoin="round" fill="none" stroke="#000000" d="M271.51539-25.773509C271.8201-25.75683 272.40266-25.78812 272.42463-24.529444 290.192-24.790413 309.73954-24.112788 327.0238-24.265084 341.75868-25.13147 342.54609-24.020506 341.9045-10.601364 343.0465-4.004467 343.34553 3.763858 342.05778 10.877961 342.78233 24.682986 341.7836 25.575345 327.6794 24.059126 309.95518 23.989682 289.83699 25.777796 271.21784 25.484816 257.18519 24.915219 257.9704 24.943959 257.0992 9.364583 257.06398 2.975543 256.85075-3.42718 256.10057-9.307246 257.2384-25.864539 257.49906-24.47868 271.51539-25.773509Z"/>
<path transform="matrix(1,0,0,-1,291.6669,43.560174)" stroke-width=".75" stroke-linecap="round" stroke-linejoin="round" fill="none" stroke="#000000" d="M421.7707-24.451872C421.3657-24.770016 422.08656-25.440253 422.14726-25.711552 439.22203-25.526087 457.8548-25.474692 476.5264-24.228125 492.14256-25.70922 492.99156-24.570767 491.2517-10.286896 491.50843-3.330985 492.76469 2.813852 491.8925 9.721613 491.21748 24.762814 492.53324 24.46523 477.80113 24.938443 458.5085 25.884808 439.95378 24.262328 422.20335 24.185708 407.12959 24.21045 406.95173 24.329182 407.011 9.400885 406.53065 3.960817 405.5469-3.604174 407.3873-10.308373 406.01808-24.757809 405.65757-25.538043 421.7707-24.451872Z"/>
<path transform="matrix(1,0,0,-1,291.6669,43.560174)" stroke-width=".75" stroke-linecap="round" stroke-linejoin="round" fill="none" stroke="#000000" d="M347.2848-118.06787C345.94694-117.46489 345.88499-117.25285 346.89237-116.96649 365.09669-117.180278 383.73197-117.18362 402.68537-117.85242 418.3618-116.94165 417.5968-117.00552 418.19575-101.503627 416.56687-96.54572 417.00328-89.96774 417.3202-83.07032 417.37117-68.08278 417.36268-67.55926 401.75529-66.93561 383.40943-68.009769 365.76463-67.55136 346.52027-67.246089 332.27378-66.71487 331.88227-67.07491 331.1369-81.552249 332.20985-88.67871 331.58744-95.96723 331.84776-102.52871 332.09785-117.82417 331.10694-116.83629 347.2848-118.06787Z"/>
<path transform="matrix(1,0,0,-1,291.6669,43.560174)" stroke-width=".75" stroke-linecap="round" stroke-linejoin="round" fill="none" stroke="#000000" d="M194.22254 .391056C193.79068 12.670079 182.71054 22.58106 171.03884 21.356238 160.02527 21.075839 150.18247 11.650193 150.17113 .685914 149.3483-12.123436 159.29943-20.73379 171.69571-22.048365 183.37235-22.273945 193.34883-12.251652 194.22254 .391056Z"/>
<path transform="matrix(1,0,0,-1,291.6669,43.560174)" stroke-width=".75" stroke-linecap="round" stroke-linejoin="round" fill="none" stroke="#000000" d="M193.46955-.396332C214.55619-.158758 235.36635 .072979 256.8073-.112639"/>
<path transform="matrix(1,0,0,-1,291.6669,43.560174)" stroke-width=".75" stroke-linecap="round" stroke-linejoin="round" fill="none" stroke="#000000" d="M244.1421-7.819398C247.28627-3.798641 251.22013-1.54284 256.52238-.098986 251.48992 .786691 247.15375 4.448583 243.82993 8.323348"/>
<path transform="matrix(1,0,0,-1,291.6669,43.560174)" stroke-width=".75" stroke-linecap="round" stroke-linejoin="round" fill="none" stroke="#000000" d="M342.58119-.109892C363.7017 .39969 384.5445-.026281 406.2478 .122931"/>
<path transform="matrix(1,0,0,-1,291.6669,43.560174)" stroke-width=".75" stroke-linecap="round" stroke-linejoin="round" fill="none" stroke="#000000" d="M393.21006-7.670654C396.4965-3.639809 401.17906-1.413773 405.63926-.340295 401.31526 1.528996 396.38468 3.662895 393.0192 7.676587"/>
<path transform="matrix(1,0,0,-1,291.6669,43.560174)" stroke-width=".75" stroke-linecap="round" stroke-linejoin="round" fill="none" stroke="#000000" d="M534.62387-.14018C534.72817-30.562613 534.86978-61.871236 534.85678-92.55499 495.2327-91.96942 456.27796-92.2997 416.78877-92.273677"/>
<path transform="matrix(1,0,0,-1,291.6669,43.560174)" stroke-width=".75" stroke-linecap="round" stroke-linejoin="round" fill="none" stroke="#000000" d="M430.08174-84.630168C426.64726-88.55913 421.87016-91.11833 417.53578-92.03819 422.51188-93.146389 426.20588-96.268878 430.1242-100.050228"/>
<path transform="matrix(1,0,0,-1,291.6669,43.560174)" stroke-width=".75" stroke-linecap="round" stroke-linejoin="round" fill="none" stroke="#000000" d="M331.40184-92.40588C278.42613-92.43176 225.17906-92.696468 171.73723-92.718128 171.9034-69.263858 171.57669-45.66235 171.74274-21.992646"/>
<path transform="matrix(1,0,0,-1,291.6669,43.560174)" stroke-width=".75" stroke-linecap="round" stroke-linejoin="round" fill="none" stroke="#000000" d="M179.98044-35.068918C175.55487-31.19159 172.47562-26.773629 171.79538-21.741784 170.29018-27.119193 167.49416-31.057942 163.78347-34.335535"/>
<path transform="matrix(1,0,0,-1,291.6669,43.560174)" stroke-width=".75" stroke-linecap="round" stroke-linejoin="round" fill="none" stroke="#000000" d="M272.351-25.37649C272.40678-25.787468 271.97883-24.518557 271.31367-25.586606 289.95106-24.290108 309.36537-25.85291 326.77534-25.222292 342.6948-24.278899 341.85997-24.151793 343.55088-10.887713 343.3144-3.054343 342.69294 2.371484 342.78315 9.982399 343.57298 25.290312 343.25099 24.962073 327.76988 24.356722 308.79267 25.873492 289.8454 24.513766 271.38597 24.457137 256.9438 24.56579 257.31669 24.337756 257.92753 9.282705 256.99366 2.846332 257.53855-4.094229 257.84303-9.718339 257.99415-25.06719 257.72993-25.890187 272.351-25.37649Z"/>
<path transform="matrix(1,0,0,-1,291.6669,43.560174)" stroke-width=".75" stroke-linecap="round" stroke-linejoin="round" fill="none" stroke="#000000" d="M421.5395-24.99744C420.536-24.622536 420.65449-25.53803 420.90837-24.129584 439.95735-24.419857 458.2403-25.79035 476.15715-24.936476 492.8251-25.113928 491.1095-25.641667 491.6223-10.53494 491.65019-3.626164 491.3456 2.808342 492.63304 10.492717 493.0075 24.959084 492.93659 24.513688 477.44847 25.37392 458.31138 25.548613 440.83177 25.130038 421.50703 24.431136 406.2566 25.361363 405.71867 24.996848 407.24324 8.972537 407.37965 4.236774 406.7284-4.020858 406.5222-10.689367 405.5893-24.949528 406.84724-25.502974 421.5395-24.99744Z"/>
<path transform="matrix(1,0,0,-1,291.6669,43.560174)" stroke-width=".75" stroke-linecap="round" stroke-linejoin="round" fill="none" stroke="#000000" d="M346.44868-118.097309C346.79347-117.944019 347.08268-117.75507 346.36289-117.976299 365.2164-116.48935 384.13066-117.87474 401.82069-116.97713 417.99757-118.00076 417.47349-117.53179 418.19236-102.99866 417.05433-95.1715 417.6534-89.03576 418.29127-82.419048 416.95426-67.055149 417.65296-67.50568 402.9261-67.94777 383.0049-67.80812 364.422-67.85992 346.49879-67.29631 332.1047-67.75181 331.1354-67.74192 330.9514-82.48585 332.20954-88.98277 332.4403-95.008 331.48155-103.20738 332.0297-117.5306 330.80924-117.047168 346.44868-118.097309Z"/>
<path transform="matrix(1,0,0,-1,291.6669,43.560174)" stroke-width=".75" stroke-linecap="round" stroke-linejoin="round" fill="none" stroke="#000000" d="M193.45442 .783342C193.35889 11.853232 184.01213 22.496617 171.32262 20.830245 159.53974 21.184144 150.13419 12.502542 150.78044 .614303 150.40367-11.315221 160.60453-21.386395 171.31647-20.941529 183.78562-20.853198 193.3339-11.664354 193.45442 .783342Z"/>
<path transform="matrix(1,0,0,-1,291.6669,43.560174)" stroke-width=".75" stroke-linecap="round" stroke-linejoin="round" fill="none" stroke="#000000" d="M193.41927-.256848C214.75226 .239619 235.30411 .04753 256.97114 .26714"/>
<path transform="matrix(1,0,0,-1,291.6669,43.560174)" stroke-width=".75" stroke-linecap="round" stroke-linejoin="round" fill="none" stroke="#000000" d="M244.4801-7.739392C246.90137-4.270039 251.23862-1.600424 256.40916-.117709 251.34705 1.063564 247.19464 4.407648 243.87329 8.034676"/>
<path transform="matrix(1,0,0,-1,291.6669,43.560174)" stroke-width=".75" stroke-linecap="round" stroke-linejoin="round" fill="none" stroke="#000000" d="M342.24595-.183037C363.65638 .030145 384.93034-.067283 406.29853-.0258"/>
<path transform="matrix(1,0,0,-1,291.6669,43.560174)" stroke-width=".75" stroke-linecap="round" stroke-linejoin="round" fill="none" stroke="#000000" d="M393.55946-7.798435C396.7666-4.428287 400.93309-.709409 406.12525-.357272 401.1132 1.397315 396.2019 3.622797 393.8547 8.236913"/>
<path transform="matrix(1,0,0,-1,291.6669,43.560174)" stroke-width=".75" stroke-linecap="round" stroke-linejoin="round" fill="none" stroke="#000000" d="M534.2281-.229242C534.80508-30.562645 534.45889-61.374086 534.90426-92.15818 495.1235-92.8013 456.43907-92.208339 417.36756-92.555667"/>
<path transform="matrix(1,0,0,-1,291.6669,43.560174)" stroke-width=".75" stroke-linecap="round" stroke-linejoin="round" fill="none" stroke="#000000" d="M429.9863-84.78908C427.02067-88.65607 421.85774-90.96144 417.06413-92.74158 421.94325-93.29722 426.38847-96.13175 430.0442-100.08231"/>
<path transform="matrix(1,0,0,-1,291.6669,43.560174)" stroke-width=".75" stroke-linecap="round" stroke-linejoin="round" fill="none" stroke="#000000" d="M331.50889-92.65108C277.95094-92.8292 225.08617-92.48599 171.74286-92.295589 171.79055-68.78249 171.75577-45.518384 171.31626-21.907195"/>
<path transform="matrix(1,0,0,-1,291.6669,43.560174)" stroke-width=".75" stroke-linecap="round" stroke-linejoin="round" fill="none" stroke="#000000" d="M180.01462-34.607259C175.24008-31.545699 172.36292-27.327078 171.18683-22.206433 170.60478-27.287365 167.38881-31.565159 163.54898-34.312284"/>
<path transform="matrix(1,0,0,-1,291.6669,43.560174)" stroke-width=".75" stroke-linecap="round" stroke-linejoin="round" fill="none" stroke="#000000" d="M271.245-25.088627C272.2178-24.16436 271.93318-25.586377 272.4606-25.288168 290.15476-25.574805 308.41203-24.801426 328.40077-24.448115 343.6069-24.199109 341.9347-24.038994 341.74186-10.108935 343.29689-2.696777 342.6176 2.506014 341.87608 10.275099 343.32508 24.505757 341.99726 24.611975 327.18373 24.585236 309.74485 24.77203 289.9379 24.819149 271.2274 24.879345 256.9287 25.575804 257.48088 24.3877 257.6614 10.871629 257.98515 3.488312 257.75556-3.425867 257.78666-9.480089 256.44444-24.062125 256.48158-23.996062 271.245-25.088627Z"/>
<path transform="matrix(1,0,0,-1,291.6669,43.560174)" stroke-width=".75" stroke-linecap="round" stroke-linejoin="round" fill="none" stroke="#000000" d="M421.58897-24.803465C422.35758-25.195424 422.13209-24.273724 422.37773-25.110796 440.7714-25.90583 457.86396-24.18842 477.55406-24.1241 492.00508-24.889117 492.84919-24.505253 491.35948-10.155409 491.71327-3.254581 491.73286 2.516779 492.42576 10.832807 492.36515 25.518012 492.20195 24.158694 477.05586 24.603335 458.51264 25.117285 439.8242 24.417275 421.64628 25.79192 406.04634 24.188588 406.51344 25.541457 407.40824 10.188637 405.73036 3.307869 406.59239-2.723058 405.55628-9.975496 406.03303-24.26734 405.84547-25.487557 421.58897-24.803465Z"/>
<path transform="matrix(1,0,0,-1,291.6669,43.560174)" stroke-width=".75" stroke-linecap="round" stroke-linejoin="round" fill="none" stroke="#000000" d="M347.4916-117.50766C347.2335-117.9984 346.90745-116.944339 345.83308-117.355197 364.24345-116.989009 383.30253-118.07363 402.4949-116.61787 416.61296-117.74109 417.63703-116.752147 417.9383-102.124118 417.12428-95.07578 416.57084-89.81353 417.62684-82.2655 417.25144-66.820529 417.7388-67.15027 403.4454-66.55889 383.852-67.590099 364.26594-68.17802 345.65583-66.66598 331.98197-66.99642 331.97227-67.49317 331.013-82.78823 330.85069-88.95076 332.31837-96.50548 332.43778-102.72166 330.99464-117.53301 331.58168-117.04931 347.4916-117.50766Z"/>
<path transform="matrix(1,0,0,-1,291.6669,43.560174)" stroke-width=".75" stroke-linecap="round" stroke-linejoin="round" fill="none" stroke="#000000" d="M193.61919 .370747C192.68346 12.80567 184.4527 21.999686 171.96134 21.360703 159.80219 21.829657 150.85973 12.638031 149.5196 .061617 149.13301-11.569467 160.18735-21.04685 170.70041-22.3038 183.92929-21.214047 192.98671-11.552875 193.61919 .370747Z"/>
<path transform="matrix(1,0,0,-1,291.6669,43.560174)" stroke-width=".75" stroke-linecap="round" stroke-linejoin="round" fill="none" stroke="#000000" d="M192.87438 .251425C214.80799-.435682 235.39586-.142521 256.9862 .31192"/>
<path transform="matrix(1,0,0,-1,291.6669,43.560174)" stroke-width=".75" stroke-linecap="round" stroke-linejoin="round" fill="none" stroke="#000000" d="M244.33678-8.056136C247.24723-4.374175 251.5198-1.580035 257.0761 .252387 251.47026 .917676 246.99137 3.861104 244.43553 8.144953"/>
<path transform="matrix(1,0,0,-1,291.6669,43.560174)" stroke-width=".75" stroke-linecap="round" stroke-linejoin="round" fill="none" stroke="#000000" d="M342.83229-.029468C363.5519 .355099 384.70204-.306081 406.4413 .426025"/>
<path transform="matrix(1,0,0,-1,291.6669,43.560174)" stroke-width=".75" stroke-linecap="round" stroke-linejoin="round" fill="none" stroke="#000000" d="M393.288-8.191509C396.90898-3.98169 401.05635-1.305489 405.86335-.188313 401.21324 1.351601 396.57609 4.24382 393.16465 7.818413"/>
<path transform="matrix(1,0,0,-1,291.6669,43.560174)" stroke-width=".75" stroke-linecap="round" stroke-linejoin="round" fill="none" stroke="#000000" d="M534.274-.146436C534.6946-30.58037 534.67807-61.55616 534.6396-92.13467 495.58018-92.04092 456.57185-92.81024 417.11643-92.21843"/>
<path transform="matrix(1,0,0,-1,291.6669,43.560174)" stroke-width=".75" stroke-linecap="round" stroke-linejoin="round" fill="none" stroke="#000000" d="M429.70979-84.71842C426.7241-88.601909 422.10057-91.618259 417.37184-92.31682 421.89073-93.418659 426.62324-96.30685 429.63883-100.31033"/>
<path transform="matrix(1,0,0,-1,291.6669,43.560174)" stroke-width=".75" stroke-linecap="round" stroke-linejoin="round" fill="none" stroke="#000000" d="M331.73323-92.091037C277.8629-92.83504 224.60903-92.15409 171.6873-92.19173 171.95223-68.54779 171.90549-45.765264 172.05426-21.982968"/>
<path transform="matrix(1,0,0,-1,291.6669,43.560174)" stroke-width=".75" stroke-linecap="round" stroke-linejoin="round" fill="none" stroke="#000000" d="M179.99694-34.358835C175.5054-31.60396 172.50563-26.840918 171.24942-22.192465 170.67336-27.248576 167.7838-31.393734 163.57302-34.952817"/>
<path transform="matrix(1,0,0,-1,291.6669,43.560174)" stroke-width=".75" stroke-linecap="round" stroke-linejoin="round" fill="none" stroke="#000000" d="M272.0758-25.345145C272.8028-24.39964 272.85334-25.2946 271.6065-25.619114 290.23756-25.8725 308.20579-25.293822 327.96-24.203232 342.80305-24.201775 342.9823-24.174193 342.1924-10.548253 342.84599-3.296297 342.30369 3.722514 342.94276 9.191411 342.43199 25.101508 342.88496 25.85962 328.01783 25.370472 308.5768 25.150206 290.9063 24.783274 271.66355 24.87139 257.98103 25.589253 257.90779 24.28888 257.90809 9.781474 256.68885 2.822525 256.91157-3.332856 257.15135-9.81702 257.33567-24.162825 257.7666-24.444169 272.0758-25.345145Z"/>
<path transform="matrix(1,0,0,-1,291.6669,43.560174)" stroke-width=".75" stroke-linecap="round" stroke-linejoin="round" fill="none" stroke="#000000" d="M422.14308-25.796853C420.76927-25.217076 421.1037-24.207713 420.60606-25.137352 440.33473-25.75013 458.07884-24.491646 476.72319-25.756445 492.15299-25.747853 492.64765-25.346453 491.56065-9.460516 491.93064-2.481727 492.80073 2.486599 492.11604 9.430507 491.48326 24.668408 491.3811 25.83123 477.8375 25.48109 459.433 24.844534 440.82203 25.669436 422.22175 25.630654 406.41667 24.81186 406.45097 24.018069 405.81083 8.980475 406.33628 2.948219 406.5258-4.047859 405.88294-9.861879 405.61415-24.702473 405.97096-24.346064 422.14308-25.796853Z"/>
<path transform="matrix(1,0,0,-1,291.6669,43.560174)" stroke-width=".75" stroke-linecap="round" stroke-linejoin="round" fill="none" stroke="#000000" d="M346.873-118.09863C345.6247-117.471889 346.18809-116.41355 346.3221-117.43391 365.7278-117.066028 383.0577-118.0843 402.0886-117.30697 416.9341-118.0619 417.5051-116.81954 416.59016-102.385219 417.71894-95.882068 418.17979-88.9792 417.46678-81.571369 418.32408-67.62884 416.9081-66.62411 403.27784-67.50097 383.32429-67.77774 365.53538-66.592548 347.17088-68.349178 332.24018-68.01601 331.30708-67.7255 331.62904-82.42888 330.66163-89.24471 331.84367-95.45459 331.1169-102.86622 332.2748-116.967739 332.41383-116.557628 346.873-118.09863Z"/>
<path transform="matrix(1,0,0,-1,291.6669,43.560174)" stroke-width=".75" stroke-linecap="round" stroke-linejoin="round" fill="none" stroke="#000000" d="M194.19886-.401703C193.07367 12.833835 183.64597 20.779397 172.20867 21.450957 160.08895 21.771876 149.57315 11.079307 149.82901 .405685 149.95417-11.029827 159.49738-21.462155 170.98589-21.386399 183.20462-21.992634 193.31877-12.810938 194.19886-.401703Z"/>
<path transform="matrix(1,0,0,-1,291.6669,43.560174)" stroke-width=".75" stroke-linecap="round" stroke-linejoin="round" fill="none" stroke="#000000" d="M192.85283 .144265C214.31798 .181576 235.63991 .10688 256.98408-.403483"/>
<path transform="matrix(1,0,0,-1,291.6669,43.560174)" stroke-width=".75" stroke-linecap="round" stroke-linejoin="round" fill="none" stroke="#000000" d="M244.28049-7.897886C247.45615-3.666096 251.9924-1.091682 256.3556-.043766 251.43453 .742609 247.03818 4.109087 243.58458 8.075451"/>
<path transform="matrix(1,0,0,-1,291.6669,43.560174)" stroke-width=".75" stroke-linecap="round" stroke-linejoin="round" fill="none" stroke="#000000" d="M342.7176-.273194C364.10484-.286601 385.35575 .206666 405.85154 .24793"/>
<path transform="matrix(1,0,0,-1,291.6669,43.560174)" stroke-width=".75" stroke-linecap="round" stroke-linejoin="round" fill="none" stroke="#000000" d="M393.75666-7.644305C396.62266-4.059201 401.39256-.940143 406.14378 .292871 400.89198 1.585153 396.41285 4.223497 393.12928 8.098928"/>
<path transform="matrix(1,0,0,-1,291.6669,43.560174)" stroke-width=".75" stroke-linecap="round" stroke-linejoin="round" fill="none" stroke="#000000" d="M534.98947 .356509C534.82449-30.869502 534.5999-61.712869 534.7783-92.25852 495.06663-92.17847 456.53605-92.7646 416.85078-92.31031"/>
<path transform="matrix(1,0,0,-1,291.6669,43.560174)" stroke-width=".75" stroke-linecap="round" stroke-linejoin="round" fill="none" stroke="#000000" d="M430.02345-84.50618C426.4431-88.05192 422.23768-91.088008 416.75663-92.33265 422.4728-93.19491 426.24665-96.0195 430.22077-100.314647"/>
<path transform="matrix(1,0,0,-1,291.6669,43.560174)" stroke-width=".75" stroke-linecap="round" stroke-linejoin="round" fill="none" stroke="#000000" d="M331.18745-92.30256C278.41395-92.348659 225.22537-92.401218 171.34761-92.74515 171.27504-69.37565 171.37496-45.8412 171.60993-21.85368"/>
<path transform="matrix(1,0,0,-1,291.6669,43.560174)" stroke-width=".75" stroke-linecap="round" stroke-linejoin="round" fill="none" stroke="#000000" d="M179.33052-35.0512C175.65872-31.635699 172.63423-26.717667 171.22628-22.06868 170.20894-26.756114 167.952-31.5725 163.23775-35.068304"/>
<use data-text="+" xlink:href="#font_4_1" transform="matrix(21.519354,0,0,-21.519316,425.24623,35.81732)"/>
<use data-text="&#x2212;" xlink:href="#font_4_7" transform="matrix(21.519371,0,0,-21.519288,469.44544,74.169559)"/>
<use data-text="+" xlink:href="#font_4_1" transform="matrix(37.185197,0,0,-37.18505,363.4417,53.080995)"/>
<use data-text="H" xlink:href="#font_4_12" transform="matrix(21.51913,0,0,-21.519398,638.2163,233.75821)"/>
<use data-text="2" xlink:href="#font_4_10" transform="matrix(16.438221,0,0,-16.438426,655.07077,237.99343)"/>
<use data-text="(" xlink:href="#font_4_4" transform="matrix(21.51913,0,0,-21.519398,665.3133,233.75821)"/>
<use data-text="s" xlink:href="#font_4_5" transform="matrix(21.51913,0,0,-21.519398,674.85836,233.75821)"/>
<use data-text=")" xlink:href="#font_4_6" transform="matrix(21.51913,0,0,-21.519398,685.8451,233.75821)"/>
<path transform="matrix(1,0,0,-1,291.6669,43.560167)" stroke-width=".75" stroke-linecap="round" stroke-linejoin="round" fill="none" stroke="#000000" d="M346.82087-210.19109C346.07368-210.0294 346.6152-210.30973 346.33555-210.40219 365.6237-209.15995 384.73246-209.67826 401.64158-209.41068 417.07316-210.6354 418.1533-208.87007 417.08207-193.8922 417.21925-188.5123 417.9323-181.75193 417.2486-175.36893 418.37135-159.8904 416.85673-160.78336 402.06718-159.1076 382.93498-160.39112 364.34953-160.0082 347.1309-160.16852 331.95054-159.80396 331.05625-160.19542 330.6033-175.26651 332.47785-182.30135 332.0077-188.62561 332.21693-195.29868 330.75144-209.86667 332.1206-210.52677 346.82087-210.19109Z"/>
<path transform="matrix(1,0,0,-1,291.6669,43.560167)" stroke-width=".75" stroke-linecap="round" stroke-linejoin="round" fill="none" stroke="#000000" d="M108.15416-.134528C107.06919 12.369214 98.15521 21.946734 84.98696 22.402268 73.62932 21.11167 64.924938 12.344124 64.670078-.323338 65.0029-11.810729 73.48659-22.130669 84.95502-21.330563 98.307659-21.41978 107.37982-12.843009 108.15416-.134528Z"/>
<path transform="matrix(1,0,0,-1,291.6669,43.560167)" stroke-width=".75" stroke-linecap="round" stroke-linejoin="round" fill="none" stroke="#000000" d="M107.66552 .421118C121.50909-.332336 135.76586-.426444 149.78057 .263265"/>
<path transform="matrix(1,0,0,-1,291.6669,43.560167)" stroke-width=".75" stroke-linecap="round" stroke-linejoin="round" fill="none" stroke="#000000" d="M137.19188-7.990996C140.3675-3.72904 144.88365-1.575286 150.00139-.419544 144.9693 .736975 139.98073 3.601126 137.14585 8.477393"/>
<path transform="matrix(1,0,0,-1,291.6669,43.560167)" stroke-width=".75" stroke-linecap="round" stroke-linejoin="round" fill="none" stroke="#000000" d="M534.1293-.232661C534.1924-61.83242 534.4902-122.866619 534.429-184.7367 495.2515-184.97066 456.27397-185.00147 416.82057-184.92157"/>
<path transform="matrix(1,0,0,-1,291.6669,43.560167)" stroke-width=".75" stroke-linecap="round" stroke-linejoin="round" fill="none" stroke="#000000" d="M430.07554-176.6532C426.37196-180.51126 421.86283-183.30959 417.33744-185.22255 422.08119-185.8165 426.27589-188.80623 429.40739-192.57085"/>
<path transform="matrix(1,0,0,-1,291.6669,43.560167)" stroke-width=".75" stroke-linecap="round" stroke-linejoin="round" fill="none" stroke="#000000" d="M331.6731-184.81197C249.621-184.93567 167.39826-184.88504 85.96888-184.7867 86.07558-130.61232 85.40168-76.32585 86.09508-22.05682"/>
<path transform="matrix(1,0,0,-1,291.6669,43.560167)" stroke-width=".75" stroke-linecap="round" stroke-linejoin="round" fill="none" stroke="#000000" d="M93.862018-35.082635C89.60012-31.81821 87.13061-26.988196 86.13612-22.193795 84.96107-26.802966 81.58236-31.650918 78.17881-34.469179"/>
<path transform="matrix(1,0,0,-1,291.6669,43.560167)" stroke-width=".75" stroke-linecap="round" stroke-linejoin="round" fill="none" stroke="#000000" d="M347.48954-209.8647C346.80705-209.31928 345.9265-208.88405 347.2702-209.48352 365.53349-209.70113 384.27534-210.31067 401.64515-210.56624 418.29734-208.96082 417.77207-209.80306 417.4873-193.95227 417.60868-189.08916 417.70719-182.42742 418.06825-173.9839 417.57505-159.1699 417.03974-159.11907 403.1554-158.96062 383.01274-160.67002 364.91407-159.65758 345.625-160.68947 332.1588-160.33933 331.53028-160.33103 330.87889-174.2266 331.49629-181.1168 331.54594-188.39914 331.73564-193.94838 331.81913-209.55905 331.8277-209.69918 347.48954-209.8647Z"/>
<path transform="matrix(1,0,0,-1,291.6669,43.560167)" stroke-width=".75" stroke-linecap="round" stroke-linejoin="round" fill="none" stroke="#000000" d="M106.703517 .528049C107.42625 12.925862 98.0853 20.84441 85.457958 21.413737 74.067768 21.051087 63.601789 11.307118 64.17419 .628516 63.50308-11.866363 74.76263-21.11848 85.1664-21.675604 98.33584-21.248919 107.75023-11.653164 106.703517 .528049Z"/>
<path transform="matrix(1,0,0,-1,291.6669,43.560167)" stroke-width=".75" stroke-linecap="round" stroke-linejoin="round" fill="none" stroke="#000000" d="M107.84965 .40494C121.959758 .349954 135.98758-.182931 149.93697 .326858"/>
<path transform="matrix(1,0,0,-1,291.6669,43.560167)" stroke-width=".75" stroke-linecap="round" stroke-linejoin="round" fill="none" stroke="#000000" d="M137.27608-8.305149C139.79544-3.568447 144.42989-.709873 149.6689 .023282 144.37108 1.041843 140.40749 3.571021 137.24387 7.631355"/>
<path transform="matrix(1,0,0,-1,291.6669,43.560167)" stroke-width=".75" stroke-linecap="round" stroke-linejoin="round" fill="none" stroke="#000000" d="M534.7547 .082021C534.54678-61.829946 534.6109-123.37434 534.61569-184.43529 495.17509-184.50698 456.36296-184.44312 416.95155-184.66106"/>
<path transform="matrix(1,0,0,-1,291.6669,43.560167)" stroke-width=".75" stroke-linecap="round" stroke-linejoin="round" fill="none" stroke="#000000" d="M430.12455-176.3834C426.8293-181.1321 422.15516-184.02567 417.08576-184.49452 422.3917-186.06273 426.29444-188.4543 429.51246-193.02425"/>
<path transform="matrix(1,0,0,-1,291.6669,43.560167)" stroke-width=".75" stroke-linecap="round" stroke-linejoin="round" fill="none" stroke="#000000" d="M331.90193-185.2494C249.83216-184.56029 167.52799-184.77146 85.58295-184.83917 86.085659-130.55693 85.99628-76.67955 85.62094-22.138072"/>
<path transform="matrix(1,0,0,-1,291.6669,43.560167)" stroke-width=".75" stroke-linecap="round" stroke-linejoin="round" fill="none" stroke="#000000" d="M93.580417-35.067106C89.70152-31.476626 87.14023-27.196877 85.43431-21.931578 84.53037-26.696856 81.80785-31.52375 77.77865-35.108098"/>
<path transform="matrix(1,0,0,-1,291.6669,43.560167)" stroke-width=".75" stroke-linecap="round" stroke-linejoin="round" fill="none" stroke="#000000" d="M346.07164-209.18822C346.5157-208.87824 345.73728-210.65787 346.02235-210.40419 365.93345-209.85228 383.985-209.49137 402.086-210.70407 418.0724-209.85518 416.64677-209.32613 418.09385-195.08812 417.6024-188.17079 416.71015-181.81793 416.90849-175.84316 417.3393-159.4299 417.62117-159.25739 403.47727-159.41109 383.15318-159.1481 365.4178-159.12979 345.92973-158.99231 331.70008-159.19011 331.52799-159.92758 331.68925-174.5199 331.0377-181.44344 330.6361-188.61061 330.9239-195.1388 330.99165-210.6431 332.219-209.42014 346.07164-209.18822Z"/>
<path transform="matrix(1,0,0,-1,291.6669,43.560167)" stroke-width=".75" stroke-linecap="round" stroke-linejoin="round" fill="none" stroke="#000000" d="M108.158329-.122222C107.14033 11.932441 97.37857 21.53885 86.56843 20.938595 73.1013 21.700798 64.3367 11.736348 64.56619-.122503 65.02391-12.731618 74.11019-21.746289 86.6448-22.580222 97.60682-22.095557 106.5388-11.146128 108.158329-.122222Z"/>
<path transform="matrix(1,0,0,-1,291.6669,43.560167)" stroke-width=".75" stroke-linecap="round" stroke-linejoin="round" fill="none" stroke="#000000" d="M107.42723 .433986C121.18247-.146621 135.68944-.203763 149.25879-.01178"/>
<path transform="matrix(1,0,0,-1,291.6669,43.560167)" stroke-width=".75" stroke-linecap="round" stroke-linejoin="round" fill="none" stroke="#000000" d="M137.16367-8.363383C140.53842-4.319848 144.97093-1.237294 150.02399-.391746 145.0368 1.496069 140.48284 3.977959 136.59833 7.993605"/>
<path transform="matrix(1,0,0,-1,291.6669,43.560167)" stroke-width=".75" stroke-linecap="round" stroke-linejoin="round" fill="none" stroke="#000000" d="M534.3779 .172965C534.97647-61.653799 534.9013-123.23812 534.4255-184.95636 495.21638-185.25609 455.89338-185.13106 417.0838-184.63256"/>
<path transform="matrix(1,0,0,-1,291.6669,43.560167)" stroke-width=".75" stroke-linecap="round" stroke-linejoin="round" fill="none" stroke="#000000" d="M430.25865-176.77783C426.30888-180.57607 422.59733-184.10768 416.91764-184.93979 422.3804-185.54933 426.99919-189.00342 429.7647-192.703"/>
<path transform="matrix(1,0,0,-1,291.6669,43.560167)" stroke-width=".75" stroke-linecap="round" stroke-linejoin="round" fill="none" stroke="#000000" d="M331.30909-185.14284C249.4731-184.8106 168.07607-184.72673 85.60669-185.18274 86.24616-130.79396 85.86451-76.311428 86.07162-22.037055"/>
<path transform="matrix(1,0,0,-1,291.6669,43.560167)" stroke-width=".75" stroke-linecap="round" stroke-linejoin="round" fill="none" stroke="#000000" d="M94.03167-34.962694C89.60777-31.657334 86.70851-26.596899 85.78914-21.844447 85.097599-27.29484 82.25086-31.442095 77.62835-34.5101"/>
<path transform="matrix(1,0,0,-1,291.6669,43.560167)" stroke-width=".75" stroke-linecap="round" stroke-linejoin="round" fill="none" stroke="#000000" d="M345.93486-208.83678C345.57853-208.9877 346.65718-208.84029 346.34217-210.2713 364.56349-209.21057 383.09416-209.72856 402.7365-209.8555 418.29124-208.80025 418.39628-209.57343 418.04978-194.43216 417.36125-188.86038 416.8927-181.10747 417.61128-174.11124 417.20075-159.1757 417.41334-160.38883 402.37196-160.29285 384.69215-160.40744 364.4952-159.12685 346.81697-159.42752 331.30335-159.03441 332.487-159.80237 332.49909-174.06499 331.1698-181.29158 332.15364-188.19263 330.9874-193.95777 331.73377-209.89287 331.6408-208.87129 345.93486-208.83678Z"/>
<path transform="matrix(1,0,0,-1,291.6669,43.560167)" stroke-width=".75" stroke-linecap="round" stroke-linejoin="round" fill="none" stroke="#000000" d="M106.654178-.609544C107.401218 11.516861 97.83904 22.486828 84.937129 21.455807 74.213878 22.362456 63.77961 12.369084 63.975187-.413927 63.326505-12.357792 74.43642-21.928862 85.339969-22.298764 97.7591-21.540163 107.000827-11.646539 106.654178-.609544Z"/>
<path transform="matrix(1,0,0,-1,291.6669,43.560167)" stroke-width=".75" stroke-linecap="round" stroke-linejoin="round" fill="none" stroke="#000000" d="M107.55578 .396722C121.52431 .430568 135.7003 .207212 149.84862 .040482"/>
<path transform="matrix(1,0,0,-1,291.6669,43.560167)" stroke-width=".75" stroke-linecap="round" stroke-linejoin="round" fill="none" stroke="#000000" d="M137.24857-8.151411C140.32442-4.391338 144.1985-1.433931 149.44968 .31202 144.17768 .754514 140.29448 3.777267 136.74259 7.818146"/>
<path transform="matrix(1,0,0,-1,291.6669,43.560167)" stroke-width=".75" stroke-linecap="round" stroke-linejoin="round" fill="none" stroke="#000000" d="M534.75527-.079822C534.2122-61.170289 534.7285-122.98724 534.3307-184.7332 495.7976-185.10387 456.42488-184.9299 417.3819-184.56102"/>
<path transform="matrix(1,0,0,-1,291.6669,43.560167)" stroke-width=".75" stroke-linecap="round" stroke-linejoin="round" fill="none" stroke="#000000" d="M429.8157-177.07617C427.01799-180.61473 422.39399-183.6986 417.36497-184.81223 422.3349-185.53688 426.9012-189.23357 430.05589-192.92441"/>
<path transform="matrix(1,0,0,-1,291.6669,43.560167)" stroke-width=".75" stroke-linecap="round" stroke-linejoin="round" fill="none" stroke="#000000" d="M331.60215-184.78453C249.89069-184.53493 167.73694-184.7989 86.21735-185.22438 86.10387-130.56098 85.7462-76.32731 86.01689-21.741528"/>
<path transform="matrix(1,0,0,-1,291.6669,43.560167)" stroke-width=".75" stroke-linecap="round" stroke-linejoin="round" fill="none" stroke="#000000" d="M94.215938-34.706964C89.86129-31.781336 87.29424-27.005539 85.76335-21.729098 84.22899-27.113387 81.80672-31.329035 77.99825-35.083829"/>
<path transform="matrix(1,0,0,-1,291.6669,43.560167)" stroke-width=".75" stroke-linecap="round" stroke-linejoin="round" fill="none" stroke="#000000" d="M346.36946-209.32149C345.58045-210.60349 346.2716-209.77301 347.49223-210.41265 364.29359-209.49057 383.5625-208.91716 402.0519-210.37699 418.16853-209.12023 418.29185-209.86615 417.56028-194.31652 416.81318-188.2759 417.39964-180.66371 417.25477-173.93503 417.2839-160.18289 416.7399-160.72235 402.1434-160.37786 383.38768-160.57854 365.88215-160.27597 346.22908-159.10858 331.585-159.54978 330.6088-159.29512 331.8163-175.69428 331.15049-181.0606 331.89186-188.00736 331.3833-194.81995 331.08357-210.47042 331.15718-209.31195 346.36946-209.32149Z"/>
<path transform="matrix(1,0,0,-1,291.6669,43.560167)" stroke-width=".75" stroke-linecap="round" stroke-linejoin="round" fill="none" stroke="#000000" d="M107.32724 .406382C106.856029 11.560777 97.49455 21.522828 85.64741 21.787489 73.21361 21.466612 64.56136 11.719425 64.69881-.614874 63.394926-11.268157 74.44024-22.09317 85.9042-21.409884 96.95857-21.915278 106.9903-12.283278 107.32724 .406382Z"/>
<path transform="matrix(1,0,0,-1,291.6669,43.560167)" stroke-width=".75" stroke-linecap="round" stroke-linejoin="round" fill="none" stroke="#000000" d="M107.74383 .17493C121.81695 .448728 135.50775-.158441 149.2354 .38103"/>
<path transform="matrix(1,0,0,-1,291.6669,43.560167)" stroke-width=".75" stroke-linecap="round" stroke-linejoin="round" fill="none" stroke="#000000" d="M136.90534-8.088425C139.80191-3.971576 144.8608-1.481921 149.25424 .397696 144.75099 .840085 140.1155 3.86471 136.65398 7.988246"/>
<path transform="matrix(1,0,0,-1,291.6669,43.560167)" stroke-width=".75" stroke-linecap="round" stroke-linejoin="round" fill="none" stroke="#000000" d="M534.80007 .132647C534.5699-61.59439 534.8596-123.62088 534.42819-184.85155 495.4323-184.47498 455.96195-185.19274 417.20875-184.60686"/>
<path transform="matrix(1,0,0,-1,291.6669,43.560167)" stroke-width=".75" stroke-linecap="round" stroke-linejoin="round" fill="none" stroke="#000000" d="M429.38383-177.12038C426.25694-180.42255 421.74903-183.42588 416.71769-185.19437 421.94898-186.0473 426.39659-188.56221 430.16816-192.82666"/>
<path transform="matrix(1,0,0,-1,291.6669,43.560167)" stroke-width=".75" stroke-linecap="round" stroke-linejoin="round" fill="none" stroke="#000000" d="M331.72773-185.00373C249.27835-185.12419 167.59772-184.55382 85.66875-185.05055 85.59943-130.50327 86.25167-76.10482 85.388858-21.9897"/>
<path transform="matrix(1,0,0,-1,291.6669,43.560167)" stroke-width=".75" stroke-linecap="round" stroke-linejoin="round" fill="none" stroke="#000000" d="M93.84941-34.374814C89.78739-31.148837 86.84801-26.621914 85.39622-22.202324 84.52432-26.725022 82.17328-31.902462 77.71985-34.33474"/>
<use data-text="+" xlink:href="#font_4_1" transform="matrix(21.519354,0,0,-21.519316,339.43193,35.81732)"/>
<use data-text="&#x2212;" xlink:href="#font_4_7" transform="matrix(21.519371,0,0,-21.519288,383.6311,74.169559)"/>
</svg>
