<svg xmlns="http://www.w3.org/2000/svg" xmlns:xlink="http://www.w3.org/1999/xlink" xmlns:inkscape="http://www.inkscape.org/namespaces/inkscape" version="1.1" width="922.0901" height="360.44825" viewBox="0 0 922.0901 360.44825">
<defs>
<path id="font_9_1" d="M.04598999 .23632813H.35598756V-.07368469L.3959961-.06668091V.23632813H.70399478L.70899966 .2763214H.3959961V.58631899L.35598756 .58032229V.2763214H.052993776L.04598999 .23632813Z"/>
<path id="font_9_2" d="M.08999634 .32458497C.08999634 .22958374 .114990238 .13148499 .18299866 .06341553 .23699951 .009384155 .31199647-.016601563 .3880005-.016601563 .46099855-.016601563 .56900027 .010391235 .6569977 .03338623 .6569977 .03338623 .6539917 .216568 .6519928 .30760194L.37599183 .2966156V.27061463L.38198854 .265625C.43598939 .26361085 .5 .25961305 .5439911 .25660707 .57199099 .25460816 .57199099 .22257996 .57199099 .13449097 .57199099 .061416627 .56900027 .04940796 .5519867 .045394899 .5209961 .038391115 .48999024 .03538513 .45799256 .03538513 .37998963 .03538513 .30599977 .060409547 .2619934 .112472537 .20399475 .18052674 .17999268 .25260926 .17999268 .3405609 .17999268 .48339845 .23199463 .5653076 .26098634 .5942688 .3039856 .63623049 .36299134 .6502075 .42199708 .6502075 .5529938 .6502075 .59298709 .5563202 .60598757 .53034976L.6179962 .5293579 .6759949 .58628848C.6649933 .6032715 .6119995 .69921877 .46699525 .69921877 .3619995 .69921877 .25698854 .6682129 .18199158 .593277 .11199951 .5233612 .08999634 .4224701 .08999634 .32458497Z"/>
<path id="font_9_3" d="M.1349945 .6123047H.22898865C.25698854 .6123047 .27999879 .59129336 .2809906 .5662842 .28199769 .541275 .28199769 .46824647 .28199769 .41923524 .28199769 .27919007 .27799989 .13916016 .272995 .00010681152L.28599549-.0048828127 .3809967 .022125245C.37799073 .09814453 .37799073 .2962036 .37799073 .43223573 .37799073 .52127078 .37998963 .6112976 .38598634 .7003021L.3789978 .71229556 .1349945 .6392975V.6123047Z"/>
<path id="font_9_4" d="M.11299133 .24990845C.11299133 .007904053 .1519928-.09008789 .18299866-.13310242 .21099854-.17008972 .25299073-.20809937 .30099488-.21209717V-.1880951C.2809906-.18409729 .25099183-.16809082 .23399353-.1481018 .21998596-.13209534 .16499329-.05809021 .16499329 .24990845 .16499329 .4618988 .19799805 .5659027 .21998596 .6128998 .23599243 .6469116 .2689972 .6769104 .30099488 .684906V.71191409C.2599945 .7049103 .21598816 .6729126 .19099427 .63790896 .1599884 .5919037 .11299133 .4748993 .11299133 .24990845Z"/>
<path id="font_9_5" d="M.051986696 .06642151C.06199646 .047409059 .07598877 .030395508 .09199524 .01638794 .12098694-.009613037 .16099549-.016601563 .19898987-.016601563 .2559967-.016601563 .31199647 .0023956299 .35099793 .044403078 .375 .06941223 .3869934 .10343933 .3869934 .13845825 .3869934 .1634674 .37298585 .18649292 .35499574 .20449829 .34098817 .21850586 .3039856 .24052429 .27198792 .25453187 .24299622 .26654054 .19999695 .2885437 .18798828 .30055238 .17298889 .31655885 .1619873 .3285675 .1619873 .35058595 .1619873 .3725891 .16899109 .39360047 .18499756 .4086151 .19999695 .42362977 .22200012 .43164063 .24398804 .43164063 .2639923 .43164063 .2849884 .42462159 .29599 .4066162 .30599977 .39060975 .30799867 .3715973 .30899049 .35359193L.32099916 .34657289 .37599183 .38360597C.375 .40560914 .3639984 .42662049 .34799195 .44163514 .32499696 .46263124 .29299928 .46662904 .2630005 .46662904 .21398926 .46662904 .16699219 .45063783 .1309967 .4176178 .10398865 .39360047 .08999634 .35858155 .08999634 .32356263 .08999634 .29154969 .10798645 .26353456 .1309967 .2425232 .1539917 .22250366 .18399048 .2084961 .21499634 .1954956 .24099732 .18447876 .2689972 .17248535 .28799439 .1534729 .30299378 .13845825 .31399537 .11845398 .31399537 .09744263 .31399537 .079422 .30499269 .062408449 .29299928 .04940796 .27799989 .03340149 .25099183 .021392823 .22898865 .021392823 .19898987 .021392823 .17199707 .03439331 .1499939 .055404664 .1269989 .076416019 .116989139 .10644531 .114990238 .13645935L.100997928 .13745117 .051986696 .06642151Z"/>
<path id="font_9_6" d="M.085998538-.1880951V-.21209717C.13398743-.20610047 .1789856-.17208863 .20698548-.13510132 .23799134-.09210205 .27598573 .007904053 .27598573 .24990845 .27598573 .50090029 .22399903 .5919037 .19299317 .63790896 .16799927 .6729126 .1269989 .7049103 .085998538 .71191409V.684906C.117996219 .6759033 .14898682 .6469116 .16499329 .6128998 .18699646 .5659027 .22399903 .48190309 .22399903 .24990845 .22399903-.099090579 .17199707-.13209534 .1579895-.1481018 .14099121-.16809082 .10598755-.18409729 .085998538-.1880951Z"/>
<path id="font_9_10" d="M.04499817 .001953125H.5379944L.56399539 .079940799 .5589905 .08795166H.20999146C.20399475 .08795166 .19799805 .08894348 .19599915 .092941287 .19499207 .094940189 .19599915 .09794617 .19699097 .09895325 .2539978 .1569519 .30799867 .21495056 .35899354 .27496339 .394989 .31697084 .42999269 .358963 .45799256 .40496827 .48799134 .4509735 .5119934 .49998475 .5119934 .5529938 .5119934 .59399417 .49899293 .6349945 .46499635 .66400149 .43199159 .69299319 .3880005 .7080078 .34199525 .7080078 .29899598 .7080078 .2579956 .6970062 .22099304 .67900088 .17599488 .65800479 .13699341 .6279907 .102996829 .59498599L.125 .57598879C.1519928 .59599307 .17799378 .61099246 .20999146 .6259918 .23098755 .6360016 .2559967 .6399994 .2809906 .6399994 .31399537 .6399994 .34700013 .6289978 .37098695 .6069946 .40098573 .5779877 .4079895 .5369873 .4079895 .50798037 .4079895 .4429779 .38198854 .38197328 .34298707 .3259735 .31098939 .27996827 .27198792 .23796082 .23199463 .19696045 .17199707 .13494873 .10899353 .07594299 .04499817 .017944336V.001953125Z"/>
<path id="font_9_11" d="M.050994874 .049362184 .05899048 .038375856C.10998535 .0033874512 .17098999-.016601563 .23599243-.016601563 .31799317-.016601563 .397995 .008392334 .45700074 .05935669 .5039978 .10131836 .5349884 .15626526 .5349884 .21520996 .5349884 .25416566 .519989 .2911377 .48999024 .31811524 .46899415 .3360901 .44198609 .34709168 .41600038 .35508729 .3789978 .36608888 .34199525 .37109376 .30299378 .37408448V.38209535C.34999085 .39408876 .3939972 .41609193 .42900086 .44610597 .46499635 .47810365 .48199464 .52311709 .48199464 .5681305 .48199464 .60414126 .46798707 .6401367 .43899537 .6651459 .40699769 .6941376 .36099244 .70214846 .31698609 .70214846 .2849884 .70214846 .25498963 .69114688 .22599793 .67814639 .18598938 .6591339 .14698792 .63414 .11199951 .60813906L.12799073 .58613589C.1539917 .60113528 .17999268 .6151428 .20799256 .6261444 .22799683 .6331482 .24699402 .6391449 .2659912 .6391449 .2999878 .6391449 .33299256 .6321411 .35598756 .61112979 .37799073 .59213259 .3889923 .5671234 .3889923 .54011538 .3889923 .502121 .37199403 .46510316 .34098817 .43710328 .32299806 .4210968 .29899598 .40908814 .27398683 .39909364 .24198914 .38609315 .20698548 .37808229 .17298889 .37109376L.17199707 .34509278C.21398926 .34509278 .2559967 .34309388 .29699708 .3340912 .32499696 .32809449 .35299684 .31910707 .37298585 .30012513 .4059906 .26914979 .42900086 .22920227 .42900086 .18623352 .42900086 .14128113 .41299439 .095321658 .3769989 .06335449 .34599305 .036376954 .30599977 .023391724 .2639923 .023391724 .22299195 .023391724 .18499756 .041366579 .1559906 .067352298 .13798523 .08332825 .12399292 .10131836 .10998535 .121292117H.09899902L.050994874 .049362184Z"/>
<path id="font_9_7" d="M.04598999 .23046875H.70399478L.70999148 .27046205H.052993776L.04598999 .23046875Z"/>
<path id="font_9_8" d="M.033996583 .6733093 .035995485 .6533203C.037994386 .6533203 .07398987 .6443176 .09199524 .63931277 .12298584 .6313019 .125 .6222992 .125 .54229739 .125 .46427918 .12199402 .38627626 .12199402 .30825807 .12199402 .24723816 .12399292 .17323303 .12998963 .12721253 .1349945 .08821106 .1559906-.0087890629 .31399537-.0087890629 .39698792-.0087890629 .47698976 .02520752 .5469971 .07020569L.5549927 .064208988C.5549927 .048202516 .5549927 .032196046 .55599978 .016204834 .55799868 .0012054443 .57598879-.0047912599 .58799746-.0047912599 .61898806-.0047912599 .6899872 .016204834 .7409973 .032196046L.74598696 .03919983 .74198916 .05619812C.7220001 .05419922 .70399478 .048202516 .6839905 .048202516 .673996 .048202516 .6609955 .050201417 .6539917 .0592041 .6389923 .07620239 .6359863 .15222168 .6359863 .20223999 .6359863 .3642578 .6369934 .5733032 .6519928 .68733218L.6459961 .69433596 .55799868 .659317C.55599978 .47727967 .55400088 .2942505 .55400088 .11122131 .5 .079208377 .43998719 .052200319 .37799073 .052200319 .24598694 .052200319 .22399903 .13922119 .21598816 .16522217 .20599365 .19923401 .20199585 .23423767 .20199585 .26924134L.20999146 .54229739C.20999146 .55929568 .21598816 .6603241 .21798706 .67433169L.21099854 .6803131H.041992189L.033996583 .6733093Z"/>
<path id="font_9_9" d="M.022994996 .6513672C.036987306 .649353 .049987794 .6463623 .06298828 .6433563 .07199097 .6413574 .07998657 .6353607 .085998538 .62835696 .09599304 .61834719 .102996829 .60635378 .10899353 .5943451L.2579956 .29930116C.2579956 .19927979 .2579956 .0982666 .25498963-.0017547608L.2659912-.0107421879 .35598756 .018249512 .34700013 .30630494C.42999269 .4343109 .5039978 .5303345 .61499026 .675354L.61099246 .6933594 .526001 .6763611C.48999024 .619339 .4059906 .47431947 .397995 .46032716 .3849945 .4373169 .34199525 .36730958 .33898927 .3623047 .33599855 .3572998 .33198548 .353302 .32798768 .353302 .32199098 .353302 .31698609 .3592987 .31599427 .36131288L.1749878 .6863556H.02999878L.022994996 .67936709V.6513672Z"/>
<path id="font_9_12" d="M.051986696 .6781769 .052993776 .6591797C.07299805 .65216067 .10899353 .6411438 .11299133 .6401367 .12298584 .6361389 .125 .6251221 .12599182 .6161041 .1309967 .53297427 .13198853 .44985963 .13198853 .36676026 .13198853 .24482727 .13198853 .11590576 .12199402 .0029907227L.12799073-.0020141602 .21998596 .025970459C.21699524 .051956178 .21499634 .10292053 .21499634 .1798706V.33377076C.21499634 .34075929 .22099304 .34576417 .22799683 .34576417H.57099917C.5799866 .34576417 .58299258 .33876039 .58299258 .33377076 .58299258 .23683167 .5799866 .11790466 .5779877 .020980835L.58898928 0 .73799136 .0078125 .74398806 .013809204 .7429962 .031799318C.72499087 .03981018 .66600039 .03981018 .66600039 .07879639 .66600039 .09979248 .6619873 .24076844 .6619873 .32176209 .6619873 .5129547 .66999819 .64515689 .6729889 .6841736L.66799929 .6901703 .5799866 .673172C.5799866 .58706668 .58299258 .48291017 .58299258 .3967743 .58299258 .39076234 .58200076 .38476563 .57099917 .38476563H.22499085C.21499634 .38476563 .21299744 .3917694 .21299744 .3967743 .21299744 .4618683 .21699524 .54600527 .21899414 .61109927 .21998596 .63414 .22200012 .6581726 .22599793 .6801758L.22099304 .6851654H.05899048L.051986696 .6781769Z"/>
</defs>
<use data-text="+" xlink:href="#font_9_1" transform="matrix(37.185197,0,0,-37.18505,277.6274,49.472414)"/>
<use data-text="G" xlink:href="#font_9_2" transform="matrix(21.519362,0,0,-21.519398,135.64244,45.332918)"/>
<use data-text="1" xlink:href="#font_9_3" transform="matrix(16.438399,0,0,-16.438426,152.1097,49.63388)"/>
<use data-text="(" xlink:href="#font_9_4" transform="matrix(21.519362,0,0,-21.519398,162.35228,45.332918)"/>
<use data-text="s" xlink:href="#font_9_5" transform="matrix(21.519362,0,0,-21.519398,171.8974,45.332918)"/>
<use data-text=")" xlink:href="#font_9_6" transform="matrix(21.519362,0,0,-21.519398,182.88434,45.332918)"/>
<use data-text="G" xlink:href="#font_9_2" transform="matrix(21.519362,0,0,-21.519398,563.7217,45.332918)"/>
<use data-text="2" xlink:href="#font_9_10" transform="matrix(16.438399,0,0,-16.438426,580.18899,49.568117)"/>
<use data-text="(" xlink:href="#font_9_4" transform="matrix(21.519362,0,0,-21.519398,590.4315,45.332918)"/>
<use data-text="s" xlink:href="#font_9_5" transform="matrix(21.519362,0,0,-21.519398,599.9767,45.332918)"/>
<use data-text=")" xlink:href="#font_9_6" transform="matrix(21.519362,0,0,-21.519398,610.96359,45.332918)"/>
<use data-text="G" xlink:href="#font_9_2" transform="matrix(21.519362,0,0,-21.519398,713.0984,45.332918)"/>
<use data-text="3" xlink:href="#font_9_11" transform="matrix(16.438399,0,0,-16.438426,729.56558,49.469514)"/>
<use data-text="(" xlink:href="#font_9_4" transform="matrix(21.519362,0,0,-21.519398,739.8082,45.332918)"/>
<use data-text="s" xlink:href="#font_9_5" transform="matrix(21.519362,0,0,-21.519398,749.3534,45.332918)"/>
<use data-text=")" xlink:href="#font_9_6" transform="matrix(21.519362,0,0,-21.519398,760.34036,45.332918)"/>
<path transform="matrix(1,0,0,-1,291.6669,39.95166)" stroke-width=".75" stroke-linecap="round" stroke-linejoin="round" fill="none" stroke="#000000" d="M-155.20418-25.881632C-155.84577-25.2463-155.2001-24.165019-155.92086-24.351393-138.28447-25.218472-119.73876-24.040656-99.95969-24.366267-85.45942-25.114266-84.464878-24.866248-85.8542-9.255194-84.65045-2.422826-85.07363 2.990264-84.52433 10.909648-85.626468 24.269238-84.985569 24.493958-100.64478 24.616568-118.17629 24.66907-137.73548 24.427248-155.87276 24.128449-171.19277 24.669032-171.7765 25.52411-171.2618 9.388709-171.29003 3.830087-171.5386-3.081863-171.34178-10.559297-171.31938-24.143757-170.21938-25.371409-155.20418-25.881632Z"/>
<path transform="matrix(1,0,0,-1,291.6669,39.95166)" stroke-width=".75" stroke-linecap="round" stroke-linejoin="round" fill="none" stroke="#000000" d="M272.61466-25.761763C272.069-24.880867 272.73628-24.235808 271.418-24.051339 291.42848-25.433466 308.91404-24.168278 327.98228-24.899628 343.61494-24.624045 342.8692-25.293778 341.68885-10.651021 341.8516-3.118802 342.08836 2.877096 343.23759 9.01604 342.03919 25.095614 342.9456 25.139239 328.2816 25.390255 309.65599 24.470395 291.44755 25.744938 272.25163 25.460349 257.88648 25.220095 256.80635 25.489682 257.01414 8.9721 257.8778 2.893242 257.18898-3.032686 257.83015-10.555746 257.15168-24.272807 257.3125-25.12319 272.61466-25.761763Z"/>
<path transform="matrix(1,0,0,-1,291.6669,39.95166)" stroke-width=".75" stroke-linecap="round" stroke-linejoin="round" fill="none" stroke="#000000" d="M421.41978-25.642163C420.94279-24.401112 421.96589-24.727307 420.66444-24.812909 439.5711-25.26007 457.94465-24.400376 477.29444-24.936102 491.29789-23.97103 492.81358-24.124228 492.46226-9.618448 492.6221-4.0454 492.3488 2.894064 491.58055 9.668843 492.6198 25.047055 491.70497 25.371529 477.4439 25.348073 458.36799 24.06932 440.62379 24.154658 422.4108 24.157389 405.87977 25.387253 407.24543 25.283696 406.61329 9.376391 407.25736 3.467306 406.80366-3.817805 405.771-9.294542 405.89768-24.717003 406.86466-25.76149 421.41978-25.642163Z"/>
<path transform="matrix(1,0,0,-1,291.6669,39.95166)" stroke-width=".75" stroke-linecap="round" stroke-linejoin="round" fill="none" stroke="#000000" d="M21.22491-.114948C21.885016 11.649812 11.770967 22.205525-.509175 21.682875-11.418729 21.647843-22.048523 11.48962-22.45323-.139931-22.429272-11.870782-12.428584-21.545016-.278728-22.153872 11.821982-20.737225 22.157237-12.515131 21.22491-.114948Z"/>
<path transform="matrix(1,0,0,-1,291.6669,39.95166)" stroke-width=".75" stroke-linecap="round" stroke-linejoin="round" fill="none" stroke="#000000" d="M-234.45421 .09247C-214.11769 .188813-192.43535 .202717-171.02718-.083863"/>
<path transform="matrix(1,0,0,-1,291.6669,39.95166)" stroke-width=".75" stroke-linecap="round" stroke-linejoin="round" fill="none" stroke="#000000" d="M-184.46367-8.019615C-180.81543-4.083823-176.66837-1.195414-171.39052 .206184-176.39942 .928689-180.53565 4.034361-184.05319 8.159166"/>
<path transform="matrix(1,0,0,-1,291.6669,39.95166)" stroke-width=".75" stroke-linecap="round" stroke-linejoin="round" fill="none" stroke="#000000" d="M-85.764209 .168921C-64.52999-.068989-43.31226 .279771-21.60685 .372178"/>
<path transform="matrix(1,0,0,-1,291.6669,39.95166)" stroke-width=".75" stroke-linecap="round" stroke-linejoin="round" fill="none" stroke="#000000" d="M-34.66998-7.926524C-31.346804-4.095409-26.592146-1.443304-22.171496 .372233-26.791699 1.023694-31.49932 3.57304-34.714559 7.621783"/>
<path transform="matrix(1,0,0,-1,291.6669,39.95166)" stroke-width=".75" stroke-linecap="round" stroke-linejoin="round" fill="none" stroke="#000000" d="M342.8629 .077088C363.54795 .428041 385.24699-.073316 405.71299-.28431"/>
<path transform="matrix(1,0,0,-1,291.6669,39.95166)" stroke-width=".75" stroke-linecap="round" stroke-linejoin="round" fill="none" stroke="#000000" d="M393.65919-7.888506C396.65928-4.207269 400.65657-1.526905 406.25007-.174551 401.08198 .839232 396.58747 3.901475 393.1843 8.477291"/>
<path transform="matrix(1,0,0,-1,291.6669,39.95166)" stroke-width=".75" stroke-linecap="round" stroke-linejoin="round" fill="none" stroke="#000000" d="M492.09947 .178532C520.30087 .431217 548.6195 .310907 576.7321-.177105"/>
<path transform="matrix(1,0,0,-1,291.6669,39.95166)" stroke-width=".75" stroke-linecap="round" stroke-linejoin="round" fill="none" stroke="#000000" d="M564.2988-7.778794C567.77987-3.913364 571.7061-1.071659 577.4891-.198045 571.91586 .859375 567.7995 3.568753 564.0388 7.61802"/>
<path transform="matrix(1,0,0,-1,291.6669,39.95166)" stroke-width=".75" stroke-linecap="round" stroke-linejoin="round" fill="none" stroke="#000000" d="M534.74307 .259765C534.8086-61.32093 534.8643-123.23318 534.97988-184.87899 495.72099-184.8165 456.09074-184.74915 417.15354-184.52118"/>
<path transform="matrix(1,0,0,-1,291.6669,39.95166)" stroke-width=".75" stroke-linecap="round" stroke-linejoin="round" fill="none" stroke="#000000" d="M429.73255-176.76467C426.27626-180.58542 422.17225-184.08708 416.71598-184.5642 422.35697-186.38277 426.8562-188.99199 429.66557-192.78137"/>
<path transform="matrix(1,0,0,-1,291.6669,39.95166)" stroke-width=".75" stroke-linecap="round" stroke-linejoin="round" fill="none" stroke="#000000" d="M-155.58535-24.81272C-155.60788-24.71592-155.23987-24.806834-156.73723-25.197522-138.18946-24.958256-119.0616-24.102036-99.54045-24.778817-85.3136-24.906657-85.93039-25.377949-86.09521-8.982503-84.59944-4.002806-85.584568 4.053988-85.9742 10.621622-85.269107 25.035588-84.94911 25.80481-100.476207 24.342148-118.34064 23.98889-138.17983 25.136439-156.6606 24.49836-171.5833 25.888213-171.66448 25.70407-170.81507 9.619124-171.52689 3.171414-170.26917-2.857602-171.30362-10.035609-171.21729-25.844622-171.134-24.9565-155.58535-24.81272Z"/>
<path transform="matrix(1,0,0,-1,291.6669,39.95166)" stroke-width=".75" stroke-linecap="round" stroke-linejoin="round" fill="none" stroke="#000000" d="M271.8658-25.82568C272.5495-25.150055 273.02699-23.986773 272.27659-25.44554 289.9316-25.199038 309.26655-25.472064 328.45158-25.833039 343.18775-24.752436 343.2998-24.819077 342.7014-9.06877 343.00355-3.095238 343.32069 2.736916 342.2601 9.31504 343.6145 24.937125 342.923 24.527918 327.2378 25.79868 309.91267 25.659243 290.80894 24.354098 272.96385 24.330519 256.59495 25.20444 256.18623 25.879826 257.98695 9.287675 257.89207 4.115702 256.39976-2.865457 256.86097-10.139173 256.2583-24.396773 256.54905-24.939623 271.8658-25.82568Z"/>
<path transform="matrix(1,0,0,-1,291.6669,39.95166)" stroke-width=".75" stroke-linecap="round" stroke-linejoin="round" fill="none" stroke="#000000" d="M421.89823-25.611577C421.12657-24.695546 422.30854-24.4815 420.81626-25.540202 439.23695-25.14668 458.9652-25.10254 477.00804-25.677798 491.38819-24.535777 491.33088-25.012597 491.78959-10.417236 492.43913-2.592135 491.09184 2.404211 491.46476 9.091255 491.47264 24.09193 491.84947 25.42127 476.09657 25.860507 459.04096 25.383023 439.8222 25.735829 421.41294 25.023997 405.70103 24.523732 405.69288 25.30213 405.6016 10.622409 406.9762 2.98864 406.40647-4.162371 406.17558-10.294005 406.28129-24.750985 405.54859-24.242074 421.89823-25.611577Z"/>
<path transform="matrix(1,0,0,-1,291.6669,39.95166)" stroke-width=".75" stroke-linecap="round" stroke-linejoin="round" fill="none" stroke="#000000" d="M21.010184-.815449C21.004055 12.525229 11.149625 21.645724 .646054 22.166186-11.583371 21.17088-22.271288 12.376642-22.512084 .904851-20.943526-11.284613-12.176742-21.916909-.750524-21.89482 12.583992-22.360768 20.708983-12.326005 21.010184-.815449Z"/>
<path transform="matrix(1,0,0,-1,291.6669,39.95166)" stroke-width=".75" stroke-linecap="round" stroke-linejoin="round" fill="none" stroke="#000000" d="M-234.5271 .344009C-213.77774-.036144-192.50421-.412391-171.09798-.417033"/>
<path transform="matrix(1,0,0,-1,291.6669,39.95166)" stroke-width=".75" stroke-linecap="round" stroke-linejoin="round" fill="none" stroke="#000000" d="M-183.84993-8.010292C-180.5702-3.90636-176.21822-1.323438-171.35828-.284107-176.70372 1.48573-181.02338 3.565828-184.1453 8.074108"/>
<path transform="matrix(1,0,0,-1,291.6669,39.95166)" stroke-width=".75" stroke-linecap="round" stroke-linejoin="round" fill="none" stroke="#000000" d="M-85.57933-.350267C-64.12026-.427588-43.238256 .037312-22.057953 .230447"/>
<path transform="matrix(1,0,0,-1,291.6669,39.95166)" stroke-width=".75" stroke-linecap="round" stroke-linejoin="round" fill="none" stroke="#000000" d="M-34.54662-7.701948C-31.30914-4.093143-27.133324-.963555-21.937466-.383851-26.743924 1.39203-31.15 4.237365-35.04723 7.663254"/>
<path transform="matrix(1,0,0,-1,291.6669,39.95166)" stroke-width=".75" stroke-linecap="round" stroke-linejoin="round" fill="none" stroke="#000000" d="M342.48866 .03278C364.1979-.423849 384.57807-.152007 405.6214-.434474"/>
<path transform="matrix(1,0,0,-1,291.6669,39.95166)" stroke-width=".75" stroke-linecap="round" stroke-linejoin="round" fill="none" stroke="#000000" d="M393.3564-7.625412C396.54374-3.847585 401.1932-1.498817 406.28199 .369289 400.66783 1.077845 396.65275 3.761848 393.7075 8.243603"/>
<path transform="matrix(1,0,0,-1,291.6669,39.95166)" stroke-width=".75" stroke-linecap="round" stroke-linejoin="round" fill="none" stroke="#000000" d="M492.0123-.393777C520.7129-.433913 548.2878 .108835 577.3906-.340284"/>
<path transform="matrix(1,0,0,-1,291.6669,39.95166)" stroke-width=".75" stroke-linecap="round" stroke-linejoin="round" fill="none" stroke="#000000" d="M564.8077-8.421866C567.25698-3.85617 572.19357-1.317719 577.192 .418054 571.6654 1.554616 567.92129 3.742464 564.3722 7.708798"/>
<path transform="matrix(1,0,0,-1,291.6669,39.95166)" stroke-width=".75" stroke-linecap="round" stroke-linejoin="round" fill="none" stroke="#000000" d="M534.3852 .426163C534.9305-62.006956 534.6625-122.97119 534.9489-184.6684 495.61274-185.06768 456.44166-185.2144 416.7904-184.45113"/>
<path transform="matrix(1,0,0,-1,291.6669,39.95166)" stroke-width=".75" stroke-linecap="round" stroke-linejoin="round" fill="none" stroke="#000000" d="M429.57304-177.03499C426.4989-180.49254 422.55628-183.24817 417.42674-185.10414 421.89274-185.71179 426.34434-188.47512 430.24266-193.08708"/>
<path transform="matrix(1,0,0,-1,291.6669,39.95166)" stroke-width=".75" stroke-linecap="round" stroke-linejoin="round" fill="none" stroke="#000000" d="M-155.45409-24.159674C-156.48555-25.496346-156.2128-25.240597-156.6152-25.1761-138.34786-24.580292-119.68182-24.588875-100.97822-24.10969-85.85128-24.944674-85.08275-25.752278-86.0797-10.341467-86.36632-3.641972-84.64401 3.599057-84.927089 10.455673-85.97019 25.886759-85.750049 25.12727-100.56355 25.132678-119.33945 25.10694-138.24408 25.093379-156.60079 24.707003-171.04024 25.690419-171.90003 25.278147-170.36144 9.694931-171.24909 3.018979-171.51427-2.853892-170.49555-10.712513-171.4402-25.361886-171.38304-24.319369-155.45409-24.159674Z"/>
<path transform="matrix(1,0,0,-1,291.6669,39.95166)" stroke-width=".75" stroke-linecap="round" stroke-linejoin="round" fill="none" stroke="#000000" d="M272.92015-24.36736C271.23426-24.363484 271.98863-25.331847 272.4697-24.46098 291.1039-24.237088 308.87568-24.682938 328.23387-24.56745 342.10185-25.58891 342.01808-25.43366 341.9197-9.570345 342.93598-3.473043 343.0468 3.583593 343.02073 10.111532 342.0657 25.60647 342.36164 24.018443 327.2937 24.486458 308.8068 25.302556 291.2396 25.20531 271.96778 25.18405 256.56303 25.46432 256.6067 24.079386 256.90049 9.281909 257.5074 3.870525 257.97645-2.380864 256.24137-10.161355 257.78224-25.564856 256.93559-25.15988 272.92015-24.36736Z"/>
<path transform="matrix(1,0,0,-1,291.6669,39.95166)" stroke-width=".75" stroke-linecap="round" stroke-linejoin="round" fill="none" stroke="#000000" d="M420.71656-25.820685C421.3808-25.158164 422.24757-24.445954 421.02903-25.383303 439.66807-25.423159 457.68086-24.216036 476.67674-24.044726 492.74198-25.905127 492.81678-25.385016 492.8627-9.652228 491.85707-2.821229 491.7947 3.01541 491.92015 9.937735 491.97679 25.316168 491.65885 24.267817 477.87968 24.545224 458.1448 25.058627 439.76573 24.116105 421.94245 24.500336 405.91123 24.48767 405.97639 25.014143 405.56495 9.400083 407.3982 3.471146 405.76524-2.413022 406.38456-10.273297 406.03303-24.626074 406.12336-25.438298 420.71656-25.820685Z"/>
<path transform="matrix(1,0,0,-1,291.6669,39.95166)" stroke-width=".75" stroke-linecap="round" stroke-linejoin="round" fill="none" stroke="#000000" d="M21.248005-.808725C21.180909 12.612605 10.982276 20.73898 .451925 20.739182-12.491004 22.603873-21.809676 12.885686-22.23506-.648916-21.823428-11.499971-11.304998-21.322476-.514509-22.60724 10.995303-22.514426 21.171637-11.060848 21.248005-.808725Z"/>
<path transform="matrix(1,0,0,-1,291.6669,39.95166)" stroke-width=".75" stroke-linecap="round" stroke-linejoin="round" fill="none" stroke="#000000" d="M-235.23572 .224954C-214.01775-.217515-192.24822-.181178-170.96823 .443835"/>
<path transform="matrix(1,0,0,-1,291.6669,39.95166)" stroke-width=".75" stroke-linecap="round" stroke-linejoin="round" fill="none" stroke="#000000" d="M-184.20229-7.997114C-181.28427-4.034821-175.99163-1.382436-171.56433-.230768-176.80324 .993292-181.23848 3.991132-183.89557 7.849916"/>
<path transform="matrix(1,0,0,-1,291.6669,39.95166)" stroke-width=".75" stroke-linecap="round" stroke-linejoin="round" fill="none" stroke="#000000" d="M-85.37094-.416802C-64.34566-.287032-43.32249-.090131-22.31168 .427755"/>
<path transform="matrix(1,0,0,-1,291.6669,39.95166)" stroke-width=".75" stroke-linecap="round" stroke-linejoin="round" fill="none" stroke="#000000" d="M-34.819967-8.302202C-31.539933-4.265-26.761134-.780546-21.912102 .282409-27.335349 .922635-31.628718 4.188842-34.801267 8.479452"/>
<path transform="matrix(1,0,0,-1,291.6669,39.95166)" stroke-width=".75" stroke-linecap="round" stroke-linejoin="round" fill="none" stroke="#000000" d="M342.3059 .35341C363.97496 .162088 384.53053 .18428 405.6457-.303493"/>
<path transform="matrix(1,0,0,-1,291.6669,39.95166)" stroke-width=".75" stroke-linecap="round" stroke-linejoin="round" fill="none" stroke="#000000" d="M393.8441-8.180284C396.5935-4.129025 401.2918-1.367147 406.07344 .404802 401.27516 1.434811 396.15507 3.632304 393.71733 7.753066"/>
<path transform="matrix(1,0,0,-1,291.6669,39.95166)" stroke-width=".75" stroke-linecap="round" stroke-linejoin="round" fill="none" stroke="#000000" d="M491.8801-.217774C519.9554-.175707 548.33456 .07912 576.90786-.304459"/>
<path transform="matrix(1,0,0,-1,291.6669,39.95166)" stroke-width=".75" stroke-linecap="round" stroke-linejoin="round" fill="none" stroke="#000000" d="M564.8303-7.724213C567.71957-4.407351 571.995-1.527761 576.7166-.175019 571.9798 1.132275 567.1583 3.724704 564.40548 8.038163"/>
<path transform="matrix(1,0,0,-1,291.6669,39.95166)" stroke-width=".75" stroke-linecap="round" stroke-linejoin="round" fill="none" stroke="#000000" d="M534.93826-.341707C534.53219-61.68845 534.7472-123.64253 534.6862-184.99399 495.82157-184.46137 456.58097-185.17853 417.09556-184.62209"/>
<path transform="matrix(1,0,0,-1,291.6669,39.95166)" stroke-width=".75" stroke-linecap="round" stroke-linejoin="round" fill="none" stroke="#000000" d="M429.44355-176.61589C426.755-180.80773 422.30989-184.0344 416.80076-184.55162 422.48283-185.95098 426.82167-189.11962 429.84196-192.48969"/>
<path transform="matrix(1,0,0,-1,291.6669,39.95166)" stroke-width=".75" stroke-linecap="round" stroke-linejoin="round" fill="none" stroke="#000000" d="M-155.7576-24.622395C-156.73978-25.71439-156.36907-24.62864-156.95597-25.432593-137.70694-24.31294-119.8587-24.794367-101.290798-25.681269-85.2637-24.315278-86.05392-24.992243-84.58654-10.30757-85.63709-2.837434-85.90661 4.087789-85.30816 9.541482-84.99094 25.845643-86.28116 24.6909-101.333438 25.425366-118.81519 25.831353-137.99857 24.490103-156.12488 24.498862-171.6979 25.2359-171.9021 25.061892-170.79857 9.108187-170.15364 3.082241-170.58287-3.204987-171.26494-10.782743-171.08313-24.881325-171.77794-25.568799-155.7576-24.622395Z"/>
<path transform="matrix(1,0,0,-1,291.6669,39.95166)" stroke-width=".75" stroke-linecap="round" stroke-linejoin="round" fill="none" stroke="#000000" d="M272.04786-24.41813C272.19859-24.029942 272.93309-24.968089 272.8906-25.509957 290.70347-23.974843 309.05284-25.667483 327.80415-24.826066 342.27168-25.273285 342.21623-24.543915 342.83564-10.90558 343.07667-2.493717 342.67539 2.91089 341.9243 9.103947 342.99964 25.166874 343.18769 24.441723 326.80555 25.573168 309.77915 25.670243 290.11958 25.421727 271.2389 25.320403 257.96025 25.89683 256.3568 24.38635 257.9369 10.446698 256.53346 4.063637 257.62629-3.233709 256.5572-9.100225 257.0286-24.7536 256.52406-25.186392 272.04786-24.41813Z"/>
<path transform="matrix(1,0,0,-1,291.6669,39.95166)" stroke-width=".75" stroke-linecap="round" stroke-linejoin="round" fill="none" stroke="#000000" d="M420.5332-24.50825C420.59126-25.249129 420.4772-25.05528 421.9087-24.640877 440.48738-25.474375 458.47257-24.640023 476.50254-25.407517 492.8238-25.238278 492.50877-24.686209 491.4349-10.661263 492.95716-4.125341 492.92359 4.240902 492.82569 10.394796 492.7621 25.40008 491.1571 25.763848 477.61018 25.915949 458.0257 25.288725 439.7342 25.415823 421.89076 24.251454 407.1382 24.94306 406.27326 25.535593 405.8406 9.857032 407.36103 2.423413 405.72618-4.274168 406.87895-9.076251 406.40589-25.74147 405.979-25.50406 420.5332-24.50825Z"/>
<path transform="matrix(1,0,0,-1,291.6669,39.95166)" stroke-width=".75" stroke-linecap="round" stroke-linejoin="round" fill="none" stroke="#000000" d="M22.066834 .60779C21.222714 11.354266 11.6663 21.569329-.022855 20.790017-12.594917 21.39863-22.090159 11.855396-22.075938 .908125-20.986556-11.845174-12.716387-22.304104 .854103-21.034127 12.028008-20.992423 20.87991-11.683491 22.066834 .60779Z"/>
<path transform="matrix(1,0,0,-1,291.6669,39.95166)" stroke-width=".75" stroke-linecap="round" stroke-linejoin="round" fill="none" stroke="#000000" d="M-235.1705-.185106C-213.45099-.043955-192.34177-.24122-171.09294 .208451"/>
<path transform="matrix(1,0,0,-1,291.6669,39.95166)" stroke-width=".75" stroke-linecap="round" stroke-linejoin="round" fill="none" stroke="#000000" d="M-184.26546-7.615133C-180.62493-4.30966-176.47457-.921292-171.52289-.414508-176.82266 1.493897-181.32424 4.210205-183.91837 8.413245"/>
<path transform="matrix(1,0,0,-1,291.6669,39.95166)" stroke-width=".75" stroke-linecap="round" stroke-linejoin="round" fill="none" stroke="#000000" d="M-85.548137 .135609C-64.63525 .407957-43.4041 .319812-21.976225-.035263"/>
<path transform="matrix(1,0,0,-1,291.6669,39.95166)" stroke-width=".75" stroke-linecap="round" stroke-linejoin="round" fill="none" stroke="#000000" d="M-34.28615-8.301367C-31.381806-4.244284-27.482056-1.045677-22.188284 .335089-27.484738 1.064969-31.448622 3.735778-34.543279 8.505959"/>
<path transform="matrix(1,0,0,-1,291.6669,39.95166)" stroke-width=".75" stroke-linecap="round" stroke-linejoin="round" fill="none" stroke="#000000" d="M342.48863-.100557C364.1046 .245467 384.95 .354844 405.62937 .443699"/>
<path transform="matrix(1,0,0,-1,291.6669,39.95166)" stroke-width=".75" stroke-linecap="round" stroke-linejoin="round" fill="none" stroke="#000000" d="M393.7179-8.062383C396.65647-4.260955 400.92115-1.303047 406.35725 .385749 401.3646 1.482208 396.25187 3.958603 393.2859 7.904621"/>
<path transform="matrix(1,0,0,-1,291.6669,39.95166)" stroke-width=".75" stroke-linecap="round" stroke-linejoin="round" fill="none" stroke="#000000" d="M492.32106-.408063C520.10147 .434692 548.78726 .439272 577.36349 .430567"/>
<path transform="matrix(1,0,0,-1,291.6669,39.95166)" stroke-width=".75" stroke-linecap="round" stroke-linejoin="round" fill="none" stroke="#000000" d="M564.42916-8.469039C567.76699-3.609498 571.97109-1.164414 576.74337-.08247 572.4274 .729355 567.9226 3.589881 564.6421 7.656268"/>
<path transform="matrix(1,0,0,-1,291.6669,39.95166)" stroke-width=".75" stroke-linecap="round" stroke-linejoin="round" fill="none" stroke="#000000" d="M534.65567-.26807C534.1745-61.77801 534.354-123.11969 534.11648-184.89308 495.14-184.60668 456.62693-184.75922 417.58335-184.59307"/>
<path transform="matrix(1,0,0,-1,291.6669,39.95166)" stroke-width=".75" stroke-linecap="round" stroke-linejoin="round" fill="none" stroke="#000000" d="M430.22807-176.67714C426.43428-180.62397 422.19569-183.4924 417.50468-184.63034 421.867-185.9603 426.9486-188.81568 429.72459-193.13263"/>
<path transform="matrix(1,0,0,-1,291.6669,39.95166)" stroke-width=".75" stroke-linecap="round" stroke-linejoin="round" fill="none" stroke="#000000" d="M-156.3049-25.88551C-156.75511-25.519299-155.9847-24.73777-156.77736-25.240363-137.17929-24.908093-118.77758-24.73602-100.61924-24.624-84.93688-24.320109-84.54661-24.217463-86.169467-10.42804-86.15199-2.533288-85.64515 2.384954-86.1375 9.466187-85.09064 24.460082-85.66499 25.602263-100.30975 25.336676-119.78842 25.50338-138.12258 24.675326-155.35599 23.991192-171.54003 25.298645-171.33364 25.775517-171.97158 9.046539-171.75931 3.089242-171.73378-2.613827-171.76119-9.542944-170.83049-24.001692-170.4999-24.90865-156.3049-25.88551Z"/>
<path transform="matrix(1,0,0,-1,291.6669,39.95166)" stroke-width=".75" stroke-linecap="round" stroke-linejoin="round" fill="none" stroke="#000000" d="M271.66477-23.97888C272.44123-24.47042 271.27476-24.666989 272.88398-25.37421 291.23594-24.007969 308.40077-25.428145 327.32719-24.045168 342.7442-24.455887 343.59043-25.266489 342.84184-10.755031 343.42726-3.340245 343.58338 2.396467 342.64665 10.7919 342.82914 25.65203 342.84965 24.682604 328.44486 24.763968 308.58509 25.40799 289.6776 24.637749 271.80299 25.6129 256.71253 25.651925 257.8037 25.70055 256.8568 10.149991 257.08634 3.564295 256.8899-3.923553 257.84379-10.492051 257.94367-24.308632 256.66227-25.915534 271.66477-23.97888Z"/>
<path transform="matrix(1,0,0,-1,291.6669,39.95166)" stroke-width=".75" stroke-linecap="round" stroke-linejoin="round" fill="none" stroke="#000000" d="M421.5746-23.987812C421.00013-25.72819 422.40837-24.97506 421.48054-25.696595 440.71534-25.864047 459.01423-24.192616 477.74775-25.281687 491.87724-24.747897 492.88407-24.562005 491.6236-9.947041 491.0772-2.766043 491.12577 3.185598 492.01524 9.519 492.86045 24.785866 491.53688 25.662533 477.5738 24.854777 457.96415 25.052752 440.54029 25.343592 421.44584 24.90962 406.73524 24.042452 405.95353 24.435397 405.46199 9.860717 405.81135 3.901746 406.8375-3.340148 405.94267-10.310426 406.49064-25.785199 406.2278-25.730109 421.5746-23.987812Z"/>
<path transform="matrix(1,0,0,-1,291.6669,39.95166)" stroke-width=".75" stroke-linecap="round" stroke-linejoin="round" fill="none" stroke="#000000" d="M21.156632-.78256C21.21453 11.362472 12.404066 22.133452-.37743 22.176817-12.587709 21.644412-21.757035 11.936096-21.086695 .326448-21.834425-12.150308-12.795342-21.3249 .79598-21.272957 12.817929-22.20244 21.818535-11.030904 21.156632-.78256Z"/>
<path transform="matrix(1,0,0,-1,291.6669,39.95166)" stroke-width=".75" stroke-linecap="round" stroke-linejoin="round" fill="none" stroke="#000000" d="M-235.04708 .163826C-213.39255-.282198-192.52118-.391498-171.04323 .423755"/>
<path transform="matrix(1,0,0,-1,291.6669,39.95166)" stroke-width=".75" stroke-linecap="round" stroke-linejoin="round" fill="none" stroke="#000000" d="M-184.38483-8.265516C-181.03128-3.895474-176.82532-.743948-170.98644 .015386-176.81903 1.509019-181.28789 3.624975-184.26288 8.199069"/>
<path transform="matrix(1,0,0,-1,291.6669,39.95166)" stroke-width=".75" stroke-linecap="round" stroke-linejoin="round" fill="none" stroke="#000000" d="M-85.63899 .299712C-63.878904-.333641-43.142107-.342175-21.914067 .429638"/>
<path transform="matrix(1,0,0,-1,291.6669,39.95166)" stroke-width=".75" stroke-linecap="round" stroke-linejoin="round" fill="none" stroke="#000000" d="M-35.005006-7.83682C-31.263773-4.023261-26.610938-1.492919-22.241356-.417814-26.83923 .807241-31.628184 3.784322-34.926084 8.241432"/>
<path transform="matrix(1,0,0,-1,291.6669,39.95166)" stroke-width=".75" stroke-linecap="round" stroke-linejoin="round" fill="none" stroke="#000000" d="M342.2368-.316062C363.5976 .252948 384.52748 .072428 406.2334-.008571"/>
<path transform="matrix(1,0,0,-1,291.6669,39.95166)" stroke-width=".75" stroke-linecap="round" stroke-linejoin="round" fill="none" stroke="#000000" d="M393.8082-8.031527C396.73579-4.264933 400.70515-1.444795 405.7967 .410539 401.28315 .797201 396.5617 3.642367 393.00093 8.30423"/>
<path transform="matrix(1,0,0,-1,291.6669,39.95166)" stroke-width=".75" stroke-linecap="round" stroke-linejoin="round" fill="none" stroke="#000000" d="M491.7075 .31701C520.69857-.118437 549.1505 .138948 576.8089-.150728"/>
<path transform="matrix(1,0,0,-1,291.6669,39.95166)" stroke-width=".75" stroke-linecap="round" stroke-linejoin="round" fill="none" stroke="#000000" d="M564.2528-8.111616C567.325-3.806217 571.7629-1.002646 577.4149-.252021 572.0679 .799204 567.5087 3.627748 564.46627 8.476236"/>
<path transform="matrix(1,0,0,-1,291.6669,39.95166)" stroke-width=".75" stroke-linecap="round" stroke-linejoin="round" fill="none" stroke="#000000" d="M534.63247 .053213C534.70187-61.45328 534.99588-122.81954 534.9362-185.25882 495.70658-185.19254 456.43766-184.43824 417.59123-184.91239"/>
<path transform="matrix(1,0,0,-1,291.6669,39.95166)" stroke-width=".75" stroke-linecap="round" stroke-linejoin="round" fill="none" stroke="#000000" d="M429.75447-176.92632C426.49363-181.14624 422.4629-183.77832 417.03303-185.24036 421.82456-185.68721 426.2434-188.91947 430.26075-192.59404"/>
<use data-text="+" xlink:href="#font_9_1" transform="matrix(21.519354,0,0,-21.519316,253.61762,32.20883)"/>
<use data-text="&#x2212;" xlink:href="#font_9_7" transform="matrix(21.519371,0,0,-21.519288,297.8168,70.561069)"/>
<use data-text="U" xlink:href="#font_9_8" transform="matrix(21.519457,0,0,-21.519398,6.8143007,45.332918)"/>
<use data-text="(" xlink:href="#font_9_4" transform="matrix(21.519457,0,0,-21.519398,23.470364,45.332918)"/>
<use data-text="s" xlink:href="#font_9_5" transform="matrix(21.519457,0,0,-21.519398,33.015535,45.332918)"/>
<use data-text=")" xlink:href="#font_9_6" transform="matrix(21.519457,0,0,-21.519398,44.00251,45.332918)"/>
<use data-text="Y" xlink:href="#font_9_9" transform="matrix(21.519246,0,0,-21.519398,873.23489,45.332918)"/>
<use data-text="(" xlink:href="#font_9_4" transform="matrix(21.519246,0,0,-21.519398,886.38357,45.332918)"/>
<use data-text="s" xlink:href="#font_9_5" transform="matrix(21.519246,0,0,-21.519398,895.9286,45.332918)"/>
<use data-text=")" xlink:href="#font_9_6" transform="matrix(21.519246,0,0,-21.519398,906.9154,45.332918)"/>
<use data-text="H" xlink:href="#font_9_12" transform="matrix(21.51972,0,0,-21.519398,474.61317,230.14972)"/>
<use data-text="1" xlink:href="#font_9_3" transform="matrix(16.438672,0,0,-16.438426,491.46815,234.45069)"/>
<use data-text="(" xlink:href="#font_9_4" transform="matrix(21.51972,0,0,-21.519398,501.71089,230.14972)"/>
<use data-text="s" xlink:href="#font_9_5" transform="matrix(21.51972,0,0,-21.519398,511.25617,230.14972)"/>
<use data-text=")" xlink:href="#font_9_6" transform="matrix(21.51972,0,0,-21.519398,522.2433,230.14972)"/>
<use data-text="+" xlink:href="#font_9_1" transform="matrix(21.51972,0,0,-21.519398,535.37509,230.14972)"/>
<use data-text="H" xlink:href="#font_9_12" transform="matrix(21.51972,0,0,-21.519398,556.4045,230.14972)"/>
<use data-text="2" xlink:href="#font_9_10" transform="matrix(16.438672,0,0,-16.438426,573.2722,234.38494)"/>
<use data-text="(" xlink:href="#font_9_4" transform="matrix(21.51972,0,0,-21.519398,583.51498,230.14972)"/>
<use data-text="s" xlink:href="#font_9_5" transform="matrix(21.51972,0,0,-21.519398,593.06027,230.14972)"/>
<use data-text=")" xlink:href="#font_9_6" transform="matrix(21.51972,0,0,-21.519398,604.04739,230.14972)"/>
<use data-text="+" xlink:href="#font_9_1" transform="matrix(21.51972,0,0,-21.519398,617.17916,230.14972)"/>
<use data-text="H" xlink:href="#font_9_12" transform="matrix(21.51972,0,0,-21.519398,638.20858,230.14972)"/>
<use data-text="3" xlink:href="#font_9_11" transform="matrix(16.438672,0,0,-16.438426,655.07638,234.28629)"/>
<use data-text="(" xlink:href="#font_9_4" transform="matrix(21.51972,0,0,-21.519398,665.31918,230.14972)"/>
<use data-text="s" xlink:href="#font_9_5" transform="matrix(21.51972,0,0,-21.519398,674.86447,230.14972)"/>
<use data-text=")" xlink:href="#font_9_6" transform="matrix(21.51972,0,0,-21.519398,685.8515,230.14972)"/>
<path transform="matrix(1,0,0,-1,291.66694,39.95166)" stroke-width=".75" stroke-linecap="round" stroke-linejoin="round" fill="none" stroke="#000000" d="M182.12483-301.67076C183.49622-301.4435 183.7465-302.65214 182.54242-303.02558 256.71376-301.4043 330.27195-301.41825 401.7748-301.2125 417.94184-302.2954 417.19514-302.71937 417.75859-288.02619 416.72477-219.87317 418.45475-151.20818 418.4905-83.226848 418.3492-68.38452 418.20027-66.80969 402.06996-68.11017 328.9757-66.79045 255.92894-67.337688 182.29921-66.51401 167.6604-67.33289 167.24976-67.968578 168.41928-82.2287 168.6467-150.07648 167.42786-219.85218 167.02603-286.43348 167.51976-301.80894 168.67484-302.04386 182.12483-301.67076Z"/>
<path transform="matrix(1,0,0,-1,291.66694,39.95166)" stroke-width=".75" stroke-linecap="round" stroke-linejoin="round" fill="none" stroke="#000000" d="M21.264218 .263274C100.11163 .06429 178.05799 .029142 256.6488-.012981"/>
<path transform="matrix(1,0,0,-1,291.66694,39.95166)" stroke-width=".75" stroke-linecap="round" stroke-linejoin="round" fill="none" stroke="#000000" d="M244.07605-8.376833C247.24114-4.245161 251.26865-1.172852 256.2776 .091733 251.77664 1.055046 247.55017 4.255702 243.85802 8.164631"/>
<path transform="matrix(1,0,0,-1,291.66694,39.95166)" stroke-width=".75" stroke-linecap="round" stroke-linejoin="round" fill="none" stroke="#000000" d="M167.59789-184.50754C112.01797-185.00434 56.16523-184.9688 .210269-184.5871-.069232-130.50722 .379841-75.93087-.430627-21.828396"/>
<path transform="matrix(1,0,0,-1,291.66694,39.95166)" stroke-width=".75" stroke-linecap="round" stroke-linejoin="round" fill="none" stroke="#000000" d="M8.359118-34.322919C3.652403-31.804799 1.141382-26.945372-.357354-22.261418-1.275135-26.97359-3.799362-31.496584-8.438896-34.79765"/>
<path transform="matrix(1,0,0,-1,291.66694,39.95166)" stroke-width=".75" stroke-linecap="round" stroke-linejoin="round" fill="none" stroke="#000000" d="M182.70563-301.61634C183.60323-302.3871 182.85842-301.5368 183.41475-302.71177 256.69065-301.4744 328.81565-301.3538 401.66178-302.9918 417.1643-301.93489 416.68428-301.25599 417.29643-287.02287 417.82685-218.06693 418.3405-151.25296 417.63389-81.98953 416.91963-66.89986 418.48835-66.65771 402.68696-67.35173 329.74723-67.42922 256.85496-66.93738 182.71768-67.74986 168.44841-67.74463 168.69155-67.53576 167.64293-82.13927 167.19968-149.8683 168.5185-218.65387 168.66913-288.09013 168.40926-302.32215 168.64775-303.0071 182.70563-301.61634Z"/>
<path transform="matrix(1,0,0,-1,291.66694,39.95166)" stroke-width=".75" stroke-linecap="round" stroke-linejoin="round" fill="none" stroke="#000000" d="M21.32372 .109564C99.99242-.241184 178.78386-.298759 256.37583 .342534"/>
<path transform="matrix(1,0,0,-1,291.66694,39.95166)" stroke-width=".75" stroke-linecap="round" stroke-linejoin="round" fill="none" stroke="#000000" d="M244.18517-7.753964C247.5865-4.284748 251.38822-1.55225 256.53373-.404717 251.94409 1.039036 247.34459 3.598581 244.0346 7.787133"/>
<path transform="matrix(1,0,0,-1,291.66694,39.95166)" stroke-width=".75" stroke-linecap="round" stroke-linejoin="round" fill="none" stroke="#000000" d="M167.543-184.3737C111.96411-185.13079 56.11585-184.80323-.331215-185.09459 .084495-130.38153 .360724-76.154109 .124336-21.917553"/>
<path transform="matrix(1,0,0,-1,291.66694,39.95166)" stroke-width=".75" stroke-linecap="round" stroke-linejoin="round" fill="none" stroke="#000000" d="M7.7923-34.43196C4.177124-31.120713 1.165154-26.87911-.124043-21.972842-1.177726-26.769343-3.566254-31.614035-7.984251-34.572347"/>
<path transform="matrix(1,0,0,-1,291.66694,39.95166)" stroke-width=".75" stroke-linecap="round" stroke-linejoin="round" fill="none" stroke="#000000" d="M182.41103-301.51435C182.18892-302.62886 182.89022-301.74989 182.47086-302.2701 256.24143-302.1891 328.89015-302.97309 401.6577-302.515 417.52757-302.38188 416.94664-303.00267 417.5546-287.44297 418.21714-218.28264 418.14179-149.73473 418.07856-82.462749 417.9572-66.59584 417.3879-68.13377 402.59684-66.74574 329.87678-68.220958 256.16847-66.760219 182.23516-68.22555 168.24402-67.82396 167.96605-67.118038 167.1415-81.60445 167.76056-150.7856 166.98915-218.56929 168.19551-287.9357 168.51255-302.8348 168.72788-301.87977 182.41103-301.51435Z"/>
<path transform="matrix(1,0,0,-1,291.66694,39.95166)" stroke-width=".75" stroke-linecap="round" stroke-linejoin="round" fill="none" stroke="#000000" d="M21.836577 .000256C99.9033 .302247 178.7856-.319979 256.94929-.287365"/>
<path transform="matrix(1,0,0,-1,291.66694,39.95166)" stroke-width=".75" stroke-linecap="round" stroke-linejoin="round" fill="none" stroke="#000000" d="M244.00287-7.996294C247.22908-4.299199 251.5947-1.009657 257.08177 .133605 251.66304 .924399 247.31955 4.202397 243.68231 7.77262"/>
<path transform="matrix(1,0,0,-1,291.66694,39.95166)" stroke-width=".75" stroke-linecap="round" stroke-linejoin="round" fill="none" stroke="#000000" d="M168.16098-184.99927C111.81655-184.77655 56.336099-185.04808-.128005-184.72457-.250899-130.10997-.183773-76.22048 .342438-22.35509"/>
<path transform="matrix(1,0,0,-1,291.66694,39.95166)" stroke-width=".75" stroke-linecap="round" stroke-linejoin="round" fill="none" stroke="#000000" d="M8.076471-34.800127C4.178573-31.162587 1.18009-27.155127-.287261-22.139859-1.244767-26.646136-4.29257-31.396128-7.660349-34.73981"/>
<path transform="matrix(1,0,0,-1,291.66694,39.95166)" stroke-width=".75" stroke-linecap="round" stroke-linejoin="round" fill="none" stroke="#000000" d="M182.2859-302.3745C183.43976-303.1141 182.74674-302.55155 183.54334-302.61643 256.56867-301.33827 330.12898-303.1172 402.50538-301.56425 418.01109-302.79228 417.66957-301.713 416.62138-286.445 416.88337-219.28449 418.40406-150.15218 418.38764-82.922519 418.21977-67.36996 416.7021-68.062038 403.16395-67.645038 328.6181-67.31931 255.86708-67.82704 182.79323-67.45387 167.14742-66.59918 167.96709-66.67686 168.18943-82.931 168.65624-151.05127 168.86612-218.52832 167.45766-287.01527 167.57769-302.35279 167.14965-302.78276 182.2859-302.3745Z"/>
<path transform="matrix(1,0,0,-1,291.66694,39.95166)" stroke-width=".75" stroke-linecap="round" stroke-linejoin="round" fill="none" stroke="#000000" d="M21.811842-.114327C99.61716 .260988 178.77587-.24707 257.02079-.350433"/>
<path transform="matrix(1,0,0,-1,291.66694,39.95166)" stroke-width=".75" stroke-linecap="round" stroke-linejoin="round" fill="none" stroke="#000000" d="M244.392-8.075545C247.07144-3.752817 251.70008-1.567133 256.90043-.070505 251.37743 1.035861 247.20479 3.947869 243.66464 8.18588"/>
<path transform="matrix(1,0,0,-1,291.66694,39.95166)" stroke-width=".75" stroke-linecap="round" stroke-linejoin="round" fill="none" stroke="#000000" d="M167.51671-185.08472C112.00352-184.83641 56.068696-184.9767 .141667-184.41658 .192535-130.31095 .057212-76.34783-.08094-22.26031"/>
<path transform="matrix(1,0,0,-1,291.66694,39.95166)" stroke-width=".75" stroke-linecap="round" stroke-linejoin="round" fill="none" stroke="#000000" d="M7.64847-35.074316C4.27679-31.892436 1.320137-26.989012 .029495-22.253386-1.561271-27.466502-4.229439-31.724072-7.698396-34.809907"/>
<path transform="matrix(1,0,0,-1,291.66694,39.95166)" stroke-width=".75" stroke-linecap="round" stroke-linejoin="round" fill="none" stroke="#000000" d="M183.65805-302.50846C182.10282-302.55653 183.17929-301.4521 183.13932-302.3388 255.63495-301.23359 329.66935-302.97187 401.88896-301.64576 417.71754-302.30796 416.56733-301.80085 416.6715-286.46519 417.8411-219.35791 417.76963-149.83184 417.89964-82.88879 417.49736-67.587779 416.79786-66.82201 402.15885-67.22973 329.26518-68.25401 255.49427-67.508678 181.98813-67.739589 168.69576-66.70343 168.59723-66.50663 167.54798-81.82122 168.58444-151.11338 168.15793-218.46074 167.63983-287.72575 167.18779-301.36769 167.60089-303.00529 183.65805-302.50846Z"/>
<path transform="matrix(1,0,0,-1,291.66694,39.95166)" stroke-width=".75" stroke-linecap="round" stroke-linejoin="round" fill="none" stroke="#000000" d="M21.896246-.281372C99.70353-.220899 177.90909 .209713 257.07286 .237441"/>
<path transform="matrix(1,0,0,-1,291.66694,39.95166)" stroke-width=".75" stroke-linecap="round" stroke-linejoin="round" fill="none" stroke="#000000" d="M243.9789-8.498464C247.24521-3.901518 251.31758-1.202492 256.24955 .408837 251.80966 1.471318 247.4047 3.958455 244.42682 8.490076"/>
<path transform="matrix(1,0,0,-1,291.66694,39.95166)" stroke-width=".75" stroke-linecap="round" stroke-linejoin="round" fill="none" stroke="#000000" d="M168.06357-184.37805C112.08504-185.0993 56.17317-184.45548 .171487-185.0257 .264911-130.50273-.447598-76.21337-.186494-22.206084"/>
<path transform="matrix(1,0,0,-1,291.66694,39.95166)" stroke-width=".75" stroke-linecap="round" stroke-linejoin="round" fill="none" stroke="#000000" d="M8.143372-34.489305C4.138632-31.923499 1.240034-26.610886 .371562-22.164282-1.302581-27.3451-4.138333-31.23128-8.019392-34.49591"/>
</svg>
