<svg xmlns="http://www.w3.org/2000/svg" xmlns:xlink="http://www.w3.org/1999/xlink" xmlns:inkscape="http://www.inkscape.org/namespaces/inkscape" version="1.1" width="750.4615" height="179.29509" viewBox="0 0 750.4615 179.29509">
<defs>
<path id="font_2_1" d="M.04598999 .23632813H.35598756V-.07368469L.3959961-.06668091V.23632813H.70399478L.70899966 .2763214H.3959961V.58631899L.35598756 .58032229V.2763214H.052993776L.04598999 .23632813Z"/>
<path id="font_2_2" d="M.08999634 .32458497C.08999634 .22958374 .114990238 .13148499 .18299866 .06341553 .23699951 .009384155 .31199647-.016601563 .3880005-.016601563 .46099855-.016601563 .56900027 .010391235 .6569977 .03338623 .6569977 .03338623 .6539917 .216568 .6519928 .30760194L.37599183 .2966156V.27061463L.38198854 .265625C.43598939 .26361085 .5 .25961305 .5439911 .25660707 .57199099 .25460816 .57199099 .22257996 .57199099 .13449097 .57199099 .061416627 .56900027 .04940796 .5519867 .045394899 .5209961 .038391115 .48999024 .03538513 .45799256 .03538513 .37998963 .03538513 .30599977 .060409547 .2619934 .112472537 .20399475 .18052674 .17999268 .25260926 .17999268 .3405609 .17999268 .48339845 .23199463 .5653076 .26098634 .5942688 .3039856 .63623049 .36299134 .6502075 .42199708 .6502075 .5529938 .6502075 .59298709 .5563202 .60598757 .53034976L.6179962 .5293579 .6759949 .58628848C.6649933 .6032715 .6119995 .69921877 .46699525 .69921877 .3619995 .69921877 .25698854 .6682129 .18199158 .593277 .11199951 .5233612 .08999634 .4224701 .08999634 .32458497Z"/>
<path id="font_2_3" d="M.1349945 .6123047H.22898865C.25698854 .6123047 .27999879 .59129336 .2809906 .5662842 .28199769 .541275 .28199769 .46824647 .28199769 .41923524 .28199769 .27919007 .27799989 .13916016 .272995 .00010681152L.28599549-.0048828127 .3809967 .022125245C.37799073 .09814453 .37799073 .2962036 .37799073 .43223573 .37799073 .52127078 .37998963 .6112976 .38598634 .7003021L.3789978 .71229556 .1349945 .6392975V.6123047Z"/>
<path id="font_2_4" d="M.11299133 .24990845C.11299133 .007904053 .1519928-.09008789 .18299866-.13310242 .21099854-.17008972 .25299073-.20809937 .30099488-.21209717V-.1880951C.2809906-.18409729 .25099183-.16809082 .23399353-.1481018 .21998596-.13209534 .16499329-.05809021 .16499329 .24990845 .16499329 .4618988 .19799805 .5659027 .21998596 .6128998 .23599243 .6469116 .2689972 .6769104 .30099488 .684906V.71191409C.2599945 .7049103 .21598816 .6729126 .19099427 .63790896 .1599884 .5919037 .11299133 .4748993 .11299133 .24990845Z"/>
<path id="font_2_5" d="M.051986696 .06642151C.06199646 .047409059 .07598877 .030395508 .09199524 .01638794 .12098694-.009613037 .16099549-.016601563 .19898987-.016601563 .2559967-.016601563 .31199647 .0023956299 .35099793 .044403078 .375 .06941223 .3869934 .10343933 .3869934 .13845825 .3869934 .1634674 .37298585 .18649292 .35499574 .20449829 .34098817 .21850586 .3039856 .24052429 .27198792 .25453187 .24299622 .26654054 .19999695 .2885437 .18798828 .30055238 .17298889 .31655885 .1619873 .3285675 .1619873 .35058595 .1619873 .3725891 .16899109 .39360047 .18499756 .4086151 .19999695 .42362977 .22200012 .43164063 .24398804 .43164063 .2639923 .43164063 .2849884 .42462159 .29599 .4066162 .30599977 .39060975 .30799867 .3715973 .30899049 .35359193L.32099916 .34657289 .37599183 .38360597C.375 .40560914 .3639984 .42662049 .34799195 .44163514 .32499696 .46263124 .29299928 .46662904 .2630005 .46662904 .21398926 .46662904 .16699219 .45063783 .1309967 .4176178 .10398865 .39360047 .08999634 .35858155 .08999634 .32356263 .08999634 .29154969 .10798645 .26353456 .1309967 .2425232 .1539917 .22250366 .18399048 .2084961 .21499634 .1954956 .24099732 .18447876 .2689972 .17248535 .28799439 .1534729 .30299378 .13845825 .31399537 .11845398 .31399537 .09744263 .31399537 .079422 .30499269 .062408449 .29299928 .04940796 .27799989 .03340149 .25099183 .021392823 .22898865 .021392823 .19898987 .021392823 .17199707 .03439331 .1499939 .055404664 .1269989 .076416019 .116989139 .10644531 .114990238 .13645935L.100997928 .13745117 .051986696 .06642151Z"/>
<path id="font_2_6" d="M.085998538-.1880951V-.21209717C.13398743-.20610047 .1789856-.17208863 .20698548-.13510132 .23799134-.09210205 .27598573 .007904053 .27598573 .24990845 .27598573 .50090029 .22399903 .5919037 .19299317 .63790896 .16799927 .6729126 .1269989 .7049103 .085998538 .71191409V.684906C.117996219 .6759033 .14898682 .6469116 .16499329 .6128998 .18699646 .5659027 .22399903 .48190309 .22399903 .24990845 .22399903-.099090579 .17199707-.13209534 .1579895-.1481018 .14099121-.16809082 .10598755-.18409729 .085998538-.1880951Z"/>
<path id="font_2_7" d="M.04598999 .23046875H.70399478L.70999148 .27046205H.052993776L.04598999 .23046875Z"/>
<path id="font_2_8" d="M.033996583 .6733093 .035995485 .6533203C.037994386 .6533203 .07398987 .6443176 .09199524 .63931277 .12298584 .6313019 .125 .6222992 .125 .54229739 .125 .46427918 .12199402 .38627626 .12199402 .30825807 .12199402 .24723816 .12399292 .17323303 .12998963 .12721253 .1349945 .08821106 .1559906-.0087890629 .31399537-.0087890629 .39698792-.0087890629 .47698976 .02520752 .5469971 .07020569L.5549927 .064208988C.5549927 .048202516 .5549927 .032196046 .55599978 .016204834 .55799868 .0012054443 .57598879-.0047912599 .58799746-.0047912599 .61898806-.0047912599 .6899872 .016204834 .7409973 .032196046L.74598696 .03919983 .74198916 .05619812C.7220001 .05419922 .70399478 .048202516 .6839905 .048202516 .673996 .048202516 .6609955 .050201417 .6539917 .0592041 .6389923 .07620239 .6359863 .15222168 .6359863 .20223999 .6359863 .3642578 .6369934 .5733032 .6519928 .68733218L.6459961 .69433596 .55799868 .659317C.55599978 .47727967 .55400088 .2942505 .55400088 .11122131 .5 .079208377 .43998719 .052200319 .37799073 .052200319 .24598694 .052200319 .22399903 .13922119 .21598816 .16522217 .20599365 .19923401 .20199585 .23423767 .20199585 .26924134L.20999146 .54229739C.20999146 .55929568 .21598816 .6603241 .21798706 .67433169L.21099854 .6803131H.041992189L.033996583 .6733093Z"/>
<path id="font_2_9" d="M.022994996 .6513672C.036987306 .649353 .049987794 .6463623 .06298828 .6433563 .07199097 .6413574 .07998657 .6353607 .085998538 .62835696 .09599304 .61834719 .102996829 .60635378 .10899353 .5943451L.2579956 .29930116C.2579956 .19927979 .2579956 .0982666 .25498963-.0017547608L.2659912-.0107421879 .35598756 .018249512 .34700013 .30630494C.42999269 .4343109 .5039978 .5303345 .61499026 .675354L.61099246 .6933594 .526001 .6763611C.48999024 .619339 .4059906 .47431947 .397995 .46032716 .3849945 .4373169 .34199525 .36730958 .33898927 .3623047 .33599855 .3572998 .33198548 .353302 .32798768 .353302 .32199098 .353302 .31698609 .3592987 .31599427 .36131288L.1749878 .6863556H.02999878L.022994996 .67936709V.6513672Z"/>
<path id="font_2_10" d="M.04499817 .001953125H.5379944L.56399539 .079940799 .5589905 .08795166H.20999146C.20399475 .08795166 .19799805 .08894348 .19599915 .092941287 .19499207 .094940189 .19599915 .09794617 .19699097 .09895325 .2539978 .1569519 .30799867 .21495056 .35899354 .27496339 .394989 .31697084 .42999269 .358963 .45799256 .40496827 .48799134 .4509735 .5119934 .49998475 .5119934 .5529938 .5119934 .59399417 .49899293 .6349945 .46499635 .66400149 .43199159 .69299319 .3880005 .7080078 .34199525 .7080078 .29899598 .7080078 .2579956 .6970062 .22099304 .67900088 .17599488 .65800479 .13699341 .6279907 .102996829 .59498599L.125 .57598879C.1519928 .59599307 .17799378 .61099246 .20999146 .6259918 .23098755 .6360016 .2559967 .6399994 .2809906 .6399994 .31399537 .6399994 .34700013 .6289978 .37098695 .6069946 .40098573 .5779877 .4079895 .5369873 .4079895 .50798037 .4079895 .4429779 .38198854 .38197328 .34298707 .3259735 .31098939 .27996827 .27198792 .23796082 .23199463 .19696045 .17199707 .13494873 .10899353 .07594299 .04499817 .017944336V.001953125Z"/>
<path id="font_2_11" d="M.050994874 .049362184 .05899048 .038375856C.10998535 .0033874512 .17098999-.016601563 .23599243-.016601563 .31799317-.016601563 .397995 .008392334 .45700074 .05935669 .5039978 .10131836 .5349884 .15626526 .5349884 .21520996 .5349884 .25416566 .519989 .2911377 .48999024 .31811524 .46899415 .3360901 .44198609 .34709168 .41600038 .35508729 .3789978 .36608888 .34199525 .37109376 .30299378 .37408448V.38209535C.34999085 .39408876 .3939972 .41609193 .42900086 .44610597 .46499635 .47810365 .48199464 .52311709 .48199464 .5681305 .48199464 .60414126 .46798707 .6401367 .43899537 .6651459 .40699769 .6941376 .36099244 .70214846 .31698609 .70214846 .2849884 .70214846 .25498963 .69114688 .22599793 .67814639 .18598938 .6591339 .14698792 .63414 .11199951 .60813906L.12799073 .58613589C.1539917 .60113528 .17999268 .6151428 .20799256 .6261444 .22799683 .6331482 .24699402 .6391449 .2659912 .6391449 .2999878 .6391449 .33299256 .6321411 .35598756 .61112979 .37799073 .59213259 .3889923 .5671234 .3889923 .54011538 .3889923 .502121 .37199403 .46510316 .34098817 .43710328 .32299806 .4210968 .29899598 .40908814 .27398683 .39909364 .24198914 .38609315 .20698548 .37808229 .17298889 .37109376L.17199707 .34509278C.21398926 .34509278 .2559967 .34309388 .29699708 .3340912 .32499696 .32809449 .35299684 .31910707 .37298585 .30012513 .4059906 .26914979 .42900086 .22920227 .42900086 .18623352 .42900086 .14128113 .41299439 .095321658 .3769989 .06335449 .34599305 .036376954 .30599977 .023391724 .2639923 .023391724 .22299195 .023391724 .18499756 .041366579 .1559906 .067352298 .13798523 .08332825 .12399292 .10131836 .10998535 .121292117H.09899902L.050994874 .049362184Z"/>
<path id="font_2_12" d="M.051986696 .6781769 .052993776 .6591797C.07299805 .65216067 .10899353 .6411438 .11299133 .6401367 .12298584 .6361389 .125 .6251221 .12599182 .6161041 .1309967 .53297427 .13198853 .44985963 .13198853 .36676026 .13198853 .24482727 .13198853 .11590576 .12199402 .0029907227L.12799073-.0020141602 .21998596 .025970459C.21699524 .051956178 .21499634 .10292053 .21499634 .1798706V.33377076C.21499634 .34075929 .22099304 .34576417 .22799683 .34576417H.57099917C.5799866 .34576417 .58299258 .33876039 .58299258 .33377076 .58299258 .23683167 .5799866 .11790466 .5779877 .020980835L.58898928 0 .73799136 .0078125 .74398806 .013809204 .7429962 .031799318C.72499087 .03981018 .66600039 .03981018 .66600039 .07879639 .66600039 .09979248 .6619873 .24076844 .6619873 .32176209 .6619873 .5129547 .66999819 .64515689 .6729889 .6841736L.66799929 .6901703 .5799866 .673172C.5799866 .58706668 .58299258 .48291017 .58299258 .3967743 .58299258 .39076234 .58200076 .38476563 .57099917 .38476563H.22499085C.21499634 .38476563 .21299744 .3917694 .21299744 .3967743 .21299744 .4618683 .21699524 .54600527 .21899414 .61109927 .21998596 .63414 .22200012 .6581726 .22599793 .6801758L.22099304 .6851654H.05899048L.051986696 .6781769Z"/>
</defs>
<path transform="matrix(1,0,0,-1,291.6669,43.575059)" d="M-32.95207-128.0298C103.39956-128.22576 239.08974-127.74501 375.02565-128.59223 374.93339-73.58212 374.27629-18.892178 374.9469 36.151968 238.50652 35.979578 103.00114 35.937925-32.613698 36.459653-32.564874-18.55276-32.52868-73.51955-32.95207-128.0298Z" fill="#d9d9d9"/>
<path transform="matrix(1,0,0,-1,291.6669,43.575059)" stroke-width=".75" stroke-linecap="round" stroke-dasharray="4.5,4.5" stroke-linejoin="round" fill="none" stroke="#000000" d="M-32.78321-128.16188C102.77966-128.63559 239.1471-127.91824 374.93638-128.53224 374.25566-73.16057 374.9581-18.328742 375.04356 35.952596 239.20012 36.380228 103.41386 36.38155-32.777467 36.284379-32.925928-18.850533-33.06408-73.295848-32.78321-128.16188Z"/>
<use data-text="+" xlink:href="#font_2_1" transform="matrix(37.185197,0,0,-37.18505,277.6274,53.09587)"/>
<use data-text="G" xlink:href="#font_2_2" transform="matrix(21.519362,0,0,-21.519398,135.64244,48.956346)"/>
<use data-text="1" xlink:href="#font_2_3" transform="matrix(16.438399,0,0,-16.438426,152.1097,53.257326)"/>
<use data-text="(" xlink:href="#font_2_4" transform="matrix(21.519362,0,0,-21.519398,162.35228,48.956346)"/>
<use data-text="s" xlink:href="#font_2_5" transform="matrix(21.519362,0,0,-21.519398,171.8974,48.956346)"/>
<use data-text=")" xlink:href="#font_2_6" transform="matrix(21.519362,0,0,-21.519398,182.88434,48.956346)"/>
<path transform="matrix(1,0,0,-1,291.6669,43.575059)" stroke-width=".75" stroke-linecap="round" stroke-linejoin="round" fill="none" stroke="#000000" d="M-155.19806-24.412196C-155.58443-24.48286-156.0432-25.703896-155.98015-25.781537-137.68373-24.870417-118.00972-25.89875-99.84615-25.470559-85.60273-24.490485-85.994258-24.527003-85.52421-10.557075-85.32633-3.243937-85.39693 2.531791-85.12352 10.761794-85.50349 24.121214-85.331 25.491654-100.34501 24.76653-118.17795 24.29519-136.67749 25.2368-156.74219 24.248675-171.15872 25.916867-171.25188 24.812705-171.52664 9.985853-171.10918 3.549745-170.8379-4.057349-170.9177-9.481105-170.6819-24.561356-170.7041-25.902146-155.19806-24.412196Z"/>
<path transform="matrix(1,0,0,-1,291.6669,43.575059)" stroke-width=".75" stroke-linecap="round" stroke-linejoin="round" fill="none" stroke="#000000" d="M22.472666 .755932C21.022923 12.215181 11.087444 21.195176-.617371 21.411112-12.581086 22.145197-22.479626 12.378919-21.479584 .641127-22.049906-11.733098-12.594306-22.25946 .146095-20.81724 11.328221-22.555129 22.395-12.318128 22.472666 .755932Z"/>
<path transform="matrix(1,0,0,-1,291.6669,43.575059)" stroke-width=".75" stroke-linecap="round" stroke-linejoin="round" fill="none" stroke="#000000" d="M-235.03899 .058834C-214.02999-.435896-192.60117 .351353-171.47769-.022045"/>
<path transform="matrix(1,0,0,-1,291.6669,43.575059)" stroke-width=".75" stroke-linecap="round" stroke-linejoin="round" fill="none" stroke="#000000" d="M-184.0156-7.827731C-180.57759-3.632462-176.00435-.823792-171.02344 .112709-176.18598 1.600384-180.50743 3.713406-184.11368 8.116006"/>
<path transform="matrix(1,0,0,-1,291.6669,43.575059)" stroke-width=".75" stroke-linecap="round" stroke-linejoin="round" fill="none" stroke="#000000" d="M-85.383159-.093498C-64.24025-.442293-42.932046 .327097-22.08036 .322977"/>
<path transform="matrix(1,0,0,-1,291.6669,43.575059)" stroke-width=".75" stroke-linecap="round" stroke-linejoin="round" fill="none" stroke="#000000" d="M-34.333978-8.165573C-31.927308-3.654242-26.624632-.819342-21.699814 .03959-27.032523 1.361623-31.733414 3.951263-35.107618 7.776727"/>
<path transform="matrix(1,0,0,-1,291.6669,43.575059)" stroke-width=".75" stroke-linecap="round" stroke-linejoin="round" fill="none" stroke="#000000" d="M21.245406 .447201C43.06308 .32603 64.14844-.01984 84.8135-.093007"/>
<path transform="matrix(1,0,0,-1,291.6669,43.575059)" stroke-width=".75" stroke-linecap="round" stroke-linejoin="round" fill="none" stroke="#000000" d="M71.970607-8.383845C75.84519-3.992493 79.71247-.735255 84.98345 .028573 80.356578 1.151573 75.22434 4.152354 72.08308 7.963487"/>
<path transform="matrix(1,0,0,-1,291.6669,43.575059)" stroke-width=".75" stroke-linecap="round" stroke-linejoin="round" fill="none" stroke="#000000" d="M320.4486 .277709C348.9702 .315738 376.75175-.395055 405.61238-.448389"/>
<path transform="matrix(1,0,0,-1,291.6669,43.575059)" stroke-width=".75" stroke-linecap="round" stroke-linejoin="round" fill="none" stroke="#000000" d="M392.56315-8.180651C395.9523-3.80513 400.0346-.904965 405.409 .019869 400.5471 1.178091 395.79908 4.341314 392.59016 8.118833"/>
<path transform="matrix(1,0,0,-1,291.6669,43.575059)" stroke-width=".75" stroke-linecap="round" stroke-linejoin="round" fill="none" stroke="#000000" d="M85.62057-92.61533C56.958349-92.05572 28.130366-92.0185-.004243-92.194309-.42368-68.65773-.218839-45.39004-.33882-22.190558"/>
<path transform="matrix(1,0,0,-1,291.6669,43.575059)" stroke-width=".75" stroke-linecap="round" stroke-linejoin="round" fill="none" stroke="#000000" d="M7.758387-34.327997C4.080268-31.506863 1.011237-26.72827 .065174-21.869318-1.450604-26.892397-3.592353-31.736075-8.207178-34.791036"/>
<path transform="matrix(1,0,0,-1,291.6669,43.575059)" stroke-width=".75" stroke-linecap="round" stroke-linejoin="round" fill="none" stroke="#000000" d="M363.34413 .091233C362.61595-30.8073 363.28877-61.16499 363.0986-92.30143 349.10893-92.770488 334.8358-92.345348 320.5547-92.617229"/>
<path transform="matrix(1,0,0,-1,291.6669,43.575059)" stroke-width=".75" stroke-linecap="round" stroke-linejoin="round" fill="none" stroke="#000000" d="M333.17027-84.22398C329.82707-88.67649 325.60444-91.28629 320.33393-92.734607 325.5568-93.34526 329.42109-96.75086 332.65608-100.73353"/>
<path transform="matrix(1,0,0,-1,291.6669,43.575059)" stroke-width=".75" stroke-linecap="round" stroke-linejoin="round" fill="none" stroke="#000000" d="M-155.57556-25.558634C-155.42432-24.146374-156.43964-25.70815-156.25008-25.557465-137.69226-25.845156-119.277439-24.406048-100.04632-24.513377-86.019718-25.58554-84.92561-24.329354-85.49832-9.085358-86.22146-2.755617-86.281848 2.49307-84.55393 9.246062-84.8953 24.981333-84.48214 25.204955-101.24836 25.142888-117.99502 25.810294-136.5413 24.313395-156.62982 25.878-171.07447 24.81479-170.9352 24.378207-171.0523 9.211122-171.2952 3.078742-170.76355-3.431975-171.58498-10.758209-171.78995-24.857846-171.53218-25.778689-155.57556-25.558634Z"/>
<path transform="matrix(1,0,0,-1,291.6669,43.575059)" stroke-width=".75" stroke-linecap="round" stroke-linejoin="round" fill="none" stroke="#000000" d="M21.529242 .787676C21.392546 11.165657 12.348388 22.25969-.682331 21.640519-11.935131 20.72285-22.278925 12.14761-21.317437-.428295-21.782519-12.752652-11.093511-20.785166-.518199-21.03292 12.185922-21.033673 22.377116-11.970419 21.529242 .787676Z"/>
<path transform="matrix(1,0,0,-1,291.6669,43.575059)" stroke-width=".75" stroke-linecap="round" stroke-linejoin="round" fill="none" stroke="#000000" d="M-234.83087-.354886C-213.3883-.382983-192.93436 .216141-171.54077-.33896"/>
<path transform="matrix(1,0,0,-1,291.6669,43.575059)" stroke-width=".75" stroke-linecap="round" stroke-linejoin="round" fill="none" stroke="#000000" d="M-184.21457-8.336556C-180.50373-4.094276-176.06739-.876029-171.28765 .070596-176.57314 1.107423-180.53534 4.26598-183.69058 7.95972"/>
<path transform="matrix(1,0,0,-1,291.6669,43.575059)" stroke-width=".75" stroke-linecap="round" stroke-linejoin="round" fill="none" stroke="#000000" d="M-84.97893-.147198C-63.851846 .415641-42.964899 .009428-21.765995 .262583"/>
<path transform="matrix(1,0,0,-1,291.6669,43.575059)" stroke-width=".75" stroke-linecap="round" stroke-linejoin="round" fill="none" stroke="#000000" d="M-34.828187-8.141733C-31.59674-3.972804-27.094838-1.200272-22.408337 .084799-26.949275 .965413-31.283408 3.757154-34.681734 7.660933"/>
<path transform="matrix(1,0,0,-1,291.6669,43.575059)" stroke-width=".75" stroke-linecap="round" stroke-linejoin="round" fill="none" stroke="#000000" d="M21.41017-.189272C42.921785 .378567 64.307277 .073158 85.28578-.426717"/>
<path transform="matrix(1,0,0,-1,291.6669,43.575059)" stroke-width=".75" stroke-linecap="round" stroke-linejoin="round" fill="none" stroke="#000000" d="M72.43207-8.440555C75.804988-4.239409 79.93432-1.421026 84.6033 .441072 80.04668 1.075644 75.89234 4.261947 72.47075 8.348169"/>
<path transform="matrix(1,0,0,-1,291.6669,43.575059)" stroke-width=".75" stroke-linecap="round" stroke-linejoin="round" fill="none" stroke="#000000" d="M320.26554-.354889C349.18745-.145927 377.135-.306841 405.7055 .058703"/>
<path transform="matrix(1,0,0,-1,291.6669,43.575059)" stroke-width=".75" stroke-linecap="round" stroke-linejoin="round" fill="none" stroke="#000000" d="M392.72608-8.079266C396.11488-3.920836 400.56376-1.08225 405.0586-.17715 400.3309 1.335865 395.95927 3.571134 392.46913 7.747221"/>
<path transform="matrix(1,0,0,-1,291.6669,43.575059)" stroke-width=".75" stroke-linecap="round" stroke-linejoin="round" fill="none" stroke="#000000" d="M85.09423-92.049839C57.12642-92.14585 28.148739-92.8178 .422531-92.54299-.296601-68.532009-.121641-45.647848-.25237-22.258187"/>
<path transform="matrix(1,0,0,-1,291.6669,43.575059)" stroke-width=".75" stroke-linecap="round" stroke-linejoin="round" fill="none" stroke="#000000" d="M7.962579-34.675455C4.29892-31.37056 1.411118-27.327652 .393038-21.934313-1.304971-26.597584-4.082096-31.289689-8.433435-34.7213"/>
<path transform="matrix(1,0,0,-1,291.6669,43.575059)" stroke-width=".75" stroke-linecap="round" stroke-linejoin="round" fill="none" stroke="#000000" d="M362.6551-.351652C362.88523-30.902392 363.0762-61.259786 362.69847-92.05885 348.65809-92.57405 334.1387-91.98077 320.26008-92.00917"/>
<path transform="matrix(1,0,0,-1,291.6669,43.575059)" stroke-width=".75" stroke-linecap="round" stroke-linejoin="round" fill="none" stroke="#000000" d="M332.73146-84.387798C329.80473-88.28157 324.7905-91.22399 319.81227-92.610698 325.63655-93.219608 329.3933-96.22259 332.78129-100.32476"/>
<path transform="matrix(1,0,0,-1,291.6669,43.575059)" stroke-width=".75" stroke-linecap="round" stroke-linejoin="round" fill="none" stroke="#000000" d="M-155.83026-25.23521C-156.82248-24.17815-155.38596-24.70738-156.66843-25.267479-137.19474-25.043986-118.920009-25.244797-101.00417-24.203263-84.97054-25.458815-84.73867-24.740303-84.51812-9.422623-85.246829-3.190972-86.19706 4.197345-86.07945 9.071451-86.36389 24.132592-85.10837 25.826663-100.46652 25.858456-119.09642 24.406466-137.15444 24.834826-156.79628 24.131127-171.71405 24.823397-171.43764 24.066334-171.36449 9.806014-170.23679 3.349384-171.77011-2.867381-170.4716-10.23592-170.13146-24.773465-171.69048-25.267634-155.83026-25.23521Z"/>
<path transform="matrix(1,0,0,-1,291.6669,43.575059)" stroke-width=".75" stroke-linecap="round" stroke-linejoin="round" fill="none" stroke="#000000" d="M22.386042-.112923C20.793927 12.392474 11.225037 21.12311-.800403 21.643147-12.001528 21.419348-21.848523 11.364107-21.973734 .245474-22.45027-11.896307-11.673498-22.603007-.681166-21.847636 11.767971-22.25422 21.31401-11.768074 22.386042-.112923Z"/>
<path transform="matrix(1,0,0,-1,291.6669,43.575059)" stroke-width=".75" stroke-linecap="round" stroke-linejoin="round" fill="none" stroke="#000000" d="M-234.47191-.16567C-213.97519 .444029-192.55945-.150098-171.59255 .044971"/>
<path transform="matrix(1,0,0,-1,291.6669,43.575059)" stroke-width=".75" stroke-linecap="round" stroke-linejoin="round" fill="none" stroke="#000000" d="M-184.45758-8.02675C-180.90039-4.202493-176.31012-1.358112-171.71274-.111098-176.65314 1.206134-181.3186 4.144317-183.75254 7.810349"/>
<path transform="matrix(1,0,0,-1,291.6669,43.575059)" stroke-width=".75" stroke-linecap="round" stroke-linejoin="round" fill="none" stroke="#000000" d="M-85.80621-.349198C-63.9339-.356163-43.17005-.040254-21.853177 .391163"/>
<path transform="matrix(1,0,0,-1,291.6669,43.575059)" stroke-width=".75" stroke-linecap="round" stroke-linejoin="round" fill="none" stroke="#000000" d="M-34.373353-7.669411C-31.32945-4.329837-26.954075-.830514-22.023938 .406917-26.83419 1.020855-31.136914 4.285144-34.230287 7.624654"/>
<path transform="matrix(1,0,0,-1,291.6669,43.575059)" stroke-width=".75" stroke-linecap="round" stroke-linejoin="round" fill="none" stroke="#000000" d="M22.040928 .258785C42.559297-.050742 63.655878-.175629 85.15352 .397815"/>
<path transform="matrix(1,0,0,-1,291.6669,43.575059)" stroke-width=".75" stroke-linecap="round" stroke-linejoin="round" fill="none" stroke="#000000" d="M71.989688-8.35754C75.59038-3.8762 80.46904-.851288 85.13666 .35051 80.35932 1.00542 75.27531 3.660239 72.83738 8.284418"/>
<path transform="matrix(1,0,0,-1,291.6669,43.575059)" stroke-width=".75" stroke-linecap="round" stroke-linejoin="round" fill="none" stroke="#000000" d="M320.07463 .310747C348.90306 .140989 376.81065-.364618 405.51094-.079088"/>
<path transform="matrix(1,0,0,-1,291.6669,43.575059)" stroke-width=".75" stroke-linecap="round" stroke-linejoin="round" fill="none" stroke="#000000" d="M392.3657-7.872132C396.38444-4.420164 400.68733-.929083 405.57185-.441385 400.85948 1.569528 396.1494 3.737166 393.15043 8.196563"/>
<path transform="matrix(1,0,0,-1,291.6669,43.575059)" stroke-width=".75" stroke-linecap="round" stroke-linejoin="round" fill="none" stroke="#000000" d="M85.682468-92.69864C57.184297-92.65255 28.778317-92.63374 .148021-92.61298 .055227-69.07399 .138089-45.5171 .07162-21.84715"/>
<path transform="matrix(1,0,0,-1,291.6669,43.575059)" stroke-width=".75" stroke-linecap="round" stroke-linejoin="round" fill="none" stroke="#000000" d="M7.617998-34.83574C4.355624-31.264336 1.169236-27.487254 .180624-21.812893-1.059541-26.711865-4.306858-31.614119-8.255518-34.617597"/>
<path transform="matrix(1,0,0,-1,291.6669,43.575059)" stroke-width=".75" stroke-linecap="round" stroke-linejoin="round" fill="none" stroke="#000000" d="M363.12797 .333839C363.0236-30.692337 362.87043-61.75829 363.18708-92.5751 348.80046-92.83098 334.31044-92.19831 320.48918-92.1623"/>
<path transform="matrix(1,0,0,-1,291.6669,43.575059)" stroke-width=".75" stroke-linecap="round" stroke-linejoin="round" fill="none" stroke="#000000" d="M332.87928-84.0452C329.7557-88.03998 325.44319-91.688198 320.3992-92.018398 324.84318-93.165439 329.98036-96.36952 333.2066-100.60877"/>
<path transform="matrix(1,0,0,-1,291.6669,43.575059)" stroke-width=".75" stroke-linecap="round" stroke-linejoin="round" fill="none" stroke="#000000" d="M-156.79175-24.910307C-155.67772-25.348139-155.75522-25.59148-156.21649-24.952963-136.63231-25.813164-119.748149-24.376078-100.8277-24.45351-86.11371-25.43681-85.20096-24.98898-84.62474-9.070933-84.91466-2.711608-84.84985 3.638934-86.12412 10.729813-85.67946 25.738606-85.633769 25.79494-100.35528 25.68367-119.690258 24.240614-138.3578 25.673333-156.4279 24.084498-171.54297 25.78806-171.71828 24.100079-171.19139 9.622704-170.12776 3.939005-171.68476-2.466796-170.87145-10.334322-170.69089-24.411965-171.97351-24.218945-156.79175-24.910307Z"/>
<path transform="matrix(1,0,0,-1,291.6669,43.575059)" stroke-width=".75" stroke-linecap="round" stroke-linejoin="round" fill="none" stroke="#000000" d="M22.329924 .096652C21.13534 11.496726 11.219459 22.001994-.93911 21.429453-11.711647 20.806393-22.48659 11.606314-21.528416 .12002-21.953667-12.030809-11.368933-21.0157-.771085-21.808053 12.880319-21.369372 21.426983-12.40685 22.329924 .096652Z"/>
<path transform="matrix(1,0,0,-1,291.6669,43.575059)" stroke-width=".75" stroke-linecap="round" stroke-linejoin="round" fill="none" stroke="#000000" d="M-234.77994-.063468C-213.85419 .054963-192.39336-.373557-171.52973-.158399"/>
<path transform="matrix(1,0,0,-1,291.6669,43.575059)" stroke-width=".75" stroke-linecap="round" stroke-linejoin="round" fill="none" stroke="#000000" d="M-184.1803-8.322788C-181.15264-4.289149-176.43775-1.08818-171.46305 .240187-176.84769 .842861-181.11186 3.642609-184.36849 8.388305"/>
<path transform="matrix(1,0,0,-1,291.6669,43.575059)" stroke-width=".75" stroke-linecap="round" stroke-linejoin="round" fill="none" stroke="#000000" d="M-85.85268 .034924C-64.085597-.05107-43.34159-.432888-22.44536-.01485"/>
<path transform="matrix(1,0,0,-1,291.6669,43.575059)" stroke-width=".75" stroke-linecap="round" stroke-linejoin="round" fill="none" stroke="#000000" d="M-34.47461-8.104565C-31.909607-4.117602-27.26007-.915321-21.651083-.051491-27.20616 .829748-31.501114 3.707185-34.285795 7.724321"/>
<path transform="matrix(1,0,0,-1,291.6669,43.575059)" stroke-width=".75" stroke-linecap="round" stroke-linejoin="round" fill="none" stroke="#000000" d="M22.087725 .43172C43.18988-.316594 63.878496-.281779 85.02338 .267617"/>
<path transform="matrix(1,0,0,-1,291.6669,43.575059)" stroke-width=".75" stroke-linecap="round" stroke-linejoin="round" fill="none" stroke="#000000" d="M71.977779-8.246196C75.35055-3.992322 79.70141-1.547586 85.03671-.336063 79.61876 .86506 75.12693 4.067159 72.24398 8.405792"/>
<path transform="matrix(1,0,0,-1,291.6669,43.575059)" stroke-width=".75" stroke-linecap="round" stroke-linejoin="round" fill="none" stroke="#000000" d="M320.40534 .284302C348.65797-.258813 377.26777-.344678 405.27565-.348649"/>
<path transform="matrix(1,0,0,-1,291.6669,43.575059)" stroke-width=".75" stroke-linecap="round" stroke-linejoin="round" fill="none" stroke="#000000" d="M392.76567-7.84769C396.05308-3.884115 400.74803-1.497567 405.1873-.236558 399.98823 1.117977 396.30287 4.124617 392.5387 7.737164"/>
<path transform="matrix(1,0,0,-1,291.6669,43.575059)" stroke-width=".75" stroke-linecap="round" stroke-linejoin="round" fill="none" stroke="#000000" d="M85.272357-92.3207C57.235929-91.97467 28.340846-92.636829 .187201-92.76548 .169437-68.916309 .124349-45.479066-.279037-22.07464"/>
<path transform="matrix(1,0,0,-1,291.6669,43.575059)" stroke-width=".75" stroke-linecap="round" stroke-linejoin="round" fill="none" stroke="#000000" d="M8.491574-34.56646C3.868467-31.15591 1.054343-27.255255-.428037-21.801613-1.494518-26.86191-3.626541-31.874449-7.857826-34.684839"/>
<path transform="matrix(1,0,0,-1,291.6669,43.575059)" stroke-width=".75" stroke-linecap="round" stroke-linejoin="round" fill="none" stroke="#000000" d="M362.72648-.100589C363.2902-30.712136 362.5485-61.631307 362.55744-92.55867 348.48466-92.03096 334.15419-92.103488 320.03843-92.36358"/>
<path transform="matrix(1,0,0,-1,291.6669,43.575059)" stroke-width=".75" stroke-linecap="round" stroke-linejoin="round" fill="none" stroke="#000000" d="M332.64167-83.91196C329.8126-88.83843 325.02555-91.36106 319.93659-92.01107 325.58195-93.93505 329.58885-96.46266 332.74855-100.11582"/>
<path transform="matrix(1,0,0,-1,291.6669,43.575059)" stroke-width=".75" stroke-linecap="round" stroke-linejoin="round" fill="none" stroke="#000000" d="M-156.6847-24.179518C-156.84996-25.853556-155.83634-25.078192-155.57094-24.54366-138.44676-24.385947-119.05061-24.476542-99.661319-24.99155-84.87456-24.562766-85.95341-24.485423-84.89908-10.732232-85.453838-3.386695-85.68363 2.827642-84.83916 9.194933-85.0197 25.554692-85.40945 24.642918-100.235599 24.646313-119.6566 25.420493-138.04817 25.184964-155.6555 25.830294-171.54515 25.672318-171.29598 23.983912-170.43231 10.30473-171.95027 2.434453-171.8893-2.982301-171.9384-10.109065-170.33699-24.78621-171.8813-25.403605-156.6847-24.179518Z"/>
<path transform="matrix(1,0,0,-1,291.6669,43.575059)" stroke-width=".75" stroke-linecap="round" stroke-linejoin="round" fill="none" stroke="#000000" d="M22.561608-.513163C21.629942 12.788719 12.114139 21.17043-.752799 21.725207-12.105277 22.49932-21.046147 11.029048-21.93603 .361845-21.15886-12.194882-11.02187-21.92194-.00877-21.671069 11.158789-21.25465 21.448748-12.186289 22.561608-.513163Z"/>
<path transform="matrix(1,0,0,-1,291.6669,43.575059)" stroke-width=".75" stroke-linecap="round" stroke-linejoin="round" fill="none" stroke="#000000" d="M-235.16635 .39048C-213.61392 .098874-192.40145 .067172-171.50753 .192521"/>
<path transform="matrix(1,0,0,-1,291.6669,43.575059)" stroke-width=".75" stroke-linecap="round" stroke-linejoin="round" fill="none" stroke="#000000" d="M-184.03739-8.395125C-180.67928-3.728972-176.65364-1.216832-170.9955 .338193-176.25417 1.492918-180.86553 4.112294-183.84716 8.023077"/>
<path transform="matrix(1,0,0,-1,291.6669,43.575059)" stroke-width=".75" stroke-linecap="round" stroke-linejoin="round" fill="none" stroke="#000000" d="M-85.83527-.44104C-63.890249 .247252-42.866899-.110621-21.66946-.068185"/>
<path transform="matrix(1,0,0,-1,291.6669,43.575059)" stroke-width=".75" stroke-linecap="round" stroke-linejoin="round" fill="none" stroke="#000000" d="M-35.07903-8.054762C-31.538983-4.214985-26.820322-1.349532-21.853709-.430851-27.37358 1.137795-31.15773 4.054129-34.666727 8.07917"/>
<path transform="matrix(1,0,0,-1,291.6669,43.575059)" stroke-width=".75" stroke-linecap="round" stroke-linejoin="round" fill="none" stroke="#000000" d="M21.596896 .188384C42.478067-.041715 64.15826 .041681 85.050189-.157654"/>
<path transform="matrix(1,0,0,-1,291.6669,43.575059)" stroke-width=".75" stroke-linecap="round" stroke-linejoin="round" fill="none" stroke="#000000" d="M72.42412-7.993957C75.70506-3.672965 80.00568-1.539804 85.30389 .029409 79.59135 1.14803 75.57276 4.373105 72.37983 8.2873"/>
<path transform="matrix(1,0,0,-1,291.6669,43.575059)" stroke-width=".75" stroke-linecap="round" stroke-linejoin="round" fill="none" stroke="#000000" d="M320.56199-.393546C348.7282 .437274 376.7517 .207121 405.40409-.157086"/>
<path transform="matrix(1,0,0,-1,291.6669,43.575059)" stroke-width=".75" stroke-linecap="round" stroke-linejoin="round" fill="none" stroke="#000000" d="M393.19303-8.145458C396.244-3.598281 400.08219-1.095612 405.71339 .047342 400.23915 1.004671 395.97047 4.14839 393.04124 8.199741"/>
<path transform="matrix(1,0,0,-1,291.6669,43.575059)" stroke-width=".75" stroke-linecap="round" stroke-linejoin="round" fill="none" stroke="#000000" d="M85.43493-92.78762C56.69377-92.477298 28.59733-92.745967-.434964-92.69036-.427638-69.02913 .30741-45.241266 .060267-22.443465"/>
<path transform="matrix(1,0,0,-1,291.6669,43.575059)" stroke-width=".75" stroke-linecap="round" stroke-linejoin="round" fill="none" stroke="#000000" d="M8.375691-34.74132C3.993387-31.888762 1.253903-27.15617-.285563-21.808274-.762112-26.614407-3.883889-31.882365-7.88923-34.781"/>
<path transform="matrix(1,0,0,-1,291.6669,43.575059)" stroke-width=".75" stroke-linecap="round" stroke-linejoin="round" fill="none" stroke="#000000" d="M362.7544 .386376C363.0504-31.133843 362.98258-61.716886 363.19606-92.037998 349.08866-92.35645 334.18785-92.81771 320.07084-92.37607"/>
<path transform="matrix(1,0,0,-1,291.6669,43.575059)" stroke-width=".75" stroke-linecap="round" stroke-linejoin="round" fill="none" stroke="#000000" d="M333.07313-84.7508C329.98625-88.479 325.5392-91.29336 320.13603-92.42706 325.54216-93.36866 329.7056-96.416858 332.53495-100.15986"/>
<use data-text="+" xlink:href="#font_2_1" transform="matrix(21.519354,0,0,-21.519316,253.61762,35.832246)"/>
<use data-text="&#x2212;" xlink:href="#font_2_7" transform="matrix(21.519371,0,0,-21.519288,297.8168,74.18445)"/>
<use data-text="U" xlink:href="#font_2_8" transform="matrix(21.519457,0,0,-21.519398,6.8143007,48.956346)"/>
<use data-text="(" xlink:href="#font_2_4" transform="matrix(21.519457,0,0,-21.519398,23.470364,48.956346)"/>
<use data-text="s" xlink:href="#font_2_5" transform="matrix(21.519457,0,0,-21.519398,33.015535,48.956346)"/>
<use data-text=")" xlink:href="#font_2_6" transform="matrix(21.519457,0,0,-21.519398,44.00251,48.956346)"/>
<use data-text="Y" xlink:href="#font_2_9" transform="matrix(21.519246,0,0,-21.519398,701.60629,48.956346)"/>
<use data-text="(" xlink:href="#font_2_4" transform="matrix(21.519246,0,0,-21.519398,714.75497,48.956346)"/>
<use data-text="s" xlink:href="#font_2_5" transform="matrix(21.519246,0,0,-21.519398,724.3,48.956346)"/>
<use data-text=")" xlink:href="#font_2_6" transform="matrix(21.519246,0,0,-21.519398,735.2868,48.956346)"/>
<use data-text="G" xlink:href="#font_2_2" transform="matrix(21.520102,0,0,-21.519398,437.78675,48.956346)"/>
<use data-text="2" xlink:href="#font_2_10" transform="matrix(16.438963,0,0,-16.438426,454.25453,53.19156)"/>
<use data-text="(" xlink:href="#font_2_4" transform="matrix(21.520102,0,0,-21.519398,464.4975,48.956346)"/>
<use data-text="s" xlink:href="#font_2_5" transform="matrix(21.520102,0,0,-21.519398,474.04298,48.956346)"/>
<use data-text=")" xlink:href="#font_2_6" transform="matrix(21.520102,0,0,-21.519398,485.03034,48.956346)"/>
<use data-text="G" xlink:href="#font_2_2" transform="matrix(21.520102,0,0,-21.519398,495.77119,48.956346)"/>
<use data-text="3" xlink:href="#font_2_11" transform="matrix(16.438963,0,0,-16.438426,512.2467,53.09291)"/>
<use data-text="(" xlink:href="#font_2_4" transform="matrix(21.520102,0,0,-21.519398,522.4897,48.956346)"/>
<use data-text="s" xlink:href="#font_2_5" transform="matrix(21.520102,0,0,-21.519398,532.03518,48.956346)"/>
<use data-text=")" xlink:href="#font_2_6" transform="matrix(21.520102,0,0,-21.519398,543.02249,48.956346)"/>
<use data-text="H" xlink:href="#font_2_12" transform="matrix(21.519255,0,0,-21.519398,437.39927,141.36473)"/>
<use data-text="1" xlink:href="#font_2_3" transform="matrix(16.438317,0,0,-16.438426,454.25389,145.6657)"/>
<use data-text="(" xlink:href="#font_2_4" transform="matrix(21.519255,0,0,-21.519398,464.49644,141.36473)"/>
<use data-text="s" xlink:href="#font_2_5" transform="matrix(21.519255,0,0,-21.519398,474.04154,141.36473)"/>
<use data-text=")" xlink:href="#font_2_6" transform="matrix(21.519255,0,0,-21.519398,485.0284,141.36473)"/>
<use data-text="H" xlink:href="#font_2_12" transform="matrix(21.519255,0,0,-21.519398,495.76884,141.36473)"/>
<use data-text="2" xlink:href="#font_2_10" transform="matrix(16.438317,0,0,-16.438426,512.6312,145.59993)"/>
<use data-text="(" xlink:href="#font_2_4" transform="matrix(21.519255,0,0,-21.519398,522.8738,141.36473)"/>
<use data-text="s" xlink:href="#font_2_5" transform="matrix(21.519255,0,0,-21.519398,532.4188,141.36473)"/>
<use data-text=")" xlink:href="#font_2_6" transform="matrix(21.519255,0,0,-21.519398,543.40579,141.36473)"/>
<path transform="matrix(1,0,0,-1,291.66688,43.575067)" stroke-width=".75" stroke-linecap="round" stroke-linejoin="round" fill="none" stroke="#000000" d="M99.969249-24.327742C100.255-25.532662 100.045589-24.550805 99.51394-24.605786 168.25257-25.867327 236.22928-24.931208 304.46003-25.815987 321.15815-25.723483 319.68006-25.521618 320.5855-9.627942 319.50718-3.327919 320.75645 3.598943 320.16889 9.776889 321.36219 25.727992 319.78355 25.21976 304.76066 24.624798 237.24306 25.07361 168.41565 24.890103 100.25621 25.29845 85.24138 24.531537 86.299129 25.224514 85.23558 10.825585 85.60078 2.754171 86.22529-4.033906 85.72362-9.44683 85.29942-25.311913 85.14686-24.182656 99.969249-24.327742Z"/>
<path transform="matrix(1,0,0,-1,291.66688,43.575067)" stroke-width=".75" stroke-linecap="round" stroke-linejoin="round" fill="none" stroke="#000000" d="M100.511119-117.20737C99.82081-117.81878 100.30911-116.81006 100.07971-118.13303 168.97812-117.437389 237.52266-117.47349 304.91783-117.17359 321.41319-116.74363 320.2993-116.63468 321.3942-102.21898 319.94367-96.28827 321.09577-89.87079 321.3571-81.70289 320.1504-67.524028 321.09989-68.096 305.19773-67.44561 236.21886-68.01143 167.8301-68.247859 99.367488-67.41013 85.7395-66.82688 84.6277-67.85733 86.03752-82.24457 84.598178-88.358379 84.57338-95.130359 84.89422-102.079547 84.72398-117.892009 86.04575-116.849 100.511119-117.20737Z"/>
<path transform="matrix(1,0,0,-1,291.66688,43.575067)" stroke-width=".75" stroke-linecap="round" stroke-linejoin="round" fill="none" stroke="#000000" d="M101.1984-25.271267C99.74813-24.295952 100.15504-25.308688 100.94258-25.165467 169.44571-24.529757 237.9342-24.055523 304.85368-24.05602 320.05339-24.727835 320.90379-25.388173 319.67964-10.174014 319.8396-3.554165 319.56504 3.040241 319.64439 9.216564 320.93449 24.032689 321.04804 24.895253 304.45643 25.229413 237.65549 24.143834 169.71512 24.676989 100.796588 25.066395 86.22921 25.154376 86.02681 24.37395 85.612209 9.203124 84.89314 3.134084 85.47304-2.821115 86.32466-10.770333 84.738559-25.667347 84.89114-24.317816 101.1984-25.271267Z"/>
<path transform="matrix(1,0,0,-1,291.66688,43.575067)" stroke-width=".75" stroke-linecap="round" stroke-linejoin="round" fill="none" stroke="#000000" d="M100.43991-117.55084C99.814128-116.78552 101.06615-116.619487 100.59001-116.72605 168.38372-117.86376 236.99626-118.09771 305.96586-116.660099 319.6593-117.82979 320.615-117.82188 320.8418-102.45581 319.89253-96.39779 319.80738-88.314029 320.1502-82.65669 321.45246-66.59687 320.90324-67.16617 305.71705-68.2176 237.32425-66.53487 168.18352-67.11727 100.12133-66.65513 84.43471-67.021907 85.16852-66.71561 85.41164-82.50835 84.32398-88.71147 84.88893-95.71735 86.164447-101.9948 84.36659-117.434047 84.98328-117.81514 100.43991-117.55084Z"/>
<path transform="matrix(1,0,0,-1,291.66688,43.575067)" stroke-width=".75" stroke-linecap="round" stroke-linejoin="round" fill="none" stroke="#000000" d="M99.87095-24.179799C100.08625-25.039507 100.95485-24.86333 99.833759-25.548058 168.44315-24.420805 237.85176-24.856314 306.2971-25.26713 319.55979-24.828253 320.55406-24.459897 319.91056-9.556843 321.09907-3.522678 320.84806 2.609633 319.96635 9.908969 319.65879 25.731497 320.74369 25.6757 305.1509 24.091578 237.46022 24.157143 168.9768 24.865344 101.009189 25.288022 85.47072 25.338852 84.54136 24.326497 86.084308 9.338666 85.082668 3.098824 85.07522-4.26167 86.04978-9.466534 85.64809-25.692599 84.90206-25.059367 99.87095-24.179799Z"/>
<path transform="matrix(1,0,0,-1,291.66688,43.575067)" stroke-width=".75" stroke-linecap="round" stroke-linejoin="round" fill="none" stroke="#000000" d="M100.98048-118.08755C99.77836-116.99777 100.9501-118.00151 100.29116-116.68956 167.9688-116.55271 237.22834-117.13182 305.25077-117.68243 321.14045-117.58061 319.6439-118.24518 319.94648-103.32703 320.96293-95.84415 320.07939-89.812007 320.65177-81.718059 321.34916-67.51924 321.11775-67.17251 304.83976-68.301929 236.2312-67.48205 168.23465-68.30925 99.454639-67.20719 86.176029-68.30765 85.738368-67.022319 84.999248-81.72372 85.40849-88.15999 84.74111-94.93194 84.28192-102.74316 84.74022-117.42634 84.62915-117.62115 100.98048-118.08755Z"/>
<path transform="matrix(1,0,0,-1,291.66688,43.575067)" stroke-width=".75" stroke-linecap="round" stroke-linejoin="round" fill="none" stroke="#000000" d="M99.63432-25.758538C99.76382-24.242674 99.499698-24.201954 100.10998-24.668639 169.25502-24.853314 237.33171-24.998993 305.99397-24.496432 319.79017-25.56061 320.48066-24.707297 319.69657-9.225219 319.44136-4.211846 319.58308 3.223937 319.8118 9.298105 319.6832 24.945389 320.948 25.726878 304.83528 24.350829 236.60018 24.982834 168.36522 25.273655 100.81025 24.946755 85.059368 23.972044 86.383228 25.60221 86.00156 10.716051 85.79967 3.358877 85.33368-4.20928 86.35757-10.224613 85.70161-25.61676 84.69202-24.34443 99.63432-25.758538Z"/>
<path transform="matrix(1,0,0,-1,291.66688,43.575067)" stroke-width=".75" stroke-linecap="round" stroke-linejoin="round" fill="none" stroke="#000000" d="M100.5402-118.048038C101.115489-116.89997 100.86881-117.90239 101.1984-116.81649 168.21025-116.91056 236.81694-118.13139 305.8686-116.4006 320.82887-117.79231 320.78028-118.310718 320.36094-103.20442 320.05793-95.182949 320.16099-88.3398 319.63844-83.32471 320.81077-66.509258 319.63127-67.57631 305.93-66.6597 237.19159-66.83988 168.67858-67.068439 99.287738-66.68028 85.78325-68.28152 84.98176-67.81173 85.40093-82.77965 84.522068-88.66458 85.20355-96.55085 85.21436-102.52814 85.28641-118.26853 86.136768-118.306 100.5402-118.048038Z"/>
<path transform="matrix(1,0,0,-1,291.66688,43.575067)" stroke-width=".75" stroke-linecap="round" stroke-linejoin="round" fill="none" stroke="#000000" d="M100.75162-25.847767C99.54942-24.75299 99.982128-25.042227 100.85945-24.506939 169.66675-24.872429 236.27886-24.135306 305.1128-25.108195 319.92494-24.620385 320.63249-24.685872 321.27574-9.979406 320.78517-2.494138 320.9503 3.8596 320.7646 10.733731 319.5482 25.683436 320.97114 25.55119 304.52915 24.480746 236.71784 25.006743 169.09459 24.404805 100.424037 25.445136 85.28835 25.273398 86.22207 25.260565 84.609859 9.771915 84.48774 3.340484 85.006587-3.018566 86.06496-9.337059 85.79067-25.010239 86.098888-25.57585 100.75162-25.847767Z"/>
<path transform="matrix(1,0,0,-1,291.66688,43.575067)" stroke-width=".75" stroke-linecap="round" stroke-linejoin="round" fill="none" stroke="#000000" d="M99.4491-117.75393C101.16868-117.33738 100.595149-117.74686 100.22923-117.434688 169.30043-117.93547 237.58478-116.644878 306.5544-117.62922 320.28895-117.48825 321.16398-117.194568 320.02928-102.67879 320.0466-95.51692 320.15684-88.23426 319.9804-82.698688 320.5592-67.912 321.42747-67.652568 304.79554-67.30996 237.00225-67.34828 168.29071-66.85683 100.65594-67.246898 85.34412-66.77811 85.74506-67.17319 86.012889-82.04723 84.583538-88.53525 85.95067-95.62938 86.19742-102.04232 84.6965-116.681697 86.00969-116.83684 99.4491-117.75393Z"/>
</svg>
