<svg xmlns="http://www.w3.org/2000/svg" xmlns:xlink="http://www.w3.org/1999/xlink" version="1.1" width="566.92916" height="283.50987" viewBox="0 0 566.92916 283.50987">
<defs>
<path id="font_10_7" d="M.548996 .7350006H.5130005L.13598633 .12399292 .10398865 .07598877C.07899475 .037994386 .07199097 .032989503 .04598999 .03199768L.020996094 .0309906 .011993408 .02999878 .005996704 0H.20799256L.21398926 .02999878H.20199585L.1769867 .0309906C.1519928 .03199768 .14199829 .036987306 .14199829 .04899597 .14199829 .052993776 .14399719 .05999756 .14698792 .06599426L.16499329 .099990848 .1789856 .12599182 .23999024 .22299195H.54100039L.55999758 .12298584C.5609894 .115997318 .5629883 .102996829 .5649872 .08299255 .5669861 .07299805 .56799319 .06399536 .56799319 .055999757V.053985597C.56799319 .033996583 .55599978 .02999878 .49699403 .02999878H.48199464L.47599793 0H.746994L.7529907 .02999878 .7409973 .0309906C.70700076 .03199768 .70199587 .033996583 .69400027 .042999269 .6859894 .052993776 .6719971 .09498596 .6639862 .13398743L.548996 .7350006M.46899415 .6049957 .5319977 .2649994H.2599945L.46899415 .6049957Z"/>
<path id="font_10_8" d="M.10798645 .18998719H.7589874V.24398804H.10798645V.18998719M.10798645 .40699769H.7589874V.46099855H.10798645V.40699769Z"/>
<g id="font_11_3">
<clipPath id="clip_12">
<path transform="matrix(.050187503,0,0,.050187503,0,0)" d="M-1-1H15V149H-1Z"/>
</clipPath>
<g clip-path="url(#clip_12)">
<defs>
<path id="font_10_1" d="M.23298645 0H.32299806V1.6029968H.6539917V1.647995H.23298645V0Z"/>
</defs>
<defs>
<path id="font_10_2" d="M.23298645 0H.32299806V.56999209H.23298645V0Z"/>
</defs>
<defs>
<path id="font_10_3" d="M.23298645 0H.6539917V.04499817H.32299806V1.647995H.23298645V0Z"/>
</defs>
<use data-text="&#x23a1;" xlink:href="#font_10_1" transform="matrix(1,0,0,1,0,5.7652747)"/>
<use data-text="&#x23a2;" xlink:href="#font_10_2" transform="matrix(1,0,0,1,0,5.2444918)"/>
<use data-text="&#x23a2;" xlink:href="#font_10_2" transform="matrix(1,0,0,1,0,4.7237098)"/>
<use data-text="&#x23a2;" xlink:href="#font_10_2" transform="matrix(1,0,0,1,0,4.2029268)"/>
<use data-text="&#x23a2;" xlink:href="#font_10_2" transform="matrix(1,0,0,1,0,3.6821442)"/>
<use data-text="&#x23a2;" xlink:href="#font_10_2" transform="matrix(1,0,0,1,0,3.1613618)"/>
<use data-text="&#x23a2;" xlink:href="#font_10_2" transform="matrix(1,0,0,1,0,2.6405793)"/>
<use data-text="&#x23a2;" xlink:href="#font_10_2" transform="matrix(1,0,0,1,0,2.119797)"/>
<use data-text="&#x23a2;" xlink:href="#font_10_2" transform="matrix(1,0,0,1,0,1.5990143)"/>
<use data-text="&#x23a3;" xlink:href="#font_10_3" transform="matrix(1,0,0,1,0,.000001505625)"/>
</g>
</g>
<path id="font_10_14" d="M.10798645 .2979889H.7589874V.35198976H.10798645V.2979889Z"/>
<path id="font_10_22" d="M.23999024 .17999268C.26098634 .21899414 .2669983 .22799683 .30999757 .2899933 .34298707 .33599855 .37098695 .37399293 .3959961 .40299989 .42900086 .44299317 .47099305 .46998597 .49899293 .46998597 .5289917 .46998597 .54499819 .44299317 .54499819 .3929901 .54499819 .31799317 .5039978 .18598938 .45799256 .10998535 .43099977 .066986087 .3880005 .041992189 .33999635 .041992189 .31199647 .041992189 .2669983 .049987794 .23999024 .05999756 .23498535 .06199646 .22799683 .06498718 .21798706 .068984989L.23999024 .17999268M.20498657 0C.21199036-.0010070801 .21699524-.0020141602 .22099304-.0020141602 .23999024-.0040130617 .25-.006011963 .2519989-.006011963 .2599945-.007003784 .2669983-.007003784 .2749939-.007003784 .35499574-.007003784 .44099427 .034988405 .5119934 .10798645 .59399417 .19400025 .647995 .31399537 .647995 .4139862 .647995 .49198915 .6069946 .5419922 .5439911 .5419922 .5009918 .5419922 .46199037 .522995 .4139862 .47898866 .35598756 .42599488 .33999635 .40299989 .2749939 .2869873L.2630005 .2649994H.25698854L.31199647 .5419922 .07998657 .46398927 .07398987 .43399049C.11199951 .44499208 .13798523 .45098878 .15299988 .45098878 .17298889 .45098878 .18399048 .43499757 .18399048 .40899659 .18399048 .397995 .18199158 .38398744 .17999268 .36799623L.17098999 .31298829 .06599426-.2110138H.16299439L.20498657 0Z"/>
<path id="font_10_10" d="M.2559967 .57499697V.1269989L.25299073 .07798767C.25099183 .039993287 .24699402 .035995485 .20799256 .032989503L.1749878 .0309906 .116989139 .02999878V0H.4909973V.02999878L.43399049 .0309906 .40098573 .032989503C.3619995 .035995485 .35798646 .039993287 .35499574 .07798767L.35198976 .1269989V.72898867L.116989139 .66999819V.6399994L.1659851 .6489868 .20899964 .6569977C.21699524 .6579895 .22599793 .6589966 .23399353 .6589966 .24899292 .6589966 .25099183 .6549988 .25299073 .6239929L.2559967 .57499697Z"/>
<path id="font_10_9" d="M.3039856-.018005372C.45799256-.018005372 .5569916 .12998963 .5569916 .35899354 .5569916 .59199526 .45899964 .7409973 .3039856 .7409973 .1499939 .7409973 .050994874 .59199526 .050994874 .35899354 .050994874 .12998963 .15098572-.018005372 .3039856-.018005372M.3039856 .011993408C.2539978 .011993408 .20698548 .051986696 .18399048 .114990238 .1599884 .1789856 .15299988 .23298645 .15299988 .36099244 .15299988 .48999024 .16099549 .5499878 .18399048 .60798647 .20899964 .6719971 .2539978 .71099856 .3019867 .71099856 .35398866 .71099856 .40098573 .67099 .4249878 .60798647 .44799806 .54499819 .45498658 .48999024 .45498658 .36099244 .45498658 .23298645 .44799806 .17399597 .4249878 .114990238 .39898683 .049987794 .35499574 .011993408 .3039856 .011993408Z"/>
<path id="font_10_11" d="M.23699951 .3849945H.117996219V.2649994H.23699951V.3849945M.59498599 .3849945H.47499085V.2649994H.59498599V.3849945M.9529877 .3849945H.83299258V.2649994H.9529877V.3849945Z"/>
<path id="font_10_13" d="M.23699951 .6499939H.117996219V.5299988H.23699951V.6499939M.59498599 .3849945H.47499085V.2649994H.59498599V.3849945M.9529877 .11999512H.83299258V0H.9529877V.11999512Z"/>
<path id="font_10_12" d="M.23699951 .3849945H.117996219V.2649994H.23699951V.3849945M.23799134 .05999756H.117996219V-.060012819H.23799134V.05999756M.23799134 .70999148H.117996219V.58999636H.23799134V.70999148Z"/>
<path id="font_10_16" d="M.25 .17399597C.29899598 .2630005 .35099793 .33799745 .4039917 .39898683 .44299317 .44499208 .48098756 .46998597 .5079956 .46998597 .5279999 .46998597 .5379944 .45599366 .5379944 .42900086 .5379944 .4189911 .5359955 .40098573 .5319977 .38398744L.4850006 .14498902C.47698976 .10598755 .47299195 .07798767 .47299195 .06098938 .47299195 .01399231 .49798585-.012008667 .54299929-.012008667 .60198977-.012008667 .6619873 .023986817 .7350006 .102996829L.74398806 .147995C.68499758 .08198547 .6289978 .040985109 .6009979 .040985109 .5799866 .040985109 .56999209 .050994874 .56999209 .07299805 .56999209 .07998657 .57099917 .08799744 .57199099 .09700012L.58099368 .14498902 .6279907 .3829956C.6339874 .4099884 .6369934 .43399049 .6369934 .45399476 .6369934 .5059967 .60398867 .5419922 .5569916 .5419922 .5109863 .5419922 .46499635 .5189972 .41999818 .47399903 .37298585 .42599488 .34098817 .3809967 .28399659 .2829895L.27398683 .2649994H.2679901L.2919922 .38598634C.29899598 .42399598 .30299378 .45298768 .30299378 .46899415 .30299378 .5159912 .27799989 .5419922 .23298645 .5419922 .1749878 .5419922 .11399841 .5059967 .040985109 .4269867L.03199768 .38198854C.09298706 .44898988 .14698792 .4889984 .17599488 .4889984 .19599915 .4889984 .20599365 .47898866 .20599365 .45700074 .20599365 .44999696 .20599365 .44198609 .20399475 .43299867L.19499207 .38598634 .11898804 0H.21398926L.25 .17399597Z"/>
<g id="font_11_4">
<clipPath id="clip_13">
<path transform="matrix(.050187503,0,0,.050187503,0,0)" d="M-1-1H15V149H-1Z"/>
</clipPath>
<g clip-path="url(#clip_13)">
<defs>
<path id="font_10_4" d="M.37799073 0H.46798707V1.647995H.04598999V1.6029968H.37799073V0Z"/>
</defs>
<defs>
<path id="font_10_5" d="M.37799073 0H.46798707V.56999209H.37799073V0Z"/>
</defs>
<defs>
<path id="font_10_6" d="M.37799073 .04499817H.04598999V0H.46798707V1.647995H.37799073V.04499817Z"/>
</defs>
<use data-text="&#x23a4;" xlink:href="#font_10_4" transform="matrix(1,0,0,1,0,5.7652747)"/>
<use data-text="&#x23a5;" xlink:href="#font_10_5" transform="matrix(1,0,0,1,0,5.2444918)"/>
<use data-text="&#x23a5;" xlink:href="#font_10_5" transform="matrix(1,0,0,1,0,4.7237098)"/>
<use data-text="&#x23a5;" xlink:href="#font_10_5" transform="matrix(1,0,0,1,0,4.2029268)"/>
<use data-text="&#x23a5;" xlink:href="#font_10_5" transform="matrix(1,0,0,1,0,3.6821442)"/>
<use data-text="&#x23a5;" xlink:href="#font_10_5" transform="matrix(1,0,0,1,0,3.1613618)"/>
<use data-text="&#x23a5;" xlink:href="#font_10_5" transform="matrix(1,0,0,1,0,2.6405793)"/>
<use data-text="&#x23a5;" xlink:href="#font_10_5" transform="matrix(1,0,0,1,0,2.119797)"/>
<use data-text="&#x23a5;" xlink:href="#font_10_5" transform="matrix(1,0,0,1,0,1.5990143)"/>
<use data-text="&#x23a6;" xlink:href="#font_10_6" transform="matrix(1,0,0,1,0,.000001505625)"/>
</g>
</g>
<path id="font_10_17" d="M.33499146 .6899872H.35499574C.42399598 .6899872 .45599366 .68299868 .48298646 .6639862 .5079956 .6459961 .5189972 .6199951 .5189972 .58200076 .5189972 .5249939 .49198915 .46699525 .44898988 .43299867 .41299439 .40299989 .36999513 .3909912 .3019867 .3909912H.27598573L.33499146 .6899872M.40899659 .36999513C.47299195 .38598634 .49699403 .39698792 .5369873 .42999269 .58999636 .47299195 .62098696 .5309906 .62098696 .58699038 .62098696 .6319885 .5970001 .6719971 .55599978 .69499209 .5130005 .71798709 .48399354 .72299197 .37998963 .72299197H.1499939L.14399719 .69299319 .15299988 .69200137 .18499756 .6899872C.21899414 .68699648 .22299195 .68499758 .22299195 .6649933 .22299195 .6579895 .22200012 .651001 .22200012 .644989L.21499634 .59599307 .12199402 .12599182 .10899353 .07798767C.09899902 .039993287 .09399414 .035995485 .054992677 .032989503L.020996094 .0309906 .011993408 .02999878 .005996704 0H.32099916C.4149933 0 .47499085 .019989014 .522995 .068984989 .5609894 .10699463 .58200076 .15499878 .58200076 .20599365 .58200076 .29100038 .522995 .34700013 .40899659 .36999513M.269989 .35798646H.29599C.4079895 .35798646 .47698976 .3039856 .47698976 .21598816 .47698976 .115997318 .3919983 .035995485 .2869873 .035995485 .24299622 .035995485 .21099854 .04598999 .21099854 .05899048 .21099854 .066986087 .21199036 .07699585 .21398926 .08699036L.22099304 .1289978 .269989 .35798646Z"/>
<path id="font_10_18" d="M.7369995 .71699526C.6609955 .73399356 .59999087 .7409973 .5339966 .7409973 .3999939 .7409973 .30599977 .70199587 .21598816 .60899356 .12399292 .5149994 .07199097 .3880005 .07199097 .25698854 .07199097 .085998538 .17098999-.018005372 .33198548-.018005372 .4149933-.018005372 .5099945 .0029907227 .60899356 .04399109L.6179962 .085998538C.5119934 .049987794 .45399476 .036987306 .3929901 .036987306 .2599945 .036987306 .17999268 .11999512 .17999268 .2579956 .17999268 .42099 .2649994 .59399417 .38198854 .6689911 .4169922 .69200137 .47599793 .70799258 .526001 .70799258 .6009979 .70799258 .6579895 .6779938 .6579895 .6389923 .6579895 .6309967 .6569977 .62098696 .6549988 .61099246 .6519928 .59999087 .651001 .58999636 .6499939 .58200076L.647995 .57199099H.70899966L.7369995 .71699526Z"/>
<path id="font_10_19" d="M.19299317-.7740021H.5419922V-.7310028H.2769928V1.3819885H.5419922V1.423996H.19299317V-.7740021Z"/>
<path id="font_10_23" d="M.5049896 .5169983C.46598817 .5339966 .43099977 .5419922 .3919983 .5419922 .31199647 .5419922 .22599793 .49899293 .1579895 .42599488 .08898926 .34999085 .04798889 .25299073 .04798889 .16099549 .04798889 .057998659 .11099243-.012008667 .20298767-.012008667 .2709961-.012008667 .36299134 .024993897 .46798707 .09599304L.47499085 .13398743C.3809967 .07398987 .30599977 .041992189 .2559967 .041992189 .18899536 .041992189 .147995 .09498596 .147995 .18299866 .147995 .30499269 .21398926 .44299317 .29299928 .48599244 .30799867 .49499513 .32998658 .5 .34899903 .5 .4019928 .5 .43598939 .46998597 .43598939 .42399598 .43598939 .41600038 .43499757 .4079895 .43299867 .39898683L.43099977 .38598634H.47799684L.5049896 .5169983Z"/>
<path id="font_10_24" d="M.4099884 .5469971C.4099884 .5209961 .40499879 .49299623 .397995 .47099305 .37998963 .4229889 .34799195 .3829956 .2599945 .30099488L.20899964 .2519989C.17098999 .21699524 .14898682 .19099427 .1269989 .1559906 .10598755 .12098694 .09599304 .100997928 .07798767 .04798889V0H.5089874V.083999637H.15699768C.16299439 .12998963 .16899109 .147995 .19198609 .18299866 .21998596 .22499085 .24598694 .24899292 .31199647 .29499818L.36999513 .33499146C.47299195 .40499879 .5119934 .46398927 .5119934 .54599 .5119934 .6599884 .4189911 .7409973 .28799439 .7409973 .23098755 .7409973 .1619873 .72499087 .09498596 .69699099V.5649872H.14299011V.57699587C.14698792 .647995 .147995 .6519928 .1539917 .6629944 .1579895 .6689911 .16499329 .6749878 .1749878 .68099978 .20498657 .69898989 .24099732 .70999148 .2769928 .70999148 .35699464 .70999148 .4099884 .6459961 .4099884 .5469971Z"/>
<path id="font_10_21" d="M.33099366-.7310028H.06599426V-.7740021H.41600038V1.423996H.06599426V1.3819885H.33099366V-.7310028Z"/>
</defs>
<use data-text="&#x1d434;" xlink:href="#font_10_7" transform="matrix(19.92528,0,0,-19.92528,71.320598,91.13658)"/>
<use data-text="=" xlink:href="#font_10_8" transform="matrix(19.92528,0,0,-19.92528,92.59641,91.13658)"/>
<use data-text="[" xlink:href="#font_11_3" transform="matrix(19.92528,0,0,-19.92528,115.41347,158.51877)"/>
<use data-text="&#x2212;" xlink:href="#font_10_14" transform="matrix(19.92528,0,0,-19.92528,135.74413,28.268067)"/>
<use data-text="&#x1d45d;" xlink:href="#font_10_22" transform="matrix(19.92528,0,0,-19.92528,153.01935,28.268067)"/>
<use data-text="1" xlink:href="#font_10_10" transform="matrix(14.29633,0,0,-13.59894,166.5751,31.257508)"/>
<use data-text="1" xlink:href="#font_10_10" stroke-width=".0041166797" stroke-linecap="butt" stroke-miterlimit="10" stroke-linejoin="miter" transform="matrix(14.29633,0,0,-13.59894,166.5751,31.257508)" fill="none" stroke="#000000"/>
<use data-text="0" xlink:href="#font_10_9" transform="matrix(19.92528,0,0,-19.92528,196.39977,28.268067)"/>
<use data-text="&#x22ef;" xlink:href="#font_10_11" transform="matrix(19.92528,0,0,-19.92528,241.60746,28.268067)"/>
<use data-text="0" xlink:href="#font_10_9" transform="matrix(19.92528,0,0,-19.92528,296.0403,28.268067)"/>
<use data-text="0" xlink:href="#font_10_9" transform="matrix(19.92528,0,0,-19.92528,146.57592,67.43973)"/>
<use data-text="&#x22f1;" xlink:href="#font_10_13" transform="matrix(19.92528,0,0,-19.92528,191.7836,67.43973)"/>
<use data-text="&#x22f1;" xlink:href="#font_10_13" transform="matrix(19.92528,0,0,-19.92528,241.60298,67.43973)"/>
<use data-text="&#x22ee;" xlink:href="#font_10_12" transform="matrix(19.92528,0,0,-19.92528,298.54707,67.43973)"/>
<use data-text="&#x22ee;" xlink:href="#font_10_12" transform="matrix(19.92528,0,0,-19.92528,149.08704,106.611408)"/>
<use data-text="&#x22f1;" xlink:href="#font_10_13" transform="matrix(19.92528,0,0,-19.92528,191.78452,106.611408)"/>
<use data-text="&#x22f1;" xlink:href="#font_10_13" transform="matrix(19.92528,0,0,-19.92528,241.6039,106.611408)"/>
<use data-text="0" xlink:href="#font_10_9" transform="matrix(19.92528,0,0,-19.92528,296.03678,106.611408)"/>
<use data-text="0" xlink:href="#font_10_9" transform="matrix(19.92528,0,0,-19.92528,146.57592,145.78307)"/>
<use data-text="&#x22ef;" xlink:href="#font_10_11" transform="matrix(19.92528,0,0,-19.92528,191.7836,145.78307)"/>
<use data-text="0" xlink:href="#font_10_9" transform="matrix(19.92528,0,0,-19.92528,246.21649,145.78307)"/>
<use data-text="&#x2212;" xlink:href="#font_10_14" transform="matrix(19.92528,0,0,-19.92528,285.20588,145.78307)"/>
<use data-text="&#x1d45d;" xlink:href="#font_10_22" transform="matrix(19.92528,0,0,-19.92528,302.48109,145.78307)"/>
<use data-text="&#x1d45b;" xlink:href="#font_10_16" transform="matrix(14.29633,0,0,-13.59894,316.04664,148.77249)"/>
<use data-text="&#x1d45b;" xlink:href="#font_10_16" stroke-width=".0041166797" stroke-linecap="butt" stroke-miterlimit="10" stroke-linejoin="miter" transform="matrix(14.29633,0,0,-13.59894,316.04664,148.77249)" fill="none" stroke="#000000"/>
<use data-text="]" xlink:href="#font_11_4" transform="matrix(19.92528,0,0,-19.92528,325.35646,158.51877)"/>
<use data-text="&#x1d435;" xlink:href="#font_10_17" transform="matrix(19.92528,0,0,-19.92528,379.18614,91.13658)"/>
<use data-text="=" xlink:href="#font_10_8" transform="matrix(19.92528,0,0,-19.92528,398.34989,91.13658)"/>
<use data-text="[" xlink:href="#font_11_3" transform="matrix(19.92528,0,0,-19.92528,421.16648,158.51877)"/>
<use data-text="1" xlink:href="#font_10_10" transform="matrix(19.92528,0,0,-19.92528,452.32893,28.268067)"/>
<use data-text="1" xlink:href="#font_10_10" transform="matrix(19.92528,0,0,-19.92528,452.32893,67.43973)"/>
<use data-text="&#x22ee;" xlink:href="#font_10_12" transform="matrix(19.92528,0,0,-19.92528,454.84007,106.611408)"/>
<use data-text="1" xlink:href="#font_10_10" transform="matrix(19.92528,0,0,-19.92528,452.32893,145.78307)"/>
<use data-text="]" xlink:href="#font_11_4" transform="matrix(19.92528,0,0,-19.92528,481.63795,158.51877)"/>
<use data-text="&#x1d436;" xlink:href="#font_10_18" transform="matrix(19.92528,0,0,-19.92528,71.5996,239.08852)"/>
<use data-text="=" xlink:href="#font_10_8" transform="matrix(19.92528,0,0,-19.92528,92.59646,239.08852)"/>
<use data-text="[" xlink:href="#font_10_19" transform="matrix(19.92528,0,0,-19.92528,115.40652,239.08852)"/>
<use data-text="&#x1d450;" xlink:href="#font_10_23" transform="matrix(19.92528,0,0,-19.92528,141.10681,234.9775)"/>
<use data-text="1" xlink:href="#font_10_10" transform="matrix(14.29633,0,0,-13.59894,151.7691,237.96692)"/>
<use data-text="1" xlink:href="#font_10_10" stroke-width=".0041166797" stroke-linecap="butt" stroke-miterlimit="10" stroke-linejoin="miter" transform="matrix(14.29633,0,0,-13.59894,151.7691,237.96692)" fill="none" stroke="#000000"/>
<use data-text="&#x1d450;" xlink:href="#font_10_23" transform="matrix(19.92528,0,0,-19.92528,190.93065,234.9775)"/>
<use data-text="2" xlink:href="#font_10_24" transform="matrix(14.29633,0,0,-13.59894,201.59296,237.96692)"/>
<use data-text="2" xlink:href="#font_10_24" stroke-width=".0041166797" stroke-linecap="butt" stroke-miterlimit="10" stroke-linejoin="miter" transform="matrix(14.29633,0,0,-13.59894,201.59296,237.96692)" fill="none" stroke="#000000"/>
<use data-text="&#x22ef;" xlink:href="#font_10_11" transform="matrix(19.92528,0,0,-19.92528,239.77642,234.9775)"/>
<use data-text="&#x1d450;" xlink:href="#font_10_23" transform="matrix(19.92528,0,0,-19.92528,289.3007,234.9775)"/>
<use data-text="&#x1d45b;" xlink:href="#font_10_16" transform="matrix(14.29633,0,0,-13.59894,299.96757,237.96692)"/>
<use data-text="&#x1d45b;" xlink:href="#font_10_16" stroke-width=".0041166797" stroke-linecap="butt" stroke-miterlimit="10" stroke-linejoin="miter" transform="matrix(14.29633,0,0,-13.59894,299.96757,237.96692)" fill="none" stroke="#000000"/>
<use data-text="]" xlink:href="#font_10_21" transform="matrix(19.92528,0,0,-19.92528,323.52296,239.08852)"/>
</svg>
