<svg xmlns="http://www.w3.org/2000/svg" xmlns:xlink="http://www.w3.org/1999/xlink" xmlns:inkscape="http://www.inkscape.org/namespaces/inkscape" version="1.1" width="765.3543" height="347.94279" viewBox="0 0 765.3543 347.94279">
<defs>
<path id="font_0_1" d="M.6259918 .7049866 .6069946 .70999148C.5119934 .73399356 .46899415 .7409973 .40299989 .7409973 .2899933 .7409973 .20399475 .70899966 .147995 .6469879 .084991458 .57699587 .050994874 .47799684 .050994874 .36299134 .050994874 .24899292 .085998538 .1499939 .1499939 .08198547 .21499634 .0129852299 .29599-.018005372 .40899659-.018005372 .48799134-.018005372 .55999758-.0030059815 .61499026 .025985718 .6199951 .027999878 .6279907 .032989503 .6380005 .038986207V.084991458C.56399539 .04499817 .5130005 .02999878 .44799806 .02999878 .2649994 .02999878 .1579895 .1539917 .1579895 .3639984 .1579895 .57299807 .2519989 .70799258 .39898683 .70799258 .44898988 .70799258 .5029907 .69200137 .5379944 .6669922 .55799868 .6529999 .5629883 .6389923 .56399539 .6049957 .56399539 .59199526 .56399539 .58200076 .5649872 .57598879V.56599429H.6259918V.7049866Z"/>
<path id="font_0_2" d="M.30099488-.012008667C.45799256-.012008667 .55400088 .09399414 .55400088 .2649994 .55400088 .43699647 .45799256 .5419922 .30099488 .5419922 .14498902 .5419922 .04798889 .43598939 .04798889 .2649994 .04798889 .09399414 .14498902-.012008667 .30099488-.012008667M.30099488 .017990113C.21398926 .017990113 .15098572 .12298584 .15098572 .2649994 .15098572 .40699769 .21499634 .5119934 .30099488 .5119934 .3869934 .5119934 .45199586 .40699769 .45199586 .2649994 .45199586 .12298584 .3880005 .017990113 .30099488 .017990113Z"/>
<path id="font_0_3" d="M.20498657 .1269989V.7709961H.017990113V.7409973L.026992798 .73999026 .05999756 .73799136C.09899902 .7350006 .102996829 .73098757 .10499573 .69299319L.10798645 .644989V.1269989L.10499573 .07798767C.102996829 .039993287 .09899902 .035995485 .05999756 .032989503L.026992798 .0309906 .017990113 .02999878V0H.29499818V.02999878L.28599549 .0309906 .25299073 .032989503C.21398926 .035995485 .20999146 .039993287 .20799256 .07798767L.20498657 .1269989Z"/>
<path id="font_0_4" d="M.42799378 .09899902V0H.61499026V.02999878L.6049957 .0309906 .57199099 .032989503C.5329895 .035995485 .5299988 .039993287 .5269928 .07798767L.5239868 .1269989V.5299988H.33699037V.5L.34599305 .49899293 .37998963 .49699403C.41799928 .49398805 .42199708 .48999024 .4249878 .45199586L.42799378 .4039917V.13198853C.4079895 .10998535 .40098573 .10499573 .3659973 .08299255 .32598878 .057998659 .3039856 .049987794 .272995 .049987794 .24198914 .049987794 .21598816 .06199646 .20298767 .08198547 .19099427 .100997928 .18699646 .12399292 .18699646 .17199707V.5299988H0V.5L.008987427 .49899293 .041992189 .49699403C.08099365 .49398805 .084991458 .48999024 .08699036 .45199586L.08999634 .4039917V.15699768C.08999634 .051986696 .1459961-.012008667 .23699951-.012008667 .30999757-.012008667 .38198854 .02999878 .42799378 .09899902Z"/>
<path id="font_0_5" d="M.20498657 .43099977V.5299988H.017990113V.5L.026992798 .49899293 .05999756 .49699403C.09899902 .49398805 .102996829 .48999024 .10499573 .45199586L.10798645 .4039917V.1269989L.10499573 .07798767C.102996829 .039993287 .09899902 .035995485 .05999756 .032989503L.026992798 .0309906 .017990113 .02999878V0H.29499818V.02999878L.28599549 .0309906 .25299073 .032989503C.21398926 .035995485 .20999146 .039993287 .20799256 .07798767L.20498657 .1269989V.397995C.2559967 .45098878 .31098939 .47898866 .3600006 .47898866 .38598634 .47898866 .4059906 .46998597 .41799928 .45399476 .43099977 .43499757 .43399049 .4189911 .43399049 .36799623V.1269989L.43099977 .07798767C.42799378 .039993287 .42399598 .035995485 .38598634 .032989503L.35198976 .0309906 .34298707 .02999878V0H.6199951V.02999878L.61099246 .0309906 .5779877 .032989503C.5389862 .035995485 .5359955 .039993287 .5329895 .07798767L.5299988 .1269989V.397995C.58799746 .45399476 .6359863 .47898866 .68499758 .47898866 .70999148 .47898866 .7319946 .46998597 .7429962 .45399476 .7549896 .43699647 .7589874 .4169922 .7589874 .36799623V.1269989L.7559967 .07798767C.7539978 .039993287 .75 .035995485 .71099856 .032989503L.6779938 .0309906 .6689911 .02999878V0H.94599917V.02999878L.93699648 .0309906 .9039917 .032989503C.86499026 .035995485 .86099246 .039993287 .8580017 .07798767L.8549957 .1269989V.38598634C.8549957 .48298646 .8019867 .5419922 .71299746 .5419922 .6719971 .5419922 .6269989 .5269928 .59498599 .5019989 .56999209 .48399354 .55799868 .47200013 .5239868 .43099977 .5159912 .47399903 .5069885 .49198915 .47898866 .5130005 .45399476 .5319977 .42199708 .5419922 .3880005 .5419922 .34700013 .5419922 .3039856 .5269928 .2709961 .5009918 .24398804 .48098756 .23298645 .46899415 .20498657 .43099977Z"/>
<path id="font_0_6" d="M.20498657 .43099977V.5299988H.017990113V.5L.026992798 .49899293 .05999756 .49699403C.09899902 .49398805 .102996829 .48999024 .10499573 .45199586L.10798645 .4039917V.1269989L.10499573 .07798767C.102996829 .039993287 .09899902 .035995485 .05999756 .032989503L.026992798 .0309906 .017990113 .02999878V0H.29499818V.02999878L.28599549 .0309906 .25299073 .032989503C.21398926 .035995485 .20999146 .039993287 .20799256 .07798767L.20498657 .1269989V.397995C.23599243 .42599488 .24398804 .43199159 .2679901 .44799806 .2999878 .46899415 .33399964 .47999574 .36499024 .47999574 .3929901 .47999574 .41999818 .46699525 .43199159 .44799806 .44198609 .43099977 .44599916 .40899659 .44599916 .35798646V.1269989L.44299317 .07798767C.43998719 .039993287 .43598939 .035995485 .397995 .032989503L.3639984 .0309906 .35499574 .02999878V0H.6329956V.02999878L.6230011 .0309906 .58999636 .032989503C.5509949 .035995485 .5479889 .039993287 .54499819 .07798767L.5419922 .1269989V.37298585C.5419922 .47898866 .4869995 .5419922 .3959961 .5419922 .32299806 .5419922 .25 .5 .20498657 .43099977Z"/>
<path id="font_0_7" d="M0 0Z"/>
<path id="font_0_8" d="M.21699524 .4909973H.34899903V.5299988H.21699524V.6139984 .6629944C.21699524 .6779938 .21998596 .69299319 .22399903 .70599368 .23199463 .73298647 .2559967 .7519989 .2829895 .7519989 .2999878 .7519989 .31799317 .746994 .33198548 .7389984 .34700013 .7299957 .35299684 .71699526 .35299684 .68699648 .35299684 .67099 .35398866 .6559906 .35499574 .6419983V.6329956H.41600038V.746994C.38398744 .7659912 .37098695 .7709961 .33898927 .7769928 .32099916 .7809906 .30299378 .7829895 .2849884 .7829895 .23098755 .7829895 .18299866 .7609863 .1559906 .72499087 .12799073 .6859894 .11999512 .647995 .11999512 .55599978V.5299988H.041992189V.48799134H.11999512V.1269989L.116989139 .07798767C.114990238 .039993287 .11099243 .035995485 .07199097 .032989503L.038986207 .0309906 .02999878 .02999878V0H.31900025V.02999878L.3039856 .0309906 .2689972 .032989503C.24798584 .034988405 .23399353 .037994386 .22999573 .041992189 .22599793 .04598999 .22200012 .05899048 .21998596 .07798767 .21798706 .09700012 .21699524 .11299133 .21699524 .1269989V.4909973Z"/>
<path id="font_0_9" d="M.5139923 .5V.5299988H.07998657V.4139862H.13198853V.42399598C.1329956 .42900086 .1329956 .44099427 .1329956 .45999146 .13398743 .49598695 .13699341 .49899293 .18399048 .49899293L.22898865 .5H.4019928L.066986087 .02999878V0H.5279999V.12199402H.47599793V.10998535 .07398987C.47599793 .04598999 .46899415 .039993287 .43598939 .037994386L.37599183 .035995485H.18199158L.5139923 .5Z"/>
<path id="font_0_10" d="M.47898866 .28599549V.29499818C.47898866 .37799073 .46499635 .4269867 .43099977 .47200013 .394989 .5189972 .34599305 .5419922 .28199769 .5419922 .14498902 .5419922 .04798889 .42999269 .04798889 .269989 .04798889 .102996829 .15499878-.012008667 .31098939-.012008667 .35398866-.012008667 .39698792-.005004883 .43899537 .008987427 .44799806 .011993408 .46099855 .016998291 .47898866 .023986817V.07299805C.43998719 .050994874 .3809967 .036987306 .32598878 .036987306 .25099183 .036987306 .18998719 .084991458 .16799927 .16299439 .15699768 .20098877 .15499878 .22200012 .15499878 .2769928V.28599549H.47898866M.3769989 .33799745V.31599427H.15699768C.1579895 .43798829 .20199585 .5119934 .2749939 .5119934 .30799867 .5119934 .34098817 .49198915 .35699464 .46299745 .37298585 .43399049 .3769989 .4099884 .3769989 .34799195V.33799745Z"/>
<path id="font_0_11" d="M.20498657 .43099977V.5299988H.017990113V.5L.026992798 .49899293 .05999756 .49699403C.09899902 .49398805 .102996829 .48999024 .10499573 .45199586L.10798645 .4039917V.1269989L.10499573 .07798767C.102996829 .039993287 .09899902 .035995485 .05999756 .032989503L.026992798 .0309906 .017990113 .02999878V0H.30699159V.02999878L.28599549 .0309906 .25299073 .032989503C.21398926 .035995485 .20999146 .039993287 .20799256 .07798767L.20498657 .1269989V.38598634C.23098755 .42900086 .24699402 .44299317 .28799439 .45599366 .30099488 .45999146 .31498719 .46299745 .32398988 .46299745 .34298707 .46299745 .34799195 .45799256 .34999085 .43699647L.35499574 .40098573V.3919983H.4099884V.5369873C.394989 .54100039 .3889923 .5419922 .3769989 .5419922 .30699159 .5419922 .24798584 .5039978 .20498657 .43099977Z"/>
<path id="font_0_12" d="M.22099304 .23199463 .2709961 .21199036C.33399964 .18798828 .35598756 .1619873 .35598756 .11299133 .35598756 .056991579 .31498719 .017990113 .2559967 .017990113 .22099304 .017990113 .17999268 .0309906 .15299988 .049987794 .1349945 .06199646 .1289978 .07499695 .1269989 .101989749L.12298584 .15299988 .12199402 .1619873H.067993167V.026992798C.10798645 .008987427 .12399292 .0039978029 .17199707-.005004883 .20098877-.010009766 .22799683-.012008667 .2519989-.012008667 .36799623-.012008667 .45199586 .054992677 .45199586 .147995 .45199586 .19099427 .43099977 .23298645 .397995 .25498963 .3789978 .2679901 .35198976 .2809906 .31999208 .2939911L.2749939 .31298829C.18299866 .35099793 .16099549 .37098695 .16099549 .4169922 .16099549 .47200013 .20298767 .5119934 .25898744 .5119934 .2809906 .5119934 .30599977 .5059967 .32499696 .49499513 .34799195 .48199464 .35198976 .47499085 .35499574 .43899537L.3600006 .3939972V.38598634H.4139862V.5119934C.35699464 .5329895 .30599977 .5419922 .25299073 .5419922 .14698792 .5419922 .070999149 .47999574 .070999149 .3939972 .070999149 .34599305 .09498596 .30099488 .13598633 .27398683 .15899658 .25898744 .18798828 .24499512 .22099304 .23199463Z"/>
<path id="font_0_13" d="M.21398926 .1269989V.59599307L.21699524 .644989C.21899414 .68299868 .22299195 .68699648 .2619934 .6899872L.29499818 .69200137 .3039856 .69299319V.72299197H.020996094V.69299319L.02999878 .69200137 .06298828 .6899872C.101989749 .68699648 .10598755 .68299868 .10798645 .644989L.11099243 .59599307V.1269989L.10798645 .07798767C.10598755 .039993287 .101989749 .035995485 .06298828 .032989503L.02999878 .0309906 .020996094 .02999878V0H.3039856V.02999878L.29499818 .0309906 .2619934 .032989503C.22299195 .035995485 .21899414 .039993287 .21699524 .07798767L.21398926 .1269989Z"/>
<path id="font_0_14" d="M.43699647 .09899902V0H.6230011V.02999878L.6139984 .0309906 .58099368 .032989503C.5419922 .035995485 .5389862 .039993287 .5359955 .07798767L.5329895 .1269989V.7709961H.34599305V.7409973L.35499574 .73999026 .3889923 .73799136C.42799378 .7350006 .43099977 .73098757 .43399049 .69299319L.43699647 .644989V.46998597C.3919983 .5189972 .33999635 .5419922 .2769928 .5419922 .14199829 .5419922 .053985597 .42599488 .053985597 .24899292 .053985597 .08999634 .1309967-.012008667 .25099183-.012008667 .32398988-.012008667 .3909912 .027999878 .43699647 .09899902M.43699647 .43199159V.1329956C.39898683 .08299255 .33999635 .049987794 .28599549 .049987794 .21899414 .049987794 .18199158 .08799744 .16699219 .17199707 .1599884 .20899964 .1559906 .24398804 .1559906 .27598573 .1559906 .41299439 .20399475 .48799134 .2899933 .48799134 .33999635 .48799134 .38398744 .47200013 .43699647 .43199159Z"/>
<path id="font_0_15" d="M.21699524 .4909973H.3639984V.5299988H.21699524V.651001L.12098694 .6259918V.5299988H.041992189V.4909973H.12098694V.1659851C.12098694 .09399414 .12799073 .06498718 .15499878 .035995485 .17098999 .019989014 .18998719 .0069885256 .21099854 0 .23298645-.008010864 .2579956-.012008667 .2829895-.012008667 .30899049-.012008667 .32299806-.009002686 .35198976 .0029907227V.041992189C.32598878 .02999878 .31498719 .026992798 .29699708 .026992798 .2630005 .026992798 .23599243 .042999269 .22599793 .069992069 .21998596 .08299255 .21798706 .09700012 .21699524 .10998535V.15299988 .4909973Z"/>
<path id="font_0_16" d="M.20498657 .1269989V.5299988H.017990113V.5L.026992798 .49899293 .05999756 .49699403C.09899902 .49398805 .102996829 .48999024 .10499573 .45199586L.10798645 .4039917V.1269989L.10499573 .07798767C.102996829 .039993287 .09899902 .035995485 .05999756 .032989503L.026992798 .0309906 .017990113 .02999878V0H.29499818V.02999878L.28599549 .0309906 .25299073 .032989503C.21398926 .035995485 .20999146 .039993287 .20799256 .07798767L.20498657 .1269989M.20498657 .6259918V.72299197H.10798645V.6259918H.20498657Z"/>
<path id="font_0_17" d="M.47200013 .4019928C.48199464 .42399598 .48799134 .43798829 .48999024 .44400025 .5069885 .48599244 .5179901 .49798585 .5419922 .49899293L.5509949 .5V.5299988H.3939972V.5H.40699769L.43099977 .49899293C.45700074 .49899293 .46699525 .49398805 .46699525 .47999574 .46699525 .47599793 .46598817 .47099305 .46398927 .46699525L.44999696 .43299867 .43899537 .40299989 .31199647 .116989139 .19299317 .4019928C.18899536 .41299439 .18499756 .42399598 .18099976 .43399049 .1749878 .45298768 .17098999 .46398927 .16999817 .46699525 .16699219 .47399903 .1659851 .47898866 .1659851 .48199464 .1659851 .49398805 .17599488 .49899293 .19999695 .49899293L.23199463 .5H.24198914V.5299988H0V.5L.009994507 .49899293C.026992798 .49798585 .039993287 .49299623 .04699707 .4850006 .055999757 .47399903 .067993167 .44999696 .08799744 .4019928L.25498963 0 .08099365-.19300843H.20298767L.47200013 .4019928Z"/>
<path id="font_0_18" d="M.37599183 .07299805C.3899994 .011993408 .4149933-.012008667 .46598817-.012008667 .48799134-.012008667 .5-.010009766 .5279999 0L.5249939 .035995485C.5119934 .03199768 .5069885 .03199768 .49899293 .03199768 .46299745 .03199768 .44999696 .06199646 .44999696 .14698792V.3829956C.44999696 .44499208 .44099427 .47099305 .40899659 .49899293 .375 .5279999 .33198548 .5419922 .2749939 .5419922 .22499085 .5419922 .16899109 .5309906 .115997318 .5089874 .10998535 .5069885 .100997928 .5029907 .08898926 .49699403V.40098573H.1539917L.15499878 .4099884C.1599884 .45700074 .16499329 .46798707 .18998719 .4850006 .21099854 .49798585 .23399353 .5049896 .25898744 .5049896 .32299806 .5049896 .35398866 .46398927 .35398866 .3789978V.31298829H.33399964C.22200012 .31298829 .16999817 .3019867 .11999512 .2689972 .07499695 .23899842 .04899597 .19099427 .04899597 .13798523 .04899597 .051986696 .115997318-.012008667 .20599365-.012008667 .25898744-.012008667 .30699159 .0079956059 .35099793 .04899597 .35899354 .055999757 .36698915 .06399536 .37599183 .07299805M.35398866 .08299255C.31098939 .054992677 .28599549 .04499817 .25498963 .04499817 .19499207 .04499817 .15098572 .08999634 .15098572 .15098572 .15098572 .23399353 .21798706 .2829895 .33099366 .2829895H.35398866V.08299255Z"/>
<path id="font_0_19" d="M.32598878 .27598573 .42599488 .4019928C.43998719 .41999818 .45498658 .43998719 .47099305 .46199037 .4909973 .48999024 .5029907 .49798585 .5309906 .49899293L.54100039 .5V.5299988H.37098695V.5H.3829956L.40098573 .49899293C.41799928 .49899293 .4269867 .49398805 .4269867 .48599244 .4269867 .47999574 .4229889 .46998597 .4079895 .44400025 .39698792 .4249878 .3869934 .4099884 .37998963 .3999939L.30699159 .30099488 .23098755 .4019928C.22599793 .4079895 .21699524 .42199708 .20199585 .44299317 .19400025 .45498658 .18598938 .46598817 .17999268 .47499085 .17799378 .47999574 .17599488 .48298646 .17599488 .48599244 .17599488 .49398805 .18598938 .49798585 .20899964 .49899293L.22898865 .5H.23899842V.5299988H-.0010070801V.5L.0079956059 .49899293C.0289917 .49798585 .032989503 .49699403 .039993287 .4909973 .04899597 .48399354 .057998659 .47399903 .068984989 .46099855L.115997318 .4019928 .22898865 .25698854 .117996219 .125 .06498718 .06498718C.040985109 .037994386 .03199768 .03199768 .009994507 .0309906L.0019989014 .02999878V0H.17399597V.02999878H.16299439L.14399719 .0309906C.11898804 .03199768 .10798645 .034988405 .10798645 .042999269 .10798645 .049987794 .117996219 .06498718 .13699341 .09098816L.1639862 .125 .24598694 .23199463 .32899476 .12599182 .36698915 .068984989 .3789978 .050994874C.38198854 .04598999 .38398744 .042999269 .38398744 .039993287 .38398744 .033996583 .37298585 .0309906 .34799195 .0309906L.32598878 .02999878H.31698609V0H.55799868V.02999878L.5509949 .0309906C.54100039 .0309906 .5279999 .034988405 .5219879 .038986207 .5059967 .04798889 .47299195 .084991458 .44099427 .12599182L.32598878 .27598573Z"/>
<path id="font_0_20" d="M.39698792 .33999635C.49299623 .37298585 .54599 .44599916 .54599 .54299929 .54599 .6329956 .49299623 .69999697 .40899659 .71798709 .37998963 .723999 .35699464 .7259979 .32099916 .7259979 .30899049 .7259979 .29599 .7259979 .2829895 .72499087L.24299622 .723999 .19499207 .72299197H.020996094V.69299319L.02999878 .69200137 .06298828 .6899872C.101989749 .68699648 .10598755 .68299868 .10798645 .644989L.11099243 .59599307V.1269989L.10798645 .07798767C.10598755 .039993287 .101989749 .035995485 .06298828 .032989503L.02999878 .0309906 .020996094 .02999878V0H.29100038V.02999878L.28199769 .0309906C.24299622 .032989503 .22898865 .035995485 .22299195 .041992189 .21899414 .04699707 .21699524 .05899048 .21598816 .07798767L.21299744 .1269989V.31799317H.29699708L.49499513 0H.67900088V.02999878L.6689911 .0309906C.6609955 .0309906 .651001 .03199768 .6359863 .03199768 .60798647 .032989503 .60398867 .035995485 .58399966 .06399536L.5379944 .12799073 .39698792 .33999635M.21398926 .6899872H.2829895C.34999085 .6899872 .3829956 .6799927 .4059906 .6539917 .41799928 .6389923 .4269867 .621994 .43299867 .60198977 .43899537 .5799866 .44198609 .5569916 .44198609 .5329895 .44198609 .47898866 .42799378 .43598939 .40299989 .40499879 .36898805 .36499024 .32899476 .35099793 .25 .35099793H.21398926V.6899872Z"/>
<path id="font_0_21" d="M.3889923 .39698792 .5499878-.006011963H.57598879L.7200012 .4039917C.72698977 .42399598 .7319946 .43798829 .7350006 .44799806 .746994 .4850006 .7589874 .49798585 .7839966 .49899293L.79499819 .5V.5299988H.621994V.5H.6319885L.6589966 .49899293C.69699099 .49899293 .70799258 .49398805 .70799258 .47898866 .70799258 .46899415 .69799807 .43499757 .6879883 .4039917L.59199526 .1289978 .43499757 .5269928H.4059906L.2519989 .13899231 .16999817 .4039917C.16699219 .4099884 .1639862 .42199708 .1599884 .43798829 .15699768 .45098878 .15499878 .46299745 .1539917 .47200013 .15299988 .47399903 .15299988 .47599793 .15299988 .47799684 .15299988 .49299623 .16499329 .49899293 .19299317 .49899293L.22799683 .5H.23799134V.5299988H0V.5L.009994507 .49899293C.02999878 .49798585 .03199768 .49699403 .039993287 .4869995 .049987794 .47299195 .05999756 .44999696 .07398987 .4039917L.20498657-.006011963H.23498535L.3889923 .39698792Z"/>
<path id="font_0_22" d="M.397995 .3919983H.45799256V.5179901C.4149933 .5289917 .397995 .5319977 .36799623 .5369873 .34298707 .5399933 .31999208 .5419922 .2999878 .5419922 .14898682 .5419922 .04798889 .43199159 .04798889 .2669983 .04798889 .100997928 .1539917-.012008667 .30899049-.012008667 .34999085-.012008667 .3919983-.005004883 .42900086 .0069885256 .43499757 .008987427 .44499208 .0129852299 .45799256 .017990113V.05999756C.42399598 .04499817 .375 .035995485 .33099366 .035995485 .21798706 .035995485 .14898682 .1269989 .14898682 .2749939 .14898682 .41999818 .20799256 .5099945 .30299378 .5099945 .33999635 .5099945 .37599183 .49198915 .38598634 .46798707 .3889923 .46199037 .3909912 .45098878 .3939972 .43399049 .3959961 .42199708 .39698792 .41099549 .39698792 .40098573L.397995 .3919983Z"/>
<path id="font_0_23" d="M.21699524 .4909973H.45799256V.1269989L.45498658 .07798767C.45199586 .039993287 .44898988 .035995485 .4099884 .032989503L.3769989 .0309906 .36799623 .02999878V0H.644989V.02999878L.6299896 .0309906C.6289978 .0309906 .61898806 .03199768 .598999 .032989503 .5629883 .035995485 .5589905 .039993287 .5569916 .07798767L.55400088 .1269989V.4909973H.79499819V.1269989L.7919922 .07798767C.7899933 .039993287 .7859955 .035995485 .746994 .032989503L.71398928 .0309906 .7049866 .02999878V0H.9819946V.02999878L.97299197 .0309906 .9399872 .032989503C.901001 .035995485 .8969879 .039993287 .894989 .07798767L.8919983 .1269989V.5299988H.55400088V.6119995C.55400088 .6749878 .5549927 .68699648 .5609894 .70899966 .5649872 .7220001 .57199099 .73399356 .58099368 .7409973 .58898928 .746994 .60398867 .7519989 .61698916 .7519989 .6519928 .7519989 .66999819 .7319946 .67099 .6899872 .6719971 .67099 .6719971 .6549988 .6729889 .6419983L.673996 .6329956H.7279968V.746994C.68699648 .772995 .6539917 .7829895 .6139984 .7829895 .5629883 .7829895 .5179901 .7609863 .49198915 .72299197 .46398927 .6839905 .45799256 .6539917 .45799256 .56199648V.5299988H.21699524V.6139984 .6629944C.21699524 .6779938 .21998596 .69299319 .22399903 .70599368 .23199463 .73298647 .2559967 .7519989 .2829895 .7519989 .2999878 .7519989 .31799317 .746994 .33198548 .7389984 .34700013 .7299957 .35299684 .71699526 .35299684 .68699648 .35299684 .67099 .35398866 .6559906 .35499574 .6419983V.6329956H.41600038V.746994C.38398744 .7659912 .37098695 .7709961 .33898927 .7769928 .32099916 .7809906 .30299378 .7829895 .2849884 .7829895 .23098755 .7829895 .18299866 .7609863 .1559906 .72499087 .12799073 .6859894 .11999512 .647995 .11999512 .55599978V.5299988H.041992189V.4909973H.11999512V.1269989L.116989139 .07798767C.114990238 .039993287 .11099243 .035995485 .07199097 .032989503L.038986207 .0309906 .02999878 .02999878V0H.31900025V.02999878L.3039856 .0309906 .2689972 .032989503C.24798584 .034988405 .23399353 .037994386 .22999573 .041992189 .22599793 .04598999 .22200012 .05899048 .21998596 .07798767 .21798706 .09700012 .21699524 .11299133 .21699524 .1269989V.4909973M.8069916 .6259918H.8919983V.72299197H.8069916V.6259918Z"/>
<path id="font_0_24" d="M.3899994 .7319946H.35499574L.100997928 .1269989 .07899475 .07499695C.06399536 .040985109 .054992677 .03199768 .033996583 .03199768L.009994507 .0309906 0 .02999878V0H.18798828V.02999878H.17999268C.13198853 .02999878 .116989139 .034988405 .116989139 .049987794 .116989139 .053985597 .117996219 .05999756 .11999512 .06599426L.12998963 .099990848 .14099121 .1269989 .18299866 .22299195H.49198915L.5329895 .1269989C.5399933 .10899353 .5479889 .08299255 .5519867 .05899048 .5529938 .055999757 .5529938 .052993776 .5529938 .04899597 .5529938 .036987306 .54100039 .0309906 .5149994 .0309906L.4850006 .02999878H.47599793V0H.74398806V.02999878L.73298647 .0309906C.69799807 .032989503 .69299319 .033996583 .68499758 .04399109 .6799927 .049987794 .673996 .05899048 .66799929 .07299805L.6429901 .12298584 .3899994 .7319946M.33699037 .59098818 .47499085 .2619934H.19898987L.33699037 .59098818Z"/>
<path id="font_0_25" d="M.20498657 .7709961H.017990113V.7409973L.026992798 .73999026 .05999756 .73799136C.09899902 .7350006 .102996829 .73098757 .10499573 .69299319L.10798645 .644989V.1269989L.10499573 .07798767C.102996829 .039993287 .09899902 .035995485 .05999756 .032989503L.026992798 .0309906 .017990113 .02999878V0H.29499818V.02999878L.28599549 .0309906 .25299073 .032989503C.21398926 .035995485 .20999146 .039993287 .20799256 .07798767L.20498657 .1269989V.397995C.23599243 .42599488 .24398804 .43199159 .2679901 .44799806 .2999878 .46899415 .33399964 .47999574 .36499024 .47999574 .3929901 .47999574 .41999818 .46699525 .43199159 .44799806 .44198609 .43099977 .44599916 .40899659 .44599916 .35798646V.1269989L.44299317 .07798767C.43998719 .039993287 .43598939 .035995485 .397995 .032989503L.3639984 .0309906 .35499574 .02999878V0H.6329956V.02999878L.6230011 .0309906 .58999636 .032989503C.5509949 .035995485 .5479889 .039993287 .54499819 .07798767L.5419922 .1269989V.37298585C.5419922 .47898866 .4869995 .5419922 .3959961 .5419922 .32299806 .5419922 .25 .5 .20498657 .43099977V.7709961Z"/>
<path id="font_1_7" d="M.548996 .7350006H.5130005L.13598633 .12399292 .10398865 .07598877C.07899475 .037994386 .07199097 .032989503 .04598999 .03199768L.020996094 .0309906 .011993408 .02999878 .005996704 0H.20799256L.21398926 .02999878H.20199585L.1769867 .0309906C.1519928 .03199768 .14199829 .036987306 .14199829 .04899597 .14199829 .052993776 .14399719 .05999756 .14698792 .06599426L.16499329 .099990848 .1789856 .12599182 .23999024 .22299195H.54100039L.55999758 .12298584C.5609894 .115997318 .5629883 .102996829 .5649872 .08299255 .5669861 .07299805 .56799319 .06399536 .56799319 .055999757V.053985597C.56799319 .033996583 .55599978 .02999878 .49699403 .02999878H.48199464L.47599793 0H.746994L.7529907 .02999878 .7409973 .0309906C.70700076 .03199768 .70199587 .033996583 .69400027 .042999269 .6859894 .052993776 .6719971 .09498596 .6639862 .13398743L.548996 .7350006M.46899415 .6049957 .5319977 .2649994H.2599945L.46899415 .6049957Z"/>
<path id="font_1_8" d="M.10798645 .18998719H.7589874V.24398804H.10798645V.18998719M.10798645 .40699769H.7589874V.46099855H.10798645V.40699769Z"/>
<g id="font_2_1">
<clipPath id="clip_3">
<path transform="matrix(.050187503,0,0,.050187503,0,0)" d="M-1-1H15V188H-1Z"/>
</clipPath>
<g clip-path="url(#clip_3)">
<defs>
<path id="font_1_1" d="M.23298645 0H.32299806V1.6029968H.6539917V1.647995H.23298645V0Z"/>
</defs>
<defs>
<path id="font_1_2" d="M.23298645 0H.32299806V.56999209H.23298645V0Z"/>
</defs>
<defs>
<path id="font_1_3" d="M.23298645 0H.6539917V.04499817H.32299806V1.647995H.23298645V0Z"/>
</defs>
<use data-text="&#x23a1;" xlink:href="#font_1_1" transform="matrix(1,0,0,1,0,7.7312037)"/>
<use data-text="&#x23a2;" xlink:href="#font_1_2" transform="matrix(1,0,0,1,0,7.1767885)"/>
<use data-text="&#x23a2;" xlink:href="#font_1_2" transform="matrix(1,0,0,1,0,6.622374)"/>
<use data-text="&#x23a2;" xlink:href="#font_1_2" transform="matrix(1,0,0,1,0,6.06796)"/>
<use data-text="&#x23a2;" xlink:href="#font_1_2" transform="matrix(1,0,0,1,0,5.5135457)"/>
<use data-text="&#x23a2;" xlink:href="#font_1_2" transform="matrix(1,0,0,1,0,4.9591314)"/>
<use data-text="&#x23a2;" xlink:href="#font_1_2" transform="matrix(1,0,0,1,0,4.404717)"/>
<use data-text="&#x23a2;" xlink:href="#font_1_2" transform="matrix(1,0,0,1,0,3.8503023)"/>
<use data-text="&#x23a2;" xlink:href="#font_1_2" transform="matrix(1,0,0,1,0,3.295888)"/>
<use data-text="&#x23a2;" xlink:href="#font_1_2" transform="matrix(1,0,0,1,0,2.7414735)"/>
<use data-text="&#x23a2;" xlink:href="#font_1_2" transform="matrix(1,0,0,1,0,2.1870592)"/>
<use data-text="&#x23a2;" xlink:href="#font_1_2" transform="matrix(1,0,0,1,0,1.6326448)"/>
<use data-text="&#x23a3;" xlink:href="#font_1_3"/>
</g>
</g>
<path id="font_1_9" d="M.3039856-.018005372C.45799256-.018005372 .5569916 .12998963 .5569916 .35899354 .5569916 .59199526 .45899964 .7409973 .3039856 .7409973 .1499939 .7409973 .050994874 .59199526 .050994874 .35899354 .050994874 .12998963 .15098572-.018005372 .3039856-.018005372M.3039856 .011993408C.2539978 .011993408 .20698548 .051986696 .18399048 .114990238 .1599884 .1789856 .15299988 .23298645 .15299988 .36099244 .15299988 .48999024 .16099549 .5499878 .18399048 .60798647 .20899964 .6719971 .2539978 .71099856 .3019867 .71099856 .35398866 .71099856 .40098573 .67099 .4249878 .60798647 .44799806 .54499819 .45498658 .48999024 .45498658 .36099244 .45498658 .23298645 .44799806 .17399597 .4249878 .114990238 .39898683 .049987794 .35499574 .011993408 .3039856 .011993408Z"/>
<path id="font_1_10" d="M.2559967 .57499697V.1269989L.25299073 .07798767C.25099183 .039993287 .24699402 .035995485 .20799256 .032989503L.1749878 .0309906 .116989139 .02999878V0H.4909973V.02999878L.43399049 .0309906 .40098573 .032989503C.3619995 .035995485 .35798646 .039993287 .35499574 .07798767L.35198976 .1269989V.72898867L.116989139 .66999819V.6399994L.1659851 .6489868 .20899964 .6569977C.21699524 .6579895 .22599793 .6589966 .23399353 .6589966 .24899292 .6589966 .25099183 .6549988 .25299073 .6239929L.2559967 .57499697Z"/>
<path id="font_1_11" d="M.23699951 .3849945H.117996219V.2649994H.23699951V.3849945M.59498599 .3849945H.47499085V.2649994H.59498599V.3849945M.9529877 .3849945H.83299258V.2649994H.9529877V.3849945Z"/>
<path id="font_1_12" d="M.23699951 .3849945H.117996219V.2649994H.23699951V.3849945M.23799134 .05999756H.117996219V-.060012819H.23799134V.05999756M.23799134 .70999148H.117996219V.58999636H.23799134V.70999148Z"/>
<path id="font_1_13" d="M.23699951 .6499939H.117996219V.5299988H.23699951V.6499939M.59498599 .3849945H.47499085V.2649994H.59498599V.3849945M.9529877 .11999512H.83299258V0H.9529877V.11999512Z"/>
<path id="font_1_14" d="M.10798645 .2979889H.7589874V.35198976H.10798645V.2979889Z"/>
<path id="font_1_15" d="M.43899537 .2649994 .4149933 .14498902C.40699769 .10598755 .40299989 .07699585 .40299989 .06098938 .40299989 .01399231 .42799378-.012008667 .47299195-.012008667 .5309906-.012008667 .59199526 .023986817 .6649933 .102996829L.673996 .147995C.61499026 .08198547 .5589905 .040985109 .5309906 .040985109 .5099945 .040985109 .5 .050994874 .5 .07299805 .5 .07998657 .5009918 .08799744 .5019989 .09700012L.5109863 .14498902 .58799746 .5299988C.5329895 .5339966 .48399354 .5359955 .44999696 .5359955 .33898927 .5359955 .2630005 .5029907 .18499756 .42199708 .099990848 .33198548 .04798889 .21598816 .04798889 .115997318 .04798889 .037994386 .08898926-.012008667 .15098572-.012008667 .19400025-.012008667 .23498535 .0079956059 .2809906 .050994874 .33599855 .102996829 .37298585 .15299988 .42099 .24299622L.43199159 .2649994H.43899537M.47698976 .45999146 .45498658 .34999085C.43499757 .30999757 .42999269 .3019867 .3849945 .23999024 .35198976 .19400025 .32398988 .1559906 .29899598 .12599182 .2669983 .08699036 .22499085 .05999756 .19599915 .05999756 .16699219 .05999756 .15098572 .08699036 .15098572 .13699341 .15098572 .21199036 .19198609 .34498597 .23799134 .41999818 .2649994 .46299745 .30799867 .48799134 .35598756 .48799134 .3849945 .48799134 .42900086 .47999574 .45599366 .46998597 .46099855 .46798707 .46798707 .46499635 .47698976 .45999146Z"/>
<path id="font_1_16" d="M.25 .17399597C.29899598 .2630005 .35099793 .33799745 .4039917 .39898683 .44299317 .44499208 .48098756 .46998597 .5079956 .46998597 .5279999 .46998597 .5379944 .45599366 .5379944 .42900086 .5379944 .4189911 .5359955 .40098573 .5319977 .38398744L.4850006 .14498902C.47698976 .10598755 .47299195 .07798767 .47299195 .06098938 .47299195 .01399231 .49798585-.012008667 .54299929-.012008667 .60198977-.012008667 .6619873 .023986817 .7350006 .102996829L.74398806 .147995C.68499758 .08198547 .6289978 .040985109 .6009979 .040985109 .5799866 .040985109 .56999209 .050994874 .56999209 .07299805 .56999209 .07998657 .57099917 .08799744 .57199099 .09700012L.58099368 .14498902 .6279907 .3829956C.6339874 .4099884 .6369934 .43399049 .6369934 .45399476 .6369934 .5059967 .60398867 .5419922 .5569916 .5419922 .5109863 .5419922 .46499635 .5189972 .41999818 .47399903 .37298585 .42599488 .34098817 .3809967 .28399659 .2829895L.27398683 .2649994H.2679901L.2919922 .38598634C.29899598 .42399598 .30299378 .45298768 .30299378 .46899415 .30299378 .5159912 .27799989 .5419922 .23298645 .5419922 .1749878 .5419922 .11399841 .5059967 .040985109 .4269867L.03199768 .38198854C.09298706 .44898988 .14698792 .4889984 .17599488 .4889984 .19599915 .4889984 .20599365 .47898866 .20599365 .45700074 .20599365 .44999696 .20599365 .44198609 .20399475 .43299867L.19499207 .38598634 .11898804 0H.21398926L.25 .17399597Z"/>
<g id="font_2_2">
<clipPath id="clip_4">
<path transform="matrix(.050187503,0,0,.050187503,0,0)" d="M-1-1H15V188H-1Z"/>
</clipPath>
<g clip-path="url(#clip_4)">
<defs>
<path id="font_1_4" d="M.37799073 0H.46798707V1.647995H.04598999V1.6029968H.37799073V0Z"/>
</defs>
<defs>
<path id="font_1_5" d="M.37799073 0H.46798707V.56999209H.37799073V0Z"/>
</defs>
<defs>
<path id="font_1_6" d="M.37799073 .04499817H.04598999V0H.46798707V1.647995H.37799073V.04499817Z"/>
</defs>
<use data-text="&#x23a4;" xlink:href="#font_1_4" transform="matrix(1,0,0,1,0,7.7312037)"/>
<use data-text="&#x23a5;" xlink:href="#font_1_5" transform="matrix(1,0,0,1,0,7.1767885)"/>
<use data-text="&#x23a5;" xlink:href="#font_1_5" transform="matrix(1,0,0,1,0,6.622374)"/>
<use data-text="&#x23a5;" xlink:href="#font_1_5" transform="matrix(1,0,0,1,0,6.06796)"/>
<use data-text="&#x23a5;" xlink:href="#font_1_5" transform="matrix(1,0,0,1,0,5.5135457)"/>
<use data-text="&#x23a5;" xlink:href="#font_1_5" transform="matrix(1,0,0,1,0,4.9591314)"/>
<use data-text="&#x23a5;" xlink:href="#font_1_5" transform="matrix(1,0,0,1,0,4.404717)"/>
<use data-text="&#x23a5;" xlink:href="#font_1_5" transform="matrix(1,0,0,1,0,3.8503023)"/>
<use data-text="&#x23a5;" xlink:href="#font_1_5" transform="matrix(1,0,0,1,0,3.295888)"/>
<use data-text="&#x23a5;" xlink:href="#font_1_5" transform="matrix(1,0,0,1,0,2.7414735)"/>
<use data-text="&#x23a5;" xlink:href="#font_1_5" transform="matrix(1,0,0,1,0,2.1870592)"/>
<use data-text="&#x23a5;" xlink:href="#font_1_5" transform="matrix(1,0,0,1,0,1.6326448)"/>
<use data-text="&#x23a6;" xlink:href="#font_1_6"/>
</g>
</g>
<path id="font_1_17" d="M.33499146 .6899872H.35499574C.42399598 .6899872 .45599366 .68299868 .48298646 .6639862 .5079956 .6459961 .5189972 .6199951 .5189972 .58200076 .5189972 .5249939 .49198915 .46699525 .44898988 .43299867 .41299439 .40299989 .36999513 .3909912 .3019867 .3909912H.27598573L.33499146 .6899872M.40899659 .36999513C.47299195 .38598634 .49699403 .39698792 .5369873 .42999269 .58999636 .47299195 .62098696 .5309906 .62098696 .58699038 .62098696 .6319885 .5970001 .6719971 .55599978 .69499209 .5130005 .71798709 .48399354 .72299197 .37998963 .72299197H.1499939L.14399719 .69299319 .15299988 .69200137 .18499756 .6899872C.21899414 .68699648 .22299195 .68499758 .22299195 .6649933 .22299195 .6579895 .22200012 .651001 .22200012 .644989L.21499634 .59599307 .12199402 .12599182 .10899353 .07798767C.09899902 .039993287 .09399414 .035995485 .054992677 .032989503L.020996094 .0309906 .011993408 .02999878 .005996704 0H.32099916C.4149933 0 .47499085 .019989014 .522995 .068984989 .5609894 .10699463 .58200076 .15499878 .58200076 .20599365 .58200076 .29100038 .522995 .34700013 .40899659 .36999513M.269989 .35798646H.29599C.4079895 .35798646 .47698976 .3039856 .47698976 .21598816 .47698976 .115997318 .3919983 .035995485 .2869873 .035995485 .24299622 .035995485 .21099854 .04598999 .21099854 .05899048 .21099854 .066986087 .21199036 .07699585 .21398926 .08699036L.22099304 .1289978 .269989 .35798646Z"/>
<path id="font_1_18" d="M.7369995 .71699526C.6609955 .73399356 .59999087 .7409973 .5339966 .7409973 .3999939 .7409973 .30599977 .70199587 .21598816 .60899356 .12399292 .5149994 .07199097 .3880005 .07199097 .25698854 .07199097 .085998538 .17098999-.018005372 .33198548-.018005372 .4149933-.018005372 .5099945 .0029907227 .60899356 .04399109L.6179962 .085998538C.5119934 .049987794 .45399476 .036987306 .3929901 .036987306 .2599945 .036987306 .17999268 .11999512 .17999268 .2579956 .17999268 .42099 .2649994 .59399417 .38198854 .6689911 .4169922 .69200137 .47599793 .70799258 .526001 .70799258 .6009979 .70799258 .6579895 .6779938 .6579895 .6389923 .6579895 .6309967 .6569977 .62098696 .6549988 .61099246 .6519928 .59999087 .651001 .58999636 .6499939 .58200076L.647995 .57199099H.70899966L.7369995 .71699526Z"/>
<path id="font_1_19" d="M.19299317-.7740021H.5419922V-.7310028H.2769928V1.3819885H.5419922V1.423996H.19299317V-.7740021Z"/>
<path id="font_1_20" d="M.31599427 .7709961H.1289978L.12298584 .7409973 .13198853 .73999026 .16499329 .73799136C.19799805 .73599246 .20199585 .73298647 .20199585 .71299746 .20199585 .70599368 .20199585 .69898989 .20098877 .69299319L.19499207 .644989 .06599426 0 .14698792-.0040130617C.16999817-.005004883 .18998719-.006011963 .20799256-.006011963 .32099916-.006011963 .3909912 .023986817 .46998597 .10798645 .55400088 .19699097 .60598757 .31399537 .60598757 .4139862 .60598757 .49198915 .5649872 .5419922 .5019989 .5419922 .43598939 .5419922 .35798646 .48298646 .2869873 .37799073 .2659912 .34700013 .2519989 .32299806 .22200012 .2649994H.21499634L.31599427 .7709961M.19898987 .17999268C.21899414 .21998596 .22399903 .22799683 .2689972 .2899933 .30099488 .33699037 .32998658 .37399293 .35398866 .4039917 .3869934 .44299317 .42900086 .46998597 .45799256 .46998597 .4869995 .46998597 .5029907 .44299317 .5029907 .3929901 .5029907 .31799317 .46199037 .18598938 .41600038 .10998535 .3889923 .066986087 .34599305 .041992189 .2979889 .041992189 .2689972 .041992189 .22499085 .049987794 .19799805 .06098938 .19299317 .06199646 .18598938 .06498718 .1769867 .069992069L.19898987 .17999268Z"/>
<path id="font_1_21" d="M.33099366-.7310028H.06599426V-.7740021H.41600038V1.423996H.06599426V1.3819885H.33099366V-.7310028Z"/>
<path id="font_0_26" d="M.21699524 .4909973H.45799256V.1269989L.45498658 .07798767C.45199586 .039993287 .44898988 .035995485 .4099884 .032989503L.3769989 .0309906 .36799623 .02999878V0H.6569977V.02999878L.6419983 .0309906 .60598757 .032989503C.58599856 .034988405 .57199099 .037994386 .5669861 .041992189 .5629883 .04598999 .55999758 .05899048 .55799868 .07798767 .5549927 .09700012 .55400088 .11299133 .55400088 .1269989V.4909973H.68699648V.5299988H.55400088V.6139984C.55400088 .6369934 .55400088 .6529999 .5549927 .6629944 .5549927 .6779938 .5569916 .69299319 .5609894 .70599368 .56999209 .73298647 .59298709 .7519989 .6199951 .7519989 .6369934 .7519989 .6549988 .746994 .6689911 .7389984 .68499758 .7299957 .6899872 .71699526 .69099429 .68699648 .69099429 .67099 .69099429 .6559906 .69200137 .6419983L.69299319 .6329956H.7529907V.746994C.7220001 .7659912 .70799258 .7709961 .6769867 .7769928 .6579895 .7809906 .6399994 .7829895 .621994 .7829895 .56799319 .7829895 .519989 .7609863 .49398805 .72499087 .46598817 .6859894 .45799256 .647995 .45799256 .55599978V.5299988H.21699524V.6139984 .6629944C.21699524 .6779938 .21998596 .69299319 .22399903 .70599368 .23199463 .73298647 .2559967 .7519989 .2829895 .7519989 .2999878 .7519989 .31799317 .746994 .33198548 .7389984 .34700013 .7299957 .35299684 .71699526 .35299684 .68699648 .35299684 .67099 .35398866 .6559906 .35499574 .6419983V.6329956H.41600038V.746994C.38398744 .7659912 .37098695 .7709961 .33898927 .7769928 .32099916 .7809906 .30299378 .7829895 .2849884 .7829895 .23098755 .7829895 .18299866 .7609863 .1559906 .72499087 .12799073 .6859894 .11999512 .647995 .11999512 .55599978V.5299988H.041992189V.4909973H.11999512V.1269989L.116989139 .07798767C.114990238 .039993287 .11099243 .035995485 .07199097 .032989503L.038986207 .0309906 .02999878 .02999878V0H.31900025V.02999878L.3039856 .0309906 .2689972 .032989503C.24798584 .034988405 .23399353 .037994386 .22999573 .041992189 .22599793 .04598999 .22200012 .05899048 .21998596 .07798767 .21798706 .09700012 .21699524 .11299133 .21699524 .1269989V.4909973Z"/>
<path id="font_0_27" d="M.1749878 .43099977V.7709961H-.012008667V.7409973L-.0030059815 .73999026 .02999878 .73799136C.068984989 .7350006 .07299805 .73098757 .07499695 .69299319L.07798767 .644989V-.006011963H.15699768L.16899109 .05999756H.1749878C.21899414 .011993408 .27198792-.012008667 .33399964-.012008667 .46899415-.012008667 .5569916 .10398865 .5569916 .2809906 .5569916 .43998719 .48098756 .5419922 .36099244 .5419922 .28799439 .5419922 .21998596 .5019989 .1749878 .43099977M.1749878 .09799194V.39698792C.21398926 .44799806 .27198792 .47999574 .32499696 .47999574 .3919983 .47999574 .42999269 .44198609 .44499208 .35798646 .45199586 .32099916 .45498658 .2869873 .45498658 .25498963 .45498658 .116989139 .4079895 .041992189 .32199098 .041992189 .27198792 .041992189 .22898865 .057998659 .1749878 .09799194Z"/>
</defs>
<use data-text="C" xlink:href="#font_0_1" transform="matrix(15.94022,0,0,-15.94022,27.71256,21.294373)" fill="#0000cc"/>
<use data-text="o" xlink:href="#font_0_2" transform="matrix(15.94022,0,0,-15.94022,38.791017,21.294373)" fill="#0000cc"/>
<use data-text="l" xlink:href="#font_0_3" transform="matrix(15.94022,0,0,-15.94022,48.387029,21.294373)" fill="#0000cc"/>
<use data-text="u" xlink:href="#font_0_4" transform="matrix(15.94022,0,0,-15.94022,53.376317,21.294373)" fill="#0000cc"/>
<use data-text="m" xlink:href="#font_0_5" transform="matrix(15.94022,0,0,-15.94022,63.466478,21.294373)" fill="#0000cc"/>
<use data-text="n" xlink:href="#font_0_6" transform="matrix(15.94022,0,0,-15.94022,78.54593,21.294373)" fill="#0000cc"/>
<use data-text=" " xlink:href="#font_0_7" transform="matrix(15.94022,0,0,-15.94022,88.636089,21.294373)" fill="#0000cc"/>
<use data-text="o" xlink:href="#font_0_2" transform="matrix(15.94022,0,0,-15.94022,94.692729,21.294373)" fill="#0000cc"/>
<use data-text="f" xlink:href="#font_0_8" transform="matrix(15.94022,0,0,-15.94022,104.28874,21.294373)" fill="#0000cc"/>
<use data-text=" " xlink:href="#font_0_7" transform="matrix(15.94022,0,0,-15.94022,110.72859,21.294373)" fill="#0000cc"/>
<use data-text="z" xlink:href="#font_0_9" transform="matrix(15.94022,0,0,-15.94022,116.78523,21.294373)" fill="#0000cc"/>
<use data-text="e" xlink:href="#font_0_10" transform="matrix(15.94022,0,0,-15.94022,126.26966,21.294373)" fill="#0000cc"/>
<use data-text="r" xlink:href="#font_0_11" transform="matrix(15.94022,0,0,-15.94022,134.71797,21.294373)" fill="#0000cc"/>
<use data-text="o" xlink:href="#font_0_2" transform="matrix(15.94022,0,0,-15.94022,141.73168,21.294373)" fill="#0000cc"/>
<use data-text="s" xlink:href="#font_0_12" transform="matrix(15.94022,0,0,-15.94022,151.32769,21.294373)" fill="#0000cc"/>
<use data-text="I" xlink:href="#font_0_13" transform="matrix(15.94022,0,0,-15.94022,249.09671,21.294373)" fill="#0000cc"/>
<use data-text="d" xlink:href="#font_0_14" transform="matrix(15.94022,0,0,-15.94022,254.27729,21.294373)" fill="#0000cc"/>
<use data-text="e" xlink:href="#font_0_10" transform="matrix(15.94022,0,0,-15.94022,264.5109,21.294373)" fill="#0000cc"/>
<use data-text="n" xlink:href="#font_0_6" transform="matrix(15.94022,0,0,-15.94022,272.9592,21.294373)" fill="#0000cc"/>
<use data-text="t" xlink:href="#font_0_15" transform="matrix(15.94022,0,0,-15.94022,283.04936,21.294373)" fill="#0000cc"/>
<use data-text="i" xlink:href="#font_0_16" transform="matrix(15.94022,0,0,-15.94022,289.2979,21.294373)" fill="#0000cc"/>
<use data-text="t" xlink:href="#font_0_15" transform="matrix(15.94022,0,0,-15.94022,294.19157,21.294373)" fill="#0000cc"/>
<use data-text="y" xlink:href="#font_0_17" transform="matrix(15.94022,0,0,-15.94022,300.44013,21.294373)" fill="#0000cc"/>
<use data-text=" " xlink:href="#font_0_7" transform="matrix(15.94022,0,0,-15.94022,309.22319,21.294373)" fill="#0000cc"/>
<use data-text="m" xlink:href="#font_0_5" transform="matrix(15.94022,0,0,-15.94022,315.27983,21.294373)" fill="#0000cc"/>
<use data-text="a" xlink:href="#font_0_18" transform="matrix(15.94022,0,0,-15.94022,330.35926,21.294373)" fill="#0000cc"/>
<use data-text="t" xlink:href="#font_0_15" transform="matrix(15.94022,0,0,-15.94022,339.0148,21.294373)" fill="#0000cc"/>
<use data-text="r" xlink:href="#font_0_11" transform="matrix(15.94022,0,0,-15.94022,345.26338,21.294373)" fill="#0000cc"/>
<use data-text="i" xlink:href="#font_0_16" transform="matrix(15.94022,0,0,-15.94022,352.27708,21.294373)" fill="#0000cc"/>
<use data-text="x" xlink:href="#font_0_19" transform="matrix(15.94022,0,0,-15.94022,357.17073,21.294373)" fill="#0000cc"/>
<use data-text="R" xlink:href="#font_0_20" transform="matrix(15.94022,0,0,-15.94022,415.9201,21.294373)" fill="#0000cc"/>
<use data-text="o" xlink:href="#font_0_2" transform="matrix(15.94022,0,0,-15.94022,426.74354,21.294373)" fill="#0000cc"/>
<use data-text="w" xlink:href="#font_0_21" transform="matrix(15.94022,0,0,-15.94022,436.33955,21.294373)" fill="#0000cc"/>
<use data-text=" " xlink:href="#font_0_7" transform="matrix(15.94022,0,0,-15.94022,449.01203,21.294373)" fill="#0000cc"/>
<use data-text="o" xlink:href="#font_0_2" transform="matrix(15.94022,0,0,-15.94022,455.06867,21.294373)" fill="#0000cc"/>
<use data-text="f" xlink:href="#font_0_8" transform="matrix(15.94022,0,0,-15.94022,464.66468,21.294373)" fill="#0000cc"/>
<use data-text=" " xlink:href="#font_0_7" transform="matrix(15.94022,0,0,-15.94022,471.10453,21.294373)" fill="#0000cc"/>
<use data-text="c" xlink:href="#font_0_22" transform="matrix(15.94022,0,0,-15.94022,477.16117,21.294373)" fill="#0000cc"/>
<use data-text="o" xlink:href="#font_0_2" transform="matrix(15.94022,0,0,-15.94022,485.27476,21.294373)" fill="#0000cc"/>
<use data-text="e" xlink:href="#font_0_10" transform="matrix(15.94022,0,0,-15.94022,494.87077,21.294373)" fill="#0000cc"/>
<use data-text="f" xlink:href="#font_0_23" transform="matrix(15.94022,0,0,-15.94022,503.31907,21.294373)" fill="#0000cc"/>
<use data-text="c" xlink:href="#font_0_22" transform="matrix(15.94022,0,0,-15.94022,519.16366,21.294373)" fill="#0000cc"/>
<use data-text="i" xlink:href="#font_0_16" transform="matrix(15.94022,0,0,-15.94022,527.2772,21.294373)" fill="#0000cc"/>
<use data-text="e" xlink:href="#font_0_10" transform="matrix(15.94022,0,0,-15.94022,532.1709,21.294373)" fill="#0000cc"/>
<use data-text="n" xlink:href="#font_0_6" transform="matrix(15.94022,0,0,-15.94022,540.6192,21.294373)" fill="#0000cc"/>
<use data-text="t" xlink:href="#font_0_15" transform="matrix(15.94022,0,0,-15.94022,550.70938,21.294373)" fill="#0000cc"/>
<use data-text="s" xlink:href="#font_0_12" transform="matrix(15.94022,0,0,-15.94022,556.95797,21.294373)" fill="#0000cc"/>
<use data-text="A" xlink:href="#font_0_24" transform="matrix(15.94022,0,0,-15.94022,584.9806,21.294373)" fill="#0000cc"/>
<use data-text="l" xlink:href="#font_0_3" transform="matrix(15.94022,0,0,-15.94022,596.8401,21.294373)" fill="#0000cc"/>
<use data-text="w" xlink:href="#font_0_21" transform="matrix(15.94022,0,0,-15.94022,601.8294,21.294373)" fill="#0000cc"/>
<use data-text="a" xlink:href="#font_0_18" transform="matrix(15.94022,0,0,-15.94022,614.5019,21.294373)" fill="#0000cc"/>
<use data-text="y" xlink:href="#font_0_17" transform="matrix(15.94022,0,0,-15.94022,623.1574,21.294373)" fill="#0000cc"/>
<use data-text="s" xlink:href="#font_0_12" transform="matrix(15.94022,0,0,-15.94022,631.9405,21.294373)" fill="#0000cc"/>
<use data-text=" " xlink:href="#font_0_7" transform="matrix(15.94022,0,0,-15.94022,639.97439,21.294373)" fill="#0000cc"/>
<use data-text="t" xlink:href="#font_0_15" transform="matrix(15.94022,0,0,-15.94022,646.031,21.294373)" fill="#0000cc"/>
<use data-text="h" xlink:href="#font_0_25" transform="matrix(15.94022,0,0,-15.94022,652.2796,21.294373)" fill="#0000cc"/>
<use data-text="i" xlink:href="#font_0_16" transform="matrix(15.94022,0,0,-15.94022,662.36978,21.294373)" fill="#0000cc"/>
<use data-text="s" xlink:href="#font_0_12" transform="matrix(15.94022,0,0,-15.94022,667.2634,21.294373)" fill="#0000cc"/>
<use data-text=" " xlink:href="#font_0_7" transform="matrix(15.94022,0,0,-15.94022,675.2973,21.294373)" fill="#0000cc"/>
<use data-text="f" xlink:href="#font_0_8" transform="matrix(15.94022,0,0,-15.94022,681.35397,21.294373)" fill="#0000cc"/>
<use data-text="o" xlink:href="#font_0_2" transform="matrix(15.94022,0,0,-15.94022,687.79379,21.294373)" fill="#0000cc"/>
<use data-text="r" xlink:href="#font_0_11" transform="matrix(15.94022,0,0,-15.94022,697.3898,21.294373)" fill="#0000cc"/>
<use data-text="m" xlink:href="#font_0_5" transform="matrix(15.94022,0,0,-15.94022,704.40347,21.294373)" fill="#0000cc"/>
<use data-text="&#x1d434;" xlink:href="#font_1_7" transform="matrix(19.92528,0,0,-19.92528,44.02178,142.79796)"/>
<use data-text="=" xlink:href="#font_1_8" transform="matrix(19.92528,0,0,-19.92528,65.29759,142.79796)"/>
<use data-text="[" xlink:href="#font_2_1" transform="matrix(19.92528,0,0,-19.92528,88.114658,229.76599)"/>
<use data-text="0" xlink:href="#font_1_9" transform="matrix(19.92528,0,0,-19.92528,139.20665,60.343629)"/>
<use data-text="1" xlink:href="#font_1_10" transform="matrix(19.92528,0,0,-19.92528,218.92479,60.343629)"/>
<use data-text="0" xlink:href="#font_1_9" transform="matrix(19.92528,0,0,-19.92528,288.67564,60.343629)"/>
<use data-text="&#x22ef;" xlink:href="#font_1_11" transform="matrix(19.92528,0,0,-19.92528,353.81275,60.343629)"/>
<use data-text="0" xlink:href="#font_1_9" transform="matrix(19.92528,0,0,-19.92528,428.18495,60.343629)"/>
<use data-text="&#x22ee;" xlink:href="#font_1_12" transform="matrix(19.92528,0,0,-19.92528,141.71776,99.51529)"/>
<use data-text="0" xlink:href="#font_1_9" transform="matrix(19.92528,0,0,-19.92528,218.92324,99.51529)"/>
<use data-text="&#x22f1;" xlink:href="#font_1_13" transform="matrix(19.92528,0,0,-19.92528,284.06037,99.51529)"/>
<use data-text="&#x22f1;" xlink:href="#font_1_13" transform="matrix(19.92528,0,0,-19.92528,353.8092,99.51529)"/>
<use data-text="&#x22ee;" xlink:href="#font_1_12" transform="matrix(19.92528,0,0,-19.92528,430.6827,99.51529)"/>
<use data-text="&#x22ee;" xlink:href="#font_1_12" transform="matrix(19.92528,0,0,-19.92528,141.71776,138.68695)"/>
<use data-text="&#x22ee;" xlink:href="#font_1_12" transform="matrix(19.92528,0,0,-19.92528,221.43442,138.68695)"/>
<use data-text="&#x22f1;" xlink:href="#font_1_13" transform="matrix(19.92528,0,0,-19.92528,284.06159,138.68695)"/>
<use data-text="&#x22f1;" xlink:href="#font_1_13" transform="matrix(19.92528,0,0,-19.92528,353.81044,138.68695)"/>
<use data-text="0" xlink:href="#font_1_9" transform="matrix(19.92528,0,0,-19.92528,428.17298,138.68695)"/>
<use data-text="0" xlink:href="#font_1_9" transform="matrix(19.92528,0,0,-19.92528,139.20665,177.85861)"/>
<path transform="matrix(1,0,0,-1,0,347.94279)" stroke-width=".996264" stroke-linecap="butt" stroke-miterlimit="10" stroke-linejoin="miter" fill="none" stroke="#0000cc" d="M185.1243 300.453V153.36257"/>
<use data-text="0" xlink:href="#font_1_9" transform="matrix(19.92528,0,0,-19.92528,218.92479,177.85861)"/>
<use data-text="&#x22ef;" xlink:href="#font_1_11" transform="matrix(19.92528,0,0,-19.92528,284.06196,177.85861)"/>
<use data-text="0" xlink:href="#font_1_9" transform="matrix(19.92528,0,0,-19.92528,358.4245,177.85861)"/>
<use data-text="1" xlink:href="#font_1_10" transform="matrix(19.92528,0,0,-19.92528,428.17533,177.85861)"/>
<path transform="matrix(1,0,0,-1,0,347.94279)" stroke-width=".996264" stroke-linecap="butt" stroke-miterlimit="10" stroke-linejoin="miter" fill="none" stroke="#0000cc" d="M474.10258 153.36257H105.40615"/>
<use data-text="&#x2212;" xlink:href="#font_1_14" transform="matrix(19.92528,0,0,-19.92528,125.227619,217.03028)"/>
<use data-text="&#x1d44e;" xlink:href="#font_1_15" transform="matrix(19.92528,0,0,-19.92528,142.50284,217.03028)"/>
<use data-text="0" xlink:href="#font_1_9" transform="matrix(14.29633,0,0,-13.59894,156.57678,220.01972)"/>
<use data-text="0" xlink:href="#font_1_9" stroke-width=".0041166797" stroke-linecap="butt" stroke-miterlimit="10" stroke-linejoin="miter" transform="matrix(14.29633,0,0,-13.59894,156.57678,220.01972)" fill="none" stroke="#000000"/>
<use data-text="&#x2212;" xlink:href="#font_1_14" transform="matrix(19.92528,0,0,-19.92528,204.94577,217.03028)"/>
<use data-text="&#x1d44e;" xlink:href="#font_1_15" transform="matrix(19.92528,0,0,-19.92528,222.221,217.03028)"/>
<use data-text="1" xlink:href="#font_1_10" transform="matrix(14.29633,0,0,-13.59894,236.29492,220.01972)"/>
<use data-text="1" xlink:href="#font_1_10" stroke-width=".0041166797" stroke-linecap="butt" stroke-miterlimit="10" stroke-linejoin="miter" transform="matrix(14.29633,0,0,-13.59894,236.29492,220.01972)" fill="none" stroke="#000000"/>
<use data-text="&#x22ef;" xlink:href="#font_1_11" transform="matrix(19.92528,0,0,-19.92528,284.06449,217.03028)"/>
<use data-text="&#x22ef;" xlink:href="#font_1_11" transform="matrix(19.92528,0,0,-19.92528,353.81333,217.03028)"/>
<use data-text="&#x2212;" xlink:href="#font_1_14" transform="matrix(19.92528,0,0,-19.92528,407.37925,217.03028)"/>
<use data-text="&#x1d44e;" xlink:href="#font_1_15" transform="matrix(19.92528,0,0,-19.92528,424.65446,217.03028)"/>
<use data-text="&#x1d45b;" xlink:href="#font_1_16" transform="matrix(14.29633,0,0,-13.59894,438.73753,220.01972)"/>
<use data-text="&#x2212;" xlink:href="#font_1_14" transform="matrix(14.29633,0,0,-13.59894,450.77845,220.01972)"/>
<use data-text="1" xlink:href="#font_1_10" transform="matrix(14.29633,0,0,-13.59894,463.9774,220.01972)"/>
<use data-text="&#x1d45b;" xlink:href="#font_1_16" stroke-width=".0041166797" stroke-linecap="butt" stroke-miterlimit="10" stroke-linejoin="miter" transform="matrix(14.29633,0,0,-13.59894,438.73753,220.01972)" fill="none" stroke="#000000"/>
<use data-text="&#x2212;" xlink:href="#font_1_14" stroke-width=".0041166797" stroke-linecap="butt" stroke-miterlimit="10" stroke-linejoin="miter" transform="matrix(14.29633,0,0,-13.59894,450.77845,220.01972)" fill="none" stroke="#000000"/>
<use data-text="1" xlink:href="#font_1_10" stroke-width=".0041166797" stroke-linecap="butt" stroke-miterlimit="10" stroke-linejoin="miter" transform="matrix(14.29633,0,0,-13.59894,463.9774,220.01972)" fill="none" stroke="#000000"/>
<use data-text="]" xlink:href="#font_2_2" transform="matrix(19.92528,0,0,-19.92528,477.42347,229.76599)"/>
<use data-text="&#x1d435;" xlink:href="#font_1_17" transform="matrix(19.92528,0,0,-19.92528,584.9806,142.79796)"/>
<use data-text="=" xlink:href="#font_1_8" transform="matrix(19.92528,0,0,-19.92528,604.14437,142.79796)"/>
<use data-text="[" xlink:href="#font_2_1" transform="matrix(19.92528,0,0,-19.92528,626.96096,229.76599)"/>
<use data-text="0" xlink:href="#font_1_9" transform="matrix(19.92528,0,0,-19.92528,668.08816,60.343629)"/>
<use data-text="&#x22ee;" xlink:href="#font_1_12" transform="matrix(19.92528,0,0,-19.92528,670.5993,99.51529)"/>
<use data-text="&#x22ee;" xlink:href="#font_1_12" transform="matrix(19.92528,0,0,-19.92528,670.5993,138.68695)"/>
<use data-text="0" xlink:href="#font_1_9" transform="matrix(19.92528,0,0,-19.92528,668.08816,177.85861)"/>
<use data-text="1" xlink:href="#font_1_10" transform="matrix(19.92528,0,0,-19.92528,668.08816,217.03028)"/>
<use data-text="]" xlink:href="#font_2_2" transform="matrix(19.92528,0,0,-19.92528,707.36196,229.76599)"/>
<use data-text="&#x1d436;" xlink:href="#font_1_18" transform="matrix(19.92528,0,0,-19.92528,44.300794,310.33573)"/>
<use data-text="=" xlink:href="#font_1_8" transform="matrix(19.92528,0,0,-19.92528,65.29765,310.33573)"/>
<use data-text="[" xlink:href="#font_1_19" transform="matrix(19.92528,0,0,-19.92528,88.10771,310.33573)"/>
<use data-text="&#x1d44f;" xlink:href="#font_1_20" transform="matrix(19.92528,0,0,-19.92528,122.65671,306.2247)"/>
<use data-text="0" xlink:href="#font_1_9" transform="matrix(14.29633,0,0,-13.59894,135.55112,309.21415)"/>
<use data-text="0" xlink:href="#font_1_9" stroke-width=".0041166797" stroke-linecap="butt" stroke-miterlimit="10" stroke-linejoin="miter" transform="matrix(14.29633,0,0,-13.59894,135.55112,309.21415)" fill="none" stroke="#000000"/>
<path transform="matrix(1,0,0,-1,0,347.94279)" stroke-width=".996264" stroke-linecap="butt" stroke-miterlimit="10" stroke-linejoin="miter" fill="none" stroke="#ffffff" d="M173.326 54.571924V24.996459"/>
<use data-text="&#x1d44f;" xlink:href="#font_1_20" transform="matrix(19.92528,0,0,-19.92528,202.37485,306.2247)"/>
<use data-text="1" xlink:href="#font_1_10" transform="matrix(14.29633,0,0,-13.59894,215.26926,309.21415)"/>
<use data-text="1" xlink:href="#font_1_10" stroke-width=".0041166797" stroke-linecap="butt" stroke-miterlimit="10" stroke-linejoin="miter" transform="matrix(14.29633,0,0,-13.59894,215.26926,309.21415)" fill="none" stroke="#000000"/>
<use data-text="&#x22ef;" xlink:href="#font_1_11" transform="matrix(19.92528,0,0,-19.92528,272.2662,306.2247)"/>
<use data-text="&#x22ef;" xlink:href="#font_1_11" transform="matrix(19.92528,0,0,-19.92528,342.01506,306.2247)"/>
<use data-text="&#x1d44f;" xlink:href="#font_1_20" transform="matrix(19.92528,0,0,-19.92528,398.99955,306.2247)"/>
<use data-text="&#x1d45b;" xlink:href="#font_1_16" transform="matrix(14.29633,0,0,-13.59894,411.903,309.21415)"/>
<use data-text="&#x2212;" xlink:href="#font_1_14" transform="matrix(14.29633,0,0,-13.59894,423.94395,309.21415)"/>
<use data-text="1" xlink:href="#font_1_10" transform="matrix(14.29633,0,0,-13.59894,437.14289,309.21415)"/>
<use data-text="&#x1d45b;" xlink:href="#font_1_16" stroke-width=".0041166797" stroke-linecap="butt" stroke-miterlimit="10" stroke-linejoin="miter" transform="matrix(14.29633,0,0,-13.59894,411.903,309.21415)" fill="none" stroke="#000000"/>
<use data-text="&#x2212;" xlink:href="#font_1_14" stroke-width=".0041166797" stroke-linecap="butt" stroke-miterlimit="10" stroke-linejoin="miter" transform="matrix(14.29633,0,0,-13.59894,423.94395,309.21415)" fill="none" stroke="#000000"/>
<use data-text="1" xlink:href="#font_1_10" stroke-width=".0041166797" stroke-linecap="butt" stroke-miterlimit="10" stroke-linejoin="miter" transform="matrix(14.29633,0,0,-13.59894,437.14289,309.21415)" fill="none" stroke="#000000"/>
<use data-text="]" xlink:href="#font_1_21" transform="matrix(19.92528,0,0,-19.92528,465.62519,310.33573)"/>
<use data-text="C" xlink:href="#font_0_1" transform="matrix(15.94022,0,0,-15.94022,519.83529,310.33573)" fill="#0000cc"/>
<use data-text="o" xlink:href="#font_0_2" transform="matrix(15.94022,0,0,-15.94022,530.9137,310.33573)" fill="#0000cc"/>
<use data-text="e" xlink:href="#font_0_10" transform="matrix(15.94022,0,0,-15.94022,540.5097,310.33573)" fill="#0000cc"/>
<use data-text="f" xlink:href="#font_0_26" transform="matrix(15.94022,0,0,-15.94022,548.958,310.33573)" fill="#0000cc"/>
<use data-text=" " xlink:href="#font_0_7" transform="matrix(15.94022,0,0,-15.94022,560.7697,310.33573)" fill="#0000cc"/>
<use data-text="m" xlink:href="#font_0_5" transform="matrix(15.94022,0,0,-15.94022,566.82638,310.33573)" fill="#0000cc"/>
<use data-text="a" xlink:href="#font_0_18" transform="matrix(15.94022,0,0,-15.94022,581.9058,310.33573)" fill="#0000cc"/>
<use data-text="y" xlink:href="#font_0_17" transform="matrix(15.94022,0,0,-15.94022,590.56137,310.33573)" fill="#0000cc"/>
<use data-text=" " xlink:href="#font_0_7" transform="matrix(15.94022,0,0,-15.94022,599.3444,310.33573)" fill="#0000cc"/>
<use data-text="b" xlink:href="#font_0_27" transform="matrix(15.94022,0,0,-15.94022,605.40109,310.33573)" fill="#0000cc"/>
<use data-text="e" xlink:href="#font_0_10" transform="matrix(15.94022,0,0,-15.94022,615.14059,310.33573)" fill="#0000cc"/>
<use data-text=" " xlink:href="#font_0_7" transform="matrix(15.94022,0,0,-15.94022,623.58889,310.33573)" fill="#0000cc"/>
<use data-text="z" xlink:href="#font_0_9" transform="matrix(15.94022,0,0,-15.94022,629.6455,310.33573)" fill="#0000cc"/>
<use data-text="e" xlink:href="#font_0_10" transform="matrix(15.94022,0,0,-15.94022,639.12997,310.33573)" fill="#0000cc"/>
<use data-text="r" xlink:href="#font_0_11" transform="matrix(15.94022,0,0,-15.94022,647.57827,310.33573)" fill="#0000cc"/>
<use data-text="o" xlink:href="#font_0_2" transform="matrix(15.94022,0,0,-15.94022,654.5919,310.33573)" fill="#0000cc"/>
<use data-text=" " xlink:href="#font_0_7" transform="matrix(15.94022,0,0,-15.94022,664.1879,310.33573)" fill="#0000cc"/>
<use data-text="a" xlink:href="#font_0_18" transform="matrix(15.94022,0,0,-15.94022,670.24459,310.33573)" fill="#0000cc"/>
<use data-text="f" xlink:href="#font_0_8" transform="matrix(15.94022,0,0,-15.94022,678.9001,310.33573)" fill="#0000cc"/>
<use data-text="t" xlink:href="#font_0_15" transform="matrix(15.94022,0,0,-15.94022,685.3399,310.33573)" fill="#0000cc"/>
<use data-text="e" xlink:href="#font_0_10" transform="matrix(15.94022,0,0,-15.94022,691.5885,310.33573)" fill="#0000cc"/>
<use data-text="r" xlink:href="#font_0_11" transform="matrix(15.94022,0,0,-15.94022,700.0368,310.33573)" fill="#0000cc"/>
<use data-text=" " xlink:href="#font_0_7" transform="matrix(15.94022,0,0,-15.94022,707.0505,310.33573)" fill="#0000cc"/>
<use data-text="a" xlink:href="#font_0_18" transform="matrix(15.94022,0,0,-15.94022,713.1071,310.33573)" fill="#0000cc"/>
<use data-text=" " xlink:href="#font_0_7" transform="matrix(15.94022,0,0,-15.94022,721.76266,310.33573)" fill="#0000cc"/>
<use data-text="w" xlink:href="#font_0_21" transform="matrix(15.94022,0,0,-15.94022,727.8193,310.33573)" fill="#0000cc"/>
<use data-text="h" xlink:href="#font_0_25" transform="matrix(15.94022,0,0,-15.94022,740.49179,310.33573)" fill="#0000cc"/>
<use data-text="i" xlink:href="#font_0_16" transform="matrix(15.94022,0,0,-15.94022,750.5819,310.33573)" fill="#0000cc"/>
<use data-text="l" xlink:href="#font_0_3" transform="matrix(15.94022,0,0,-15.94022,755.4756,310.33573)" fill="#0000cc"/>
<use data-text="e" xlink:href="#font_0_10" transform="matrix(15.94022,0,0,-15.94022,760.4649,310.33573)" fill="#0000cc"/>
<path transform="matrix(1,0,0,-1,0,347.94279)" stroke-width=".3985" stroke-linecap="round" stroke-linejoin="round" fill="none" stroke="#0000cc" d="M162.05446 332.74803V332.74803H145.26523V318.0299"/>
<path transform="matrix(1,0,0,-1,0,347.94279)" d="M143.73442 318.02998 145.26523 314.3343 146.79602 318.02998H143.73442Z" fill="#0000cc"/>
<path transform="matrix(1,0,0,-1,0,347.94279)" stroke-width=".3985" stroke-linecap="round" stroke-linejoin="round" fill="none" stroke="#0000cc" d="M143.73442 318.02998 145.26523 314.3343 146.79602 318.02998H143.73442Z"/>
<path transform="matrix(1,0,0,-1,0,347.94279)" stroke-width=".3985" stroke-linecap="round" stroke-linejoin="round" fill="none" stroke="#0000cc" d="M368.73695 331.257V331.257H364.4901V318.02995"/>
<path transform="matrix(1,0,0,-1,0,347.94279)" d="M362.95936 318.02989 364.4901 314.3343 366.0209 318.02989H362.95936Z" fill="#0000cc"/>
<path transform="matrix(1,0,0,-1,0,347.94279)" stroke-width=".3985" stroke-linecap="round" stroke-linejoin="round" fill="none" stroke="#0000cc" d="M362.95936 318.02989 364.4901 314.3343 366.0209 318.02989H362.95936Z"/>
<path transform="matrix(1,0,0,-1,0,347.94279)" stroke-width=".3985" stroke-linecap="round" stroke-linejoin="round" fill="none" stroke="#0000cc" d="M545.1215 323.81639V137.41915H477.79789"/>
<path transform="matrix(1,0,0,-1,0,347.94279)" d="M477.7979 138.9498 474.10258 137.41915 477.7979 135.88849V138.9498Z" fill="#0000cc"/>
<path transform="matrix(1,0,0,-1,0,347.94279)" stroke-width=".3985" stroke-linecap="round" stroke-linejoin="round" fill="none" stroke="#0000cc" d="M477.7979 138.9498 474.10258 137.41915 477.7979 135.88849V138.9498Z"/>
<path transform="matrix(1,0,0,-1,0,347.94279)" stroke-width=".3985" stroke-linecap="round" stroke-linejoin="round" fill="none" stroke="#0000cc" d="M673.1845 320.93006V320.93006H674.1467V315.3891"/>
<path transform="matrix(1,0,0,-1,0,347.94279)" d="M672.61599 315.3892 674.1467 311.6936 675.6775 315.3892H672.61599Z" fill="#0000cc"/>
<path transform="matrix(1,0,0,-1,0,347.94279)" stroke-width=".3985" stroke-linecap="round" stroke-linejoin="round" fill="none" stroke="#0000cc" d="M672.61599 315.3892 674.1467 311.6936 675.6775 315.3892H672.61599Z"/>
<path transform="matrix(1,0,0,-1,0,347.94279)" stroke-width=".3985" stroke-linecap="round" stroke-linejoin="round" fill="none" stroke="#0000cc" d="M644.42318 31.888688V14.792915H422.44523V26.941355"/>
<path transform="matrix(1,0,0,-1,0,347.94279)" d="M423.976 26.94123 422.44523 30.636897 420.91444 26.94123H423.976Z" fill="#0000cc"/>
<path transform="matrix(1,0,0,-1,0,347.94279)" stroke-width=".3985" stroke-linecap="round" stroke-linejoin="round" fill="none" stroke="#0000cc" d="M423.976 26.94123 422.44523 30.636897 420.91444 26.94123H423.976Z"/>
</svg>
