<svg xmlns="http://www.w3.org/2000/svg" xmlns:xlink="http://www.w3.org/1999/xlink" xmlns:inkscape="http://www.inkscape.org/namespaces/inkscape" version="1.1" width="484.77857" height="185.41362" viewBox="0 0 484.77857 185.41362">
<defs>
<path id="font_11_4" d="M.04598999 .23046875H.70399478L.70999148 .27046205H.052993776L.04598999 .23046875Z"/>
<path id="font_11_5" d="M.04598999 .23632813H.35598756V-.07368469L.3959961-.06668091V.23632813H.70399478L.70899966 .2763214H.3959961V.58631899L.35598756 .58032229V.2763214H.052993776L.04598999 .23632813Z"/>
<path id="font_11_6" d="M-.0010070801 .39526368 .011993408 .3752594C.034988405 .3882599 .068984989 .40527345 .08299255 .40527345 .09498596 .40527345 .10499573 .40325929 .11099243 .39627076 .12399292 .38226319 .12799073 .3662567 .12799073 .2752533 .12799073 .24624634 .12399292 .14523316 .12399292 .11222839 .12399292 .041229249 .14698792-.009765625 .22898865-.009765625 .2889862-.00982666 .37998963 .043182374 .4169922 .06518555L.4249878 .06417847C.4269867 .045181276 .42999269-.0078125 .49398805-.0078125 .54599-.0078125 .625 .060180665 .6549988 .08618164L.6439972 .10519409 .6359863 .10719299C.61898806 .095184329 .57199099 .06518555 .548996 .06518555 .5369873 .06518555 .5249939 .07017517 .5159912 .07917786 .5 .095184329 .5 .14520264 .5 .18121338 .5 .2732544 .5039978 .3662567 .5119934 .45925904L.49899293 .47026063 .42199708 .43527223C.4229889 .41226197 .4229889 .3692627 .4229889 .31825257 .4229889 .24925232 .4229889 .1662445 .42199708 .10423279 .39698792 .0892334 .33198548 .051223756 .29100038 .051223756 .20899964 .051223756 .20098877 .11022949 .20098877 .24424744 .20098877 .2962494 .20098877 .3792572 .19898987 .39926148 .19699097 .41926576 .19499207 .43927003 .18099976 .45326234 .16899109 .465271 .15098572 .46826173 .1349945 .46826173 .09599304 .46826173 .024993897 .41526795-.0010070801 .39526368Z"/>
<path id="font_11_7" d="M.11299133 .24990845C.11299133 .007904053 .1519928-.09008789 .18299866-.13310242 .21099854-.17008972 .25299073-.20809937 .30099488-.21209717V-.1880951C.2809906-.18409729 .25099183-.16809082 .23399353-.1481018 .21998596-.13209534 .16499329-.05809021 .16499329 .24990845 .16499329 .4618988 .19799805 .5659027 .21998596 .6128998 .23599243 .6469116 .2689972 .6769104 .30099488 .684906V.71191409C.2599945 .7049103 .21598816 .6729126 .19099427 .63790896 .1599884 .5919037 .11299133 .4748993 .11299133 .24990845Z"/>
<path id="font_11_8" d="M.016998291 .40538026 .021987915 .40039063H.13398743L.13999939 .39338685V.20327759C.13999939 .06820679 .14199829 .049209596 .16299439 .022201539 .18099976-.0018005371 .21199036-.0087890629 .23498535-.0087890629 .2619934-.0087890629 .2869873 .0012054443 .31098939 .014205933 .34298707 .031204224 .37199403 .05419922 .39898683 .07922363L.3919983 .09422302 .37998963 .096221927C.34999085 .07720947 .31399537 .0552063 .2889862 .0552063 .27198792 .0552063 .25698854 .06021118 .24398804 .07521057 .22200012 .099227908 .21798706 .16325379 .21798706 .20527649V.39437867L.22399903 .40039063H.34298707L.34899903 .40538026 .35699464 .43138124 .35198976 .43537904H.22399903L.21798706 .4403839C.21899414 .49838258 .22399903 .54937747 .22898865 .6063843L.22200012 .61138918 .13798523 .5823822C.13999939 .5563812 .13999939 .49238587 .13999939 .44137574L.13398743 .43537904H.02999878L.023986817 .42938233 .016998291 .40538026Z"/>
<path id="font_11_9" d="M.085998538-.1880951V-.21209717C.13398743-.20610047 .1789856-.17208863 .20698548-.13510132 .23799134-.09210205 .27598573 .007904053 .27598573 .24990845 .27598573 .50090029 .22399903 .5919037 .19299317 .63790896 .16799927 .6729126 .1269989 .7049103 .085998538 .71191409V.684906C.117996219 .6759033 .14898682 .6469116 .16499329 .6128998 .18699646 .5659027 .22399903 .48190309 .22399903 .24990845 .22399903-.099090579 .17199707-.13209534 .1579895-.1481018 .14099121-.16809082 .10598755-.18409729 .085998538-.1880951Z"/>
<path id="font_11_1" d="M.053985597 .65625C.054992677 .65625 .08999634 .6462555 .10798645 .6412506 .12098694 .6372528 .1309967 .6252594 .1309967 .61128237 .13198853 .5543213 .13398743 .45439149 .13398743 .43940736 .13398743 .29444886 .1329956 .14831543 .125 .003189087L.13598633-.0058135988 .21899414 .023208619C.21398926 .11929321 .21398926 .21638489 .21398926 .31245423 .21998596 .31245423 .22898865 .30845643 .23399353 .30345155 .2630005 .27442933 .3899994 .11128235 .48298646-.0078125L.58200076 .018203736V.02720642L.31900025 .3234558 .32099916 .33146668C.4039917 .3404541 .4850006 .3734131 .5169983 .44322206 .5319977 .47714234 .5359955 .49110414 .5359955 .53897097 .5359955 .57388308 .5219879 .6077881 .49699403 .63272097 .47999574 .6506958 .45700074 .6596985 .43299867 .6667023 .40098573 .67570498 .36698915 .67871096 .33299256 .67871096L.06098938 .679245 .054992677 .6732483 .053985597 .65625M.21299744 .37045289C.21299744 .375412 .21699524 .549942 .21899414 .61376956 .21998596 .63272097 .22299195 .6397095 .23098755 .6397095H.2709961C.2979889 .6397095 .32598878 .6377106 .35299684 .63072207 .37199403 .6257324 .3909912 .61776736 .40499879 .6037903 .42599488 .5828552 .43798829 .55293276 .43798829 .52301028 .43798829 .47813417 .41799928 .43624879 .3869934 .40533448 .35398866 .37141419 .30599977 .36044313 .2599945 .35646058 .24798584 .35546876 .23498535 .35546876 .22200012 .35546876 .21499634 .35546876 .21299744 .36444093 .21299744 .37042237V.37045289Z"/>
<path id="font_11_25" d="M.04499817 .001953125H.5379944L.56399539 .079940799 .5589905 .08795166H.20999146C.20399475 .08795166 .19799805 .08894348 .19599915 .092941287 .19499207 .094940189 .19599915 .09794617 .19699097 .09895325 .2539978 .1569519 .30799867 .21495056 .35899354 .27496339 .394989 .31697084 .42999269 .358963 .45799256 .40496827 .48799134 .4509735 .5119934 .49998475 .5119934 .5529938 .5119934 .59399417 .49899293 .6349945 .46499635 .66400149 .43199159 .69299319 .3880005 .7080078 .34199525 .7080078 .29899598 .7080078 .2579956 .6970062 .22099304 .67900088 .17599488 .65800479 .13699341 .6279907 .102996829 .59498599L.125 .57598879C.1519928 .59599307 .17799378 .61099246 .20999146 .6259918 .23098755 .6360016 .2559967 .6399994 .2809906 .6399994 .31399537 .6399994 .34700013 .6289978 .37098695 .6069946 .40098573 .5779877 .4079895 .5369873 .4079895 .50798037 .4079895 .4429779 .38198854 .38197328 .34298707 .3259735 .31098939 .27996827 .27198792 .23796082 .23199463 .19696045 .17199707 .13494873 .10899353 .07594299 .04499817 .017944336V.001953125Z"/>
<path id="font_11_26" d="M.050994874 .049362184 .05899048 .038375856C.10998535 .0033874512 .17098999-.016601563 .23599243-.016601563 .31799317-.016601563 .397995 .008392334 .45700074 .05935669 .5039978 .10131836 .5349884 .15626526 .5349884 .21520996 .5349884 .25416566 .519989 .2911377 .48999024 .31811524 .46899415 .3360901 .44198609 .34709168 .41600038 .35508729 .3789978 .36608888 .34199525 .37109376 .30299378 .37408448V.38209535C.34999085 .39408876 .3939972 .41609193 .42900086 .44610597 .46499635 .47810365 .48199464 .52311709 .48199464 .5681305 .48199464 .60414126 .46798707 .6401367 .43899537 .6651459 .40699769 .6941376 .36099244 .70214846 .31698609 .70214846 .2849884 .70214846 .25498963 .69114688 .22599793 .67814639 .18598938 .6591339 .14698792 .63414 .11199951 .60813906L.12799073 .58613589C.1539917 .60113528 .17999268 .6151428 .20799256 .6261444 .22799683 .6331482 .24699402 .6391449 .2659912 .6391449 .2999878 .6391449 .33299256 .6321411 .35598756 .61112979 .37799073 .59213259 .3889923 .5671234 .3889923 .54011538 .3889923 .502121 .37199403 .46510316 .34098817 .43710328 .32299806 .4210968 .29899598 .40908814 .27398683 .39909364 .24198914 .38609315 .20698548 .37808229 .17298889 .37109376L.17199707 .34509278C.21398926 .34509278 .2559967 .34309388 .29699708 .3340912 .32499696 .32809449 .35299684 .31910707 .37298585 .30012513 .4059906 .26914979 .42900086 .22920227 .42900086 .18623352 .42900086 .14128113 .41299439 .095321658 .3769989 .06335449 .34599305 .036376954 .30599977 .023391724 .2639923 .023391724 .22299195 .023391724 .18499756 .041366579 .1559906 .067352298 .13798523 .08332825 .12399292 .10131836 .10998535 .121292117H.09899902L.050994874 .049362184Z"/>
<path id="font_11_10" d="M-.021011353 .41119386-.012008667 .38719178C.010986328 .40019227 .0289917 .40820313 .050994874 .40820313 .06298828 .40820313 .07199097 .40119935 .07798767 .39118959 .09098816 .36920167 .115997318 .2982025 .1289978 .2472229L.19799805-.0107421879H.22200012C.22698975-.007751465 .24099732 .0062408449 .2519989 .017242432 .31098939 .07723999 .3659973 .14022827 .41099549 .21221924 .43899537 .25820924 .46598817 .3072052 .46598817 .36219789 .46598817 .41619874 .44699098 .44519044 .42900086 .459198 .4269867 .46218873 .4229889 .46218873 .41999818 .46218873 .41799928 .46218873 .4149933 .46218873 .4119873 .46018983L.3619995 .42520143C.3600006 .4232025 .35798646 .42019654 .35798646 .41719056 .35798646 .41519166 .35798646 .41319276 .35899354 .41220094 .37599183 .38020326 .3959961 .34420777 .3959961 .31221009 .3959961 .27920533 .38398744 .24821472 .36799623 .21821594 .34700013 .17723084 .31900025 .13923645 .2889862 .10423279 .2809906 .09623718 .269989 .08224487 .2649994 .08224487 .2619934 .08224487 .25498963 .083236698 .2519989 .09223938 .23599243 .13923645 .21099854 .23521424 .19699097 .2932129 .18099976 .3531952 .1599884 .43519593 .14299011 .4521942 .1329956 .46218873 .11898804 .4691925 .10398865 .4691925 .085998538 .4691925 .068984989 .46218873 .051986696 .45419313 .025985718 .4421997 .0019989014 .42720033-.021011353 .41119386Z"/>
<path id="font_11_11" d="M.1289978 .3262787C.1289978 .228302 .15899658 .12931824 .23799134 .05934143 .3019867 .0023498536 .394989-.0146484379 .48399354-.0146484379 .58200076-.0146484379 .6729889 .02734375 .7539978 .07633972L.7350006 .10533142C.6719971 .067337039 .6009979 .038345338 .5239868 .038345338 .43099977 .038345338 .38398744 .066345218 .32099916 .12132263 .28399659 .15431214 .22999573 .25230409 .22999573 .3442688 .22999573 .39326478 .23699951 .44325257 .2539978 .49024964 .2669983 .52822878 .28799439 .56422427 .31900025 .59321597 .36898805 .63720706 .43899537 .6582184 .5079956 .6582184 .55999758 .6582184 .6139984 .6462097 .651001 .6132202 .6769867 .5902252 .69699099 .5612335 .70999148 .52923586L.7259979 .52822878 .7899933 .5862274C.7779999 .6042175 .7630005 .6212158 .74598696 .6362152 .69400027 .6832123 .6199951 .69921877 .54599 .69921877 .42900086 .69921877 .31498719 .663208 .23199463 .5902252 .15299988 .52124026 .1289978 .42225648 .1289978 .3262787Z"/>
<path id="font_11_2" d="M.08699036 .3262787C.08699036 .228302 .11299133 .12931824 .18299866 .05934143 .23999024 .0023498536 .32199098-.0146484379 .40098573-.0146484379 .48799134-.0146484379 .56799319 .02734375 .6399994 .07633972L.6230011 .10533142C.5669861 .067337039 .5039978 .038345338 .43598939 .038345338 .35398866 .038345338 .31199647 .066345218 .25698854 .12132263 .22399903 .15431214 .17599488 .25230409 .17599488 .3442688 .17599488 .39326478 .18199158 .44325257 .19699097 .49024964 .20899964 .52822878 .22698975 .56422427 .25498963 .59321597 .29899598 .63720706 .36099244 .6582184 .42199708 .6582184 .46798707 .6582184 .5159912 .6462097 .548996 .6132202 .57199099 .5902252 .58898928 .5612335 .6009979 .52923586L.61499026 .52822878 .6719971 .5862274C.6609955 .6042175 .647995 .6212158 .6329956 .6362152 .58699038 .6832123 .5209961 .69921877 .45599366 .69921877 .35198976 .69921877 .25099183 .663208 .17799378 .5902252 .10798645 .52124026 .08699036 .42225648 .08699036 .3262787Z"/>
<path id="font_11_24" d="M.1349945 .6123047H.22898865C.25698854 .6123047 .27999879 .59129336 .2809906 .5662842 .28199769 .541275 .28199769 .46824647 .28199769 .41923524 .28199769 .27919007 .27799989 .13916016 .272995 .00010681152L.28599549-.0048828127 .3809967 .022125245C.37799073 .09814453 .37799073 .2962036 .37799073 .43223573 .37799073 .52127078 .37998963 .6112976 .38598634 .7003021L.3789978 .71229556 .1349945 .6392975V.6123047Z"/>
<path id="font_11_3" d="M.049987794 .6660156C.050994874 .6660156 .08799744 .65800479 .10798645 .65400698 .12298584 .65101626 .1289978 .63500979 .1289978 .62101748V.14308167C.1289978 .12908936 .12599182 .05709839 .12199402 .04710388 .11898804 .038101198 .11399841 .026107789 .10699463 .016113282V.0019683839C.24499512 .002105713 .44599916 .002105713 .519989-.0048828127L.5339966 .048095704 .5239868 .05810547C.5179901 .05696106 .33599855 .04296875 .23199463 .04296875 .22698975 .04296875 .21998596 .049957277 .21899414 .05596924 .21499634 .16497803 .21199036 .28097535 .21199036 .39398194 .21199036 .47299195 .21398926 .5509949 .21798706 .6240082 .21899414 .63500979 .22399903 .6470032 .23599243 .6490021 .25698854 .65400698 .2999878 .66300967 .30099488 .66300967V.68400576L.29499818 .69000247H.057998659L.050994874 .6830139 .049987794 .6660156Z"/>
</defs>
<path transform="matrix(1.5,0,0,-1.5,78.85341,178.00159)" stroke-width=".79701" stroke-linecap="butt" stroke-miterlimit="10" stroke-linejoin="miter" fill="none" stroke="#000000" d="M0 0V30.61449M0 54.42592V85.04042H56.69362L83.33963 85.0404M115.08801 85.0404 141.73404 85.04042 168.38005 85.0404M200.12845 85.0404 226.77448 85.04042V46.48868M226.77448 38.55173V0H0"/>
<path transform="matrix(1.5,0,0,-1.5,78.85341,178.00159)" stroke-width=".79701" stroke-linecap="butt" stroke-miterlimit="10" stroke-linejoin="miter" fill="none" stroke="#000000" d="M-11.90572 42.5202C-11.90572 49.09561-6.57541 54.42592 0 54.42592 6.57541 54.42592 11.90572 49.09561 11.90572 42.5202 11.90572 35.94478 6.57541 30.61449 0 30.61449-6.57541 30.61449-11.90572 35.94478-11.90572 42.5202ZM0 42.5202"/>
<use data-text="&#x2212;" xlink:href="#font_11_4" transform="matrix(-21.5193,-0,0,-21.5193,86.99013,125.12996)"/>
<use data-text="+" xlink:href="#font_11_5" transform="matrix(-21.5193,-0,0,-21.5193,86.97936,114.3354)"/>
<use data-text="u" xlink:href="#font_11_6" transform="matrix(21.5193,0,0,-21.5193,9.824612,119.603549)"/>
<use data-text="(" xlink:href="#font_11_7" transform="matrix(21.5193,0,0,-21.5193,23.640004,119.603549)"/>
<use data-text="t" xlink:href="#font_11_8" transform="matrix(21.5193,0,0,-21.5193,33.185106,119.603549)"/>
<use data-text=")" xlink:href="#font_11_9" transform="matrix(21.5193,0,0,-21.5193,43.332746,119.603549)"/>
<path transform="matrix(1.5,0,0,-1.5,78.85341,178.00159)" stroke-width=".79701" stroke-linecap="butt" stroke-linejoin="bevel" fill="none" stroke="#000000" d="M82.94112 85.0404 85.98532 90.99326 91.2767 79.08755 96.56808 90.99326 101.85947 79.08755 107.15085 90.99326 112.44223 79.08755 115.48643 85.0404"/>
<path transform="matrix(1.5,0,0,-1.5,78.85341,178.00159)" d="M143.32118 85.04042C143.32118 85.91698 142.6106 86.62756 141.73404 86.62756 140.85749 86.62756 140.1469 85.91698 140.1469 85.04042 140.1469 84.16386 140.85749 83.45328 141.73404 83.45328 142.6106 83.45328 143.32118 84.16386 143.32118 85.04042ZM141.73404 85.04042"/>
<path transform="matrix(1.5,0,0,-1.5,78.85341,178.00159)" stroke-width=".79701" stroke-linecap="butt" stroke-miterlimit="10" stroke-linejoin="miter" fill="none" stroke="#000000" d="M143.32118 85.04042C143.32118 85.91698 142.6106 86.62756 141.73404 86.62756 140.85749 86.62756 140.1469 85.91698 140.1469 85.04042 140.1469 84.16386 140.85749 83.45328 141.73404 83.45328 142.6106 83.45328 143.32118 84.16386 143.32118 85.04042ZM141.73404 85.04042"/>
<use data-text="R" xlink:href="#font_11_1" transform="matrix(21.5193,0,0,-21.5193,215.99637,32.54834)"/>
<use data-text="2" xlink:href="#font_11_25" transform="matrix(16.43835,0,0,-16.43835,229.10553,36.78354)"/>
<path transform="matrix(1.5,0,0,-1.5,78.85341,178.00159)" stroke-width=".79701" stroke-linecap="butt" stroke-linejoin="bevel" fill="none" stroke="#000000" d="M167.98155 85.0404 171.02574 90.99326 176.31713 79.08755 181.6085 90.99326 186.8999 79.08755 192.19129 90.99326 197.48267 79.08755 200.52686 85.0404"/>
<path transform="matrix(1.5,0,0,-1.5,78.85341,178.00159)" d="M228.36162 85.04042C228.36162 85.91698 227.65103 86.62756 226.77448 86.62756 225.8979 86.62756 225.18732 85.91698 225.18732 85.04042 225.18732 84.16386 225.8979 83.45328 226.77448 83.45328 227.65103 83.45328 228.36162 84.16386 228.36162 85.04042ZM226.77448 85.04042"/>
<path transform="matrix(1.5,0,0,-1.5,78.85341,178.00159)" stroke-width=".79701" stroke-linecap="butt" stroke-miterlimit="10" stroke-linejoin="miter" fill="none" stroke="#000000" d="M228.36162 85.04042C228.36162 85.91698 227.65103 86.62756 226.77448 86.62756 225.8979 86.62756 225.18732 85.91698 225.18732 85.04042 225.18732 84.16386 225.8979 83.45328 226.77448 83.45328 227.65103 83.45328 228.36162 84.16386 228.36162 85.04042ZM226.77448 85.04042"/>
<use data-text="R" xlink:href="#font_11_1" transform="matrix(21.5193,0,0,-21.5193,343.55537,32.54834)"/>
<use data-text="3" xlink:href="#font_11_26" transform="matrix(16.43835,0,0,-16.43835,356.66453,36.68489)"/>
<use data-text="v" xlink:href="#font_11_10" transform="matrix(14.94396,0,0,-14.94396,434.86885,54.17653)"/>
<use data-text="C" xlink:href="#font_11_11" transform="matrix(10.460775,0,0,-10.460775,442.26203,56.4169)"/>
<use data-text="(" xlink:href="#font_11_7" transform="matrix(14.94396,0,0,-14.94396,451.32594,54.17653)"/>
<use data-text="t" xlink:href="#font_11_8" transform="matrix(14.94396,0,0,-14.94396,457.95448,54.17653)"/>
<use data-text=")" xlink:href="#font_11_9" transform="matrix(14.94396,0,0,-14.94396,465.00148,54.17653)"/>
<path transform="matrix(1.5,0,0,-1.5,78.85341,178.00159)" stroke-width=".79701" stroke-linecap="butt" stroke-miterlimit="10" stroke-linejoin="miter" fill="none" stroke="#000000" d="M238.68019 46.48868H214.86876M238.68019 38.55173H214.86876"/>
<use data-text="C" xlink:href="#font_11_2" transform="matrix(21.5193,0,0,-21.5193,442.6911,119.60353)"/>
<path transform="matrix(1.5,0,0,-1.5,78.85341,178.00159)" stroke-width=".79701" stroke-linecap="butt" stroke-miterlimit="10" stroke-linejoin="miter" fill="none" stroke="#000000" d="M56.69362 85.04042V58.3944M56.69362 26.64601V0"/>
<path transform="matrix(1.5,0,0,-1.5,78.85341,178.00159)" stroke-width=".79701" stroke-linecap="butt" stroke-linejoin="bevel" fill="none" stroke="#000000" d="M56.69362 58.7929 62.64647 55.7487 50.74075 50.45732 62.64647 45.16594 50.74075 39.87456 62.64647 34.58318 50.74075 29.2918 56.69362 26.24759"/>
<path transform="matrix(1.5,0,0,-1.5,78.85341,178.00159)" d="M58.28076 85.04042C58.28076 85.91698 57.57018 86.62756 56.69362 86.62756 55.81705 86.62756 55.10646 85.91698 55.10646 85.04042 55.10646 84.16386 55.81705 83.45328 56.69362 83.45328 57.57018 83.45328 58.28076 84.16386 58.28076 85.04042ZM56.69362 85.04042"/>
<path transform="matrix(1.5,0,0,-1.5,78.85341,178.00159)" stroke-width=".79701" stroke-linecap="butt" stroke-miterlimit="10" stroke-linejoin="miter" fill="none" stroke="#000000" d="M58.28076 85.04042C58.28076 85.91698 57.57018 86.62756 56.69362 86.62756 55.81705 86.62756 55.10646 85.91698 55.10646 85.04042 55.10646 84.16386 55.81705 83.45328 56.69362 83.45328 57.57018 83.45328 58.28076 84.16386 58.28076 85.04042ZM56.69362 85.04042"/>
<use data-text="R" xlink:href="#font_11_1" transform="matrix(21.5193,0,0,-21.5193,177.75093,119.60353)"/>
<use data-text="1" xlink:href="#font_11_24" transform="matrix(16.43835,0,0,-16.43835,190.86009,123.90447)"/>
<path transform="matrix(1.5,0,0,-1.5,78.85341,178.00159)" stroke-width=".79701" stroke-linecap="butt" stroke-miterlimit="10" stroke-linejoin="miter" fill="none" stroke="#000000" d="M141.73404 85.04042 141.73403 54.42592M141.73403 30.61449 141.73404 0"/>
<path transform="matrix(1.5,0,0,-1.5,78.85341,178.00159)" stroke-width=".79701" stroke-linecap="butt" stroke-linejoin="bevel" fill="none" stroke="#000000" d="M141.41522 54.82442C144.70293 54.82442 147.36808 53.18968 147.36808 51.17308 147.36808 49.15646 144.70293 47.52173 141.41522 47.52173 139.77147 47.52173 138.43895 48.18799 138.43895 49.00986 138.43895 49.83174 139.77147 50.498 141.41522 50.498 144.70293 50.498 147.36808 48.86325 147.36808 46.84665 147.36808 44.83005 144.70293 43.1953 141.41522 43.1953 139.77147 43.1953 138.43895 43.86156 138.43895 44.68344 138.43895 45.50533 139.77147 46.17159 141.41522 46.17159 144.70293 46.17159 147.36808 44.53683 147.36808 42.52023 147.36808 40.50363 144.70293 38.86888 141.41522 38.86888 139.77147 38.86888 138.43895 39.53514 138.43895 40.35703 138.43895 41.1789 139.77147 41.84515 141.41522 41.84515 144.70293 41.84515 147.36808 40.2104 147.36808 38.1938 147.36808 36.1772 144.70293 34.54247 141.41522 34.54247 139.77147 34.54247 138.43895 35.20871 138.43895 36.0306 138.43895 36.85248 139.77147 37.51874 141.41522 37.51874 144.70293 37.51874 147.36808 35.88399 147.36808 33.86739 147.36808 31.85078 144.70293 30.21603 141.41522 30.21603"/>
<use data-text="L" xlink:href="#font_11_3" transform="matrix(21.5193,0,0,-21.5193,305.30989,119.60353)"/>
</svg>
