<svg xmlns="http://www.w3.org/2000/svg" xmlns:xlink="http://www.w3.org/1999/xlink" version="1.1" width="332.49104" height="256.31776" viewBox="0 0 332.49104 256.31776">
<defs>
<path id="font_8_4" d="M.04598999 .23046875H.70399478L.70999148 .27046205H.052993776L.04598999 .23046875Z"/>
<path id="font_8_21" d="M-.0010070801 .19134522H.2829895L.2899933 .18232727C.2899933 .119262699 .2899933 .03616333 .2849884 .0011138916L.2899933-.0048828127 .36999513 .028152466C.36698915 .0501709 .36698915 .12927246 .36698915 .18333435L.375 .19134522H.45700074L.47299195 .22834778 .46798707 .23535156H.37399293L.36698915 .24433899C.36698915 .39926148 .36698915 .67111209 .36799623 .6980896L.36099244 .70410159 .2849884 .66911318-.0010070801 .23535156V.19134522M.06399536 .24234009C.06498718 .264328 .14898682 .4022522 .18699646 .46122743 .21598816 .50619509 .24598694 .5521698 .27999879 .591156 .28199769 .5931549 .2869873 .5941467 .2889862 .591156 .2889862 .5901489 .2899933 .5871582 .2899933 .5851593V.24334717L.28399659 .23535156H.068984989L.06399536 .24234009Z"/>
<path id="font_8_22" d="M.011993408 .001953125H.44898988L.47200013 .079940799 .46699525 .08795166H.1579895C.15299988 .08795166 .147995 .08894348 .1459961 .092941287 .14498902 .094940189 .1459961 .09794617 .14698792 .09895325 .19699097 .1569519 .24499512 .21495056 .2899933 .27496339 .32199098 .31697084 .35299684 .358963 .37799073 .40496827 .4039917 .4509735 .42599488 .49998475 .42599488 .5529938 .42599488 .59399417 .4139862 .6349945 .38398744 .66400149 .35499574 .69299319 .31599427 .7080078 .2749939 .7080078 .23699951 .7080078 .20098877 .6970062 .16799927 .67900088 .12799073 .65800479 .09399414 .6279907 .06399536 .59498599L.083999637 .57598879C.10798645 .59599307 .12998963 .61099246 .1579895 .6259918 .1769867 .6360016 .19898987 .6399994 .22099304 .6399994 .25 .6399994 .27999879 .6289978 .2999878 .6069946 .32798768 .5779877 .33399964 .5369873 .33399964 .50798037 .33399964 .4429779 .31098939 .38197328 .27598573 .3259735 .24798584 .27996827 .21299744 .23796082 .17799378 .19696045 .125 .13494873 .068984989 .07594299 .011993408 .017944336V.001953125Z"/>
<path id="font_8_23" d="M.033996583 .30323792C.033996583 .24525452 .038986207 .192276 .054992677 .1362915 .06599426 .09429932 .08699036 .05331421 .117996219 .022323609 .14199829-.0006866455 .17399597-.013671875 .20698548-.013671875 .2619934-.013671875 .31498719 .00831604 .35398866 .046325685 .3899994 .08331299 .41600038 .12928772 .43199159 .17727661 .45199586 .23425293 .45999146 .2952423 .45999146 .35621644 .45999146 .43418885 .44499208 .51316836 .40499879 .58213809 .37599183 .63212588 .33999635 .6721039 .2899933 .70410159 .24598694 .68611147 .19699097 .6621094 .1639862 .6291199 .07899475 .54415896 .033996583 .42318727 .033996583 .30323792M.100997928 .37121583C.100997928 .45217896 .1289978 .53215029 .18099976 .59513857 .19699097 .61413577 .21499634 .62812808 .23399353 .64012148 .2789917 .62112429 .32398988 .55114749 .32998658 .53915408 .37399293 .46118165 .397995 .37521363 .397995 .2852478 .397995 .24525452 .394989 .20426941 .3829956 .16627503 .37298585 .13529969 .3600006 .10630798 .33699037 .08331299 .31599427 .061325075 .2829895 .052322389 .2519989 .052322389 .23199463 .052322389 .20298767 .065322879 .18399048 .08430481 .15299988 .11529541 .1349945 .15628052 .12199402 .19926453 .10598755 .2542572 .100997928 .31323243 .100997928 .37121583Z"/>
<clipPath id="clip_9">
<path transform="matrix(1.5,0,0,-1.5,23.368416,249.20459)" d="M0 0H194.26912V161.39636H0Z"/>
</clipPath>
</defs>
<path transform="matrix(1.5,0,0,-1.5,23.368416,249.20459)" stroke-width=".3985" stroke-linecap="butt" stroke-miterlimit="10" stroke-linejoin="miter" fill="none" stroke="#bfbfbf" d="M24.28363 0V161.39636M72.8509 0V161.39636M121.4182 0V161.39636M169.98548 0V161.39636"/>
<path transform="matrix(1.5,0,0,-1.5,23.368416,249.20459)" stroke-width=".3985" stroke-linecap="butt" stroke-miterlimit="10" stroke-linejoin="miter" fill="none" stroke="#bfbfbf" d="M0 0V161.39636M48.56728 0V161.39636M97.13455 0V161.39636M145.70183 0V161.39636M194.26912 0V161.39636"/>
<path transform="matrix(1.5,0,0,-1.5,23.368416,249.20459)" stroke-width=".19925" stroke-linecap="butt" stroke-miterlimit="10" stroke-linejoin="miter" fill="none" stroke="#e6e6e6" d="M24.28363 79.28072V82.11563M72.8509 79.28072V82.11563M121.4182 79.28072V82.11563M169.98548 79.28072V82.11563"/>
<path transform="matrix(1.5,0,0,-1.5,23.368416,249.20459)" stroke-width=".19925" stroke-linecap="butt" stroke-miterlimit="10" stroke-linejoin="miter" fill="none" stroke="#e6e6e6" d="M0 78.57219V82.82414M48.56728 78.57219V82.82414M97.13455 78.57219V82.82414M145.70183 78.57219V82.82414M194.26912 78.57219V82.82414"/>
<path transform="matrix(1.5,0,0,-1.5,23.368416,249.20459)" stroke-width=".3985" stroke-linecap="butt" stroke-miterlimit="10" stroke-linejoin="miter" fill="none" stroke="#000000" d="M3.58653 80.69818H190.68257"/>
<path transform="matrix(-1.5,-0,0,1.5,28.74821,128.15732)" d="M3.58653 0C2.52383 .19925 .797 .797-.3985 1.49438V-1.49438C.797-.797 2.52383-.19925 3.58653 0"/>
<path transform="matrix(1.5,0,0,-1.5,309.39228,128.15732)" d="M3.58653 0C2.52383 .19925 .797 .797-.3985 1.49438V-1.49438C.797-.797 2.52383-.19925 3.58653 0"/>
<path transform="matrix(1.5,0,0,-1.5,23.368416,249.20459)" d="M-11.03622 61.74715H11.036231V78.37295H-11.03622Z" fill="#ffffff"/>
<use data-text="&#x2212;" xlink:href="#font_8_4" transform="matrix(14.94396,0,0,-14.94396,13.988765,149.33594)"/>
<use data-text="4" xlink:href="#font_8_21" transform="matrix(14.94396,0,0,-14.94396,25.301342,149.33594)"/>
<path transform="matrix(1.5,0,0,-1.5,23.368416,249.20459)" d="M37.53603 61.75708H59.5985V78.372928H37.53603Z" fill="#ffffff"/>
<use data-text="&#x2212;" xlink:href="#font_8_4" transform="matrix(14.94396,0,0,-14.94396,86.84622,149.39566)"/>
<use data-text="2" xlink:href="#font_8_22" transform="matrix(14.94396,0,0,-14.94396,98.14385,149.39566)"/>
<path transform="matrix(1.5,0,0,-1.5,23.368416,249.20459)" d="M89.86717 61.65752H104.40193V78.37294H89.86717Z" fill="#ffffff"/>
<use data-text="0" xlink:href="#font_8_23" transform="matrix(14.94396,0,0,-14.94396,165.34192,149.33594)"/>
<path transform="matrix(1.5,0,0,-1.5,23.368416,249.20459)" d="M138.43445 61.75708H152.96921V78.372928H138.43445Z" fill="#ffffff"/>
<use data-text="2" xlink:href="#font_8_22" transform="matrix(14.94396,0,0,-14.94396,238.1919,149.39566)"/>
<path transform="matrix(1.5,0,0,-1.5,23.368416,249.20459)" d="M186.99675 61.74715H201.54148V78.37295H186.99675Z" fill="#ffffff"/>
<use data-text="4" xlink:href="#font_8_21" transform="matrix(14.94396,0,0,-14.94396,311.04933,149.33594)"/>
<g clip-path="url(#clip_9)">
<path transform="matrix(1.5,0,0,-1.5,23.368416,249.20459)" stroke-width=".3985" stroke-linecap="butt" stroke-miterlimit="10" stroke-linejoin="miter" fill="none" stroke="#666666" d="M2.75851 2.29175 191.51059 159.1046"/>
<path transform="matrix(-1.153695,.958485,.958485,1.153695,27.50618,245.76696)" d="M3.58653 0C2.52383 .19925 .797 .797-.3985 1.49438V-1.49438C.797-.797 2.52383-.19925 3.58653 0" fill="#666666"/>
<path transform="matrix(1.153695,-.958485,-.958485,-1.153695,310.63429,10.547714)" d="M3.58653 0C2.52383 .19925 .797 .797-.3985 1.49438V-1.49438C.797-.797 2.52383-.19925 3.58653 0" fill="#666666"/>
<path transform="matrix(1.5,0,0,-1.5,23.368416,249.20459)" stroke-width=".3985" stroke-linecap="butt" stroke-miterlimit="10" stroke-linejoin="miter" fill="none" stroke="#cccccc" d="M24.28363 0 218.55275 161.39636"/>
<path transform="matrix(1.5,0,0,-1.5,23.368416,249.20459)" stroke-width=".3985" stroke-linecap="butt" stroke-miterlimit="10" stroke-linejoin="miter" fill="none" stroke="#cccccc" d="M48.56728 0 242.8364 161.39636"/>
<path transform="matrix(1.5,0,0,-1.5,23.368416,249.20459)" stroke-width=".3985" stroke-linecap="butt" stroke-miterlimit="10" stroke-linejoin="miter" fill="none" stroke="#cccccc" d="M72.8509 0 267.12004 161.39636"/>
<path transform="matrix(1.5,0,0,-1.5,23.368416,249.20459)" stroke-width=".3985" stroke-linecap="butt" stroke-miterlimit="10" stroke-linejoin="miter" fill="none" stroke="#cccccc" d="M97.13455 0 291.40367 161.39636"/>
<path transform="matrix(1.5,0,0,-1.5,23.368416,249.20459)" stroke-width=".3985" stroke-linecap="butt" stroke-miterlimit="10" stroke-linejoin="miter" fill="none" stroke="#cccccc" d="M121.4182 0 315.68733 161.39636"/>
<path transform="matrix(1.5,0,0,-1.5,23.368416,249.20459)" stroke-width=".3985" stroke-linecap="butt" stroke-miterlimit="10" stroke-linejoin="miter" fill="none" stroke="#cccccc" d="M145.70183 0 339.97096 161.39636"/>
<path transform="matrix(1.5,0,0,-1.5,23.368416,249.20459)" stroke-width=".3985" stroke-linecap="butt" stroke-miterlimit="10" stroke-linejoin="miter" fill="none" stroke="#cccccc" d="M169.98548 0 364.2546 161.39636"/>
<path transform="matrix(1.5,0,0,-1.5,23.368416,249.20459)" stroke-width=".3985" stroke-linecap="butt" stroke-miterlimit="10" stroke-linejoin="miter" fill="none" stroke="#cccccc" d="M194.26912 0 388.53825 161.39636"/>
<path transform="matrix(1.5,0,0,-1.5,23.368416,249.20459)" stroke-width=".3985" stroke-linecap="butt" stroke-miterlimit="10" stroke-linejoin="miter" fill="none" stroke="#cccccc" d="M-24.28363 0 169.98548 161.39636"/>
<path transform="matrix(1.5,0,0,-1.5,23.368416,249.20459)" stroke-width=".3985" stroke-linecap="butt" stroke-miterlimit="10" stroke-linejoin="miter" fill="none" stroke="#cccccc" d="M-48.56728 0 145.70183 161.39636"/>
<path transform="matrix(1.5,0,0,-1.5,23.368416,249.20459)" stroke-width=".3985" stroke-linecap="butt" stroke-miterlimit="10" stroke-linejoin="miter" fill="none" stroke="#cccccc" d="M-72.8509 0 121.4182 161.39636"/>
<path transform="matrix(1.5,0,0,-1.5,23.368416,249.20459)" stroke-width=".3985" stroke-linecap="butt" stroke-miterlimit="10" stroke-linejoin="miter" fill="none" stroke="#cccccc" d="M-97.13455 0 97.13455 161.39636"/>
<path transform="matrix(1.5,0,0,-1.5,23.368416,249.20459)" stroke-width=".3985" stroke-linecap="butt" stroke-miterlimit="10" stroke-linejoin="miter" fill="none" stroke="#cccccc" d="M-121.4182 0 72.8509 161.39636"/>
<path transform="matrix(1.5,0,0,-1.5,23.368416,249.20459)" stroke-width=".3985" stroke-linecap="butt" stroke-miterlimit="10" stroke-linejoin="miter" fill="none" stroke="#cccccc" d="M-145.70183 0 48.56728 161.39636"/>
<path transform="matrix(1.5,0,0,-1.5,23.368416,249.20459)" stroke-width=".3985" stroke-linecap="butt" stroke-miterlimit="10" stroke-linejoin="miter" fill="none" stroke="#cccccc" d="M-169.98548 0 24.28363 161.39636"/>
<path transform="matrix(1.5,0,0,-1.5,23.368416,249.20459)" stroke-width=".3985" stroke-linecap="butt" stroke-miterlimit="10" stroke-linejoin="miter" fill="none" stroke="#cccccc" d="M-194.26912 0 0 161.39636"/>
<path transform="matrix(1.5,0,0,-1.5,23.368416,249.20459)" stroke-width="1.19553" stroke-linecap="butt" stroke-miterlimit="10" stroke-linejoin="miter" fill="none" stroke="#000000" d="M97.13455 80.69818 142.11052 136.74629"/>
<path transform="matrix(.93873,-1.16985,-1.16985,-.93873,236.53418,44.085176)" d="M5.73854 0C4.0382 .31879 1.27522 1.27522-.6376 2.39105V-2.39105C1.27522-1.27522 4.0382-.31879 5.73854 0"/>
<path transform="matrix(1.5,0,0,-1.5,23.368416,249.20459)" stroke-width=".3985" stroke-linecap="butt" stroke-miterlimit="10" stroke-linejoin="miter" fill="none" stroke="#ff0000" d="M97.13455 80.69818 167.22696 138.93006"/>
<path transform="matrix(1.153695,-.958485,-.958485,-1.153695,274.20887,40.80954)" d="M3.58653 0C2.52383 .19925 .797 .797-.3985 1.49438V-1.49438C.797-.797 2.52383-.19925 3.58653 0" fill="#ff0000"/>
<path transform="matrix(1.5,0,0,-1.5,23.368416,249.20459)" stroke-width=".3985" stroke-linecap="butt" stroke-miterlimit="10" stroke-linejoin="miter" fill="none" stroke="#ff0000" d="M169.98548 141.22182H149.28838"/>
<path transform="matrix(-1.5,-0,0,1.5,247.30097,37.371858)" d="M3.58653 0C2.52383 .19925 .797 .797-.3985 1.49438V-1.49438C.797-.797 2.52383-.19925 3.58653 0" fill="#ff0000"/>
</g>
</svg>
