<svg xmlns="http://www.w3.org/2000/svg" xmlns:xlink="http://www.w3.org/1999/xlink" version="1.1" width="99.86341" height="62.79718" viewBox="0 0 99.86341 62.79718">
<defs>
<path id="font_2_3" d="M.049987794 .6660156C.050994874 .6660156 .08799744 .65800479 .10798645 .65400698 .12298584 .65101626 .1289978 .63500979 .1289978 .62101748V.14308167C.1289978 .12908936 .12599182 .05709839 .12199402 .04710388 .11898804 .038101198 .11399841 .026107789 .10699463 .016113282V.0019683839C.24499512 .002105713 .44599916 .002105713 .519989-.0048828127L.5339966 .048095704 .5239868 .05810547C.5179901 .05696106 .33599855 .04296875 .23199463 .04296875 .22698975 .04296875 .21998596 .049957277 .21899414 .05596924 .21499634 .16497803 .21199036 .28097535 .21199036 .39398194 .21199036 .47299195 .21398926 .5509949 .21798706 .6240082 .21899414 .63500979 .22399903 .6470032 .23599243 .6490021 .25698854 .65400698 .2999878 .66300967 .30099488 .66300967V.68400576L.29499818 .69000247H.057998659L.050994874 .6830139 .049987794 .6660156Z"/>
</defs>
<path transform="matrix(1.5,0,0,-1.5,7.41204,50.442598)" stroke-width=".79701" stroke-linecap="butt" stroke-miterlimit="10" stroke-linejoin="miter" fill="none" stroke="#000000" d="M0 0H16.44109M40.25252 0H56.69362"/>
<path transform="matrix(1.5,0,0,-1.5,7.41204,50.442598)" stroke-width=".79701" stroke-linecap="butt" stroke-linejoin="bevel" fill="none" stroke="#000000" d="M16.04257-.31879C16.04257 2.96889 17.67732 5.63405 19.69392 5.63405 21.71053 5.63405 23.34528 2.96889 23.34528-.31879 23.34528-1.96255 22.67902-3.29506 21.85713-3.29506 21.03526-3.29506 20.369-1.96255 20.369-.31879 20.369 2.96889 22.00375 5.63405 24.02036 5.63405 26.03696 5.63405 27.67169 2.96889 27.67169-.31879 27.67169-1.96255 27.00545-3.29506 26.18356-3.29506 25.36168-3.29506 24.69542-1.96255 24.69542-.31879 24.69542 2.96889 26.33017 5.63405 28.34677 5.63405 30.36337 5.63405 31.99812 2.96889 31.99812-.31879 31.99812-1.96255 31.33186-3.29506 30.50998-3.29506 29.68811-3.29506 29.02185-1.96255 29.02185-.31879 29.02185 2.96889 30.65659 5.63405 32.67319 5.63405 34.6898 5.63405 36.32454 2.96889 36.32454-.31879 36.32454-1.96255 35.65828-3.29506 34.83641-3.29506 34.01453-3.29506 33.34827-1.96255 33.34827-.31879 33.34827 2.96889 34.98302 5.63405 36.99962 5.63405 39.01622 5.63405 40.65097 2.96889 40.65097-.31879"/>
<use data-text="L" xlink:href="#font_2_3" transform="matrix(21.5193,0,0,-21.5193,43.915269,32.548334)"/>
</svg>
