<svg xmlns="http://www.w3.org/2000/svg" xmlns:xlink="http://www.w3.org/1999/xlink" version="1.1" width="332.49104" height="280.6584" viewBox="0 0 332.49104 280.6584">
<defs>
<path id="font_6_4" d="M.04598999 .23046875H.70399478L.70999148 .27046205H.052993776L.04598999 .23046875Z"/>
<path id="font_6_21" d="M-.0010070801 .19134522H.2829895L.2899933 .18232727C.2899933 .119262699 .2899933 .03616333 .2849884 .0011138916L.2899933-.0048828127 .36999513 .028152466C.36698915 .0501709 .36698915 .12927246 .36698915 .18333435L.375 .19134522H.45700074L.47299195 .22834778 .46798707 .23535156H.37399293L.36698915 .24433899C.36698915 .39926148 .36698915 .67111209 .36799623 .6980896L.36099244 .70410159 .2849884 .66911318-.0010070801 .23535156V.19134522M.06399536 .24234009C.06498718 .264328 .14898682 .4022522 .18699646 .46122743 .21598816 .50619509 .24598694 .5521698 .27999879 .591156 .28199769 .5931549 .2869873 .5941467 .2889862 .591156 .2889862 .5901489 .2899933 .5871582 .2899933 .5851593V.24334717L.28399659 .23535156H.068984989L.06399536 .24234009Z"/>
<path id="font_6_22" d="M.011993408 .001953125H.44898988L.47200013 .079940799 .46699525 .08795166H.1579895C.15299988 .08795166 .147995 .08894348 .1459961 .092941287 .14498902 .094940189 .1459961 .09794617 .14698792 .09895325 .19699097 .1569519 .24499512 .21495056 .2899933 .27496339 .32199098 .31697084 .35299684 .358963 .37799073 .40496827 .4039917 .4509735 .42599488 .49998475 .42599488 .5529938 .42599488 .59399417 .4139862 .6349945 .38398744 .66400149 .35499574 .69299319 .31599427 .7080078 .2749939 .7080078 .23699951 .7080078 .20098877 .6970062 .16799927 .67900088 .12799073 .65800479 .09399414 .6279907 .06399536 .59498599L.083999637 .57598879C.10798645 .59599307 .12998963 .61099246 .1579895 .6259918 .1769867 .6360016 .19898987 .6399994 .22099304 .6399994 .25 .6399994 .27999879 .6289978 .2999878 .6069946 .32798768 .5779877 .33399964 .5369873 .33399964 .50798037 .33399964 .4429779 .31098939 .38197328 .27598573 .3259735 .24798584 .27996827 .21299744 .23796082 .17799378 .19696045 .125 .13494873 .068984989 .07594299 .011993408 .017944336V.001953125Z"/>
<clipPath id="clip_7">
<path transform="matrix(1.5,0,0,-1.5,23.368416,261.3749)" d="M0 0H194.26912V161.39636H0Z"/>
</clipPath>
</defs>
<path transform="matrix(1.5,0,0,-1.5,23.368416,261.3749)" stroke-width=".3985" stroke-linecap="butt" stroke-miterlimit="10" stroke-linejoin="miter" fill="none" stroke="#bfbfbf" d="M24.28363 0V161.39636M72.8509 0V161.39636M121.4182 0V161.39636M169.98548 0V161.39636"/>
<path transform="matrix(1.5,0,0,-1.5,23.368416,261.3749)" stroke-width=".3985" stroke-linecap="butt" stroke-miterlimit="10" stroke-linejoin="miter" fill="none" stroke="#bfbfbf" d="M0 0V161.39636M48.56728 0V161.39636M145.70183 0V161.39636M194.26912 0V161.39636"/>
<path transform="matrix(1.5,0,0,-1.5,23.368416,261.3749)" stroke-width=".3985" stroke-linecap="butt" stroke-miterlimit="10" stroke-linejoin="miter" fill="none" stroke="#bfbfbf" d="M0 20.17455H194.26912M0 60.52364H194.26912M0 100.87273H194.26912M0 141.22182H194.26912"/>
<path transform="matrix(1.5,0,0,-1.5,23.368416,261.3749)" stroke-width=".3985" stroke-linecap="butt" stroke-miterlimit="10" stroke-linejoin="miter" fill="none" stroke="#bfbfbf" d="M0 0H194.26912M0 40.34909H194.26912M0 121.04727H194.26912M0 161.39636H194.26912"/>
<path transform="matrix(1.5,0,0,-1.5,23.368416,261.3749)" stroke-width=".19925" stroke-linecap="butt" stroke-miterlimit="10" stroke-linejoin="miter" fill="none" stroke="#e6e6e6" d="M24.28363 79.28072V82.11563M72.8509 79.28072V82.11563M121.4182 79.28072V82.11563M169.98548 79.28072V82.11563"/>
<path transform="matrix(1.5,0,0,-1.5,23.368416,261.3749)" stroke-width=".19925" stroke-linecap="butt" stroke-miterlimit="10" stroke-linejoin="miter" fill="none" stroke="#e6e6e6" d="M0 78.57219V82.82414M48.56728 78.57219V82.82414M145.70183 78.57219V82.82414M194.26912 78.57219V82.82414"/>
<path transform="matrix(1.5,0,0,-1.5,23.368416,261.3749)" stroke-width=".19925" stroke-linecap="butt" stroke-miterlimit="10" stroke-linejoin="miter" fill="none" stroke="#e6e6e6" d="M95.7171 20.17455H98.552M95.7171 60.52364H98.552M95.7171 100.87273H98.552M95.7171 141.22182H98.552"/>
<path transform="matrix(1.5,0,0,-1.5,23.368416,261.3749)" stroke-width=".19925" stroke-linecap="butt" stroke-miterlimit="10" stroke-linejoin="miter" fill="none" stroke="#e6e6e6" d="M95.0086 0H99.26048M95.0086 40.34909H99.26048M95.0086 121.04727H99.26048M95.0086 161.39636H99.26048"/>
<path transform="matrix(1.5,0,0,-1.5,23.368416,261.3749)" stroke-width=".3985" stroke-linecap="butt" stroke-miterlimit="10" stroke-linejoin="miter" fill="none" stroke="#000000" d="M3.58653 80.69818H190.68257"/>
<path transform="matrix(-1.5,-0,0,1.5,28.74821,140.32764)" d="M3.58653 0C2.52383 .19925 .797 .797-.3985 1.49438V-1.49438C.797-.797 2.52383-.19925 3.58653 0"/>
<path transform="matrix(1.5,0,0,-1.5,309.39228,140.32764)" d="M3.58653 0C2.52383 .19925 .797 .797-.3985 1.49438V-1.49438C.797-.797 2.52383-.19925 3.58653 0"/>
<path transform="matrix(1.5,0,0,-1.5,23.368416,261.3749)" stroke-width=".3985" stroke-linecap="butt" stroke-miterlimit="10" stroke-linejoin="miter" fill="none" stroke="#000000" d="M97.13455 3.58653V157.80982"/>
<path transform="matrix(0,1.5,1.5,0,169.07025,255.99512)" d="M3.58653 0C2.52383 .19925 .797 .797-.3985 1.49438V-1.49438C.797-.797 2.52383-.19925 3.58653 0"/>
<path transform="matrix(0,-1.5,-1.5,-0,169.07025,24.660187)" d="M3.58653 0C2.52383 .19925 .797 .797-.3985 1.49438V-1.49438C.797-.797 2.52383-.19925 3.58653 0"/>
<path transform="matrix(1.5,0,0,-1.5,23.368416,261.3749)" d="M-11.03622 61.74715H11.036231V78.37295H-11.03622Z" fill="#ffffff"/>
<use data-text="&#x2212;" xlink:href="#font_6_4" transform="matrix(14.94396,0,0,-14.94396,13.988765,161.50623)"/>
<use data-text="4" xlink:href="#font_6_21" transform="matrix(14.94396,0,0,-14.94396,25.301342,161.50623)"/>
<path transform="matrix(1.5,0,0,-1.5,23.368416,261.3749)" d="M37.53603 61.75708H59.5985V78.372928H37.53603Z" fill="#ffffff"/>
<use data-text="&#x2212;" xlink:href="#font_6_4" transform="matrix(14.94396,0,0,-14.94396,86.84622,161.56598)"/>
<use data-text="2" xlink:href="#font_6_22" transform="matrix(14.94396,0,0,-14.94396,98.14385,161.56598)"/>
<path transform="matrix(1.5,0,0,-1.5,23.368416,261.3749)" d="M138.43445 61.75708H152.96921V78.372928H138.43445Z" fill="#ffffff"/>
<use data-text="2" xlink:href="#font_6_22" transform="matrix(14.94396,0,0,-14.94396,238.1919,161.56598)"/>
<path transform="matrix(1.5,0,0,-1.5,23.368416,261.3749)" d="M186.99675 61.74715H201.54148V78.37295H186.99675Z" fill="#ffffff"/>
<use data-text="4" xlink:href="#font_6_21" transform="matrix(14.94396,0,0,-14.94396,311.04933,161.50623)"/>
<path transform="matrix(1.5,0,0,-1.5,23.368416,261.3749)" d="M72.7369-8.3129H94.80935V8.3129H72.7369Z" fill="#ffffff"/>
<use data-text="&#x2212;" xlink:href="#font_6_4" transform="matrix(14.94396,0,0,-14.94396,139.64685,266.59498)"/>
<use data-text="4" xlink:href="#font_6_21" transform="matrix(14.94396,0,0,-14.94396,150.95943,266.59498)"/>
<path transform="matrix(1.5,0,0,-1.5,23.368416,261.3749)" d="M72.74687 32.04115H94.80934V48.65699H72.74687Z" fill="#ffffff"/>
<use data-text="&#x2212;" xlink:href="#font_6_4" transform="matrix(14.94396,0,0,-14.94396,139.6618,206.13933)"/>
<use data-text="2" xlink:href="#font_6_22" transform="matrix(14.94396,0,0,-14.94396,150.95944,206.13933)"/>
<path transform="matrix(1.5,0,0,-1.5,23.368416,261.3749)" d="M80.27458 112.73933H94.80934V129.35517H80.27458Z" fill="#ffffff"/>
<use data-text="2" xlink:href="#font_6_22" transform="matrix(14.94396,0,0,-14.94396,150.95322,85.0936)"/>
<path transform="matrix(1.5,0,0,-1.5,23.368416,261.3749)" d="M80.26462 153.08347H94.80934V169.70926H80.26462Z" fill="#ffffff"/>
<use data-text="4" xlink:href="#font_6_21" transform="matrix(14.94396,0,0,-14.94396,150.9532,24.50354)"/>
<g clip-path="url(#clip_7)">
<path transform="matrix(1.5,0,0,-1.5,23.368416,261.3749)" stroke-width="1.19553" stroke-linecap="butt" stroke-miterlimit="10" stroke-linejoin="miter" fill="none" stroke="#000000" d="M97.13455 80.69818 142.11052 136.74629"/>
<path transform="matrix(.93873,-1.16985,-1.16985,-.93873,236.53418,56.255495)" d="M5.73854 0C4.0382 .31879 1.27522 1.27522-.6376 2.39105V-2.39105C1.27522-1.27522 4.0382-.31879 5.73854 0"/>
<path transform="matrix(1.5,0,0,-1.5,23.368416,261.3749)" stroke-width=".3985" stroke-linecap="butt" stroke-miterlimit="10" stroke-linejoin="miter" fill="none" stroke="#ff0000" d="M97.13455 80.69818H142.1153"/>
<path transform="matrix(1.5,0,0,-1.5,236.54135,140.32764)" d="M3.58653 0C2.52383 .19925 .797 .797-.3985 1.49438V-1.49438C.797-.797 2.52383-.19925 3.58653 0" fill="#ff0000"/>
<path transform="matrix(1.5,0,0,-1.5,23.368416,261.3749)" stroke-width=".3985" stroke-linecap="butt" stroke-miterlimit="10" stroke-linejoin="miter" fill="none" stroke="#ff0000" d="M145.70183 80.69818V137.63527"/>
<path transform="matrix(0,-1.5,-1.5,-0,241.92115,54.921998)" d="M3.58653 0C2.52383 .19925 .797 .797-.3985 1.49438V-1.49438C.797-.797 2.52383-.19925 3.58653 0" fill="#ff0000"/>
</g>
</svg>
