<svg xmlns="http://www.w3.org/2000/svg" xmlns:xlink="http://www.w3.org/1999/xlink" xmlns:inkscape="http://www.inkscape.org/namespaces/inkscape" version="1.1" width="403.49018" height="185.38494" viewBox="0 0 403.49018 185.38494">
<defs>
<path id="font_12_4" d="M.04598999 .23046875H.70399478L.70999148 .27046205H.052993776L.04598999 .23046875Z"/>
<path id="font_12_5" d="M.04598999 .23632813H.35598756V-.07368469L.3959961-.06668091V.23632813H.70399478L.70899966 .2763214H.3959961V.58631899L.35598756 .58032229V.2763214H.052993776L.04598999 .23632813Z"/>
<path id="font_12_10" d="M-.021011353 .41119386-.012008667 .38719178C.010986328 .40019227 .0289917 .40820313 .050994874 .40820313 .06298828 .40820313 .07199097 .40119935 .07798767 .39118959 .09098816 .36920167 .115997318 .2982025 .1289978 .2472229L.19799805-.0107421879H.22200012C.22698975-.007751465 .24099732 .0062408449 .2519989 .017242432 .31098939 .07723999 .3659973 .14022827 .41099549 .21221924 .43899537 .25820924 .46598817 .3072052 .46598817 .36219789 .46598817 .41619874 .44699098 .44519044 .42900086 .459198 .4269867 .46218873 .4229889 .46218873 .41999818 .46218873 .41799928 .46218873 .4149933 .46218873 .4119873 .46018983L.3619995 .42520143C.3600006 .4232025 .35798646 .42019654 .35798646 .41719056 .35798646 .41519166 .35798646 .41319276 .35899354 .41220094 .37599183 .38020326 .3959961 .34420777 .3959961 .31221009 .3959961 .27920533 .38398744 .24821472 .36799623 .21821594 .34700013 .17723084 .31900025 .13923645 .2889862 .10423279 .2809906 .09623718 .269989 .08224487 .2649994 .08224487 .2619934 .08224487 .25498963 .083236698 .2519989 .09223938 .23599243 .13923645 .21099854 .23521424 .19699097 .2932129 .18099976 .3531952 .1599884 .43519593 .14299011 .4521942 .1329956 .46218873 .11898804 .4691925 .10398865 .4691925 .085998538 .4691925 .068984989 .46218873 .051986696 .45419313 .025985718 .4421997 .0019989014 .42720033-.021011353 .41119386Z"/>
<path id="font_12_27" d="M.04699707 .39614869 .06199646 .37815858C.08898926 .39315797 .1269989 .41015626 .1519928 .41015626 .1639862 .41015626 .17298889 .40515138 .1789856 .39515687 .18699646 .3811493 .19099427 .35514833 .19099427 .3251648L.18499756 .10417175C.18499756 .060180665 .18699646 .03817749 .20298767 .020187378 .22200012-.0008239746 .24699402-.0078125 .27598573-.0078125 .30499269-.0078125 .33198548 .0051727297 .35598756 .019180298 .3869934 .03918457 .41099549 .062179567 .43399049 .08917236V.10017395L.4189911 .110183719C.40098573 .09617615 .3829956 .08418274 .36299134 .07417297 .34899903 .06817627 .33198548 .06518555 .31599427 .06518555 .29899598 .06518555 .2869873 .07417297 .27999879 .08717346 .269989 .10517883 .2669983 .14117432 .2669983 .18217469L.2749939 .39215089C.2749939 .41314698 .272995 .43714906 .2579956 .45315553 .24299622 .46914674 .22099304 .47114564 .20498657 .47114564 .18399048 .47114564 .1579895 .45915223 .13798523 .45014955 .11099243 .43815614 .07398987 .41514588 .04699707 .39614869M.1579895 .6273346C.1579895 .59532168 .18798828 .56933596 .22299195 .56933596 .25898744 .56933596 .2889862 .59233096 .2899933 .6253357 .2899933 .6553345 .2679901 .68333438 .22999573 .68333438 .19499207 .68333438 .15899658 .6613312 .1579895 .6273346Z"/>
<path id="font_12_7" d="M.11299133 .24990845C.11299133 .007904053 .1519928-.09008789 .18299866-.13310242 .21099854-.17008972 .25299073-.20809937 .30099488-.21209717V-.1880951C.2809906-.18409729 .25099183-.16809082 .23399353-.1481018 .21998596-.13209534 .16499329-.05809021 .16499329 .24990845 .16499329 .4618988 .19799805 .5659027 .21998596 .6128998 .23599243 .6469116 .2689972 .6769104 .30099488 .684906V.71191409C.2599945 .7049103 .21598816 .6729126 .19099427 .63790896 .1599884 .5919037 .11299133 .4748993 .11299133 .24990845Z"/>
<path id="font_12_8" d="M.016998291 .40538026 .021987915 .40039063H.13398743L.13999939 .39338685V.20327759C.13999939 .06820679 .14199829 .049209596 .16299439 .022201539 .18099976-.0018005371 .21199036-.0087890629 .23498535-.0087890629 .2619934-.0087890629 .2869873 .0012054443 .31098939 .014205933 .34298707 .031204224 .37199403 .05419922 .39898683 .07922363L.3919983 .09422302 .37998963 .096221927C.34999085 .07720947 .31399537 .0552063 .2889862 .0552063 .27198792 .0552063 .25698854 .06021118 .24398804 .07521057 .22200012 .099227908 .21798706 .16325379 .21798706 .20527649V.39437867L.22399903 .40039063H.34298707L.34899903 .40538026 .35699464 .43138124 .35198976 .43537904H.22399903L.21798706 .4403839C.21899414 .49838258 .22399903 .54937747 .22898865 .6063843L.22200012 .61138918 .13798523 .5823822C.13999939 .5563812 .13999939 .49238587 .13999939 .44137574L.13398743 .43537904H.02999878L.023986817 .42938233 .016998291 .40538026Z"/>
<path id="font_12_9" d="M.085998538-.1880951V-.21209717C.13398743-.20610047 .1789856-.17208863 .20698548-.13510132 .23799134-.09210205 .27598573 .007904053 .27598573 .24990845 .27598573 .50090029 .22399903 .5919037 .19299317 .63790896 .16799927 .6729126 .1269989 .7049103 .085998538 .71191409V.684906C.117996219 .6759033 .14898682 .6469116 .16499329 .6128998 .18699646 .5659027 .22399903 .48190309 .22399903 .24990845 .22399903-.099090579 .17199707-.13209534 .1579895-.1481018 .14099121-.16809082 .10598755-.18409729 .085998538-.1880951Z"/>
<path id="font_12_1" d="M.053985597 .65625C.054992677 .65625 .08999634 .6462555 .10798645 .6412506 .12098694 .6372528 .1309967 .6252594 .1309967 .61128237 .13198853 .5543213 .13398743 .45439149 .13398743 .43940736 .13398743 .29444886 .1329956 .14831543 .125 .003189087L.13598633-.0058135988 .21899414 .023208619C.21398926 .11929321 .21398926 .21638489 .21398926 .31245423 .21998596 .31245423 .22898865 .30845643 .23399353 .30345155 .2630005 .27442933 .3899994 .11128235 .48298646-.0078125L.58200076 .018203736V.02720642L.31900025 .3234558 .32099916 .33146668C.4039917 .3404541 .4850006 .3734131 .5169983 .44322206 .5319977 .47714234 .5359955 .49110414 .5359955 .53897097 .5359955 .57388308 .5219879 .6077881 .49699403 .63272097 .47999574 .6506958 .45700074 .6596985 .43299867 .6667023 .40098573 .67570498 .36698915 .67871096 .33299256 .67871096L.06098938 .679245 .054992677 .6732483 .053985597 .65625M.21299744 .37045289C.21299744 .375412 .21699524 .549942 .21899414 .61376956 .21998596 .63272097 .22299195 .6397095 .23098755 .6397095H.2709961C.2979889 .6397095 .32598878 .6377106 .35299684 .63072207 .37199403 .6257324 .3909912 .61776736 .40499879 .6037903 .42599488 .5828552 .43798829 .55293276 .43798829 .52301028 .43798829 .47813417 .41799928 .43624879 .3869934 .40533448 .35398866 .37141419 .30599977 .36044313 .2599945 .35646058 .24798584 .35546876 .23498535 .35546876 .22200012 .35546876 .21499634 .35546876 .21299744 .36444093 .21299744 .37042237V.37045289Z"/>
<path id="font_12_13" d="M.08799744 .6660156C.08898926 .6660156 .12998963 .65800479 .15299988 .65400698 .16999817 .65101626 .1769867 .63500979 .1769867 .62101748V.14308167C.1769867 .12908936 .17298889 .05709839 .16899109 .04710388 .16499329 .038101198 .1599884 .026107789 .1519928 .016113282V.0019683839C.30799867 .002105713 .5349884 .002105713 .61898806-.0048828127L.6339874 .048095704 .6239929 .05810547C.6159973 .05696106 .41099549 .04296875 .29299928 .04296875 .2869873 .04296875 .2789917 .049957277 .27799989 .05596924 .27398683 .16596985 .2709961 .28297425 .2709961 .39698792 .2709961 .47599793 .272995 .55200198 .2769928 .6240082 .27799989 .63500979 .28399659 .6470032 .2979889 .6490021 .32099916 .65400698 .36999513 .66300967 .37098695 .66300967V.68400576L.36499024 .69000247H.09599304L.08799744 .6830139V.6660156Z"/>
<path id="font_12_3" d="M.049987794 .6660156C.050994874 .6660156 .08799744 .65800479 .10798645 .65400698 .12298584 .65101626 .1289978 .63500979 .1289978 .62101748V.14308167C.1289978 .12908936 .12599182 .05709839 .12199402 .04710388 .11898804 .038101198 .11399841 .026107789 .10699463 .016113282V.0019683839C.24499512 .002105713 .44599916 .002105713 .519989-.0048828127L.5339966 .048095704 .5239868 .05810547C.5179901 .05696106 .33599855 .04296875 .23199463 .04296875 .22698975 .04296875 .21998596 .049957277 .21899414 .05596924 .21499634 .16497803 .21199036 .28097535 .21199036 .39398194 .21199036 .47299195 .21398926 .5509949 .21798706 .6240082 .21899414 .63500979 .22399903 .6470032 .23599243 .6490021 .25698854 .65400698 .2999878 .66300967 .30099488 .66300967V.68400576L.29499818 .69000247H.057998659L.050994874 .6830139 .049987794 .6660156Z"/>
<path id="font_12_11" d="M.1289978 .3262787C.1289978 .228302 .15899658 .12931824 .23799134 .05934143 .3019867 .0023498536 .394989-.0146484379 .48399354-.0146484379 .58200076-.0146484379 .6729889 .02734375 .7539978 .07633972L.7350006 .10533142C.6719971 .067337039 .6009979 .038345338 .5239868 .038345338 .43099977 .038345338 .38398744 .066345218 .32099916 .12132263 .28399659 .15431214 .22999573 .25230409 .22999573 .3442688 .22999573 .39326478 .23699951 .44325257 .2539978 .49024964 .2669983 .52822878 .28799439 .56422427 .31900025 .59321597 .36898805 .63720706 .43899537 .6582184 .5079956 .6582184 .55999758 .6582184 .6139984 .6462097 .651001 .6132202 .6769867 .5902252 .69699099 .5612335 .70999148 .52923586L.7259979 .52822878 .7899933 .5862274C.7779999 .6042175 .7630005 .6212158 .74598696 .6362152 .69400027 .6832123 .6199951 .69921877 .54599 .69921877 .42900086 .69921877 .31498719 .663208 .23199463 .5902252 .15299988 .52124026 .1289978 .42225648 .1289978 .3262787Z"/>
<path id="font_12_28" d="M.09399414 .19650269C.09899902 .13343811 .117996219 .069366458 .17199707 .026321412 .20999146-.0036773682 .2639923-.013671875 .31399537-.013671875 .3929901-.013671875 .47399903 .0063171389 .5269928 .05935669 .57699587 .1084137 .59298709 .17448426 .59298709 .23954773 .59298709 .30662538 .57299807 .3777008 .5159912 .42474366 .47499085 .4567566 .42199708 .46574403 .36898805 .46574403 .2899933 .46574403 .20999146 .4437561 .1559906 .39170838 .101989749 .33966065 .09399414 .26557923 .09399414 .19650269M.19099427 .23954773C.19099427 .26557923 .19400025 .29161073 .19999695 .31663514 .20698548 .34165956 .21699524 .36567689 .23699951 .3847046 .2659912 .412735 .30899049 .4267578 .34298707 .4267578 .37298585 .4267578 .4039917 .41973878 .42599488 .40072633 .48298646 .3566742 .49198915 .28459168 .49198915 .22053528 .49198915 .1934967 .48999024 .16647339 .48298646 .13943482 .47599793 .1124115 .46499635 .08538818 .44299317 .06436157 .4169922 .03933716 .38198854 .027313233 .34399415 .027313233 .31399537 .027313233 .28399659 .036331178 .2630005 .053344728 .20498657 .09840393 .19099427 .17347718 .19099427 .23954773Z"/>
<path id="font_12_2" d="M.08699036 .3262787C.08699036 .228302 .11299133 .12931824 .18299866 .05934143 .23999024 .0023498536 .32199098-.0146484379 .40098573-.0146484379 .48799134-.0146484379 .56799319 .02734375 .6399994 .07633972L.6230011 .10533142C.5669861 .067337039 .5039978 .038345338 .43598939 .038345338 .35398866 .038345338 .31199647 .066345218 .25698854 .12132263 .22399903 .15431214 .17599488 .25230409 .17599488 .3442688 .17599488 .39326478 .18199158 .44325257 .19699097 .49024964 .20899964 .52822878 .22698975 .56422427 .25498963 .59321597 .29899598 .63720706 .36099244 .6582184 .42199708 .6582184 .46798707 .6582184 .5159912 .6462097 .548996 .6132202 .57199099 .5902252 .58898928 .5612335 .6009979 .52923586L.61499026 .52822878 .6719971 .5862274C.6609955 .6042175 .647995 .6212158 .6329956 .6362152 .58699038 .6832123 .5209961 .69921877 .45599366 .69921877 .35198976 .69921877 .25099183 .663208 .17799378 .5902252 .10798645 .52124026 .08699036 .42225648 .08699036 .3262787Z"/>
</defs>
<path transform="matrix(1.5,0,0,-1.5,83.74454,177.9729)" stroke-width=".79701" stroke-linecap="butt" stroke-miterlimit="10" stroke-linejoin="miter" fill="none" stroke="#000000" d="M0 0V30.61449M0 54.42592V85.04042"/>
<path transform="matrix(1.5,0,0,-1.5,83.74454,177.9729)" stroke-width=".79701" stroke-linecap="butt" stroke-miterlimit="10" stroke-linejoin="miter" fill="none" stroke="#000000" d="M-11.90572 42.5202C-11.90572 49.09561-6.57541 54.42592 0 54.42592 6.57541 54.42592 11.90572 49.09561 11.90572 42.5202 11.90572 35.94478 6.57541 30.61449 0 30.61449-6.57541 30.61449-11.90572 35.94478-11.90572 42.5202ZM0 42.5202"/>
<use data-text="&#x2212;" xlink:href="#font_12_4" transform="matrix(-21.5193,-0,0,-21.5193,91.87436,125.10262)"/>
<use data-text="+" xlink:href="#font_12_5" transform="matrix(-21.5193,-0,0,-21.5193,91.86362,114.29602)"/>
<use data-text="v" xlink:href="#font_12_10" transform="matrix(21.5193,0,0,-21.5193,10.254743,119.570308)"/>
<use data-text="i" xlink:href="#font_12_27" transform="matrix(16.43835,0,0,-16.43835,20.90094,123.392948)"/>
<use data-text="(" xlink:href="#font_12_7" transform="matrix(21.5193,0,0,-21.5193,28.557007,119.570308)"/>
<use data-text="t" xlink:href="#font_12_8" transform="matrix(21.5193,0,0,-21.5193,38.102109,119.570308)"/>
<use data-text=")" xlink:href="#font_12_9" transform="matrix(21.5193,0,0,-21.5193,48.24975,119.570308)"/>
<path transform="matrix(1.5,0,0,-1.5,83.74454,177.9729)" stroke-width=".79701" stroke-linecap="butt" stroke-miterlimit="10" stroke-linejoin="miter" fill="none" stroke="#000000" d="M0 85.04042 26.64601 85.0404M58.3944 85.0404 85.04042 85.04042 85.0404 54.42592M85.0404 30.61449 85.04042 0H0"/>
<path transform="matrix(1.5,0,0,-1.5,83.74454,177.9729)" stroke-width=".79701" stroke-linecap="butt" stroke-linejoin="bevel" fill="none" stroke="#000000" d="M26.2475 85.0404 29.2917 90.99326 34.58308 79.08755 39.87447 90.99326 45.16585 79.08755 50.45723 90.99326 55.74861 79.08755 58.7928 85.0404"/>
<use data-text="R" xlink:href="#font_12_1" transform="matrix(21.5193,0,0,-21.5193,135.29868,32.526506)"/>
<use data-text="L" xlink:href="#font_12_13" transform="matrix(16.43835,0,0,-16.43835,148.39675,36.464159)"/>
<path transform="matrix(1.5,0,0,-1.5,83.74454,177.9729)" stroke-width=".79701" stroke-linecap="butt" stroke-linejoin="bevel" fill="none" stroke="#000000" d="M84.7216 54.82442C88.00931 54.82442 90.67445 53.18968 90.67445 51.17308 90.67445 49.15646 88.00931 47.52173 84.7216 47.52173 83.07785 47.52173 81.74533 48.18799 81.74533 49.00986 81.74533 49.83174 83.07785 50.498 84.7216 50.498 88.00931 50.498 90.67445 48.86325 90.67445 46.84665 90.67445 44.83005 88.00931 43.1953 84.7216 43.1953 83.07785 43.1953 81.74533 43.86156 81.74533 44.68344 81.74533 45.50533 83.07785 46.17159 84.7216 46.17159 88.00931 46.17159 90.67445 44.53683 90.67445 42.52023 90.67445 40.50363 88.00931 38.86888 84.7216 38.86888 83.07785 38.86888 81.74533 39.53514 81.74533 40.35703 81.74533 41.1789 83.07785 41.84515 84.7216 41.84515 88.00931 41.84515 90.67445 40.2104 90.67445 38.1938 90.67445 36.1772 88.00931 34.54247 84.7216 34.54247 83.07785 34.54247 81.74533 35.20871 81.74533 36.0306 81.74533 36.85248 83.07785 37.51874 84.7216 37.51874 88.00931 37.51874 90.67445 35.88399 90.67445 33.86739 90.67445 31.85078 88.00931 30.21603 84.7216 30.21603"/>
<use data-text="L" xlink:href="#font_12_3" transform="matrix(21.5193,0,0,-21.5193,225.1583,119.57028)"/>
<path transform="matrix(1.5,0,0,-1.5,83.74454,177.9729)" stroke-width=".79701" stroke-linecap="butt" stroke-miterlimit="10" stroke-linejoin="miter" fill="none" stroke="#000000" d="M85.04042 85.04042 111.68643 85.0404M143.43483 85.0404 170.08086 85.04042V46.48868M170.08086 38.55173V0H85.04042"/>
<path transform="matrix(1.5,0,0,-1.5,83.74454,177.9729)" stroke-width=".79701" stroke-linecap="butt" stroke-linejoin="bevel" fill="none" stroke="#000000" d="M111.28793 85.0404 114.33212 90.99326 119.6235 79.08755 124.91489 90.99326 130.20627 79.08755 135.49767 90.99326 140.78905 79.08755 143.83324 85.0404"/>
<use data-text="R" xlink:href="#font_12_1" transform="matrix(21.5193,0,0,-21.5193,261.4201,32.526506)"/>
<use data-text="C" xlink:href="#font_12_11" transform="matrix(16.43835,0,0,-16.43835,274.51817,36.612)"/>
<use data-text="v" xlink:href="#font_12_10" transform="matrix(14.94396,0,0,-14.94396,354.70848,54.147844)"/>
<use data-text="o" xlink:href="#font_12_28" transform="matrix(11.417191,0,0,-11.417191,362.10166,56.388216)"/>
<use data-text="(" xlink:href="#font_12_7" transform="matrix(14.94396,0,0,-14.94396,370.04368,54.147844)"/>
<use data-text="t" xlink:href="#font_12_8" transform="matrix(14.94396,0,0,-14.94396,376.6722,54.147844)"/>
<use data-text=")" xlink:href="#font_12_9" transform="matrix(14.94396,0,0,-14.94396,383.7192,54.147844)"/>
<path transform="matrix(1.5,0,0,-1.5,83.74454,177.9729)" stroke-width=".79701" stroke-linecap="butt" stroke-miterlimit="10" stroke-linejoin="miter" fill="none" stroke="#000000" d="M181.98657 46.48868H158.17514M181.98657 38.55173H158.17514"/>
<path transform="matrix(1.5,0,0,-1.5,83.74454,177.9729)" d="M171.668 85.04042C171.668 85.91698 170.95742 86.62756 170.08086 86.62756 169.20429 86.62756 168.4937 85.91698 168.4937 85.04042 168.4937 84.16386 169.20429 83.45328 170.08086 83.45328 170.95742 83.45328 171.668 84.16386 171.668 85.04042ZM170.08086 85.04042"/>
<path transform="matrix(1.5,0,0,-1.5,83.74454,177.9729)" stroke-width=".79701" stroke-linecap="butt" stroke-miterlimit="10" stroke-linejoin="miter" fill="none" stroke="#000000" d="M171.668 85.04042C171.668 85.91698 170.95742 86.62756 170.08086 86.62756 169.20429 86.62756 168.4937 85.91698 168.4937 85.04042 168.4937 84.16386 169.20429 83.45328 170.08086 83.45328 170.95742 83.45328 171.668 84.16386 171.668 85.04042ZM170.08086 85.04042"/>
<use data-text="C" xlink:href="#font_12_2" transform="matrix(21.5193,0,0,-21.5193,362.53947,119.57028)"/>
</svg>
