<svg xmlns="http://www.w3.org/2000/svg" xmlns:xlink="http://www.w3.org/1999/xlink" version="1.1" width="26.577094" height="10.260595" viewBox="0 0 26.577094 10.260595">
<defs>
<path id="font_1_1" d="M.47499085 .63119509C.5359955 .6308899 .54499819 .6848602 .54499819 .71484377 .54499819 .7151947 .5269928 .7001953 .45899964 .7001953H.08799744C.019989014 .69984439 .0019989014 .71484377 .0019989014 .71484377 .0019989014 .68518069 .010986328 .63119509 .07199097 .63119509H.22999573V.040222169C.22999573-.009765625 .31399537-.009765625 .31399537-.009765625V.63119509H.47499085Z"/>
<path id="font_1_2" d="M.43199159 .16400147C.43199159 .094177249 .35899354 .058273317 .27198792 .058273317 .1789856 .058273317 .13999939 .094177249 .13999939 .16400147V.23687744C.1639862 .21987915 .21598816 .21289063 .25 .21289063 .39698792 .21289063 .45199586 .2798767 .45199586 .36079408 .45199586 .45170594 .3889923 .51171877 .2619934 .51171877 .1349945 .51171877 .05999756 .45170594 .05999756 .35081483V.14904785C.05999756 .04827881 .13899231-.01171875 .2659912-.01171875 .3639984-.01171875 .45799256 .024276734 .45799256 .094177249 .45799256 .11512756 .44999696 .13807678 .43199159 .16400147M.13999939 .3358307C.13999939 .40574647 .17298889 .4467163 .2619934 .4467163 .34399415 .4467163 .37199403 .41174317 .37199403 .36079408 .37199403 .31185914 .33898927 .2828827 .24398804 .2828827 .20098877 .2828827 .14099121 .29885865 .13999939 .30085755V.3358307Z"/>
<path id="font_1_3" d="M.039993287 .35583497C.039993287 .14614868 .3619995 .28894044 .3619995 .1451416 .3619995 .095214847 .33898927 .058273317 .23599243 .058273317 .1329956 .058273317 .069992069 .09422302 .069992069 .16412354 .050994874 .13417053 .042999269 .109191898 .042999269 .0872345 .042999269 .01727295 .1309967-.01171875 .23599243-.01171875 .37298585-.01171875 .44198609 .04927063 .44198609 .14015198 .44198609 .3718109 .11999512 .23701477 .11999512 .35583497 .11999512 .41575624 .14299011 .44171144 .23599243 .44171144 .33898927 .44171144 .3919983 .4047699 .3919983 .3358612 .4119873 .3668213 .42099 .39378358 .42099 .41575624 .42099 .4837036 .33898927 .51171877 .23599243 .51171877 .10899353 .51171877 .039993287 .45671083 .039993287 .35583497Z"/>
<path id="font_1_4" d="M.069992069 .14929199C.069992069 .04827881 .13899231-.01171875 .24598694-.01171875 .32699586-.01171875 .40899659 .022277832 .40899659 .090286258 .40899659 .11128235 .40098573 .1362915 .38198854 .16429138 .38198854 .09628296 .32299806 .058273317 .2539978 .058273317 .1749878 .058273317 .1499939 .105285648 .1499939 .17729187V.41635133H.30899049C.35798646 .41635133 .35899354 .48535157 .35899354 .48535157H.1499939V.5682068C.1499939 .61813357 .069992069 .6191406 .069992069 .6191406V.14929199Z"/>
</defs>
<use data-text="T" xlink:href="#font_1_1" transform="matrix(14.3462,0,0,-14.3462,0,10.174492)"/>
<use data-text="e" xlink:href="#font_1_2" transform="matrix(14.3462,0,0,-14.3462,6.4123218,10.174492)"/>
<use data-text="s" xlink:href="#font_1_3" transform="matrix(14.3462,0,0,-14.3462,13.7001919,10.174492)"/>
<use data-text="t" xlink:href="#font_1_4" transform="matrix(14.3462,0,0,-14.3462,20.61506,10.174492)"/>
</svg>
