<svg xmlns="http://www.w3.org/2000/svg" xmlns:xlink="http://www.w3.org/1999/xlink" xmlns:inkscape="http://www.inkscape.org/namespaces/inkscape" version="1.1" width="598.5528" height="186.39797" viewBox="0 0 598.5528 186.39797">
<defs>
<path id="font_5_6" d="M-.0010070801 .39526368 .011993408 .3752594C.034988405 .3882599 .068984989 .40527345 .08299255 .40527345 .09498596 .40527345 .10499573 .40325929 .11099243 .39627076 .12399292 .38226319 .12799073 .3662567 .12799073 .2752533 .12799073 .24624634 .12399292 .14523316 .12399292 .11222839 .12399292 .041229249 .14698792-.009765625 .22898865-.009765625 .2889862-.00982666 .37998963 .043182374 .4169922 .06518555L.4249878 .06417847C.4269867 .045181276 .42999269-.0078125 .49398805-.0078125 .54599-.0078125 .625 .060180665 .6549988 .08618164L.6439972 .10519409 .6359863 .10719299C.61898806 .095184329 .57199099 .06518555 .548996 .06518555 .5369873 .06518555 .5249939 .07017517 .5159912 .07917786 .5 .095184329 .5 .14520264 .5 .18121338 .5 .2732544 .5039978 .3662567 .5119934 .45925904L.49899293 .47026063 .42199708 .43527223C.4229889 .41226197 .4229889 .3692627 .4229889 .31825257 .4229889 .24925232 .4229889 .1662445 .42199708 .10423279 .39698792 .0892334 .33198548 .051223756 .29100038 .051223756 .20899964 .051223756 .20098877 .11022949 .20098877 .24424744 .20098877 .2962494 .20098877 .3792572 .19898987 .39926148 .19699097 .41926576 .19499207 .43927003 .18099976 .45326234 .16899109 .465271 .15098572 .46826173 .1349945 .46826173 .09599304 .46826173 .024993897 .41526795-.0010070801 .39526368Z"/>
<path id="font_5_7" d="M.11299133 .24990845C.11299133 .007904053 .1519928-.09008789 .18299866-.13310242 .21099854-.17008972 .25299073-.20809937 .30099488-.21209717V-.1880951C.2809906-.18409729 .25099183-.16809082 .23399353-.1481018 .21998596-.13209534 .16499329-.05809021 .16499329 .24990845 .16499329 .4618988 .19799805 .5659027 .21998596 .6128998 .23599243 .6469116 .2689972 .6769104 .30099488 .684906V.71191409C.2599945 .7049103 .21598816 .6729126 .19099427 .63790896 .1599884 .5919037 .11299133 .4748993 .11299133 .24990845Z"/>
<path id="font_5_8" d="M.016998291 .40538026 .021987915 .40039063H.13398743L.13999939 .39338685V.20327759C.13999939 .06820679 .14199829 .049209596 .16299439 .022201539 .18099976-.0018005371 .21199036-.0087890629 .23498535-.0087890629 .2619934-.0087890629 .2869873 .0012054443 .31098939 .014205933 .34298707 .031204224 .37199403 .05419922 .39898683 .07922363L.3919983 .09422302 .37998963 .096221927C.34999085 .07720947 .31399537 .0552063 .2889862 .0552063 .27198792 .0552063 .25698854 .06021118 .24398804 .07521057 .22200012 .099227908 .21798706 .16325379 .21798706 .20527649V.39437867L.22399903 .40039063H.34298707L.34899903 .40538026 .35699464 .43138124 .35198976 .43537904H.22399903L.21798706 .4403839C.21899414 .49838258 .22399903 .54937747 .22898865 .6063843L.22200012 .61138918 .13798523 .5823822C.13999939 .5563812 .13999939 .49238587 .13999939 .44137574L.13398743 .43537904H.02999878L.023986817 .42938233 .016998291 .40538026Z"/>
<path id="font_5_9" d="M.085998538-.1880951V-.21209717C.13398743-.20610047 .1789856-.17208863 .20698548-.13510132 .23799134-.09210205 .27598573 .007904053 .27598573 .24990845 .27598573 .50090029 .22399903 .5919037 .19299317 .63790896 .16799927 .6729126 .1269989 .7049103 .085998538 .71191409V.684906C.117996219 .6759033 .14898682 .6469116 .16499329 .6128998 .18699646 .5659027 .22399903 .48190309 .22399903 .24990845 .22399903-.099090579 .17199707-.13209534 .1579895-.1481018 .14099121-.16809082 .10598755-.18409729 .085998538-.1880951Z"/>
<path id="font_5_15" d="M.049987794 .6621094C.07499695 .65509036 .1329956 .64308169 .1329956 .61105349V.08099365C.1329956 .069992069 .13198853 .045013429 .1309967 .042007448 .1289978 .036010744 .115997318 .020019532 .10998535 .011016846L.11099243 .0010223389C.11199951 .0010223389 .24299622 .000015258789 .30899049-.0009765625 .3849945-.0009765625 .46598817 .012008667 .5209961 .067993167 .55599978 .10298157 .57398989 .1509552 .57398989 .20092774 .57398989 .24391175 .5649872 .28388978 .5339966 .3148651 .5009918 .34884645 .44299317 .35984803 .37998963 .3698578L.3809967 .3778534C.42099 .3948822 .46099855 .41192628 .4909973 .44299317 .519989 .4720459 .5339966 .51213076 .5339966 .55322268 .5339966 .58529666 .5219879 .61535647 .5 .6384125 .47999574 .658432 .42900086 .6864319 .30499269 .6864319L.057998659 .6860962 .050994874 .67910769 .049987794 .6621094M.21499634 .06599426V.3378601C.21499634 .34484864 .23199463 .3458557 .25 .3458557 .30599977 .3458557 .34899903 .3438568 .3829956 .33485414 .4079895 .3278656 .48298646 .3108673 .48298646 .20793152 .48298646 .16395569 .46998597 .12097168 .43899537 .08898926 .3999939 .05101013 .34399415 .039016725 .2899933 .039016725 .23799134 .039016725 .21499634 .040008546 .21499634 .06599426M.21499634 .39085389V.6290741C.21499634 .64541628 .24598694 .6484375 .28799439 .6484375 .31498719 .6484375 .3769989 .64541628 .4019928 .62939456 .43399049 .6083374 .44898988 .5752716 .44898988 .5452118 .44898988 .5031128 .43598939 .46102906 .4059906 .43095399 .36999513 .39588929 .32699586 .38085938 .24899292 .38085938 .23399353 .38085938 .21499634 .38085938 .21499634 .39086915V.39085389Z"/>
<path id="font_5_5" d="M.04598999 .23632813H.35598756V-.07368469L.3959961-.06668091V.23632813H.70399478L.70899966 .2763214H.3959961V.58631899L.35598756 .58032229V.2763214H.052993776L.04598999 .23632813Z"/>
<path id="font_5_16" d="M.09199524 .6121063H.1749878C.19999695 .6121063 .21998596 .5911102 .22099304 .56611636 .22200012 .5411072 .22200012 .46810914 .22200012 .41911317 .22200012 .27911378 .21899414 .13911438 .21398926 .00010681152L.22599793-.0048828127 .30999757 .022109986C.30699159 .09811401 .30699159 .29611207 .30699159 .43211366 .30699159 .52111819 .30899049 .6111145 .31399537 .70010378L.30799867 .7121124 .09199524 .6391144V.6121063Z"/>
<path id="font_5_17" d="M.051986696 .06642151C.06199646 .047409059 .07598877 .030395508 .09199524 .01638794 .12098694-.009613037 .16099549-.016601563 .19898987-.016601563 .2559967-.016601563 .31199647 .0023956299 .35099793 .044403078 .375 .06941223 .3869934 .10343933 .3869934 .13845825 .3869934 .1634674 .37298585 .18649292 .35499574 .20449829 .34098817 .21850586 .3039856 .24052429 .27198792 .25453187 .24299622 .26654054 .19999695 .2885437 .18798828 .30055238 .17298889 .31655885 .1619873 .3285675 .1619873 .35058595 .1619873 .3725891 .16899109 .39360047 .18499756 .4086151 .19999695 .42362977 .22200012 .43164063 .24398804 .43164063 .2639923 .43164063 .2849884 .42462159 .29599 .4066162 .30599977 .39060975 .30799867 .3715973 .30899049 .35359193L.32099916 .34657289 .37599183 .38360597C.375 .40560914 .3639984 .42662049 .34799195 .44163514 .32499696 .46263124 .29299928 .46662904 .2630005 .46662904 .21398926 .46662904 .16699219 .45063783 .1309967 .4176178 .10398865 .39360047 .08999634 .35858155 .08999634 .32356263 .08999634 .29154969 .10798645 .26353456 .1309967 .2425232 .1539917 .22250366 .18399048 .2084961 .21499634 .1954956 .24099732 .18447876 .2689972 .17248535 .28799439 .1534729 .30299378 .13845825 .31399537 .11845398 .31399537 .09744263 .31399537 .079422 .30499269 .062408449 .29299928 .04940796 .27799989 .03340149 .25099183 .021392823 .22898865 .021392823 .19898987 .021392823 .17199707 .03439331 .1499939 .055404664 .1269989 .076416019 .116989139 .10644531 .114990238 .13645935L.100997928 .13745117 .051986696 .06642151Z"/>
<path id="font_5_18" d="M.024993897 .008056641 .027999878-.001953125 .11898804 .017059327 .23599243 .26541139C.23799134 .26942445 .24198914 .2734375 .24598694 .2734375H.47099305C.47399903 .2734375 .47999574 .26841737 .48199464 .26441957L.5359955 .076156619C.54299929 .050231935 .55799868-.009765625 .59399417-.009765625 .60899356-.009765625 .6239929-.0077667238 .6389923-.003768921L.7429962 .026229859 .74198916 .052230836C.7279968 .051223756 .71299746 .049224855 .69898989 .049224855 .6819916 .049224855 .6499939 .053237916 .6349945 .07925415 .59999087 .14030457 .57199099 .23640442 .5499878 .3174286 .5169983 .4373932 .47200013 .5973358 .45700074 .6803131H.2630005V.6533203L.35299684 .6383209C.3619995 .636322 .36499024 .6303253 .36499024 .6263275 .36499024 .6123352 .14698792 .20837403 .024993897 .008224487V.008056641M.2649994 .3194275C.2649994 .32043458 .2649994 .32643128 .2659912 .32843019L.38198854 .5723419C.38198854 .57333377 .3849945 .5763397 .3880005 .5763397 .3909912 .5763397 .3939972 .5743408 .394989 .5723419L.46499635 .32843019C.46499635 .3274231 .46699525 .3194275 .46699525 .3194275 .46699525 .3164215 .46499635 .3124237 .45999146 .3124237H.27198792C.2689972 .3124237 .2649994 .3164215 .2649994 .3194275Z"/>
<path id="font_5_2" d="M.08699036 .3262787C.08699036 .228302 .11299133 .12931824 .18299866 .05934143 .23999024 .0023498536 .32199098-.0146484379 .40098573-.0146484379 .48799134-.0146484379 .56799319 .02734375 .6399994 .07633972L.6230011 .10533142C.5669861 .067337039 .5039978 .038345338 .43598939 .038345338 .35398866 .038345338 .31199647 .066345218 .25698854 .12132263 .22399903 .15431214 .17599488 .25230409 .17599488 .3442688 .17599488 .39326478 .18199158 .44325257 .19699097 .49024964 .20899964 .52822878 .22698975 .56422427 .25498963 .59321597 .29899598 .63720706 .36099244 .6582184 .42199708 .6582184 .46798707 .6582184 .5159912 .6462097 .548996 .6132202 .57199099 .5902252 .58898928 .5612335 .6009979 .52923586L.61499026 .52822878 .6719971 .5862274C.6609955 .6042175 .647995 .6212158 .6329956 .6362152 .58699038 .6832123 .5209961 .69921877 .45599366 .69921877 .35198976 .69921877 .25099183 .663208 .17799378 .5902252 .10798645 .52124026 .08699036 .42225648 .08699036 .3262787Z"/>
<path id="font_5_19" d="M-.01701355 .40115357-.006011963 .38215638C.016998291 .39414979 .04798889 .41015626 .06498718 .41015626 .07699585 .41015626 .08898926 .4061432 .09599304 .39614869 .10798645 .38015748 .11099243 .33815003 .11099243 .29415895 .11099243 .26815797 .10699463 .1771698 .10699463 .15716553 .10699463 .059173585 .12599182-.0078125 .21099854-.0078125 .27198792-.0078125 .36499024 .048187257 .39898683 .06918335L.40499879 .06417847C.39898683-.02079773 .4019928-.19143677 .2559967-.19143677 .21099854-.19143677 .17298889-.1525116 .1519928-.114593509H.13899231L.09498596-.17047119 .09700012-.18145752C.12399292-.20942688 .1769867-.23242188 .22399903-.23242188 .2919922-.23242188 .36299134-.20843506 .41099549-.15750122 .45999146-.10560608 .48399354-.049728395 .4850006 .13816834 .4850006 .15716553 .4850006 .37615968 .4909973 .46214295L.47898866 .466156 .3999939 .42814637C.40499879 .35914613 .4079895 .28715516 .4079895 .21516419 .4079895 .1791687 .40699769 .14317322 .4059906 .108169559 .38598634 .09617615 .32598878 .05618286 .27198792 .05618286 .20799256 .05618286 .18099976 .092178348 .18099976 .22616577 .18099976 .28416444 .18499756 .34214784 .18499756 .39814759 .18499756 .41914369 .17799378 .4681549 .12199402 .4681549 .07899475 .4681549-.009002686 .40715028-.01701355 .40115357Z"/>
<path id="font_5_20" d="M.0019989014 .40022279 .015991211 .3822174C.033996583 .39422608 .05899048 .40722657 .07998657 .40722657 .09298706 .40722657 .10598755 .4012146 .114990238 .39222718 .14898682 .3572235 .18598938 .28224183 .21499634 .22325135 .1659851 .15925598 .115997318 .090270999 .07299805 .021270752V.0132751469L.100997928-.01171875 .116989139-.0077209474C.14698792 .0692749 .18699646 .1312561 .22599793 .19125366H.23298645C.25498963 .1482544 .28799439 .08627319 .30299378 .061279298 .31399537 .042266847 .32499696 .023269654 .34098817 .009277344 .35299684-.0027313233 .36698915-.01171875 .38398744-.01171875 .4039917-.01171875 .42099 .0002746582 .43699647 .012268066 .46499635 .03227234 .4889984 .057266237 .5119934 .08227539L.5039978 .10127258H.49598695C.48298646 .090270999 .47200013 .08227539 .45799256 .07426453 .44799806 .0692749 .43699647 .0632782 .4249878 .0632782 .4099884 .0632782 .397995 .072265628 .3880005 .08126831 .35699464 .10826111 .30699159 .20225525 .2809906 .25924684 .33299256 .3202362 .39698792 .3852234 .45298768 .42422486 .45498658 .42521668 .45599366 .42622376 .45599366 .42921449 .45599366 .43022157 .45399476 .43222047 .45298768 .43321229L.42199708 .46221925C.41999818 .46421815 .41799928 .46421815 .41600038 .46421815 .41299439 .46421815 .41099549 .46421815 .4099884 .46221925 .3659973 .41122438 .30699159 .3412323 .2709961 .2932434L.2649994 .29423524C.23599243 .35021974 .19499207 .42222596 .17399597 .44522096 .16099549 .46022035 .13699341 .46421815 .11999512 .46421815 .10398865 .46421815 .08898926 .45622254 .07398987 .44821168 .04899597 .43421937 .024993897 .4182129 .0019989014 .40022279Z"/>
</defs>
<use data-text="u" xlink:href="#font_5_6" transform="matrix(21.5193,0,0,-21.5193,7.195999,48.68622)"/>
<use data-text="(" xlink:href="#font_5_7" transform="matrix(21.5193,0,0,-21.5193,21.01139,48.68622)"/>
<use data-text="t" xlink:href="#font_5_8" transform="matrix(21.5193,0,0,-21.5193,30.556492,48.68622)"/>
<use data-text=")" xlink:href="#font_5_9" transform="matrix(21.5193,0,0,-21.5193,40.704133,48.68622)"/>
<path transform="matrix(1.5,0,0,-1.5,28.119847,43.30478)" stroke-width=".79701" stroke-linecap="butt" stroke-miterlimit="10" stroke-linejoin="miter" fill="none" stroke="#000000" d="M47.89063-21.526H90.94263V21.526H47.89063Z"/>
<use data-text="B" xlink:href="#font_5_15" transform="matrix(21.5193,0,0,-21.5193,125.19377,50.677339)"/>
<path transform="matrix(1.5,0,0,-1.5,28.119847,43.30478)" stroke-width=".79701" stroke-linecap="butt" stroke-miterlimit="10" stroke-linejoin="miter" fill="none" stroke="#000000" d="M158.39933 0C158.39933 10.57993 149.82282 19.15643 139.24288 19.15643 128.66294 19.15643 120.08644 10.57993 120.08644 0 120.08644-10.57993 128.66294-19.15643 139.24288-19.15643 149.82282-19.15643 158.39933-10.57993 158.39933 0ZM139.24288 0"/>
<use data-text="+" xlink:href="#font_5_5" transform="matrix(37.185258,0,0,-37.185258,222.94182,52.825716)"/>
<path transform="matrix(1.5,0,0,-1.5,28.119847,43.30478)" stroke-width=".79701" stroke-linecap="butt" stroke-miterlimit="10" stroke-linejoin="miter" fill="none" stroke="#000000" d="M187.54314-28.47171H230.59514V28.47173H187.54314Z"/>
<use data-text="1" xlink:href="#font_5_16" transform="matrix(21.5193,0,0,-21.5193,336.34886,37.4498)"/>
<path transform="matrix(1.5,0,0,-1.5,336.34886,43.304796)" stroke-width=".574019" stroke-linecap="butt" stroke-miterlimit="10" stroke-linejoin="miter" fill="none" stroke="#000000" d="M0 0H7.160891"/>
<use data-text="s" xlink:href="#font_5_17" transform="matrix(21.5193,0,0,-21.5193,336.8224,59.922655)"/>
<path transform="matrix(1.5,0,0,-1.5,28.119847,43.30478)" stroke-width=".79701" stroke-linecap="butt" stroke-miterlimit="10" stroke-linejoin="miter" fill="none" stroke="#000000" d="M187.54314-94.99817H230.59514V-51.94617H187.54314Z"/>
<use data-text="A" xlink:href="#font_5_18" transform="matrix(21.5193,0,0,-21.5193,333.43214,160.72275)"/>
<path transform="matrix(1.5,0,0,-1.5,28.119847,43.30478)" stroke-width=".79701" stroke-linecap="butt" stroke-miterlimit="10" stroke-linejoin="miter" fill="none" stroke="#000000" d="M276.74708-21.526H319.79908V21.526H276.74708Z"/>
<use data-text="C" xlink:href="#font_5_2" transform="matrix(21.5193,0,0,-21.5193,467.83897,50.66658)"/>
<use data-text="y" xlink:href="#font_5_19" transform="matrix(21.5193,0,0,-21.5193,550.5639,48.46019)"/>
<use data-text="(" xlink:href="#font_5_7" transform="matrix(21.5193,0,0,-21.5193,563.3248,48.46019)"/>
<use data-text="t" xlink:href="#font_5_8" transform="matrix(21.5193,0,0,-21.5193,572.86996,48.46019)"/>
<use data-text=")" xlink:href="#font_5_9" transform="matrix(21.5193,0,0,-21.5193,583.0176,48.46019)"/>
<path transform="matrix(1.5,0,0,-1.5,28.119847,43.30478)" stroke-width=".79701" stroke-linecap="butt" stroke-miterlimit="10" stroke-linejoin="miter" fill="none" stroke="#000000" d="M19.14531 0H46.6951"/>
<path transform="matrix(1.5,0,0,-1.5,98.760257,43.30478)" stroke-width=".79701" stroke-linecap="round" stroke-linejoin="round" fill="none" stroke="#000000" d="M-2.55046 3.11095C-2.0845 1.24435-1.04614 .36295 0 0-1.04614-.36295-2.0845-1.24435-2.55046-3.11095"/>
<path transform="matrix(1.5,0,0,-1.5,199.18427,43.30478)" stroke-width=".59776" stroke-linecap="butt" stroke-miterlimit="10" stroke-linejoin="miter" fill="none" stroke="#000000" d="M-.00014 2.91408 5.04718 0-.00014-2.91408Z"/>
<path transform="matrix(1.5,0,0,-1.5,28.119847,43.30478)" stroke-width="2.98883" stroke-linecap="butt" stroke-miterlimit="10" stroke-linejoin="miter" fill="none" stroke="#000000" d="M91.34113 0H114.20842"/>
<path transform="matrix(1.5,0,0,-1.5,28.119847,43.30478)" stroke-width="1.39478" stroke-linecap="butt" stroke-miterlimit="10" stroke-linejoin="miter" fill="none" stroke="#ffffff" d="M91.34113 0H114.20842"/>
<path transform="matrix(1.5,0,0,-1.5,28.119847,43.30478)" stroke-width="1.39478" stroke-linecap="butt" stroke-miterlimit="10" stroke-linejoin="miter" fill="none" stroke="#ffffff" d="M91.34113 0H115.2047"/>
<use data-text="+" xlink:href="#font_5_5" transform="matrix(21.5193,0,0,-21.5193,192.0515,33.93965)"/>
<path transform="matrix(1.5,0,0,-1.5,300.36933,43.30478)" stroke-width=".59776" stroke-linecap="butt" stroke-miterlimit="10" stroke-linejoin="miter" fill="none" stroke="#000000" d="M-.00014 2.91408 5.04718 0-.00014-2.91408Z"/>
<path transform="matrix(1.5,0,0,-1.5,28.119847,43.30478)" stroke-width="2.98883" stroke-linecap="butt" stroke-miterlimit="10" stroke-linejoin="miter" fill="none" stroke="#000000" d="M158.79782 0H181.66512"/>
<path transform="matrix(1.5,0,0,-1.5,28.119847,43.30478)" stroke-width="1.39478" stroke-linecap="butt" stroke-miterlimit="10" stroke-linejoin="miter" fill="none" stroke="#ffffff" d="M158.79782 0H181.66512"/>
<path transform="matrix(1.5,0,0,-1.5,28.119847,43.30478)" stroke-width="1.39478" stroke-linecap="butt" stroke-miterlimit="10" stroke-linejoin="miter" fill="none" stroke="#ffffff" d="M158.79782 0H182.66139"/>
<path transform="matrix(1.5,0,0,-1.5,28.119847,43.30478)" stroke-width=".79701" stroke-linecap="butt" stroke-miterlimit="10" stroke-linejoin="miter" fill="none" stroke="#000000" d="M320.19758 0H342.078"/>
<path transform="matrix(1.5,0,0,-1.5,541.8346,43.30478)" stroke-width=".79701" stroke-linecap="round" stroke-linejoin="round" fill="none" stroke="#000000" d="M-2.55046 3.11095C-2.0845 1.24435-1.04614 .36295 0 0-1.04614-.36295-2.0845-1.24435-2.55046-3.11095"/>
<path transform="matrix(0,-1.5,-1.5,-0,236.98416,81.10466)" stroke-width=".59776" stroke-linecap="butt" stroke-miterlimit="10" stroke-linejoin="miter" fill="none" stroke="#000000" d="M-.00014 2.91408 5.04718 0-.00014-2.91408Z"/>
<path transform="matrix(1.5,0,0,-1.5,28.119847,43.30478)" stroke-width="2.98883" stroke-linecap="butt" stroke-miterlimit="10" stroke-linejoin="miter" fill="none" stroke="#000000" d="M187.14464-73.47217H139.24288V-25.03445"/>
<path transform="matrix(1.5,0,0,-1.5,28.119847,43.30478)" stroke-width="1.39478" stroke-linecap="butt" stroke-miterlimit="10" stroke-linejoin="miter" fill="none" stroke="#ffffff" d="M187.14464-73.47217H139.24288V-25.03445"/>
<path transform="matrix(1.5,0,0,-1.5,28.119847,43.30478)" stroke-width="1.39478" stroke-linecap="butt" stroke-miterlimit="10" stroke-linejoin="miter" fill="none" stroke="#ffffff" d="M187.14464-73.47217H139.24288V-24.03818"/>
<use data-text="+" xlink:href="#font_5_5" transform="matrix(21.5193,0,0,-21.5193,212.95734,85.619388)"/>
<path transform="matrix(1.5,0,0,-1.5,434.1752,43.30478)" stroke-width=".59776" stroke-linecap="butt" stroke-miterlimit="10" stroke-linejoin="miter" fill="none" stroke="#000000" d="M-.00014 2.91408 5.04718 0-.00014-2.91408Z"/>
<path transform="matrix(1.5,0,0,-1.5,28.119847,43.30478)" stroke-width="2.98883" stroke-linecap="butt" stroke-miterlimit="10" stroke-linejoin="miter" fill="none" stroke="#000000" d="M230.99364 0H270.86903"/>
<path transform="matrix(1.5,0,0,-1.5,28.119847,43.30478)" stroke-width="1.39478" stroke-linecap="butt" stroke-miterlimit="10" stroke-linejoin="miter" fill="none" stroke="#ffffff" d="M230.99364 0H270.86903"/>
<path transform="matrix(1.5,0,0,-1.5,28.119847,43.30478)" stroke-width="1.39478" stroke-linecap="butt" stroke-miterlimit="10" stroke-linejoin="miter" fill="none" stroke="#ffffff" d="M230.99364 0H271.8653"/>
<use data-text="x" xlink:href="#font_5_20" transform="matrix(14.94396,0,0,-14.94396,394.96156,32.36618)"/>
<use data-text="(" xlink:href="#font_5_7" transform="matrix(14.94396,0,0,-14.94396,402.82209,32.36618)"/>
<use data-text="t" xlink:href="#font_5_8" transform="matrix(14.94396,0,0,-14.94396,409.45066,32.36618)"/>
<use data-text=")" xlink:href="#font_5_9" transform="matrix(14.94396,0,0,-14.94396,416.49766,32.36618)"/>
<path transform="matrix(-1.5,-0,0,1.5,383.0778,153.51303)" stroke-width=".59776" stroke-linecap="butt" stroke-miterlimit="10" stroke-linejoin="miter" fill="none" stroke="#000000" d="M-.00014 2.91408 5.04718 0-.00014-2.91408Z"/>
<path transform="matrix(1.5,0,0,-1.5,28.119847,43.30478)" stroke-width="2.98883" stroke-linecap="butt" stroke-miterlimit="10" stroke-linejoin="miter" fill="none" stroke="#000000" d="M253.67108 0V-73.47217H236.47316"/>
<path transform="matrix(1.5,0,0,-1.5,28.119847,43.30478)" stroke-width="1.39478" stroke-linecap="butt" stroke-miterlimit="10" stroke-linejoin="miter" fill="none" stroke="#ffffff" d="M253.67108 0V-73.47217H236.47316"/>
<path transform="matrix(1.5,0,0,-1.5,28.119847,43.30478)" stroke-width="1.39478" stroke-linecap="butt" stroke-miterlimit="10" stroke-linejoin="miter" fill="none" stroke="#ffffff" d="M253.67108 0V-73.47217H235.47689"/>
<path transform="matrix(1.5,0,0,-1.5,28.119847,43.30478)" stroke-width="1.39478" stroke-linecap="butt" stroke-miterlimit="10" stroke-linejoin="miter" fill="none" stroke="#ffffff" d="M230.99364 0H271.8653"/>
<path transform="matrix(1.5,0,0,-1.5,28.119847,43.30478)" stroke-width="1.39478" stroke-linecap="butt" stroke-miterlimit="10" stroke-linejoin="miter" fill="none" stroke="#ffffff" d="M253.67108 0V-73.47217H235.47689"/>
</svg>
