<svg xmlns="http://www.w3.org/2000/svg" xmlns:xlink="http://www.w3.org/1999/xlink" xmlns:inkscape="http://www.inkscape.org/namespaces/inkscape" version="1.1" width="357.21958" height="185.41362" viewBox="0 0 357.21958 185.41362">
<defs>
<path id="font_4_4" d="M.04598999 .23046875H.70399478L.70999148 .27046205H.052993776L.04598999 .23046875Z"/>
<path id="font_4_5" d="M.04598999 .23632813H.35598756V-.07368469L.3959961-.06668091V.23632813H.70399478L.70899966 .2763214H.3959961V.58631899L.35598756 .58032229V.2763214H.052993776L.04598999 .23632813Z"/>
<path id="font_4_6" d="M-.0010070801 .39526368 .011993408 .3752594C.034988405 .3882599 .068984989 .40527345 .08299255 .40527345 .09498596 .40527345 .10499573 .40325929 .11099243 .39627076 .12399292 .38226319 .12799073 .3662567 .12799073 .2752533 .12799073 .24624634 .12399292 .14523316 .12399292 .11222839 .12399292 .041229249 .14698792-.009765625 .22898865-.009765625 .2889862-.00982666 .37998963 .043182374 .4169922 .06518555L.4249878 .06417847C.4269867 .045181276 .42999269-.0078125 .49398805-.0078125 .54599-.0078125 .625 .060180665 .6549988 .08618164L.6439972 .10519409 .6359863 .10719299C.61898806 .095184329 .57199099 .06518555 .548996 .06518555 .5369873 .06518555 .5249939 .07017517 .5159912 .07917786 .5 .095184329 .5 .14520264 .5 .18121338 .5 .2732544 .5039978 .3662567 .5119934 .45925904L.49899293 .47026063 .42199708 .43527223C.4229889 .41226197 .4229889 .3692627 .4229889 .31825257 .4229889 .24925232 .4229889 .1662445 .42199708 .10423279 .39698792 .0892334 .33198548 .051223756 .29100038 .051223756 .20899964 .051223756 .20098877 .11022949 .20098877 .24424744 .20098877 .2962494 .20098877 .3792572 .19898987 .39926148 .19699097 .41926576 .19499207 .43927003 .18099976 .45326234 .16899109 .465271 .15098572 .46826173 .1349945 .46826173 .09599304 .46826173 .024993897 .41526795-.0010070801 .39526368Z"/>
<path id="font_4_7" d="M.11299133 .24990845C.11299133 .007904053 .1519928-.09008789 .18299866-.13310242 .21099854-.17008972 .25299073-.20809937 .30099488-.21209717V-.1880951C.2809906-.18409729 .25099183-.16809082 .23399353-.1481018 .21998596-.13209534 .16499329-.05809021 .16499329 .24990845 .16499329 .4618988 .19799805 .5659027 .21998596 .6128998 .23599243 .6469116 .2689972 .6769104 .30099488 .684906V.71191409C.2599945 .7049103 .21598816 .6729126 .19099427 .63790896 .1599884 .5919037 .11299133 .4748993 .11299133 .24990845Z"/>
<path id="font_4_8" d="M.016998291 .40538026 .021987915 .40039063H.13398743L.13999939 .39338685V.20327759C.13999939 .06820679 .14199829 .049209596 .16299439 .022201539 .18099976-.0018005371 .21199036-.0087890629 .23498535-.0087890629 .2619934-.0087890629 .2869873 .0012054443 .31098939 .014205933 .34298707 .031204224 .37199403 .05419922 .39898683 .07922363L.3919983 .09422302 .37998963 .096221927C.34999085 .07720947 .31399537 .0552063 .2889862 .0552063 .27198792 .0552063 .25698854 .06021118 .24398804 .07521057 .22200012 .099227908 .21798706 .16325379 .21798706 .20527649V.39437867L.22399903 .40039063H.34298707L.34899903 .40538026 .35699464 .43138124 .35198976 .43537904H.22399903L.21798706 .4403839C.21899414 .49838258 .22399903 .54937747 .22898865 .6063843L.22200012 .61138918 .13798523 .5823822C.13999939 .5563812 .13999939 .49238587 .13999939 .44137574L.13398743 .43537904H.02999878L.023986817 .42938233 .016998291 .40538026Z"/>
<path id="font_4_9" d="M.085998538-.1880951V-.21209717C.13398743-.20610047 .1789856-.17208863 .20698548-.13510132 .23799134-.09210205 .27598573 .007904053 .27598573 .24990845 .27598573 .50090029 .22399903 .5919037 .19299317 .63790896 .16799927 .6729126 .1269989 .7049103 .085998538 .71191409V.684906C.117996219 .6759033 .14898682 .6469116 .16499329 .6128998 .18699646 .5659027 .22399903 .48190309 .22399903 .24990845 .22399903-.099090579 .17199707-.13209534 .1579895-.1481018 .14099121-.16809082 .10598755-.18409729 .085998538-.1880951Z"/>
<path id="font_4_3" d="M.049987794 .6660156C.050994874 .6660156 .08799744 .65800479 .10798645 .65400698 .12298584 .65101626 .1289978 .63500979 .1289978 .62101748V.14308167C.1289978 .12908936 .12599182 .05709839 .12199402 .04710388 .11898804 .038101198 .11399841 .026107789 .10699463 .016113282V.0019683839C.24499512 .002105713 .44599916 .002105713 .519989-.0048828127L.5339966 .048095704 .5239868 .05810547C.5179901 .05696106 .33599855 .04296875 .23199463 .04296875 .22698975 .04296875 .21998596 .049957277 .21899414 .05596924 .21499634 .16497803 .21199036 .28097535 .21199036 .39398194 .21199036 .47299195 .21398926 .5509949 .21798706 .6240082 .21899414 .63500979 .22399903 .6470032 .23599243 .6490021 .25698854 .65400698 .2999878 .66300967 .30099488 .66300967V.68400576L.29499818 .69000247H.057998659L.050994874 .6830139 .049987794 .6660156Z"/>
<path id="font_4_12" d="M.01399231 .39614869 .026992798 .37815858C.050994874 .39315797 .084991458 .41015626 .10699463 .41015626 .116989139 .41015626 .12599182 .40515138 .1309967 .39515687 .13798523 .3811493 .14199829 .35514833 .14199829 .3251648L.13598633 .10417175C.13598633 .060180665 .13798523 .03817749 .1519928 .020187378 .16899109-.0008239746 .19198609-.0078125 .21598816-.0078125 .24198914-.0078125 .2659912 .0051727297 .28799439 .019180298 .31498719 .03918457 .33699037 .062179567 .35699464 .08917236V.10017395L.34399415 .110183719C.32798768 .09617615 .31199647 .08418274 .2939911 .07417297 .28199769 .06817627 .2659912 .06518555 .2519989 .06518555 .23799134 .06518555 .22599793 .07417297 .21998596 .08717346 .21199036 .10517883 .20799256 .14117432 .20799256 .18217469L.21598816 .39215089C.21598816 .41314698 .21398926 .43714906 .19999695 .45315553 .18798828 .46914674 .16799927 .47114564 .1539917 .47114564 .1349945 .47114564 .11299133 .45915223 .09498596 .45014955 .070999149 .43815614 .037994386 .41514588 .01399231 .39614869M.11199951 .6273346C.11199951 .59532168 .13798523 .56933596 .16999817 .56933596 .20199585 .56933596 .22799683 .59233096 .22999573 .6253357 .22999573 .6553345 .20999146 .68333438 .17599488 .68333438 .1459961 .68333438 .11399841 .6613312 .11199951 .6273346Z"/>
<path id="font_4_13" d="M.08799744 .6660156C.08898926 .6660156 .12998963 .65800479 .15299988 .65400698 .16999817 .65101626 .1769867 .63500979 .1769867 .62101748V.14308167C.1769867 .12908936 .17298889 .05709839 .16899109 .04710388 .16499329 .038101198 .1599884 .026107789 .1519928 .016113282V.0019683839C.30799867 .002105713 .5349884 .002105713 .61898806-.0048828127L.6339874 .048095704 .6239929 .05810547C.6159973 .05696106 .41099549 .04296875 .29299928 .04296875 .2869873 .04296875 .2789917 .049957277 .27799989 .05596924 .27398683 .16596985 .2709961 .28297425 .2709961 .39698792 .2709961 .47599793 .272995 .55200198 .2769928 .6240082 .27799989 .63500979 .28399659 .6470032 .2979889 .6490021 .32099916 .65400698 .36999513 .66300967 .37098695 .66300967V.68400576L.36499024 .69000247H.09599304L.08799744 .6830139V.6660156Z"/>
<path id="font_4_1" d="M.053985597 .65625C.054992677 .65625 .08999634 .6462555 .10798645 .6412506 .12098694 .6372528 .1309967 .6252594 .1309967 .61128237 .13198853 .5543213 .13398743 .45439149 .13398743 .43940736 .13398743 .29444886 .1329956 .14831543 .125 .003189087L.13598633-.0058135988 .21899414 .023208619C.21398926 .11929321 .21398926 .21638489 .21398926 .31245423 .21998596 .31245423 .22898865 .30845643 .23399353 .30345155 .2630005 .27442933 .3899994 .11128235 .48298646-.0078125L.58200076 .018203736V.02720642L.31900025 .3234558 .32099916 .33146668C.4039917 .3404541 .4850006 .3734131 .5169983 .44322206 .5319977 .47714234 .5359955 .49110414 .5359955 .53897097 .5359955 .57388308 .5219879 .6077881 .49699403 .63272097 .47999574 .6506958 .45700074 .6596985 .43299867 .6667023 .40098573 .67570498 .36698915 .67871096 .33299256 .67871096L.06098938 .679245 .054992677 .6732483 .053985597 .65625M.21299744 .37045289C.21299744 .375412 .21699524 .549942 .21899414 .61376956 .21998596 .63272097 .22299195 .6397095 .23098755 .6397095H.2709961C.2979889 .6397095 .32598878 .6377106 .35299684 .63072207 .37199403 .6257324 .3909912 .61776736 .40499879 .6037903 .42599488 .5828552 .43798829 .55293276 .43798829 .52301028 .43798829 .47813417 .41799928 .43624879 .3869934 .40533448 .35398866 .37141419 .30599977 .36044313 .2599945 .35646058 .24798584 .35546876 .23498535 .35546876 .22200012 .35546876 .21499634 .35546876 .21299744 .36444093 .21299744 .37042237V.37045289Z"/>
<path id="font_4_14" d="M.09199524 .65625C.09298706 .65625 .1329956 .6462555 .15299988 .6412506 .16799927 .6372528 .1789856 .6252594 .1789856 .61128237 .17999268 .5543213 .18199158 .45439149 .18199158 .43940736 .18199158 .29444886 .18099976 .14831543 .17199707 .003189087L.18499756-.0058135988 .27799989 .023208619C.272995 .11929321 .272995 .21638489 .272995 .31245423 .27999879 .31245423 .2889862 .30845643 .29499818 .30345155 .32798768 .27442933 .47200013 .11128235 .57699587-.0078125L.68899539 .018203736V.02720642L.3909912 .3234558 .3939972 .33146668C.48799134 .3404541 .57899478 .3734131 .61499026 .44322206 .6329956 .47714234 .6369934 .49110414 .6369934 .53897097 .6369934 .57388308 .62098696 .6077881 .59298709 .63272097 .57299807 .6506958 .5469971 .6596985 .519989 .6667023 .48399354 .67570498 .44599916 .67871096 .40699769 .67871096L.099990848 .679245 .09298706 .6732483 .09199524 .65625M.27198792 .37045289C.27198792 .375412 .27598573 .549942 .27799989 .61376956 .2789917 .63272097 .2829895 .6397095 .2919922 .6397095H.33699037C.36799623 .6397095 .39898683 .6377106 .42999269 .63072207 .45098878 .6257324 .47299195 .61776736 .4889984 .6037903 .5119934 .5828552 .526001 .55293276 .526001 .52301028 .526001 .47813417 .5029907 .43624879 .46798707 .40533448 .43099977 .37141419 .3769989 .36044313 .32499696 .35646058 .31098939 .35546876 .29599 .35546876 .28199769 .35546876 .27398683 .35546876 .27198792 .36444093 .27198792 .37042237V.37045289Z"/>
<path id="font_4_10" d="M-.021011353 .41119386-.012008667 .38719178C.010986328 .40019227 .0289917 .40820313 .050994874 .40820313 .06298828 .40820313 .07199097 .40119935 .07798767 .39118959 .09098816 .36920167 .115997318 .2982025 .1289978 .2472229L.19799805-.0107421879H.22200012C.22698975-.007751465 .24099732 .0062408449 .2519989 .017242432 .31098939 .07723999 .3659973 .14022827 .41099549 .21221924 .43899537 .25820924 .46598817 .3072052 .46598817 .36219789 .46598817 .41619874 .44699098 .44519044 .42900086 .459198 .4269867 .46218873 .4229889 .46218873 .41999818 .46218873 .41799928 .46218873 .4149933 .46218873 .4119873 .46018983L.3619995 .42520143C.3600006 .4232025 .35798646 .42019654 .35798646 .41719056 .35798646 .41519166 .35798646 .41319276 .35899354 .41220094 .37599183 .38020326 .3959961 .34420777 .3959961 .31221009 .3959961 .27920533 .38398744 .24821472 .36799623 .21821594 .34700013 .17723084 .31900025 .13923645 .2889862 .10423279 .2809906 .09623718 .269989 .08224487 .2649994 .08224487 .2619934 .08224487 .25498963 .083236698 .2519989 .09223938 .23599243 .13923645 .21099854 .23521424 .19699097 .2932129 .18099976 .3531952 .1599884 .43519593 .14299011 .4521942 .1329956 .46218873 .11898804 .4691925 .10398865 .4691925 .085998538 .4691925 .068984989 .46218873 .051986696 .45419313 .025985718 .4421997 .0019989014 .42720033-.021011353 .41119386Z"/>
<path id="font_4_11" d="M.1289978 .3262787C.1289978 .228302 .15899658 .12931824 .23799134 .05934143 .3019867 .0023498536 .394989-.0146484379 .48399354-.0146484379 .58200076-.0146484379 .6729889 .02734375 .7539978 .07633972L.7350006 .10533142C.6719971 .067337039 .6009979 .038345338 .5239868 .038345338 .43099977 .038345338 .38398744 .066345218 .32099916 .12132263 .28399659 .15431214 .22999573 .25230409 .22999573 .3442688 .22999573 .39326478 .23699951 .44325257 .2539978 .49024964 .2669983 .52822878 .28799439 .56422427 .31900025 .59321597 .36898805 .63720706 .43899537 .6582184 .5079956 .6582184 .55999758 .6582184 .6139984 .6462097 .651001 .6132202 .6769867 .5902252 .69699099 .5612335 .70999148 .52923586L.7259979 .52822878 .7899933 .5862274C.7779999 .6042175 .7630005 .6212158 .74598696 .6362152 .69400027 .6832123 .6199951 .69921877 .54599 .69921877 .42900086 .69921877 .31498719 .663208 .23199463 .5902252 .15299988 .52124026 .1289978 .42225648 .1289978 .3262787Z"/>
<path id="font_4_2" d="M.08699036 .3262787C.08699036 .228302 .11299133 .12931824 .18299866 .05934143 .23999024 .0023498536 .32199098-.0146484379 .40098573-.0146484379 .48799134-.0146484379 .56799319 .02734375 .6399994 .07633972L.6230011 .10533142C.5669861 .067337039 .5039978 .038345338 .43598939 .038345338 .35398866 .038345338 .31199647 .066345218 .25698854 .12132263 .22399903 .15431214 .17599488 .25230409 .17599488 .3442688 .17599488 .39326478 .18199158 .44325257 .19699097 .49024964 .20899964 .52822878 .22698975 .56422427 .25498963 .59321597 .29899598 .63720706 .36099244 .6582184 .42199708 .6582184 .46798707 .6582184 .5159912 .6462097 .548996 .6132202 .57199099 .5902252 .58898928 .5612335 .6009979 .52923586L.61499026 .52822878 .6719971 .5862274C.6609955 .6042175 .647995 .6212158 .6329956 .6362152 .58699038 .6832123 .5209961 .69921877 .45599366 .69921877 .35198976 .69921877 .25099183 .663208 .17799378 .5902252 .10798645 .52124026 .08699036 .42225648 .08699036 .3262787Z"/>
</defs>
<path transform="matrix(1.5,0,0,-1.5,78.85341,178.00159)" stroke-width=".79701" stroke-linecap="butt" stroke-miterlimit="10" stroke-linejoin="miter" fill="none" stroke="#000000" d="M0 0V30.61449M0 54.42592V85.04042L30.61449 85.0404M54.42592 85.0404 85.04042 85.04042 85.0404 58.3944M85.0404 26.64601 85.04042 0H0"/>
<path transform="matrix(1.5,0,0,-1.5,78.85341,178.00159)" stroke-width=".79701" stroke-linecap="butt" stroke-miterlimit="10" stroke-linejoin="miter" fill="none" stroke="#000000" d="M-11.90572 42.5202C-11.90572 49.09561-6.57541 54.42592 0 54.42592 6.57541 54.42592 11.90572 49.09561 11.90572 42.5202 11.90572 35.94478 6.57541 30.61449 0 30.61449-6.57541 30.61449-11.90572 35.94478-11.90572 42.5202ZM0 42.5202"/>
<use data-text="&#x2212;" xlink:href="#font_4_4" transform="matrix(-21.5193,-0,0,-21.5193,86.99013,125.12996)"/>
<use data-text="+" xlink:href="#font_4_5" transform="matrix(-21.5193,-0,0,-21.5193,86.97936,114.3354)"/>
<use data-text="u" xlink:href="#font_4_6" transform="matrix(21.5193,0,0,-21.5193,9.824612,119.603549)"/>
<use data-text="(" xlink:href="#font_4_7" transform="matrix(21.5193,0,0,-21.5193,23.640004,119.603549)"/>
<use data-text="t" xlink:href="#font_4_8" transform="matrix(21.5193,0,0,-21.5193,33.185106,119.603549)"/>
<use data-text=")" xlink:href="#font_4_9" transform="matrix(21.5193,0,0,-21.5193,43.332746,119.603549)"/>
<path transform="matrix(1.5,0,0,-1.5,78.85341,178.00159)" stroke-width=".79701" stroke-linecap="butt" stroke-linejoin="bevel" fill="none" stroke="#000000" d="M30.21597 84.7216C30.21597 88.00931 31.85072 90.67445 33.86732 90.67445 35.88393 90.67445 37.51868 88.00931 37.51868 84.7216 37.51868 83.07785 36.85242 81.74533 36.03053 81.74533 35.20865 81.74533 34.5424 83.07785 34.5424 84.7216 34.5424 88.00931 36.17714 90.67445 38.19374 90.67445 40.21036 90.67445 41.8451 88.00931 41.8451 84.7216 41.8451 83.07785 41.17883 81.74533 40.35696 81.74533 39.53508 81.74533 38.86882 83.07785 38.86882 84.7216 38.86882 88.00931 40.50357 90.67445 42.52017 90.67445 44.53677 90.67445 46.17152 88.00931 46.17152 84.7216 46.17152 83.07785 45.50526 81.74533 44.68338 81.74533 43.8615 81.74533 43.19524 83.07785 43.19524 84.7216 43.19524 88.00931 44.82999 90.67445 46.84659 90.67445 48.86319 90.67445 50.49794 88.00931 50.49794 84.7216 50.49794 83.07785 49.83168 81.74533 49.0098 81.74533 48.18793 81.74533 47.52167 83.07785 47.52167 84.7216 47.52167 88.00931 49.15642 90.67445 51.17302 90.67445 53.18962 90.67445 54.82436 88.00931 54.82436 84.7216"/>
<path transform="matrix(1.5,0,0,-1.5,78.85341,178.00159)" d="M86.62756 85.04042C86.62756 85.91698 85.91698 86.62756 85.04042 86.62756 84.16386 86.62756 83.45328 85.91698 83.45328 85.04042 83.45328 84.16386 84.16386 83.45328 85.04042 83.45328 85.91698 83.45328 86.62756 84.16386 86.62756 85.04042ZM85.04042 85.04042"/>
<path transform="matrix(1.5,0,0,-1.5,78.85341,178.00159)" stroke-width=".79701" stroke-linecap="butt" stroke-miterlimit="10" stroke-linejoin="miter" fill="none" stroke="#000000" d="M86.62756 85.04042C86.62756 85.91698 85.91698 86.62756 85.04042 86.62756 84.16386 86.62756 83.45328 85.91698 83.45328 85.04042 83.45328 84.16386 84.16386 83.45328 85.04042 83.45328 85.91698 83.45328 86.62756 84.16386 86.62756 85.04042ZM85.04042 85.04042"/>
<use data-text="L" xlink:href="#font_4_3" transform="matrix(21.5193,0,0,-21.5193,136.61646,32.54834)"/>
<path transform="matrix(1.5,0,0,-1.5,78.85341,178.00159)" d="M67.99693 85.0404V83.05615L72.21349 85.0404 67.99693 87.02466Z"/>
<path transform="matrix(1.5,0,0,-1.5,78.85341,178.00159)" stroke-width=".79701" stroke-linecap="butt" stroke-miterlimit="10" stroke-linejoin="miter" fill="none" stroke="#000000" d="M67.99693 85.0404V83.05615L72.21349 85.0404 67.99693 87.02466Z"/>
<use data-text="i" xlink:href="#font_4_12" transform="matrix(14.94396,0,0,-14.94396,167.4153,39.504014)"/>
<use data-text="L" xlink:href="#font_4_13" transform="matrix(10.460775,0,0,-10.460775,172.79216,41.744386)"/>
<use data-text="(" xlink:href="#font_4_7" transform="matrix(14.94396,0,0,-14.94396,180.02446,39.504014)"/>
<use data-text="t" xlink:href="#font_4_8" transform="matrix(14.94396,0,0,-14.94396,186.653,39.504014)"/>
<use data-text=")" xlink:href="#font_4_9" transform="matrix(14.94396,0,0,-14.94396,193.69998,39.504014)"/>
<path transform="matrix(1.5,0,0,-1.5,78.85341,178.00159)" stroke-width=".79701" stroke-linecap="butt" stroke-linejoin="bevel" fill="none" stroke="#000000" d="M85.0404 58.7929 90.99326 55.7487 79.08755 50.45732 90.99326 45.16594 79.08755 39.87456 90.99326 34.58318 79.08755 29.2918 85.0404 26.24759"/>
<use data-text="R" xlink:href="#font_4_1" transform="matrix(21.5193,0,0,-21.5193,220.27057,119.60353)"/>
<path transform="matrix(1.5,0,0,-1.5,78.85341,178.00159)" d="M85.0404 15.0592H83.05615L85.0404 10.84267 87.02466 15.0592Z"/>
<path transform="matrix(1.5,0,0,-1.5,78.85341,178.00159)" stroke-width=".79701" stroke-linecap="butt" stroke-miterlimit="10" stroke-linejoin="miter" fill="none" stroke="#000000" d="M85.0404 15.0592H83.05615L85.0404 10.84267 87.02466 15.0592Z"/>
<use data-text="i" xlink:href="#font_4_12" transform="matrix(14.94396,0,0,-14.94396,214.18462,161.75128)"/>
<use data-text="R" xlink:href="#font_4_14" transform="matrix(10.460775,0,0,-10.460775,219.56148,163.99164)"/>
<use data-text="(" xlink:href="#font_4_7" transform="matrix(14.94396,0,0,-14.94396,227.39037,161.75128)"/>
<use data-text="t" xlink:href="#font_4_8" transform="matrix(14.94396,0,0,-14.94396,234.0189,161.75128)"/>
<use data-text=")" xlink:href="#font_4_9" transform="matrix(14.94396,0,0,-14.94396,241.06589,161.75128)"/>
<path transform="matrix(1.5,0,0,-1.5,78.85341,178.00159)" stroke-width=".79701" stroke-linecap="butt" stroke-miterlimit="10" stroke-linejoin="miter" fill="none" stroke="#000000" d="M85.04042 85.04042H141.73404L141.73403 46.48868M141.73403 38.55173 141.73404 0H85.04042"/>
<use data-text="v" xlink:href="#font_4_10" transform="matrix(14.94396,0,0,-14.94396,307.3098,54.17653)"/>
<use data-text="C" xlink:href="#font_4_11" transform="matrix(10.460775,0,0,-10.460775,314.703,56.4169)"/>
<use data-text="(" xlink:href="#font_4_7" transform="matrix(14.94396,0,0,-14.94396,323.76695,54.17653)"/>
<use data-text="t" xlink:href="#font_4_8" transform="matrix(14.94396,0,0,-14.94396,330.3955,54.17653)"/>
<use data-text=")" xlink:href="#font_4_9" transform="matrix(14.94396,0,0,-14.94396,337.44248,54.17653)"/>
<path transform="matrix(1.5,0,0,-1.5,78.85341,178.00159)" stroke-width=".79701" stroke-linecap="butt" stroke-miterlimit="10" stroke-linejoin="miter" fill="none" stroke="#000000" d="M153.63974 46.48868H129.82831M153.63974 38.55173H129.82831"/>
<path transform="matrix(1.5,0,0,-1.5,78.85341,178.00159)" d="M143.32118 85.04042C143.32118 85.91698 142.6106 86.62756 141.73404 86.62756 140.85749 86.62756 140.1469 85.91698 140.1469 85.04042 140.1469 84.16386 140.85749 83.45328 141.73404 83.45328 142.6106 83.45328 143.32118 84.16386 143.32118 85.04042ZM141.73404 85.04042"/>
<path transform="matrix(1.5,0,0,-1.5,78.85341,178.00159)" stroke-width=".79701" stroke-linecap="butt" stroke-miterlimit="10" stroke-linejoin="miter" fill="none" stroke="#000000" d="M143.32118 85.04042C143.32118 85.91698 142.6106 86.62756 141.73404 86.62756 140.85749 86.62756 140.1469 85.91698 140.1469 85.04042 140.1469 84.16386 140.85749 83.45328 141.73404 83.45328 142.6106 83.45328 143.32118 84.16386 143.32118 85.04042ZM141.73404 85.04042"/>
<use data-text="C" xlink:href="#font_4_2" transform="matrix(21.5193,0,0,-21.5193,315.13209,119.60353)"/>
<path transform="matrix(1.5,0,0,-1.5,78.85341,178.00159)" d="M141.73403 21.01207H139.74977L141.73403 16.79553 143.71828 21.01207Z"/>
<path transform="matrix(1.5,0,0,-1.5,78.85341,178.00159)" stroke-width=".79701" stroke-linecap="butt" stroke-miterlimit="10" stroke-linejoin="miter" fill="none" stroke="#000000" d="M141.73403 21.01207H139.74977L141.73403 16.79553 143.71828 21.01207Z"/>
<use data-text="i" xlink:href="#font_4_12" transform="matrix(14.94396,0,0,-14.94396,299.22395,152.8221)"/>
<use data-text="C" xlink:href="#font_4_11" transform="matrix(10.460775,0,0,-10.460775,304.6008,155.06246)"/>
<use data-text="(" xlink:href="#font_4_7" transform="matrix(14.94396,0,0,-14.94396,313.66474,152.8221)"/>
<use data-text="t" xlink:href="#font_4_8" transform="matrix(14.94396,0,0,-14.94396,320.29328,152.8221)"/>
<use data-text=")" xlink:href="#font_4_9" transform="matrix(14.94396,0,0,-14.94396,327.34025,152.8221)"/>
</svg>
