<svg xmlns="http://www.w3.org/2000/svg" xmlns:xlink="http://www.w3.org/1999/xlink" version="1.1" width="381.13774" height="185.41362" viewBox="0 0 381.13774 185.41362">
<defs>
<path id="font_0_1" d="M.04598999 .23046875H.70399478L.70999148 .27046205H.052993776L.04598999 .23046875Z"/>
<path id="font_0_2" d="M.04598999 .23632813H.35598756V-.07368469L.3959961-.06668091V.23632813H.70399478L.70899966 .2763214H.3959961V.58631899L.35598756 .58032229V.2763214H.052993776L.04598999 .23632813Z"/>
<path id="font_0_3" d="M-.021011353 .41119386-.012008667 .38719178C.010986328 .40019227 .0289917 .40820313 .050994874 .40820313 .06298828 .40820313 .07199097 .40119935 .07798767 .39118959 .09098816 .36920167 .115997318 .2982025 .1289978 .2472229L.19799805-.0107421879H.22200012C.22698975-.007751465 .24099732 .0062408449 .2519989 .017242432 .31098939 .07723999 .3659973 .14022827 .41099549 .21221924 .43899537 .25820924 .46598817 .3072052 .46598817 .36219789 .46598817 .41619874 .44699098 .44519044 .42900086 .459198 .4269867 .46218873 .4229889 .46218873 .41999818 .46218873 .41799928 .46218873 .4149933 .46218873 .4119873 .46018983L.3619995 .42520143C.3600006 .4232025 .35798646 .42019654 .35798646 .41719056 .35798646 .41519166 .35798646 .41319276 .35899354 .41220094 .37599183 .38020326 .3959961 .34420777 .3959961 .31221009 .3959961 .27920533 .38398744 .24821472 .36799623 .21821594 .34700013 .17723084 .31900025 .13923645 .2889862 .10423279 .2809906 .09623718 .269989 .08224487 .2649994 .08224487 .2619934 .08224487 .25498963 .083236698 .2519989 .09223938 .23599243 .13923645 .21099854 .23521424 .19699097 .2932129 .18099976 .3531952 .1599884 .43519593 .14299011 .4521942 .1329956 .46218873 .11898804 .4691925 .10398865 .4691925 .085998538 .4691925 .068984989 .46218873 .051986696 .45419313 .025985718 .4421997 .0019989014 .42720033-.021011353 .41119386Z"/>
<path id="font_0_4" d="M.11299133 .24990845C.11299133 .007904053 .1519928-.09008789 .18299866-.13310242 .21099854-.17008972 .25299073-.20809937 .30099488-.21209717V-.1880951C.2809906-.18409729 .25099183-.16809082 .23399353-.1481018 .21998596-.13209534 .16499329-.05809021 .16499329 .24990845 .16499329 .4618988 .19799805 .5659027 .21998596 .6128998 .23599243 .6469116 .2689972 .6769104 .30099488 .684906V.71191409C.2599945 .7049103 .21598816 .6729126 .19099427 .63790896 .1599884 .5919037 .11299133 .4748993 .11299133 .24990845Z"/>
<path id="font_0_5" d="M.016998291 .40538026 .021987915 .40039063H.13398743L.13999939 .39338685V.20327759C.13999939 .06820679 .14199829 .049209596 .16299439 .022201539 .18099976-.0018005371 .21199036-.0087890629 .23498535-.0087890629 .2619934-.0087890629 .2869873 .0012054443 .31098939 .014205933 .34298707 .031204224 .37199403 .05419922 .39898683 .07922363L.3919983 .09422302 .37998963 .096221927C.34999085 .07720947 .31399537 .0552063 .2889862 .0552063 .27198792 .0552063 .25698854 .06021118 .24398804 .07521057 .22200012 .099227908 .21798706 .16325379 .21798706 .20527649V.39437867L.22399903 .40039063H.34298707L.34899903 .40538026 .35699464 .43138124 .35198976 .43537904H.22399903L.21798706 .4403839C.21899414 .49838258 .22399903 .54937747 .22898865 .6063843L.22200012 .61138918 .13798523 .5823822C.13999939 .5563812 .13999939 .49238587 .13999939 .44137574L.13398743 .43537904H.02999878L.023986817 .42938233 .016998291 .40538026Z"/>
<path id="font_0_6" d="M.085998538-.1880951V-.21209717C.13398743-.20610047 .1789856-.17208863 .20698548-.13510132 .23799134-.09210205 .27598573 .007904053 .27598573 .24990845 .27598573 .50090029 .22399903 .5919037 .19299317 .63790896 .16799927 .6729126 .1269989 .7049103 .085998538 .71191409V.684906C.117996219 .6759033 .14898682 .6469116 .16499329 .6128998 .18699646 .5659027 .22399903 .48190309 .22399903 .24990845 .22399903-.099090579 .17199707-.13209534 .1579895-.1481018 .14099121-.16809082 .10598755-.18409729 .085998538-.1880951Z"/>
<path id="font_0_7" d="M.053985597 .65625C.054992677 .65625 .08999634 .6462555 .10798645 .6412506 .12098694 .6372528 .1309967 .6252594 .1309967 .61128237 .13198853 .5543213 .13398743 .45439149 .13398743 .43940736 .13398743 .29444886 .1329956 .14831543 .125 .003189087L.13598633-.0058135988 .21899414 .023208619C.21398926 .11929321 .21398926 .21638489 .21398926 .31245423 .21998596 .31245423 .22898865 .30845643 .23399353 .30345155 .2630005 .27442933 .3899994 .11128235 .48298646-.0078125L.58200076 .018203736V.02720642L.31900025 .3234558 .32099916 .33146668C.4039917 .3404541 .4850006 .3734131 .5169983 .44322206 .5319977 .47714234 .5359955 .49110414 .5359955 .53897097 .5359955 .57388308 .5219879 .6077881 .49699403 .63272097 .47999574 .6506958 .45700074 .6596985 .43299867 .6667023 .40098573 .67570498 .36698915 .67871096 .33299256 .67871096L.06098938 .679245 .054992677 .6732483 .053985597 .65625M.21299744 .37045289C.21299744 .375412 .21699524 .549942 .21899414 .61376956 .21998596 .63272097 .22299195 .6397095 .23098755 .6397095H.2709961C.2979889 .6397095 .32598878 .6377106 .35299684 .63072207 .37199403 .6257324 .3909912 .61776736 .40499879 .6037903 .42599488 .5828552 .43798829 .55293276 .43798829 .52301028 .43798829 .47813417 .41799928 .43624879 .3869934 .40533448 .35398866 .37141419 .30599977 .36044313 .2599945 .35646058 .24798584 .35546876 .23498535 .35546876 .22200012 .35546876 .21499634 .35546876 .21299744 .36444093 .21299744 .37042237V.37045289Z"/>
<path id="font_0_8" d="M.049987794 .6660156C.050994874 .6660156 .08799744 .65800479 .10798645 .65400698 .12298584 .65101626 .1289978 .63500979 .1289978 .62101748V.14308167C.1289978 .12908936 .12599182 .05709839 .12199402 .04710388 .11898804 .038101198 .11399841 .026107789 .10699463 .016113282V.0019683839C.24499512 .002105713 .44599916 .002105713 .519989-.0048828127L.5339966 .048095704 .5239868 .05810547C.5179901 .05696106 .33599855 .04296875 .23199463 .04296875 .22698975 .04296875 .21998596 .049957277 .21899414 .05596924 .21499634 .16497803 .21199036 .28097535 .21199036 .39398194 .21199036 .47299195 .21398926 .5509949 .21798706 .6240082 .21899414 .63500979 .22399903 .6470032 .23599243 .6490021 .25698854 .65400698 .2999878 .66300967 .30099488 .66300967V.68400576L.29499818 .69000247H.057998659L.050994874 .6830139 .049987794 .6660156Z"/>
<path id="font_0_9" d="M.08699036 .3262787C.08699036 .228302 .11299133 .12931824 .18299866 .05934143 .23999024 .0023498536 .32199098-.0146484379 .40098573-.0146484379 .48799134-.0146484379 .56799319 .02734375 .6399994 .07633972L.6230011 .10533142C.5669861 .067337039 .5039978 .038345338 .43598939 .038345338 .35398866 .038345338 .31199647 .066345218 .25698854 .12132263 .22399903 .15431214 .17599488 .25230409 .17599488 .3442688 .17599488 .39326478 .18199158 .44325257 .19699097 .49024964 .20899964 .52822878 .22698975 .56422427 .25498963 .59321597 .29899598 .63720706 .36099244 .6582184 .42199708 .6582184 .46798707 .6582184 .5159912 .6462097 .548996 .6132202 .57199099 .5902252 .58898928 .5612335 .6009979 .52923586L.61499026 .52822878 .6719971 .5862274C.6609955 .6042175 .647995 .6212158 .6329956 .6362152 .58699038 .6832123 .5209961 .69921877 .45599366 .69921877 .35198976 .69921877 .25099183 .663208 .17799378 .5902252 .10798645 .52124026 .08699036 .42225648 .08699036 .3262787Z"/>
<path id="font_0_10" d="M.01399231 .39614869 .026992798 .37815858C.050994874 .39315797 .084991458 .41015626 .10699463 .41015626 .116989139 .41015626 .12599182 .40515138 .1309967 .39515687 .13798523 .3811493 .14199829 .35514833 .14199829 .3251648L.13598633 .10417175C.13598633 .060180665 .13798523 .03817749 .1519928 .020187378 .16899109-.0008239746 .19198609-.0078125 .21598816-.0078125 .24198914-.0078125 .2659912 .0051727297 .28799439 .019180298 .31498719 .03918457 .33699037 .062179567 .35699464 .08917236V.10017395L.34399415 .110183719C.32798768 .09617615 .31199647 .08418274 .2939911 .07417297 .28199769 .06817627 .2659912 .06518555 .2519989 .06518555 .23799134 .06518555 .22599793 .07417297 .21998596 .08717346 .21199036 .10517883 .20799256 .14117432 .20799256 .18217469L.21598816 .39215089C.21598816 .41314698 .21398926 .43714906 .19999695 .45315553 .18798828 .46914674 .16799927 .47114564 .1539917 .47114564 .1349945 .47114564 .11299133 .45915223 .09498596 .45014955 .070999149 .43815614 .037994386 .41514588 .01399231 .39614869M.11199951 .6273346C.11199951 .59532168 .13798523 .56933596 .16999817 .56933596 .20199585 .56933596 .22799683 .59233096 .22999573 .6253357 .22999573 .6553345 .20999146 .68333438 .17599488 .68333438 .1459961 .68333438 .11399841 .6613312 .11199951 .6273346Z"/>
</defs>
<path transform="matrix(1.5,0,0,-1.5,76.119647,178.00159)" stroke-width=".79701" stroke-linecap="butt" stroke-miterlimit="10" stroke-linejoin="miter" fill="none" stroke="#000000" d="M0 0V30.61449M0 54.42592V85.04042L26.64601 85.0404M58.3944 85.0404 85.04042 85.04042 115.6549 85.0404M139.46636 85.0404 170.08086 85.04042V46.48868M170.08086 38.55173V0H0"/>
<path transform="matrix(1.5,0,0,-1.5,76.119647,178.00159)" stroke-width=".79701" stroke-linecap="butt" stroke-miterlimit="10" stroke-linejoin="miter" fill="none" stroke="#000000" d="M-11.90572 42.5202C-11.90572 49.09561-6.57541 54.42592 0 54.42592 6.57541 54.42592 11.90572 49.09561 11.90572 42.5202 11.90572 35.94478 6.57541 30.61449 0 30.61449-6.57541 30.61449-11.90572 35.94478-11.90572 42.5202ZM0 42.5202"/>
<use data-text="&#x2212;" xlink:href="#font_0_1" transform="matrix(-21.5193,-0,0,-21.5193,84.25636,125.506259)"/>
<use data-text="+" xlink:href="#font_0_2" transform="matrix(-21.5193,-0,0,-21.5193,84.2456,114.3354)"/>
<use data-text="v" xlink:href="#font_0_3" transform="matrix(21.5193,0,0,-21.5193,10.255126,119.603549)"/>
<use data-text="(" xlink:href="#font_0_4" transform="matrix(21.5193,0,0,-21.5193,20.907177,119.603549)"/>
<use data-text="t" xlink:href="#font_0_5" transform="matrix(21.5193,0,0,-21.5193,30.452279,119.603549)"/>
<use data-text=")" xlink:href="#font_0_6" transform="matrix(21.5193,0,0,-21.5193,40.599924,119.603549)"/>
<path transform="matrix(1.5,0,0,-1.5,76.119647,178.00159)" stroke-width=".79701" stroke-linecap="butt" stroke-linejoin="bevel" fill="none" stroke="#000000" d="M26.2475 85.0404 29.3249 90.99326 34.68272 79.08755 40.04054 90.99326 45.39836 79.08755 50.75618 90.99326 56.114 79.08755 58.7929 85.0404"/>
<use data-text="R" xlink:href="#font_0_7" transform="matrix(21.5193,0,0,-21.5193,133.34455,32.54834)"/>
<path transform="matrix(1.5,0,0,-1.5,76.119647,178.00159)" stroke-width=".79701" stroke-linecap="butt" stroke-linejoin="bevel" fill="none" stroke="#000000" d="M115.25641 84.7216C115.25641 88.00931 116.89114 90.67445 118.90776 90.67445 120.92436 90.67445 122.5591 88.00931 122.5591 84.7216 122.5591 83.07785 121.89284 81.74533 121.07097 81.74533 120.24908 81.74533 119.58282 83.07785 119.58282 84.7216 119.58282 88.00931 121.21758 90.67445 123.23418 90.67445 125.25078 90.67445 126.88553 88.00931 126.88553 84.7216 126.88553 83.07785 126.21927 81.74533 125.39738 81.74533 124.5755 81.74533 123.90926 83.07785 123.90926 84.7216 123.90926 88.00931 125.54399 90.67445 127.5606 90.67445 129.57721 90.67445 131.21195 88.00931 131.21195 84.7216 131.21195 83.07785 130.54569 81.74533 129.72382 81.74533 128.90193 81.74533 128.23567 83.07785 128.23567 84.7216 128.23567 88.00931 129.87042 90.67445 131.88703 90.67445 133.90363 90.67445 135.53838 88.00931 135.53838 84.7216 135.53838 83.07785 134.87212 81.74533 134.05023 81.74533 133.22835 81.74533 132.56209 83.07785 132.56209 84.7216 132.56209 88.00931 134.19684 90.67445 136.21344 90.67445 138.23004 90.67445 139.86479 88.00931 139.86479 84.7216"/>
<use data-text="L" xlink:href="#font_0_8" transform="matrix(21.5193,0,0,-21.5193,261.4417,32.54834)"/>
<path transform="matrix(1.5,0,0,-1.5,76.119647,178.00159)" stroke-width=".79701" stroke-linecap="butt" stroke-miterlimit="10" stroke-linejoin="miter" fill="none" stroke="#000000" d="M181.98657 46.48868H158.17514M181.98657 38.55173H158.17514"/>
<use data-text="C" xlink:href="#font_0_9" transform="matrix(21.5193,0,0,-21.5193,354.91798,119.60353)"/>
<path transform="matrix(1.5,0,0,-1.5,76.119647,178.00159)" stroke-width=".79701" stroke-linecap="butt" stroke-miterlimit="10" stroke-linejoin="miter" fill="none" stroke="#000000" d="M28.3468 56.69362C28.3468 56.69362 100.02916 64.55974 127.56062 56.69362 155.0921 48.82748 155.0921 36.21294 127.56062 28.3468 101.64442 20.94217 36.60602 27.47792 29.0636 28.2703"/>
<path transform="matrix(-1.490985,-.163605,-.163605,1.490985,119.23399,135.54657)" stroke-width=".79701" stroke-linecap="round" stroke-linejoin="round" fill="none" stroke="#000000" d="M-2.55046 3.11095C-2.0845 1.24435-1.04614 .36295 0 0-1.04614-.36295-2.0845-1.24435-2.55046-3.11095"/>
<use data-text="i" xlink:href="#font_0_10" transform="matrix(21.5193,0,0,-21.5193,185.77916,119.60353)"/>
<use data-text="(" xlink:href="#font_0_4" transform="matrix(21.5193,0,0,-21.5193,193.52613,119.60353)"/>
<use data-text="t" xlink:href="#font_0_5" transform="matrix(21.5193,0,0,-21.5193,203.07123,119.60353)"/>
<use data-text=")" xlink:href="#font_0_6" transform="matrix(21.5193,0,0,-21.5193,213.21886,119.60353)"/>
</svg>
