<svg xmlns="http://www.w3.org/2000/svg" xmlns:xlink="http://www.w3.org/1999/xlink" xmlns:inkscape="http://www.inkscape.org/namespaces/inkscape" version="1.1" width="251.23828" height="67.08729" viewBox="0 0 251.23828 67.08729">
<defs>
<path id="font_0_1" d="M.039993287 .10900879C.039993287 .003112793 .12799073-.0048828127 .21499634-.0048828127H.2639923C.33599855-.0048828127 .3869934-.010894775 .3869934-.07501221 .3869934-.13111878 .35798646-.17720032 .25099183-.17720032 .13798523-.17720032 .07499695-.13612366 .07499695-.06599426 .055999757-.093048099 .04798889-.11709595 .04798889-.13812256 .04798889-.2071991 .13798523-.2421875 .25099183-.2421875 .3999939-.2421875 .46699525-.17218018 .46699525-.071014408 .46699525 .056106569 .3619995 .06210327 .2669983 .06210327H.23399353C.15098572 .06210327 .11399841 .0690918 .11399841 .12298584 .11399841 .13694763 .116989139 .15393067 .12199402 .17593384 .12199402 .17593384 .16299439 .14593506 .25099183 .14593506 .37799073 .14593506 .44699098 .20593262 .44699098 .3070221V.5091553C.42199708 .49716188 .39898683 .49316407 .3769989 .49316407 .33099366 .4927063 .28799439 .51171877 .23298645 .51171877 .14199829 .51171877 .054992677 .4717102 .054992677 .3637848V.306839C.054992677 .2658844 .06599426 .23190308 .08699036 .20593262 .05999756 .17593384 .039993287 .14793396 .039993287 .10900879M.1349945 .32203675V.34906007C.1349945 .41812135 .1579895 .44815064 .24699402 .44815064 .31999208 .44815064 .36698915 .4241333 .36698915 .4241333V.32203675C.36698915 .25196839 .34399415 .2109375 .25099183 .2109375 .1579895 .2109375 .1349945 .25196839 .1349945 .32203675Z"/>
<path id="font_0_2" d="M.1349945 .25619508C.1349945 .4941864 .20599365 .6951904 .29100038 .7001953 .269989 .7181854 .25 .7251892 .23199463 .7251892 .1309967 .7251892 .049987794 .5141907 .049987794 .25419618 .049987794-.0058135988 .1309967-.21679688 .23199463-.21679688 .25-.21679688 .269989-.20980835 .29100038-.19180298 .20599365-.1867981 .1349945 .014190674 .1349945 .25619508Z"/>
<path id="font_0_3" d="M.069992069 .14929199C.069992069 .04827881 .13899231-.01171875 .24598694-.01171875 .32699586-.01171875 .40899659 .022277832 .40899659 .090286258 .40899659 .11128235 .40098573 .1362915 .38198854 .16429138 .38198854 .09628296 .32299806 .058273317 .2539978 .058273317 .1749878 .058273317 .1499939 .105285648 .1499939 .17729187V.41635133H.30899049C.35798646 .41635133 .35899354 .48535157 .35899354 .48535157H.1499939V.5682068C.1499939 .61813357 .069992069 .6191406 .069992069 .6191406V.14929199Z"/>
<path id="font_0_4" d="M.17599488 .25619508C.17599488 .014190674 .10499573-.1867981 .019989014-.19180298 .040985109-.20980835 .06098938-.21679688 .07899475-.21679688 .17999268-.21679688 .26098634-.0058135988 .26098634 .25419618 .26098634 .5141907 .17999268 .7251892 .07899475 .7251892 .06098938 .7251892 .040985109 .7181854 .019989014 .7001953 .10499573 .6951904 .17599488 .4941864 .17599488 .25619508Z"/>
<path id="font_1_1" d="M.0019989014 .40022279 .015991211 .3822174C.033996583 .39422608 .05899048 .40722657 .07998657 .40722657 .09298706 .40722657 .10598755 .4012146 .114990238 .39222718 .14898682 .3572235 .18598938 .28224183 .21499634 .22325135 .1659851 .15925598 .115997318 .090270999 .07299805 .021270752V.0132751469L.100997928-.01171875 .116989139-.0077209474C.14698792 .0692749 .18699646 .1312561 .22599793 .19125366H.23298645C.25498963 .1482544 .28799439 .08627319 .30299378 .061279298 .31399537 .042266847 .32499696 .023269654 .34098817 .009277344 .35299684-.0027313233 .36698915-.01171875 .38398744-.01171875 .4039917-.01171875 .42099 .0002746582 .43699647 .012268066 .46499635 .03227234 .4889984 .057266237 .5119934 .08227539L.5039978 .10127258H.49598695C.48298646 .090270999 .47200013 .08227539 .45799256 .07426453 .44799806 .0692749 .43699647 .0632782 .4249878 .0632782 .4099884 .0632782 .397995 .072265628 .3880005 .08126831 .35699464 .10826111 .30699159 .20225525 .2809906 .25924684 .33299256 .3202362 .39698792 .3852234 .45298768 .42422486 .45498658 .42521668 .45599366 .42622376 .45599366 .42921449 .45599366 .43022157 .45399476 .43222047 .45298768 .43321229L.42199708 .46221925C.41999818 .46421815 .41799928 .46421815 .41600038 .46421815 .41299439 .46421815 .41099549 .46421815 .4099884 .46221925 .3659973 .41122438 .30699159 .3412323 .2709961 .2932434L.2649994 .29423524C.23599243 .35021974 .19499207 .42222596 .17399597 .44522096 .16099549 .46022035 .13699341 .46421815 .11999512 .46421815 .10398865 .46421815 .08898926 .45622254 .07398987 .44821168 .04899597 .43421937 .024993897 .4182129 .0019989014 .40022279Z"/>
<path id="font_1_2" d="M.11299133 .24990845C.11299133 .007904053 .1519928-.09008789 .18299866-.13310242 .21099854-.17008972 .25299073-.20809937 .30099488-.21209717V-.1880951C.2809906-.18409729 .25099183-.16809082 .23399353-.1481018 .21998596-.13209534 .16499329-.05809021 .16499329 .24990845 .16499329 .4618988 .19799805 .5659027 .21998596 .6128998 .23599243 .6469116 .2689972 .6769104 .30099488 .684906V.71191409C.2599945 .7049103 .21598816 .6729126 .19099427 .63790896 .1599884 .5919037 .11299133 .4748993 .11299133 .24990845Z"/>
<path id="font_1_3" d="M.016998291 .40538026 .021987915 .40039063H.13398743L.13999939 .39338685V.20327759C.13999939 .06820679 .14199829 .049209596 .16299439 .022201539 .18099976-.0018005371 .21199036-.0087890629 .23498535-.0087890629 .2619934-.0087890629 .2869873 .0012054443 .31098939 .014205933 .34298707 .031204224 .37199403 .05419922 .39898683 .07922363L.3919983 .09422302 .37998963 .096221927C.34999085 .07720947 .31399537 .0552063 .2889862 .0552063 .27198792 .0552063 .25698854 .06021118 .24398804 .07521057 .22200012 .099227908 .21798706 .16325379 .21798706 .20527649V.39437867L.22399903 .40039063H.34298707L.34899903 .40538026 .35699464 .43138124 .35198976 .43537904H.22399903L.21798706 .4403839C.21899414 .49838258 .22399903 .54937747 .22898865 .6063843L.22200012 .61138918 .13798523 .5823822C.13999939 .5563812 .13999939 .49238587 .13999939 .44137574L.13398743 .43537904H.02999878L.023986817 .42938233 .016998291 .40538026Z"/>
<path id="font_1_4" d="M.085998538-.1880951V-.21209717C.13398743-.20610047 .1789856-.17208863 .20698548-.13510132 .23799134-.09210205 .27598573 .007904053 .27598573 .24990845 .27598573 .50090029 .22399903 .5919037 .19299317 .63790896 .16799927 .6729126 .1269989 .7049103 .085998538 .71191409V.684906C.117996219 .6759033 .14898682 .6469116 .16499329 .6128998 .18699646 .5659027 .22399903 .48190309 .22399903 .24990845 .22399903-.099090579 .17199707-.13209534 .1579895-.1481018 .14099121-.16809082 .10598755-.18409729 .085998538-.1880951Z"/>
<path id="font_1_5" d="M-.01701355 .40115357-.006011963 .38215638C.016998291 .39414979 .04798889 .41015626 .06498718 .41015626 .07699585 .41015626 .08898926 .4061432 .09599304 .39614869 .10798645 .38015748 .11099243 .33815003 .11099243 .29415895 .11099243 .26815797 .10699463 .1771698 .10699463 .15716553 .10699463 .059173585 .12599182-.0078125 .21099854-.0078125 .27198792-.0078125 .36499024 .048187257 .39898683 .06918335L.40499879 .06417847C.39898683-.02079773 .4019928-.19143677 .2559967-.19143677 .21099854-.19143677 .17298889-.1525116 .1519928-.114593509H.13899231L.09498596-.17047119 .09700012-.18145752C.12399292-.20942688 .1769867-.23242188 .22399903-.23242188 .2919922-.23242188 .36299134-.20843506 .41099549-.15750122 .45999146-.10560608 .48399354-.049728395 .4850006 .13816834 .4850006 .15716553 .4850006 .37615968 .4909973 .46214295L.47898866 .466156 .3999939 .42814637C.40499879 .35914613 .4079895 .28715516 .4079895 .21516419 .4079895 .1791687 .40699769 .14317322 .4059906 .108169559 .38598634 .09617615 .32598878 .05618286 .27198792 .05618286 .20799256 .05618286 .18099976 .092178348 .18099976 .22616577 .18099976 .28416444 .18499756 .34214784 .18499756 .39814759 .18499756 .41914369 .17799378 .4681549 .12199402 .4681549 .07899475 .4681549-.009002686 .40715028-.01701355 .40115357Z"/>
</defs>
<use data-text="g" xlink:href="#font_0_1" transform="matrix(21.51912,0,0,-21.519265,108.20504,38.74144)"/>
<use data-text="(" xlink:href="#font_0_2" transform="matrix(21.51912,0,0,-21.519265,118.90003,38.74144)"/>
<use data-text="t" xlink:href="#font_0_3" transform="matrix(21.51912,0,0,-21.519265,125.592479,38.74144)"/>
<use data-text=")" xlink:href="#font_0_4" transform="matrix(21.51912,0,0,-21.519265,134.52292,38.74144)"/>
<path transform="matrix(1,0,0,-1,124.71507,33.54311)" stroke-width=".75" stroke-linecap="round" stroke-linejoin="round" fill="none" stroke="#000000" d="M-16.818869-25.379893C-16.88194-24.626576-16.14102-24.761397-16.692254-25.18436-5.235355-24.464455 5.710585-26.069193 16.535967-25.422047 31.620224-26.058915 31.262848-26.08629 31.193978-10.373716 30.58744-3.66277 30.877497 3.890291 31.493279 10.355977 32.397817 25.566403 30.551766 25.902878 15.570658 25.481122 6.444431 25.091378-6.204755 24.892556-17.434849 26.354142-32.466329 24.500813-31.889655 26.287899-32.289014 10.716504-30.554974 3.858992-32.139345-3.952223-30.997197-9.807845-31.50321-24.54017-31.402567-24.497672-16.818869-25.379893Z"/>
<path transform="matrix(1,0,0,-1,124.71507,33.54311)" stroke-width=".75" stroke-linecap="round" stroke-linejoin="round" fill="none" stroke="#000000" d="M-74.234317 .017764C-60.30458-.395568-46.326116 .236217-31.94965 .442101"/>
<path transform="matrix(1,0,0,-1,124.71507,33.54311)" stroke-width=".75" stroke-linecap="round" stroke-linejoin="round" fill="none" stroke="#000000" d="M-44.08981-8.313874C-40.986997-3.930713-36.743124-.720441-32.08599 .173079-36.785699 .915513-41.02759 4.110124-44.545164 7.869226"/>
<path transform="matrix(1,0,0,-1,124.71507,33.54311)" stroke-width=".75" stroke-linecap="round" stroke-linejoin="round" fill="none" stroke="#000000" d="M31.472296-.097417C45.52264-.269538 60.027097 .047292 74.46838 .12311"/>
<path transform="matrix(1,0,0,-1,124.71507,33.54311)" stroke-width=".75" stroke-linecap="round" stroke-linejoin="round" fill="none" stroke="#000000" d="M61.577596-8.135717C64.7368-3.96065 69.10209-1.329972 74.1644-.226138 69.08202 1.552254 64.76872 3.593575 61.24011 8.060819"/>
<path transform="matrix(1,0,0,-1,124.71507,33.54311)" stroke-width=".75" stroke-linecap="round" stroke-linejoin="round" fill="none" stroke="#000000" d="M-15.79479-24.685156C-15.731363-24.436392-17.42304-24.923554-17.314713-24.639538-6.356585-25.090542 5.018515-25.675274 17.332655-24.629528 30.651764-24.705517 31.004828-25.024756 31.420758-9.798389 30.675856-4.208493 32.163415 2.947852 32.00564 10.495208 31.205122 25.036179 31.650929 24.584509 17.105179 25.111533 5.134744 25.115069-4.6388 25.16058-16.89552 26.233994-30.676365 25.803233-31.434233 25.394886-31.369675 10.149063-31.047122 3.038866-30.68569-3.430169-31.357909-11.096046-31.372286-25.057789-31.599555-25.781012-15.79479-24.685156Z"/>
<path transform="matrix(1,0,0,-1,124.71507,33.54311)" stroke-width=".75" stroke-linecap="round" stroke-linejoin="round" fill="none" stroke="#000000" d="M-74.4187-.332053C-60.424596-.195854-46.226327 .276514-31.847964-.240291"/>
<path transform="matrix(1,0,0,-1,124.71507,33.54311)" stroke-width=".75" stroke-linecap="round" stroke-linejoin="round" fill="none" stroke="#000000" d="M-44.240968-8.463437C-41.717714-4.115593-36.625204-.837457-31.696072-.309552-37.232507 1.042105-41.53641 4.383539-44.15751 7.626543"/>
<path transform="matrix(1,0,0,-1,124.71507,33.54311)" stroke-width=".75" stroke-linecap="round" stroke-linejoin="round" fill="none" stroke="#000000" d="M31.733016-.346486C45.58088-.337987 60.27957-.010898 74.229839-.291354"/>
<path transform="matrix(1,0,0,-1,124.71507,33.54311)" stroke-width=".75" stroke-linecap="round" stroke-linejoin="round" fill="none" stroke="#000000" d="M61.36674-8.029944C64.62181-4.382368 68.890079-.727487 73.70514 .245113 68.93214 1.155475 64.598049 4.35003 61.2265 7.904832"/>
<path transform="matrix(1,0,0,-1,124.71507,33.54311)" stroke-width=".75" stroke-linecap="round" stroke-linejoin="round" fill="none" stroke="#000000" d="M-17.032162-25.476033C-15.632897-25.065085-15.584939-25.186854-16.355738-26.277472-4.711214-26.226687 4.857491-24.952809 16.389365-26.034716 31.86047-25.466479 31.673745-24.869837 30.787032-10.709349 31.832755-4.261504 31.924265 3.79703 30.926959 11.069675 30.881722 25.72518 32.20766 25.960465 17.27451 25.632008 6.173747 25.137249-6.206091 25.296385-17.081645 24.537278-30.606026 25.082308-31.143687 25.23089-30.728945 9.963839-31.06495 4.343616-31.943982-4.150089-30.660815-11.044868-30.882863-26.073061-31.146908-24.515355-17.032162-25.476033Z"/>
<path transform="matrix(1,0,0,-1,124.71507,33.54311)" stroke-width=".75" stroke-linecap="round" stroke-linejoin="round" fill="none" stroke="#000000" d="M-74.155879-.12518C-60.264337 .275197-46.149663-.244921-32.242506 .199052"/>
<path transform="matrix(1,0,0,-1,124.71507,33.54311)" stroke-width=".75" stroke-linecap="round" stroke-linejoin="round" fill="none" stroke="#000000" d="M-44.791837-8.047286C-41.805807-4.096419-36.884687-.931058-31.635746-.274839-36.66313 1.240001-41.76768 3.971899-44.85664 8.025022"/>
<path transform="matrix(1,0,0,-1,124.71507,33.54311)" stroke-width=".75" stroke-linecap="round" stroke-linejoin="round" fill="none" stroke="#000000" d="M31.580454 .270739C45.857706-.176899 59.648775 .341254 73.618907-.446726"/>
<path transform="matrix(1,0,0,-1,124.71507,33.54311)" stroke-width=".75" stroke-linecap="round" stroke-linejoin="round" fill="none" stroke="#000000" d="M61.674287-7.880449C64.48134-4.258473 69.08781-.933228 73.96838-.355316 69.39386 1.555842 64.431407 3.596382 61.0075 8.123737"/>
<path transform="matrix(1,0,0,-1,124.71507,33.54311)" stroke-width=".75" stroke-linecap="round" stroke-linejoin="round" fill="none" stroke="#000000" d="M-17.197773-26.315138C-16.928032-25.55675-16.708939-26.173298-17.411871-25.715929-4.93313-25.512539 4.781717-24.454455 16.917634-25.666945 31.096972-25.741232 31.889998-24.728264 31.441287-9.446922 30.972579-4.28184 31.42338 3.47889 32.141077 10.426403 31.120272 26.19316 30.7128 24.565016 17.1142 24.651883 6.082256 26.347533-6.093055 24.81435-17.065215 25.377602-31.080042 24.583758-31.914359 25.9285-32.085615 10.691724-31.313517 3.815386-31.210942-3.259892-31.64577-10.865016-32.084508-24.881552-30.936682-25.154347-17.197773-26.315138Z"/>
<path transform="matrix(1,0,0,-1,124.71507,33.54311)" stroke-width=".75" stroke-linecap="round" stroke-linejoin="round" fill="none" stroke="#000000" d="M-74.08763 .228369C-60.229238-.346963-45.88045 .09582-32.327775-.22285"/>
<path transform="matrix(1,0,0,-1,124.71507,33.54311)" stroke-width=".75" stroke-linecap="round" stroke-linejoin="round" fill="none" stroke="#000000" d="M-44.584806-8.120973C-41.292337-3.98171-37.07739-1.385596-32.060625-.241483-36.91693 1.141369-41.538949 4.365432-44.250276 8.022342"/>
<path transform="matrix(1,0,0,-1,124.71507,33.54311)" stroke-width=".75" stroke-linecap="round" stroke-linejoin="round" fill="none" stroke="#000000" d="M31.168116 .443397C45.81078 .311033 59.581697 .025761 73.58072-.443948"/>
<path transform="matrix(1,0,0,-1,124.71507,33.54311)" stroke-width=".75" stroke-linecap="round" stroke-linejoin="round" fill="none" stroke="#000000" d="M61.189924-8.113968C64.11841-4.085206 68.69476-1.537154 73.792758 .215757 68.80508 1.24438 64.57466 3.614419 61.724393 8.165299"/>
<path transform="matrix(1,0,0,-1,124.71507,33.54311)" stroke-width=".75" stroke-linecap="round" stroke-linejoin="round" fill="none" stroke="#000000" d="M-15.896459-24.697829C-17.436909-24.744973-17.116738-25.680783-16.893248-24.956667-5.483811-26.283499 4.618069-24.86808 17.238266-26.355204 30.663134-24.843167 31.154-26.155234 30.663264-10.913298 30.77048-3.517724 32.471624 4.216814 31.944153 9.630225 31.51859 25.415266 32.108865 26.349663 17.184655 24.827105 6.342225 24.562306-4.888496 24.906836-16.050686 24.9427-31.239636 25.478642-31.388823 26.285054-30.685017 9.771145-32.04627 2.512517-30.77409-3.350598-31.892476-9.482193-31.417563-25.873208-31.873866-25.112647-15.896459-24.697829Z"/>
<path transform="matrix(1,0,0,-1,124.71507,33.54311)" stroke-width=".75" stroke-linecap="round" stroke-linejoin="round" fill="none" stroke="#000000" d="M-73.790248 .295175C-59.997465-.040038-46.205244 .211898-31.46464 .278948"/>
<path transform="matrix(1,0,0,-1,124.71507,33.54311)" stroke-width=".75" stroke-linecap="round" stroke-linejoin="round" fill="none" stroke="#000000" d="M-44.71003-7.721539C-41.61762-4.356815-36.54931-1.108307-31.885674 .322814-37.110647 1.154689-41.489046 3.825101-44.19787 8.297719"/>
<path transform="matrix(1,0,0,-1,124.71507,33.54311)" stroke-width=".75" stroke-linecap="round" stroke-linejoin="round" fill="none" stroke="#000000" d="M31.222527-.36551C45.881509 .200302 60.250108 .218699 74.44632 .077702"/>
<path transform="matrix(1,0,0,-1,124.71507,33.54311)" stroke-width=".75" stroke-linecap="round" stroke-linejoin="round" fill="none" stroke="#000000" d="M61.150625-7.699386C64.35364-3.567529 68.941349-1.16628 74.385959-.393122 69.158649 1.132807 64.27392 4.104134 61.19411 7.623861"/>
<use data-text="x" xlink:href="#font_1_1" transform="matrix(21.519349,0,0,-21.519398,6.814293,38.924409)"/>
<use data-text="(" xlink:href="#font_1_2" transform="matrix(21.519349,0,0,-21.519398,18.133473,38.924409)"/>
<use data-text="t" xlink:href="#font_1_3" transform="matrix(21.519349,0,0,-21.519398,27.678593,38.924409)"/>
<use data-text=")" xlink:href="#font_1_4" transform="matrix(21.519349,0,0,-21.519398,37.82626,38.924409)"/>
<use data-text="y" xlink:href="#font_1_5" transform="matrix(21.519242,0,0,-21.519371,203.60999,38.69837)"/>
<use data-text="(" xlink:href="#font_1_2" transform="matrix(21.519242,0,0,-21.519371,216.37091,38.69837)"/>
<use data-text="t" xlink:href="#font_1_3" transform="matrix(21.519242,0,0,-21.519371,225.91599,38.69837)"/>
<use data-text=")" xlink:href="#font_1_4" transform="matrix(21.519242,0,0,-21.519371,236.0636,38.69837)"/>
</svg>
