<svg xmlns="http://www.w3.org/2000/svg" xmlns:xlink="http://www.w3.org/1999/xlink" xmlns:inkscape="http://www.inkscape.org/namespaces/inkscape" version="1.1" width="288.55238" height="65.9863" viewBox="0 0 288.55238 65.9863">
<defs>
<path id="font_2_6" d="M.08999634 .32458497C.08999634 .22958374 .114990238 .13148499 .18299866 .06341553 .23699951 .009384155 .31199647-.016601563 .3880005-.016601563 .46099855-.016601563 .56900027 .010391235 .6569977 .03338623 .6569977 .03338623 .6539917 .216568 .6519928 .30760194L.37599183 .2966156V.27061463L.38198854 .265625C.43598939 .26361085 .5 .25961305 .5439911 .25660707 .57199099 .25460816 .57199099 .22257996 .57199099 .13449097 .57199099 .061416627 .56900027 .04940796 .5519867 .045394899 .5209961 .038391115 .48999024 .03538513 .45799256 .03538513 .37998963 .03538513 .30599977 .060409547 .2619934 .112472537 .20399475 .18052674 .17999268 .25260926 .17999268 .3405609 .17999268 .48339845 .23199463 .5653076 .26098634 .5942688 .3039856 .63623049 .36299134 .6502075 .42199708 .6502075 .5529938 .6502075 .59298709 .5563202 .60598757 .53034976L.6179962 .5293579 .6759949 .58628848C.6649933 .6032715 .6119995 .69921877 .46699525 .69921877 .3619995 .69921877 .25698854 .6682129 .18199158 .593277 .11199951 .5233612 .08999634 .4224701 .08999634 .32458497Z"/>
<path id="font_2_2" d="M.11299133 .24990845C.11299133 .007904053 .1519928-.09008789 .18299866-.13310242 .21099854-.17008972 .25299073-.20809937 .30099488-.21209717V-.1880951C.2809906-.18409729 .25099183-.16809082 .23399353-.1481018 .21998596-.13209534 .16499329-.05809021 .16499329 .24990845 .16499329 .4618988 .19799805 .5659027 .21998596 .6128998 .23599243 .6469116 .2689972 .6769104 .30099488 .684906V.71191409C.2599945 .7049103 .21598816 .6729126 .19099427 .63790896 .1599884 .5919037 .11299133 .4748993 .11299133 .24990845Z"/>
<path id="font_2_7" d="M.051986696 .06642151C.06199646 .047409059 .07598877 .030395508 .09199524 .01638794 .12098694-.009613037 .16099549-.016601563 .19898987-.016601563 .2559967-.016601563 .31199647 .0023956299 .35099793 .044403078 .375 .06941223 .3869934 .10343933 .3869934 .13845825 .3869934 .1634674 .37298585 .18649292 .35499574 .20449829 .34098817 .21850586 .3039856 .24052429 .27198792 .25453187 .24299622 .26654054 .19999695 .2885437 .18798828 .30055238 .17298889 .31655885 .1619873 .3285675 .1619873 .35058595 .1619873 .3725891 .16899109 .39360047 .18499756 .4086151 .19999695 .42362977 .22200012 .43164063 .24398804 .43164063 .2639923 .43164063 .2849884 .42462159 .29599 .4066162 .30599977 .39060975 .30799867 .3715973 .30899049 .35359193L.32099916 .34657289 .37599183 .38360597C.375 .40560914 .3639984 .42662049 .34799195 .44163514 .32499696 .46263124 .29299928 .46662904 .2630005 .46662904 .21398926 .46662904 .16699219 .45063783 .1309967 .4176178 .10398865 .39360047 .08999634 .35858155 .08999634 .32356263 .08999634 .29154969 .10798645 .26353456 .1309967 .2425232 .1539917 .22250366 .18399048 .2084961 .21499634 .1954956 .24099732 .18447876 .2689972 .17248535 .28799439 .1534729 .30299378 .13845825 .31399537 .11845398 .31399537 .09744263 .31399537 .079422 .30499269 .062408449 .29299928 .04940796 .27799989 .03340149 .25099183 .021392823 .22898865 .021392823 .19898987 .021392823 .17199707 .03439331 .1499939 .055404664 .1269989 .076416019 .116989139 .10644531 .114990238 .13645935L.100997928 .13745117 .051986696 .06642151Z"/>
<path id="font_2_4" d="M.085998538-.1880951V-.21209717C.13398743-.20610047 .1789856-.17208863 .20698548-.13510132 .23799134-.09210205 .27598573 .007904053 .27598573 .24990845 .27598573 .50090029 .22399903 .5919037 .19299317 .63790896 .16799927 .6729126 .1269989 .7049103 .085998538 .71191409V.684906C.117996219 .6759033 .14898682 .6469116 .16499329 .6128998 .18699646 .5659027 .22399903 .48190309 .22399903 .24990845 .22399903-.099090579 .17199707-.13209534 .1579895-.1481018 .14099121-.16809082 .10598755-.18409729 .085998538-.1880951Z"/>
<path id="font_2_8" d="M.068984989 .22636414C.068984989 .17733765 .07598877 .12631226 .09498596 .08029175 .10398865 .057281496 .116989139 .03427124 .13699341 .01828003 .16499329-.0037231446 .19999695-.01171875 .23498535-.01171875 .2769928-.01171875 .31799317 .0022735596 .35398866 .023269654 .3939972 .045272829 .42999269 .073287967 .46299745 .10429382L.44999696 .12231445 .43899537 .124313358C.41600038 .106292728 .3919983 .091293338 .36698915 .07827759 .34098817 .0652771 .31399537 .056274415 .2849884 .056274415 .25498963 .056274415 .22499085 .06428528 .20298767 .08528137 .17298889 .11329651 .15899658 .1643219 .1559906 .19734192L.43798829 .31941224C.44499208 .32240296 .45498658 .32740785 .45799256 .33241273 .45899964 .3334198 .45899964 .33641053 .45899964 .34042359 .45899964 .3824463 .44198609 .4234619 .40899659 .45046998 .3829956 .47146607 .34999085 .47846986 .31698609 .47846986 .24099732 .47846986 .16899109 .4454651 .11999512 .388443 .08099365 .3434143 .068984989 .2843933 .068984989 .22636414M.1519928 .26037599C.1519928 .30940248 .15899658 .35443116 .19799805 .39645387 .21899414 .42245484 .24899292 .43847657 .28199769 .43847657 .30099488 .43847657 .31399537 .43547059 .32598878 .4284668 .34999085 .41246034 .3659973 .3794403 .37199403 .35443116 .37298585 .35142518 .37298585 .34742738 .37298585 .3444214 .37298585 .32841493 .3659973 .32040406 .3600006 .31840516L.1579895 .2383728 .1539917 .2423706C.15299988 .24836731 .1519928 .25437928 .1519928 .26037599Z"/>
<path id="font_2_9" d="M.08999634 .06642151C.100997928 .047409059 .116989139 .030395508 .1349945 .01638794 .16799927-.009613037 .21299744-.016601563 .2559967-.016601563 .31999208-.016601563 .38398744 .0023956299 .42799378 .044403078 .45498658 .06941223 .46798707 .10343933 .46798707 .13845825 .46798707 .1634674 .45298768 .18649292 .43199159 .20449829 .4169922 .21850586 .375 .24052429 .33799745 .25453187 .30599977 .26654054 .25698854 .2885437 .24299622 .30055238 .22599793 .31655885 .21398926 .3285675 .21398926 .35058595 .21398926 .3725891 .22200012 .39360047 .23999024 .4086151 .25698854 .42362977 .28199769 .43164063 .30699159 .43164063 .32899476 .43164063 .35299684 .42462159 .36499024 .4066162 .3769989 .39060975 .3789978 .3715973 .37998963 .35359193L.3939972 .34657289 .45599366 .38360597C.45498658 .40560914 .44198609 .42662049 .42399598 .44163514 .397995 .46263124 .3619995 .46662904 .32798768 .46662904 .272995 .46662904 .21998596 .45063783 .1789856 .4176178 .14898682 .39360047 .1329956 .35858155 .1329956 .32356263 .1329956 .29154969 .15299988 .26353456 .1789856 .2425232 .20399475 .22250366 .23899842 .2084961 .27398683 .1954956 .30299378 .18447876 .33499146 .17248535 .35598756 .1534729 .37298585 .13845825 .38598634 .11845398 .38598634 .09744263 .38598634 .079422 .37599183 .062408449 .3619995 .04940796 .34599305 .03340149 .31498719 .021392823 .2899933 .021392823 .2559967 .021392823 .22499085 .03439331 .19999695 .055404664 .1749878 .076416019 .16299439 .10644531 .16099549 .13645935L.14498902 .13745117 .08999634 .06642151Z"/>
<path id="font_2_10" d="M.050994874 .40538026 .054992677 .40039063H.18299866L.18899536 .39338685V.20327759C.18899536 .06820679 .19099427 .049209596 .21499634 .022201539 .23599243-.0018005371 .2709961-.0087890629 .29699708-.0087890629 .32699586-.0087890629 .35499574 .0012054443 .38198854 .014205933 .4189911 .031204224 .45098878 .05419922 .48199464 .07922363L.47299195 .09422302 .46099855 .096221927C.4269867 .07720947 .38598634 .0552063 .35798646 .0552063 .33799745 .0552063 .32199098 .06021118 .30699159 .07521057 .2809906 .099227908 .2769928 .16325379 .2769928 .20527649V.39437867L.28399659 .40039063H.41799928L.42599488 .40538026 .43399049 .43138124 .42900086 .43537904H.28399659L.27799989 .4403839C.2789917 .49838258 .28399659 .54937747 .2899933 .6063843L.28199769 .61138918 .18699646 .5823822C.18899536 .5563812 .18899536 .49238587 .18899536 .44137574L.18199158 .43537904H.06498718L.057998659 .42938233 .050994874 .40538026Z"/>
</defs>
<use data-text="G" xlink:href="#font_2_6" transform="matrix(21.51903,0,0,-21.519398,97.72481,38.3415)"/>
<use data-text="(" xlink:href="#font_2_2" transform="matrix(21.51903,0,0,-21.519398,114.186878,38.3415)"/>
<use data-text="s" xlink:href="#font_2_7" transform="matrix(21.51903,0,0,-21.519398,123.73184,38.3415)"/>
<use data-text=")" xlink:href="#font_2_4" transform="matrix(21.51903,0,0,-21.519398,134.7186,38.3415)"/>
<path transform="matrix(1,0,0,-1,120.40274,32.960214)" stroke-width=".75" stroke-linecap="round" stroke-linejoin="round" fill="none" stroke="#000000" d="M-23.637564-25.523972C-22.282402-24.676039-22.069905-25.208384-22.55554-24.210371-6.679126-24.567494 7.19547-25.882946 22.475598-24.282929 36.799325-25.301093 37.086454-24.57258 37.62508-9.585125 38.110116-3.569893 38.037405 2.757058 36.708986 10.704303 37.453214 25.058712 36.716287 24.113924 22.982834 25.163052 6.852116 25.704737-8.178458 24.222132-22.697684 24.488789-36.978315 24.172907-37.921186 25.882288-37.596658 10.70447-38.60215 3.952678-38.233514-2.502785-38.393037-10.899014-36.7354-24.678315-37.454168-23.974549-23.637564-25.523972Z"/>
<path transform="matrix(1,0,0,-1,120.40274,32.960214)" stroke-width=".75" stroke-linecap="round" stroke-linejoin="round" fill="none" stroke="#000000" d="M-80.63128 .098884C-65.98322 .086043-52.470159 .248729-38.485399-.118024"/>
<path transform="matrix(1,0,0,-1,120.40274,32.960214)" stroke-width=".75" stroke-linecap="round" stroke-linejoin="round" fill="none" stroke="#000000" d="M-51.028638-7.910809C-47.383066-4.341548-43.388868-.813343-37.728788-.065441-43.513006 1.324326-47.89556 4.056944-50.92339 7.836142"/>
<path transform="matrix(1,0,0,-1,120.40274,32.960214)" stroke-width=".75" stroke-linecap="round" stroke-linejoin="round" fill="none" stroke="#000000" d="M37.84258 .32584C51.682397-.169591 65.71101 .409982 80.442188-.203856"/>
<path transform="matrix(1,0,0,-1,120.40274,32.960214)" stroke-width=".75" stroke-linecap="round" stroke-linejoin="round" fill="none" stroke="#000000" d="M67.24254-7.941783C70.780208-3.652129 75.22633-1.233747 79.89779-.07022 75.01257 1.269288 70.47488 4.066121 67.86246 7.691112"/>
<path transform="matrix(1,0,0,-1,120.40274,32.960214)" stroke-width=".75" stroke-linecap="round" stroke-linejoin="round" fill="none" stroke="#000000" d="M-21.778418-24.78376C-23.33724-25.89746-21.836642-24.637024-22.100899-25.837105-7.127729-24.43679 7.687182-25.50715 23.071774-24.62917 38.61694-24.226103 38.17793-24.81866 37.157403-9.652592 37.697225-3.796047 38.41412 2.574666 38.504674 10.167372 38.5416 24.967755 36.80394 24.326649 22.866236 24.697224 7.187747 24.904189-7.726667 25.843319-22.097056 25.487992-37.021104 25.818503-37.85421 25.442397-36.931814 9.804041-36.786985 2.721199-37.05015-3.020624-36.760225-10.669137-37.908098-24.80267-36.937246-25.915909-21.778418-24.78376Z"/>
<path transform="matrix(1,0,0,-1,120.40274,32.960214)" stroke-width=".75" stroke-linecap="round" stroke-linejoin="round" fill="none" stroke="#000000" d="M-79.795528 .092356C-66.20272 .056091-51.89707-.096021-37.78666 .192057"/>
<path transform="matrix(1,0,0,-1,120.40274,32.960214)" stroke-width=".75" stroke-linecap="round" stroke-linejoin="round" fill="none" stroke="#000000" d="M-50.8636-8.365698C-47.346857-3.587965-43.26712-1.029738-38.456769 .445968-43.50452 .847235-47.96174 4.179575-50.74043 8.481795"/>
<path transform="matrix(1,0,0,-1,120.40274,32.960214)" stroke-width=".75" stroke-linecap="round" stroke-linejoin="round" fill="none" stroke="#000000" d="M37.255495 .078055C51.849054 .284523 66.18517 .223038 80.01668-.041103"/>
<path transform="matrix(1,0,0,-1,120.40274,32.960214)" stroke-width=".75" stroke-linecap="round" stroke-linejoin="round" fill="none" stroke="#000000" d="M67.406-8.101046C70.81722-3.82046 75.23138-1.220794 80.63933-.369274 75.580577 1.574965 70.743679 4.25805 67.81782 8.24963"/>
<path transform="matrix(1,0,0,-1,120.40274,32.960214)" stroke-width=".75" stroke-linecap="round" stroke-linejoin="round" fill="none" stroke="#000000" d="M-22.44472-24.909695C-22.543824-24.427535-21.855784-24.305039-22.250123-25.596819-6.833078-25.906949 6.628254-24.3823 23.400406-24.247149 38.112604-24.748072 37.977434-25.6537 37.017278-10.239733 37.721395-3.452342 38.37127 2.54107 37.428537 10.162164 38.53778 24.535225 37.78058 25.797659 23.207724 24.935402 8.425284 24.775158-7.551087 24.921925-22.177302 25.771233-37.03479 25.363873-38.021894 24.482668-38.038164 10.110368-37.50787 2.572709-38.113306-2.917352-37.189096-10.91402-36.821268-25.71728-38.61473-24.019927-22.44472-24.909695Z"/>
<path transform="matrix(1,0,0,-1,120.40274,32.960214)" stroke-width=".75" stroke-linecap="round" stroke-linejoin="round" fill="none" stroke="#000000" d="M-80.06031 .387166C-66.09331-.32649-52.007547-.109886-38.070116-.225791"/>
<path transform="matrix(1,0,0,-1,120.40274,32.960214)" stroke-width=".75" stroke-linecap="round" stroke-linejoin="round" fill="none" stroke="#000000" d="M-50.931528-7.922784C-47.680437-4.296154-43.141607-1.175199-37.90073-.417434-42.947576 1.005993-47.11006 3.889184-50.80928 8.420549"/>
<path transform="matrix(1,0,0,-1,120.40274,32.960214)" stroke-width=".75" stroke-linecap="round" stroke-linejoin="round" fill="none" stroke="#000000" d="M37.627805 .19052C51.687055 .350378 65.69362 .438282 79.76392 .243113"/>
<path transform="matrix(1,0,0,-1,120.40274,32.960214)" stroke-width=".75" stroke-linecap="round" stroke-linejoin="round" fill="none" stroke="#000000" d="M67.47644-8.000571C70.80526-3.866759 75.56791-1.596651 80.28211 .058729 75.47332 1.338497 70.46161 3.693565 67.80674 8.002097"/>
<path transform="matrix(1,0,0,-1,120.40274,32.960214)" stroke-width=".75" stroke-linecap="round" stroke-linejoin="round" fill="none" stroke="#000000" d="M-21.8924-25.38768C-23.651778-24.471163-23.62332-25.088189-23.250407-25.299416-7.571685-24.949223 8.162796-25.064854 22.796542-25.402077 38.510179-24.236273 37.460718-24.208588 38.465639-10.374487 37.991228-3.589535 37.568784 3.450323 37.986989 9.43176 37.510915 25.684208 38.19263 23.981303 23.463208 25.34024 8.313824 24.731616-6.919612 25.295382-23.467669 25.728295-37.45504 25.154109-37.726427 25.27244-38.53608 10.635933-37.492376 4.101028-38.64005-3.42536-38.053445-10.341899-36.915456-25.733994-37.09639-24.071417-21.8924-25.38768Z"/>
<path transform="matrix(1,0,0,-1,120.40274,32.960214)" stroke-width=".75" stroke-linecap="round" stroke-linejoin="round" fill="none" stroke="#000000" d="M-80.04238-.284147C-66.20046-.154651-51.858804-.442716-37.75822 .096465"/>
<path transform="matrix(1,0,0,-1,120.40274,32.960214)" stroke-width=".75" stroke-linecap="round" stroke-linejoin="round" fill="none" stroke="#000000" d="M-51.049627-7.782605C-47.174768-3.767761-42.91392-.893925-37.671155 .407968-43.267744 1.516358-47.495634 4.227456-50.98067 8.317946"/>
<path transform="matrix(1,0,0,-1,120.40274,32.960214)" stroke-width=".75" stroke-linecap="round" stroke-linejoin="round" fill="none" stroke="#000000" d="M37.67045-.376263C52.0008 .181464 66.23256-.387546 79.89176-.348331"/>
<path transform="matrix(1,0,0,-1,120.40274,32.960214)" stroke-width=".75" stroke-linecap="round" stroke-linejoin="round" fill="none" stroke="#000000" d="M67.110469-7.686681C70.63253-3.962339 75.593158-1.499493 80.54876 .377008 74.74791 1.422799 71.06122 3.899353 67.92586 8.150001"/>
<path transform="matrix(1,0,0,-1,120.40274,32.960214)" stroke-width=".75" stroke-linecap="round" stroke-linejoin="round" fill="none" stroke="#000000" d="M-21.805006-24.024575C-22.317496-24.394679-22.096289-24.214976-22.19615-25.307208-6.648415-25.520796 8.329864-24.463818 23.620036-24.078122 37.20553-24.387167 37.7908-25.16358 37.168718-10.389427 38.212575-3.599807 37.87397 3.760175 36.874097 9.386599 37.638948 24.599982 37.73447 24.985556 21.961493 24.503256 6.924714 24.62139-7.080194 24.982565-23.544079 24.172104-38.11927 24.336838-38.33248 25.05623-37.685396 10.023583-36.795003 3.288713-37.691453-3.785867-38.443159-10.711127-38.444253-25.86604-37.89567-24.915692-21.805006-24.024575Z"/>
<path transform="matrix(1,0,0,-1,120.40274,32.960214)" stroke-width=".75" stroke-linecap="round" stroke-linejoin="round" fill="none" stroke="#000000" d="M-79.84944-.326808C-66.40875 .424659-51.906824-.211873-38.01638 .281106"/>
<path transform="matrix(1,0,0,-1,120.40274,32.960214)" stroke-width=".75" stroke-linecap="round" stroke-linejoin="round" fill="none" stroke="#000000" d="M-50.766176-7.788985C-47.880884-4.127706-43.402845-1.561088-37.895719-.198685-42.77581 .841623-47.81279 3.950979-50.623678 7.907834"/>
<path transform="matrix(1,0,0,-1,120.40274,32.960214)" stroke-width=".75" stroke-linecap="round" stroke-linejoin="round" fill="none" stroke="#000000" d="M37.982664-.228718C52.04308 .047263 66.07272 .034728 80.13587 .244436"/>
<path transform="matrix(1,0,0,-1,120.40274,32.960214)" stroke-width=".75" stroke-linecap="round" stroke-linejoin="round" fill="none" stroke="#000000" d="M67.64195-7.734424C70.3351-4.014083 75.28193-1.122339 80.26267-.327672 74.8403 .737887 70.33635 4.252345 67.7003 8.366637"/>
<use data-text="e" xlink:href="#font_2_8" transform="matrix(21.519438,0,0,-21.519249,6.814293,41.760515)"/>
<use data-text="s" xlink:href="#font_2_9" transform="matrix(16.438456,0,0,-16.43831,17.555699,33.946695)"/>
<use data-text="t" xlink:href="#font_2_10" transform="matrix(16.438456,0,0,-16.43831,26.991372,33.946695)"/>
<use data-text="G" xlink:href="#font_2_6" transform="matrix(21.519083,0,0,-21.519345,205.09963,39.60789)"/>
<use data-text="(" xlink:href="#font_2_2" transform="matrix(21.519083,0,0,-21.519345,221.56172,39.60789)"/>
<use data-text="s" xlink:href="#font_2_7" transform="matrix(21.519083,0,0,-21.519345,231.10674,39.60789)"/>
<use data-text=")" xlink:href="#font_2_4" transform="matrix(21.519083,0,0,-21.519345,242.09352,39.60789)"/>
<use data-text="e" xlink:href="#font_2_8" transform="matrix(21.519083,0,0,-21.519345,252.83391,39.60789)"/>
<use data-text="s" xlink:href="#font_2_9" transform="matrix(16.438185,0,0,-16.438385,263.58778,31.794037)"/>
<use data-text="t" xlink:href="#font_2_10" transform="matrix(16.438185,0,0,-16.438385,273.02333,31.794037)"/>
</svg>
