<svg xmlns="http://www.w3.org/2000/svg" xmlns:xlink="http://www.w3.org/1999/xlink" version="1.1" width="419.818" height="158.25565" viewBox="0 0 419.818 158.25565">
<defs>
<path id="font_5_12" d="M.04598999 .23632813H.35598756V-.07368469L.3959961-.06668091V.23632813H.70399478L.70899966 .2763214H.3959961V.58631899L.35598756 .58032229V.2763214H.052993776L.04598999 .23632813Z"/>
<path id="font_5_6" d="M.08999634 .32458497C.08999634 .22958374 .114990238 .13148499 .18299866 .06341553 .23699951 .009384155 .31199647-.016601563 .3880005-.016601563 .46099855-.016601563 .56900027 .010391235 .6569977 .03338623 .6569977 .03338623 .6539917 .216568 .6519928 .30760194L.37599183 .2966156V.27061463L.38198854 .265625C.43598939 .26361085 .5 .25961305 .5439911 .25660707 .57199099 .25460816 .57199099 .22257996 .57199099 .13449097 .57199099 .061416627 .56900027 .04940796 .5519867 .045394899 .5209961 .038391115 .48999024 .03538513 .45799256 .03538513 .37998963 .03538513 .30599977 .060409547 .2619934 .112472537 .20399475 .18052674 .17999268 .25260926 .17999268 .3405609 .17999268 .48339845 .23199463 .5653076 .26098634 .5942688 .3039856 .63623049 .36299134 .6502075 .42199708 .6502075 .5529938 .6502075 .59298709 .5563202 .60598757 .53034976L.6179962 .5293579 .6759949 .58628848C.6649933 .6032715 .6119995 .69921877 .46699525 .69921877 .3619995 .69921877 .25698854 .6682129 .18199158 .593277 .11199951 .5233612 .08999634 .4224701 .08999634 .32458497Z"/>
<path id="font_5_2" d="M.11299133 .24990845C.11299133 .007904053 .1519928-.09008789 .18299866-.13310242 .21099854-.17008972 .25299073-.20809937 .30099488-.21209717V-.1880951C.2809906-.18409729 .25099183-.16809082 .23399353-.1481018 .21998596-.13209534 .16499329-.05809021 .16499329 .24990845 .16499329 .4618988 .19799805 .5659027 .21998596 .6128998 .23599243 .6469116 .2689972 .6769104 .30099488 .684906V.71191409C.2599945 .7049103 .21598816 .6729126 .19099427 .63790896 .1599884 .5919037 .11299133 .4748993 .11299133 .24990845Z"/>
<path id="font_5_7" d="M.051986696 .06642151C.06199646 .047409059 .07598877 .030395508 .09199524 .01638794 .12098694-.009613037 .16099549-.016601563 .19898987-.016601563 .2559967-.016601563 .31199647 .0023956299 .35099793 .044403078 .375 .06941223 .3869934 .10343933 .3869934 .13845825 .3869934 .1634674 .37298585 .18649292 .35499574 .20449829 .34098817 .21850586 .3039856 .24052429 .27198792 .25453187 .24299622 .26654054 .19999695 .2885437 .18798828 .30055238 .17298889 .31655885 .1619873 .3285675 .1619873 .35058595 .1619873 .3725891 .16899109 .39360047 .18499756 .4086151 .19999695 .42362977 .22200012 .43164063 .24398804 .43164063 .2639923 .43164063 .2849884 .42462159 .29599 .4066162 .30599977 .39060975 .30799867 .3715973 .30899049 .35359193L.32099916 .34657289 .37599183 .38360597C.375 .40560914 .3639984 .42662049 .34799195 .44163514 .32499696 .46263124 .29299928 .46662904 .2630005 .46662904 .21398926 .46662904 .16699219 .45063783 .1309967 .4176178 .10398865 .39360047 .08999634 .35858155 .08999634 .32356263 .08999634 .29154969 .10798645 .26353456 .1309967 .2425232 .1539917 .22250366 .18399048 .2084961 .21499634 .1954956 .24099732 .18447876 .2689972 .17248535 .28799439 .1534729 .30299378 .13845825 .31399537 .11845398 .31399537 .09744263 .31399537 .079422 .30499269 .062408449 .29299928 .04940796 .27799989 .03340149 .25099183 .021392823 .22898865 .021392823 .19898987 .021392823 .17199707 .03439331 .1499939 .055404664 .1269989 .076416019 .116989139 .10644531 .114990238 .13645935L.100997928 .13745117 .051986696 .06642151Z"/>
<path id="font_5_4" d="M.085998538-.1880951V-.21209717C.13398743-.20610047 .1789856-.17208863 .20698548-.13510132 .23799134-.09210205 .27598573 .007904053 .27598573 .24990845 .27598573 .50090029 .22399903 .5919037 .19299317 .63790896 .16799927 .6729126 .1269989 .7049103 .085998538 .71191409V.684906C.117996219 .6759033 .14898682 .6469116 .16499329 .6128998 .18699646 .5659027 .22399903 .48190309 .22399903 .24990845 .22399903-.099090579 .17199707-.13209534 .1579895-.1481018 .14099121-.16809082 .10598755-.18409729 .085998538-.1880951Z"/>
<path id="font_5_13" d="M.051986696 .6781769 .052993776 .6591797C.07299805 .65216067 .10899353 .6411438 .11299133 .6401367 .12298584 .6361389 .125 .6251221 .12599182 .6161041 .1309967 .53297427 .13198853 .44985963 .13198853 .36676026 .13198853 .24482727 .13198853 .11590576 .12199402 .0029907227L.12799073-.0020141602 .21998596 .025970459C.21699524 .051956178 .21499634 .10292053 .21499634 .1798706V.33377076C.21499634 .34075929 .22099304 .34576417 .22799683 .34576417H.57099917C.5799866 .34576417 .58299258 .33876039 .58299258 .33377076 .58299258 .23683167 .5799866 .11790466 .5779877 .020980835L.58898928 0 .73799136 .0078125 .74398806 .013809204 .7429962 .031799318C.72499087 .03981018 .66600039 .03981018 .66600039 .07879639 .66600039 .09979248 .6619873 .24076844 .6619873 .32176209 .6619873 .5129547 .66999819 .64515689 .6729889 .6841736L.66799929 .6901703 .5799866 .673172C.5799866 .58706668 .58299258 .48291017 .58299258 .3967743 .58299258 .39076234 .58200076 .38476563 .57099917 .38476563H.22499085C.21499634 .38476563 .21299744 .3917694 .21299744 .3967743 .21299744 .4618683 .21699524 .54600527 .21899414 .61109927 .21998596 .63414 .22200012 .6581726 .22599793 .6801758L.22099304 .6851654H.05899048L.051986696 .6781769Z"/>
<path id="font_5_14" d="M.04598999 .23046875H.70399478L.70999148 .27046205H.052993776L.04598999 .23046875Z"/>
<path id="font_5_8" d="M.033996583 .6733093 .035995485 .6533203C.037994386 .6533203 .07398987 .6443176 .09199524 .63931277 .12298584 .6313019 .125 .6222992 .125 .54229739 .125 .46427918 .12199402 .38627626 .12199402 .30825807 .12199402 .24723816 .12399292 .17323303 .12998963 .12721253 .1349945 .08821106 .1559906-.0087890629 .31399537-.0087890629 .39698792-.0087890629 .47698976 .02520752 .5469971 .07020569L.5549927 .064208988C.5549927 .048202516 .5549927 .032196046 .55599978 .016204834 .55799868 .0012054443 .57598879-.0047912599 .58799746-.0047912599 .61898806-.0047912599 .6899872 .016204834 .7409973 .032196046L.74598696 .03919983 .74198916 .05619812C.7220001 .05419922 .70399478 .048202516 .6839905 .048202516 .673996 .048202516 .6609955 .050201417 .6539917 .0592041 .6389923 .07620239 .6359863 .15222168 .6359863 .20223999 .6359863 .3642578 .6369934 .5733032 .6519928 .68733218L.6459961 .69433596 .55799868 .659317C.55599978 .47727967 .55400088 .2942505 .55400088 .11122131 .5 .079208377 .43998719 .052200319 .37799073 .052200319 .24598694 .052200319 .22399903 .13922119 .21598816 .16522217 .20599365 .19923401 .20199585 .23423767 .20199585 .26924134L.20999146 .54229739C.20999146 .55929568 .21598816 .6603241 .21798706 .67433169L.21099854 .6803131H.041992189L.033996583 .6733093Z"/>
<path id="font_5_9" d="M.022994996 .6513672C.036987306 .649353 .049987794 .6463623 .06298828 .6433563 .07199097 .6413574 .07998657 .6353607 .085998538 .62835696 .09599304 .61834719 .102996829 .60635378 .10899353 .5943451L.2579956 .29930116C.2579956 .19927979 .2579956 .0982666 .25498963-.0017547608L.2659912-.0107421879 .35598756 .018249512 .34700013 .30630494C.42999269 .4343109 .5039978 .5303345 .61499026 .675354L.61099246 .6933594 .526001 .6763611C.48999024 .619339 .4059906 .47431947 .397995 .46032716 .3849945 .4373169 .34199525 .36730958 .33898927 .3623047 .33599855 .3572998 .33198548 .353302 .32798768 .353302 .32199098 .353302 .31698609 .3592987 .31599427 .36131288L.1749878 .6863556H.02999878L.022994996 .67936709V.6513672Z"/>
</defs>
<use data-text="+" xlink:href="#font_5_12" transform="matrix(37.185197,0,0,-37.18505,106.60313,42.419527)"/>
<use data-text="G" xlink:href="#font_5_6" transform="matrix(21.51903,0,0,-21.519398,221.06876,38.28003)"/>
<use data-text="(" xlink:href="#font_5_2" transform="matrix(21.51903,0,0,-21.519398,237.53083,38.28003)"/>
<use data-text="s" xlink:href="#font_5_7" transform="matrix(21.51903,0,0,-21.519398,247.0758,38.28003)"/>
<use data-text=")" xlink:href="#font_5_4" transform="matrix(21.51903,0,0,-21.519398,258.06257,38.28003)"/>
<use data-text="H" xlink:href="#font_5_13" transform="matrix(21.519108,0,0,-21.519398,220.87503,130.68839)"/>
<use data-text="(" xlink:href="#font_5_2" transform="matrix(21.519108,0,0,-21.519398,237.72449,130.68839)"/>
<use data-text="s" xlink:href="#font_5_7" transform="matrix(21.519108,0,0,-21.519398,247.2695,130.68839)"/>
<use data-text=")" xlink:href="#font_5_4" transform="matrix(21.519108,0,0,-21.519398,258.25633,130.68839)"/>
<path transform="matrix(1,0,0,-1,120.64261,32.898736)" stroke-width=".75" stroke-linecap="round" stroke-linejoin="round" fill="none" stroke="#000000" d="M101.33461-24.573384C99.639087-24.930712 100.70272-24.481202 99.97666-25.86917 115.64771-24.427985 130.6998-25.034396 145.78969-24.18161 160.81574-25.303803 160.04019-24.07902 160.2228-10.040531 161.7009-3.987557 160.68195 2.646079 160.88527 10.757311 160.74788 24.277768 160.00197 24.369425 145.65932 25.706074 130.87111 25.77643 115.85838 24.80557 100.253429 25.59631 85.90915 25.909033 86.124378 23.992239 85.900768 9.162774 86.331027 2.769363 85.74865-4.115568 84.84348-10.064787 84.883899-24.388148 85.336589-24.962435 101.33461-24.573384Z"/>
<path transform="matrix(1,0,0,-1,120.64261,32.898736)" stroke-width=".75" stroke-linecap="round" stroke-linejoin="round" fill="none" stroke="#000000" d="M99.48259-117.6321C100.90871-117.0706 101.187999-117.557598 99.28249-118.16898 115.26287-117.55318 131.0366-117.44597 145.75756-117.727298 161.19513-118.11025 161.0004-118.26655 161.44774-102.06326 160.29648-94.7505 161.54288-89.9267 160.28189-81.60324 161.7391-68.295108 160.79506-68.35654 145.51576-66.69231 130.99185-68.357 114.786869-67.803607 100.7125-67.511638 85.72852-68.10944 85.0517-68.24989 84.90626-81.68844 85.795459-88.55665 84.37438-95.662387 84.879978-101.51511 85.083438-117.70065 86.02364-117.69682 99.48259-117.6321Z"/>
<path transform="matrix(1,0,0,-1,120.64261,32.898736)" stroke-width=".75" stroke-linecap="round" stroke-linejoin="round" fill="none" stroke="#000000" d="M22.454224 .717328C21.47488 11.668982 12.469682 22.318604-.449133 21.572108-11.763309 20.919947-22.524119 12.35119-22.446028 .118421-20.74508-12.279564-11.380219-21.677693 .443658-21.744927 12.323077-21.01979 22.539898-11.558722 22.454224 .717328Z"/>
<path transform="matrix(1,0,0,-1,120.64261,32.898736)" stroke-width=".75" stroke-linecap="round" stroke-linejoin="round" fill="none" stroke="#000000" d="M-63.89104 .296272C-49.628149-.026481-36.03317-.211317-21.215088 .352853"/>
<path transform="matrix(1,0,0,-1,120.64261,32.898736)" stroke-width=".75" stroke-linecap="round" stroke-linejoin="round" fill="none" stroke="#000000" d="M-34.26284-8.461854C-30.8979-3.927587-26.786349-1.435197-21.338959-.164572-26.505345 .959662-31.176215 4.373368-34.638097 7.854146"/>
<path transform="matrix(1,0,0,-1,120.64261,32.898736)" stroke-width=".75" stroke-linecap="round" stroke-linejoin="round" fill="none" stroke="#000000" d="M21.565846-.344588C43.095144 .358187 63.851499 .194247 84.85543-.099241"/>
<path transform="matrix(1,0,0,-1,120.64261,32.898736)" stroke-width=".75" stroke-linecap="round" stroke-linejoin="round" fill="none" stroke="#000000" d="M72.151599-8.184819C75.12225-3.734696 80.26778-.903205 84.74855 .140135 80.38336 1.363023 75.7417 3.824922 72.7041 8.123247"/>
<path transform="matrix(1,0,0,-1,120.64261,32.898736)" stroke-width=".75" stroke-linecap="round" stroke-linejoin="round" fill="none" stroke="#000000" d="M160.8488 .359704C188.97602-.076526 217.5222-.193 245.94403 .173803"/>
<path transform="matrix(1,0,0,-1,120.64261,32.898736)" stroke-width=".75" stroke-linecap="round" stroke-linejoin="round" fill="none" stroke="#000000" d="M233.13503-8.075758C235.9037-4.196582 240.56777-.967926 245.43541 .094073 240.69463 1.59907 236.14374 4.080036 232.91316 8.277214"/>
<path transform="matrix(1,0,0,-1,120.64261,32.898736)" stroke-width=".75" stroke-linecap="round" stroke-linejoin="round" fill="none" stroke="#000000" d="M84.90837-92.84383C57.22109-92.67293 27.980233-92.80738 .096371-92.30678-.118467-68.6478-.396877-45.670587 .060576-22.152874"/>
<path transform="matrix(1,0,0,-1,120.64261,32.898736)" stroke-width=".75" stroke-linecap="round" stroke-linejoin="round" fill="none" stroke="#000000" d="M7.615841-34.785486C3.902374-31.95428 1.185661-27.334944-.308256-22.207623-.986978-26.868447-3.703366-31.88981-8.322012-34.52672"/>
<path transform="matrix(1,0,0,-1,120.64261,32.898736)" stroke-width=".75" stroke-linecap="round" stroke-linejoin="round" fill="none" stroke="#000000" d="M203.2138 .097076C203.53856-30.899123 203.07382-61.65922 203.73935-92.025989 189.29436-92.83612 174.41429-92.32119 160.7306-92.410099"/>
<path transform="matrix(1,0,0,-1,120.64261,32.898736)" stroke-width=".75" stroke-linecap="round" stroke-linejoin="round" fill="none" stroke="#000000" d="M173.09491-84.0617C169.67024-87.97012 165.83298-91.159389 160.15619-92.821369 165.34134-93.94298 169.77509-96.66797 173.55097-100.26049"/>
<path transform="matrix(1,0,0,-1,120.64261,32.898736)" stroke-width=".75" stroke-linecap="round" stroke-linejoin="round" fill="none" stroke="#000000" d="M100.35875-25.167922C101.23098-24.971358 100.893367-24.072876 99.813579-24.88573 114.57471-24.333409 129.87923-25.65841 145.79373-24.369065 159.88124-25.766245 160.78752-24.003182 159.83162-10.253171 161.08643-2.604801 161.09549 3.999653 161.12113 9.522799 161.23943 24.720355 160.14174 24.238965 145.53313 25.477616 129.96527 24.649273 115.73145 24.039496 101.03946 25.526459 85.406269 24.686137 84.9402 25.16167 85.20496 9.795602 85.490619 2.732779 85.18957-3.068707 85.762317-9.976509 85.87737-24.04491 85.40533-24.550669 100.35875-25.167922Z"/>
<path transform="matrix(1,0,0,-1,120.64261,32.898736)" stroke-width=".75" stroke-linecap="round" stroke-linejoin="round" fill="none" stroke="#000000" d="M100.51644-116.69411C100.95572-117.39973 99.66793-117.32397 100.70344-116.79783 114.56538-117.51203 130.46808-116.5863 146.38712-117.524318 161.23955-118.15678 161.15767-117.37164 160.87009-101.83415 160.73601-95.397228 160.40392-89.733638 160.058-81.882259 160.17934-67.58342 161.74329-66.74731 145.50032-67.42623 130.54055-66.589839 116.26-68.242519 100.95616-66.808589 85.77558-66.64786 84.86774-67.39616 85.556049-82.37605 86.11555-88.27554 85.190639-95.20466 84.8236-101.38642 85.31747-117.697559 85.35054-117.105 100.51644-116.69411Z"/>
<path transform="matrix(1,0,0,-1,120.64261,32.898736)" stroke-width=".75" stroke-linecap="round" stroke-linejoin="round" fill="none" stroke="#000000" d="M20.998572-.414413C21.225754 12.381389 11.31719 22.29443 .043426 21.759224-12.591465 21.873826-21.582816 11.158979-22.076626 .710963-22.200861-11.712178-11.718417-21.774834-.104894-21.605814 11.09696-22.431899 21.184205-11.316355 20.998572-.414413Z"/>
<path transform="matrix(1,0,0,-1,120.64261,32.898736)" stroke-width=".75" stroke-linecap="round" stroke-linejoin="round" fill="none" stroke="#000000" d="M-63.50481 .084972C-49.98714-.268018-35.356355-.375186-21.706982 .235497"/>
<path transform="matrix(1,0,0,-1,120.64261,32.898736)" stroke-width=".75" stroke-linecap="round" stroke-linejoin="round" fill="none" stroke="#000000" d="M-34.35001-7.857836C-30.899947-3.838536-26.224976-1.595023-21.548289-.442985-26.33176 .944956-31.280695 4.255041-34.398744 8.082955"/>
<path transform="matrix(1,0,0,-1,120.64261,32.898736)" stroke-width=".75" stroke-linecap="round" stroke-linejoin="round" fill="none" stroke="#000000" d="M21.680918-.11806C43.08623-.223731 63.81677 .265134 85.03106-.429614"/>
<path transform="matrix(1,0,0,-1,120.64261,32.898736)" stroke-width=".75" stroke-linecap="round" stroke-linejoin="round" fill="none" stroke="#000000" d="M72.15183-7.652293C75.818408-4.017349 80.242549-1.581766 85.31887-.154673 80.42263 1.230398 75.16112 4.340876 72.089969 8.250586"/>
<path transform="matrix(1,0,0,-1,120.64261,32.898736)" stroke-width=".75" stroke-linecap="round" stroke-linejoin="round" fill="none" stroke="#000000" d="M161.02974-.370886C189.0475 .20191 217.1562-.361883 246.02458 .047525"/>
<path transform="matrix(1,0,0,-1,120.64261,32.898736)" stroke-width=".75" stroke-linecap="round" stroke-linejoin="round" fill="none" stroke="#000000" d="M233.29398-8.328544C236.33614-4.108935 240.5258-.924335 245.5354 .421651 240.62693 .845392 236.28293 4.427596 233.60816 8.108811"/>
<path transform="matrix(1,0,0,-1,120.64261,32.898736)" stroke-width=".75" stroke-linecap="round" stroke-linejoin="round" fill="none" stroke="#000000" d="M85.16599-92.08069C57.082006-92.2381 28.603093-92.374 .142887-92.288 .234985-69.30415 .204623-45.335577 .129589-21.650288"/>
<path transform="matrix(1,0,0,-1,120.64261,32.898736)" stroke-width=".75" stroke-linecap="round" stroke-linejoin="round" fill="none" stroke="#000000" d="M7.638702-34.722215C3.888858-31.707512 1.510503-26.835902 .368627-22.238724-1.432628-27.119572-3.871913-31.661574-7.946256-34.786096"/>
<path transform="matrix(1,0,0,-1,120.64261,32.898736)" stroke-width=".75" stroke-linecap="round" stroke-linejoin="round" fill="none" stroke="#000000" d="M203.26259-.2136C203.10445-31.19418 203.52199-61.61498 203.13913-92.62622 189.37122-92.3372 175.14656-92.72692 161.00508-92.74906"/>
<path transform="matrix(1,0,0,-1,120.64261,32.898736)" stroke-width=".75" stroke-linecap="round" stroke-linejoin="round" fill="none" stroke="#000000" d="M172.80782-84.38824C170.4292-88.06757 165.23822-90.95007 160.74796-92.17818 165.59847-93.469577 170.08098-96.798519 173.17507-100.69407"/>
<path transform="matrix(1,0,0,-1,120.64261,32.898736)" stroke-width=".75" stroke-linecap="round" stroke-linejoin="round" fill="none" stroke="#000000" d="M100.99649-25.266503C100.466259-25.05535 100.00267-25.351702 100.85701-24.690876 115.58382-24.360577 130.5624-24.010756 144.8575-24.166443 159.81032-24.87208 160.26195-25.134753 161.54467-9.404849 160.57387-2.74657 160.3072 3.505531 160.62091 10.915089 161.23427 24.381516 160.8586 24.61597 146.28577 25.369729 131.24306 24.246243 116.4913 25.776953 101.01578 24.298468 84.7597 25.53401 84.65192 24.996699 85.13734 10.322191 85.737567 4.188296 85.921459-3.311368 84.49934-9.196864 85.61031-24.945933 85.4652-25.887673 100.99649-25.266503Z"/>
<path transform="matrix(1,0,0,-1,120.64261,32.898736)" stroke-width=".75" stroke-linecap="round" stroke-linejoin="round" fill="none" stroke="#000000" d="M101.09824-117.4081C101.04779-116.8358 100.72955-116.52642 100.137538-116.53286 115.2359-117.04205 130.775-117.73727 145.15094-116.727977 160.47785-118.08736 160.71562-116.85764 160.15435-101.69273 160.90789-95.34778 161.58806-89.614078 161.52764-83.11692 160.64914-68.239238 160.10324-68.10685 146.13773-67.65373 131.11667-67.31839 115.68579-67.55358 100.31245-67.30155 85.50444-68.10164 85.90822-68.31396 85.38959-83.101688 86.20433-88.95469 84.71778-94.77534 84.59309-101.53955 84.88357-116.51622 84.71165-117.35658 101.09824-117.4081Z"/>
<path transform="matrix(1,0,0,-1,120.64261,32.898736)" stroke-width=".75" stroke-linecap="round" stroke-linejoin="round" fill="none" stroke="#000000" d="M21.091364-.356832C21.55676 11.364333 11.733901 21.890208-.79766 21.61706-12.699294 20.964322-20.729029 12.094401-21.52933-.800464-20.811659-11.035407-11.111442-22.19375-.852651-22.459832 11.996574-22.49976 20.7728-11.221889 21.091364-.356832Z"/>
<path transform="matrix(1,0,0,-1,120.64261,32.898736)" stroke-width=".75" stroke-linecap="round" stroke-linejoin="round" fill="none" stroke="#000000" d="M-63.79633-.352705C-49.4009 .351401-35.489019-.191752-21.841322-.028332"/>
<path transform="matrix(1,0,0,-1,120.64261,32.898736)" stroke-width=".75" stroke-linecap="round" stroke-linejoin="round" fill="none" stroke="#000000" d="M-34.727548-8.063867C-31.463204-3.664898-26.611721-1.380315-21.91478 .359933-26.448328 1.221377-30.728539 4.058736-34.362733 8.142823"/>
<path transform="matrix(1,0,0,-1,120.64261,32.898736)" stroke-width=".75" stroke-linecap="round" stroke-linejoin="round" fill="none" stroke="#000000" d="M22.075888 .231139C42.83739-.400223 64.04267-.261557 84.95508-.184629"/>
<path transform="matrix(1,0,0,-1,120.64261,32.898736)" stroke-width=".75" stroke-linecap="round" stroke-linejoin="round" fill="none" stroke="#000000" d="M72.36967-8.112968C75.52855-3.734121 80.48259-.876082 85.200839-.310932 80.41447 1.070894 75.96101 4.373703 72.149707 7.614284"/>
<path transform="matrix(1,0,0,-1,120.64261,32.898736)" stroke-width=".75" stroke-linecap="round" stroke-linejoin="round" fill="none" stroke="#000000" d="M160.73369 .150782C189.30315-.288493 217.26525 .229571 246.21556-.032205"/>
<path transform="matrix(1,0,0,-1,120.64261,32.898736)" stroke-width=".75" stroke-linecap="round" stroke-linejoin="round" fill="none" stroke="#000000" d="M232.99607-8.111822C236.16695-3.848171 240.75296-1.358239 246.16155 .399699 240.65958 1.089772 236.72846 4.112484 233.06851 7.939547"/>
<path transform="matrix(1,0,0,-1,120.64261,32.898736)" stroke-width=".75" stroke-linecap="round" stroke-linejoin="round" fill="none" stroke="#000000" d="M85.64244-92.33127C56.598299-92.041599 28.182803-92.31976-.407362-92.11818 .394997-69.0285-.367909-45.290365-.249917-22.188485"/>
<path transform="matrix(1,0,0,-1,120.64261,32.898736)" stroke-width=".75" stroke-linecap="round" stroke-linejoin="round" fill="none" stroke="#000000" d="M8.269202-34.47716C4.257506-31.890666 1.369666-26.715958-.015118-22.014512-1.376556-26.845379-4.414871-31.688872-8.433033-34.504598"/>
<path transform="matrix(1,0,0,-1,120.64261,32.898736)" stroke-width=".75" stroke-linecap="round" stroke-linejoin="round" fill="none" stroke="#000000" d="M203.65853 .375631C202.98749-30.441157 203.37693-61.27792 203.65149-92.34385 189.22599-92.37314 174.93337-92.72188 160.83263-92.09029"/>
<path transform="matrix(1,0,0,-1,120.64261,32.898736)" stroke-width=".75" stroke-linecap="round" stroke-linejoin="round" fill="none" stroke="#000000" d="M173.69382-83.954059C169.89519-88.56004 165.60657-90.99708 160.70102-92.66941 165.81027-93.15564 170.37664-96.16541 172.98503-100.7254"/>
<path transform="matrix(1,0,0,-1,120.64261,32.898736)" stroke-width=".75" stroke-linecap="round" stroke-linejoin="round" fill="none" stroke="#000000" d="M101.31173-24.96918C99.518527-24.975346 101.17665-24.328577 99.67147-25.52964 116.485149-25.217604 130.34276-24.158514 145.38253-24.710677 161.25911-25.24688 160.85738-24.606987 160.03314-10.117555 161.3585-3.849964 160.44509 3.65851 160.23784 10.126581 161.72101 24.55255 161.69255 25.290482 146.20804 25.083569 131.4664 23.995118 115.18291 25.404776 100.144229 25.39216 86.19186 24.021456 86.19549 25.827567 85.91782 9.89386 86.13225 3.446969 84.790798-3.282601 86.20677-10.260696 84.47645-24.148753 85.92075-25.264887 101.31173-24.96918Z"/>
<path transform="matrix(1,0,0,-1,120.64261,32.898736)" stroke-width=".75" stroke-linecap="round" stroke-linejoin="round" fill="none" stroke="#000000" d="M100.61939-117.60798C100.645709-117.417049 99.41912-117.203868 100.220378-116.53693 114.61271-117.54577 130.78682-117.49611 146.46324-116.65864 161.34169-116.80732 160.59159-117.60977 161.41225-103.251148 160.68984-95.43907 161.4312-88.91759 160.9954-82.04551 160.38454-67.99294 160.34709-67.2355 146.24312-66.72135 130.62386-67.86895 116.04841-68.149799 100.63922-67.52074 85.467449-67.41627 84.89776-67.553279 86.20805-82.93999 84.94378-88.673709 85.087009-96.192729 84.38668-101.91237 84.93252-117.36301 86.13166-116.49646 100.61939-117.60798Z"/>
<path transform="matrix(1,0,0,-1,120.64261,32.898736)" stroke-width=".75" stroke-linecap="round" stroke-linejoin="round" fill="none" stroke="#000000" d="M21.120543 .715839C22.37307 11.406817 11.375105 20.93235 .10499 22.01234-12.732429 22.498625-21.410881 12.335431-22.175517 .063364-20.885462-11.734208-12.810614-20.739022-.317686-22.537892 11.806697-21.824099 22.408783-12.26805 21.120543 .715839Z"/>
<path transform="matrix(1,0,0,-1,120.64261,32.898736)" stroke-width=".75" stroke-linecap="round" stroke-linejoin="round" fill="none" stroke="#000000" d="M-63.96849 .006112C-49.50002 .125479-35.855974 .323812-21.9691-.376726"/>
<path transform="matrix(1,0,0,-1,120.64261,32.898736)" stroke-width=".75" stroke-linecap="round" stroke-linejoin="round" fill="none" stroke="#000000" d="M-34.627847-8.050763C-31.381306-4.045977-26.963786-.851305-21.39773 .000798-26.698809 .783847-31.330136 3.980869-34.55004 7.710979"/>
<path transform="matrix(1,0,0,-1,120.64261,32.898736)" stroke-width=".75" stroke-linecap="round" stroke-linejoin="round" fill="none" stroke="#000000" d="M21.75967 .428271C42.883028 .049599 64.21867 .336673 85.22108-.401362"/>
<path transform="matrix(1,0,0,-1,120.64261,32.898736)" stroke-width=".75" stroke-linecap="round" stroke-linejoin="round" fill="none" stroke="#000000" d="M72.28553-8.496657C75.41859-4.04644 80.290699-.79593 84.99614-.070406 80.45458 1.020924 75.50515 3.795405 72.51298 7.703333"/>
<path transform="matrix(1,0,0,-1,120.64261,32.898736)" stroke-width=".75" stroke-linecap="round" stroke-linejoin="round" fill="none" stroke="#000000" d="M161.0463-.122341C189.52872-.278819 217.05434 .330983 246.26528-.147541"/>
<path transform="matrix(1,0,0,-1,120.64261,32.898736)" stroke-width=".75" stroke-linecap="round" stroke-linejoin="round" fill="none" stroke="#000000" d="M232.96002-8.126627C236.02108-3.872058 241.20778-1.145874 246.14962-.274483 240.81383 1.366577 236.69187 3.645977 232.96672 7.978647"/>
<path transform="matrix(1,0,0,-1,120.64261,32.898736)" stroke-width=".75" stroke-linecap="round" stroke-linejoin="round" fill="none" stroke="#000000" d="M85.0723-92.169658C57.24821-92.04701 28.605834-92.7304-.30695-92.501598 .163725-68.591358-.394336-45.469896-.293061-21.970515"/>
<path transform="matrix(1,0,0,-1,120.64261,32.898736)" stroke-width=".75" stroke-linecap="round" stroke-linejoin="round" fill="none" stroke="#000000" d="M7.722332-34.743436C4.081924-31.640738 1.353979-26.788599-.278312-21.588246-1.430762-27.129313-4.227949-31.881215-8.47151-34.978174"/>
<path transform="matrix(1,0,0,-1,120.64261,32.898736)" stroke-width=".75" stroke-linecap="round" stroke-linejoin="round" fill="none" stroke="#000000" d="M203.43654 .294985C203.5687-30.738789 203.14913-61.285818 203.44106-92.04415 189.03652-92.393077 174.74819-92.854038 160.3374-92.20927"/>
<path transform="matrix(1,0,0,-1,120.64261,32.898736)" stroke-width=".75" stroke-linecap="round" stroke-linejoin="round" fill="none" stroke="#000000" d="M173.28664-84.67296C170.32329-88.669429 165.25052-91.60648 160.23342-92.481128 165.42449-93.39048 170.10349-96.32212 173.43535-100.05098"/>
<path transform="matrix(1,0,0,-1,120.64261,32.898736)" stroke-width=".75" stroke-linecap="round" stroke-linejoin="round" fill="none" stroke="#000000" d="M99.89843-24.653649C101.23487-24.749613 100.66487-25.390805 100.637149-25.488646 115.86415-25.802823 130.65164-24.943047 146.14162-24.3224 161.2616-25.16707 160.49396-24.856528 160.90607-9.179404 161.47724-3.072842 160.39832 3.312926 160.48529 10.402224 160.33129 25.22174 161.13816 24.259387 145.97371 25.067833 130.2469 24.046986 115.19868 25.274024 99.91528 24.104493 85.48046 24.960696 85.64448 25.643513 85.43523 10.480067 84.76498 3.159947 86.37587-3.458933 85.051349-9.439242 85.41864-24.09942 85.14757-25.516409 99.89843-24.653649Z"/>
<path transform="matrix(1,0,0,-1,120.64261,32.898736)" stroke-width=".75" stroke-linecap="round" stroke-linejoin="round" fill="none" stroke="#000000" d="M100.31246-117.56089C100.879749-117.83477 99.31764-118.29556 99.92172-116.53006 115.63257-116.753879 131.28929-117.901538 146.24224-118.15407 161.59616-116.87029 160.62688-116.86564 160.38948-102.06357 161.80385-95.24601 161.26923-88.13066 161.83652-83.241329 161.25383-66.56794 160.69965-68.02948 145.2972-67.65052 130.20435-68.05813 115.8885-67.69385 100.43693-67.90955 85.81231-66.60435 85.29301-66.59396 85.215579-83.00864 85.476558-88.64798 84.84577-96.14901 84.68994-101.86324 85.73962-118.16514 84.72787-118.06123 100.31246-117.56089Z"/>
<path transform="matrix(1,0,0,-1,120.64261,32.898736)" stroke-width=".75" stroke-linecap="round" stroke-linejoin="round" fill="none" stroke="#000000" d="M22.101988-.232003C21.183558 11.073147 12.682023 21.253806 .384093 21.936013-11.349121 20.766404-22.610148 11.919506-21.370995 .479686-21.216046-12.920972-11.7611-21.393963 .75314-21.932032 12.511238-20.677878 22.126212-12.526952 22.101988-.232003Z"/>
<path transform="matrix(1,0,0,-1,120.64261,32.898736)" stroke-width=".75" stroke-linecap="round" stroke-linejoin="round" fill="none" stroke="#000000" d="M-63.723825 .414873C-49.96292 .338279-35.994638-.116859-22.095469 .099136"/>
<path transform="matrix(1,0,0,-1,120.64261,32.898736)" stroke-width=".75" stroke-linecap="round" stroke-linejoin="round" fill="none" stroke="#000000" d="M-34.29883-8.251086C-31.284258-3.645971-26.577586-.734517-21.623505-.136118-26.82603 1.430944-30.97485 4.080206-34.634126 8.062704"/>
<path transform="matrix(1,0,0,-1,120.64261,32.898736)" stroke-width=".75" stroke-linecap="round" stroke-linejoin="round" fill="none" stroke="#000000" d="M21.37416 .283258C42.65773-.254321 63.999689 .025757 85.23552-.225153"/>
<path transform="matrix(1,0,0,-1,120.64261,32.898736)" stroke-width=".75" stroke-linecap="round" stroke-linejoin="round" fill="none" stroke="#000000" d="M72.118839-7.862012C75.99426-3.646058 79.610248-.761179 84.69987-.198703 79.64951 1.116106 75.23989 4.343394 72.2467 8.40649"/>
<path transform="matrix(1,0,0,-1,120.64261,32.898736)" stroke-width=".75" stroke-linecap="round" stroke-linejoin="round" fill="none" stroke="#000000" d="M161.13562-.328786C188.84642-.121831 217.28975 .204748 245.46585-.385881"/>
<path transform="matrix(1,0,0,-1,120.64261,32.898736)" stroke-width=".75" stroke-linecap="round" stroke-linejoin="round" fill="none" stroke="#000000" d="M233.01325-8.314599C235.92617-3.557127 240.67003-.741225 245.96512-.322417 240.9484 1.479529 235.97982 3.63355 233.5969 7.815893"/>
<path transform="matrix(1,0,0,-1,120.64261,32.898736)" stroke-width=".75" stroke-linecap="round" stroke-linejoin="round" fill="none" stroke="#000000" d="M85.54266-92.30285C56.43585-92.01861 28.587164-92.714168-.025156-92.44823 .442773-68.925968 .142732-45.268606-.040422-22.384474"/>
<path transform="matrix(1,0,0,-1,120.64261,32.898736)" stroke-width=".75" stroke-linecap="round" stroke-linejoin="round" fill="none" stroke="#000000" d="M8.217509-34.97411C3.896582-31.325867 1.533741-26.739146-.001203-22.110482-1.576631-26.890879-3.752827-31.815327-7.660471-35.034067"/>
<path transform="matrix(1,0,0,-1,120.64261,32.898736)" stroke-width=".75" stroke-linecap="round" stroke-linejoin="round" fill="none" stroke="#000000" d="M203.35431-.294439C202.95687-30.958971 203.7432-61.53702 203.32405-92.70279 188.99469-91.97373 175.07205-92.551387 160.4728-92.564258"/>
<path transform="matrix(1,0,0,-1,120.64261,32.898736)" stroke-width=".75" stroke-linecap="round" stroke-linejoin="round" fill="none" stroke="#000000" d="M173.30097-84.649318C170.37288-88.42265 165.40512-91.07075 160.78668-92.45188 165.58737-93.26676 169.71723-96.76129 172.8591-100.3854"/>
<use data-text="+" xlink:href="#font_5_12" transform="matrix(21.519354,0,0,-21.519316,82.59332,25.15593)"/>
<use data-text="&#x2212;" xlink:href="#font_5_14" transform="matrix(21.519371,0,0,-21.519288,126.79252,63.508134)"/>
<use data-text="U" xlink:href="#font_5_8" transform="matrix(21.519457,0,0,-21.519398,6.814293,38.28003)"/>
<use data-text="(" xlink:href="#font_5_2" transform="matrix(21.519457,0,0,-21.519398,23.470356,38.28003)"/>
<use data-text="s" xlink:href="#font_5_7" transform="matrix(21.519457,0,0,-21.519398,33.015527,38.28003)"/>
<use data-text=")" xlink:href="#font_5_4" transform="matrix(21.519457,0,0,-21.519398,44.002504,38.28003)"/>
<use data-text="Y" xlink:href="#font_5_9" transform="matrix(21.519246,0,0,-21.519398,370.96278,38.28003)"/>
<use data-text="(" xlink:href="#font_5_2" transform="matrix(21.519246,0,0,-21.519398,384.11146,38.28003)"/>
<use data-text="s" xlink:href="#font_5_7" transform="matrix(21.519246,0,0,-21.519398,393.6565,38.28003)"/>
<use data-text=")" xlink:href="#font_5_4" transform="matrix(21.519246,0,0,-21.519398,404.64344,38.28003)"/>
</svg>
