<svg xmlns="http://www.w3.org/2000/svg" xmlns:xlink="http://www.w3.org/1999/xlink" xmlns:inkscape="http://www.inkscape.org/namespaces/inkscape" version="1.1" width="451.56324" height="179.72731" viewBox="0 0 451.56324 179.72731">
<defs>
<path id="font_4_12" d="M.04598999 .23632813H.35598756V-.07368469L.3959961-.06668091V.23632813H.70399478L.70899966 .2763214H.3959961V.58631899L.35598756 .58032229V.2763214H.052993776L.04598999 .23632813Z"/>
<path id="font_4_6" d="M.08999634 .32458497C.08999634 .22958374 .114990238 .13148499 .18299866 .06341553 .23699951 .009384155 .31199647-.016601563 .3880005-.016601563 .46099855-.016601563 .56900027 .010391235 .6569977 .03338623 .6569977 .03338623 .6539917 .216568 .6519928 .30760194L.37599183 .2966156V.27061463L.38198854 .265625C.43598939 .26361085 .5 .25961305 .5439911 .25660707 .57199099 .25460816 .57199099 .22257996 .57199099 .13449097 .57199099 .061416627 .56900027 .04940796 .5519867 .045394899 .5209961 .038391115 .48999024 .03538513 .45799256 .03538513 .37998963 .03538513 .30599977 .060409547 .2619934 .112472537 .20399475 .18052674 .17999268 .25260926 .17999268 .3405609 .17999268 .48339845 .23199463 .5653076 .26098634 .5942688 .3039856 .63623049 .36299134 .6502075 .42199708 .6502075 .5529938 .6502075 .59298709 .5563202 .60598757 .53034976L.6179962 .5293579 .6759949 .58628848C.6649933 .6032715 .6119995 .69921877 .46699525 .69921877 .3619995 .69921877 .25698854 .6682129 .18199158 .593277 .11199951 .5233612 .08999634 .4224701 .08999634 .32458497Z"/>
<path id="font_4_10" d="M.1349945 .6123047H.22898865C.25698854 .6123047 .27999879 .59129336 .2809906 .5662842 .28199769 .541275 .28199769 .46824647 .28199769 .41923524 .28199769 .27919007 .27799989 .13916016 .272995 .00010681152L.28599549-.0048828127 .3809967 .022125245C.37799073 .09814453 .37799073 .2962036 .37799073 .43223573 .37799073 .52127078 .37998963 .6112976 .38598634 .7003021L.3789978 .71229556 .1349945 .6392975V.6123047Z"/>
<path id="font_4_2" d="M.11299133 .24990845C.11299133 .007904053 .1519928-.09008789 .18299866-.13310242 .21099854-.17008972 .25299073-.20809937 .30099488-.21209717V-.1880951C.2809906-.18409729 .25099183-.16809082 .23399353-.1481018 .21998596-.13209534 .16499329-.05809021 .16499329 .24990845 .16499329 .4618988 .19799805 .5659027 .21998596 .6128998 .23599243 .6469116 .2689972 .6769104 .30099488 .684906V.71191409C.2599945 .7049103 .21598816 .6729126 .19099427 .63790896 .1599884 .5919037 .11299133 .4748993 .11299133 .24990845Z"/>
<path id="font_4_7" d="M.051986696 .06642151C.06199646 .047409059 .07598877 .030395508 .09199524 .01638794 .12098694-.009613037 .16099549-.016601563 .19898987-.016601563 .2559967-.016601563 .31199647 .0023956299 .35099793 .044403078 .375 .06941223 .3869934 .10343933 .3869934 .13845825 .3869934 .1634674 .37298585 .18649292 .35499574 .20449829 .34098817 .21850586 .3039856 .24052429 .27198792 .25453187 .24299622 .26654054 .19999695 .2885437 .18798828 .30055238 .17298889 .31655885 .1619873 .3285675 .1619873 .35058595 .1619873 .3725891 .16899109 .39360047 .18499756 .4086151 .19999695 .42362977 .22200012 .43164063 .24398804 .43164063 .2639923 .43164063 .2849884 .42462159 .29599 .4066162 .30599977 .39060975 .30799867 .3715973 .30899049 .35359193L.32099916 .34657289 .37599183 .38360597C.375 .40560914 .3639984 .42662049 .34799195 .44163514 .32499696 .46263124 .29299928 .46662904 .2630005 .46662904 .21398926 .46662904 .16699219 .45063783 .1309967 .4176178 .10398865 .39360047 .08999634 .35858155 .08999634 .32356263 .08999634 .29154969 .10798645 .26353456 .1309967 .2425232 .1539917 .22250366 .18399048 .2084961 .21499634 .1954956 .24099732 .18447876 .2689972 .17248535 .28799439 .1534729 .30299378 .13845825 .31399537 .11845398 .31399537 .09744263 .31399537 .079422 .30499269 .062408449 .29299928 .04940796 .27799989 .03340149 .25099183 .021392823 .22898865 .021392823 .19898987 .021392823 .17199707 .03439331 .1499939 .055404664 .1269989 .076416019 .116989139 .10644531 .114990238 .13645935L.100997928 .13745117 .051986696 .06642151Z"/>
<path id="font_4_4" d="M.085998538-.1880951V-.21209717C.13398743-.20610047 .1789856-.17208863 .20698548-.13510132 .23799134-.09210205 .27598573 .007904053 .27598573 .24990845 .27598573 .50090029 .22399903 .5919037 .19299317 .63790896 .16799927 .6729126 .1269989 .7049103 .085998538 .71191409V.684906C.117996219 .6759033 .14898682 .6469116 .16499329 .6128998 .18699646 .5659027 .22399903 .48190309 .22399903 .24990845 .22399903-.099090579 .17199707-.13209534 .1579895-.1481018 .14099121-.16809082 .10598755-.18409729 .085998538-.1880951Z"/>
<path id="font_4_11" d="M.04499817 .001953125H.5379944L.56399539 .079940799 .5589905 .08795166H.20999146C.20399475 .08795166 .19799805 .08894348 .19599915 .092941287 .19499207 .094940189 .19599915 .09794617 .19699097 .09895325 .2539978 .1569519 .30799867 .21495056 .35899354 .27496339 .394989 .31697084 .42999269 .358963 .45799256 .40496827 .48799134 .4509735 .5119934 .49998475 .5119934 .5529938 .5119934 .59399417 .49899293 .6349945 .46499635 .66400149 .43199159 .69299319 .3880005 .7080078 .34199525 .7080078 .29899598 .7080078 .2579956 .6970062 .22099304 .67900088 .17599488 .65800479 .13699341 .6279907 .102996829 .59498599L.125 .57598879C.1519928 .59599307 .17799378 .61099246 .20999146 .6259918 .23098755 .6360016 .2559967 .6399994 .2809906 .6399994 .31399537 .6399994 .34700013 .6289978 .37098695 .6069946 .40098573 .5779877 .4079895 .5369873 .4079895 .50798037 .4079895 .4429779 .38198854 .38197328 .34298707 .3259735 .31098939 .27996827 .27198792 .23796082 .23199463 .19696045 .17199707 .13494873 .10899353 .07594299 .04499817 .017944336V.001953125Z"/>
<path id="font_4_8" d="M.033996583 .6733093 .035995485 .6533203C.037994386 .6533203 .07398987 .6443176 .09199524 .63931277 .12298584 .6313019 .125 .6222992 .125 .54229739 .125 .46427918 .12199402 .38627626 .12199402 .30825807 .12199402 .24723816 .12399292 .17323303 .12998963 .12721253 .1349945 .08821106 .1559906-.0087890629 .31399537-.0087890629 .39698792-.0087890629 .47698976 .02520752 .5469971 .07020569L.5549927 .064208988C.5549927 .048202516 .5549927 .032196046 .55599978 .016204834 .55799868 .0012054443 .57598879-.0047912599 .58799746-.0047912599 .61898806-.0047912599 .6899872 .016204834 .7409973 .032196046L.74598696 .03919983 .74198916 .05619812C.7220001 .05419922 .70399478 .048202516 .6839905 .048202516 .673996 .048202516 .6609955 .050201417 .6539917 .0592041 .6389923 .07620239 .6359863 .15222168 .6359863 .20223999 .6359863 .3642578 .6369934 .5733032 .6519928 .68733218L.6459961 .69433596 .55799868 .659317C.55599978 .47727967 .55400088 .2942505 .55400088 .11122131 .5 .079208377 .43998719 .052200319 .37799073 .052200319 .24598694 .052200319 .22399903 .13922119 .21598816 .16522217 .20599365 .19923401 .20199585 .23423767 .20199585 .26924134L.20999146 .54229739C.20999146 .55929568 .21598816 .6603241 .21798706 .67433169L.21099854 .6803131H.041992189L.033996583 .6733093Z"/>
<path id="font_4_9" d="M.022994996 .6513672C.036987306 .649353 .049987794 .6463623 .06298828 .6433563 .07199097 .6413574 .07998657 .6353607 .085998538 .62835696 .09599304 .61834719 .102996829 .60635378 .10899353 .5943451L.2579956 .29930116C.2579956 .19927979 .2579956 .0982666 .25498963-.0017547608L.2659912-.0107421879 .35598756 .018249512 .34700013 .30630494C.42999269 .4343109 .5039978 .5303345 .61499026 .675354L.61099246 .6933594 .526001 .6763611C.48999024 .619339 .4059906 .47431947 .397995 .46032716 .3849945 .4373169 .34199525 .36730958 .33898927 .3623047 .33599855 .3572998 .33198548 .353302 .32798768 .353302 .32199098 .353302 .31698609 .3592987 .31599427 .36131288L.1749878 .6863556H.02999878L.022994996 .67936709V.6513672Z"/>
</defs>
<use data-text="+" xlink:href="#font_4_12" transform="matrix(37.1808,0,0,-37.18035,320.06269,99.35231)"/>
<use data-text="G" xlink:href="#font_4_6" transform="matrix(21.51926,0,0,-21.519387,178.12503,38.39064)"/>
<use data-text="1" xlink:href="#font_4_10" transform="matrix(16.43832,0,0,-16.438418,194.57825,42.689775)"/>
<use data-text="(" xlink:href="#font_4_2" transform="matrix(21.51926,0,0,-21.519387,204.81366,38.39064)"/>
<use data-text="s" xlink:href="#font_4_7" transform="matrix(21.51926,0,0,-21.519387,214.35877,38.39064)"/>
<use data-text=")" xlink:href="#font_4_4" transform="matrix(21.51926,0,0,-21.519387,225.34564,38.39064)"/>
<use data-text="G" xlink:href="#font_4_6" transform="matrix(21.51926,0,0,-21.519387,178.12503,152.04169)"/>
<use data-text="2" xlink:href="#font_4_11" transform="matrix(16.43832,0,0,-16.438418,194.57825,156.27509)"/>
<use data-text="(" xlink:href="#font_4_2" transform="matrix(21.51926,0,0,-21.519387,204.81366,152.04169)"/>
<use data-text="s" xlink:href="#font_4_7" transform="matrix(21.51926,0,0,-21.519387,214.35877,152.04169)"/>
<use data-text=")" xlink:href="#font_4_4" transform="matrix(21.51926,0,0,-21.519387,225.34564,152.04169)"/>
<path transform="matrix(1,0,0,-1,99.34644,89.839427)" stroke-width=".75" stroke-linecap="round" stroke-linejoin="round" fill="none" stroke="#000000" d="M79.511188 32.724447C78.520648 31.73401 79.688678 32.643518 78.23551 31.163775 96.91944 32.068925 116.35107 31.001202 133.93549 31.509755 148.81293 32.196577 148.82985 31.844536 148.96135 47.54872 149.14075 53.878339 150.27802 59.325456 149.08873 67.461719 149.21125 80.81093 149.93103 81.86753 134.85465 82.18996 115.10783 82.37361 96.866397 81.22268 78.937999 82.65111 63.209665 80.78964 64.12611 82.384288 63.7792 65.98218 64.170589 59.55928 64.398319 53.30101 63.491506 46.31776 63.764307 31.457409 63.261598 31.809964 79.511188 32.724447Z"/>
<path transform="matrix(1,0,0,-1,99.34644,89.839427)" stroke-width=".75" stroke-linecap="round" stroke-linejoin="round" fill="none" stroke="#000000" d="M79.58439-81.76085C79.14119-82.093738 78.03809-82.0349 78.05446-82.454479 96.61684-80.83478 115.05981-80.899639 133.98484-81.62237 149.30593-82.346508 150.02713-82.56243 148.5067-66.273349 149.28066-60.894056 149.13797-53.630605 149.96265-45.97449 150.11083-31.424435 150.18373-32.080194 134.67078-32.482084 115.91311-31.854365 96.702259-32.419969 78.28614-31.976519 62.843839-32.772508 63.577653-32.158784 63.91542-46.132509 63.23479-52.95524 63.13588-60.112806 64.51635-66.37177 64.438968-82.170948 62.822366-80.88755 79.58439-81.76085Z"/>
<path transform="matrix(1,0,0,-1,99.34644,89.839427)" stroke-width=".75" stroke-linecap="round" stroke-linejoin="round" fill="none" stroke="#000000" d="M255.50946 .860448C255.9476 10.986305 246.6881 21.417399 235.32303 22.57478 223.22687 20.898604 212.41223 11.739038 212.92801 .195631 213.26706-11.858696 223.55199-22.393185 233.78748-21.50425 247.21495-20.913552 255.85689-12.374016 255.50946 .860448Z"/>
<path transform="matrix(1,0,0,-1,99.34644,89.839427)" stroke-width=".75" stroke-linecap="round" stroke-linejoin="round" fill="none" stroke="#000000" d="M-42.188184 .100002C-28.378304-.023705-13.83117-.364071-.098714 .248856"/>
<path transform="matrix(1,0,0,-1,99.34644,89.839427)" stroke-width=".75" stroke-linecap="round" stroke-linejoin="round" fill="none" stroke="#000000" d="M-.130709-.147974C-.278347 19.105645 .399612 37.893316-.293631 56.45651 21.179368 56.559438 42.178045 57.15813 63.23254 56.52508"/>
<path transform="matrix(1,0,0,-1,99.34644,89.839427)" stroke-width=".75" stroke-linecap="round" stroke-linejoin="round" fill="none" stroke="#000000" d="M50.8573 48.52752C53.484849 52.54563 58.548345 55.64096 63.229639 56.652147 58.64482 58.157709 53.944368 60.50512 51.16647 64.71491"/>
<path transform="matrix(1,0,0,-1,99.34644,89.839427)" stroke-width=".75" stroke-linecap="round" stroke-linejoin="round" fill="none" stroke="#000000" d="M.249327 .12559C.369563-18.628243-.150086-37.92343 .255963-56.817369 21.231116-56.509698 42.18377-57.165594 63.58905-57.132154"/>
<path transform="matrix(1,0,0,-1,99.34644,89.839427)" stroke-width=".75" stroke-linecap="round" stroke-linejoin="round" fill="none" stroke="#000000" d="M51.181474-65.060329C54.324167-60.626195 58.79155-57.6566 63.528387-56.619535 58.173936-55.956838 53.772249-52.8199 50.76371-48.702848"/>
<path transform="matrix(1,0,0,-1,99.34644,89.839427)" stroke-width=".75" stroke-linecap="round" stroke-linejoin="round" fill="none" stroke="#000000" d="M149.37903 56.93403C178.1907 56.99039 206.2514 57.25539 235.0595 56.57025 234.50373 45.57132 235.01367 33.48848 234.5824 21.784417"/>
<path transform="matrix(1,0,0,-1,99.34644,89.839427)" stroke-width=".75" stroke-linecap="round" stroke-linejoin="round" fill="none" stroke="#000000" d="M226.79644 34.979337C231.0336 31.809943 233.4133 26.818617 235.1023 22.266356 235.84607 26.688933 238.8261 31.349656 242.80016 34.521574"/>
<path transform="matrix(1,0,0,-1,99.34644,89.839427)" stroke-width=".75" stroke-linecap="round" stroke-linejoin="round" fill="none" stroke="#000000" d="M148.96736-57.081644C177.39005-57.040075 206.70537-56.46402 234.92098-57.063798 234.43996-45.22495 234.96868-33.729627 234.8577-21.826626"/>
<path transform="matrix(1,0,0,-1,99.34644,89.839427)" stroke-width=".75" stroke-linecap="round" stroke-linejoin="round" fill="none" stroke="#000000" d="M242.70278-34.461977C239.13333-31.339472 235.94339-26.610829 234.77083-21.640852 233.5387-26.704312 230.59586-31.751374 226.29599-34.455858"/>
<path transform="matrix(1,0,0,-1,99.34644,89.839427)" stroke-width=".75" stroke-linecap="round" stroke-linejoin="round" fill="none" stroke="#000000" d="M256.39558-.280956C270.78907-.408137 284.6288 .116125 299.03419-.241048"/>
<path transform="matrix(1,0,0,-1,99.34644,89.839427)" stroke-width=".75" stroke-linecap="round" stroke-linejoin="round" fill="none" stroke="#000000" d="M285.89207-7.993746C289.61183-3.861146 293.4954-1.016134 298.58204 .37051 294.2197 1.56827 289.3898 4.378462 286.29325 7.82939"/>
<path transform="matrix(1,0,0,-1,99.34644,89.839427)" stroke-width=".75" stroke-linecap="round" stroke-linejoin="round" fill="none" stroke="#000000" d="M78.14707 32.383375C78.23663 31.210757 79.14353 32.498907 79.2715 31.339343 97.08322 32.794656 115.61121 32.19 134.88378 32.236536 150.1426 32.087938 149.42168 31.34087 149.01877 46.30843 148.5038 53.080148 148.97353 60.78593 148.80641 66.238048 149.85619 81.65075 149.2883 81.29406 135.2687 81.25655 115.15699 82.66469 96.47213 82.52208 78.67829 82.11826 63.341558 81.73057 63.65092 82.72389 64.038478 66.96558 63.861635 60.997999 63.620096 53.050085 64.20217 46.331689 63.5525 31.781756 64.518108 31.867276 78.14707 32.383375Z"/>
<path transform="matrix(1,0,0,-1,99.34644,89.839427)" stroke-width=".75" stroke-linecap="round" stroke-linejoin="round" fill="none" stroke="#000000" d="M78.99742-81.442859C79.6699-81.033138 78.42428-81.350109 79.32783-81.004428 96.461299-81.5302 115.08143-81.44691 134.5088-82.05209 148.57392-81.56194 149.09815-81.15378 150.22486-66.12389 148.55539-59.71765 149.51428-52.54103 148.41677-46.3434 150.25428-32.128404 149.0632-32.47147 134.99613-32.47456 115.64872-31.365956 96.67425-32.389669 78.054279-32.50593 64.477298-31.24202 62.971616-31.06818 64.41186-46.585638 64.641948-52.865465 63.72198-60.38355 63.75643-66.9189 63.755746-81.0544 64.708049-81.25818 78.99742-81.442859Z"/>
<path transform="matrix(1,0,0,-1,99.34644,89.839427)" stroke-width=".75" stroke-linecap="round" stroke-linejoin="round" fill="none" stroke="#000000" d="M256.93269 .515814C257.2603 12.349027 246.15917 21.439032 234.36338 22.340823 222.65459 22.205412 212.74498 12.349254 213.74153-.306331 213.57892-12.007849 223.24286-22.211441 235.5235-22.315215 247.6649-22.585995 255.62476-12.778755 256.93269 .515814Z"/>
<path transform="matrix(1,0,0,-1,99.34644,89.839427)" stroke-width=".75" stroke-linecap="round" stroke-linejoin="round" fill="none" stroke="#000000" d="M-42.290178-.168971C-28.034485-.418715-13.907201 .33315-.147417-.174823"/>
<path transform="matrix(1,0,0,-1,99.34644,89.839427)" stroke-width=".75" stroke-linecap="round" stroke-linejoin="round" fill="none" stroke="#000000" d="M.167452 .247823C-.28254 18.836638-.273275 37.770116-.242867 56.499895 21.581032 56.418787 42.62769 56.64468 63.528909 56.673158"/>
<path transform="matrix(1,0,0,-1,99.34644,89.839427)" stroke-width=".75" stroke-linecap="round" stroke-linejoin="round" fill="none" stroke="#000000" d="M50.643247 48.473329C53.87269 53.2027 57.995504 55.50483 63.044874 57.18766 58.471086 58.40207 54.220518 60.55652 50.855569 64.53502"/>
<path transform="matrix(1,0,0,-1,99.34644,89.839427)" stroke-width=".75" stroke-linecap="round" stroke-linejoin="round" fill="none" stroke="#000000" d="M.037309-.120582C.145249-19.27935-.145497-37.593065 .249174-56.905477 21.211258-56.928739 41.853376-57.149156 63.57012-57.038324"/>
<path transform="matrix(1,0,0,-1,99.34644,89.839427)" stroke-width=".75" stroke-linecap="round" stroke-linejoin="round" fill="none" stroke="#000000" d="M50.671499-64.76546C54.05043-60.51434 58.69156-58.171346 63.093717-56.51892 58.462465-56.027719 53.74464-53.05465 51.045927-48.34316"/>
<path transform="matrix(1,0,0,-1,99.34644,89.839427)" stroke-width=".75" stroke-linecap="round" stroke-linejoin="round" fill="none" stroke="#000000" d="M149.34595 57.166357C177.54082 57.06414 205.85889 56.86231 234.85681 57.074869 235.18605 44.903455 234.96985 33.507658 235.0873 21.860499"/>
<path transform="matrix(1,0,0,-1,99.34644,89.839427)" stroke-width=".75" stroke-linecap="round" stroke-linejoin="round" fill="none" stroke="#000000" d="M226.39539 34.6995C231.03302 31.395749 233.77742 26.595992 235.05655 21.984257 235.48339 26.879727 238.32721 31.73291 242.55219 34.665578"/>
<path transform="matrix(1,0,0,-1,99.34644,89.839427)" stroke-width=".75" stroke-linecap="round" stroke-linejoin="round" fill="none" stroke="#000000" d="M149.09352-56.99185C177.42847-56.813848 206.12197-57.130857 234.4717-57.213739 234.74105-44.82529 235.11808-33.864748 235.08715-21.789889"/>
<path transform="matrix(1,0,0,-1,99.34644,89.839427)" stroke-width=".75" stroke-linecap="round" stroke-linejoin="round" fill="none" stroke="#000000" d="M243.22539-34.751966C239.17392-31.45545 236.26483-26.848517 234.89772-21.890776 233.28693-27.094372 230.95053-31.660408 226.91577-34.36733"/>
<path transform="matrix(1,0,0,-1,99.34644,89.839427)" stroke-width=".75" stroke-linecap="round" stroke-linejoin="round" fill="none" stroke="#000000" d="M256.33073 .306814C270.7766-.164519 284.44526-.069949 298.95353-.439347"/>
<path transform="matrix(1,0,0,-1,99.34644,89.839427)" stroke-width=".75" stroke-linecap="round" stroke-linejoin="round" fill="none" stroke="#000000" d="M286.48524-8.29919C289.7714-3.783864 293.63148-.981957 298.78666 .027222 293.73356 1.120539 289.41127 4.356549 286.28889 7.73042"/>
<path transform="matrix(1,0,0,-1,99.34644,89.839427)" stroke-width=".75" stroke-linecap="round" stroke-linejoin="round" fill="none" stroke="#000000" d="M78.59165 32.72576C78.63632 32.656515 78.00852 32.652463 79.562648 30.970829 96.48697 31.698216 114.959079 32.67612 134.18685 31.430094 148.71829 31.068739 149.37348 32.43361 148.44704 46.349729 148.93444 53.928834 149.5423 60.972059 150.12708 67.43597 148.64998 80.9884 149.25067 82.52882 134.33725 82.53987 114.960178 80.90446 97.04407 80.898998 78.56654 81.886447 64.597248 82.21414 63.39987 81.498859 64.61617 67.5217 64.1733 59.689794 64.29636 54.13039 64.32674 46.569028 64.0611 31.069106 64.640338 32.266138 78.59165 32.72576Z"/>
<path transform="matrix(1,0,0,-1,99.34644,89.839427)" stroke-width=".75" stroke-linecap="round" stroke-linejoin="round" fill="none" stroke="#000000" d="M78.87838-82.00973C78.74271-81.4701 78.06879-82.242328 78.62236-82.14904 97.05326-81.858669 115.21559-82.45975 133.85994-81.61276 149.45108-81.84783 148.86128-81.51856 149.16469-66.42197 149.39633-60.827196 148.48964-54.13201 149.06783-47.623025 149.35521-31.86649 149.54827-31.295166 134.76772-31.029429 115.25779-30.935357 96.64294-31.1357 78.662258-32.129228 64.34263-32.691724 63.881967-31.415114 64.30386-46.00871 63.266336-53.229475 63.586385-59.480035 64.13691-66.69425 63.75648-82.604907 63.82345-81.52076 78.87838-82.00973Z"/>
<path transform="matrix(1,0,0,-1,99.34644,89.839427)" stroke-width=".75" stroke-linecap="round" stroke-linejoin="round" fill="none" stroke="#000000" d="M256.5907-.64528C257.01878 11.641461 247.30532 21.162737 235.25614 21.690802 222.20435 21.536683 212.69693 11.432078 213.01087 .271223 212.36463-12.44977 223.65592-21.42518 234.07773-21.556195 246.44644-21.328612 257.2256-11.527463 256.5907-.64528Z"/>
<path transform="matrix(1,0,0,-1,99.34644,89.839427)" stroke-width=".75" stroke-linecap="round" stroke-linejoin="round" fill="none" stroke="#000000" d="M-42.712388-.080457C-28.01216-.432487-14.064312 .143279 .314556-.321003"/>
<path transform="matrix(1,0,0,-1,99.34644,89.839427)" stroke-width=".75" stroke-linecap="round" stroke-linejoin="round" fill="none" stroke="#000000" d="M-.430173-.058903C.439267 19.319893 .162286 38.224214-.441645 56.400598 21.022933 56.54683 41.860288 56.886034 63.420579 57.272115"/>
<path transform="matrix(1,0,0,-1,99.34644,89.839427)" stroke-width=".75" stroke-linecap="round" stroke-linejoin="round" fill="none" stroke="#000000" d="M51.009767 48.51016C53.513978 52.62215 58.810403 55.737825 63.284418 56.574289 58.56991 58.17331 53.64437 60.61181 50.657075 65.06407"/>
<path transform="matrix(1,0,0,-1,99.34644,89.839427)" stroke-width=".75" stroke-linecap="round" stroke-linejoin="round" fill="none" stroke="#000000" d="M-.406987-.333645C.151118-18.654028-.141691-38.238828-.098104-57.217584 21.447905-56.788854 42.497159-56.737497 63.279237-56.68067"/>
<path transform="matrix(1,0,0,-1,99.34644,89.839427)" stroke-width=".75" stroke-linecap="round" stroke-linejoin="round" fill="none" stroke="#000000" d="M50.33872-64.570148C53.634294-61.12238 58.497869-58.13828 63.85264-56.97281 58.808416-55.993017 53.74589-52.726205 50.96359-48.777204"/>
<path transform="matrix(1,0,0,-1,99.34644,89.839427)" stroke-width=".75" stroke-linecap="round" stroke-linejoin="round" fill="none" stroke="#000000" d="M148.90319 57.175394C177.675 56.90016 206.30706 56.6817 234.55643 56.77659 235.10187 44.879854 234.34575 33.5459 234.60552 22.23187"/>
<path transform="matrix(1,0,0,-1,99.34644,89.839427)" stroke-width=".75" stroke-linecap="round" stroke-linejoin="round" fill="none" stroke="#000000" d="M226.2952 34.920637C230.79723 31.7303 233.63626 27.260346 234.82497 21.852923 235.57318 27.15319 238.82939 31.417508 242.76084 34.80482"/>
<path transform="matrix(1,0,0,-1,99.34644,89.839427)" stroke-width=".75" stroke-linecap="round" stroke-linejoin="round" fill="none" stroke="#000000" d="M149.0911-57.117567C177.54943-56.988103 206.41257-56.650636 234.36214-56.900037 234.97817-44.865049 234.8127-33.47944 235.19504-22.385998"/>
<path transform="matrix(1,0,0,-1,99.34644,89.839427)" stroke-width=".75" stroke-linecap="round" stroke-linejoin="round" fill="none" stroke="#000000" d="M242.61687-34.35704C238.71424-31.174527 236.24095-26.834223 234.49182-21.651162 233.25379-27.276799 231.0811-31.84089 226.9249-34.578298"/>
<path transform="matrix(1,0,0,-1,99.34644,89.839427)" stroke-width=".75" stroke-linecap="round" stroke-linejoin="round" fill="none" stroke="#000000" d="M256.808-.083001C270.90888-.275459 284.50117-.25289 298.55769-.427104"/>
<path transform="matrix(1,0,0,-1,99.34644,89.839427)" stroke-width=".75" stroke-linecap="round" stroke-linejoin="round" fill="none" stroke="#000000" d="M286.24534-8.046191C289.232-3.824487 294.267-.869336 298.61668-.285327 293.8511 .738292 289.05314 4.111353 286.05979 7.622249"/>
<path transform="matrix(1,0,0,-1,99.34644,89.839427)" stroke-width=".75" stroke-linecap="round" stroke-linejoin="round" fill="none" stroke="#000000" d="M78.71306 31.738202C78.347438 32.572488 79.48894 32.66967 78.58954 31.62844 97.20371 31.620392 115.69253 31.699875 133.5424 31.211638 149.46971 31.1369 148.56168 31.7773 149.77342 47.0545 148.94452 53.13298 150.12908 60.784055 148.45728 67.44695 150.09584 82.628269 149.16588 81.11351 134.9399 82.33854 116.16996 81.894268 97.27162 81.3337 79.46045 81.5985 64.43187 81.47975 63.28744 82.03602 63.548849 67.4405 64.375568 61.022798 63.157209 52.67008 63.2194 46.449274 64.718288 31.467032 64.71469 32.2875 78.71306 31.738202Z"/>
<path transform="matrix(1,0,0,-1,99.34644,89.839427)" stroke-width=".75" stroke-linecap="round" stroke-linejoin="round" fill="none" stroke="#000000" d="M78.288608-82.699558C77.859378-82.17635 78.97856-82.52232 78.37648-81.104328 97.45956-81.412738 115.543918-81.80508 134.70095-82.11358 149.95893-81.1145 149.58415-82.40146 148.52674-66.61139 149.75357-60.74383 149.69585-53.502847 150.20748-46.397348 149.33209-32.034967 148.5619-32.180376 133.65885-32.31615 115.34103-31.576838 96.5564-31.825129 78.027339-32.734815 63.31034-32.704908 64.608089-30.957163 63.20938-47.524774 64.12219-53.80447 64.562099-59.26858 63.05935-65.956249 62.88199-81.65035 63.13735-81.0058 78.288608-82.699558Z"/>
<path transform="matrix(1,0,0,-1,99.34644,89.839427)" stroke-width=".75" stroke-linecap="round" stroke-linejoin="round" fill="none" stroke="#000000" d="M256.61564-.357878C256.41709 11.502309 246.761 22.44027 233.79003 20.691197 222.36344 21.135046 213.64116 11.100982 212.73464-.852505 212.65045-12.70978 221.93488-21.281233 235.43279-22.234435 246.23491-22.322403 256.66798-11.63919 256.61564-.357878Z"/>
<path transform="matrix(1,0,0,-1,99.34644,89.839427)" stroke-width=".75" stroke-linecap="round" stroke-linejoin="round" fill="none" stroke="#000000" d="M-42.17395 .087933C-27.932358-.136636-14.563762 .322396-.31469-.154107"/>
<path transform="matrix(1,0,0,-1,99.34644,89.839427)" stroke-width=".75" stroke-linecap="round" stroke-linejoin="round" fill="none" stroke="#000000" d="M.140152 .10072C-.010578 18.701914-.431476 37.674825 .053658 56.56187 21.011519 56.506769 42.06005 56.83698 63.192869 56.97422"/>
<path transform="matrix(1,0,0,-1,99.34644,89.839427)" stroke-width=".75" stroke-linecap="round" stroke-linejoin="round" fill="none" stroke="#000000" d="M50.638189 49.198408C54.275239 52.551294 58.084119 55.7002 63.136724 56.75045 58.386896 58.286447 54.17418 60.949079 51.023855 65.21693"/>
<path transform="matrix(1,0,0,-1,99.34644,89.839427)" stroke-width=".75" stroke-linecap="round" stroke-linejoin="round" fill="none" stroke="#000000" d="M-.425542 .061374C.071704-18.76602 .330314-37.52693 .14846-56.89819 21.04901-57.022455 42.120935-56.537618 63.1411-56.816896"/>
<path transform="matrix(1,0,0,-1,99.34644,89.839427)" stroke-width=".75" stroke-linecap="round" stroke-linejoin="round" fill="none" stroke="#000000" d="M51.152269-64.53166C54.04513-61.234895 58.75975-58.378828 63.773115-56.573015 58.368837-55.45023 53.843446-52.728979 50.32825-48.425214"/>
<path transform="matrix(1,0,0,-1,99.34644,89.839427)" stroke-width=".75" stroke-linecap="round" stroke-linejoin="round" fill="none" stroke="#000000" d="M149.70766 56.816839C177.96002 56.587038 206.60675 56.870828 234.87607 56.741594 234.60363 45.527486 235.15091 33.994985 234.61028 22.334265"/>
<path transform="matrix(1,0,0,-1,99.34644,89.839427)" stroke-width=".75" stroke-linecap="round" stroke-linejoin="round" fill="none" stroke="#000000" d="M226.66909 34.68783C230.95899 31.471728 233.26483 26.823052 234.805 22.374905 236.32929 26.64517 238.6394 31.716439 242.42055 34.35207"/>
<path transform="matrix(1,0,0,-1,99.34644,89.839427)" stroke-width=".75" stroke-linecap="round" stroke-linejoin="round" fill="none" stroke="#000000" d="M149.51879-57.140256C178.09758-56.928308 206.61191-56.81106 235.077-56.571138 235.0478-45.07296 234.9701-33.213068 234.91184-21.576069"/>
<path transform="matrix(1,0,0,-1,99.34644,89.839427)" stroke-width=".75" stroke-linecap="round" stroke-linejoin="round" fill="none" stroke="#000000" d="M242.44588-34.737386C238.3793-31.325669 236.33492-26.909678 234.49529-21.846203 233.68814-27.178025 230.36144-31.09168 226.99002-34.62539"/>
<path transform="matrix(1,0,0,-1,99.34644,89.839427)" stroke-width=".75" stroke-linecap="round" stroke-linejoin="round" fill="none" stroke="#000000" d="M256.44429-.259974C270.86714 .179436 284.74418 .324447 299.1014 .405207"/>
<path transform="matrix(1,0,0,-1,99.34644,89.839427)" stroke-width=".75" stroke-linecap="round" stroke-linejoin="round" fill="none" stroke="#000000" d="M285.93254-8.508651C289.1797-3.729657 293.66896-1.552992 298.84953-.029784 293.9389 1.095133 289.27897 4.111645 286.3636 8.021605"/>
<path transform="matrix(1,0,0,-1,99.34644,89.839427)" stroke-width=".75" stroke-linecap="round" stroke-linejoin="round" fill="none" stroke="#000000" d="M79.5254 31.536698C77.848499 31.73767 78.92487 31.278252 79.63197 31.315434 98.26955 31.710444 114.86494 32.730234 135.27466 32.744813 150.20941 31.780076 149.89119 32.130018 148.50679 47.100397 149.79949 53.03116 148.96872 61.05819 149.47499 67.00577 148.37349 82.29783 148.89664 81.11973 134.6705 81.61099 115.763568 81.83145 97.016628 82.11165 78.578449 82.51132 63.908887 82.57032 63.46905 80.935749 63.900026 67.182308 63.18614 60.93149 62.933267 54.146036 63.715677 46.53473 63.87519 31.14964 64.25031 32.68532 79.5254 31.536698Z"/>
<path transform="matrix(1,0,0,-1,99.34644,89.839427)" stroke-width=".75" stroke-linecap="round" stroke-linejoin="round" fill="none" stroke="#000000" d="M77.826328-80.85339C78.17857-82.06814 78.519-82.6093 79.66656-81.95617 98.207729-82.70746 115.064067-82.513759 134.09104-82.51452 149.2307-81.16243 148.47324-81.85738 148.81526-67.28663 150.04694-60.609167 148.74304-53.21024 149.80908-46.972074 149.21759-32.76152 149.53713-31.368994 133.9866-31.00026 115.7284-32.686189 96.54157-32.44807 79.35171-32.12095 63.677099-32.013746 64.6715-32.591028 62.92729-46.98126 62.8884-53.7514 64.24049-60.385427 63.296308-66.74163 63.01531-80.9931 63.577238-80.797039 77.826328-80.85339Z"/>
<path transform="matrix(1,0,0,-1,99.34644,89.839427)" stroke-width=".75" stroke-linecap="round" stroke-linejoin="round" fill="none" stroke="#000000" d="M256.0055-.853404C255.7008 12.84305 247.50548 21.07321 234.84163 21.007739 221.97658 22.515229 212.6124 12.260871 212.56855 .847141 213.66497-11.060653 222.88515-21.821089 234.22646-22.292006 247.55579-21.696509 255.43862-11.279745 256.0055-.853404Z"/>
<path transform="matrix(1,0,0,-1,99.34644,89.839427)" stroke-width=".75" stroke-linecap="round" stroke-linejoin="round" fill="none" stroke="#000000" d="M-42.84746 .295698C-28.461804 .105064-14.020127 .330287 .342886 .066251"/>
<path transform="matrix(1,0,0,-1,99.34644,89.839427)" stroke-width=".75" stroke-linecap="round" stroke-linejoin="round" fill="none" stroke="#000000" d="M-.140005 .253878C.274213 18.640215-.136011 38.30807 .255156 56.964246 20.91387 56.71449 42.308847 56.57164 63.80932 57.026723"/>
<path transform="matrix(1,0,0,-1,99.34644,89.839427)" stroke-width=".75" stroke-linecap="round" stroke-linejoin="round" fill="none" stroke="#000000" d="M50.724374 49.10723C53.638658 52.37358 58.529325 55.4827 63.18449 56.639444 58.79764 58.056009 53.99636 61.22858 50.512929 65.280559"/>
<path transform="matrix(1,0,0,-1,99.34644,89.839427)" stroke-width=".75" stroke-linecap="round" stroke-linejoin="round" fill="none" stroke="#000000" d="M-.288082 .393678C.428387-19.276736 .184429-37.613496-.305157-56.908929 20.878104-56.87667 42.62839-57.169858 63.238527-56.64558"/>
<path transform="matrix(1,0,0,-1,99.34644,89.839427)" stroke-width=".75" stroke-linecap="round" stroke-linejoin="round" fill="none" stroke="#000000" d="M51.19691-64.5331C54.34022-60.8325 58.000295-58.373846 63.4245-56.745836 58.677595-55.482427 53.9062-52.673498 51.17947-48.394495"/>
<path transform="matrix(1,0,0,-1,99.34644,89.839427)" stroke-width=".75" stroke-linecap="round" stroke-linejoin="round" fill="none" stroke="#000000" d="M149.54123 56.806188C177.60591 56.893457 206.09746 57.131269 235.19556 57.19851 234.62303 45.654504 235.13559 33.850168 235.19609 21.594569"/>
<path transform="matrix(1,0,0,-1,99.34644,89.839427)" stroke-width=".75" stroke-linecap="round" stroke-linejoin="round" fill="none" stroke="#000000" d="M226.59592 34.80117C231.13439 31.386317 233.14652 26.598048 234.92676 21.636998 235.53488 26.60051 238.91847 31.551115 242.41374 34.782"/>
<path transform="matrix(1,0,0,-1,99.34644,89.839427)" stroke-width=".75" stroke-linecap="round" stroke-linejoin="round" fill="none" stroke="#000000" d="M149.20093-56.38825C177.54219-57.078336 206.5728-56.52128 234.59909-56.811628 235.12033-44.77734 235.06638-33.944784 235.0441-21.759106"/>
<path transform="matrix(1,0,0,-1,99.34644,89.839427)" stroke-width=".75" stroke-linecap="round" stroke-linejoin="round" fill="none" stroke="#000000" d="M242.87404-35.01547C238.62682-31.805272 235.90467-27.358107 234.92868-22.223172 233.53801-27.408602 230.48123-31.652142 226.2518-34.901704"/>
<path transform="matrix(1,0,0,-1,99.34644,89.839427)" stroke-width=".75" stroke-linecap="round" stroke-linejoin="round" fill="none" stroke="#000000" d="M256.74446 .104304C270.68269-.017766 284.76908 .338705 299.34727-.380567"/>
<path transform="matrix(1,0,0,-1,99.34644,89.839427)" stroke-width=".75" stroke-linecap="round" stroke-linejoin="round" fill="none" stroke="#000000" d="M286.2321-8.210414C289.1734-4.37744 294.00163-1.5785 299.22187 .03117 293.89189 1.30509 289.2613 4.011516 286.08845 8.480984"/>
<use data-text="+" xlink:href="#font_4_12" transform="matrix(17.932744,0,0,-17.932789,340.2404,63.73117)"/>
<use data-text="+" xlink:href="#font_4_12" transform="matrix(17.932744,0,0,-17.932789,340.2404,125.12408)"/>
<use data-text="U" xlink:href="#font_4_8" transform="matrix(21.519164,0,0,-21.519387,6.814293,95.216159)"/>
<use data-text="(" xlink:href="#font_4_2" transform="matrix(21.519164,0,0,-21.519387,23.470128,95.216159)"/>
<use data-text="s" xlink:href="#font_4_7" transform="matrix(21.519164,0,0,-21.519387,33.01517,95.216159)"/>
<use data-text=")" xlink:href="#font_4_4" transform="matrix(21.519164,0,0,-21.519387,44.001996,95.216159)"/>
<use data-text="Y" xlink:href="#font_4_9" transform="matrix(21.519528,0,0,-21.519387,402.74159,95.216159)"/>
<use data-text="(" xlink:href="#font_4_2" transform="matrix(21.519528,0,0,-21.519387,415.88935,95.216159)"/>
<use data-text="s" xlink:href="#font_4_7" transform="matrix(21.519528,0,0,-21.519387,425.43458,95.216159)"/>
<use data-text=")" xlink:href="#font_4_4" transform="matrix(21.519528,0,0,-21.519387,436.42158,95.216159)"/>
</svg>
