<svg xmlns="http://www.w3.org/2000/svg" xmlns:xlink="http://www.w3.org/1999/xlink" xmlns:inkscape="http://www.inkscape.org/namespaces/inkscape" version="1.1" width="270.50636" height="66.01866" viewBox="0 0 270.50636 66.01866">
<defs>
<path id="font_2_6" d="M.08999634 .32458497C.08999634 .22958374 .114990238 .13148499 .18299866 .06341553 .23699951 .009384155 .31199647-.016601563 .3880005-.016601563 .46099855-.016601563 .56900027 .010391235 .6569977 .03338623 .6569977 .03338623 .6539917 .216568 .6519928 .30760194L.37599183 .2966156V.27061463L.38198854 .265625C.43598939 .26361085 .5 .25961305 .5439911 .25660707 .57199099 .25460816 .57199099 .22257996 .57199099 .13449097 .57199099 .061416627 .56900027 .04940796 .5519867 .045394899 .5209961 .038391115 .48999024 .03538513 .45799256 .03538513 .37998963 .03538513 .30599977 .060409547 .2619934 .112472537 .20399475 .18052674 .17999268 .25260926 .17999268 .3405609 .17999268 .48339845 .23199463 .5653076 .26098634 .5942688 .3039856 .63623049 .36299134 .6502075 .42199708 .6502075 .5529938 .6502075 .59298709 .5563202 .60598757 .53034976L.6179962 .5293579 .6759949 .58628848C.6649933 .6032715 .6119995 .69921877 .46699525 .69921877 .3619995 .69921877 .25698854 .6682129 .18199158 .593277 .11199951 .5233612 .08999634 .4224701 .08999634 .32458497Z"/>
<path id="font_2_2" d="M.11299133 .24990845C.11299133 .007904053 .1519928-.09008789 .18299866-.13310242 .21099854-.17008972 .25299073-.20809937 .30099488-.21209717V-.1880951C.2809906-.18409729 .25099183-.16809082 .23399353-.1481018 .21998596-.13209534 .16499329-.05809021 .16499329 .24990845 .16499329 .4618988 .19799805 .5659027 .21998596 .6128998 .23599243 .6469116 .2689972 .6769104 .30099488 .684906V.71191409C.2599945 .7049103 .21598816 .6729126 .19099427 .63790896 .1599884 .5919037 .11299133 .4748993 .11299133 .24990845Z"/>
<path id="font_2_7" d="M.051986696 .06642151C.06199646 .047409059 .07598877 .030395508 .09199524 .01638794 .12098694-.009613037 .16099549-.016601563 .19898987-.016601563 .2559967-.016601563 .31199647 .0023956299 .35099793 .044403078 .375 .06941223 .3869934 .10343933 .3869934 .13845825 .3869934 .1634674 .37298585 .18649292 .35499574 .20449829 .34098817 .21850586 .3039856 .24052429 .27198792 .25453187 .24299622 .26654054 .19999695 .2885437 .18798828 .30055238 .17298889 .31655885 .1619873 .3285675 .1619873 .35058595 .1619873 .3725891 .16899109 .39360047 .18499756 .4086151 .19999695 .42362977 .22200012 .43164063 .24398804 .43164063 .2639923 .43164063 .2849884 .42462159 .29599 .4066162 .30599977 .39060975 .30799867 .3715973 .30899049 .35359193L.32099916 .34657289 .37599183 .38360597C.375 .40560914 .3639984 .42662049 .34799195 .44163514 .32499696 .46263124 .29299928 .46662904 .2630005 .46662904 .21398926 .46662904 .16699219 .45063783 .1309967 .4176178 .10398865 .39360047 .08999634 .35858155 .08999634 .32356263 .08999634 .29154969 .10798645 .26353456 .1309967 .2425232 .1539917 .22250366 .18399048 .2084961 .21499634 .1954956 .24099732 .18447876 .2689972 .17248535 .28799439 .1534729 .30299378 .13845825 .31399537 .11845398 .31399537 .09744263 .31399537 .079422 .30499269 .062408449 .29299928 .04940796 .27799989 .03340149 .25099183 .021392823 .22898865 .021392823 .19898987 .021392823 .17199707 .03439331 .1499939 .055404664 .1269989 .076416019 .116989139 .10644531 .114990238 .13645935L.100997928 .13745117 .051986696 .06642151Z"/>
<path id="font_2_4" d="M.085998538-.1880951V-.21209717C.13398743-.20610047 .1789856-.17208863 .20698548-.13510132 .23799134-.09210205 .27598573 .007904053 .27598573 .24990845 .27598573 .50090029 .22399903 .5919037 .19299317 .63790896 .16799927 .6729126 .1269989 .7049103 .085998538 .71191409V.684906C.117996219 .6759033 .14898682 .6469116 .16499329 .6128998 .18699646 .5659027 .22399903 .48190309 .22399903 .24990845 .22399903-.099090579 .17199707-.13209534 .1579895-.1481018 .14099121-.16809082 .10598755-.18409729 .085998538-.1880951Z"/>
<path id="font_2_8" d="M.033996583 .6733093 .035995485 .6533203C.037994386 .6533203 .07398987 .6443176 .09199524 .63931277 .12298584 .6313019 .125 .6222992 .125 .54229739 .125 .46427918 .12199402 .38627626 .12199402 .30825807 .12199402 .24723816 .12399292 .17323303 .12998963 .12721253 .1349945 .08821106 .1559906-.0087890629 .31399537-.0087890629 .39698792-.0087890629 .47698976 .02520752 .5469971 .07020569L.5549927 .064208988C.5549927 .048202516 .5549927 .032196046 .55599978 .016204834 .55799868 .0012054443 .57598879-.0047912599 .58799746-.0047912599 .61898806-.0047912599 .6899872 .016204834 .7409973 .032196046L.74598696 .03919983 .74198916 .05619812C.7220001 .05419922 .70399478 .048202516 .6839905 .048202516 .673996 .048202516 .6609955 .050201417 .6539917 .0592041 .6389923 .07620239 .6359863 .15222168 .6359863 .20223999 .6359863 .3642578 .6369934 .5733032 .6519928 .68733218L.6459961 .69433596 .55799868 .659317C.55599978 .47727967 .55400088 .2942505 .55400088 .11122131 .5 .079208377 .43998719 .052200319 .37799073 .052200319 .24598694 .052200319 .22399903 .13922119 .21598816 .16522217 .20599365 .19923401 .20199585 .23423767 .20199585 .26924134L.20999146 .54229739C.20999146 .55929568 .21598816 .6603241 .21798706 .67433169L.21099854 .6803131H.041992189L.033996583 .6733093Z"/>
<path id="font_2_9" d="M.022994996 .6513672C.036987306 .649353 .049987794 .6463623 .06298828 .6433563 .07199097 .6413574 .07998657 .6353607 .085998538 .62835696 .09599304 .61834719 .102996829 .60635378 .10899353 .5943451L.2579956 .29930116C.2579956 .19927979 .2579956 .0982666 .25498963-.0017547608L.2659912-.0107421879 .35598756 .018249512 .34700013 .30630494C.42999269 .4343109 .5039978 .5303345 .61499026 .675354L.61099246 .6933594 .526001 .6763611C.48999024 .619339 .4059906 .47431947 .397995 .46032716 .3849945 .4373169 .34199525 .36730958 .33898927 .3623047 .33599855 .3572998 .33198548 .353302 .32798768 .353302 .32199098 .353302 .31698609 .3592987 .31599427 .36131288L.1749878 .6863556H.02999878L.022994996 .67936709V.6513672Z"/>
</defs>
<use data-text="G" xlink:href="#font_2_6" transform="matrix(21.51932,0,0,-21.519387,114.34628,38.306264)"/>
<use data-text="(" xlink:href="#font_2_2" transform="matrix(21.51932,0,0,-21.519387,130.80857,38.306264)"/>
<use data-text="s" xlink:href="#font_2_7" transform="matrix(21.51932,0,0,-21.519387,140.35367,38.306264)"/>
<use data-text=")" xlink:href="#font_2_4" transform="matrix(21.51932,0,0,-21.519387,151.34058,38.306264)"/>
<path transform="matrix(1,0,0,-1,137.00601,32.929536)" stroke-width=".75" stroke-linecap="round" stroke-linejoin="round" fill="none" stroke="#000000" d="M-23.435906-24.773655C-21.706875-24.814797-21.686364-24.364428-23.192091-24.26413-8.360283-25.886738 8.08549-25.092104 22.751273-25.671788 36.767095-24.849099 37.25484-25.21587 37.29759-9.413935 38.022607-3.682238 37.179079 3.718233 37.565004 10.604689 37.226194 25.055733 37.057619 24.088486 21.908137 25.433257 7.627365 25.40663-8.471952 25.59192-22.836165 25.536103-37.35675 25.290865-38.083086 24.860152-38.309083 9.671579-38.53003 3.393589-36.87716-4.106478-37.88684-9.015233-37.42466-25.333449-37.86689-23.985285-23.435906-24.773655Z"/>
<path transform="matrix(1,0,0,-1,137.00601,32.929536)" stroke-width=".75" stroke-linecap="round" stroke-linejoin="round" fill="none" stroke="#000000" d="M-80.352008-.44035C-66.45186-.438101-52.301874-.20832-37.829458 .386056"/>
<path transform="matrix(1,0,0,-1,137.00601,32.929536)" stroke-width=".75" stroke-linecap="round" stroke-linejoin="round" fill="none" stroke="#000000" d="M-50.408239-7.822858C-47.38738-3.935012-43.19682-1.508768-37.8364 .365816-42.79951 1.506071-47.08128 3.797992-50.915815 8.098168"/>
<path transform="matrix(1,0,0,-1,137.00601,32.929536)" stroke-width=".75" stroke-linecap="round" stroke-linejoin="round" fill="none" stroke="#000000" d="M37.560068-.035601C51.43607 .142928 65.82025-.18799 80.39994-.426866"/>
<path transform="matrix(1,0,0,-1,137.00601,32.929536)" stroke-width=".75" stroke-linecap="round" stroke-linejoin="round" fill="none" stroke="#000000" d="M67.115108-7.732264C70.46364-3.588075 75.49934-1.390376 80.54236-.311366 75.4971 .72204 70.58222 4.348906 67.434459 8.476972"/>
<path transform="matrix(1,0,0,-1,137.00601,32.929536)" stroke-width=".75" stroke-linecap="round" stroke-linejoin="round" fill="none" stroke="#000000" d="M-22.425408-24.18111C-23.007269-25.620892-22.673987-24.34529-22.237238-24.430788-6.867234-24.094904 8.516218-24.051896 23.631829-24.350178 36.995294-24.38978 37.76481-25.56144 37.93948-9.882514 38.54109-2.800956 37.87805 4.137459 37.63778 9.19852 38.48538 25.228047 38.571714 25.407433 23.123345 24.351223 7.948219 23.974734-7.683519 24.463232-23.096535 24.486918-36.999246 25.579674-37.4164 24.932372-37.80414 10.610587-38.2228 2.955881-38.44329-3.500851-37.95051-10.514511-38.49233-25.100159-37.845418-25.141953-22.425408-24.18111Z"/>
<path transform="matrix(1,0,0,-1,137.00601,32.929536)" stroke-width=".75" stroke-linecap="round" stroke-linejoin="round" fill="none" stroke="#000000" d="M-80.618808 .326018C-66.472759-.364691-51.942998-.181284-37.96431-.325809"/>
<path transform="matrix(1,0,0,-1,137.00601,32.929536)" stroke-width=".75" stroke-linecap="round" stroke-linejoin="round" fill="none" stroke="#000000" d="M-50.817407-7.849205C-47.905836-3.918885-42.990377-1.460982-37.7789-.304604-42.671457 1.293038-47.65626 4.323395-50.658105 8.227144"/>
<path transform="matrix(1,0,0,-1,137.00601,32.929536)" stroke-width=".75" stroke-linecap="round" stroke-linejoin="round" fill="none" stroke="#000000" d="M37.96889 .395402C51.96694-.404968 65.689128-.419624 80.60478 .269059"/>
<path transform="matrix(1,0,0,-1,137.00601,32.929536)" stroke-width=".75" stroke-linecap="round" stroke-linejoin="round" fill="none" stroke="#000000" d="M67.432338-7.97237C70.856807-4.381041 75.491428-.912175 80.12671-.038418 75.07495 1.096573 70.90269 3.810925 67.70324 8.35698"/>
<path transform="matrix(1,0,0,-1,137.00601,32.929536)" stroke-width=".75" stroke-linecap="round" stroke-linejoin="round" fill="none" stroke="#000000" d="M-22.57484-25.379879C-21.851506-25.077197-23.056365-24.21135-23.472956-25.787865-8.305484-24.820132 6.705914-24.424654 22.190167-24.67014 36.812028-25.829602 37.16244-24.93081 37.96575-9.112534 37.15669-3.138896 36.74709 2.749917 37.182447 9.421586 38.190675 25.368832 38.600397 25.56682 22.66093 24.456698 7.977433 25.10426-6.61476 25.34512-23.51867 25.28658-37.443578 24.33369-38.6248 24.79509-37.69699 9.4977-37.211278 2.530841-37.11407-2.865957-37.74763-10.113118-37.286207-25.24755-37.543817-24.04763-22.57484-25.379879Z"/>
<path transform="matrix(1,0,0,-1,137.00601,32.929536)" stroke-width=".75" stroke-linecap="round" stroke-linejoin="round" fill="none" stroke="#000000" d="M-79.759548-.139854C-65.85588-.318721-52.28974 .423924-38.273626-.328198"/>
<path transform="matrix(1,0,0,-1,137.00601,32.929536)" stroke-width=".75" stroke-linecap="round" stroke-linejoin="round" fill="none" stroke="#000000" d="M-50.62915-7.657468C-47.684476-3.881971-43.439687-1.156983-38.156438-.316534-42.78532 1.129794-47.27636 4.268502-50.454469 7.697095"/>
<path transform="matrix(1,0,0,-1,137.00601,32.929536)" stroke-width=".75" stroke-linecap="round" stroke-linejoin="round" fill="none" stroke="#000000" d="M38.011568-.44981C51.70067-.31113 65.95671 .07319 79.74793 .349694"/>
<path transform="matrix(1,0,0,-1,137.00601,32.929536)" stroke-width=".75" stroke-linecap="round" stroke-linejoin="round" fill="none" stroke="#000000" d="M67.1324-8.483945C70.75125-4.250036 75.33209-.979691 80.16891 .179897 75.3536 1.006361 70.55799 3.893076 67.11191 8.032012"/>
<path transform="matrix(1,0,0,-1,137.00601,32.929536)" stroke-width=".75" stroke-linecap="round" stroke-linejoin="round" fill="none" stroke="#000000" d="M-22.55165-25.900139C-22.659569-25.239892-22.654429-24.357724-22.528912-24.682835-6.670005-25.461413 6.943912-24.184319 21.840146-24.224303 36.991067-25.809252 37.315408-25.16714 38.381235-9.139641 37.61568-4.007652 36.713594 3.352535 38.3196 8.985032 38.266935 24.061833 37.157506 24.975508 23.450137 24.159529 6.654726 24.496478-8.451382 24.792557-22.057084 25.740548-38.446535 24.457339-37.29761 24.664574-38.622514 9.655836-38.451654 3.978499-37.70493-3.29215-36.95009-10.120144-36.718267-24.945506-37.259775-25.461903-22.55165-25.900139Z"/>
<path transform="matrix(1,0,0,-1,137.00601,32.929536)" stroke-width=".75" stroke-linecap="round" stroke-linejoin="round" fill="none" stroke="#000000" d="M-80.10648-.029771C-65.96782 .157667-52.143224 .238379-37.90427-.427334"/>
<path transform="matrix(1,0,0,-1,137.00601,32.929536)" stroke-width=".75" stroke-linecap="round" stroke-linejoin="round" fill="none" stroke="#000000" d="M-50.964738-8.32701C-47.69669-3.688326-43.34959-1.360203-38.19113-.208914-43.084379 1.443753-47.34532 3.961083-50.914426 7.697631"/>
<path transform="matrix(1,0,0,-1,137.00601,32.929536)" stroke-width=".75" stroke-linecap="round" stroke-linejoin="round" fill="none" stroke="#000000" d="M38.012147-.26814C52.21425 .235179 66.14211 .199938 80.40871-.112614"/>
<path transform="matrix(1,0,0,-1,137.00601,32.929536)" stroke-width=".75" stroke-linecap="round" stroke-linejoin="round" fill="none" stroke="#000000" d="M67.58383-8.367272C70.271-3.791801 75.27537-1.154213 80.33881 .323183 75.02127 1.476505 70.752887 4.023731 67.6402 7.666268"/>
<path transform="matrix(1,0,0,-1,137.00601,32.929536)" stroke-width=".75" stroke-linecap="round" stroke-linejoin="round" fill="none" stroke="#000000" d="M-23.549134-24.695427C-23.461529-24.81993-22.95819-24.701474-22.394162-24.837567-8.074639-25.834588 7.894591-25.851292 23.58073-24.160473 37.82992-24.623749 36.9446-24.282586 37.48518-9.03714 37.474134-2.697934 37.85425 2.457492 38.41093 9.700823 36.85933 24.887034 37.598089 24.98352 21.901675 25.653687 7.419038 25.85621-7.824353 24.747078-23.121525 24.5197-37.201139 24.29096-37.832345 25.6512-38.10186 9.196335-36.793756 4.280519-36.687196-4.202375-37.961095-10.500011-37.96028-24.017077-37.87101-24.57205-23.549134-24.695427Z"/>
<path transform="matrix(1,0,0,-1,137.00601,32.929536)" stroke-width=".75" stroke-linecap="round" stroke-linejoin="round" fill="none" stroke="#000000" d="M-80.44083-.12461C-66.385509-.246034-52.443357-.403624-37.817667 .182287"/>
<path transform="matrix(1,0,0,-1,137.00601,32.929536)" stroke-width=".75" stroke-linecap="round" stroke-linejoin="round" fill="none" stroke="#000000" d="M-50.93755-8.350505C-47.521184-4.382917-43.323938-.915269-37.718046 .332473-43.03035 1.176303-47.585718 4.337281-50.387277 8.384098"/>
<path transform="matrix(1,0,0,-1,137.00601,32.929536)" stroke-width=".75" stroke-linecap="round" stroke-linejoin="round" fill="none" stroke="#000000" d="M37.57-.418821C52.078584 .332617 66.397739 .194667 80.48421-.44215"/>
<path transform="matrix(1,0,0,-1,137.00601,32.929536)" stroke-width=".75" stroke-linecap="round" stroke-linejoin="round" fill="none" stroke="#000000" d="M67.32935-8.469304C70.71601-3.617689 75.581699-1.206929 80.429828-.063444 75.59694 1.385865 70.962947 3.647806 67.36408 8.178657"/>
<use data-text="U" xlink:href="#font_2_8" transform="matrix(21.519164,0,0,-21.519387,6.8142855,38.306264)"/>
<use data-text="(" xlink:href="#font_2_2" transform="matrix(21.519164,0,0,-21.519387,23.47012,38.306264)"/>
<use data-text="s" xlink:href="#font_2_7" transform="matrix(21.519164,0,0,-21.519387,33.015165,38.306264)"/>
<use data-text=")" xlink:href="#font_2_4" transform="matrix(21.519164,0,0,-21.519387,44.001989,38.306264)"/>
<use data-text="Y" xlink:href="#font_2_9" transform="matrix(21.519528,0,0,-21.519387,221.6847,38.306264)"/>
<use data-text="(" xlink:href="#font_2_2" transform="matrix(21.519528,0,0,-21.519387,234.83249,38.306264)"/>
<use data-text="s" xlink:href="#font_2_7" transform="matrix(21.519528,0,0,-21.519387,244.37769,38.306264)"/>
<use data-text=")" xlink:href="#font_2_4" transform="matrix(21.519528,0,0,-21.519387,255.36472,38.306264)"/>
</svg>
