<svg xmlns="http://www.w3.org/2000/svg" xmlns:xlink="http://www.w3.org/1999/xlink" version="1.1" width="440.13206" height="179.76107" viewBox="0 0 440.13206 179.76107">
<defs>
<path id="font_4_12" d="M.04598999 .23632813H.35598756V-.07368469L.3959961-.06668091V.23632813H.70399478L.70899966 .2763214H.3959961V.58631899L.35598756 .58032229V.2763214H.052993776L.04598999 .23632813Z"/>
<path id="font_4_6" d="M.08999634 .32458497C.08999634 .22958374 .114990238 .13148499 .18299866 .06341553 .23699951 .009384155 .31199647-.016601563 .3880005-.016601563 .46099855-.016601563 .56900027 .010391235 .6569977 .03338623 .6569977 .03338623 .6539917 .216568 .6519928 .30760194L.37599183 .2966156V.27061463L.38198854 .265625C.43598939 .26361085 .5 .25961305 .5439911 .25660707 .57199099 .25460816 .57199099 .22257996 .57199099 .13449097 .57199099 .061416627 .56900027 .04940796 .5519867 .045394899 .5209961 .038391115 .48999024 .03538513 .45799256 .03538513 .37998963 .03538513 .30599977 .060409547 .2619934 .112472537 .20399475 .18052674 .17999268 .25260926 .17999268 .3405609 .17999268 .48339845 .23199463 .5653076 .26098634 .5942688 .3039856 .63623049 .36299134 .6502075 .42199708 .6502075 .5529938 .6502075 .59298709 .5563202 .60598757 .53034976L.6179962 .5293579 .6759949 .58628848C.6649933 .6032715 .6119995 .69921877 .46699525 .69921877 .3619995 .69921877 .25698854 .6682129 .18199158 .593277 .11199951 .5233612 .08999634 .4224701 .08999634 .32458497Z"/>
<path id="font_4_2" d="M.11299133 .24990845C.11299133 .007904053 .1519928-.09008789 .18299866-.13310242 .21099854-.17008972 .25299073-.20809937 .30099488-.21209717V-.1880951C.2809906-.18409729 .25099183-.16809082 .23399353-.1481018 .21998596-.13209534 .16499329-.05809021 .16499329 .24990845 .16499329 .4618988 .19799805 .5659027 .21998596 .6128998 .23599243 .6469116 .2689972 .6769104 .30099488 .684906V.71191409C.2599945 .7049103 .21598816 .6729126 .19099427 .63790896 .1599884 .5919037 .11299133 .4748993 .11299133 .24990845Z"/>
<path id="font_4_7" d="M.051986696 .06642151C.06199646 .047409059 .07598877 .030395508 .09199524 .01638794 .12098694-.009613037 .16099549-.016601563 .19898987-.016601563 .2559967-.016601563 .31199647 .0023956299 .35099793 .044403078 .375 .06941223 .3869934 .10343933 .3869934 .13845825 .3869934 .1634674 .37298585 .18649292 .35499574 .20449829 .34098817 .21850586 .3039856 .24052429 .27198792 .25453187 .24299622 .26654054 .19999695 .2885437 .18798828 .30055238 .17298889 .31655885 .1619873 .3285675 .1619873 .35058595 .1619873 .3725891 .16899109 .39360047 .18499756 .4086151 .19999695 .42362977 .22200012 .43164063 .24398804 .43164063 .2639923 .43164063 .2849884 .42462159 .29599 .4066162 .30599977 .39060975 .30799867 .3715973 .30899049 .35359193L.32099916 .34657289 .37599183 .38360597C.375 .40560914 .3639984 .42662049 .34799195 .44163514 .32499696 .46263124 .29299928 .46662904 .2630005 .46662904 .21398926 .46662904 .16699219 .45063783 .1309967 .4176178 .10398865 .39360047 .08999634 .35858155 .08999634 .32356263 .08999634 .29154969 .10798645 .26353456 .1309967 .2425232 .1539917 .22250366 .18399048 .2084961 .21499634 .1954956 .24099732 .18447876 .2689972 .17248535 .28799439 .1534729 .30299378 .13845825 .31399537 .11845398 .31399537 .09744263 .31399537 .079422 .30499269 .062408449 .29299928 .04940796 .27799989 .03340149 .25099183 .021392823 .22898865 .021392823 .19898987 .021392823 .17199707 .03439331 .1499939 .055404664 .1269989 .076416019 .116989139 .10644531 .114990238 .13645935L.100997928 .13745117 .051986696 .06642151Z"/>
<path id="font_4_4" d="M.085998538-.1880951V-.21209717C.13398743-.20610047 .1789856-.17208863 .20698548-.13510132 .23799134-.09210205 .27598573 .007904053 .27598573 .24990845 .27598573 .50090029 .22399903 .5919037 .19299317 .63790896 .16799927 .6729126 .1269989 .7049103 .085998538 .71191409V.684906C.117996219 .6759033 .14898682 .6469116 .16499329 .6128998 .18699646 .5659027 .22399903 .48190309 .22399903 .24990845 .22399903-.099090579 .17199707-.13209534 .1579895-.1481018 .14099121-.16809082 .10598755-.18409729 .085998538-.1880951Z"/>
<path id="font_4_8" d="M.053985597 .65625C.054992677 .65625 .08999634 .6462555 .10798645 .6412506 .12098694 .6372528 .1309967 .6252594 .1309967 .61128237 .13198853 .5543213 .13398743 .45439149 .13398743 .43940736 .13398743 .29444886 .1329956 .14831543 .125 .003189087L.13598633-.0058135988 .21899414 .023208619C.21398926 .11929321 .21398926 .21638489 .21398926 .31245423 .21998596 .31245423 .22898865 .30845643 .23399353 .30345155 .2630005 .27442933 .3899994 .11128235 .48298646-.0078125L.58200076 .018203736V.02720642L.31900025 .3234558 .32099916 .33146668C.4039917 .3404541 .4850006 .3734131 .5169983 .44322206 .5319977 .47714234 .5359955 .49110414 .5359955 .53897097 .5359955 .57388308 .5219879 .6077881 .49699403 .63272097 .47999574 .6506958 .45700074 .6596985 .43299867 .6667023 .40098573 .67570498 .36698915 .67871096 .33299256 .67871096L.06098938 .679245 .054992677 .6732483 .053985597 .65625M.21299744 .37045289C.21299744 .375412 .21699524 .549942 .21899414 .61376956 .21998596 .63272097 .22299195 .6397095 .23098755 .6397095H.2709961C.2979889 .6397095 .32598878 .6377106 .35299684 .63072207 .37199403 .6257324 .3909912 .61776736 .40499879 .6037903 .42599488 .5828552 .43798829 .55293276 .43798829 .52301028 .43798829 .47813417 .41799928 .43624879 .3869934 .40533448 .35398866 .37141419 .30599977 .36044313 .2599945 .35646058 .24798584 .35546876 .23498535 .35546876 .22200012 .35546876 .21499634 .35546876 .21299744 .36444093 .21299744 .37042237V.37045289Z"/>
<path id="font_4_9" d="M.08699036 .3262787C.08699036 .228302 .11299133 .12931824 .18299866 .05934143 .23999024 .0023498536 .32199098-.0146484379 .40098573-.0146484379 .48799134-.0146484379 .56799319 .02734375 .6399994 .07633972L.6230011 .10533142C.5669861 .067337039 .5039978 .038345338 .43598939 .038345338 .35398866 .038345338 .31199647 .066345218 .25698854 .12132263 .22399903 .15431214 .17599488 .25230409 .17599488 .3442688 .17599488 .39326478 .18199158 .44325257 .19699097 .49024964 .20899964 .52822878 .22698975 .56422427 .25498963 .59321597 .29899598 .63720706 .36099244 .6582184 .42199708 .6582184 .46798707 .6582184 .5159912 .6462097 .548996 .6132202 .57199099 .5902252 .58898928 .5612335 .6009979 .52923586L.61499026 .52822878 .6719971 .5862274C.6609955 .6042175 .647995 .6212158 .6329956 .6362152 .58699038 .6832123 .5209961 .69921877 .45599366 .69921877 .35198976 .69921877 .25099183 .663208 .17799378 .5902252 .10798645 .52124026 .08699036 .42225648 .08699036 .3262787Z"/>
</defs>
<use data-text="+" xlink:href="#font_4_12" transform="matrix(37.185197,0,0,-37.18505,306.35298,99.3771)"/>
<use data-text="G" xlink:href="#font_4_6" transform="matrix(21.51903,0,0,-21.519398,174.6099,38.403627)"/>
<use data-text="(" xlink:href="#font_4_2" transform="matrix(21.51903,0,0,-21.519398,191.07193,38.403627)"/>
<use data-text="s" xlink:href="#font_4_7" transform="matrix(21.51903,0,0,-21.519398,200.61692,38.403627)"/>
<use data-text=")" xlink:href="#font_4_4" transform="matrix(21.51903,0,0,-21.519398,211.6037,38.403627)"/>
<use data-text="G" xlink:href="#font_4_6" transform="matrix(21.51903,0,0,-21.519398,174.6099,152.07157)"/>
<use data-text="(" xlink:href="#font_4_2" transform="matrix(21.51903,0,0,-21.519398,191.07193,152.07157)"/>
<use data-text="s" xlink:href="#font_4_7" transform="matrix(21.51903,0,0,-21.519398,200.61692,152.07157)"/>
<use data-text=")" xlink:href="#font_4_4" transform="matrix(21.51903,0,0,-21.519398,211.6037,152.07157)"/>
<path transform="matrix(1,0,0,-1,95.83131,89.8563)" stroke-width=".75" stroke-linecap="round" stroke-linejoin="round" fill="none" stroke="#000000" d="M79.511188 32.724447C78.520648 31.73401 79.688678 32.643518 78.23551 31.163775 93.51975 32.068925 109.55169 31.001202 123.73641 31.509755 138.61386 32.196577 138.63079 31.844536 138.76229 47.54872 138.94168 53.88396 140.07895 59.336706 138.88967 67.478588 139.01218 80.827808 139.73197 81.88441 124.65557 82.206829 108.30845 82.39048 93.466709 81.23955 78.937999 82.66798 63.209665 80.80652 64.12611 82.40116 63.7792 65.99905 64.170589 59.57053 64.398319 53.306638 63.491506 46.31776 63.764307 31.457409 63.261598 31.809964 79.511188 32.724447Z"/>
<path transform="matrix(1,0,0,-1,95.83131,89.8563)" stroke-width=".75" stroke-linecap="round" stroke-linejoin="round" fill="none" stroke="#000000" d="M79.58439-81.777729C79.14119-82.11061 78.03809-82.05177 78.05446-82.47135 93.21715-80.851657 108.26043-80.91651 123.78577-81.639247 139.10686-82.36338 139.82807-82.5793 138.30764-66.290218 139.08159-60.905305 138.9389-53.63623 139.76358-45.97449 139.91176-31.424435 139.98467-32.080194 124.47172-32.482084 109.11373-31.854365 93.30257-32.419969 78.28614-31.976519 62.843839-32.772508 63.577653-32.158784 63.91542-46.132509 63.23479-52.960866 63.13588-60.124055 64.51635-66.38865 64.438968-82.18782 62.822366-80.90442 79.58439-81.777729Z"/>
<path transform="matrix(1,0,0,-1,95.83131,89.8563)" stroke-width=".75" stroke-linecap="round" stroke-linejoin="round" fill="none" stroke="#000000" d="M245.34259 .860448C245.78073 10.995194 236.514 21.433495 225.14006 22.590876 213.03502 20.914698 202.21317 11.747927 202.72895 .195631 203.068-11.867585 213.36013-22.409279 223.6045-21.520346 237.04088-20.929648 245.69002-12.382905 245.34259 .860448Z"/>
<path transform="matrix(1,0,0,-1,95.83131,89.8563)" stroke-width=".75" stroke-linecap="round" stroke-linejoin="round" fill="none" stroke="#000000" d="M-42.188184 .100002C-28.378304-.023705-13.83117-.364071-.098714 .248856"/>
<path transform="matrix(1,0,0,-1,95.83131,89.8563)" stroke-width=".75" stroke-linecap="round" stroke-linejoin="round" fill="none" stroke="#000000" d="M-.130709-.147974C-.278347 19.108458 .399612 37.898939-.293631 56.464948 21.179368 56.567876 42.178045 57.166566 63.23254 56.53352"/>
<path transform="matrix(1,0,0,-1,95.83131,89.8563)" stroke-width=".75" stroke-linecap="round" stroke-linejoin="round" fill="none" stroke="#000000" d="M50.8573 48.535959C53.484849 52.55407 58.548345 55.6494 63.229639 56.66058 58.64482 58.16614 53.944368 60.513555 51.16647 64.72335"/>
<path transform="matrix(1,0,0,-1,95.83131,89.8563)" stroke-width=".75" stroke-linecap="round" stroke-linejoin="round" fill="none" stroke="#000000" d="M.249327 .12559C.369563-18.631056-.150086-37.929059 .255963-56.8258 21.231116-56.51813 42.18377-57.17403 63.58905-57.14059"/>
<path transform="matrix(1,0,0,-1,95.83131,89.8563)" stroke-width=".75" stroke-linecap="round" stroke-linejoin="round" fill="none" stroke="#000000" d="M51.181474-65.06876C54.324167-60.634634 58.79155-57.66504 63.528387-56.62797 58.173936-55.965276 53.772249-52.82834 50.76371-48.71128"/>
<path transform="matrix(1,0,0,-1,95.83131,89.8563)" stroke-width=".75" stroke-linecap="round" stroke-linejoin="round" fill="none" stroke="#000000" d="M139.17996 56.942468C167.99701 56.998826 196.06307 57.26383 224.87653 56.578687 224.32076 45.58231 224.8307 33.50202 224.39943 21.800513"/>
<path transform="matrix(1,0,0,-1,95.83131,89.8563)" stroke-width=".75" stroke-linecap="round" stroke-linejoin="round" fill="none" stroke="#000000" d="M216.61353 34.995336C220.85066 31.825968 223.23035 26.834675 224.91933 22.28245 225.66309 26.70499 228.64308 31.36568 232.61713 34.537576"/>
<path transform="matrix(1,0,0,-1,95.83131,89.8563)" stroke-width=".75" stroke-linecap="round" stroke-linejoin="round" fill="none" stroke="#000000" d="M138.7683-57.09008C167.19634-57.04851 196.51705-56.472459 224.738-57.072237 224.25699-45.23594 224.7857-33.743169 224.67473-21.842722"/>
<path transform="matrix(1,0,0,-1,95.83131,89.8563)" stroke-width=".75" stroke-linecap="round" stroke-linejoin="round" fill="none" stroke="#000000" d="M232.51975-34.477979C228.95034-31.355496 225.7604-26.626887 224.58786-21.656947 223.35573-26.72037 220.4129-31.767399 216.11309-34.47186"/>
<path transform="matrix(1,0,0,-1,95.83131,89.8563)" stroke-width=".75" stroke-linecap="round" stroke-linejoin="round" fill="none" stroke="#000000" d="M246.2287-.280956C260.62217-.408137 274.46195 .116125 288.8673-.241048"/>
<path transform="matrix(1,0,0,-1,95.83131,89.8563)" stroke-width=".75" stroke-linecap="round" stroke-linejoin="round" fill="none" stroke="#000000" d="M275.72517-7.993746C279.44496-3.861146 283.32853-1.016134 288.41517 .37051 284.0528 1.56827 279.2229 4.378462 276.12638 7.82939"/>
<path transform="matrix(1,0,0,-1,95.83131,89.8563)" stroke-width=".75" stroke-linecap="round" stroke-linejoin="round" fill="none" stroke="#000000" d="M78.14707 32.383375C78.23663 31.210757 79.14353 32.498907 79.2715 31.339343 93.68353 32.794656 108.81184 32.19 124.684719 32.236536 139.94353 32.087938 139.22263 31.34087 138.8197 46.30843 138.30474 53.08577 138.77446 60.79718 138.60735 66.25492 139.65712 81.667629 139.08924 81.310939 125.06965 81.27343 108.35761 82.681568 93.07244 82.538959 78.67829 82.13513 63.341558 81.747447 63.65092 82.74076 64.038478 66.98245 63.861635 61.009248 63.620096 53.05571 64.20217 46.331689 63.5525 31.781756 64.518108 31.867276 78.14707 32.383375Z"/>
<path transform="matrix(1,0,0,-1,95.83131,89.8563)" stroke-width=".75" stroke-linecap="round" stroke-linejoin="round" fill="none" stroke="#000000" d="M78.99742-81.45973C79.6699-81.05 78.42428-81.366977 79.32783-81.02129 93.06161-81.547069 108.28205-81.46378 124.30974-82.06897 138.37485-81.57882 138.89908-81.170658 140.02579-66.14076 138.35633-59.728899 139.31522-52.546655 138.2177-46.3434 140.0552-32.128404 138.86414-32.47147 124.79706-32.47456 108.84934-31.365956 93.27456-32.389669 78.054279-32.50593 64.477298-31.24202 62.971616-31.06818 64.41186-46.585638 64.641948-52.871088 63.72198-60.3948 63.75643-66.935779 63.755746-81.07127 64.708049-81.27505 78.99742-81.45973Z"/>
<path transform="matrix(1,0,0,-1,95.83131,89.8563)" stroke-width=".75" stroke-linecap="round" stroke-linejoin="round" fill="none" stroke="#000000" d="M246.7658 .515814C247.09345 12.357916 235.98509 21.455128 224.1804 22.356919 212.46274 22.221507 202.54592 12.358143 203.54247-.306331 203.37985-12.016738 213.051-22.227538 225.34053-22.33131 237.49082-22.602089 245.45789-12.787645 246.7658 .515814Z"/>
<path transform="matrix(1,0,0,-1,95.83131,89.8563)" stroke-width=".75" stroke-linecap="round" stroke-linejoin="round" fill="none" stroke="#000000" d="M-42.290178-.168971C-28.034485-.418715-13.907201 .33315-.147417-.174823"/>
<path transform="matrix(1,0,0,-1,95.83131,89.8563)" stroke-width=".75" stroke-linecap="round" stroke-linejoin="round" fill="none" stroke="#000000" d="M.167452 .247823C-.28254 18.83945-.273275 37.77574-.242867 56.50833 21.581032 56.427225 42.62769 56.653116 63.528909 56.681596"/>
<path transform="matrix(1,0,0,-1,95.83131,89.8563)" stroke-width=".75" stroke-linecap="round" stroke-linejoin="round" fill="none" stroke="#000000" d="M50.643247 48.481767C53.87269 53.21114 57.995504 55.513269 63.044874 57.1961 58.471086 58.410509 54.220518 60.564958 50.855569 64.54346"/>
<path transform="matrix(1,0,0,-1,95.83131,89.8563)" stroke-width=".75" stroke-linecap="round" stroke-linejoin="round" fill="none" stroke="#000000" d="M.037309-.120582C.145249-19.282164-.145497-37.59869 .249174-56.91391 21.211258-56.937177 41.853376-57.157594 63.57012-57.046758"/>
<path transform="matrix(1,0,0,-1,95.83131,89.8563)" stroke-width=".75" stroke-linecap="round" stroke-linejoin="round" fill="none" stroke="#000000" d="M50.671499-64.773899C54.05043-60.522779 58.69156-58.17978 63.093717-56.52736 58.462465-56.036157 53.74464-53.063089 51.045927-48.351594"/>
<path transform="matrix(1,0,0,-1,95.83131,89.8563)" stroke-width=".75" stroke-linecap="round" stroke-linejoin="round" fill="none" stroke="#000000" d="M139.14688 57.174795C167.34712 57.072576 195.67055 56.870748 224.67385 57.083307 225.00308 44.914445 224.78688 33.5212 224.90431 21.876595"/>
<path transform="matrix(1,0,0,-1,95.83131,89.8563)" stroke-width=".75" stroke-linecap="round" stroke-linejoin="round" fill="none" stroke="#000000" d="M216.21248 34.7155C220.85009 31.411772 223.59447 26.61205 224.87358 22.000353 225.3004 26.895785 228.14421 31.748936 232.36916 34.681577"/>
<path transform="matrix(1,0,0,-1,95.83131,89.8563)" stroke-width=".75" stroke-linecap="round" stroke-linejoin="round" fill="none" stroke="#000000" d="M138.89446-57.00029C167.23477-56.822286 195.93363-57.139295 224.28873-57.222177 224.55808-44.836278 224.9351-33.878293 224.90418-21.805985"/>
<path transform="matrix(1,0,0,-1,95.83131,89.8563)" stroke-width=".75" stroke-linecap="round" stroke-linejoin="round" fill="none" stroke="#000000" d="M233.04236-34.767969C228.9909-31.471474 226.08185-26.864575 224.71475-21.906872 223.10396-27.11043 220.7676-31.676432 216.73287-34.38333"/>
<path transform="matrix(1,0,0,-1,95.83131,89.8563)" stroke-width=".75" stroke-linecap="round" stroke-linejoin="round" fill="none" stroke="#000000" d="M246.16387 .306814C260.6097-.164519 274.27839-.069949 288.78666-.439347"/>
<path transform="matrix(1,0,0,-1,95.83131,89.8563)" stroke-width=".75" stroke-linecap="round" stroke-linejoin="round" fill="none" stroke="#000000" d="M276.31837-8.29919C279.60453-3.783864 283.4646-.981957 288.61979 .027222 283.56666 1.120539 279.24436 4.356549 276.122 7.73042"/>
<path transform="matrix(1,0,0,-1,95.83131,89.8563)" stroke-width=".75" stroke-linecap="round" stroke-linejoin="round" fill="none" stroke="#000000" d="M78.59165 32.72576C78.63632 32.656515 78.00852 32.652463 79.562648 30.970829 93.08728 31.698216 108.1597 32.67612 123.98778 31.430094 138.51923 31.068739 139.17441 32.43361 138.24797 46.349729 138.73537 53.934457 139.34325 60.983308 139.92801 67.45284 138.45092 81.00528 139.0516 82.545688 124.13819 82.55675 108.1608 80.92133 93.64438 80.91587 78.56654 81.90332 64.597248 82.23102 63.39987 81.51573 64.61617 67.53857 64.1733 59.701044 64.29636 54.136018 64.32674 46.569028 64.0611 31.069106 64.640338 32.266138 78.59165 32.72576Z"/>
<path transform="matrix(1,0,0,-1,95.83131,89.8563)" stroke-width=".75" stroke-linecap="round" stroke-linejoin="round" fill="none" stroke="#000000" d="M78.87838-82.0266C78.74271-81.48698 78.06879-82.2592 78.62236-82.16591 93.65357-81.87554 108.416217-82.476619 123.660869-81.62964 139.25202-81.86471 138.66222-81.53544 138.96562-66.43884 139.19727-60.838445 138.29058-54.137636 138.86876-47.623025 139.15615-31.86649 139.3492-31.295166 124.56864-31.029429 108.45842-30.935357 93.24325-31.1357 78.662258-32.129228 64.34263-32.691724 63.881967-31.415114 64.30386-46.00871 63.266336-53.2351 63.586385-59.49128 64.13691-66.71113 63.75648-82.62178 63.82345-81.537639 78.87838-82.0266Z"/>
<path transform="matrix(1,0,0,-1,95.83131,89.8563)" stroke-width=".75" stroke-linecap="round" stroke-linejoin="round" fill="none" stroke="#000000" d="M246.42382-.64528C246.8519 11.65035 237.13123 21.178832 225.07317 21.706898 212.01248 21.552777 202.49787 11.440967 202.8118 .271223 202.16556-12.458659 213.46405-21.441277 223.89475-21.57229 236.27237-21.344706 247.05873-11.536352 246.42382-.64528Z"/>
<path transform="matrix(1,0,0,-1,95.83131,89.8563)" stroke-width=".75" stroke-linecap="round" stroke-linejoin="round" fill="none" stroke="#000000" d="M-42.712388-.080457C-28.01216-.432487-14.064312 .143279 .314556-.321003"/>
<path transform="matrix(1,0,0,-1,95.83131,89.8563)" stroke-width=".75" stroke-linecap="round" stroke-linejoin="round" fill="none" stroke="#000000" d="M-.430173-.058903C.439267 19.322705 .162286 38.229837-.441645 56.409036 21.022933 56.555269 41.860288 56.89447 63.420579 57.28055"/>
<path transform="matrix(1,0,0,-1,95.83131,89.8563)" stroke-width=".75" stroke-linecap="round" stroke-linejoin="round" fill="none" stroke="#000000" d="M51.009767 48.518594C53.513978 52.63059 58.810403 55.74626 63.284418 56.582727 58.56991 58.181745 53.64437 60.620248 50.657075 65.07251"/>
<path transform="matrix(1,0,0,-1,95.83131,89.8563)" stroke-width=".75" stroke-linecap="round" stroke-linejoin="round" fill="none" stroke="#000000" d="M-.406987-.333645C.151118-18.65684-.141691-38.244455-.098104-57.22602 21.447905-56.79729 42.497159-56.745935 63.279237-56.68911"/>
<path transform="matrix(1,0,0,-1,95.83131,89.8563)" stroke-width=".75" stroke-linecap="round" stroke-linejoin="round" fill="none" stroke="#000000" d="M50.33872-64.578578C53.634294-61.130815 58.497869-58.146715 63.85264-56.981245 58.808416-56.00145 53.74589-52.73464 50.96359-48.78564"/>
<path transform="matrix(1,0,0,-1,95.83131,89.8563)" stroke-width=".75" stroke-linecap="round" stroke-linejoin="round" fill="none" stroke="#000000" d="M138.70412 57.18383C167.48131 56.9086 196.11873 56.690137 224.37345 56.785028 224.9189 44.890844 224.16278 33.559446 224.42255 22.247967"/>
<path transform="matrix(1,0,0,-1,95.83131,89.8563)" stroke-width=".75" stroke-linecap="round" stroke-linejoin="round" fill="none" stroke="#000000" d="M216.11228 34.936639C220.61429 31.746325 223.4533 27.276404 224.642 21.869017 225.3902 27.169249 228.6464 31.43353 232.5778 34.820825"/>
<path transform="matrix(1,0,0,-1,95.83131,89.8563)" stroke-width=".75" stroke-linecap="round" stroke-linejoin="round" fill="none" stroke="#000000" d="M138.89203-57.126005C167.35573-56.99654 196.22423-56.659074 224.17917-56.90847 224.7952-44.876039 224.62973-33.49298 225.01207-22.402094"/>
<path transform="matrix(1,0,0,-1,95.83131,89.8563)" stroke-width=".75" stroke-linecap="round" stroke-linejoin="round" fill="none" stroke="#000000" d="M232.43384-34.37304C228.53124-31.190552 226.05797-26.85028 224.30886-21.667258 223.07083-27.292855 220.89817-31.856917 216.74199-34.594297"/>
<path transform="matrix(1,0,0,-1,95.83131,89.8563)" stroke-width=".75" stroke-linecap="round" stroke-linejoin="round" fill="none" stroke="#000000" d="M246.64113-.083001C260.742-.275459 274.3343-.25289 288.39079-.427104"/>
<path transform="matrix(1,0,0,-1,95.83131,89.8563)" stroke-width=".75" stroke-linecap="round" stroke-linejoin="round" fill="none" stroke="#000000" d="M276.07844-8.046191C279.06513-3.824487 284.10014-.869336 288.4498-.285327 283.68424 .738292 278.88624 4.111353 275.8929 7.622249"/>
<path transform="matrix(1,0,0,-1,95.83131,89.8563)" stroke-width=".75" stroke-linecap="round" stroke-linejoin="round" fill="none" stroke="#000000" d="M78.71306 31.738202C78.347438 32.572488 79.48894 32.66967 78.58954 31.62844 93.80402 31.620392 108.89315 31.699875 123.34334 31.211638 139.27065 31.1369 138.36261 31.7773 139.57436 47.0545 138.74546 53.138608 139.93001 60.7953 138.25821 67.46382 139.89678 82.64514 138.96681 81.13039 124.74083 82.35541 109.37058 81.91114 93.871929 81.35058 79.46045 81.61537 64.43187 81.49663 63.28744 82.05289 63.548849 67.457378 64.375568 61.034048 63.157209 52.6757 63.2194 46.449274 64.718288 31.467032 64.71469 32.2875 78.71306 31.738202Z"/>
<path transform="matrix(1,0,0,-1,95.83131,89.8563)" stroke-width=".75" stroke-linecap="round" stroke-linejoin="round" fill="none" stroke="#000000" d="M78.288608-82.71643C77.859378-82.19323 78.97856-82.5392 78.37648-81.1212 94.05987-81.42961 108.74454-81.821949 124.501888-82.130458 139.75986-81.13138 139.38509-82.418338 138.32767-66.628269 139.5545-60.75508 139.49678-53.50847 140.0084-46.397348 139.13303-32.034967 138.36284-32.180376 123.45977-32.31615 108.54165-31.576838 93.15671-31.825129 78.027339-32.734815 63.31034-32.704908 64.608089-30.957163 63.20938-47.524774 64.12219-53.810094 64.562099-59.27983 63.05935-65.97312 62.88199-81.66723 63.13735-81.022678 78.288608-82.71643Z"/>
<path transform="matrix(1,0,0,-1,95.83131,89.8563)" stroke-width=".75" stroke-linecap="round" stroke-linejoin="round" fill="none" stroke="#000000" d="M246.44875-.357878C246.25022 11.511198 236.58692 22.456364 223.60706 20.70729 212.17159 21.15114 203.4421 11.109871 202.53557-.852505 202.45139-12.718669 211.74301-21.297329 225.2498-22.250529 236.06082-22.338498 246.5011-11.648079 246.44875-.357878Z"/>
<path transform="matrix(1,0,0,-1,95.83131,89.8563)" stroke-width=".75" stroke-linecap="round" stroke-linejoin="round" fill="none" stroke="#000000" d="M-42.17395 .087933C-27.932358-.136636-14.563762 .322396-.31469-.154107"/>
<path transform="matrix(1,0,0,-1,95.83131,89.8563)" stroke-width=".75" stroke-linecap="round" stroke-linejoin="round" fill="none" stroke="#000000" d="M.140152 .10072C-.010578 18.704726-.431476 37.680448 .053658 56.570306 21.011519 56.515207 42.06005 56.845418 63.192869 56.982656"/>
<path transform="matrix(1,0,0,-1,95.83131,89.8563)" stroke-width=".75" stroke-linecap="round" stroke-linejoin="round" fill="none" stroke="#000000" d="M50.638189 49.206846C54.275239 52.559728 58.084119 55.708639 63.136724 56.758886 58.386896 58.294885 54.17418 60.957517 51.023855 65.225368"/>
<path transform="matrix(1,0,0,-1,95.83131,89.8563)" stroke-width=".75" stroke-linecap="round" stroke-linejoin="round" fill="none" stroke="#000000" d="M-.425542 .061374C.071704-18.768832 .330314-37.532556 .14846-56.906629 21.04901-57.03089 42.120935-56.546056 63.1411-56.825334"/>
<path transform="matrix(1,0,0,-1,95.83131,89.8563)" stroke-width=".75" stroke-linecap="round" stroke-linejoin="round" fill="none" stroke="#000000" d="M51.152269-64.5401C54.04513-61.24333 58.75975-58.387266 63.773115-56.58145 58.368837-55.458669 53.843446-52.73741 50.32825-48.433649"/>
<path transform="matrix(1,0,0,-1,95.83131,89.8563)" stroke-width=".75" stroke-linecap="round" stroke-linejoin="round" fill="none" stroke="#000000" d="M139.50859 56.82527C167.76631 56.595476 196.41841 56.87926 224.69309 56.750028 224.42064 45.53847 224.96793 34.008527 224.4273 22.350359"/>
<path transform="matrix(1,0,0,-1,95.83131,89.8563)" stroke-width=".75" stroke-linecap="round" stroke-linejoin="round" fill="none" stroke="#000000" d="M216.48618 34.70383C220.77605 31.487751 223.08187 26.83911 224.62201 22.390999 226.14632 26.661229 228.45639 31.732462 232.23752 34.368074"/>
<path transform="matrix(1,0,0,-1,95.83131,89.8563)" stroke-width=".75" stroke-linecap="round" stroke-linejoin="round" fill="none" stroke="#000000" d="M139.31972-57.14869C167.90389-56.936746 196.42359-56.8195 224.89403-56.57957 224.86484-45.083948 224.78713-33.22661 224.72887-21.592164"/>
<path transform="matrix(1,0,0,-1,95.83131,89.8563)" stroke-width=".75" stroke-linecap="round" stroke-linejoin="round" fill="none" stroke="#000000" d="M232.26285-34.753385C228.1963-31.341694 226.15193-26.925736 224.31232-21.862298 223.50518-27.194083 220.1785-31.107707 216.80712-34.64139"/>
<path transform="matrix(1,0,0,-1,95.83131,89.8563)" stroke-width=".75" stroke-linecap="round" stroke-linejoin="round" fill="none" stroke="#000000" d="M246.2774-.259974C260.70027 .179436 274.5773 .324447 288.93455 .405207"/>
<path transform="matrix(1,0,0,-1,95.83131,89.8563)" stroke-width=".75" stroke-linecap="round" stroke-linejoin="round" fill="none" stroke="#000000" d="M275.76564-8.508651C279.01283-3.729657 283.50209-1.552992 288.68266-.029784 283.77204 1.095133 279.1121 4.111645 276.19673 8.021605"/>
<path transform="matrix(1,0,0,-1,95.83131,89.8563)" stroke-width=".75" stroke-linecap="round" stroke-linejoin="round" fill="none" stroke="#000000" d="M79.5254 31.536698C77.848499 31.73767 78.92487 31.278252 79.63197 31.315434 94.869869 31.710444 108.06556 32.730234 125.07559 32.744813 140.01035 31.780076 139.69213 32.130018 138.30773 47.100397 139.60042 53.03678 138.76966 61.06944 139.27593 67.022647 138.17443 82.314708 138.69757 81.1366 124.47143 81.62787 108.96419 81.84832 93.616939 82.128528 78.578449 82.5282 63.908887 82.5872 63.46905 80.95262 63.900026 67.19918 63.18614 60.94274 62.933267 54.15166 63.715677 46.53473 63.87519 31.14964 64.25031 32.68532 79.5254 31.536698Z"/>
<path transform="matrix(1,0,0,-1,95.83131,89.8563)" stroke-width=".75" stroke-linecap="round" stroke-linejoin="round" fill="none" stroke="#000000" d="M77.826328-80.87027C78.17857-82.08501 78.519-82.62617 79.66656-81.973049 94.80804-82.72433 108.26469-82.53063 123.89196-82.531398 139.03163-81.179309 138.27417-81.87426 138.6162-67.303508 139.84787-60.620416 138.54398-53.215864 139.61002-46.972074 139.01853-32.76152 139.33806-31.368994 123.78754-31.00026 108.92902-32.686189 93.141887-32.44807 79.35171-32.12095 63.677099-32.013746 64.6715-32.591028 62.92729-46.98126 62.8884-53.757028 64.24049-60.396677 63.296308-66.7585 63.01531-81.00998 63.577238-80.8139 77.826328-80.87027Z"/>
<path transform="matrix(1,0,0,-1,95.83131,89.8563)" stroke-width=".75" stroke-linecap="round" stroke-linejoin="round" fill="none" stroke="#000000" d="M245.83861-.853404C245.53394 12.851939 237.33139 21.089304 224.65866 21.023835 211.78473 22.531325 202.41333 12.26976 202.36948 .847141 203.4659-11.069542 212.6933-21.837185 224.04349-22.308102 237.38172-21.712605 245.27173-11.288634 245.83861-.853404Z"/>
<path transform="matrix(1,0,0,-1,95.83131,89.8563)" stroke-width=".75" stroke-linecap="round" stroke-linejoin="round" fill="none" stroke="#000000" d="M-42.84746 .295698C-28.461804 .105064-14.020127 .330287 .342886 .066251"/>
<path transform="matrix(1,0,0,-1,95.83131,89.8563)" stroke-width=".75" stroke-linecap="round" stroke-linejoin="round" fill="none" stroke="#000000" d="M-.140005 .253878C.274213 18.643027-.136011 38.313699 .255156 56.972684 20.91387 56.722925 42.308847 56.58008 63.80932 57.03516"/>
<path transform="matrix(1,0,0,-1,95.83131,89.8563)" stroke-width=".75" stroke-linecap="round" stroke-linejoin="round" fill="none" stroke="#000000" d="M50.724374 49.115667C53.638658 52.38202 58.529325 55.491136 63.18449 56.64788 58.79764 58.064447 53.99636 61.237016 50.512929 65.288997"/>
<path transform="matrix(1,0,0,-1,95.83131,89.8563)" stroke-width=".75" stroke-linecap="round" stroke-linejoin="round" fill="none" stroke="#000000" d="M-.288082 .393678C.428387-19.279547 .184429-37.619119-.305157-56.917367 20.878104-56.885107 42.62839-57.178297 63.238527-56.654016"/>
<path transform="matrix(1,0,0,-1,95.83131,89.8563)" stroke-width=".75" stroke-linecap="round" stroke-linejoin="round" fill="none" stroke="#000000" d="M51.19691-64.541538C54.34022-60.840936 58.000295-58.382284 63.4245-56.754274 58.677595-55.490865 53.9062-52.68193 51.17947-48.40293"/>
<path transform="matrix(1,0,0,-1,95.83131,89.8563)" stroke-width=".75" stroke-linecap="round" stroke-linejoin="round" fill="none" stroke="#000000" d="M139.34217 56.814626C167.4122 56.901895 195.90912 57.1397 225.01259 57.206949 224.44005 45.665494 224.9526 33.86371 225.01313 21.610665"/>
<path transform="matrix(1,0,0,-1,95.83131,89.8563)" stroke-width=".75" stroke-linecap="round" stroke-linejoin="round" fill="none" stroke="#000000" d="M216.413 34.81717C220.95145 31.402342 222.96355 26.614106 224.74379 21.653092 225.3519 26.616568 228.73548 31.56714 232.23072 34.798"/>
<path transform="matrix(1,0,0,-1,95.83131,89.8563)" stroke-width=".75" stroke-linecap="round" stroke-linejoin="round" fill="none" stroke="#000000" d="M139.00186-56.396688C167.34848-57.08677 196.38446-56.529718 224.4161-56.820066 224.93737-44.78833 224.8834-33.958326 224.86112-21.775202"/>
<path transform="matrix(1,0,0,-1,95.83131,89.8563)" stroke-width=".75" stroke-linecap="round" stroke-linejoin="round" fill="none" stroke="#000000" d="M232.69101-35.03147C228.44382-31.821295 225.72168-27.374165 224.74571-22.239268 223.35504-27.42466 220.2983-31.668166 216.0689-34.9177"/>
<path transform="matrix(1,0,0,-1,95.83131,89.8563)" stroke-width=".75" stroke-linecap="round" stroke-linejoin="round" fill="none" stroke="#000000" d="M246.57758 .104304C260.5158-.017766 274.6022 .338705 289.18037-.380567"/>
<path transform="matrix(1,0,0,-1,95.83131,89.8563)" stroke-width=".75" stroke-linecap="round" stroke-linejoin="round" fill="none" stroke="#000000" d="M276.06523-8.210414C279.00654-4.37744 283.83476-1.5785 289.055 .03117 283.725 1.30509 279.09443 4.011516 275.92158 8.480984"/>
<use data-text="+" xlink:href="#font_4_12" transform="matrix(21.519354,0,0,-21.519316,326.5424,63.465333)"/>
<use data-text="+" xlink:href="#font_4_12" transform="matrix(21.519354,0,0,-21.519316,326.5424,127.26827)"/>
<use data-text="R" xlink:href="#font_4_8" transform="matrix(21.5195,0,0,-21.519398,6.8143007,95.2376)"/>
<use data-text="(" xlink:href="#font_4_2" transform="matrix(21.5195,0,0,-21.519398,19.919678,95.2376)"/>
<use data-text="s" xlink:href="#font_4_7" transform="matrix(21.5195,0,0,-21.519398,29.464867,95.2376)"/>
<use data-text=")" xlink:href="#font_4_4" transform="matrix(21.5195,0,0,-21.519398,40.451864,95.2376)"/>
<use data-text="C" xlink:href="#font_4_9" transform="matrix(21.519467,0,0,-21.519398,389.0597,95.2376)"/>
<use data-text="(" xlink:href="#font_4_2" transform="matrix(21.519467,0,0,-21.519398,404.42457,95.2376)"/>
<use data-text="s" xlink:href="#font_4_7" transform="matrix(21.519467,0,0,-21.519398,413.9698,95.2376)"/>
<use data-text=")" xlink:href="#font_4_4" transform="matrix(21.519467,0,0,-21.519398,424.9568,95.2376)"/>
</svg>
