<svg xmlns="http://www.w3.org/2000/svg" xmlns:xlink="http://www.w3.org/1999/xlink" xmlns:inkscape="http://www.inkscape.org/namespaces/inkscape" version="1.1" width="451.33454" height="66.040409" viewBox="0 0 451.33454 66.040409">
<defs>
<path id="font_3_6" d="M.08999634 .32458497C.08999634 .22958374 .114990238 .13148499 .18299866 .06341553 .23699951 .009384155 .31199647-.016601563 .3880005-.016601563 .46099855-.016601563 .56900027 .010391235 .6569977 .03338623 .6569977 .03338623 .6539917 .216568 .6519928 .30760194L.37599183 .2966156V.27061463L.38198854 .265625C.43598939 .26361085 .5 .25961305 .5439911 .25660707 .57199099 .25460816 .57199099 .22257996 .57199099 .13449097 .57199099 .061416627 .56900027 .04940796 .5519867 .045394899 .5209961 .038391115 .48999024 .03538513 .45799256 .03538513 .37998963 .03538513 .30599977 .060409547 .2619934 .112472537 .20399475 .18052674 .17999268 .25260926 .17999268 .3405609 .17999268 .48339845 .23199463 .5653076 .26098634 .5942688 .3039856 .63623049 .36299134 .6502075 .42199708 .6502075 .5529938 .6502075 .59298709 .5563202 .60598757 .53034976L.6179962 .5293579 .6759949 .58628848C.6649933 .6032715 .6119995 .69921877 .46699525 .69921877 .3619995 .69921877 .25698854 .6682129 .18199158 .593277 .11199951 .5233612 .08999634 .4224701 .08999634 .32458497Z"/>
<path id="font_3_10" d="M.1349945 .6123047H.22898865C.25698854 .6123047 .27999879 .59129336 .2809906 .5662842 .28199769 .541275 .28199769 .46824647 .28199769 .41923524 .28199769 .27919007 .27799989 .13916016 .272995 .00010681152L.28599549-.0048828127 .3809967 .022125245C.37799073 .09814453 .37799073 .2962036 .37799073 .43223573 .37799073 .52127078 .37998963 .6112976 .38598634 .7003021L.3789978 .71229556 .1349945 .6392975V.6123047Z"/>
<path id="font_3_2" d="M.11299133 .24990845C.11299133 .007904053 .1519928-.09008789 .18299866-.13310242 .21099854-.17008972 .25299073-.20809937 .30099488-.21209717V-.1880951C.2809906-.18409729 .25099183-.16809082 .23399353-.1481018 .21998596-.13209534 .16499329-.05809021 .16499329 .24990845 .16499329 .4618988 .19799805 .5659027 .21998596 .6128998 .23599243 .6469116 .2689972 .6769104 .30099488 .684906V.71191409C.2599945 .7049103 .21598816 .6729126 .19099427 .63790896 .1599884 .5919037 .11299133 .4748993 .11299133 .24990845Z"/>
<path id="font_3_7" d="M.051986696 .06642151C.06199646 .047409059 .07598877 .030395508 .09199524 .01638794 .12098694-.009613037 .16099549-.016601563 .19898987-.016601563 .2559967-.016601563 .31199647 .0023956299 .35099793 .044403078 .375 .06941223 .3869934 .10343933 .3869934 .13845825 .3869934 .1634674 .37298585 .18649292 .35499574 .20449829 .34098817 .21850586 .3039856 .24052429 .27198792 .25453187 .24299622 .26654054 .19999695 .2885437 .18798828 .30055238 .17298889 .31655885 .1619873 .3285675 .1619873 .35058595 .1619873 .3725891 .16899109 .39360047 .18499756 .4086151 .19999695 .42362977 .22200012 .43164063 .24398804 .43164063 .2639923 .43164063 .2849884 .42462159 .29599 .4066162 .30599977 .39060975 .30799867 .3715973 .30899049 .35359193L.32099916 .34657289 .37599183 .38360597C.375 .40560914 .3639984 .42662049 .34799195 .44163514 .32499696 .46263124 .29299928 .46662904 .2630005 .46662904 .21398926 .46662904 .16699219 .45063783 .1309967 .4176178 .10398865 .39360047 .08999634 .35858155 .08999634 .32356263 .08999634 .29154969 .10798645 .26353456 .1309967 .2425232 .1539917 .22250366 .18399048 .2084961 .21499634 .1954956 .24099732 .18447876 .2689972 .17248535 .28799439 .1534729 .30299378 .13845825 .31399537 .11845398 .31399537 .09744263 .31399537 .079422 .30499269 .062408449 .29299928 .04940796 .27799989 .03340149 .25099183 .021392823 .22898865 .021392823 .19898987 .021392823 .17199707 .03439331 .1499939 .055404664 .1269989 .076416019 .116989139 .10644531 .114990238 .13645935L.100997928 .13745117 .051986696 .06642151Z"/>
<path id="font_3_4" d="M.085998538-.1880951V-.21209717C.13398743-.20610047 .1789856-.17208863 .20698548-.13510132 .23799134-.09210205 .27598573 .007904053 .27598573 .24990845 .27598573 .50090029 .22399903 .5919037 .19299317 .63790896 .16799927 .6729126 .1269989 .7049103 .085998538 .71191409V.684906C.117996219 .6759033 .14898682 .6469116 .16499329 .6128998 .18699646 .5659027 .22399903 .48190309 .22399903 .24990845 .22399903-.099090579 .17199707-.13209534 .1579895-.1481018 .14099121-.16809082 .10598755-.18409729 .085998538-.1880951Z"/>
<path id="font_3_11" d="M.04499817 .001953125H.5379944L.56399539 .079940799 .5589905 .08795166H.20999146C.20399475 .08795166 .19799805 .08894348 .19599915 .092941287 .19499207 .094940189 .19599915 .09794617 .19699097 .09895325 .2539978 .1569519 .30799867 .21495056 .35899354 .27496339 .394989 .31697084 .42999269 .358963 .45799256 .40496827 .48799134 .4509735 .5119934 .49998475 .5119934 .5529938 .5119934 .59399417 .49899293 .6349945 .46499635 .66400149 .43199159 .69299319 .3880005 .7080078 .34199525 .7080078 .29899598 .7080078 .2579956 .6970062 .22099304 .67900088 .17599488 .65800479 .13699341 .6279907 .102996829 .59498599L.125 .57598879C.1519928 .59599307 .17799378 .61099246 .20999146 .6259918 .23098755 .6360016 .2559967 .6399994 .2809906 .6399994 .31399537 .6399994 .34700013 .6289978 .37098695 .6069946 .40098573 .5779877 .4079895 .5369873 .4079895 .50798037 .4079895 .4429779 .38198854 .38197328 .34298707 .3259735 .31098939 .27996827 .27198792 .23796082 .23199463 .19696045 .17199707 .13494873 .10899353 .07594299 .04499817 .017944336V.001953125Z"/>
<path id="font_3_8" d="M.033996583 .6733093 .035995485 .6533203C.037994386 .6533203 .07398987 .6443176 .09199524 .63931277 .12298584 .6313019 .125 .6222992 .125 .54229739 .125 .46427918 .12199402 .38627626 .12199402 .30825807 .12199402 .24723816 .12399292 .17323303 .12998963 .12721253 .1349945 .08821106 .1559906-.0087890629 .31399537-.0087890629 .39698792-.0087890629 .47698976 .02520752 .5469971 .07020569L.5549927 .064208988C.5549927 .048202516 .5549927 .032196046 .55599978 .016204834 .55799868 .0012054443 .57598879-.0047912599 .58799746-.0047912599 .61898806-.0047912599 .6899872 .016204834 .7409973 .032196046L.74598696 .03919983 .74198916 .05619812C.7220001 .05419922 .70399478 .048202516 .6839905 .048202516 .673996 .048202516 .6609955 .050201417 .6539917 .0592041 .6389923 .07620239 .6359863 .15222168 .6359863 .20223999 .6359863 .3642578 .6369934 .5733032 .6519928 .68733218L.6459961 .69433596 .55799868 .659317C.55599978 .47727967 .55400088 .2942505 .55400088 .11122131 .5 .079208377 .43998719 .052200319 .37799073 .052200319 .24598694 .052200319 .22399903 .13922119 .21598816 .16522217 .20599365 .19923401 .20199585 .23423767 .20199585 .26924134L.20999146 .54229739C.20999146 .55929568 .21598816 .6603241 .21798706 .67433169L.21099854 .6803131H.041992189L.033996583 .6733093Z"/>
<path id="font_3_9" d="M.022994996 .6513672C.036987306 .649353 .049987794 .6463623 .06298828 .6433563 .07199097 .6413574 .07998657 .6353607 .085998538 .62835696 .09599304 .61834719 .102996829 .60635378 .10899353 .5943451L.2579956 .29930116C.2579956 .19927979 .2579956 .0982666 .25498963-.0017547608L.2659912-.0107421879 .35598756 .018249512 .34700013 .30630494C.42999269 .4343109 .5039978 .5303345 .61499026 .675354L.61099246 .6933594 .526001 .6763611C.48999024 .619339 .4059906 .47431947 .397995 .46032716 .3849945 .4373169 .34199525 .36730958 .33898927 .3623047 .33599855 .3572998 .33198548 .353302 .32798768 .353302 .32199098 .353302 .31698609 .3592987 .31599427 .36131288L.1749878 .6863556H.02999878L.022994996 .67936709V.6513672Z"/>
</defs>
<use data-text="G" xlink:href="#font_3_6" transform="matrix(21.51926,0,0,-21.519387,114.346309,38.347028)"/>
<use data-text="1" xlink:href="#font_3_10" transform="matrix(16.43832,0,0,-16.438418,130.7995,42.646146)"/>
<use data-text="(" xlink:href="#font_3_2" transform="matrix(21.51926,0,0,-21.519387,141.03495,38.347028)"/>
<use data-text="s" xlink:href="#font_3_7" transform="matrix(21.51926,0,0,-21.519387,150.58005,38.347028)"/>
<use data-text=")" xlink:href="#font_3_4" transform="matrix(21.51926,0,0,-21.519387,161.56693,38.347028)"/>
<use data-text="G" xlink:href="#font_3_6" transform="matrix(21.51926,0,0,-21.519387,284.93916,38.347028)"/>
<use data-text="2" xlink:href="#font_3_11" transform="matrix(16.43832,0,0,-16.438418,301.39234,42.580427)"/>
<use data-text="(" xlink:href="#font_3_2" transform="matrix(21.51926,0,0,-21.519387,311.62779,38.347028)"/>
<use data-text="s" xlink:href="#font_3_7" transform="matrix(21.51926,0,0,-21.519387,321.17286,38.347028)"/>
<use data-text=")" xlink:href="#font_3_4" transform="matrix(21.51926,0,0,-21.519387,332.15977,38.347028)"/>
<path transform="matrix(1,0,0,-1,142.12372,32.970296)" stroke-width=".75" stroke-linecap="round" stroke-linejoin="round" fill="none" stroke="#000000" d="M-27.399554-25.261158C-28.029978-25.563582-26.81849-25.801934-27.921383-25.245959-9.988636-24.221079 8.51336-23.998337 27.037728-24.675044 43.087644-25.2328 42.597307-25.852734 43.370496-10.118037 42.953836-2.479331 43.17178 3.330618 42.81693 9.450506 42.563486 24.22722 43.72452 25.03183 28.311673 25.735022 9.070199 25.336726-8.30926 25.5623-27.710747 25.680977-42.446359 25.73311-42.073526 24.890017-42.24185 10.353667-41.839925 3.670557-43.18637-2.891888-42.023374-9.857613-41.99306-24.981654-43.593599-24.572012-27.399554-25.261158Z"/>
<path transform="matrix(1,0,0,-1,142.12372,32.970296)" stroke-width=".75" stroke-linecap="round" stroke-linejoin="round" fill="none" stroke="#000000" d="M141.85211-24.093396C142.86734-25.63349 143.593-25.356936 143.2099-24.344805 161.21645-25.76671 179.31507-24.660979 199.01432-25.66487 213.76197-25.09588 213.3124-25.710053 213.65869-8.996805 212.54656-3.283587 212.89838 3.365395 212.77257 9.372088 213.2298 24.57136 212.66922 24.693066 198.80912 25.061522 179.37659 24.49675 160.78464 25.41603 143.00518 24.678223 128.70407 24.52295 128.23438 24.89546 128.74187 10.608868 127.61385 3.678799 127.67732-3.815541 127.95256-9.293559 127.81347-24.718441 127.112529-25.475337 141.85211-24.093396Z"/>
<path transform="matrix(1,0,0,-1,142.12372,32.970296)" stroke-width=".75" stroke-linecap="round" stroke-linejoin="round" fill="none" stroke="#000000" d="M-85.146198-.148804C-71.641017-.025759-56.824045 .373997-42.942644 .376676"/>
<path transform="matrix(1,0,0,-1,142.12372,32.970296)" stroke-width=".75" stroke-linecap="round" stroke-linejoin="round" fill="none" stroke="#000000" d="M-55.511388-8.099521C-52.651926-4.382724-47.930894-1.275841-43.017557 .167595-47.98106 1.477074-52.643648 4.051295-55.737516 7.825632"/>
<path transform="matrix(1,0,0,-1,142.12372,32.970296)" stroke-width=".75" stroke-linecap="round" stroke-linejoin="round" fill="none" stroke="#000000" d="M43.16031-.423364C71.08124-.045965 98.87007-.109071 127.133808 .005266"/>
<path transform="matrix(1,0,0,-1,142.12372,32.970296)" stroke-width=".75" stroke-linecap="round" stroke-linejoin="round" fill="none" stroke="#000000" d="M114.94795-8.044086C117.624828-4.139605 122.612857-1.184275 127.360439 .201917 122.775058 1.482555 117.619709 4.086865 114.59738 8.234313"/>
<path transform="matrix(1,0,0,-1,142.12372,32.970296)" stroke-width=".75" stroke-linecap="round" stroke-linejoin="round" fill="none" stroke="#000000" d="M213.2644 .421799C227.61125 .166619 241.89182 .120837 256.19389 .081676"/>
<path transform="matrix(1,0,0,-1,142.12372,32.970296)" stroke-width=".75" stroke-linecap="round" stroke-linejoin="round" fill="none" stroke="#000000" d="M243.48069-7.910058C246.67787-3.701849 251.10065-1.500998 256.0045-.434278 251.07685 1.079541 246.2468 3.970636 243.40215 8.343381"/>
<path transform="matrix(1,0,0,-1,142.12372,32.970296)" stroke-width=".75" stroke-linecap="round" stroke-linejoin="round" fill="none" stroke="#000000" d="M-27.878809-25.247288C-26.937207-24.244248-28.288392-24.329123-26.814278-24.988207-9.435723-25.297562 10.165472-25.324177 28.021695-25.724478 41.854825-24.467417 42.01617-25.298253 42.462179-9.380819 43.173528-3.577042 42.78144 4.133429 42.639059 9.391839 43.159597 23.989453 42.278059 25.224057 28.036067 23.987313 9.120348 24.793906-8.62353 24.978243-27.700242 24.531924-42.71805 25.842625-42.06531 24.954585-43.52988 9.730446-41.915655 4.094365-42.6478-4.208912-42.875165-10.609033-41.992666-25.353444-42.330846-25.236813-27.878809-25.247288Z"/>
<path transform="matrix(1,0,0,-1,142.12372,32.970296)" stroke-width=".75" stroke-linecap="round" stroke-linejoin="round" fill="none" stroke="#000000" d="M143.52031-24.478699C142.41551-25.569638 141.89766-24.189694 143.22916-25.080338 160.91677-24.790787 180.77285-25.685393 198.84239-24.849333 212.8671-24.759852 212.6104-24.067044 213.22777-9.213934 213.52552-3.154934 212.69982 2.940009 212.59847 9.424976 212.7225 24.788807 213.64188 24.332373 198.06459 24.088509 179.08797 24.275198 161.56499 24.472479 143.72025 23.974947 126.97982 25.626488 128.358 25.054852 127.423618 10.207485 127.88893 2.709367 127.72597-4.2526 128.34822-9.697678 128.22478-24.60286 127.81427-24.626105 143.52031-24.478699Z"/>
<path transform="matrix(1,0,0,-1,142.12372,32.970296)" stroke-width=".75" stroke-linecap="round" stroke-linejoin="round" fill="none" stroke="#000000" d="M-85.55808 .109332C-71.19512 .323558-57.09582-.303858-43.279394 .039638"/>
<path transform="matrix(1,0,0,-1,142.12372,32.970296)" stroke-width=".75" stroke-linecap="round" stroke-linejoin="round" fill="none" stroke="#000000" d="M-55.80614-8.420125C-52.31399-3.560497-48.101366-1.049366-43.025438-.273851-47.896589 1.093618-52.817079 3.646613-55.381814 8.499369"/>
<path transform="matrix(1,0,0,-1,142.12372,32.970296)" stroke-width=".75" stroke-linecap="round" stroke-linejoin="round" fill="none" stroke="#000000" d="M42.467245 .208997C71.37965 .004086 99.45437 .185855 127.21432-.088313"/>
<path transform="matrix(1,0,0,-1,142.12372,32.970296)" stroke-width=".75" stroke-linecap="round" stroke-linejoin="round" fill="none" stroke="#000000" d="M114.947017-7.748391C118.22783-3.765187 122.7688-.848563 127.54589-.134057 122.85568 1.175208 117.551738 4.311915 114.58683 8.455203"/>
<path transform="matrix(1,0,0,-1,142.12372,32.970296)" stroke-width=".75" stroke-linecap="round" stroke-linejoin="round" fill="none" stroke="#000000" d="M212.93251-.260281C227.85251 .128328 241.99848-.069278 255.96906 .226231"/>
<path transform="matrix(1,0,0,-1,142.12372,32.970296)" stroke-width=".75" stroke-linecap="round" stroke-linejoin="round" fill="none" stroke="#000000" d="M243.24645-8.115189C246.81694-3.649042 251.19597-1.262078 255.65657-.301805 250.55725 1.360373 246.84088 4.426223 243.61228 7.772875"/>
<path transform="matrix(1,0,0,-1,142.12372,32.970296)" stroke-width=".75" stroke-linecap="round" stroke-linejoin="round" fill="none" stroke="#000000" d="M-28.68307-24.003523C-27.34119-25.451424-27.030755-25.318875-28.714749-25.759619-9.034819-23.985114 8.526065-25.590413 28.261387-24.542634 43.43299-24.331742 43.111936-23.980387 43.45447-9.757955 41.90053-4.273418 42.053098 2.643312 42.494428 9.927389 42.850828 24.155478 43.302106 24.167725 28.323502 25.781313 10.16508 25.019455-9.642172 24.50261-27.100096 25.49728-41.84971 24.157029-42.096948 24.745627-42.631338 10.563246-42.22579 2.809582-43.279516-3.743764-42.955846-10.416543-42.8506-25.086747-42.60849-25.067-28.68307-24.003523Z"/>
<path transform="matrix(1,0,0,-1,142.12372,32.970296)" stroke-width=".75" stroke-linecap="round" stroke-linejoin="round" fill="none" stroke="#000000" d="M143.62619-25.431315C142.78224-24.532092 142.14218-24.058159 142.03545-24.455126 160.43575-24.184699 180.417-24.509253 198.37732-25.564467 212.87105-24.478657 213.48967-25.103487 212.92053-9.491679 212.58928-2.852295 213.04468 2.92375 214.28876 10.43195 214.17125 25.871102 214.17136 25.635682 198.86057 24.223744 179.35923 25.104374 161.91567 25.774899 142.01119 24.087439 128.63083 25.732777 126.86616 24.453623 128.42838 9.634972 128.29627 3.014695 127.964649-2.394908 128.13047-10.516053 127.74038-25.592413 128.19245-24.145007 143.62619-25.431315Z"/>
<path transform="matrix(1,0,0,-1,142.12372,32.970296)" stroke-width=".75" stroke-linecap="round" stroke-linejoin="round" fill="none" stroke="#000000" d="M-85.21172 .433128C-70.85696-.378919-57.589906-.414304-42.85443 .281383"/>
<path transform="matrix(1,0,0,-1,142.12372,32.970296)" stroke-width=".75" stroke-linecap="round" stroke-linejoin="round" fill="none" stroke="#000000" d="M-55.420236-7.631953C-52.606248-4.070197-47.90745-1.248175-43.490846 .144775-48.172815 1.028303-52.821805 3.715234-55.999837 7.722609"/>
<path transform="matrix(1,0,0,-1,142.12372,32.970296)" stroke-width=".75" stroke-linecap="round" stroke-linejoin="round" fill="none" stroke="#000000" d="M42.62614 .043736C70.84757-.227729 99.04578-.093876 127.06386 .447278"/>
<path transform="matrix(1,0,0,-1,142.12372,32.970296)" stroke-width=".75" stroke-linecap="round" stroke-linejoin="round" fill="none" stroke="#000000" d="M114.4785-8.200923C117.93763-3.587218 122.42729-1.208037 127.59161-.3258 122.58795 1.221002 117.78263 3.870685 114.82865 8.251735"/>
<path transform="matrix(1,0,0,-1,142.12372,32.970296)" stroke-width=".75" stroke-linecap="round" stroke-linejoin="round" fill="none" stroke="#000000" d="M213.73139-.230907C227.43914 .128015 241.82469 .164011 255.76067 .182061"/>
<path transform="matrix(1,0,0,-1,142.12372,32.970296)" stroke-width=".75" stroke-linecap="round" stroke-linejoin="round" fill="none" stroke="#000000" d="M242.97492-8.079922C246.79616-3.967583 250.65395-.953531 255.4447 .371345 250.87335 1.200617 246.66693 4.018275 243.3357 7.702438"/>
<path transform="matrix(1,0,0,-1,142.12372,32.970296)" stroke-width=".75" stroke-linecap="round" stroke-linejoin="round" fill="none" stroke="#000000" d="M-27.010739-24.157898C-28.707373-25.708836-28.73333-24.51424-28.62175-25.18722-8.744455-24.201214 9.605983-24.95321 27.031954-24.217413 42.66541-24.133217 42.252836-25.287182 42.742994-10.799835 43.07587-3.850127 42.992448 2.556039 43.546674 10.362534 43.31879 24.551758 42.58675 25.611014 28.407874 24.245692 9.67019 25.378191-8.416041 24.602149-28.126826 25.291682-42.920045 25.707097-42.627088 24.734955-42.123697 9.580497-42.908288 3.176292-42.987436-2.789189-42.60614-9.656825-43.748289-24.170817-43.0395-24.93727-27.010739-24.157898Z"/>
<path transform="matrix(1,0,0,-1,142.12372,32.970296)" stroke-width=".75" stroke-linecap="round" stroke-linejoin="round" fill="none" stroke="#000000" d="M143.11672-25.308207C143.35977-25.238329 143.14206-24.813296 143.2314-25.132336 161.75963-25.581566 179.18051-25.615729 199.22447-25.703558 213.29108-24.619858 214.186-24.161995 214.09554-10.705275 212.726-3.215231 212.41715 4.137377 212.98032 9.847226 213.71439 25.282229 213.0336 24.241621 197.70487 25.016985 180.13437 24.630753 160.51519 24.525576 142.74562 24.688889 126.8473 24.577393 127.42705 24.22604 128.71434 9.746704 127.408138 3.205682 128.64327-2.678872 126.93757-9.653438 127.317317-23.981884 126.98104-25.74015 143.11672-25.308207Z"/>
<path transform="matrix(1,0,0,-1,142.12372,32.970296)" stroke-width=".75" stroke-linecap="round" stroke-linejoin="round" fill="none" stroke="#000000" d="M-85.062618 .145437C-71.61693 .071261-56.84927-.151622-43.23375-.289951"/>
<path transform="matrix(1,0,0,-1,142.12372,32.970296)" stroke-width=".75" stroke-linecap="round" stroke-linejoin="round" fill="none" stroke="#000000" d="M-55.94326-7.818473C-52.98834-3.829248-47.736486-.998755-43.459054 .139749-47.74972 .739105-52.29503 4.443776-56.132577 8.183514"/>
<path transform="matrix(1,0,0,-1,142.12372,32.970296)" stroke-width=".75" stroke-linecap="round" stroke-linejoin="round" fill="none" stroke="#000000" d="M42.44637 .308133C71.18103 .201477 99.658039-.31341 127.688938 .410271"/>
<path transform="matrix(1,0,0,-1,142.12372,32.970296)" stroke-width=".75" stroke-linecap="round" stroke-linejoin="round" fill="none" stroke="#000000" d="M115.13435-7.995343C118.209278-4.095126 122.30748-1.091702 127.727397 .341322 122.0176 .922055 117.55566 3.957449 114.5997 7.768689"/>
<path transform="matrix(1,0,0,-1,142.12372,32.970296)" stroke-width=".75" stroke-linecap="round" stroke-linejoin="round" fill="none" stroke="#000000" d="M213.31983 .230872C227.1571-.032221 242.1122 .073816 256.25868-.271492"/>
<path transform="matrix(1,0,0,-1,142.12372,32.970296)" stroke-width=".75" stroke-linecap="round" stroke-linejoin="round" fill="none" stroke="#000000" d="M243.01482-8.236332C246.10463-3.649077 251.11902-1.240294 256.0225 .44527 251.25045 1.468863 246.52318 4.372654 242.82791 7.618825"/>
<path transform="matrix(1,0,0,-1,142.12372,32.970296)" stroke-width=".75" stroke-linecap="round" stroke-linejoin="round" fill="none" stroke="#000000" d="M-28.557156-25.46549C-27.168715-25.411614-28.12145-25.175404-27.170754-23.975319-8.780008-24.465355 9.908872-24.555897 26.882866-25.031615 43.43895-24.85683 43.23996-25.607609 42.514116-8.974564 42.711297-2.78149 43.48068 3.585049 43.232698 10.272133 42.07948 25.621644 41.87365 24.91734 27.108836 24.378205 9.102702 24.455649-10.179969 24.731448-28.428002 25.271847-42.393579 25.027638-42.68485 24.337765-42.32903 9.656331-42.315828 4.04441-43.626398-4.165336-42.65814-10.723393-42.66705-25.328827-41.85852-24.478972-28.557156-25.46549Z"/>
<path transform="matrix(1,0,0,-1,142.12372,32.970296)" stroke-width=".75" stroke-linecap="round" stroke-linejoin="round" fill="none" stroke="#000000" d="M142.41974-24.963767C143.76845-25.561858 143.29161-24.550967 143.50347-25.5198 160.81522-25.786126 179.66046-25.523617 198.83667-25.881129 212.76514-24.626099 212.84386-25.789763 213.1907-10.270585 213.20333-2.609916 213.69344 3.246492 213.51549 9.003715 213.76755 24.604992 213.60559 24.064129 198.5984 25.14365 179.0135 25.372885 161.97418 25.277649 142.05548 24.30523 127.1579 23.991162 128.439 24.72089 128.75029 10.167534 127.658458 3.014521 127.77088-3.222491 127.30596-9.441325 127.50647-25.465676 128.53388-25.139695 142.41974-24.963767Z"/>
<path transform="matrix(1,0,0,-1,142.12372,32.970296)" stroke-width=".75" stroke-linecap="round" stroke-linejoin="round" fill="none" stroke="#000000" d="M-85.51408 .364524C-71.57691-.317845-57.387304 .093239-42.94735-.099938"/>
<path transform="matrix(1,0,0,-1,142.12372,32.970296)" stroke-width=".75" stroke-linecap="round" stroke-linejoin="round" fill="none" stroke="#000000" d="M-56.078-7.927835C-52.681474-4.229435-47.99425-.856143-43.40936-.351817-48.405725 1.379403-52.985746 4.067592-55.597219 7.650714"/>
<path transform="matrix(1,0,0,-1,142.12372,32.970296)" stroke-width=".75" stroke-linecap="round" stroke-linejoin="round" fill="none" stroke="#000000" d="M42.794466-.285729C70.76079-.108046 99.170238 .415717 127.571819-.093705"/>
<path transform="matrix(1,0,0,-1,142.12372,32.970296)" stroke-width=".75" stroke-linecap="round" stroke-linejoin="round" fill="none" stroke="#000000" d="M114.37305-8.418507C117.60725-4.130432 122.03914-.956856 127.18431-.209553 122.63579 .943552 118.09857 3.604273 114.80458 8.376603"/>
<path transform="matrix(1,0,0,-1,142.12372,32.970296)" stroke-width=".75" stroke-linecap="round" stroke-linejoin="round" fill="none" stroke="#000000" d="M213.47397-.088006C227.22132-.428878 241.91397-.332345 255.55805 .111271"/>
<path transform="matrix(1,0,0,-1,142.12372,32.970296)" stroke-width=".75" stroke-linecap="round" stroke-linejoin="round" fill="none" stroke="#000000" d="M243.4501-8.056681C246.44637-4.175514 250.63422-1.362331 256.22325 .400063 250.53316 1.214936 246.15734 4.226048 242.92964 7.668033"/>
<use data-text="U" xlink:href="#font_3_8" transform="matrix(21.519164,0,0,-21.519387,6.814316,38.347028)"/>
<use data-text="(" xlink:href="#font_3_2" transform="matrix(21.519164,0,0,-21.519387,23.47015,38.347028)"/>
<use data-text="s" xlink:href="#font_3_7" transform="matrix(21.519164,0,0,-21.519387,33.015195,38.347028)"/>
<use data-text=")" xlink:href="#font_3_4" transform="matrix(21.519164,0,0,-21.519387,44.002019,38.347028)"/>
<use data-text="Y" xlink:href="#font_3_9" transform="matrix(21.519528,0,0,-21.519387,402.5129,38.347028)"/>
<use data-text="(" xlink:href="#font_3_2" transform="matrix(21.519528,0,0,-21.519387,415.66069,38.347028)"/>
<use data-text="s" xlink:href="#font_3_7" transform="matrix(21.519528,0,0,-21.519387,425.20585,38.347028)"/>
<use data-text=")" xlink:href="#font_3_4" transform="matrix(21.519528,0,0,-21.519387,436.1929,38.347028)"/>
</svg>
