<svg xmlns="http://www.w3.org/2000/svg" xmlns:xlink="http://www.w3.org/1999/xlink" xmlns:inkscape="http://www.inkscape.org/namespaces/inkscape" version="1.1" width="694.67007" height="170.34975" viewBox="0 0 694.67007 170.34975">
<defs>
<path id="font_6_12" d="M.04598999 .23632813H.35598756V-.07368469L.3959961-.06668091V.23632813H.70399478L.70899966 .2763214H.3959961V.58631899L.35598756 .58032229V.2763214H.052993776L.04598999 .23632813Z"/>
<path id="font_6_6" d="M.08999634 .32458497C.08999634 .22958374 .114990238 .13148499 .18299866 .06341553 .23699951 .009384155 .31199647-.016601563 .3880005-.016601563 .46099855-.016601563 .56900027 .010391235 .6569977 .03338623 .6569977 .03338623 .6539917 .216568 .6519928 .30760194L.37599183 .2966156V.27061463L.38198854 .265625C.43598939 .26361085 .5 .25961305 .5439911 .25660707 .57199099 .25460816 .57199099 .22257996 .57199099 .13449097 .57199099 .061416627 .56900027 .04940796 .5519867 .045394899 .5209961 .038391115 .48999024 .03538513 .45799256 .03538513 .37998963 .03538513 .30599977 .060409547 .2619934 .112472537 .20399475 .18052674 .17999268 .25260926 .17999268 .3405609 .17999268 .48339845 .23199463 .5653076 .26098634 .5942688 .3039856 .63623049 .36299134 .6502075 .42199708 .6502075 .5529938 .6502075 .59298709 .5563202 .60598757 .53034976L.6179962 .5293579 .6759949 .58628848C.6649933 .6032715 .6119995 .69921877 .46699525 .69921877 .3619995 .69921877 .25698854 .6682129 .18199158 .593277 .11199951 .5233612 .08999634 .4224701 .08999634 .32458497Z"/>
<path id="font_6_2" d="M.11299133 .24990845C.11299133 .007904053 .1519928-.09008789 .18299866-.13310242 .21099854-.17008972 .25299073-.20809937 .30099488-.21209717V-.1880951C.2809906-.18409729 .25099183-.16809082 .23399353-.1481018 .21998596-.13209534 .16499329-.05809021 .16499329 .24990845 .16499329 .4618988 .19799805 .5659027 .21998596 .6128998 .23599243 .6469116 .2689972 .6769104 .30099488 .684906V.71191409C.2599945 .7049103 .21598816 .6729126 .19099427 .63790896 .1599884 .5919037 .11299133 .4748993 .11299133 .24990845Z"/>
<path id="font_6_7" d="M.051986696 .06642151C.06199646 .047409059 .07598877 .030395508 .09199524 .01638794 .12098694-.009613037 .16099549-.016601563 .19898987-.016601563 .2559967-.016601563 .31199647 .0023956299 .35099793 .044403078 .375 .06941223 .3869934 .10343933 .3869934 .13845825 .3869934 .1634674 .37298585 .18649292 .35499574 .20449829 .34098817 .21850586 .3039856 .24052429 .27198792 .25453187 .24299622 .26654054 .19999695 .2885437 .18798828 .30055238 .17298889 .31655885 .1619873 .3285675 .1619873 .35058595 .1619873 .3725891 .16899109 .39360047 .18499756 .4086151 .19999695 .42362977 .22200012 .43164063 .24398804 .43164063 .2639923 .43164063 .2849884 .42462159 .29599 .4066162 .30599977 .39060975 .30799867 .3715973 .30899049 .35359193L.32099916 .34657289 .37599183 .38360597C.375 .40560914 .3639984 .42662049 .34799195 .44163514 .32499696 .46263124 .29299928 .46662904 .2630005 .46662904 .21398926 .46662904 .16699219 .45063783 .1309967 .4176178 .10398865 .39360047 .08999634 .35858155 .08999634 .32356263 .08999634 .29154969 .10798645 .26353456 .1309967 .2425232 .1539917 .22250366 .18399048 .2084961 .21499634 .1954956 .24099732 .18447876 .2689972 .17248535 .28799439 .1534729 .30299378 .13845825 .31399537 .11845398 .31399537 .09744263 .31399537 .079422 .30499269 .062408449 .29299928 .04940796 .27799989 .03340149 .25099183 .021392823 .22898865 .021392823 .19898987 .021392823 .17199707 .03439331 .1499939 .055404664 .1269989 .076416019 .116989139 .10644531 .114990238 .13645935L.100997928 .13745117 .051986696 .06642151Z"/>
<path id="font_6_4" d="M.085998538-.1880951V-.21209717C.13398743-.20610047 .1789856-.17208863 .20698548-.13510132 .23799134-.09210205 .27598573 .007904053 .27598573 .24990845 .27598573 .50090029 .22399903 .5919037 .19299317 .63790896 .16799927 .6729126 .1269989 .7049103 .085998538 .71191409V.684906C.117996219 .6759033 .14898682 .6469116 .16499329 .6128998 .18699646 .5659027 .22399903 .48190309 .22399903 .24990845 .22399903-.099090579 .17199707-.13209534 .1579895-.1481018 .14099121-.16809082 .10598755-.18409729 .085998538-.1880951Z"/>
<path id="font_6_15" d="M.085998538 .21746826C.085998538 .17146302 .085998538 .12545777 .10598755 .08244324 .116989139 .057434083 .13398743 .031433107 .1579895 .013442993 .18998719-.010559082 .23298645-.018554688 .28199769-.018554688 .38198854-.018554688 .46499635 .03543091 .5349884 .096450809L.5219879 .11445618 .5119934 .11645508C.46299745 .078445438 .4059906 .047439577 .33898927 .047439577 .30599977 .047439577 .2709961 .05543518 .24499512 .07644653 .18998719 .1174469 .17999268 .18746948 .17999268 .24847412 .17999268 .30049134 .19198609 .35350038 .23098755 .3935089 .2630005 .42651368 .2889862 .43652345 .32699586 .43652345 .34700013 .43652345 .37098695 .42651368 .38598634 .4125061 .40499879 .39450074 .4169922 .36750794 .4229889 .3304901L.44198609 .3244934 .5029907 .37750245C.5 .4065094 .4850006 .43351747 .45799256 .45251466 .43399049 .46951295 .4039917 .47550965 .37199403 .47550965 .29499818 .47550965 .21299744 .45251466 .1599884 .4005127 .10899353 .35049439 .085998538 .28448487 .085998538 .21746826Z"/>
<path id="font_6_14" d="M.04598999 .23046875H.70399478L.70999148 .27046205H.052993776L.04598999 .23046875Z"/>
<path id="font_6_16" d="M.053985597 .65625C.054992677 .65625 .08999634 .6462555 .10798645 .6412506 .12098694 .6372528 .1309967 .6252594 .1309967 .61128237 .13198853 .5543213 .13398743 .45439149 .13398743 .43940736 .13398743 .29444886 .1329956 .14831543 .125 .003189087L.13598633-.0058135988 .21899414 .023208619C.21398926 .11929321 .21398926 .21638489 .21398926 .31245423 .21998596 .31245423 .22898865 .30845643 .23399353 .30345155 .2630005 .27442933 .3899994 .11128235 .48298646-.0078125L.58200076 .018203736V.02720642L.31900025 .3234558 .32099916 .33146668C.4039917 .3404541 .4850006 .3734131 .5169983 .44322206 .5319977 .47714234 .5359955 .49110414 .5359955 .53897097 .5359955 .57388308 .5219879 .6077881 .49699403 .63272097 .47999574 .6506958 .45700074 .6596985 .43299867 .6667023 .40098573 .67570498 .36698915 .67871096 .33299256 .67871096L.06098938 .679245 .054992677 .6732483 .053985597 .65625M.21299744 .37045289C.21299744 .375412 .21699524 .549942 .21899414 .61376956 .21998596 .63272097 .22299195 .6397095 .23098755 .6397095H.2709961C.2979889 .6397095 .32598878 .6377106 .35299684 .63072207 .37199403 .6257324 .3909912 .61776736 .40499879 .6037903 .42599488 .5828552 .43798829 .55293276 .43798829 .52301028 .43798829 .47813417 .41799928 .43624879 .3869934 .40533448 .35398866 .37141419 .30599977 .36044313 .2599945 .35646058 .24798584 .35546876 .23498535 .35546876 .22200012 .35546876 .21499634 .35546876 .21299744 .36444093 .21299744 .37042237V.37045289Z"/>
<path id="font_6_9" d="M.022994996 .6513672C.036987306 .649353 .049987794 .6463623 .06298828 .6433563 .07199097 .6413574 .07998657 .6353607 .085998538 .62835696 .09599304 .61834719 .102996829 .60635378 .10899353 .5943451L.2579956 .29930116C.2579956 .19927979 .2579956 .0982666 .25498963-.0017547608L.2659912-.0107421879 .35598756 .018249512 .34700013 .30630494C.42999269 .4343109 .5039978 .5303345 .61499026 .675354L.61099246 .6933594 .526001 .6763611C.48999024 .619339 .4059906 .47431947 .397995 .46032716 .3849945 .4373169 .34199525 .36730958 .33898927 .3623047 .33599855 .3572998 .33198548 .353302 .32798768 .353302 .32199098 .353302 .31698609 .3592987 .31599427 .36131288L.1749878 .6863556H.02999878L.022994996 .67936709V.6513672Z"/>
<path id="font_6_17" d="M.050994874 .6591797C.069992069 .6531677 .08999634 .64816287 .10899353 .6411743 .117996219 .63716128 .125 .6301575 .12599182 .62016299 .1269989 .6051636 .12799073 .5891571 .12799073 .57315066V.07904053C.1269989 .041030885 .12599182 .027038575 .10598755 .012023926V.002029419H.33699037C.39698792 .002029419 .45700074 .0070343019 .5139923 .024032593 .55799868 .03703308 .60798647 .057037355 .6389923 .091049198 .71598818 .174057 .73799136 .25808717 .73799136 .38511659 .73799136 .43011476 .73399356 .47512818 .72099307 .5171356 .71099856 .55114749 .69599917 .5831604 .67099 .6081543 .6399994 .63916018 .59799197 .6551666 .5549927 .6661682 .49499513 .680542 .43299867 .6855469 .37098695 .6855469L.057998659 .6861725 .050994874 .6781769V.6591797M.21199036 .1700592V.57514956C.21199036 .6061554 .21299744 .62615969 .21499634 .62916567 .21798706 .63516238 .21998596 .63816836 .22599793 .6411743 .23199463 .6435394 .24899292 .6445465 .2919922 .6445465 .33898927 .6445465 .44799806 .6415405 .48098756 .634552 .522995 .6255493 .548996 .6125641 .57099917 .5905762 .6269989 .5346222 .6439972 .43771363 .6439972 .37675477 .6439972 .2828369 .6230011 .184906 .5549927 .11697388 .5269928 .08898926 .4909973 .072006229 .45399476 .060012819 .40699769 .045028688 .35798646 .040039064 .30899049 .040039064 .28199769 .040039064 .24299622 .040039064 .22999573 .053024293 .21499634 .06800842 .21299744 .1299591 .21199036 .16992188V.1700592Z"/>
<path id="font_6_10" d="M.1349945 .6123047H.22898865C.25698854 .6123047 .27999879 .59129336 .2809906 .5662842 .28199769 .541275 .28199769 .46824647 .28199769 .41923524 .28199769 .27919007 .27799989 .13916016 .272995 .00010681152L.28599549-.0048828127 .3809967 .022125245C.37799073 .09814453 .37799073 .2962036 .37799073 .43223573 .37799073 .52127078 .37998963 .6112976 .38598634 .7003021L.3789978 .71229556 .1349945 .6392975V.6123047Z"/>
<path id="font_6_11" d="M.04499817 .001953125H.5379944L.56399539 .079940799 .5589905 .08795166H.20999146C.20399475 .08795166 .19799805 .08894348 .19599915 .092941287 .19499207 .094940189 .19599915 .09794617 .19699097 .09895325 .2539978 .1569519 .30799867 .21495056 .35899354 .27496339 .394989 .31697084 .42999269 .358963 .45799256 .40496827 .48799134 .4509735 .5119934 .49998475 .5119934 .5529938 .5119934 .59399417 .49899293 .6349945 .46499635 .66400149 .43199159 .69299319 .3880005 .7080078 .34199525 .7080078 .29899598 .7080078 .2579956 .6970062 .22099304 .67900088 .17599488 .65800479 .13699341 .6279907 .102996829 .59498599L.125 .57598879C.1519928 .59599307 .17799378 .61099246 .20999146 .6259918 .23098755 .6360016 .2559967 .6399994 .2809906 .6399994 .31399537 .6399994 .34700013 .6289978 .37098695 .6069946 .40098573 .5779877 .4079895 .5369873 .4079895 .50798037 .4079895 .4429779 .38198854 .38197328 .34298707 .3259735 .31098939 .27996827 .27198792 .23796082 .23199463 .19696045 .17199707 .13494873 .10899353 .07594299 .04499817 .017944336V.001953125Z"/>
</defs>
<use data-text="+" xlink:href="#font_6_12" transform="matrix(37.1808,0,0,-37.18035,103.40199,104.85095)"/>
<use data-text="G" xlink:href="#font_6_6" transform="matrix(21.51932,0,0,-21.519387,196.58078,100.71483)"/>
<use data-text="(" xlink:href="#font_6_2" transform="matrix(21.51932,0,0,-21.519387,213.04306,100.71483)"/>
<use data-text="s" xlink:href="#font_6_7" transform="matrix(21.51932,0,0,-21.519387,222.58817,100.71483)"/>
<use data-text=")" xlink:href="#font_6_4" transform="matrix(21.51932,0,0,-21.519387,233.57508,100.71483)"/>
<use data-text="G" xlink:href="#font_6_6" transform="matrix(21.519062,0,0,-21.519387,400.20228,100.71483)"/>
<use data-text="c" xlink:href="#font_6_15" transform="matrix(16.43817,0,0,-16.438418,416.65534,103.94096)"/>
<use data-text="(" xlink:href="#font_6_2" transform="matrix(21.519062,0,0,-21.519387,426.6607,100.71483)"/>
<use data-text="s" xlink:href="#font_6_7" transform="matrix(21.519062,0,0,-21.519387,436.2057,100.71483)"/>
<use data-text=")" xlink:href="#font_6_4" transform="matrix(21.519062,0,0,-21.519387,447.1925,100.71483)"/>
<use data-text="+" xlink:href="#font_6_12" transform="matrix(37.1808,0,0,-37.18035,307.02348,104.85095)"/>
<use data-text="+" xlink:href="#font_6_12" transform="matrix(37.1808,0,0,-37.18035,520.65029,104.85095)"/>
<path transform="matrix(1,0,0,-1,117.42975,95.33809)" stroke-width=".75" stroke-linecap="round" stroke-linejoin="round" fill="none" stroke="#000000" d="M79.04163-25.72716C79.88537-25.470932 78.631298-25.325436 79.47209-25.547448 94.25145-24.601159 108.98659-24.779948 124.754688-25.665076 138.56388-25.36721 139.64322-24.151503 139.51403-10.105744 139.20273-3.46502 138.79233 3.4588 139.551 10.799926 139.37099 24.60904 138.68949 24.665047 125.086269 25.810704 110.16261 24.949797 94.6385 25.429879 79.47518 24.78567 63.66372 24.588004 64.97532 25.763503 64.39497 10.303646 64.26216 3.811811 64.19519-2.884194 65.00336-9.058676 64.70808-24.625929 64.2421-24.315295 79.04163-25.72716Z"/>
<path transform="matrix(1,0,0,-1,117.42975,95.33809)" stroke-width=".75" stroke-linecap="round" stroke-linejoin="round" fill="none" stroke="#000000" d="M282.68025-24.231713C283.53266-25.303929 282.27745-25.071433 281.81864-25.149336 301.0592-25.010819 319.42915-24.473662 337.8746-24.159768 353.43019-25.763022 353.86103-24.738427 353.68135-9.104403 353.27558-2.791463 353.98588 4.19092 353.48768 8.99312 353.14155 24.89102 353.61546 25.173783 338.61897 23.967598 319.15367 24.392296 301.815 25.783484 281.9702 24.167069 268.20588 24.104109 267.66304 25.391007 267.9008 10.822001 267.87867 3.258119 267.97257-2.608727 266.82749-10.012952 268.7006-24.574297 268.60353-24.650307 282.68025-24.231713Z"/>
<path transform="matrix(1,0,0,-1,117.42975,95.33809)" stroke-width=".75" stroke-linecap="round" stroke-linejoin="round" fill="none" stroke="#000000" d="M22.494856 .855862C22.081389 12.77915 12.210258 20.723059 .088691 20.694546-12.185375 20.924407-22.290137 12.098823-21.086745-.879306-22.354098-12.887967-12.727514-21.023736-.799649-22.26646 11.134769-21.208622 20.70845-12.733945 22.494856 .855862Z"/>
<path transform="matrix(1,0,0,-1,117.42975,95.33809)" stroke-width=".75" stroke-linecap="round" stroke-linejoin="round" fill="none" stroke="#000000" d="M226.16011 .869648C225.86669 11.552482 215.45545 21.78936 202.78809 22.228087 192.62918 21.749634 181.0906 10.981022 182.94908-.18019 181.02497-12.363211 191.34023-20.854554 204.16303-22.068257 215.20989-21.191582 225.42983-11.468818 226.16011 .869648Z"/>
<path transform="matrix(1,0,0,-1,117.42975,95.33809)" stroke-width=".75" stroke-linecap="round" stroke-linejoin="round" fill="none" stroke="#000000" d="M438.6162 .875827C437.91676 12.540024 430.0841 20.886616 418.00785 22.258646 404.33363 20.943795 394.92964 12.665717 396.25767 .068889 395.5796-12.373823 404.98188-22.492123 417.49073-20.780074 429.53297-21.725766 439.18116-11.910303 438.6162 .875827Z"/>
<path transform="matrix(1,0,0,-1,117.42975,95.33809)" stroke-width=".75" stroke-linecap="round" stroke-linejoin="round" fill="none" stroke="#000000" d="M-64.53726 .065289C-49.725797-.180158-36.213865-.310234-21.626294 .41675"/>
<path transform="matrix(1,0,0,-1,117.42975,95.33809)" stroke-width=".75" stroke-linecap="round" stroke-linejoin="round" fill="none" stroke="#000000" d="M-34.157747-7.761984C-31.444779-3.985512-26.360802-1.106835-21.77951-.333972-26.55567 .968752-30.902768 4.149778-34.20518 8.409475"/>
<path transform="matrix(1,0,0,-1,117.42975,95.33809)" stroke-width=".75" stroke-linecap="round" stroke-linejoin="round" fill="none" stroke="#000000" d="M21.658585 .285393C35.895597 .143388 49.283578-.404232 63.341699 .210265"/>
<path transform="matrix(1,0,0,-1,117.42975,95.33809)" stroke-width=".75" stroke-linecap="round" stroke-linejoin="round" fill="none" stroke="#000000" d="M50.852636-8.471612C54.044775-3.997249 58.68862-1.321994 63.791906 .284776 58.941095 .741039 54.54712 3.57883 51.34839 7.790109"/>
<path transform="matrix(1,0,0,-1,117.42975,95.33809)" stroke-width=".75" stroke-linecap="round" stroke-linejoin="round" fill="none" stroke="#000000" d="M139.24977 .055267C153.20337 .157928 167.29926-.377224 181.98474-.422709"/>
<path transform="matrix(1,0,0,-1,117.42975,95.33809)" stroke-width=".75" stroke-linecap="round" stroke-linejoin="round" fill="none" stroke="#000000" d="M168.62454-8.249175C171.87853-4.294843 176.69144-.871846 181.45459-.200301 176.17322 .892043 171.84313 4.149124 168.92983 8.079898"/>
<path transform="matrix(1,0,0,-1,117.42975,95.33809)" stroke-width=".75" stroke-linecap="round" stroke-linejoin="round" fill="none" stroke="#000000" d="M225.34322 .190004C239.1282-.078774 253.25432 .434075 267.75373 .164961"/>
<path transform="matrix(1,0,0,-1,117.42975,95.33809)" stroke-width=".75" stroke-linecap="round" stroke-linejoin="round" fill="none" stroke="#000000" d="M254.87798-7.916081C257.7167-3.874956 262.14826-.931524 267.3163 .046621 262.50135 1.165194 257.62696 3.594423 255.17061 8.266265"/>
<path transform="matrix(1,0,0,-1,117.42975,95.33809)" stroke-width=".75" stroke-linecap="round" stroke-linejoin="round" fill="none" stroke="#000000" d="M353.44093-.326795C366.93275 .365646 381.29978-.144175 395.25505-.25015"/>
<path transform="matrix(1,0,0,-1,117.42975,95.33809)" stroke-width=".75" stroke-linecap="round" stroke-linejoin="round" fill="none" stroke="#000000" d="M382.94429-7.756629C385.5267-4.002749 390.00743-1.503321 395.32398 .045402 390.47145 1.137266 385.7348 3.853944 382.71083 8.130495"/>
<path transform="matrix(1,0,0,-1,117.42975,95.33809)" stroke-width=".75" stroke-linecap="round" stroke-linejoin="round" fill="none" stroke="#000000" d="M439.29954 .359914C467.00358-.140099 495.64839-.050777 524.14956 .138991"/>
<path transform="matrix(1,0,0,-1,117.42975,95.33809)" stroke-width=".75" stroke-linecap="round" stroke-linejoin="round" fill="none" stroke="#000000" d="M511.352-8.332394C514.4189-3.675519 518.9444-1.166636 524.14126-.193798 519.2395 1.385384 514.6332 4.387174 511.59638 8.158434"/>
<path transform="matrix(1,0,0,-1,117.42975,95.33809)" stroke-width=".75" stroke-linecap="round" stroke-linejoin="round" fill="none" stroke="#000000" d="M481.77159-.373987C481.66798-22.834279 481.85047-44.69581 481.68769-67.44742 424.77049-67.88835 367.22996-67.56945 310.746-67.823169 207.18654-67.80197 103.78368-67.505458-.136464-67.72822 .385832-52.49153 .326491-36.775777 .409294-21.311923"/>
<path transform="matrix(1,0,0,-1,117.42975,95.33809)" stroke-width=".75" stroke-linecap="round" stroke-linejoin="round" fill="none" stroke="#000000" d="M7.703639-34.24253C4.080514-31.190255 1.352452-27.03697-.298043-21.31626-1.000723-26.780039-4.138155-30.746088-8.444671-34.25032"/>
<path transform="matrix(1,0,0,-1,117.42975,95.33809)" stroke-width=".75" stroke-linecap="round" stroke-linejoin="round" fill="none" stroke="#000000" d="M204.01647 63.833768C203.8941 49.75553 203.50351 36.049417 203.63817 21.702095"/>
<path transform="matrix(1,0,0,-1,117.42975,95.33809)" stroke-width=".75" stroke-linecap="round" stroke-linejoin="round" fill="none" stroke="#000000" d="M196.00908 34.40519C199.93997 31.103976 202.41548 26.610358 203.51517 21.998993 204.76398 27.19022 207.55416 31.151656 211.8178 35.10362"/>
<path transform="matrix(1,0,0,-1,117.42975,95.33809)" stroke-width=".75" stroke-linecap="round" stroke-linejoin="round" fill="none" stroke="#000000" d="M417.25645 64.0529C417.46849 49.939554 416.8412 35.659116 416.9587 21.99884"/>
<path transform="matrix(1,0,0,-1,117.42975,95.33809)" stroke-width=".75" stroke-linecap="round" stroke-linejoin="round" fill="none" stroke="#000000" d="M409.44224 34.254217C412.85707 31.75412 415.72404 27.114563 417.36976 21.74295 418.27018 26.73149 421.2353 31.807595 425.30036 34.267705"/>
<path transform="matrix(1,0,0,-1,117.42975,95.33809)" stroke-width=".75" stroke-linecap="round" stroke-linejoin="round" fill="none" stroke="#000000" d="M80.022968-25.825366C79.78398-25.68856 78.60179-24.027697 78.30696-25.64952 94.82274-25.842415 110.288-24.826432 124.0106-24.104886 139.01885-24.095694 138.77155-25.753083 140.20459-9.563326 139.42028-4.093564 140.10602 2.76486 140.21746 9.146717 138.63718 24.763682 138.85898 24.36887 123.811618 24.56607 108.43663 25.273213 94.95529 24.080573 78.97084 25.588412 65.099758 25.31669 64.05769 24.021445 64.55865 10.735258 64.51199 2.803612 63.355417-3.306037 64.01835-10.378214 64.04482-24.285304 63.188707-25.029786 80.022968-25.825366Z"/>
<path transform="matrix(1,0,0,-1,117.42975,95.33809)" stroke-width=".75" stroke-linecap="round" stroke-linejoin="round" fill="none" stroke="#000000" d="M282.98408-25.208613C282.8727-25.663802 282.15684-24.633416 282.4601-25.81945 302.06849-24.296156 319.55805-24.170233 338.06938-25.570885 352.7399-25.203164 352.22377-24.68438 352.46867-10.840389 353.14308-2.901541 352.47044 3.054658 352.43653 9.360917 352.87193 25.060687 353.3441 25.09064 337.331 25.100874 319.91044 24.404257 300.43913 25.126259 282.96379 25.398766 268.4533 24.387898 268.57069 24.42996 267.86238 9.132174 267.81498 2.797879 267.72749-3.646435 267.18037-10.433744 268.2963-24.388369 267.2179-25.040619 282.98408-25.208613Z"/>
<path transform="matrix(1,0,0,-1,117.42975,95.33809)" stroke-width=".75" stroke-linecap="round" stroke-linejoin="round" fill="none" stroke="#000000" d="M22.100758 .874331C21.121489 11.627022 12.547881 21.36096-.334388 20.706917-12.09395 21.551455-20.858429 12.142696-21.540814 .265708-21.18252-11.381385-12.834595-22.000157-.629442-21.784855 12.789934-20.900456 21.88209-11.877009 22.100758 .874331Z"/>
<path transform="matrix(1,0,0,-1,117.42975,95.33809)" stroke-width=".75" stroke-linecap="round" stroke-linejoin="round" fill="none" stroke="#000000" d="M225.3107 .302112C225.16339 12.574469 216.18393 22.526297 203.76654 22.261736 191.49819 21.22332 181.12499 12.864727 182.81813 .247228 181.02883-11.569827 191.4937-21.960986 202.6957-21.350419 215.45082-20.753277 225.84137-11.860208 225.3107 .302112Z"/>
<path transform="matrix(1,0,0,-1,117.42975,95.33809)" stroke-width=".75" stroke-linecap="round" stroke-linejoin="round" fill="none" stroke="#000000" d="M439.75856 .158637C438.272 12.521424 428.44807 21.956583 416.35957 22.268986 405.45365 21.570773 395.71153 12.322192 396.48475 .836327 396.5311-11.633168 406.23616-20.865494 417.5846-20.923316 429.6027-21.64839 438.67527-11.435641 439.75856 .158637Z"/>
<path transform="matrix(1,0,0,-1,117.42975,95.33809)" stroke-width=".75" stroke-linecap="round" stroke-linejoin="round" fill="none" stroke="#000000" d="M-64.33381-.419688C-50.0203-.020085-35.38447-.16043-21.670029-.154719"/>
<path transform="matrix(1,0,0,-1,117.42975,95.33809)" stroke-width=".75" stroke-linecap="round" stroke-linejoin="round" fill="none" stroke="#000000" d="M-34.29566-8.1442C-30.80083-3.570048-26.502833-1.399621-21.248293-.442327-26.270197 1.161393-30.928038 4.433926-33.89767 8.099308"/>
<path transform="matrix(1,0,0,-1,117.42975,95.33809)" stroke-width=".75" stroke-linecap="round" stroke-linejoin="round" fill="none" stroke="#000000" d="M21.6796 .277491C35.859697-.116978 49.59311 .120778 63.3796-.056694"/>
<path transform="matrix(1,0,0,-1,117.42975,95.33809)" stroke-width=".75" stroke-linecap="round" stroke-linejoin="round" fill="none" stroke="#000000" d="M51.08602-7.766777C53.945859-4.402023 58.40534-1.477033 64.00514-.177208 58.674367 .84953 54.066987 3.586303 51.34436 8.311969"/>
<path transform="matrix(1,0,0,-1,117.42975,95.33809)" stroke-width=".75" stroke-linecap="round" stroke-linejoin="round" fill="none" stroke="#000000" d="M139.15642-.448842C153.78867 .13825 167.4707-.126599 182.03313-.36849"/>
<path transform="matrix(1,0,0,-1,117.42975,95.33809)" stroke-width=".75" stroke-linecap="round" stroke-linejoin="round" fill="none" stroke="#000000" d="M168.86048-7.840798C171.82433-4.139219 176.86254-1.40107 181.67704 .402493 176.54773 1.241401 172.0661 3.565212 169.00717 7.939876"/>
<path transform="matrix(1,0,0,-1,117.42975,95.33809)" stroke-width=".75" stroke-linecap="round" stroke-linejoin="round" fill="none" stroke="#000000" d="M224.95127-.057981C238.90906-.385315 253.60828-.132947 267.06227-.134586"/>
<path transform="matrix(1,0,0,-1,117.42975,95.33809)" stroke-width=".75" stroke-linecap="round" stroke-linejoin="round" fill="none" stroke="#000000" d="M255.04627-7.894914C257.52586-3.625317 262.22236-.849677 267.7269-.213501 262.4875 .772028 257.47523 3.685085 254.33338 8.451218"/>
<path transform="matrix(1,0,0,-1,117.42975,95.33809)" stroke-width=".75" stroke-linecap="round" stroke-linejoin="round" fill="none" stroke="#000000" d="M353.24549-.169268C367.1217 .385828 381.0993 .231566 395.1254 .27122"/>
<path transform="matrix(1,0,0,-1,117.42975,95.33809)" stroke-width=".75" stroke-linecap="round" stroke-linejoin="round" fill="none" stroke="#000000" d="M382.28755-7.91113C385.82435-3.60395 390.49336-.804235 395.45783 .102216 390.5518 1.371861 386.19438 3.970181 382.74195 8.145906"/>
<path transform="matrix(1,0,0,-1,117.42975,95.33809)" stroke-width=".75" stroke-linecap="round" stroke-linejoin="round" fill="none" stroke="#000000" d="M438.786-.377487C467.65788-.387533 495.841-.164375 523.4917 .045191"/>
<path transform="matrix(1,0,0,-1,117.42975,95.33809)" stroke-width=".75" stroke-linecap="round" stroke-linejoin="round" fill="none" stroke="#000000" d="M511.46598-7.925723C514.79379-3.664999 519.2103-.746994 523.9158-.107826 518.48519 1.422816 514.2091 4.362186 511.11189 7.99129"/>
<path transform="matrix(1,0,0,-1,117.42975,95.33809)" stroke-width=".75" stroke-linecap="round" stroke-linejoin="round" fill="none" stroke="#000000" d="M481.52903 .098467C481.7123-22.51495 481.52928-44.797498 481.0859-67.49624 424.20539-67.13531 367.16474-67.688159 310.61659-67.698657 207.31026-67.09319 103.38796-67.202129 .365225-67.179279 .232011-52.19513-.055822-36.520959 .324575-21.734013"/>
<path transform="matrix(1,0,0,-1,117.42975,95.33809)" stroke-width=".75" stroke-linecap="round" stroke-linejoin="round" fill="none" stroke="#000000" d="M7.898119-34.20357C4.052324-31.190373 1.593438-26.737809-.176066-21.653069-.945023-26.6454-3.867618-30.928715-8.417852-34.579019"/>
<path transform="matrix(1,0,0,-1,117.42975,95.33809)" stroke-width=".75" stroke-linecap="round" stroke-linejoin="round" fill="none" stroke="#000000" d="M203.81037 64.43173C204.01306 49.83875 204.0508 36.500349 203.92632 22.108498"/>
<path transform="matrix(1,0,0,-1,117.42975,95.33809)" stroke-width=".75" stroke-linecap="round" stroke-linejoin="round" fill="none" stroke="#000000" d="M195.65714 34.739767C200.02577 31.819954 202.70092 27.02105 203.62598 22.301409 204.88565 26.937998 207.87953 31.643568 211.77295 34.29955"/>
<path transform="matrix(1,0,0,-1,117.42975,95.33809)" stroke-width=".75" stroke-linecap="round" stroke-linejoin="round" fill="none" stroke="#000000" d="M417.64356 64.39934C417.66047 49.952249 417.26176 35.798437 417.3108 22.057572"/>
<path transform="matrix(1,0,0,-1,117.42975,95.33809)" stroke-width=".75" stroke-linecap="round" stroke-linejoin="round" fill="none" stroke="#000000" d="M408.86888 34.95398C413.5846 31.482205 416.49525 27.017476 416.91233 21.679526 418.43586 27.079815 421.53813 31.828003 425.14707 35.031114"/>
<path transform="matrix(1,0,0,-1,117.42975,95.33809)" stroke-width=".75" stroke-linecap="round" stroke-linejoin="round" fill="none" stroke="#000000" d="M79.674869-25.782526C79.54373-25.681975 79.84608-25.873322 78.36958-25.068556 93.441989-24.947054 108.666957-24.6112 125.14276-25.85372 138.82477-25.0291 139.90048-24.81263 139.50632-9.902298 140.24536-4.174906 139.41237 3.165851 140.34806 9.780491 139.82917 25.64798 140.40984 25.702647 123.50328 24.367314 108.771709 24.483222 94.608318 25.87687 80.030429 24.344344 63.688375 24.031962 64.38001 24.795363 63.360288 9.792207 64.72963 4.25476 65.004367-3.35253 63.31482-9.134114 65.12032-24.746983 63.52368-25.695792 79.674869-25.782526Z"/>
<path transform="matrix(1,0,0,-1,117.42975,95.33809)" stroke-width=".75" stroke-linecap="round" stroke-linejoin="round" fill="none" stroke="#000000" d="M282.1685-24.430619C281.91996-25.314538 281.86988-25.0998 282.88337-24.41603 302.0052-25.608624 319.33094-25.337193 338.9329-24.583067 353.97407-24.163609 353.60136-25.729939 353.08546-9.964092 352.92869-2.807258 353.87623 3.082309 353.63627 10.295881 353.1702 24.7564 353.3754 25.260533 337.5124 25.690257 319.46257 24.240807 300.9098 24.03364 282.51319 24.695187 267.5957 25.02999 267.0137 24.812937 268.03858 10.879308 267.03855 3.661545 268.66255-2.723063 267.71983-10.5207 266.87519-25.149085 267.02433-25.429965 282.1685-24.430619Z"/>
<path transform="matrix(1,0,0,-1,117.42975,95.33809)" stroke-width=".75" stroke-linecap="round" stroke-linejoin="round" fill="none" stroke="#000000" d="M20.920706-.48575C20.769686 11.260036 11.299799 21.974919-.805144 21.808825-11.276627 22.10623-22.134739 12.56475-21.405835-.661846-22.405173-12.422568-11.440935-22.216286 .658327-22.455288 12.019291-21.420632 21.734736-12.869941 20.920706-.48575Z"/>
<path transform="matrix(1,0,0,-1,117.42975,95.33809)" stroke-width=".75" stroke-linecap="round" stroke-linejoin="round" fill="none" stroke="#000000" d="M224.57135-.754889C225.547 11.175613 214.73993 21.543114 204.08663 22.038424 192.22824 21.46965 181.90451 11.799962 181.09923 .719489 182.54602-11.911808 190.857-22.206694 203.6067-20.982926 214.87717-22.513026 225.1475-11.281236 224.57135-.754889Z"/>
<path transform="matrix(1,0,0,-1,117.42975,95.33809)" stroke-width=".75" stroke-linecap="round" stroke-linejoin="round" fill="none" stroke="#000000" d="M438.9509-.489834C438.5264 11.707982 429.17063 20.973429 417.15263 22.03915 405.57865 21.152449 396.1392 11.986653 395.62306 .015554 396.064-12.54656 404.62446-20.878838 417.6191-22.1002 429.4338-22.551009 439.46385-11.221087 438.9509-.489834Z"/>
<path transform="matrix(1,0,0,-1,117.42975,95.33809)" stroke-width=".75" stroke-linecap="round" stroke-linejoin="round" fill="none" stroke="#000000" d="M-64.11186 .338004C-49.98147 .221077-35.438104 .407869-22.06639 .156771"/>
<path transform="matrix(1,0,0,-1,117.42975,95.33809)" stroke-width=".75" stroke-linecap="round" stroke-linejoin="round" fill="none" stroke="#000000" d="M-33.86777-8.380029C-31.307143-4.426442-26.269427-.893816-21.529894 .134223-27.000929 1.544904-31.195345 4.128141-34.712377 8.226702"/>
<path transform="matrix(1,0,0,-1,117.42975,95.33809)" stroke-width=".75" stroke-linecap="round" stroke-linejoin="round" fill="none" stroke="#000000" d="M21.598927-.163331C35.793916 .151033 49.538068-.187963 64.20276 .175797"/>
<path transform="matrix(1,0,0,-1,117.42975,95.33809)" stroke-width=".75" stroke-linecap="round" stroke-linejoin="round" fill="none" stroke="#000000" d="M51.34325-7.710682C54.717626-3.81831 59.189825-.944906 63.41537 .375912 58.802934 1.130254 53.935995 4.450792 51.240346 8.284885"/>
<path transform="matrix(1,0,0,-1,117.42975,95.33809)" stroke-width=".75" stroke-linecap="round" stroke-linejoin="round" fill="none" stroke="#000000" d="M139.70005 .035808C153.4572-.031244 167.94965-.144329 181.72783-.377458"/>
<path transform="matrix(1,0,0,-1,117.42975,95.33809)" stroke-width=".75" stroke-linecap="round" stroke-linejoin="round" fill="none" stroke="#000000" d="M168.52787-8.447189C172.50559-3.754395 177.03192-1.109249 181.58318-.149899 176.85625 1.150912 172.52828 3.69889 169.38066 7.905694"/>
<path transform="matrix(1,0,0,-1,117.42975,95.33809)" stroke-width=".75" stroke-linecap="round" stroke-linejoin="round" fill="none" stroke="#000000" d="M225.6726 .14425C239.08974 .286835 253.19007 .254378 267.49497-.245545"/>
<path transform="matrix(1,0,0,-1,117.42975,95.33809)" stroke-width=".75" stroke-linecap="round" stroke-linejoin="round" fill="none" stroke="#000000" d="M254.60179-7.903479C257.55793-3.636818 262.43397-1.152451 267.1975-.30641 262.15763 .917414 257.89057 4.39136 255.03333 8.042639"/>
<path transform="matrix(1,0,0,-1,117.42975,95.33809)" stroke-width=".75" stroke-linecap="round" stroke-linejoin="round" fill="none" stroke="#000000" d="M353.13648-.120738C366.91587 .149751 380.80949 .381051 395.64546-.425474"/>
<path transform="matrix(1,0,0,-1,117.42975,95.33809)" stroke-width=".75" stroke-linecap="round" stroke-linejoin="round" fill="none" stroke="#000000" d="M382.2273-7.663073C385.3743-4.209979 389.93116-1.460401 395.69099 .163935 390.39054 1.521975 385.40577 4.222654 382.62065 8.189671"/>
<path transform="matrix(1,0,0,-1,117.42975,95.33809)" stroke-width=".75" stroke-linecap="round" stroke-linejoin="round" fill="none" stroke="#000000" d="M438.7216 .336298C467.41694-.358799 495.15016 .335723 524.3642 .349471"/>
<path transform="matrix(1,0,0,-1,117.42975,95.33809)" stroke-width=".75" stroke-linecap="round" stroke-linejoin="round" fill="none" stroke="#000000" d="M511.43638-8.476552C514.51156-3.710026 519.16036-.936912 523.59677-.419204 518.6759 1.590253 514.6514 4.334753 511.01628 8.188374"/>
<path transform="matrix(1,0,0,-1,117.42975,95.33809)" stroke-width=".75" stroke-linecap="round" stroke-linejoin="round" fill="none" stroke="#000000" d="M481.57203 .264723C481.19496-22.745036 481.19483-44.747575 481.72563-67.26322 424.73066-67.144 367.5697-67.78505 310.50135-67.67836 206.93633-67.76674 103.58085-67.65478-.355891-67.58798 .42177-52.30966-.18115-37.28817-.025017-21.628756"/>
<path transform="matrix(1,0,0,-1,117.42975,95.33809)" stroke-width=".75" stroke-linecap="round" stroke-linejoin="round" fill="none" stroke="#000000" d="M7.635382-34.111135C4.011651-31.28898 .815022-26.917529-.395774-21.483323-1.076646-26.608927-3.675922-31.196782-7.765332-34.724866"/>
<path transform="matrix(1,0,0,-1,117.42975,95.33809)" stroke-width=".75" stroke-linecap="round" stroke-linejoin="round" fill="none" stroke="#000000" d="M203.51966 63.85544C203.73224 50.15316 203.44965 36.430124 203.4725 22.2836"/>
<path transform="matrix(1,0,0,-1,117.42975,95.33809)" stroke-width=".75" stroke-linecap="round" stroke-linejoin="round" fill="none" stroke="#000000" d="M195.35631 34.433084C199.40468 31.18897 202.88938 27.201542 203.91033 22.064074 204.65033 26.851157 207.21587 31.538945 211.80263 34.76737"/>
<path transform="matrix(1,0,0,-1,117.42975,95.33809)" stroke-width=".75" stroke-linecap="round" stroke-linejoin="round" fill="none" stroke="#000000" d="M417.26759 64.07356C417.40324 49.687906 417.471 36.115045 417.13874 21.86143"/>
<path transform="matrix(1,0,0,-1,117.42975,95.33809)" stroke-width=".75" stroke-linecap="round" stroke-linejoin="round" fill="none" stroke="#000000" d="M409.5427 34.53501C413.32978 31.913823 416.15483 27.11662 417.14125 22.145485 418.54649 26.612376 421.5926 31.050835 425.45436 35.0343"/>
<path transform="matrix(1,0,0,-1,117.42975,95.33809)" stroke-width=".75" stroke-linecap="round" stroke-linejoin="round" fill="none" stroke="#000000" d="M78.26764-25.153859C79.14089-25.675814 79.630039-24.799107 79.30387-24.633522 95.03405-24.668147 109.704929-24.849034 123.66004-25.62496 139.07808-24.973023 138.82392-24.854956 140.16196-10.71414 138.82231-4.178624 138.72313 3.364646 139.42317 10.057117 138.67169 24.673405 139.07973 25.811799 124.4149 24.525218 109.515567 25.432208 94.296817 24.168614 78.50651 24.076128 63.92198 25.87755 64.26847 25.537234 63.87486 10.812028 64.67447 3.446802 64.68321-3.107615 63.439496-10.48597 64.40652-25.088059 63.71482-25.613192 78.26764-25.153859Z"/>
<path transform="matrix(1,0,0,-1,117.42975,95.33809)" stroke-width=".75" stroke-linecap="round" stroke-linejoin="round" fill="none" stroke="#000000" d="M283.15046-25.25538C282.67729-25.6661 282.63554-24.693743 282.51277-25.529202 301.48023-24.093546 319.0396-24.614897 337.79844-24.507405 352.6562-25.204295 352.57789-24.432999 353.35069-10.312763 352.31755-2.852608 352.6212 2.398629 353.9627 9.057934 352.61015 24.63804 353.0597 24.535922 337.65159 25.021567 319.48448 24.004115 301.3613 25.408347 283.60215 25.450507 266.81556 25.660754 266.9369 25.186169 266.89643 10.794656 267.265 3.167199 267.312-3.876277 267.4487-10.007843 268.52745-25.737025 267.1153-24.773348 283.15046-25.25538Z"/>
<path transform="matrix(1,0,0,-1,117.42975,95.33809)" stroke-width=".75" stroke-linecap="round" stroke-linejoin="round" fill="none" stroke="#000000" d="M21.264466 .081753C21.36225 11.793297 11.163982 20.674832 .658666 22.151644-12.616012 22.311203-22.507956 12.126832-21.10352 .630761-21.548899-11.939148-12.137693-21.66254-.049944-22.29933 11.294619-21.651272 21.028983-11.245463 21.264466 .081753Z"/>
<path transform="matrix(1,0,0,-1,117.42975,95.33809)" stroke-width=".75" stroke-linecap="round" stroke-linejoin="round" fill="none" stroke="#000000" d="M225.2426-.907678C225.9651 11.935711 216.04546 21.302109 203.85514 22.22337 191.53688 22.403706 181.58936 11.610047 182.77045 .421298 181.2552-12.649999 192.58226-20.847632 203.15456-22.589968 215.16014-22.173804 224.45612-12.647721 225.2426-.907678Z"/>
<path transform="matrix(1,0,0,-1,117.42975,95.33809)" stroke-width=".75" stroke-linecap="round" stroke-linejoin="round" fill="none" stroke="#000000" d="M438.0408-.538995C438.66734 12.814203 428.38526 22.255759 417.116 22.032757 404.669 21.048483 395.55299 12.738276 395.9467 .835831 395.03898-12.414506 404.60914-21.67174 418.0787-22.237097 429.13273-22.21265 439.16197-11.012593 438.0408-.538995Z"/>
<path transform="matrix(1,0,0,-1,117.42975,95.33809)" stroke-width=".75" stroke-linecap="round" stroke-linejoin="round" fill="none" stroke="#000000" d="M-63.97807-.232401C-49.956144 .101601-35.55655-.254473-21.41834-.068721"/>
<path transform="matrix(1,0,0,-1,117.42975,95.33809)" stroke-width=".75" stroke-linecap="round" stroke-linejoin="round" fill="none" stroke="#000000" d="M-34.013505-8.281456C-31.473795-3.974052-27.007357-1.509838-21.68829 .073173-26.96959 1.588702-31.47114 4.237713-34.360517 7.700446"/>
<path transform="matrix(1,0,0,-1,117.42975,95.33809)" stroke-width=".75" stroke-linecap="round" stroke-linejoin="round" fill="none" stroke="#000000" d="M21.694745 .011405C35.299867 .136762 50.04408 .382112 63.815004 .347069"/>
<path transform="matrix(1,0,0,-1,117.42975,95.33809)" stroke-width=".75" stroke-linecap="round" stroke-linejoin="round" fill="none" stroke="#000000" d="M51.063249-8.101674C54.139787-4.326681 58.318189-.86804 64.009967-.146752 58.88591 1.040749 54.650758 3.698764 51.108388 8.387889"/>
<path transform="matrix(1,0,0,-1,117.42975,95.33809)" stroke-width=".75" stroke-linecap="round" stroke-linejoin="round" fill="none" stroke="#000000" d="M139.07161 .106956C153.78433 .013157 167.40297 .109361 182.06015 .001208"/>
<path transform="matrix(1,0,0,-1,117.42975,95.33809)" stroke-width=".75" stroke-linecap="round" stroke-linejoin="round" fill="none" stroke="#000000" d="M168.94573-7.981845C172.23087-4.230681 176.332-1.501183 182.01715-.431317 176.52577 .945587 171.96263 4.355478 168.79138 7.783656"/>
<path transform="matrix(1,0,0,-1,117.42975,95.33809)" stroke-width=".75" stroke-linecap="round" stroke-linejoin="round" fill="none" stroke="#000000" d="M224.8823-.264857C239.17041-.046107 253.40567 .129206 267.08668 .32681"/>
<path transform="matrix(1,0,0,-1,117.42975,95.33809)" stroke-width=".75" stroke-linecap="round" stroke-linejoin="round" fill="none" stroke="#000000" d="M255.0121-8.296682C257.691-3.948268 262.7878-1.189586 266.99607-.299618 262.5051 1.526639 258.07688 4.387271 255.05033 8.138637"/>
<path transform="matrix(1,0,0,-1,117.42975,95.33809)" stroke-width=".75" stroke-linecap="round" stroke-linejoin="round" fill="none" stroke="#000000" d="M352.913-.321729C366.92195 .307197 380.7788-.000746 395.09254 .404066"/>
<path transform="matrix(1,0,0,-1,117.42975,95.33809)" stroke-width=".75" stroke-linecap="round" stroke-linejoin="round" fill="none" stroke="#000000" d="M382.36079-7.929406C385.44648-3.610256 390.2477-1.285157 395.58387-.443239 390.61106 1.110761 385.95628 4.151151 382.98774 8.332611"/>
<path transform="matrix(1,0,0,-1,117.42975,95.33809)" stroke-width=".75" stroke-linecap="round" stroke-linejoin="round" fill="none" stroke="#000000" d="M439.32777 .263722C467.16227 .005953 495.52577-.223553 523.9107 .298691"/>
<path transform="matrix(1,0,0,-1,117.42975,95.33809)" stroke-width=".75" stroke-linecap="round" stroke-linejoin="round" fill="none" stroke="#000000" d="M511.16859-8.073085C514.472-3.783606 518.7631-.717805 523.6849 .009084 518.5954 1.062644 514.38528 4.249773 510.93858 8.362347"/>
<path transform="matrix(1,0,0,-1,117.42975,95.33809)" stroke-width=".75" stroke-linecap="round" stroke-linejoin="round" fill="none" stroke="#000000" d="M481.2092-.08135C481.37864-22.182696 481.3004-44.79611 481.5272-67.66182 424.7439-67.72431 367.68244-67.588169 310.51066-67.06178 207.27239-67.033809 103.7485-67.50184-.037458-67.02477-.33638-52.267107-.376132-37.20502-.061996-21.450669"/>
<path transform="matrix(1,0,0,-1,117.42975,95.33809)" stroke-width=".75" stroke-linecap="round" stroke-linejoin="round" fill="none" stroke="#000000" d="M7.629343-34.442476C3.686342-30.72692 1.521097-27.049674 .153575-21.870467-1.300571-27.015948-3.981805-31.220652-8.263809-34.555036"/>
<path transform="matrix(1,0,0,-1,117.42975,95.33809)" stroke-width=".75" stroke-linecap="round" stroke-linejoin="round" fill="none" stroke="#000000" d="M203.75438 64.485668C203.17455 50.288637 203.9736 36.049039 203.21152 22.277523"/>
<path transform="matrix(1,0,0,-1,117.42975,95.33809)" stroke-width=".75" stroke-linecap="round" stroke-linejoin="round" fill="none" stroke="#000000" d="M195.88282 34.883214C199.19771 31.594706 202.03545 26.750975 203.4889 21.575102 204.52349 26.897318 207.6872 31.68939 211.88339 34.787569"/>
<path transform="matrix(1,0,0,-1,117.42975,95.33809)" stroke-width=".75" stroke-linecap="round" stroke-linejoin="round" fill="none" stroke="#000000" d="M417.38069 64.0023C416.95979 49.79767 417.6265 36.470598 416.83927 21.616776"/>
<path transform="matrix(1,0,0,-1,117.42975,95.33809)" stroke-width=".75" stroke-linecap="round" stroke-linejoin="round" fill="none" stroke="#000000" d="M409.63758 34.698C413.65568 31.137429 416.01698 27.039675 416.87547 22.008564 418.61839 27.112233 421.3644 31.86438 425.21009 34.847684"/>
<path transform="matrix(1,0,0,-1,117.42975,95.33809)" stroke-width=".75" stroke-linecap="round" stroke-linejoin="round" fill="none" stroke="#000000" d="M80.04288-25.005143C78.410289-25.823903 79.78186-25.119507 78.39669-24.07848 93.8052-23.98307 108.47117-25.296486 125.36768-23.983746 139.81876-25.268652 139.7069-25.26645 139.65702-9.439513 140.3118-4.056316 140.13 4.232614 139.73749 9.730096 138.99538 25.047005 138.54784 24.460104 124.98296 24.184498 109.487888 25.62989 94.42996 24.471127 78.405368 25.212445 63.33785 24.026778 64.88017 24.80601 64.14589 10.831887 64.179187 2.648477 64.84645-2.581752 63.513216-10.296527 64.01421-24.214 64.10134-24.38707 80.04288-25.005143Z"/>
<path transform="matrix(1,0,0,-1,117.42975,95.33809)" stroke-width=".75" stroke-linecap="round" stroke-linejoin="round" fill="none" stroke="#000000" d="M282.91804-24.822012C283.64497-25.759083 283.63066-25.395146 282.69639-25.080965 301.66145-24.162755 319.09696-24.161789 338.67039-24.899237 353.35533-24.683779 352.78919-24.075028 353.90534-9.168447 353.53639-3.565804 352.36528 2.69278 352.92567 9.257249 353.03776 24.471819 352.86064 24.305409 337.59938 24.067973 318.76097 25.284934 301.35337 25.46509 282.0476 24.65023 268.3081 25.433796 267.50544 24.605368 267.94978 9.306387 267.346 3.756344 266.97917-3.322152 267.34019-10.820652 267.81098-24.571982 268.1537-25.74444 282.91804-24.822012Z"/>
<path transform="matrix(1,0,0,-1,117.42975,95.33809)" stroke-width=".75" stroke-linecap="round" stroke-linejoin="round" fill="none" stroke="#000000" d="M22.308903 .284987C20.719964 12.769283 11.508372 22.266392 .445408 21.23711-11.043574 21.523278-22.249249 12.357952-20.764903 .892288-21.715828-12.884038-11.151325-21.278014 .622818-21.06951 11.540701-21.876919 22.386797-11.497801 22.308903 .284987Z"/>
<path transform="matrix(1,0,0,-1,117.42975,95.33809)" stroke-width=".75" stroke-linecap="round" stroke-linejoin="round" fill="none" stroke="#000000" d="M225.96372 .183957C225.72525 11.876949 215.4007 22.40014 204.20958 20.855298 192.58376 21.198664 182.82205 11.565836 181.51868-.448701 181.64929-11.917072 190.88549-21.475674 203.25086-20.78651 214.8354-21.627223 225.19974-12.539559 225.96372 .183957Z"/>
<path transform="matrix(1,0,0,-1,117.42975,95.33809)" stroke-width=".75" stroke-linecap="round" stroke-linejoin="round" fill="none" stroke="#000000" d="M439.85227-.768182C439.26753 12.036103 429.24 22.601967 417.9118 22.54425 405.9454 22.061223 396.35496 12.630732 395.15296-.005315 395.05216-12.911939 405.06227-21.499373 417.96116-22.049235 428.89765-22.537943 438.94404-12.140218 439.85227-.768182Z"/>
<path transform="matrix(1,0,0,-1,117.42975,95.33809)" stroke-width=".75" stroke-linecap="round" stroke-linejoin="round" fill="none" stroke="#000000" d="M-64.093639-.389699C-50.41647-.35949-35.893354-.211275-22.005513-.246826"/>
<path transform="matrix(1,0,0,-1,117.42975,95.33809)" stroke-width=".75" stroke-linecap="round" stroke-linejoin="round" fill="none" stroke="#000000" d="M-34.50674-7.809916C-31.192214-4.055332-26.208834-1.579505-21.224656 .446928-26.35649 .821488-31.33585 4.097535-34.413175 7.644894"/>
<path transform="matrix(1,0,0,-1,117.42975,95.33809)" stroke-width=".75" stroke-linecap="round" stroke-linejoin="round" fill="none" stroke="#000000" d="M21.712067 .003168C35.663335 .194926 50.02243-.16943 63.482286 .173429"/>
<path transform="matrix(1,0,0,-1,117.42975,95.33809)" stroke-width=".75" stroke-linecap="round" stroke-linejoin="round" fill="none" stroke="#000000" d="M51.420507-7.732184C54.4551-4.053503 58.52269-1.607137 63.566705-.00025 59.183748 1.567575 54.65161 4.174176 51.049 8.245246"/>
<path transform="matrix(1,0,0,-1,117.42975,95.33809)" stroke-width=".75" stroke-linecap="round" stroke-linejoin="round" fill="none" stroke="#000000" d="M139.61879 .041263C153.76943-.401285 167.21765 .286407 181.34618-.257877"/>
<path transform="matrix(1,0,0,-1,117.42975,95.33809)" stroke-width=".75" stroke-linecap="round" stroke-linejoin="round" fill="none" stroke="#000000" d="M169.14665-7.763073C171.74137-3.57558 176.31227-1.502185 181.86647-.28668 176.28485 1.125752 171.79744 4.441492 169.33467 7.89914"/>
<path transform="matrix(1,0,0,-1,117.42975,95.33809)" stroke-width=".75" stroke-linecap="round" stroke-linejoin="round" fill="none" stroke="#000000" d="M224.97757 .393901C239.54203 .163822 253.64133-.272134 267.6258 .100252"/>
<path transform="matrix(1,0,0,-1,117.42975,95.33809)" stroke-width=".75" stroke-linecap="round" stroke-linejoin="round" fill="none" stroke="#000000" d="M254.34044-8.280288C257.62629-4.245752 262.25508-.734324 267.18638 .280853 262.45075 .765116 257.51863 4.151674 254.45598 7.722748"/>
<path transform="matrix(1,0,0,-1,117.42975,95.33809)" stroke-width=".75" stroke-linecap="round" stroke-linejoin="round" fill="none" stroke="#000000" d="M352.86875 .225454C366.75798 .122597 381.11283-.232674 395.04173-.378572"/>
<path transform="matrix(1,0,0,-1,117.42975,95.33809)" stroke-width=".75" stroke-linecap="round" stroke-linejoin="round" fill="none" stroke="#000000" d="M382.28208-7.932319C385.6478-3.962499 390.49339-1.157687 394.95689 .111238 390.3281 1.507769 385.3848 4.038278 382.45597 7.644216"/>
<path transform="matrix(1,0,0,-1,117.42975,95.33809)" stroke-width=".75" stroke-linecap="round" stroke-linejoin="round" fill="none" stroke="#000000" d="M438.9393 .06058C466.93757-.257803 495.23216 .174436 524.1497 .32729"/>
<path transform="matrix(1,0,0,-1,117.42975,95.33809)" stroke-width=".75" stroke-linecap="round" stroke-linejoin="round" fill="none" stroke="#000000" d="M510.83506-7.698224C514.07467-4.120698 519.17086-1.589999 523.9908 .314914 518.813 1.312627 514.77786 3.582364 511.20704 7.779481"/>
<path transform="matrix(1,0,0,-1,117.42975,95.33809)" stroke-width=".75" stroke-linecap="round" stroke-linejoin="round" fill="none" stroke="#000000" d="M481.62669 .371531C481.30085-22.115649 481.34306-45.377805 481.753-67.29754 424.3671-67.14294 367.56208-67.89008 310.35694-67.38042 206.55142-67.730678 103.38419-67.12818 .092354-67.07359 .383067-51.887136-.200569-37.21756 .021865-21.214015"/>
<path transform="matrix(1,0,0,-1,117.42975,95.33809)" stroke-width=".75" stroke-linecap="round" stroke-linejoin="round" fill="none" stroke="#000000" d="M7.773454-33.97405C4.019516-31.27417 1.496263-26.255198-.227522-21.727009-1.367935-26.936404-3.845238-31.022194-8.356569-34.3029"/>
<path transform="matrix(1,0,0,-1,117.42975,95.33809)" stroke-width=".75" stroke-linecap="round" stroke-linejoin="round" fill="none" stroke="#000000" d="M203.88459 64.59023C203.60349 49.86873 203.51856 35.882135 203.55457 21.649849"/>
<path transform="matrix(1,0,0,-1,117.42975,95.33809)" stroke-width=".75" stroke-linecap="round" stroke-linejoin="round" fill="none" stroke="#000000" d="M195.22714 34.40118C199.44112 31.361443 202.48697 27.420956 203.81418 22.20064 204.62516 27.367169 207.32199 31.20743 211.43643 34.888616"/>
<path transform="matrix(1,0,0,-1,117.42975,95.33809)" stroke-width=".75" stroke-linecap="round" stroke-linejoin="round" fill="none" stroke="#000000" d="M417.14308 64.57428C416.9585 49.693235 416.9888 35.641008 417.23435 21.962573"/>
<path transform="matrix(1,0,0,-1,117.42975,95.33809)" stroke-width=".75" stroke-linecap="round" stroke-linejoin="round" fill="none" stroke="#000000" d="M408.8367 34.229738C413.46116 31.931515 415.74693 27.21812 417.10533 21.978518 418.7403 26.795584 421.35008 31.934342 425.354 34.82387"/>
<use data-text="+" xlink:href="#font_6_12" transform="matrix(17.932744,0,0,-17.932789,82.116138,87.86187)"/>
<use data-text="&#x2212;" xlink:href="#font_6_14" transform="matrix(17.932682,0,0,-17.932772,123.57966,124.959178)"/>
<use data-text="+" xlink:href="#font_6_12" transform="matrix(17.932744,0,0,-17.932789,285.7376,87.86187)"/>
<use data-text="+" xlink:href="#font_6_12" transform="matrix(17.932744,0,0,-17.932789,327.20118,69.22981)"/>
<use data-text="+" xlink:href="#font_6_12" transform="matrix(17.932744,0,0,-17.932789,499.36445,87.86187)"/>
<use data-text="+" xlink:href="#font_6_12" transform="matrix(17.932744,0,0,-17.932789,540.828,69.22981)"/>
<use data-text="R" xlink:href="#font_6_16" transform="matrix(21.51917,0,0,-21.519387,6.81427,100.71483)"/>
<use data-text="(" xlink:href="#font_6_2" transform="matrix(21.51917,0,0,-21.519387,19.919445,100.71483)"/>
<use data-text="s" xlink:href="#font_6_7" transform="matrix(21.51917,0,0,-21.519387,29.464489,100.71483)"/>
<use data-text=")" xlink:href="#font_6_4" transform="matrix(21.51917,0,0,-21.519387,40.451318,100.71483)"/>
<use data-text="Y" xlink:href="#font_6_9" transform="matrix(21.519528,0,0,-21.519387,645.8484,100.71483)"/>
<use data-text="(" xlink:href="#font_6_2" transform="matrix(21.519528,0,0,-21.519387,658.9963,100.71483)"/>
<use data-text="s" xlink:href="#font_6_7" transform="matrix(21.519528,0,0,-21.519387,668.54147,100.71483)"/>
<use data-text=")" xlink:href="#font_6_4" transform="matrix(21.519528,0,0,-21.519387,679.52847,100.71483)"/>
<use data-text="D" xlink:href="#font_6_17" transform="matrix(21.519133,0,0,-21.519387,292.59638,22.127366)"/>
<use data-text="1" xlink:href="#font_6_10" transform="matrix(16.438223,0,0,-16.438418,310.40443,26.426468)"/>
<use data-text="(" xlink:href="#font_6_2" transform="matrix(21.519133,0,0,-21.519387,320.6398,22.127366)"/>
<use data-text="s" xlink:href="#font_6_7" transform="matrix(21.519133,0,0,-21.519387,330.18486,22.127366)"/>
<use data-text=")" xlink:href="#font_6_4" transform="matrix(21.519133,0,0,-21.519387,341.1717,22.127366)"/>
<use data-text="D" xlink:href="#font_6_17" transform="matrix(21.519133,0,0,-21.519387,506.2232,22.127366)"/>
<use data-text="2" xlink:href="#font_6_11" transform="matrix(16.438223,0,0,-16.438418,524.03128,26.360764)"/>
<use data-text="(" xlink:href="#font_6_2" transform="matrix(21.519133,0,0,-21.519387,534.2666,22.127366)"/>
<use data-text="s" xlink:href="#font_6_7" transform="matrix(21.519133,0,0,-21.519387,543.8116,22.127366)"/>
<use data-text=")" xlink:href="#font_6_4" transform="matrix(21.519133,0,0,-21.519387,554.7984,22.127366)"/>
</svg>
