<svg xmlns="http://www.w3.org/2000/svg" xmlns:xlink="http://www.w3.org/1999/xlink" xmlns:inkscape="http://www.inkscape.org/namespaces/inkscape" version="1.1" width="325.06645" height="66.76661" viewBox="0 0 325.06645 66.76661">
<defs>
<path id="font_0_1" d="M.44799806 0C.4889984 0 .49798585 .053985597 .49798585 .083984378 .49798585 .083984378 .47999574 .068984989 .4119873 .068984989H.1639862V.6599579C.1639862 .70996096 .07998657 .70996096 .07998657 .70996096V.049987794C.07998657 0 .1639862 0 .1639862 0H.44799806Z"/>
<path id="font_0_2" d="M.47499085 .63119509C.5359955 .6308899 .54499819 .6848602 .54499819 .71484377 .54499819 .7151947 .5269928 .7001953 .45899964 .7001953H.08799744C.019989014 .69984439 .0019989014 .71484377 .0019989014 .71484377 .0019989014 .68518069 .010986328 .63119509 .07199097 .63119509H.22999573V.040222169C.22999573-.009765625 .31399537-.009765625 .31399537-.009765625V.63119509H.47499085Z"/>
<path id="font_0_3" d="M.07998657 .04020691C.07998657-.009765625 .1639862-.009765625 .1639862-.009765625V.65997317C.1639862 .70996096 .07998657 .70996096 .07998657 .70996096V.04020691Z"/>
<path id="font_0_4" d="M0 0Z"/>
<path id="font_0_5" d="M.08799744 .18418885C.07199097 .1532135 .06498718 .12623596 .06498718 .10424805 .06498718 .008270264 .20199585-.01171875 .32099916-.01171875 .46798707-.01171875 .58200076 .059280397 .58200076 .20018006 .58200076 .49899293 .13798523 .33110047 .13798523 .51997378 .13798523 .6079254 .20799256 .63790896 .31599427 .63790896 .42900086 .63790896 .5349884 .62091067 .5349884 .5159912 .5509949 .5479584 .55799868 .5749512 .55799868 .5969391 .55799868 .6919098 .43499757 .71191409 .31599427 .71191409 .16899109 .71191409 .049987794 .66490176 .049987794 .5109863 .049987794 .24215698 .49398805 .4050598 .49398805 .19519043 .49398805 .115234378 .43399049 .06227112 .32099916 .06227112 .20799256 .06227112 .08799744 .07926941 .08799744 .18418885Z"/>
<path id="font_0_6" d="M.039993287 .50683596 .05999756 .31184388C.07299805 .18284607 .14898682 .082839969 .20199585 .05683899 .12998963 .005844116 .06399536-.056152345 .06399536-.14414978 .06399536-.22914124 .115997318-.24414063 .1459961-.24414063 .15699768-.24414063 .1659851-.24014282 .16799927-.239151 .1519928-.20414734 .14498902-.17515564 .14498902-.14915467 .14498902-.08015442 .19499207-.038146974 .2630005 .014846802L.3019867 .04484558C.36099244 .08984375 .43598939 .17784119 .44999696 .31184388L.46998597 .50683596C.46998597 .50683596 .3929901 .50683596 .3869934 .4568329L.36698915 .2898407C.35299684 .1708374 .25498963 .098846439 .25498963 .098846439 .25498963 .098846439 .15699768 .1708374 .14299011 .2898407L.12298584 .4568329C.116989139 .50683596 .039993287 .50683596 .039993287 .50683596Z"/>
<path id="font_0_7" d="M.039993287 .35583497C.039993287 .14614868 .3619995 .28894044 .3619995 .1451416 .3619995 .095214847 .33898927 .058273317 .23599243 .058273317 .1329956 .058273317 .069992069 .09422302 .069992069 .16412354 .050994874 .13417053 .042999269 .109191898 .042999269 .0872345 .042999269 .01727295 .1309967-.01171875 .23599243-.01171875 .37298585-.01171875 .44198609 .04927063 .44198609 .14015198 .44198609 .3718109 .11999512 .23701477 .11999512 .35583497 .11999512 .41575624 .14299011 .44171144 .23599243 .44171144 .33898927 .44171144 .3919983 .4047699 .3919983 .3358612 .4119873 .3668213 .42099 .39378358 .42099 .41575624 .42099 .4837036 .33898927 .51171877 .23599243 .51171877 .10899353 .51171877 .039993287 .45671083 .039993287 .35583497Z"/>
<path id="font_0_8" d="M.069992069 .14929199C.069992069 .04827881 .13899231-.01171875 .24598694-.01171875 .32699586-.01171875 .40899659 .022277832 .40899659 .090286258 .40899659 .11128235 .40098573 .1362915 .38198854 .16429138 .38198854 .09628296 .32299806 .058273317 .2539978 .058273317 .1749878 .058273317 .1499939 .105285648 .1499939 .17729187V.41635133H.30899049C.35798646 .41635133 .35899354 .48535157 .35899354 .48535157H.1499939V.5682068C.1499939 .61813357 .069992069 .6191406 .069992069 .6191406V.14929199Z"/>
<path id="font_0_9" d="M.43199159 .16400147C.43199159 .094177249 .35899354 .058273317 .27198792 .058273317 .1789856 .058273317 .13999939 .094177249 .13999939 .16400147V.23687744C.1639862 .21987915 .21598816 .21289063 .25 .21289063 .39698792 .21289063 .45199586 .2798767 .45199586 .36079408 .45199586 .45170594 .3889923 .51171877 .2619934 .51171877 .1349945 .51171877 .05999756 .45170594 .05999756 .35081483V.14904785C.05999756 .04827881 .13899231-.01171875 .2659912-.01171875 .3639984-.01171875 .45799256 .024276734 .45799256 .094177249 .45799256 .11512756 .44999696 .13807678 .43199159 .16400147M.13999939 .3358307C.13999939 .40574647 .17298889 .4467163 .2619934 .4467163 .34399415 .4467163 .37199403 .41174317 .37199403 .36079408 .37199403 .31185914 .33898927 .2828827 .24398804 .2828827 .20098877 .2828827 .14099121 .29885865 .13999939 .30085755V.3358307Z"/>
<path id="font_0_10" d="M.71199038 .04310608C.71199038-.005844116 .7919922-.0068359377 .7919922-.0068359377V.35879518C.7919922 .46670533 .69999697 .51171877 .60899356 .51171877 .5069885 .51171877 .45298768 .475708 .43399049 .4577179 .40699769 .4947052 .33999635 .51171877 .28399659 .51171877 .22698975 .511322 .17799378 .48832704 .1269989 .48832704 .10899353 .48832704 .069992069 .5063324 .069992069 .5063324V.043060304C.069992069-.0068359377 .1499939-.0068359377 .1499939-.0068359377V.42137147C.1499939 .42137147 .19699097 .44433595 .269989 .44433595 .35899354 .44433595 .3909912 .41537477 .3909912 .34651185V.043060304C.3909912-.0068359377 .47099305-.0068359377 .47099305-.0068359377V.3634796C.47099305 .4084015 .5179901 .44433595 .59098818 .44433595 .66799929 .44433595 .71199038 .41537477 .71199038 .34651185V.04310608Z"/>
<path id="font_1_1" d="M-.0010070801 .39526368 .011993408 .3752594C.034988405 .3882599 .068984989 .40527345 .08299255 .40527345 .09498596 .40527345 .10499573 .40325929 .11099243 .39627076 .12399292 .38226319 .12799073 .3662567 .12799073 .2752533 .12799073 .24624634 .12399292 .14523316 .12399292 .11222839 .12399292 .041229249 .14698792-.009765625 .22898865-.009765625 .2889862-.00982666 .37998963 .043182374 .4169922 .06518555L.4249878 .06417847C.4269867 .045181276 .42999269-.0078125 .49398805-.0078125 .54599-.0078125 .625 .060180665 .6549988 .08618164L.6439972 .10519409 .6359863 .10719299C.61898806 .095184329 .57199099 .06518555 .548996 .06518555 .5369873 .06518555 .5249939 .07017517 .5159912 .07917786 .5 .095184329 .5 .14520264 .5 .18121338 .5 .2732544 .5039978 .3662567 .5119934 .45925904L.49899293 .47026063 .42199708 .43527223C.4229889 .41226197 .4229889 .3692627 .4229889 .31825257 .4229889 .24925232 .4229889 .1662445 .42199708 .10423279 .39698792 .0892334 .33198548 .051223756 .29100038 .051223756 .20899964 .051223756 .20098877 .11022949 .20098877 .24424744 .20098877 .2962494 .20098877 .3792572 .19898987 .39926148 .19699097 .41926576 .19499207 .43927003 .18099976 .45326234 .16899109 .465271 .15098572 .46826173 .1349945 .46826173 .09599304 .46826173 .024993897 .41526795-.0010070801 .39526368Z"/>
<path id="font_1_2" d="M.11299133 .24990845C.11299133 .007904053 .1519928-.09008789 .18299866-.13310242 .21099854-.17008972 .25299073-.20809937 .30099488-.21209717V-.1880951C.2809906-.18409729 .25099183-.16809082 .23399353-.1481018 .21998596-.13209534 .16499329-.05809021 .16499329 .24990845 .16499329 .4618988 .19799805 .5659027 .21998596 .6128998 .23599243 .6469116 .2689972 .6769104 .30099488 .684906V.71191409C.2599945 .7049103 .21598816 .6729126 .19099427 .63790896 .1599884 .5919037 .11299133 .4748993 .11299133 .24990845Z"/>
<path id="font_1_3" d="M.016998291 .40538026 .021987915 .40039063H.13398743L.13999939 .39338685V.20327759C.13999939 .06820679 .14199829 .049209596 .16299439 .022201539 .18099976-.0018005371 .21199036-.0087890629 .23498535-.0087890629 .2619934-.0087890629 .2869873 .0012054443 .31098939 .014205933 .34298707 .031204224 .37199403 .05419922 .39898683 .07922363L.3919983 .09422302 .37998963 .096221927C.34999085 .07720947 .31399537 .0552063 .2889862 .0552063 .27198792 .0552063 .25698854 .06021118 .24398804 .07521057 .22200012 .099227908 .21798706 .16325379 .21798706 .20527649V.39437867L.22399903 .40039063H.34298707L.34899903 .40538026 .35699464 .43138124 .35198976 .43537904H.22399903L.21798706 .4403839C.21899414 .49838258 .22399903 .54937747 .22898865 .6063843L.22200012 .61138918 .13798523 .5823822C.13999939 .5563812 .13999939 .49238587 .13999939 .44137574L.13398743 .43537904H.02999878L.023986817 .42938233 .016998291 .40538026Z"/>
<path id="font_1_4" d="M.085998538-.1880951V-.21209717C.13398743-.20610047 .1789856-.17208863 .20698548-.13510132 .23799134-.09210205 .27598573 .007904053 .27598573 .24990845 .27598573 .50090029 .22399903 .5919037 .19299317 .63790896 .16799927 .6729126 .1269989 .7049103 .085998538 .71191409V.684906C.117996219 .6759033 .14898682 .6469116 .16499329 .6128998 .18699646 .5659027 .22399903 .48190309 .22399903 .24990845 .22399903-.099090579 .17199707-.13209534 .1579895-.1481018 .14099121-.16809082 .10598755-.18409729 .085998538-.1880951Z"/>
<path id="font_1_5" d="M-.01701355 .40115357-.006011963 .38215638C.016998291 .39414979 .04798889 .41015626 .06498718 .41015626 .07699585 .41015626 .08898926 .4061432 .09599304 .39614869 .10798645 .38015748 .11099243 .33815003 .11099243 .29415895 .11099243 .26815797 .10699463 .1771698 .10699463 .15716553 .10699463 .059173585 .12599182-.0078125 .21099854-.0078125 .27198792-.0078125 .36499024 .048187257 .39898683 .06918335L.40499879 .06417847C.39898683-.02079773 .4019928-.19143677 .2559967-.19143677 .21099854-.19143677 .17298889-.1525116 .1519928-.114593509H.13899231L.09498596-.17047119 .09700012-.18145752C.12399292-.20942688 .1769867-.23242188 .22399903-.23242188 .2919922-.23242188 .36299134-.20843506 .41099549-.15750122 .45999146-.10560608 .48399354-.049728395 .4850006 .13816834 .4850006 .15716553 .4850006 .37615968 .4909973 .46214295L.47898866 .466156 .3999939 .42814637C.40499879 .35914613 .4079895 .28715516 .4079895 .21516419 .4079895 .1791687 .40699769 .14317322 .4059906 .108169559 .38598634 .09617615 .32598878 .05618286 .27198792 .05618286 .20799256 .05618286 .18099976 .092178348 .18099976 .22616577 .18099976 .28416444 .18499756 .34214784 .18499756 .39814759 .18499756 .41914369 .17799378 .4681549 .12199402 .4681549 .07899475 .4681549-.009002686 .40715028-.01701355 .40115357Z"/>
</defs>
<use data-text="L" xlink:href="#font_0_1" transform="matrix(21.51902,0,0,-21.519337,110.69006,38.4269)"/>
<use data-text="T" xlink:href="#font_0_2" transform="matrix(21.51902,0,0,-21.519337,118.954868,38.4269)"/>
<use data-text="I" xlink:href="#font_0_3" transform="matrix(21.51902,0,0,-21.519337,130.72579,38.4269)"/>
<use data-text=" " xlink:href="#font_0_4" transform="matrix(21.51902,0,0,-21.519337,135.97643,38.4269)"/>
<use data-text="S" xlink:href="#font_0_5" transform="matrix(21.51902,0,0,-21.519337,142.00174,38.4269)"/>
<use data-text="y" xlink:href="#font_0_6" transform="matrix(21.51902,0,0,-21.519337,155.60178,38.4269)"/>
<use data-text="s" xlink:href="#font_0_7" transform="matrix(21.51902,0,0,-21.519337,166.36128,38.4269)"/>
<use data-text="t" xlink:href="#font_0_8" transform="matrix(21.51902,0,0,-21.519337,176.73345,38.4269)"/>
<use data-text="e" xlink:href="#font_0_9" transform="matrix(21.51902,0,0,-21.519337,185.66385,38.4269)"/>
<use data-text="m" xlink:href="#font_0_10" transform="matrix(21.51902,0,0,-21.519337,196.5955,38.4269)"/>
<path transform="matrix(1,0,0,-1,162.8881,33.36203)" stroke-width=".75" stroke-linecap="round" stroke-linejoin="round" fill="none" stroke="#000000" d="M-51.53561-24.553662C-51.473566-24.53273-52.824518-25.068978-51.533868-25.358016-16.853886-24.866112 16.833579-25.092503 51.50453-24.567429 68.05458-24.635893 68.013889-24.527068 67.96988-9.958855 67.8372-3.394907 66.345767 3.086271 66.96384 10.569286 66.799579 25.843775 66.25054 24.389573 52.394437 26.17305 16.60085 25.86224-16.50124 25.706202-53.017213 24.749913-66.50445 25.368626-67.01022 25.131297-67.308879 11.098432-66.48192 3.153563-67.05134-3.203407-67.36729-10.466589-66.49074-25.536189-67.8388-26.24128-51.53561-24.553662Z"/>
<path transform="matrix(1,0,0,-1,162.8881,33.36203)" stroke-width=".75" stroke-linecap="round" stroke-linejoin="round" fill="none" stroke="#000000" d="M-110.075809 .087934C-95.539 .219723-81.30519 .268542-67.95215-.236251"/>
<path transform="matrix(1,0,0,-1,162.8881,33.36203)" stroke-width=".75" stroke-linecap="round" stroke-linejoin="round" fill="none" stroke="#000000" d="M-80.66589-8.312829C-76.86338-4.262754-72.69211-1.253068-67.57071-.401984-72.89291 1.429165-77.166957 4.34276-79.87611 7.746136"/>
<path transform="matrix(1,0,0,-1,162.8881,33.36203)" stroke-width=".75" stroke-linecap="round" stroke-linejoin="round" fill="none" stroke="#000000" d="M66.93206-.25382C81.13946 .443987 95.40134 .168943 110.14924 .36274"/>
<path transform="matrix(1,0,0,-1,162.8881,33.36203)" stroke-width=".75" stroke-linecap="round" stroke-linejoin="round" fill="none" stroke="#000000" d="M97.36214-8.02736C100.65678-4.407785 104.98034-1.556807 110.139537 .278599 104.437007 1.52481 100.10171 4.295965 97.4915 7.907372"/>
<path transform="matrix(1,0,0,-1,162.8881,33.36203)" stroke-width=".75" stroke-linecap="round" stroke-linejoin="round" fill="none" stroke="#000000" d="M-53.043405-24.862992C-51.73336-25.711884-52.202718-25.325934-51.230535-25.564419-18.090388-24.762946 17.520625-26.24004 51.385797-25.476218 67.4388-24.967415 67.64292-26.084145 67.81492-10.495707 66.753978-2.536018 67.44045 3.269332 67.709949 10.440452 67.01509 24.835528 68.11392 26.190127 51.853925 25.255225 18.094969 24.971379-18.078404 25.037425-52.06558 24.985119-66.26037 26.139575-67.45551 24.910113-68.16405 9.693762-67.30376 3.175708-66.37724-2.462868-67.15833-9.626913-66.7218-24.628415-67.3863-25.739506-53.043405-24.862992Z"/>
<path transform="matrix(1,0,0,-1,162.8881,33.36203)" stroke-width=".75" stroke-linecap="round" stroke-linejoin="round" fill="none" stroke="#000000" d="M-109.66205-.415755C-95.98328-.008925-81.58504-.215646-67.881519 .235689"/>
<path transform="matrix(1,0,0,-1,162.8881,33.36203)" stroke-width=".75" stroke-linecap="round" stroke-linejoin="round" fill="none" stroke="#000000" d="M-80.54644-8.112008C-76.91702-4.342435-72.27797-1.436633-67.63146-.156641-72.76297 .805889-76.764537 4.302675-80.582347 7.892397"/>
<path transform="matrix(1,0,0,-1,162.8881,33.36203)" stroke-width=".75" stroke-linecap="round" stroke-linejoin="round" fill="none" stroke="#000000" d="M67.64716 .449827C81.818477 .074209 95.26784 .296832 109.78952 .126102"/>
<path transform="matrix(1,0,0,-1,162.8881,33.36203)" stroke-width=".75" stroke-linecap="round" stroke-linejoin="round" fill="none" stroke="#000000" d="M96.73144-7.881659C99.79913-4.249418 104.52172-1.158163 109.97153 .081991 105.05446 1.59517 100.11298 3.888301 97.44466 8.199636"/>
<path transform="matrix(1,0,0,-1,162.8881,33.36203)" stroke-width=".75" stroke-linecap="round" stroke-linejoin="round" fill="none" stroke="#000000" d="M-51.29008-26.215613C-51.74319-25.72185-51.982286-25.122786-51.335397-25.17182-17.661444-25.260077 17.744906-25.67668 52.973829-25.05491 66.33199-25.551692 67.695728-25.54157 66.70716-10.274348 66.82424-3.509318 67.57094 3.114229 67.45886 9.480414 66.89077 25.438584 67.31146 26.170498 51.97571 24.696486 18.279597 24.568696-17.09503 25.434737-52.33602 24.784329-67.30078 25.61673-67.04604 26.240456-66.78696 10.456102-66.852489 3.794264-67.15343-2.833342-66.599-10.568964-66.60758-25.428984-66.34995-25.762207-51.29008-26.215613Z"/>
<path transform="matrix(1,0,0,-1,162.8881,33.36203)" stroke-width=".75" stroke-linecap="round" stroke-linejoin="round" fill="none" stroke="#000000" d="M-109.4474-.276856C-96.08119 .035925-81.89167-.370612-67.23689-.236522"/>
<path transform="matrix(1,0,0,-1,162.8881,33.36203)" stroke-width=".75" stroke-linecap="round" stroke-linejoin="round" fill="none" stroke="#000000" d="M-80.223598-7.795814C-77.38798-3.962512-72.886348-1.049677-67.62265 .218074-72.62459 1.233793-77.18319 3.740335-80.25131 8.090695"/>
<path transform="matrix(1,0,0,-1,162.8881,33.36203)" stroke-width=".75" stroke-linecap="round" stroke-linejoin="round" fill="none" stroke="#000000" d="M66.96985 .145455C81.19863 .272071 95.72111 .010795 109.494289-.370329"/>
<path transform="matrix(1,0,0,-1,162.8881,33.36203)" stroke-width=".75" stroke-linecap="round" stroke-linejoin="round" fill="none" stroke="#000000" d="M96.69219-8.333925C100.56576-4.012015 104.63467-1.57094 109.34506 .416678 104.95178 1.456523 100.371 4.004444 96.830959 8.171105"/>
<path transform="matrix(1,0,0,-1,162.8881,33.36203)" stroke-width=".75" stroke-linecap="round" stroke-linejoin="round" fill="none" stroke="#000000" d="M-53.001207-26.148804C-51.7756-25.467932-52.318223-25.25781-51.33001-24.975932-16.804776-24.382525 17.897812-25.282919 52.13704-24.682124 67.55257-24.885275 66.26864-25.482357 67.31613-9.878775 67.96656-3.37945 67.204319 2.789249 67.71752 9.471084 67.43883 25.41477 67.84157 24.72278 52.55033 25.188624 17.917662 26.155268-17.029152 24.45853-52.73186 25.674273-66.43367 24.581086-66.53403 26.033156-67.257549 11.147064-66.84888 4.26087-67.83022-2.801563-67.56167-9.746818-67.958919-25.821406-66.67849-26.252486-53.001207-26.148804Z"/>
<path transform="matrix(1,0,0,-1,162.8881,33.36203)" stroke-width=".75" stroke-linecap="round" stroke-linejoin="round" fill="none" stroke="#000000" d="M-109.95187-.334463C-95.65234 .208403-81.3387 .381461-67.968349 .334379"/>
<path transform="matrix(1,0,0,-1,162.8881,33.36203)" stroke-width=".75" stroke-linecap="round" stroke-linejoin="round" fill="none" stroke="#000000" d="M-80.5798-7.800108C-76.84806-3.687738-72.3481-1.583574-67.65965 .084775-73.03147 1.520483-76.74346 4.111175-79.81574 7.749974"/>
<path transform="matrix(1,0,0,-1,162.8881,33.36203)" stroke-width=".75" stroke-linecap="round" stroke-linejoin="round" fill="none" stroke="#000000" d="M67.4609-.137962C81.288219 .182821 95.92177 .354749 109.95985 .440236"/>
<path transform="matrix(1,0,0,-1,162.8881,33.36203)" stroke-width=".75" stroke-linecap="round" stroke-linejoin="round" fill="none" stroke="#000000" d="M96.738368-8.467481C99.88904-3.693365 104.75137-1.396386 110.094577-.000467 104.29665 1.055269 99.99585 3.675622 97.45999 7.703094"/>
<path transform="matrix(1,0,0,-1,162.8881,33.36203)" stroke-width=".75" stroke-linecap="round" stroke-linejoin="round" fill="none" stroke="#000000" d="M-52.257268-25.796057C-53.164949-24.739243-52.84235-25.08728-52.020025-25.016432-17.24089-25.257262 16.8487-25.126454 52.483484-25.65629 67.73953-24.739058 66.96056-25.518839 66.598888-10.011396 67.78567-3.811606 67.551998 3.777883 67.940448 10.840584 67.968868 24.97779 66.52681 25.837712 53.04854 25.628239 16.729018 24.418259-18.355633 25.815339-51.9437 24.674246-66.36572 24.414864-66.58993 24.50612-67.94471 11.040141-67.26183 4.025233-66.401119-3.420792-67.8388-9.479237-66.480159-25.772589-68.14544-24.429657-52.257268-25.796057Z"/>
<path transform="matrix(1,0,0,-1,162.8881,33.36203)" stroke-width=".75" stroke-linecap="round" stroke-linejoin="round" fill="none" stroke="#000000" d="M-109.59803-.30712C-95.37894-.036942-81.38326 .232857-67.77289-.045607"/>
<path transform="matrix(1,0,0,-1,162.8881,33.36203)" stroke-width=".75" stroke-linecap="round" stroke-linejoin="round" fill="none" stroke="#000000" d="M-79.811107-8.235229C-76.87842-4.302178-72.876689-1.122731-67.64185 .397105-72.333889 1.56628-77.26332 4.055917-80.22939 8.003809"/>
<path transform="matrix(1,0,0,-1,162.8881,33.36203)" stroke-width=".75" stroke-linecap="round" stroke-linejoin="round" fill="none" stroke="#000000" d="M67.17256 .255421C81.79588-.04869 95.814769 .225706 109.66011 .221258"/>
<path transform="matrix(1,0,0,-1,162.8881,33.36203)" stroke-width=".75" stroke-linecap="round" stroke-linejoin="round" fill="none" stroke="#000000" d="M96.92817-8.402058C100.660709-4.175423 104.446208-1.094642 109.666889-.146192 104.824817 1.530056 100.07549 4.011646 97.016849 7.739007"/>
<use data-text="u" xlink:href="#font_1_1" transform="matrix(21.519272,0,0,-21.519387,6.835808,38.73876)"/>
<use data-text="(" xlink:href="#font_1_2" transform="matrix(21.519272,0,0,-21.519387,20.65118,38.73876)"/>
<use data-text="t" xlink:href="#font_1_3" transform="matrix(21.519272,0,0,-21.519387,30.19627,38.73876)"/>
<use data-text=")" xlink:href="#font_1_4" transform="matrix(21.519272,0,0,-21.519387,40.3439,38.73876)"/>
<use data-text="y" xlink:href="#font_1_5" transform="matrix(21.519188,0,0,-21.519213,277.4707,38.512968)"/>
<use data-text="(" xlink:href="#font_1_2" transform="matrix(21.519188,0,0,-21.519213,290.23158,38.512968)"/>
<use data-text="t" xlink:href="#font_1_3" transform="matrix(21.519188,0,0,-21.519213,299.77665,38.512968)"/>
<use data-text=")" xlink:href="#font_1_4" transform="matrix(21.519188,0,0,-21.519213,309.92427,38.512968)"/>
</svg>
