<svg xmlns="http://www.w3.org/2000/svg" xmlns:xlink="http://www.w3.org/1999/xlink" xmlns:inkscape="http://www.inkscape.org/namespaces/inkscape" version="1.1" width="419.6959" height="158.2219" viewBox="0 0 419.6959 158.2219">
<defs>
<path id="font_5_12" d="M.04598999 .23632813H.35598756V-.07368469L.3959961-.06668091V.23632813H.70399478L.70899966 .2763214H.3959961V.58631899L.35598756 .58032229V.2763214H.052993776L.04598999 .23632813Z"/>
<path id="font_5_6" d="M.08999634 .32458497C.08999634 .22958374 .114990238 .13148499 .18299866 .06341553 .23699951 .009384155 .31199647-.016601563 .3880005-.016601563 .46099855-.016601563 .56900027 .010391235 .6569977 .03338623 .6569977 .03338623 .6539917 .216568 .6519928 .30760194L.37599183 .2966156V.27061463L.38198854 .265625C.43598939 .26361085 .5 .25961305 .5439911 .25660707 .57199099 .25460816 .57199099 .22257996 .57199099 .13449097 .57199099 .061416627 .56900027 .04940796 .5519867 .045394899 .5209961 .038391115 .48999024 .03538513 .45799256 .03538513 .37998963 .03538513 .30599977 .060409547 .2619934 .112472537 .20399475 .18052674 .17999268 .25260926 .17999268 .3405609 .17999268 .48339845 .23199463 .5653076 .26098634 .5942688 .3039856 .63623049 .36299134 .6502075 .42199708 .6502075 .5529938 .6502075 .59298709 .5563202 .60598757 .53034976L.6179962 .5293579 .6759949 .58628848C.6649933 .6032715 .6119995 .69921877 .46699525 .69921877 .3619995 .69921877 .25698854 .6682129 .18199158 .593277 .11199951 .5233612 .08999634 .4224701 .08999634 .32458497Z"/>
<path id="font_5_2" d="M.11299133 .24990845C.11299133 .007904053 .1519928-.09008789 .18299866-.13310242 .21099854-.17008972 .25299073-.20809937 .30099488-.21209717V-.1880951C.2809906-.18409729 .25099183-.16809082 .23399353-.1481018 .21998596-.13209534 .16499329-.05809021 .16499329 .24990845 .16499329 .4618988 .19799805 .5659027 .21998596 .6128998 .23599243 .6469116 .2689972 .6769104 .30099488 .684906V.71191409C.2599945 .7049103 .21598816 .6729126 .19099427 .63790896 .1599884 .5919037 .11299133 .4748993 .11299133 .24990845Z"/>
<path id="font_5_7" d="M.051986696 .06642151C.06199646 .047409059 .07598877 .030395508 .09199524 .01638794 .12098694-.009613037 .16099549-.016601563 .19898987-.016601563 .2559967-.016601563 .31199647 .0023956299 .35099793 .044403078 .375 .06941223 .3869934 .10343933 .3869934 .13845825 .3869934 .1634674 .37298585 .18649292 .35499574 .20449829 .34098817 .21850586 .3039856 .24052429 .27198792 .25453187 .24299622 .26654054 .19999695 .2885437 .18798828 .30055238 .17298889 .31655885 .1619873 .3285675 .1619873 .35058595 .1619873 .3725891 .16899109 .39360047 .18499756 .4086151 .19999695 .42362977 .22200012 .43164063 .24398804 .43164063 .2639923 .43164063 .2849884 .42462159 .29599 .4066162 .30599977 .39060975 .30799867 .3715973 .30899049 .35359193L.32099916 .34657289 .37599183 .38360597C.375 .40560914 .3639984 .42662049 .34799195 .44163514 .32499696 .46263124 .29299928 .46662904 .2630005 .46662904 .21398926 .46662904 .16699219 .45063783 .1309967 .4176178 .10398865 .39360047 .08999634 .35858155 .08999634 .32356263 .08999634 .29154969 .10798645 .26353456 .1309967 .2425232 .1539917 .22250366 .18399048 .2084961 .21499634 .1954956 .24099732 .18447876 .2689972 .17248535 .28799439 .1534729 .30299378 .13845825 .31399537 .11845398 .31399537 .09744263 .31399537 .079422 .30499269 .062408449 .29299928 .04940796 .27799989 .03340149 .25099183 .021392823 .22898865 .021392823 .19898987 .021392823 .17199707 .03439331 .1499939 .055404664 .1269989 .076416019 .116989139 .10644531 .114990238 .13645935L.100997928 .13745117 .051986696 .06642151Z"/>
<path id="font_5_4" d="M.085998538-.1880951V-.21209717C.13398743-.20610047 .1789856-.17208863 .20698548-.13510132 .23799134-.09210205 .27598573 .007904053 .27598573 .24990845 .27598573 .50090029 .22399903 .5919037 .19299317 .63790896 .16799927 .6729126 .1269989 .7049103 .085998538 .71191409V.684906C.117996219 .6759033 .14898682 .6469116 .16499329 .6128998 .18699646 .5659027 .22399903 .48190309 .22399903 .24990845 .22399903-.099090579 .17199707-.13209534 .1579895-.1481018 .14099121-.16809082 .10598755-.18409729 .085998538-.1880951Z"/>
<path id="font_5_13" d="M.051986696 .6781769 .052993776 .6591797C.07299805 .65216067 .10899353 .6411438 .11299133 .6401367 .12298584 .6361389 .125 .6251221 .12599182 .6161041 .1309967 .53297427 .13198853 .44985963 .13198853 .36676026 .13198853 .24482727 .13198853 .11590576 .12199402 .0029907227L.12799073-.0020141602 .21998596 .025970459C.21699524 .051956178 .21499634 .10292053 .21499634 .1798706V.33377076C.21499634 .34075929 .22099304 .34576417 .22799683 .34576417H.57099917C.5799866 .34576417 .58299258 .33876039 .58299258 .33377076 .58299258 .23683167 .5799866 .11790466 .5779877 .020980835L.58898928 0 .73799136 .0078125 .74398806 .013809204 .7429962 .031799318C.72499087 .03981018 .66600039 .03981018 .66600039 .07879639 .66600039 .09979248 .6619873 .24076844 .6619873 .32176209 .6619873 .5129547 .66999819 .64515689 .6729889 .6841736L.66799929 .6901703 .5799866 .673172C.5799866 .58706668 .58299258 .48291017 .58299258 .3967743 .58299258 .39076234 .58200076 .38476563 .57099917 .38476563H.22499085C.21499634 .38476563 .21299744 .3917694 .21299744 .3967743 .21299744 .4618683 .21699524 .54600527 .21899414 .61109927 .21998596 .63414 .22200012 .6581726 .22599793 .6801758L.22099304 .6851654H.05899048L.051986696 .6781769Z"/>
<path id="font_5_14" d="M.04598999 .23046875H.70399478L.70999148 .27046205H.052993776L.04598999 .23046875Z"/>
<path id="font_5_8" d="M.033996583 .6733093 .035995485 .6533203C.037994386 .6533203 .07398987 .6443176 .09199524 .63931277 .12298584 .6313019 .125 .6222992 .125 .54229739 .125 .46427918 .12199402 .38627626 .12199402 .30825807 .12199402 .24723816 .12399292 .17323303 .12998963 .12721253 .1349945 .08821106 .1559906-.0087890629 .31399537-.0087890629 .39698792-.0087890629 .47698976 .02520752 .5469971 .07020569L.5549927 .064208988C.5549927 .048202516 .5549927 .032196046 .55599978 .016204834 .55799868 .0012054443 .57598879-.0047912599 .58799746-.0047912599 .61898806-.0047912599 .6899872 .016204834 .7409973 .032196046L.74598696 .03919983 .74198916 .05619812C.7220001 .05419922 .70399478 .048202516 .6839905 .048202516 .673996 .048202516 .6609955 .050201417 .6539917 .0592041 .6389923 .07620239 .6359863 .15222168 .6359863 .20223999 .6359863 .3642578 .6369934 .5733032 .6519928 .68733218L.6459961 .69433596 .55799868 .659317C.55599978 .47727967 .55400088 .2942505 .55400088 .11122131 .5 .079208377 .43998719 .052200319 .37799073 .052200319 .24598694 .052200319 .22399903 .13922119 .21598816 .16522217 .20599365 .19923401 .20199585 .23423767 .20199585 .26924134L.20999146 .54229739C.20999146 .55929568 .21598816 .6603241 .21798706 .67433169L.21099854 .6803131H.041992189L.033996583 .6733093Z"/>
<path id="font_5_9" d="M.022994996 .6513672C.036987306 .649353 .049987794 .6463623 .06298828 .6433563 .07199097 .6413574 .07998657 .6353607 .085998538 .62835696 .09599304 .61834719 .102996829 .60635378 .10899353 .5943451L.2579956 .29930116C.2579956 .19927979 .2579956 .0982666 .25498963-.0017547608L.2659912-.0107421879 .35598756 .018249512 .34700013 .30630494C.42999269 .4343109 .5039978 .5303345 .61499026 .675354L.61099246 .6933594 .526001 .6763611C.48999024 .619339 .4059906 .47431947 .397995 .46032716 .3849945 .4373169 .34199525 .36730958 .33898927 .3623047 .33599855 .3572998 .33198548 .353302 .32798768 .353302 .32199098 .353302 .31698609 .3592987 .31599427 .36131288L.1749878 .6863556H.02999878L.022994996 .67936709V.6513672Z"/>
</defs>
<use data-text="+" xlink:href="#font_5_12" transform="matrix(37.1808,0,0,-37.18035,106.57827,42.403169)"/>
<use data-text="G" xlink:href="#font_5_6" transform="matrix(21.51932,0,0,-21.519387,221.01663,38.26703)"/>
<use data-text="(" xlink:href="#font_5_2" transform="matrix(21.51932,0,0,-21.519387,237.47891,38.26703)"/>
<use data-text="s" xlink:href="#font_5_7" transform="matrix(21.51932,0,0,-21.519387,247.02402,38.26703)"/>
<use data-text=")" xlink:href="#font_5_4" transform="matrix(21.51932,0,0,-21.519387,258.01094,38.26703)"/>
<use data-text="H" xlink:href="#font_5_13" transform="matrix(21.519543,0,0,-21.519387,220.82309,130.65851)"/>
<use data-text="(" xlink:href="#font_5_2" transform="matrix(21.519543,0,0,-21.519387,237.67288,130.65851)"/>
<use data-text="s" xlink:href="#font_5_7" transform="matrix(21.519543,0,0,-21.519387,247.21811,130.65851)"/>
<use data-text=")" xlink:href="#font_5_4" transform="matrix(21.519543,0,0,-21.519387,258.20515,130.65851)"/>
<path transform="matrix(1,0,0,-1,120.60606,32.89029)" stroke-width=".75" stroke-linecap="round" stroke-linejoin="round" fill="none" stroke="#000000" d="M101.31906-24.564948C99.623538-24.922276 100.68717-24.472764 99.96111-25.860733 115.620029-24.419548 130.65999-25.025959 145.73773-24.173174 160.76378-25.295367 159.98824-24.070584 160.17086-10.032094 161.64896-3.984744 160.62999 2.643266 160.83333 10.748874 160.69594 24.269331 159.95001 24.360989 145.60736 25.697638 130.83129 25.767994 115.830699 24.797135 100.23787 25.587872 85.8936 25.900595 86.10882 23.983803 85.885219 9.154337 86.315479 2.766551 85.7331-4.112756 84.82793-10.05635 84.86834-24.37971 85.32103-24.953999 101.31906-24.564948Z"/>
<path transform="matrix(1,0,0,-1,120.60606,32.89029)" stroke-width=".75" stroke-linecap="round" stroke-linejoin="round" fill="none" stroke="#000000" d="M99.46719-117.60679C100.89331-117.04529 101.1726-117.53228 99.2671-118.14368 115.235248-117.52786 130.99674-117.420658 145.70545-117.70198 161.14302-118.08494 160.94829-118.241237 161.39565-102.03795 160.24437-94.73081 161.49077-89.912639 160.22978-81.5948 161.687-68.28667 160.74295-68.3481 145.46366-66.68387 130.95198-68.348567 114.75924-67.795169 100.697109-67.5032 85.713138-68.101009 85.0363-68.241458 84.89086-81.68 85.78006-88.54259 84.358989-95.6427 84.86458-101.4898 85.06805-117.67535 86.00825-117.67152 99.46719-117.60679Z"/>
<path transform="matrix(1,0,0,-1,120.60606,32.89029)" stroke-width=".75" stroke-linecap="round" stroke-linejoin="round" fill="none" stroke="#000000" d="M22.43867 .717328C21.459328 11.660392 12.461091 22.30305-.449133 21.556553-11.754719 20.904393-22.508564 12.3426-22.430474 .118421-20.729527-12.270974-11.371629-21.66214 .443658-21.729374 12.314486-21.004237 22.524344-11.550131 22.43867 .717328Z"/>
<path transform="matrix(1,0,0,-1,120.60606,32.89029)" stroke-width=".75" stroke-linecap="round" stroke-linejoin="round" fill="none" stroke="#000000" d="M-63.89104 .296272C-49.622964-.026481-36.022798-.211317-21.199534 .352853"/>
<path transform="matrix(1,0,0,-1,120.60606,32.89029)" stroke-width=".75" stroke-linecap="round" stroke-linejoin="round" fill="none" stroke="#000000" d="M-34.247076-8.461719C-30.882187-3.92752-26.770712-1.435178-21.323405-.164572-26.489708 .959642-31.160504 4.373301-34.62233 7.854011"/>
<path transform="matrix(1,0,0,-1,120.60606,32.89029)" stroke-width=".75" stroke-linecap="round" stroke-linejoin="round" fill="none" stroke="#000000" d="M21.550292-.344588C43.07959 .358187 63.835947 .194247 84.83988-.099241"/>
<path transform="matrix(1,0,0,-1,120.60606,32.89029)" stroke-width=".75" stroke-linecap="round" stroke-linejoin="round" fill="none" stroke="#000000" d="M72.13605-8.184819C75.106708-3.734696 80.25223-.903205 84.732997 .140135 80.367809 1.363023 75.72614 3.824922 72.688549 8.123247"/>
<path transform="matrix(1,0,0,-1,120.60606,32.89029)" stroke-width=".75" stroke-linecap="round" stroke-linejoin="round" fill="none" stroke="#000000" d="M160.79686 .359704C188.92407-.076526 217.47025-.193 245.89209 .173803"/>
<path transform="matrix(1,0,0,-1,120.60606,32.89029)" stroke-width=".75" stroke-linecap="round" stroke-linejoin="round" fill="none" stroke="#000000" d="M233.08309-8.075758C235.85176-4.196582 240.51581-.967926 245.38346 .094073 240.64269 1.59907 236.0918 4.080036 232.86122 8.277214"/>
<path transform="matrix(1,0,0,-1,120.60606,32.89029)" stroke-width=".75" stroke-linecap="round" stroke-linejoin="round" fill="none" stroke="#000000" d="M84.89298-92.82695C57.210828-92.65606 27.975102-92.790508 .096371-92.28991-.118467-68.63136-.396877-45.65459 .060576-22.13732"/>
<path transform="matrix(1,0,0,-1,120.60606,32.89029)" stroke-width=".75" stroke-linecap="round" stroke-linejoin="round" fill="none" stroke="#000000" d="M7.61569-34.769697C3.902299-31.938548 1.18564-27.319296-.308256-22.192069-.986956-26.852799-3.703291-31.87408-8.321861-34.51093"/>
<path transform="matrix(1,0,0,-1,120.60606,32.89029)" stroke-width=".75" stroke-linecap="round" stroke-linejoin="round" fill="none" stroke="#000000" d="M203.16185 .097076C203.48662-30.893498 203.02187-61.647974 203.6874-92.00912 189.24236-92.819248 174.36223-92.30432 160.6785-92.39322"/>
<path transform="matrix(1,0,0,-1,120.60606,32.89029)" stroke-width=".75" stroke-linecap="round" stroke-linejoin="round" fill="none" stroke="#000000" d="M173.04285-84.04479C169.61817-87.95323 165.78089-91.14251 160.10408-92.80449 165.28926-93.92611 169.723-96.65111 173.4989-100.243648"/>
<path transform="matrix(1,0,0,-1,120.60606,32.89029)" stroke-width=".75" stroke-linecap="round" stroke-linejoin="round" fill="none" stroke="#000000" d="M100.3432-25.159485C101.21542-24.962922 100.87781-24.06444 99.79803-24.877293 114.54702-24.324973 129.83942-25.649973 145.74178-24.360629 159.82929-25.757809 160.73557-23.994746 159.77968-10.244734 161.03447-2.601989 161.04354 3.99684 161.06917 9.514362 161.18749 24.711918 160.0898 24.230528 145.48119 25.469178 129.92546 24.640837 115.703769 24.03106 101.0239 25.51802 85.39072 24.6777 84.92465 25.153235 85.18941 9.787165 85.47506 2.729967 85.17401-3.065894 85.74676-9.968072 85.86182-24.036473 85.38978-24.54223 100.3432-25.159485Z"/>
<path transform="matrix(1,0,0,-1,120.60606,32.89029)" stroke-width=".75" stroke-linecap="round" stroke-linejoin="round" fill="none" stroke="#000000" d="M100.501049-116.6688C100.94033-117.37441 99.652538-117.29865 100.68804-116.772518 114.53775-117.48672 130.4282-116.56099 146.335-117.49901 161.18744-118.13147 161.10558-117.34633 160.818-101.808849 160.6839-95.37754 160.3518-89.719577 160.00589-81.87382 160.12725-67.57498 161.6912-66.73887 145.44821-67.41779 130.50067-66.581409 116.23237-68.23408 100.940769-66.80015 85.760189-66.63942 84.85235-67.38772 85.54065-82.367618 86.10015-88.26148 85.17525-95.184978 84.808208-101.361118 85.30207-117.67224 85.335147-117.0797 100.501049-116.6688Z"/>
<path transform="matrix(1,0,0,-1,120.60606,32.89029)" stroke-width=".75" stroke-linecap="round" stroke-linejoin="round" fill="none" stroke="#000000" d="M20.983019-.414413C21.2102 12.372799 11.3086 22.278876 .043426 21.74367-12.582875 21.85827-21.56726 11.150388-22.061072 .710963-22.185307-11.703588-11.709827-21.75928-.104894-21.59026 11.088369-22.416346 21.168652-11.307765 20.983019-.414413Z"/>
<path transform="matrix(1,0,0,-1,120.60606,32.89029)" stroke-width=".75" stroke-linecap="round" stroke-linejoin="round" fill="none" stroke="#000000" d="M-63.50481 .084972C-49.981958-.268018-35.34598-.375186-21.691428 .235497"/>
<path transform="matrix(1,0,0,-1,120.60606,32.89029)" stroke-width=".75" stroke-linecap="round" stroke-linejoin="round" fill="none" stroke="#000000" d="M-34.334245-7.857701C-30.884234-3.83847-26.209338-1.595003-21.532734-.442985-26.316124 .944937-31.264983 4.254974-34.382978 8.082821"/>
<path transform="matrix(1,0,0,-1,120.60606,32.89029)" stroke-width=".75" stroke-linecap="round" stroke-linejoin="round" fill="none" stroke="#000000" d="M21.665364-.11806C43.07068-.223731 63.801214 .265134 85.0155-.429614"/>
<path transform="matrix(1,0,0,-1,120.60606,32.89029)" stroke-width=".75" stroke-linecap="round" stroke-linejoin="round" fill="none" stroke="#000000" d="M72.13628-7.652293C75.80285-4.017349 80.22699-1.581766 85.30332-.154673 80.40708 1.230398 75.14556 4.340876 72.07441 8.250586"/>
<path transform="matrix(1,0,0,-1,120.60606,32.89029)" stroke-width=".75" stroke-linecap="round" stroke-linejoin="round" fill="none" stroke="#000000" d="M160.9778-.370886C188.99556 .20191 217.10427-.361883 245.97264 .047525"/>
<path transform="matrix(1,0,0,-1,120.60606,32.89029)" stroke-width=".75" stroke-linecap="round" stroke-linejoin="round" fill="none" stroke="#000000" d="M233.24204-8.328544C236.2842-4.108935 240.47386-.924335 245.48346 .421651 240.57498 .845392 236.23097 4.427596 233.5562 8.108811"/>
<path transform="matrix(1,0,0,-1,120.60606,32.89029)" stroke-width=".75" stroke-linecap="round" stroke-linejoin="round" fill="none" stroke="#000000" d="M85.1506-92.06381C57.07174-92.22122 28.597962-92.357128 .142887-92.271129 .234985-69.28772 .204623-45.319585 .129589-21.634734"/>
<path transform="matrix(1,0,0,-1,120.60606,32.89029)" stroke-width=".75" stroke-linecap="round" stroke-linejoin="round" fill="none" stroke="#000000" d="M7.638551-34.70642C3.888783-31.691779 1.510481-26.820254 .368627-22.22317-1.432606-27.103924-3.871838-31.645842-7.946105-34.7703"/>
<path transform="matrix(1,0,0,-1,120.60606,32.89029)" stroke-width=".75" stroke-linecap="round" stroke-linejoin="round" fill="none" stroke="#000000" d="M203.21063-.2136C203.0525-31.188555 203.47005-61.60373 203.08718-92.609348 189.31922-92.32032 175.0945-92.710048 160.95298-92.732189"/>
<path transform="matrix(1,0,0,-1,120.60606,32.89029)" stroke-width=".75" stroke-linecap="round" stroke-linejoin="round" fill="none" stroke="#000000" d="M172.75576-84.37133C170.37712-88.05069 165.18613-90.93319 160.69585-92.1613 165.54639-93.452709 170.02892-96.781658 173.12302-100.67722"/>
<path transform="matrix(1,0,0,-1,120.60606,32.89029)" stroke-width=".75" stroke-linecap="round" stroke-linejoin="round" fill="none" stroke="#000000" d="M100.980937-25.258065C100.4507-25.046912 99.987117-25.343264 100.84145-24.68244 115.55613-24.35214 130.52259-24.002318 144.80554-24.158005 159.75838-24.863642 160.20999-25.126317 161.4927-9.396413 160.52191-2.743758 160.25527 3.502719 160.56897 10.906652 161.18233 24.373078 160.80666 24.607533 146.23381 25.361292 131.20323 24.237805 116.46362 25.768515 101.00022 24.290032 84.74414 25.525574 84.63636 24.988263 85.12178 10.313754 85.72201 4.185483 85.90591-3.308556 84.48379-9.188427 85.59476-24.937495 85.449649-25.879235 100.980937-25.258065Z"/>
<path transform="matrix(1,0,0,-1,120.60606,32.89029)" stroke-width=".75" stroke-linecap="round" stroke-linejoin="round" fill="none" stroke="#000000" d="M101.08285-117.38279C101.032398-116.810489 100.71416-116.501117 100.12215-116.507549 115.20827-117.01674 130.73513-117.71196 145.09883-116.70266 160.42574-118.06204 160.66352-116.83233 160.10224-101.66743 160.85578-95.32809 161.53595-89.60001 161.47553-83.10848 160.59703-68.2308 160.05113-68.09841 146.08562-67.645298 131.0768-67.30996 115.65816-67.54514 100.29706-67.29311 85.489048-68.0932 85.89282-68.30552 85.37419-83.093257 86.188938-88.94063 84.702388-94.75565 84.5777-101.51424 84.86817-116.49091 84.69625-117.33127 101.08285-117.38279Z"/>
<path transform="matrix(1,0,0,-1,120.60606,32.89029)" stroke-width=".75" stroke-linecap="round" stroke-linejoin="round" fill="none" stroke="#000000" d="M21.07581-.356832C21.541207 11.355743 11.725311 21.874653-.79766 21.601506-12.690703 20.948767-20.713475 12.085811-21.513777-.800464-20.796105-11.026817-11.102852-22.178198-.852651-22.444277 11.987984-22.484206 20.757246-11.213299 21.07581-.356832Z"/>
<path transform="matrix(1,0,0,-1,120.60606,32.89029)" stroke-width=".75" stroke-linecap="round" stroke-linejoin="round" fill="none" stroke="#000000" d="M-63.79633-.352705C-49.395719 .351401-35.478647-.191752-21.825768-.028332"/>
<path transform="matrix(1,0,0,-1,120.60606,32.89029)" stroke-width=".75" stroke-linecap="round" stroke-linejoin="round" fill="none" stroke="#000000" d="M-34.71178-8.063733C-31.44749-3.664831-26.596085-1.380295-21.899226 .359933-26.432692 1.221358-30.712826 4.058669-34.346967 8.142689"/>
<path transform="matrix(1,0,0,-1,120.60606,32.89029)" stroke-width=".75" stroke-linecap="round" stroke-linejoin="round" fill="none" stroke="#000000" d="M22.060334 .231139C42.821836-.400223 64.02712-.261557 84.93952-.184629"/>
<path transform="matrix(1,0,0,-1,120.60606,32.89029)" stroke-width=".75" stroke-linecap="round" stroke-linejoin="round" fill="none" stroke="#000000" d="M72.35411-8.112968C75.513-3.734121 80.46704-.876082 85.18529-.310932 80.39891 1.070894 75.94546 4.373703 72.13415 7.614284"/>
<path transform="matrix(1,0,0,-1,120.60606,32.89029)" stroke-width=".75" stroke-linecap="round" stroke-linejoin="round" fill="none" stroke="#000000" d="M160.68175 .150782C189.2512-.288493 217.2133 .229571 246.16362-.032205"/>
<path transform="matrix(1,0,0,-1,120.60606,32.89029)" stroke-width=".75" stroke-linecap="round" stroke-linejoin="round" fill="none" stroke="#000000" d="M232.94412-8.111822C236.115-3.848171 240.70102-1.358239 246.10959 .399699 240.60764 1.089772 236.67652 4.112484 233.01656 7.939547"/>
<path transform="matrix(1,0,0,-1,120.60606,32.89029)" stroke-width=".75" stroke-linecap="round" stroke-linejoin="round" fill="none" stroke="#000000" d="M85.627048-92.3144C56.588037-92.02472 28.177672-92.30289-.407362-92.1013 .394997-69.01207-.367909-45.27437-.249917-22.17293"/>
<path transform="matrix(1,0,0,-1,120.60606,32.89029)" stroke-width=".75" stroke-linecap="round" stroke-linejoin="round" fill="none" stroke="#000000" d="M8.269051-34.46137C4.257431-31.874934 1.369644-26.70031-.015118-21.998959-1.376535-26.829731-4.414796-31.67314-8.432882-34.488809"/>
<path transform="matrix(1,0,0,-1,120.60606,32.89029)" stroke-width=".75" stroke-linecap="round" stroke-linejoin="round" fill="none" stroke="#000000" d="M203.60659 .375631C202.93555-30.435532 203.32497-61.26667 203.59955-92.32697 189.17398-92.35626 174.8813-92.70501 160.78052-92.07341"/>
<path transform="matrix(1,0,0,-1,120.60606,32.89029)" stroke-width=".75" stroke-linecap="round" stroke-linejoin="round" fill="none" stroke="#000000" d="M173.64176-83.93715C169.84313-88.54315 165.55448-90.9802 160.64891-92.652538 165.75818-93.13877 170.32457-96.14855 172.93297-100.70856"/>
<path transform="matrix(1,0,0,-1,120.60606,32.89029)" stroke-width=".75" stroke-linecap="round" stroke-linejoin="round" fill="none" stroke="#000000" d="M101.29617-24.960743C99.50297-24.966908 101.1611-24.32014 99.655918-25.521204 116.45746-25.209168 130.30295-24.150078 145.33058-24.702239 161.20716-25.238444 160.80544-24.59855 159.9812-10.109118 161.30657-3.847151 160.39313 3.655697 160.1859 10.118144 161.66907 24.544114 161.64061 25.282046 146.15608 25.07513 131.42658 23.98668 115.15522 25.39634 100.12867 25.383725 86.1763 24.013018 86.17993 25.81913 85.902278 9.885423 86.11669 3.444156 84.77524-3.279789 86.191219-10.252259 84.46089-24.140315 85.9052-25.256449 101.29617-24.960743Z"/>
<path transform="matrix(1,0,0,-1,120.60606,32.89029)" stroke-width=".75" stroke-linecap="round" stroke-linejoin="round" fill="none" stroke="#000000" d="M100.604007-117.58267C100.63031-117.39174 99.40373-117.17856 100.20498-116.51161 114.58508-117.52046 130.74695-117.470798 146.41114-116.63333 161.28958-116.78201 160.53948-117.58446 161.36014-103.22583 160.63773-95.41938 161.37909-88.90353 160.94332-82.03707 160.33243-67.98451 160.29499-67.22706 146.19101-66.71291 130.58399-67.86051 116.020778-68.14136 100.623828-67.5123 85.45205-67.40784 84.88236-67.544849 86.19266-82.93155 84.92838-88.659648 85.07161-96.173038 84.371288-101.887058 84.91713-117.3377 86.11627-116.471149 100.604007-117.58267Z"/>
<path transform="matrix(1,0,0,-1,120.60606,32.89029)" stroke-width=".75" stroke-linecap="round" stroke-linejoin="round" fill="none" stroke="#000000" d="M21.104989 .715839C22.357516 11.398227 11.366515 20.916796 .10499 21.996787-12.723839 22.48307-21.395327 12.32684-22.159962 .063364-20.869908-11.725618-12.802024-20.723469-.317686-22.522337 11.798107-21.808545 22.393229-12.25946 21.104989 .715839Z"/>
<path transform="matrix(1,0,0,-1,120.60606,32.89029)" stroke-width=".75" stroke-linecap="round" stroke-linejoin="round" fill="none" stroke="#000000" d="M-63.96849 .006112C-49.494836 .125479-35.845605 .323812-21.953547-.376726"/>
<path transform="matrix(1,0,0,-1,120.60606,32.89029)" stroke-width=".75" stroke-linecap="round" stroke-linejoin="round" fill="none" stroke="#000000" d="M-34.612085-8.050629C-31.365593-4.04591-26.948147-.851286-21.382176 .000798-26.68317 .783828-31.314423 3.980802-34.53428 7.710845"/>
<path transform="matrix(1,0,0,-1,120.60606,32.89029)" stroke-width=".75" stroke-linecap="round" stroke-linejoin="round" fill="none" stroke="#000000" d="M21.744116 .428271C42.867475 .049599 64.203128 .336673 85.20553-.401362"/>
<path transform="matrix(1,0,0,-1,120.60606,32.89029)" stroke-width=".75" stroke-linecap="round" stroke-linejoin="round" fill="none" stroke="#000000" d="M72.26997-8.496657C75.40303-4.04644 80.27514-.79593 84.98058-.070406 80.439029 1.020924 75.48959 3.795405 72.49743 7.703333"/>
<path transform="matrix(1,0,0,-1,120.60606,32.89029)" stroke-width=".75" stroke-linecap="round" stroke-linejoin="round" fill="none" stroke="#000000" d="M160.99434-.122341C189.47676-.278819 217.00238 .330983 246.21334-.147541"/>
<path transform="matrix(1,0,0,-1,120.60606,32.89029)" stroke-width=".75" stroke-linecap="round" stroke-linejoin="round" fill="none" stroke="#000000" d="M232.90807-8.126627C235.96912-3.872058 241.15583-1.145874 246.09766-.274483 240.76189 1.366577 236.63993 3.645977 232.91477 7.978647"/>
<path transform="matrix(1,0,0,-1,120.60606,32.89029)" stroke-width=".75" stroke-linecap="round" stroke-linejoin="round" fill="none" stroke="#000000" d="M85.05691-92.15278C57.23795-92.03014 28.600703-92.71353-.30695-92.48472 .163725-68.57492-.394336-45.4539-.293061-21.954962"/>
<path transform="matrix(1,0,0,-1,120.60606,32.89029)" stroke-width=".75" stroke-linecap="round" stroke-linejoin="round" fill="none" stroke="#000000" d="M7.722181-34.727643C4.081849-31.625006 1.353957-26.772952-.278312-21.572693-1.43074-27.113665-4.227874-31.865483-8.471359-34.96238"/>
<path transform="matrix(1,0,0,-1,120.60606,32.89029)" stroke-width=".75" stroke-linecap="round" stroke-linejoin="round" fill="none" stroke="#000000" d="M203.38459 .294985C203.51674-30.733166 203.09719-61.274568 203.3891-92.027278 188.98451-92.3762 174.69614-92.83716 160.2853-92.19239"/>
<path transform="matrix(1,0,0,-1,120.60606,32.89029)" stroke-width=".75" stroke-linecap="round" stroke-linejoin="round" fill="none" stroke="#000000" d="M173.23458-84.65606C170.27121-88.652538 165.19844-91.58961 160.1813-92.46426 165.37239-93.37361 170.05142-96.30526 173.38329-100.034137"/>
<path transform="matrix(1,0,0,-1,120.60606,32.89029)" stroke-width=".75" stroke-linecap="round" stroke-linejoin="round" fill="none" stroke="#000000" d="M99.88288-24.645213C101.21932-24.741175 100.649318-25.382369 100.62159-25.48021 115.836467-25.794386 130.61183-24.93461 146.08968-24.313963 161.20966-25.158635 160.44202-24.848092 160.85413-9.170967 161.4253-3.070029 160.34638 3.310114 160.43334 10.393787 160.27935 25.213303 161.08621 24.25095 145.92176 25.059395 130.20709 24.038548 115.17099 25.265587 99.899738 24.096056 85.46491 24.95226 85.62893 25.635077 85.41968 10.47163 84.74942 3.157135 86.36032-3.456121 85.0358-9.430805 85.40308-24.090985 85.13201-25.50797 99.88288-24.645213Z"/>
<path transform="matrix(1,0,0,-1,120.60606,32.89029)" stroke-width=".75" stroke-linecap="round" stroke-linejoin="round" fill="none" stroke="#000000" d="M100.297069-117.53558C100.86435-117.809459 99.30225-118.270259 99.90633-116.504749 115.604938-116.72856 131.24942-117.87623 146.19013-118.12875 161.54405-116.844989 160.57477-116.840328 160.33737-102.03825 161.75174-95.22632 161.21712-88.1166 161.78441-83.23289 161.20172-66.5595 160.64754-68.02104 145.24509-67.64208 130.16448-68.04969 115.86086-67.68541 100.42153-67.901119 85.79691-66.59591 85.27761-66.585529 85.20018-83.0002 85.46116-88.63392 84.830379-96.12932 84.674549-101.83793 85.72422-118.139827 84.71248-118.03593 100.297069-117.53558Z"/>
<path transform="matrix(1,0,0,-1,120.60606,32.89029)" stroke-width=".75" stroke-linecap="round" stroke-linejoin="round" fill="none" stroke="#000000" d="M22.086434-.232003C21.168004 11.064556 12.673432 21.238253 .384093 21.920458-11.340531 20.750849-22.594594 11.910916-21.35544 .479686-21.200493-12.912381-11.75251-21.378409 .75314-21.916478 12.502648-20.662323 22.110659-12.518362 22.086434-.232003Z"/>
<path transform="matrix(1,0,0,-1,120.60606,32.89029)" stroke-width=".75" stroke-linecap="round" stroke-linejoin="round" fill="none" stroke="#000000" d="M-63.723825 .414873C-49.957738 .338279-35.98427-.116859-22.079915 .099136"/>
<path transform="matrix(1,0,0,-1,120.60606,32.89029)" stroke-width=".75" stroke-linecap="round" stroke-linejoin="round" fill="none" stroke="#000000" d="M-34.283067-8.250951C-31.268546-3.645905-26.561947-.734497-21.60795-.136118-26.810393 1.430925-30.959137 4.080139-34.61836 8.06257"/>
<path transform="matrix(1,0,0,-1,120.60606,32.89029)" stroke-width=".75" stroke-linecap="round" stroke-linejoin="round" fill="none" stroke="#000000" d="M21.358607 .283258C42.642179-.254321 63.984136 .025757 85.21997-.225153"/>
<path transform="matrix(1,0,0,-1,120.60606,32.89029)" stroke-width=".75" stroke-linecap="round" stroke-linejoin="round" fill="none" stroke="#000000" d="M72.10328-7.862012C75.97871-3.646058 79.59469-.761179 84.68432-.198703 79.63396 1.116106 75.22434 4.343394 72.23114 8.40649"/>
<path transform="matrix(1,0,0,-1,120.60606,32.89029)" stroke-width=".75" stroke-linecap="round" stroke-linejoin="round" fill="none" stroke="#000000" d="M161.08368-.328786C188.79448-.121831 217.2378 .204748 245.41391-.385881"/>
<path transform="matrix(1,0,0,-1,120.60606,32.89029)" stroke-width=".75" stroke-linecap="round" stroke-linejoin="round" fill="none" stroke="#000000" d="M232.9613-8.314599C235.8742-3.557127 240.61808-.741225 245.91318-.322417 240.89644 1.479529 235.92786 3.63355 233.54496 7.815893"/>
<path transform="matrix(1,0,0,-1,120.60606,32.89029)" stroke-width=".75" stroke-linecap="round" stroke-linejoin="round" fill="none" stroke="#000000" d="M85.52727-92.28597C56.425584-92.00174 28.582034-92.69729-.025156-92.43135 .442773-68.90953 .142732-45.25261-.040422-22.36892"/>
<path transform="matrix(1,0,0,-1,120.60606,32.89029)" stroke-width=".75" stroke-linecap="round" stroke-linejoin="round" fill="none" stroke="#000000" d="M8.217358-34.95832C3.896507-31.310135 1.53372-26.723498-.001203-22.094927-1.576609-26.87523-3.752751-31.799595-7.66032-35.018274"/>
<path transform="matrix(1,0,0,-1,120.60606,32.89029)" stroke-width=".75" stroke-linecap="round" stroke-linejoin="round" fill="none" stroke="#000000" d="M203.30237-.294439C202.9049-30.953347 203.69124-61.525774 203.2721-92.68591 188.94269-91.956859 175.02-92.53451 160.42069-92.54738"/>
<path transform="matrix(1,0,0,-1,120.60606,32.89029)" stroke-width=".75" stroke-linecap="round" stroke-linejoin="round" fill="none" stroke="#000000" d="M173.2489-84.63241C170.32082-88.40577 165.35303-91.05386 160.73458-92.435009 165.53528-93.24989 169.66516-96.74444 172.80704-100.36855"/>
<use data-text="+" xlink:href="#font_5_12" transform="matrix(17.932744,0,0,-17.932789,85.292438,25.414078)"/>
<use data-text="&#x2212;" xlink:href="#font_5_14" transform="matrix(17.932682,0,0,-17.932772,126.75596,62.511369)"/>
<use data-text="U" xlink:href="#font_5_8" transform="matrix(21.519164,0,0,-21.519387,6.814293,38.26703)"/>
<use data-text="(" xlink:href="#font_5_2" transform="matrix(21.519164,0,0,-21.519387,23.470128,38.26703)"/>
<use data-text="s" xlink:href="#font_5_7" transform="matrix(21.519164,0,0,-21.519387,33.01517,38.26703)"/>
<use data-text=")" xlink:href="#font_5_4" transform="matrix(21.519164,0,0,-21.519387,44.001996,38.26703)"/>
<use data-text="Y" xlink:href="#font_5_9" transform="matrix(21.519528,0,0,-21.519387,370.87428,38.26703)"/>
<use data-text="(" xlink:href="#font_5_2" transform="matrix(21.519528,0,0,-21.519387,384.02198,38.26703)"/>
<use data-text="s" xlink:href="#font_5_7" transform="matrix(21.519528,0,0,-21.519387,393.5672,38.26703)"/>
<use data-text=")" xlink:href="#font_5_4" transform="matrix(21.519528,0,0,-21.519387,404.55427,38.26703)"/>
</svg>
