<svg xmlns="http://www.w3.org/2000/svg" xmlns:xlink="http://www.w3.org/1999/xlink" version="1.1" width="451.49168" height="66.05728" viewBox="0 0 451.49168 66.05728">
<defs>
<path id="font_3_6" d="M.08999634 .32458497C.08999634 .22958374 .114990238 .13148499 .18299866 .06341553 .23699951 .009384155 .31199647-.016601563 .3880005-.016601563 .46099855-.016601563 .56900027 .010391235 .6569977 .03338623 .6569977 .03338623 .6539917 .216568 .6519928 .30760194L.37599183 .2966156V.27061463L.38198854 .265625C.43598939 .26361085 .5 .25961305 .5439911 .25660707 .57199099 .25460816 .57199099 .22257996 .57199099 .13449097 .57199099 .061416627 .56900027 .04940796 .5519867 .045394899 .5209961 .038391115 .48999024 .03538513 .45799256 .03538513 .37998963 .03538513 .30599977 .060409547 .2619934 .112472537 .20399475 .18052674 .17999268 .25260926 .17999268 .3405609 .17999268 .48339845 .23199463 .5653076 .26098634 .5942688 .3039856 .63623049 .36299134 .6502075 .42199708 .6502075 .5529938 .6502075 .59298709 .5563202 .60598757 .53034976L.6179962 .5293579 .6759949 .58628848C.6649933 .6032715 .6119995 .69921877 .46699525 .69921877 .3619995 .69921877 .25698854 .6682129 .18199158 .593277 .11199951 .5233612 .08999634 .4224701 .08999634 .32458497Z"/>
<path id="font_3_10" d="M.1349945 .6123047H.22898865C.25698854 .6123047 .27999879 .59129336 .2809906 .5662842 .28199769 .541275 .28199769 .46824647 .28199769 .41923524 .28199769 .27919007 .27799989 .13916016 .272995 .00010681152L.28599549-.0048828127 .3809967 .022125245C.37799073 .09814453 .37799073 .2962036 .37799073 .43223573 .37799073 .52127078 .37998963 .6112976 .38598634 .7003021L.3789978 .71229556 .1349945 .6392975V.6123047Z"/>
<path id="font_3_2" d="M.11299133 .24990845C.11299133 .007904053 .1519928-.09008789 .18299866-.13310242 .21099854-.17008972 .25299073-.20809937 .30099488-.21209717V-.1880951C.2809906-.18409729 .25099183-.16809082 .23399353-.1481018 .21998596-.13209534 .16499329-.05809021 .16499329 .24990845 .16499329 .4618988 .19799805 .5659027 .21998596 .6128998 .23599243 .6469116 .2689972 .6769104 .30099488 .684906V.71191409C.2599945 .7049103 .21598816 .6729126 .19099427 .63790896 .1599884 .5919037 .11299133 .4748993 .11299133 .24990845Z"/>
<path id="font_3_7" d="M.051986696 .06642151C.06199646 .047409059 .07598877 .030395508 .09199524 .01638794 .12098694-.009613037 .16099549-.016601563 .19898987-.016601563 .2559967-.016601563 .31199647 .0023956299 .35099793 .044403078 .375 .06941223 .3869934 .10343933 .3869934 .13845825 .3869934 .1634674 .37298585 .18649292 .35499574 .20449829 .34098817 .21850586 .3039856 .24052429 .27198792 .25453187 .24299622 .26654054 .19999695 .2885437 .18798828 .30055238 .17298889 .31655885 .1619873 .3285675 .1619873 .35058595 .1619873 .3725891 .16899109 .39360047 .18499756 .4086151 .19999695 .42362977 .22200012 .43164063 .24398804 .43164063 .2639923 .43164063 .2849884 .42462159 .29599 .4066162 .30599977 .39060975 .30799867 .3715973 .30899049 .35359193L.32099916 .34657289 .37599183 .38360597C.375 .40560914 .3639984 .42662049 .34799195 .44163514 .32499696 .46263124 .29299928 .46662904 .2630005 .46662904 .21398926 .46662904 .16699219 .45063783 .1309967 .4176178 .10398865 .39360047 .08999634 .35858155 .08999634 .32356263 .08999634 .29154969 .10798645 .26353456 .1309967 .2425232 .1539917 .22250366 .18399048 .2084961 .21499634 .1954956 .24099732 .18447876 .2689972 .17248535 .28799439 .1534729 .30299378 .13845825 .31399537 .11845398 .31399537 .09744263 .31399537 .079422 .30499269 .062408449 .29299928 .04940796 .27799989 .03340149 .25099183 .021392823 .22898865 .021392823 .19898987 .021392823 .17199707 .03439331 .1499939 .055404664 .1269989 .076416019 .116989139 .10644531 .114990238 .13645935L.100997928 .13745117 .051986696 .06642151Z"/>
<path id="font_3_4" d="M.085998538-.1880951V-.21209717C.13398743-.20610047 .1789856-.17208863 .20698548-.13510132 .23799134-.09210205 .27598573 .007904053 .27598573 .24990845 .27598573 .50090029 .22399903 .5919037 .19299317 .63790896 .16799927 .6729126 .1269989 .7049103 .085998538 .71191409V.684906C.117996219 .6759033 .14898682 .6469116 .16499329 .6128998 .18699646 .5659027 .22399903 .48190309 .22399903 .24990845 .22399903-.099090579 .17199707-.13209534 .1579895-.1481018 .14099121-.16809082 .10598755-.18409729 .085998538-.1880951Z"/>
<path id="font_3_11" d="M.04499817 .001953125H.5379944L.56399539 .079940799 .5589905 .08795166H.20999146C.20399475 .08795166 .19799805 .08894348 .19599915 .092941287 .19499207 .094940189 .19599915 .09794617 .19699097 .09895325 .2539978 .1569519 .30799867 .21495056 .35899354 .27496339 .394989 .31697084 .42999269 .358963 .45799256 .40496827 .48799134 .4509735 .5119934 .49998475 .5119934 .5529938 .5119934 .59399417 .49899293 .6349945 .46499635 .66400149 .43199159 .69299319 .3880005 .7080078 .34199525 .7080078 .29899598 .7080078 .2579956 .6970062 .22099304 .67900088 .17599488 .65800479 .13699341 .6279907 .102996829 .59498599L.125 .57598879C.1519928 .59599307 .17799378 .61099246 .20999146 .6259918 .23098755 .6360016 .2559967 .6399994 .2809906 .6399994 .31399537 .6399994 .34700013 .6289978 .37098695 .6069946 .40098573 .5779877 .4079895 .5369873 .4079895 .50798037 .4079895 .4429779 .38198854 .38197328 .34298707 .3259735 .31098939 .27996827 .27198792 .23796082 .23199463 .19696045 .17199707 .13494873 .10899353 .07594299 .04499817 .017944336V.001953125Z"/>
<path id="font_3_8" d="M.033996583 .6733093 .035995485 .6533203C.037994386 .6533203 .07398987 .6443176 .09199524 .63931277 .12298584 .6313019 .125 .6222992 .125 .54229739 .125 .46427918 .12199402 .38627626 .12199402 .30825807 .12199402 .24723816 .12399292 .17323303 .12998963 .12721253 .1349945 .08821106 .1559906-.0087890629 .31399537-.0087890629 .39698792-.0087890629 .47698976 .02520752 .5469971 .07020569L.5549927 .064208988C.5549927 .048202516 .5549927 .032196046 .55599978 .016204834 .55799868 .0012054443 .57598879-.0047912599 .58799746-.0047912599 .61898806-.0047912599 .6899872 .016204834 .7409973 .032196046L.74598696 .03919983 .74198916 .05619812C.7220001 .05419922 .70399478 .048202516 .6839905 .048202516 .673996 .048202516 .6609955 .050201417 .6539917 .0592041 .6389923 .07620239 .6359863 .15222168 .6359863 .20223999 .6359863 .3642578 .6369934 .5733032 .6519928 .68733218L.6459961 .69433596 .55799868 .659317C.55599978 .47727967 .55400088 .2942505 .55400088 .11122131 .5 .079208377 .43998719 .052200319 .37799073 .052200319 .24598694 .052200319 .22399903 .13922119 .21598816 .16522217 .20599365 .19923401 .20199585 .23423767 .20199585 .26924134L.20999146 .54229739C.20999146 .55929568 .21598816 .6603241 .21798706 .67433169L.21099854 .6803131H.041992189L.033996583 .6733093Z"/>
<path id="font_3_9" d="M.022994996 .6513672C.036987306 .649353 .049987794 .6463623 .06298828 .6433563 .07199097 .6413574 .07998657 .6353607 .085998538 .62835696 .09599304 .61834719 .102996829 .60635378 .10899353 .5943451L.2579956 .29930116C.2579956 .19927979 .2579956 .0982666 .25498963-.0017547608L.2659912-.0107421879 .35598756 .018249512 .34700013 .30630494C.42999269 .4343109 .5039978 .5303345 .61499026 .675354L.61099246 .6933594 .526001 .6763611C.48999024 .619339 .4059906 .47431947 .397995 .46032716 .3849945 .4373169 .34199525 .36730958 .33898927 .3623047 .33599855 .3572998 .33198548 .353302 .32798768 .353302 .32199098 .353302 .31698609 .3592987 .31599427 .36131288L.1749878 .6863556H.02999878L.022994996 .67936709V.6513672Z"/>
</defs>
<use data-text="G" xlink:href="#font_3_6" transform="matrix(21.519362,0,0,-21.519398,114.38284,38.36002)"/>
<use data-text="1" xlink:href="#font_3_10" transform="matrix(16.438399,0,0,-16.438426,130.85007,42.66099)"/>
<use data-text="(" xlink:href="#font_3_2" transform="matrix(21.519362,0,0,-21.519398,141.09267,38.36002)"/>
<use data-text="s" xlink:href="#font_3_7" transform="matrix(21.519362,0,0,-21.519398,150.63779,38.36002)"/>
<use data-text=")" xlink:href="#font_3_4" transform="matrix(21.519362,0,0,-21.519398,161.62473,38.36002)"/>
<use data-text="G" xlink:href="#font_3_6" transform="matrix(21.519362,0,0,-21.519398,285.01918,38.36002)"/>
<use data-text="2" xlink:href="#font_3_11" transform="matrix(16.438399,0,0,-16.438426,301.4864,42.595228)"/>
<use data-text="(" xlink:href="#font_3_2" transform="matrix(21.519362,0,0,-21.519398,311.72904,38.36002)"/>
<use data-text="s" xlink:href="#font_3_7" transform="matrix(21.519362,0,0,-21.519398,321.27415,38.36002)"/>
<use data-text=")" xlink:href="#font_3_4" transform="matrix(21.519362,0,0,-21.519398,332.2611,38.36002)"/>
<path transform="matrix(1,0,0,-1,142.18199,32.978738)" stroke-width=".75" stroke-linecap="round" stroke-linejoin="round" fill="none" stroke="#000000" d="M-27.421309-25.269595C-28.05173-25.57202-26.840243-25.81037-27.943137-25.254395-9.995887-24.229516 8.520611-24.006775 27.05948-24.68348 43.109395-25.241238 42.61906-25.861172 43.39225-10.126474 42.97559-2.482143 43.193536 3.33343 42.83868 9.458943 42.58524 24.235657 43.746278 25.040266 28.333428 25.743458 9.07745 25.345162-8.316511 25.570738-27.7325 25.689414-42.468114 25.741547-42.09528 24.898453-42.263608 10.362104-41.861677 3.673369-43.208124-2.894701-42.045129-9.86605-42.014818-24.990092-43.615354-24.580449-27.421309-25.269595Z"/>
<path transform="matrix(1,0,0,-1,142.18199,32.978738)" stroke-width=".75" stroke-linecap="round" stroke-linejoin="round" fill="none" stroke="#000000" d="M141.87386-24.101832C142.8891-25.641926 143.61475-25.365372 143.23166-24.353241 161.25272-25.775147 179.36582-24.669417 199.07958-25.673308 213.82723-25.104319 213.37766-25.718489 213.72396-9.005242 212.61182-3.2864 212.96364 3.368207 212.83783 9.380525 213.29506 24.579798 212.73448 24.701504 198.87438 25.06996 179.42734 24.505187 160.82089 25.424468 143.02693 24.68666 128.72582 24.531388 128.25614 24.903897 128.76363 10.617305 127.63561 3.681611 127.69907-3.818353 127.97431-9.301996 127.83522-24.726878 127.13428-25.483773 141.87386-24.101832Z"/>
<path transform="matrix(1,0,0,-1,142.18199,32.978738)" stroke-width=".75" stroke-linecap="round" stroke-linejoin="round" fill="none" stroke="#000000" d="M-85.16795-.148804C-71.662769-.025759-56.845796 .373997-42.964395 .376676"/>
<path transform="matrix(1,0,0,-1,142.18199,32.978738)" stroke-width=".75" stroke-linecap="round" stroke-linejoin="round" fill="none" stroke="#000000" d="M-55.53314-8.099521C-52.67368-4.382724-47.95265-1.275841-43.03931 .167595-48.002817 1.477074-52.6654 4.051295-55.759267 7.825632"/>
<path transform="matrix(1,0,0,-1,142.18199,32.978738)" stroke-width=".75" stroke-linecap="round" stroke-linejoin="round" fill="none" stroke="#000000" d="M43.18206-.423364C71.103-.045965 98.89182-.109071 127.15556 .005266"/>
<path transform="matrix(1,0,0,-1,142.18199,32.978738)" stroke-width=".75" stroke-linecap="round" stroke-linejoin="round" fill="none" stroke="#000000" d="M114.96971-8.044086C117.646579-4.139605 122.63461-1.184275 127.382198 .201917 122.79681 1.482555 117.64146 4.086865 114.61913 8.234313"/>
<path transform="matrix(1,0,0,-1,142.18199,32.978738)" stroke-width=".75" stroke-linecap="round" stroke-linejoin="round" fill="none" stroke="#000000" d="M213.32967 .421799C227.67652 .166619 241.95708 .120837 256.25917 .081676"/>
<path transform="matrix(1,0,0,-1,142.18199,32.978738)" stroke-width=".75" stroke-linecap="round" stroke-linejoin="round" fill="none" stroke="#000000" d="M243.54595-7.910058C246.74314-3.701849 251.16591-1.500998 256.06977-.434278 251.1421 1.079541 246.31206 3.970636 243.4674 8.343381"/>
<path transform="matrix(1,0,0,-1,142.18199,32.978738)" stroke-width=".75" stroke-linecap="round" stroke-linejoin="round" fill="none" stroke="#000000" d="M-27.900563-25.255724C-26.95896-24.252686-28.310147-24.33756-26.836031-24.996644-9.442975-25.305998 10.172723-25.332613 28.043448-25.732914 41.876577-24.475855 42.037927-25.30669 42.483934-9.389256 43.19528-3.579855 42.803194 4.136242 42.660814 9.400276 43.18135 23.99789 42.299814 25.232495 28.057822 23.995749 9.1276 24.802344-8.630781 24.98668-27.721995 24.54036-42.7398 25.851063-42.087068 24.96302-43.551633 9.738883-41.93741 4.097178-42.669557-4.211724-42.89692-10.61747-42.01442-25.361882-42.3526-25.24525-27.900563-25.255724Z"/>
<path transform="matrix(1,0,0,-1,142.18199,32.978738)" stroke-width=".75" stroke-linecap="round" stroke-linejoin="round" fill="none" stroke="#000000" d="M143.54207-24.487135C142.43726-25.578074 141.91942-24.19813 143.25092-25.088776 160.95302-24.799223 180.82361-25.69383 198.90766-24.85777 212.93236-24.76829 212.67566-24.075482 213.29303-9.222371 213.59078-3.157746 212.76508 2.942821 212.66373 9.433413 212.78777 24.797244 213.70714 24.340809 198.12985 24.096947 179.13872 24.283635 161.60124 24.480916 143.74199 23.983384 127.00157 25.634924 128.37975 25.063288 127.445369 10.215922 127.91068 2.71218 127.74772-4.255412 128.36998-9.706115 128.24652-24.611296 127.83602-24.63454 143.54207-24.487135Z"/>
<path transform="matrix(1,0,0,-1,142.18199,32.978738)" stroke-width=".75" stroke-linecap="round" stroke-linejoin="round" fill="none" stroke="#000000" d="M-85.579837 .109332C-71.21688 .323558-57.117578-.303858-43.301149 .039638"/>
<path transform="matrix(1,0,0,-1,142.18199,32.978738)" stroke-width=".75" stroke-linecap="round" stroke-linejoin="round" fill="none" stroke="#000000" d="M-55.827894-8.420125C-52.335748-3.560497-48.12312-1.049366-43.04719-.273851-47.918344 1.093618-52.838834 3.646613-55.40357 8.499369"/>
<path transform="matrix(1,0,0,-1,142.18199,32.978738)" stroke-width=".75" stroke-linecap="round" stroke-linejoin="round" fill="none" stroke="#000000" d="M42.489 .208997C71.401409 .004086 99.47612 .185855 127.23607-.088313"/>
<path transform="matrix(1,0,0,-1,142.18199,32.978738)" stroke-width=".75" stroke-linecap="round" stroke-linejoin="round" fill="none" stroke="#000000" d="M114.968769-7.748391C118.24958-3.765187 122.79055-.848563 127.56764-.134057 122.87743 1.175208 117.57349 4.311915 114.60858 8.455203"/>
<path transform="matrix(1,0,0,-1,142.18199,32.978738)" stroke-width=".75" stroke-linecap="round" stroke-linejoin="round" fill="none" stroke="#000000" d="M212.99777-.260281C227.91777 .128328 242.06374-.069278 256.03434 .226231"/>
<path transform="matrix(1,0,0,-1,142.18199,32.978738)" stroke-width=".75" stroke-linecap="round" stroke-linejoin="round" fill="none" stroke="#000000" d="M243.3117-8.115189C246.8822-3.649042 251.26123-1.262078 255.72185-.301805 250.62252 1.360373 246.90613 4.426223 243.67754 7.772875"/>
<path transform="matrix(1,0,0,-1,142.18199,32.978738)" stroke-width=".75" stroke-linecap="round" stroke-linejoin="round" fill="none" stroke="#000000" d="M-28.704823-24.01196C-27.362946-25.459862-27.05251-25.32731-28.736502-25.768055-9.04207-23.993552 8.533316-25.59885 28.28314-24.55107 43.454748-24.340178 43.13369-23.988823 43.476228-9.766392 41.922288-4.27623 42.07485 2.646125 42.516183 9.935826 42.87258 24.163914 43.323858 24.176163 28.345255 25.78975 10.172331 25.027892-9.649423 24.511048-27.12185 25.505717-41.871465 24.165465-42.1187 24.754063-42.65309 10.571683-42.24754 2.812394-43.301267-3.746576-42.977598-10.42498-42.872358-25.095185-42.63024-25.075438-28.704823-24.01196Z"/>
<path transform="matrix(1,0,0,-1,142.18199,32.978738)" stroke-width=".75" stroke-linecap="round" stroke-linejoin="round" fill="none" stroke="#000000" d="M143.64795-25.439753C142.804-24.540528 142.16393-24.066596 142.05719-24.463562 160.47202-24.193137 180.46776-24.51769 198.44258-25.572905 212.93631-24.487095 213.55493-25.111924 212.9858-9.500116 212.65454-2.855108 213.10994 2.926562 214.354 10.440387 214.23651 25.879538 214.23662 25.64412 198.92583 24.23218 179.40999 25.11281 161.95192 25.783337 142.03295 24.095875 128.65259 25.741213 126.88791 24.462059 128.45012 9.643409 128.31803 3.017508 127.9864-2.39772 128.1522-10.52449 127.76213-25.60085 128.21419-24.153443 143.64795-25.439753Z"/>
<path transform="matrix(1,0,0,-1,142.18199,32.978738)" stroke-width=".75" stroke-linecap="round" stroke-linejoin="round" fill="none" stroke="#000000" d="M-85.233478 .433128C-70.87871-.378919-57.611658-.414304-42.876188 .281383"/>
<path transform="matrix(1,0,0,-1,142.18199,32.978738)" stroke-width=".75" stroke-linecap="round" stroke-linejoin="round" fill="none" stroke="#000000" d="M-55.44199-7.631953C-52.628004-4.070197-47.929208-1.248175-43.512598 .144775-48.19457 1.028303-52.84356 3.715234-56.021589 7.722609"/>
<path transform="matrix(1,0,0,-1,142.18199,32.978738)" stroke-width=".75" stroke-linecap="round" stroke-linejoin="round" fill="none" stroke="#000000" d="M42.647893 .043736C70.86933-.227729 99.067539-.093876 127.08561 .447278"/>
<path transform="matrix(1,0,0,-1,142.18199,32.978738)" stroke-width=".75" stroke-linecap="round" stroke-linejoin="round" fill="none" stroke="#000000" d="M114.50025-8.200923C117.95939-3.587218 122.44904-1.208037 127.61337-.3258 122.6097 1.221002 117.80439 3.870685 114.8504 8.251735"/>
<path transform="matrix(1,0,0,-1,142.18199,32.978738)" stroke-width=".75" stroke-linecap="round" stroke-linejoin="round" fill="none" stroke="#000000" d="M213.79665-.230907C227.5044 .128015 241.88996 .164011 255.82593 .182061"/>
<path transform="matrix(1,0,0,-1,142.18199,32.978738)" stroke-width=".75" stroke-linecap="round" stroke-linejoin="round" fill="none" stroke="#000000" d="M243.04018-8.079922C246.86142-3.967583 250.71921-.953531 255.50997 .371345 250.93862 1.200617 246.7322 4.018275 243.40096 7.702438"/>
<path transform="matrix(1,0,0,-1,142.18199,32.978738)" stroke-width=".75" stroke-linecap="round" stroke-linejoin="round" fill="none" stroke="#000000" d="M-27.032492-24.166335C-28.729126-25.717272-28.755084-24.522677-28.643504-25.195656-8.751706-24.20965 9.613234-24.961647 27.053708-24.22585 42.687166-24.141654 42.274587-25.295619 42.764749-10.808272 43.097627-3.85294 43.0142 2.558852 43.568426 10.370971 43.340547 24.560196 42.608507 25.619452 28.429627 24.25413 9.677441 25.386628-8.423293 24.610585-28.14858 25.300118-42.941797 25.715535-42.64884 24.743393-42.145448 9.588934-42.930044 3.179105-43.00919-2.792002-42.627897-9.665262-43.770044-24.179255-43.061254-24.945706-27.032492-24.166335Z"/>
<path transform="matrix(1,0,0,-1,142.18199,32.978738)" stroke-width=".75" stroke-linecap="round" stroke-linejoin="round" fill="none" stroke="#000000" d="M143.13846-25.316643C143.38152-25.246766 143.16382-24.821734 143.25316-25.140774 161.79589-25.590003 179.23128-25.624167 199.28974-25.711995 213.35634-24.628294 214.25127-24.170432 214.1608-10.713712 212.79126-3.218044 212.4824 4.140189 213.04558 9.855663 213.77965 25.290665 213.09886 24.250058 197.77013 25.025422 180.18512 24.639189 160.55144 24.534014 142.76737 24.697325 126.86905 24.585829 127.4488 24.234477 128.73609 9.755141 127.429889 3.208494 128.66501-2.681684 126.95933-9.661875 127.339069-23.99032 127.00279-25.748589 143.13846-25.316643Z"/>
<path transform="matrix(1,0,0,-1,142.18199,32.978738)" stroke-width=".75" stroke-linecap="round" stroke-linejoin="round" fill="none" stroke="#000000" d="M-85.084369 .145437C-71.63868 .071261-56.87102-.151622-43.255506-.289951"/>
<path transform="matrix(1,0,0,-1,142.18199,32.978738)" stroke-width=".75" stroke-linecap="round" stroke-linejoin="round" fill="none" stroke="#000000" d="M-55.965017-7.818473C-53.010095-3.829248-47.758237-.998755-43.48081 .139749-47.771478 .739105-52.31678 4.443776-56.154329 8.183514"/>
<path transform="matrix(1,0,0,-1,142.18199,32.978738)" stroke-width=".75" stroke-linecap="round" stroke-linejoin="round" fill="none" stroke="#000000" d="M42.46812 .308133C71.20279 .201477 99.679798-.31341 127.710689 .410271"/>
<path transform="matrix(1,0,0,-1,142.18199,32.978738)" stroke-width=".75" stroke-linecap="round" stroke-linejoin="round" fill="none" stroke="#000000" d="M115.156108-7.995343C118.23103-4.095126 122.32923-1.091702 127.749149 .341322 122.03935 .922055 117.57741 3.957449 114.62145 7.768689"/>
<path transform="matrix(1,0,0,-1,142.18199,32.978738)" stroke-width=".75" stroke-linecap="round" stroke-linejoin="round" fill="none" stroke="#000000" d="M213.38509 .230872C227.22237-.032221 242.17746 .073816 256.3239-.271492"/>
<path transform="matrix(1,0,0,-1,142.18199,32.978738)" stroke-width=".75" stroke-linecap="round" stroke-linejoin="round" fill="none" stroke="#000000" d="M243.08008-8.236332C246.16989-3.649077 251.18428-1.240294 256.08775 .44527 251.3157 1.468863 246.58844 4.372654 242.89318 7.618825"/>
<path transform="matrix(1,0,0,-1,142.18199,32.978738)" stroke-width=".75" stroke-linecap="round" stroke-linejoin="round" fill="none" stroke="#000000" d="M-28.578909-25.473927C-27.19047-25.420052-28.143206-25.18384-27.192507-23.983756-8.787259-24.473792 9.916124-24.564335 26.90462-25.040053 43.460706-24.865269 43.26171-25.616047 42.53587-8.983001 42.733049-2.784302 43.50243 3.587861 43.25445 10.28057 42.101236 25.63008 41.895406 24.925776 27.13059 24.386643 9.109954 24.464087-10.18722 24.739884-28.449755 25.280283-42.415334 25.036076-42.706605 24.3462-42.350786 9.664768-42.337579 4.047223-43.64815-4.168148-42.679895-10.73183-42.688806-25.337264-41.880273-24.48741-28.578909-25.473927Z"/>
<path transform="matrix(1,0,0,-1,142.18199,32.978738)" stroke-width=".75" stroke-linecap="round" stroke-linejoin="round" fill="none" stroke="#000000" d="M142.44149-24.972205C143.7902-25.570294 143.31336-24.559405 143.5252-25.528237 160.85147-25.794564 179.71121-25.532055 198.90193-25.889565 212.8304-24.634535 212.90912-25.7982 213.25597-10.279021 213.26859-2.612729 213.7587 3.249304 213.58075 9.012152 213.83281 24.613429 213.67086 24.072566 198.66365 25.152087 179.06427 25.381323 162.01044 25.286086 142.07724 24.313666 127.17965 23.999598 128.46076 24.729327 128.77204 10.175971 127.680217 3.017333 127.79264-3.225303 127.32771-9.449762 127.52823-25.474112 128.55564-25.14813 142.44149-24.972205Z"/>
<path transform="matrix(1,0,0,-1,142.18199,32.978738)" stroke-width=".75" stroke-linecap="round" stroke-linejoin="round" fill="none" stroke="#000000" d="M-85.53583 .364524C-71.59867-.317845-57.409059 .093239-42.9691-.099938"/>
<path transform="matrix(1,0,0,-1,142.18199,32.978738)" stroke-width=".75" stroke-linecap="round" stroke-linejoin="round" fill="none" stroke="#000000" d="M-56.099756-7.927835C-52.703229-4.229435-48.016008-.856143-43.43111-.351817-48.42748 1.379403-53.007497 4.067592-55.618974 7.650714"/>
<path transform="matrix(1,0,0,-1,142.18199,32.978738)" stroke-width=".75" stroke-linecap="round" stroke-linejoin="round" fill="none" stroke="#000000" d="M42.816217-.285729C70.78254-.108046 99.19199 .415717 127.59357-.093705"/>
<path transform="matrix(1,0,0,-1,142.18199,32.978738)" stroke-width=".75" stroke-linecap="round" stroke-linejoin="round" fill="none" stroke="#000000" d="M114.3948-8.418507C117.629-4.130432 122.06089-.956856 127.20607-.209553 122.65755 .943552 118.12032 3.604273 114.82633 8.376603"/>
<path transform="matrix(1,0,0,-1,142.18199,32.978738)" stroke-width=".75" stroke-linecap="round" stroke-linejoin="round" fill="none" stroke="#000000" d="M213.53923-.088006C227.28658-.428878 241.97924-.332345 255.62329 .111271"/>
<path transform="matrix(1,0,0,-1,142.18199,32.978738)" stroke-width=".75" stroke-linecap="round" stroke-linejoin="round" fill="none" stroke="#000000" d="M243.51537-8.056681C246.51163-4.175514 250.69948-1.362331 256.28849 .400063 250.59842 1.214936 246.2226 4.226048 242.9949 7.668033"/>
<use data-text="U" xlink:href="#font_3_8" transform="matrix(21.519457,0,0,-21.519398,6.8142855,38.36002)"/>
<use data-text="(" xlink:href="#font_3_2" transform="matrix(21.519457,0,0,-21.519398,23.470349,38.36002)"/>
<use data-text="s" xlink:href="#font_3_7" transform="matrix(21.519457,0,0,-21.519398,33.01552,38.36002)"/>
<use data-text=")" xlink:href="#font_3_4" transform="matrix(21.519457,0,0,-21.519398,44.002496,38.36002)"/>
<use data-text="Y" xlink:href="#font_3_9" transform="matrix(21.519246,0,0,-21.519398,402.6364,38.36002)"/>
<use data-text="(" xlink:href="#font_3_2" transform="matrix(21.519246,0,0,-21.519398,415.7851,38.36002)"/>
<use data-text="s" xlink:href="#font_3_7" transform="matrix(21.519246,0,0,-21.519398,425.3302,38.36002)"/>
<use data-text=")" xlink:href="#font_3_4" transform="matrix(21.519246,0,0,-21.519398,436.31709,38.36002)"/>
</svg>
