<svg xmlns="http://www.w3.org/2000/svg" xmlns:xlink="http://www.w3.org/1999/xlink" version="1.1" width="325.2213" height="66.78409" viewBox="0 0 325.2213 66.78409">
<defs>
<path id="font_0_1" d="M.44799806 0C.4889984 0 .49798585 .053985597 .49798585 .083984378 .49798585 .083984378 .47999574 .068984989 .4119873 .068984989H.1639862V.6599579C.1639862 .70996096 .07998657 .70996096 .07998657 .70996096V.049987794C.07998657 0 .1639862 0 .1639862 0H.44799806Z"/>
<path id="font_0_2" d="M.47499085 .63119509C.5359955 .6308899 .54499819 .6848602 .54499819 .71484377 .54499819 .7151947 .5269928 .7001953 .45899964 .7001953H.08799744C.019989014 .69984439 .0019989014 .71484377 .0019989014 .71484377 .0019989014 .68518069 .010986328 .63119509 .07199097 .63119509H.22999573V.040222169C.22999573-.009765625 .31399537-.009765625 .31399537-.009765625V.63119509H.47499085Z"/>
<path id="font_0_3" d="M.07998657 .04020691C.07998657-.009765625 .1639862-.009765625 .1639862-.009765625V.65997317C.1639862 .70996096 .07998657 .70996096 .07998657 .70996096V.04020691Z"/>
<path id="font_0_4" d="M0 0Z"/>
<path id="font_0_5" d="M.08799744 .18418885C.07199097 .1532135 .06498718 .12623596 .06498718 .10424805 .06498718 .008270264 .20199585-.01171875 .32099916-.01171875 .46798707-.01171875 .58200076 .059280397 .58200076 .20018006 .58200076 .49899293 .13798523 .33110047 .13798523 .51997378 .13798523 .6079254 .20799256 .63790896 .31599427 .63790896 .42900086 .63790896 .5349884 .62091067 .5349884 .5159912 .5509949 .5479584 .55799868 .5749512 .55799868 .5969391 .55799868 .6919098 .43499757 .71191409 .31599427 .71191409 .16899109 .71191409 .049987794 .66490176 .049987794 .5109863 .049987794 .24215698 .49398805 .4050598 .49398805 .19519043 .49398805 .115234378 .43399049 .06227112 .32099916 .06227112 .20799256 .06227112 .08799744 .07926941 .08799744 .18418885Z"/>
<path id="font_0_6" d="M.039993287 .50683596 .05999756 .31184388C.07299805 .18284607 .14898682 .082839969 .20199585 .05683899 .12998963 .005844116 .06399536-.056152345 .06399536-.14414978 .06399536-.22914124 .115997318-.24414063 .1459961-.24414063 .15699768-.24414063 .1659851-.24014282 .16799927-.239151 .1519928-.20414734 .14498902-.17515564 .14498902-.14915467 .14498902-.08015442 .19499207-.038146974 .2630005 .014846802L.3019867 .04484558C.36099244 .08984375 .43598939 .17784119 .44999696 .31184388L.46998597 .50683596C.46998597 .50683596 .3929901 .50683596 .3869934 .4568329L.36698915 .2898407C.35299684 .1708374 .25498963 .098846439 .25498963 .098846439 .25498963 .098846439 .15699768 .1708374 .14299011 .2898407L.12298584 .4568329C.116989139 .50683596 .039993287 .50683596 .039993287 .50683596Z"/>
<path id="font_0_7" d="M.039993287 .35583497C.039993287 .14614868 .3619995 .28894044 .3619995 .1451416 .3619995 .095214847 .33898927 .058273317 .23599243 .058273317 .1329956 .058273317 .069992069 .09422302 .069992069 .16412354 .050994874 .13417053 .042999269 .109191898 .042999269 .0872345 .042999269 .01727295 .1309967-.01171875 .23599243-.01171875 .37298585-.01171875 .44198609 .04927063 .44198609 .14015198 .44198609 .3718109 .11999512 .23701477 .11999512 .35583497 .11999512 .41575624 .14299011 .44171144 .23599243 .44171144 .33898927 .44171144 .3919983 .4047699 .3919983 .3358612 .4119873 .3668213 .42099 .39378358 .42099 .41575624 .42099 .4837036 .33898927 .51171877 .23599243 .51171877 .10899353 .51171877 .039993287 .45671083 .039993287 .35583497Z"/>
<path id="font_0_8" d="M.069992069 .14929199C.069992069 .04827881 .13899231-.01171875 .24598694-.01171875 .32699586-.01171875 .40899659 .022277832 .40899659 .090286258 .40899659 .11128235 .40098573 .1362915 .38198854 .16429138 .38198854 .09628296 .32299806 .058273317 .2539978 .058273317 .1749878 .058273317 .1499939 .105285648 .1499939 .17729187V.41635133H.30899049C.35798646 .41635133 .35899354 .48535157 .35899354 .48535157H.1499939V.5682068C.1499939 .61813357 .069992069 .6191406 .069992069 .6191406V.14929199Z"/>
<path id="font_0_9" d="M.43199159 .16400147C.43199159 .094177249 .35899354 .058273317 .27198792 .058273317 .1789856 .058273317 .13999939 .094177249 .13999939 .16400147V.23687744C.1639862 .21987915 .21598816 .21289063 .25 .21289063 .39698792 .21289063 .45199586 .2798767 .45199586 .36079408 .45199586 .45170594 .3889923 .51171877 .2619934 .51171877 .1349945 .51171877 .05999756 .45170594 .05999756 .35081483V.14904785C.05999756 .04827881 .13899231-.01171875 .2659912-.01171875 .3639984-.01171875 .45799256 .024276734 .45799256 .094177249 .45799256 .11512756 .44999696 .13807678 .43199159 .16400147M.13999939 .3358307C.13999939 .40574647 .17298889 .4467163 .2619934 .4467163 .34399415 .4467163 .37199403 .41174317 .37199403 .36079408 .37199403 .31185914 .33898927 .2828827 .24398804 .2828827 .20098877 .2828827 .14099121 .29885865 .13999939 .30085755V.3358307Z"/>
<path id="font_0_10" d="M.71199038 .04310608C.71199038-.005844116 .7919922-.0068359377 .7919922-.0068359377V.35879518C.7919922 .46670533 .69999697 .51171877 .60899356 .51171877 .5069885 .51171877 .45298768 .475708 .43399049 .4577179 .40699769 .4947052 .33999635 .51171877 .28399659 .51171877 .22698975 .511322 .17799378 .48832704 .1269989 .48832704 .10899353 .48832704 .069992069 .5063324 .069992069 .5063324V.043060304C.069992069-.0068359377 .1499939-.0068359377 .1499939-.0068359377V.42137147C.1499939 .42137147 .19699097 .44433595 .269989 .44433595 .35899354 .44433595 .3909912 .41537477 .3909912 .34651185V.043060304C.3909912-.0068359377 .47099305-.0068359377 .47099305-.0068359377V.3634796C.47099305 .4084015 .5179901 .44433595 .59098818 .44433595 .66799929 .44433595 .71199038 .41537477 .71199038 .34651185V.04310608Z"/>
<path id="font_1_1" d="M-.0010070801 .39526368 .011993408 .3752594C.034988405 .3882599 .068984989 .40527345 .08299255 .40527345 .09498596 .40527345 .10499573 .40325929 .11099243 .39627076 .12399292 .38226319 .12799073 .3662567 .12799073 .2752533 .12799073 .24624634 .12399292 .14523316 .12399292 .11222839 .12399292 .041229249 .14698792-.009765625 .22898865-.009765625 .2889862-.00982666 .37998963 .043182374 .4169922 .06518555L.4249878 .06417847C.4269867 .045181276 .42999269-.0078125 .49398805-.0078125 .54599-.0078125 .625 .060180665 .6549988 .08618164L.6439972 .10519409 .6359863 .10719299C.61898806 .095184329 .57199099 .06518555 .548996 .06518555 .5369873 .06518555 .5249939 .07017517 .5159912 .07917786 .5 .095184329 .5 .14520264 .5 .18121338 .5 .2732544 .5039978 .3662567 .5119934 .45925904L.49899293 .47026063 .42199708 .43527223C.4229889 .41226197 .4229889 .3692627 .4229889 .31825257 .4229889 .24925232 .4229889 .1662445 .42199708 .10423279 .39698792 .0892334 .33198548 .051223756 .29100038 .051223756 .20899964 .051223756 .20098877 .11022949 .20098877 .24424744 .20098877 .2962494 .20098877 .3792572 .19898987 .39926148 .19699097 .41926576 .19499207 .43927003 .18099976 .45326234 .16899109 .465271 .15098572 .46826173 .1349945 .46826173 .09599304 .46826173 .024993897 .41526795-.0010070801 .39526368Z"/>
<path id="font_1_2" d="M.11299133 .24990845C.11299133 .007904053 .1519928-.09008789 .18299866-.13310242 .21099854-.17008972 .25299073-.20809937 .30099488-.21209717V-.1880951C.2809906-.18409729 .25099183-.16809082 .23399353-.1481018 .21998596-.13209534 .16499329-.05809021 .16499329 .24990845 .16499329 .4618988 .19799805 .5659027 .21998596 .6128998 .23599243 .6469116 .2689972 .6769104 .30099488 .684906V.71191409C.2599945 .7049103 .21598816 .6729126 .19099427 .63790896 .1599884 .5919037 .11299133 .4748993 .11299133 .24990845Z"/>
<path id="font_1_3" d="M.016998291 .40538026 .021987915 .40039063H.13398743L.13999939 .39338685V.20327759C.13999939 .06820679 .14199829 .049209596 .16299439 .022201539 .18099976-.0018005371 .21199036-.0087890629 .23498535-.0087890629 .2619934-.0087890629 .2869873 .0012054443 .31098939 .014205933 .34298707 .031204224 .37199403 .05419922 .39898683 .07922363L.3919983 .09422302 .37998963 .096221927C.34999085 .07720947 .31399537 .0552063 .2889862 .0552063 .27198792 .0552063 .25698854 .06021118 .24398804 .07521057 .22200012 .099227908 .21798706 .16325379 .21798706 .20527649V.39437867L.22399903 .40039063H.34298707L.34899903 .40538026 .35699464 .43138124 .35198976 .43537904H.22399903L.21798706 .4403839C.21899414 .49838258 .22399903 .54937747 .22898865 .6063843L.22200012 .61138918 .13798523 .5823822C.13999939 .5563812 .13999939 .49238587 .13999939 .44137574L.13398743 .43537904H.02999878L.023986817 .42938233 .016998291 .40538026Z"/>
<path id="font_1_4" d="M.085998538-.1880951V-.21209717C.13398743-.20610047 .1789856-.17208863 .20698548-.13510132 .23799134-.09210205 .27598573 .007904053 .27598573 .24990845 .27598573 .50090029 .22399903 .5919037 .19299317 .63790896 .16799927 .6729126 .1269989 .7049103 .085998538 .71191409V.684906C.117996219 .6759033 .14898682 .6469116 .16499329 .6128998 .18699646 .5659027 .22399903 .48190309 .22399903 .24990845 .22399903-.099090579 .17199707-.13209534 .1579895-.1481018 .14099121-.16809082 .10598755-.18409729 .085998538-.1880951Z"/>
<path id="font_1_5" d="M-.01701355 .40115357-.006011963 .38215638C.016998291 .39414979 .04798889 .41015626 .06498718 .41015626 .07699585 .41015626 .08898926 .4061432 .09599304 .39614869 .10798645 .38015748 .11099243 .33815003 .11099243 .29415895 .11099243 .26815797 .10699463 .1771698 .10699463 .15716553 .10699463 .059173585 .12599182-.0078125 .21099854-.0078125 .27198792-.0078125 .36499024 .048187257 .39898683 .06918335L.40499879 .06417847C.39898683-.02079773 .4019928-.19143677 .2559967-.19143677 .21099854-.19143677 .17298889-.1525116 .1519928-.114593509H.13899231L.09498596-.17047119 .09700012-.18145752C.12399292-.20942688 .1769867-.23242188 .22399903-.23242188 .2919922-.23242188 .36299134-.20843506 .41099549-.15750122 .45999146-.10560608 .48399354-.049728395 .4850006 .13816834 .4850006 .15716553 .4850006 .37615968 .4909973 .46214295L.47898866 .466156 .3999939 .42814637C.40499879 .35914613 .4079895 .28715516 .4079895 .21516419 .4079895 .1791687 .40699769 .14317322 .4059906 .108169559 .38598634 .09617615 .32598878 .05618286 .27198792 .05618286 .20799256 .05618286 .18099976 .092178348 .18099976 .22616577 .18099976 .28416444 .18499756 .34214784 .18499756 .39814759 .18499756 .41914369 .17799378 .4681549 .12199402 .4681549 .07899475 .4681549-.009002686 .40715028-.01701355 .40115357Z"/>
</defs>
<use data-text="L" xlink:href="#font_0_1" transform="matrix(21.519288,0,0,-21.519223,110.72351,38.43996)"/>
<use data-text="T" xlink:href="#font_0_2" transform="matrix(21.519288,0,0,-21.519223,118.98607,38.43996)"/>
<use data-text="I" xlink:href="#font_0_3" transform="matrix(21.519288,0,0,-21.519223,130.75711,38.43996)"/>
<use data-text=" " xlink:href="#font_0_4" transform="matrix(21.519288,0,0,-21.519223,136.00783,38.43996)"/>
<use data-text="S" xlink:href="#font_0_5" transform="matrix(21.519288,0,0,-21.519223,142.03322,38.43996)"/>
<use data-text="y" xlink:href="#font_0_6" transform="matrix(21.519288,0,0,-21.519223,155.6334,38.43996)"/>
<use data-text="s" xlink:href="#font_0_7" transform="matrix(21.519288,0,0,-21.519223,166.39305,38.43996)"/>
<use data-text="t" xlink:href="#font_0_8" transform="matrix(21.519288,0,0,-21.519223,176.76535,38.43996)"/>
<use data-text="e" xlink:href="#font_0_9" transform="matrix(21.519288,0,0,-21.519223,185.69585,38.43996)"/>
<use data-text="m" xlink:href="#font_0_10" transform="matrix(21.519288,0,0,-21.519223,196.62766,38.43996)"/>
<path transform="matrix(1,0,0,-1,162.96584,33.37077)" stroke-width=".75" stroke-linecap="round" stroke-linejoin="round" fill="none" stroke="#000000" d="M-51.57989-24.562407C-51.517847-24.541476-52.868799-25.077723-51.578149-25.36676-16.868647-24.874857 16.84834-25.101248 51.548814-24.576174 68.09886-24.644637 68.058177-24.535813 68.01417-9.967599 67.881488-3.397822 66.390048 3.089186 67.00812 10.578031 66.843868 25.852519 66.29482 24.398318 52.43872 26.181796 16.61561 25.870985-16.516 25.714947-53.061498 24.758658-66.54873 25.37737-67.054508 25.140042-67.35316 11.107177-66.52621 3.156478-67.09562-3.206321-67.41157-10.475334-66.53502-25.544934-67.88309-26.250025-51.57989-24.562407Z"/>
<path transform="matrix(1,0,0,-1,162.96584,33.37077)" stroke-width=".75" stroke-linecap="round" stroke-linejoin="round" fill="none" stroke="#000000" d="M-110.12009 .087934C-95.58328 .219723-81.34947 .268542-67.99643-.236251"/>
<path transform="matrix(1,0,0,-1,162.96584,33.37077)" stroke-width=".75" stroke-linecap="round" stroke-linejoin="round" fill="none" stroke="#000000" d="M-80.710178-8.312829C-76.90766-4.262754-72.7364-1.253068-67.61499-.401984-72.93719 1.429165-77.211238 4.34276-79.92039 7.746136"/>
<path transform="matrix(1,0,0,-1,162.96584,33.37077)" stroke-width=".75" stroke-linecap="round" stroke-linejoin="round" fill="none" stroke="#000000" d="M66.97635-.25382C81.18374 .443987 95.44562 .168943 110.19352 .36274"/>
<path transform="matrix(1,0,0,-1,162.96584,33.37077)" stroke-width=".75" stroke-linecap="round" stroke-linejoin="round" fill="none" stroke="#000000" d="M97.40642-8.02736C100.70106-4.407785 105.02462-1.556807 110.183818 .278599 104.481288 1.52481 100.14599 4.295965 97.53579 7.907372"/>
<path transform="matrix(1,0,0,-1,162.96584,33.37077)" stroke-width=".75" stroke-linecap="round" stroke-linejoin="round" fill="none" stroke="#000000" d="M-53.08769-24.871737C-51.777647-25.720629-52.246999-25.334679-51.274816-25.573164-18.105149-24.77169 17.535386-26.248784 51.43008-25.484963 67.483089-24.976159 67.68721-26.09289 67.8592-10.504452 66.798259-2.538933 67.48473 3.272247 67.75423 10.449197 67.05938 24.844273 68.1582 26.198872 51.89821 25.26397 18.10973 24.980124-18.093165 25.04617-52.10986 24.993863-66.30465 26.14832-67.499797 24.918858-68.20833 9.702507-67.34804 3.178623-66.421527-2.465783-67.202617-9.635658-66.76608-24.63716-67.43058-25.74825-53.08769-24.871737Z"/>
<path transform="matrix(1,0,0,-1,162.96584,33.37077)" stroke-width=".75" stroke-linecap="round" stroke-linejoin="round" fill="none" stroke="#000000" d="M-109.70633-.415755C-96.027568-.008925-81.62932-.215646-67.925807 .235689"/>
<path transform="matrix(1,0,0,-1,162.96584,33.37077)" stroke-width=".75" stroke-linecap="round" stroke-linejoin="round" fill="none" stroke="#000000" d="M-80.59072-8.112008C-76.9613-4.342435-72.32226-1.436633-67.67574-.156641-72.80725 .805889-76.80882 4.302675-80.626628 7.892397"/>
<path transform="matrix(1,0,0,-1,162.96584,33.37077)" stroke-width=".75" stroke-linecap="round" stroke-linejoin="round" fill="none" stroke="#000000" d="M67.691448 .449827C81.862758 .074209 95.31212 .296832 109.8338 .126102"/>
<path transform="matrix(1,0,0,-1,162.96584,33.37077)" stroke-width=".75" stroke-linecap="round" stroke-linejoin="round" fill="none" stroke="#000000" d="M96.77572-7.881659C99.843418-4.249418 104.566-1.158163 110.01581 .081991 105.09874 1.59517 100.157268 3.888301 97.48894 8.199636"/>
<path transform="matrix(1,0,0,-1,162.96584,33.37077)" stroke-width=".75" stroke-linecap="round" stroke-linejoin="round" fill="none" stroke="#000000" d="M-51.334367-26.224358C-51.787477-25.730595-52.02657-25.13153-51.379678-25.180565-17.676205-25.268822 17.759667-25.685425 53.01811-25.063656 66.37628-25.560437 67.740009-25.550316 66.75144-10.283093 66.86852-3.512233 67.61522 3.117144 67.50314 9.489159 66.93505 25.447329 67.35574 26.179244 52.019994 24.70523 18.294358 24.57744-17.10979 25.443482-52.380304 24.793074-67.34506 25.625475-67.090328 26.2492-66.83124 10.464847-66.89677 3.797179-67.197719-2.836257-66.64329-10.577709-66.65186-25.437729-66.39423-25.770953-51.334367-26.224358Z"/>
<path transform="matrix(1,0,0,-1,162.96584,33.37077)" stroke-width=".75" stroke-linecap="round" stroke-linejoin="round" fill="none" stroke="#000000" d="M-109.491687-.276856C-96.12548 .035925-81.93596-.370612-67.28117-.236522"/>
<path transform="matrix(1,0,0,-1,162.96584,33.37077)" stroke-width=".75" stroke-linecap="round" stroke-linejoin="round" fill="none" stroke="#000000" d="M-80.267879-7.795814C-77.43226-3.962512-72.93063-1.049677-67.66693 .218074-72.66887 1.233793-77.22747 3.740335-80.2956 8.090695"/>
<path transform="matrix(1,0,0,-1,162.96584,33.37077)" stroke-width=".75" stroke-linecap="round" stroke-linejoin="round" fill="none" stroke="#000000" d="M67.01413 .145455C81.24291 .272071 95.76539 .010795 109.53857-.370329"/>
<path transform="matrix(1,0,0,-1,162.96584,33.37077)" stroke-width=".75" stroke-linecap="round" stroke-linejoin="round" fill="none" stroke="#000000" d="M96.73647-8.333925C100.61004-4.012015 104.67895-1.57094 109.38934 .416678 104.99606 1.456523 100.41529 4.004444 96.875247 8.171105"/>
<path transform="matrix(1,0,0,-1,162.96584,33.37077)" stroke-width=".75" stroke-linecap="round" stroke-linejoin="round" fill="none" stroke="#000000" d="M-53.045488-26.157549C-51.81988-25.476677-52.362504-25.266556-51.37429-24.984677-16.819537-24.39127 17.912573-25.291665 52.181325-24.690869 67.59685-24.89402 66.31292-25.491103 67.36041-9.88752 68.01084-3.382365 67.2486 2.792164 67.7618 9.479829 67.483119 25.423516 67.88585 24.731526 52.594617 25.197369 17.932423 26.164013-17.043913 24.467276-52.776144 25.683018-66.47795 24.58983-66.57831 26.0419-67.30183 11.155809-66.89316 4.263785-67.874507-2.804478-67.60595-9.755563-68.003208-25.83015-66.72278-26.26123-53.045488-26.157549Z"/>
<path transform="matrix(1,0,0,-1,162.96584,33.37077)" stroke-width=".75" stroke-linecap="round" stroke-linejoin="round" fill="none" stroke="#000000" d="M-109.996158-.334463C-95.696628 .208403-81.38299 .381461-68.01263 .334379"/>
<path transform="matrix(1,0,0,-1,162.96584,33.37077)" stroke-width=".75" stroke-linecap="round" stroke-linejoin="round" fill="none" stroke="#000000" d="M-80.62409-7.800108C-76.89234-3.687738-72.39238-1.583574-67.70393 .084775-73.07576 1.520483-76.78774 4.111175-79.86002 7.749974"/>
<path transform="matrix(1,0,0,-1,162.96584,33.37077)" stroke-width=".75" stroke-linecap="round" stroke-linejoin="round" fill="none" stroke="#000000" d="M67.50519-.137962C81.3325 .182821 95.96605 .354749 110.00413 .440236"/>
<path transform="matrix(1,0,0,-1,162.96584,33.37077)" stroke-width=".75" stroke-linecap="round" stroke-linejoin="round" fill="none" stroke="#000000" d="M96.782649-8.467481C99.93332-3.693365 104.795658-1.396386 110.138858-.000467 104.340938 1.055269 100.04013 3.675622 97.50427 7.703094"/>
<path transform="matrix(1,0,0,-1,162.96584,33.37077)" stroke-width=".75" stroke-linecap="round" stroke-linejoin="round" fill="none" stroke="#000000" d="M-52.30155-25.8048C-53.209234-24.747988-52.886636-25.096026-52.064306-25.025176-17.255652-25.266007 16.86346-25.135199 52.527769-25.665036 67.78381-24.747803 67.004848-25.527583 66.64317-10.020141 67.829959-3.814521 67.596279 3.780798 67.98473 10.849329 68.013149 24.986536 66.57109 25.846457 53.09282 25.636984 16.743779 24.427004-18.370394 25.824084-51.987985 24.682991-66.41 24.423609-66.63421 24.514866-67.98899 11.048885-67.306118 4.028148-66.445407-3.423707-67.88308-9.487982-66.524448-25.781332-68.18972-24.438403-52.30155-25.8048Z"/>
<path transform="matrix(1,0,0,-1,162.96584,33.37077)" stroke-width=".75" stroke-linecap="round" stroke-linejoin="round" fill="none" stroke="#000000" d="M-109.64232-.30712C-95.423229-.036942-81.42754 .232857-67.81718-.045607"/>
<path transform="matrix(1,0,0,-1,162.96584,33.37077)" stroke-width=".75" stroke-linecap="round" stroke-linejoin="round" fill="none" stroke="#000000" d="M-79.855388-8.235229C-76.92271-4.302178-72.92097-1.122731-67.68614 .397105-72.37817 1.56628-77.3076 4.055917-80.27368 8.003809"/>
<path transform="matrix(1,0,0,-1,162.96584,33.37077)" stroke-width=".75" stroke-linecap="round" stroke-linejoin="round" fill="none" stroke="#000000" d="M67.21685 .255421C81.840167-.04869 95.85905 .225706 109.70439 .221258"/>
<path transform="matrix(1,0,0,-1,162.96584,33.37077)" stroke-width=".75" stroke-linecap="round" stroke-linejoin="round" fill="none" stroke="#000000" d="M96.97245-8.402058C100.70499-4.175423 104.490489-1.094642 109.71117-.146192 104.8691 1.530056 100.11978 4.011646 97.06113 7.739007"/>
<use data-text="u" xlink:href="#font_1_1" transform="matrix(21.51904,0,0,-21.519398,6.835827,38.752054)"/>
<use data-text="(" xlink:href="#font_1_2" transform="matrix(21.51904,0,0,-21.519398,20.651053,38.752054)"/>
<use data-text="t" xlink:href="#font_1_3" transform="matrix(21.51904,0,0,-21.519398,30.19604,38.752054)"/>
<use data-text=")" xlink:href="#font_1_4" transform="matrix(21.51904,0,0,-21.519398,40.34356,38.752054)"/>
<use data-text="y" xlink:href="#font_1_5" transform="matrix(21.519242,0,0,-21.519371,277.59306,38.526029)"/>
<use data-text="(" xlink:href="#font_1_2" transform="matrix(21.519242,0,0,-21.519371,290.35398,38.526029)"/>
<use data-text="t" xlink:href="#font_1_3" transform="matrix(21.519242,0,0,-21.519371,299.89906,38.526029)"/>
<use data-text=")" xlink:href="#font_1_4" transform="matrix(21.519242,0,0,-21.519371,310.04667,38.526029)"/>
</svg>
