<svg xmlns="http://www.w3.org/2000/svg" xmlns:xlink="http://www.w3.org/1999/xlink" version="1.1" width="270.61289" height="66.03551" viewBox="0 0 270.61289 66.03551">
<defs>
<path id="font_2_6" d="M.08999634 .32458497C.08999634 .22958374 .114990238 .13148499 .18299866 .06341553 .23699951 .009384155 .31199647-.016601563 .3880005-.016601563 .46099855-.016601563 .56900027 .010391235 .6569977 .03338623 .6569977 .03338623 .6539917 .216568 .6519928 .30760194L.37599183 .2966156V.27061463L.38198854 .265625C.43598939 .26361085 .5 .25961305 .5439911 .25660707 .57199099 .25460816 .57199099 .22257996 .57199099 .13449097 .57199099 .061416627 .56900027 .04940796 .5519867 .045394899 .5209961 .038391115 .48999024 .03538513 .45799256 .03538513 .37998963 .03538513 .30599977 .060409547 .2619934 .112472537 .20399475 .18052674 .17999268 .25260926 .17999268 .3405609 .17999268 .48339845 .23199463 .5653076 .26098634 .5942688 .3039856 .63623049 .36299134 .6502075 .42199708 .6502075 .5529938 .6502075 .59298709 .5563202 .60598757 .53034976L.6179962 .5293579 .6759949 .58628848C.6649933 .6032715 .6119995 .69921877 .46699525 .69921877 .3619995 .69921877 .25698854 .6682129 .18199158 .593277 .11199951 .5233612 .08999634 .4224701 .08999634 .32458497Z"/>
<path id="font_2_2" d="M.11299133 .24990845C.11299133 .007904053 .1519928-.09008789 .18299866-.13310242 .21099854-.17008972 .25299073-.20809937 .30099488-.21209717V-.1880951C.2809906-.18409729 .25099183-.16809082 .23399353-.1481018 .21998596-.13209534 .16499329-.05809021 .16499329 .24990845 .16499329 .4618988 .19799805 .5659027 .21998596 .6128998 .23599243 .6469116 .2689972 .6769104 .30099488 .684906V.71191409C.2599945 .7049103 .21598816 .6729126 .19099427 .63790896 .1599884 .5919037 .11299133 .4748993 .11299133 .24990845Z"/>
<path id="font_2_7" d="M.051986696 .06642151C.06199646 .047409059 .07598877 .030395508 .09199524 .01638794 .12098694-.009613037 .16099549-.016601563 .19898987-.016601563 .2559967-.016601563 .31199647 .0023956299 .35099793 .044403078 .375 .06941223 .3869934 .10343933 .3869934 .13845825 .3869934 .1634674 .37298585 .18649292 .35499574 .20449829 .34098817 .21850586 .3039856 .24052429 .27198792 .25453187 .24299622 .26654054 .19999695 .2885437 .18798828 .30055238 .17298889 .31655885 .1619873 .3285675 .1619873 .35058595 .1619873 .3725891 .16899109 .39360047 .18499756 .4086151 .19999695 .42362977 .22200012 .43164063 .24398804 .43164063 .2639923 .43164063 .2849884 .42462159 .29599 .4066162 .30599977 .39060975 .30799867 .3715973 .30899049 .35359193L.32099916 .34657289 .37599183 .38360597C.375 .40560914 .3639984 .42662049 .34799195 .44163514 .32499696 .46263124 .29299928 .46662904 .2630005 .46662904 .21398926 .46662904 .16699219 .45063783 .1309967 .4176178 .10398865 .39360047 .08999634 .35858155 .08999634 .32356263 .08999634 .29154969 .10798645 .26353456 .1309967 .2425232 .1539917 .22250366 .18399048 .2084961 .21499634 .1954956 .24099732 .18447876 .2689972 .17248535 .28799439 .1534729 .30299378 .13845825 .31399537 .11845398 .31399537 .09744263 .31399537 .079422 .30499269 .062408449 .29299928 .04940796 .27799989 .03340149 .25099183 .021392823 .22898865 .021392823 .19898987 .021392823 .17199707 .03439331 .1499939 .055404664 .1269989 .076416019 .116989139 .10644531 .114990238 .13645935L.100997928 .13745117 .051986696 .06642151Z"/>
<path id="font_2_4" d="M.085998538-.1880951V-.21209717C.13398743-.20610047 .1789856-.17208863 .20698548-.13510132 .23799134-.09210205 .27598573 .007904053 .27598573 .24990845 .27598573 .50090029 .22399903 .5919037 .19299317 .63790896 .16799927 .6729126 .1269989 .7049103 .085998538 .71191409V.684906C.117996219 .6759033 .14898682 .6469116 .16499329 .6128998 .18699646 .5659027 .22399903 .48190309 .22399903 .24990845 .22399903-.099090579 .17199707-.13209534 .1579895-.1481018 .14099121-.16809082 .10598755-.18409729 .085998538-.1880951Z"/>
<path id="font_2_8" d="M.033996583 .6733093 .035995485 .6533203C.037994386 .6533203 .07398987 .6443176 .09199524 .63931277 .12298584 .6313019 .125 .6222992 .125 .54229739 .125 .46427918 .12199402 .38627626 .12199402 .30825807 .12199402 .24723816 .12399292 .17323303 .12998963 .12721253 .1349945 .08821106 .1559906-.0087890629 .31399537-.0087890629 .39698792-.0087890629 .47698976 .02520752 .5469971 .07020569L.5549927 .064208988C.5549927 .048202516 .5549927 .032196046 .55599978 .016204834 .55799868 .0012054443 .57598879-.0047912599 .58799746-.0047912599 .61898806-.0047912599 .6899872 .016204834 .7409973 .032196046L.74598696 .03919983 .74198916 .05619812C.7220001 .05419922 .70399478 .048202516 .6839905 .048202516 .673996 .048202516 .6609955 .050201417 .6539917 .0592041 .6389923 .07620239 .6359863 .15222168 .6359863 .20223999 .6359863 .3642578 .6369934 .5733032 .6519928 .68733218L.6459961 .69433596 .55799868 .659317C.55599978 .47727967 .55400088 .2942505 .55400088 .11122131 .5 .079208377 .43998719 .052200319 .37799073 .052200319 .24598694 .052200319 .22399903 .13922119 .21598816 .16522217 .20599365 .19923401 .20199585 .23423767 .20199585 .26924134L.20999146 .54229739C.20999146 .55929568 .21598816 .6603241 .21798706 .67433169L.21099854 .6803131H.041992189L.033996583 .6733093Z"/>
<path id="font_2_9" d="M.022994996 .6513672C.036987306 .649353 .049987794 .6463623 .06298828 .6433563 .07199097 .6413574 .07998657 .6353607 .085998538 .62835696 .09599304 .61834719 .102996829 .60635378 .10899353 .5943451L.2579956 .29930116C.2579956 .19927979 .2579956 .0982666 .25498963-.0017547608L.2659912-.0107421879 .35598756 .018249512 .34700013 .30630494C.42999269 .4343109 .5039978 .5303345 .61499026 .675354L.61099246 .6933594 .526001 .6763611C.48999024 .619339 .4059906 .47431947 .397995 .46032716 .3849945 .4373169 .34199525 .36730958 .33898927 .3623047 .33599855 .3572998 .33198548 .353302 .32798768 .353302 .32199098 .353302 .31698609 .3592987 .31599427 .36131288L.1749878 .6863556H.02999878L.022994996 .67936709V.6513672Z"/>
</defs>
<use data-text="G" xlink:href="#font_2_6" transform="matrix(21.51903,0,0,-21.519398,114.38283,38.319253)"/>
<use data-text="(" xlink:href="#font_2_2" transform="matrix(21.51903,0,0,-21.519398,130.8449,38.319253)"/>
<use data-text="s" xlink:href="#font_2_7" transform="matrix(21.51903,0,0,-21.519398,140.38988,38.319253)"/>
<use data-text=")" xlink:href="#font_2_4" transform="matrix(21.51903,0,0,-21.519398,151.37664,38.319253)"/>
<path transform="matrix(1,0,0,-1,137.06076,32.937959)" stroke-width=".75" stroke-linecap="round" stroke-linejoin="round" fill="none" stroke="#000000" d="M-23.454104-24.782092C-21.72507-24.823233-21.70456-24.372864-23.210288-24.272566-8.366349-25.895176 8.091555-25.10054 22.769469-25.680224 36.78529-24.857535 37.273035-25.224307 37.315786-9.422372 38.040803-3.685051 37.197275 3.721045 37.5832 10.613126 37.24439 25.06417 37.075815 24.096922 21.926333 25.441693 7.633431 25.415066-8.478017 25.600358-22.85436 25.54454-37.374948 25.299302-38.10128 24.868588-38.32728 9.680016-38.548227 3.396401-36.895357-4.10929-37.90504-9.02367-37.442857-25.341885-37.885087-23.993723-23.454104-24.782092Z"/>
<path transform="matrix(1,0,0,-1,137.06076,32.937959)" stroke-width=".75" stroke-linecap="round" stroke-linejoin="round" fill="none" stroke="#000000" d="M-80.3702-.44035C-66.47006-.438101-52.32007-.20832-37.847658 .386056"/>
<path transform="matrix(1,0,0,-1,137.06076,32.937959)" stroke-width=".75" stroke-linecap="round" stroke-linejoin="round" fill="none" stroke="#000000" d="M-50.426435-7.822858C-47.405576-3.935012-43.215017-1.508768-37.854597 .365816-42.817708 1.506071-47.099477 3.797992-50.93401 8.098168"/>
<path transform="matrix(1,0,0,-1,137.06076,32.937959)" stroke-width=".75" stroke-linecap="round" stroke-linejoin="round" fill="none" stroke="#000000" d="M37.578264-.035601C51.454267 .142928 65.83845-.18799 80.41814-.426866"/>
<path transform="matrix(1,0,0,-1,137.06076,32.937959)" stroke-width=".75" stroke-linecap="round" stroke-linejoin="round" fill="none" stroke="#000000" d="M67.1333-7.732264C70.481838-3.588075 75.51753-1.390376 80.560558-.311366 75.5153 .72204 70.60042 4.348906 67.45265 8.476972"/>
<path transform="matrix(1,0,0,-1,137.06076,32.937959)" stroke-width=".75" stroke-linecap="round" stroke-linejoin="round" fill="none" stroke="#000000" d="M-22.443606-24.189547C-23.025464-25.62933-22.692185-24.353728-22.255436-24.439225-6.8733-24.10334 8.522283-24.060332 23.650025-24.358616 37.01349-24.398217 37.783006-25.569878 37.957677-9.890951 38.559286-2.803768 37.89625 4.140271 37.655977 9.206957 38.503576 25.236483 38.58991 25.415869 23.14154 24.35966 7.954284 23.98317-7.689584 24.471669-23.11473 24.495354-37.01744 25.588112-37.434598 24.94081-37.822336 10.619024-38.240999 2.958693-38.461488-3.503663-37.968706-10.522948-38.510526-25.108597-37.863615-25.15039-22.443606-24.189547Z"/>
<path transform="matrix(1,0,0,-1,137.06076,32.937959)" stroke-width=".75" stroke-linecap="round" stroke-linejoin="round" fill="none" stroke="#000000" d="M-80.637 .326018C-66.49095-.364691-51.961194-.181284-37.982507-.325809"/>
<path transform="matrix(1,0,0,-1,137.06076,32.937959)" stroke-width=".75" stroke-linecap="round" stroke-linejoin="round" fill="none" stroke="#000000" d="M-50.8356-7.849205C-47.92403-3.918885-43.00857-1.460982-37.797098-.304604-42.68965 1.293038-47.674459 4.323395-50.6763 8.227144"/>
<path transform="matrix(1,0,0,-1,137.06076,32.937959)" stroke-width=".75" stroke-linecap="round" stroke-linejoin="round" fill="none" stroke="#000000" d="M37.987089 .395402C51.985139-.404968 65.70732-.419624 80.62298 .269059"/>
<path transform="matrix(1,0,0,-1,137.06076,32.937959)" stroke-width=".75" stroke-linecap="round" stroke-linejoin="round" fill="none" stroke="#000000" d="M67.45054-7.97237C70.875-4.381041 75.50962-.912175 80.144908-.038418 75.09315 1.096573 70.92088 3.810925 67.721439 8.35698"/>
<path transform="matrix(1,0,0,-1,137.06076,32.937959)" stroke-width=".75" stroke-linecap="round" stroke-linejoin="round" fill="none" stroke="#000000" d="M-22.593037-25.388316C-21.869702-25.085635-23.07456-24.219788-23.491154-25.7963-8.311549-24.82857 6.71198-24.43309 22.208365-24.678576 36.830224-25.83804 37.180639-24.939248 37.983949-9.120971 37.174886-3.141708 36.765287 2.752729 37.20064 9.430023 38.20887 25.377268 38.61859 25.575259 22.679127 24.465134 7.983498 25.112696-6.620825 25.353558-23.536866 25.295016-37.461774 24.342129-38.642999 24.803526-37.715188 9.506137-37.229475 2.533653-37.132268-2.86877-37.765829-10.121555-37.304407-25.255988-37.56201-24.056069-22.593037-25.388316Z"/>
<path transform="matrix(1,0,0,-1,137.06076,32.937959)" stroke-width=".75" stroke-linecap="round" stroke-linejoin="round" fill="none" stroke="#000000" d="M-79.77774-.139854C-65.87408-.318721-52.30794 .423924-38.29182-.328198"/>
<path transform="matrix(1,0,0,-1,137.06076,32.937959)" stroke-width=".75" stroke-linecap="round" stroke-linejoin="round" fill="none" stroke="#000000" d="M-50.647348-7.657468C-47.70267-3.881971-43.457883-1.156983-38.174634-.316534-42.803518 1.129794-47.294557 4.268502-50.472665 7.697095"/>
<path transform="matrix(1,0,0,-1,137.06076,32.937959)" stroke-width=".75" stroke-linecap="round" stroke-linejoin="round" fill="none" stroke="#000000" d="M38.029764-.44981C51.71887-.31113 65.97491 .07319 79.76613 .349694"/>
<path transform="matrix(1,0,0,-1,137.06076,32.937959)" stroke-width=".75" stroke-linecap="round" stroke-linejoin="round" fill="none" stroke="#000000" d="M67.1506-8.483945C70.76945-4.250036 75.35029-.979691 80.1871 .179897 75.371799 1.006361 70.57619 3.893076 67.130107 8.032012"/>
<path transform="matrix(1,0,0,-1,137.06076,32.937959)" stroke-width=".75" stroke-linecap="round" stroke-linejoin="round" fill="none" stroke="#000000" d="M-22.569846-25.908576C-22.677765-25.248328-22.672627-24.366162-22.547108-24.691273-6.67607-25.46985 6.949977-24.192755 21.858342-24.232739 37.009267-25.81769 37.333604-25.175578 38.39943-9.148078 37.633878-4.010464 36.73179 3.355348 38.337797 8.993469 38.28513 24.070269 37.1757 24.983944 23.468333 24.167965 6.660791 24.504916-8.457448 24.800995-22.07528 25.748986-38.464735 24.465777-37.315809 24.67301-38.640707 9.664273-38.46985 3.981312-37.723127-3.294963-36.968286-10.128581-36.73646-24.953942-37.27797-25.47034-22.569846-25.908576Z"/>
<path transform="matrix(1,0,0,-1,137.06076,32.937959)" stroke-width=".75" stroke-linecap="round" stroke-linejoin="round" fill="none" stroke="#000000" d="M-80.12468-.029771C-65.986019 .157667-52.16142 .238379-37.922468-.427334"/>
<path transform="matrix(1,0,0,-1,137.06076,32.937959)" stroke-width=".75" stroke-linecap="round" stroke-linejoin="round" fill="none" stroke="#000000" d="M-50.982934-8.32701C-47.714887-3.688326-43.367788-1.360203-38.209329-.208914-43.102575 1.443753-47.363519 3.961083-50.93262 7.697631"/>
<path transform="matrix(1,0,0,-1,137.06076,32.937959)" stroke-width=".75" stroke-linecap="round" stroke-linejoin="round" fill="none" stroke="#000000" d="M38.030344-.26814C52.232446 .235179 66.16031 .199938 80.4269-.112614"/>
<path transform="matrix(1,0,0,-1,137.06076,32.937959)" stroke-width=".75" stroke-linecap="round" stroke-linejoin="round" fill="none" stroke="#000000" d="M67.60203-8.367272C70.2892-3.791801 75.29356-1.154213 80.357 .323183 75.03947 1.476505 70.77108 4.023731 67.658397 7.666268"/>
<path transform="matrix(1,0,0,-1,137.06076,32.937959)" stroke-width=".75" stroke-linecap="round" stroke-linejoin="round" fill="none" stroke="#000000" d="M-23.56733-24.703864C-23.479727-24.828366-22.976387-24.709912-22.41236-24.846005-8.080705-25.843024 7.900656-25.859728 23.598927-24.16891 37.848119-24.632185 36.9628-24.291024 37.503377-9.045577 37.492334-2.700747 37.872449 2.460305 38.429128 9.70926 36.877527 24.89547 37.616285 24.991959 21.919873 25.662125 7.425104 25.864649-7.830419 24.755515-23.139723 24.528136-37.219335 24.299397-37.85054 25.659636-38.120058 9.204772-36.81195 4.283331-36.70539-4.205187-37.97929-10.508448-37.978479-24.025515-37.889207-24.580489-23.56733-24.703864Z"/>
<path transform="matrix(1,0,0,-1,137.06076,32.937959)" stroke-width=".75" stroke-linecap="round" stroke-linejoin="round" fill="none" stroke="#000000" d="M-80.45902-.12461C-66.4037-.246034-52.46155-.403624-37.83586 .182287"/>
<path transform="matrix(1,0,0,-1,137.06076,32.937959)" stroke-width=".75" stroke-linecap="round" stroke-linejoin="round" fill="none" stroke="#000000" d="M-50.955747-8.350505C-47.53938-4.382917-43.342134-.915269-37.73624 .332473-43.04855 1.176303-47.603914 4.337281-50.40547 8.384098"/>
<path transform="matrix(1,0,0,-1,137.06076,32.937959)" stroke-width=".75" stroke-linecap="round" stroke-linejoin="round" fill="none" stroke="#000000" d="M37.588197-.418821C52.09678 .332617 66.41593 .194667 80.5024-.44215"/>
<path transform="matrix(1,0,0,-1,137.06076,32.937959)" stroke-width=".75" stroke-linecap="round" stroke-linejoin="round" fill="none" stroke="#000000" d="M67.34755-8.469304C70.73421-3.617689 75.59989-1.206929 80.44802-.063444 75.615139 1.385865 70.98114 3.647806 67.38228 8.178657"/>
<use data-text="U" xlink:href="#font_2_8" transform="matrix(21.519457,0,0,-21.519398,6.8142855,38.319253)"/>
<use data-text="(" xlink:href="#font_2_2" transform="matrix(21.519457,0,0,-21.519398,23.470349,38.319253)"/>
<use data-text="s" xlink:href="#font_2_7" transform="matrix(21.519457,0,0,-21.519398,33.01552,38.319253)"/>
<use data-text=")" xlink:href="#font_2_4" transform="matrix(21.519457,0,0,-21.519398,44.002496,38.319253)"/>
<use data-text="Y" xlink:href="#font_2_9" transform="matrix(21.519246,0,0,-21.519398,221.75765,38.319253)"/>
<use data-text="(" xlink:href="#font_2_2" transform="matrix(21.519246,0,0,-21.519398,234.90636,38.319253)"/>
<use data-text="s" xlink:href="#font_2_7" transform="matrix(21.519246,0,0,-21.519398,244.45143,38.319253)"/>
<use data-text=")" xlink:href="#font_2_4" transform="matrix(21.519246,0,0,-21.519398,255.43831,38.319253)"/>
</svg>
