<svg xmlns="http://www.w3.org/2000/svg" xmlns:xlink="http://www.w3.org/1999/xlink" version="1.1" width="946.65377" height="180.84494" viewBox="0 0 946.65377 180.84494">
<defs>
<path id="font_1_1" d="M.08999634 .32458497C.08999634 .22958374 .114990238 .13148499 .18299866 .06341553 .23699951 .009384155 .31199647-.016601563 .3880005-.016601563 .46099855-.016601563 .56900027 .010391235 .6569977 .03338623 .6569977 .03338623 .6539917 .216568 .6519928 .30760194L.37599183 .2966156V.27061463L.38198854 .265625C.43598939 .26361085 .5 .25961305 .5439911 .25660707 .57199099 .25460816 .57199099 .22257996 .57199099 .13449097 .57199099 .061416627 .56900027 .04940796 .5519867 .045394899 .5209961 .038391115 .48999024 .03538513 .45799256 .03538513 .37998963 .03538513 .30599977 .060409547 .2619934 .112472537 .20399475 .18052674 .17999268 .25260926 .17999268 .3405609 .17999268 .48339845 .23199463 .5653076 .26098634 .5942688 .3039856 .63623049 .36299134 .6502075 .42199708 .6502075 .5529938 .6502075 .59298709 .5563202 .60598757 .53034976L.6179962 .5293579 .6759949 .58628848C.6649933 .6032715 .6119995 .69921877 .46699525 .69921877 .3619995 .69921877 .25698854 .6682129 .18199158 .593277 .11199951 .5233612 .08999634 .4224701 .08999634 .32458497Z"/>
<path id="font_1_2" d="M.11299133 .24990845C.11299133 .007904053 .1519928-.09008789 .18299866-.13310242 .21099854-.17008972 .25299073-.20809937 .30099488-.21209717V-.1880951C.2809906-.18409729 .25099183-.16809082 .23399353-.1481018 .21998596-.13209534 .16499329-.05809021 .16499329 .24990845 .16499329 .4618988 .19799805 .5659027 .21998596 .6128998 .23599243 .6469116 .2689972 .6769104 .30099488 .684906V.71191409C.2599945 .7049103 .21598816 .6729126 .19099427 .63790896 .1599884 .5919037 .11299133 .4748993 .11299133 .24990845Z"/>
<path id="font_1_3" d="M.051986696 .06642151C.06199646 .047409059 .07598877 .030395508 .09199524 .01638794 .12098694-.009613037 .16099549-.016601563 .19898987-.016601563 .2559967-.016601563 .31199647 .0023956299 .35099793 .044403078 .375 .06941223 .3869934 .10343933 .3869934 .13845825 .3869934 .1634674 .37298585 .18649292 .35499574 .20449829 .34098817 .21850586 .3039856 .24052429 .27198792 .25453187 .24299622 .26654054 .19999695 .2885437 .18798828 .30055238 .17298889 .31655885 .1619873 .3285675 .1619873 .35058595 .1619873 .3725891 .16899109 .39360047 .18499756 .4086151 .19999695 .42362977 .22200012 .43164063 .24398804 .43164063 .2639923 .43164063 .2849884 .42462159 .29599 .4066162 .30599977 .39060975 .30799867 .3715973 .30899049 .35359193L.32099916 .34657289 .37599183 .38360597C.375 .40560914 .3639984 .42662049 .34799195 .44163514 .32499696 .46263124 .29299928 .46662904 .2630005 .46662904 .21398926 .46662904 .16699219 .45063783 .1309967 .4176178 .10398865 .39360047 .08999634 .35858155 .08999634 .32356263 .08999634 .29154969 .10798645 .26353456 .1309967 .2425232 .1539917 .22250366 .18399048 .2084961 .21499634 .1954956 .24099732 .18447876 .2689972 .17248535 .28799439 .1534729 .30299378 .13845825 .31399537 .11845398 .31399537 .09744263 .31399537 .079422 .30499269 .062408449 .29299928 .04940796 .27799989 .03340149 .25099183 .021392823 .22898865 .021392823 .19898987 .021392823 .17199707 .03439331 .1499939 .055404664 .1269989 .076416019 .116989139 .10644531 .114990238 .13645935L.100997928 .13745117 .051986696 .06642151Z"/>
<path id="font_1_4" d="M.085998538-.1880951V-.21209717C.13398743-.20610047 .1789856-.17208863 .20698548-.13510132 .23799134-.09210205 .27598573 .007904053 .27598573 .24990845 .27598573 .50090029 .22399903 .5919037 .19299317 .63790896 .16799927 .6729126 .1269989 .7049103 .085998538 .71191409V.684906C.117996219 .6759033 .14898682 .6469116 .16499329 .6128998 .18699646 .5659027 .22399903 .48190309 .22399903 .24990845 .22399903-.099090579 .17199707-.13209534 .1579895-.1481018 .14099121-.16809082 .10598755-.18409729 .085998538-.1880951Z"/>
<path id="font_1_5" d="M.026992798 0 .12098694 .010986328C.13699341 .04496765 .18998719 .12893677 .22799683 .18190003 .2559967 .22288513 .29699708 .27885438 .31098939 .29585267H.32299806L.46598817 .05696106C.47999574 .034973146 .49398805 .0129852299 .5119934-.005004883L.526001-.011001587 .6359863 .015991211V.031982423L.6309967 .035980226C.6230011 .037979127 .6009979 .051971437 .59399417 .05895996L.5339966 .13093567C.49499513 .17990113 .37799073 .3668213 .37799073 .37980653 .38198854 .3868103 .4149933 .43078614 .44499208 .46577455L.6319885 .67167666V.686676L.5369873 .67367556C.5369873 .67367556 .49198915 .6027069 .45999146 .5567322 .4269867 .51174929 .3619995 .42678834 .35699464 .4217987H.34799195L.20098877 .6876831C.1559906 .6846771 .07998657 .6806793 .054992677 .6796875L.04798889 .67367556V.64868167C.066986087 .643692 .083999637 .63868716 .09799194 .6336975 .115997318 .6266937 .14199829 .60769656 .15299988 .5897064 .19898987 .50775149 .2939911 .3458252 .2979889 .34483338L.026992798 .015991211V0Z"/>
<path id="font_1_6" d="M.022994996 .6513672C.036987306 .649353 .049987794 .6463623 .06298828 .6433563 .07199097 .6413574 .07998657 .6353607 .085998538 .62835696 .09599304 .61834719 .102996829 .60635378 .10899353 .5943451L.2579956 .29930116C.2579956 .19927979 .2579956 .0982666 .25498963-.0017547608L.2659912-.0107421879 .35598756 .018249512 .34700013 .30630494C.42999269 .4343109 .5039978 .5303345 .61499026 .675354L.61099246 .6933594 .526001 .6763611C.48999024 .619339 .4059906 .47431947 .397995 .46032716 .3849945 .4373169 .34199525 .36730958 .33898927 .3623047 .33599855 .3572998 .33198548 .353302 .32798768 .353302 .32199098 .353302 .31698609 .3592987 .31599427 .36131288L.1749878 .6863556H.02999878L.022994996 .67936709V.6513672Z"/>
<path id="font_1_7" d="M.04598999 .020996094 .04699707 0C.23899842 .0002746582 .49299623 .0002746582 .621994-.01171875L.6399994 .059280397 .6309967 .06826782 .20199585 .053985597 .19599915 .06098938C.28599549 .20005799 .45999146 .4711914 .59498599 .6642914V.68330386C.44599916 .68330386 .2979889 .6863098 .1499939 .6953125L.14099121 .68730166V.6332855L.14698792 .62828066C.17399597 .63127139 .27598573 .6372833 .46299745 .6372833L.46998597 .62727358 .04598999 .020996094Z"/>
<path id="font_1_8" d="M.08099365 .036132814H.73999026L.7489929 .07511902H.08999634L.08099365 .036132814M.08099365 .23046875H.73999026L.7489929 .27046205H.08999634L.08099365 .23046875M.08099365 .4248352H.73999026L.7489929 .46484376H.08999634L.08099365 .4248352Z"/>
<path id="font_1_9" d="M.09199524 .6121063H.1749878C.19999695 .6121063 .21998596 .5911102 .22099304 .56611636 .22200012 .5411072 .22200012 .46810914 .22200012 .41911317 .22200012 .27911378 .21899414 .13911438 .21398926 .00010681152L.22599793-.0048828127 .30999757 .022109986C.30699159 .09811401 .30699159 .29611207 .30699159 .43211366 .30699159 .52111819 .30899049 .6111145 .31399537 .70010378L.30799867 .7121124 .09199524 .6391144V.6121063Z"/>
</defs>
<use data-text="G" xlink:href="#font_1_1" transform="matrix(21.51903,0,0,-21.519398,154.5773,70.21083)"/>
<use data-text="(" xlink:href="#font_1_2" transform="matrix(21.51903,0,0,-21.519398,171.03936,70.21083)"/>
<use data-text="s" xlink:href="#font_1_3" transform="matrix(21.51903,0,0,-21.519398,180.58434,70.21083)"/>
<use data-text=")" xlink:href="#font_1_4" transform="matrix(21.51903,0,0,-21.519398,191.57109,70.21083)"/>
<path transform="matrix(1,0,0,-1,414.38954,90.42247)" stroke-width=".75" stroke-linecap="round" stroke-linejoin="round" fill="none" stroke="#000000" d="M-260.4977-.171452C-259.0655 1.500032-259.64543 .896773-259.31599 1.239824-245.00595-.001453-229.98897 .148868-214.40186 .115156-199.07549 1.166099-199.27967-.245068-199.94797 15.009684-200.10611 22.402213-199.62734 27.951289-199.90123 35.68561-199.08158 49.580865-198.83554 49.74682-214.24539 49.69345-230.4923 50.103395-244.10929 50.61384-259.93638 49.73191-274.81986 50.26171-274.2264 49.70773-274.83888 34.86144-273.9029 28.029299-273.96937 22.789212-274.317 15.205539-275.4127-.080036-274.65055 1.074019-260.4977-.171452Z"/>
<path transform="matrix(1,0,0,-1,414.38954,90.42247)" stroke-width=".75" stroke-linecap="round" stroke-linejoin="round" fill="none" stroke="#000000" d="M-359.68827 25.455668C-331.35014 25.157729-303.39546 25.527003-274.76408 25.68108"/>
<path transform="matrix(1,0,0,-1,414.38954,90.42247)" stroke-width=".75" stroke-linecap="round" stroke-linejoin="round" fill="none" stroke="#000000" d="M-288.1591 17.196969C-284.3108 21.527859-280.65428 24.614439-275.11503 25.38839-280.45625 27.068928-284.96348 29.750973-288.07673 34.049745"/>
<path transform="matrix(1,0,0,-1,414.38954,90.42247)" stroke-width=".75" stroke-linecap="round" stroke-linejoin="round" fill="none" stroke="#000000" d="M-199.18395 25.599339C-177.94068 25.497775-156.73656 25.324059-135.44387 25.433045"/>
<path transform="matrix(1,0,0,-1,414.38954,90.42247)" stroke-width=".75" stroke-linecap="round" stroke-linejoin="round" fill="none" stroke="#000000" d="M-148.5219 17.303814C-145.55353 21.173596-140.67714 24.064763-136.04349 25.95571-140.27996 26.39284-144.72484 29.643754-148.50432 33.760736"/>
<path transform="matrix(1,0,0,-1,414.38954,90.42247)" stroke-width=".75" stroke-linecap="round" stroke-linejoin="round" fill="none" stroke="#000000" d="M-317.0527 25.456093C-317.6484 3.530558-317.74385-19.797928-317.77043-42.21402-256.96263-42.10329-196.11472-41.457384-135.70587-41.58662"/>
<path transform="matrix(1,0,0,-1,414.38954,90.42247)" stroke-width=".75" stroke-linecap="round" stroke-linejoin="round" fill="none" stroke="#000000" d="M-147.92108-49.770414C-144.99793-45.618597-140.6486-42.731168-136.07839-41.688299-140.80133-40.383687-144.99704-37.977884-148.44766-33.92309"/>
<path transform="matrix(1,0,0,-1,414.38954,90.42247)" stroke-width=".75" stroke-linecap="round" stroke-linejoin="round" fill="none" stroke="#000000" d="M-260.63633 1.527867C-260.0659 .838098-258.9756 .145625-260.32383 .595058-243.92864 1.210976-229.85289 .86612-213.74065 1.04097-200.29625-.29609-198.87075 .053593-199.37854 16.323639-199.67493 22.398196-198.5356 29.792317-199.09992 35.634798-199.5426 49.90184-199.64247 49.899038-214.88768 50.842004-229.8239 51.378164-243.8679 49.575067-259.61097 50.770139-274.01429 50.671518-274.6452 49.974878-274.91813 36.42655-274.75904 28.694272-275.3659 22.647543-275.7274 14.894505-274.4154-.095468-274.43678 .998382-260.63633 1.527867Z"/>
<path transform="matrix(1,0,0,-1,414.38954,90.42247)" stroke-width=".75" stroke-linecap="round" stroke-linejoin="round" fill="none" stroke="#000000" d="M-359.56974 25.619763C-331.59895 25.481305-303.24525 25.880059-275.57237 25.688029"/>
<path transform="matrix(1,0,0,-1,414.38954,90.42247)" stroke-width=".75" stroke-linecap="round" stroke-linejoin="round" fill="none" stroke="#000000" d="M-288.0513 17.939803C-284.57414 21.911654-279.76206 24.526165-275.5956 25.491675-279.81559 26.314154-284.403 29.994517-288.14964 33.892057"/>
<path transform="matrix(1,0,0,-1,414.38954,90.42247)" stroke-width=".75" stroke-linecap="round" stroke-linejoin="round" fill="none" stroke="#000000" d="M-199.52025 25.318543C-178.09026 25.61354-157.19956 25.488434-135.8036 25.296406"/>
<path transform="matrix(1,0,0,-1,414.38954,90.42247)" stroke-width=".75" stroke-linecap="round" stroke-linejoin="round" fill="none" stroke="#000000" d="M-148.72342 17.326138C-145.39273 21.3803-140.94577 24.530137-135.50637 25.691737-140.58332 26.6318-145.24092 29.572962-148.19435 33.967985"/>
<path transform="matrix(1,0,0,-1,414.38954,90.42247)" stroke-width=".75" stroke-linecap="round" stroke-linejoin="round" fill="none" stroke="#000000" d="M-317.49235 26.03523C-317.669 3.50679-317.00288-18.94781-316.96937-41.990144-256.65443-41.820264-196.21166-41.687948-136.0515-41.847356"/>
<path transform="matrix(1,0,0,-1,414.38954,90.42247)" stroke-width=".75" stroke-linecap="round" stroke-linejoin="round" fill="none" stroke="#000000" d="M-148.31966-49.94849C-144.97637-45.700189-140.9668-43.000135-135.92418-41.59139-140.70023-40.459028-145.60126-38.305574-148.76383-33.641279"/>
<path transform="matrix(1,0,0,-1,414.38954,90.42247)" stroke-width=".75" stroke-linecap="round" stroke-linejoin="round" fill="none" stroke="#000000" d="M-260.75849 .171708C-260.71974-.153073-259.24348 1.149214-260.20777 .456305-245.18178 1.141502-230.10717 1.241732-213.75373 1.240512-198.88626 1.471204-200.22859 .398722-199.99552 14.916471-198.72888 22.324759-198.55042 29.168206-198.79885 35.75007-199.24558 50.13597-199.99886 50.64354-214.77713 51.09048-229.4394 50.092355-243.95182 50.940027-259.01637 50.583929-275.22663 51.247934-274.90995 50.51169-275.26454 34.638086-274.75544 28.655764-275.10823 21.791773-274.5304 15.985594-274.79634 .581702-273.93244 1.592502-260.75849 .171708Z"/>
<path transform="matrix(1,0,0,-1,414.38954,90.42247)" stroke-width=".75" stroke-linecap="round" stroke-linejoin="round" fill="none" stroke="#000000" d="M-359.93907 25.748333C-331.21766 25.452889-302.96409 25.403229-275.222 25.56296"/>
<path transform="matrix(1,0,0,-1,414.38954,90.42247)" stroke-width=".75" stroke-linecap="round" stroke-linejoin="round" fill="none" stroke="#000000" d="M-288.07017 17.360203C-284.94023 21.228438-279.99137 24.596289-275.47737 25.553105-279.81416 26.414628-284.5447 29.614544-287.8702 33.784414"/>
<path transform="matrix(1,0,0,-1,414.38954,90.42247)" stroke-width=".75" stroke-linecap="round" stroke-linejoin="round" fill="none" stroke="#000000" d="M-199.75516 25.567662C-178.10283 25.22349-156.67844 25.842549-135.49796 25.759278"/>
<path transform="matrix(1,0,0,-1,414.38954,90.42247)" stroke-width=".75" stroke-linecap="round" stroke-linejoin="round" fill="none" stroke="#000000" d="M-148.23313 17.526997C-144.9028 21.3043-140.53462 24.276719-135.91733 25.49349-140.7361 26.621455-145.09712 29.452504-148.56137 33.99042"/>
<path transform="matrix(1,0,0,-1,414.38954,90.42247)" stroke-width=".75" stroke-linecap="round" stroke-linejoin="round" fill="none" stroke="#000000" d="M-316.9291 25.412518C-317.2658 2.664278-317.11006-19.097805-317.77037-41.79214-256.95893-41.63216-196.66797-41.757368-135.39279-41.497709"/>
<path transform="matrix(1,0,0,-1,414.38954,90.42247)" stroke-width=".75" stroke-linecap="round" stroke-linejoin="round" fill="none" stroke="#000000" d="M-148.71901-50.284185C-145.27196-46.083448-140.50623-42.846624-135.24739-42.105028-140.29938-40.694185-145.41823-37.735475-148.6502-33.763685"/>
<path transform="matrix(1,0,0,-1,414.38954,90.42247)" stroke-width=".75" stroke-linecap="round" stroke-linejoin="round" fill="none" stroke="#000000" d="M-260.20713 1.379444C-260.3689 .332933-259.43205 .391097-259.49226 .924238-244.97274-.008879-229.59314 .672211-214.01354 .645359-198.9544 1.300497-199.5785 1.215258-199.18134 16.110396-199.03406 21.645417-200.00852 28.606312-199.0967 36.416299-200.27013 49.73241-199.95691 51.47025-214.3086 51.396337-229.77999 50.33599-244.53215 50.908155-259.55146 50.29177-274.48893 51.070745-275.0544 50.990125-274.33345 35.06623-275.06465 28.208119-274.76338 23.044835-275.2067 15.062126-275.41804 1.536834-275.70195 1.479796-260.20713 1.379444Z"/>
<path transform="matrix(1,0,0,-1,414.38954,90.42247)" stroke-width=".75" stroke-linecap="round" stroke-linejoin="round" fill="none" stroke="#000000" d="M-359.58699 25.503495C-331.59666 25.954348-303.24858 25.787446-275.48539 25.986128"/>
<path transform="matrix(1,0,0,-1,414.38954,90.42247)" stroke-width=".75" stroke-linecap="round" stroke-linejoin="round" fill="none" stroke="#000000" d="M-288.0191 17.197266C-284.2279 21.73795-280.59709 24.158856-274.9729 25.76435-280.58314 26.314795-284.89646 29.245112-287.62266 33.855024"/>
<path transform="matrix(1,0,0,-1,414.38954,90.42247)" stroke-width=".75" stroke-linecap="round" stroke-linejoin="round" fill="none" stroke="#000000" d="M-199.37725 25.258793C-177.86257 25.737912-156.9817 25.807368-135.60956 25.767039"/>
<path transform="matrix(1,0,0,-1,414.38954,90.42247)" stroke-width=".75" stroke-linecap="round" stroke-linejoin="round" fill="none" stroke="#000000" d="M-148.23542 17.253945C-145.19707 21.359709-140.66037 24.305087-135.73178 25.815545-141.08145 26.48437-145.52242 29.548882-148.51625 34.02875"/>
<path transform="matrix(1,0,0,-1,414.38954,90.42247)" stroke-width=".75" stroke-linecap="round" stroke-linejoin="round" fill="none" stroke="#000000" d="M-317.0775 25.993046C-317.61174 3.092549-316.93489-19.325947-317.7165-41.904577-256.4434-41.661008-195.86273-42.02798-135.77062-42.09392"/>
<path transform="matrix(1,0,0,-1,414.38954,90.42247)" stroke-width=".75" stroke-linecap="round" stroke-linejoin="round" fill="none" stroke="#000000" d="M-148.36389-49.99132C-145.56449-45.566484-140.48479-43.443025-135.35913-42.20866-140.68999-40.508356-145.32802-37.501714-148.4211-33.48967"/>
<path transform="matrix(1,0,0,-1,414.38954,90.42247)" stroke-width=".75" stroke-linecap="round" stroke-linejoin="round" fill="none" stroke="#000000" d="M-260.58259-.19308C-260.7719 .774914-260.45765-.150817-259.12513-.107435-244.29917 .227395-229.5759 .06304-215.38928 .133232-199.2138 1.162336-200.23291 .558981-198.6378 16.353453-200.04224 21.473498-200.00525 28.661734-198.54972 35.395833-199.09398 50.47794-199.22208 51.484754-214.48923 51.02852-229.64037 50.901014-245.25104 51.062669-258.97428 51.441209-274.21113 50.493196-275.2075 50.26561-274.05387 35.399389-275.5271 28.547947-275.06703 22.030835-274.07975 15.682431-275.5915 .927228-274.8615 1.495666-260.58259-.19308Z"/>
<path transform="matrix(1,0,0,-1,414.38954,90.42247)" stroke-width=".75" stroke-linecap="round" stroke-linejoin="round" fill="none" stroke="#000000" d="M-359.4057 25.840279C-331.34834 25.92102-303.8313 25.862397-275.61906 26.01862"/>
<path transform="matrix(1,0,0,-1,414.38954,90.42247)" stroke-width=".75" stroke-linecap="round" stroke-linejoin="round" fill="none" stroke="#000000" d="M-287.72257 17.748787C-284.35896 21.427695-279.83348 24.361756-275.5637 25.954945-280.2303 26.53416-284.3764 29.706789-288.19898 34.039125"/>
<path transform="matrix(1,0,0,-1,414.38954,90.42247)" stroke-width=".75" stroke-linecap="round" stroke-linejoin="round" fill="none" stroke="#000000" d="M-199.285 25.646527C-178.41193 26.001532-157.29532 25.267983-135.32122 25.713696"/>
<path transform="matrix(1,0,0,-1,414.38954,90.42247)" stroke-width=".75" stroke-linecap="round" stroke-linejoin="round" fill="none" stroke="#000000" d="M-147.89707 17.09398C-145.21369 21.457633-141.04206 24.091349-135.57866 25.41389-140.8912 26.361886-145.12865 29.34194-148.488 33.837919"/>
<path transform="matrix(1,0,0,-1,414.38954,90.42247)" stroke-width=".75" stroke-linecap="round" stroke-linejoin="round" fill="none" stroke="#000000" d="M-317.6257 25.852702C-317.1121 3.357855-317.48966-19.538002-317.23988-41.85391-257.04313-41.48458-196.27912-41.813886-135.2441-41.781885"/>
<path transform="matrix(1,0,0,-1,414.38954,90.42247)" stroke-width=".75" stroke-linecap="round" stroke-linejoin="round" fill="none" stroke="#000000" d="M-148.32353-49.7355C-144.97669-45.77782-141.05669-42.843614-135.95059-41.470945-140.97017-40.768354-144.99321-37.449628-148.05617-33.863359"/>
<path transform="matrix(1,0,0,-1,414.38954,90.42247)" d="M-314.95356 25.7229C-315.51069 25.766978-315.73884 26.740803-315.45219 27.411696-316.574 27.661746-316.964 27.630484-317.22459 27.627076-318.07197 27.777726-318.70048 27.45066-318.5247 27.131003-319.0205 26.65995-319.1648 26.090107-319.5042 25.493418-319.37937 25.111617-319.18177 24.872048-318.79228 23.907042-318.60313 23.653983-317.98628 23.726328-317.66184 23.744643-316.95124 23.436787-316.2301 23.680483-315.4912 24.206717-315.18446 23.977673-314.69584 24.848649-314.95356 25.7229Z" fill="#d90000"/>
<use data-text="X" xlink:href="#font_1_5" transform="matrix(21.519383,0,0,-21.519398,6.8143007,70.21083)"/>
<use data-text="(" xlink:href="#font_1_2" transform="matrix(21.519383,0,0,-21.519398,21.146208,70.21083)"/>
<use data-text="s" xlink:href="#font_1_3" transform="matrix(21.519383,0,0,-21.519398,30.691346,70.21083)"/>
<use data-text=")" xlink:href="#font_1_4" transform="matrix(21.519383,0,0,-21.519398,41.678285,70.21083)"/>
<use data-text="Y" xlink:href="#font_1_6" transform="matrix(21.519246,0,0,-21.519398,283.2117,70.21083)"/>
<use data-text="(" xlink:href="#font_1_2" transform="matrix(21.519246,0,0,-21.519398,296.36039,70.21083)"/>
<use data-text="s" xlink:href="#font_1_3" transform="matrix(21.519246,0,0,-21.519398,305.90547,70.21083)"/>
<use data-text=")" xlink:href="#font_1_4" transform="matrix(21.519246,0,0,-21.519398,316.89237,70.21083)"/>
<use data-text="Z" xlink:href="#font_1_7" transform="matrix(21.519383,0,0,-21.519398,283.2117,137.67459)"/>
<use data-text="(" xlink:href="#font_1_2" transform="matrix(21.519383,0,0,-21.519398,297.54359,137.67459)"/>
<use data-text="s" xlink:href="#font_1_3" transform="matrix(21.519383,0,0,-21.519398,307.08876,137.67459)"/>
<use data-text=")" xlink:href="#font_1_4" transform="matrix(21.519383,0,0,-21.519398,318.07569,137.67459)"/>
<use data-text="&#x2261;" xlink:href="#font_1_8" transform="matrix(37.18528,0,0,-37.185327,398.95539,99.06931)"/>
<use data-text="G" xlink:href="#font_1_1" transform="matrix(21.51903,0,0,-21.519398,628.8459,38.480745)"/>
<use data-text="(" xlink:href="#font_1_2" transform="matrix(21.51903,0,0,-21.519398,645.308,38.480745)"/>
<use data-text="s" xlink:href="#font_1_3" transform="matrix(21.51903,0,0,-21.519398,654.85299,38.480745)"/>
<use data-text=")" xlink:href="#font_1_4" transform="matrix(21.51903,0,0,-21.519398,665.8397,38.480745)"/>
<use data-text="1" xlink:href="#font_1_9" transform="matrix(21.51903,0,0,-21.519562,806.547,130.88854)"/>
<path transform="matrix(1.4999812,0,0,-1.5000182,789.23977,136.7436)" stroke-width=".574019" stroke-linecap="butt" stroke-linejoin="round" fill="none" stroke="#000000" d="M0 0H30.237593"/>
<use data-text="G" xlink:href="#font_1_1" transform="matrix(21.51903,0,0,-21.519562,789.23977,153.36167)"/>
<use data-text="(" xlink:href="#font_1_2" transform="matrix(21.51903,0,0,-21.519562,805.7018,153.36167)"/>
<use data-text="s" xlink:href="#font_1_3" transform="matrix(21.51903,0,0,-21.519562,815.2468,153.36167)"/>
<use data-text=")" xlink:href="#font_1_4" transform="matrix(21.51903,0,0,-21.519562,826.2335,153.36167)"/>
<path transform="matrix(1,0,0,-1,414.3895,90.42248)" stroke-width=".75" stroke-linecap="round" stroke-linejoin="round" fill="none" stroke="#000000" d="M214.4662 32.460546C214.19892 32.191373 214.17438 31.982518 214.61956 31.803069 230.14403 31.81509 245.47016 32.798704 259.99415 32.408086 275.58564 33.176713 275.6748 33.076517 274.1741 47.958215 275.2236 53.08829 275.45509 60.721357 275.49186 67.06354 275.1515 81.35901 275.0989 82.70302 259.15544 83.234149 244.54633 82.94655 230.50527 81.40176 215.34746 82.55635 199.13037 82.03294 198.68494 83.194408 200.21788 66.809 199.91109 61.58451 199.55445 54.155538 199.18729 48.027929 199.61885 32.41952 199.70136 32.919485 214.4662 32.460546Z"/>
<path transform="matrix(1,0,0,-1,414.3895,90.42248)" stroke-width=".75" stroke-linecap="round" stroke-linejoin="round" fill="none" stroke="#d90000" d="M374.55659-82.32631C374.69496-83.14403 375.62776-81.70932 375.82048-82.299198 389.6385-82.26328 405.9806-81.838428 419.73945-82.44104 435.4552-82.36274 435.72544-82.68404 434.5689-67.66877 435.41865-53.8594 435.2517-39.81029 436.15516-26.09209 435.1786-9.732806 434.60969-9.37878 419.69548-10.423034 405.69664-9.414199 390.10475-10.123758 373.94743-9.771589 359.09635-9.93838 359.81947-10.423714 360.6246-24.51978 359.24076-39.543317 360.00047-52.47202 359.59297-68.26549 359.73744-82.60638 360.25077-83.29798 374.55659-82.32631Z"/>
<path transform="matrix(1,0,0,-1,414.3895,90.42248)" stroke-width=".75" stroke-linecap="round" stroke-linejoin="round" fill="none" stroke="#000000" d="M135.99999 57.31644C156.81549 57.10514 177.59008 57.47991 199.22112 57.01453"/>
<path transform="matrix(1,0,0,-1,414.3895,90.42248)" stroke-width=".75" stroke-linecap="round" stroke-linejoin="round" fill="none" stroke="#000000" d="M186.00637 49.467386C189.9081 53.011934 193.8856 56.22324 199.39557 56.886377 193.95603 58.173826 189.98282 61.321157 185.9864 65.76922"/>
<path transform="matrix(1,0,0,-1,414.3895,90.42248)" stroke-width=".75" stroke-linecap="round" stroke-linejoin="round" fill="none" stroke="#000000" d="M275.23869 57.471334C342.29087 56.930585 410.18614 56.874647 477.96183 57.56116"/>
<path transform="matrix(1,0,0,-1,414.3895,90.42248)" stroke-width=".75" stroke-linecap="round" stroke-linejoin="round" fill="none" stroke="#000000" d="M465.47685 48.841325C468.6226 53.56337 472.91117 56.36246 477.70036 57.09396 472.489 58.53652 468.39079 61.199464 465.12458 65.65877"/>
<path transform="matrix(1,0,0,-1,414.3895,90.42248)" stroke-width=".75" stroke-linecap="round" stroke-linejoin="round" fill="none" stroke="#000000" d="M317.15769 57.56322C317.0263 22.904889 317.75697-11.407454 317.34437-46.34498 331.01139-46.559038 345.77235-46.67066 359.49134-46.266016"/>
<path transform="matrix(1,0,0,-1,414.3895,90.42248)" stroke-width=".75" stroke-linecap="round" stroke-linejoin="round" fill="none" stroke="#000000" d="M347.16545-54.20005C350.0819-50.2298 354.83253-47.635808 359.31144-46.16981 354.21726-45.563486 350.1767-42.12268 346.80165-37.955366"/>
<path transform="matrix(1,0,0,-1,414.3895,90.42248)" stroke-width=".75" stroke-linecap="round" stroke-linejoin="round" fill="none" stroke="#000000" d="M435.17085-46.036817C449.65019-45.906373 463.32569-46.439027 478.1156-46.116899"/>
<path transform="matrix(1,0,0,-1,414.3895,90.42248)" stroke-width=".75" stroke-linecap="round" stroke-linejoin="round" fill="none" stroke="#000000" d="M465.05235-54.801267C468.41539-50.134817 472.63218-47.280263 477.75733-46.014314 472.28239-45.31782 467.96437-42.468606 464.66453-38.642297"/>
<path transform="matrix(1,0,0,-1,414.3895,90.42248)" stroke-width=".75" stroke-linecap="round" stroke-linejoin="round" fill="none" stroke="#000000" d="M214.07132 32.178125C214.69518 33.154829 214.17844 32.977178 214.49654 32.644174 228.93254 31.814084 244.206 31.537226 260.4903 31.722018 275.47398 32.610948 274.0082 31.958832 274.66438 46.805486 274.23548 54.658937 275.2053 60.76341 275.0572 66.776828 273.97428 82.62308 275.32948 81.34184 259.34715 81.98064 245.3846 82.29413 228.90619 82.83172 214.18212 81.3775 200.07315 81.432178 199.24959 82.88818 198.7043 67.90029 199.38245 60.57198 199.79286 54.823476 200.12438 47.159139 199.48703 32.977544 198.9409 31.595709 214.07132 32.178125Z"/>
<path transform="matrix(1,0,0,-1,414.3895,90.42248)" stroke-width=".75" stroke-linecap="round" stroke-linejoin="round" fill="none" stroke="#d90000" d="M374.6924-82.834568C375.28529-83.354839 374.5331-81.73311 375.17424-83.234149 390.71388-81.6093 405.82844-82.97786 420.82987-82.527538 434.29096-81.55115 435.97148-82.51756 435.31428-66.750308 434.5555-54.006494 435.7661-39.76679 434.82765-25.165074 435.59239-10.657735 434.66249-9.872771 419.484-9.795557 406.02238-10.418479 390.3266-10.617048 374.5217-10.395885 359.31578-9.181289 360.5207-9.79078 359.82173-25.2751 359.85749-38.8119 359.078-53.09285 359.27668-66.97245 359.3666-83.17003 359.42207-82.103649 374.6924-82.834568Z"/>
<path transform="matrix(1,0,0,-1,414.3895,90.42248)" stroke-width=".75" stroke-linecap="round" stroke-linejoin="round" fill="none" stroke="#000000" d="M135.89478 56.88065C156.38036 57.41942 177.64189 57.258588 198.76284 57.466005"/>
<path transform="matrix(1,0,0,-1,414.3895,90.42248)" stroke-width=".75" stroke-linecap="round" stroke-linejoin="round" fill="none" stroke="#000000" d="M186.63755 48.97411C189.22277 53.59057 194.44228 56.067609 198.93747 57.449483 194.50241 58.835886 189.82826 61.232873 186.49938 65.439899"/>
<path transform="matrix(1,0,0,-1,414.3895,90.42248)" stroke-width=".75" stroke-linecap="round" stroke-linejoin="round" fill="none" stroke="#000000" d="M274.99897 57.593027C342.27314 57.600786 410.32484 57.006048 478.07264 56.991308"/>
<path transform="matrix(1,0,0,-1,414.3895,90.42248)" stroke-width=".75" stroke-linecap="round" stroke-linejoin="round" fill="none" stroke="#000000" d="M464.67463 49.028589C468.35456 53.41842 473.11033 55.962388 477.55363 56.956464 472.90486 58.48813 468.43653 61.586465 465.49879 65.43865"/>
<path transform="matrix(1,0,0,-1,414.3895,90.42248)" stroke-width=".75" stroke-linecap="round" stroke-linejoin="round" fill="none" stroke="#000000" d="M317.15443 57.265764C317.3701 22.325242 317.2745-11.537007 317.44667-46.30118 331.29945-46.295377 345.4231-46.593366 359.278-46.251974"/>
<path transform="matrix(1,0,0,-1,414.3895,90.42248)" stroke-width=".75" stroke-linecap="round" stroke-linejoin="round" fill="none" stroke="#000000" d="M347.03395-54.79664C350.1905-50.32542 354.28019-47.679979 359.58409-45.988439 354.43299-44.919656 349.85639-42.38983 346.97926-38.461637"/>
<path transform="matrix(1,0,0,-1,414.3895,90.42248)" stroke-width=".75" stroke-linecap="round" stroke-linejoin="round" fill="none" stroke="#000000" d="M434.9338-46.701215C449.44407-45.88837 463.88273-46.409635 477.9827-46.52966"/>
<path transform="matrix(1,0,0,-1,414.3895,90.42248)" stroke-width=".75" stroke-linecap="round" stroke-linejoin="round" fill="none" stroke="#000000" d="M465.32368-53.95781C468.31929-49.911447 472.82133-47.337755 477.89079-46.668329 473.09364-45.088274 468.45445-42.169477 464.8237-38.094778"/>
<path transform="matrix(1,0,0,-1,414.3895,90.42248)" stroke-width=".75" stroke-linecap="round" stroke-linejoin="round" fill="none" stroke="#000000" d="M214.42392 33.098527C213.86086 32.314268 214.77448 31.803782 215.0608 32.25106 230.52696 31.541277 244.49149 31.528185 260.43077 32.07499 274.30699 33.037008 275.00968 31.738219 274.81929 48.00593 275.76075 53.471857 275.4266 59.923898 275.64656 67.5896 273.91783 81.64827 274.29798 82.18565 260.7288 83.195178 245.45815 82.39885 228.94487 81.60737 214.64258 82.00785 198.76094 81.32389 199.09577 81.32621 200.11386 68.23265 200.15204 61.125074 199.83545 53.966585 198.9473 46.724596 198.90679 33.238424 199.95519 32.903863 214.42392 33.098527Z"/>
<path transform="matrix(1,0,0,-1,414.3895,90.42248)" stroke-width=".75" stroke-linecap="round" stroke-linejoin="round" fill="none" stroke="#d90000" d="M375.5622-82.11379C374.14448-81.589199 375.46397-82.206378 374.5392-82.88922 390.84193-82.97571 405.22639-81.998989 420.65928-83.1634 434.46278-83.18622 435.82176-82.93436 434.27067-66.89331 434.63288-54.048128 435.816-39.753454 434.6473-25.791844 434.8838-10.929041 435.39094-10.644581 420.42265-10.37857 405.30934-10.240365 390.27064-9.687334 375.5582-10.001554 360.2457-9.327649 359.3965-9.506241 359.7086-25.3117 360.50914-39.079755 359.2574-53.253496 360.1506-68.36637 359.1545-81.669498 360.6731-83.121059 375.5622-82.11379Z"/>
<path transform="matrix(1,0,0,-1,414.3895,90.42248)" stroke-width=".75" stroke-linecap="round" stroke-linejoin="round" fill="none" stroke="#000000" d="M135.8661 57.159219C156.81085 57.0673 177.7527 57.45704 198.84424 57.732347"/>
<path transform="matrix(1,0,0,-1,414.3895,90.42248)" stroke-width=".75" stroke-linecap="round" stroke-linejoin="round" fill="none" stroke="#000000" d="M186.22237 49.22579C189.43807 53.297609 194.01766 56.37667 198.76428 57.12653 193.9256 58.43412 189.90146 61.23447 186.50968 65.25127"/>
<path transform="matrix(1,0,0,-1,414.3895,90.42248)" stroke-width=".75" stroke-linecap="round" stroke-linejoin="round" fill="none" stroke="#000000" d="M275.24479 57.625818C342.08357 57.59713 410.22438 57.351446 478.13819 57.33769"/>
<path transform="matrix(1,0,0,-1,414.3895,90.42248)" stroke-width=".75" stroke-linecap="round" stroke-linejoin="round" fill="none" stroke="#000000" d="M465.35346 49.465875C468.38008 53.623559 472.99833 56.31025 477.65763 57.291509 472.91239 58.912618 468.2358 61.414628 465.3082 65.50239"/>
<path transform="matrix(1,0,0,-1,414.3895,90.42248)" stroke-width=".75" stroke-linecap="round" stroke-linejoin="round" fill="none" stroke="#000000" d="M317.32847 56.91519C317.4321 22.765675 317.56889-11.955463 317.19017-46.678754 331.1317-46.53507 345.58363-46.612745 359.34156-46.307756"/>
<path transform="matrix(1,0,0,-1,414.3895,90.42248)" stroke-width=".75" stroke-linecap="round" stroke-linejoin="round" fill="none" stroke="#000000" d="M346.39427-54.41687C349.73374-50.47255 354.77684-47.244024 359.0425-46.28564 354.06623-45.47867 349.57835-42.252069 346.61866-37.936288"/>
<path transform="matrix(1,0,0,-1,414.3895,90.42248)" stroke-width=".75" stroke-linecap="round" stroke-linejoin="round" fill="none" stroke="#000000" d="M434.82896-46.35542C449.12605-46.753599 463.79795-46.175065 478.09077-46.19552"/>
<path transform="matrix(1,0,0,-1,414.3895,90.42248)" stroke-width=".75" stroke-linecap="round" stroke-linejoin="round" fill="none" stroke="#000000" d="M464.83885-54.64164C468.57383-50.742128 472.42448-47.553426 477.60005-46.283784 472.77824-45.47054 467.92549-42.727716 465.3216-38.190286"/>
<path transform="matrix(1,0,0,-1,414.3895,90.42248)" stroke-width=".75" stroke-linecap="round" stroke-linejoin="round" fill="none" stroke="#000000" d="M213.70853 31.66271C214.56316 31.784962 213.61774 32.39672 213.80312 32.119276 228.92784 31.46737 245.59333 32.235029 259.93717 32.96539 275.69837 32.046056 274.8653 31.416483 274.63975 47.310716 274.93495 54.383687 275.09635 60.817739 275.0762 66.29856 273.86677 83.07896 274.5345 82.633129 260.74617 81.307918 244.2512 81.682338 228.8405 81.44223 214.4955 82.77299 199.91571 81.33443 198.86754 81.430789 200.12062 66.67204 199.33228 60.58229 199.46405 53.11582 199.41065 47.391347 199.17629 32.923135 198.9281 31.929129 213.70853 31.66271Z"/>
<path transform="matrix(1,0,0,-1,414.3895,90.42248)" stroke-width=".75" stroke-linecap="round" stroke-linejoin="round" fill="none" stroke="#d90000" d="M374.78419-82.78677C375.57383-83.26827 375.0782-81.89871 375.12486-81.74532 390.2143-81.78716 405.06434-82.77963 420.68608-82.22034 435.61027-82.71724 435.78239-82.59526 435.95417-66.857578 435.09089-52.966596 435.2233-39.245798 435.46049-25.498185 435.66639-9.716658 434.6932-9.511151 420.60127-9.656112 405.35456-10.387402 389.89869-9.998918 375.18296-10.755334 360.12797-10.108354 360.2941-10.412274 359.7895-24.61941 359.4807-39.454458 360.33848-52.588979 360.66596-66.82207 360.36903-81.84493 360.12748-82.41377 374.78419-82.78677Z"/>
<path transform="matrix(1,0,0,-1,414.3895,90.42248)" stroke-width=".75" stroke-linecap="round" stroke-linejoin="round" fill="none" stroke="#000000" d="M135.23253 57.72914C157.21698 56.97631 178.21062 57.675889 199.41564 57.572469"/>
<path transform="matrix(1,0,0,-1,414.3895,90.42248)" stroke-width=".75" stroke-linecap="round" stroke-linejoin="round" fill="none" stroke="#000000" d="M186.69638 49.181554C189.18715 53.693845 194.23964 56.18313 198.7274 57.651414 193.68115 58.07521 190.00089 60.919359 186.19571 65.082729"/>
<path transform="matrix(1,0,0,-1,414.3895,90.42248)" stroke-width=".75" stroke-linecap="round" stroke-linejoin="round" fill="none" stroke="#000000" d="M275.1237 57.052408C342.2533 57.476205 410.3267 57.279188 478.03608 57.3421"/>
<path transform="matrix(1,0,0,-1,414.3895,90.42248)" stroke-width=".75" stroke-linecap="round" stroke-linejoin="round" fill="none" stroke="#000000" d="M464.8754 49.65659C468.57035 53.572244 472.77565 55.76644 477.7058 57.239744 472.43495 58.168889 467.8122 61.680734 465.31294 65.13507"/>
<path transform="matrix(1,0,0,-1,414.3895,90.42248)" stroke-width=".75" stroke-linecap="round" stroke-linejoin="round" fill="none" stroke="#000000" d="M317.58433 57.70013C317.6156 23.14723 317.4503-11.928305 317.26017-46.099519 331.37638-46.11708 345.5471-46.503629 359.81507-46.593564"/>
<path transform="matrix(1,0,0,-1,414.3895,90.42248)" stroke-width=".75" stroke-linecap="round" stroke-linejoin="round" fill="none" stroke="#000000" d="M346.48878-54.407297C349.59858-50.542039 354.7099-47.386274 359.19816-45.99075 354.08058-45.317174 349.9588-42.176 346.77677-38.674074"/>
<path transform="matrix(1,0,0,-1,414.3895,90.42248)" stroke-width=".75" stroke-linecap="round" stroke-linejoin="round" fill="none" stroke="#000000" d="M435.30729-46.715787C448.99778-46.424699 463.77339-46.174257 477.95008-46.31123"/>
<path transform="matrix(1,0,0,-1,414.3895,90.42248)" stroke-width=".75" stroke-linecap="round" stroke-linejoin="round" fill="none" stroke="#000000" d="M465.10209-54.244096C468.54176-50.729745 473.10536-47.566316 477.46827-46.21914 472.53196-45.118909 468.39305-42.68578 465.5109-38.01783"/>
<path transform="matrix(1,0,0,-1,414.3895,90.42248)" stroke-width=".75" stroke-linecap="round" stroke-linejoin="round" fill="none" stroke="#000000" d="M214.95185 31.913584C213.73741 32.71206 213.9012 32.8584 215.2263 31.88273 230.23288 31.96977 243.9763 31.409819 259.16963 32.419027 275.34474 32.061304 274.73338 31.946444 274.17558 48.15478 274.06956 53.174688 274.27394 59.976346 275.76087 68.23375 275.74534 82.789798 274.41835 83.0821 260.7637 81.51359 244.47278 81.52733 229.21578 82.60299 213.54448 83.08272 199.20334 83.14132 199.35865 81.3444 200.1639 66.86049 200.25759 59.982534 199.64844 54.688104 199.62126 48.150594 198.82379 33.054319 200.06067 32.65397 214.95185 31.913584Z"/>
<path transform="matrix(1,0,0,-1,414.3895,90.42248)" stroke-width=".75" stroke-linecap="round" stroke-linejoin="round" fill="none" stroke="#d90000" d="M374.12107-82.24334C374.2346-83.1497 375.10115-81.87731 374.13319-82.66034 390.33168-81.68219 405.96174-82.26534 419.2565-82.444149 435.4898-82.0656 434.61286-82.29146 434.8459-67.228969 435.21598-53.47561 436.1717-38.726408 434.28446-25.586995 435.98197-9.955701 435.89537-10.416637 420.8111-10.455562 404.51817-10.303429 389.64277-10.926964 374.40196-9.682013 360.22904-9.411352 358.88047-10.620735 359.9305-25.259642 359.14805-39.138658 359.42796-53.34485 359.5847-68.16668 360.6813-82.25357 360.01634-83.26085 374.12107-82.24334Z"/>
<path transform="matrix(1,0,0,-1,414.3895,90.42248)" stroke-width=".75" stroke-linecap="round" stroke-linejoin="round" fill="none" stroke="#000000" d="M136.01006 57.651266C157.02597 57.34722 178.09604 57.201345 198.65651 57.750516"/>
<path transform="matrix(1,0,0,-1,414.3895,90.42248)" stroke-width=".75" stroke-linecap="round" stroke-linejoin="round" fill="none" stroke="#000000" d="M186.83678 49.004327C189.44782 52.921617 194.14832 55.723695 198.95407 57.287687 194.05477 58.157545 189.77101 61.390317 186.34876 65.22822"/>
<path transform="matrix(1,0,0,-1,414.3895,90.42248)" stroke-width=".75" stroke-linecap="round" stroke-linejoin="round" fill="none" stroke="#000000" d="M274.8176 57.56171C342.3242 57.145307 409.81745 57.06603 477.88734 57.075334"/>
<path transform="matrix(1,0,0,-1,414.3895,90.42248)" stroke-width=".75" stroke-linecap="round" stroke-linejoin="round" fill="none" stroke="#000000" d="M465.02976 49.450277C467.99678 52.99819 472.696 56.205377 477.98167 57.32156 472.39265 58.196527 468.30647 60.903184 465.2251 65.31261"/>
<path transform="matrix(1,0,0,-1,414.3895,90.42248)" stroke-width=".75" stroke-linecap="round" stroke-linejoin="round" fill="none" stroke="#000000" d="M317.10859 57.45147C317.1977 22.455477 317.31144-12.184652 317.47947-45.969438 331.23155-46.560876 345.37614-46.57462 359.11277-45.875204"/>
<path transform="matrix(1,0,0,-1,414.3895,90.42248)" stroke-width=".75" stroke-linecap="round" stroke-linejoin="round" fill="none" stroke="#000000" d="M347.14405-54.81399C349.92668-49.96577 354.15824-47.883207 359.473-45.96426 354.67625-45.490304 349.83576-42.441656 346.92485-38.32682"/>
<path transform="matrix(1,0,0,-1,414.3895,90.42248)" stroke-width=".75" stroke-linecap="round" stroke-linejoin="round" fill="none" stroke="#000000" d="M435.5229-46.36719C449.30116-46.431478 463.4263-46.485048 477.8139-46.006208"/>
<path transform="matrix(1,0,0,-1,414.3895,90.42248)" stroke-width=".75" stroke-linecap="round" stroke-linejoin="round" fill="none" stroke="#000000" d="M465.3629-54.165159C468.61375-49.92184 472.3159-47.548227 477.82447-45.95038 472.45814-45.091894 468.192-42.752054 465.5278-38.277338"/>
<path transform="matrix(1,0,0,-1,414.3895,90.42248)" d="M319.2257 56.880025C319.4702 58.241144 318.96675 58.08909 318.98747 59.0202 318.56855 59.242986 317.77989 59.158578 317.3562 59.562677 316.56019 59.4152 315.7842 59.220655 315.37995 58.61322 315.57878 58.04315 315.46067 58.18947 314.8201 57.544565 315.3658 56.82644 315.63838 56.4954 315.47834 55.911615 315.96064 55.09101 317.0339 54.76219 317.322 55.285417 317.68446 55.10042 318.7495 54.889345 319.12007 55.579717 319.48899 56.392499 319.3344 56.65375 319.2257 56.880025Z" fill="#d90000"/>
<use data-text="X" xlink:href="#font_1_5" transform="matrix(21.519383,0,0,-21.519398,502.34248,38.480745)"/>
<use data-text="(" xlink:href="#font_1_2" transform="matrix(21.519383,0,0,-21.519398,516.6744,38.480745)"/>
<use data-text="s" xlink:href="#font_1_3" transform="matrix(21.519383,0,0,-21.519398,526.2195,38.480745)"/>
<use data-text=")" xlink:href="#font_1_4" transform="matrix(21.519383,0,0,-21.519398,537.2064,38.480745)"/>
<use data-text="Y" xlink:href="#font_1_6" transform="matrix(21.519246,0,0,-21.519398,896.6146,38.480745)"/>
<use data-text="(" xlink:href="#font_1_2" transform="matrix(21.519246,0,0,-21.519398,909.7633,38.480745)"/>
<use data-text="s" xlink:href="#font_1_3" transform="matrix(21.519246,0,0,-21.519398,919.3085,38.480745)"/>
<use data-text=")" xlink:href="#font_1_4" transform="matrix(21.519246,0,0,-21.519398,930.2953,38.480745)"/>
<use data-text="Z" xlink:href="#font_1_7" transform="matrix(21.519383,0,0,-21.519398,896.6146,142.1254)"/>
<use data-text="(" xlink:href="#font_1_2" transform="matrix(21.519383,0,0,-21.519398,910.9464,142.1254)"/>
<use data-text="s" xlink:href="#font_1_3" transform="matrix(21.519383,0,0,-21.519398,920.4916,142.1254)"/>
<use data-text=")" xlink:href="#font_1_4" transform="matrix(21.519383,0,0,-21.519398,931.4785,142.1254)"/>
</svg>
