<svg xmlns="http://www.w3.org/2000/svg" xmlns:xlink="http://www.w3.org/1999/xlink" version="1.1" width="1000.4076" height="158.17194" viewBox="0 0 1000.4076 158.17194">
<defs>
<path id="font_3_1" d="M.08999634 .32458497C.08999634 .22958374 .114990238 .13148499 .18299866 .06341553 .23699951 .009384155 .31199647-.016601563 .3880005-.016601563 .46099855-.016601563 .56900027 .010391235 .6569977 .03338623 .6569977 .03338623 .6539917 .216568 .6519928 .30760194L.37599183 .2966156V.27061463L.38198854 .265625C.43598939 .26361085 .5 .25961305 .5439911 .25660707 .57199099 .25460816 .57199099 .22257996 .57199099 .13449097 .57199099 .061416627 .56900027 .04940796 .5519867 .045394899 .5209961 .038391115 .48999024 .03538513 .45799256 .03538513 .37998963 .03538513 .30599977 .060409547 .2619934 .112472537 .20399475 .18052674 .17999268 .25260926 .17999268 .3405609 .17999268 .48339845 .23199463 .5653076 .26098634 .5942688 .3039856 .63623049 .36299134 .6502075 .42199708 .6502075 .5529938 .6502075 .59298709 .5563202 .60598757 .53034976L.6179962 .5293579 .6759949 .58628848C.6649933 .6032715 .6119995 .69921877 .46699525 .69921877 .3619995 .69921877 .25698854 .6682129 .18199158 .593277 .11199951 .5233612 .08999634 .4224701 .08999634 .32458497Z"/>
<path id="font_3_2" d="M.11299133 .24990845C.11299133 .007904053 .1519928-.09008789 .18299866-.13310242 .21099854-.17008972 .25299073-.20809937 .30099488-.21209717V-.1880951C.2809906-.18409729 .25099183-.16809082 .23399353-.1481018 .21998596-.13209534 .16499329-.05809021 .16499329 .24990845 .16499329 .4618988 .19799805 .5659027 .21998596 .6128998 .23599243 .6469116 .2689972 .6769104 .30099488 .684906V.71191409C.2599945 .7049103 .21598816 .6729126 .19099427 .63790896 .1599884 .5919037 .11299133 .4748993 .11299133 .24990845Z"/>
<path id="font_3_3" d="M.051986696 .06642151C.06199646 .047409059 .07598877 .030395508 .09199524 .01638794 .12098694-.009613037 .16099549-.016601563 .19898987-.016601563 .2559967-.016601563 .31199647 .0023956299 .35099793 .044403078 .375 .06941223 .3869934 .10343933 .3869934 .13845825 .3869934 .1634674 .37298585 .18649292 .35499574 .20449829 .34098817 .21850586 .3039856 .24052429 .27198792 .25453187 .24299622 .26654054 .19999695 .2885437 .18798828 .30055238 .17298889 .31655885 .1619873 .3285675 .1619873 .35058595 .1619873 .3725891 .16899109 .39360047 .18499756 .4086151 .19999695 .42362977 .22200012 .43164063 .24398804 .43164063 .2639923 .43164063 .2849884 .42462159 .29599 .4066162 .30599977 .39060975 .30799867 .3715973 .30899049 .35359193L.32099916 .34657289 .37599183 .38360597C.375 .40560914 .3639984 .42662049 .34799195 .44163514 .32499696 .46263124 .29299928 .46662904 .2630005 .46662904 .21398926 .46662904 .16699219 .45063783 .1309967 .4176178 .10398865 .39360047 .08999634 .35858155 .08999634 .32356263 .08999634 .29154969 .10798645 .26353456 .1309967 .2425232 .1539917 .22250366 .18399048 .2084961 .21499634 .1954956 .24099732 .18447876 .2689972 .17248535 .28799439 .1534729 .30299378 .13845825 .31399537 .11845398 .31399537 .09744263 .31399537 .079422 .30499269 .062408449 .29299928 .04940796 .27799989 .03340149 .25099183 .021392823 .22898865 .021392823 .19898987 .021392823 .17199707 .03439331 .1499939 .055404664 .1269989 .076416019 .116989139 .10644531 .114990238 .13645935L.100997928 .13745117 .051986696 .06642151Z"/>
<path id="font_3_4" d="M.085998538-.1880951V-.21209717C.13398743-.20610047 .1789856-.17208863 .20698548-.13510132 .23799134-.09210205 .27598573 .007904053 .27598573 .24990845 .27598573 .50090029 .22399903 .5919037 .19299317 .63790896 .16799927 .6729126 .1269989 .7049103 .085998538 .71191409V.684906C.117996219 .6759033 .14898682 .6469116 .16499329 .6128998 .18699646 .5659027 .22399903 .48190309 .22399903 .24990845 .22399903-.099090579 .17199707-.13209534 .1579895-.1481018 .14099121-.16809082 .10598755-.18409729 .085998538-.1880951Z"/>
<path id="font_3_10" d="M.04598999 .23632813H.35598756V-.07368469L.3959961-.06668091V.23632813H.70399478L.70899966 .2763214H.3959961V.58631899L.35598756 .58032229V.2763214H.052993776L.04598999 .23632813Z"/>
<path id="font_3_5" d="M.026992798 0 .12098694 .010986328C.13699341 .04496765 .18998719 .12893677 .22799683 .18190003 .2559967 .22288513 .29699708 .27885438 .31098939 .29585267H.32299806L.46598817 .05696106C.47999574 .034973146 .49398805 .0129852299 .5119934-.005004883L.526001-.011001587 .6359863 .015991211V.031982423L.6309967 .035980226C.6230011 .037979127 .6009979 .051971437 .59399417 .05895996L.5339966 .13093567C.49499513 .17990113 .37799073 .3668213 .37799073 .37980653 .38198854 .3868103 .4149933 .43078614 .44499208 .46577455L.6319885 .67167666V.686676L.5369873 .67367556C.5369873 .67367556 .49198915 .6027069 .45999146 .5567322 .4269867 .51174929 .3619995 .42678834 .35699464 .4217987H.34799195L.20098877 .6876831C.1559906 .6846771 .07998657 .6806793 .054992677 .6796875L.04798889 .67367556V.64868167C.066986087 .643692 .083999637 .63868716 .09799194 .6336975 .115997318 .6266937 .14199829 .60769656 .15299988 .5897064 .19898987 .50775149 .2939911 .3458252 .2979889 .34483338L.026992798 .015991211V0Z"/>
<path id="font_3_6" d="M.022994996 .6513672C.036987306 .649353 .049987794 .6463623 .06298828 .6433563 .07199097 .6413574 .07998657 .6353607 .085998538 .62835696 .09599304 .61834719 .102996829 .60635378 .10899353 .5943451L.2579956 .29930116C.2579956 .19927979 .2579956 .0982666 .25498963-.0017547608L.2659912-.0107421879 .35598756 .018249512 .34700013 .30630494C.42999269 .4343109 .5039978 .5303345 .61499026 .675354L.61099246 .6933594 .526001 .6763611C.48999024 .619339 .4059906 .47431947 .397995 .46032716 .3849945 .4373169 .34199525 .36730958 .33898927 .3623047 .33599855 .3572998 .33198548 .353302 .32798768 .353302 .32199098 .353302 .31698609 .3592987 .31599427 .36131288L.1749878 .6863556H.02999878L.022994996 .67936709V.6513672Z"/>
<path id="font_3_7" d="M.04598999 .020996094 .04699707 0C.23899842 .0002746582 .49299623 .0002746582 .621994-.01171875L.6399994 .059280397 .6309967 .06826782 .20199585 .053985597 .19599915 .06098938C.28599549 .20005799 .45999146 .4711914 .59498599 .6642914V.68330386C.44599916 .68330386 .2979889 .6863098 .1499939 .6953125L.14099121 .68730166V.6332855L.14698792 .62828066C.17399597 .63127139 .27598573 .6372833 .46299745 .6372833L.46998597 .62727358 .04598999 .020996094Z"/>
<path id="font_3_8" d="M.08099365 .036132814H.73999026L.7489929 .07511902H.08999634L.08099365 .036132814M.08099365 .23046875H.73999026L.7489929 .27046205H.08999634L.08099365 .23046875M.08099365 .4248352H.73999026L.7489929 .46484376H.08999634L.08099365 .4248352Z"/>
</defs>
<use data-text="G" xlink:href="#font_3_1" transform="matrix(21.51903,0,0,-21.519398,240.39157,49.83676)"/>
<use data-text="(" xlink:href="#font_3_2" transform="matrix(21.51903,0,0,-21.519398,256.85365,49.83676)"/>
<use data-text="s" xlink:href="#font_3_3" transform="matrix(21.51903,0,0,-21.519398,266.39863,49.83676)"/>
<use data-text=")" xlink:href="#font_3_4" transform="matrix(21.51903,0,0,-21.519398,277.3854,49.83676)"/>
<use data-text="+" xlink:href="#font_3_10" transform="matrix(37.185197,0,0,-37.18505,125.9259,53.976274)"/>
<path transform="matrix(1,0,0,-1,500.2038,79.08597)" stroke-width=".75" stroke-linecap="round" stroke-linejoin="round" fill="none" stroke="#000000" d="M-259.35649 9.294134C-258.85539 9.940003-259.88594 9.449413-259.64869 8.984956-244.80149 10.642451-228.66744 8.7322-214.34832 8.73309-199.65555 8.972249-199.76433 10.316446-199.36344 25.152136-200.20783 31.126906-200.02176 38.599367-199.38378 44.67979-200.18276 58.645719-199.06757 59.945009-214.66339 59.553209-229.71547 59.953084-245.10039 60.446798-260.47505 59.143526-273.88954 58.67139-275.76109 58.94788-274.2925 43.821619-274.69136 37.453775-275.12019 30.46958-275.7348 24.309573-275.06245 9.03747-274.43046 9.355976-259.35649 9.294134Z"/>
<path transform="matrix(1,0,0,-1,500.2038,79.08597)" stroke-width=".75" stroke-linecap="round" stroke-linejoin="round" fill="none" stroke="#d90000" d="M-338.35267 34.881177C-338.5 47.190614-349.02033 56.309617-359.97038 56.617586-373.05207 56.56818-382.48536 45.702997-381.0767 33.80376-382.03715 22.740666-371.8539 12.40264-359.7766 12.207764-347.89683 12.089425-339.10536 23.20948-338.35267 34.881177Z"/>
<path transform="matrix(1,0,0,-1,500.2038,79.08597)" stroke-width=".75" stroke-linecap="round" stroke-linejoin="round" fill="none" stroke="#000000" d="M-445.56575 34.545076C-424.13966 34.829824-403.36537 34.605325-381.90296 34.575487"/>
<path transform="matrix(1,0,0,-1,500.2038,79.08597)" stroke-width=".75" stroke-linecap="round" stroke-linejoin="round" fill="none" stroke="#000000" d="M-394.593 26.833554C-392.1448 30.348662-386.8935 33.662878-382.573 34.573579-387.37873 35.69906-391.89518 38.537286-394.56187 42.376989"/>
<path transform="matrix(1,0,0,-1,500.2038,79.08597)" stroke-width=".75" stroke-linecap="round" stroke-linejoin="round" fill="none" stroke="#000000" d="M-338.78697 34.570268C-317.81758 34.27279-296.32124 34.379-275.41453 34.25277"/>
<path transform="matrix(1,0,0,-1,500.2038,79.08597)" stroke-width=".75" stroke-linecap="round" stroke-linejoin="round" fill="none" stroke="#000000" d="M-288.19273 26.45194C-284.3057 30.952876-279.77113 33.122323-275.10368 34.869813-280.06474 35.69364-284.4231 38.699377-287.78703 42.58428"/>
<path transform="matrix(1,0,0,-1,500.2038,79.08597)" stroke-width=".75" stroke-linecap="round" stroke-linejoin="round" fill="none" stroke="#000000" d="M-199.32822 34.26652C-177.98346 34.540288-157.08786 34.22504-135.35819 34.922479"/>
<path transform="matrix(1,0,0,-1,500.2038,79.08597)" stroke-width=".75" stroke-linecap="round" stroke-linejoin="round" fill="none" stroke="#000000" d="M-148.4838 26.68233C-145.5961 30.89625-140.29334 33.37666-135.31655 34.24418-140.3272 35.79224-145.47924 38.194566-148.63774 42.827554"/>
<path transform="matrix(1,0,0,-1,500.2038,79.08597)" stroke-width=".75" stroke-linecap="round" stroke-linejoin="round" fill="none" stroke="#000000" d="M-445.57035-50.36906C-417.58808-50.9492-389.0594-50.69503-360.6536-50.75664-359.95094-29.438939-360.3131-8.599228-360.3189 12.286561"/>
<path transform="matrix(1,0,0,-1,500.2038,79.08597)" stroke-width=".75" stroke-linecap="round" stroke-linejoin="round" fill="none" stroke="#000000" d="M-352.25358 .145187C-355.97947 2.8362-359.46885 7.367858-360.02308 12.706999-360.9796 7.847203-364.15104 3.229508-367.93995-.107498"/>
<path transform="matrix(1,0,0,-1,500.2038,79.08597)" stroke-width=".75" stroke-linecap="round" stroke-linejoin="round" fill="none" stroke="#000000" d="M-258.98713 9.151586C-259.5294 10.123998-259.47053 10.050911-259.08415 9.943694-245.37728 10.112426-228.70426 9.817239-213.5524 10.257395-200.4202 10.041012-199.09691 10.476369-200.06343 24.815079-200.13143 30.413823-199.15993 37.253145-199.83621 44.5372-200.2385 59.832094-199.9632 59.3613-214.40013 59.64824-229.13973 60.05308-245.03598 59.88513-260.24626 59.434076-274.13059 60.503774-275.76536 60.460035-275.04725 44.521078-274.04518 37.34259-275.44865 31.4695-274.4411 25.268942-275.54258 9.784164-275.4046 10.123372-258.98713 9.151586Z"/>
<path transform="matrix(1,0,0,-1,500.2038,79.08597)" stroke-width=".75" stroke-linecap="round" stroke-linejoin="round" fill="none" stroke="#d90000" d="M-339.11109 33.71328C-338.69557 46.376806-347.50898 55.86729-359.42353 56.62633-372.00404 56.281084-382.82707 46.847925-382.71507 35.454675-381.07875 23.446248-372.8778 12.46719-359.31825 13.004094-348.94657 13.587031-339.01579 23.204852-339.11109 33.71328Z"/>
<path transform="matrix(1,0,0,-1,500.2038,79.08597)" stroke-width=".75" stroke-linecap="round" stroke-linejoin="round" fill="none" stroke="#000000" d="M-445.60203 34.46741C-424.49305 34.785978-403.26835 34.35379-382.0426 35.0155"/>
<path transform="matrix(1,0,0,-1,500.2038,79.08597)" stroke-width=".75" stroke-linecap="round" stroke-linejoin="round" fill="none" stroke="#000000" d="M-395.13819 26.337567C-391.52714 30.925978-387.33427 33.562074-382.16484 34.27046-386.8319 35.89465-391.55006 39.017885-395.2605 42.49171"/>
<path transform="matrix(1,0,0,-1,500.2038,79.08597)" stroke-width=".75" stroke-linecap="round" stroke-linejoin="round" fill="none" stroke="#000000" d="M-338.86708 34.21264C-317.64518 34.863496-295.92103 34.82003-274.91664 34.784418"/>
<path transform="matrix(1,0,0,-1,500.2038,79.08597)" stroke-width=".75" stroke-linecap="round" stroke-linejoin="round" fill="none" stroke="#000000" d="M-287.63948 26.343579C-284.30329 30.323739-280.0799 33.13703-274.79719 34.390069-280.33317 35.393369-284.65214 38.1968-287.81187 42.288427"/>
<path transform="matrix(1,0,0,-1,500.2038,79.08597)" stroke-width=".75" stroke-linecap="round" stroke-linejoin="round" fill="none" stroke="#000000" d="M-199.85369 34.486124C-178.1911 34.21027-157.1617 34.51537-136.1153 34.792798"/>
<path transform="matrix(1,0,0,-1,500.2038,79.08597)" stroke-width=".75" stroke-linecap="round" stroke-linejoin="round" fill="none" stroke="#000000" d="M-148.58444 26.99067C-144.79479 30.933075-140.72098 33.84351-135.41934 34.59078-141.14299 35.793947-144.95322 38.452077-148.42255 42.431497"/>
<path transform="matrix(1,0,0,-1,500.2038,79.08597)" stroke-width=".75" stroke-linecap="round" stroke-linejoin="round" fill="none" stroke="#000000" d="M-445.83995-51.14051C-417.08064-50.97841-388.45274-50.767797-360.15788-50.483976-360.48945-30.02108-359.85514-8.749565-360.67417 12.366845"/>
<path transform="matrix(1,0,0,-1,500.2038,79.08597)" stroke-width=".75" stroke-linecap="round" stroke-linejoin="round" fill="none" stroke="#000000" d="M-352.11143-.142137C-355.8995 2.868287-359.0201 7.875614-359.907 12.686968-361.07954 7.191219-364.16114 3.286448-368.01676-.070188"/>
<path transform="matrix(1,0,0,-1,500.2038,79.08597)" stroke-width=".75" stroke-linecap="round" stroke-linejoin="round" fill="none" stroke="#000000" d="M-259.00724 9.046052C-260.2129 9.958425-259.56538 10.463357-259.8687 9.74666-245.0498 9.257108-229.90979 8.832724-213.56131 8.844949-199.05767 8.848449-199.66909 10.120423-199.19826 24.472645-199.21488 30.532757-200.02443 37.080579-198.96422 44.090166-200.35118 58.7927-198.49365 59.349866-214.62052 59.754388-230.5307 59.720556-244.60024 59.65688-259.5246 59.37853-275.19889 58.885648-274.8367 58.74201-275.23738 44.5523-274.1869 37.145967-275.35713 31.10736-274.49903 25.140372-274.07896 9.360699-275.5674 10.2079-259.00724 9.046052Z"/>
<path transform="matrix(1,0,0,-1,500.2038,79.08597)" stroke-width=".75" stroke-linecap="round" stroke-linejoin="round" fill="none" stroke="#d90000" d="M-339.22926 34.251966C-338.31999 46.970407-348.44187 56.84225-360.3172 55.82769-372.94328 55.549516-381.54978 47.2884-382.26786 34.564638-381.60087 22.639538-371.88557 12.816995-359.61 13.022839-347.97483 12.600343-339.5621 21.936146-339.22926 34.251966Z"/>
<path transform="matrix(1,0,0,-1,500.2038,79.08597)" stroke-width=".75" stroke-linecap="round" stroke-linejoin="round" fill="none" stroke="#000000" d="M-445.48533 34.517518C-424.37596 34.470598-403.28056 35.072-382.55076 34.957937"/>
<path transform="matrix(1,0,0,-1,500.2038,79.08597)" stroke-width=".75" stroke-linecap="round" stroke-linejoin="round" fill="none" stroke="#000000" d="M-395.03913 26.377408C-392.09004 31.020646-387.08744 33.17847-382.63493 34.34681-386.9973 35.80312-391.56913 38.945039-395.2933 42.85254"/>
<path transform="matrix(1,0,0,-1,500.2038,79.08597)" stroke-width=".75" stroke-linecap="round" stroke-linejoin="round" fill="none" stroke="#000000" d="M-338.96086 34.814207C-317.3135 34.92232-296.7562 34.48073-275.41468 34.769086"/>
<path transform="matrix(1,0,0,-1,500.2038,79.08597)" stroke-width=".75" stroke-linecap="round" stroke-linejoin="round" fill="none" stroke="#000000" d="M-287.98884 26.300145C-284.3238 30.640484-280.1768 33.596345-274.89564 34.27154-280.5868 35.902086-284.3673 38.91399-288.02149 43.124166"/>
<path transform="matrix(1,0,0,-1,500.2038,79.08597)" stroke-width=".75" stroke-linecap="round" stroke-linejoin="round" fill="none" stroke="#000000" d="M-199.1166 34.43131C-178.44139 34.491327-156.51439 34.694658-136.05379 34.7424"/>
<path transform="matrix(1,0,0,-1,500.2038,79.08597)" stroke-width=".75" stroke-linecap="round" stroke-linejoin="round" fill="none" stroke="#000000" d="M-148.00362 26.846869C-145.55188 30.329077-140.28913 33.26251-136.11188 34.863126-140.69944 35.485555-145.4636 38.86002-148.63265 42.810468"/>
<path transform="matrix(1,0,0,-1,500.2038,79.08597)" stroke-width=".75" stroke-linecap="round" stroke-linejoin="round" fill="none" stroke="#000000" d="M-446.01835-50.70223C-416.82698-51.24463-388.4349-50.925344-360.1919-50.859704-359.80888-29.634198-360.53758-8.376645-360.3526 12.935548"/>
<path transform="matrix(1,0,0,-1,500.2038,79.08597)" stroke-width=".75" stroke-linecap="round" stroke-linejoin="round" fill="none" stroke="#000000" d="M-351.9078 .38857C-356.29389 2.905988-359.2699 7.864777-360.33699 13.009274-361.37297 7.694097-363.8238 2.783282-368.14808 .153762"/>
<path transform="matrix(1,0,0,-1,500.2038,79.08597)" stroke-width=".75" stroke-linecap="round" stroke-linejoin="round" fill="none" stroke="#000000" d="M-258.9681 10.544626C-259.7704 9.41361-259.86726 10.027821-260.7538 10.599082-244.2235 8.983661-229.72509 9.385267-213.62905 10.221196-199.20687 10.541822-199.94307 9.108063-198.8954 25.539246-200.1941 30.75941-198.54772 37.023447-199.62491 44.32711-198.56012 59.199338-198.79679 60.426908-213.84453 59.063386-230.35314 59.15341-244.6116 60.309507-259.81404 60.28492-275.3558 59.616399-275.22523 58.611276-275.6009 44.152818-275.68434 37.89102-274.21748 30.733868-274.0749 24.10514-273.9685 9.791211-274.817 10.576639-258.9681 10.544626Z"/>
<path transform="matrix(1,0,0,-1,500.2038,79.08597)" stroke-width=".75" stroke-linecap="round" stroke-linejoin="round" fill="none" stroke="#d90000" d="M-339.10716 34.151288C-337.70045 47.208253-347.53794 55.937345-360.33479 56.232336-371.85633 55.6549-381.73448 47.07902-382.0525 33.71843-381.60105 22.493617-373.098 12.851166-361.1931 13.900258-347.8836 13.657936-337.79203 22.712832-339.10716 34.151288Z"/>
<path transform="matrix(1,0,0,-1,500.2038,79.08597)" stroke-width=".75" stroke-linecap="round" stroke-linejoin="round" fill="none" stroke="#000000" d="M-446.08866 34.656358C-424.73625 34.981779-403.2716 34.385149-381.83125 34.49617"/>
<path transform="matrix(1,0,0,-1,500.2038,79.08597)" stroke-width=".75" stroke-linecap="round" stroke-linejoin="round" fill="none" stroke="#000000" d="M-394.8609 26.402422C-392.11924 30.476706-387.12449 33.047307-381.99534 35.012464-387.3754 35.62969-391.71839 38.535177-394.7643 42.478925"/>
<path transform="matrix(1,0,0,-1,500.2038,79.08597)" stroke-width=".75" stroke-linecap="round" stroke-linejoin="round" fill="none" stroke="#000000" d="M-338.89283 34.5437C-317.71479 34.308557-296.01194 34.715444-274.998 34.909524"/>
<path transform="matrix(1,0,0,-1,500.2038,79.08597)" stroke-width=".75" stroke-linecap="round" stroke-linejoin="round" fill="none" stroke="#000000" d="M-287.76124 26.882819C-284.75813 30.879508-280.5156 33.847078-275.0106 34.218717-280.00553 35.97274-284.46653 39.07646-288.0283 42.341279"/>
<path transform="matrix(1,0,0,-1,500.2038,79.08597)" stroke-width=".75" stroke-linecap="round" stroke-linejoin="round" fill="none" stroke="#000000" d="M-199.65422 34.98736C-178.37682 34.8366-157.17038 34.796987-135.36377 34.84611"/>
<path transform="matrix(1,0,0,-1,500.2038,79.08597)" stroke-width=".75" stroke-linecap="round" stroke-linejoin="round" fill="none" stroke="#000000" d="M-148.25185 26.154122C-145.58382 30.607094-140.34024 33.03157-135.67601 34.37848-140.42757 35.541444-144.92453 38.537145-148.77799 42.31465"/>
<path transform="matrix(1,0,0,-1,500.2038,79.08597)" stroke-width=".75" stroke-linecap="round" stroke-linejoin="round" fill="none" stroke="#000000" d="M-445.32597-50.430959C-417.00434-51.220674-388.51054-50.771265-360.61714-50.388448-360.13615-29.782719-360.28025-8.608326-360.03718 12.266189"/>
<path transform="matrix(1,0,0,-1,500.2038,79.08597)" stroke-width=".75" stroke-linecap="round" stroke-linejoin="round" fill="none" stroke="#000000" d="M-352.46809 .182441C-356.1543 3.510047-359.32664 7.710027-360.44053 12.821181-361.70124 8.003727-363.86033 2.962851-367.89704-.350517"/>
<path transform="matrix(1,0,0,-1,500.2038,79.08597)" stroke-width=".75" stroke-linecap="round" stroke-linejoin="round" fill="none" stroke="#000000" d="M-259.99378 10.434199C-260.37574 9.935098-260.6307 10.181707-259.81486 9.5142-244.34183 8.744548-229.14749 8.922968-213.87642 9.935341-199.4157 9.322173-198.62534 8.824253-199.86209 25.252593-198.70439 31.120448-199.85854 37.010648-199.59717 45.338315-199.65468 58.91366-198.96488 58.705038-215.1578 60.366296-229.4367 59.57684-244.50135 59.267957-260.0691 60.11071-274.82426 59.2013-275.38404 59.607828-274.9668 43.889368-274.51686 38.307119-273.87074 31.305205-274.34956 23.99913-274.8374 10.458979-274.00559 10.463715-259.99378 10.434199Z"/>
<path transform="matrix(1,0,0,-1,500.2038,79.08597)" stroke-width=".75" stroke-linecap="round" stroke-linejoin="round" fill="none" stroke="#d90000" d="M-337.91276 35.562757C-337.76216 46.966268-347.43467 55.650754-359.355 55.368577-371.89918 56.085344-381.71903 47.54332-381.54377 35.18183-382.1476 22.339774-372.82893 13.572176-360.92338 12.784432-348.29399 13.787-338.03807 22.503663-337.91276 35.562757Z"/>
<path transform="matrix(1,0,0,-1,500.2038,79.08597)" stroke-width=".75" stroke-linecap="round" stroke-linejoin="round" fill="none" stroke="#000000" d="M-445.82548 34.31605C-424.14689 34.59008-403.4272 35.019556-381.85813 34.27498"/>
<path transform="matrix(1,0,0,-1,500.2038,79.08597)" stroke-width=".75" stroke-linecap="round" stroke-linejoin="round" fill="none" stroke="#000000" d="M-394.63215 26.295147C-391.43135 30.758679-387.51127 33.21777-381.92524 34.44081-386.8847 35.636045-392.07746 38.51809-394.73887 42.268674"/>
<path transform="matrix(1,0,0,-1,500.2038,79.08597)" stroke-width=".75" stroke-linecap="round" stroke-linejoin="round" fill="none" stroke="#000000" d="M-338.25694 34.206747C-317.63389 35.065546-296.67805 34.420225-274.82276 35.016214"/>
<path transform="matrix(1,0,0,-1,500.2038,79.08597)" stroke-width=".75" stroke-linecap="round" stroke-linejoin="round" fill="none" stroke="#000000" d="M-287.85243 26.830674C-284.6158 30.63753-280.25144 33.668119-275.2781 34.776308-280.07176 35.831216-284.24494 38.86532-288.26515 42.617929"/>
<path transform="matrix(1,0,0,-1,500.2038,79.08597)" stroke-width=".75" stroke-linecap="round" stroke-linejoin="round" fill="none" stroke="#000000" d="M-199.53383 34.341104C-178.26798 34.28867-157.16204 34.791448-135.48368 35.055776"/>
<path transform="matrix(1,0,0,-1,500.2038,79.08597)" stroke-width=".75" stroke-linecap="round" stroke-linejoin="round" fill="none" stroke="#000000" d="M-148.66803 26.78655C-144.99166 30.928252-140.35543 33.759546-135.58559 34.78088-140.66594 35.349138-145.4593 38.86166-148.36243 42.295705"/>
<path transform="matrix(1,0,0,-1,500.2038,79.08597)" stroke-width=".75" stroke-linecap="round" stroke-linejoin="round" fill="none" stroke="#000000" d="M-445.56556-50.478807C-417.52214-51.17677-388.7327-51.125608-360.33137-50.356569-359.99388-29.384398-360.3815-8.479202-359.80015 12.641307"/>
<path transform="matrix(1,0,0,-1,500.2038,79.08597)" stroke-width=".75" stroke-linecap="round" stroke-linejoin="round" fill="none" stroke="#000000" d="M-352.43409 .160537C-356.65339 3.280595-359.26329 7.521782-359.8487 12.21042-361.45976 7.811293-364.22715 2.766231-368.05268-.002491"/>
<use data-text="+" xlink:href="#font_3_10" transform="matrix(21.519354,0,0,-21.519316,101.91611,36.712617)"/>
<use data-text="+" xlink:href="#font_3_10" transform="matrix(21.519354,0,0,-21.519316,146.11533,81.86685)"/>
<use data-text="X" xlink:href="#font_3_5" transform="matrix(21.519383,0,0,-21.519398,6.81427,49.83676)"/>
<use data-text="(" xlink:href="#font_3_2" transform="matrix(21.519383,0,0,-21.519398,21.146178,49.83676)"/>
<use data-text="s" xlink:href="#font_3_3" transform="matrix(21.519383,0,0,-21.519398,30.691315,49.83676)"/>
<use data-text=")" xlink:href="#font_3_4" transform="matrix(21.519383,0,0,-21.519398,41.678255,49.83676)"/>
<use data-text="Y" xlink:href="#font_3_6" transform="matrix(21.519246,0,0,-21.519398,7.998169,135.26306)"/>
<use data-text="(" xlink:href="#font_3_2" transform="matrix(21.519246,0,0,-21.519398,21.146859,135.26306)"/>
<use data-text="s" xlink:href="#font_3_3" transform="matrix(21.519246,0,0,-21.519398,30.691937,135.26306)"/>
<use data-text=")" xlink:href="#font_3_4" transform="matrix(21.519246,0,0,-21.519398,41.678808,135.26306)"/>
<use data-text="Z" xlink:href="#font_3_7" transform="matrix(21.519383,0,0,-21.519398,369.02598,49.836748)"/>
<use data-text="(" xlink:href="#font_3_2" transform="matrix(21.519383,0,0,-21.519398,383.35783,49.836748)"/>
<use data-text="s" xlink:href="#font_3_3" transform="matrix(21.519383,0,0,-21.519398,392.90299,49.836748)"/>
<use data-text=")" xlink:href="#font_3_4" transform="matrix(21.519383,0,0,-21.519398,403.88999,49.836748)"/>
<use data-text="&#x2261;" xlink:href="#font_3_8" transform="matrix(37.18528,0,0,-37.185327,484.76966,87.732799)"/>
<use data-text="G" xlink:href="#font_3_1" transform="matrix(21.51903,0,0,-21.519398,714.66018,38.28322)"/>
<use data-text="(" xlink:href="#font_3_2" transform="matrix(21.51903,0,0,-21.519398,731.1223,38.28322)"/>
<use data-text="s" xlink:href="#font_3_3" transform="matrix(21.51903,0,0,-21.519398,740.66726,38.28322)"/>
<use data-text=")" xlink:href="#font_3_4" transform="matrix(21.51903,0,0,-21.519398,751.65408,38.28322)"/>
<use data-text="+" xlink:href="#font_3_10" transform="matrix(37.185197,0,0,-37.18505,846.4027,42.42273)"/>
<use data-text="G" xlink:href="#font_3_1" transform="matrix(21.51903,0,0,-21.519398,714.66018,130.69159)"/>
<use data-text="(" xlink:href="#font_3_2" transform="matrix(21.51903,0,0,-21.519398,731.1223,130.69159)"/>
<use data-text="s" xlink:href="#font_3_3" transform="matrix(21.51903,0,0,-21.519398,740.66726,130.69159)"/>
<use data-text=")" xlink:href="#font_3_4" transform="matrix(21.51903,0,0,-21.519398,751.65408,130.69159)"/>
<path transform="matrix(1,0,0,-1,500.2038,79.08597)" stroke-width=".75" stroke-linecap="round" stroke-linejoin="round" fill="none" stroke="#000000" d="M213.63488 20.473092C215.0806 21.767786 213.95592 21.536499 215.20478 20.75794 229.5933 21.890196 244.66622 20.513829 259.0702 21.723443 274.90885 21.813212 274.28868 21.200619 274.93629 36.927427 274.84336 42.79636 274.2714 48.72624 274.59288 56.084604 273.84767 70.79626 275.68449 70.589618 259.48863 71.29443 245.33962 71.78911 230.13576 71.9927 214.30405 71.85587 199.15595 70.640209 198.65293 71.08025 199.47626 56.943868 200.04633 49.538927 199.72939 43.19535 199.12587 37.09256 198.7493 21.664563 199.1371 21.047989 213.63488 20.473092Z"/>
<path transform="matrix(1,0,0,-1,500.2038,79.08597)" stroke-width=".75" stroke-linecap="round" stroke-linejoin="round" fill="none" stroke="#d90000" d="M214.14658-70.65878C214.16429-71.6461 213.98046-71.848308 213.8528-71.07582 229.77738-70.78413 244.89322-71.904788 260.23033-71.64847 274.3702-71.9858 274.16169-71.144557 275.1805-56.988054 274.42677-49.44514 273.86186-42.112894 274.71244-36.797224 275.34638-21.155034 274.72114-22.016797 258.91444-20.770684 243.86746-21.488902 230.32608-21.268546 214.50083-20.83182 200.01854-20.68587 199.14475-21.9601 199.96942-36.40599 199.16017-42.842237 199.96807-49.48067 198.86055-56.398458 199.50406-70.48753 200.06714-71.44379 214.14658-70.65878Z"/>
<path transform="matrix(1,0,0,-1,500.2038,79.08597)" stroke-width=".75" stroke-linecap="round" stroke-linejoin="round" fill="none" stroke="#d90000" d="M381.89714 46.671655C381.05693 57.739564 371.23097 67.655048 360.00416 68.36448 348.51429 66.98977 337.62193 58.366178 338.37046 46.246919 337.67048 35.102819 347.4133 23.804087 360.4381 24.42469 373.11518 24.32413 382.35325 34.818593 381.89714 46.671655Z"/>
<path transform="matrix(1,0,0,-1,500.2038,79.08597)" stroke-width=".75" stroke-linecap="round" stroke-linejoin="round" fill="none" stroke="#000000" d="M135.53046 46.43914C156.90383 45.895994 178.13286 46.101259 199.09781 45.867235"/>
<path transform="matrix(1,0,0,-1,500.2038,79.08597)" stroke-width=".75" stroke-linecap="round" stroke-linejoin="round" fill="none" stroke="#000000" d="M186.85138 37.710367C189.93035 42.198945 194.0708 45.03937 198.6385 45.876394 193.82216 47.578935 189.63858 50.024824 186.84868 54.565519"/>
<path transform="matrix(1,0,0,-1,500.2038,79.08597)" stroke-width=".75" stroke-linecap="round" stroke-linejoin="round" fill="none" stroke="#000000" d="M275.00337 46.187124C296.00535 45.9329 317.4454 45.873365 338.5979 46.428274"/>
<path transform="matrix(1,0,0,-1,500.2038,79.08597)" stroke-width=".75" stroke-linecap="round" stroke-linejoin="round" fill="none" stroke="#000000" d="M325.8284 38.31542C328.59169 42.326765 333.33174 45.33077 337.87055 46.17057 333.23808 46.920007 328.87614 49.843065 325.4769 54.219167"/>
<path transform="matrix(1,0,0,-1,500.2038,79.08597)" stroke-width=".75" stroke-linecap="round" stroke-linejoin="round" fill="none" stroke="#000000" d="M381.87168 46.385656C403.1555 46.47488 424.60087 46.127874 445.43455 45.958684"/>
<path transform="matrix(1,0,0,-1,500.2038,79.08597)" stroke-width=".75" stroke-linecap="round" stroke-linejoin="round" fill="none" stroke="#000000" d="M433.27146 37.71081C436.34483 42.42804 440.9158 45.055597 445.40705 45.859674 440.3856 47.69078 435.81855 50.46472 433.16477 53.92481"/>
<path transform="matrix(1,0,0,-1,500.2038,79.08597)" stroke-width=".75" stroke-linecap="round" stroke-linejoin="round" fill="none" stroke="#000000" d="M135.89839-46.490289C157.48279-46.52449 178.31855-45.806764 199.65477-46.374967"/>
<path transform="matrix(1,0,0,-1,500.2038,79.08597)" stroke-width=".75" stroke-linecap="round" stroke-linejoin="round" fill="none" stroke="#000000" d="M187.29343-53.883806C190.18244-49.822526 194.99057-46.973089 199.42475-46.502664 195.09888-44.87583 190.5585-42.54249 187.02681-38.455144"/>
<path transform="matrix(1,0,0,-1,500.2038,79.08597)" stroke-width=".75" stroke-linecap="round" stroke-linejoin="round" fill="none" stroke="#000000" d="M274.81535-46.078546C302.9831-45.86864 331.8494-45.885034 360.1067-46.437337 359.82627-22.639002 360.28999 1.006259 360.59309 24.379868"/>
<path transform="matrix(1,0,0,-1,500.2038,79.08597)" stroke-width=".75" stroke-linecap="round" stroke-linejoin="round" fill="none" stroke="#000000" d="M368.16835 11.449307C364.43025 14.888455 361.84867 19.44279 360.68025 24.60405 359.46345 19.212235 356.56419 14.926817 351.8691 12.05439"/>
<path transform="matrix(1,0,0,-1,500.2038,79.08597)" stroke-width=".75" stroke-linecap="round" stroke-linejoin="round" fill="none" stroke="#000000" d="M214.14217 21.321063C215.342 20.902266 214.11095 20.401776 215.20374 22.05341 228.70995 21.45217 244.5108 20.602486 259.76863 21.27002 273.85527 20.301674 274.75355 21.446423 273.86515 35.928274 274.14579 43.179834 274.60084 48.966527 275.365 56.682474 274.24964 71.02162 274.14335 72.070178 259.605 70.428218 244.0393 70.66012 229.52675 70.85682 215.2192 71.41143 199.41075 71.883609 199.64427 71.22533 199.6449 57.07614 200.0206 49.542169 199.57779 43.083417 198.5646 35.269239 200.42899 21.238419 199.69863 21.305304 214.14217 21.321063Z"/>
<path transform="matrix(1,0,0,-1,500.2038,79.08597)" stroke-width=".75" stroke-linecap="round" stroke-linejoin="round" fill="none" stroke="#d90000" d="M213.80225-70.23256C213.67777-71.31244 215.4247-70.76089 213.80167-71.86727 229.82744-70.93572 244.22708-70.975269 259.60279-71.214168 273.93977-70.92862 274.6648-71.13193 274.76097-56.87853 275.55543-48.959684 275.7772-42.953138 274.7452-35.412485 274.5639-21.559636 274.36088-20.846426 260.746-21.54807 244.41539-21.326548 229.45961-21.195252 213.87844-20.87171 198.53989-21.812554 200.05103-21.40647 199.70298-35.54348 200.38819-42.66762 199.65505-49.90235 199.51139-56.725873 199.42308-71.57041 199.76468-71.29176 213.80225-70.23256Z"/>
<path transform="matrix(1,0,0,-1,500.2038,79.08597)" stroke-width=".75" stroke-linecap="round" stroke-linejoin="round" fill="none" stroke="#d90000" d="M382.42448 46.430925C381.9372 58.307 371.94825 68.6716 359.97569 68.75753 349.04255 67.17082 337.79795 57.52307 338.2597 45.23336 338.3249 33.922174 348.67536 25.102206 359.47404 25.211833 372.57633 24.357844 381.92793 34.993906 382.42448 46.430925Z"/>
<path transform="matrix(1,0,0,-1,500.2038,79.08597)" stroke-width=".75" stroke-linecap="round" stroke-linejoin="round" fill="none" stroke="#000000" d="M135.94828 45.759889C156.69441 46.562059 178.01012 46.41079 198.96889 46.21781"/>
<path transform="matrix(1,0,0,-1,500.2038,79.08597)" stroke-width=".75" stroke-linecap="round" stroke-linejoin="round" fill="none" stroke="#000000" d="M186.02301 38.466215C189.48944 42.310075 194.32051 44.851316 199.40444 46.466749 193.62506 47.762464 189.94162 50.07972 186.0405 54.183614"/>
<path transform="matrix(1,0,0,-1,500.2038,79.08597)" stroke-width=".75" stroke-linecap="round" stroke-linejoin="round" fill="none" stroke="#000000" d="M275.09718 46.363069C296.15748 45.995649 316.73826 46.403059 338.28019 46.445444"/>
<path transform="matrix(1,0,0,-1,500.2038,79.08597)" stroke-width=".75" stroke-linecap="round" stroke-linejoin="round" fill="none" stroke="#000000" d="M325.99845 37.85982C328.64393 41.818147 332.90727 45.02017 338.4139 46.177835 333.05717 46.942457 328.8328 50.1749 325.8835 54.444608"/>
<path transform="matrix(1,0,0,-1,500.2038,79.08597)" stroke-width=".75" stroke-linecap="round" stroke-linejoin="round" fill="none" stroke="#000000" d="M381.7629 46.199625C403.12245 46.18748 424.64109 45.815347 445.53749 46.077848"/>
<path transform="matrix(1,0,0,-1,500.2038,79.08597)" stroke-width=".75" stroke-linecap="round" stroke-linejoin="round" fill="none" stroke="#000000" d="M433.15156 38.471696C435.95686 42.037214 440.23918 45.233949 445.3195 46.472867 440.69596 47.579996 436.19145 50.300024 433.41783 54.122735"/>
<path transform="matrix(1,0,0,-1,500.2038,79.08597)" stroke-width=".75" stroke-linecap="round" stroke-linejoin="round" fill="none" stroke="#000000" d="M135.50722-46.41503C157.14209-46.61258 178.18517-46.334135 199.89279-45.933195"/>
<path transform="matrix(1,0,0,-1,500.2038,79.08597)" stroke-width=".75" stroke-linecap="round" stroke-linejoin="round" fill="none" stroke="#000000" d="M186.96704-54.447885C190.21054-50.341356 194.45444-47.043989 199.48017-45.952257 194.48673-45.340864 190.10459-41.949605 187.48889-38.525228"/>
<path transform="matrix(1,0,0,-1,500.2038,79.08597)" stroke-width=".75" stroke-linecap="round" stroke-linejoin="round" fill="none" stroke="#000000" d="M274.88679-46.072607C303.37693-45.98812 332.16639-46.34389 360.1793-45.980588 360.54087-22.267117 359.9053 .856718 359.8153 24.131068"/>
<path transform="matrix(1,0,0,-1,500.2038,79.08597)" stroke-width=".75" stroke-linecap="round" stroke-linejoin="round" fill="none" stroke="#000000" d="M368.4948 11.734156C364.34205 14.820594 361.52684 19.300997 360.36808 24.638716 359.3568 19.2436 356.416 15.387077 352.5866 12.281194"/>
<path transform="matrix(1,0,0,-1,500.2038,79.08597)" stroke-width=".75" stroke-linecap="round" stroke-linejoin="round" fill="none" stroke="#000000" d="M213.62218 21.02829C214.02083 20.939929 213.96198 20.952248 215.4116 21.23977 229.67424 21.934969 245.26963 20.46937 258.8969 20.809678 274.17585 21.113392 274.134 21.95984 275.20118 35.39382 273.84065 43.62615 275.69227 49.818964 274.61888 56.360849 275.67344 70.91947 274.1577 70.88005 260.63645 71.79175 245.07268 71.092 229.72936 71.13254 213.59839 70.54558 198.59313 70.4709 198.49488 70.28455 199.02225 55.960508 199.7545 50.296789 199.72869 42.591566 200.23499 36.733915 199.91063 21.509942 198.76201 20.3209 213.62218 21.02829Z"/>
<path transform="matrix(1,0,0,-1,500.2038,79.08597)" stroke-width=".75" stroke-linecap="round" stroke-linejoin="round" fill="none" stroke="#d90000" d="M214.39359-71.88905C213.86725-70.928478 214.22464-71.16649 215.29683-71.01878 230.01418-70.40826 245.48851-70.801319 260.75526-70.21835 273.98905-71.083309 274.06529-70.270969 274.5602-57.13454 275.36567-50.37274 275.27433-42.862649 275.1951-37.1476 273.9585-21.984093 275.34944-20.884284 260.19978-21.540728 244.53687-21.661395 228.92763-20.833733 214.95514-21.876847 200.38356-21.570704 198.55275-21.245882 198.71566-35.799966 200.0338-43.492815 199.7002-49.550279 199.20897-56.23902 199.24959-70.9233 199.38233-71.322109 214.39359-71.88905Z"/>
<path transform="matrix(1,0,0,-1,500.2038,79.08597)" stroke-width=".75" stroke-linecap="round" stroke-linejoin="round" fill="none" stroke="#d90000" d="M382.13804 45.56435C380.96009 57.689577 372.92616 67.94568 360.37489 67.12942 348.8095 67.479648 338.79103 57.880754 337.65196 46.932374 338.69258 34.16272 347.3215 23.695479 359.77278 24.570767 372.5693 25.058773 381.7679 35.12482 382.13804 45.56435Z"/>
<path transform="matrix(1,0,0,-1,500.2038,79.08597)" stroke-width=".75" stroke-linecap="round" stroke-linejoin="round" fill="none" stroke="#000000" d="M135.38507 46.491109C156.859 46.24803 177.86405 46.473234 199.22362 46.07486"/>
<path transform="matrix(1,0,0,-1,500.2038,79.08597)" stroke-width=".75" stroke-linecap="round" stroke-linejoin="round" fill="none" stroke="#000000" d="M186.25019 38.17927C189.51303 42.259645 193.83164 44.724828 199.48923 46.07283 193.95938 47.384984 189.28734 50.358808 186.07402 54.38596"/>
<path transform="matrix(1,0,0,-1,500.2038,79.08597)" stroke-width=".75" stroke-linecap="round" stroke-linejoin="round" fill="none" stroke="#000000" d="M274.6843 46.232236C295.9978 45.848997 316.6404 45.8029 338.02616 46.031156"/>
<path transform="matrix(1,0,0,-1,500.2038,79.08597)" stroke-width=".75" stroke-linecap="round" stroke-linejoin="round" fill="none" stroke="#000000" d="M325.31425 37.891359C328.95326 42.58267 333.6519 45.47305 338.5168 45.758348 333.36628 47.18445 328.8843 50.392507 325.27955 53.9777"/>
<path transform="matrix(1,0,0,-1,500.2038,79.08597)" stroke-width=".75" stroke-linecap="round" stroke-linejoin="round" fill="none" stroke="#000000" d="M382.21424 46.123643C402.72438 45.741857 424.5466 45.892389 445.4861 46.119157"/>
<path transform="matrix(1,0,0,-1,500.2038,79.08597)" stroke-width=".75" stroke-linecap="round" stroke-linejoin="round" fill="none" stroke="#000000" d="M432.8108 37.920785C435.92338 41.852869 441.00547 44.928525 445.33729 46.14613 440.7292 47.11248 435.7445 49.925199 432.80229 53.800096"/>
<path transform="matrix(1,0,0,-1,500.2038,79.08597)" stroke-width=".75" stroke-linecap="round" stroke-linejoin="round" fill="none" stroke="#000000" d="M135.26631-46.374948C157.46855-46.125684 178.56409-46.184816 199.60579-45.797056"/>
<path transform="matrix(1,0,0,-1,500.2038,79.08597)" stroke-width=".75" stroke-linecap="round" stroke-linejoin="round" fill="none" stroke="#000000" d="M187.04932-54.491167C190.4636-49.8191 195.07794-47.11905 199.75926-46.49896 195.2234-44.787134 190.45093-42.156995 187.10306-37.85624"/>
<path transform="matrix(1,0,0,-1,500.2038,79.08597)" stroke-width=".75" stroke-linecap="round" stroke-linejoin="round" fill="none" stroke="#000000" d="M274.8275-46.591627C303.1167-46.057195 331.5748-46.177717 360.09614-45.823377 360.11073-22.328993 360.23936 1.335035 359.7969 24.436434"/>
<path transform="matrix(1,0,0,-1,500.2038,79.08597)" stroke-width=".75" stroke-linecap="round" stroke-linejoin="round" fill="none" stroke="#000000" d="M368.45475 11.568361C364.32319 15.399994 361.47523 19.721995 360.47264 24.770272 359.4 19.85097 355.97303 14.999979 352.37458 11.857043"/>
<path transform="matrix(1,0,0,-1,500.2038,79.08597)" stroke-width=".75" stroke-linecap="round" stroke-linejoin="round" fill="none" stroke="#000000" d="M214.90338 20.39098C214.95604 21.516602 215.38199 21.007639 214.52391 21.039965 230.30435 20.542487 243.75171 20.543837 260.0998 21.104624 274.23957 20.762122 274.5938 21.485554 275.30549 35.720777 274.44926 43.060075 275.47895 49.709726 274.9395 55.579778 275.5241 70.5846 274.91346 70.43526 259.48408 70.540439 245.0784 71.767749 230.0507 70.520778 214.73508 71.053279 200.10599 71.696079 198.63765 71.66398 199.14984 56.713247 198.63457 49.300058 200.04811 43.562459 199.8376 35.541028 200.40662 21.756152 198.66197 20.936837 214.90338 20.39098Z"/>
<path transform="matrix(1,0,0,-1,500.2038,79.08597)" stroke-width=".75" stroke-linecap="round" stroke-linejoin="round" fill="none" stroke="#d90000" d="M213.69945-71.51227C214.58835-71.51225 214.39115-70.83906 215.00804-71.46113 229.33376-71.55906 244.76908-70.34539 259.5699-70.72742 274.74085-71.528209 275.08006-71.32265 274.2046-55.418836 275.21394-49.103307 274.88868-43.17484 275.1978-36.936964 274.16978-22.011717 273.99717-20.81353 259.20555-20.38086 244.99094-22.141324 230.43569-20.990693 214.21274-21.497784 199.78333-21.121726 199.72388-20.940266 198.85059-36.269495 198.56687-42.469774 199.88658-50.062299 200.38222-55.36787 199.71887-71.33392 198.60715-70.33573 213.69945-71.51227Z"/>
<path transform="matrix(1,0,0,-1,500.2038,79.08597)" stroke-width=".75" stroke-linecap="round" stroke-linejoin="round" fill="none" stroke="#d90000" d="M381.35719 45.731595C381.04814 58.20267 373.1614 68.01331 360.9606 67.46897 347.8977 68.04986 339.16987 58.035665 338.2089 45.67492 338.82423 34.795114 348.78569 24.329213 360.85627 24.547522 372.06895 24.485058 381.23338 34.031267 381.35719 45.731595Z"/>
<path transform="matrix(1,0,0,-1,500.2038,79.08597)" stroke-width=".75" stroke-linecap="round" stroke-linejoin="round" fill="none" stroke="#000000" d="M135.91138 45.865056C156.50328 46.018518 178.11637 46.41622 198.77829 46.261846"/>
<path transform="matrix(1,0,0,-1,500.2038,79.08597)" stroke-width=".75" stroke-linecap="round" stroke-linejoin="round" fill="none" stroke="#000000" d="M186.27519 37.7917C189.26943 41.962598 193.91564 44.8098 198.82947 46.087446 193.72203 47.76943 189.84346 49.81591 186.36818 54.386884"/>
<path transform="matrix(1,0,0,-1,500.2038,79.08597)" stroke-width=".75" stroke-linecap="round" stroke-linejoin="round" fill="none" stroke="#000000" d="M275.1066 45.9264C296.27876 46.49286 317.03236 46.394559 338.52958 46.570489"/>
<path transform="matrix(1,0,0,-1,500.2038,79.08597)" stroke-width=".75" stroke-linecap="round" stroke-linejoin="round" fill="none" stroke="#000000" d="M325.2286 38.54098C328.88896 41.946195 333.22309 44.936025 338.01634 46.37062 332.8526 47.552846 328.7215 50.527498 325.64244 54.688997"/>
<path transform="matrix(1,0,0,-1,500.2038,79.08597)" stroke-width=".75" stroke-linecap="round" stroke-linejoin="round" fill="none" stroke="#000000" d="M382.08827 46.126455C402.7664 46.309026 424.43547 45.77056 445.59086 46.266927"/>
<path transform="matrix(1,0,0,-1,500.2038,79.08597)" stroke-width=".75" stroke-linecap="round" stroke-linejoin="round" fill="none" stroke="#000000" d="M433.021 38.430368C435.87528 41.930536 440.83049 44.765588 445.7482 45.97304 440.3265 47.74102 436.61857 50.518377 433.36027 54.340478"/>
<path transform="matrix(1,0,0,-1,500.2038,79.08597)" stroke-width=".75" stroke-linecap="round" stroke-linejoin="round" fill="none" stroke="#000000" d="M135.55336-46.09292C156.78118-46.622659 178.34606-45.860914 199.50826-45.913156"/>
<path transform="matrix(1,0,0,-1,500.2038,79.08597)" stroke-width=".75" stroke-linecap="round" stroke-linejoin="round" fill="none" stroke="#000000" d="M186.8578-54.652734C190.34905-50.449495 194.98239-47.33525 199.48021-46.250284 194.44412-45.289499 190.45189-42.635156 186.78009-38.21858"/>
<path transform="matrix(1,0,0,-1,500.2038,79.08597)" stroke-width=".75" stroke-linecap="round" stroke-linejoin="round" fill="none" stroke="#000000" d="M275.10456-46.62712C303.42027-46.304887 332.04554-46.010213 360.5735-46.31843 360.40168-22.966828 360.6473 .588447 360.5474 24.28001"/>
<path transform="matrix(1,0,0,-1,500.2038,79.08597)" stroke-width=".75" stroke-linecap="round" stroke-linejoin="round" fill="none" stroke="#000000" d="M368.71983 11.832711C364.3229 15.456739 361.02546 19.648217 360.3542 24.393639 359.50843 19.901419 356.44407 15.423568 352.1837 11.465885"/>
<path transform="matrix(1,0,0,-1,500.2038,79.08597)" stroke-width=".75" stroke-linecap="round" stroke-linejoin="round" fill="none" stroke="#000000" d="M215.17716 21.144667C215.293 20.301226 214.53458 21.855795 213.50963 21.753836 229.69281 20.639472 244.62595 20.373885 260.36787 21.854905 274.25987 21.952883 275.70823 21.391154 274.8867 35.278547 274.6318 42.773569 275.57533 49.491586 274.06434 55.441629 274.29307 71.26411 274.1627 70.6365 260.77275 71.09408 245.24994 71.66435 228.94272 71.000408 213.68547 71.19297 198.83686 71.27569 198.60854 71.49011 198.53348 56.221147 200.13629 48.68589 199.30553 43.215288 198.98937 37.150529 199.71503 21.73314 199.63826 20.662547 215.17716 21.144667Z"/>
<path transform="matrix(1,0,0,-1,500.2038,79.08597)" stroke-width=".75" stroke-linecap="round" stroke-linejoin="round" fill="none" stroke="#d90000" d="M214.27628-71.24399C213.78482-70.67488 214.60376-71.234607 215.43071-71.89753 230.47126-71.275478 245.33025-72.09551 259.43174-71.76289 274.19593-71.747859 274.125-71.06036 274.01988-56.500036 275.03623-48.974386 275.50999-42.442426 274.89808-35.459688 275.70506-20.896389 275.63084-20.973343 259.25184-21.73343 245.41269-21.513508 229.8166-21.320559 213.5636-22.239008 200.32096-22.209202 199.06175-22.20617 198.91837-37.171548 200.02138-43.244775 199.44704-48.639776 198.6199-55.815965 199.44481-70.90016 198.9398-71.520809 214.27628-71.24399Z"/>
<path transform="matrix(1,0,0,-1,500.2038,79.08597)" stroke-width=".75" stroke-linecap="round" stroke-linejoin="round" fill="none" stroke="#d90000" d="M382.3538 45.362936C382.1921 57.69268 373.0491 67.64028 360.78129 68.606739 347.7363 68.01625 338.56248 58.29314 338.76286 47.142778 339.31105 33.83813 348.04435 23.873797 360.07386 23.576395 372.08274 23.948719 382.63667 34.453317 382.3538 45.362936Z"/>
<path transform="matrix(1,0,0,-1,500.2038,79.08597)" stroke-width=".75" stroke-linecap="round" stroke-linejoin="round" fill="none" stroke="#000000" d="M135.62458 46.039167C156.97348 46.092706 178.35703 45.989614 199.01245 46.195146"/>
<path transform="matrix(1,0,0,-1,500.2038,79.08597)" stroke-width=".75" stroke-linecap="round" stroke-linejoin="round" fill="none" stroke="#000000" d="M186.26888 38.43028C189.43947 41.819936 194.09398 44.85275 199.46793 45.92941 193.9966 47.419549 189.64823 50.27594 186.73943 54.09243"/>
<path transform="matrix(1,0,0,-1,500.2038,79.08597)" stroke-width=".75" stroke-linecap="round" stroke-linejoin="round" fill="none" stroke="#000000" d="M274.38578 45.9117C295.82676 46.512617 317.29713 46.225679 338.1033 45.865377"/>
<path transform="matrix(1,0,0,-1,500.2038,79.08597)" stroke-width=".75" stroke-linecap="round" stroke-linejoin="round" fill="none" stroke="#000000" d="M325.31623 37.94575C328.75624 41.998807 333.20478 45.108625 338.11018 46.095685 333.6074 47.028955 328.73625 50.316816 325.70509 54.501714"/>
<path transform="matrix(1,0,0,-1,500.2038,79.08597)" stroke-width=".75" stroke-linecap="round" stroke-linejoin="round" fill="none" stroke="#000000" d="M382.15174 45.91678C403.54893 46.25016 424.68885 45.964849 445.61228 45.84999"/>
<path transform="matrix(1,0,0,-1,500.2038,79.08597)" stroke-width=".75" stroke-linecap="round" stroke-linejoin="round" fill="none" stroke="#000000" d="M433.02513 37.99621C436.16596 42.27654 440.244 45.091428 446.0094 46.055528 440.25114 47.592084 436.09547 50.058649 433.16038 54.118249"/>
<path transform="matrix(1,0,0,-1,500.2038,79.08597)" stroke-width=".75" stroke-linecap="round" stroke-linejoin="round" fill="none" stroke="#000000" d="M135.37689-46.20511C157.0395-46.146574 178.80152-46.44524 200.2679-46.539674"/>
<path transform="matrix(1,0,0,-1,500.2038,79.08597)" stroke-width=".75" stroke-linecap="round" stroke-linejoin="round" fill="none" stroke="#000000" d="M187.22809-54.255987C190.28537-50.523668 194.84668-47.57785 199.48952-46.024827 194.54595-44.959524 190.5534-41.774358 186.79422-37.77389"/>
<path transform="matrix(1,0,0,-1,500.2038,79.08597)" stroke-width=".75" stroke-linecap="round" stroke-linejoin="round" fill="none" stroke="#000000" d="M274.98905-46.17692C302.8898-46.391878 331.35273-46.45362 359.92857-46.102628 360.21888-22.420783 360.65339 .6879 360.1594 24.173262"/>
<path transform="matrix(1,0,0,-1,500.2038,79.08597)" stroke-width=".75" stroke-linecap="round" stroke-linejoin="round" fill="none" stroke="#000000" d="M368.70069 12.294793C364.34236 14.90108 361.74986 19.60345 359.9605 24.487099 359.2383 19.455245 355.98527 15.477219 351.81083 11.454827"/>
<use data-text="+" xlink:href="#font_3_10" transform="matrix(21.519354,0,0,-21.519316,822.39297,25.159089)"/>
<use data-text="+" xlink:href="#font_3_10" transform="matrix(21.519354,0,0,-21.519316,866.59219,70.313358)"/>
<use data-text="X" xlink:href="#font_3_5" transform="matrix(21.519383,0,0,-21.519398,588.1568,38.28322)"/>
<use data-text="(" xlink:href="#font_3_2" transform="matrix(21.519383,0,0,-21.519398,602.4887,38.28322)"/>
<use data-text="s" xlink:href="#font_3_3" transform="matrix(21.519383,0,0,-21.519398,612.0338,38.28322)"/>
<use data-text=")" xlink:href="#font_3_4" transform="matrix(21.519383,0,0,-21.519398,623.02078,38.28322)"/>
<use data-text="Y" xlink:href="#font_3_6" transform="matrix(21.519246,0,0,-21.519398,589.3407,130.69159)"/>
<use data-text="(" xlink:href="#font_3_2" transform="matrix(21.519246,0,0,-21.519398,602.4894,130.69159)"/>
<use data-text="s" xlink:href="#font_3_3" transform="matrix(21.519246,0,0,-21.519398,612.0345,130.69159)"/>
<use data-text=")" xlink:href="#font_3_4" transform="matrix(21.519246,0,0,-21.519398,623.0213,130.69159)"/>
<use data-text="Z" xlink:href="#font_3_7" transform="matrix(21.519383,0,0,-21.519398,950.3685,38.28322)"/>
<use data-text="(" xlink:href="#font_3_2" transform="matrix(21.519383,0,0,-21.519398,964.70046,38.28322)"/>
<use data-text="s" xlink:href="#font_3_3" transform="matrix(21.519383,0,0,-21.519398,974.2456,38.28322)"/>
<use data-text=")" xlink:href="#font_3_4" transform="matrix(21.519383,0,0,-21.519398,985.23257,38.28322)"/>
</svg>
