<svg xmlns="http://www.w3.org/2000/svg" xmlns:xlink="http://www.w3.org/1999/xlink" xmlns:inkscape="http://www.inkscape.org/namespaces/inkscape" version="1.1" width="850.03866" height="158.08614" viewBox="0 0 850.03866 158.08614">
<defs>
<path id="font_0_1" d="M.08999634 .32458497C.08999634 .22958374 .114990238 .13148499 .18299866 .06341553 .23699951 .009384155 .31199647-.016601563 .3880005-.016601563 .46099855-.016601563 .56900027 .010391235 .6569977 .03338623 .6569977 .03338623 .6539917 .216568 .6519928 .30760194L.37599183 .2966156V.27061463L.38198854 .265625C.43598939 .26361085 .5 .25961305 .5439911 .25660707 .57199099 .25460816 .57199099 .22257996 .57199099 .13449097 .57199099 .061416627 .56900027 .04940796 .5519867 .045394899 .5209961 .038391115 .48999024 .03538513 .45799256 .03538513 .37998963 .03538513 .30599977 .060409547 .2619934 .112472537 .20399475 .18052674 .17999268 .25260926 .17999268 .3405609 .17999268 .48339845 .23199463 .5653076 .26098634 .5942688 .3039856 .63623049 .36299134 .6502075 .42199708 .6502075 .5529938 .6502075 .59298709 .5563202 .60598757 .53034976L.6179962 .5293579 .6759949 .58628848C.6649933 .6032715 .6119995 .69921877 .46699525 .69921877 .3619995 .69921877 .25698854 .6682129 .18199158 .593277 .11199951 .5233612 .08999634 .4224701 .08999634 .32458497Z"/>
<path id="font_0_2" d="M.11299133 .24990845C.11299133 .007904053 .1519928-.09008789 .18299866-.13310242 .21099854-.17008972 .25299073-.20809937 .30099488-.21209717V-.1880951C.2809906-.18409729 .25099183-.16809082 .23399353-.1481018 .21998596-.13209534 .16499329-.05809021 .16499329 .24990845 .16499329 .4618988 .19799805 .5659027 .21998596 .6128998 .23599243 .6469116 .2689972 .6769104 .30099488 .684906V.71191409C.2599945 .7049103 .21598816 .6729126 .19099427 .63790896 .1599884 .5919037 .11299133 .4748993 .11299133 .24990845Z"/>
<path id="font_0_3" d="M.051986696 .06642151C.06199646 .047409059 .07598877 .030395508 .09199524 .01638794 .12098694-.009613037 .16099549-.016601563 .19898987-.016601563 .2559967-.016601563 .31199647 .0023956299 .35099793 .044403078 .375 .06941223 .3869934 .10343933 .3869934 .13845825 .3869934 .1634674 .37298585 .18649292 .35499574 .20449829 .34098817 .21850586 .3039856 .24052429 .27198792 .25453187 .24299622 .26654054 .19999695 .2885437 .18798828 .30055238 .17298889 .31655885 .1619873 .3285675 .1619873 .35058595 .1619873 .3725891 .16899109 .39360047 .18499756 .4086151 .19999695 .42362977 .22200012 .43164063 .24398804 .43164063 .2639923 .43164063 .2849884 .42462159 .29599 .4066162 .30599977 .39060975 .30799867 .3715973 .30899049 .35359193L.32099916 .34657289 .37599183 .38360597C.375 .40560914 .3639984 .42662049 .34799195 .44163514 .32499696 .46263124 .29299928 .46662904 .2630005 .46662904 .21398926 .46662904 .16699219 .45063783 .1309967 .4176178 .10398865 .39360047 .08999634 .35858155 .08999634 .32356263 .08999634 .29154969 .10798645 .26353456 .1309967 .2425232 .1539917 .22250366 .18399048 .2084961 .21499634 .1954956 .24099732 .18447876 .2689972 .17248535 .28799439 .1534729 .30299378 .13845825 .31399537 .11845398 .31399537 .09744263 .31399537 .079422 .30499269 .062408449 .29299928 .04940796 .27799989 .03340149 .25099183 .021392823 .22898865 .021392823 .19898987 .021392823 .17199707 .03439331 .1499939 .055404664 .1269989 .076416019 .116989139 .10644531 .114990238 .13645935L.100997928 .13745117 .051986696 .06642151Z"/>
<path id="font_0_4" d="M.085998538-.1880951V-.21209717C.13398743-.20610047 .1789856-.17208863 .20698548-.13510132 .23799134-.09210205 .27598573 .007904053 .27598573 .24990845 .27598573 .50090029 .22399903 .5919037 .19299317 .63790896 .16799927 .6729126 .1269989 .7049103 .085998538 .71191409V.684906C.117996219 .6759033 .14898682 .6469116 .16499329 .6128998 .18699646 .5659027 .22399903 .48190309 .22399903 .24990845 .22399903-.099090579 .17199707-.13209534 .1579895-.1481018 .14099121-.16809082 .10598755-.18409729 .085998538-.1880951Z"/>
<path id="font_0_5" d="M.026992798 0 .12098694 .010986328C.13699341 .04496765 .18998719 .12893677 .22799683 .18190003 .2559967 .22288513 .29699708 .27885438 .31098939 .29585267H.32299806L.46598817 .05696106C.47999574 .034973146 .49398805 .0129852299 .5119934-.005004883L.526001-.011001587 .6359863 .015991211V.031982423L.6309967 .035980226C.6230011 .037979127 .6009979 .051971437 .59399417 .05895996L.5339966 .13093567C.49499513 .17990113 .37799073 .3668213 .37799073 .37980653 .38198854 .3868103 .4149933 .43078614 .44499208 .46577455L.6319885 .67167666V.686676L.5369873 .67367556C.5369873 .67367556 .49198915 .6027069 .45999146 .5567322 .4269867 .51174929 .3619995 .42678834 .35699464 .4217987H.34799195L.20098877 .6876831C.1559906 .6846771 .07998657 .6806793 .054992677 .6796875L.04798889 .67367556V.64868167C.066986087 .643692 .083999637 .63868716 .09799194 .6336975 .115997318 .6266937 .14199829 .60769656 .15299988 .5897064 .19898987 .50775149 .2939911 .3458252 .2979889 .34483338L.026992798 .015991211V0Z"/>
<path id="font_0_6" d="M.022994996 .6513672C.036987306 .649353 .049987794 .6463623 .06298828 .6433563 .07199097 .6413574 .07998657 .6353607 .085998538 .62835696 .09599304 .61834719 .102996829 .60635378 .10899353 .5943451L.2579956 .29930116C.2579956 .19927979 .2579956 .0982666 .25498963-.0017547608L.2659912-.0107421879 .35598756 .018249512 .34700013 .30630494C.42999269 .4343109 .5039978 .5303345 .61499026 .675354L.61099246 .6933594 .526001 .6763611C.48999024 .619339 .4059906 .47431947 .397995 .46032716 .3849945 .4373169 .34199525 .36730958 .33898927 .3623047 .33599855 .3572998 .33198548 .353302 .32798768 .353302 .32199098 .353302 .31698609 .3592987 .31599427 .36131288L.1749878 .6863556H.02999878L.022994996 .67936709V.6513672Z"/>
<path id="font_0_7" d="M.04598999 .020996094 .04699707 0C.23899842 .0002746582 .49299623 .0002746582 .621994-.01171875L.6399994 .059280397 .6309967 .06826782 .20199585 .053985597 .19599915 .06098938C.28599549 .20005799 .45999146 .4711914 .59498599 .6642914V.68330386C.44599916 .68330386 .2979889 .6863098 .1499939 .6953125L.14099121 .68730166V.6332855L.14698792 .62828066C.17399597 .63127139 .27598573 .6372833 .46299745 .6372833L.46998597 .62727358 .04598999 .020996094Z"/>
<path id="font_0_8" d="M.08099365 .036132814H.73999026L.7489929 .07511902H.08999634L.08099365 .036132814M.08099365 .23046875H.73999026L.7489929 .27046205H.08999634L.08099365 .23046875M.08099365 .4248352H.73999026L.7489929 .46484376H.08999634L.08099365 .4248352Z"/>
</defs>
<use data-text="G" xlink:href="#font_0_1" transform="matrix(21.51903,0,0,-21.519398,133.31766,71.18889)"/>
<use data-text="(" xlink:href="#font_0_2" transform="matrix(21.51903,0,0,-21.519398,149.77971,71.18889)"/>
<use data-text="s" xlink:href="#font_0_3" transform="matrix(21.51903,0,0,-21.519398,159.32469,71.18889)"/>
<use data-text=")" xlink:href="#font_0_4" transform="matrix(21.51903,0,0,-21.519398,170.31145,71.18889)"/>
<path transform="matrix(1,0,0,-1,435.6491,79.04306)" stroke-width=".75" stroke-linecap="round" stroke-linejoin="round" fill="none" stroke="#000000" d="M-301.75685-11.44054C-302.297-12.661321-302.849-12.551956-302.36799-11.546366-287.55448-12.364922-271.6723-10.881583-257.73017-12.0525-242.52182-11.503096-242.50913-11.315806-241.27663 2.798695-241.1231 10.794972-242.32512 17.434195-242.07378 22.39265-241.09415 39.011-242.10028 38.829854-256.6208 38.77829-272.4636 38.31354-286.43074 39.088094-301.87055 37.79695-316.57127 38.85341-317.70069 38.198904-316.91935 23.239733-317.3592 16.061289-318.12205 9.291807-316.88374 4.106663-317.10285-11.896835-318.1246-10.804543-301.75685-11.44054Z"/>
<path transform="matrix(1,0,0,-1,435.6491,79.04306)" stroke-width=".75" stroke-linecap="round" stroke-linejoin="round" fill="none" stroke="#000000" d="M-380.84318 13.449827C-360.0256 13.643668-338.75065 13.585609-317.65504 13.668325"/>
<path transform="matrix(1,0,0,-1,435.6491,79.04306)" stroke-width=".75" stroke-linecap="round" stroke-linejoin="round" fill="none" stroke="#000000" d="M-330.51429 4.743544C-327.25355 9.372905-322.7038 12.285886-317.492 13.339366-322.63887 14.14678-327.21614 17.155955-330.56883 20.95893"/>
<path transform="matrix(1,0,0,-1,435.6491,79.04306)" stroke-width=".75" stroke-linecap="round" stroke-linejoin="round" fill="none" stroke="#000000" d="M-241.61583 13.504307C-206.72153 13.534309-171.31333 13.53135-135.955 13.321769"/>
<path transform="matrix(1,0,0,-1,435.6491,79.04306)" stroke-width=".75" stroke-linecap="round" stroke-linejoin="round" fill="none" stroke="#000000" d="M-148.12172 5.254023C-144.73229 8.829983-140.49803 11.875554-135.45806 13.203522-140.26251 14.504977-145.12006 17.05615-148.73394 21.478636"/>
<path transform="matrix(1,0,0,-1,435.6491,79.04306)" stroke-width=".75" stroke-linecap="round" stroke-linejoin="round" fill="none" stroke="#000000" d="M-199.72043 13.124932C-199.15082-.919087-199.76753-15.538252-199.29949-29.472039-178.63947-29.708882-157.13153-29.66019-135.51291-29.490733"/>
<path transform="matrix(1,0,0,-1,435.6491,79.04306)" stroke-width=".75" stroke-linecap="round" stroke-linejoin="round" fill="none" stroke="#000000" d="M-147.96788-37.19966C-145.46997-33.63667-141.12255-30.36346-135.26399-29.045777-140.82978-28.229828-144.88434-25.551247-148.64449-21.516976"/>
<path transform="matrix(1,0,0,-1,435.6491,79.04306)" stroke-width=".75" stroke-linecap="round" stroke-linejoin="round" fill="none" stroke="#000000" d="M-301.7211-11.255662C-302.43336-11.598921-301.67469-12.338655-302.86213-12.26588-286.6924-12.234995-272.85368-12.265721-257.59205-12.119122-241.7578-12.499698-241.57198-11.367357-242.53113 3.794998-242.42218 9.385376-241.09799 16.585068-242.93238 24.12241-241.0184 39.144689-242.41013 38.616704-256.2285 38.036149-272.84226 39.04106-287.00428 37.382234-301.70674 37.84529-316.8659 37.28463-317.57234 37.29373-317.81266 22.408852-316.8289 17.504088-317.84739 10.859384-316.47084 4.057435-317.6659-10.874346-317.08729-12.343722-301.7211-11.255662Z"/>
<path transform="matrix(1,0,0,-1,435.6491,79.04306)" stroke-width=".75" stroke-linecap="round" stroke-linejoin="round" fill="none" stroke="#000000" d="M-381.26496 12.902698C-359.60429 13.472665-338.81227 12.823304-317.5085 13.195033"/>
<path transform="matrix(1,0,0,-1,435.6491,79.04306)" stroke-width=".75" stroke-linecap="round" stroke-linejoin="round" fill="none" stroke="#000000" d="M-329.9573 5.053835C-327.12608 9.402513-322.94435 12.400305-317.557 13.126909-322.487 14.039859-327.08738 17.092717-330.42964 21.47964"/>
<path transform="matrix(1,0,0,-1,435.6491,79.04306)" stroke-width=".75" stroke-linecap="round" stroke-linejoin="round" fill="none" stroke="#000000" d="M-242.4086 13.35191C-206.51282 13.610313-171.43517 12.921927-135.39772 13.455267"/>
<path transform="matrix(1,0,0,-1,435.6491,79.04306)" stroke-width=".75" stroke-linecap="round" stroke-linejoin="round" fill="none" stroke="#000000" d="M-148.63825 4.9916C-145.56884 9.362551-140.46526 12.346381-135.34938 13.443542-140.70284 14.724795-145.3755 17.593457-148.36467 21.098816"/>
<path transform="matrix(1,0,0,-1,435.6491,79.04306)" stroke-width=".75" stroke-linecap="round" stroke-linejoin="round" fill="none" stroke="#000000" d="M-199.5742 13.354249C-199.18582-.490252-199.8384-15.023553-199.81009-28.918198-178.49045-29.599524-157.27378-29.656224-135.6056-28.952397"/>
<path transform="matrix(1,0,0,-1,435.6491,79.04306)" stroke-width=".75" stroke-linecap="round" stroke-linejoin="round" fill="none" stroke="#000000" d="M-148.10141-37.067499C-145.48654-33.228013-140.30654-30.672766-135.29232-29.489104-140.46002-28.3732-145.04354-24.902083-148.636-20.888297"/>
<path transform="matrix(1,0,0,-1,435.6491,79.04306)" stroke-width=".75" stroke-linecap="round" stroke-linejoin="round" fill="none" stroke="#000000" d="M-302.97065-10.963101C-302.32136-10.98847-302.17225-12.162795-301.78434-10.758581-286.9188-11.560195-271.93186-11.486657-256.19776-12.260531-241.71904-12.402967-241.59819-11.150274-242.29863 2.762066-242.3017 10.726271-242.02803 17.368796-242.26546 22.506916-241.22351 38.076967-241.88321 37.93536-256.42457 38.853937-273.01664 38.210336-287.63453 37.233858-303.0557 37.385824-316.76426 37.63293-318.218 37.742525-316.67066 23.419754-317.37098 17.480912-318.14967 10.296813-317.24546 3.630675-316.98704-12.362608-317.31294-10.814793-302.97065-10.963101Z"/>
<path transform="matrix(1,0,0,-1,435.6491,79.04306)" stroke-width=".75" stroke-linecap="round" stroke-linejoin="round" fill="none" stroke="#000000" d="M-381.18467 13.114684C-359.87208 13.371302-338.6057 13.572653-317.36024 12.915662"/>
<path transform="matrix(1,0,0,-1,435.6491,79.04306)" stroke-width=".75" stroke-linecap="round" stroke-linejoin="round" fill="none" stroke="#000000" d="M-330.2839 5.43837C-327.47648 9.28427-322.55986 12.276246-317.9335 12.880992-323.01463 14.782742-327.55595 17.441502-330.1616 21.377388"/>
<path transform="matrix(1,0,0,-1,435.6491,79.04306)" stroke-width=".75" stroke-linecap="round" stroke-linejoin="round" fill="none" stroke="#000000" d="M-241.924 13.290954C-206.14105 13.664641-171.4721 12.815157-135.3332 13.664814"/>
<path transform="matrix(1,0,0,-1,435.6491,79.04306)" stroke-width=".75" stroke-linecap="round" stroke-linejoin="round" fill="none" stroke="#000000" d="M-148.65717 5.283331C-145.27342 8.823749-140.4471 12.273256-135.63462 13.037654-140.34374 14.461272-145.56778 17.685307-148.33292 20.983922"/>
<path transform="matrix(1,0,0,-1,435.6491,79.04306)" stroke-width=".75" stroke-linecap="round" stroke-linejoin="round" fill="none" stroke="#000000" d="M-199.23897 13.386394C-199.19353-1.069793-199.2414-14.71287-199.01262-29.158614-177.9697-28.906329-156.58452-29.439528-135.81705-29.369906"/>
<path transform="matrix(1,0,0,-1,435.6491,79.04306)" stroke-width=".75" stroke-linecap="round" stroke-linejoin="round" fill="none" stroke="#000000" d="M-148.70516-37.38794C-145.00885-33.601968-140.7668-30.532525-135.39694-29.579033-140.98084-28.37186-145.29589-25.304043-148.48125-21.181136"/>
<path transform="matrix(1,0,0,-1,435.6491,79.04306)" stroke-width=".75" stroke-linecap="round" stroke-linejoin="round" fill="none" stroke="#000000" d="M-301.47315-11.303045C-302.82966-11.356221-303.1958-11.06678-301.8073-12.53236-287.87629-11.469497-272.6516-11.237088-257.69789-11.315528-241.28533-11.377393-242.04239-11.802425-241.65773 2.361901-242.00144 10.757179-241.8643 15.998919-242.62802 22.422904-242.71703 38.267629-242.19384 38.89661-257.82969 37.791208-272.118 38.499654-287.589 39.090295-302.54869 38.324617-317.777 38.615549-317.23423 38.856554-317.09446 24.129788-317.918 16.871838-317.65394 10.235226-317.69599 3.099162-317.45756-11.26515-316.93299-11.495269-301.47315-11.303045Z"/>
<path transform="matrix(1,0,0,-1,435.6491,79.04306)" stroke-width=".75" stroke-linecap="round" stroke-linejoin="round" fill="none" stroke="#000000" d="M-381.14677 13.491686C-359.7634 12.887018-339.18794 12.798137-317.41474 12.814992"/>
<path transform="matrix(1,0,0,-1,435.6491,79.04306)" stroke-width=".75" stroke-linecap="round" stroke-linejoin="round" fill="none" stroke="#000000" d="M-330.8018 4.975028C-327.1258 9.334952-323.12208 11.635077-317.59989 13.671818-322.522 14.729518-327.06065 16.891732-330.53117 21.432629"/>
<path transform="matrix(1,0,0,-1,435.6491,79.04306)" stroke-width=".75" stroke-linecap="round" stroke-linejoin="round" fill="none" stroke="#000000" d="M-241.82128 13.662257C-206.30677 13.315315-170.70316 12.798798-135.61409 13.557068"/>
<path transform="matrix(1,0,0,-1,435.6491,79.04306)" stroke-width=".75" stroke-linecap="round" stroke-linejoin="round" fill="none" stroke="#000000" d="M-148.50299 5.437476C-145.3666 8.871633-140.96866 12.292351-135.75925 13.667879-140.38623 14.232713-145.02542 17.298239-148.45456 21.070475"/>
<path transform="matrix(1,0,0,-1,435.6491,79.04306)" stroke-width=".75" stroke-linecap="round" stroke-linejoin="round" fill="none" stroke="#000000" d="M-199.69329 13.267321C-199.1475-.698102-199.02225-14.814639-199.55304-28.947148-177.89202-29.674736-157.01222-29.241566-135.3681-29.262255"/>
<path transform="matrix(1,0,0,-1,435.6491,79.04306)" stroke-width=".75" stroke-linecap="round" stroke-linejoin="round" fill="none" stroke="#000000" d="M-148.66759-37.08859C-145.43611-33.33028-140.68619-30.328059-135.26717-29.28889-140.9-28.159073-145.12445-24.86253-148.2393-21.611126"/>
<path transform="matrix(1,0,0,-1,435.6491,79.04306)" stroke-width=".75" stroke-linecap="round" stroke-linejoin="round" fill="none" stroke="#000000" d="M-302.54017-11.796057C-302.78688-10.833266-302.77818-11.669807-302.16133-11.089901-287.68278-12.638009-271.13804-11.593404-256.54164-10.97681-241.8982-10.937192-242.16817-11.092421-241.74503 2.358627-242.00742 10.575381-242.16374 17.075583-241.35588 23.66112-242.87979 37.398614-241.55602 38.90232-257.6066 38.22376-271.53553 37.283414-287.76524 38.132928-302.76747 37.22271-317.77159 39.077436-317.98463 38.009183-317.5643 23.979186-316.66658 16.42194-316.8775 9.913485-317.0795 3.76715-317.63755-11.775863-316.57157-11.537559-302.54017-11.796057Z"/>
<path transform="matrix(1,0,0,-1,435.6491,79.04306)" stroke-width=".75" stroke-linecap="round" stroke-linejoin="round" fill="none" stroke="#000000" d="M-381.25755 13.344313C-359.9538 13.145785-338.59828 13.525898-317.9025 13.478502"/>
<path transform="matrix(1,0,0,-1,435.6491,79.04306)" stroke-width=".75" stroke-linecap="round" stroke-linejoin="round" fill="none" stroke="#000000" d="M-330.17793 5.281313C-326.86927 9.477975-322.88655 11.932983-317.83427 12.887474-322.66398 14.637763-327.634 16.906945-330.65583 21.585877"/>
<path transform="matrix(1,0,0,-1,435.6491,79.04306)" stroke-width=".75" stroke-linecap="round" stroke-linejoin="round" fill="none" stroke="#000000" d="M-242.21149 13.621927C-206.33776 13.169277-170.83502 13.210225-136.04923 13.55399"/>
<path transform="matrix(1,0,0,-1,435.6491,79.04306)" stroke-width=".75" stroke-linecap="round" stroke-linejoin="round" fill="none" stroke="#000000" d="M-148.28041 4.802801C-145.53337 8.909892-140.81453 12.018646-135.73824 13.17686-140.51213 14.132098-145.1277 17.499522-148.03435 21.371466"/>
<path transform="matrix(1,0,0,-1,435.6491,79.04306)" stroke-width=".75" stroke-linecap="round" stroke-linejoin="round" fill="none" stroke="#000000" d="M-199.62316 12.873906C-199.3453-1.017472-199.5427-15.108278-199.5038-29.124148-177.84032-29.409939-157.38802-29.29487-135.57798-29.105633"/>
<path transform="matrix(1,0,0,-1,435.6491,79.04306)" stroke-width=".75" stroke-linecap="round" stroke-linejoin="round" fill="none" stroke="#000000" d="M-148.03885-36.96294C-145.43257-33.72196-140.74317-30.57099-135.31142-29.513886-140.58895-28.122859-145.06308-25.243229-148.54007-21.533587"/>
<path transform="matrix(1,0,0,-1,435.6491,79.04306)" d="M-197.18854 13.251528C-197.4936 13.984596-197.73497 14.481989-197.9277 14.636647-198.30449 15.191671-199.08061 15.573291-199.20938 15.595341-200.11885 15.510828-200.98917 15.600132-200.73273 15.218148-201.32468 14.406562-201.88684 13.626385-201.49639 13.425174-201.43169 12.413245-201.76239 11.645432-201.26583 11.288135-200.4775 11.531914-200.42124 10.652018-199.83133 10.675944-198.54743 11.052783-198.12316 11.419937-197.67592 11.770259-197.76583 11.79593-197.51079 12.290442-197.18854 13.251528Z" fill="#d90000"/>
<use data-text="X" xlink:href="#font_0_5" transform="matrix(21.519383,0,0,-21.519398,6.8143007,71.18889)"/>
<use data-text="(" xlink:href="#font_0_2" transform="matrix(21.519383,0,0,-21.519398,21.146208,71.18889)"/>
<use data-text="s" xlink:href="#font_0_3" transform="matrix(21.519383,0,0,-21.519398,30.691346,71.18889)"/>
<use data-text=")" xlink:href="#font_0_4" transform="matrix(21.519383,0,0,-21.519398,41.678285,71.18889)"/>
<use data-text="Y" xlink:href="#font_0_6" transform="matrix(21.519246,0,0,-21.519398,304.47129,71.18889)"/>
<use data-text="(" xlink:href="#font_0_2" transform="matrix(21.519246,0,0,-21.519398,317.61997,71.18889)"/>
<use data-text="s" xlink:href="#font_0_3" transform="matrix(21.519246,0,0,-21.519398,327.16508,71.18889)"/>
<use data-text=")" xlink:href="#font_0_4" transform="matrix(21.519246,0,0,-21.519398,338.15196,71.18889)"/>
<use data-text="Z" xlink:href="#font_0_7" transform="matrix(21.519383,0,0,-21.519398,304.47129,113.708049)"/>
<use data-text="(" xlink:href="#font_0_2" transform="matrix(21.519383,0,0,-21.519398,318.80317,113.708049)"/>
<use data-text="s" xlink:href="#font_0_3" transform="matrix(21.519383,0,0,-21.519398,328.34834,113.708049)"/>
<use data-text=")" xlink:href="#font_0_4" transform="matrix(21.519383,0,0,-21.519398,339.33528,113.708049)"/>
<use data-text="&#x2261;" xlink:href="#font_0_8" transform="matrix(37.18528,0,0,-37.185327,420.21498,87.6899)"/>
<use data-text="G" xlink:href="#font_0_1" transform="matrix(21.51903,0,0,-21.519398,692.62466,38.128587)"/>
<use data-text="(" xlink:href="#font_0_2" transform="matrix(21.51903,0,0,-21.519398,709.0867,38.128587)"/>
<use data-text="s" xlink:href="#font_0_3" transform="matrix(21.51903,0,0,-21.519398,718.6316,38.128587)"/>
<use data-text=")" xlink:href="#font_0_4" transform="matrix(21.51903,0,0,-21.519398,729.6184,38.128587)"/>
<use data-text="G" xlink:href="#font_0_1" transform="matrix(21.51903,0,0,-21.519398,692.62466,130.53693)"/>
<use data-text="(" xlink:href="#font_0_2" transform="matrix(21.51903,0,0,-21.519398,709.0867,130.53693)"/>
<use data-text="s" xlink:href="#font_0_3" transform="matrix(21.51903,0,0,-21.519398,718.6316,130.53693)"/>
<use data-text=")" xlink:href="#font_0_4" transform="matrix(21.51903,0,0,-21.519398,729.6184,130.53693)"/>
<path transform="matrix(1,0,0,-1,435.64909,79.04306)" stroke-width=".75" stroke-linecap="round" stroke-linejoin="round" fill="none" stroke="#000000" d="M256.9286 21.484726C256.3465 20.921444 256.7369 20.386759 256.1436 21.113907 272.1948 21.348574 287.79399 20.440209 301.72114 20.7667 316.43519 20.611575 316.87797 20.933787 317.94776 36.424749 317.2187 43.879198 316.5724 49.430185 317.52394 56.726015 316.5596 72.00508 316.7114 70.378917 303.18324 71.62602 286.9466 70.59086 271.35279 71.186168 256.0691 71.8401 241.1845 71.59843 242.02457 71.29705 241.08957 56.304067 242.73743 50.410966 241.28884 43.797258 242.34535 37.077634 241.77747 21.8091 241.6941 20.836068 256.9286 21.484726Z"/>
<path transform="matrix(1,0,0,-1,435.64909,79.04306)" stroke-width=".75" stroke-linecap="round" stroke-linejoin="round" fill="none" stroke="#d90000" d="M257.42109-70.19355C256.68827-71.88666 256.00569-70.276927 256.75746-71.469669 272.28684-71.40547 287.08903-71.72934 303.2648-71.82332 318.04624-70.968189 318.09098-70.48986 317.54109-56.190057 316.9427-50.07345 316.57594-43.20547 317.49757-35.74884 318.16584-21.313893 317.68363-21.11077 302.57087-20.720553 287.73103-21.8224 272.2421-20.609202 257.91075-20.881953 241.1065-21.392088 242.76546-21.584786 241.51244-36.320116 241.12049-42.449277 242.83557-49.54844 242.87784-56.08692 241.4442-70.32214 241.19928-71.06721 257.42109-70.19355Z"/>
<path transform="matrix(1,0,0,-1,435.64909,79.04306)" stroke-width=".75" stroke-linecap="round" stroke-linejoin="round" fill="none" stroke="#000000" d="M135.68187 46.674295C170.9887 46.640626 206.09535 46.616 241.46477 46.539999"/>
<path transform="matrix(1,0,0,-1,435.64909,79.04306)" stroke-width=".75" stroke-linecap="round" stroke-linejoin="round" fill="none" stroke="#000000" d="M228.92295 38.147294C231.99434 42.253618 236.62574 45.53454 241.62337 46.597196 236.43492 47.62962 231.79254 50.261148 228.8341 54.00964"/>
<path transform="matrix(1,0,0,-1,435.64909,79.04306)" stroke-width=".75" stroke-linecap="round" stroke-linejoin="round" fill="none" stroke="#000000" d="M317.58818 46.739706C331.2874 46.310499 346.07557 46.56689 359.50627 46.690099"/>
<path transform="matrix(1,0,0,-1,435.64909,79.04306)" stroke-width=".75" stroke-linecap="round" stroke-linejoin="round" fill="none" stroke="#000000" d="M347.57868 38.349924C350.0019 42.73389 354.67237 45.41779 360.22929 46.052274 354.84959 47.843397 350.3342 49.879667 347.49964 54.206148"/>
<path transform="matrix(1,0,0,-1,435.64909,79.04306)" stroke-width=".75" stroke-linecap="round" stroke-linejoin="round" fill="none" stroke="#000000" d="M177.84233 46.10771C178.19284 15.063079 177.85269-15.528602 178.63713-45.80186 199.71836-45.93952 220.38141-45.796808 241.19724-46.190599"/>
<path transform="matrix(1,0,0,-1,435.64909,79.04306)" stroke-width=".75" stroke-linecap="round" stroke-linejoin="round" fill="none" stroke="#000000" d="M228.84639-54.33832C232.4683-49.81886 236.99143-47.600034 241.9613-45.91806 236.48126-45.37359 231.82407-41.84417 228.56923-38.196546"/>
<path transform="matrix(1,0,0,-1,435.64909,79.04306)" stroke-width=".75" stroke-linecap="round" stroke-linejoin="round" fill="none" stroke="#000000" d="M317.6455-46.09396C331.49787-45.725156 345.68568-46.546033 359.8497-45.782129"/>
<path transform="matrix(1,0,0,-1,435.64909,79.04306)" stroke-width=".75" stroke-linecap="round" stroke-linejoin="round" fill="none" stroke="#000000" d="M347.2518-53.893686C350.12434-50.083429 354.46763-47.62419 359.9718-46.229616 355.23158-45.24508 350.21217-42.529767 346.77149-38.305635"/>
<path transform="matrix(1,0,0,-1,435.64909,79.04306)" stroke-width=".75" stroke-linecap="round" stroke-linejoin="round" fill="none" stroke="#000000" d="M256.43049 21.23196C256.58097 20.567845 256.93299 21.49412 256.19953 22.10942 272.41264 21.620154 287.412 20.919878 301.66789 21.765269 317.35984 21.845067 316.38667 21.410395 317.42118 37.21417 317.96397 43.681215 316.9597 50.51391 317.15037 56.49965 317.8992 71.51765 318.21174 71.12455 302.37458 71.625087 288.10966 71.27087 272.25703 70.46456 256.45713 70.27675 241.14675 71.56688 242.44724 71.00884 241.55515 56.727464 241.33998 50.123674 241.31035 42.925764 241.72695 36.76168 241.06467 21.06581 242.50959 22.312783 256.43049 21.23196Z"/>
<path transform="matrix(1,0,0,-1,435.64909,79.04306)" stroke-width=".75" stroke-linecap="round" stroke-linejoin="round" fill="none" stroke="#d90000" d="M256.81367-71.29067C256.34178-71.33813 256.48524-71.95299 256.83256-71.537 271.57234-71.243328 286.927-71.50025 302.17073-70.764629 316.61729-71.262279 318.07133-70.898258 317.3744-56.08452 317.74256-49.748037 316.47853-43.30066 318.03877-36.93191 317.56639-20.420077 316.9589-20.560448 302.57539-20.752875 286.55628-21.021779 271.33488-21.35576 257.08268-20.960696 242.0693-20.234425 242.33026-20.666497 242.41613-36.39115 241.87822-41.89697 241.10774-49.28714 241.67838-55.116628 242.6831-71.898738 242.2499-70.907649 256.81367-71.29067Z"/>
<path transform="matrix(1,0,0,-1,435.64909,79.04306)" stroke-width=".75" stroke-linecap="round" stroke-linejoin="round" fill="none" stroke="#000000" d="M136.1078 46.5889C171.39156 46.01347 206.36089 46.67898 241.33882 46.13849"/>
<path transform="matrix(1,0,0,-1,435.64909,79.04306)" stroke-width=".75" stroke-linecap="round" stroke-linejoin="round" fill="none" stroke="#000000" d="M228.98062 38.430765C232.2163 42.60384 236.54973 45.076868 241.98995 46.187089 236.65323 47.09641 231.86534 50.282564 229.3943 54.40071"/>
<path transform="matrix(1,0,0,-1,435.64909,79.04306)" stroke-width=".75" stroke-linecap="round" stroke-linejoin="round" fill="none" stroke="#000000" d="M317.5223 46.37194C331.08815 46.289777 345.29243 46.248128 359.60423 46.67291"/>
<path transform="matrix(1,0,0,-1,435.64909,79.04306)" stroke-width=".75" stroke-linecap="round" stroke-linejoin="round" fill="none" stroke="#000000" d="M347.52787 38.00528C350.65449 42.02532 355.09645 45.138879 359.54389 46.07475 355.2703 47.521314 349.95753 50.629426 346.7828 54.007024"/>
<path transform="matrix(1,0,0,-1,435.64909,79.04306)" stroke-width=".75" stroke-linecap="round" stroke-linejoin="round" fill="none" stroke="#000000" d="M177.91368 46.062398C178.30113 15.232065 178.40677-15.474685 178.09369-45.809797 199.23325-46.13833 220.62593-45.74184 241.99515-46.40103"/>
<path transform="matrix(1,0,0,-1,435.64909,79.04306)" stroke-width=".75" stroke-linecap="round" stroke-linejoin="round" fill="none" stroke="#000000" d="M229.25782-53.981634C232.20464-50.32706 236.88484-47.68228 242.0489-45.862073 236.8141-45.062524 232.39032-42.526865 228.92934-38.430395"/>
<path transform="matrix(1,0,0,-1,435.64909,79.04306)" stroke-width=".75" stroke-linecap="round" stroke-linejoin="round" fill="none" stroke="#000000" d="M317.50224-45.91129C331.61576-46.02122 345.29978-46.074945 359.84898-46.54779"/>
<path transform="matrix(1,0,0,-1,435.64909,79.04306)" stroke-width=".75" stroke-linecap="round" stroke-linejoin="round" fill="none" stroke="#000000" d="M347.43119-54.383264C350.6643-50.493768 355.11903-47.33248 359.70899-45.787237 354.54917-44.86852 350.597-42.26865 346.82725-38.47357"/>
<path transform="matrix(1,0,0,-1,435.64909,79.04306)" stroke-width=".75" stroke-linecap="round" stroke-linejoin="round" fill="none" stroke="#000000" d="M256.50236 20.896214C257.8464 20.39373 257.86949 20.84284 256.8917 21.455603 272.54655 22.073122 286.32008 21.24926 302.61729 22.275242 316.82035 21.845423 317.94346 22.07023 316.8273 35.578435 318.04487 43.83292 316.81913 49.6417 318.16828 56.25076 317.20286 71.162639 317.90943 71.99364 301.75895 71.65108 286.4189 70.50577 271.52024 70.53498 257.38279 70.88984 242.16736 71.10456 242.87352 70.51541 242.84719 57.084318 241.83138 49.451158 241.5543 43.262338 241.77396 37.26252 242.87744 20.63862 242.30377 20.699549 256.50236 20.896214Z"/>
<path transform="matrix(1,0,0,-1,435.64909,79.04306)" stroke-width=".75" stroke-linecap="round" stroke-linejoin="round" fill="none" stroke="#d90000" d="M256.87965-71.28893C257.17185-70.50403 256.01243-70.743228 256.7334-71.43984 272.26957-71.721309 286.6581-70.56128 302.82234-71.22014 317.69328-70.34345 316.8527-70.629 318.1454-56.298788 316.6759-49.387178 317.0986-42.689397 317.33363-36.74375 318.11708-21.334313 317.88026-21.903983 303.03578-21.253312 286.36039-20.818013 271.21257-20.976233 256.09349-21.27858 241.94612-21.802033 241.31735-20.66215 242.54424-36.17823 241.10874-43.394124 242.24755-49.12785 242.93427-55.575094 242.7671-70.50378 241.12775-70.5746 256.87965-71.28893Z"/>
<path transform="matrix(1,0,0,-1,435.64909,79.04306)" stroke-width=".75" stroke-linecap="round" stroke-linejoin="round" fill="none" stroke="#000000" d="M135.78189 46.116178C170.55179 46.445314 206.22396 46.39197 241.88932 46.54894"/>
<path transform="matrix(1,0,0,-1,435.64909,79.04306)" stroke-width=".75" stroke-linecap="round" stroke-linejoin="round" fill="none" stroke="#000000" d="M228.84626 38.33438C232.06333 42.398988 236.29164 45.547456 242.03946 46.47469 236.98148 47.02295 231.91056 50.509355 229.28192 54.563707"/>
<path transform="matrix(1,0,0,-1,435.64909,79.04306)" stroke-width=".75" stroke-linecap="round" stroke-linejoin="round" fill="none" stroke="#000000" d="M317.02644 46.170083C331.4019 46.6909 345.3061 46.093885 359.43528 46.097887"/>
<path transform="matrix(1,0,0,-1,435.64909,79.04306)" stroke-width=".75" stroke-linecap="round" stroke-linejoin="round" fill="none" stroke="#000000" d="M347.1911 38.019678C350.2142 42.272264 355.22465 45.283304 359.41166 45.927019 354.51499 47.70606 350.4563 50.29164 347.0221 54.202436"/>
<path transform="matrix(1,0,0,-1,435.64909,79.04306)" stroke-width=".75" stroke-linecap="round" stroke-linejoin="round" fill="none" stroke="#000000" d="M177.7722 45.91329C178.62029 15.061197 177.82254-15.734514 178.33571-46.0948 198.94158-46.50207 220.49953-45.997125 241.9269-46.364847"/>
<path transform="matrix(1,0,0,-1,435.64909,79.04306)" stroke-width=".75" stroke-linecap="round" stroke-linejoin="round" fill="none" stroke="#000000" d="M228.921-54.219179C232.06664-49.979784 236.35646-46.864038 241.62879-46.139154 236.93296-45.403394 231.9955-41.84371 229.3408-38.123777"/>
<path transform="matrix(1,0,0,-1,435.64909,79.04306)" stroke-width=".75" stroke-linecap="round" stroke-linejoin="round" fill="none" stroke="#000000" d="M317.2039-45.90747C331.85487-45.99071 345.56874-45.697626 359.93797-46.319616"/>
<path transform="matrix(1,0,0,-1,435.64909,79.04306)" stroke-width=".75" stroke-linecap="round" stroke-linejoin="round" fill="none" stroke="#000000" d="M347.4173-54.019796C350.56266-49.690847 355.27119-47.538858 359.80958-45.833135 354.77995-44.955518 350.1655-42.53822 346.95759-38.37"/>
<path transform="matrix(1,0,0,-1,435.64909,79.04306)" stroke-width=".75" stroke-linecap="round" stroke-linejoin="round" fill="none" stroke="#000000" d="M257.32667 21.791956C256.31394 21.991805 257.91087 21.952778 257.04335 21.353482 272.9561 20.696942 286.94255 22.105345 302.47093 20.941138 317.52299 21.098288 317.4129 22.113894 316.684 35.824285 317.32069 43.731779 317.51573 49.862298 318.04765 56.363424 316.7705 70.45863 316.57255 71.897228 301.68104 70.49517 286.37794 71.269878 272.5844 70.391048 257.62925 71.17168 241.11232 71.53617 242.6328 70.678508 241.50171 56.95795 242.57077 48.77589 242.38039 43.60108 242.6701 37.238847 242.58869 22.142836 242.88977 20.635849 257.32667 21.791956Z"/>
<path transform="matrix(1,0,0,-1,435.64909,79.04306)" stroke-width=".75" stroke-linecap="round" stroke-linejoin="round" fill="none" stroke="#d90000" d="M256.65373-70.99746C257.83958-70.177989 256.55024-71.595829 256.24726-71.854618 272.86305-71.11393 286.86695-70.73737 302.4818-71.31465 317.26576-70.3879 318.21479-70.95108 316.6902-56.723974 316.50205-50.18073 316.95097-42.325315 317.58448-36.59635 316.51194-21.663754 318.02809-21.910239 302.58259-21.408783 286.92304-21.316899 272.86677-20.359017 257.4399-20.354874 242.80953-21.050704 242.8321-21.235436 241.66072-36.494775 241.33104-43.10627 241.59111-49.977926 241.23654-56.66462 242.41551-71.49064 242.81742-70.11783 256.65373-70.99746Z"/>
<path transform="matrix(1,0,0,-1,435.64909,79.04306)" stroke-width=".75" stroke-linecap="round" stroke-linejoin="round" fill="none" stroke="#000000" d="M135.5456 46.725809C170.62464 46.14408 206.35919 46.03297 241.77353 46.295408"/>
<path transform="matrix(1,0,0,-1,435.64909,79.04306)" stroke-width=".75" stroke-linecap="round" stroke-linejoin="round" fill="none" stroke="#000000" d="M229.01242 38.33152C231.92559 42.06492 236.20236 44.770814 241.5149 46.481458 236.82611 47.59102 231.73198 50.18897 228.98105 54.643"/>
<path transform="matrix(1,0,0,-1,435.64909,79.04306)" stroke-width=".75" stroke-linecap="round" stroke-linejoin="round" fill="none" stroke="#000000" d="M317.04566 46.633028C331.76344 45.988527 345.87788 45.891214 360.1277 46.61848"/>
<path transform="matrix(1,0,0,-1,435.64909,79.04306)" stroke-width=".75" stroke-linecap="round" stroke-linejoin="round" fill="none" stroke="#000000" d="M346.802 38.17212C349.95109 42.483407 354.67436 44.83588 360.19648 45.900819 355.058 47.726076 350.48225 50.036199 347.0933 54.16653"/>
<path transform="matrix(1,0,0,-1,435.64909,79.04306)" stroke-width=".75" stroke-linecap="round" stroke-linejoin="round" fill="none" stroke="#000000" d="M178.28849 46.166769C178.0455 15.08217 178.04413-15.753547 178.46532-46.485685 199.51428-45.844034 220.6531-46.362798 241.88248-45.674295"/>
<path transform="matrix(1,0,0,-1,435.64909,79.04306)" stroke-width=".75" stroke-linecap="round" stroke-linejoin="round" fill="none" stroke="#000000" d="M229.2303-54.41125C231.77646-50.132509 236.1522-46.85917 241.52774-46.162557 236.57799-44.856256 232.5338-42.444795 228.51334-38.264509"/>
<path transform="matrix(1,0,0,-1,435.64909,79.04306)" stroke-width=".75" stroke-linecap="round" stroke-linejoin="round" fill="none" stroke="#000000" d="M317.66825-45.92014C331.86238-45.812189 345.58387-46.25712 360.04383-46.251756"/>
<path transform="matrix(1,0,0,-1,435.64909,79.04306)" stroke-width=".75" stroke-linecap="round" stroke-linejoin="round" fill="none" stroke="#000000" d="M347.28239-54.5252C350.43785-49.76574 354.5471-47.536199 359.5865-45.724077 355.0153-44.885084 350.06785-42.067125 347.64723-38.13978"/>
<path transform="matrix(1,0,0,-1,435.64909,79.04306)" stroke-width=".75" stroke-linecap="round" stroke-linejoin="round" fill="none" stroke="#000000" d="M257.83079 21.743742C257.01744 20.755587 257.5003 21.919428 257.78388 22.111847 272.35469 21.900134 287.00608 21.818888 303.02033 21.393637 316.37593 21.139666 317.2828 20.911767 316.614 35.968477 316.66703 42.839269 317.58024 49.303689 316.55064 55.37765 317.5222 71.98833 317.48 71.048809 302.45356 71.854618 286.86274 71.71548 272.76365 70.82959 256.86466 71.82237 242.05854 71.83047 241.18303 71.70874 241.09091 55.32472 241.83109 49.971464 241.24985 42.01696 242.5172 36.269399 241.45104 21.621539 242.69692 20.878684 257.83079 21.743742Z"/>
<path transform="matrix(1,0,0,-1,435.64909,79.04306)" stroke-width=".75" stroke-linecap="round" stroke-linejoin="round" fill="none" stroke="#d90000" d="M256.61759-71.83078C257.40534-70.613559 257.12727-70.265018 257.6389-70.206798 271.88447-71.61241 287.15995-70.46569 301.951-70.2811 318.06037-70.251308 318.22639-71.54755 317.24394-56.51592 317.98985-48.466558 318.18247-42.192388 317.62126-36.444425 317.24476-20.568467 317.04566-20.793265 302.18315-20.44109 286.86543-20.77001 271.27989-20.539553 256.7465-22.055508 241.74106-21.83531 242.73564-20.790347 242.37996-35.28272 241.34307-42.4683 241.33776-48.617826 242.43856-56.838525 242.50853-71.86518 241.60686-70.54098 256.61759-71.83078Z"/>
<path transform="matrix(1,0,0,-1,435.64909,79.04306)" stroke-width=".75" stroke-linecap="round" stroke-linejoin="round" fill="none" stroke="#000000" d="M135.28989 46.100019C170.78955 46.44054 206.15073 46.35097 241.81262 46.42625"/>
<path transform="matrix(1,0,0,-1,435.64909,79.04306)" stroke-width=".75" stroke-linecap="round" stroke-linejoin="round" fill="none" stroke="#000000" d="M229.27367 38.030748C232.2423 42.347249 236.61157 45.564226 241.26024 46.534894 236.5977 47.02546 231.96163 50.049207 228.58699 53.921346"/>
<path transform="matrix(1,0,0,-1,435.64909,79.04306)" stroke-width=".75" stroke-linecap="round" stroke-linejoin="round" fill="none" stroke="#000000" d="M316.98719 46.53663C331.41557 46.670236 346.0317 46.37905 360.00657 46.045896"/>
<path transform="matrix(1,0,0,-1,435.64909,79.04306)" stroke-width=".75" stroke-linecap="round" stroke-linejoin="round" fill="none" stroke="#000000" d="M347.17314 38.177995C350.05369 41.990438 354.69776 44.906549 360.20573 46.3755 354.7606 47.250459 350.21247 50.70601 347.37489 54.261735"/>
<path transform="matrix(1,0,0,-1,435.64909,79.04306)" stroke-width=".75" stroke-linecap="round" stroke-linejoin="round" fill="none" stroke="#000000" d="M178.21212 46.06263C177.76607 15.899645 178.51444-15.661384 177.94852-45.731294 199.03856-46.391527 220.32286-45.97499 241.86536-46.283704"/>
<path transform="matrix(1,0,0,-1,435.64909,79.04306)" stroke-width=".75" stroke-linecap="round" stroke-linejoin="round" fill="none" stroke="#000000" d="M228.7929-53.79489C232.5695-50.542688 236.167-47.068456 241.95813-46.299066 236.1447-45.14732 231.68071-42.09334 228.99353-37.91518"/>
<path transform="matrix(1,0,0,-1,435.64909,79.04306)" stroke-width=".75" stroke-linecap="round" stroke-linejoin="round" fill="none" stroke="#000000" d="M317.68919-46.35944C331.11354-45.997785 345.82978-45.792825 360.21028-45.775564"/>
<path transform="matrix(1,0,0,-1,435.64909,79.04306)" stroke-width=".75" stroke-linecap="round" stroke-linejoin="round" fill="none" stroke="#000000" d="M347.5858-54.34078C350.5884-49.98844 354.42485-46.844736 360.04597-45.832746 354.8869-44.712179 350.07084-41.881155 347.36836-38.50087"/>
<path transform="matrix(1,0,0,-1,435.64909,79.04306)" d="M180.79682 46.589765C180.56696 46.829835 179.85366 47.058679 180.05289 48.20564 179.40578 48.140874 178.49205 48.87071 178.32468 48.38845 177.47646 48.51362 176.5952 48.464506 176.35892 48.080556 175.90727 47.486665 175.66652 47.019704 176.09012 46.72797 175.9302 46.04827 176.04584 44.866327 176.67734 45.052759 177.15785 44.50774 177.5828 43.622957 178.64357 44.126539 178.50162 43.87588 179.29613 43.94688 179.8354 44.991979 180.03527 45.57663 180.55243 45.85312 180.79682 46.589765Z" fill="#d90000"/>
<use data-text="X" xlink:href="#font_0_5" transform="matrix(21.519383,0,0,-21.519398,523.60208,38.128587)"/>
<use data-text="(" xlink:href="#font_0_2" transform="matrix(21.519383,0,0,-21.519398,537.9339,38.128587)"/>
<use data-text="s" xlink:href="#font_0_3" transform="matrix(21.519383,0,0,-21.519398,547.47909,38.128587)"/>
<use data-text=")" xlink:href="#font_0_4" transform="matrix(21.519383,0,0,-21.519398,558.466,38.128587)"/>
<use data-text="Y" xlink:href="#font_0_6" transform="matrix(21.519246,0,0,-21.519398,799.99948,38.128587)"/>
<use data-text="(" xlink:href="#font_0_2" transform="matrix(21.519246,0,0,-21.519398,813.14816,38.128587)"/>
<use data-text="s" xlink:href="#font_0_3" transform="matrix(21.519246,0,0,-21.519398,822.6932,38.128587)"/>
<use data-text=")" xlink:href="#font_0_4" transform="matrix(21.519246,0,0,-21.519398,833.6801,38.128587)"/>
<use data-text="Z" xlink:href="#font_0_7" transform="matrix(21.519383,0,0,-21.519398,799.99948,130.53693)"/>
<use data-text="(" xlink:href="#font_0_2" transform="matrix(21.519383,0,0,-21.519398,814.33139,130.53693)"/>
<use data-text="s" xlink:href="#font_0_3" transform="matrix(21.519383,0,0,-21.519398,823.8765,130.53693)"/>
<use data-text=")" xlink:href="#font_0_4" transform="matrix(21.519383,0,0,-21.519398,834.86349,130.53693)"/>
</svg>
