<svg xmlns="http://www.w3.org/2000/svg" xmlns:xlink="http://www.w3.org/1999/xlink" version="1.1" width="1000.4076" height="180.72016" viewBox="0 0 1000.4076 180.72016">
<defs>
<path id="font_2_1" d="M.08999634 .32458497C.08999634 .22958374 .114990238 .13148499 .18299866 .06341553 .23699951 .009384155 .31199647-.016601563 .3880005-.016601563 .46099855-.016601563 .56900027 .010391235 .6569977 .03338623 .6569977 .03338623 .6539917 .216568 .6519928 .30760194L.37599183 .2966156V.27061463L.38198854 .265625C.43598939 .26361085 .5 .25961305 .5439911 .25660707 .57199099 .25460816 .57199099 .22257996 .57199099 .13449097 .57199099 .061416627 .56900027 .04940796 .5519867 .045394899 .5209961 .038391115 .48999024 .03538513 .45799256 .03538513 .37998963 .03538513 .30599977 .060409547 .2619934 .112472537 .20399475 .18052674 .17999268 .25260926 .17999268 .3405609 .17999268 .48339845 .23199463 .5653076 .26098634 .5942688 .3039856 .63623049 .36299134 .6502075 .42199708 .6502075 .5529938 .6502075 .59298709 .5563202 .60598757 .53034976L.6179962 .5293579 .6759949 .58628848C.6649933 .6032715 .6119995 .69921877 .46699525 .69921877 .3619995 .69921877 .25698854 .6682129 .18199158 .593277 .11199951 .5233612 .08999634 .4224701 .08999634 .32458497Z"/>
<path id="font_2_2" d="M.11299133 .24990845C.11299133 .007904053 .1519928-.09008789 .18299866-.13310242 .21099854-.17008972 .25299073-.20809937 .30099488-.21209717V-.1880951C.2809906-.18409729 .25099183-.16809082 .23399353-.1481018 .21998596-.13209534 .16499329-.05809021 .16499329 .24990845 .16499329 .4618988 .19799805 .5659027 .21998596 .6128998 .23599243 .6469116 .2689972 .6769104 .30099488 .684906V.71191409C.2599945 .7049103 .21598816 .6729126 .19099427 .63790896 .1599884 .5919037 .11299133 .4748993 .11299133 .24990845Z"/>
<path id="font_2_3" d="M.051986696 .06642151C.06199646 .047409059 .07598877 .030395508 .09199524 .01638794 .12098694-.009613037 .16099549-.016601563 .19898987-.016601563 .2559967-.016601563 .31199647 .0023956299 .35099793 .044403078 .375 .06941223 .3869934 .10343933 .3869934 .13845825 .3869934 .1634674 .37298585 .18649292 .35499574 .20449829 .34098817 .21850586 .3039856 .24052429 .27198792 .25453187 .24299622 .26654054 .19999695 .2885437 .18798828 .30055238 .17298889 .31655885 .1619873 .3285675 .1619873 .35058595 .1619873 .3725891 .16899109 .39360047 .18499756 .4086151 .19999695 .42362977 .22200012 .43164063 .24398804 .43164063 .2639923 .43164063 .2849884 .42462159 .29599 .4066162 .30599977 .39060975 .30799867 .3715973 .30899049 .35359193L.32099916 .34657289 .37599183 .38360597C.375 .40560914 .3639984 .42662049 .34799195 .44163514 .32499696 .46263124 .29299928 .46662904 .2630005 .46662904 .21398926 .46662904 .16699219 .45063783 .1309967 .4176178 .10398865 .39360047 .08999634 .35858155 .08999634 .32356263 .08999634 .29154969 .10798645 .26353456 .1309967 .2425232 .1539917 .22250366 .18399048 .2084961 .21499634 .1954956 .24099732 .18447876 .2689972 .17248535 .28799439 .1534729 .30299378 .13845825 .31399537 .11845398 .31399537 .09744263 .31399537 .079422 .30499269 .062408449 .29299928 .04940796 .27799989 .03340149 .25099183 .021392823 .22898865 .021392823 .19898987 .021392823 .17199707 .03439331 .1499939 .055404664 .1269989 .076416019 .116989139 .10644531 .114990238 .13645935L.100997928 .13745117 .051986696 .06642151Z"/>
<path id="font_2_4" d="M.085998538-.1880951V-.21209717C.13398743-.20610047 .1789856-.17208863 .20698548-.13510132 .23799134-.09210205 .27598573 .007904053 .27598573 .24990845 .27598573 .50090029 .22399903 .5919037 .19299317 .63790896 .16799927 .6729126 .1269989 .7049103 .085998538 .71191409V.684906C.117996219 .6759033 .14898682 .6469116 .16499329 .6128998 .18699646 .5659027 .22399903 .48190309 .22399903 .24990845 .22399903-.099090579 .17199707-.13209534 .1579895-.1481018 .14099121-.16809082 .10598755-.18409729 .085998538-.1880951Z"/>
<path id="font_2_10" d="M.04598999 .23632813H.35598756V-.07368469L.3959961-.06668091V.23632813H.70399478L.70899966 .2763214H.3959961V.58631899L.35598756 .58032229V.2763214H.052993776L.04598999 .23632813Z"/>
<path id="font_2_5" d="M.026992798 0 .12098694 .010986328C.13699341 .04496765 .18998719 .12893677 .22799683 .18190003 .2559967 .22288513 .29699708 .27885438 .31098939 .29585267H.32299806L.46598817 .05696106C.47999574 .034973146 .49398805 .0129852299 .5119934-.005004883L.526001-.011001587 .6359863 .015991211V.031982423L.6309967 .035980226C.6230011 .037979127 .6009979 .051971437 .59399417 .05895996L.5339966 .13093567C.49499513 .17990113 .37799073 .3668213 .37799073 .37980653 .38198854 .3868103 .4149933 .43078614 .44499208 .46577455L.6319885 .67167666V.686676L.5369873 .67367556C.5369873 .67367556 .49198915 .6027069 .45999146 .5567322 .4269867 .51174929 .3619995 .42678834 .35699464 .4217987H.34799195L.20098877 .6876831C.1559906 .6846771 .07998657 .6806793 .054992677 .6796875L.04798889 .67367556V.64868167C.066986087 .643692 .083999637 .63868716 .09799194 .6336975 .115997318 .6266937 .14199829 .60769656 .15299988 .5897064 .19898987 .50775149 .2939911 .3458252 .2979889 .34483338L.026992798 .015991211V0Z"/>
<path id="font_2_6" d="M.022994996 .6513672C.036987306 .649353 .049987794 .6463623 .06298828 .6433563 .07199097 .6413574 .07998657 .6353607 .085998538 .62835696 .09599304 .61834719 .102996829 .60635378 .10899353 .5943451L.2579956 .29930116C.2579956 .19927979 .2579956 .0982666 .25498963-.0017547608L.2659912-.0107421879 .35598756 .018249512 .34700013 .30630494C.42999269 .4343109 .5039978 .5303345 .61499026 .675354L.61099246 .6933594 .526001 .6763611C.48999024 .619339 .4059906 .47431947 .397995 .46032716 .3849945 .4373169 .34199525 .36730958 .33898927 .3623047 .33599855 .3572998 .33198548 .353302 .32798768 .353302 .32199098 .353302 .31698609 .3592987 .31599427 .36131288L.1749878 .6863556H.02999878L.022994996 .67936709V.6513672Z"/>
<path id="font_2_7" d="M.04598999 .020996094 .04699707 0C.23899842 .0002746582 .49299623 .0002746582 .621994-.01171875L.6399994 .059280397 .6309967 .06826782 .20199585 .053985597 .19599915 .06098938C.28599549 .20005799 .45999146 .4711914 .59498599 .6642914V.68330386C.44599916 .68330386 .2979889 .6863098 .1499939 .6953125L.14099121 .68730166V.6332855L.14698792 .62828066C.17399597 .63127139 .27598573 .6372833 .46299745 .6372833L.46998597 .62727358 .04598999 .020996094Z"/>
<path id="font_2_8" d="M.08099365 .036132814H.73999026L.7489929 .07511902H.08999634L.08099365 .036132814M.08099365 .23046875H.73999026L.7489929 .27046205H.08999634L.08099365 .23046875M.08099365 .4248352H.73999026L.7489929 .46484376H.08999634L.08099365 .4248352Z"/>
<path id="font_2_9" d="M.09199524 .6121063H.1749878C.19999695 .6121063 .21998596 .5911102 .22099304 .56611636 .22200012 .5411072 .22200012 .46810914 .22200012 .41911317 .22200012 .27911378 .21899414 .13911438 .21398926 .00010681152L.22599793-.0048828127 .30999757 .022109986C.30699159 .09811401 .30699159 .29611207 .30699159 .43211366 .30699159 .52111819 .30899049 .6111145 .31399537 .70010378L.30799867 .7121124 .09199524 .6391144V.6121063Z"/>
</defs>
<use data-text="G" xlink:href="#font_2_1" transform="matrix(21.51903,0,0,-21.519398,133.31766,61.147356)"/>
<use data-text="(" xlink:href="#font_2_2" transform="matrix(21.51903,0,0,-21.519398,149.77971,61.147356)"/>
<use data-text="s" xlink:href="#font_2_3" transform="matrix(21.51903,0,0,-21.519398,159.32469,61.147356)"/>
<use data-text=")" xlink:href="#font_2_4" transform="matrix(21.51903,0,0,-21.519398,170.31145,61.147356)"/>
<use data-text="+" xlink:href="#font_2_10" transform="matrix(37.185197,0,0,-37.18505,265.06019,65.28688)"/>
<path transform="matrix(1,0,0,-1,500.2038,90.36008)" stroke-width=".75" stroke-linecap="round" stroke-linejoin="round" fill="none" stroke="#000000" d="M-366.4084 8.880758C-367.0272 8.959592-367.68714 10.205027-367.11869 10.017069-350.8614 8.801817-336.05177 10.579908-322.40287 9.179675-305.63465 9.526293-306.33616 9.590715-306.52308 25.439038-305.89918 32.04691-306.16444 37.942716-307.0075 45.133989-306.4311 59.144456-306.483 60.417276-320.60218 59.671926-335.7786 58.979936-351.2107 60.16628-367.29878 58.723196-382.19914 59.08522-381.90748 59.155714-382.7728 45.475084-380.91716 37.54268-381.1212 30.636826-381.83363 25.124014-381.1264 9.730239-381.0505 9.705783-366.4084 8.880758Z"/>
<path transform="matrix(1,0,0,-1,500.2038,90.36008)" stroke-width=".75" stroke-linecap="round" stroke-linejoin="round" fill="none" stroke="#d90000" d="M-199.11687 35.021684C-198.86313 46.704366-208.82245 55.41936-221.84433 56.69181-232.28188 55.527845-242.81836 45.998048-243.08893 34.85156-241.92568 21.717738-233.89041 13.541764-220.2635 13.540139-209.04978 13.002317-199.23134 23.38089-199.11687 35.021684Z"/>
<path transform="matrix(1,0,0,-1,500.2038,90.36008)" stroke-width=".75" stroke-linecap="round" stroke-linejoin="round" fill="none" stroke="#000000" d="M-445.45854 34.990949C-424.2681 34.78542-403.1252 34.59908-381.86793 34.640527"/>
<path transform="matrix(1,0,0,-1,500.2038,90.36008)" stroke-width=".75" stroke-linecap="round" stroke-linejoin="round" fill="none" stroke="#000000" d="M-394.70359 26.474947C-391.67955 30.377213-386.89936 33.141557-381.93598 34.693548-387.66847 36.14728-391.90776 38.522085-395.04997 42.694498"/>
<path transform="matrix(1,0,0,-1,500.2038,90.36008)" stroke-width=".75" stroke-linecap="round" stroke-linejoin="round" fill="none" stroke="#000000" d="M-306.9373 34.720449C-285.68788 34.240255-263.74748 34.38186-242.87064 34.42889"/>
<path transform="matrix(1,0,0,-1,500.2038,90.36008)" stroke-width=".75" stroke-linecap="round" stroke-linejoin="round" fill="none" stroke="#000000" d="M-255.33977 26.344252C-251.83084 30.766459-247.61275 33.449499-242.43398 34.76459-248.11907 36.043798-252.51689 38.533277-255.74799 42.31834"/>
<path transform="matrix(1,0,0,-1,500.2038,90.36008)" stroke-width=".75" stroke-linecap="round" stroke-linejoin="round" fill="none" stroke="#000000" d="M-199.38698 34.32895C-177.90409 34.521986-156.71489 34.74743-135.57888 34.931444"/>
<path transform="matrix(1,0,0,-1,500.2038,90.36008)" stroke-width=".75" stroke-linecap="round" stroke-linejoin="round" fill="none" stroke="#000000" d="M-148.60524 26.76196C-144.85773 30.645329-140.76375 33.732484-135.28557 35.03011-140.33856 35.802858-145.54869 38.545164-148.57047 42.56887"/>
<path transform="matrix(1,0,0,-1,500.2038,90.36008)" stroke-width=".75" stroke-linecap="round" stroke-linejoin="round" fill="none" stroke="#000000" d="M-135.39237-50.563467C-164.14208-50.81479-192.21237-50.44221-221.37615-51.22783-220.93839-29.741616-221.16605-8.704058-221.27252 12.974868"/>
<path transform="matrix(1,0,0,-1,500.2038,90.36008)" stroke-width=".75" stroke-linecap="round" stroke-linejoin="round" fill="none" stroke="#000000" d="M-212.66367-.111165C-216.87062 2.924195-219.9994 7.973552-220.68219 12.510701-222.45912 7.474728-224.96468 3.248703-228.9222-.321312"/>
<path transform="matrix(1,0,0,-1,500.2038,90.36008)" stroke-width=".75" stroke-linecap="round" stroke-linejoin="round" fill="none" stroke="#000000" d="M-366.4168 9.670043C-366.61854 9.376834-366.3696 9.01106-366.08638 10.323686-352.45057 9.942655-336.48435 9.724163-321.3627 9.82636-305.69966 8.88811-307.436 10.131349-306.54066 24.129426-306.5634 31.461064-306.0788 36.93564-307.36036 44.20526-306.50483 58.901575-306.70234 59.582147-321.39558 58.74808-337.2973 59.256216-350.84626 59.983316-366.6277 59.73512-382.55165 59.358484-382.22068 58.780263-382.7488 44.06514-381.45567 38.37899-381.81486 30.641507-381.9128 25.061244-382.66825 9.624528-382.66624 10.180319-366.4168 9.670043Z"/>
<path transform="matrix(1,0,0,-1,500.2038,90.36008)" stroke-width=".75" stroke-linecap="round" stroke-linejoin="round" fill="none" stroke="#d90000" d="M-200.17296 35.05797C-199.2519 46.763837-209.7109 55.845895-221.3939 56.249265-233.11229 56.423494-243.6959 46.649953-242.70758 34.77777-243.14617 22.771628-232.20095 12.784063-221.89153 12.395624-209.18776 13.88969-199.55683 23.280865-200.17296 35.05797Z"/>
<path transform="matrix(1,0,0,-1,500.2038,90.36008)" stroke-width=".75" stroke-linecap="round" stroke-linejoin="round" fill="none" stroke="#000000" d="M-445.34999 34.396837C-424.5386 35.027338-403.24729 34.32256-382.69554 34.529325"/>
<path transform="matrix(1,0,0,-1,500.2038,90.36008)" stroke-width=".75" stroke-linecap="round" stroke-linejoin="round" fill="none" stroke="#000000" d="M-395.2425 26.78837C-391.96778 30.84103-387.01747 33.87564-382.14079 34.546789-387.30497 36.15666-391.60905 39.021268-394.56147 42.70886"/>
<path transform="matrix(1,0,0,-1,500.2038,90.36008)" stroke-width=".75" stroke-linecap="round" stroke-linejoin="round" fill="none" stroke="#000000" d="M-306.08863 34.220239C-285.38337 34.39811-263.97886 34.81995-242.40265 34.364038"/>
<path transform="matrix(1,0,0,-1,500.2038,90.36008)" stroke-width=".75" stroke-linecap="round" stroke-linejoin="round" fill="none" stroke="#000000" d="M-255.6163 26.154837C-252.59429 30.478573-247.68715 33.059679-242.72109 35.01206-247.44597 35.397317-252.01914 38.439485-255.36495 42.778879"/>
<path transform="matrix(1,0,0,-1,500.2038,90.36008)" stroke-width=".75" stroke-linecap="round" stroke-linejoin="round" fill="none" stroke="#000000" d="M-199.30039 34.489C-178.308 35.036619-157.09477 34.518766-135.91529 34.178529"/>
<path transform="matrix(1,0,0,-1,500.2038,90.36008)" stroke-width=".75" stroke-linecap="round" stroke-linejoin="round" fill="none" stroke="#000000" d="M-148.58614 26.836524C-145.151 30.77844-141.08751 33.816419-135.52414 34.65169-140.27719 35.593404-145.58634 38.332464-148.35594 42.806425"/>
<path transform="matrix(1,0,0,-1,500.2038,90.36008)" stroke-width=".75" stroke-linecap="round" stroke-linejoin="round" fill="none" stroke="#000000" d="M-135.7552-50.39358C-163.89879-50.852029-192.57863-50.522096-221.46884-50.890115-221.1322-29.43909-221.41477-8.174037-221.413 12.604176"/>
<path transform="matrix(1,0,0,-1,500.2038,90.36008)" stroke-width=".75" stroke-linecap="round" stroke-linejoin="round" fill="none" stroke="#000000" d="M-212.61324 .063862C-216.79695 2.898798-220.36547 7.270456-220.97306 12.637438-222.04467 7.990749-225.2477 3.48939-228.93235-.149668"/>
<path transform="matrix(1,0,0,-1,500.2038,90.36008)" stroke-width=".75" stroke-linecap="round" stroke-linejoin="round" fill="none" stroke="#000000" d="M-367.8057 9.636837C-367.3147 9.254748-367.53056 9.527216-366.40116 10.092479-350.97077 9.065483-336.83314 10.092876-321.93577 8.917479-307.257 9.552873-306.5039 9.599238-306.08915 25.33067-306.063 31.153765-306.13197 37.43816-305.71015 44.638639-306.4882 58.872865-305.79615 58.60618-321.72566 60.402784-336.08113 59.81146-351.42143 59.21879-367.79975 59.757276-381.9654 60.104894-381.78944 59.14379-381.27687 44.568429-381.35124 37.697568-381.89045 31.796353-381.08784 25.314187-382.07023 9.068702-382.16304 8.779412-367.8057 9.636837Z"/>
<path transform="matrix(1,0,0,-1,500.2038,90.36008)" stroke-width=".75" stroke-linecap="round" stroke-linejoin="round" fill="none" stroke="#d90000" d="M-199.78977 35.336797C-200.1294 46.080286-209.76064 57.143-220.24102 56.156404-233.10184 55.69896-241.99259 46.363298-243.10633 34.29607-242.3509 23.372067-232.90969 13.124626-220.58376 12.800162-208.60321 13.839395-199.14963 21.725882-199.78977 35.336797Z"/>
<path transform="matrix(1,0,0,-1,500.2038,90.36008)" stroke-width=".75" stroke-linecap="round" stroke-linejoin="round" fill="none" stroke="#000000" d="M-445.59474 34.365186C-424.5817 34.877256-403.41224 34.825746-382.607 34.770219"/>
<path transform="matrix(1,0,0,-1,500.2038,90.36008)" stroke-width=".75" stroke-linecap="round" stroke-linejoin="round" fill="none" stroke="#000000" d="M-395.01185 26.817105C-391.60258 30.328318-387.3443 33.347528-382.35273 34.406614-387.2592 35.99703-392.16523 38.729413-394.55506 42.362569"/>
<path transform="matrix(1,0,0,-1,500.2038,90.36008)" stroke-width=".75" stroke-linecap="round" stroke-linejoin="round" fill="none" stroke="#000000" d="M-306.96794 34.981626C-285.62455 34.428594-264.19807 34.163686-242.56699 34.985708"/>
<path transform="matrix(1,0,0,-1,500.2038,90.36008)" stroke-width=".75" stroke-linecap="round" stroke-linejoin="round" fill="none" stroke="#000000" d="M-255.55619 26.697503C-252.05846 30.599455-248.19055 33.360383-242.90065 34.5732-248.07855 35.531-252.0965 38.33067-254.98799 42.942754"/>
<path transform="matrix(1,0,0,-1,500.2038,90.36008)" stroke-width=".75" stroke-linecap="round" stroke-linejoin="round" fill="none" stroke="#000000" d="M-199.77794 34.689104C-177.7725 34.60847-157.03948 34.62508-135.94054 34.757909"/>
<path transform="matrix(1,0,0,-1,500.2038,90.36008)" stroke-width=".75" stroke-linecap="round" stroke-linejoin="round" fill="none" stroke="#000000" d="M-148.54308 26.62202C-145.58048 30.541357-140.44817 33.26932-135.87065 34.821165-140.46089 35.46054-145.16168 38.334737-148.53189 42.696466"/>
<path transform="matrix(1,0,0,-1,500.2038,90.36008)" stroke-width=".75" stroke-linecap="round" stroke-linejoin="round" fill="none" stroke="#000000" d="M-135.75385-50.74249C-164.10288-50.482339-192.5097-51.254434-220.7681-50.522226-221.3982-29.768807-221.10927-8.90055-221.26149 12.139049"/>
<path transform="matrix(1,0,0,-1,500.2038,90.36008)" stroke-width=".75" stroke-linecap="round" stroke-linejoin="round" fill="none" stroke="#000000" d="M-212.75605 .161498C-216.8011 2.895106-220.19484 7.828843-220.74166 12.371457-222.11025 7.374682-225.15406 3.429286-229.00135 .005731"/>
<path transform="matrix(1,0,0,-1,500.2038,90.36008)" stroke-width=".75" stroke-linecap="round" stroke-linejoin="round" fill="none" stroke="#000000" d="M-367.58766 9.790169C-366.72935 10.209894-366.67509 9.030995-366.83256 9.829331-352.09819 9.956939-337.1964 9.334506-321.11875 9.720971-307.38044 10.46368-306.53858 10.127561-306.20716 24.037594-307.19474 31.196873-307.2003 37.409616-307.47334 44.6844-306.057 59.22347-305.88975 58.630247-322.201 60.353376-337.34129 59.17298-352.66297 58.8815-367.22599 59.928365-381.48066 60.365198-382.05656 60.02436-381.10246 44.174489-381.75544 38.51302-382.566 31.563807-381.57765 24.86609-381.80278 9.652067-382.45643 9.003572-367.58766 9.790169Z"/>
<path transform="matrix(1,0,0,-1,500.2038,90.36008)" stroke-width=".75" stroke-linecap="round" stroke-linejoin="round" fill="none" stroke="#d90000" d="M-199.88086 34.070798C-199.41654 46.45253-209.92189 56.008729-220.27233 55.7261-233.71097 56.20105-241.98055 47.22341-243.68743 34.371976-241.79167 22.608544-233.28029 13.23472-221.35259 13.688803-208.88748 12.464615-199.22426 23.028372-199.88086 34.070798Z"/>
<path transform="matrix(1,0,0,-1,500.2038,90.36008)" stroke-width=".75" stroke-linecap="round" stroke-linejoin="round" fill="none" stroke="#000000" d="M-445.71278 34.707498C-424.953 34.232305-403.21647 34.67393-382.13276 34.380414"/>
<path transform="matrix(1,0,0,-1,500.2038,90.36008)" stroke-width=".75" stroke-linecap="round" stroke-linejoin="round" fill="none" stroke="#000000" d="M-394.58097 26.9028C-391.44883 30.329306-386.8801 33.681035-382.41297 35.010896-386.97566 35.756887-391.56748 38.874105-394.53157 42.891317"/>
<path transform="matrix(1,0,0,-1,500.2038,90.36008)" stroke-width=".75" stroke-linecap="round" stroke-linejoin="round" fill="none" stroke="#000000" d="M-306.75779 35.038747C-285.03874 34.664655-264.3423 35.04356-242.4573 34.152826"/>
<path transform="matrix(1,0,0,-1,500.2038,90.36008)" stroke-width=".75" stroke-linecap="round" stroke-linejoin="round" fill="none" stroke="#000000" d="M-255.84243 26.6444C-252.27524 30.435727-247.43376 33.49704-242.55202 34.17745-247.5753 36.130224-252.15154 38.549478-255.52701 42.50137"/>
<path transform="matrix(1,0,0,-1,500.2038,90.36008)" stroke-width=".75" stroke-linecap="round" stroke-linejoin="round" fill="none" stroke="#000000" d="M-199.42934 34.95423C-178.54483 34.77136-156.9938 34.90044-135.86377 34.994646"/>
<path transform="matrix(1,0,0,-1,500.2038,90.36008)" stroke-width=".75" stroke-linecap="round" stroke-linejoin="round" fill="none" stroke="#000000" d="M-147.9586 26.686173C-145.3648 30.151898-140.76552 33.70001-135.87824 34.21029-140.7477 36.052625-145.14238 38.257204-148.40595 42.224306"/>
<path transform="matrix(1,0,0,-1,500.2038,90.36008)" stroke-width=".75" stroke-linecap="round" stroke-linejoin="round" fill="none" stroke="#000000" d="M-135.39669-50.887899C-163.7692-51.107439-192.6239-50.586057-221.30286-50.95895-221.46433-29.34178-220.9839-8.184383-220.67182 12.343003"/>
<path transform="matrix(1,0,0,-1,500.2038,90.36008)" stroke-width=".75" stroke-linecap="round" stroke-linejoin="round" fill="none" stroke="#000000" d="M-212.87271 .319963C-217.41771 3.330963-220.30275 7.315442-221.34275 12.614374-222.25286 7.361698-224.74301 3.354621-229.56914-.376332"/>
<path transform="matrix(1,0,0,-1,500.2038,90.36008)" stroke-width=".75" stroke-linecap="round" stroke-linejoin="round" fill="none" stroke="#000000" d="M-367.79698 10.370219C-367.23564 9.660691-366.41606 9.603247-367.7988 9.639307-351.46913 9.273084-336.88719 9.611818-321.40913 10.501718-306.66517 10.022818-307.3494 10.182224-306.02098 24.0875-305.7567 30.541077-307.44779 37.566209-306.1911 45.173124-305.92707 60.232309-306.91084 59.21602-321.37159 59.074098-336.45054 59.318494-352.46754 59.321794-367.2921 59.218618-382.80046 59.535417-382.48826 58.757017-382.1187 44.511968-381.46653 38.304185-382.09934 31.65569-382.79685 25.468478-381.02665 8.934768-381.8641 10.048316-367.79698 10.370219Z"/>
<path transform="matrix(1,0,0,-1,500.2038,90.36008)" stroke-width=".75" stroke-linecap="round" stroke-linejoin="round" fill="none" stroke="#d90000" d="M-199.5439 34.104265C-199.96616 46.032869-209.51882 56.58518-221.975 56.53873-233.077 56.1669-242.57405 46.183706-242.84493 35.390569-243.71976 22.791033-233.58333 12.957782-220.47353 13.842051-208.42981 12.954799-199.26616 23.184132-199.5439 34.104265Z"/>
<path transform="matrix(1,0,0,-1,500.2038,90.36008)" stroke-width=".75" stroke-linecap="round" stroke-linejoin="round" fill="none" stroke="#000000" d="M-445.49177 34.384069C-424.67857 34.93427-403.13539 34.548479-382.3928 34.788019"/>
<path transform="matrix(1,0,0,-1,500.2038,90.36008)" stroke-width=".75" stroke-linecap="round" stroke-linejoin="round" fill="none" stroke="#000000" d="M-394.87638 26.673304C-391.68904 30.924612-387.13697 33.63873-381.9081 34.443994-387.191 35.99488-391.72328 38.926755-395.30686 42.958066"/>
<path transform="matrix(1,0,0,-1,500.2038,90.36008)" stroke-width=".75" stroke-linecap="round" stroke-linejoin="round" fill="none" stroke="#000000" d="M-306.20228 35.040185C-285.52735 34.56651-263.76139 34.339044-243.04645 34.69864"/>
<path transform="matrix(1,0,0,-1,500.2038,90.36008)" stroke-width=".75" stroke-linecap="round" stroke-linejoin="round" fill="none" stroke="#000000" d="M-255.33242 26.905007C-251.83303 30.58019-247.45523 33.12236-243.15395 34.61021-247.56845 36.177747-252.0268 38.49645-255.44066 42.29517"/>
<path transform="matrix(1,0,0,-1,500.2038,90.36008)" stroke-width=".75" stroke-linecap="round" stroke-linejoin="round" fill="none" stroke="#000000" d="M-199.17766 34.239564C-177.95697 34.72957-156.71749 34.740488-135.60089 34.541105"/>
<path transform="matrix(1,0,0,-1,500.2038,90.36008)" stroke-width=".75" stroke-linecap="round" stroke-linejoin="round" fill="none" stroke="#000000" d="M-148.54462 26.391215C-145.57814 31.001723-140.90247 33.029794-135.77956 34.29154-140.93161 36.07746-144.76927 38.406625-148.72342 42.226854"/>
<path transform="matrix(1,0,0,-1,500.2038,90.36008)" stroke-width=".75" stroke-linecap="round" stroke-linejoin="round" fill="none" stroke="#000000" d="M-135.72156-50.755498C-163.82427-50.721288-193.06566-50.472486-220.77303-51.054826-220.93618-30.114888-220.85282-8.130628-220.70003 12.965741"/>
<path transform="matrix(1,0,0,-1,500.2038,90.36008)" stroke-width=".75" stroke-linecap="round" stroke-linejoin="round" fill="none" stroke="#000000" d="M-212.71929 .168359C-216.8768 3.26808-219.70864 7.637274-221.26715 12.294725-222.51059 7.346237-224.69739 2.904935-229.5444-.040187"/>
<use data-text="+" xlink:href="#font_2_10" transform="matrix(21.519354,0,0,-21.519316,241.05039,48.02324)"/>
<use data-text="+" xlink:href="#font_2_10" transform="matrix(21.519354,0,0,-21.519316,285.24964,93.177478)"/>
<use data-text="X" xlink:href="#font_2_5" transform="matrix(21.519383,0,0,-21.519398,6.81427,61.147356)"/>
<use data-text="(" xlink:href="#font_2_2" transform="matrix(21.519383,0,0,-21.519398,21.146178,61.147356)"/>
<use data-text="s" xlink:href="#font_2_3" transform="matrix(21.519383,0,0,-21.519398,30.691315,61.147356)"/>
<use data-text=")" xlink:href="#font_2_4" transform="matrix(21.519383,0,0,-21.519398,41.678255,61.147356)"/>
<use data-text="Y" xlink:href="#font_2_6" transform="matrix(21.519246,0,0,-21.519398,369.02598,146.57367)"/>
<use data-text="(" xlink:href="#font_2_2" transform="matrix(21.519246,0,0,-21.519398,382.17466,146.57367)"/>
<use data-text="s" xlink:href="#font_2_3" transform="matrix(21.519246,0,0,-21.519398,391.7197,146.57367)"/>
<use data-text=")" xlink:href="#font_2_4" transform="matrix(21.519246,0,0,-21.519398,402.70664,146.57367)"/>
<use data-text="Z" xlink:href="#font_2_7" transform="matrix(21.519383,0,0,-21.519398,369.02598,61.14734)"/>
<use data-text="(" xlink:href="#font_2_2" transform="matrix(21.519383,0,0,-21.519398,383.35783,61.14734)"/>
<use data-text="s" xlink:href="#font_2_3" transform="matrix(21.519383,0,0,-21.519398,392.90299,61.14734)"/>
<use data-text=")" xlink:href="#font_2_4" transform="matrix(21.519383,0,0,-21.519398,403.88999,61.14734)"/>
<use data-text="&#x2261;" xlink:href="#font_2_8" transform="matrix(37.18528,0,0,-37.185327,484.76966,99.0069)"/>
<use data-text="G" xlink:href="#font_2_1" transform="matrix(21.51903,0,0,-21.519398,821.734,38.179597)"/>
<use data-text="(" xlink:href="#font_2_2" transform="matrix(21.51903,0,0,-21.519398,838.19619,38.179597)"/>
<use data-text="s" xlink:href="#font_2_3" transform="matrix(21.51903,0,0,-21.519398,847.7411,38.179597)"/>
<use data-text=")" xlink:href="#font_2_4" transform="matrix(21.51903,0,0,-21.519398,858.7279,38.179597)"/>
<use data-text="+" xlink:href="#font_2_10" transform="matrix(37.185197,0,0,-37.18505,707.2684,42.319108)"/>
<use data-text="1" xlink:href="#font_2_9" transform="matrix(21.51903,0,0,-21.519562,839.0414,130.58736)"/>
<path transform="matrix(1.4999812,0,0,-1.5000182,821.734,136.44243)" stroke-width=".574019" stroke-linecap="butt" stroke-linejoin="round" fill="none" stroke="#000000" d="M0 0H30.237593"/>
<use data-text="G" xlink:href="#font_2_1" transform="matrix(21.51903,0,0,-21.519562,821.734,153.06049)"/>
<use data-text="(" xlink:href="#font_2_2" transform="matrix(21.51903,0,0,-21.519562,838.19619,153.06049)"/>
<use data-text="s" xlink:href="#font_2_3" transform="matrix(21.51903,0,0,-21.519562,847.7411,153.06049)"/>
<use data-text=")" xlink:href="#font_2_4" transform="matrix(21.51903,0,0,-21.519562,858.7279,153.06049)"/>
<path transform="matrix(1,0,0,-1,500.20378,90.36006)" stroke-width=".75" stroke-linecap="round" stroke-linejoin="round" fill="none" stroke="#000000" d="M320.9686 33.589914C322.19346 32.48787 321.46534 32.06984 321.82814 31.753636 336.47029 32.54235 351.5112 32.752706 367.48298 33.397569 381.4837 32.607099 382.11799 33.19913 381.73243 47.924295 382.55213 54.40937 382.25105 61.52097 382.52174 68.161319 382.8598 82.150539 381.86488 82.15689 366.14039 82.68967 352.2252 83.297519 336.04249 82.90312 322.24656 81.57208 307.11256 83.17806 307.41407 81.73487 307.40519 68.45538 306.70219 60.84342 307.35795 54.95849 307.4443 47.76038 307.35169 32.907518 306.33689 31.68723 320.9686 33.589914Z"/>
<path transform="matrix(1,0,0,-1,500.20378,90.36006)" stroke-width=".75" stroke-linecap="round" stroke-linejoin="round" fill="none" stroke="#d90000" d="M322.03865-82.56184C322.19987-82.55343 321.2228-81.51401 322.2324-82.18636 336.71897-82.26007 352.48405-81.93821 367.10633-82.00304 382.68629-81.641719 381.97813-81.93118 381.9993-67.570339 380.92076-54.033948 381.13609-39.739595 382.1588-24.645243 382.25547-9.542869 382.85679-10.781914 366.6803-10.265107 351.06205-9.435225 336.71577-9.846491 322.0748-10.584861 305.86689-10.013598 307.18913-9.481425 305.84574-23.933234 305.78483-39.631738 306.10948-52.79441 306.6968-68.11912 306.5672-81.93881 306.7157-83.07106 322.03865-82.56184Z"/>
<path transform="matrix(1,0,0,-1,500.20378,90.36006)" stroke-width=".75" stroke-linecap="round" stroke-linejoin="round" fill="none" stroke="#d90000" d="M242.51326 57.258867C242.82845 69.46263 232.48155 78.792819 220.50353 78.78175 208.19387 78.5801 199.0045 69.41079 199.17855 57.513704 200.17369 46.12632 208.52881 36.01349 221.02657 36.548585 232.88858 36.50956 242.00905 45.45144 242.51326 57.258867Z"/>
<path transform="matrix(1,0,0,-1,500.20378,90.36006)" stroke-width=".75" stroke-linecap="round" stroke-linejoin="round" fill="none" stroke="#000000" d="M135.35713 57.484399C157.00104 57.35274 178.19809 57.895284 199.12293 57.256139"/>
<path transform="matrix(1,0,0,-1,500.20378,90.36006)" stroke-width=".75" stroke-linecap="round" stroke-linejoin="round" fill="none" stroke="#000000" d="M186.4356 49.63543C190.02719 53.12477 193.65412 56.461545 199.23654 57.867654 193.81688 58.925596 189.9352 61.455038 186.51546 65.91357"/>
<path transform="matrix(1,0,0,-1,500.20378,90.36006)" stroke-width=".75" stroke-linecap="round" stroke-linejoin="round" fill="none" stroke="#000000" d="M242.96405 57.832857C263.5257 57.383436 284.72908 57.985826 306.26557 57.462614"/>
<path transform="matrix(1,0,0,-1,500.20378,90.36006)" stroke-width=".75" stroke-linecap="round" stroke-linejoin="round" fill="none" stroke="#000000" d="M293.54753 49.28291C296.48356 53.353864 301.5323 56.54462 306.15476 57.986089 301.32286 58.661214 296.52543 61.18234 293.29905 65.45779"/>
<path transform="matrix(1,0,0,-1,500.20378,90.36006)" stroke-width=".75" stroke-linecap="round" stroke-linejoin="round" fill="none" stroke="#000000" d="M382.04545 57.572267C403.53236 57.304887 424.65718 57.711076 445.25218 57.328256"/>
<path transform="matrix(1,0,0,-1,500.20378,90.36006)" stroke-width=".75" stroke-linecap="round" stroke-linejoin="round" fill="none" stroke="#000000" d="M433.22065 49.902105C436.5559 53.962774 440.22547 56.66898 445.2788 57.464155 440.90925 58.32991 436.1115 61.158006 433.0056 65.8704"/>
<path transform="matrix(1,0,0,-1,500.20378,90.36006)" stroke-width=".75" stroke-linecap="round" stroke-linejoin="round" fill="none" stroke="#000000" d="M445.63774-45.692926C424.42594-45.75411 403.2716-46.13108 382.01716-46.292825"/>
<path transform="matrix(1,0,0,-1,500.20378,90.36006)" stroke-width=".75" stroke-linecap="round" stroke-linejoin="round" fill="none" stroke="#000000" d="M395.32508-38.28465C391.4018-42.14158 386.9656-45.221296 382.00318-46.162107 386.87998-47.35021 392.1046-50.452169 394.86033-54.022554"/>
<path transform="matrix(1,0,0,-1,500.20378,90.36006)" stroke-width=".75" stroke-linecap="round" stroke-linejoin="round" fill="none" stroke="#000000" d="M306.50633-45.749734C278.40144-46.4175 249.32819-46.134386 220.75519-46.40863 221.0695-18.552065 221.25505 8.319495 221.04177 36.26162"/>
<path transform="matrix(1,0,0,-1,500.20378,90.36006)" stroke-width=".75" stroke-linecap="round" stroke-linejoin="round" fill="none" stroke="#000000" d="M229.11292 22.829079C224.99195 26.76696 222.45868 30.805855 220.94335 36.11731 219.89627 30.905446 217.1155 26.409113 212.77744 23.200665"/>
<path transform="matrix(1,0,0,-1,500.20378,90.36006)" stroke-width=".75" stroke-linecap="round" stroke-linejoin="round" fill="none" stroke="#000000" d="M322.02375 33.56226C320.87156 31.710562 321.12046 33.45711 320.97886 32.12997 336.83177 32.41511 351.28523 32.50587 367.7162 32.32635 381.6035 33.093748 382.5106 33.562795 381.45179 47.261308 382.37199 53.663755 381.05729 61.472627 381.12394 66.77602 382.1123 83.18312 380.98045 82.5899 367.73469 82.659099 351.06224 83.01857 336.8596 81.898258 321.53334 82.88141 307.38258 83.39146 306.10655 83.00801 305.72715 67.14969 306.08708 61.379446 307.3395 54.74514 306.7831 48.076414 306.85865 32.141229 306.42454 32.554883 322.02375 33.56226Z"/>
<path transform="matrix(1,0,0,-1,500.20378,90.36006)" stroke-width=".75" stroke-linecap="round" stroke-linejoin="round" fill="none" stroke="#d90000" d="M321.41136-81.4608C320.80747-83.13795 322.42323-82.61845 322.09428-83.14627 337.52919-83.10354 351.25898-82.024608 366.80058-83.13992 381.31498-81.925807 382.13658-82.80786 382.79096-66.64274 381.39799-52.788404 382.09547-38.73677 382.09495-24.09712 382.2411-9.733596 382.2195-9.122544 367.4922-10.231809 351.54823-9.244241 336.98948-9.420122 321.4544-9.685437 306.41007-10.552891 306.91746-9.392481 307.03855-24.085482 306.48863-38.65993 306.11485-53.066 306.9769-66.92628 305.63804-82.377788 306.02519-81.309459 321.41136-81.4608Z"/>
<path transform="matrix(1,0,0,-1,500.20378,90.36006)" stroke-width=".75" stroke-linecap="round" stroke-linejoin="round" fill="none" stroke="#d90000" d="M242.44335 57.525579C242.14319 69.07583 233.76903 79.55207 220.84169 78.64779 209.80548 79.32702 200.18762 69.767429 199.17652 58.288267 198.89008 44.902837 208.37332 35.14865 220.43102 35.646574 233.47364 36.8326 243.65561 45.983896 242.44335 57.525579Z"/>
<path transform="matrix(1,0,0,-1,500.20378,90.36006)" stroke-width=".75" stroke-linecap="round" stroke-linejoin="round" fill="none" stroke="#000000" d="M135.31815 57.46652C156.90972 57.72866 177.69029 57.458707 199.43077 57.291437"/>
<path transform="matrix(1,0,0,-1,500.20378,90.36006)" stroke-width=".75" stroke-linecap="round" stroke-linejoin="round" fill="none" stroke="#000000" d="M186.60597 49.07372C189.94988 53.70145 193.61824 56.38925 198.8554 57.163507 194.51389 58.47865 189.85546 61.86795 186.03038 65.77561"/>
<path transform="matrix(1,0,0,-1,500.20378,90.36006)" stroke-width=".75" stroke-linecap="round" stroke-linejoin="round" fill="none" stroke="#000000" d="M242.76828 57.554513C263.65177 58.01191 284.61415 57.683465 306.25959 57.419198"/>
<path transform="matrix(1,0,0,-1,500.20378,90.36006)" stroke-width=".75" stroke-linecap="round" stroke-linejoin="round" fill="none" stroke="#000000" d="M293.12623 49.303899C296.8602 53.705389 301.27488 56.090505 306.4615 57.655439 300.93489 58.653745 296.37007 61.613935 293.72309 65.1733"/>
<path transform="matrix(1,0,0,-1,500.20378,90.36006)" stroke-width=".75" stroke-linecap="round" stroke-linejoin="round" fill="none" stroke="#000000" d="M381.46846 57.98603C403.4279 57.903669 424.26329 57.580099 445.93577 57.6546"/>
<path transform="matrix(1,0,0,-1,500.20378,90.36006)" stroke-width=".75" stroke-linecap="round" stroke-linejoin="round" fill="none" stroke="#000000" d="M433.2023 49.553297C436.12046 53.22365 440.85508 56.799669 445.72966 57.126447 440.3886 58.836275 436.17597 61.403367 432.5899 65.24501"/>
<path transform="matrix(1,0,0,-1,500.20378,90.36006)" stroke-width=".75" stroke-linecap="round" stroke-linejoin="round" fill="none" stroke="#000000" d="M445.70396-46.41946C424.31269-45.942548 403.3928-45.678117 382.3946-46.233507"/>
<path transform="matrix(1,0,0,-1,500.20378,90.36006)" stroke-width=".75" stroke-linecap="round" stroke-linejoin="round" fill="none" stroke="#000000" d="M394.93943-38.14107C392.1908-41.851766 387.67097-44.59107 381.82307-46.301237 387.18269-46.930269 392.01936-50.376474 395.32249-54.526067"/>
<path transform="matrix(1,0,0,-1,500.20378,90.36006)" stroke-width=".75" stroke-linecap="round" stroke-linejoin="round" fill="none" stroke="#000000" d="M306.82206-45.99942C278.25804-45.679216 249.49167-45.896219 221.2687-45.662038 221.05072-18.370696 221.4994 8.459252 220.69942 36.277898"/>
<path transform="matrix(1,0,0,-1,500.20378,90.36006)" stroke-width=".75" stroke-linecap="round" stroke-linejoin="round" fill="none" stroke="#000000" d="M228.77846 23.247578C225.4107 26.113453 221.89769 30.609644 221.3119 36.192449 220.38352 31.24483 217.01299 26.652049 212.6218 23.390894"/>
<path transform="matrix(1,0,0,-1,500.20378,90.36006)" stroke-width=".75" stroke-linecap="round" stroke-linejoin="round" fill="none" stroke="#000000" d="M322.30024 32.297758C322.13859 32.214937 320.93885 33.00135 322.17726 32.405458 336.84107 33.042955 352.37944 31.933812 367.06867 31.798974 381.86817 32.296709 380.9273 33.0791 382.02626 48.209955 382.5597 54.63245 382.5233 60.97289 382.62864 67.540538 381.58164 82.217098 382.09339 82.10768 366.86119 82.80369 351.02903 82.40858 336.22383 82.841838 321.91343 81.54665 306.31016 81.978359 306.1325 83.1245 306.0724 67.160648 306.88935 59.96389 305.71217 54.845258 306.16465 47.08311 306.62449 32.938955 306.40376 32.140455 322.30024 32.297758Z"/>
<path transform="matrix(1,0,0,-1,500.20378,90.36006)" stroke-width=".75" stroke-linecap="round" stroke-linejoin="round" fill="none" stroke="#d90000" d="M322.2859-82.93942C321.51853-82.295 322.45014-82.96136 321.1648-82.28675 337.12266-81.33972 352.5535-82.32639 367.5075-82.09287 381.1138-82.19291 381.98988-81.43034 382.78736-66.82838 381.4409-52.231687 382.33525-39.266397 381.22254-25.333233 381.84428-10.714609 381.52186-10.58375 366.65333-10.613313 352.37635-9.172829 337.10154-9.420208 321.08894-8.956147 307.4486-9.246383 306.73204-10.014868 307.12266-23.985444 305.84547-38.088518 307.41093-52.958166 306.37754-67.64908 306.1033-81.99059 306.07139-82.76426 322.2859-82.93942Z"/>
<path transform="matrix(1,0,0,-1,500.20378,90.36006)" stroke-width=".75" stroke-linecap="round" stroke-linejoin="round" fill="none" stroke="#d90000" d="M242.45563 57.00132C242.67407 68.67779 233.59656 78.864719 221.02799 80.01794 209.55792 78.272609 199.2261 69.46104 198.81095 57.553339 199.11444 45.281999 208.79039 35.3306 221.78882 36.314527 233.1719 35.715597 242.65436 44.878499 242.45563 57.00132Z"/>
<path transform="matrix(1,0,0,-1,500.20378,90.36006)" stroke-width=".75" stroke-linecap="round" stroke-linejoin="round" fill="none" stroke="#000000" d="M135.95079 57.624258C157.16823 57.32054 177.87293 57.60799 199.00933 57.63164"/>
<path transform="matrix(1,0,0,-1,500.20378,90.36006)" stroke-width=".75" stroke-linecap="round" stroke-linejoin="round" fill="none" stroke="#000000" d="M186.02545 49.835924C189.49488 53.464704 193.62006 56.565248 199.24806 57.55227 194.36922 59.007318 189.9226 61.203794 186.47209 65.18657"/>
<path transform="matrix(1,0,0,-1,500.20378,90.36006)" stroke-width=".75" stroke-linecap="round" stroke-linejoin="round" fill="none" stroke="#000000" d="M242.77132 57.178457C263.61125 57.216066 284.83137 57.48007 305.86323 57.139738"/>
<path transform="matrix(1,0,0,-1,500.20378,90.36006)" stroke-width=".75" stroke-linecap="round" stroke-linejoin="round" fill="none" stroke="#000000" d="M293.95243 49.823644C297.0017 53.495428 300.97288 56.127458 306.16148 57.96685 300.83766 58.75574 296.31425 61.889627 293.864 65.569149"/>
<path transform="matrix(1,0,0,-1,500.20378,90.36006)" stroke-width=".75" stroke-linecap="round" stroke-linejoin="round" fill="none" stroke="#000000" d="M381.4773 57.81635C403.18476 57.897325 424.48826 57.8975 445.65675 57.958547"/>
<path transform="matrix(1,0,0,-1,500.20378,90.36006)" stroke-width=".75" stroke-linecap="round" stroke-linejoin="round" fill="none" stroke="#000000" d="M433.32777 49.560514C436.12977 53.144086 441.0905 56.22346 445.52339 57.3508 440.55769 58.280996 436.41215 61.12138 432.9806 65.923877"/>
<path transform="matrix(1,0,0,-1,500.20378,90.36006)" stroke-width=".75" stroke-linecap="round" stroke-linejoin="round" fill="none" stroke="#000000" d="M445.90068-45.907297C424.092-45.889776 403.28385-45.759397 382.03034-46.15997"/>
<path transform="matrix(1,0,0,-1,500.20378,90.36006)" stroke-width=".75" stroke-linecap="round" stroke-linejoin="round" fill="none" stroke="#000000" d="M394.77607-38.13739C392.10273-42.461957 387.03953-44.562944 382.71513-45.839456 387.17869-47.48039 391.82719-49.689878 394.66429-54.359384"/>
<path transform="matrix(1,0,0,-1,500.20378,90.36006)" stroke-width=".75" stroke-linecap="round" stroke-linejoin="round" fill="none" stroke="#000000" d="M306.95927-46.3911C278.03269-46.22898 249.89463-46.171468 220.73729-45.897268 221.20534-18.81466 220.67288 8.768232 220.90686 35.46859"/>
<path transform="matrix(1,0,0,-1,500.20378,90.36006)" stroke-width=".75" stroke-linecap="round" stroke-linejoin="round" fill="none" stroke="#000000" d="M228.72469 23.698306C225.09236 26.457713 221.85099 30.517283 220.98564 35.96342 220.24739 30.725163 216.95777 26.42267 213.46794 22.930613"/>
<path transform="matrix(1,0,0,-1,500.20378,90.36006)" stroke-width=".75" stroke-linecap="round" stroke-linejoin="round" fill="none" stroke="#000000" d="M321.62974 33.445859C321.56034 32.836099 322.2056 32.318765 321.75004 32.398389 336.74888 32.52588 351.4732 31.813382 367.26213 31.783194 381.74226 32.235338 382.0649 32.853334 382.0518 47.972234 382.07008 54.753339 382.74363 60.493997 380.98698 66.64429 381.21635 82.65022 381.45796 81.748409 366.67756 81.73224 351.5946 83.05129 336.56745 82.45359 322.40068 83.17176 306.93556 81.71607 305.63798 81.91965 306.2587 67.62615 306.366 61.390394 306.52748 53.572187 306.18486 47.93023 307.35649 32.22907 306.37275 33.140474 321.62974 33.445859Z"/>
<path transform="matrix(1,0,0,-1,500.20378,90.36006)" stroke-width=".75" stroke-linecap="round" stroke-linejoin="round" fill="none" stroke="#d90000" d="M320.59556-82.59913C320.92057-82.25329 321.1979-83.194629 321.79798-81.41357 336.21345-81.58342 351.73185-82.781238 367.10166-82.57799 382.52229-82.156429 380.9771-82.92087 381.92115-67.52808 382.45884-53.109354 380.97837-39.09657 381.47459-24.680096 382.4798-8.999785 381.39366-10.604822 367.08363-9.526926 351.16853-9.431401 336.4857-10.064061 321.6745-9.66206 306.45088-8.936854 306.10188-10.231767 306.49037-24.808093 307.3734-38.72829 306.97669-53.836454 307.29844-66.79739 306.83979-82.38687 307.46214-83.17602 320.59556-82.59913Z"/>
<path transform="matrix(1,0,0,-1,500.20378,90.36006)" stroke-width=".75" stroke-linecap="round" stroke-linejoin="round" fill="none" stroke="#d90000" d="M243.59185 57.751554C243.04502 69.18178 232.1999 79.73135 220.57868 79.23945 208.58065 78.26519 199.49585 69.77748 200.13439 57.7846 199.71546 45.31097 209.85474 35.83604 221.39247 36.145124 232.64476 35.337827 242.02344 46.184778 243.59185 57.751554Z"/>
<path transform="matrix(1,0,0,-1,500.20378,90.36006)" stroke-width=".75" stroke-linecap="round" stroke-linejoin="round" fill="none" stroke="#000000" d="M135.978 57.97598C156.72328 57.820184 177.83884 57.18976 199.09142 57.830163"/>
<path transform="matrix(1,0,0,-1,500.20378,90.36006)" stroke-width=".75" stroke-linecap="round" stroke-linejoin="round" fill="none" stroke="#000000" d="M186.10675 49.57441C189.32038 53.679944 194.21025 56.19565 198.69066 57.653936 194.2475 58.853738 189.93881 61.89537 186.87181 65.2483"/>
<path transform="matrix(1,0,0,-1,500.20378,90.36006)" stroke-width=".75" stroke-linecap="round" stroke-linejoin="round" fill="none" stroke="#000000" d="M242.48639 57.113229C264.29844 57.70006 284.64198 57.251008 305.96803 57.463567"/>
<path transform="matrix(1,0,0,-1,500.20378,90.36006)" stroke-width=".75" stroke-linecap="round" stroke-linejoin="round" fill="none" stroke="#000000" d="M293.90226 49.759805C297.04765 53.166345 301.40077 56.818929 306.4135 57.917684 301.22224 58.275297 296.99839 61.546186 293.26206 65.634708"/>
<path transform="matrix(1,0,0,-1,500.20378,90.36006)" stroke-width=".75" stroke-linecap="round" stroke-linejoin="round" fill="none" stroke="#000000" d="M382.04759 57.21363C403.38734 57.719118 424.7298 57.250734 445.55097 57.32387"/>
<path transform="matrix(1,0,0,-1,500.20378,90.36006)" stroke-width=".75" stroke-linecap="round" stroke-linejoin="round" fill="none" stroke="#000000" d="M433.0402 49.730604C436.3496 53.127515 440.43476 56.22377 445.88017 57.409738 440.6292 58.92036 436.21919 61.62475 433.0697 65.87747"/>
<path transform="matrix(1,0,0,-1,500.20378,90.36006)" stroke-width=".75" stroke-linecap="round" stroke-linejoin="round" fill="none" stroke="#000000" d="M445.5102-46.445455C424.2323-46.12259 403.74079-46.386968 381.9707-46.23049"/>
<path transform="matrix(1,0,0,-1,500.20378,90.36006)" stroke-width=".75" stroke-linecap="round" stroke-linejoin="round" fill="none" stroke="#000000" d="M394.50718-37.578393C391.8882-42.49976 387.6101-44.65589 382.70613-46.105974 387.45-47.516294 391.91047-50.212495 394.67198-53.82747"/>
<path transform="matrix(1,0,0,-1,500.20378,90.36006)" stroke-width=".75" stroke-linecap="round" stroke-linejoin="round" fill="none" stroke="#000000" d="M306.96546-46.443239C278.37095-46.50869 249.30118-45.93091 221.51525-46.296426 220.87458-19.025183 220.73886 8.140185 221.32788 35.74924"/>
<path transform="matrix(1,0,0,-1,500.20378,90.36006)" stroke-width=".75" stroke-linecap="round" stroke-linejoin="round" fill="none" stroke="#000000" d="M228.91394 23.594738C225.15874 26.720938 222.1027 30.647702 220.86724 35.490438 220.26599 30.56364 216.78598 26.248803 213.10169 23.431128"/>
<path transform="matrix(1,0,0,-1,500.20378,90.36006)" stroke-width=".75" stroke-linecap="round" stroke-linejoin="round" fill="none" stroke="#000000" d="M322.3795 33.53156C321.54173 32.627824 321.41264 33.415376 321.31153 33.233667 336.87779 32.1948 352.23023 32.888418 367.39237 33.39083 381.43736 32.175497 381.36524 31.68269 382.27757 47.361986 381.59165 53.810094 382.43309 60.248357 382.62559 67.4893 381.23759 83.478458 381.9429 82.90743 367.50346 82.7126 352.25804 81.84378 335.68806 82.37711 321.8231 82.671619 306.2044 82.21878 306.68678 83.08075 307.4207 68.21086 307.35166 60.598318 305.95567 55.12837 305.96928 47.3583 306.34568 33.23387 307.4747 32.484395 322.3795 33.53156Z"/>
<path transform="matrix(1,0,0,-1,500.20378,90.36006)" stroke-width=".75" stroke-linecap="round" stroke-linejoin="round" fill="none" stroke="#d90000" d="M322.02348-81.85372C321.99198-81.5664 321.50169-82.04291 320.91487-83.17176 336.22367-81.310169 352.4327-82.532108 366.7475-81.6978 381.92179-81.60928 381.09599-82.22997 381.84986-67.938037 381.74299-53.241594 382.2682-38.250986 381.39817-25.145401 382.77937-9.383958 382.57029-10.627589 367.5224-9.441405 350.79725-9.626226 336.91197-9.905653 321.2013-9.839342 305.98966-9.009843 306.87199-9.830666 306.69047-25.259919 307.0988-38.881235 307.40049-53.135046 306.4588-67.408107 306.20686-81.79658 306.29014-83.083698 322.02348-81.85372Z"/>
<path transform="matrix(1,0,0,-1,500.20378,90.36006)" stroke-width=".75" stroke-linecap="round" stroke-linejoin="round" fill="none" stroke="#d90000" d="M242.5506 57.74193C243.12416 69.42332 233.64601 78.68622 221.09256 80.08201 208.26573 79.69714 199.91666 69.35308 199.12448 56.641229 199.18927 45.176305 209.90583 35.74356 220.70252 35.281724 232.91573 35.580549 242.47779 45.8514 242.5506 57.74193Z"/>
<path transform="matrix(1,0,0,-1,500.20378,90.36006)" stroke-width=".75" stroke-linecap="round" stroke-linejoin="round" fill="none" stroke="#000000" d="M135.91175 57.75039C156.79674 57.75135 178.18077 57.211744 199.14194 57.833024"/>
<path transform="matrix(1,0,0,-1,500.20378,90.36006)" stroke-width=".75" stroke-linecap="round" stroke-linejoin="round" fill="none" stroke="#000000" d="M186.44535 49.495615C189.63556 53.507169 193.64899 56.750944 199.36888 57.53982 193.96183 58.45566 189.91416 61.771177 186.13684 65.48813"/>
<path transform="matrix(1,0,0,-1,500.20378,90.36006)" stroke-width=".75" stroke-linecap="round" stroke-linejoin="round" fill="none" stroke="#000000" d="M242.83367 57.327348C264.118 57.602994 285.0258 57.295663 305.82887 58.00507"/>
<path transform="matrix(1,0,0,-1,500.20378,90.36006)" stroke-width=".75" stroke-linecap="round" stroke-linejoin="round" fill="none" stroke="#000000" d="M293.3055 49.807977C296.67475 53.453386 301.33457 56.588159 305.94993 57.705297 301.21418 59.135549 296.397 61.991548 293.4292 65.44736"/>
<path transform="matrix(1,0,0,-1,500.20378,90.36006)" stroke-width=".75" stroke-linecap="round" stroke-linejoin="round" fill="none" stroke="#000000" d="M381.73246 57.29155C402.92588 57.58709 424.79206 57.479227 445.24085 57.264184"/>
<path transform="matrix(1,0,0,-1,500.20378,90.36006)" stroke-width=".75" stroke-linecap="round" stroke-linejoin="round" fill="none" stroke="#000000" d="M432.5714 49.780996C436.5209 53.224393 440.41517 56.691034 445.8433 57.25108 440.57603 58.396345 436.0968 61.318597 432.9599 65.89795"/>
<path transform="matrix(1,0,0,-1,500.20378,90.36006)" stroke-width=".75" stroke-linecap="round" stroke-linejoin="round" fill="none" stroke="#000000" d="M445.44093-46.042669C424.9761-46.297998 403.57566-46.05866 382.49516-46.264799"/>
<path transform="matrix(1,0,0,-1,500.20378,90.36006)" stroke-width=".75" stroke-linecap="round" stroke-linejoin="round" fill="none" stroke="#000000" d="M394.88298-38.019945C391.5055-42.46733 387.25773-44.735937 382.25114-46.245489 387.49107-47.63349 391.30644-49.695718 395.19035-54.286958"/>
<path transform="matrix(1,0,0,-1,500.20378,90.36006)" stroke-width=".75" stroke-linecap="round" stroke-linejoin="round" fill="none" stroke="#000000" d="M306.86537-46.31822C277.66569-46.33804 249.183-46.43124 221.00074-46.015089 221.25984-18.968392 221.2097 8.92133 221.16275 35.66262"/>
<path transform="matrix(1,0,0,-1,500.20378,90.36006)" stroke-width=".75" stroke-linecap="round" stroke-linejoin="round" fill="none" stroke="#000000" d="M228.73987 23.710402C225.19469 26.481448 222.32299 31.099944 221.07035 36.176786 219.95749 30.586977 217.10639 26.32395 212.89202 23.127778"/>
<use data-text="+" xlink:href="#font_2_10" transform="matrix(21.519354,0,0,-21.519316,683.25857,25.055436)"/>
<use data-text="+" xlink:href="#font_2_10" transform="matrix(21.519354,0,0,-21.519316,727.45779,70.20972)"/>
<use data-text="X" xlink:href="#font_2_5" transform="matrix(21.519383,0,0,-21.519398,588.15676,38.17958)"/>
<use data-text="(" xlink:href="#font_2_2" transform="matrix(21.519383,0,0,-21.519398,602.48867,38.17958)"/>
<use data-text="s" xlink:href="#font_2_3" transform="matrix(21.519383,0,0,-21.519398,612.03378,38.17958)"/>
<use data-text=")" xlink:href="#font_2_4" transform="matrix(21.519383,0,0,-21.519398,623.0207,38.17958)"/>
<use data-text="Y" xlink:href="#font_2_6" transform="matrix(21.519246,0,0,-21.519398,950.3684,141.82422)"/>
<use data-text="(" xlink:href="#font_2_2" transform="matrix(21.519246,0,0,-21.519398,963.5171,141.82422)"/>
<use data-text="s" xlink:href="#font_2_3" transform="matrix(21.519246,0,0,-21.519398,973.06216,141.82422)"/>
<use data-text=")" xlink:href="#font_2_4" transform="matrix(21.519246,0,0,-21.519398,984.0491,141.82422)"/>
<use data-text="Z" xlink:href="#font_2_7" transform="matrix(21.519383,0,0,-21.519398,950.3684,38.17958)"/>
<use data-text="(" xlink:href="#font_2_2" transform="matrix(21.519383,0,0,-21.519398,964.7003,38.17958)"/>
<use data-text="s" xlink:href="#font_2_3" transform="matrix(21.519383,0,0,-21.519398,974.2455,38.17958)"/>
<use data-text=")" xlink:href="#font_2_4" transform="matrix(21.519383,0,0,-21.519398,985.2324,38.17958)"/>
</svg>
