<svg xmlns="http://www.w3.org/2000/svg" xmlns:xlink="http://www.w3.org/1999/xlink" xmlns:inkscape="http://www.inkscape.org/namespaces/inkscape" version="1.1" width="402.6675" height="397.2631" viewBox="0 0 402.6675 397.2631">
<defs>
<path id="font_0_1" d="M-.0010070801-.21481323 .01499939-.23080445C.06098938-.20880127 .114990238-.17581177 .147995-.1408081 .1749878-.11180115 .19799805-.078811649 .21099854-.040802003 .22299195-.00579834 .22299195 .13420105 .22299195 .15419007 .22299195 .19119263 .22299195 .35820008 .21598816 .40119935 .21398926 .42118836 .21099854 .44119264 .19599915 .4552002 .18598938 .4651947 .16999817 .46820069 .15499878 .46820069 .1349945 .46820069 .115997318 .45819093 .09799194 .44918824 .067993167 .43319703 .040985109 .41419984 .01399231 .39318849L.026992798 .37519837C.051986696 .38819886 .08699036 .40820313 .102996829 .40820313 .11399841 .40820313 .11999512 .40820313 .1309967 .39419557 .1349945 .39019776 .14199829 .37519837 .14399719 .3551941 .14698792 .31819154 .14698792 .25219728 .14698792 .15419007 .14698792 .110198978 .14399719-.013809204 .1269989-.075805667 .11299133-.12580872 .07299805-.17080689-.0010070801-.21481323M.10899353 .6246033C.10899353 .5926056 .13198853 .5646057 .16499329 .5646057 .19999695 .5646057 .22599793 .5946045 .22599793 .62861636 .22599793 .660614 .19799805 .6826172 .16799927 .6826172 .13598633 .6826172 .10899353 .6566162 .10899353 .6246033Z"/>
<path id="font_0_2" d="M.066986087 .17630005C.066986087 .12030029 .085998538 .06430054 .12599182 .025299073 .1519928-.0007019043 .18798828-.0126953129 .22499085-.0126953129 .2539978-.0126953129 .28799439 .000289917 .31298829 .015304565 .34599305 .03529358 .37098695 .060302736 .39698792 .08729553H.40899659C.41999818 .06430054 .43299867 .03729248 .44599916 .024291993 .46798707 .002090454 .49899293-.00390625 .5299988-.00390625 .58799746-.00390625 .6399994 .02508545 .68099978 .065078739 .7449951 .12908936 .7809906 .21607971 .7809906 .3060913 .7809906 .37008668 .7559967 .43208314 .7049866 .47209168L.69099429 .4690857 .6489868 .42108155 .6459961 .40908814C.69400027 .36808778 .71398928 .30508424 .71398928 .24407959 .71398928 .1940918 .70098879 .13609314 .6649933 .10108948 .6399994 .07608032 .61099246 .061080934 .57499697 .061080934 .5529938 .061080934 .5309906 .06808472 .5149994 .08409119 .49598695 .1020813 .4869995 .12208557 .47999574 .14808655 .46998597 .18309021 .46699525 .2270813 .46699525 .26408387 .46699525 .32929994 .46699525 .40029908 .47599793 .4593048L.46998597 .46629334 .394989 .43829347V.2492981C.394989 .21629334 .3929901 .18330384 .3849945 .1512909 .37998963 .12930298 .37399293 .108291629 .35798646 .092300418 .33399964 .06829834 .30299378 .05029297 .2689972 .05029297 .23999024 .05029297 .21299744 .06529236 .19299317 .08529663 .17599488 .1013031 .16699219 .123291019 .1599884 .14529419 .1519928 .17329407 .14898682 .20329285 .14898682 .2322998 .14898682 .30130006 .16899109 .3712921 .21798706 .42030335 .22898865 .43130494 .24398804 .44229127 .25698854 .45230104L.24099732 .46629334C.20899964 .45529176 .1769867 .44129945 .1539917 .41830445 .08999634 .35429383 .066986087 .2642975 .066986087 .17630005Z"/>
<path id="font_0_3" d="M.12799073 .18051148C.12799073 .12246704 .14199829 .062423707 .18798828 .01940918 .21598816-.006591797 .25698854-.017578125 .29699708-.017578125 .32598878-.017578125 .35499574-.0095825199 .38198854 .0004119873 .42199708 .014419556 .45799256 .033416749 .49299623 .05441284 .49398805 .03440857 .5019989 .015411377 .5149994-.000579834 .5249939-.013580322 .54299929-.018585206 .55999758-.018585206 .5799866-.018585206 .598999-.0105896 .61698916-.0025787354 .647995 .010421753 .6769867 .027420044 .70599368 .044418336L.69699099 .06742859C.673996 .059417726 .6380005 .048416139 .6279907 .048416139 .6139984 .048416139 .6029968 .05342102 .5970001 .063430789 .58898928 .076431278 .58599856 .093444827 .58499148 .110458377L.58399966 .6756592 .57598879 .68466189 .3909912 .6646576 .38598634 .6606598 .3869934 .6386719C.41099549 .6386719 .43598939 .6366577 .45799256 .6316681 .47399903 .6276703 .4850006 .6156769 .48999024 .6026764 .49699403 .5766754 .49798585 .5046997 .49798585 .45170594L.48999024 .44770814C.45899964 .45671083 .42900086 .46270753 .3959961 .46270753 .32798768 .46270753 .2619934 .44270326 .21398926 .39868165 .15098572 .3406372 .12799073 .26057435 .12799073 .18051148M.22599793 .20353699C.22599793 .2705841 .23999024 .3426361 .29299928 .39067079 .31900025 .4146881 .35398866 .42871095 .3909912 .42871095 .4169922 .42871095 .44599916 .42570497 .46398927 .40968324 .49299623 .383667 .49798585 .3456421 .49798585 .3106079L.49299623 .095443729C.46199037 .06843567 .39898683 .048416139 .3600006 .048416139 .32899476 .048416139 .29699708 .057418825 .27398683 .077438358 .23699951 .110458377 .22599793 .15849304 .22599793 .20353699Z"/>
<path id="font_0_4" d="M.04598999 .23046875H.70399478L.70999148 .27046205H.052993776L.04598999 .23046875Z"/>
<path id="font_0_5" d="M.08198547 .2210083C.08198547 .18603516 .085998538 .15104676 .09599304 .11807251 .10398865 .09208679 .115997318 .068099979 .1349945 .048110963 .16699219 .016113282 .20399475-.0048828127 .25698854-.0048828127 .33399964-.0048828127 .3849945 .018112183 .43199159 .065093997 .47499085 .108078 .4889984 .16903687 .4889984 .22801209 .4889984 .28697206 .47499085 .34594728 .43299867 .3879242 .4079895 .4129181 .3899994 .42390443 .3869934 .42590333L.3880005 .43190003C.45399476 .42390443 .522995 .4159088 .58699038 .40292359L.59399417 .4089203 .60798647 .46591188 .6029968 .47590638 .26098634 .46191407C.20799256 .4598999 .16899109 .437912 .13398743 .39892579 .09199524 .35295106 .08198547 .28297425 .08198547 .2210083M.16499329 .25299073C.16499329 .30397035 .17298889 .35993959 .20899964 .39692689 .22898865 .4159088 .2519989 .4289093 .27999879 .4289093 .30799867 .4289093 .33699037 .4169159 .35699464 .39692689 .37599183 .3779297 .3899994 .34895326 .39698792 .32395936 .40699769 .28897096 .4099884 .2519989 .4099884 .21601868 .4099884 .18803406 .40699769 .16004944 .3999939 .13206482 .394989 .11407471 .38198854 .08409119 .36698915 .0690918 .34799195 .051101686 .32499696 .036102296 .2939911 .036102296 .2639923 .036102296 .24299622 .051101686 .21998596 .07409668 .19599915 .098083499 .18699646 .124069217 .1789856 .15005493 .16799927 .18403626 .16499329 .21801758 .16499329 .25299073Z"/>
<path id="font_1_1" d="M.24598694 .44070436C.3039856 .44070436 .35198976 .4147339 .35198976 .359787 .37098695 .38575746 .37998963 .40673829 .37998963 .4307251 .37998963 .4847107 .33198548 .51171877 .2619934 .51171877 .20698548 .51171877 .17298889 .4907074 .1309967 .4907074 .11299133 .4907074 .09298706 .4947052 .069992069 .50671389V.04310608C.069992069-.0068359377 .1499939-.0068359377 .1499939-.0068359377V.4237213C.1499939 .4237213 .19299317 .44070436 .24598694 .44070436Z"/>
<path id="font_1_2" d="M.36698915 .07923889C.36698915 .07923889 .32199098 .05227661 .24899292 .05227661 .16299439 .05227661 .12998963 .09022522 .12998963 .13415528 .12998963 .25299073 .34799195 .20904541 .36698915 .2759552V.07923889M.049987794 .1351471C.049987794 .027267456 .14399719-.01171875 .23498535-.01171875 .2899933-.012145996 .33198548 .005859375 .37799073 .005859375 .39898683 .005859375 .41999818 .0028533936 .44400025-.0071411135V.35073854C.44400025 .45170594 .375 .51171877 .24798584 .51171877 .15098572 .51171877 .06498718 .4767151 .06498718 .40872193 .06498718 .38772584 .07299805 .3627472 .09199524 .3357544 .09199524 .4057312 .15499878 .44171144 .24798584 .44171144 .34098817 .44171144 .3639984 .4057312 .3639984 .3547516 .32899476 .25897218 .049987794 .32788087 .049987794 .1351471Z"/>
<path id="font_1_3" d="M.3809967 .07823181C.3809967 .07823181 .34700013 .053268434 .27198792 .053268434 .16899109 .053268434 .13999939 .08921814 .13999939 .16212464V.3388672C.13999939 .41375733 .18598938 .4467163 .24798584 .4467163 .31399537 .4467163 .3809967 .4067688 .3809967 .34884645V.07823181M.05999756 .1471405C.05999756 .046279909 .1329956-.01171875 .2599945-.01171875 .30899049-.012145996 .35299684 .005859375 .3929901 .005859375 .4099884 .005859375 .43899537 .0028533936 .46099855-.0071411135V.68696597C.46099855 .74806216 .3880005 .7470703 .3809967 .7470703V.54776C.3809967 .4797058 .3909912 .45671083 .3909912 .45671083 .3909912 .45671083 .35598756 .51171877 .23498535 .51171877 .14099121 .51171877 .05999756 .452713 .05999756 .3537445V.1471405Z"/>
<path id="font_1_4" d="M.069992069 .04310608C.069992069-.0068359377 .1499939-.0068359377 .1499939-.0068359377V.45674134C.1499939 .5076904 .069992069 .5066986 .069992069 .5066986V.04310608M.069992069 .6195984C.069992069 .6096039 .07798767 .6016083 .08799744 .6016083H.1499939V.66755679C.1499939 .6765442 .14199829 .6855469 .1329956 .6855469H.069992069V.6195984Z"/>
<path id="font_1_5" d="M.1499939 .45687867C.1499939 .50582888 .069992069 .50683596 .069992069 .50683596V.13819885C.069992069 .02027893 .1659851-.01171875 .25698854-.01171875 .31399537-.01133728 .35798646 .0096588139 .4059906 .0096588139 .42599488 .0096588139 .44799806 .0056610109 .47099305-.0063476564V.45692445C.47099305 .50683596 .3909912 .50683596 .3909912 .50683596V.07661438C.3909912 .07661438 .34399415 .055664064 .2709961 .055664064 .18199158 .055664064 .1499939 .09158325 .1499939 .1534729V.45687867Z"/>
<path id="font_1_6" d="M.039993287 .35583497C.039993287 .14614868 .3619995 .28894044 .3619995 .1451416 .3619995 .095214847 .33898927 .058273317 .23599243 .058273317 .1329956 .058273317 .069992069 .09422302 .069992069 .16412354 .050994874 .13417053 .042999269 .109191898 .042999269 .0872345 .042999269 .01727295 .1309967-.01171875 .23599243-.01171875 .37298585-.01171875 .44198609 .04927063 .44198609 .14015198 .44198609 .3718109 .11999512 .23701477 .11999512 .35583497 .11999512 .41575624 .14299011 .44171144 .23599243 .44171144 .33898927 .44171144 .3919983 .4047699 .3919983 .3358612 .4119873 .3668213 .42099 .39378358 .42099 .41575624 .42099 .4837036 .33898927 .51171877 .23599243 .51171877 .10899353 .51171877 .039993287 .45671083 .039993287 .35583497Z"/>
<path id="font_1_7" d="M0 0Z"/>
<path id="font_0_6" d="M.036987306 .40014649 .055999757 .37815858C.08898926 .39715577 .116989139 .41314698 .14099121 .41314698 .15499878 .41314698 .16499329 .4041443 .17098999 .39315797 .18099976 .3771515 .18299866 .34016419 .18299866 .3041687 .18299866 .2881775 .18299866 .2711792 .18199158 .2571869 .18099976 .17120362 .1749878 .04421997 .17199707 .0012207031L.18998719-.0057678224 .2679901 .018234253C.2659912 .05822754 .2659912 .08822632 .2659912 .11621094V.19819641C.2659912 .2501831 .269989 .3021698 .27198792 .34916688 .29699708 .36715699 .32299806 .3831482 .35198976 .39515687 .37199403 .40315248 .394989 .41015626 .4169922 .41015626 .44599916 .41015626 .46899415 .4021454 .4889984 .38415528 .5009918 .3711548 .5079956 .3541565 .5109863 .33616639 .5169983 .3081665 .5189972 .27818299 .5189972 .24919129L.5139923 .07821655C.5139923 .05722046 .5159912 .034225465 .5289917 .017227173 .54299929-.0017700195 .5649872-.009765625 .59498599-.009765625 .6100006-.009765625 .6489868 .00022888184 .6719971 .011230469 .70899966 .030227662 .73999026 .051223756 .7719879 .07922363L.7619934 .10021973H.7480011C.71899417 .081222537 .68299868 .06022644 .6569977 .06022644 .6309967 .06022644 .60598757 .07722473 .60398867 .11122131 .6029968 .12020874 .6029968 .14320374 .6029968 .17019654V.2561798C.6029968 .32017518 .6029968 .41714479 .5799866 .44015504 .55999758 .46214295 .526001 .46914674 .49299623 .46914674 .45999146 .46914674 .42900086 .46115113 .397995 .45014955 .35499574 .43614198 .31799317 .41815187 .27999879 .39715577L.269989 .40315248C.2679901 .42214967 .2649994 .43914796 .24699402 .45414735 .23199463 .46714784 .21598816 .47114564 .19400025 .47114564 .14498902 .47114564 .08299255 .43014527 .036987306 .40014649Z"/>
<path id="font_0_7" d="M.06599426 .21221924C.06599426 .15818787 .07598877 .10014343 .114990238 .06010437 .13899231 .037094118 .16899109 .022079468 .19999695 .013092041 .23799134 .001083374 .27398683-.0029144288 .31298829-.00390625L.32099916-.012908936C.32099916-.06991577 .31698609-.12490845 .31599427-.18191529L.33299256-.19190979 .40499879-.1559143C.397995-.106918338 .3939972-.056915285 .3939972-.0079193119L.40299989 .002090454C.47299195 .0040893557 .5399933 .02508545 .58999636 .07511902 .6380005 .12416077 .6589966 .19221497 .6589966 .25926209 .6589966 .3183136 .6409912 .37635804 .598999 .41838075 .57899478 .43840028 .5479889 .45140077 .5209961 .45840455 .48098756 .46940614 .44299317 .47340394 .4039917 .47340394L.3959961 .48339845C.3959961 .55137637 .39898683 .61935427 .4039917 .6863251L.39698792 .69433596 .31498719 .65234377C.31900025 .59635928 .32099916 .53938296 .32099916 .48239137L.31199647 .47340394C.29499818 .47340394 .24598694 .46440126 .21398926 .45239259 .18699646 .44239808 .16099549 .4263916 .13999939 .40538026 .08999634 .3543396 .06599426 .2842865 .06599426 .21221924M.14898682 .24224854C.14898682 .29829408 .16099549 .35733033 .20199585 .3983612 .23199463 .4283905 .2809906 .44140626 .31199647 .44140626L.32099916 .4333954V.038085939L.31298829 .029083252C.27398683 .029083252 .23599243 .048095704 .20899964 .07511902 .16499329 .1181488 .14898682 .1802063 .14898682 .24224854M.3939972 .042099V.4343872L.40299989 .44340516C.44999696 .44239808 .49598695 .4353943 .5299988 .4013672 .56599429 .3643341 .57699587 .31230165 .57699587 .261261 .57699587 .20121765 .56399539 .13917542 .519989 .09513855 .48799134 .06211853 .44898988 .036087037 .4019928 .033096315L.3939972 .042099Z"/>
<path id="font_1_8" d="M.3909912 .04310608C.3909912-.005844116 .47099305-.0068359377 .47099305-.0068359377V.36180116C.47099305 .4797058 .375 .51171877 .28399659 .51171877 .22698975 .511322 .18299866 .49032594 .1349945 .49032594 .114990238 .49032594 .09298706 .49432374 .069992069 .5063324V.043060304C.069992069-.0068359377 .1499939-.0068359377 .1499939-.0068359377V.42337037C.1499939 .42337037 .19699097 .44433595 .269989 .44433595 .35899354 .44433595 .3909912 .4084015 .3909912 .34651185V.04310608Z"/>
<path id="font_0_8" d="M.07199097 .23632813H.78900149L.79599 .2763214H.07998657L.07199097 .23632813Z"/>
<path id="font_0_9" d="M.1349945 .6123047H.22898865C.25698854 .6123047 .27999879 .59129336 .2809906 .5662842 .28199769 .541275 .28199769 .46824647 .28199769 .41923524 .28199769 .27919007 .27799989 .13916016 .272995 .00010681152L.28599549-.0048828127 .3809967 .022125245C.37799073 .09814453 .37799073 .2962036 .37799073 .43223573 .37799073 .52127078 .37998963 .6112976 .38598634 .7003021L.3789978 .71229556 .1349945 .6392975V.6123047Z"/>
<path id="font_0_10" d="M.083999637 .17407227C.083999637 .12004089 .09599304 .06402588 .1349945 .025009156 .1639862-.003982544 .20599365-.009979248 .24598694-.009979248 .2559967-.009979248 .34298707-.0009765625 .3809967-.0009765625 .41099549-.0009765625 .43199159-.018981934 .43199159-.038986207 .43199159-.06498718 .41299439-.09698486 .397995-.12397766L.4189911-.13598633C.43899537-.11097717 .4909973-.039978029 .4909973 .006011963 .4909973 .030014039 .47499085 .053024293 .41099549 .053024293 .4019928 .053024293 .32798768 .04701233 .30999757 .04701233 .27398683 .04701233 .23699951 .053024293 .21099854 .07902527 .1769867 .11404419 .16099549 .1620636 .16099549 .21008301 .16099549 .4121704 .34199525 .60224917 .46398927 .636261V.65527346C.42999269 .65026858 .40098573 .6472626 .375 .6472626 .27799989 .6472626 .22898865 .6953125 .22200012 .6953125 .21998596 .6953125 .21699524 .6953125 .21598816 .69329836L.18899536 .65927127C.18699646 .65727236 .18699646 .65626528 .18699646 .65527346 .18699646 .65527346 .18798828 .65226748 .18899536 .6512604 .20899964 .6382599 .23199463 .6322632 .2559967 .6282654L.34700013 .6202545 .34799195 .61325076C.31799317 .58724978 .20599365 .48719789 .13899231 .3621521 .10798645 .30311585 .083999637 .24009705 .083999637 .17407227Z"/>
<path id="font_0_11" d="M.053985597 .13186646H.71598818L.7220001 .171875H.06098938L.053985597 .13186646M.053985597 .328125H.71598818L.7220001 .3681183H.06098938L.053985597 .328125Z"/>
</defs>
<path transform="matrix(1,0,0,-1,203.71637,198.5699)" stroke-width=".75" stroke-linecap="round" stroke-linejoin="round" fill="none" stroke="#999999" d="M191.23606-.409311C63.524549 .461474-63.95404-.033148-191.27637 .33776"/>
<path transform="matrix(1,0,0,-1,203.71637,198.5699)" stroke-width=".75" stroke-linecap="round" stroke-linejoin="round" fill="none" stroke="#999999" d="M178.09104-8.045961C181.52753-4.45956 186.45383-1.680227 191.76407 .502408 186.28778 .679434 182.40665 4.518949 178.441 8.437054"/>
<path transform="matrix(1,0,0,-1,203.71637,198.5699)" stroke-width=".75" stroke-linecap="round" stroke-linejoin="round" fill="none" stroke="#999999" d="M-178.4759 8.010115C-182.28351 3.41301-185.79218 1.737083-190.83045-.382454-186.67972-.92096-181.56653-3.844828-178.16495-8.393692"/>
<path transform="matrix(1,0,0,-1,203.71637,198.5699)" stroke-width=".75" stroke-linecap="round" stroke-linejoin="round" fill="none" stroke="#999999" d="M-.194827 190.78083C.257404 63.341367 .042735-64.29569 .587415-190.96636"/>
<path transform="matrix(1,0,0,-1,203.71637,198.5699)" stroke-width=".75" stroke-linecap="round" stroke-linejoin="round" fill="none" stroke="#999999" d="M7.778352 178.34449C3.742213 181.37598 1.301097 186.7699-.393177 191.38285-.623033 186.08289-4.144456 182.16683-7.730101 179.1084"/>
<path transform="matrix(1,0,0,-1,203.71637,198.5699)" stroke-width=".75" stroke-linecap="round" stroke-linejoin="round" fill="none" stroke="#999999" d="M-8.462188-178.44625C-3.959289-182.41429-.894996-186.44675-.584522-191.50614 1.372335-186.0155 4.083831-182.23047 7.783736-178.16477"/>
<path transform="matrix(1,0,0,-1,203.71637,198.5699)" stroke-width=".75" stroke-linecap="round" stroke-dasharray="4.5,4.5" stroke-linejoin="round" fill="none" stroke="#999999" d="M-90.70497 90.10129C-90.698268 30.067095-90.23742-30.153296-89.7415-90.21605"/>
<path transform="matrix(1,0,0,-1,203.71637,198.5699)" stroke-width=".75" stroke-linecap="round" stroke-dasharray="4.5,4.5" stroke-linejoin="round" fill="none" stroke="#999999" d="M-90.13785 90.287799C-60.12439 89.66933-30.601244 90.04439 .163425 90.00902"/>
<path transform="matrix(1,0,0,-1,203.71637,198.5699)" stroke-width=".75" stroke-linecap="round" stroke-dasharray="4.5,4.5" stroke-linejoin="round" fill="none" stroke="#999999" d="M-90.25923-90.42035C-60.37058-90.1343-29.912037-90.39891-.421455-90.57157"/>
<path transform="matrix(1,0,0,-1,203.71637,198.5699)" stroke-width=".75" stroke-linecap="round" stroke-dasharray="4.5,4.5" stroke-linejoin="round" fill="none" stroke="#999999" d="M-90.00358 90.35919C-59.86382 59.674516-29.875098 29.783106-.312837-.158076"/>
<use data-text="j" xlink:href="#font_0_1" transform="matrix(14.943974,0,0,-14.943982,208.23123,111.74844)"/>
<use data-text="&#x03c9;" xlink:href="#font_0_2" transform="matrix(14.943974,0,0,-14.943982,213.17768,111.74844)"/>
<use data-text="d" xlink:href="#font_0_3" transform="matrix(10.460785,0,0,-10.460792,225.88532,113.9888)"/>
<use data-text="&#x2212;" xlink:href="#font_0_4" transform="matrix(14.943933,0,0,-14.943982,208.21631,292.1421)"/>
<use data-text="j" xlink:href="#font_0_1" transform="matrix(14.943933,0,0,-14.943982,219.52887,292.1421)"/>
<use data-text="&#x03c9;" xlink:href="#font_0_2" transform="matrix(14.943933,0,0,-14.943982,224.47531,292.1421)"/>
<use data-text="d" xlink:href="#font_0_3" transform="matrix(10.460756,0,0,-10.460792,237.1767,294.38246)"/>
<use data-text="&#x2212;" xlink:href="#font_0_4" transform="matrix(14.943867,0,0,-14.943992,116.66953,208.82917)"/>
<use data-text="&#x03c3;" xlink:href="#font_0_5" transform="matrix(14.943867,0,0,-14.943992,127.967098,208.82917)"/>
<use data-text="r" xlink:href="#font_1_1" transform="matrix(14.943981,0,0,-14.944011,6.8143007,157.88486)"/>
<use data-text="a" xlink:href="#font_1_2" transform="matrix(14.943981,0,0,-14.944011,12.194284,157.88486)"/>
<use data-text="d" xlink:href="#font_1_3" transform="matrix(14.943981,0,0,-14.944011,19.80077,157.88486)"/>
<use data-text="i" xlink:href="#font_1_4" transform="matrix(14.943981,0,0,-14.944011,27.736027,157.88486)"/>
<use data-text="u" xlink:href="#font_1_5" transform="matrix(14.943981,0,0,-14.944011,31.0237,157.88486)"/>
<use data-text="s" xlink:href="#font_1_6" transform="matrix(14.943981,0,0,-14.944011,39.10839,157.88486)"/>
<use data-text=" " xlink:href="#font_1_7" transform="matrix(14.943981,0,0,-14.944011,46.31139,157.88486)"/>
<use data-text="&#x03c9;" xlink:href="#font_0_2" transform="matrix(14.943981,0,0,-14.944011,50.47156,157.88486)"/>
<use data-text="n" xlink:href="#font_0_6" transform="matrix(10.460791,0,0,-10.460811,63.1819,160.12522)"/>
<path transform="matrix(1,0,0,-1,203.71637,198.56992)" stroke-width=".75" stroke-linecap="round" stroke-linejoin="round" fill="none" stroke="#990000" d="M.365979 15.209368C-3.914632 14.692665-7.663105 12.95765-10.587916 10.772654"/>
<use data-text="&#x03d5;" xlink:href="#font_0_7" transform="matrix(14.943929,0,0,-14.943917,189.70825,177.55249)" fill="#990000"/>
<use data-text="s" xlink:href="#font_1_6" transform="matrix(14.943827,0,0,-14.943975,229.71063,191.2023)" fill="#990000"/>
<use data-text="i" xlink:href="#font_1_4" transform="matrix(14.943827,0,0,-14.943975,236.91355,191.2023)" fill="#990000"/>
<use data-text="n" xlink:href="#font_1_8" transform="matrix(14.943827,0,0,-14.943975,240.2012,191.2023)" fill="#990000"/>
<use data-text="&#x2212;" xlink:href="#font_0_8" transform="matrix(10.460682,0,0,-10.460786,248.2756,185.78061)" fill="#990000"/>
<use data-text="1" xlink:href="#font_0_9" transform="matrix(10.460682,0,0,-10.460786,257.41825,185.78061)" fill="#990000"/>
<use data-text="&#x03b6;" xlink:href="#font_0_10" transform="matrix(14.943827,0,0,-14.943975,267.18113,191.2023)" fill="#990000"/>
<use data-text="=" xlink:href="#font_0_11" transform="matrix(14.943827,0,0,-14.943975,278.9835,191.2023)" fill="#990000"/>
<use data-text="&#x03d5;" xlink:href="#font_0_7" transform="matrix(14.943827,0,0,-14.943975,294.43214,191.2023)" fill="#990000"/>
<path transform="matrix(1,0,0,-1,203.71637,198.56992)" stroke-width=".75" stroke-linecap="round" stroke-linejoin="round" fill="none" stroke="#999999" d="M-127.176189 44.677373C-102.434497 45.14437-78.78537 49.116449-54.91353 55.59254"/>
<path transform="matrix(1,0,0,-1,203.71637,198.56992)" stroke-width=".75" stroke-linecap="round" stroke-linejoin="round" fill="none" stroke="#999999" d="M-65.2791 44.591955C-63.55015 49.08397-60.159685 52.90852-54.63728 55.347864-60.71097 54.577924-65.67516 56.268995-69.63993 59.39009"/>
<path transform="matrix(1,0,0,-1,203.71637,198.56992)" stroke-width="1.5" stroke-linecap="round" stroke-linejoin="round" fill="none" stroke="#999999" d="M.447085 127.387767C-70.57062 127.93234-127.84369 70.27733-126.976848 .072602-127.83103-70.286258-70.55815-127.84713 .357455-127.36383"/>
<path transform="matrix(1,0,0,-1,203.71637,198.56992)" stroke-width="1.5" stroke-linecap="round" stroke-linejoin="round" fill="none" stroke="#000000" d="M-92.90747 86.98449C-91.274089 88.92588-88.94071 91.00165-86.7999 93.782199"/>
<path transform="matrix(1,0,0,-1,203.71637,198.56992)" stroke-width="1.5" stroke-linecap="round" stroke-linejoin="round" fill="none" stroke="#000000" d="M-93.70272 92.944988C-91.782619 91.58841-89.2795 89.79589-86.973369 86.770999"/>
<path transform="matrix(1,0,0,-1,203.71637,198.56992)" stroke-width="1.5" stroke-linecap="round" stroke-linejoin="round" fill="none" stroke="#000000" d="M-92.90747-93.41121C-91.274089-91.469829-88.94071-89.39406-86.7999-86.61351"/>
<path transform="matrix(1,0,0,-1,203.71637,198.56992)" stroke-width="1.5" stroke-linecap="round" stroke-linejoin="round" fill="none" stroke="#000000" d="M-93.70272-87.45072C-91.782619-88.80729-89.2795-90.59981-86.973369-93.6247"/>
</svg>
