<svg xmlns="http://www.w3.org/2000/svg" xmlns:xlink="http://www.w3.org/1999/xlink" xmlns:inkscape="http://www.inkscape.org/namespaces/inkscape" version="1.1" width="650.1462" height="130.56098" viewBox="0 0 650.1462 130.56098">
<defs>
<path id="font_2_1" d="M.04598999 .23632813H.35598756V-.07368469L.3959961-.06668091V.23632813H.70399478L.70899966 .2763214H.3959961V.58631899L.35598756 .58032229V.2763214H.052993776L.04598999 .23632813Z"/>
<path id="font_2_13" d="M.024993897 .008056641 .027999878-.001953125 .11898804 .017059327 .23599243 .26541139C.23799134 .26942445 .24198914 .2734375 .24598694 .2734375H.47099305C.47399903 .2734375 .47999574 .26841737 .48199464 .26441957L.5359955 .076156619C.54299929 .050231935 .55799868-.009765625 .59399417-.009765625 .60899356-.009765625 .6239929-.0077667238 .6389923-.003768921L.7429962 .026229859 .74198916 .052230836C.7279968 .051223756 .71299746 .049224855 .69898989 .049224855 .6819916 .049224855 .6499939 .053237916 .6349945 .07925415 .59999087 .14030457 .57199099 .23640442 .5499878 .3174286 .5169983 .4373932 .47200013 .5973358 .45700074 .6803131H.2630005V.6533203L.35299684 .6383209C.3619995 .636322 .36499024 .6303253 .36499024 .6263275 .36499024 .6123352 .14698792 .20837403 .024993897 .008224487V.008056641M.2649994 .3194275C.2649994 .32043458 .2649994 .32643128 .2659912 .32843019L.38198854 .5723419C.38198854 .57333377 .3849945 .5763397 .3880005 .5763397 .3909912 .5763397 .3939972 .5743408 .394989 .5723419L.46499635 .32843019C.46499635 .3274231 .46699525 .3194275 .46699525 .3194275 .46699525 .3164215 .46499635 .3124237 .45999146 .3124237H.27198792C.2689972 .3124237 .2649994 .3164215 .2649994 .3194275Z"/>
<path id="font_2_14" d="M.049987794 .6621094C.07499695 .65509036 .1329956 .64308169 .1329956 .61105349V.08099365C.1329956 .069992069 .13198853 .045013429 .1309967 .042007448 .1289978 .036010744 .115997318 .020019532 .10998535 .011016846L.11099243 .0010223389C.11199951 .0010223389 .24299622 .000015258789 .30899049-.0009765625 .3849945-.0009765625 .46598817 .012008667 .5209961 .067993167 .55599978 .10298157 .57398989 .1509552 .57398989 .20092774 .57398989 .24391175 .5649872 .28388978 .5339966 .3148651 .5009918 .34884645 .44299317 .35984803 .37998963 .3698578L.3809967 .3778534C.42099 .3948822 .46099855 .41192628 .4909973 .44299317 .519989 .4720459 .5339966 .51213076 .5339966 .55322268 .5339966 .58529666 .5219879 .61535647 .5 .6384125 .47999574 .658432 .42900086 .6864319 .30499269 .6864319L.057998659 .6860962 .050994874 .67910769 .049987794 .6621094M.21499634 .06599426V.3378601C.21499634 .34484864 .23199463 .3458557 .25 .3458557 .30599977 .3458557 .34899903 .3438568 .3829956 .33485414 .4079895 .3278656 .48298646 .3108673 .48298646 .20793152 .48298646 .16395569 .46998597 .12097168 .43899537 .08898926 .3999939 .05101013 .34399415 .039016725 .2899933 .039016725 .23799134 .039016725 .21499634 .040008546 .21499634 .06599426M.21499634 .39085389V.6290741C.21499634 .64541628 .24598694 .6484375 .28799439 .6484375 .31498719 .6484375 .3769989 .64541628 .4019928 .62939456 .43399049 .6083374 .44898988 .5752716 .44898988 .5452118 .44898988 .5031128 .43598939 .46102906 .4059906 .43095399 .36999513 .39588929 .32699586 .38085938 .24899292 .38085938 .23399353 .38085938 .21499634 .38085938 .21499634 .39086915V.39085389Z"/>
<path id="font_2_5" d="M.051986696 .06642151C.06199646 .047409059 .07598877 .030395508 .09199524 .01638794 .12098694-.009613037 .16099549-.016601563 .19898987-.016601563 .2559967-.016601563 .31199647 .0023956299 .35099793 .044403078 .375 .06941223 .3869934 .10343933 .3869934 .13845825 .3869934 .1634674 .37298585 .18649292 .35499574 .20449829 .34098817 .21850586 .3039856 .24052429 .27198792 .25453187 .24299622 .26654054 .19999695 .2885437 .18798828 .30055238 .17298889 .31655885 .1619873 .3285675 .1619873 .35058595 .1619873 .3725891 .16899109 .39360047 .18499756 .4086151 .19999695 .42362977 .22200012 .43164063 .24398804 .43164063 .2639923 .43164063 .2849884 .42462159 .29599 .4066162 .30599977 .39060975 .30799867 .3715973 .30899049 .35359193L.32099916 .34657289 .37599183 .38360597C.375 .40560914 .3639984 .42662049 .34799195 .44163514 .32499696 .46263124 .29299928 .46662904 .2630005 .46662904 .21398926 .46662904 .16699219 .45063783 .1309967 .4176178 .10398865 .39360047 .08999634 .35858155 .08999634 .32356263 .08999634 .29154969 .10798645 .26353456 .1309967 .2425232 .1539917 .22250366 .18399048 .2084961 .21499634 .1954956 .24099732 .18447876 .2689972 .17248535 .28799439 .1534729 .30299378 .13845825 .31399537 .11845398 .31399537 .09744263 .31399537 .079422 .30499269 .062408449 .29299928 .04940796 .27799989 .03340149 .25099183 .021392823 .22898865 .021392823 .19898987 .021392823 .17199707 .03439331 .1499939 .055404664 .1269989 .076416019 .116989139 .10644531 .114990238 .13645935L.100997928 .13745117 .051986696 .06642151Z"/>
<path id="font_2_11" d="M.09199524 .6121063H.1749878C.19999695 .6121063 .21998596 .5911102 .22099304 .56611636 .22200012 .5411072 .22200012 .46810914 .22200012 .41911317 .22200012 .27911378 .21899414 .13911438 .21398926 .00010681152L.22599793-.0048828127 .30999757 .022109986C.30699159 .09811401 .30699159 .29611207 .30699159 .43211366 .30699159 .52111819 .30899049 .6111145 .31399537 .70010378L.30799867 .7121124 .09199524 .6391144V.6121063Z"/>
<path id="font_2_4" d="M.11299133 .24990845C.11299133 .007904053 .1519928-.09008789 .18299866-.13310242 .21099854-.17008972 .25299073-.20809937 .30099488-.21209717V-.1880951C.2809906-.18409729 .25099183-.16809082 .23399353-.1481018 .21998596-.13209534 .16499329-.05809021 .16499329 .24990845 .16499329 .4618988 .19799805 .5659027 .21998596 .6128998 .23599243 .6469116 .2689972 .6769104 .30099488 .684906V.71191409C.2599945 .7049103 .21598816 .6729126 .19099427 .63790896 .1599884 .5919037 .11299133 .4748993 .11299133 .24990845Z"/>
<path id="font_2_6" d="M.085998538-.1880951V-.21209717C.13398743-.20610047 .1789856-.17208863 .20698548-.13510132 .23799134-.09210205 .27598573 .007904053 .27598573 .24990845 .27598573 .50090029 .22399903 .5919037 .19299317 .63790896 .16799927 .6729126 .1269989 .7049103 .085998538 .71191409V.684906C.117996219 .6759033 .14898682 .6469116 .16499329 .6128998 .18699646 .5659027 .22399903 .48190309 .22399903 .24990845 .22399903-.099090579 .17199707-.13209534 .1579895-.1481018 .14099121-.16809082 .10598755-.18409729 .085998538-.1880951Z"/>
<path id="font_2_15" d="M.011993408 .001953125H.44898988L.47200013 .079940799 .46699525 .08795166H.1579895C.15299988 .08795166 .147995 .08894348 .1459961 .092941287 .14498902 .094940189 .1459961 .09794617 .14698792 .09895325 .19699097 .1569519 .24499512 .21495056 .2899933 .27496339 .32199098 .31697084 .35299684 .358963 .37799073 .40496827 .4039917 .4509735 .42599488 .49998475 .42599488 .5529938 .42599488 .59399417 .4139862 .6349945 .38398744 .66400149 .35499574 .69299319 .31599427 .7080078 .2749939 .7080078 .23699951 .7080078 .20098877 .6970062 .16799927 .67900088 .12799073 .65800479 .09399414 .6279907 .06399536 .59498599L.083999637 .57598879C.10798645 .59599307 .12998963 .61099246 .1579895 .6259918 .1769867 .6360016 .19898987 .6399994 .22099304 .6399994 .25 .6399994 .27999879 .6289978 .2999878 .6069946 .32798768 .5779877 .33399964 .5369873 .33399964 .50798037 .33399964 .4429779 .31098939 .38197328 .27598573 .3259735 .24798584 .27996827 .21299744 .23796082 .17799378 .19696045 .125 .13494873 .068984989 .07594299 .011993408 .017944336V.001953125Z"/>
<path id="font_2_7" d="M.04598999 .23046875H.70399478L.70999148 .27046205H.052993776L.04598999 .23046875Z"/>
<path id="font_2_8" d="M.008987427 .3981018 .020996094 .38110353C.04598999 .39509584 .07598877 .41210938 .09899902 .41210938 .10998535 .41210938 .11999512 .4071045 .12599182 .39709474 .14199829 .37210084 .14199829 .2960968 .14199829 .24308777 .14099121 .16307068 .13699341 .07606506 .12998963 .0060577394L.14498902-.0029296876 .21499634 .018066407C.21299744 .110076908 .21299744 .20108032 .21299744 .29408265 .21299744 .3080902 .21398926 .32809449 .21899414 .3400879 .23098755 .3668213 .25498963 .40179444 .29599 .40179444 .33898927 .40179444 .34599305 .3598175 .34899903 .3438263L.36099244 .33883668 .4149933 .38780213C.41299439 .40979005 .40899659 .46679688 .33599855 .46679688 .30099488 .46679688 .24499512 .41479493 .22599793 .39678956L.21598816 .40078736C.21299744 .4210968 .20498657 .47309876 .14399719 .47309876 .10499573 .47309876 .033996583 .41810609 .008987427 .3981018Z"/>
<path id="font_2_9" d="M.016998291 .40538026 .021987915 .40039063H.13398743L.13999939 .39338685V.20327759C.13999939 .06820679 .14199829 .049209596 .16299439 .022201539 .18099976-.0018005371 .21199036-.0087890629 .23498535-.0087890629 .2619934-.0087890629 .2869873 .0012054443 .31098939 .014205933 .34298707 .031204224 .37199403 .05419922 .39898683 .07922363L.3919983 .09422302 .37998963 .096221927C.34999085 .07720947 .31399537 .0552063 .2889862 .0552063 .27198792 .0552063 .25698854 .06021118 .24398804 .07521057 .22200012 .099227908 .21798706 .16325379 .21798706 .20527649V.39437867L.22399903 .40039063H.34298707L.34899903 .40538026 .35699464 .43138124 .35198976 .43537904H.22399903L.21798706 .4403839C.21899414 .49838258 .22399903 .54937747 .22898865 .6063843L.22200012 .61138918 .13798523 .5823822C.13999939 .5563812 .13999939 .49238587 .13999939 .44137574L.13398743 .43537904H.02999878L.023986817 .42938233 .016998291 .40538026Z"/>
<path id="font_2_10" d="M-.01701355 .40115357-.006011963 .38215638C.016998291 .39414979 .04798889 .41015626 .06498718 .41015626 .07699585 .41015626 .08898926 .4061432 .09599304 .39614869 .10798645 .38015748 .11099243 .33815003 .11099243 .29415895 .11099243 .26815797 .10699463 .1771698 .10699463 .15716553 .10699463 .059173585 .12599182-.0078125 .21099854-.0078125 .27198792-.0078125 .36499024 .048187257 .39898683 .06918335L.40499879 .06417847C.39898683-.02079773 .4019928-.19143677 .2559967-.19143677 .21099854-.19143677 .17298889-.1525116 .1519928-.114593509H.13899231L.09498596-.17047119 .09700012-.18145752C.12399292-.20942688 .1769867-.23242188 .22399903-.23242188 .2919922-.23242188 .36299134-.20843506 .41099549-.15750122 .45999146-.10560608 .48399354-.049728395 .4850006 .13816834 .4850006 .15716553 .4850006 .37615968 .4909973 .46214295L.47898866 .466156 .3999939 .42814637C.40499879 .35914613 .4079895 .28715516 .4079895 .21516419 .4079895 .1791687 .40699769 .14317322 .4059906 .108169559 .38598634 .09617615 .32598878 .05618286 .27198792 .05618286 .20799256 .05618286 .18099976 .092178348 .18099976 .22616577 .18099976 .28416444 .18499756 .34214784 .18499756 .39814759 .18499756 .41914369 .17799378 .4681549 .12199402 .4681549 .07899475 .4681549-.009002686 .40715028-.01701355 .40115357Z"/>
</defs>
<use data-text="+" xlink:href="#font_2_1" transform="matrix(37.185197,0,0,-37.18505,98.4019,53.857934)"/>
<use data-text="A" xlink:href="#font_2_13" transform="matrix(21.519093,0,0,-21.519562,212.86754,49.718118)"/>
<use data-text="+" xlink:href="#font_2_1" transform="matrix(21.519093,0,0,-21.519562,234.2192,49.718118)"/>
<use data-text="B" xlink:href="#font_2_14" transform="matrix(21.519093,0,0,-21.519562,255.25801,38.481554)"/>
<path transform="matrix(1.4999856,0,0,-1.5000182,255.25801,44.336618)" stroke-width=".574019" stroke-linecap="butt" stroke-linejoin="round" fill="none" stroke="#000000" d="M0 0H9.399566"/>
<use data-text="s" xlink:href="#font_2_5" transform="matrix(21.519093,0,0,-21.519562,257.41059,60.95468)"/>
<use data-text="1" xlink:href="#font_2_11" transform="matrix(21.519129,0,0,-21.519562,425.00434,38.481554)"/>
<path transform="matrix(1.4999881,0,0,-1.5000182,363.13557,44.336618)" stroke-width=".574019" stroke-linecap="butt" stroke-linejoin="round" fill="none" stroke="#000000" d="M0 0H89.65323"/>
<use data-text="(" xlink:href="#font_2_4" transform="matrix(21.519129,0,0,-21.519562,363.13557,60.95468)"/>
<use data-text="s" xlink:href="#font_2_5" transform="matrix(21.519129,0,0,-21.519562,372.68055,60.95468)"/>
<use data-text="+" xlink:href="#font_2_1" transform="matrix(21.519129,0,0,-21.519562,387.25379,60.95468)"/>
<use data-text="1" xlink:href="#font_2_11" transform="matrix(21.519129,0,0,-21.519562,408.2827,60.95468)"/>
<use data-text=")" xlink:href="#font_2_6" transform="matrix(21.519129,0,0,-21.519562,420.21638,60.95468)"/>
<use data-text="(" xlink:href="#font_2_4" transform="matrix(21.519129,0,0,-21.519562,432.1524,60.95468)"/>
<use data-text="s" xlink:href="#font_2_5" transform="matrix(21.519129,0,0,-21.519562,441.6974,60.95468)"/>
<use data-text="+" xlink:href="#font_2_1" transform="matrix(21.519129,0,0,-21.519562,456.27064,60.95468)"/>
<use data-text="2" xlink:href="#font_2_15" transform="matrix(21.519129,0,0,-21.519562,477.29957,60.95468)"/>
<use data-text=")" xlink:href="#font_2_6" transform="matrix(21.519129,0,0,-21.519562,489.23323,60.95468)"/>
<path transform="matrix(1,0,0,-1,112.44139,44.337137)" stroke-width=".75" stroke-linecap="round" stroke-linejoin="round" fill="none" stroke="#000000" d="M249.92266-36.312475C250.18088-36.474985 249.91461-36.78885 250.72606-36.820135 296.12773-36.435438 340.93989-36.17996 384.79246-36.89257 399.35679-37.143754 400.96406-35.790575 400.892-21.158709 400.35713-6.156197 400.76564 7.182683 399.38993 20.529967 399.70338 36.20667 399.46589 35.99526 384.52693 37.09796 339.55406 35.730409 295.7658 36.78779 251.15143 36.308385 235.92719 36.019227 235.15026 35.642488 235.12024 21.171202 235.34037 7.246992 235.87686-8.005169 234.87029-20.218964 235.15174-35.632097 236.37258-35.729074 249.92266-36.312475Z"/>
<path transform="matrix(1,0,0,-1,112.44139,44.337137)" stroke-width=".75" stroke-linecap="round" stroke-linejoin="round" fill="none" stroke="#000000" d="M99.82137-36.29002C99.75012-35.501485 100.612438-35.371137 101.03482-35.504358 119.32873-35.693239 137.99658-35.715627 157.64844-36.626459 171.06757-36.368154 172.08408-36.25935 172.59357-21.081757 172.67348-6.668642 171.28954 6.665587 171.01177 21.458249 171.21167 35.358385 172.48464 35.90165 156.99427 36.07341 138.2648 35.733125 119.9326 35.209764 100.59635 36.17826 85.57571 36.558328 86.12059 35.480585 85.36064 22.069453 85.42961 7.747766 84.98597-6.333388 85.124149-22.14827 86.01059-36.411386 84.71632-36.889024 99.82137-36.29002Z"/>
<path transform="matrix(1,0,0,-1,112.44139,44.337137)" stroke-width=".75" stroke-linecap="round" stroke-linejoin="round" fill="none" stroke="#000000" d="M20.798329-.363211C21.84146 11.118339 12.60537 20.88963 .626958 21.800015-12.358039 22.041729-22.191748 11.389494-22.209124-.020603-21.397597-11.279222-11.464278-22.144257 .063757-21.175368 12.303103-21.079577 22.079844-12.123426 20.798329-.363211Z"/>
<path transform="matrix(1,0,0,-1,112.44139,44.337137)" stroke-width=".75" stroke-linecap="round" stroke-linejoin="round" fill="none" stroke="#000000" d="M-63.719499-.316295C-49.725049 .043399-35.572324 .337373-21.415116 .138567"/>
<path transform="matrix(1,0,0,-1,112.44139,44.337137)" stroke-width=".75" stroke-linecap="round" stroke-linejoin="round" fill="none" stroke="#000000" d="M-34.211545-8.058094C-30.896136-3.757579-26.760468-.863003-21.420588 .42262-26.249997 1.482328-31.095587 4.443072-33.89484 7.879727"/>
<path transform="matrix(1,0,0,-1,112.44139,44.337137)" stroke-width=".75" stroke-linecap="round" stroke-linejoin="round" fill="none" stroke="#000000" d="M21.424174-.201463C42.38336-.428356 64.1549 .389693 85.13589-.115969"/>
<path transform="matrix(1,0,0,-1,112.44139,44.337137)" stroke-width=".75" stroke-linecap="round" stroke-linejoin="round" fill="none" stroke="#000000" d="M72.26605-7.866007C75.9098-4.45134 79.7237-1.1259 85.36362 .124317 80.361667 .911756 75.93309 4.036481 72.37456 8.351054"/>
<path transform="matrix(1,0,0,-1,112.44139,44.337137)" stroke-width=".75" stroke-linecap="round" stroke-linejoin="round" fill="none" stroke="#000000" d="M172.03627 .014769C193.2285-.301479 213.78095 .072187 235.54587 .239221"/>
<path transform="matrix(1,0,0,-1,112.44139,44.337137)" stroke-width=".75" stroke-linecap="round" stroke-linejoin="round" fill="none" stroke="#000000" d="M222.5598-7.695585C226.12856-3.949948 230.27088-1.284523 235.59838 .142372 230.14865 1.24227 225.49958 4.426474 222.59127 8.385553"/>
<path transform="matrix(1,0,0,-1,112.44139,44.337137)" stroke-width=".75" stroke-linecap="round" stroke-linejoin="round" fill="none" stroke="#000000" d="M400.0343 .178901C428.71617-.074186 456.58143-.436153 484.90586-.092415"/>
<path transform="matrix(1,0,0,-1,112.44139,44.337137)" stroke-width=".75" stroke-linecap="round" stroke-linejoin="round" fill="none" stroke="#000000" d="M472.61195-7.676912C475.28565-3.629214 480.64234-.931535 485.17469-.226011 479.98124 1.204811 475.90388 4.066604 472.29533 8.007441"/>
<path transform="matrix(1,0,0,-1,112.44139,44.337137)" stroke-width=".75" stroke-linecap="round" stroke-linejoin="round" fill="none" stroke="#000000" d="M442.61555-.300969C442.53788-26.118185 442.4849-52.674894 442.75965-78.801059 400.9698-79.11558 359.42097-78.609409 318.32435-78.64878 211.88031-79.11575 105.86272-78.67645 .115141-78.315319 .201641-59.411264-.29509-40.61366-.111657-21.64955"/>
<path transform="matrix(1,0,0,-1,112.44139,44.337137)" stroke-width=".75" stroke-linecap="round" stroke-linejoin="round" fill="none" stroke="#000000" d="M7.702587-35.062379C4.208457-31.37679 1.178713-26.986168 .182892-22.382977-.745237-26.892075-4.257674-31.667675-8.49747-34.98099"/>
<path transform="matrix(1,0,0,-1,112.44139,44.337137)" stroke-width=".75" stroke-linecap="round" stroke-linejoin="round" fill="none" stroke="#000000" d="M250.68334-36.503934C250.6814-35.626554 251.42179-35.90126 250.53276-35.705675 295.8143-36.560026 339.49339-36.84372 385.3148-35.960046 400.662-37.051054 400.2585-37.112394 399.6932-20.242388 400.75044-6.394448 399.50218 6.758725 401.1202 20.920996 399.82975 35.701627 400.94493 35.472826 385.775 37.148286 341.0789 35.403158 295.27577 36.658449 250.89856 36.202375 236.25572 35.77332 235.29496 36.407896 235.52318 21.05692 235.6888 7.586951 235.81793-6.424156 234.74495-20.354294 235.96268-35.224058 236.21637-36.661314 250.68334-36.503934Z"/>
<path transform="matrix(1,0,0,-1,112.44139,44.337137)" stroke-width=".75" stroke-linecap="round" stroke-linejoin="round" fill="none" stroke="#000000" d="M101.383609-36.13177C100.50877-36.314538 99.53203-36.574296 101.22054-35.42948 119.99144-35.57052 137.6403-35.742528 156.0915-35.96908 172.65959-36.810525 171.60378-36.144849 172.08856-21.717619 171.39267-7.526612 171.24387 7.40311 172.3064 20.722903 171.24877 36.356634 171.97713 35.910676 157.57239 35.687067 138.36167 36.680185 120.12779 36.7908 101.35204 35.498258 86.18001 35.37894 84.7155 36.058084 85.44728 21.858563 85.27386 7.365727 84.81693-6.48953 84.83764-20.72158 85.08952-36.654516 85.457309-35.92751 101.383609-36.13177Z"/>
<path transform="matrix(1,0,0,-1,112.44139,44.337137)" stroke-width=".75" stroke-linecap="round" stroke-linejoin="round" fill="none" stroke="#000000" d="M22.338925-.921244C21.004124 12.143799 12.692164 21.73931 .860389 21.809388-12.183638 20.732117-22.162362 11.917601-21.2261 .267699-22.605078-11.876571-11.577137-21.27074 .67577-21.924048 11.753423-21.6191 20.777377-12.491759 22.338925-.921244Z"/>
<path transform="matrix(1,0,0,-1,112.44139,44.337137)" stroke-width=".75" stroke-linecap="round" stroke-linejoin="round" fill="none" stroke="#000000" d="M-63.58811 .253138C-50.117898 .348056-35.84148 .400424-21.736264 .358249"/>
<path transform="matrix(1,0,0,-1,112.44139,44.337137)" stroke-width=".75" stroke-linecap="round" stroke-linejoin="round" fill="none" stroke="#000000" d="M-34.52971-8.103363C-31.31311-4.049934-26.462025-1.290618-22.001528 .190907-26.262017 1.404537-31.153025 4.260516-33.85482 7.979632"/>
<path transform="matrix(1,0,0,-1,112.44139,44.337137)" stroke-width=".75" stroke-linecap="round" stroke-linejoin="round" fill="none" stroke="#000000" d="M21.461535 .416269C42.872686 .350142 63.85936 .234787 85.334079-.384761"/>
<path transform="matrix(1,0,0,-1,112.44139,44.337137)" stroke-width=".75" stroke-linecap="round" stroke-linejoin="round" fill="none" stroke="#000000" d="M72.3189-8.25515C75.879459-4.040647 80.342319-1.522995 85.49845-.171306 79.62693 1.565185 75.59163 3.594583 72.56887 7.713982"/>
<path transform="matrix(1,0,0,-1,112.44139,44.337137)" stroke-width=".75" stroke-linecap="round" stroke-linejoin="round" fill="none" stroke="#000000" d="M171.89234-.254779C193.17378 .098691 214.07204-.042256 235.04177 .02875"/>
<path transform="matrix(1,0,0,-1,112.44139,44.337137)" stroke-width=".75" stroke-linecap="round" stroke-linejoin="round" fill="none" stroke="#000000" d="M222.67488-7.806358C225.96866-3.840374 230.49488-1.063098 235.16524-.247982 230.58652 .734092 226.22255 4.044706 222.62073 8.312476"/>
<path transform="matrix(1,0,0,-1,112.44139,44.337137)" stroke-width=".75" stroke-linecap="round" stroke-linejoin="round" fill="none" stroke="#000000" d="M400.2304-.32302C428.6147-.066141 456.50367-.263606 485.46208 .129262"/>
<path transform="matrix(1,0,0,-1,112.44139,44.337137)" stroke-width=".75" stroke-linecap="round" stroke-linejoin="round" fill="none" stroke="#000000" d="M472.55058-8.500313C475.34367-4.208893 480.23283-1.048158 485.23896 .410053 480.59996 1.168467 475.5415 4.354424 472.24397 7.615818"/>
<path transform="matrix(1,0,0,-1,112.44139,44.337137)" stroke-width=".75" stroke-linecap="round" stroke-linejoin="round" fill="none" stroke="#000000" d="M442.7544-.323933C442.94584-26.510663 442.98497-52.160875 442.82514-79.011608 401.29728-78.32843 359.19544-78.38962 318.34907-78.771579 211.86821-78.77324 106.01417-78.86703 .403543-78.62489 .425928-59.989568 .362512-41.210294-.219176-21.615347"/>
<path transform="matrix(1,0,0,-1,112.44139,44.337137)" stroke-width=".75" stroke-linecap="round" stroke-linejoin="round" fill="none" stroke="#000000" d="M8.048501-34.7582C4.26962-31.237925 1.417308-26.657393 .06496-22.465174-1.116496-27.443083-3.6448-31.938624-7.706839-34.66361"/>
<path transform="matrix(1,0,0,-1,112.44139,44.337137)" stroke-width=".75" stroke-linecap="round" stroke-linejoin="round" fill="none" stroke="#000000" d="M251.16019-36.265996C251.18135-35.33672 251.10276-36.256746 251.32506-36.9649 295.00309-36.438688 340.95033-35.965635 384.614-35.84762 399.23789-35.784124 399.32746-36.66569 399.99333-22.098284 399.96257-7.791753 401.00263 6.178007 400.1408 22.127429 400.5324 35.80351 399.79399 37.034708 384.53465 36.73262 340.4456 36.257467 295.10359 36.690576 251.31603 35.953725 234.87075 37.076623 235.92896 36.36057 236.17726 20.569647 236.47061 6.904191 235.84304-7.985288 236.6166-21.63488 235.78594-36.015398 235.25778-35.444089 251.16019-36.265996Z"/>
<path transform="matrix(1,0,0,-1,112.44139,44.337137)" stroke-width=".75" stroke-linecap="round" stroke-linejoin="round" fill="none" stroke="#000000" d="M100.22148-36.901739C99.68639-37.047464 100.77942-36.200513 99.75431-37.124605 118.71322-35.69599 138.07-35.601079 157.34343-37.09488 172.14664-36.178773 171.03156-36.252565 170.9737-20.29891 171.71849-6.809787 172.11557 6.502426 172.8474 20.430939 171.01288 36.128587 171.80013 35.822828 156.91498 35.322019 138.52483 36.86564 118.29567 36.40032 101.12504 36.567914 85.00113 36.461008 85.280239 36.13452 85.99033 21.741042 86.26862 6.129432 85.68693-6.129866 85.70173-21.879803 86.34075-35.437047 85.91066-36.088289 100.22148-36.901739Z"/>
<path transform="matrix(1,0,0,-1,112.44139,44.337137)" stroke-width=".75" stroke-linecap="round" stroke-linejoin="round" fill="none" stroke="#000000" d="M22.10361 .14851C21.878226 11.125988 11.063189 21.339537 .82922 21.618323-12.743988 22.49118-20.988099 12.664024-21.73407 .338446-22.573689-12.217154-12.857401-21.895045 .141417-21.815747 11.841057-21.46922 21.64223-11.546728 22.10361 .14851Z"/>
<path transform="matrix(1,0,0,-1,112.44139,44.337137)" stroke-width=".75" stroke-linecap="round" stroke-linejoin="round" fill="none" stroke="#000000" d="M-63.443555 .35734C-49.912164-.236771-35.5309 .36235-21.536459 .070613"/>
<path transform="matrix(1,0,0,-1,112.44139,44.337137)" stroke-width=".75" stroke-linecap="round" stroke-linejoin="round" fill="none" stroke="#000000" d="M-34.53743-8.033938C-31.54371-4.091013-26.985495-.917466-22.038863-.376316-26.408217 1.124887-30.868353 3.821183-33.857374 7.814691"/>
<path transform="matrix(1,0,0,-1,112.44139,44.337137)" stroke-width=".75" stroke-linecap="round" stroke-linejoin="round" fill="none" stroke="#000000" d="M21.289963 .236029C42.86083 .12317 64.29007-.320552 84.756969 .40013"/>
<path transform="matrix(1,0,0,-1,112.44139,44.337137)" stroke-width=".75" stroke-linecap="round" stroke-linejoin="round" fill="none" stroke="#000000" d="M72.05716-8.343593C75.15237-3.963537 79.68708-.719269 84.91375 .394216 80.16203 1.02975 75.4134 3.92954 72.33255 8.264892"/>
<path transform="matrix(1,0,0,-1,112.44139,44.337137)" stroke-width=".75" stroke-linecap="round" stroke-linejoin="round" fill="none" stroke="#000000" d="M172.25614 .364077C193.4576-.121511 214.22687-.361225 235.40096 .341604"/>
<path transform="matrix(1,0,0,-1,112.44139,44.337137)" stroke-width=".75" stroke-linecap="round" stroke-linejoin="round" fill="none" stroke="#000000" d="M222.67482-8.21467C225.8005-3.785184 230.51976-1.025516 235.352 .38625 230.32703 .882651 226.07149 3.886733 222.89369 8.082365"/>
<path transform="matrix(1,0,0,-1,112.44139,44.337137)" stroke-width=".75" stroke-linecap="round" stroke-linejoin="round" fill="none" stroke="#000000" d="M399.75465-.101908C428.27565-.036988 456.87629-.316981 485.23048-.21868"/>
<path transform="matrix(1,0,0,-1,112.44139,44.337137)" stroke-width=".75" stroke-linecap="round" stroke-linejoin="round" fill="none" stroke="#000000" d="M472.58506-7.728702C475.4373-4.403153 480.39176-1.183556 485.52394 .382917 479.81413 .780512 475.95008 3.971544 472.26289 8.19226"/>
<path transform="matrix(1,0,0,-1,112.44139,44.337137)" stroke-width=".75" stroke-linecap="round" stroke-linejoin="round" fill="none" stroke="#000000" d="M442.27229-.39056C442.41059-26.604254 442.86268-52.32043 443.06437-78.40032 400.9311-78.71102 359.47383-78.28316 318.21937-79.03548 212.34937-78.71194 106.055667-78.36601-.218644-78.8066-.165625-59.426919 .227015-40.917234 .385873-22.266858"/>
<path transform="matrix(1,0,0,-1,112.44139,44.337137)" stroke-width=".75" stroke-linecap="round" stroke-linejoin="round" fill="none" stroke="#000000" d="M7.885536-34.640104C3.851328-31.951289 1.396017-26.895529-.21487-21.957449-1.554248-26.658022-3.851252-31.63774-8.467996-34.33615"/>
<path transform="matrix(1,0,0,-1,112.44139,44.337137)" stroke-width=".75" stroke-linecap="round" stroke-linejoin="round" fill="none" stroke="#000000" d="M250.42459-35.499795C250.03694-35.20715 249.94573-36.15786 251.46616-36.75809 296.1319-36.337358 340.08363-36.167573 386.04307-36.826326 399.94197-37.081193 400.1814-37.14777 400.82218-21.734519 399.60337-7.411688 400.8888 7.708334 400.74876 20.61324 399.397 37.06924 400.50938 36.937349 384.74485 37.108228 339.8305 36.044717 295.2487 36.602048 250.32115 35.908929 234.76277 36.104356 235.33432 37.02244 235.11843 21.284165 235.66309 7.021982 236.12097-7.514831 235.29967-21.5798 235.69319-36.203069 236.21384-36.66348 250.42459-35.499795Z"/>
<path transform="matrix(1,0,0,-1,112.44139,44.337137)" stroke-width=".75" stroke-linecap="round" stroke-linejoin="round" fill="none" stroke="#000000" d="M99.86642-36.28488C100.96507-35.804498 100.262058-35.765546 100.58697-35.899805 118.759769-36.07352 138.92528-36.009786 157.5243-36.7201 170.95749-35.419446 172.68614-35.807767 172.384-22.052117 171.80257-7.095933 172.87494 7.780314 172.03353 20.330973 171.53351 35.900938 171.03087 35.64135 157.374 36.41173 137.25598 35.521879 119.35814 35.31997 100.310169 36.07898 86.195819 36.262907 86.123188 37.02361 85.93276 21.685805 85.802417 7.540592 85.10384-7.914398 84.57899-20.885712 85.96566-36.44107 84.50518-36.823015 99.86642-36.28488Z"/>
<path transform="matrix(1,0,0,-1,112.44139,44.337137)" stroke-width=".75" stroke-linecap="round" stroke-linejoin="round" fill="none" stroke="#000000" d="M22.27088 .807461C21.227696 11.644679 12.093412 22.158219 .881015 20.823407-12.787035 21.73994-21.985013 12.734199-20.915898 .5849-21.749888-12.066823-12.383952-21.804793-.838409-21.731112 11.13437-20.910637 21.823077-12.193889 22.27088 .807461Z"/>
<path transform="matrix(1,0,0,-1,112.44139,44.337137)" stroke-width=".75" stroke-linecap="round" stroke-linejoin="round" fill="none" stroke="#000000" d="M-63.356904-.222406C-49.34963 .122812-35.707735 .183755-21.928017-.180001"/>
<path transform="matrix(1,0,0,-1,112.44139,44.337137)" stroke-width=".75" stroke-linecap="round" stroke-linejoin="round" fill="none" stroke="#000000" d="M-34.02144-8.293948C-31.374985-4.153992-26.375086-1.247914-21.863095 .397659-26.925372 1.492592-31.060809 3.969163-34.053594 8.484652"/>
<path transform="matrix(1,0,0,-1,112.44139,44.337137)" stroke-width=".75" stroke-linecap="round" stroke-linejoin="round" fill="none" stroke="#000000" d="M21.992177-.25923C42.58126-.109945 64.33763 .106911 84.67685 .406702"/>
<path transform="matrix(1,0,0,-1,112.44139,44.337137)" stroke-width=".75" stroke-linecap="round" stroke-linejoin="round" fill="none" stroke="#000000" d="M72.71698-7.647891C76.00266-3.876566 79.91423-1.558687 85.42601 .238941 80.28699 1.363668 75.454029 4.299449 72.40575 7.833025"/>
<path transform="matrix(1,0,0,-1,112.44139,44.337137)" stroke-width=".75" stroke-linecap="round" stroke-linejoin="round" fill="none" stroke="#000000" d="M172.26848 .409211C193.27188 .022235 214.53543-.097265 234.99813 .017173"/>
<path transform="matrix(1,0,0,-1,112.44139,44.337137)" stroke-width=".75" stroke-linecap="round" stroke-linejoin="round" fill="none" stroke="#000000" d="M222.5212-8.280171C225.79193-4.236757 229.87149-1.232632 235.31177 .185405 230.38626 .947545 225.41342 4.39475 222.65201 8.464472"/>
<path transform="matrix(1,0,0,-1,112.44139,44.337137)" stroke-width=".75" stroke-linecap="round" stroke-linejoin="round" fill="none" stroke="#000000" d="M399.73356 .364965C428.1851 .148117 456.79347 .09978 485.63139 .023716"/>
<path transform="matrix(1,0,0,-1,112.44139,44.337137)" stroke-width=".75" stroke-linecap="round" stroke-linejoin="round" fill="none" stroke="#000000" d="M472.1271-7.953099C475.46549-3.94679 480.3134-1.314535 484.78874 .387524 480.39466 .965853 475.76637 4.316176 472.37763 7.765703"/>
<path transform="matrix(1,0,0,-1,112.44139,44.337137)" stroke-width=".75" stroke-linecap="round" stroke-linejoin="round" fill="none" stroke="#000000" d="M442.97706 .364111C442.69453-26.453675 442.47013-52.889726 442.8176-78.721858 401.55323-78.51208 359.35606-78.37339 317.7927-78.9238 211.77936-79.113269 106.37163-78.490367-.393314-78.38968-.369322-59.53465 .434077-41.181558 .114808-22.223816"/>
<path transform="matrix(1,0,0,-1,112.44139,44.337137)" stroke-width=".75" stroke-linecap="round" stroke-linejoin="round" fill="none" stroke="#000000" d="M7.620992-34.343667C4.252018-31.624524 .795468-26.913399 .419626-22.050877-1.466115-26.972149-3.642411-31.111445-7.996304-34.6104"/>
<path transform="matrix(1,0,0,-1,112.44139,44.337137)" stroke-width=".75" stroke-linecap="round" stroke-linejoin="round" fill="none" stroke="#000000" d="M250.59214-36.288305C250.10094-36.252614 249.99478-35.33901 250.19008-36.191823 296.47956-35.95108 340.23066-36.536359 384.66865-35.566637 399.78083-36.24531 399.58494-36.010576 400.3744-21.296349 400.3626-6.110877 399.4139 7.204703 399.33503 21.944191 400.07438 36.629289 399.3705 37.11693 386.0696 35.380865 340.6068 36.694257 296.4231 36.27485 250.31063 35.291296 235.57767 36.776514 234.98851 37.125097 235.19261 21.9139 235.16722 6.509425 234.8698-7.805131 236.32032-21.195916 236.21854-36.48781 235.63277-36.08501 250.59214-36.288305Z"/>
<path transform="matrix(1,0,0,-1,112.44139,44.337137)" stroke-width=".75" stroke-linecap="round" stroke-linejoin="round" fill="none" stroke="#000000" d="M100.914669-36.010354C100.51935-36.938146 99.80011-36.99751 99.9132-36.81586 118.60961-36.60202 137.26187-36.57658 157.20449-35.52421 172.36003-35.262289 172.0219-35.395837 172.72037-20.61351 171.6294-6.122241 171.85767 6.325917 172.14899 20.20793 171.42757 36.86072 171.70359 36.75276 157.09534 36.564996 138.37206 35.889699 119.61553 36.50769 101.21484 35.39661 84.9956 35.265596 84.4789 35.275209 85.19927 20.916949 84.61057 7.330021 85.59366-7.756423 85.21108-21.378424 86.18148-35.628576 86.391017-36.85595 100.914669-36.010354Z"/>
<path transform="matrix(1,0,0,-1,112.44139,44.337137)" stroke-width=".75" stroke-linecap="round" stroke-linejoin="round" fill="none" stroke="#000000" d="M21.0627 .85386C22.422976 12.810401 12.250999 20.713458-.183842 20.681-11.235465 22.391594-22.490767 11.959412-21.79541-.596723-21.193699-11.857132-11.979462-22.323605-.249625-21.431414 12.713155-22.53589 21.16193-11.297311 21.0627 .85386Z"/>
<path transform="matrix(1,0,0,-1,112.44139,44.337137)" stroke-width=".75" stroke-linecap="round" stroke-linejoin="round" fill="none" stroke="#000000" d="M-63.484025 .076985C-50.10232 .115506-35.700929-.24632-21.483864 .337045"/>
<path transform="matrix(1,0,0,-1,112.44139,44.337137)" stroke-width=".75" stroke-linecap="round" stroke-linejoin="round" fill="none" stroke="#000000" d="M-34.46977-8.21048C-30.964354-4.302109-26.236947-1.024518-21.460337 .336216-26.551239 .765803-31.218207 4.219722-34.504125 8.49758"/>
<path transform="matrix(1,0,0,-1,112.44139,44.337137)" stroke-width=".75" stroke-linecap="round" stroke-linejoin="round" fill="none" stroke="#000000" d="M21.229693 .226417C42.69302-.065592 63.660829 .336243 85.0765-.073161"/>
<path transform="matrix(1,0,0,-1,112.44139,44.337137)" stroke-width=".75" stroke-linecap="round" stroke-linejoin="round" fill="none" stroke="#000000" d="M72.19216-8.4123C75.583118-3.553775 79.65745-.844757 85.48786 .116798 79.94844 .863278 75.871 4.408365 72.6535 7.713929"/>
<path transform="matrix(1,0,0,-1,112.44139,44.337137)" stroke-width=".75" stroke-linecap="round" stroke-linejoin="round" fill="none" stroke="#000000" d="M171.95464-.373882C192.7978-.383306 214.42638 .340704 235.34322 .079303"/>
<path transform="matrix(1,0,0,-1,112.44139,44.337137)" stroke-width=".75" stroke-linecap="round" stroke-linejoin="round" fill="none" stroke="#000000" d="M222.35637-8.364565C225.5522-3.773115 230.13648-1.494918 235.20334 .172455 229.98276 1.326673 225.78073 3.891697 222.51959 8.298324"/>
<path transform="matrix(1,0,0,-1,112.44139,44.337137)" stroke-width=".75" stroke-linecap="round" stroke-linejoin="round" fill="none" stroke="#000000" d="M400.02775 .054241C428.7822 .448863 456.89805 .136147 484.85404-.190038"/>
<path transform="matrix(1,0,0,-1,112.44139,44.337137)" stroke-width=".75" stroke-linecap="round" stroke-linejoin="round" fill="none" stroke="#000000" d="M472.75956-8.187309C476.132-4.415768 479.99687-.804777 485.36134 .127249 480.26487 .765793 475.46214 4.318898 472.80549 8.209446"/>
<path transform="matrix(1,0,0,-1,112.44139,44.337137)" stroke-width=".75" stroke-linecap="round" stroke-linejoin="round" fill="none" stroke="#000000" d="M442.84999-.148904C442.7984-26.168108 442.84187-52.322866 442.64067-78.54025 400.92903-78.89116 359.9456-79.05848 317.99049-78.306308 211.56993-79.02456 106.15854-78.46922 .417524-78.97315-.053361-59.407159-.244634-41.252187 .366104-22.44698"/>
<path transform="matrix(1,0,0,-1,112.44139,44.337137)" stroke-width=".75" stroke-linecap="round" stroke-linejoin="round" fill="none" stroke="#000000" d="M8.420771-34.816404C4.142896-31.117663 1.086209-27.401135-.310319-21.84765-1.087962-27.215495-4.443697-31.836979-8.17781-34.279825"/>
<use data-text="+" xlink:href="#font_2_1" transform="matrix(21.519354,0,0,-21.519316,74.392108,36.594316)"/>
<use data-text="&#x2212;" xlink:href="#font_2_7" transform="matrix(21.519371,0,0,-21.519288,118.5913,74.94653)"/>
<use data-text="r" xlink:href="#font_2_8" transform="matrix(21.519349,0,0,-21.519398,6.8143007,49.718408)"/>
<use data-text="(" xlink:href="#font_2_4" transform="matrix(21.519349,0,0,-21.519398,16.11066,49.718408)"/>
<use data-text="t" xlink:href="#font_2_9" transform="matrix(21.519349,0,0,-21.519398,25.65578,49.718408)"/>
<use data-text=")" xlink:href="#font_2_6" transform="matrix(21.519349,0,0,-21.519398,35.803449,49.718408)"/>
<use data-text="y" xlink:href="#font_2_10" transform="matrix(21.519242,0,0,-21.519371,602.5179,49.4924)"/>
<use data-text="(" xlink:href="#font_2_4" transform="matrix(21.519242,0,0,-21.519371,615.2789,49.4924)"/>
<use data-text="t" xlink:href="#font_2_9" transform="matrix(21.519242,0,0,-21.519371,624.824,49.4924)"/>
<use data-text=")" xlink:href="#font_2_6" transform="matrix(21.519242,0,0,-21.519371,634.97158,49.4924)"/>
</svg>
