<svg xmlns="http://www.w3.org/2000/svg" xmlns:xlink="http://www.w3.org/1999/xlink" version="1.1" width="518.9132" height="107.82016" viewBox="0 0 518.9132 107.82016">
<defs>
<path id="font_0_1" d="M.04598999 .23632813H.35598756V-.07368469L.3959961-.06668091V.23632813H.70399478L.70899966 .2763214H.3959961V.58631899L.35598756 .58032229V.2763214H.052993776L.04598999 .23632813Z"/>
<path id="font_0_2" d="M.04899597 .6591797C.049987794 .6591797 .08999634 .647171 .10998535 .6411743 .116989139 .63916018 .12098694 .63217166 .12399292 .62615969 .12799073 .61616519 .1289978 .6051636 .1289978 .59516909V.14816284L.12599182 .001159668 .13699341-.0038452149 .21798706 .025161744C.21199036 .122161868 .21199036 .22015381 .21199036 .318161L.22099304 .3191681C.32899476 .2101593 .44099427 .105163577 .54599-.0068359377L.6309967 .024154664 .6319885 .03515625C.57099917 .089157108 .4059906 .25315858 .29899598 .36016847 .29499818 .36416627 .2939911 .36616517 .2939911 .36915589 .2939911 .37216188 .29899598 .37716676 .3019867 .38015748L.59298709 .6741791 .59399417 .6831665H.5039978L.21699524 .35716249 .20899964 .35816957C.20899964 .4711609 .21398926 .59916689 .21598816 .62615969 .21598816 .62716677 .21998596 .6641693 .22399903 .676178L.21699524 .6831665H.05899048L.050994874 .676178 .04899597 .6591797Z"/>
<path id="font_0_3" d="M.08999634 .32458497C.08999634 .22958374 .114990238 .13148499 .18299866 .06341553 .23699951 .009384155 .31199647-.016601563 .3880005-.016601563 .46099855-.016601563 .56900027 .010391235 .6569977 .03338623 .6569977 .03338623 .6539917 .216568 .6519928 .30760194L.37599183 .2966156V.27061463L.38198854 .265625C.43598939 .26361085 .5 .25961305 .5439911 .25660707 .57199099 .25460816 .57199099 .22257996 .57199099 .13449097 .57199099 .061416627 .56900027 .04940796 .5519867 .045394899 .5209961 .038391115 .48999024 .03538513 .45799256 .03538513 .37998963 .03538513 .30599977 .060409547 .2619934 .112472537 .20399475 .18052674 .17999268 .25260926 .17999268 .3405609 .17999268 .48339845 .23199463 .5653076 .26098634 .5942688 .3039856 .63623049 .36299134 .6502075 .42199708 .6502075 .5529938 .6502075 .59298709 .5563202 .60598757 .53034976L.6179962 .5293579 .6759949 .58628848C.6649933 .6032715 .6119995 .69921877 .46699525 .69921877 .3619995 .69921877 .25698854 .6682129 .18199158 .593277 .11199951 .5233612 .08999634 .4224701 .08999634 .32458497Z"/>
<path id="font_0_4" d="M.11299133 .24990845C.11299133 .007904053 .1519928-.09008789 .18299866-.13310242 .21099854-.17008972 .25299073-.20809937 .30099488-.21209717V-.1880951C.2809906-.18409729 .25099183-.16809082 .23399353-.1481018 .21998596-.13209534 .16499329-.05809021 .16499329 .24990845 .16499329 .4618988 .19799805 .5659027 .21998596 .6128998 .23599243 .6469116 .2689972 .6769104 .30099488 .684906V.71191409C.2599945 .7049103 .21598816 .6729126 .19099427 .63790896 .1599884 .5919037 .11299133 .4748993 .11299133 .24990845Z"/>
<path id="font_0_5" d="M.051986696 .06642151C.06199646 .047409059 .07598877 .030395508 .09199524 .01638794 .12098694-.009613037 .16099549-.016601563 .19898987-.016601563 .2559967-.016601563 .31199647 .0023956299 .35099793 .044403078 .375 .06941223 .3869934 .10343933 .3869934 .13845825 .3869934 .1634674 .37298585 .18649292 .35499574 .20449829 .34098817 .21850586 .3039856 .24052429 .27198792 .25453187 .24299622 .26654054 .19999695 .2885437 .18798828 .30055238 .17298889 .31655885 .1619873 .3285675 .1619873 .35058595 .1619873 .3725891 .16899109 .39360047 .18499756 .4086151 .19999695 .42362977 .22200012 .43164063 .24398804 .43164063 .2639923 .43164063 .2849884 .42462159 .29599 .4066162 .30599977 .39060975 .30799867 .3715973 .30899049 .35359193L.32099916 .34657289 .37599183 .38360597C.375 .40560914 .3639984 .42662049 .34799195 .44163514 .32499696 .46263124 .29299928 .46662904 .2630005 .46662904 .21398926 .46662904 .16699219 .45063783 .1309967 .4176178 .10398865 .39360047 .08999634 .35858155 .08999634 .32356263 .08999634 .29154969 .10798645 .26353456 .1309967 .2425232 .1539917 .22250366 .18399048 .2084961 .21499634 .1954956 .24099732 .18447876 .2689972 .17248535 .28799439 .1534729 .30299378 .13845825 .31399537 .11845398 .31399537 .09744263 .31399537 .079422 .30499269 .062408449 .29299928 .04940796 .27799989 .03340149 .25099183 .021392823 .22898865 .021392823 .19898987 .021392823 .17199707 .03439331 .1499939 .055404664 .1269989 .076416019 .116989139 .10644531 .114990238 .13645935L.100997928 .13745117 .051986696 .06642151Z"/>
<path id="font_0_6" d="M.085998538-.1880951V-.21209717C.13398743-.20610047 .1789856-.17208863 .20698548-.13510132 .23799134-.09210205 .27598573 .007904053 .27598573 .24990845 .27598573 .50090029 .22399903 .5919037 .19299317 .63790896 .16799927 .6729126 .1269989 .7049103 .085998538 .71191409V.684906C.117996219 .6759033 .14898682 .6469116 .16499329 .6128998 .18699646 .5659027 .22399903 .48190309 .22399903 .24990845 .22399903-.099090579 .17199707-.13209534 .1579895-.1481018 .14099121-.16809082 .10598755-.18409729 .085998538-.1880951Z"/>
<path id="font_0_7" d="M.04598999 .23046875H.70399478L.70999148 .27046205H.052993776L.04598999 .23046875Z"/>
<path id="font_0_8" d="M.008987427 .3981018 .020996094 .38110353C.04598999 .39509584 .07598877 .41210938 .09899902 .41210938 .10998535 .41210938 .11999512 .4071045 .12599182 .39709474 .14199829 .37210084 .14199829 .2960968 .14199829 .24308777 .14099121 .16307068 .13699341 .07606506 .12998963 .0060577394L.14498902-.0029296876 .21499634 .018066407C.21299744 .110076908 .21299744 .20108032 .21299744 .29408265 .21299744 .3080902 .21398926 .32809449 .21899414 .3400879 .23098755 .3668213 .25498963 .40179444 .29599 .40179444 .33898927 .40179444 .34599305 .3598175 .34899903 .3438263L.36099244 .33883668 .4149933 .38780213C.41299439 .40979005 .40899659 .46679688 .33599855 .46679688 .30099488 .46679688 .24499512 .41479493 .22599793 .39678956L.21598816 .40078736C.21299744 .4210968 .20498657 .47309876 .14399719 .47309876 .10499573 .47309876 .033996583 .41810609 .008987427 .3981018Z"/>
<path id="font_0_9" d="M.016998291 .40538026 .021987915 .40039063H.13398743L.13999939 .39338685V.20327759C.13999939 .06820679 .14199829 .049209596 .16299439 .022201539 .18099976-.0018005371 .21199036-.0087890629 .23498535-.0087890629 .2619934-.0087890629 .2869873 .0012054443 .31098939 .014205933 .34298707 .031204224 .37199403 .05419922 .39898683 .07922363L.3919983 .09422302 .37998963 .096221927C.34999085 .07720947 .31399537 .0552063 .2889862 .0552063 .27198792 .0552063 .25698854 .06021118 .24398804 .07521057 .22200012 .099227908 .21798706 .16325379 .21798706 .20527649V.39437867L.22399903 .40039063H.34298707L.34899903 .40538026 .35699464 .43138124 .35198976 .43537904H.22399903L.21798706 .4403839C.21899414 .49838258 .22399903 .54937747 .22898865 .6063843L.22200012 .61138918 .13798523 .5823822C.13999939 .5563812 .13999939 .49238587 .13999939 .44137574L.13398743 .43537904H.02999878L.023986817 .42938233 .016998291 .40538026Z"/>
<path id="font_0_10" d="M-.01701355 .40115357-.006011963 .38215638C.016998291 .39414979 .04798889 .41015626 .06498718 .41015626 .07699585 .41015626 .08898926 .4061432 .09599304 .39614869 .10798645 .38015748 .11099243 .33815003 .11099243 .29415895 .11099243 .26815797 .10699463 .1771698 .10699463 .15716553 .10699463 .059173585 .12599182-.0078125 .21099854-.0078125 .27198792-.0078125 .36499024 .048187257 .39898683 .06918335L.40499879 .06417847C.39898683-.02079773 .4019928-.19143677 .2559967-.19143677 .21099854-.19143677 .17298889-.1525116 .1519928-.114593509H.13899231L.09498596-.17047119 .09700012-.18145752C.12399292-.20942688 .1769867-.23242188 .22399903-.23242188 .2919922-.23242188 .36299134-.20843506 .41099549-.15750122 .45999146-.10560608 .48399354-.049728395 .4850006 .13816834 .4850006 .15716553 .4850006 .37615968 .4909973 .46214295L.47898866 .466156 .3999939 .42814637C.40499879 .35914613 .4079895 .28715516 .4079895 .21516419 .4079895 .1791687 .40699769 .14317322 .4059906 .108169559 .38598634 .09617615 .32598878 .05618286 .27198792 .05618286 .20799256 .05618286 .18099976 .092178348 .18099976 .22616577 .18099976 .28416444 .18499756 .34214784 .18499756 .39814759 .18499756 .41914369 .17799378 .4681549 .12199402 .4681549 .07899475 .4681549-.009002686 .40715028-.01701355 .40115357Z"/>
</defs>
<use data-text="+" xlink:href="#font_0_1" transform="matrix(37.185197,0,0,-37.18505,98.4019,42.262353)"/>
<use data-text="K" xlink:href="#font_0_2" transform="matrix(21.519206,0,0,-21.519215,212.86754,40.017175)"/>
<use data-text="G" xlink:href="#font_0_3" transform="matrix(21.51903,0,0,-21.519398,321.02497,38.12284)"/>
<use data-text="(" xlink:href="#font_0_4" transform="matrix(21.51903,0,0,-21.519398,337.48704,38.12284)"/>
<use data-text="s" xlink:href="#font_0_5" transform="matrix(21.51903,0,0,-21.519398,347.032,38.12284)"/>
<use data-text=")" xlink:href="#font_0_6" transform="matrix(21.51903,0,0,-21.519398,358.01884,38.12284)"/>
<path transform="matrix(1,0,0,-1,112.441379,32.741556)" stroke-width=".75" stroke-linecap="round" stroke-linejoin="round" fill="none" stroke="#000000" d="M208.48744-25.329827C209.5556-25.656027 207.91559-25.725024 208.95326-25.10024 224.6611-24.83983 239.54375-25.563012 254.79363-24.34687 268.18467-25.708523 268.85847-24.008479 268.72666-10.808318 269.42408-4.08643 269.08045 2.842337 268.3484 9.765935 268.55519 25.573473 268.04225 25.467148 254.51323 24.777577 239.09662 25.878796 223.11508 24.077275 208.43656 25.043696 193.61972 24.471289 192.63484 25.31198 194.18416 10.808915 192.98796 3.961629 192.78919-2.807477 193.23288-9.121479 193.51645-25.779484 193.57633-25.119578 208.48744-25.329827Z"/>
<path transform="matrix(1,0,0,-1,112.441379,32.741556)" stroke-width=".75" stroke-linecap="round" stroke-linejoin="round" fill="none" stroke="#000000" d="M101.181407-21.955763C99.84198-22.333556 100.89188-21.775652 100.78024-21.479422 105.267848-22.479882 109.73493-22.16841 114.832958-22.158667 129.30927-22.006234 129.93273-23.099173 128.92885-6.637437 130.24889-2.751644 130.21933 3.431631 129.7786 7.516426 129.65921 21.925284 129.69847 22.449078 115.26473 22.013106 110.928508 23.349955 105.09775 22.662928 100.93272 22.904685 86.10849 22.483843 86.30433 23.051508 85.15684 7.536554 85.03138 2.636424 84.92313-2.720556 84.6283-8.082843 85.36542-22.594397 85.745227-21.601828 101.181407-21.955763Z"/>
<path transform="matrix(1,0,0,-1,112.441379,32.741556)" stroke-width=".75" stroke-linecap="round" stroke-linejoin="round" fill="none" stroke="#000000" d="M21.349686 .948797C21.08452 12.908234 12.555509 21.415619-.716305 22.344159-11.304311 22.044587-22.080906 12.633101-20.70679 .48513-21.357439-12.910007-12.493702-22.093535 .557501-22.308077 11.645652-20.714203 21.734234-11.416346 21.349686 .948797Z"/>
<path transform="matrix(1,0,0,-1,112.441379,32.741556)" stroke-width=".75" stroke-linecap="round" stroke-linejoin="round" fill="none" stroke="#000000" d="M-64.18521-.316333C-50.062799 .331269-35.24789-.251174-21.39983 .4052"/>
<path transform="matrix(1,0,0,-1,112.441379,32.741556)" stroke-width=".75" stroke-linecap="round" stroke-linejoin="round" fill="none" stroke="#000000" d="M-33.900239-8.285897C-30.832943-3.919339-26.512942-.965136-21.952095-.179242-26.729674 1.080941-30.743975 4.334795-34.553236 7.735459"/>
<path transform="matrix(1,0,0,-1,112.441379,32.741556)" stroke-width=".75" stroke-linecap="round" stroke-linejoin="round" fill="none" stroke="#000000" d="M21.968596 .134986C42.68578 .287841 63.50166-.325441 84.67423 .305427"/>
<path transform="matrix(1,0,0,-1,112.441379,32.741556)" stroke-width=".75" stroke-linecap="round" stroke-linejoin="round" fill="none" stroke="#000000" d="M72.83767-7.798472C75.194629-3.69285 79.6936-1.324664 85.44212 .295159 79.97861 1.257091 75.53757 4.121692 72.464168 7.618063"/>
<path transform="matrix(1,0,0,-1,112.441379,32.741556)" stroke-width=".75" stroke-linecap="round" stroke-linejoin="round" fill="none" stroke="#000000" d="M129.43059 .171218C150.93181-.352551 172.32633-.419489 192.96736 .003308"/>
<path transform="matrix(1,0,0,-1,112.441379,32.741556)" stroke-width=".75" stroke-linecap="round" stroke-linejoin="round" fill="none" stroke="#000000" d="M180.50887-8.345431C183.68213-3.978402 187.7625-.90129 193.43367 .223611 188.21976 1.118425 183.85596 3.826427 180.54143 7.963341"/>
<path transform="matrix(1,0,0,-1,112.441379,32.741556)" stroke-width=".75" stroke-linecap="round" stroke-linejoin="round" fill="none" stroke="#000000" d="M268.87763 .407353C297.47038-.25562 325.3498-.089444 353.619-.046235"/>
<path transform="matrix(1,0,0,-1,112.441379,32.741556)" stroke-width=".75" stroke-linecap="round" stroke-linejoin="round" fill="none" stroke="#000000" d="M341.26637-7.805063C344.2254-3.945259 349.13926-1.415501 353.9555 .063551 349.37547 .980324 344.67469 4.371018 340.90538 7.829629"/>
<path transform="matrix(1,0,0,-1,112.441379,32.741556)" stroke-width=".75" stroke-linecap="round" stroke-linejoin="round" fill="none" stroke="#000000" d="M311.70469 .17176C311.88099-22.460928 311.56236-45.29744 311.78373-67.32881 284.5252-67.53443 258.09153-67.200489 231.00728-67.30454 153.8101-67.589557 76.74621-67.476428-.185495-67.89013 .021007-52.412847-.3201-37.132459-.371811-21.70192"/>
<path transform="matrix(1,0,0,-1,112.441379,32.741556)" stroke-width=".75" stroke-linecap="round" stroke-linejoin="round" fill="none" stroke="#000000" d="M7.678232-34.33272C3.889491-31.267174 1.021971-26.854029-.09056-22.196234-.858995-27.480496-4.194295-31.74928-7.742214-35.05512"/>
<path transform="matrix(1,0,0,-1,112.441379,32.741556)" stroke-width=".75" stroke-linecap="round" stroke-linejoin="round" fill="none" stroke="#000000" d="M208.53832-25.184868C208.1062-25.86253 209.39328-24.844504 208.68663-25.008786 224.54743-24.228947 238.67055-25.803553 253.12339-25.586127 268.01853-24.735112 269.3404-24.979632 268.95793-10.286359 268.63456-4.035178 269.52427 3.112794 268.32713 10.407557 268.2422 24.55928 269.89286 25.186913 254.4337 24.305123 238.46718 24.764348 222.75605 24.6247 209.18466 24.692049 194.06569 25.064158 194.32994 24.53736 193.70944 9.816942 193.92366 3.270707 194.47559-3.389116 192.71704-10.889021 194.14424-24.798052 193.70337-25.116433 208.53832-25.184868Z"/>
<path transform="matrix(1,0,0,-1,112.441379,32.741556)" stroke-width=".75" stroke-linecap="round" stroke-linejoin="round" fill="none" stroke="#000000" d="M101.20447-21.658843C101.28013-22.60211 100.37534-22.019272 99.91361-22.237938 105.76007-22.246174 109.42209-21.80249 114.68021-23.357329 129.52765-22.466595 129.44731-22.889054 130.32373-7.908108 129.37799-3.001102 130.08103 1.717404 128.93569 8.146422 129.63661 22.43674 128.91602 22.565442 114.8409 23.128876 109.084148 21.481055 105.59385 21.58611 100.37493 22.910395 84.589519 22.057124 85.220188 21.566218 86.23351 7.73449 85.18414 1.82203 85.596347-2.302905 86.04159-7.986237 85.29509-21.494984 85.648288-22.649994 101.20447-21.658843Z"/>
<path transform="matrix(1,0,0,-1,112.441379,32.741556)" stroke-width=".75" stroke-linecap="round" stroke-linejoin="round" fill="none" stroke="#000000" d="M22.316372 .508272C21.068543 11.088965 12.736094 22.120333 .453292 22.40383-12.358768 22.303679-22.299782 12.383225-20.815899 .472188-21.64862-11.902515-12.138157-21.505232 .693848-22.199742 11.711656-21.232962 21.927109-12.597255 22.316372 .508272Z"/>
<path transform="matrix(1,0,0,-1,112.441379,32.741556)" stroke-width=".75" stroke-linecap="round" stroke-linejoin="round" fill="none" stroke="#000000" d="M-64.17976-.022375C-50.088735 .12578-35.41561-.108465-21.45988-.381822"/>
<path transform="matrix(1,0,0,-1,112.441379,32.741556)" stroke-width=".75" stroke-linecap="round" stroke-linejoin="round" fill="none" stroke="#000000" d="M-34.484125-7.947418C-31.101078-3.734517-27.02575-1.416774-21.512267 .178111-26.514492 1.27846-30.839715 4.154025-34.335157 8.111247"/>
<path transform="matrix(1,0,0,-1,112.441379,32.741556)" stroke-width=".75" stroke-linecap="round" stroke-linejoin="round" fill="none" stroke="#000000" d="M21.86278-.327511C42.791826-.274806 64.02377-.090853 85.239917-.178361"/>
<path transform="matrix(1,0,0,-1,112.441379,32.741556)" stroke-width=".75" stroke-linecap="round" stroke-linejoin="round" fill="none" stroke="#000000" d="M72.36724-7.742571C75.47402-4.195044 80.089939-1.384008 84.787 .389453 80.32875 1.218536 75.254329 4.077151 72.54041 7.647651"/>
<path transform="matrix(1,0,0,-1,112.441379,32.741556)" stroke-width=".75" stroke-linecap="round" stroke-linejoin="round" fill="none" stroke="#000000" d="M130.19628-.259691C151.33805-.07946 172.52384 .316808 193.5061-.30563"/>
<path transform="matrix(1,0,0,-1,112.441379,32.741556)" stroke-width=".75" stroke-linecap="round" stroke-linejoin="round" fill="none" stroke="#000000" d="M180.5269-7.678875C183.39342-4.148868 188.28165-.729068 192.922-.141175 188.47383 .755861 184.08222 3.738396 180.21945 8.003893"/>
<path transform="matrix(1,0,0,-1,112.441379,32.741556)" stroke-width=".75" stroke-linecap="round" stroke-linejoin="round" fill="none" stroke="#000000" d="M268.82643-.300674C297.2425 .214113 326.0702 .417205 354.4239 .217973"/>
<path transform="matrix(1,0,0,-1,112.441379,32.741556)" stroke-width=".75" stroke-linecap="round" stroke-linejoin="round" fill="none" stroke="#000000" d="M341.6011-7.869778C344.908-3.600666 348.55937-1.167843 353.9215 .057799 348.65678 .911281 344.59785 4.428554 340.99775 7.983377"/>
<path transform="matrix(1,0,0,-1,112.441379,32.741556)" stroke-width=".75" stroke-linecap="round" stroke-linejoin="round" fill="none" stroke="#000000" d="M311.0899 .04248C311.39945-22.92613 311.19166-45.058954 311.82395-67.240398 284.91093-67.27734 257.95933-67.71135 231.6898-67.56424 154.0545-67.78512 77.368747-67.46539-.03933-67.22102-.270501-52.353345-.386025-37.12541-.274436-21.94959"/>
<path transform="matrix(1,0,0,-1,112.441379,32.741556)" stroke-width=".75" stroke-linecap="round" stroke-linejoin="round" fill="none" stroke="#000000" d="M7.946626-34.278219C4.302662-31.927029 1.434955-27.165516-.253425-21.94264-.979679-27.062663-3.999434-31.282908-7.649841-35.08226"/>
<path transform="matrix(1,0,0,-1,112.441379,32.741556)" stroke-width=".75" stroke-linecap="round" stroke-linejoin="round" fill="none" stroke="#000000" d="M209.0407-24.418944C208.43952-25.570065 209.16947-24.51096 209.27141-24.769103 223.07173-25.909287 238.91886-25.84992 253.2237-24.340865 269.12153-25.6913 268.95353-24.34335 268.69367-10.079776 267.9728-3.092457 269.47337 2.53578 268.0836 9.528581 268.13755 25.681376 268.3437 25.324002 253.72443 24.885298 238.30527 25.570525 223.54921 25.093312 208.70458 24.465533 192.83661 24.464314 193.99785 25.276299 193.89754 10.85693 193.64528 4.216645 193.85694-3.155361 194.41852-8.976608 193.54047-24.992024 193.4689-24.892025 209.0407-24.418944Z"/>
<path transform="matrix(1,0,0,-1,112.441379,32.741556)" stroke-width=".75" stroke-linecap="round" stroke-linejoin="round" fill="none" stroke="#000000" d="M101.167537-22.36012C101.29475-22.732188 100.97929-21.974984 101.333789-22.878943 105.430088-21.74154 110.79949-22.648528 114.08402-23.320219 128.95105-23.388148 129.15381-21.743468 129.88317-6.950712 129.1313-1.804912 129.01982 3.334211 130.527 6.756803 130.69345 22.336762 130.19297 22.048642 115.34175 23.106244 110.02684 21.908288 104.83734 21.46351 100.30896 23.182944 85.2197 22.28616 84.49041 21.847994 85.145908 6.595078 85.32125 2.623558 86.361019-3.267343 85.11303-6.930949 86.21783-23.308417 85.93079-22.165158 101.167537-22.36012Z"/>
<path transform="matrix(1,0,0,-1,112.441379,32.741556)" stroke-width=".75" stroke-linecap="round" stroke-linejoin="round" fill="none" stroke="#000000" d="M22.580279 .185639C22.306447 10.999415 11.827703 20.730853 .151836 22.10487-12.370519 21.022564-21.546437 11.850783-21.650074-.503856-21.971062-11.795289-12.339221-20.869585 .557143-22.23759 11.07576-21.248908 21.454548-12.142583 22.580279 .185639Z"/>
<path transform="matrix(1,0,0,-1,112.441379,32.741556)" stroke-width=".75" stroke-linecap="round" stroke-linejoin="round" fill="none" stroke="#000000" d="M-63.441137 .25193C-49.787725 .260237-35.713285 .175581-21.763146-.034275"/>
<path transform="matrix(1,0,0,-1,112.441379,32.741556)" stroke-width=".75" stroke-linecap="round" stroke-linejoin="round" fill="none" stroke="#000000" d="M-34.59895-8.043687C-30.87166-4.367619-27.008387-.78779-22.003485 .075132-26.995398 .711241-31.2348 4.217927-34.196008 7.692814"/>
<path transform="matrix(1,0,0,-1,112.441379,32.741556)" stroke-width=".75" stroke-linecap="round" stroke-linejoin="round" fill="none" stroke="#000000" d="M21.632729 .369077C42.93906 .448643 63.579324-.115677 85.06964 .292067"/>
<path transform="matrix(1,0,0,-1,112.441379,32.741556)" stroke-width=".75" stroke-linecap="round" stroke-linejoin="round" fill="none" stroke="#000000" d="M72.56152-8.424104C75.84066-4.091026 79.786479-.787787 85.43387 .261164 79.82429 1.564928 75.63663 4.081008 72.48099 7.681818"/>
<path transform="matrix(1,0,0,-1,112.441379,32.741556)" stroke-width=".75" stroke-linecap="round" stroke-linejoin="round" fill="none" stroke="#000000" d="M130.14452-.367581C151.3558 .312587 171.85478-.141072 193.54665-.168433"/>
<path transform="matrix(1,0,0,-1,112.441379,32.741556)" stroke-width=".75" stroke-linecap="round" stroke-linejoin="round" fill="none" stroke="#000000" d="M180.62752-7.634057C183.38353-3.589087 188.47667-1.256054 193.39533 .242176 188.27845 .9889 184.14456 3.980124 180.12006 8.03206"/>
<path transform="matrix(1,0,0,-1,112.441379,32.741556)" stroke-width=".75" stroke-linecap="round" stroke-linejoin="round" fill="none" stroke="#000000" d="M269.387 .371632C297.37278 .315494 325.5646-.278738 353.91349-.104581"/>
<path transform="matrix(1,0,0,-1,112.441379,32.741556)" stroke-width=".75" stroke-linecap="round" stroke-linejoin="round" fill="none" stroke="#000000" d="M341.7378-8.393656C344.68406-4.1594 348.82218-1.004523 353.64488 .427011 349.41285 1.467462 344.66416 4.145586 341.10948 7.949192"/>
<path transform="matrix(1,0,0,-1,112.441379,32.741556)" stroke-width=".75" stroke-linecap="round" stroke-linejoin="round" fill="none" stroke="#000000" d="M311.4842 .404388C311.0305-22.133652 311.11549-44.65036 311.81498-67.496768 284.79145-67.4573 258.41755-67.49705 231.35376-67.49401 153.98603-67.80987 76.96404-67.903408-.110146-67.628818 .182688-52.68009 .296408-37.27659-.04646-21.717455"/>
<path transform="matrix(1,0,0,-1,112.441379,32.741556)" stroke-width=".75" stroke-linecap="round" stroke-linejoin="round" fill="none" stroke="#000000" d="M8.074962-34.63273C3.828023-31.645979 1.367979-26.883927-.304827-22.300715-.771009-27.33324-3.760692-31.65549-8.348107-35.039415"/>
<path transform="matrix(1,0,0,-1,112.441379,32.741556)" stroke-width=".75" stroke-linecap="round" stroke-linejoin="round" fill="none" stroke="#000000" d="M208.186-24.096123C209.3664-24.42203 209.3494-24.110476 209.14136-24.018935 224.16416-25.813389 239.0106-24.028164 253.56803-24.62144 269.7882-24.142813 269.08128-24.822857 268.25163-9.454697 268.70567-3.837295 269.42268 4.087705 269.04209 9.517768 268.9613 24.211133 268.59815 25.247925 253.89232 25.328974 239.22347 25.740885 223.99555 24.733675 207.79921 24.441609 193.38695 24.294787 194.35158 24.07824 193.10942 9.615511 194.02046 4.278195 193.3842-3.298641 193.01372-9.389001 192.92055-24.731024 194.21643-24.567614 208.186-24.096123Z"/>
<path transform="matrix(1,0,0,-1,112.441379,32.741556)" stroke-width=".75" stroke-linecap="round" stroke-linejoin="round" fill="none" stroke="#000000" d="M99.47526-21.59342C100.053607-23.339915 100.73299-22.769812 100.48746-21.495 105.17501-22.27384 110.20894-22.365628 115.723148-21.616765 130.54843-22.487248 130.58196-22.262944 129.407-7.186191 130.14109-3.315447 129.61014 2.072262 129.79146 7.908985 130.03928 22.623463 128.96009 23.100565 115.38797 22.817952 110.84315 22.393479 104.44849 22.664088 99.98614 21.52473 85.97548 22.45484 86.10325 22.622094 85.75379 6.873486 85.86898 2.755705 84.64252-3.07117 85.5719-8.37614 86.21139-22.35487 85.7217-23.074265 99.47526-21.59342Z"/>
<path transform="matrix(1,0,0,-1,112.441379,32.741556)" stroke-width=".75" stroke-linecap="round" stroke-linejoin="round" fill="none" stroke="#000000" d="M21.34786-.185007C21.705027 12.380395 12.784142 22.15393-.950663 22.497551-12.702624 21.14303-22.504355 12.233219-21.01751-.125879-21.865073-12.02102-12.063329-22.19725-.710835-21.004658 11.311941-20.774092 20.887059-11.586787 21.34786-.185007Z"/>
<path transform="matrix(1,0,0,-1,112.441379,32.741556)" stroke-width=".75" stroke-linecap="round" stroke-linejoin="round" fill="none" stroke="#000000" d="M-63.518457 .263993C-50.12101 .124234-36.020196 .249467-21.944495 .422332"/>
<path transform="matrix(1,0,0,-1,112.441379,32.741556)" stroke-width=".75" stroke-linecap="round" stroke-linejoin="round" fill="none" stroke="#000000" d="M-34.250146-7.744886C-30.69453-3.929976-26.542933-1.138618-21.85176 .005332-26.998364 .92313-31.2493 3.612462-33.860963 7.881859"/>
<path transform="matrix(1,0,0,-1,112.441379,32.741556)" stroke-width=".75" stroke-linecap="round" stroke-linejoin="round" fill="none" stroke="#000000" d="M22.094717 .190967C42.6091-.391864 64.34575 .28964 84.98264-.047493"/>
<path transform="matrix(1,0,0,-1,112.441379,32.741556)" stroke-width=".75" stroke-linecap="round" stroke-linejoin="round" fill="none" stroke="#000000" d="M72.194248-7.916105C75.66719-3.804539 79.88136-1.213903 85.40869 .257898 79.68631 1.35438 75.4238 3.594917 72.50913 8.059066"/>
<path transform="matrix(1,0,0,-1,112.441379,32.741556)" stroke-width=".75" stroke-linecap="round" stroke-linejoin="round" fill="none" stroke="#000000" d="M130.06136-.249712C150.89383-.410214 172.01236 .345454 193.40407-.432887"/>
<path transform="matrix(1,0,0,-1,112.441379,32.741556)" stroke-width=".75" stroke-linecap="round" stroke-linejoin="round" fill="none" stroke="#000000" d="M180.97338-8.231192C183.84601-3.559561 187.9731-.908103 193.11307-.154932 188.07622 1.323559 183.4192 3.556531 180.99144 7.643308"/>
<path transform="matrix(1,0,0,-1,112.441379,32.741556)" stroke-width=".75" stroke-linecap="round" stroke-linejoin="round" fill="none" stroke="#000000" d="M269.334 .355588C297.65504 .060984 325.97636 .332408 353.75077-.31208"/>
<path transform="matrix(1,0,0,-1,112.441379,32.741556)" stroke-width=".75" stroke-linecap="round" stroke-linejoin="round" fill="none" stroke="#000000" d="M341.70768-8.090118C344.32716-4.401679 349.30754-1.113766 353.60115-.273514 348.83219 1.136789 344.4738 4.274046 341.7612 8.31921"/>
<path transform="matrix(1,0,0,-1,112.441379,32.741556)" stroke-width=".75" stroke-linecap="round" stroke-linejoin="round" fill="none" stroke="#000000" d="M311.10005-.441628C311.2953-22.663088 311.2368-45.080324 311.82106-67.78774 284.29255-67.24221 257.622-67.07039 231.04354-67.560619 154.17021-67.18023 76.98252-67.61506 .31363-67.62382 .100495-52.435297-.347654-37.42877-.42145-22.110449"/>
<path transform="matrix(1,0,0,-1,112.441379,32.741556)" stroke-width=".75" stroke-linecap="round" stroke-linejoin="round" fill="none" stroke="#000000" d="M8.060464-34.805814C3.647948-31.872838 1.43249-26.96385 .157989-21.664305-1.437487-27.062952-3.683303-31.586846-7.853836-34.9358"/>
<path transform="matrix(1,0,0,-1,112.441379,32.741556)" stroke-width=".75" stroke-linecap="round" stroke-linejoin="round" fill="none" stroke="#000000" d="M209.5182-24.894814C208.75426-25.721785 208.98035-24.374974 208.47447-24.645886 223.24062-25.788416 239.78955-24.944945 253.59162-24.23748 269.58644-25.697466 268.06468-25.238451 269.3925-9.784795 269.22236-2.841331 268.64234 3.489687 269.85575 9.251702 268.2568 25.156029 267.97364 24.709603 253.44339 25.52932 239.5411 25.717116 223.41182 24.710007 208.84264 24.561795 193.42621 24.089016 194.3824 25.62012 193.30039 10.390089 194.0907 3.601658 192.82172-3.058629 192.77062-10.4742 194.13326-24.791909 194.33823-25.587693 209.5182-24.894814Z"/>
<path transform="matrix(1,0,0,-1,112.441379,32.741556)" stroke-width=".75" stroke-linecap="round" stroke-linejoin="round" fill="none" stroke="#000000" d="M100.27109-21.670962C100.95602-23.379233 100.33411-21.749522 99.611858-22.721169 106.18544-21.784523 109.962779-23.111058 114.484798-22.041462 128.8393-23.161908 130.40479-23.149443 130.14359-7.140417 129.22223-3.090557 129.92148 1.527496 129.93732 7.278957 129.5939 23.10068 129.67293 22.135436 114.828968 22.320044 109.800579 21.52385 105.3625 23.155827 99.93481 23.076931 85.372768 23.067072 86.39218 22.473557 86.055889 7.488 85.3148 2.782491 86.149158-2.877886 85.89719-6.705219 85.77317-23.12075 85.128299-22.476456 100.27109-21.670962Z"/>
<path transform="matrix(1,0,0,-1,112.441379,32.741556)" stroke-width=".75" stroke-linecap="round" stroke-linejoin="round" fill="none" stroke="#000000" d="M21.106589-.225827C21.10829 11.227176 11.683016 22.544714-.176294 21.960087-12.010513 21.840136-20.987313 12.338303-21.301974 .161363-20.702607-11.012587-11.095765-22.287207 .906689-21.718592 12.157644-22.177067 21.31076-12.379802 21.106589-.225827Z"/>
<path transform="matrix(1,0,0,-1,112.441379,32.741556)" stroke-width=".75" stroke-linecap="round" stroke-linejoin="round" fill="none" stroke="#000000" d="M-64.03321 .170747C-49.473066-.10057-35.841566 .240952-21.79225 .10621"/>
<path transform="matrix(1,0,0,-1,112.441379,32.741556)" stroke-width=".75" stroke-linecap="round" stroke-linejoin="round" fill="none" stroke="#000000" d="M-34.47294-7.879294C-31.26846-3.862529-26.217364-1.005755-22.054793-.088828-26.228714 .978254-31.124314 3.949351-34.338144 8.348229"/>
<path transform="matrix(1,0,0,-1,112.441379,32.741556)" stroke-width=".75" stroke-linecap="round" stroke-linejoin="round" fill="none" stroke="#000000" d="M21.714228 .110104C42.966428 .07311 63.926675-.005011 84.64011-.209472"/>
<path transform="matrix(1,0,0,-1,112.441379,32.741556)" stroke-width=".75" stroke-linecap="round" stroke-linejoin="round" fill="none" stroke="#000000" d="M72.044528-8.028683C75.49909-4.209309 80.44472-1.427603 84.95782 .136775 80.03841 1.076047 75.84457 3.698352 72.36838 8.17828"/>
<path transform="matrix(1,0,0,-1,112.441379,32.741556)" stroke-width=".75" stroke-linecap="round" stroke-linejoin="round" fill="none" stroke="#000000" d="M129.99227-.2631C150.53775 .018617 172.40102 .297269 193.60684-.20966"/>
<path transform="matrix(1,0,0,-1,112.441379,32.741556)" stroke-width=".75" stroke-linecap="round" stroke-linejoin="round" fill="none" stroke="#000000" d="M180.49806-8.432793C183.94957-4.157769 188.32836-1.338878 192.88413 .143388 188.1079 .791271 183.41376 4.21858 180.82045 8.202238"/>
<path transform="matrix(1,0,0,-1,112.441379,32.741556)" stroke-width=".75" stroke-linecap="round" stroke-linejoin="round" fill="none" stroke="#000000" d="M269.06159 .201021C297.30836-.089795 325.65998 .176827 354.22038 .343343"/>
<path transform="matrix(1,0,0,-1,112.441379,32.741556)" stroke-width=".75" stroke-linecap="round" stroke-linejoin="round" fill="none" stroke="#000000" d="M341.5497-7.803334C344.39854-3.717934 348.67124-1.068399 354.2348-.266218 349.2778 1.39118 344.0786 3.732374 341.38917 8.497145"/>
<path transform="matrix(1,0,0,-1,112.441379,32.741556)" stroke-width=".75" stroke-linecap="round" stroke-linejoin="round" fill="none" stroke="#000000" d="M311.09547-.434745C311.5291-22.805716 311.74595-44.70482 311.24729-67.80909 284.71409-67.06551 258.03306-67.042697 231.44716-67.776508 153.81365-67.07445 77.49523-67.82381-.117768-67.78779-.148877-52.334726-.301284-36.909364 .35769-22.454592"/>
<path transform="matrix(1,0,0,-1,112.441379,32.741556)" stroke-width=".75" stroke-linecap="round" stroke-linejoin="round" fill="none" stroke="#000000" d="M8.068311-35.069314C3.822815-31.501227 .889414-26.882872-.170931-21.8965-.750557-27.084696-3.777909-31.097346-8.046569-34.83993"/>
<use data-text="+" xlink:href="#font_0_1" transform="matrix(21.519354,0,0,-21.519316,74.39209,24.998734)"/>
<use data-text="&#x2212;" xlink:href="#font_0_7" transform="matrix(21.519371,0,0,-21.519288,118.591289,63.350946)"/>
<use data-text="r" xlink:href="#font_0_8" transform="matrix(21.519349,0,0,-21.519398,6.8142855,38.12284)"/>
<use data-text="(" xlink:href="#font_0_4" transform="matrix(21.519349,0,0,-21.519398,16.110646,38.12284)"/>
<use data-text="t" xlink:href="#font_0_9" transform="matrix(21.519349,0,0,-21.519398,25.655766,38.12284)"/>
<use data-text=")" xlink:href="#font_0_6" transform="matrix(21.519349,0,0,-21.519398,35.803434,38.12284)"/>
<use data-text="y" xlink:href="#font_0_10" transform="matrix(21.519242,0,0,-21.519371,471.285,37.896829)"/>
<use data-text="(" xlink:href="#font_0_4" transform="matrix(21.519242,0,0,-21.519371,484.04588,37.896829)"/>
<use data-text="t" xlink:href="#font_0_9" transform="matrix(21.519242,0,0,-21.519371,493.59098,37.896829)"/>
<use data-text=")" xlink:href="#font_0_6" transform="matrix(21.519242,0,0,-21.519371,503.73863,37.896829)"/>
</svg>
