<svg xmlns="http://www.w3.org/2000/svg" xmlns:xlink="http://www.w3.org/1999/xlink" version="1.1" width="627.3986" height="130.45172" viewBox="0 0 627.3986 130.45172">
<defs>
<path id="font_1_1" d="M.04598999 .23632813H.35598756V-.07368469L.3959961-.06668091V.23632813H.70399478L.70899966 .2763214H.3959961V.58631899L.35598756 .58032229V.2763214H.052993776L.04598999 .23632813Z"/>
<path id="font_1_2" d="M.04899597 .6591797C.049987794 .6591797 .08999634 .647171 .10998535 .6411743 .116989139 .63916018 .12098694 .63217166 .12399292 .62615969 .12799073 .61616519 .1289978 .6051636 .1289978 .59516909V.14816284L.12599182 .001159668 .13699341-.0038452149 .21798706 .025161744C.21199036 .122161868 .21199036 .22015381 .21199036 .318161L.22099304 .3191681C.32899476 .2101593 .44099427 .105163577 .54599-.0068359377L.6309967 .024154664 .6319885 .03515625C.57099917 .089157108 .4059906 .25315858 .29899598 .36016847 .29499818 .36416627 .2939911 .36616517 .2939911 .36915589 .2939911 .37216188 .29899598 .37716676 .3019867 .38015748L.59298709 .6741791 .59399417 .6831665H.5039978L.21699524 .35716249 .20899964 .35816957C.20899964 .4711609 .21398926 .59916689 .21598816 .62615969 .21598816 .62716677 .21998596 .6641693 .22399903 .676178L.21699524 .6831665H.05899048L.050994874 .676178 .04899597 .6591797Z"/>
<path id="font_1_5" d="M.051986696 .06642151C.06199646 .047409059 .07598877 .030395508 .09199524 .01638794 .12098694-.009613037 .16099549-.016601563 .19898987-.016601563 .2559967-.016601563 .31199647 .0023956299 .35099793 .044403078 .375 .06941223 .3869934 .10343933 .3869934 .13845825 .3869934 .1634674 .37298585 .18649292 .35499574 .20449829 .34098817 .21850586 .3039856 .24052429 .27198792 .25453187 .24299622 .26654054 .19999695 .2885437 .18798828 .30055238 .17298889 .31655885 .1619873 .3285675 .1619873 .35058595 .1619873 .3725891 .16899109 .39360047 .18499756 .4086151 .19999695 .42362977 .22200012 .43164063 .24398804 .43164063 .2639923 .43164063 .2849884 .42462159 .29599 .4066162 .30599977 .39060975 .30799867 .3715973 .30899049 .35359193L.32099916 .34657289 .37599183 .38360597C.375 .40560914 .3639984 .42662049 .34799195 .44163514 .32499696 .46263124 .29299928 .46662904 .2630005 .46662904 .21398926 .46662904 .16699219 .45063783 .1309967 .4176178 .10398865 .39360047 .08999634 .35858155 .08999634 .32356263 .08999634 .29154969 .10798645 .26353456 .1309967 .2425232 .1539917 .22250366 .18399048 .2084961 .21499634 .1954956 .24099732 .18447876 .2689972 .17248535 .28799439 .1534729 .30299378 .13845825 .31399537 .11845398 .31399537 .09744263 .31399537 .079422 .30499269 .062408449 .29299928 .04940796 .27799989 .03340149 .25099183 .021392823 .22898865 .021392823 .19898987 .021392823 .17199707 .03439331 .1499939 .055404664 .1269989 .076416019 .116989139 .10644531 .114990238 .13645935L.100997928 .13745117 .051986696 .06642151Z"/>
<path id="font_1_11" d="M.09199524 .6121063H.1749878C.19999695 .6121063 .21998596 .5911102 .22099304 .56611636 .22200012 .5411072 .22200012 .46810914 .22200012 .41911317 .22200012 .27911378 .21899414 .13911438 .21398926 .00010681152L.22599793-.0048828127 .30999757 .022109986C.30699159 .09811401 .30699159 .29611207 .30699159 .43211366 .30699159 .52111819 .30899049 .6111145 .31399537 .70010378L.30799867 .7121124 .09199524 .6391144V.6121063Z"/>
<path id="font_1_4" d="M.11299133 .24990845C.11299133 .007904053 .1519928-.09008789 .18299866-.13310242 .21099854-.17008972 .25299073-.20809937 .30099488-.21209717V-.1880951C.2809906-.18409729 .25099183-.16809082 .23399353-.1481018 .21998596-.13209534 .16499329-.05809021 .16499329 .24990845 .16499329 .4618988 .19799805 .5659027 .21998596 .6128998 .23599243 .6469116 .2689972 .6769104 .30099488 .684906V.71191409C.2599945 .7049103 .21598816 .6729126 .19099427 .63790896 .1599884 .5919037 .11299133 .4748993 .11299133 .24990845Z"/>
<path id="font_1_7" d="M.04598999 .23046875H.70399478L.70999148 .27046205H.052993776L.04598999 .23046875Z"/>
<path id="font_1_6" d="M.085998538-.1880951V-.21209717C.13398743-.20610047 .1789856-.17208863 .20698548-.13510132 .23799134-.09210205 .27598573 .007904053 .27598573 .24990845 .27598573 .50090029 .22399903 .5919037 .19299317 .63790896 .16799927 .6729126 .1269989 .7049103 .085998538 .71191409V.684906C.117996219 .6759033 .14898682 .6469116 .16499329 .6128998 .18699646 .5659027 .22399903 .48190309 .22399903 .24990845 .22399903-.099090579 .17199707-.13209534 .1579895-.1481018 .14099121-.16809082 .10598755-.18409729 .085998538-.1880951Z"/>
<path id="font_1_12" d="M.04499817 .23840332C.04499817 .16436768 .06199646 .08732605 .114990238 .034301759 .14698792 .0023040772 .19099427-.0126953129 .23599243-.0126953129 .2979889-.0126953129 .35598756 .013290405 .39898683 .05630493 .44099427 .09832764 .47099305 .15135193 .47099305 .21139527 .47099305 .2564087 .45599366 .30143739 .42399598 .33444215 .39698792 .3614502 .35899354 .3774414 .32099916 .3774414 .2519989 .3774414 .18899536 .3484497 .13598633 .30543519L.1289978 .30644227C.12998963 .40242005 .14898682 .5033264 .22799683 .57624819 .2689972 .61421206 .32299806 .6411896 .38398744 .6411896 .4039917 .6411896 .42199708 .6381836 .44198609 .63020327L.45098878 .6341858 .47099305 .68818667C.45599366 .69418337 .43099977 .7001953 .41600038 .7001953 .375 .7001953 .33499146 .6871948 .29899598 .6681824 .2539978 .6451874 .21398926 .6132202 .1789856 .57624819 .08999634 .4873352 .04499817 .3634491 .04499817 .23840332M.13198853 .26542665C.1539917 .28642274 .21499634 .31445313 .2559967 .31445313 .2889862 .31445313 .32299806 .30343629 .34599305 .27941896 .375 .25141908 .3919983 .21238709 .3919983 .17236328 .3919983 .13134766 .37998963 .09132385 .35099793 .063308719 .32798768 .040298463 .29499818 .032302858 .2630005 .032302858 .23799134 .032302858 .21299744 .043304445 .19499207 .060317995 .17399597 .081329349 .15699768 .1103363 .147995 .13935852 .13598633 .17936707 .13198853 .22439575 .13198853 .26542665Z"/>
<path id="font_1_8" d="M.008987427 .3981018 .020996094 .38110353C.04598999 .39509584 .07598877 .41210938 .09899902 .41210938 .10998535 .41210938 .11999512 .4071045 .12599182 .39709474 .14199829 .37210084 .14199829 .2960968 .14199829 .24308777 .14099121 .16307068 .13699341 .07606506 .12998963 .0060577394L.14498902-.0029296876 .21499634 .018066407C.21299744 .110076908 .21299744 .20108032 .21299744 .29408265 .21299744 .3080902 .21398926 .32809449 .21899414 .3400879 .23098755 .3668213 .25498963 .40179444 .29599 .40179444 .33898927 .40179444 .34599305 .3598175 .34899903 .3438263L.36099244 .33883668 .4149933 .38780213C.41299439 .40979005 .40899659 .46679688 .33599855 .46679688 .30099488 .46679688 .24499512 .41479493 .22599793 .39678956L.21598816 .40078736C.21299744 .4210968 .20498657 .47309876 .14399719 .47309876 .10499573 .47309876 .033996583 .41810609 .008987427 .3981018Z"/>
<path id="font_1_9" d="M.016998291 .40538026 .021987915 .40039063H.13398743L.13999939 .39338685V.20327759C.13999939 .06820679 .14199829 .049209596 .16299439 .022201539 .18099976-.0018005371 .21199036-.0087890629 .23498535-.0087890629 .2619934-.0087890629 .2869873 .0012054443 .31098939 .014205933 .34298707 .031204224 .37199403 .05419922 .39898683 .07922363L.3919983 .09422302 .37998963 .096221927C.34999085 .07720947 .31399537 .0552063 .2889862 .0552063 .27198792 .0552063 .25698854 .06021118 .24398804 .07521057 .22200012 .099227908 .21798706 .16325379 .21798706 .20527649V.39437867L.22399903 .40039063H.34298707L.34899903 .40538026 .35699464 .43138124 .35198976 .43537904H.22399903L.21798706 .4403839C.21899414 .49838258 .22399903 .54937747 .22898865 .6063843L.22200012 .61138918 .13798523 .5823822C.13999939 .5563812 .13999939 .49238587 .13999939 .44137574L.13398743 .43537904H.02999878L.023986817 .42938233 .016998291 .40538026Z"/>
<path id="font_1_10" d="M-.01701355 .40115357-.006011963 .38215638C.016998291 .39414979 .04798889 .41015626 .06498718 .41015626 .07699585 .41015626 .08898926 .4061432 .09599304 .39614869 .10798645 .38015748 .11099243 .33815003 .11099243 .29415895 .11099243 .26815797 .10699463 .1771698 .10699463 .15716553 .10699463 .059173585 .12599182-.0078125 .21099854-.0078125 .27198792-.0078125 .36499024 .048187257 .39898683 .06918335L.40499879 .06417847C.39898683-.02079773 .4019928-.19143677 .2559967-.19143677 .21099854-.19143677 .17298889-.1525116 .1519928-.114593509H.13899231L.09498596-.17047119 .09700012-.18145752C.12399292-.20942688 .1769867-.23242188 .22399903-.23242188 .2919922-.23242188 .36299134-.20843506 .41099549-.15750122 .45999146-.10560608 .48399354-.049728395 .4850006 .13816834 .4850006 .15716553 .4850006 .37615968 .4909973 .46214295L.47898866 .466156 .3999939 .42814637C.40499879 .35914613 .4079895 .28715516 .4079895 .21516419 .4079895 .1791687 .40699769 .14317322 .4059906 .108169559 .38598634 .09617615 .32598878 .05618286 .27198792 .05618286 .20799256 .05618286 .18099976 .092178348 .18099976 .22616577 .18099976 .28416444 .18499756 .34214784 .18499756 .39814759 .18499756 .41914369 .17799378 .4681549 .12199402 .4681549 .07899475 .4681549-.009002686 .40715028-.01701355 .40115357Z"/>
</defs>
<use data-text="+" xlink:href="#font_1_1" transform="matrix(37.185197,0,0,-37.18505,98.4019,53.64067)"/>
<use data-text="K" xlink:href="#font_1_2" transform="matrix(21.519206,0,0,-21.519215,212.86754,51.395463)"/>
<use data-text="s" xlink:href="#font_1_5" transform="matrix(21.518872,0,0,-21.519562,374.76966,38.264284)"/>
<use data-text="+" xlink:href="#font_1_1" transform="matrix(21.518872,0,0,-21.519562,389.3427,38.264284)"/>
<use data-text="1" xlink:href="#font_1_11" transform="matrix(21.518872,0,0,-21.519562,410.3714,38.264284)"/>
<path transform="matrix(1.4999701,0,0,-1.5000182,321.02497,44.119356)" stroke-width=".574019" stroke-linecap="butt" stroke-linejoin="round" fill="none" stroke="#000000" d="M0 0H102.56205"/>
<use data-text="(" xlink:href="#font_1_4" transform="matrix(21.518872,0,0,-21.519562,321.02497,60.73741)"/>
<use data-text="s" xlink:href="#font_1_5" transform="matrix(21.518872,0,0,-21.519562,330.5699,60.73741)"/>
<use data-text="(" xlink:href="#font_1_4" transform="matrix(21.518872,0,0,-21.519562,340.361,60.73741)"/>
<use data-text="s" xlink:href="#font_1_5" transform="matrix(21.518872,0,0,-21.519562,349.90589,60.73741)"/>
<use data-text="&#x2212;" xlink:href="#font_1_7" transform="matrix(21.518872,0,0,-21.519562,364.47895,60.73741)"/>
<use data-text="1" xlink:href="#font_1_11" transform="matrix(21.518872,0,0,-21.519562,385.5291,60.73741)"/>
<use data-text=")" xlink:href="#font_1_6" transform="matrix(21.518872,0,0,-21.519562,397.46266,60.73741)"/>
<use data-text="(" xlink:href="#font_1_4" transform="matrix(21.518872,0,0,-21.519562,409.3985,60.73741)"/>
<use data-text="s" xlink:href="#font_1_5" transform="matrix(21.518872,0,0,-21.519562,418.94343,60.73741)"/>
<use data-text="+" xlink:href="#font_1_1" transform="matrix(21.518872,0,0,-21.519562,433.51649,60.73741)"/>
<use data-text="6" xlink:href="#font_1_12" transform="matrix(21.518872,0,0,-21.519562,454.54518,60.73741)"/>
<use data-text=")" xlink:href="#font_1_6" transform="matrix(21.518872,0,0,-21.519562,466.4787,60.73741)"/>
<path transform="matrix(1,0,0,-1,112.441379,44.119874)" stroke-width=".75" stroke-linecap="round" stroke-linejoin="round" fill="none" stroke="#000000" d="M209.31024-36.21064C208.25328-36.320379 208.42621-35.47766 208.64112-36.866849 259.95063-35.838933 310.218-36.721975 362.52049-35.94668 377.56764-35.752359 377.00779-36.514616 377.01176-20.370656 377.90757-7.115409 377.99565 6.496297 378.25059 20.215788 376.52345 36.800844 377.75343 36.588136 363.3622 35.336824 310.4499 35.86892 260.79356 37.071908 208.65285 36.888914 193.40253 35.552934 193.8915 37.045927 192.89421 20.266688 194.35637 7.019726 192.89479-7.070403 194.32352-21.129002 192.71372-35.92107 194.34311-36.283929 209.31024-36.21064Z"/>
<path transform="matrix(1,0,0,-1,112.441379,44.119874)" stroke-width=".75" stroke-linecap="round" stroke-linejoin="round" fill="none" stroke="#000000" d="M101.37321-22.885336C101.28605-21.72901 99.912639-23.228222 100.55615-22.286704 106.15428-22.208226 109.35985-23.205845 115.12995-21.932864 129.38825-22.030579 130.45377-22.655615 129.74314-6.575909 129.06276-1.91643 130.26671 2.692607 129.73575 6.836601 130.20127 22.41518 130.57909 22.855872 114.43938 22.5135 110.0785 22.56236 104.319789 22.83632 100.6765 22.543541 85.723369 22.585036 86.195499 22.353629 84.8875 6.952717 86.39821 3.017299 85.3534-2.449336 86.18409-8.358407 84.99124-22.45326 85.22446-22.689023 101.37321-22.885336Z"/>
<path transform="matrix(1,0,0,-1,112.441379,44.119874)" stroke-width=".75" stroke-linecap="round" stroke-linejoin="round" fill="none" stroke="#000000" d="M21.122725-.263603C20.681208 12.458059 12.059734 21.232029 .103383 22.54069-12.841281 22.28891-20.979796 11.094821-21.038304-.902136-22.053399-11.4929-12.800385-20.95546-.378436-20.76946 11.026762-20.724879 22.110457-12.380698 21.122725-.263603Z"/>
<path transform="matrix(1,0,0,-1,112.441379,44.119874)" stroke-width=".75" stroke-linecap="round" stroke-linejoin="round" fill="none" stroke="#000000" d="M-63.37611 .308106C-49.39027-.107592-36.016534 .080706-21.410819 .140201"/>
<path transform="matrix(1,0,0,-1,112.441379,44.119874)" stroke-width=".75" stroke-linecap="round" stroke-linejoin="round" fill="none" stroke="#000000" d="M-34.52953-7.841991C-30.880587-3.79059-26.49921-.939455-21.34264 .090951-26.24762 1.144108-30.737343 3.743764-34.23508 8.320291"/>
<path transform="matrix(1,0,0,-1,112.441379,44.119874)" stroke-width=".75" stroke-linecap="round" stroke-linejoin="round" fill="none" stroke="#000000" d="M21.667595 .079585C43.130056-.17446 64.012119-.362775 85.14842 .038833"/>
<path transform="matrix(1,0,0,-1,112.441379,44.119874)" stroke-width=".75" stroke-linecap="round" stroke-linejoin="round" fill="none" stroke="#000000" d="M72.33083-8.2124C75.12178-4.080638 80.37206-.927307 85.35641-.335687 80.20264 1.453175 75.82116 4.343802 72.59822 8.124923"/>
<path transform="matrix(1,0,0,-1,112.441379,44.119874)" stroke-width=".75" stroke-linecap="round" stroke-linejoin="round" fill="none" stroke="#000000" d="M129.87467 .163186C150.67934-.140536 172.25931-.419025 192.87728 .403637"/>
<path transform="matrix(1,0,0,-1,112.441379,44.119874)" stroke-width=".75" stroke-linecap="round" stroke-linejoin="round" fill="none" stroke="#000000" d="M180.76056-8.071411C183.4633-3.653339 188.4161-1.589917 192.85752-.170801 187.852 1.345152 183.76813 3.667644 180.37583 7.770783"/>
<path transform="matrix(1,0,0,-1,112.441379,44.119874)" stroke-width=".75" stroke-linecap="round" stroke-linejoin="round" fill="none" stroke="#000000" d="M377.2663-.333275C405.98-.396021 434.05223 .216524 462.12416 .359175"/>
<path transform="matrix(1,0,0,-1,112.441379,44.119874)" stroke-width=".75" stroke-linecap="round" stroke-linejoin="round" fill="none" stroke="#000000" d="M449.7006-8.009847C453.07823-3.994456 457.5261-.948714 462.70115 .416011 457.83305 1.073821 453.06715 3.818319 449.83338 7.618723"/>
<path transform="matrix(1,0,0,-1,112.441379,44.119874)" stroke-width=".75" stroke-linecap="round" stroke-linejoin="round" fill="none" stroke="#000000" d="M420.31837-.07696C419.61167-26.43305 420.23765-52.336935 419.70735-78.61238 375.02189-78.63487 330.59159-79.10413 285.1725-78.5908 190.42287-78.26276 94.95366-78.73238 .141446-79.05702 .198449-60.15276-.093911-40.96551 .416613-22.047629"/>
<path transform="matrix(1,0,0,-1,112.441379,44.119874)" stroke-width=".75" stroke-linecap="round" stroke-linejoin="round" fill="none" stroke="#000000" d="M8.170226-34.511919C4.097861-31.806696 1.492284-27.136988-.384932-21.619399-.973652-26.592572-4.21542-31.821988-7.934656-34.653947"/>
<path transform="matrix(1,0,0,-1,112.441379,44.119874)" stroke-width=".75" stroke-linecap="round" stroke-linejoin="round" fill="none" stroke="#000000" d="M208.7577-36.024957C208.41088-36.27643 208.50485-35.24655 209.02433-35.260595 260.0653-36.161615 310.18809-35.374025 362.1716-36.709199 376.9701-35.35463 376.48237-36.536748 378.2397-21.640452 378.2844-7.03508 376.921 7.409464 377.74528 21.906369 377.2473 36.310945 378.3166 35.698724 362.2747 36.32033 310.409 35.899408 259.56587 35.650789 209.28034 36.00125 193.78656 35.851926 194.51126 37.102464 194.12316 20.895989 193.43019 6.453194 194.30149-6.612068 194.30666-20.890059 194.04032-36.67386 193.95436-36.56961 208.7577-36.024957Z"/>
<path transform="matrix(1,0,0,-1,112.441379,44.119874)" stroke-width=".75" stroke-linecap="round" stroke-linejoin="round" fill="none" stroke="#000000" d="M101.17177-22.96393C100.21804-22.721503 101.149578-22.074877 99.5644-23.268654 104.897647-22.989045 109.937549-23.059494 114.28836-23.214394 129.80751-22.907168 130.64186-21.520071 129.61447-8.262601 129.36469-2.676031 130.57715 2.479048 130.0166 7.365613 128.8868 21.777153 130.19892 23.335192 114.49459 21.454297 109.7912 22.22666 106.09315 22.234919 101.285808 22.570719 85.616519 21.518549 84.91697 22.15716 86.17582 8.38623 84.62339 1.562693 84.62709-2.446735 85.74951-8.295902 84.77744-21.668992 86.03764-22.499354 101.17177-22.96393Z"/>
<path transform="matrix(1,0,0,-1,112.441379,44.119874)" stroke-width=".75" stroke-linecap="round" stroke-linejoin="round" fill="none" stroke="#000000" d="M22.330437 .93064C21.80582 12.376449 12.902384 21.848553 .890862 21.478827-11.150968 21.76335-21.15139 11.894558-22.006194 .49209-21.53763-11.316226-11.906582-22.245966-.692711-21.92118 11.709395-21.003745 21.3265-12.812472 22.330437 .93064Z"/>
<path transform="matrix(1,0,0,-1,112.441379,44.119874)" stroke-width=".75" stroke-linecap="round" stroke-linejoin="round" fill="none" stroke="#000000" d="M-64.00187-.159565C-49.688684 .059627-35.441118 .021553-21.942774-.167958"/>
<path transform="matrix(1,0,0,-1,112.441379,44.119874)" stroke-width=".75" stroke-linecap="round" stroke-linejoin="round" fill="none" stroke="#000000" d="M-34.141626-8.297638C-31.025679-4.272899-26.95119-1.293053-21.538958 .035158-27.063555 .827631-31.268996 3.727174-33.890157 7.672634"/>
<path transform="matrix(1,0,0,-1,112.441379,44.119874)" stroke-width=".75" stroke-linecap="round" stroke-linejoin="round" fill="none" stroke="#000000" d="M21.619189 .138403C42.612684-.224229 63.65199-.01297 84.91053 .199137"/>
<path transform="matrix(1,0,0,-1,112.441379,44.119874)" stroke-width=".75" stroke-linecap="round" stroke-linejoin="round" fill="none" stroke="#000000" d="M72.75341-8.271741C75.98873-3.7694 80.26796-1.353691 85.39433-.078467 80.41634 .915283 75.76947 3.762001 72.33542 8.351521"/>
<path transform="matrix(1,0,0,-1,112.441379,44.119874)" stroke-width=".75" stroke-linecap="round" stroke-linejoin="round" fill="none" stroke="#000000" d="M129.9742 .250073C151.03025-.374998 172.04019-.154837 193.17804 .171661"/>
<path transform="matrix(1,0,0,-1,112.441379,44.119874)" stroke-width=".75" stroke-linecap="round" stroke-linejoin="round" fill="none" stroke="#000000" d="M180.53594-7.640284C184.14293-4.01457 188.36312-1.087405 192.99163-.323809 188.21656 .9237 183.64621 3.726739 180.52329 8.359029"/>
<path transform="matrix(1,0,0,-1,112.441379,44.119874)" stroke-width=".75" stroke-linecap="round" stroke-linejoin="round" fill="none" stroke="#000000" d="M377.29154 .143177C405.9989-.400673 434.56025-.409291 462.32673-.320601"/>
<path transform="matrix(1,0,0,-1,112.441379,44.119874)" stroke-width=".75" stroke-linecap="round" stroke-linejoin="round" fill="none" stroke="#000000" d="M450.12239-7.722918C452.9204-4.015544 457.25733-1.417546 462.354-.176497 457.61299 1.116402 453.38478 4.346938 449.52488 7.845266"/>
<path transform="matrix(1,0,0,-1,112.441379,44.119874)" stroke-width=".75" stroke-linecap="round" stroke-linejoin="round" fill="none" stroke="#000000" d="M419.8981 .268516C419.6193-25.840035 419.73896-52.60624 419.68644-78.48673 375.29823-79.07682 330.5644-79.07091 285.63539-78.34323 190.04492-78.85847 95.211078-79.04591 .098979-78.77541-.259069-59.463464 .413308-41.224607 .103556-21.8017"/>
<path transform="matrix(1,0,0,-1,112.441379,44.119874)" stroke-width=".75" stroke-linecap="round" stroke-linejoin="round" fill="none" stroke="#000000" d="M8.162914-34.549097C3.966731-31.491414 1.387351-27.090025-.066499-22.215563-.997219-27.353398-3.856829-31.061228-7.750717-35.094388"/>
<path transform="matrix(1,0,0,-1,112.441379,44.119874)" stroke-width=".75" stroke-linecap="round" stroke-linejoin="round" fill="none" stroke="#000000" d="M208.48548-36.751306C207.7354-36.48475 208.87595-35.567239 209.39443-36.87063 260.62184-36.766248 310.24983-37.112447 361.6177-36.927606 378.32896-35.92538 377.67887-36.89679 377.5196-21.166888 378.06419-6.895917 377.29216 7.1838 376.7554 21.635476 377.1459 36.09266 376.97749 36.296777 362.1621 35.7831 310.34489 35.365335 260.71699 36.341146 209.23905 35.306867 194.03038 35.945768 194.16727 35.408227 194.279 20.886029 192.82274 7.358728 192.71517-7.558889 193.93926-21.71028 194.37133-36.74559 193.61693-36.2423 208.48548-36.751306Z"/>
<path transform="matrix(1,0,0,-1,112.441379,44.119874)" stroke-width=".75" stroke-linecap="round" stroke-linejoin="round" fill="none" stroke="#000000" d="M100.38555-22.311486C99.48692-22.919968 101.11072-22.070618 100.87209-21.724318 105.79486-22.467194 109.83938-21.739367 115.521839-23.003434 130.64035-23.386975 129.34699-22.066124 130.39095-7.931171 130.53203-2.849696 130.75884 3.247079 130.15227 7.557643 129.67603 22.36763 130.35543 21.964375 114.30815 22.526366 109.7131 21.971577 105.41553 23.027523 101.354579 22.191916 85.76929 22.0881 85.49041 22.221467 86.17206 8.257618 84.89193 1.93247 86.126789-2.106275 84.68277-6.705109 85.84117-22.247439 85.22584-21.771412 100.38555-22.311486Z"/>
<path transform="matrix(1,0,0,-1,112.441379,44.119874)" stroke-width=".75" stroke-linecap="round" stroke-linejoin="round" fill="none" stroke="#000000" d="M21.02578 .085C21.149218 11.0312 12.691161 21.432843-.421324 22.035079-11.172759 22.250613-21.085255 11.117756-20.966942 .747683-21.176892-12.176947-12.731324-22.373278 .020461-22.009175 11.571715-21.908295 21.91639-12.664426 21.02578 .085Z"/>
<path transform="matrix(1,0,0,-1,112.441379,44.119874)" stroke-width=".75" stroke-linecap="round" stroke-linejoin="round" fill="none" stroke="#000000" d="M-63.797224 .447459C-49.48852-.018398-35.28806-.013141-21.623747-.002029"/>
<path transform="matrix(1,0,0,-1,112.441379,44.119874)" stroke-width=".75" stroke-linecap="round" stroke-linejoin="round" fill="none" stroke="#000000" d="M-34.080774-7.618292C-31.138907-4.298131-26.769837-1.389301-21.257912-.042789-26.675198 1.233675-30.85713 4.330622-34.13598 8.217968"/>
<path transform="matrix(1,0,0,-1,112.441379,44.119874)" stroke-width=".75" stroke-linecap="round" stroke-linejoin="round" fill="none" stroke="#000000" d="M21.478867-.363535C42.45748-.316098 63.62637 .418765 85.48056-.214312"/>
<path transform="matrix(1,0,0,-1,112.441379,44.119874)" stroke-width=".75" stroke-linecap="round" stroke-linejoin="round" fill="none" stroke="#000000" d="M72.51652-8.472399C75.86439-4.203303 79.64574-1.284645 85.27024 .096329 79.87672 1.434829 75.25024 4.263411 71.98682 7.945242"/>
<path transform="matrix(1,0,0,-1,112.441379,44.119874)" stroke-width=".75" stroke-linecap="round" stroke-linejoin="round" fill="none" stroke="#000000" d="M129.79888-.037652C151.17511 .401813 171.73949-.182188 193.14459 .02779"/>
<path transform="matrix(1,0,0,-1,112.441379,44.119874)" stroke-width=".75" stroke-linecap="round" stroke-linejoin="round" fill="none" stroke="#000000" d="M180.9176-8.326973C183.958-4.391658 188.28539-1.083348 193.22592 .345581 188.41147 1.397186 184.12212 4.082482 180.92346 8.124133"/>
<path transform="matrix(1,0,0,-1,112.441379,44.119874)" stroke-width=".75" stroke-linecap="round" stroke-linejoin="round" fill="none" stroke="#000000" d="M377.5783 .44459C405.78208-.281835 434.32597 .005196 462.80873-.228774"/>
<path transform="matrix(1,0,0,-1,112.441379,44.119874)" stroke-width=".75" stroke-linecap="round" stroke-linejoin="round" fill="none" stroke="#000000" d="M449.552-8.143933C453.08976-4.016804 457.29249-1.250055 462.72663 .121501 457.52125 .786604 452.6424 3.686848 449.6952 7.988276"/>
<path transform="matrix(1,0,0,-1,112.441379,44.119874)" stroke-width=".75" stroke-linecap="round" stroke-linejoin="round" fill="none" stroke="#000000" d="M419.70213 .191081C420.16307-26.250266 420.01957-52.574319 420.2388-79.14348 374.81416-78.56276 330.23735-78.92323 285.09648-79.14338 190.18079-79.14123 95.25179-79.01927 .30157-78.79501 .136573-60.0262 .412076-41.3493 .120523-21.944338"/>
<path transform="matrix(1,0,0,-1,112.441379,44.119874)" stroke-width=".75" stroke-linecap="round" stroke-linejoin="round" fill="none" stroke="#000000" d="M8.1608-34.651987C3.886066-31.837647 1.177855-26.903759 .055612-21.618298-1.323672-27.425284-3.568058-31.640328-7.79892-34.823518"/>
<path transform="matrix(1,0,0,-1,112.441379,44.119874)" stroke-width=".75" stroke-linecap="round" stroke-linejoin="round" fill="none" stroke="#000000" d="M207.69951-35.77616C207.95117-35.303575 208.4274-37.091947 208.06168-36.654264 260.68537-36.97504 310.35057-37.048566 362.9784-36.842088 377.1286-36.971429 376.972-36.11541 377.70509-21.341097 378.1031-6.262401 376.71437 7.448352 377.67475 21.313454 377.6686 36.71301 377.45707 35.5923 363.15159 36.931039 311.44364 36.395715 259.1949 35.31124 208.60372 35.788705 193.62183 36.620294 193.88661 36.172388 193.98935 20.301665 194.18004 7.467825 192.65476-6.501509 194.37651-20.861104 194.55387-35.30775 193.77826-36.351854 207.69951-35.77616Z"/>
<path transform="matrix(1,0,0,-1,112.441379,44.119874)" stroke-width=".75" stroke-linecap="round" stroke-linejoin="round" fill="none" stroke="#000000" d="M100.91287-21.868805C100.22272-22.596274 100.856548-22.201174 100.221637-21.954197 104.99595-22.72259 109.146648-21.759413 115.3732-21.549473 129.53533-21.911906 130.42922-23.01476 130.68543-7.229021 130.66126-3.201418 129.03462 2.640536 130.11389 6.947064 129.11586 22.691916 130.01338 23.387602 115.35958 21.936293 110.120189 22.935294 106.02466 23.004935 100.469058 22.182036 85.32651 22.287877 85.61303 22.298653 84.505039 7.147805 85.124408 1.927747 85.12426-2.3049 86.1144-6.519139 85.02242-21.944342 84.48504-23.12691 100.91287-21.868805Z"/>
<path transform="matrix(1,0,0,-1,112.441379,44.119874)" stroke-width=".75" stroke-linecap="round" stroke-linejoin="round" fill="none" stroke="#000000" d="M22.348467 .420408C21.767298 12.121288 12.911903 21.27777 .878895 20.796673-12.031612 20.902913-21.94043 11.928555-22.41342-.135342-21.020529-11.675377-11.195192-22.158104 .787389-22.376505 11.362813-21.411063 20.912459-12.919731 22.348467 .420408Z"/>
<path transform="matrix(1,0,0,-1,112.441379,44.119874)" stroke-width=".75" stroke-linecap="round" stroke-linejoin="round" fill="none" stroke="#000000" d="M-63.78243 .334252C-50.177698-.128075-35.803018 .112966-21.233204-.287307"/>
<path transform="matrix(1,0,0,-1,112.441379,44.119874)" stroke-width=".75" stroke-linecap="round" stroke-linejoin="round" fill="none" stroke="#000000" d="M-34.42148-8.441466C-31.45179-4.353995-26.947808-.720007-21.735232-.33577-26.990117 .990238-31.222319 4.23447-34.06502 7.865371"/>
<path transform="matrix(1,0,0,-1,112.441379,44.119874)" stroke-width=".75" stroke-linecap="round" stroke-linejoin="round" fill="none" stroke="#000000" d="M22.03768-.143533C42.811624-.233008 63.54206 .288293 84.740909 .421437"/>
<path transform="matrix(1,0,0,-1,112.441379,44.119874)" stroke-width=".75" stroke-linecap="round" stroke-linejoin="round" fill="none" stroke="#000000" d="M72.24273-7.893645C75.382328-4.048435 79.845409-1.260664 85.06204-.437667 80.28203 .779439 75.444828 3.78332 72.28693 7.637834"/>
<path transform="matrix(1,0,0,-1,112.441379,44.119874)" stroke-width=".75" stroke-linecap="round" stroke-linejoin="round" fill="none" stroke="#000000" d="M129.70809-.173297C150.67363-.013514 172.43717-.295653 193.30234 .052305"/>
<path transform="matrix(1,0,0,-1,112.441379,44.119874)" stroke-width=".75" stroke-linecap="round" stroke-linejoin="round" fill="none" stroke="#000000" d="M180.12769-8.38152C184.06099-4.316134 188.34203-1.590285 193.26114 .262397 188.5426 1.201354 183.77759 3.716673 180.33628 7.88009"/>
<path transform="matrix(1,0,0,-1,112.441379,44.119874)" stroke-width=".75" stroke-linecap="round" stroke-linejoin="round" fill="none" stroke="#000000" d="M377.09107-.130344C406.12617-.15663 434.51487-.052307 462.5553-.074862"/>
<path transform="matrix(1,0,0,-1,112.441379,44.119874)" stroke-width=".75" stroke-linecap="round" stroke-linejoin="round" fill="none" stroke="#000000" d="M449.50154-7.960114C453.03919-4.308511 457.27757-.73749 462.6816 .443633 457.8927 1.249581 453.1225 4.040108 449.491 8.409206"/>
<path transform="matrix(1,0,0,-1,112.441379,44.119874)" stroke-width=".75" stroke-linecap="round" stroke-linejoin="round" fill="none" stroke="#000000" d="M420.3444-.409461C419.87724-26.253676 420.13789-52.05358 420.32884-78.48494 375.52238-79.08367 330.75456-78.38372 285.69615-78.25612 190.71408-78.51194 94.758609-78.57111-.112748-78.7634 .283619-59.544328 .162252-41.246778-.425649-22.174407"/>
<path transform="matrix(1,0,0,-1,112.441379,44.119874)" stroke-width=".75" stroke-linecap="round" stroke-linejoin="round" fill="none" stroke="#000000" d="M8.336047-34.99793C3.654136-31.733569 1.425517-27.35766-.430272-21.618857-1.60611-26.964402-3.608667-31.364295-7.766431-34.41564"/>
<path transform="matrix(1,0,0,-1,112.441379,44.119874)" stroke-width=".75" stroke-linecap="round" stroke-linejoin="round" fill="none" stroke="#000000" d="M209.04042-35.316186C208.58977-35.650739 209.54143-36.966585 208.34696-36.859724 259.21504-35.806318 311.89378-35.625654 361.51606-36.339296 377.36839-36.312887 377.3335-35.41908 377.98817-21.869704 377.24946-6.429774 376.65626 7.428924 378.10484 20.620223 377.0786 36.754026 377.43128 35.431344 363.05046 36.14046 311.06504 36.137357 259.711 36.308309 208.14778 36.326349 193.8348 36.85771 192.84009 35.903654 193.98584 21.11486 192.70691 7.43612 194.56069-7.629799 193.31465-20.81491 193.27753-36.34078 192.80683-35.985246 209.04042-35.316186Z"/>
<path transform="matrix(1,0,0,-1,112.441379,44.119874)" stroke-width=".75" stroke-linecap="round" stroke-linejoin="round" fill="none" stroke="#000000" d="M100.05605-22.910544C101.25721-22.349482 100.10785-22.565817 99.95251-23.129458 105.741069-21.721287 109.74598-23.17174 114.59235-21.761429 129.5601-21.969985 130.19512-22.379117 129.80384-8.280679 130.44368-1.676817 129.18158 1.812453 130.20673 8.26738 129.16889 23.085843 130.45104 23.283219 115.39756 23.26809 109.70705 23.243094 104.913127 23.253464 100.33281 23.250279 85.62115 21.45446 86.31655 21.748385 85.18522 6.662915 85.353939 1.950772 84.50289-1.86182 85.829189-7.896505 84.97171-23.397278 86.392719-22.778275 100.05605-22.910544Z"/>
<path transform="matrix(1,0,0,-1,112.441379,44.119874)" stroke-width=".75" stroke-linecap="round" stroke-linejoin="round" fill="none" stroke="#000000" d="M21.98766-.066315C21.146826 11.727327 12.436983 20.69308-.08257 22.140942-12.541605 21.698662-21.407626 12.454221-21.009942-.790599-20.714705-12.854385-12.698625-21.528496-.004428-21.765646 12.14446-21.082854 22.430436-11.183572 21.98766-.066315Z"/>
<path transform="matrix(1,0,0,-1,112.441379,44.119874)" stroke-width=".75" stroke-linecap="round" stroke-linejoin="round" fill="none" stroke="#000000" d="M-64.18865 .329547C-49.348409 .169788-35.823778 .359047-21.205245 .320631"/>
<path transform="matrix(1,0,0,-1,112.441379,44.119874)" stroke-width=".75" stroke-linecap="round" stroke-linejoin="round" fill="none" stroke="#000000" d="M-33.91794-7.789126C-31.578934-3.643365-26.263329-1.021749-21.932309 .010201-26.479113 1.362891-30.882157 4.264728-34.156076 8.123572"/>
<path transform="matrix(1,0,0,-1,112.441379,44.119874)" stroke-width=".75" stroke-linecap="round" stroke-linejoin="round" fill="none" stroke="#000000" d="M21.338036-.049053C42.393999-.244048 64.14587 .327048 84.68075-.421553"/>
<path transform="matrix(1,0,0,-1,112.441379,44.119874)" stroke-width=".75" stroke-linecap="round" stroke-linejoin="round" fill="none" stroke="#000000" d="M72.547718-8.118313C75.72233-4.370095 79.832218-.891094 84.98797 .176507 80.413188 1.517556 75.15175 3.592473 72.83308 7.639165"/>
<path transform="matrix(1,0,0,-1,112.441379,44.119874)" stroke-width=".75" stroke-linecap="round" stroke-linejoin="round" fill="none" stroke="#000000" d="M129.62845-.25199C150.87644-.262102 172.39412-.080945 193.4637 .291745"/>
<path transform="matrix(1,0,0,-1,112.441379,44.119874)" stroke-width=".75" stroke-linecap="round" stroke-linejoin="round" fill="none" stroke="#000000" d="M180.52643-7.647552C183.50139-3.638709 188.58145-1.028045 192.85375-.165834 188.45854 1.043768 183.3798 3.774483 180.41547 7.834694"/>
<path transform="matrix(1,0,0,-1,112.441379,44.119874)" stroke-width=".75" stroke-linecap="round" stroke-linejoin="round" fill="none" stroke="#000000" d="M377.00187 .214647C405.62547 .008667 434.27696-.187353 462.52476 .307866"/>
<path transform="matrix(1,0,0,-1,112.441379,44.119874)" stroke-width=".75" stroke-linecap="round" stroke-linejoin="round" fill="none" stroke="#000000" d="M450.10365-8.070287C452.86607-4.414545 457.23356-1.070786 462.2649 .085822 457.6285 1.57649 453.05406 4.011435 450.09025 8.265108"/>
<path transform="matrix(1,0,0,-1,112.441379,44.119874)" stroke-width=".75" stroke-linecap="round" stroke-linejoin="round" fill="none" stroke="#000000" d="M419.69715-.235726C419.84175-26.217402 419.96379-52.18961 420.3677-78.51755 375.48066-78.80311 330.09019-78.98123 285.3947-78.656269 190.14324-78.316379 95.21452-78.99966 .044048-78.54719 .344653-59.78846 .003634-40.765085-.137166-22.298995"/>
<path transform="matrix(1,0,0,-1,112.441379,44.119874)" stroke-width=".75" stroke-linecap="round" stroke-linejoin="round" fill="none" stroke="#000000" d="M8.120692-34.523019C4.336946-31.65338 1.527937-26.850945 .223896-21.792304-1.222641-27.13039-3.937254-31.683377-7.614666-34.955038"/>
<use data-text="+" xlink:href="#font_1_1" transform="matrix(21.519354,0,0,-21.519316,74.39209,36.377046)"/>
<use data-text="&#x2212;" xlink:href="#font_1_7" transform="matrix(21.519371,0,0,-21.519288,118.591289,74.72927)"/>
<use data-text="r" xlink:href="#font_1_8" transform="matrix(21.519349,0,0,-21.519398,6.8142855,49.50116)"/>
<use data-text="(" xlink:href="#font_1_4" transform="matrix(21.519349,0,0,-21.519398,16.110646,49.50116)"/>
<use data-text="t" xlink:href="#font_1_9" transform="matrix(21.519349,0,0,-21.519398,25.655766,49.50116)"/>
<use data-text=")" xlink:href="#font_1_6" transform="matrix(21.519349,0,0,-21.519398,35.803434,49.50116)"/>
<use data-text="y" xlink:href="#font_1_10" transform="matrix(21.519242,0,0,-21.519371,579.7703,49.275117)"/>
<use data-text="(" xlink:href="#font_1_4" transform="matrix(21.519242,0,0,-21.519371,592.53128,49.275117)"/>
<use data-text="t" xlink:href="#font_1_9" transform="matrix(21.519242,0,0,-21.519371,602.07638,49.275117)"/>
<use data-text=")" xlink:href="#font_1_6" transform="matrix(21.519242,0,0,-21.519371,612.22396,49.275117)"/>
</svg>
