<svg xmlns="http://www.w3.org/2000/svg" xmlns:xlink="http://www.w3.org/1999/xlink" xmlns:inkscape="http://www.inkscape.org/namespaces/inkscape" version="1.1" width="643.83676" height="134.67317" viewBox="0 0 643.83676 134.67317">
<defs>
<path id="font_3_1" d="M.04598999 .23632813H.35598756V-.07368469L.3959961-.06668091V.23632813H.70399478L.70899966 .2763214H.3959961V.58631899L.35598756 .58032229V.2763214H.052993776L.04598999 .23632813Z"/>
<path id="font_3_2" d="M.04899597 .6591797C.049987794 .6591797 .08999634 .647171 .10998535 .6411743 .116989139 .63916018 .12098694 .63217166 .12399292 .62615969 .12799073 .61616519 .1289978 .6051636 .1289978 .59516909V.14816284L.12599182 .001159668 .13699341-.0038452149 .21798706 .025161744C.21199036 .122161868 .21199036 .22015381 .21199036 .318161L.22099304 .3191681C.32899476 .2101593 .44099427 .105163577 .54599-.0068359377L.6309967 .024154664 .6319885 .03515625C.57099917 .089157108 .4059906 .25315858 .29899598 .36016847 .29499818 .36416627 .2939911 .36616517 .2939911 .36915589 .2939911 .37216188 .29899598 .37716676 .3019867 .38015748L.59298709 .6741791 .59399417 .6831665H.5039978L.21699524 .35716249 .20899964 .35816957C.20899964 .4711609 .21398926 .59916689 .21598816 .62615969 .21598816 .62716677 .21998596 .6641693 .22399903 .676178L.21699524 .6831665H.05899048L.050994874 .676178 .04899597 .6591797Z"/>
<path id="font_3_12" d="M.04499817 .23840332C.04499817 .16436768 .06199646 .08732605 .114990238 .034301759 .14698792 .0023040772 .19099427-.0126953129 .23599243-.0126953129 .2979889-.0126953129 .35598756 .013290405 .39898683 .05630493 .44099427 .09832764 .47099305 .15135193 .47099305 .21139527 .47099305 .2564087 .45599366 .30143739 .42399598 .33444215 .39698792 .3614502 .35899354 .3774414 .32099916 .3774414 .2519989 .3774414 .18899536 .3484497 .13598633 .30543519L.1289978 .30644227C.12998963 .40242005 .14898682 .5033264 .22799683 .57624819 .2689972 .61421206 .32299806 .6411896 .38398744 .6411896 .4039917 .6411896 .42199708 .6381836 .44198609 .63020327L.45098878 .6341858 .47099305 .68818667C.45599366 .69418337 .43099977 .7001953 .41600038 .7001953 .375 .7001953 .33499146 .6871948 .29899598 .6681824 .2539978 .6451874 .21398926 .6132202 .1789856 .57624819 .08999634 .4873352 .04499817 .3634491 .04499817 .23840332M.13198853 .26542665C.1539917 .28642274 .21499634 .31445313 .2559967 .31445313 .2889862 .31445313 .32299806 .30343629 .34599305 .27941896 .375 .25141908 .3919983 .21238709 .3919983 .17236328 .3919983 .13134766 .37998963 .09132385 .35099793 .063308719 .32798768 .040298463 .29499818 .032302858 .2630005 .032302858 .23799134 .032302858 .21299744 .043304445 .19499207 .060317995 .17399597 .081329349 .15699768 .1103363 .147995 .13935852 .13598633 .17936707 .13198853 .22439575 .13198853 .26542665Z"/>
<path id="font_3_5" d="M.051986696 .06642151C.06199646 .047409059 .07598877 .030395508 .09199524 .01638794 .12098694-.009613037 .16099549-.016601563 .19898987-.016601563 .2559967-.016601563 .31199647 .0023956299 .35099793 .044403078 .375 .06941223 .3869934 .10343933 .3869934 .13845825 .3869934 .1634674 .37298585 .18649292 .35499574 .20449829 .34098817 .21850586 .3039856 .24052429 .27198792 .25453187 .24299622 .26654054 .19999695 .2885437 .18798828 .30055238 .17298889 .31655885 .1619873 .3285675 .1619873 .35058595 .1619873 .3725891 .16899109 .39360047 .18499756 .4086151 .19999695 .42362977 .22200012 .43164063 .24398804 .43164063 .2639923 .43164063 .2849884 .42462159 .29599 .4066162 .30599977 .39060975 .30799867 .3715973 .30899049 .35359193L.32099916 .34657289 .37599183 .38360597C.375 .40560914 .3639984 .42662049 .34799195 .44163514 .32499696 .46263124 .29299928 .46662904 .2630005 .46662904 .21398926 .46662904 .16699219 .45063783 .1309967 .4176178 .10398865 .39360047 .08999634 .35858155 .08999634 .32356263 .08999634 .29154969 .10798645 .26353456 .1309967 .2425232 .1539917 .22250366 .18399048 .2084961 .21499634 .1954956 .24099732 .18447876 .2689972 .17248535 .28799439 .1534729 .30299378 .13845825 .31399537 .11845398 .31399537 .09744263 .31399537 .079422 .30499269 .062408449 .29299928 .04940796 .27799989 .03340149 .25099183 .021392823 .22898865 .021392823 .19898987 .021392823 .17199707 .03439331 .1499939 .055404664 .1269989 .076416019 .116989139 .10644531 .114990238 .13645935L.100997928 .13745117 .051986696 .06642151Z"/>
<path id="font_3_16" d="M.050994874 .049362184 .05899048 .038375856C.10998535 .0033874512 .17098999-.016601563 .23599243-.016601563 .31799317-.016601563 .397995 .008392334 .45700074 .05935669 .5039978 .10131836 .5349884 .15626526 .5349884 .21520996 .5349884 .25416566 .519989 .2911377 .48999024 .31811524 .46899415 .3360901 .44198609 .34709168 .41600038 .35508729 .3789978 .36608888 .34199525 .37109376 .30299378 .37408448V.38209535C.34999085 .39408876 .3939972 .41609193 .42900086 .44610597 .46499635 .47810365 .48199464 .52311709 .48199464 .5681305 .48199464 .60414126 .46798707 .6401367 .43899537 .6651459 .40699769 .6941376 .36099244 .70214846 .31698609 .70214846 .2849884 .70214846 .25498963 .69114688 .22599793 .67814639 .18598938 .6591339 .14698792 .63414 .11199951 .60813906L.12799073 .58613589C.1539917 .60113528 .17999268 .6151428 .20799256 .6261444 .22799683 .6331482 .24699402 .6391449 .2659912 .6391449 .2999878 .6391449 .33299256 .6321411 .35598756 .61112979 .37799073 .59213259 .3889923 .5671234 .3889923 .54011538 .3889923 .502121 .37199403 .46510316 .34098817 .43710328 .32299806 .4210968 .29899598 .40908814 .27398683 .39909364 .24198914 .38609315 .20698548 .37808229 .17298889 .37109376L.17199707 .34509278C.21398926 .34509278 .2559967 .34309388 .29699708 .3340912 .32499696 .32809449 .35299684 .31910707 .37298585 .30012513 .4059906 .26914979 .42900086 .22920227 .42900086 .18623352 .42900086 .14128113 .41299439 .095321658 .3769989 .06335449 .34599305 .036376954 .30599977 .023391724 .2639923 .023391724 .22299195 .023391724 .18499756 .041366579 .1559906 .067352298 .13798523 .08332825 .12399292 .10131836 .10998535 .121292117H.09899902L.050994874 .049362184Z"/>
<path id="font_3_17" d="M.04499817 .001953125H.5379944L.56399539 .079940799 .5589905 .08795166H.20999146C.20399475 .08795166 .19799805 .08894348 .19599915 .092941287 .19499207 .094940189 .19599915 .09794617 .19699097 .09895325 .2539978 .1569519 .30799867 .21495056 .35899354 .27496339 .394989 .31697084 .42999269 .358963 .45799256 .40496827 .48799134 .4509735 .5119934 .49998475 .5119934 .5529938 .5119934 .59399417 .49899293 .6349945 .46499635 .66400149 .43199159 .69299319 .3880005 .7080078 .34199525 .7080078 .29899598 .7080078 .2579956 .6970062 .22099304 .67900088 .17599488 .65800479 .13699341 .6279907 .102996829 .59498599L.125 .57598879C.1519928 .59599307 .17799378 .61099246 .20999146 .6259918 .23098755 .6360016 .2559967 .6399994 .2809906 .6399994 .31399537 .6399994 .34700013 .6289978 .37098695 .6069946 .40098573 .5779877 .4079895 .5369873 .4079895 .50798037 .4079895 .4429779 .38198854 .38197328 .34298707 .3259735 .31098939 .27996827 .27198792 .23796082 .23199463 .19696045 .17199707 .13494873 .10899353 .07594299 .04499817 .017944336V.001953125Z"/>
<path id="font_3_11" d="M.09199524 .6121063H.1749878C.19999695 .6121063 .21998596 .5911102 .22099304 .56611636 .22200012 .5411072 .22200012 .46810914 .22200012 .41911317 .22200012 .27911378 .21899414 .13911438 .21398926 .00010681152L.22599793-.0048828127 .30999757 .022109986C.30699159 .09811401 .30699159 .29611207 .30699159 .43211366 .30699159 .52111819 .30899049 .6111145 .31399537 .70010378L.30799867 .7121124 .09199524 .6391144V.6121063Z"/>
<path id="font_3_7" d="M.04598999 .23046875H.70399478L.70999148 .27046205H.052993776L.04598999 .23046875Z"/>
<path id="font_3_8" d="M.008987427 .3981018 .020996094 .38110353C.04598999 .39509584 .07598877 .41210938 .09899902 .41210938 .10998535 .41210938 .11999512 .4071045 .12599182 .39709474 .14199829 .37210084 .14199829 .2960968 .14199829 .24308777 .14099121 .16307068 .13699341 .07606506 .12998963 .0060577394L.14498902-.0029296876 .21499634 .018066407C.21299744 .110076908 .21299744 .20108032 .21299744 .29408265 .21299744 .3080902 .21398926 .32809449 .21899414 .3400879 .23098755 .3668213 .25498963 .40179444 .29599 .40179444 .33898927 .40179444 .34599305 .3598175 .34899903 .3438263L.36099244 .33883668 .4149933 .38780213C.41299439 .40979005 .40899659 .46679688 .33599855 .46679688 .30099488 .46679688 .24499512 .41479493 .22599793 .39678956L.21598816 .40078736C.21299744 .4210968 .20498657 .47309876 .14399719 .47309876 .10499573 .47309876 .033996583 .41810609 .008987427 .3981018Z"/>
<path id="font_3_4" d="M.11299133 .24990845C.11299133 .007904053 .1519928-.09008789 .18299866-.13310242 .21099854-.17008972 .25299073-.20809937 .30099488-.21209717V-.1880951C.2809906-.18409729 .25099183-.16809082 .23399353-.1481018 .21998596-.13209534 .16499329-.05809021 .16499329 .24990845 .16499329 .4618988 .19799805 .5659027 .21998596 .6128998 .23599243 .6469116 .2689972 .6769104 .30099488 .684906V.71191409C.2599945 .7049103 .21598816 .6729126 .19099427 .63790896 .1599884 .5919037 .11299133 .4748993 .11299133 .24990845Z"/>
<path id="font_3_9" d="M.016998291 .40538026 .021987915 .40039063H.13398743L.13999939 .39338685V.20327759C.13999939 .06820679 .14199829 .049209596 .16299439 .022201539 .18099976-.0018005371 .21199036-.0087890629 .23498535-.0087890629 .2619934-.0087890629 .2869873 .0012054443 .31098939 .014205933 .34298707 .031204224 .37199403 .05419922 .39898683 .07922363L.3919983 .09422302 .37998963 .096221927C.34999085 .07720947 .31399537 .0552063 .2889862 .0552063 .27198792 .0552063 .25698854 .06021118 .24398804 .07521057 .22200012 .099227908 .21798706 .16325379 .21798706 .20527649V.39437867L.22399903 .40039063H.34298707L.34899903 .40538026 .35699464 .43138124 .35198976 .43537904H.22399903L.21798706 .4403839C.21899414 .49838258 .22399903 .54937747 .22898865 .6063843L.22200012 .61138918 .13798523 .5823822C.13999939 .5563812 .13999939 .49238587 .13999939 .44137574L.13398743 .43537904H.02999878L.023986817 .42938233 .016998291 .40538026Z"/>
<path id="font_3_6" d="M.085998538-.1880951V-.21209717C.13398743-.20610047 .1789856-.17208863 .20698548-.13510132 .23799134-.09210205 .27598573 .007904053 .27598573 .24990845 .27598573 .50090029 .22399903 .5919037 .19299317 .63790896 .16799927 .6729126 .1269989 .7049103 .085998538 .71191409V.684906C.117996219 .6759033 .14898682 .6469116 .16499329 .6128998 .18699646 .5659027 .22399903 .48190309 .22399903 .24990845 .22399903-.099090579 .17199707-.13209534 .1579895-.1481018 .14099121-.16809082 .10598755-.18409729 .085998538-.1880951Z"/>
<path id="font_3_10" d="M-.01701355 .40115357-.006011963 .38215638C.016998291 .39414979 .04798889 .41015626 .06498718 .41015626 .07699585 .41015626 .08898926 .4061432 .09599304 .39614869 .10798645 .38015748 .11099243 .33815003 .11099243 .29415895 .11099243 .26815797 .10699463 .1771698 .10699463 .15716553 .10699463 .059173585 .12599182-.0078125 .21099854-.0078125 .27198792-.0078125 .36499024 .048187257 .39898683 .06918335L.40499879 .06417847C.39898683-.02079773 .4019928-.19143677 .2559967-.19143677 .21099854-.19143677 .17298889-.1525116 .1519928-.114593509H.13899231L.09498596-.17047119 .09700012-.18145752C.12399292-.20942688 .1769867-.23242188 .22399903-.23242188 .2919922-.23242188 .36299134-.20843506 .41099549-.15750122 .45999146-.10560608 .48399354-.049728395 .4850006 .13816834 .4850006 .15716553 .4850006 .37615968 .4909973 .46214295L.47898866 .466156 .3999939 .42814637C.40499879 .35914613 .4079895 .28715516 .4079895 .21516419 .4079895 .1791687 .40699769 .14317322 .4059906 .108169559 .38598634 .09617615 .32598878 .05618286 .27198792 .05618286 .20799256 .05618286 .18099976 .092178348 .18099976 .22616577 .18099976 .28416444 .18499756 .34214784 .18499756 .39814759 .18499756 .41914369 .17799378 .4681549 .12199402 .4681549 .07899475 .4681549-.009002686 .40715028-.01701355 .40115357Z"/>
</defs>
<use data-text="+" xlink:href="#font_3_1" transform="matrix(37.185197,0,0,-37.18505,98.4019,55.797433)"/>
<use data-text="K" xlink:href="#font_3_2" transform="matrix(21.519206,0,0,-21.519215,212.86754,53.552255)"/>
<use data-text="6" xlink:href="#font_3_12" transform="matrix(21.519427,0,0,-21.519383,400.79548,38.357484)"/>
<path transform="matrix(1.5000088,0,0,-1.5000057,321.02497,44.2125)" stroke-width=".574019" stroke-linecap="butt" stroke-linejoin="round" fill="none" stroke="#000000" d="M0 0H113.52092"/>
<use data-text="s" xlink:href="#font_3_5" transform="matrix(21.519427,0,0,-21.519383,321.02497,64.95799)"/>
<use data-text="3" xlink:href="#font_3_16" transform="matrix(16.438448,0,0,-16.438414,330.81925,57.14412)"/>
<use data-text="+" xlink:href="#font_3_1" transform="matrix(21.519427,0,0,-21.519383,345.844,64.95799)"/>
<use data-text="6" xlink:href="#font_3_12" transform="matrix(21.519427,0,0,-21.519383,366.87324,64.95799)"/>
<use data-text="s" xlink:href="#font_3_5" transform="matrix(21.519427,0,0,-21.519383,377.61146,64.95799)"/>
<use data-text="2" xlink:href="#font_3_17" transform="matrix(16.438448,0,0,-16.438414,387.41377,57.14412)"/>
<use data-text="+" xlink:href="#font_3_1" transform="matrix(21.519427,0,0,-21.519383,402.43855,64.95799)"/>
<use data-text="1" xlink:href="#font_3_11" transform="matrix(21.519427,0,0,-21.519383,423.46778,64.95799)"/>
<use data-text="1" xlink:href="#font_3_11" transform="matrix(21.519427,0,0,-21.519383,434.20594,64.95799)"/>
<use data-text="s" xlink:href="#font_3_5" transform="matrix(21.519427,0,0,-21.519383,444.94416,64.95799)"/>
<use data-text="+" xlink:href="#font_3_1" transform="matrix(21.519427,0,0,-21.519383,459.51753,64.95799)"/>
<use data-text="6" xlink:href="#font_3_12" transform="matrix(21.519427,0,0,-21.519383,480.5468,64.95799)"/>
<path transform="matrix(1,0,0,-1,112.441379,46.276636)" stroke-width=".75" stroke-linecap="round" stroke-linejoin="round" fill="none" stroke="#000000" d="M207.95075-37.498144C208.53441-39.19983 209.4261-38.699304 209.37595-37.437295 265.55467-37.756395 321.52018-37.31726 378.74177-38.344465 393.41435-39.200277 394.43354-37.461008 393.77156-22.382552 393.58918-7.430287 393.3847 8.304901 393.92018 23.501729 394.09315 38.426336 393.8368 37.29149 378.9835 38.80346 322.76054 37.325674 266.0388 39.034257 208.46479 37.895967 194.32306 39.01116 193.8983 38.577268 192.66223 23.748147 194.28325 7.634605 194.40856-7.114938 193.72751-22.489438 194.16136-38.541448 193.63124-37.840257 207.95075-37.498144Z"/>
<path transform="matrix(1,0,0,-1,112.441379,46.276636)" stroke-width=".75" stroke-linecap="round" stroke-linejoin="round" fill="none" stroke="#000000" d="M101.034038-22.68223C100.21952-22.647448 99.72615-22.934332 100.51571-22.971487 105.09197-21.62605 110.693729-23.245358 114.75757-21.645915 130.12445-22.148089 130.2045-22.819689 130.46028-7.663686 129.55884-2.483856 129.59497 1.59716 129.18149 7.819787 129.82517 21.830662 129.48555 21.983119 114.4605 22.875653 110.92356 22.287024 104.6734 22.027558 100.1441 22.18276 85.88358 22.695126 84.69471 21.562357 85.84125 6.865516 84.85322 2.653945 85.14937-3.417522 85.960758-7.172222 85.832599-22.181082 86.37247-22.565527 101.034038-22.68223Z"/>
<path transform="matrix(1,0,0,-1,112.441379,46.276636)" stroke-width=".75" stroke-linecap="round" stroke-linejoin="round" fill="none" stroke="#000000" d="M21.961852-.808552C22.568362 12.870714 12.872824 22.409094 .148505 21.528033-12.688148 21.069565-21.555325 12.546923-22.52384 .596894-20.787404-11.621393-11.575036-22.139409 .921256-22.577883 11.010233-22.332783 22.361269-12.40475 21.961852-.808552Z"/>
<path transform="matrix(1,0,0,-1,112.441379,46.276636)" stroke-width=".75" stroke-linecap="round" stroke-linejoin="round" fill="none" stroke="#000000" d="M-63.352235 .369886C-50.120607-.416927-36.069025 .029239-21.843234 .39114"/>
<path transform="matrix(1,0,0,-1,112.441379,46.276636)" stroke-width=".75" stroke-linecap="round" stroke-linejoin="round" fill="none" stroke="#000000" d="M-34.490175-8.039928C-31.269556-3.938379-26.430577-1.178228-21.481453-.33319-26.625567 1.09775-30.69901 3.618458-33.885019 8.251654"/>
<path transform="matrix(1,0,0,-1,112.441379,46.276636)" stroke-width=".75" stroke-linecap="round" stroke-linejoin="round" fill="none" stroke="#000000" d="M22.09335 .255995C42.91845 .011777 64.24683 .288142 84.835918 .429718"/>
<path transform="matrix(1,0,0,-1,112.441379,46.276636)" stroke-width=".75" stroke-linecap="round" stroke-linejoin="round" fill="none" stroke="#000000" d="M72.549037-8.161332C75.329479-4.185514 79.67434-1.325876 85.171688-.215693 80.37715 .907493 75.49653 3.820726 72.54608 8.30991"/>
<path transform="matrix(1,0,0,-1,112.441379,46.276636)" stroke-width=".75" stroke-linecap="round" stroke-linejoin="round" fill="none" stroke="#000000" d="M129.67992 .072297C151.02082-.054493 171.7697 .163684 193.01833 .092172"/>
<path transform="matrix(1,0,0,-1,112.441379,46.276636)" stroke-width=".75" stroke-linecap="round" stroke-linejoin="round" fill="none" stroke="#000000" d="M180.23244-7.825469C183.47859-4.243849 188.4646-1.368435 193.25331 .113833 188.48983 1.280294 183.57256 3.950163 180.25313 7.653941"/>
<path transform="matrix(1,0,0,-1,112.441379,46.276636)" stroke-width=".75" stroke-linecap="round" stroke-linejoin="round" fill="none" stroke="#000000" d="M393.45759 .048319C422.30393-.020225 450.47715-.116025 478.63795-.319465"/>
<path transform="matrix(1,0,0,-1,112.441379,46.276636)" stroke-width=".75" stroke-linecap="round" stroke-linejoin="round" fill="none" stroke="#000000" d="M466.58924-7.698206C469.59703-3.716287 473.51896-1.428872 479.26606-.201115 473.7143 1.32359 469.7139 4.173817 466.46089 7.64552"/>
<path transform="matrix(1,0,0,-1,112.441379,46.276636)" stroke-width=".75" stroke-linecap="round" stroke-linejoin="round" fill="none" stroke="#000000" d="M436.3338 .388878C436.1329-27.077166 436.35496-53.56294 436.05363-80.707988 388.86094-80.90101 341.0194-80.43052 293.9957-80.93185 196.25342-80.58256 98.181987-80.636409-.184551-81.20821-.091594-61.05612 .076854-41.44346-.305255-22.249796"/>
<path transform="matrix(1,0,0,-1,112.441379,46.276636)" stroke-width=".75" stroke-linecap="round" stroke-linejoin="round" fill="none" stroke="#000000" d="M8.435781-34.342317C4.022897-31.759926 1.291838-27.273417-.038774-21.68698-1.004642-27.026904-3.586197-31.823513-8.382333-34.515447"/>
<path transform="matrix(1,0,0,-1,112.441379,46.276636)" stroke-width=".75" stroke-linecap="round" stroke-linejoin="round" fill="none" stroke="#000000" d="M209.10868-39.17969C208.4131-38.125898 208.40222-38.20267 208.13893-37.45393 264.45744-39.03994 321.46025-39.195356 379.81077-38.19825 394.1403-38.416608 394.40373-38.26734 394.31205-23.433312 392.9916-7.76582 394.06166 7.864116 394.4969 22.340222 394.08088 38.599405 394.4182 37.363508 378.0404 38.3789 322.60353 37.40888 265.69593 38.510614 208.63521 38.99359 194.54093 37.82009 193.77423 37.87328 192.71244 23.26074 192.98952 8.415834 192.72737-8.291142 193.46768-22.777588 192.85408-37.619577 193.8792-37.530385 209.10868-39.17969Z"/>
<path transform="matrix(1,0,0,-1,112.441379,46.276636)" stroke-width=".75" stroke-linecap="round" stroke-linejoin="round" fill="none" stroke="#000000" d="M99.52142-23.33005C100.13229-22.437775 99.5669-22.19388 100.29989-22.910208 104.32061-22.206353 109.216518-22.026236 114.13387-22.228446 130.3396-21.598757 128.95786-23.343096 129.96367-6.473356 130.52791-1.536845 129.09728 3.259888 130.23139 7.050497 130.76165 21.596127 129.73308 21.88833 114.45517 23.304324 110.69212 22.246182 105.561069 23.26635 100.25808 22.836285 84.70562 21.818249 86.20063 23.290209 84.84673 7.170239 85.52003 1.78338 85.15688-2.432345 85.15797-6.51893 85.63085-23.396224 85.46757-23.241829 99.52142-23.33005Z"/>
<path transform="matrix(1,0,0,-1,112.441379,46.276636)" stroke-width=".75" stroke-linecap="round" stroke-linejoin="round" fill="none" stroke="#000000" d="M22.427224 .050353C21.475237 12.375126 12.859946 22.498976-.292414 20.90641-11.525821 21.26432-22.40635 11.319445-21.996563 .322518-21.752469-12.090915-12.687267-21.251069-.786171-21.147984 11.872986-22.250432 22.341437-11.007264 22.427224 .050353Z"/>
<path transform="matrix(1,0,0,-1,112.441379,46.276636)" stroke-width=".75" stroke-linecap="round" stroke-linejoin="round" fill="none" stroke="#000000" d="M-63.737234-.279987C-49.67651 .082462-35.324098 .407352-21.86987 .378509"/>
<path transform="matrix(1,0,0,-1,112.441379,46.276636)" stroke-width=".75" stroke-linecap="round" stroke-linejoin="round" fill="none" stroke="#000000" d="M-33.865869-7.815144C-31.242863-4.304161-26.554234-1.009615-21.90034-.08857-27.10844 .800617-30.830786 4.410248-34.1915 7.846466"/>
<path transform="matrix(1,0,0,-1,112.441379,46.276636)" stroke-width=".75" stroke-linecap="round" stroke-linejoin="round" fill="none" stroke="#000000" d="M21.88557-.153379C43.04081-.26863 63.752527 .043175 85.34792-.266236"/>
<path transform="matrix(1,0,0,-1,112.441379,46.276636)" stroke-width=".75" stroke-linecap="round" stroke-linejoin="round" fill="none" stroke="#000000" d="M72.716197-8.185164C75.30011-3.730915 79.707759-1.020046 85.07045-.062945 80.086849 1.051838 75.8455 3.837187 72.18025 7.869778"/>
<path transform="matrix(1,0,0,-1,112.441379,46.276636)" stroke-width=".75" stroke-linecap="round" stroke-linejoin="round" fill="none" stroke="#000000" d="M129.80207-.260731C151.36171 .409392 172.44135-.106766 193.38101 .226138"/>
<path transform="matrix(1,0,0,-1,112.441379,46.276636)" stroke-width=".75" stroke-linecap="round" stroke-linejoin="round" fill="none" stroke="#000000" d="M180.18247-7.978168C183.40889-3.564397 187.82439-1.403991 193.23271-.006784 188.58434 1.499862 183.88211 4.366632 180.87523 8.130366"/>
<path transform="matrix(1,0,0,-1,112.441379,46.276636)" stroke-width=".75" stroke-linecap="round" stroke-linejoin="round" fill="none" stroke="#000000" d="M394.16233 .412829C421.81874 .342197 450.2225 .110174 479.236 .213415"/>
<path transform="matrix(1,0,0,-1,112.441379,46.276636)" stroke-width=".75" stroke-linecap="round" stroke-linejoin="round" fill="none" stroke="#000000" d="M466.68397-8.132614C469.5847-3.561105 473.7484-1.366409 478.774-.181926 474.1498 1.568732 469.7336 3.912223 466.0385 8.483881"/>
<path transform="matrix(1,0,0,-1,112.441379,46.276636)" stroke-width=".75" stroke-linecap="round" stroke-linejoin="round" fill="none" stroke="#000000" d="M436.25767-.085328C436.39195-26.6071 436.0875-53.592458 436.66767-80.69821 388.64115-80.7131 341.2008-80.31895 293.33424-80.31884 195.57463-80.5655 97.833538-80.87401-.30363-80.31845-.030245-60.765604 .196489-41.797464 .293675-22.263089"/>
<path transform="matrix(1,0,0,-1,112.441379,46.276636)" stroke-width=".75" stroke-linecap="round" stroke-linejoin="round" fill="none" stroke="#000000" d="M8.473742-35.08034C4.127399-31.495585 1.559359-26.782225-.264929-21.657307-1.296291-26.73924-3.747572-31.592453-8.221024-34.8133"/>
<path transform="matrix(1,0,0,-1,112.441379,46.276636)" stroke-width=".75" stroke-linecap="round" stroke-linejoin="round" fill="none" stroke="#000000" d="M208.6991-37.3182C207.97731-38.12451 208.13613-38.808275 208.78502-37.48156 265.44078-37.990629 321.4138-38.550313 377.9693-38.41861 394.23435-37.93152 393.6031-38.320947 393.2457-23.54727 394.39109-8.429228 394.6787 7.362344 392.99223 22.553097 393.0812 37.54553 392.9684 38.45952 379.06504 38.199457 322.9884 39.0824 265.8478 38.317 209.0224 37.284296 193.66088 37.370176 194.29137 37.783037 194.12543 24.182219 193.63356 7.047349 192.78867-6.949608 193.43885-22.731232 194.54209-39.193395 193.207-37.635377 208.6991-37.3182Z"/>
<path transform="matrix(1,0,0,-1,112.441379,46.276636)" stroke-width=".75" stroke-linecap="round" stroke-linejoin="round" fill="none" stroke="#000000" d="M99.56925-22.63498C101.1534-22.853499 100.343898-23.218018 101.31925-21.49393 105.3123-22.04277 110.49568-22.36231 114.0207-23.24006 130.09325-22.067986 129.11377-22.672038 128.94812-8.252872 129.06322-2.943485 130.25919 2.354375 130.30086 8.097304 129.48258 21.700226 130.04889 21.754363 114.95814 22.118752 110.52114 22.475102 104.32729 22.682959 100.9066 22.834143 85.21541 22.965405 86.03028 23.14164 84.4842 8.338265 84.57109 1.682386 85.29505-2.567939 86.29783-8.245069 85.94416-22.348612 86.15033-21.742613 99.56925-22.63498Z"/>
<path transform="matrix(1,0,0,-1,112.441379,46.276636)" stroke-width=".75" stroke-linecap="round" stroke-linejoin="round" fill="none" stroke="#000000" d="M21.76355 .156367C21.576853 12.919223 12.023817 21.052912-.741742 21.090128-11.67932 22.38632-21.763255 12.616105-22.55376-.196843-22.30536-11.154835-11.349457-21.805329-.56023-20.815657 12.926766-21.504734 20.966452-12.447666 21.76355 .156367Z"/>
<path transform="matrix(1,0,0,-1,112.441379,46.276636)" stroke-width=".75" stroke-linecap="round" stroke-linejoin="round" fill="none" stroke="#000000" d="M-63.34883-.054001C-49.458498 .362448-35.29512-.162118-22.049952 .315848"/>
<path transform="matrix(1,0,0,-1,112.441379,46.276636)" stroke-width=".75" stroke-linecap="round" stroke-linejoin="round" fill="none" stroke="#000000" d="M-33.995195-7.775277C-31.087908-4.305354-26.224343-1.304363-21.578923 .274278-26.672005 1.25297-31.088526 4.046583-34.614137 8.320657"/>
<path transform="matrix(1,0,0,-1,112.441379,46.276636)" stroke-width=".75" stroke-linecap="round" stroke-linejoin="round" fill="none" stroke="#000000" d="M21.265532-.44656C42.974428 .385553 63.55703 .101976 85.4551 .207649"/>
<path transform="matrix(1,0,0,-1,112.441379,46.276636)" stroke-width=".75" stroke-linecap="round" stroke-linejoin="round" fill="none" stroke="#000000" d="M72.13586-8.124334C75.50438-3.962555 79.862857-.999538 84.7324 .377074 79.97062 1.209883 75.86185 3.972972 72.44823 7.992454"/>
<path transform="matrix(1,0,0,-1,112.441379,46.276636)" stroke-width=".75" stroke-linecap="round" stroke-linejoin="round" fill="none" stroke="#000000" d="M130.0914-.184022C151.06923-.045379 171.71263 .422057 193.60729-.428253"/>
<path transform="matrix(1,0,0,-1,112.441379,46.276636)" stroke-width=".75" stroke-linecap="round" stroke-linejoin="round" fill="none" stroke="#000000" d="M180.30348-8.35452C183.36717-3.955764 188.6374-1.30179 192.8121-.385425 188.54506 .785463 184.00954 3.663444 180.16039 8.412837"/>
<path transform="matrix(1,0,0,-1,112.441379,46.276636)" stroke-width=".75" stroke-linecap="round" stroke-linejoin="round" fill="none" stroke="#000000" d="M393.81733-.431559C422.62956 .384012 450.32469-.162169 478.8292 .153463"/>
<path transform="matrix(1,0,0,-1,112.441379,46.276636)" stroke-width=".75" stroke-linecap="round" stroke-linejoin="round" fill="none" stroke="#000000" d="M466.52226-7.889635C469.06-3.665049 473.97319-1.267463 478.56907 .008591 473.60505 1.384297 469.30015 4.06103 466.172 8.247597"/>
<path transform="matrix(1,0,0,-1,112.441379,46.276636)" stroke-width=".75" stroke-linecap="round" stroke-linejoin="round" fill="none" stroke="#000000" d="M436.12007-.089304C436.09443-26.698533 436.06959-53.97118 436.59928-80.823978 388.54399-80.533267 341.49034-80.91704 293.38938-81.12796 195.68148-81.11544 98.04914-80.68365-.318681-80.93927-.241591-60.795396 .294758-41.924863-.183001-21.647137"/>
<path transform="matrix(1,0,0,-1,112.441379,46.276636)" stroke-width=".75" stroke-linecap="round" stroke-linejoin="round" fill="none" stroke="#000000" d="M8.090258-34.279928C4.089717-31.717608 .839572-26.607188-.217262-21.899254-1.43772-27.231255-4.252321-31.15924-8.354694-34.68482"/>
<path transform="matrix(1,0,0,-1,112.441379,46.276636)" stroke-width=".75" stroke-linecap="round" stroke-linejoin="round" fill="none" stroke="#000000" d="M209.26148-39.085115C208.38205-38.36013 208.09117-39.14502 209.24214-38.663625 265.58335-38.71724 322.32807-37.43041 378.5229-38.87561 393.41273-38.209169 394.24497-39.015558 394.38844-23.538752 393.87605-7.706997 394.33723 8.665248 394.4237 24.07577 393.60798 38.068994 392.9387 38.006418 378.64256 39.087797 321.64125 38.96432 265.52116 37.403604 209.03018 37.57251 193.52008 39.001916 193.32683 37.387228 193.57604 22.938282 193.83769 7.514416 192.85276-8.675717 194.41254-23.00668 193.98372-38.172727 193.06386-38.477838 209.26148-39.085115Z"/>
<path transform="matrix(1,0,0,-1,112.441379,46.276636)" stroke-width=".75" stroke-linecap="round" stroke-linejoin="round" fill="none" stroke="#000000" d="M100.3754-22.20232C99.65004-21.558844 99.76363-21.638047 100.58107-22.377993 105.19915-21.562537 109.41856-22.574574 114.31685-21.591855 128.84403-22.015622 129.82294-23.100474 129.6766-7.295763 129.01869-2.974015 130.15267 2.879703 130.52562 7.697743 130.67455 21.803187 130.02387 21.662772 113.92702 21.78436 110.21575 23.224606 106.0481 23.271477 99.804698 21.883032 84.779109 23.372836 86.263149 22.078965 85.196788 6.779261 85.79076 2.478807 85.7493-2.295741 85.639087-7.964152 86.31677-21.827923 85.23758-22.75213 100.3754-22.20232Z"/>
<path transform="matrix(1,0,0,-1,112.441379,46.276636)" stroke-width=".75" stroke-linecap="round" stroke-linejoin="round" fill="none" stroke="#000000" d="M21.659283 .346766C21.175335 11.099231 11.363208 20.949219-.735334 22.325062-12.046559 22.01237-21.089356 12.483286-22.388106 .466121-21.649182-11.693694-11.595444-21.176402 .205576-21.734889 11.542864-22.014836 21.429514-11.297796 21.659283 .346766Z"/>
<path transform="matrix(1,0,0,-1,112.441379,46.276636)" stroke-width=".75" stroke-linecap="round" stroke-linejoin="round" fill="none" stroke="#000000" d="M-63.76549 .028622C-49.378149-.340485-36.114774-.300346-21.306529-.258949"/>
<path transform="matrix(1,0,0,-1,112.441379,46.276636)" stroke-width=".75" stroke-linecap="round" stroke-linejoin="round" fill="none" stroke="#000000" d="M-34.725389-7.919891C-30.888257-4.412259-26.662842-1.039989-21.37298 .12384-26.674782 1.093701-31.219349 3.866053-34.666639 8.306587"/>
<path transform="matrix(1,0,0,-1,112.441379,46.276636)" stroke-width=".75" stroke-linecap="round" stroke-linejoin="round" fill="none" stroke="#000000" d="M21.261214-.24053C42.56988 .098745 63.98962-.112383 85.01802 .389183"/>
<path transform="matrix(1,0,0,-1,112.441379,46.276636)" stroke-width=".75" stroke-linecap="round" stroke-linejoin="round" fill="none" stroke="#000000" d="M72.30712-8.348746C75.42506-3.768378 79.70527-.858623 84.8215 .157471 79.82891 1.427661 75.72667 4.385268 72.09956 7.882761"/>
<path transform="matrix(1,0,0,-1,112.441379,46.276636)" stroke-width=".75" stroke-linecap="round" stroke-linejoin="round" fill="none" stroke="#000000" d="M129.89168-.169784C151.21022-.302856 172.4705 .22415 193.48682-.369912"/>
<path transform="matrix(1,0,0,-1,112.441379,46.276636)" stroke-width=".75" stroke-linecap="round" stroke-linejoin="round" fill="none" stroke="#000000" d="M180.63324-8.177363C183.38753-4.062349 188.22539-1.597727 192.93827 .164989 188.40444 .797464 183.81816 3.576678 180.63532 8.241119"/>
<path transform="matrix(1,0,0,-1,112.441379,46.276636)" stroke-width=".75" stroke-linecap="round" stroke-linejoin="round" fill="none" stroke="#000000" d="M393.42585 .208044C422.5194 .150346 450.43733-.047243 478.64079 .390747"/>
<path transform="matrix(1,0,0,-1,112.441379,46.276636)" stroke-width=".75" stroke-linecap="round" stroke-linejoin="round" fill="none" stroke="#000000" d="M466.03166-8.074373C469.47035-3.82085 473.61189-1.117325 478.68849 .220281 473.50407 1.476073 469.39414 4.262831 466.49369 8.440045"/>
<path transform="matrix(1,0,0,-1,112.441379,46.276636)" stroke-width=".75" stroke-linecap="round" stroke-linejoin="round" fill="none" stroke="#000000" d="M436.02198-.295557C435.95613-26.927886 436.65385-53.44821 436.17243-80.45345 388.61668-80.43596 341.11723-80.329189 293.38453-80.378078 195.87808-81.164119 98.17606-81.00959 .104378-81.01884 .406918-61.074796 .018404-41.65711 .186418-22.20149"/>
<path transform="matrix(1,0,0,-1,112.441379,46.276636)" stroke-width=".75" stroke-linecap="round" stroke-linejoin="round" fill="none" stroke="#000000" d="M8.029551-34.533605C4.271145-31.936497 1.079555-27.096894 .088696-22.28554-1.047855-27.334073-3.692543-31.62482-8.192611-35.029893"/>
<path transform="matrix(1,0,0,-1,112.441379,46.276636)" stroke-width=".75" stroke-linecap="round" stroke-linejoin="round" fill="none" stroke="#000000" d="M207.61177-38.030458C208.45082-37.606554 208.51715-38.392309 208.94506-38.439077 265.8335-37.28064 322.59306-38.586286 379.8167-38.60947 394.78767-38.74326 393.972-38.54714 392.9286-23.522982 393.54234-7.015725 394.4092 8.321931 394.1109 23.079306 394.5713 38.699686 394.65498 38.624387 378.14686 37.89589 321.16926 37.710767 264.3725 37.286 207.77883 38.88206 193.70886 38.481298 194.44872 37.63803 192.693 23.160075 193.9159 7.921926 193.30536-8.35197 193.09508-23.383904 193.7209-38.503267 192.80342-38.133516 207.61177-38.030458Z"/>
<path transform="matrix(1,0,0,-1,112.441379,46.276636)" stroke-width=".75" stroke-linecap="round" stroke-linejoin="round" fill="none" stroke="#000000" d="M99.45822-21.606524C99.50057-22.587033 100.76611-22.158352 99.835369-22.430497 105.66359-21.471219 110.521389-21.469857 115.576969-23.01922 129.08866-22.512032 128.96094-21.702115 129.06067-6.865111 129.39722-3.067892 130.24953 3.258532 129.20478 7.544211 129.569 21.681998 130.19507 22.148928 114.14188 22.617798 109.95972 21.692059 104.46809 22.87418 99.614109 22.78984 84.90043 21.541184 85.55354 22.47497 85.43156 6.486974 85.40277 2.143832 84.98183-2.938978 86.20166-7.963486 85.39088-22.132025 85.6919-21.526524 99.45822-21.606524Z"/>
<path transform="matrix(1,0,0,-1,112.441379,46.276636)" stroke-width=".75" stroke-linecap="round" stroke-linejoin="round" fill="none" stroke="#000000" d="M22.548203 .344242C22.161124 12.693993 12.816108 22.603705 .92771 21.895232-12.317176 22.232789-20.821856 11.195929-21.945078 .461565-22.148243-12.495719-11.345893-22.139569 .783934-21.758759 12.424627-20.942715 20.978913-11.370237 22.548203 .344242Z"/>
<path transform="matrix(1,0,0,-1,112.441379,46.276636)" stroke-width=".75" stroke-linecap="round" stroke-linejoin="round" fill="none" stroke="#000000" d="M-63.58102 .282706C-50.010519-.10541-35.896074-.408709-21.286765 .091354"/>
<path transform="matrix(1,0,0,-1,112.441379,46.276636)" stroke-width=".75" stroke-linecap="round" stroke-linejoin="round" fill="none" stroke="#000000" d="M-34.019525-7.847268C-31.459755-3.756866-26.460452-.848965-21.511395-.114342-26.680333 1.023538-31.351782 4.415374-34.32356 7.61059"/>
<path transform="matrix(1,0,0,-1,112.441379,46.276636)" stroke-width=".75" stroke-linecap="round" stroke-linejoin="round" fill="none" stroke="#000000" d="M21.765482-.076284C42.881555-.235795 64.20673 .185 85.326869-.265794"/>
<path transform="matrix(1,0,0,-1,112.441379,46.276636)" stroke-width=".75" stroke-linecap="round" stroke-linejoin="round" fill="none" stroke="#000000" d="M72.11162-8.122002C75.13552-3.558164 80.30317-1.160154 85.05038-.334984 79.80681 1.257002 75.65825 3.637946 72.22915 8.284197"/>
<path transform="matrix(1,0,0,-1,112.441379,46.276636)" stroke-width=".75" stroke-linecap="round" stroke-linejoin="round" fill="none" stroke="#000000" d="M129.73925-.365551C151.0639-.152712 172.18027 .029562 192.98909-.378376"/>
<path transform="matrix(1,0,0,-1,112.441379,46.276636)" stroke-width=".75" stroke-linecap="round" stroke-linejoin="round" fill="none" stroke="#000000" d="M180.94414-8.448996C183.85559-3.922955 188.5678-1.232258 192.98946 .320173 188.5063 .966922 184.17375 3.928537 180.90564 7.902979"/>
<path transform="matrix(1,0,0,-1,112.441379,46.276636)" stroke-width=".75" stroke-linecap="round" stroke-linejoin="round" fill="none" stroke="#000000" d="M393.6504-.094074C422.12803 .224597 450.98448-.275291 478.5393 .034941"/>
<path transform="matrix(1,0,0,-1,112.441379,46.276636)" stroke-width=".75" stroke-linecap="round" stroke-linejoin="round" fill="none" stroke="#000000" d="M466.58164-7.97525C469.7597-3.905991 473.57154-1.366966 478.8422 .013196 473.85984 .872121 469.05525 4.162241 466.62184 7.642205"/>
<path transform="matrix(1,0,0,-1,112.441379,46.276636)" stroke-width=".75" stroke-linecap="round" stroke-linejoin="round" fill="none" stroke="#000000" d="M436.59193 .428071C435.95088-26.477038 435.97425-53.44846 436.32667-81.00163 388.66816-80.97053 340.84544-80.921939 294.11964-80.76356 195.83098-81.10385 97.57005-80.36683 .044146-80.69012-.379334-60.833227 .344674-42.02351-.351429-21.819743"/>
<path transform="matrix(1,0,0,-1,112.441379,46.276636)" stroke-width=".75" stroke-linecap="round" stroke-linejoin="round" fill="none" stroke="#000000" d="M7.766098-35.102357C3.825404-31.146155 .966376-26.890734 .416559-22.400233-1.249451-26.683825-3.640524-31.215588-8.502151-34.858274"/>
<use data-text="+" xlink:href="#font_3_1" transform="matrix(21.519354,0,0,-21.519316,74.39209,38.533815)"/>
<use data-text="&#x2212;" xlink:href="#font_3_7" transform="matrix(21.519371,0,0,-21.519288,118.591289,76.88603)"/>
<use data-text="r" xlink:href="#font_3_8" transform="matrix(21.519349,0,0,-21.519398,6.8142855,51.65792)"/>
<use data-text="(" xlink:href="#font_3_4" transform="matrix(21.519349,0,0,-21.519398,16.110646,51.65792)"/>
<use data-text="t" xlink:href="#font_3_9" transform="matrix(21.519349,0,0,-21.519398,25.655766,51.65792)"/>
<use data-text=")" xlink:href="#font_3_6" transform="matrix(21.519349,0,0,-21.519398,35.803434,51.65792)"/>
<use data-text="y" xlink:href="#font_3_10" transform="matrix(21.519242,0,0,-21.519371,596.2085,51.4319)"/>
<use data-text="(" xlink:href="#font_3_4" transform="matrix(21.519242,0,0,-21.519371,608.9694,51.4319)"/>
<use data-text="t" xlink:href="#font_3_9" transform="matrix(21.519242,0,0,-21.519371,618.5145,51.4319)"/>
<use data-text=")" xlink:href="#font_3_6" transform="matrix(21.519242,0,0,-21.519371,628.6621,51.4319)"/>
</svg>
