<svg xmlns="http://www.w3.org/2000/svg" xmlns:xlink="http://www.w3.org/1999/xlink" xmlns:inkscape="http://www.inkscape.org/namespaces/inkscape" version="1.1" width="1047.6301" height="325.28434" viewBox="0 0 1047.6301 325.28434">
<defs>
<path id="font_0_1" d="M.008987427 .3981018 .020996094 .38110353C.04598999 .39509584 .07598877 .41210938 .09899902 .41210938 .10998535 .41210938 .11999512 .4071045 .12599182 .39709474 .14199829 .37210084 .14199829 .2960968 .14199829 .24308777 .14099121 .16307068 .13699341 .07606506 .12998963 .0060577394L.14498902-.0029296876 .21499634 .018066407C.21299744 .110076908 .21299744 .20108032 .21299744 .29408265 .21299744 .3080902 .21398926 .32809449 .21899414 .3400879 .23098755 .3668213 .25498963 .40179444 .29599 .40179444 .33898927 .40179444 .34599305 .3598175 .34899903 .3438263L.36099244 .33883668 .4149933 .38780213C.41299439 .40979005 .40899659 .46679688 .33599855 .46679688 .30099488 .46679688 .24499512 .41479493 .22599793 .39678956L.21598816 .40078736C.21299744 .4210968 .20498657 .47309876 .14399719 .47309876 .10499573 .47309876 .033996583 .41810609 .008987427 .3981018Z"/>
<path id="font_0_2" d="M.11299133 .24990845C.11299133 .007904053 .1519928-.09008789 .18299866-.13310242 .21099854-.17008972 .25299073-.20809937 .30099488-.21209717V-.1880951C.2809906-.18409729 .25099183-.16809082 .23399353-.1481018 .21998596-.13209534 .16499329-.05809021 .16499329 .24990845 .16499329 .4618988 .19799805 .5659027 .21998596 .6128998 .23599243 .6469116 .2689972 .6769104 .30099488 .684906V.71191409C.2599945 .7049103 .21598816 .6729126 .19099427 .63790896 .1599884 .5919037 .11299133 .4748993 .11299133 .24990845Z"/>
<path id="font_0_3" d="M.016998291 .40538026 .021987915 .40039063H.13398743L.13999939 .39338685V.20327759C.13999939 .06820679 .14199829 .049209596 .16299439 .022201539 .18099976-.0018005371 .21199036-.0087890629 .23498535-.0087890629 .2619934-.0087890629 .2869873 .0012054443 .31098939 .014205933 .34298707 .031204224 .37199403 .05419922 .39898683 .07922363L.3919983 .09422302 .37998963 .096221927C.34999085 .07720947 .31399537 .0552063 .2889862 .0552063 .27198792 .0552063 .25698854 .06021118 .24398804 .07521057 .22200012 .099227908 .21798706 .16325379 .21798706 .20527649V.39437867L.22399903 .40039063H.34298707L.34899903 .40538026 .35699464 .43138124 .35198976 .43537904H.22399903L.21798706 .4403839C.21899414 .49838258 .22399903 .54937747 .22898865 .6063843L.22200012 .61138918 .13798523 .5823822C.13999939 .5563812 .13999939 .49238587 .13999939 .44137574L.13398743 .43537904H.02999878L.023986817 .42938233 .016998291 .40538026Z"/>
<path id="font_0_4" d="M.085998538-.1880951V-.21209717C.13398743-.20610047 .1789856-.17208863 .20698548-.13510132 .23799134-.09210205 .27598573 .007904053 .27598573 .24990845 .27598573 .50090029 .22399903 .5919037 .19299317 .63790896 .16799927 .6729126 .1269989 .7049103 .085998538 .71191409V.684906C.117996219 .6759033 .14898682 .6469116 .16499329 .6128998 .18699646 .5659027 .22399903 .48190309 .22399903 .24990845 .22399903-.099090579 .17199707-.13209534 .1579895-.1481018 .14099121-.16809082 .10598755-.18409729 .085998538-.1880951Z"/>
<path id="font_0_5" d="M.04598999 .23632813H.35598756V-.07368469L.3959961-.06668091V.23632813H.70399478L.70899966 .2763214H.3959961V.58631899L.35598756 .58032229V.2763214H.052993776L.04598999 .23632813Z"/>
<path id="font_0_6" d="M.04899597 .6591797C.049987794 .6591797 .08999634 .647171 .10998535 .6411743 .116989139 .63916018 .12098694 .63217166 .12399292 .62615969 .12799073 .61616519 .1289978 .6051636 .1289978 .59516909V.14816284L.12599182 .001159668 .13699341-.0038452149 .21798706 .025161744C.21199036 .122161868 .21199036 .22015381 .21199036 .318161L.22099304 .3191681C.32899476 .2101593 .44099427 .105163577 .54599-.0068359377L.6309967 .024154664 .6319885 .03515625C.57099917 .089157108 .4059906 .25315858 .29899598 .36016847 .29499818 .36416627 .2939911 .36616517 .2939911 .36915589 .2939911 .37216188 .29899598 .37716676 .3019867 .38015748L.59298709 .6741791 .59399417 .6831665H.5039978L.21699524 .35716249 .20899964 .35816957C.20899964 .4711609 .21398926 .59916689 .21598816 .62615969 .21598816 .62716677 .21998596 .6641693 .22399903 .676178L.21699524 .6831665H.05899048L.050994874 .676178 .04899597 .6591797Z"/>
<path id="font_0_7" d="M.11898804 .65527346C.14399719 .6496124 .19400025 .640625 .19499207 .640625 .20999146 .637619 .21899414 .6246338 .21998596 .6116333 .22299195 .57366946 .22299195 .5356903 .22299195 .49671937V.13394165C.22200012 .112960819 .22200012 .08097839 .22099304 .069992069 .21899414 .055999757 .20599365 .044006349 .19099427 .039001466 .17098999 .03401184 .14498902 .029006958 .12298584 .025009156V-.0009765625H.42199708L.42399598 .023010254C.4229889 .023010254 .37599183 .035003663 .35099793 .040008546 .33499146 .044006349 .31999208 .054000856 .31900025 .069992069 .31599427 .10296631 .31199647 .3058319 .31199647 .38078309 .31199647 .4187622 .31298829 .59465029 .31599427 .6146393 .31698609 .6266327 .32598878 .637619 .34098817 .640625L.41600038 .6556244V.6766205L.4099884 .6832733 .1269989 .6826172 .11898804 .6766205V.65527346Z"/>
<path id="font_0_8" d="M.09199524 .6121063H.1749878C.19999695 .6121063 .21998596 .5911102 .22099304 .56611636 .22200012 .5411072 .22200012 .46810914 .22200012 .41911317 .22200012 .27911378 .21899414 .13911438 .21398926 .00010681152L.22599793-.0048828127 .30999757 .022109986C.30699159 .09811401 .30699159 .29611207 .30699159 .43211366 .30699159 .52111819 .30899049 .6111145 .31399537 .70010378L.30799867 .7121124 .09199524 .6391144V.6121063Z"/>
<path id="font_0_9" d="M.051986696 .06642151C.06199646 .047409059 .07598877 .030395508 .09199524 .01638794 .12098694-.009613037 .16099549-.016601563 .19898987-.016601563 .2559967-.016601563 .31199647 .0023956299 .35099793 .044403078 .375 .06941223 .3869934 .10343933 .3869934 .13845825 .3869934 .1634674 .37298585 .18649292 .35499574 .20449829 .34098817 .21850586 .3039856 .24052429 .27198792 .25453187 .24299622 .26654054 .19999695 .2885437 .18798828 .30055238 .17298889 .31655885 .1619873 .3285675 .1619873 .35058595 .1619873 .3725891 .16899109 .39360047 .18499756 .4086151 .19999695 .42362977 .22200012 .43164063 .24398804 .43164063 .2639923 .43164063 .2849884 .42462159 .29599 .4066162 .30599977 .39060975 .30799867 .3715973 .30899049 .35359193L.32099916 .34657289 .37599183 .38360597C.375 .40560914 .3639984 .42662049 .34799195 .44163514 .32499696 .46263124 .29299928 .46662904 .2630005 .46662904 .21398926 .46662904 .16699219 .45063783 .1309967 .4176178 .10398865 .39360047 .08999634 .35858155 .08999634 .32356263 .08999634 .29154969 .10798645 .26353456 .1309967 .2425232 .1539917 .22250366 .18399048 .2084961 .21499634 .1954956 .24099732 .18447876 .2689972 .17248535 .28799439 .1534729 .30299378 .13845825 .31399537 .11845398 .31399537 .09744263 .31399537 .079422 .30499269 .062408449 .29299928 .04940796 .27799989 .03340149 .25099183 .021392823 .22898865 .021392823 .19898987 .021392823 .17199707 .03439331 .1499939 .055404664 .1269989 .076416019 .116989139 .10644531 .114990238 .13645935L.100997928 .13745117 .051986696 .06642151Z"/>
<path id="font_0_10" d="M.049987794 .6621094C.07499695 .65509036 .1329956 .64308169 .1329956 .61105349V.08099365C.1329956 .069992069 .13198853 .045013429 .1309967 .042007448 .1289978 .036010744 .115997318 .020019532 .10998535 .011016846L.11099243 .0010223389C.11199951 .0010223389 .24299622 .000015258789 .30899049-.0009765625 .3849945-.0009765625 .46598817 .012008667 .5209961 .067993167 .55599978 .10298157 .57398989 .1509552 .57398989 .20092774 .57398989 .24391175 .5649872 .28388978 .5339966 .3148651 .5009918 .34884645 .44299317 .35984803 .37998963 .3698578L.3809967 .3778534C.42099 .3948822 .46099855 .41192628 .4909973 .44299317 .519989 .4720459 .5339966 .51213076 .5339966 .55322268 .5339966 .58529666 .5219879 .61535647 .5 .6384125 .47999574 .658432 .42900086 .6864319 .30499269 .6864319L.057998659 .6860962 .050994874 .67910769 .049987794 .6621094M.21499634 .06599426V.3378601C.21499634 .34484864 .23199463 .3458557 .25 .3458557 .30599977 .3458557 .34899903 .3438568 .3829956 .33485414 .4079895 .3278656 .48298646 .3108673 .48298646 .20793152 .48298646 .16395569 .46998597 .12097168 .43899537 .08898926 .3999939 .05101013 .34399415 .039016725 .2899933 .039016725 .23799134 .039016725 .21499634 .040008546 .21499634 .06599426M.21499634 .39085389V.6290741C.21499634 .64541628 .24598694 .6484375 .28799439 .6484375 .31498719 .6484375 .3769989 .64541628 .4019928 .62939456 .43399049 .6083374 .44898988 .5752716 .44898988 .5452118 .44898988 .5031128 .43598939 .46102906 .4059906 .43095399 .36999513 .39588929 .32699586 .38085938 .24899292 .38085938 .23399353 .38085938 .21499634 .38085938 .21499634 .39086915V.39085389Z"/>
<path id="font_0_11" d="M.024993897 .008056641 .027999878-.001953125 .11898804 .017059327 .23599243 .26541139C.23799134 .26942445 .24198914 .2734375 .24598694 .2734375H.47099305C.47399903 .2734375 .47999574 .26841737 .48199464 .26441957L.5359955 .076156619C.54299929 .050231935 .55799868-.009765625 .59399417-.009765625 .60899356-.009765625 .6239929-.0077667238 .6389923-.003768921L.7429962 .026229859 .74198916 .052230836C.7279968 .051223756 .71299746 .049224855 .69898989 .049224855 .6819916 .049224855 .6499939 .053237916 .6349945 .07925415 .59999087 .14030457 .57199099 .23640442 .5499878 .3174286 .5169983 .4373932 .47200013 .5973358 .45700074 .6803131H.2630005V.6533203L.35299684 .6383209C.3619995 .636322 .36499024 .6303253 .36499024 .6263275 .36499024 .6123352 .14698792 .20837403 .024993897 .008224487V.008056641M.2649994 .3194275C.2649994 .32043458 .2649994 .32643128 .2659912 .32843019L.38198854 .5723419C.38198854 .57333377 .3849945 .5763397 .3880005 .5763397 .3909912 .5763397 .3939972 .5743408 .394989 .5723419L.46499635 .32843019C.46499635 .3274231 .46699525 .3194275 .46699525 .3194275 .46699525 .3164215 .46499635 .3124237 .45999146 .3124237H.27198792C.2689972 .3124237 .2649994 .3164215 .2649994 .3194275Z"/>
<path id="font_0_12" d="M.08699036 .3262787C.08699036 .228302 .11299133 .12931824 .18299866 .05934143 .23999024 .0023498536 .32199098-.0146484379 .40098573-.0146484379 .48799134-.0146484379 .56799319 .02734375 .6399994 .07633972L.6230011 .10533142C.5669861 .067337039 .5039978 .038345338 .43598939 .038345338 .35398866 .038345338 .31199647 .066345218 .25698854 .12132263 .22399903 .15431214 .17599488 .25230409 .17599488 .3442688 .17599488 .39326478 .18199158 .44325257 .19699097 .49024964 .20899964 .52822878 .22698975 .56422427 .25498963 .59321597 .29899598 .63720706 .36099244 .6582184 .42199708 .6582184 .46798707 .6582184 .5159912 .6462097 .548996 .6132202 .57199099 .5902252 .58898928 .5612335 .6009979 .52923586L.61499026 .52822878 .6719971 .5862274C.6609955 .6042175 .647995 .6212158 .6329956 .6362152 .58699038 .6832123 .5209961 .69921877 .45599366 .69921877 .35198976 .69921877 .25099183 .663208 .17799378 .5902252 .10798645 .52124026 .08699036 .42225648 .08699036 .3262787Z"/>
<path id="font_0_13" d="M-.01701355 .40115357-.006011963 .38215638C.016998291 .39414979 .04798889 .41015626 .06498718 .41015626 .07699585 .41015626 .08898926 .4061432 .09599304 .39614869 .10798645 .38015748 .11099243 .33815003 .11099243 .29415895 .11099243 .26815797 .10699463 .1771698 .10699463 .15716553 .10699463 .059173585 .12599182-.0078125 .21099854-.0078125 .27198792-.0078125 .36499024 .048187257 .39898683 .06918335L.40499879 .06417847C.39898683-.02079773 .4019928-.19143677 .2559967-.19143677 .21099854-.19143677 .17298889-.1525116 .1519928-.114593509H.13899231L.09498596-.17047119 .09700012-.18145752C.12399292-.20942688 .1769867-.23242188 .22399903-.23242188 .2919922-.23242188 .36299134-.20843506 .41099549-.15750122 .45999146-.10560608 .48399354-.049728395 .4850006 .13816834 .4850006 .15716553 .4850006 .37615968 .4909973 .46214295L.47898866 .466156 .3999939 .42814637C.40499879 .35914613 .4079895 .28715516 .4079895 .21516419 .4079895 .1791687 .40699769 .14317322 .4059906 .108169559 .38598634 .09617615 .32598878 .05618286 .27198792 .05618286 .20799256 .05618286 .18099976 .092178348 .18099976 .22616577 .18099976 .28416444 .18499756 .34214784 .18499756 .39814759 .18499756 .41914369 .17799378 .4681549 .12199402 .4681549 .07899475 .4681549-.009002686 .40715028-.01701355 .40115357Z"/>
<path id="font_0_14" d="M.032989503 .40022279 .049987794 .3822174C.069992069 .39422608 .09799194 .40722657 .12098694 .40722657 .13598633 .40722657 .15098572 .4012146 .16099549 .39222718 .19898987 .3572235 .24099732 .28224183 .27398683 .22325135 .21899414 .15925598 .1619873 .090270999 .11299133 .021270752V.0132751469L.1459961-.01171875 .1639862-.0077209474C.19699097 .0692749 .24198914 .1312561 .28599549 .19125366H.2939911C.31900025 .1482544 .35598756 .08627319 .37298585 .061279298 .38598634 .042266847 .397995 .023269654 .41600038 .009277344 .42999269-.0027313233 .44599916-.01171875 .46499635-.01171875 .48799134-.01171875 .5069885 .0002746582 .5249939 .012268066 .55599978 .03227234 .58399966 .057266237 .6100006 .08227539L.6009979 .10127258H.59098818C.57699587 .090270999 .5649872 .08227539 .548996 .07426453 .5369873 .0692749 .5249939 .0632782 .5109863 .0632782 .49398805 .0632782 .48098756 .072265628 .46899415 .08126831 .43399049 .10826111 .37799073 .20225525 .34799195 .25924684 .4079895 .3202362 .47999574 .3852234 .54299929 .42422486 .54499819 .42521668 .54599 .42622376 .54599 .42921449 .54599 .43022157 .5439911 .43222047 .5419922 .43321229L.5079956 .46221925C.5059967 .46421815 .5029907 .46421815 .5009918 .46421815 .49798585 .46421815 .49598695 .46421815 .49398805 .46221925 .44499208 .41122438 .37799073 .3412323 .33699037 .2932434L.32998658 .29423524C.2979889 .35021974 .25099183 .42222596 .22799683 .44522096 .21299744 .46022035 .18598938 .46421815 .16699219 .46421815 .14898682 .46421815 .13198853 .45622254 .114990238 .44821168 .085998538 .43421937 .05899048 .4182129 .032989503 .40022279Z"/>
<path id="font_0_15" d="M.0019989014 .40022279 .015991211 .3822174C.033996583 .39422608 .05899048 .40722657 .07998657 .40722657 .09298706 .40722657 .10598755 .4012146 .114990238 .39222718 .14898682 .3572235 .18598938 .28224183 .21499634 .22325135 .1659851 .15925598 .115997318 .090270999 .07299805 .021270752V.0132751469L.100997928-.01171875 .116989139-.0077209474C.14698792 .0692749 .18699646 .1312561 .22599793 .19125366H.23298645C.25498963 .1482544 .28799439 .08627319 .30299378 .061279298 .31399537 .042266847 .32499696 .023269654 .34098817 .009277344 .35299684-.0027313233 .36698915-.01171875 .38398744-.01171875 .4039917-.01171875 .42099 .0002746582 .43699647 .012268066 .46499635 .03227234 .4889984 .057266237 .5119934 .08227539L.5039978 .10127258H.49598695C.48298646 .090270999 .47200013 .08227539 .45799256 .07426453 .44799806 .0692749 .43699647 .0632782 .4249878 .0632782 .4099884 .0632782 .397995 .072265628 .3880005 .08126831 .35699464 .10826111 .30699159 .20225525 .2809906 .25924684 .33299256 .3202362 .39698792 .3852234 .45298768 .42422486 .45498658 .42521668 .45599366 .42622376 .45599366 .42921449 .45599366 .43022157 .45399476 .43222047 .45298768 .43321229L.42199708 .46221925C.41999818 .46421815 .41799928 .46421815 .41600038 .46421815 .41299439 .46421815 .41099549 .46421815 .4099884 .46221925 .3659973 .41122438 .30699159 .3412323 .2709961 .2932434L.2649994 .29423524C.23599243 .35021974 .19499207 .42222596 .17399597 .44522096 .16099549 .46022035 .13699341 .46421815 .11999512 .46421815 .10398865 .46421815 .08898926 .45622254 .07398987 .44821168 .04899597 .43421937 .024993897 .4182129 .0019989014 .40022279Z"/>
<path id="font_0_16" d="M.04598999 .23046875H.70399478L.70999148 .27046205H.052993776L.04598999 .23046875Z"/>
</defs>
<use data-text="r" xlink:href="#font_0_1" transform="matrix(21.5193,0,0,-21.5193,7.1683847,48.645418)"/>
<use data-text="(" xlink:href="#font_0_2" transform="matrix(21.5193,0,0,-21.5193,16.464722,48.645418)"/>
<use data-text="t" xlink:href="#font_0_3" transform="matrix(21.5193,0,0,-21.5193,26.009825,48.645418)"/>
<use data-text=")" xlink:href="#font_0_4" transform="matrix(21.5193,0,0,-21.5193,36.157468,48.645418)"/>
<path transform="matrix(1.5,0,0,-1.5,25.827973,43.268556)" stroke-width=".79701" stroke-linecap="butt" stroke-miterlimit="10" stroke-linejoin="miter" fill="none" stroke="#000000" d="M84.64345 0C84.64345 10.57108 76.07414 19.14038 65.50307 19.14038 54.93199 19.14038 46.36269 10.57108 46.36269 0 46.36269-10.57108 54.93199-19.14038 65.50307-19.14038 76.07414-19.14038 84.64345-10.57108 84.64345 0ZM65.50307 0"/>
<use data-text="+" xlink:href="#font_0_5" transform="matrix(37.180574,0,0,-37.180574,110.05336,52.781557)"/>
<path transform="matrix(1.5,0,0,-1.5,25.827973,43.268556)" d="M113.78728-21.50775H157.57367V21.50775H113.78728Z" fill="#ffb5bf"/>
<path transform="matrix(1.5,0,0,-1.5,25.827973,43.268556)" stroke-width=".79701" stroke-linecap="butt" stroke-miterlimit="10" stroke-linejoin="miter" fill="none" stroke="#d61c1a" d="M113.78728-21.50775H157.57367V21.50775H113.78728Z"/>
<use data-text="K" xlink:href="#font_0_6" transform="matrix(21.5193,0,0,-21.5193,218.01416,48.693849)"/>
<use data-text="I" xlink:href="#font_0_7" transform="matrix(16.43835,0,0,-16.43835,232.38117,52.51645)"/>
<path transform="matrix(1.5,0,0,-1.5,25.827973,43.268556)" stroke-width=".79701" stroke-linecap="butt" stroke-miterlimit="10" stroke-linejoin="miter" fill="none" stroke="#000000" d="M186.7175-28.44757H229.733V28.44759H186.7175Z"/>
<use data-text="1" xlink:href="#font_0_8" transform="matrix(21.5193,0,0,-21.5193,332.79576,37.418519)"/>
<path transform="matrix(1.5,0,0,-1.5,332.79576,43.268526)" stroke-width=".573533" stroke-linecap="butt" stroke-miterlimit="10" stroke-linejoin="miter" fill="none" stroke="#000000" d="M0 0H7.154825"/>
<use data-text="s" xlink:href="#font_0_9" transform="matrix(21.5193,0,0,-21.5193,333.26893,59.872316)"/>
<path transform="matrix(1.5,0,0,-1.5,25.827973,43.268556)" stroke-width=".79701" stroke-linecap="butt" stroke-miterlimit="10" stroke-linejoin="miter" fill="none" stroke="#000000" d="M297.15763 0C297.15763 10.57108 288.5883 19.14038 278.01725 19.14038 267.44615 19.14038 258.87684 10.57108 258.87684 0 258.87684-10.57108 267.44615-19.14038 278.01725-19.14038 288.5883-19.14038 297.15763-10.57108 297.15763 0ZM278.01725 0"/>
<use data-text="+" xlink:href="#font_0_5" transform="matrix(37.180574,0,0,-37.180574,428.8205,52.781557)"/>
<path transform="matrix(1.5,0,0,-1.5,25.827973,43.268556)" stroke-width=".79701" stroke-linecap="butt" stroke-miterlimit="10" stroke-linejoin="miter" fill="none" stroke="#000000" d="M326.30143-21.50775H369.31694V21.50775H326.30143Z"/>
<use data-text="B" xlink:href="#font_0_10" transform="matrix(21.5193,0,0,-21.5193,540.49136,50.634859)"/>
<path transform="matrix(1.5,0,0,-1.5,25.827973,43.268556)" stroke-width=".79701" stroke-linecap="butt" stroke-miterlimit="10" stroke-linejoin="miter" fill="none" stroke="#000000" d="M436.74153 0C436.74153 10.57108 428.17225 19.14038 417.60115 19.14038 407.0301 19.14038 398.4608 10.57108 398.4608 0 398.4608-10.57108 407.0301-19.14038 417.60115-19.14038 428.17225-19.14038 436.74153-10.57108 436.74153 0ZM417.60115 0"/>
<use data-text="+" xlink:href="#font_0_5" transform="matrix(37.180574,0,0,-37.180574,638.1937,52.781557)"/>
<path transform="matrix(1.5,0,0,-1.5,25.827973,43.268556)" stroke-width=".79701" stroke-linecap="butt" stroke-miterlimit="10" stroke-linejoin="miter" fill="none" stroke="#000000" d="M465.88536-28.44757H508.90086V28.44759H465.88536Z"/>
<use data-text="1" xlink:href="#font_0_8" transform="matrix(21.5193,0,0,-21.5193,751.5421,37.418519)"/>
<path transform="matrix(1.5,0,0,-1.5,751.5421,43.268526)" stroke-width=".573533" stroke-linecap="butt" stroke-miterlimit="10" stroke-linejoin="miter" fill="none" stroke="#000000" d="M0 0H7.154825"/>
<use data-text="s" xlink:href="#font_0_9" transform="matrix(21.5193,0,0,-21.5193,752.0153,59.872316)"/>
<path transform="matrix(1.5,0,0,-1.5,25.827973,43.268556)" stroke-width=".79701" stroke-linecap="butt" stroke-miterlimit="10" stroke-linejoin="miter" fill="none" stroke="#000000" d="M465.88536-94.93755H508.90086V-51.922056H465.88536Z"/>
<use data-text="A" xlink:href="#font_0_11" transform="matrix(21.5193,0,0,-21.5193,748.6278,160.61682)"/>
<path transform="matrix(1.5,0,0,-1.5,25.827973,43.268556)" stroke-width=".79701" stroke-linecap="butt" stroke-miterlimit="10" stroke-linejoin="miter" fill="none" stroke="#000000" d="M555.0528-21.50775H598.0683V21.50775H555.0528Z"/>
<use data-text="C" xlink:href="#font_0_12" transform="matrix(21.5193,0,0,-21.5193,882.9795,50.624116)"/>
<use data-text="y" xlink:href="#font_0_13" transform="matrix(21.5193,0,0,-21.5193,999.6799,48.419588)"/>
<use data-text="(" xlink:href="#font_0_2" transform="matrix(21.5193,0,0,-21.5193,1012.44088,48.419588)"/>
<use data-text="t" xlink:href="#font_0_3" transform="matrix(21.5193,0,0,-21.5193,1021.98599,48.419588)"/>
<use data-text=")" xlink:href="#font_0_4" transform="matrix(21.5193,0,0,-21.5193,1032.1336,48.419588)"/>
<path transform="matrix(1.5,0,0,-1.5,25.827973,43.268556)" d="M464.6839-161.42752H510.1023V-118.41202H464.6839Z" fill="#ffb5bf"/>
<path transform="matrix(1.5,0,0,-1.5,25.827973,43.268556)" stroke-width=".79701" stroke-linecap="butt" stroke-miterlimit="10" stroke-linejoin="miter" fill="none" stroke="#d61c1a" d="M464.6839-161.42752H510.1023V-118.41202H464.6839Z"/>
<use data-text="K" xlink:href="#font_0_6" transform="matrix(21.5193,0,0,-21.5193,744.3523,258.7787)"/>
<use data-text="x" xlink:href="#font_0_14" transform="matrix(16.43835,0,0,-16.43835,758.7193,262.00483)"/>
<path transform="matrix(1.5,0,0,-1.5,25.827973,43.268556)" stroke-width=".79701" stroke-linecap="butt" stroke-miterlimit="10" stroke-linejoin="miter" fill="none" stroke="#000000" d="M17.61737 0H45.16718"/>
<path transform="matrix(1.5,0,0,-1.5,94.176479,43.268556)" stroke-width=".79701" stroke-linecap="round" stroke-linejoin="round" fill="none" stroke="#000000" d="M-2.55046 3.11095C-2.0845 1.24435-1.04614 .36295 0 0-1.04614-.36295-2.0845-1.24435-2.55046-3.11095"/>
<use data-text="+" xlink:href="#font_0_5" transform="matrix(21.5193,0,0,-21.5193,79.18231,33.91086)"/>
<path transform="matrix(1.5,0,0,-1.5,25.827973,43.268556)" stroke-width=".79701" stroke-linecap="butt" stroke-miterlimit="10" stroke-linejoin="miter" fill="none" stroke="#000000" d="M85.04196 0H112.59175"/>
<path transform="matrix(1.5,0,0,-1.5,195.31336,43.268556)" stroke-width=".79701" stroke-linecap="round" stroke-linejoin="round" fill="none" stroke="#000000" d="M-2.55046 3.11095C-2.0845 1.24435-1.04614 .36295 0 0-1.04614-.36295-2.0845-1.24435-2.55046-3.11095"/>
<path transform="matrix(1.5,0,0,-1.5,25.827973,43.268556)" stroke-width=".79701" stroke-linecap="butt" stroke-miterlimit="10" stroke-linejoin="miter" fill="none" stroke="#000000" d="M157.97219 0H185.52199"/>
<path transform="matrix(1.5,0,0,-1.5,304.7087,43.268556)" stroke-width=".79701" stroke-linecap="round" stroke-linejoin="round" fill="none" stroke="#000000" d="M-2.55046 3.11095C-2.0845 1.24435-1.04614 .36295 0 0-1.04614-.36295-2.0845-1.24435-2.55046-3.11095"/>
<path transform="matrix(1.5,0,0,-1.5,25.827973,43.268556)" stroke-width=".79701" stroke-linecap="butt" stroke-miterlimit="10" stroke-linejoin="miter" fill="none" stroke="#000000" d="M230.13153 0H257.6813"/>
<path transform="matrix(1.5,0,0,-1.5,412.94773,43.268556)" stroke-width=".79701" stroke-linecap="round" stroke-linejoin="round" fill="none" stroke="#000000" d="M-2.55046 3.11095C-2.0845 1.24435-1.04614 .36295 0 0-1.04614-.36295-2.0845-1.24435-2.55046-3.11095"/>
<use data-text="+" xlink:href="#font_0_5" transform="matrix(21.5193,0,0,-21.5193,397.94944,33.91086)"/>
<path transform="matrix(1.5,0,0,-1.5,25.827973,43.268556)" stroke-width=".79701" stroke-linecap="butt" stroke-miterlimit="10" stroke-linejoin="miter" fill="none" stroke="#000000" d="M297.5561 0H325.1059"/>
<path transform="matrix(1.5,0,0,-1.5,514.0846,43.268556)" stroke-width=".79701" stroke-linecap="round" stroke-linejoin="round" fill="none" stroke="#000000" d="M-2.55046 3.11095C-2.0845 1.24435-1.04614 .36295 0 0-1.04614-.36295-2.0845-1.24435-2.55046-3.11095"/>
<path transform="matrix(1.5,0,0,-1.5,614.45388,43.268556)" stroke-width=".59776" stroke-linecap="butt" stroke-miterlimit="10" stroke-linejoin="miter" fill="none" stroke="#000000" d="M-.00014 2.91408 5.04718 0-.00014-2.91408Z"/>
<path transform="matrix(1.5,0,0,-1.5,25.827973,43.268556)" stroke-width="2.98883" stroke-linecap="butt" stroke-miterlimit="10" stroke-linejoin="miter" fill="none" stroke="#000000" d="M369.71546 0H392.58274"/>
<path transform="matrix(1.5,0,0,-1.5,25.827973,43.268556)" stroke-width="1.39478" stroke-linecap="butt" stroke-miterlimit="10" stroke-linejoin="miter" fill="none" stroke="#ffffff" d="M369.71546 0H392.58274"/>
<path transform="matrix(1.5,0,0,-1.5,25.827973,43.268556)" stroke-width="1.39478" stroke-linecap="butt" stroke-miterlimit="10" stroke-linejoin="miter" fill="none" stroke="#ffffff" d="M369.71546 0H393.579"/>
<use data-text="+" xlink:href="#font_0_5" transform="matrix(21.5193,0,0,-21.5193,607.32266,33.91086)"/>
<path transform="matrix(1.5,0,0,-1.5,715.5908,43.268556)" stroke-width=".59776" stroke-linecap="butt" stroke-miterlimit="10" stroke-linejoin="miter" fill="none" stroke="#000000" d="M-.00014 2.91408 5.04718 0-.00014-2.91408Z"/>
<path transform="matrix(1.5,0,0,-1.5,25.827973,43.268556)" stroke-width="2.98883" stroke-linecap="butt" stroke-miterlimit="10" stroke-linejoin="miter" fill="none" stroke="#000000" d="M437.14006 0H460.00733"/>
<path transform="matrix(1.5,0,0,-1.5,25.827973,43.268556)" stroke-width="1.39478" stroke-linecap="butt" stroke-miterlimit="10" stroke-linejoin="miter" fill="none" stroke="#ffffff" d="M437.14006 0H460.00733"/>
<path transform="matrix(1.5,0,0,-1.5,25.827973,43.268556)" stroke-width="1.39478" stroke-linecap="butt" stroke-miterlimit="10" stroke-linejoin="miter" fill="none" stroke="#ffffff" d="M437.14006 0H461.0036"/>
<path transform="matrix(1.5,0,0,-1.5,25.827973,43.268556)" stroke-width=".79701" stroke-linecap="butt" stroke-miterlimit="10" stroke-linejoin="miter" fill="none" stroke="#000000" d="M598.4668 0H643.0247"/>
<path transform="matrix(1.5,0,0,-1.5,990.96279,43.268556)" stroke-width=".79701" stroke-linecap="round" stroke-linejoin="round" fill="none" stroke="#000000" d="M-2.55046 3.11095C-2.0845 1.24435-1.04614 .36295 0 0-1.04614-.36295-2.0845-1.24435-2.55046-3.11095"/>
<path transform="matrix(0,-1.5,-1.5,-0,652.22976,81.04436)" stroke-width=".59776" stroke-linecap="butt" stroke-miterlimit="10" stroke-linejoin="miter" fill="none" stroke="#000000" d="M-.00014 2.91408 5.04718 0-.00014-2.91408Z"/>
<path transform="matrix(1.5,0,0,-1.5,25.827973,43.268556)" stroke-width="2.98883" stroke-linecap="butt" stroke-miterlimit="10" stroke-linejoin="miter" fill="none" stroke="#000000" d="M465.48686-73.4298H417.60115V-25.0184"/>
<path transform="matrix(1.5,0,0,-1.5,25.827973,43.268556)" stroke-width="1.39478" stroke-linecap="butt" stroke-miterlimit="10" stroke-linejoin="miter" fill="none" stroke="#ffffff" d="M465.48686-73.4298H417.60115V-25.0184"/>
<path transform="matrix(1.5,0,0,-1.5,25.827973,43.268556)" stroke-width="1.39478" stroke-linecap="butt" stroke-miterlimit="10" stroke-linejoin="miter" fill="none" stroke="#ffffff" d="M465.48686-73.4298H417.60115V-24.02213"/>
<use data-text="+" xlink:href="#font_0_5" transform="matrix(21.5193,0,0,-21.5193,628.2174,85.55438)"/>
<path transform="matrix(1.5,0,0,-1.5,849.34207,43.268556)" stroke-width=".59776" stroke-linecap="butt" stroke-miterlimit="10" stroke-linejoin="miter" fill="none" stroke="#000000" d="M-.00014 2.91408 5.04718 0-.00014-2.91408Z"/>
<path transform="matrix(1.5,0,0,-1.5,25.827973,43.268556)" stroke-width="2.98883" stroke-linecap="butt" stroke-miterlimit="10" stroke-linejoin="miter" fill="none" stroke="#000000" d="M509.29939 0H549.17477"/>
<path transform="matrix(1.5,0,0,-1.5,25.827973,43.268556)" stroke-width="1.39478" stroke-linecap="butt" stroke-miterlimit="10" stroke-linejoin="miter" fill="none" stroke="#ffffff" d="M509.29939 0H549.17477"/>
<path transform="matrix(1.5,0,0,-1.5,25.827973,43.268556)" stroke-width="1.39478" stroke-linecap="butt" stroke-miterlimit="10" stroke-linejoin="miter" fill="none" stroke="#ffffff" d="M509.29939 0H550.171"/>
<use data-text="x" xlink:href="#font_0_15" transform="matrix(14.94396,0,0,-14.94396,810.1229,32.33603)"/>
<use data-text="(" xlink:href="#font_0_2" transform="matrix(14.94396,0,0,-14.94396,817.98348,32.33603)"/>
<use data-text="t" xlink:href="#font_0_3" transform="matrix(14.94396,0,0,-14.94396,824.612,32.33603)"/>
<use data-text=")" xlink:href="#font_0_4" transform="matrix(14.94396,0,0,-14.94396,831.659,32.33603)"/>
<path transform="matrix(-1.5,-0,0,1.5,798.2446,153.41326)" stroke-width=".59776" stroke-linecap="butt" stroke-miterlimit="10" stroke-linejoin="miter" fill="none" stroke="#000000" d="M-.00014 2.91408 5.04718 0-.00014-2.91408Z"/>
<path transform="matrix(1.5,0,0,-1.5,25.827973,43.268556)" stroke-width="2.98883" stroke-linecap="butt" stroke-miterlimit="10" stroke-linejoin="miter" fill="none" stroke="#000000" d="M531.9768 0V-73.4298H514.7789"/>
<path transform="matrix(1.5,0,0,-1.5,25.827973,43.268556)" stroke-width="1.39478" stroke-linecap="butt" stroke-miterlimit="10" stroke-linejoin="miter" fill="none" stroke="#ffffff" d="M531.9768 0V-73.4298H514.7789"/>
<path transform="matrix(1.5,0,0,-1.5,25.827973,43.268556)" stroke-width="1.39478" stroke-linecap="butt" stroke-miterlimit="10" stroke-linejoin="miter" fill="none" stroke="#ffffff" d="M531.9768 0V-73.4298H513.7826"/>
<path transform="matrix(1.5,0,0,-1.5,25.827973,43.268556)" stroke-width=".79701" stroke-linecap="butt" stroke-miterlimit="10" stroke-linejoin="miter" fill="none" stroke="#000000" d="M464.28544-139.91976H278.01725V-20.33589"/>
<path transform="matrix(0,-1.5,-1.5,-0,442.85386,73.17465)" stroke-width=".79701" stroke-linecap="round" stroke-linejoin="round" fill="none" stroke="#000000" d="M-2.55046 3.11095C-2.0845 1.24435-1.04614 .36295 0 0-1.04614-.36295-2.0845-1.24435-2.55046-3.11095"/>
<use data-text="&#x2212;" xlink:href="#font_0_16" transform="matrix(21.5193,0,0,-21.5193,418.82267,82.951999)"/>
<path transform="matrix(-1.5,-0,0,1.5,800.04678,253.1482)" stroke-width=".59776" stroke-linecap="butt" stroke-miterlimit="10" stroke-linejoin="miter" fill="none" stroke="#000000" d="M-.00014 2.91408 5.04718 0-.00014-2.91408Z"/>
<path transform="matrix(1.5,0,0,-1.5,25.827973,43.268556)" stroke-width="2.98883" stroke-linecap="butt" stroke-miterlimit="10" stroke-linejoin="miter" fill="none" stroke="#000000" d="M531.9768 0V-139.91976H515.98037"/>
<path transform="matrix(1.5,0,0,-1.5,25.827973,43.268556)" stroke-width="1.39478" stroke-linecap="butt" stroke-miterlimit="10" stroke-linejoin="miter" fill="none" stroke="#ffffff" d="M531.9768 0V-139.91976H515.98037"/>
<path transform="matrix(1.5,0,0,-1.5,25.827973,43.268556)" stroke-width="1.39478" stroke-linecap="butt" stroke-miterlimit="10" stroke-linejoin="miter" fill="none" stroke="#ffffff" d="M531.9768 0V-139.91976H514.9841"/>
<path transform="matrix(1.5,0,0,-1.5,25.827973,43.268556)" stroke-width=".79701" stroke-linecap="butt" stroke-miterlimit="10" stroke-linejoin="miter" fill="none" stroke="#000000" d="M621.1443 0V-184.50347H488.19013"/>
<path transform="matrix(-1.5,-0,0,1.5,757.5154,320.02375)" stroke-width=".79701" stroke-linecap="round" stroke-linejoin="round" fill="none" stroke="#000000" d="M-2.55046 3.11095C-2.0845 1.24435-1.04614 .36295 0 0-1.04614-.36295-2.0845-1.24435-2.55046-3.11095"/>
<path transform="matrix(1.5,0,0,-1.5,25.827973,43.268556)" stroke-width=".79701" stroke-linecap="butt" stroke-miterlimit="10" stroke-linejoin="miter" fill="none" stroke="#000000" d="M487.3931-184.50347H65.50307V-20.33589"/>
<path transform="matrix(0,-1.5,-1.5,-0,124.08257,73.17465)" stroke-width=".79701" stroke-linecap="round" stroke-linejoin="round" fill="none" stroke="#000000" d="M-2.55046 3.11095C-2.0845 1.24435-1.04614 .36295 0 0-1.04614-.36295-2.0845-1.24435-2.55046-3.11095"/>
<use data-text="&#x2212;" xlink:href="#font_0_16" transform="matrix(21.5193,0,0,-21.5193,131.84745,82.951999)"/>
<path transform="matrix(1.5,0,0,-1.5,25.827973,43.268556)" stroke-width="1.39478" stroke-linecap="butt" stroke-miterlimit="10" stroke-linejoin="miter" fill="none" stroke="#ffffff" d="M509.29939 0H550.171"/>
<path transform="matrix(1.5,0,0,-1.5,25.827973,43.268556)" stroke-width="1.39478" stroke-linecap="butt" stroke-miterlimit="10" stroke-linejoin="miter" fill="none" stroke="#ffffff" d="M531.9768 0V-73.4298H513.7826"/>
</svg>
