<svg xmlns="http://www.w3.org/2000/svg" xmlns:xlink="http://www.w3.org/1999/xlink" version="1.1" width="803.487" height="286.18638" viewBox="0 0 803.487 286.18638">
<defs>
<path id="font_0_1" d="M.008987427 .3981018 .020996094 .38110353C.04598999 .39509584 .07598877 .41210938 .09899902 .41210938 .10998535 .41210938 .11999512 .4071045 .12599182 .39709474 .14199829 .37210084 .14199829 .2960968 .14199829 .24308777 .14099121 .16307068 .13699341 .07606506 .12998963 .0060577394L.14498902-.0029296876 .21499634 .018066407C.21299744 .110076908 .21299744 .20108032 .21299744 .29408265 .21299744 .3080902 .21398926 .32809449 .21899414 .3400879 .23098755 .3668213 .25498963 .40179444 .29599 .40179444 .33898927 .40179444 .34599305 .3598175 .34899903 .3438263L.36099244 .33883668 .4149933 .38780213C.41299439 .40979005 .40899659 .46679688 .33599855 .46679688 .30099488 .46679688 .24499512 .41479493 .22599793 .39678956L.21598816 .40078736C.21299744 .4210968 .20498657 .47309876 .14399719 .47309876 .10499573 .47309876 .033996583 .41810609 .008987427 .3981018Z"/>
<path id="font_0_2" d="M.11299133 .24990845C.11299133 .007904053 .1519928-.09008789 .18299866-.13310242 .21099854-.17008972 .25299073-.20809937 .30099488-.21209717V-.1880951C.2809906-.18409729 .25099183-.16809082 .23399353-.1481018 .21998596-.13209534 .16499329-.05809021 .16499329 .24990845 .16499329 .4618988 .19799805 .5659027 .21998596 .6128998 .23599243 .6469116 .2689972 .6769104 .30099488 .684906V.71191409C.2599945 .7049103 .21598816 .6729126 .19099427 .63790896 .1599884 .5919037 .11299133 .4748993 .11299133 .24990845Z"/>
<path id="font_0_3" d="M.016998291 .40538026 .021987915 .40039063H.13398743L.13999939 .39338685V.20327759C.13999939 .06820679 .14199829 .049209596 .16299439 .022201539 .18099976-.0018005371 .21199036-.0087890629 .23498535-.0087890629 .2619934-.0087890629 .2869873 .0012054443 .31098939 .014205933 .34298707 .031204224 .37199403 .05419922 .39898683 .07922363L.3919983 .09422302 .37998963 .096221927C.34999085 .07720947 .31399537 .0552063 .2889862 .0552063 .27198792 .0552063 .25698854 .06021118 .24398804 .07521057 .22200012 .099227908 .21798706 .16325379 .21798706 .20527649V.39437867L.22399903 .40039063H.34298707L.34899903 .40538026 .35699464 .43138124 .35198976 .43537904H.22399903L.21798706 .4403839C.21899414 .49838258 .22399903 .54937747 .22898865 .6063843L.22200012 .61138918 .13798523 .5823822C.13999939 .5563812 .13999939 .49238587 .13999939 .44137574L.13398743 .43537904H.02999878L.023986817 .42938233 .016998291 .40538026Z"/>
<path id="font_0_4" d="M.085998538-.1880951V-.21209717C.13398743-.20610047 .1789856-.17208863 .20698548-.13510132 .23799134-.09210205 .27598573 .007904053 .27598573 .24990845 .27598573 .50090029 .22399903 .5919037 .19299317 .63790896 .16799927 .6729126 .1269989 .7049103 .085998538 .71191409V.684906C.117996219 .6759033 .14898682 .6469116 .16499329 .6128998 .18699646 .5659027 .22399903 .48190309 .22399903 .24990845 .22399903-.099090579 .17199707-.13209534 .1579895-.1481018 .14099121-.16809082 .10598755-.18409729 .085998538-.1880951Z"/>
<path id="font_0_5" d="M.04899597 .6833191 .052993776 .65631106C.052993776 .65631106 .09498596 .6452942 .116989139 .6412964 .1269989 .6392975 .13798523 .626297 .13798523 .61828616 .13798523 .60227969 .13798523 .26911927 .12599182 .0039978029L.1349945-.005004883 .20498657 .025009156C.19400025 .19908142 .18099976 .41819764 .18099976 .54725649 .18099976 .5532532 .18099976 .56225588 .18699646 .56427 .19099427 .56526187 .19599915 .55926516 .19898987 .5552521 .24899292 .49923707 .33099366 .40419007 .43299867 .27812196L.59199526 .08003235C.621994 .042007448 .6359863 .026000977 .6589966 0H.69499209C.69499209 .22709656 .69699099 .45921327 .70999148 .6863251L.70399478 .69433596 .6239929 .6783142C.644989 .37417604 .647995 .27513124 .647995 .17308045 .647995 .17108155 .6469879 .16506958 .6419983 .16506958 .6380005 .16506958 .6339874 .17007447 .6309967 .17308045 .5139923 .2991333 .35198976 .51423647 .21899414 .6903229H.056991579L.04899597 .6833191Z"/>
<path id="font_0_6" d="M.04598999 .23632813H.35598756V-.07368469L.3959961-.06668091V.23632813H.70399478L.70899966 .2763214H.3959961V.58631899L.35598756 .58032229V.2763214H.052993776L.04598999 .23632813Z"/>
<path id="font_0_7" d="M.049987794 .6621094C.07499695 .65509036 .1329956 .64308169 .1329956 .61105349V.08099365C.1329956 .069992069 .13198853 .045013429 .1309967 .042007448 .1289978 .036010744 .115997318 .020019532 .10998535 .011016846L.11099243 .0010223389C.11199951 .0010223389 .24299622 .000015258789 .30899049-.0009765625 .3849945-.0009765625 .46598817 .012008667 .5209961 .067993167 .55599978 .10298157 .57398989 .1509552 .57398989 .20092774 .57398989 .24391175 .5649872 .28388978 .5339966 .3148651 .5009918 .34884645 .44299317 .35984803 .37998963 .3698578L.3809967 .3778534C.42099 .3948822 .46099855 .41192628 .4909973 .44299317 .519989 .4720459 .5339966 .51213076 .5339966 .55322268 .5339966 .58529666 .5219879 .61535647 .5 .6384125 .47999574 .658432 .42900086 .6864319 .30499269 .6864319L.057998659 .6860962 .050994874 .67910769 .049987794 .6621094M.21499634 .06599426V.3378601C.21499634 .34484864 .23199463 .3458557 .25 .3458557 .30599977 .3458557 .34899903 .3438568 .3829956 .33485414 .4079895 .3278656 .48298646 .3108673 .48298646 .20793152 .48298646 .16395569 .46998597 .12097168 .43899537 .08898926 .3999939 .05101013 .34399415 .039016725 .2899933 .039016725 .23799134 .039016725 .21499634 .040008546 .21499634 .06599426M.21499634 .39085389V.6290741C.21499634 .64541628 .24598694 .6484375 .28799439 .6484375 .31498719 .6484375 .3769989 .64541628 .4019928 .62939456 .43399049 .6083374 .44898988 .5752716 .44898988 .5452118 .44898988 .5031128 .43598939 .46102906 .4059906 .43095399 .36999513 .39588929 .32699586 .38085938 .24899292 .38085938 .23399353 .38085938 .21499634 .38085938 .21499634 .39086915V.39085389Z"/>
<path id="font_0_8" d="M.09199524 .6121063H.1749878C.19999695 .6121063 .21998596 .5911102 .22099304 .56611636 .22200012 .5411072 .22200012 .46810914 .22200012 .41911317 .22200012 .27911378 .21899414 .13911438 .21398926 .00010681152L.22599793-.0048828127 .30999757 .022109986C.30699159 .09811401 .30699159 .29611207 .30699159 .43211366 .30699159 .52111819 .30899049 .6111145 .31399537 .70010378L.30799867 .7121124 .09199524 .6391144V.6121063Z"/>
<path id="font_0_9" d="M.051986696 .06642151C.06199646 .047409059 .07598877 .030395508 .09199524 .01638794 .12098694-.009613037 .16099549-.016601563 .19898987-.016601563 .2559967-.016601563 .31199647 .0023956299 .35099793 .044403078 .375 .06941223 .3869934 .10343933 .3869934 .13845825 .3869934 .1634674 .37298585 .18649292 .35499574 .20449829 .34098817 .21850586 .3039856 .24052429 .27198792 .25453187 .24299622 .26654054 .19999695 .2885437 .18798828 .30055238 .17298889 .31655885 .1619873 .3285675 .1619873 .35058595 .1619873 .3725891 .16899109 .39360047 .18499756 .4086151 .19999695 .42362977 .22200012 .43164063 .24398804 .43164063 .2639923 .43164063 .2849884 .42462159 .29599 .4066162 .30599977 .39060975 .30799867 .3715973 .30899049 .35359193L.32099916 .34657289 .37599183 .38360597C.375 .40560914 .3639984 .42662049 .34799195 .44163514 .32499696 .46263124 .29299928 .46662904 .2630005 .46662904 .21398926 .46662904 .16699219 .45063783 .1309967 .4176178 .10398865 .39360047 .08999634 .35858155 .08999634 .32356263 .08999634 .29154969 .10798645 .26353456 .1309967 .2425232 .1539917 .22250366 .18399048 .2084961 .21499634 .1954956 .24099732 .18447876 .2689972 .17248535 .28799439 .1534729 .30299378 .13845825 .31399537 .11845398 .31399537 .09744263 .31399537 .079422 .30499269 .062408449 .29299928 .04940796 .27799989 .03340149 .25099183 .021392823 .22898865 .021392823 .19898987 .021392823 .17199707 .03439331 .1499939 .055404664 .1269989 .076416019 .116989139 .10644531 .114990238 .13645935L.100997928 .13745117 .051986696 .06642151Z"/>
<path id="font_0_10" d="M.024993897 .008056641 .027999878-.001953125 .11898804 .017059327 .23599243 .26541139C.23799134 .26942445 .24198914 .2734375 .24598694 .2734375H.47099305C.47399903 .2734375 .47999574 .26841737 .48199464 .26441957L.5359955 .076156619C.54299929 .050231935 .55799868-.009765625 .59399417-.009765625 .60899356-.009765625 .6239929-.0077667238 .6389923-.003768921L.7429962 .026229859 .74198916 .052230836C.7279968 .051223756 .71299746 .049224855 .69898989 .049224855 .6819916 .049224855 .6499939 .053237916 .6349945 .07925415 .59999087 .14030457 .57199099 .23640442 .5499878 .3174286 .5169983 .4373932 .47200013 .5973358 .45700074 .6803131H.2630005V.6533203L.35299684 .6383209C.3619995 .636322 .36499024 .6303253 .36499024 .6263275 .36499024 .6123352 .14698792 .20837403 .024993897 .008224487V.008056641M.2649994 .3194275C.2649994 .32043458 .2649994 .32643128 .2659912 .32843019L.38198854 .5723419C.38198854 .57333377 .3849945 .5763397 .3880005 .5763397 .3909912 .5763397 .3939972 .5743408 .394989 .5723419L.46499635 .32843019C.46499635 .3274231 .46699525 .3194275 .46699525 .3194275 .46699525 .3164215 .46499635 .3124237 .45999146 .3124237H.27198792C.2689972 .3124237 .2649994 .3164215 .2649994 .3194275Z"/>
<path id="font_0_11" d="M.08699036 .3262787C.08699036 .228302 .11299133 .12931824 .18299866 .05934143 .23999024 .0023498536 .32199098-.0146484379 .40098573-.0146484379 .48799134-.0146484379 .56799319 .02734375 .6399994 .07633972L.6230011 .10533142C.5669861 .067337039 .5039978 .038345338 .43598939 .038345338 .35398866 .038345338 .31199647 .066345218 .25698854 .12132263 .22399903 .15431214 .17599488 .25230409 .17599488 .3442688 .17599488 .39326478 .18199158 .44325257 .19699097 .49024964 .20899964 .52822878 .22698975 .56422427 .25498963 .59321597 .29899598 .63720706 .36099244 .6582184 .42199708 .6582184 .46798707 .6582184 .5159912 .6462097 .548996 .6132202 .57199099 .5902252 .58898928 .5612335 .6009979 .52923586L.61499026 .52822878 .6719971 .5862274C.6609955 .6042175 .647995 .6212158 .6329956 .6362152 .58699038 .6832123 .5209961 .69921877 .45599366 .69921877 .35198976 .69921877 .25099183 .663208 .17799378 .5902252 .10798645 .52124026 .08699036 .42225648 .08699036 .3262787Z"/>
<path id="font_0_12" d="M-.01701355 .40115357-.006011963 .38215638C.016998291 .39414979 .04798889 .41015626 .06498718 .41015626 .07699585 .41015626 .08898926 .4061432 .09599304 .39614869 .10798645 .38015748 .11099243 .33815003 .11099243 .29415895 .11099243 .26815797 .10699463 .1771698 .10699463 .15716553 .10699463 .059173585 .12599182-.0078125 .21099854-.0078125 .27198792-.0078125 .36499024 .048187257 .39898683 .06918335L.40499879 .06417847C.39898683-.02079773 .4019928-.19143677 .2559967-.19143677 .21099854-.19143677 .17298889-.1525116 .1519928-.114593509H.13899231L.09498596-.17047119 .09700012-.18145752C.12399292-.20942688 .1769867-.23242188 .22399903-.23242188 .2919922-.23242188 .36299134-.20843506 .41099549-.15750122 .45999146-.10560608 .48399354-.049728395 .4850006 .13816834 .4850006 .15716553 .4850006 .37615968 .4909973 .46214295L.47898866 .466156 .3999939 .42814637C.40499879 .35914613 .4079895 .28715516 .4079895 .21516419 .4079895 .1791687 .40699769 .14317322 .4059906 .108169559 .38598634 .09617615 .32598878 .05618286 .27198792 .05618286 .20799256 .05618286 .18099976 .092178348 .18099976 .22616577 .18099976 .28416444 .18499756 .34214784 .18499756 .39814759 .18499756 .41914369 .17799378 .4681549 .12199402 .4681549 .07899475 .4681549-.009002686 .40715028-.01701355 .40115357Z"/>
<path id="font_0_13" d="M.04899597 .6591797C.049987794 .6591797 .08999634 .647171 .10998535 .6411743 .116989139 .63916018 .12098694 .63217166 .12399292 .62615969 .12799073 .61616519 .1289978 .6051636 .1289978 .59516909V.14816284L.12599182 .001159668 .13699341-.0038452149 .21798706 .025161744C.21199036 .122161868 .21199036 .22015381 .21199036 .318161L.22099304 .3191681C.32899476 .2101593 .44099427 .105163577 .54599-.0068359377L.6309967 .024154664 .6319885 .03515625C.57099917 .089157108 .4059906 .25315858 .29899598 .36016847 .29499818 .36416627 .2939911 .36616517 .2939911 .36915589 .2939911 .37216188 .29899598 .37716676 .3019867 .38015748L.59298709 .6741791 .59399417 .6831665H.5039978L.21699524 .35716249 .20899964 .35816957C.20899964 .4711609 .21398926 .59916689 .21598816 .62615969 .21598816 .62716677 .21998596 .6641693 .22399903 .676178L.21699524 .6831665H.05899048L.050994874 .676178 .04899597 .6591797Z"/>
<path id="font_0_14" d="M.0019989014 .40022279 .015991211 .3822174C.033996583 .39422608 .05899048 .40722657 .07998657 .40722657 .09298706 .40722657 .10598755 .4012146 .114990238 .39222718 .14898682 .3572235 .18598938 .28224183 .21499634 .22325135 .1659851 .15925598 .115997318 .090270999 .07299805 .021270752V.0132751469L.100997928-.01171875 .116989139-.0077209474C.14698792 .0692749 .18699646 .1312561 .22599793 .19125366H.23298645C.25498963 .1482544 .28799439 .08627319 .30299378 .061279298 .31399537 .042266847 .32499696 .023269654 .34098817 .009277344 .35299684-.0027313233 .36698915-.01171875 .38398744-.01171875 .4039917-.01171875 .42099 .0002746582 .43699647 .012268066 .46499635 .03227234 .4889984 .057266237 .5119934 .08227539L.5039978 .10127258H.49598695C.48298646 .090270999 .47200013 .08227539 .45799256 .07426453 .44799806 .0692749 .43699647 .0632782 .4249878 .0632782 .4099884 .0632782 .397995 .072265628 .3880005 .08126831 .35699464 .10826111 .30699159 .20225525 .2809906 .25924684 .33299256 .3202362 .39698792 .3852234 .45298768 .42422486 .45498658 .42521668 .45599366 .42622376 .45599366 .42921449 .45599366 .43022157 .45399476 .43222047 .45298768 .43321229L.42199708 .46221925C.41999818 .46421815 .41799928 .46421815 .41600038 .46421815 .41299439 .46421815 .41099549 .46421815 .4099884 .46221925 .3659973 .41122438 .30699159 .3412323 .2709961 .2932434L.2649994 .29423524C.23599243 .35021974 .19499207 .42222596 .17399597 .44522096 .16099549 .46022035 .13699341 .46421815 .11999512 .46421815 .10398865 .46421815 .08898926 .45622254 .07398987 .44821168 .04899597 .43421937 .024993897 .4182129 .0019989014 .40022279Z"/>
<path id="font_0_15" d="M.04598999 .23046875H.70399478L.70999148 .27046205H.052993776L.04598999 .23046875Z"/>
</defs>
<use data-text="r" xlink:href="#font_0_1" transform="matrix(21.5193,0,0,-21.5193,7.174473,48.68622)"/>
<use data-text="(" xlink:href="#font_0_2" transform="matrix(21.5193,0,0,-21.5193,16.470812,48.68622)"/>
<use data-text="t" xlink:href="#font_0_3" transform="matrix(21.5193,0,0,-21.5193,26.015915,48.68622)"/>
<use data-text=")" xlink:href="#font_0_4" transform="matrix(21.5193,0,0,-21.5193,36.163557,48.68622)"/>
<path transform="matrix(1.5,0,0,-1.5,25.84888,43.304796)" d="M46.37662-21.526H89.42862V21.526H46.37662Z" fill="#ffb5bf"/>
<path transform="matrix(1.5,0,0,-1.5,25.84888,43.304796)" stroke-width=".79701" stroke-linecap="butt" stroke-miterlimit="10" stroke-linejoin="miter" fill="none" stroke="#d61c1a" d="M46.37662-21.526H89.42862V21.526H46.37662Z"/>
<use data-text="N" xlink:href="#font_0_5" transform="matrix(21.5193,0,0,-21.5193,118.7791,50.720399)"/>
<path transform="matrix(1.5,0,0,-1.5,25.84888,43.304796)" stroke-width=".79701" stroke-linecap="butt" stroke-miterlimit="10" stroke-linejoin="miter" fill="none" stroke="#000000" d="M156.88532 0C156.88532 10.57993 148.30883 19.15643 137.72888 19.15643 127.14894 19.15643 118.57245 10.57993 118.57245 0 118.57245-10.57993 127.14894-19.15643 137.72888-19.15643 148.30883-19.15643 156.88532-10.57993 156.88532 0ZM137.72888 0"/>
<use data-text="+" xlink:href="#font_0_6" transform="matrix(37.185258,0,0,-37.185258,218.39989,52.82573)"/>
<path transform="matrix(1.5,0,0,-1.5,25.84888,43.304796)" stroke-width=".79701" stroke-linecap="butt" stroke-miterlimit="10" stroke-linejoin="miter" fill="none" stroke="#000000" d="M186.02915-21.526H229.08115V21.526H186.02915Z"/>
<use data-text="B" xlink:href="#font_0_7" transform="matrix(21.5193,0,0,-21.5193,330.12794,50.677354)"/>
<path transform="matrix(1.5,0,0,-1.5,25.84888,43.304796)" stroke-width=".79701" stroke-linecap="butt" stroke-miterlimit="10" stroke-linejoin="miter" fill="none" stroke="#000000" d="M296.53785 0C296.53785 10.57993 287.96134 19.15643 277.3814 19.15643 266.80149 19.15643 258.22496 10.57993 258.22496 0 258.22496-10.57993 266.80149-19.15643 277.3814-19.15643 287.96134-19.15643 296.53785-10.57993 296.53785 0ZM277.3814 0"/>
<use data-text="+" xlink:href="#font_0_6" transform="matrix(37.185258,0,0,-37.185258,427.87599,52.82573)"/>
<path transform="matrix(1.5,0,0,-1.5,25.84888,43.304796)" stroke-width=".79701" stroke-linecap="butt" stroke-miterlimit="10" stroke-linejoin="miter" fill="none" stroke="#000000" d="M325.68168-28.47171H368.73368V28.47173H325.68168Z"/>
<use data-text="1" xlink:href="#font_0_8" transform="matrix(21.5193,0,0,-21.5193,541.28298,37.4498)"/>
<path transform="matrix(1.5,0,0,-1.5,541.28298,43.304796)" stroke-width=".574019" stroke-linecap="butt" stroke-miterlimit="10" stroke-linejoin="miter" fill="none" stroke="#000000" d="M0 0H7.160891"/>
<use data-text="s" xlink:href="#font_0_9" transform="matrix(21.5193,0,0,-21.5193,541.75656,59.922639)"/>
<path transform="matrix(1.5,0,0,-1.5,25.84888,43.304796)" stroke-width=".79701" stroke-linecap="butt" stroke-miterlimit="10" stroke-linejoin="miter" fill="none" stroke="#000000" d="M325.68168-94.99817H368.73368V-51.94617H325.68168Z"/>
<use data-text="A" xlink:href="#font_0_10" transform="matrix(21.5193,0,0,-21.5193,538.3663,160.72275)"/>
<path transform="matrix(1.5,0,0,-1.5,25.84888,43.304796)" stroke-width=".79701" stroke-linecap="butt" stroke-miterlimit="10" stroke-linejoin="miter" fill="none" stroke="#000000" d="M414.88557-21.526H457.93757V21.526H414.88557Z"/>
<use data-text="C" xlink:href="#font_0_11" transform="matrix(21.5193,0,0,-21.5193,672.77316,50.666597)"/>
<use data-text="y" xlink:href="#font_0_12" transform="matrix(21.5193,0,0,-21.5193,755.498,48.460206)"/>
<use data-text="(" xlink:href="#font_0_2" transform="matrix(21.5193,0,0,-21.5193,768.259,48.460206)"/>
<use data-text="t" xlink:href="#font_0_3" transform="matrix(21.5193,0,0,-21.5193,777.804,48.460206)"/>
<use data-text=")" xlink:href="#font_0_4" transform="matrix(21.5193,0,0,-21.5193,787.95169,48.460206)"/>
<path transform="matrix(1.5,0,0,-1.5,25.84888,43.304796)" d="M325.68168-161.52463H368.73368V-118.472629H325.68168Z" fill="#ffb5bf"/>
<path transform="matrix(1.5,0,0,-1.5,25.84888,43.304796)" stroke-width=".79701" stroke-linecap="butt" stroke-miterlimit="10" stroke-linejoin="miter" fill="none" stroke="#d61c1a" d="M325.68168-161.52463H368.73368V-118.472629H325.68168Z"/>
<use data-text="K" xlink:href="#font_0_13" transform="matrix(21.5193,0,0,-21.5193,539.46408,260.57575)"/>
<path transform="matrix(1.5,0,0,-1.5,25.84888,43.304796)" stroke-width=".79701" stroke-linecap="butt" stroke-miterlimit="10" stroke-linejoin="miter" fill="none" stroke="#000000" d="M17.6313 0H45.1811"/>
<path transform="matrix(1.5,0,0,-1.5,94.21831,43.304796)" stroke-width=".79701" stroke-linecap="round" stroke-linejoin="round" fill="none" stroke="#000000" d="M-2.55046 3.11095C-2.0845 1.24435-1.04614 .36295 0 0-1.04614-.36295-2.0845-1.24435-2.55046-3.11095"/>
<path transform="matrix(1.5,0,0,-1.5,25.84888,43.304796)" stroke-width=".79701" stroke-linecap="butt" stroke-miterlimit="10" stroke-linejoin="miter" fill="none" stroke="#000000" d="M89.82713 0H117.37692"/>
<path transform="matrix(1.5,0,0,-1.5,202.51203,43.304796)" stroke-width=".79701" stroke-linecap="round" stroke-linejoin="round" fill="none" stroke="#000000" d="M-2.55046 3.11095C-2.0845 1.24435-1.04614 .36295 0 0-1.04614-.36295-2.0845-1.24435-2.55046-3.11095"/>
<use data-text="+" xlink:href="#font_0_6" transform="matrix(21.5193,0,0,-21.5193,187.50957,33.939668)"/>
<path transform="matrix(1.5,0,0,-1.5,25.84888,43.304796)" stroke-width=".79701" stroke-linecap="butt" stroke-miterlimit="10" stroke-linejoin="miter" fill="none" stroke="#000000" d="M157.28383 0H184.83364"/>
<path transform="matrix(1.5,0,0,-1.5,303.69709,43.304796)" stroke-width=".79701" stroke-linecap="round" stroke-linejoin="round" fill="none" stroke="#000000" d="M-2.55046 3.11095C-2.0845 1.24435-1.04614 .36295 0 0-1.04614-.36295-2.0845-1.24435-2.55046-3.11095"/>
<path transform="matrix(1.5,0,0,-1.5,404.1211,43.304796)" stroke-width=".59776" stroke-linecap="butt" stroke-miterlimit="10" stroke-linejoin="miter" fill="none" stroke="#000000" d="M-.00014 2.91408 5.04718 0-.00014-2.91408Z"/>
<path transform="matrix(1.5,0,0,-1.5,25.84888,43.304796)" stroke-width="2.98883" stroke-linecap="butt" stroke-miterlimit="10" stroke-linejoin="miter" fill="none" stroke="#000000" d="M229.47965 0H252.34694"/>
<path transform="matrix(1.5,0,0,-1.5,25.84888,43.304796)" stroke-width="1.39478" stroke-linecap="butt" stroke-miterlimit="10" stroke-linejoin="miter" fill="none" stroke="#ffffff" d="M229.47965 0H252.34694"/>
<path transform="matrix(1.5,0,0,-1.5,25.84888,43.304796)" stroke-width="1.39478" stroke-linecap="butt" stroke-miterlimit="10" stroke-linejoin="miter" fill="none" stroke="#ffffff" d="M229.47965 0H253.34322"/>
<use data-text="+" xlink:href="#font_0_6" transform="matrix(21.5193,0,0,-21.5193,396.98567,33.939668)"/>
<path transform="matrix(1.5,0,0,-1.5,505.30616,43.304796)" stroke-width=".59776" stroke-linecap="butt" stroke-miterlimit="10" stroke-linejoin="miter" fill="none" stroke="#000000" d="M-.00014 2.91408 5.04718 0-.00014-2.91408Z"/>
<path transform="matrix(1.5,0,0,-1.5,25.84888,43.304796)" stroke-width="2.98883" stroke-linecap="butt" stroke-miterlimit="10" stroke-linejoin="miter" fill="none" stroke="#000000" d="M296.93635 0H319.80363"/>
<path transform="matrix(1.5,0,0,-1.5,25.84888,43.304796)" stroke-width="1.39478" stroke-linecap="butt" stroke-miterlimit="10" stroke-linejoin="miter" fill="none" stroke="#ffffff" d="M296.93635 0H319.80363"/>
<path transform="matrix(1.5,0,0,-1.5,25.84888,43.304796)" stroke-width="1.39478" stroke-linecap="butt" stroke-miterlimit="10" stroke-linejoin="miter" fill="none" stroke="#ffffff" d="M296.93635 0H320.7999"/>
<path transform="matrix(1.5,0,0,-1.5,25.84888,43.304796)" stroke-width=".79701" stroke-linecap="butt" stroke-miterlimit="10" stroke-linejoin="miter" fill="none" stroke="#000000" d="M458.3361 0H480.21653"/>
<path transform="matrix(1.5,0,0,-1.5,746.7714,43.304796)" stroke-width=".79701" stroke-linecap="round" stroke-linejoin="round" fill="none" stroke="#000000" d="M-2.55046 3.11095C-2.0845 1.24435-1.04614 .36295 0 0-1.04614-.36295-2.0845-1.24435-2.55046-3.11095"/>
<path transform="matrix(0,-1.5,-1.5,-0,441.921,81.104679)" stroke-width=".59776" stroke-linecap="butt" stroke-miterlimit="10" stroke-linejoin="miter" fill="none" stroke="#000000" d="M-.00014 2.91408 5.04718 0-.00014-2.91408Z"/>
<path transform="matrix(1.5,0,0,-1.5,25.84888,43.304796)" stroke-width="2.98883" stroke-linecap="butt" stroke-miterlimit="10" stroke-linejoin="miter" fill="none" stroke="#000000" d="M325.28318-73.47217H277.3814V-25.03445"/>
<path transform="matrix(1.5,0,0,-1.5,25.84888,43.304796)" stroke-width="1.39478" stroke-linecap="butt" stroke-miterlimit="10" stroke-linejoin="miter" fill="none" stroke="#ffffff" d="M325.28318-73.47217H277.3814V-25.03445"/>
<path transform="matrix(1.5,0,0,-1.5,25.84888,43.304796)" stroke-width="1.39478" stroke-linecap="butt" stroke-miterlimit="10" stroke-linejoin="miter" fill="none" stroke="#ffffff" d="M325.28318-73.47217H277.3814V-24.03818"/>
<use data-text="+" xlink:href="#font_0_6" transform="matrix(21.5193,0,0,-21.5193,417.89149,85.619419)"/>
<path transform="matrix(1.5,0,0,-1.5,639.11209,43.304796)" stroke-width=".59776" stroke-linecap="butt" stroke-miterlimit="10" stroke-linejoin="miter" fill="none" stroke="#000000" d="M-.00014 2.91408 5.04718 0-.00014-2.91408Z"/>
<path transform="matrix(1.5,0,0,-1.5,25.84888,43.304796)" stroke-width="2.98883" stroke-linecap="butt" stroke-miterlimit="10" stroke-linejoin="miter" fill="none" stroke="#000000" d="M369.13218 0H409.00755"/>
<path transform="matrix(1.5,0,0,-1.5,25.84888,43.304796)" stroke-width="1.39478" stroke-linecap="butt" stroke-miterlimit="10" stroke-linejoin="miter" fill="none" stroke="#ffffff" d="M369.13218 0H409.00755"/>
<path transform="matrix(1.5,0,0,-1.5,25.84888,43.304796)" stroke-width="1.39478" stroke-linecap="butt" stroke-miterlimit="10" stroke-linejoin="miter" fill="none" stroke="#ffffff" d="M369.13218 0H410.00386"/>
<use data-text="x" xlink:href="#font_0_14" transform="matrix(14.94396,0,0,-14.94396,599.8957,32.36618)"/>
<use data-text="(" xlink:href="#font_0_2" transform="matrix(14.94396,0,0,-14.94396,607.75619,32.36618)"/>
<use data-text="t" xlink:href="#font_0_3" transform="matrix(14.94396,0,0,-14.94396,614.38479,32.36618)"/>
<use data-text=")" xlink:href="#font_0_4" transform="matrix(14.94396,0,0,-14.94396,621.43179,32.36618)"/>
<path transform="matrix(-1.5,-0,0,1.5,588.01467,153.51305)" stroke-width=".59776" stroke-linecap="butt" stroke-miterlimit="10" stroke-linejoin="miter" fill="none" stroke="#000000" d="M-.00014 2.91408 5.04718 0-.00014-2.91408Z"/>
<path transform="matrix(1.5,0,0,-1.5,25.84888,43.304796)" stroke-width="2.98883" stroke-linecap="butt" stroke-miterlimit="10" stroke-linejoin="miter" fill="none" stroke="#000000" d="M391.80964 0V-73.47217H374.6117"/>
<path transform="matrix(1.5,0,0,-1.5,25.84888,43.304796)" stroke-width="1.39478" stroke-linecap="butt" stroke-miterlimit="10" stroke-linejoin="miter" fill="none" stroke="#ffffff" d="M391.80964 0V-73.47217H374.6117"/>
<path transform="matrix(1.5,0,0,-1.5,25.84888,43.304796)" stroke-width="1.39478" stroke-linecap="butt" stroke-miterlimit="10" stroke-linejoin="miter" fill="none" stroke="#ffffff" d="M391.80964 0V-73.47217H373.61543"/>
<path transform="matrix(1.5,0,0,-1.5,25.84888,43.304796)" stroke-width=".79701" stroke-linecap="butt" stroke-miterlimit="10" stroke-linejoin="miter" fill="none" stroke="#000000" d="M325.28318-139.99863H137.72888V-20.35194"/>
<path transform="matrix(0,-1.5,-1.5,-0,232.4422,73.23497)" stroke-width=".79701" stroke-linecap="round" stroke-linejoin="round" fill="none" stroke="#000000" d="M-2.55046 3.11095C-2.0845 1.24435-1.04614 .36295 0 0-1.04614-.36295-2.0845-1.24435-2.55046-3.11095"/>
<use data-text="&#x2212;" xlink:href="#font_0_15" transform="matrix(21.5193,0,0,-21.5193,208.39389,83.014789)"/>
<path transform="matrix(-1.5,-0,0,1.5,588.01467,253.30274)" stroke-width=".59776" stroke-linecap="butt" stroke-miterlimit="10" stroke-linejoin="miter" fill="none" stroke="#000000" d="M-.00014 2.91408 5.04718 0-.00014-2.91408Z"/>
<path transform="matrix(1.5,0,0,-1.5,25.84888,43.304796)" stroke-width="2.98883" stroke-linecap="butt" stroke-miterlimit="10" stroke-linejoin="miter" fill="none" stroke="#000000" d="M391.80964 0V-139.99863H374.6117"/>
<path transform="matrix(1.5,0,0,-1.5,25.84888,43.304796)" stroke-width="1.39478" stroke-linecap="butt" stroke-miterlimit="10" stroke-linejoin="miter" fill="none" stroke="#ffffff" d="M391.80964 0V-139.99863H374.6117"/>
<path transform="matrix(1.5,0,0,-1.5,25.84888,43.304796)" stroke-width="1.39478" stroke-linecap="butt" stroke-miterlimit="10" stroke-linejoin="miter" fill="none" stroke="#ffffff" d="M391.80964 0V-139.99863H373.61543"/>
<path transform="matrix(1.5,0,0,-1.5,25.84888,43.304796)" stroke-width="1.39478" stroke-linecap="butt" stroke-miterlimit="10" stroke-linejoin="miter" fill="none" stroke="#ffffff" d="M369.13218 0H410.00386"/>
<path transform="matrix(1.5,0,0,-1.5,25.84888,43.304796)" stroke-width="1.39478" stroke-linecap="butt" stroke-miterlimit="10" stroke-linejoin="miter" fill="none" stroke="#ffffff" d="M391.80964 0V-73.47217H373.61543"/>
</svg>
