<svg xmlns="http://www.w3.org/2000/svg" xmlns:xlink="http://www.w3.org/1999/xlink" xmlns:inkscape="http://www.inkscape.org/namespaces/inkscape" version="1.1" width="426.50877" height="129.39579" viewBox="0 0 426.50877 129.39579">
<defs>
<path id="font_6_7" d="M.04598999 .23632813H.35598756V-.07368469L.3959961-.06668091V.23632813H.70399478L.70899966 .2763214H.3959961V.58631899L.35598756 .58032229V.2763214H.052993776L.04598999 .23632813Z"/>
<path id="font_6_8" d="M.08999634 .32458497C.08999634 .22958374 .114990238 .13148499 .18299866 .06341553 .23699951 .009384155 .31199647-.016601563 .3880005-.016601563 .46099855-.016601563 .56900027 .010391235 .6569977 .03338623 .6569977 .03338623 .6539917 .216568 .6519928 .30760194L.37599183 .2966156V.27061463L.38198854 .265625C.43598939 .26361085 .5 .25961305 .5439911 .25660707 .57199099 .25460816 .57199099 .22257996 .57199099 .13449097 .57199099 .061416627 .56900027 .04940796 .5519867 .045394899 .5209961 .038391115 .48999024 .03538513 .45799256 .03538513 .37998963 .03538513 .30599977 .060409547 .2619934 .112472537 .20399475 .18052674 .17999268 .25260926 .17999268 .3405609 .17999268 .48339845 .23199463 .5653076 .26098634 .5942688 .3039856 .63623049 .36299134 .6502075 .42199708 .6502075 .5529938 .6502075 .59298709 .5563202 .60598757 .53034976L.6179962 .5293579 .6759949 .58628848C.6649933 .6032715 .6119995 .69921877 .46699525 .69921877 .3619995 .69921877 .25698854 .6682129 .18199158 .593277 .11199951 .5233612 .08999634 .4224701 .08999634 .32458497Z"/>
<path id="font_6_16" d="M.10899353 .22636414C.10899353 .17733765 .116989139 .12631226 .13798523 .08029175 .14898682 .057281496 .16299439 .03427124 .18598938 .01828003 .21699524-.0037231446 .25698854-.01171875 .29699708-.01171875 .34399415-.01171875 .3899994 .0022735596 .43099977 .023269654 .47599793 .045272829 .5169983 .073287967 .55400088 .10429382L.5389862 .12231445 .5269928 .124313358C.5009918 .106292728 .47399903 .091293338 .44599916 .07827759 .41600038 .0652771 .38598634 .056274415 .35299684 .056274415 .31900025 .056274415 .28599549 .06428528 .2599945 .08528137 .22698975 .11329651 .20999146 .1643219 .20698548 .19734192L.526001 .31941224C.5339966 .32240296 .54499819 .32740785 .548996 .33241273 .548996 .3334198 .5499878 .33641053 .5499878 .34042359 .5499878 .3824463 .5299988 .4234619 .49299623 .45046998 .46398927 .47146607 .42599488 .47846986 .3889923 .47846986 .30299378 .47846986 .22200012 .4454651 .16699219 .388443 .12298584 .3434143 .10899353 .2843933 .10899353 .22636414M.20298767 .26037599C.20298767 .30940248 .20999146 .35443116 .25498963 .39645387 .2789917 .42245484 .31199647 .43847657 .34999085 .43847657 .37098695 .43847657 .38598634 .43547059 .39898683 .4284668 .42599488 .41246034 .44499208 .3794403 .45098878 .35443116 .45199586 .35142518 .45298768 .34742738 .45298768 .3444214 .45298768 .32841493 .44499208 .32040406 .43798829 .31840516L.20999146 .2383728 .20498657 .2423706C.20399475 .24836731 .20298767 .25437928 .20298767 .26037599Z"/>
<path id="font_6_2" d="M.11299133 .24990845C.11299133 .007904053 .1519928-.09008789 .18299866-.13310242 .21099854-.17008972 .25299073-.20809937 .30099488-.21209717V-.1880951C.2809906-.18409729 .25099183-.16809082 .23399353-.1481018 .21998596-.13209534 .16499329-.05809021 .16499329 .24990845 .16499329 .4618988 .19799805 .5659027 .21998596 .6128998 .23599243 .6469116 .2689972 .6769104 .30099488 .684906V.71191409C.2599945 .7049103 .21598816 .6729126 .19099427 .63790896 .1599884 .5919037 .11299133 .4748993 .11299133 .24990845Z"/>
<path id="font_6_3" d="M.051986696 .06642151C.06199646 .047409059 .07598877 .030395508 .09199524 .01638794 .12098694-.009613037 .16099549-.016601563 .19898987-.016601563 .2559967-.016601563 .31199647 .0023956299 .35099793 .044403078 .375 .06941223 .3869934 .10343933 .3869934 .13845825 .3869934 .1634674 .37298585 .18649292 .35499574 .20449829 .34098817 .21850586 .3039856 .24052429 .27198792 .25453187 .24299622 .26654054 .19999695 .2885437 .18798828 .30055238 .17298889 .31655885 .1619873 .3285675 .1619873 .35058595 .1619873 .3725891 .16899109 .39360047 .18499756 .4086151 .19999695 .42362977 .22200012 .43164063 .24398804 .43164063 .2639923 .43164063 .2849884 .42462159 .29599 .4066162 .30599977 .39060975 .30799867 .3715973 .30899049 .35359193L.32099916 .34657289 .37599183 .38360597C.375 .40560914 .3639984 .42662049 .34799195 .44163514 .32499696 .46263124 .29299928 .46662904 .2630005 .46662904 .21398926 .46662904 .16699219 .45063783 .1309967 .4176178 .10398865 .39360047 .08999634 .35858155 .08999634 .32356263 .08999634 .29154969 .10798645 .26353456 .1309967 .2425232 .1539917 .22250366 .18399048 .2084961 .21499634 .1954956 .24099732 .18447876 .2689972 .17248535 .28799439 .1534729 .30299378 .13845825 .31399537 .11845398 .31399537 .09744263 .31399537 .079422 .30499269 .062408449 .29299928 .04940796 .27799989 .03340149 .25099183 .021392823 .22898865 .021392823 .19898987 .021392823 .17199707 .03439331 .1499939 .055404664 .1269989 .076416019 .116989139 .10644531 .114990238 .13645935L.100997928 .13745117 .051986696 .06642151Z"/>
<path id="font_6_4" d="M.085998538-.1880951V-.21209717C.13398743-.20610047 .1789856-.17208863 .20698548-.13510132 .23799134-.09210205 .27598573 .007904053 .27598573 .24990845 .27598573 .50090029 .22399903 .5919037 .19299317 .63790896 .16799927 .6729126 .1269989 .7049103 .085998538 .71191409V.684906C.117996219 .6759033 .14898682 .6469116 .16499329 .6128998 .18699646 .5659027 .22399903 .48190309 .22399903 .24990845 .22399903-.099090579 .17199707-.13209534 .1579895-.1481018 .14099121-.16809082 .10598755-.18409729 .085998538-.1880951Z"/>
<path id="font_6_9" d="M.04598999 .23046875H.70399478L.70999148 .27046205H.052993776L.04598999 .23046875Z"/>
<path id="font_6_5" d="M.053985597 .65625C.054992677 .65625 .08999634 .6462555 .10798645 .6412506 .12098694 .6372528 .1309967 .6252594 .1309967 .61128237 .13198853 .5543213 .13398743 .45439149 .13398743 .43940736 .13398743 .29444886 .1329956 .14831543 .125 .003189087L.13598633-.0058135988 .21899414 .023208619C.21398926 .11929321 .21398926 .21638489 .21398926 .31245423 .21998596 .31245423 .22898865 .30845643 .23399353 .30345155 .2630005 .27442933 .3899994 .11128235 .48298646-.0078125L.58200076 .018203736V.02720642L.31900025 .3234558 .32099916 .33146668C.4039917 .3404541 .4850006 .3734131 .5169983 .44322206 .5319977 .47714234 .5359955 .49110414 .5359955 .53897097 .5359955 .57388308 .5219879 .6077881 .49699403 .63272097 .47999574 .6506958 .45700074 .6596985 .43299867 .6667023 .40098573 .67570498 .36698915 .67871096 .33299256 .67871096L.06098938 .679245 .054992677 .6732483 .053985597 .65625M.21299744 .37045289C.21299744 .375412 .21699524 .549942 .21899414 .61376956 .21998596 .63272097 .22299195 .6397095 .23098755 .6397095H.2709961C.2979889 .6397095 .32598878 .6377106 .35299684 .63072207 .37199403 .6257324 .3909912 .61776736 .40499879 .6037903 .42599488 .5828552 .43798829 .55293276 .43798829 .52301028 .43798829 .47813417 .41799928 .43624879 .3869934 .40533448 .35398866 .37141419 .30599977 .36044313 .2599945 .35646058 .24798584 .35546876 .23498535 .35546876 .22200012 .35546876 .21499634 .35546876 .21299744 .36444093 .21299744 .37042237V.37045289Z"/>
<path id="font_6_6" d="M.022994996 .6513672C.036987306 .649353 .049987794 .6463623 .06298828 .6433563 .07199097 .6413574 .07998657 .6353607 .085998538 .62835696 .09599304 .61834719 .102996829 .60635378 .10899353 .5943451L.2579956 .29930116C.2579956 .19927979 .2579956 .0982666 .25498963-.0017547608L.2659912-.0107421879 .35598756 .018249512 .34700013 .30630494C.42999269 .4343109 .5039978 .5303345 .61499026 .675354L.61099246 .6933594 .526001 .6763611C.48999024 .619339 .4059906 .47431947 .397995 .46032716 .3849945 .4373169 .34199525 .36730958 .33898927 .3623047 .33599855 .3572998 .33198548 .353302 .32798768 .353302 .32199098 .353302 .31698609 .3592987 .31599427 .36131288L.1749878 .6863556H.02999878L.022994996 .67936709V.6513672Z"/>
</defs>
<use data-text="+" xlink:href="#font_6_7" transform="matrix(37.185197,0,0,-37.18505,103.05142,42.555955)"/>
<use data-text="G" xlink:href="#font_6_8" transform="matrix(21.519362,0,0,-21.519398,217.51706,38.416444)"/>
<use data-text="e" xlink:href="#font_6_16" transform="matrix(16.438399,0,0,-16.438426,233.98429,41.64531)"/>
<use data-text="(" xlink:href="#font_6_2" transform="matrix(21.519362,0,0,-21.519398,244.2269,38.416444)"/>
<use data-text="s" xlink:href="#font_6_3" transform="matrix(21.519362,0,0,-21.519398,253.77204,38.416444)"/>
<use data-text=")" xlink:href="#font_6_4" transform="matrix(21.519362,0,0,-21.519398,264.75898,38.416444)"/>
<path transform="matrix(1,0,0,-1,117.090908,33.03515)" stroke-width=".75" stroke-linecap="round" stroke-linejoin="round" fill="none" stroke="#000000" d="M101.01534-25.429036C100.66708-25.68358 100.44231-25.612189 101.32143-25.167386 119.68183-25.470242 137.20072-25.611485 155.57225-25.86687 171.75389-24.085558 170.62924-25.67847 170.5875-10.910292 170.63216-3.467616 170.96044 3.309643 170.9631 9.975592 171.47945 24.557852 170.37168 25.88445 155.07215 24.451544 138.41988 24.979668 119.60723 25.312695 100.68336 25.829424 86.11477 25.677758 85.419429 24.650645 84.730869 9.887419 84.65691 3.81552 85.72306-2.428382 85.03409-9.812465 85.79068-25.343703 84.75585-25.205716 101.01534-25.429036Z"/>
<path transform="matrix(1,0,0,-1,117.090908,33.03515)" stroke-width=".75" stroke-linecap="round" stroke-linejoin="round" fill="none" stroke="#000000" d="M22.203822 .37561C22.231202 10.998648 11.826175 20.834095 .229252 22.609478-12.595293 22.16727-22.017048 12.084069-21.785189-.512925-21.109255-12.446862-12.878755-21.266503-.936645-21.13965 12.851084-20.81385 21.75759-12.244535 22.203822 .37561Z"/>
<path transform="matrix(1,0,0,-1,117.090908,33.03515)" stroke-width=".75" stroke-linecap="round" stroke-linejoin="round" fill="none" stroke="#000000" d="M-63.684827-.36062C-49.484476-.097295-35.77869 .366332-21.69654 .140486"/>
<path transform="matrix(1,0,0,-1,117.090908,33.03515)" stroke-width=".75" stroke-linecap="round" stroke-linejoin="round" fill="none" stroke="#000000" d="M-34.496957-8.442409C-31.111723-4.418433-26.934144-1.400379-21.610005 .408941-26.648184 1.203663-31.325469 3.745661-33.972799 8.156735"/>
<path transform="matrix(1,0,0,-1,117.090908,33.03515)" stroke-width=".75" stroke-linecap="round" stroke-linejoin="round" fill="none" stroke="#000000" d="M21.88578-.432315C42.991575 .007941 63.567346 .150529 84.947139-.097567"/>
<path transform="matrix(1,0,0,-1,117.090908,33.03515)" stroke-width=".75" stroke-linecap="round" stroke-linejoin="round" fill="none" stroke="#000000" d="M72.72426-8.201446C75.46804-4.319238 79.61539-1.319646 84.79647 .076579 80.4418 1.399509 75.6882 3.651064 72.46294 8.111808"/>
<path transform="matrix(1,0,0,-1,117.090908,33.03515)" stroke-width=".75" stroke-linecap="round" stroke-linejoin="round" fill="none" stroke="#000000" d="M170.8867 .414772C199.37882 .092216 227.48284 .195883 255.79381 .307961"/>
<path transform="matrix(1,0,0,-1,117.090908,33.03515)" stroke-width=".75" stroke-linecap="round" stroke-linejoin="round" fill="none" stroke="#000000" d="M243.38309-8.268547C246.47846-4.258591 251.4741-.927827 256.44215 .434885 250.97649 1.571105 246.2503 3.913643 243.54425 7.890766"/>
<path transform="matrix(1,0,0,-1,117.090908,33.03515)" stroke-width=".75" stroke-linecap="round" stroke-linejoin="round" fill="none" stroke="#000000" d="M213.33403 .334357C213.2657-29.34504 213.89565-59.563146 213.51972-88.77809 184.81414-88.6892 156.29483-88.27972 128.58388-88.98679 85.06232-88.87851 43.012987-88.581279 .330133-89.057239 .349007-66.14126 .293072-44.47633 .374712-22.023377"/>
<path transform="matrix(1,0,0,-1,117.090908,33.03515)" stroke-width=".75" stroke-linecap="round" stroke-linejoin="round" fill="none" stroke="#000000" d="M7.725391-35.110944C4.259974-31.487494 .972623-26.853846-.131942-22.235512-1.500174-27.473952-3.729661-31.12214-8.219615-35.007684"/>
<path transform="matrix(1,0,0,-1,117.090908,33.03515)" stroke-width=".75" stroke-linecap="round" stroke-linejoin="round" fill="none" stroke="#000000" d="M100.44252-25.198645C100.68811-25.525807 99.98566-25.474064 100.75286-25.858983 118.0593-25.881598 137.40293-24.251072 156.90271-24.294344 170.32479-25.078015 171.68399-25.699879 171.13042-9.714952 171.3753-2.440624 170.4777 2.669993 170.1566 10.132752 171.66204 25.271716 170.80223 24.693173 156.593 25.846169 137.66727 23.975962 118.585819 25.069773 100.866268 24.355422 84.81921 24.096644 86.37323 24.628396 86.16876 10.162569 85.10815 2.682151 85.21164-3.805059 85.20302-9.397256 84.83108-25.314135 84.87661-24.478093 100.44252-25.198645Z"/>
<path transform="matrix(1,0,0,-1,117.090908,33.03515)" stroke-width=".75" stroke-linecap="round" stroke-linejoin="round" fill="none" stroke="#000000" d="M22.192154 .001117C20.87106 11.78393 12.340858 22.196328 .392499 21.54959-12.418559 22.106133-22.08256 12.015642-21.071953 .482703-22.288216-11.268611-12.169085-21.63048-.73691-21.501805 12.799714-21.951506 22.209462-11.222984 22.192154 .001117Z"/>
<path transform="matrix(1,0,0,-1,117.090908,33.03515)" stroke-width=".75" stroke-linecap="round" stroke-linejoin="round" fill="none" stroke="#000000" d="M-63.435514-.306393C-49.944665-.198354-36.08662 .284823-21.79896 .219761"/>
<path transform="matrix(1,0,0,-1,117.090908,33.03515)" stroke-width=".75" stroke-linecap="round" stroke-linejoin="round" fill="none" stroke="#000000" d="M-34.130357-8.425703C-31.248137-4.146864-26.941285-1.349358-21.70658 .109773-26.266133 .747728-31.434254 4.426654-34.43315 8.201708"/>
<path transform="matrix(1,0,0,-1,117.090908,33.03515)" stroke-width=".75" stroke-linecap="round" stroke-linejoin="round" fill="none" stroke="#000000" d="M21.25347 .208286C43.000604 .433647 64.20011 .449557 84.70809 .200398"/>
<path transform="matrix(1,0,0,-1,117.090908,33.03515)" stroke-width=".75" stroke-linecap="round" stroke-linejoin="round" fill="none" stroke="#000000" d="M72.08782-8.40645C75.41838-4.312813 79.91477-1.568986 85.02939 .327129 80.34607 1.403873 75.7636 3.769625 72.78232 7.679912"/>
<path transform="matrix(1,0,0,-1,117.090908,33.03515)" stroke-width=".75" stroke-linecap="round" stroke-linejoin="round" fill="none" stroke="#000000" d="M171.1979-.135619C199.05539 .171591 227.60585-.249394 256.155-.07103"/>
<path transform="matrix(1,0,0,-1,117.090908,33.03515)" stroke-width=".75" stroke-linecap="round" stroke-linejoin="round" fill="none" stroke="#000000" d="M243.63483-8.036388C246.50452-4.085415 250.60996-1.17125 255.84328 .320084 251.43964 .987781 246.5261 3.776542 243.29682 8.080847"/>
<path transform="matrix(1,0,0,-1,117.090908,33.03515)" stroke-width=".75" stroke-linecap="round" stroke-linejoin="round" fill="none" stroke="#000000" d="M213.24193 .00876C213.17554-29.47742 213.8362-58.825075 213.81999-89.01073 184.81247-88.67833 156.23575-89.14995 128.03839-88.76878 85.59513-88.7378 43.15633-88.618907 .315325-88.31738 .442395-66.34436-.252619-43.852159 .028371-22.266335"/>
<path transform="matrix(1,0,0,-1,117.090908,33.03515)" stroke-width=".75" stroke-linecap="round" stroke-linejoin="round" fill="none" stroke="#000000" d="M7.758231-34.932996C3.553543-31.55355 1.568617-26.922953-.242329-22.09179-1.247364-27.13993-3.575512-31.322939-8.061065-34.617238"/>
<path transform="matrix(1,0,0,-1,117.090908,33.03515)" stroke-width=".75" stroke-linecap="round" stroke-linejoin="round" fill="none" stroke="#000000" d="M100.749179-24.763613C100.14194-25.746218 99.57218-25.17846 100.438808-25.63741 119.47775-25.663096 136.63362-24.071734 156.92435-25.387763 171.06989-25.460297 171.39537-25.363953 170.28182-9.495228 171.71596-2.891886 171.80219 3.709444 171.47284 9.855005 171.65023 24.889138 171.52222 25.597613 156.69409 25.50982 136.90134 24.175608 119.87682 24.404225 100.14582 24.136836 84.73193 24.707419 86.34743 25.421565 85.47435 10.791904 85.80751 3.287588 85.701229-3.840109 84.4834-9.017025 85.83784-25.25432 85.521457-24.23614 100.749179-24.763613Z"/>
<path transform="matrix(1,0,0,-1,117.090908,33.03515)" stroke-width=".75" stroke-linecap="round" stroke-linejoin="round" fill="none" stroke="#000000" d="M22.248068-.130616C21.66796 12.393672 11.152698 22.371489-.820588 21.738909-11.096598 22.401099-21.737694 12.030253-21.571368 .425023-22.223942-12.892138-11.685351-22.288104-.167704-21.815203 12.915039-22.131138 21.762547-11.107009 22.248068-.130616Z"/>
<path transform="matrix(1,0,0,-1,117.090908,33.03515)" stroke-width=".75" stroke-linecap="round" stroke-linejoin="round" fill="none" stroke="#000000" d="M-63.86914-.394843C-49.59262-.053898-36.019186-.033682-22.050465 .102649"/>
<path transform="matrix(1,0,0,-1,117.090908,33.03515)" stroke-width=".75" stroke-linecap="round" stroke-linejoin="round" fill="none" stroke="#000000" d="M-34.342035-8.102882C-30.750763-4.111749-26.994294-1.059991-21.420392 .186497-26.940083 1.462808-31.359183 3.8435-33.906614 7.829959"/>
<path transform="matrix(1,0,0,-1,117.090908,33.03515)" stroke-width=".75" stroke-linecap="round" stroke-linejoin="round" fill="none" stroke="#000000" d="M22.050105 .086676C43.104059-.278646 63.5252 .235204 85.18755 .345533"/>
<path transform="matrix(1,0,0,-1,117.090908,33.03515)" stroke-width=".75" stroke-linecap="round" stroke-linejoin="round" fill="none" stroke="#000000" d="M72.83538-7.749963C75.34745-3.8907 80.30355-1.18749 84.69595 .325891 80.08711 1.18498 75.44598 3.590728 72.056728 8.116326"/>
<path transform="matrix(1,0,0,-1,117.090908,33.03515)" stroke-width=".75" stroke-linecap="round" stroke-linejoin="round" fill="none" stroke="#000000" d="M171.30759 .044707C199.5167-.308151 227.34136 .208896 255.71939-.293808"/>
<path transform="matrix(1,0,0,-1,117.090908,33.03515)" stroke-width=".75" stroke-linecap="round" stroke-linejoin="round" fill="none" stroke="#000000" d="M243.42624-7.71081C246.42389-3.705424 251.10951-1.29356 256.02183 .29703 250.73972 1.525391 246.93296 4.089114 243.08759 7.765862"/>
<path transform="matrix(1,0,0,-1,117.090908,33.03515)" stroke-width=".75" stroke-linecap="round" stroke-linejoin="round" fill="none" stroke="#000000" d="M213.5262 .188756C213.13939-29.243069 213.2544-58.898668 213.74709-89.17237 184.67072-88.899799 156.77587-88.33203 127.91378-88.86285 85.64506-88.68588 42.315717-88.89042 .238866-88.86846 .154869-66.522838-.132318-44.446966 .43175-22.359883"/>
<path transform="matrix(1,0,0,-1,117.090908,33.03515)" stroke-width=".75" stroke-linecap="round" stroke-linejoin="round" fill="none" stroke="#000000" d="M7.939189-34.32021C3.634921-31.661543 1.059641-27.021855 .022118-22.354655-1.387828-27.059346-3.994285-31.786854-8.032424-34.454069"/>
<path transform="matrix(1,0,0,-1,117.090908,33.03515)" stroke-width=".75" stroke-linecap="round" stroke-linejoin="round" fill="none" stroke="#000000" d="M99.60052-25.548089C99.465229-25.475998 100.56712-25.39119 101.14123-24.961659 119.36326-25.883828 137.24546-25.036198 155.87325-24.034712 171.22953-24.417296 170.83144-24.775643 170.14589-9.540632 170.93178-3.658121 170.68953 4.012482 170.9652 9.270318 171.1547 24.347218 171.53298 24.550902 156.52527 24.766472 138.12349 24.42504 118.19951 24.717188 101.312938 25.695393 85.128787 25.667433 85.00258 24.357125 84.50556 9.627311 86.26064 3.114468 86.32095-3.701346 84.93426-9.701193 86.152469-25.45203 86.224369-25.662562 99.60052-25.548089Z"/>
<path transform="matrix(1,0,0,-1,117.090908,33.03515)" stroke-width=".75" stroke-linecap="round" stroke-linejoin="round" fill="none" stroke="#000000" d="M21.447194-.170215C22.514618 12.627225 12.167572 21.585028-.603 21.640126-12.915315 20.75414-21.657876 12.747184-20.712908 .971533-22.565403-11.141342-11.080278-22.02005-.479057-22.407435 11.530807-22.453127 21.642159-12.618824 21.447194-.170215Z"/>
<path transform="matrix(1,0,0,-1,117.090908,33.03515)" stroke-width=".75" stroke-linecap="round" stroke-linejoin="round" fill="none" stroke="#000000" d="M-63.434026-.315375C-50.173635 .184455-35.31795 .153482-21.586352 .360758"/>
<path transform="matrix(1,0,0,-1,117.090908,33.03515)" stroke-width=".75" stroke-linecap="round" stroke-linejoin="round" fill="none" stroke="#000000" d="M-33.903287-7.92993C-31.021132-3.94425-26.897915-1.160535-22.024989-.299983-26.784554 1.328141-31.33971 4.292619-34.54417 7.950963"/>
<path transform="matrix(1,0,0,-1,117.090908,33.03515)" stroke-width=".75" stroke-linecap="round" stroke-linejoin="round" fill="none" stroke="#000000" d="M21.34364-.110099C42.73499 .224131 63.477926 .376063 84.925838 .368715"/>
<path transform="matrix(1,0,0,-1,117.090908,33.03515)" stroke-width=".75" stroke-linecap="round" stroke-linejoin="round" fill="none" stroke="#000000" d="M72.59595-7.964273C75.87708-4.144887 79.96571-1.22932 85.03823 .433767 79.65431 .920054 75.38292 4.126034 72.08197 7.70322"/>
<path transform="matrix(1,0,0,-1,117.090908,33.03515)" stroke-width=".75" stroke-linecap="round" stroke-linejoin="round" fill="none" stroke="#000000" d="M170.58812 .293826C199.8041-.412584 227.50832 .322464 256.43077 .118918"/>
<path transform="matrix(1,0,0,-1,117.090908,33.03515)" stroke-width=".75" stroke-linecap="round" stroke-linejoin="round" fill="none" stroke="#000000" d="M243.07662-8.181654C246.86334-3.816928 251.44083-1.55835 255.7208 .163516 251.08223 1.203303 246.33574 4.286333 243.42743 8.218853"/>
<path transform="matrix(1,0,0,-1,117.090908,33.03515)" stroke-width=".75" stroke-linecap="round" stroke-linejoin="round" fill="none" stroke="#000000" d="M213.83191 .44822C213.21308-29.62212 213.52974-58.975717 213.99591-88.51175 185.28243-89.04883 156.84178-88.78465 127.79446-88.50658 85.177219-88.2992 42.320669-88.402439-.243549-89.00019-.348158-66.28081 .294175-44.10422 .197441-22.268898"/>
<path transform="matrix(1,0,0,-1,117.090908,33.03515)" stroke-width=".75" stroke-linecap="round" stroke-linejoin="round" fill="none" stroke="#000000" d="M7.650665-34.562135C3.780092-31.562304 1.193134-27.213406 .253293-22.432103-1.074736-26.725007-3.6163-31.833737-8.236556-34.3965"/>
<path transform="matrix(1,0,0,-1,117.090908,33.03515)" stroke-width=".75" stroke-linecap="round" stroke-linejoin="round" fill="none" stroke="#000000" d="M100.21074-24.08391C100.03849-25.767189 99.76632-24.730658 100.82369-24.172142 119.21815-24.06399 136.90334-23.973103 155.32695-25.545575 170.375-25.321593 171.04833-24.821276 170.68497-9.609757 171.33408-2.812642 171.02285 2.51105 171.5806 9.361311 171.71768 24.380007 170.11043 24.32491 156.30568 25.292477 138.16739 25.081627 118.198719 24.759852 99.679218 24.862357 85.37483 24.276904 84.51659 24.587124 84.83556 9.998642 84.89571 2.760268 84.80442-2.975989 85.635868-10.48824 86.001789-24.72071 85.29274-24.574982 100.21074-24.08391Z"/>
<path transform="matrix(1,0,0,-1,117.090908,33.03515)" stroke-width=".75" stroke-linecap="round" stroke-linejoin="round" fill="none" stroke="#000000" d="M20.951222-.255631C20.925206 12.342753 11.397647 21.007626-.390124 22.519387-12.523036 20.701153-21.165432 11.227281-21.894087 .734999-22.012902-12.548646-11.103347-22.030226-.318281-22.175736 11.174559-20.905045 21.11671-12.050102 20.951222-.255631Z"/>
<path transform="matrix(1,0,0,-1,117.090908,33.03515)" stroke-width=".75" stroke-linecap="round" stroke-linejoin="round" fill="none" stroke="#000000" d="M-63.91198 .354341C-49.81307-.221215-35.242067-.328702-21.511916-.292121"/>
<path transform="matrix(1,0,0,-1,117.090908,33.03515)" stroke-width=".75" stroke-linecap="round" stroke-linejoin="round" fill="none" stroke="#000000" d="M-34.399225-8.251804C-30.888123-3.855638-27.004885-1.49109-21.589474 .205457-26.854239 1.009705-31.536154 3.825032-34.411687 8.123006"/>
<path transform="matrix(1,0,0,-1,117.090908,33.03515)" stroke-width=".75" stroke-linecap="round" stroke-linejoin="round" fill="none" stroke="#000000" d="M21.968813 .351771C42.37834-.135477 63.793935 .184977 84.97438-.227604"/>
<path transform="matrix(1,0,0,-1,117.090908,33.03515)" stroke-width=".75" stroke-linecap="round" stroke-linejoin="round" fill="none" stroke="#000000" d="M72.234119-8.130371C75.64032-4.390733 80.25259-1.163436 85.12185 .034287 80.48522 1.286518 75.776149 4.169515 72.59841 8.275613"/>
<path transform="matrix(1,0,0,-1,117.090908,33.03515)" stroke-width=".75" stroke-linecap="round" stroke-linejoin="round" fill="none" stroke="#000000" d="M171.26705-.441595C199.04712-.136932 227.73427-.252587 256.0174 .306369"/>
<path transform="matrix(1,0,0,-1,117.090908,33.03515)" stroke-width=".75" stroke-linecap="round" stroke-linejoin="round" fill="none" stroke="#000000" d="M243.34723-8.298145C246.52121-3.779633 251.44597-1.222062 255.79219-.248767 251.23339 .854018 246.55754 3.755689 243.79145 8.479015"/>
<path transform="matrix(1,0,0,-1,117.090908,33.03515)" stroke-width=".75" stroke-linecap="round" stroke-linejoin="round" fill="none" stroke="#000000" d="M213.70256 .135216C213.4596-29.583722 213.49613-59.328699 213.86342-88.324619 185.3602-88.66575 157.0279-89.10276 127.86711-88.65662 85.66181-88.897388 42.5548-88.80914 .132048-88.35388-.329729-66.36761-.370079-44.051164-.031372-22.397313"/>
<path transform="matrix(1,0,0,-1,117.090908,33.03515)" stroke-width=".75" stroke-linecap="round" stroke-linejoin="round" fill="none" stroke="#000000" d="M8.152666-34.698049C3.792104-31.93418 1.514542-27.080893 .309668-22.450444-1.127808-26.811669-4.024284-31.731465-8.484622-34.951616"/>
<use data-text="+" xlink:href="#font_6_7" transform="matrix(21.519354,0,0,-21.519316,79.04162,25.292344)"/>
<use data-text="&#x2212;" xlink:href="#font_6_9" transform="matrix(21.519371,0,0,-21.519288,123.240818,63.64454)"/>
<use data-text="R" xlink:href="#font_6_5" transform="matrix(21.5195,0,0,-21.519398,6.8142855,38.416444)"/>
<use data-text="(" xlink:href="#font_6_2" transform="matrix(21.5195,0,0,-21.519398,19.919663,38.416444)"/>
<use data-text="s" xlink:href="#font_6_3" transform="matrix(21.5195,0,0,-21.519398,29.464852,38.416444)"/>
<use data-text=")" xlink:href="#font_6_4" transform="matrix(21.5195,0,0,-21.519398,40.451848,38.416444)"/>
<use data-text="Y" xlink:href="#font_6_6" transform="matrix(21.519246,0,0,-21.519398,377.65354,38.416444)"/>
<use data-text="(" xlink:href="#font_6_2" transform="matrix(21.519246,0,0,-21.519398,390.80223,38.416444)"/>
<use data-text="s" xlink:href="#font_6_3" transform="matrix(21.519246,0,0,-21.519398,400.34727,38.416444)"/>
<use data-text=")" xlink:href="#font_6_4" transform="matrix(21.519246,0,0,-21.519398,411.3342,38.416444)"/>
</svg>
