<svg xmlns="http://www.w3.org/2000/svg" xmlns:xlink="http://www.w3.org/1999/xlink" xmlns:inkscape="http://www.inkscape.org/namespaces/inkscape" version="1.1" width="353.77516" height="65.93451" viewBox="0 0 353.77516 65.93451">
<defs>
<path id="font_0_1" d="M.025985718 .6422577 .033996583 .6352539C.14498902 .6392517 .22399903 .6422577 .24798584 .6422577 .25299073 .6422577 .25698854 .6402588 .25698854 .636261 .2579956 .6062622 .25898744 .46224977 .25898744 .38024903 .25898744 .25323487 .2539978 .12623596 .24598694-.00077819827L.25498963-.009765625 .35499574 .017227173C.34799195 .13822937 .34199525 .31724549 .34199525 .43824769 .34199525 .5182495 .34498597 .6192627 .34599305 .633255 .34599305 .6395111 .34899903 .644516 .35499574 .644516 .37599183 .644516 .39698792 .6425171 .5649872 .6345215L.57299807 .64152529 .57499697 .68951418 .5669861 .69651797C.47898866 .69252017 .37998963 .68652346 .30499269 .68652346 .12799073 .68626406 .12799073 .69425967 .032989503 .6972656L.025985718 .69026187V.6422577Z"/>
<path id="font_0_2" d="M.11299133 .24990845C.11299133 .007904053 .1519928-.09008789 .18299866-.13310242 .21099854-.17008972 .25299073-.20809937 .30099488-.21209717V-.1880951C.2809906-.18409729 .25099183-.16809082 .23399353-.1481018 .21998596-.13209534 .16499329-.05809021 .16499329 .24990845 .16499329 .4618988 .19799805 .5659027 .21998596 .6128998 .23599243 .6469116 .2689972 .6769104 .30099488 .684906V.71191409C.2599945 .7049103 .21598816 .6729126 .19099427 .63790896 .1599884 .5919037 .11299133 .4748993 .11299133 .24990845Z"/>
<path id="font_0_3" d="M.051986696 .06642151C.06199646 .047409059 .07598877 .030395508 .09199524 .01638794 .12098694-.009613037 .16099549-.016601563 .19898987-.016601563 .2559967-.016601563 .31199647 .0023956299 .35099793 .044403078 .375 .06941223 .3869934 .10343933 .3869934 .13845825 .3869934 .1634674 .37298585 .18649292 .35499574 .20449829 .34098817 .21850586 .3039856 .24052429 .27198792 .25453187 .24299622 .26654054 .19999695 .2885437 .18798828 .30055238 .17298889 .31655885 .1619873 .3285675 .1619873 .35058595 .1619873 .3725891 .16899109 .39360047 .18499756 .4086151 .19999695 .42362977 .22200012 .43164063 .24398804 .43164063 .2639923 .43164063 .2849884 .42462159 .29599 .4066162 .30599977 .39060975 .30799867 .3715973 .30899049 .35359193L.32099916 .34657289 .37599183 .38360597C.375 .40560914 .3639984 .42662049 .34799195 .44163514 .32499696 .46263124 .29299928 .46662904 .2630005 .46662904 .21398926 .46662904 .16699219 .45063783 .1309967 .4176178 .10398865 .39360047 .08999634 .35858155 .08999634 .32356263 .08999634 .29154969 .10798645 .26353456 .1309967 .2425232 .1539917 .22250366 .18399048 .2084961 .21499634 .1954956 .24099732 .18447876 .2689972 .17248535 .28799439 .1534729 .30299378 .13845825 .31399537 .11845398 .31399537 .09744263 .31399537 .079422 .30499269 .062408449 .29299928 .04940796 .27799989 .03340149 .25099183 .021392823 .22898865 .021392823 .19898987 .021392823 .17199707 .03439331 .1499939 .055404664 .1269989 .076416019 .116989139 .10644531 .114990238 .13645935L.100997928 .13745117 .051986696 .06642151Z"/>
<path id="font_0_4" d="M.085998538-.1880951V-.21209717C.13398743-.20610047 .1789856-.17208863 .20698548-.13510132 .23799134-.09210205 .27598573 .007904053 .27598573 .24990845 .27598573 .50090029 .22399903 .5919037 .19299317 .63790896 .16799927 .6729126 .1269989 .7049103 .085998538 .71191409V.684906C.117996219 .6759033 .14898682 .6469116 .16499329 .6128998 .18699646 .5659027 .22399903 .48190309 .22399903 .24990845 .22399903-.099090579 .17199707-.13209534 .1579895-.1481018 .14099121-.16809082 .10598755-.18409729 .085998538-.1880951Z"/>
<path id="font_0_5" d="M.053985597 .65625C.054992677 .65625 .08999634 .6462555 .10798645 .6412506 .12098694 .6372528 .1309967 .6252594 .1309967 .61128237 .13198853 .5543213 .13398743 .45439149 .13398743 .43940736 .13398743 .29444886 .1329956 .14831543 .125 .003189087L.13598633-.0058135988 .21899414 .023208619C.21398926 .11929321 .21398926 .21638489 .21398926 .31245423 .21998596 .31245423 .22898865 .30845643 .23399353 .30345155 .2630005 .27442933 .3899994 .11128235 .48298646-.0078125L.58200076 .018203736V.02720642L.31900025 .3234558 .32099916 .33146668C.4039917 .3404541 .4850006 .3734131 .5169983 .44322206 .5319977 .47714234 .5359955 .49110414 .5359955 .53897097 .5359955 .57388308 .5219879 .6077881 .49699403 .63272097 .47999574 .6506958 .45700074 .6596985 .43299867 .6667023 .40098573 .67570498 .36698915 .67871096 .33299256 .67871096L.06098938 .679245 .054992677 .6732483 .053985597 .65625M.21299744 .37045289C.21299744 .375412 .21699524 .549942 .21899414 .61376956 .21998596 .63272097 .22299195 .6397095 .23098755 .6397095H.2709961C.2979889 .6397095 .32598878 .6377106 .35299684 .63072207 .37199403 .6257324 .3909912 .61776736 .40499879 .6037903 .42599488 .5828552 .43798829 .55293276 .43798829 .52301028 .43798829 .47813417 .41799928 .43624879 .3869934 .40533448 .35398866 .37141419 .30599977 .36044313 .2599945 .35646058 .24798584 .35546876 .23498535 .35546876 .22200012 .35546876 .21499634 .35546876 .21299744 .36444093 .21299744 .37042237V.37045289Z"/>
<path id="font_0_6" d="M.022994996 .6513672C.036987306 .649353 .049987794 .6463623 .06298828 .6433563 .07199097 .6413574 .07998657 .6353607 .085998538 .62835696 .09599304 .61834719 .102996829 .60635378 .10899353 .5943451L.2579956 .29930116C.2579956 .19927979 .2579956 .0982666 .25498963-.0017547608L.2659912-.0107421879 .35598756 .018249512 .34700013 .30630494C.42999269 .4343109 .5039978 .5303345 .61499026 .675354L.61099246 .6933594 .526001 .6763611C.48999024 .619339 .4059906 .47431947 .397995 .46032716 .3849945 .4373169 .34199525 .36730958 .33898927 .3623047 .33599855 .3572998 .33198548 .353302 .32798768 .353302 .32199098 .353302 .31698609 .3592987 .31599427 .36131288L.1749878 .6863556H.02999878L.022994996 .67936709V.6513672Z"/>
</defs>
<use data-text="T" xlink:href="#font_0_1" transform="matrix(21.519398,0,0,-21.519398,155.93169,38.435804)"/>
<use data-text="(" xlink:href="#font_0_2" transform="matrix(21.519398,0,0,-21.519398,168.90854,38.435804)"/>
<use data-text="s" xlink:href="#font_0_3" transform="matrix(21.519398,0,0,-21.519398,178.45369,38.435804)"/>
<use data-text=")" xlink:href="#font_0_4" transform="matrix(21.519398,0,0,-21.519398,189.44063,38.435804)"/>
<path transform="matrix(1,0,0,-1,176.86605,33.054513)" stroke-width=".75" stroke-linecap="round" stroke-linejoin="round" fill="none" stroke="#000000" d="M-44.43509-24.687937C-44.9682-25.282357-45.50308-25.147379-45.40565-25.590117-15.752144-24.078259 15.80012-25.726275 45.514276-24.598563 60.37415-25.576315 58.988996-24.252297 60.684377-10.667743 60.338548-3.818111 59.531854 2.922686 60.078844 8.973019 58.987966 25.805552 58.92771 24.97097 45.232995 24.694682 14.997102 25.42381-13.99016 25.240626-44.961664 24.970545-59.337247 24.303475-59.162866 25.51669-59.539194 10.286544-59.64381 4.267565-59.07143-2.746096-60.31255-10.526908-60.301195-24.21965-60.30508-24.853627-44.43509-24.687937Z"/>
<path transform="matrix(1,0,0,-1,176.86605,33.054513)" stroke-width=".75" stroke-linecap="round" stroke-linejoin="round" fill="none" stroke="#000000" d="M-123.43942-.069592C-102.849498 .061449-82.7778 .241759-62.470937 .082967"/>
<path transform="matrix(1,0,0,-1,176.86605,33.054513)" stroke-width=".75" stroke-linecap="round" stroke-linejoin="round" fill="none" stroke="#000000" d="M-75.08746-7.760159C-71.82264-4.181727-68.1469-.711058-62.898004-.04547-67.903339 1.483053-72.05512 4.182066-75.26275 8.092948"/>
<path transform="matrix(1,0,0,-1,176.86605,33.054513)" stroke-width=".75" stroke-linecap="round" stroke-linejoin="round" fill="none" stroke="#000000" d="M59.777006 .404824C80.67183 .228225 102.13451-.388243 123.62956-.396011"/>
<path transform="matrix(1,0,0,-1,176.86605,33.054513)" stroke-width=".75" stroke-linecap="round" stroke-linejoin="round" fill="none" stroke="#000000" d="M111.33744-8.441711C114.39293-4.331868 118.43467-.893873 123.437099 .084954 118.640598 1.359516 113.88225 4.374631 111.25182 8.371938"/>
<path transform="matrix(1,0,0,-1,176.86605,33.054513)" stroke-width=".75" stroke-linecap="round" stroke-linejoin="round" fill="none" stroke="#000000" d="M-45.73498-24.029944C-43.874334-24.397734-44.28209-24.736382-45.537488-24.89023-15.514124-25.173769 14.726343-24.00291 44.18822-25.307997 60.055719-25.830973 60.014055-25.705029 59.019147-10.451192 59.927606-3.713245 59.27376 3.28255 60.35223 10.480042 60.16508 24.22631 59.569158 24.125166 44.584939 25.259089 15.370831 24.13168-14.154136 25.900275-44.43538 25.23406-59.323999 24.797926-59.17469 24.471602-60.20778 10.471784-60.098875 3.630506-60.345846-2.430087-59.666185-10.501003-58.99582-25.64242-60.73836-25.860009-45.73498-24.029944Z"/>
<path transform="matrix(1,0,0,-1,176.86605,33.054513)" stroke-width=".75" stroke-linecap="round" stroke-linejoin="round" fill="none" stroke="#000000" d="M-123.828739-.436238C-103.49032-.03902-83.32537 .124943-62.385137-.127894"/>
<path transform="matrix(1,0,0,-1,176.86605,33.054513)" stroke-width=".75" stroke-linecap="round" stroke-linejoin="round" fill="none" stroke="#000000" d="M-75.46178-7.736346C-72.652957-3.654794-67.45335-1.371255-63.177579 .202443-67.48127 1.081803-72.59201 3.718245-75.734119 8.047231"/>
<path transform="matrix(1,0,0,-1,176.86605,33.054513)" stroke-width=".75" stroke-linecap="round" stroke-linejoin="round" fill="none" stroke="#000000" d="M59.405214-.356537C80.95402 .20651 102.14316-.317399 123.19278-.384036"/>
<path transform="matrix(1,0,0,-1,176.86605,33.054513)" stroke-width=".75" stroke-linecap="round" stroke-linejoin="round" fill="none" stroke="#000000" d="M110.59166-7.68606C114.24561-4.4136 118.376117-.858297 123.42392-.144053 118.93938 1.152497 114.112689 3.862568 110.58188 8.313383"/>
<path transform="matrix(1,0,0,-1,176.86605,33.054513)" stroke-width=".75" stroke-linecap="round" stroke-linejoin="round" fill="none" stroke="#000000" d="M-45.43078-24.629408C-44.646917-25.20658-45.699235-24.755339-45.42327-24.344695-14.054053-25.578209 15.772771-24.441002 45.395795-23.993338 60.03258-24.864333 60.688409-25.385931 60.2426-10.141536 59.422658-2.909725 60.36159 4.199277 59.302309 9.275107 60.707754 24.13081 60.62371 25.391594 44.079904 24.25064 14.596095 24.952927-15.0359 24.248824-44.707036 24.450589-59.185506 24.20897-60.007635 25.375493-58.80837 10.790846-59.36679 2.894742-59.861867-4.226229-59.043607-9.051301-58.81277-24.063164-59.84786-25.394623-45.43078-24.629408Z"/>
<path transform="matrix(1,0,0,-1,176.86605,33.054513)" stroke-width=".75" stroke-linecap="round" stroke-linejoin="round" fill="none" stroke="#000000" d="M-123.383899 .144679C-103.4431-.262683-82.776958-.348211-62.71276 .246567"/>
<path transform="matrix(1,0,0,-1,176.86605,33.054513)" stroke-width=".75" stroke-linecap="round" stroke-linejoin="round" fill="none" stroke="#000000" d="M-75.31282-8.399768C-72.58015-4.144468-67.825908-1.156251-62.784509 .228764-67.95008 1.313212-72.10744 3.672802-75.75443 8.124176"/>
<path transform="matrix(1,0,0,-1,176.86605,33.054513)" stroke-width=".75" stroke-linecap="round" stroke-linejoin="round" fill="none" stroke="#000000" d="M60.145666-.094727C81.08676 .090802 102.28929-.077298 123.89661-.378943"/>
<path transform="matrix(1,0,0,-1,176.86605,33.054513)" stroke-width=".75" stroke-linecap="round" stroke-linejoin="round" fill="none" stroke="#000000" d="M110.705219-8.498234C114.38644-4.260611 118.392398-1.579889 123.17187 .260608 118.78561 1.549126 114.03105 4.280987 110.74619 8.398553"/>
<path transform="matrix(1,0,0,-1,176.86605,33.054513)" stroke-width=".75" stroke-linecap="round" stroke-linejoin="round" fill="none" stroke="#000000" d="M-44.383234-25.56299C-45.730619-25.680689-44.859495-24.228602-45.59849-25.69101-14.919119-25.622925 14.569728-25.902005 44.24125-25.061507 60.519468-24.034749 58.824338-25.41377 60.6833-10.908664 60.704423-3.414875 59.614686 4.20235 60.185598 9.801451 59.5834 25.062932 60.10615 24.437439 44.91421 24.003668 14.820367 24.765177-14.960683 25.222006-44.81199 25.865548-59.67851 25.744727-59.08295 24.316123-60.47821 10.82796-59.104909 3.380519-59.71638-4.149147-58.88047-9.755338-59.967374-24.73263-58.95853-25.037316-44.383234-25.56299Z"/>
<path transform="matrix(1,0,0,-1,176.86605,33.054513)" stroke-width=".75" stroke-linecap="round" stroke-linejoin="round" fill="none" stroke="#000000" d="M-123.79118 .264131C-103.6846-.406748-82.590579-.265719-62.404424 .053637"/>
<path transform="matrix(1,0,0,-1,176.86605,33.054513)" stroke-width=".75" stroke-linecap="round" stroke-linejoin="round" fill="none" stroke="#000000" d="M-75.81128-7.98081C-72.52342-3.628794-67.40551-1.150973-62.78476-.108323-68.08516 1.360408-72.32106 3.808787-75.72772 8.443576"/>
<path transform="matrix(1,0,0,-1,176.86605,33.054513)" stroke-width=".75" stroke-linecap="round" stroke-linejoin="round" fill="none" stroke="#000000" d="M60.03756-.359932C81.42926-.27323 102.710147 .063152 123.12817 .173758"/>
<path transform="matrix(1,0,0,-1,176.86605,33.054513)" stroke-width=".75" stroke-linecap="round" stroke-linejoin="round" fill="none" stroke="#000000" d="M110.79785-7.894041C113.99734-3.905151 118.55433-.900893 123.8457 .130235 118.2956 1.221533 113.646068 3.651633 110.69503 8.374876"/>
<path transform="matrix(1,0,0,-1,176.86605,33.054513)" stroke-width=".75" stroke-linecap="round" stroke-linejoin="round" fill="none" stroke="#000000" d="M-45.085683-24.891499C-44.51791-24.115977-45.163164-24.98932-44.134267-25.320693-14.653505-24.299235 15.059984-25.078789 45.64468-24.532189 59.695734-25.559094 59.115747-25.323475 59.154329-10.285516 59.089818-3.426993 58.972169 2.900584 59.24719 9.973805 59.195119 24.387368 60.605596 25.861464 45.636789 25.524905 15.652871 24.674733-15.231335 25.6126-44.33577 25.859282-60.604799 24.603922-59.394556 24.370604-60.20937 9.280273-58.80552 3.579175-60.337453-3.402046-60.33656-10.232038-60.255235-24.18905-60.036485-25.469832-45.085683-24.891499Z"/>
<path transform="matrix(1,0,0,-1,176.86605,33.054513)" stroke-width=".75" stroke-linecap="round" stroke-linejoin="round" fill="none" stroke="#000000" d="M-123.659427 .397773C-103.38486 .241065-82.88983 .144842-63.16391-.297857"/>
<path transform="matrix(1,0,0,-1,176.86605,33.054513)" stroke-width=".75" stroke-linecap="round" stroke-linejoin="round" fill="none" stroke="#000000" d="M-75.38372-8.438393C-72.08042-4.210635-67.914119-1.05962-62.408197-.217571-67.7553 1.04065-72.25051 4.429023-75.33888 7.758384"/>
<path transform="matrix(1,0,0,-1,176.86605,33.054513)" stroke-width=".75" stroke-linecap="round" stroke-linejoin="round" fill="none" stroke="#000000" d="M59.740316-.104938C81.40678-.022985 102.12944 .295479 123.9027-.415279"/>
<path transform="matrix(1,0,0,-1,176.86605,33.054513)" stroke-width=".75" stroke-linecap="round" stroke-linejoin="round" fill="none" stroke="#000000" d="M110.94746-8.409181C114.34687-4.091101 118.40334-1.035778 123.1952-.420283 118.81312 .835966 114.077808 3.902195 110.86188 8.176689"/>
<use data-text="R" xlink:href="#font_0_5" transform="matrix(21.5195,0,0,-21.519398,6.8142855,38.435804)"/>
<use data-text="(" xlink:href="#font_0_2" transform="matrix(21.5195,0,0,-21.519398,19.919663,38.435804)"/>
<use data-text="s" xlink:href="#font_0_3" transform="matrix(21.5195,0,0,-21.519398,29.464852,38.435804)"/>
<use data-text=")" xlink:href="#font_0_4" transform="matrix(21.5195,0,0,-21.519398,40.451848,38.435804)"/>
<use data-text="Y" xlink:href="#font_0_6" transform="matrix(21.519246,0,0,-21.519398,304.91993,38.435804)"/>
<use data-text="(" xlink:href="#font_0_2" transform="matrix(21.519246,0,0,-21.519398,318.0686,38.435804)"/>
<use data-text="s" xlink:href="#font_0_3" transform="matrix(21.519246,0,0,-21.519398,327.61369,38.435804)"/>
<use data-text=")" xlink:href="#font_0_4" transform="matrix(21.519246,0,0,-21.519398,338.6006,38.435804)"/>
</svg>
