<svg xmlns="http://www.w3.org/2000/svg" xmlns:xlink="http://www.w3.org/1999/xlink" xmlns:inkscape="http://www.inkscape.org/namespaces/inkscape" version="1.1" width="521.7812" height="176.32357" viewBox="0 0 521.7812 176.32357">
<defs>
<path id="font_7_7" d="M.04598999 .23632813H.35598756V-.07368469L.3959961-.06668091V.23632813H.70399478L.70899966 .2763214H.3959961V.58631899L.35598756 .58032229V.2763214H.052993776L.04598999 .23632813Z"/>
<path id="font_7_13" d="M.09199524 .6121063H.1749878C.19999695 .6121063 .21998596 .5911102 .22099304 .56611636 .22200012 .5411072 .22200012 .46810914 .22200012 .41911317 .22200012 .27911378 .21899414 .13911438 .21398926 .00010681152L.22599793-.0048828127 .30999757 .022109986C.30699159 .09811401 .30699159 .29611207 .30699159 .43211366 .30699159 .52111819 .30899049 .6111145 .31399537 .70010378L.30799867 .7121124 .09199524 .6391144V.6121063Z"/>
<path id="font_7_3" d="M.051986696 .06642151C.06199646 .047409059 .07598877 .030395508 .09199524 .01638794 .12098694-.009613037 .16099549-.016601563 .19898987-.016601563 .2559967-.016601563 .31199647 .0023956299 .35099793 .044403078 .375 .06941223 .3869934 .10343933 .3869934 .13845825 .3869934 .1634674 .37298585 .18649292 .35499574 .20449829 .34098817 .21850586 .3039856 .24052429 .27198792 .25453187 .24299622 .26654054 .19999695 .2885437 .18798828 .30055238 .17298889 .31655885 .1619873 .3285675 .1619873 .35058595 .1619873 .3725891 .16899109 .39360047 .18499756 .4086151 .19999695 .42362977 .22200012 .43164063 .24398804 .43164063 .2639923 .43164063 .2849884 .42462159 .29599 .4066162 .30599977 .39060975 .30799867 .3715973 .30899049 .35359193L.32099916 .34657289 .37599183 .38360597C.375 .40560914 .3639984 .42662049 .34799195 .44163514 .32499696 .46263124 .29299928 .46662904 .2630005 .46662904 .21398926 .46662904 .16699219 .45063783 .1309967 .4176178 .10398865 .39360047 .08999634 .35858155 .08999634 .32356263 .08999634 .29154969 .10798645 .26353456 .1309967 .2425232 .1539917 .22250366 .18399048 .2084961 .21499634 .1954956 .24099732 .18447876 .2689972 .17248535 .28799439 .1534729 .30299378 .13845825 .31399537 .11845398 .31399537 .09744263 .31399537 .079422 .30499269 .062408449 .29299928 .04940796 .27799989 .03340149 .25099183 .021392823 .22898865 .021392823 .19898987 .021392823 .17199707 .03439331 .1499939 .055404664 .1269989 .076416019 .116989139 .10644531 .114990238 .13645935L.100997928 .13745117 .051986696 .06642151Z"/>
<path id="font_7_12" d="M.011993408 .001953125H.44898988L.47200013 .079940799 .46699525 .08795166H.1579895C.15299988 .08795166 .147995 .08894348 .1459961 .092941287 .14498902 .094940189 .1459961 .09794617 .14698792 .09895325 .19699097 .1569519 .24499512 .21495056 .2899933 .27496339 .32199098 .31697084 .35299684 .358963 .37799073 .40496827 .4039917 .4509735 .42599488 .49998475 .42599488 .5529938 .42599488 .59399417 .4139862 .6349945 .38398744 .66400149 .35499574 .69299319 .31599427 .7080078 .2749939 .7080078 .23699951 .7080078 .20098877 .6970062 .16799927 .67900088 .12799073 .65800479 .09399414 .6279907 .06399536 .59498599L.083999637 .57598879C.10798645 .59599307 .12998963 .61099246 .1579895 .6259918 .1769867 .6360016 .19898987 .6399994 .22099304 .6399994 .25 .6399994 .27999879 .6289978 .2999878 .6069946 .32798768 .5779877 .33399964 .5369873 .33399964 .50798037 .33399964 .4429779 .31098939 .38197328 .27598573 .3259735 .24798584 .27996827 .21299744 .23796082 .17799378 .19696045 .125 .13494873 .068984989 .07594299 .011993408 .017944336V.001953125Z"/>
<path id="font_7_9" d="M.04598999 .23046875H.70399478L.70999148 .27046205H.052993776L.04598999 .23046875Z"/>
<path id="font_7_5" d="M.053985597 .65625C.054992677 .65625 .08999634 .6462555 .10798645 .6412506 .12098694 .6372528 .1309967 .6252594 .1309967 .61128237 .13198853 .5543213 .13398743 .45439149 .13398743 .43940736 .13398743 .29444886 .1329956 .14831543 .125 .003189087L.13598633-.0058135988 .21899414 .023208619C.21398926 .11929321 .21398926 .21638489 .21398926 .31245423 .21998596 .31245423 .22898865 .30845643 .23399353 .30345155 .2630005 .27442933 .3899994 .11128235 .48298646-.0078125L.58200076 .018203736V.02720642L.31900025 .3234558 .32099916 .33146668C.4039917 .3404541 .4850006 .3734131 .5169983 .44322206 .5319977 .47714234 .5359955 .49110414 .5359955 .53897097 .5359955 .57388308 .5219879 .6077881 .49699403 .63272097 .47999574 .6506958 .45700074 .6596985 .43299867 .6667023 .40098573 .67570498 .36698915 .67871096 .33299256 .67871096L.06098938 .679245 .054992677 .6732483 .053985597 .65625M.21299744 .37045289C.21299744 .375412 .21699524 .549942 .21899414 .61376956 .21998596 .63272097 .22299195 .6397095 .23098755 .6397095H.2709961C.2979889 .6397095 .32598878 .6377106 .35299684 .63072207 .37199403 .6257324 .3909912 .61776736 .40499879 .6037903 .42599488 .5828552 .43798829 .55293276 .43798829 .52301028 .43798829 .47813417 .41799928 .43624879 .3869934 .40533448 .35398866 .37141419 .30599977 .36044313 .2599945 .35646058 .24798584 .35546876 .23498535 .35546876 .22200012 .35546876 .21499634 .35546876 .21299744 .36444093 .21299744 .37042237V.37045289Z"/>
<path id="font_7_2" d="M.11299133 .24990845C.11299133 .007904053 .1519928-.09008789 .18299866-.13310242 .21099854-.17008972 .25299073-.20809937 .30099488-.21209717V-.1880951C.2809906-.18409729 .25099183-.16809082 .23399353-.1481018 .21998596-.13209534 .16499329-.05809021 .16499329 .24990845 .16499329 .4618988 .19799805 .5659027 .21998596 .6128998 .23599243 .6469116 .2689972 .6769104 .30099488 .684906V.71191409C.2599945 .7049103 .21598816 .6729126 .19099427 .63790896 .1599884 .5919037 .11299133 .4748993 .11299133 .24990845Z"/>
<path id="font_7_4" d="M.085998538-.1880951V-.21209717C.13398743-.20610047 .1789856-.17208863 .20698548-.13510132 .23799134-.09210205 .27598573 .007904053 .27598573 .24990845 .27598573 .50090029 .22399903 .5919037 .19299317 .63790896 .16799927 .6729126 .1269989 .7049103 .085998538 .71191409V.684906C.117996219 .6759033 .14898682 .6469116 .16499329 .6128998 .18699646 .5659027 .22399903 .48190309 .22399903 .24990845 .22399903-.099090579 .17199707-.13209534 .1579895-.1481018 .14099121-.16809082 .10598755-.18409729 .085998538-.1880951Z"/>
<path id="font_7_6" d="M.022994996 .6513672C.036987306 .649353 .049987794 .6463623 .06298828 .6433563 .07199097 .6413574 .07998657 .6353607 .085998538 .62835696 .09599304 .61834719 .102996829 .60635378 .10899353 .5943451L.2579956 .29930116C.2579956 .19927979 .2579956 .0982666 .25498963-.0017547608L.2659912-.0107421879 .35598756 .018249512 .34700013 .30630494C.42999269 .4343109 .5039978 .5303345 .61499026 .675354L.61099246 .6933594 .526001 .6763611C.48999024 .619339 .4059906 .47431947 .397995 .46032716 .3849945 .4373169 .34199525 .36730958 .33898927 .3623047 .33599855 .3572998 .33198548 .353302 .32798768 .353302 .32199098 .353302 .31698609 .3592987 .31599427 .36131288L.1749878 .6863556H.02999878L.022994996 .67936709V.6513672Z"/>
</defs>
<use data-text="+" xlink:href="#font_7_7" transform="matrix(37.185197,0,0,-37.18505,103.05142,53.819734)"/>
<use data-text="1" xlink:href="#font_7_13" transform="matrix(21.519234,0,0,-21.519562,217.51706,38.443346)"/>
<path transform="matrix(1.4999954,0,0,-1.5000182,217.51706,44.2984)" stroke-width=".574019" stroke-linecap="butt" stroke-linejoin="round" fill="none" stroke="#000000" d="M0 0H7.160891"/>
<use data-text="s" xlink:href="#font_7_3" transform="matrix(21.519234,0,0,-21.519562,217.99063,60.91646)"/>
<use data-text="2" xlink:href="#font_7_12" transform="matrix(21.519089,0,0,-21.519562,339.8416,38.443346)"/>
<path transform="matrix(1.4999852,0,0,-1.5000182,322.03669,44.2984)" stroke-width=".574019" stroke-linecap="butt" stroke-linejoin="round" fill="none" stroke="#000000" d="M0 0H30.901089"/>
<use data-text="s" xlink:href="#font_7_3" transform="matrix(21.519089,0,0,-21.519562,322.03669,60.91646)"/>
<use data-text="+" xlink:href="#font_7_7" transform="matrix(21.519089,0,0,-21.519562,336.60984,60.91646)"/>
<use data-text="2" xlink:href="#font_7_12" transform="matrix(21.519089,0,0,-21.519562,357.63877,60.91646)"/>
<use data-text="2" xlink:href="#font_7_12" transform="matrix(21.519234,0,0,-21.519339,278.67933,153.23886)"/>
<path transform="matrix(1,0,0,-1,117.09088,44.298936)" stroke-width=".75" stroke-linecap="round" stroke-linejoin="round" fill="none" stroke="#000000" d="M204.45687-35.79506C205.19324-37.003549 204.49903-36.793745 205.86016-35.742658 219.90746-36.220327 235.2589-36.09114 250.61656-35.854364 266.84864-36.114908 267.24165-36.951475 265.7254-21.059054 265.89485-7.453077 266.3178 6.763864 265.39027 21.680533 266.02949 37.054838 265.85719 35.332738 252.15663 35.54843 235.82181 37.073995 219.63805 36.91252 205.51992 35.889509 189.41312 35.933046 190.50315 36.69629 190.88411 20.803679 190.8614 7.013222 189.03697-6.627218 190.26903-21.35299 190.43213-36.9855 190.8341-36.04948 204.45687-35.79506Z"/>
<path transform="matrix(1,0,0,-1,117.09088,44.298936)" stroke-width=".75" stroke-linecap="round" stroke-linejoin="round" fill="none" stroke="#000000" d="M100.5863-35.931653C100.0079-35.223798 101.12348-37.15086 101.27988-35.262838 104.5644-35.679826 107.973209-35.370988 111.17727-35.884214 126.10794-36.658315 127.02649-35.6931 125.396907-21.418828 125.984928-6.140881 126.81278 6.791895 125.82524 20.841256 125.264728 36.203149 126.33396 36.29671 111.36519 36.78511 106.8571 36.290185 104.50346 36.363885 100.97687 36.249204 86.39281 36.976057 85.35662 36.001157 84.62286 20.983965 86.26573 7.83363 84.73464-6.675697 86.06665-21.358872 85.03826-37.02221 85.31115-35.843198 100.5863-35.931653Z"/>
<path transform="matrix(1,0,0,-1,117.09088,44.298936)" stroke-width=".75" stroke-linecap="round" stroke-linejoin="round" fill="none" stroke="#000000" d="M161.96057-124.47824C160.66083-123.86565 161.38394-123.47622 161.63965-124.71624 165.79589-123.46997 168.05507-123.60597 171.87419-124.65568 186.76952-123.56421 188.19696-123.51376 187.3336-108.34771 186.95178-103.32849 186.44664-98.652088 187.99619-94.45324 187.14395-79.00941 188.22696-77.90256 173.13745-78.80196 169.62519-79.21734 165.50409-77.86925 161.95836-79.028789 147.1133-78.66501 147.0265-79.52853 146.47711-93.99493 146.5984-98.497928 145.83354-103.32929 146.13137-109.43282 146.85668-123.74231 145.97063-124.60591 161.96057-124.47824Z"/>
<path transform="matrix(1,0,0,-1,117.09088,44.298936)" stroke-width=".75" stroke-linecap="round" stroke-linejoin="round" fill="none" stroke="#000000" d="M21.494685-.224012C22.251908 11.944545 11.280951 21.520602 .930751 20.847739-12.181632 21.44232-20.851517 12.302538-21.825367 .770668-22.047553-12.563562-12.594804-22.435683 .244794-22.105092 11.462719-20.91163 21.70546-12.855462 21.494685-.224012Z"/>
<path transform="matrix(1,0,0,-1,117.09088,44.298936)" stroke-width=".75" stroke-linecap="round" stroke-linejoin="round" fill="none" stroke="#000000" d="M-63.58257-.164351C-49.51482 .011258-35.29221 .340152-21.67375-.044666"/>
<path transform="matrix(1,0,0,-1,117.09088,44.298936)" stroke-width=".75" stroke-linecap="round" stroke-linejoin="round" fill="none" stroke="#000000" d="M-34.643754-8.041023C-31.504305-4.426156-26.653737-1.317284-21.776354-.318499-26.32647 1.101778-30.8469 3.837916-34.650545 8.423109"/>
<path transform="matrix(1,0,0,-1,117.09088,44.298936)" stroke-width=".75" stroke-linecap="round" stroke-linejoin="round" fill="none" stroke="#000000" d="M21.357085-.097013C42.936124 .434181 63.69979-.384841 84.94421 .274681"/>
<path transform="matrix(1,0,0,-1,117.09088,44.298936)" stroke-width=".75" stroke-linecap="round" stroke-linejoin="round" fill="none" stroke="#000000" d="M72.27294-7.71321C75.8876-3.794131 80.2625-1.493633 84.8756 .062567 79.80955 1.251196 75.97828 4.110894 72.528919 8.080642"/>
<path transform="matrix(1,0,0,-1,117.09088,44.298936)" stroke-width=".75" stroke-linecap="round" stroke-linejoin="round" fill="none" stroke="#000000" d="M126.51238-.323582C147.35044-.094048 168.78652-.1935 189.42894 .391519"/>
<path transform="matrix(1,0,0,-1,117.09088,44.298936)" stroke-width=".75" stroke-linecap="round" stroke-linejoin="round" fill="none" stroke="#000000" d="M176.53307-8.286214C180.35308-3.826492 184.82367-.808521 189.33568-.128313 184.24915 1.011196 179.77829 3.762717 176.72626 8.506916"/>
<path transform="matrix(1,0,0,-1,117.09088,44.298936)" stroke-width=".75" stroke-linecap="round" stroke-linejoin="round" fill="none" stroke="#000000" d="M265.93284-.291702C294.76368-.156236 323.06288-.110916 350.99507-.018176"/>
<path transform="matrix(1,0,0,-1,117.09088,44.298936)" stroke-width=".75" stroke-linecap="round" stroke-linejoin="round" fill="none" stroke="#000000" d="M339.01164-8.46541C342.13328-4.387084 345.9851-1.536661 351.53514-.243389 346.1668 1.562189 341.62394 4.083335 338.54676 7.791144"/>
<path transform="matrix(1,0,0,-1,117.09088,44.298936)" stroke-width=".75" stroke-linecap="round" stroke-linejoin="round" fill="none" stroke="#000000" d="M309.09968-.446673C308.7551-34.085256 308.8969-67.21727 309.00306-101.1734 268.10609-101.559947 227.64907-100.99307 187.75241-101.598369"/>
<path transform="matrix(1,0,0,-1,117.09088,44.298936)" stroke-width=".75" stroke-linecap="round" stroke-linejoin="round" fill="none" stroke="#000000" d="M199.71924-93.20135C196.94922-97.473468 191.92833-99.81303 187.53783-101.40661 192.51674-102.90628 196.87242-105.36702 199.84764-109.79746"/>
<path transform="matrix(1,0,0,-1,117.09088,44.298936)" stroke-width=".75" stroke-linecap="round" stroke-linejoin="round" fill="none" stroke="#000000" d="M146.55577-100.95682C97.70825-100.99232 48.71158-101.27465-.420078-101.72383-.075704-75.04795 .390922-48.305387 .351352-21.764073"/>
<path transform="matrix(1,0,0,-1,117.09088,44.298936)" stroke-width=".75" stroke-linecap="round" stroke-linejoin="round" fill="none" stroke="#000000" d="M7.683807-34.71464C3.976508-31.9141 .72756-27.044697-.420053-22.374325-1.470322-26.838496-4.359194-31.343777-8.304841-34.463754"/>
<path transform="matrix(1,0,0,-1,117.09088,44.298936)" stroke-width=".75" stroke-linecap="round" stroke-linejoin="round" fill="none" stroke="#000000" d="M205.58269-35.667699C205.46071-36.507818 204.8218-36.376367 205.50711-36.472436 221.20238-35.90617 236.36249-36.375169 250.96862-36.94705 266.15037-37.059255 267.19343-36.130468 266.7424-21.011805 265.5946-7.64333 265.3371 8.014744 266.39967 21.78608 266.29478 35.592905 266.7426 36.356985 251.67592 35.22187 235.71762 36.725236 219.55171 36.738485 204.10233 37.1101 189.96117 35.87822 189.5996 35.620084 190.37349 20.34812 190.1486 6.828137 190.19419-6.366304 189.96993-21.5455 189.7123-35.31896 189.62949-36.640039 205.58269-35.667699Z"/>
<path transform="matrix(1,0,0,-1,117.09088,44.298936)" stroke-width=".75" stroke-linecap="round" stroke-linejoin="round" fill="none" stroke="#000000" d="M99.9412-36.933534C99.977878-37.095518 100.25436-36.586439 100.21894-35.580156 103.76934-36.366498 106.986408-36.079927 111.93884-36.876249 126.18175-35.23699 126.92185-35.354 126.77165-20.290152 125.78351-6.631464 126.47884 6.315236 126.02528 21.436772 126.89796 36.998819 125.538448 35.83693 110.235408 35.303926 107.58388 35.851449 104.599468 35.356195 100.7147 36.668569 85.8544 36.586786 85.00046 36.568468 85.470188 20.547438 85.61919 7.529897 86.1412-6.637486 85.19212-21.511578 85.79743-36.13307 86.313419-36.76234 99.9412-36.933534Z"/>
<path transform="matrix(1,0,0,-1,117.09088,44.298936)" stroke-width=".75" stroke-linecap="round" stroke-linejoin="round" fill="none" stroke="#000000" d="M161.97988-123.01778C160.77674-124.57348 161.90024-123.104869 162.28929-124.18483 165.99733-124.49712 169.04805-123.29698 171.60301-123.61643 188.01862-123.93497 187.96556-124.4621 186.5677-109.05025 188.27536-104.41827 187.1737-99.52106 187.58606-93.53549 187.73302-79.27967 187.32813-78.78072 172.20998-79.629169 167.95095-78.58107 165.13677-78.84095 161.38384-78.04986 146.0291-78.01054 147.48741-78.709 147.52809-93.80558 147.39049-98.0131 146.2751-104.11927 145.81372-109.72084 147.39968-123.7159 147.51549-123.83551 161.97988-123.01778Z"/>
<path transform="matrix(1,0,0,-1,117.09088,44.298936)" stroke-width=".75" stroke-linecap="round" stroke-linejoin="round" fill="none" stroke="#000000" d="M22.475441 .463824C21.11718 11.537288 12.046975 20.7321 .308134 21.616206-11.361433 21.35521-22.20725 12.810516-21.232983-.124242-21.490305-12.226676-12.481214-21.98909 .908983-20.710608 12.053194-20.716954 21.367966-12.175625 22.475441 .463824Z"/>
<path transform="matrix(1,0,0,-1,117.09088,44.298936)" stroke-width=".75" stroke-linecap="round" stroke-linejoin="round" fill="none" stroke="#000000" d="M-63.93949-.001515C-50.179147-.111913-35.279058-.115824-21.954907-.064566"/>
<path transform="matrix(1,0,0,-1,117.09088,44.298936)" stroke-width=".75" stroke-linecap="round" stroke-linejoin="round" fill="none" stroke="#000000" d="M-34.71922-8.115444C-31.524615-4.098035-26.337258-.85641-21.642512 .188673-26.336205 .798971-31.101778 4.3777-34.494184 7.93709"/>
<path transform="matrix(1,0,0,-1,117.09088,44.298936)" stroke-width=".75" stroke-linecap="round" stroke-linejoin="round" fill="none" stroke="#000000" d="M21.718813 .293906C42.548784 .415039 64.08959 .02735 84.795848-.225175"/>
<path transform="matrix(1,0,0,-1,117.09088,44.298936)" stroke-width=".75" stroke-linecap="round" stroke-linejoin="round" fill="none" stroke="#000000" d="M72.000888-7.731202C75.3058-3.721922 80.41953-.972885 85.27419-.335233 79.732868 1.441407 75.880779 4.030452 72.83276 7.75558"/>
<path transform="matrix(1,0,0,-1,117.09088,44.298936)" stroke-width=".75" stroke-linecap="round" stroke-linejoin="round" fill="none" stroke="#000000" d="M125.9777 .292562C147.5602-.294537 168.44905 .244577 189.57868 .3708"/>
<path transform="matrix(1,0,0,-1,117.09088,44.298936)" stroke-width=".75" stroke-linecap="round" stroke-linejoin="round" fill="none" stroke="#000000" d="M177.08563-8.339164C179.64289-3.696958 184.79889-.8752 189.15706 .043117 184.43196 1.436836 179.81545 4.079244 176.5406 7.718329"/>
<path transform="matrix(1,0,0,-1,117.09088,44.298936)" stroke-width=".75" stroke-linecap="round" stroke-linejoin="round" fill="none" stroke="#000000" d="M265.8613 .005668C294.8646 .067197 322.8413 .023757 351.78227-.232803"/>
<path transform="matrix(1,0,0,-1,117.09088,44.298936)" stroke-width=".75" stroke-linecap="round" stroke-linejoin="round" fill="none" stroke="#000000" d="M338.23863-8.105595C341.7392-3.795402 346.33787-.773981 351.19999-.317275 346.52583 1.328587 341.83686 4.058646 338.34266 7.622323"/>
<path transform="matrix(1,0,0,-1,117.09088,44.298936)" stroke-width=".75" stroke-linecap="round" stroke-linejoin="round" fill="none" stroke="#000000" d="M308.79988-.173028C309.20454-33.65634 309.2438-67.16889 308.56538-101.684429 268.14909-101.54584 228.19112-101.41383 187.68071-101.47501"/>
<path transform="matrix(1,0,0,-1,117.09088,44.298936)" stroke-width=".75" stroke-linecap="round" stroke-linejoin="round" fill="none" stroke="#000000" d="M200.14162-93.00782C196.87744-97.272388 192.09085-100.232288 187.60553-101.41794 192.28472-102.07179 196.90477-105.26575 199.77176-109.196887"/>
<path transform="matrix(1,0,0,-1,117.09088,44.298936)" stroke-width=".75" stroke-linecap="round" stroke-linejoin="round" fill="none" stroke="#000000" d="M146.41255-101.653499C97.30036-101.67721 49.007524-100.96748 .393132-101.319988 .23381-75.07869 .408933-48.0103 .059564-22.100815"/>
<path transform="matrix(1,0,0,-1,117.09088,44.298936)" stroke-width=".75" stroke-linecap="round" stroke-linejoin="round" fill="none" stroke="#000000" d="M7.704655-34.49031C3.872673-31.141459 1.036764-26.697533 .048483-21.601206-1.539405-27.405207-3.828457-31.52907-7.88349-34.700414"/>
<path transform="matrix(1,0,0,-1,117.09088,44.298936)" stroke-width=".75" stroke-linecap="round" stroke-linejoin="round" fill="none" stroke="#000000" d="M204.68065-35.62818C204.69475-36.26349 204.43146-35.483087 204.54944-37.044019 221.27011-35.757719 236.41017-36.95619 251.96616-35.997079 267.01725-36.609098 266.8867-36.67251 266.5575-21.589619 265.67973-7.027907 266.3954 6.285233 266.31037 20.984095 266.88658 36.402444 266.57789 36.3259 251.88121 35.982374 236.44853 36.559968 220.84172 36.361585 204.01837 36.57661 190.00823 36.847276 190.11847 35.538019 189.19945 21.17155 189.34644 7.365538 190.16509-7.726859 189.24925-21.547757 190.03456-35.782579 190.54038-36.552587 204.68065-35.62818Z"/>
<path transform="matrix(1,0,0,-1,117.09088,44.298936)" stroke-width=".75" stroke-linecap="round" stroke-linejoin="round" fill="none" stroke="#000000" d="M100.21451-36.502634C99.679927-35.647069 99.64337-35.813577 100.846958-35.727117 104.5703-35.92766 107.96467-36.123399 111.25154-35.884309 125.38415-37.089963 126.98417-35.952127 126.61548-20.359686 126.29833-6.786707 126.47624 7.091891 126.11223 21.731667 125.54242 36.123445 126.52864 37.053476 111.756229 36.580335 108.338459 35.71042 103.070529 35.425184 100.47507 36.43772 86.38539 36.580598 84.98244 36.67965 86.17032 21.939404 85.35685 6.489495 84.66726-7.280542 85.12401-20.430127 84.88242-36.93726 85.375438-36.17711 100.21451-36.502634Z"/>
<path transform="matrix(1,0,0,-1,117.09088,44.298936)" stroke-width=".75" stroke-linecap="round" stroke-linejoin="round" fill="none" stroke="#000000" d="M162.12808-123.343379C161.01755-123.913509 161.08068-123.730258 161.94773-124.49286 164.40737-123.268169 169.34056-123.92745 172.62026-124.832057 187.18683-123.13925 187.88692-124.712978 187.0371-108.44498 187.2039-104.37222 187.40874-98.98013 188.23679-92.82114 187.40312-77.847667 187.95633-77.84821 171.93506-79.10347 168.14897-79.307399 164.38665-78.70264 160.9968-79.585437 146.53505-79.34396 145.98659-79.160648 146.66104-93.57755 146.61215-98.31349 146.24539-104.22241 145.98746-109.569728 147.17403-124.047359 147.1594-124.351108 162.12808-123.343379Z"/>
<path transform="matrix(1,0,0,-1,117.09088,44.298936)" stroke-width=".75" stroke-linecap="round" stroke-linejoin="round" fill="none" stroke="#000000" d="M21.188233-.789893C22.283898 11.558814 11.595659 20.87198-.806822 20.92115-12.600572 22.442124-21.475405 11.862214-22.545876-.386338-21.488343-11.732559-11.927819-20.969737-.116694-21.980118 12.245228-21.198239 22.047535-12.769959 21.188233-.789893Z"/>
<path transform="matrix(1,0,0,-1,117.09088,44.298936)" stroke-width=".75" stroke-linecap="round" stroke-linejoin="round" fill="none" stroke="#000000" d="M-63.485395 .319442C-49.53974 .186926-35.866666-.295137-21.272772-.415814"/>
<path transform="matrix(1,0,0,-1,117.09088,44.298936)" stroke-width=".75" stroke-linecap="round" stroke-linejoin="round" fill="none" stroke="#000000" d="M-33.893266-8.287686C-31.066987-4.022176-26.666083-1.123691-21.323588-.273238-26.70894 1.566299-31.07958 4.345865-34.581579 7.69011"/>
<path transform="matrix(1,0,0,-1,117.09088,44.298936)" stroke-width=".75" stroke-linecap="round" stroke-linejoin="round" fill="none" stroke="#000000" d="M21.342234 .141884C42.589487-.445102 63.523828 .036393 84.64284-.157042"/>
<path transform="matrix(1,0,0,-1,117.09088,44.298936)" stroke-width=".75" stroke-linecap="round" stroke-linejoin="round" fill="none" stroke="#000000" d="M72.67476-8.435334C76.01907-3.836472 80.18224-1.486828 85.189868 .33518 80.145 .911454 75.439289 3.763952 72.5165 7.742661"/>
<path transform="matrix(1,0,0,-1,117.09088,44.298936)" stroke-width=".75" stroke-linecap="round" stroke-linejoin="round" fill="none" stroke="#000000" d="M126.17769 .062745C147.08205-.14831 168.74909 .193954 189.46366-.158991"/>
<path transform="matrix(1,0,0,-1,117.09088,44.298936)" stroke-width=".75" stroke-linecap="round" stroke-linejoin="round" fill="none" stroke="#000000" d="M177.25171-7.804777C179.97943-3.692972 184.1801-1.352972 189.92801 .441172 184.92775 1.157853 179.93463 3.571634 176.89778 7.818327"/>
<path transform="matrix(1,0,0,-1,117.09088,44.298936)" stroke-width=".75" stroke-linecap="round" stroke-linejoin="round" fill="none" stroke="#000000" d="M265.97898-.381195C295.0389 .379268 322.7783-.124311 351.02574 .215217"/>
<path transform="matrix(1,0,0,-1,117.09088,44.298936)" stroke-width=".75" stroke-linecap="round" stroke-linejoin="round" fill="none" stroke="#000000" d="M338.9875-7.802014C341.6941-3.62034 346.5202-1.33029 351.60035 .372005 346.62495 1.162718 341.84675 3.80546 338.7231 8.472504"/>
<path transform="matrix(1,0,0,-1,117.09088,44.298936)" stroke-width=".75" stroke-linecap="round" stroke-linejoin="round" fill="none" stroke="#000000" d="M308.4066-.149934C309.2053-33.41038 308.63044-67.14697 308.8299-101.22638 268.28749-101.28754 227.6817-101.59332 187.31064-101.114498"/>
<path transform="matrix(1,0,0,-1,117.09088,44.298936)" stroke-width=".75" stroke-linecap="round" stroke-linejoin="round" fill="none" stroke="#000000" d="M200.39885-93.31957C196.38019-97.31225 192.5012-99.939899 187.37273-101.50771 192.57743-102.46221 196.99619-105.065509 199.7987-109.156009"/>
<path transform="matrix(1,0,0,-1,117.09088,44.298936)" stroke-width=".75" stroke-linecap="round" stroke-linejoin="round" fill="none" stroke="#000000" d="M146.30496-101.597698C97.867908-101.15579 48.508428-101.15257 .277034-101.10489 .286984-74.71663 .361543-48.430986 .389039-22.40819"/>
<path transform="matrix(1,0,0,-1,117.09088,44.298936)" stroke-width=".75" stroke-linecap="round" stroke-linejoin="round" fill="none" stroke="#000000" d="M7.680197-34.65371C3.686864-31.797223 1.539599-27.071574 .246942-22.069466-1.443645-26.9266-4.338313-31.944859-7.749345-34.39174"/>
<path transform="matrix(1,0,0,-1,117.09088,44.298936)" stroke-width=".75" stroke-linecap="round" stroke-linejoin="round" fill="none" stroke="#000000" d="M204.20743-36.98293C205.8897-37.103609 205.90715-36.08597 203.98195-35.6216 219.71404-36.243047 235.7938-36.86094 251.10344-35.30605 267.08573-35.517667 266.91789-36.139646 265.38404-21.127955 266.15635-7.597807 265.65776 7.196819 265.84773 20.9759 266.4646 35.389768 266.431 35.535818 251.93498 36.06535 236.59717 35.442014 221.12917 36.70671 205.7527 36.06045 189.70668 36.089097 189.77516 36.180299 189.34146 21.924342 190.81233 7.674466 190.10579-7.577497 190.17696-20.526478 190.30503-35.373136 189.32967-35.34361 204.20743-36.98293Z"/>
<path transform="matrix(1,0,0,-1,117.09088,44.298936)" stroke-width=".75" stroke-linecap="round" stroke-linejoin="round" fill="none" stroke="#000000" d="M99.6793-35.532529C99.501438-36.13304 101.21686-35.96735 101.16931-35.44972 104.58266-35.239027 107.68893-36.425683 110.70179-35.968145 125.86573-35.207456 125.2584-36.302919 126.95836-21.532532 126.28307-7.788202 125.94533 6.475321 125.489948 20.580138 125.27442 36.877717 126.233 36.429784 110.43123 36.888738 106.925067 37.066717 103.850238 36.662454 100.95278 35.20734 84.68512 36.32516 85.86855 36.33138 86.22091 20.926802 85.52307 6.919592 85.79074-7.016538 85.33792-21.1354 86.09509-36.97455 85.26907-35.95278 99.6793-35.532529Z"/>
<path transform="matrix(1,0,0,-1,117.09088,44.298936)" stroke-width=".75" stroke-linecap="round" stroke-linejoin="round" fill="none" stroke="#000000" d="M162.21764-124.554759C162.42467-124.75355 161.50846-124.580829 161.8016-123.94878 164.64127-124.22628 168.06119-124.30516 171.75609-123.557819 187.01706-123.067508 188.23322-124.0744 188.27307-109.003787 187.0639-104.41939 187.26194-99.67346 186.69118-93.43351 186.70513-77.85123 186.47472-77.986919 171.50041-78.919849 169.1139-79.36392 165.99452-79.2191 160.89601-78.76263 145.91168-79.021999 146.96389-78.26137 146.8732-93.58899 147.27156-99.46239 145.97023-104.43718 146.09664-109.750469 146.62285-123.78747 147.38031-123.864238 162.21764-124.554759Z"/>
<path transform="matrix(1,0,0,-1,117.09088,44.298936)" stroke-width=".75" stroke-linecap="round" stroke-linejoin="round" fill="none" stroke="#000000" d="M21.288306-.77659C21.594214 11.401831 12.69365 22.289278 .561716 22.029211-12.044411 21.553994-21.47556 11.676376-21.170447-.159925-22.601927-12.236863-11.617132-21.307705 .104902-21.48173 11.264921-20.833727 21.329085-11.351779 21.288306-.77659Z"/>
<path transform="matrix(1,0,0,-1,117.09088,44.298936)" stroke-width=".75" stroke-linecap="round" stroke-linejoin="round" fill="none" stroke="#000000" d="M-63.886495-.359012C-49.51004-.18374-35.574728 .398826-21.484257 .286916"/>
<path transform="matrix(1,0,0,-1,117.09088,44.298936)" stroke-width=".75" stroke-linecap="round" stroke-linejoin="round" fill="none" stroke="#000000" d="M-34.354009-7.758938C-31.356532-4.282088-26.660874-.831117-21.257409-.367672-26.492758 1.576412-31.469208 3.663281-34.37791 7.730382"/>
<path transform="matrix(1,0,0,-1,117.09088,44.298936)" stroke-width=".75" stroke-linecap="round" stroke-linejoin="round" fill="none" stroke="#000000" d="M21.279206 .110561C42.452108-.362558 64.17269 .447484 85.134288-.208541"/>
<path transform="matrix(1,0,0,-1,117.09088,44.298936)" stroke-width=".75" stroke-linecap="round" stroke-linejoin="round" fill="none" stroke="#000000" d="M72.7595-7.829136C75.905399-3.719163 80.46658-1.236999 84.73119-.11568 79.89099 1.024578 75.912288 3.688959 72.63684 8.477045"/>
<path transform="matrix(1,0,0,-1,117.09088,44.298936)" stroke-width=".75" stroke-linecap="round" stroke-linejoin="round" fill="none" stroke="#000000" d="M126.56065 .343756C147.20923 .272933 168.25432 .197316 189.6655-.028236"/>
<path transform="matrix(1,0,0,-1,117.09088,44.298936)" stroke-width=".75" stroke-linecap="round" stroke-linejoin="round" fill="none" stroke="#000000" d="M177.01543-8.210726C179.65393-4.216354 184.8825-1.12673 190.01583 .018886 184.35836 1.391303 180.44618 4.354507 176.52313 8.009377"/>
<path transform="matrix(1,0,0,-1,117.09088,44.298936)" stroke-width=".75" stroke-linecap="round" stroke-linejoin="round" fill="none" stroke="#000000" d="M266.6584 .021701C294.92066 .097748 322.58757-.336681 351.18049-.439742"/>
<path transform="matrix(1,0,0,-1,117.09088,44.298936)" stroke-width=".75" stroke-linecap="round" stroke-linejoin="round" fill="none" stroke="#000000" d="M338.9223-7.809831C342.1236-4.392903 346.65153-.935511 350.99198 .263669 346.57347 1.252973 341.85078 3.890593 338.94865 8.097432"/>
<path transform="matrix(1,0,0,-1,117.09088,44.298936)" stroke-width=".75" stroke-linecap="round" stroke-linejoin="round" fill="none" stroke="#000000" d="M308.65739-.075944C308.8773-33.4693 309.20204-67.8852 309.01658-101.10343 268.7207-101.05654 227.48328-101.14992 187.2868-101.595218"/>
<path transform="matrix(1,0,0,-1,117.09088,44.298936)" stroke-width=".75" stroke-linecap="round" stroke-linejoin="round" fill="none" stroke="#000000" d="M199.71924-93.266C197.21602-97.22045 192.51392-100.56851 186.93935-101.30265 192.22382-102.49124 197.19269-104.98826 200.12587-109.12308"/>
<path transform="matrix(1,0,0,-1,117.09088,44.298936)" stroke-width=".75" stroke-linecap="round" stroke-linejoin="round" fill="none" stroke="#000000" d="M146.46408-101.25678C97.86771-101.090099 48.992109-101.3148 .097542-101.41508 .120348-74.90506-.30718-48.693765 .045548-22.01006"/>
<path transform="matrix(1,0,0,-1,117.09088,44.298936)" stroke-width=".75" stroke-linecap="round" stroke-linejoin="round" fill="none" stroke="#000000" d="M7.889293-34.570238C3.575625-31.585309 1.23186-26.836138-.400899-21.712914-1.601025-26.802538-4.312038-31.690646-7.943483-34.83658"/>
<path transform="matrix(1,0,0,-1,117.09088,44.298936)" stroke-width=".75" stroke-linecap="round" stroke-linejoin="round" fill="none" stroke="#000000" d="M204.78635-35.797025C204.62339-36.31929 205.15183-35.40014 205.76818-36.495836 219.92168-35.353639 235.22779-36.439329 251.23676-36.9821 266.98786-36.79678 266.3351-36.539159 266.7284-21.929093 266.29698-6.70494 266.43464 7.789576 266.64756 20.728676 265.52207 35.28952 267.19935 35.81863 251.269 36.73708 236.16913 36.03692 219.75135 35.578119 205.57769 37.014188 189.07808 36.70522 190.68822 35.661226 190.4826 21.339829 190.45455 7.97687 189.85535-6.939155 189.52059-20.314129 189.50687-35.888456 189.74668-37.108488 204.78635-35.797025Z"/>
<path transform="matrix(1,0,0,-1,117.09088,44.298936)" stroke-width=".75" stroke-linecap="round" stroke-linejoin="round" fill="none" stroke="#000000" d="M100.40736-36.491037C100.67195-35.972795 101.10381-35.55738 99.562198-35.98891 104.34398-36.7698 108.5463-36.95769 110.47432-36.324708 127.08654-36.634466 125.22966-36.567205 125.82569-20.712609 126.31663-6.176258 126.04853 7.106574 125.286808 21.10631 125.59338 35.21438 125.61022 35.218839 110.30299 35.783609 108.04589 36.741857 104.383647 35.64648 101.159458 37.003129 84.57885 36.500539 84.70352 37.021387 85.78002 21.354573 85.41083 7.56458 85.36868-7.660681 85.70462-20.485573 85.6471-36.047929 84.47993-37.057809 100.40736-36.491037Z"/>
<path transform="matrix(1,0,0,-1,117.09088,44.298936)" stroke-width=".75" stroke-linecap="round" stroke-linejoin="round" fill="none" stroke="#000000" d="M161.05208-124.836788C160.78745-123.44496 162.0099-123.97264 162.01699-123.52847 165.25247-124.73662 168.78212-124.12513 172.22472-124.51128 187.0179-124.65168 186.52599-123.12188 186.46489-108.82737 187.70528-103.54578 186.92644-98.69104 187.89102-92.87488 186.95612-78.46268 186.83899-79.31893 173.08086-78.262699 169.42867-77.73366 164.65517-78.549198 161.56368-79.581119 146.56452-77.861568 146.13399-79.51573 145.76354-93.381587 146.46121-98.15886 146.91387-103.54878 147.25978-108.4112 147.08365-123.289897 147.12651-123.75299 161.05208-124.836788Z"/>
<path transform="matrix(1,0,0,-1,117.09088,44.298936)" stroke-width=".75" stroke-linecap="round" stroke-linejoin="round" fill="none" stroke="#000000" d="M21.439265 .412005C20.973462 11.11706 11.007265 21.18338-.329533 20.729277-12.790828 20.726662-20.83809 11.283567-21.127505-.972876-21.490397-12.871172-11.221219-21.469622 .957019-21.792256 11.423594-21.677065 22.581967-12.244129 21.439265 .412005Z"/>
<path transform="matrix(1,0,0,-1,117.09088,44.298936)" stroke-width=".75" stroke-linecap="round" stroke-linejoin="round" fill="none" stroke="#000000" d="M-63.375928 .041946C-49.73662-.316765-35.470514 .003589-22.077736-.353288"/>
<path transform="matrix(1,0,0,-1,117.09088,44.298936)" stroke-width=".75" stroke-linecap="round" stroke-linejoin="round" fill="none" stroke="#000000" d="M-34.658147-8.345744C-30.971463-4.361031-26.488795-.840645-21.20169 .208884-26.972748 1.252511-30.820427 4.23303-34.66767 7.990403"/>
<path transform="matrix(1,0,0,-1,117.09088,44.298936)" stroke-width=".75" stroke-linecap="round" stroke-linejoin="round" fill="none" stroke="#000000" d="M21.615489-.296126C42.634534-.356636 63.65885-.418502 85.43191-.439358"/>
<path transform="matrix(1,0,0,-1,117.09088,44.298936)" stroke-width=".75" stroke-linecap="round" stroke-linejoin="round" fill="none" stroke="#000000" d="M72.82811-7.990901C75.71254-3.699374 80.32484-.715642 85.2389 .164628 80.0991 1.586129 75.40065 4.451361 72.530368 8.49865"/>
<path transform="matrix(1,0,0,-1,117.09088,44.298936)" stroke-width=".75" stroke-linecap="round" stroke-linejoin="round" fill="none" stroke="#000000" d="M126.304279-.357396C147.60486-.317371 168.12111-.142561 189.34207-.39822"/>
<path transform="matrix(1,0,0,-1,117.09088,44.298936)" stroke-width=".75" stroke-linecap="round" stroke-linejoin="round" fill="none" stroke="#000000" d="M176.89215-8.428509C180.49474-4.279332 184.53038-.985178 190.02005-.202645 184.14267 1.538698 180.50794 3.819672 176.83399 8.312517"/>
<path transform="matrix(1,0,0,-1,117.09088,44.298936)" stroke-width=".75" stroke-linecap="round" stroke-linejoin="round" fill="none" stroke="#000000" d="M266.62528-.321124C294.75465-.347347 323.288 .166907 351.5044 .049648"/>
<path transform="matrix(1,0,0,-1,117.09088,44.298936)" stroke-width=".75" stroke-linecap="round" stroke-linejoin="round" fill="none" stroke="#000000" d="M338.54408-8.111485C342.27577-3.984604 345.90605-1.257113 351.67213 .435444 345.9895 1.118749 341.93608 3.57324 338.66706 8.386737"/>
<path transform="matrix(1,0,0,-1,117.09088,44.298936)" stroke-width=".75" stroke-linecap="round" stroke-linejoin="round" fill="none" stroke="#000000" d="M308.6379-.193462C308.88197-33.773065 308.97975-67.6855 308.64927-101.643619 267.89598-101.69505 227.90398-101.1064 187.4152-101.09209"/>
<path transform="matrix(1,0,0,-1,117.09088,44.298936)" stroke-width=".75" stroke-linecap="round" stroke-linejoin="round" fill="none" stroke="#000000" d="M199.86484-93.545528C196.56929-97.37518 192.1586-100.59275 187.01447-101.60407 192.44855-102.27923 196.66536-105.222148 199.54065-109.35155"/>
<path transform="matrix(1,0,0,-1,117.09088,44.298936)" stroke-width=".75" stroke-linecap="round" stroke-linejoin="round" fill="none" stroke="#000000" d="M146.87833-101.53538C97.67646-101.36631 48.987066-101.61048-.347227-101.21291-.038089-75.059848-.392768-48.14081 .105515-22.364924"/>
<path transform="matrix(1,0,0,-1,117.09088,44.298936)" stroke-width=".75" stroke-linecap="round" stroke-linejoin="round" fill="none" stroke="#000000" d="M7.946749-35.000055C3.913205-31.823302 1.121774-27.436196 .31481-22.108248-.906997-26.641646-4.225358-31.411612-8.428092-34.972986"/>
<use data-text="+" xlink:href="#font_7_7" transform="matrix(21.519354,0,0,-21.519316,79.041599,36.556138)"/>
<use data-text="&#x2212;" xlink:href="#font_7_9" transform="matrix(21.519371,0,0,-21.519288,123.24079,74.908329)"/>
<use data-text="R" xlink:href="#font_7_5" transform="matrix(21.5195,0,0,-21.519398,6.8142626,49.68022)"/>
<use data-text="(" xlink:href="#font_7_2" transform="matrix(21.5195,0,0,-21.519398,19.91964,49.68022)"/>
<use data-text="s" xlink:href="#font_7_3" transform="matrix(21.5195,0,0,-21.519398,29.464829,49.68022)"/>
<use data-text=")" xlink:href="#font_7_4" transform="matrix(21.5195,0,0,-21.519398,40.451826,49.68022)"/>
<use data-text="Y" xlink:href="#font_7_6" transform="matrix(21.519246,0,0,-21.519398,472.9259,49.68022)"/>
<use data-text="(" xlink:href="#font_7_2" transform="matrix(21.519246,0,0,-21.519398,486.0746,49.68022)"/>
<use data-text="s" xlink:href="#font_7_3" transform="matrix(21.519246,0,0,-21.519398,495.6197,49.68022)"/>
<use data-text=")" xlink:href="#font_7_4" transform="matrix(21.519246,0,0,-21.519398,506.60658,49.68022)"/>
</svg>
