<svg xmlns="http://www.w3.org/2000/svg" xmlns:xlink="http://www.w3.org/1999/xlink" version="1.1" width="624.2874" height="151.84412" viewBox="0 0 624.2874 151.84412">
<defs>
<path id="font_2_7" d="M.04598999 .23632813H.35598756V-.07368469L.3959961-.06668091V.23632813H.70399478L.70899966 .2763214H.3959961V.58631899L.35598756 .58032229V.2763214H.052993776L.04598999 .23632813Z"/>
<path id="font_2_10" d="M.04899597 .6591797C.049987794 .6591797 .08999634 .647171 .10998535 .6411743 .116989139 .63916018 .12098694 .63217166 .12399292 .62615969 .12799073 .61616519 .1289978 .6051636 .1289978 .59516909V.14816284L.12599182 .001159668 .13699341-.0038452149 .21798706 .025161744C.21199036 .122161868 .21199036 .22015381 .21199036 .318161L.22099304 .3191681C.32899476 .2101593 .44099427 .105163577 .54599-.0068359377L.6309967 .024154664 .6319885 .03515625C.57099917 .089157108 .4059906 .25315858 .29899598 .36016847 .29499818 .36416627 .2939911 .36616517 .2939911 .36915589 .2939911 .37216188 .29899598 .37716676 .3019867 .38015748L.59298709 .6741791 .59399417 .6831665H.5039978L.21699524 .35716249 .20899964 .35816957C.20899964 .4711609 .21398926 .59916689 .21598816 .62615969 .21598816 .62716677 .21998596 .6641693 .22399903 .676178L.21699524 .6831665H.05899048L.050994874 .676178 .04899597 .6591797Z"/>
<path id="font_2_3" d="M.051986696 .06642151C.06199646 .047409059 .07598877 .030395508 .09199524 .01638794 .12098694-.009613037 .16099549-.016601563 .19898987-.016601563 .2559967-.016601563 .31199647 .0023956299 .35099793 .044403078 .375 .06941223 .3869934 .10343933 .3869934 .13845825 .3869934 .1634674 .37298585 .18649292 .35499574 .20449829 .34098817 .21850586 .3039856 .24052429 .27198792 .25453187 .24299622 .26654054 .19999695 .2885437 .18798828 .30055238 .17298889 .31655885 .1619873 .3285675 .1619873 .35058595 .1619873 .3725891 .16899109 .39360047 .18499756 .4086151 .19999695 .42362977 .22200012 .43164063 .24398804 .43164063 .2639923 .43164063 .2849884 .42462159 .29599 .4066162 .30599977 .39060975 .30799867 .3715973 .30899049 .35359193L.32099916 .34657289 .37599183 .38360597C.375 .40560914 .3639984 .42662049 .34799195 .44163514 .32499696 .46263124 .29299928 .46662904 .2630005 .46662904 .21398926 .46662904 .16699219 .45063783 .1309967 .4176178 .10398865 .39360047 .08999634 .35858155 .08999634 .32356263 .08999634 .29154969 .10798645 .26353456 .1309967 .2425232 .1539917 .22250366 .18399048 .2084961 .21499634 .1954956 .24099732 .18447876 .2689972 .17248535 .28799439 .1534729 .30299378 .13845825 .31399537 .11845398 .31399537 .09744263 .31399537 .079422 .30499269 .062408449 .29299928 .04940796 .27799989 .03340149 .25099183 .021392823 .22898865 .021392823 .19898987 .021392823 .17199707 .03439331 .1499939 .055404664 .1269989 .076416019 .116989139 .10644531 .114990238 .13645935L.100997928 .13745117 .051986696 .06642151Z"/>
<path id="font_2_2" d="M.11299133 .24990845C.11299133 .007904053 .1519928-.09008789 .18299866-.13310242 .21099854-.17008972 .25299073-.20809937 .30099488-.21209717V-.1880951C.2809906-.18409729 .25099183-.16809082 .23399353-.1481018 .21998596-.13209534 .16499329-.05809021 .16499329 .24990845 .16499329 .4618988 .19799805 .5659027 .21998596 .6128998 .23599243 .6469116 .2689972 .6769104 .30099488 .684906V.71191409C.2599945 .7049103 .21598816 .6729126 .19099427 .63790896 .1599884 .5919037 .11299133 .4748993 .11299133 .24990845Z"/>
<path id="font_2_11" d="M.011993408 .07626343 .0129852299 .06425476C.053985597 .01524353 .114990238-.0107421879 .17799378-.0107421879 .25299073-.0107421879 .32499696 .018249512 .37799073 .071258548 .4249878 .118270877 .44799806 .18429566 .44799806 .25131227 .44799806 .30332948 .43299867 .3563385 .394989 .39335633 .35899354 .4293518 .30799867 .44335938 .25698854 .44335938 .21099854 .44335938 .1659851 .42634584 .125 .4063568V.41334535 .5944824C.125 .6004791 .1309967 .6044922 .13699341 .6044922 .18499756 .6044922 .31098939 .6074829 .397995 .6094818L.4249878 .68748477H.08999634L.08299255 .68048098V.35333253L.09599304 .34233094C.12799073 .3733368 .16899109 .39535523 .21299744 .39535523 .24699402 .39535523 .2809906 .38534547 .30499269 .36134339 .34098817 .32533265 .35198976 .27331544 .35198976 .22329712 .35198976 .1672821 .33699037 .10827637 .2979889 .06925964 .2679901 .039260866 .22698975 .026245118 .18598938 .026245118 .1579895 .026245118 .13198853 .040252687 .11299133 .059265138 .09199524 .08026123 .07899475 .106277469 .066986087 .13227844H.055999757L.011993408 .07626343Z"/>
<path id="font_2_4" d="M.085998538-.1880951V-.21209717C.13398743-.20610047 .1789856-.17208863 .20698548-.13510132 .23799134-.09210205 .27598573 .007904053 .27598573 .24990845 .27598573 .50090029 .22399903 .5919037 .19299317 .63790896 .16799927 .6729126 .1269989 .7049103 .085998538 .71191409V.684906C.117996219 .6759033 .14898682 .6469116 .16499329 .6128998 .18699646 .5659027 .22399903 .48190309 .22399903 .24990845 .22399903-.099090579 .17199707-.13209534 .1579895-.1481018 .14099121-.16809082 .10598755-.18409729 .085998538-.1880951Z"/>
<path id="font_2_12" d="M.011993408 .001953125H.44898988L.47200013 .079940799 .46699525 .08795166H.1579895C.15299988 .08795166 .147995 .08894348 .1459961 .092941287 .14498902 .094940189 .1459961 .09794617 .14698792 .09895325 .19699097 .1569519 .24499512 .21495056 .2899933 .27496339 .32199098 .31697084 .35299684 .358963 .37799073 .40496827 .4039917 .4509735 .42599488 .49998475 .42599488 .5529938 .42599488 .59399417 .4139862 .6349945 .38398744 .66400149 .35499574 .69299319 .31599427 .7080078 .2749939 .7080078 .23699951 .7080078 .20098877 .6970062 .16799927 .67900088 .12799073 .65800479 .09399414 .6279907 .06399536 .59498599L.083999637 .57598879C.10798645 .59599307 .12998963 .61099246 .1579895 .6259918 .1769867 .6360016 .19898987 .6399994 .22099304 .6399994 .25 .6399994 .27999879 .6289978 .2999878 .6069946 .32798768 .5779877 .33399964 .5369873 .33399964 .50798037 .33399964 .4429779 .31098939 .38197328 .27598573 .3259735 .24798584 .27996827 .21299744 .23796082 .17799378 .19696045 .125 .13494873 .068984989 .07594299 .011993408 .017944336V.001953125Z"/>
<path id="font_2_13" d="M.09199524 .6121063H.1749878C.19999695 .6121063 .21998596 .5911102 .22099304 .56611636 .22200012 .5411072 .22200012 .46810914 .22200012 .41911317 .22200012 .27911378 .21899414 .13911438 .21398926 .00010681152L.22599793-.0048828127 .30999757 .022109986C.30699159 .09811401 .30699159 .29611207 .30699159 .43211366 .30699159 .52111819 .30899049 .6111145 .31399537 .70010378L.30799867 .7121124 .09199524 .6391144V.6121063Z"/>
<path id="font_2_14" d="M.033996583 .30323792C.033996583 .24525452 .038986207 .192276 .054992677 .1362915 .06599426 .09429932 .08699036 .05331421 .117996219 .022323609 .14199829-.0006866455 .17399597-.013671875 .20698548-.013671875 .2619934-.013671875 .31498719 .00831604 .35398866 .046325685 .3899994 .08331299 .41600038 .12928772 .43199159 .17727661 .45199586 .23425293 .45999146 .2952423 .45999146 .35621644 .45999146 .43418885 .44499208 .51316836 .40499879 .58213809 .37599183 .63212588 .33999635 .6721039 .2899933 .70410159 .24598694 .68611147 .19699097 .6621094 .1639862 .6291199 .07899475 .54415896 .033996583 .42318727 .033996583 .30323792M.100997928 .37121583C.100997928 .45217896 .1289978 .53215029 .18099976 .59513857 .19699097 .61413577 .21499634 .62812808 .23399353 .64012148 .2789917 .62112429 .32398988 .55114749 .32998658 .53915408 .37399293 .46118165 .397995 .37521363 .397995 .2852478 .397995 .24525452 .394989 .20426941 .3829956 .16627503 .37298585 .13529969 .3600006 .10630798 .33699037 .08331299 .31599427 .061325075 .2829895 .052322389 .2519989 .052322389 .23199463 .052322389 .20298767 .065322879 .18399048 .08430481 .15299988 .11529541 .1349945 .15628052 .12199402 .19926453 .10598755 .2542572 .100997928 .31323243 .100997928 .37121583Z"/>
<path id="font_2_9" d="M.04598999 .23046875H.70399478L.70999148 .27046205H.052993776L.04598999 .23046875Z"/>
<path id="font_2_5" d="M.053985597 .65625C.054992677 .65625 .08999634 .6462555 .10798645 .6412506 .12098694 .6372528 .1309967 .6252594 .1309967 .61128237 .13198853 .5543213 .13398743 .45439149 .13398743 .43940736 .13398743 .29444886 .1329956 .14831543 .125 .003189087L.13598633-.0058135988 .21899414 .023208619C.21398926 .11929321 .21398926 .21638489 .21398926 .31245423 .21998596 .31245423 .22898865 .30845643 .23399353 .30345155 .2630005 .27442933 .3899994 .11128235 .48298646-.0078125L.58200076 .018203736V.02720642L.31900025 .3234558 .32099916 .33146668C.4039917 .3404541 .4850006 .3734131 .5169983 .44322206 .5319977 .47714234 .5359955 .49110414 .5359955 .53897097 .5359955 .57388308 .5219879 .6077881 .49699403 .63272097 .47999574 .6506958 .45700074 .6596985 .43299867 .6667023 .40098573 .67570498 .36698915 .67871096 .33299256 .67871096L.06098938 .679245 .054992677 .6732483 .053985597 .65625M.21299744 .37045289C.21299744 .375412 .21699524 .549942 .21899414 .61376956 .21998596 .63272097 .22299195 .6397095 .23098755 .6397095H.2709961C.2979889 .6397095 .32598878 .6377106 .35299684 .63072207 .37199403 .6257324 .3909912 .61776736 .40499879 .6037903 .42599488 .5828552 .43798829 .55293276 .43798829 .52301028 .43798829 .47813417 .41799928 .43624879 .3869934 .40533448 .35398866 .37141419 .30599977 .36044313 .2599945 .35646058 .24798584 .35546876 .23498535 .35546876 .22200012 .35546876 .21499634 .35546876 .21299744 .36444093 .21299744 .37042237V.37045289Z"/>
<path id="font_2_6" d="M.022994996 .6513672C.036987306 .649353 .049987794 .6463623 .06298828 .6433563 .07199097 .6413574 .07998657 .6353607 .085998538 .62835696 .09599304 .61834719 .102996829 .60635378 .10899353 .5943451L.2579956 .29930116C.2579956 .19927979 .2579956 .0982666 .25498963-.0017547608L.2659912-.0107421879 .35598756 .018249512 .34700013 .30630494C.42999269 .4343109 .5039978 .5303345 .61499026 .675354L.61099246 .6933594 .526001 .6763611C.48999024 .619339 .4059906 .47431947 .397995 .46032716 .3849945 .4373169 .34199525 .36730958 .33898927 .3623047 .33599855 .3572998 .33198548 .353302 .32798768 .353302 .32199098 .353302 .31698609 .3592987 .31599427 .36131288L.1749878 .6863556H.02999878L.022994996 .67936709V.6513672Z"/>
</defs>
<use data-text="+" xlink:href="#font_2_7" transform="matrix(37.185197,0,0,-37.18505,103.05142,53.845079)"/>
<use data-text="K" xlink:href="#font_2_10" transform="matrix(21.519206,0,0,-21.519562,217.51706,38.46866)"/>
<path transform="matrix(1.4999933,0,0,-1.5000182,217.51706,44.32373)" stroke-width=".574019" stroke-linecap="butt" stroke-linejoin="round" fill="none" stroke="#000000" d="M0 0H9.586122"/>
<use data-text="s" xlink:href="#font_2_3" transform="matrix(21.519206,0,0,-21.519562,219.80954,60.941804)"/>
<use data-text="(" xlink:href="#font_2_2" transform="matrix(21.51915,0,0,-21.519562,365.5615,38.46866)"/>
<use data-text="s" xlink:href="#font_2_3" transform="matrix(21.51915,0,0,-21.519562,375.10655,38.46866)"/>
<use data-text="+" xlink:href="#font_2_7" transform="matrix(21.51915,0,0,-21.519562,389.67979,38.46866)"/>
<use data-text="5" xlink:href="#font_2_11" transform="matrix(21.51915,0,0,-21.519562,410.7087,38.46866)"/>
<use data-text=")" xlink:href="#font_2_4" transform="matrix(21.51915,0,0,-21.519562,422.64244,38.46866)"/>
<path transform="matrix(1.4999895,0,0,-1.5000182,325.6745,44.32373)" stroke-width=".574019" stroke-linecap="butt" stroke-linejoin="round" fill="none" stroke="#000000" d="M0 0H96.81412"/>
<use data-text="(" xlink:href="#font_2_2" transform="matrix(21.51915,0,0,-21.519562,325.6745,60.941804)"/>
<use data-text="s" xlink:href="#font_2_3" transform="matrix(21.51915,0,0,-21.519562,335.21955,60.941804)"/>
<use data-text="+" xlink:href="#font_2_7" transform="matrix(21.51915,0,0,-21.519562,349.79277,60.941804)"/>
<use data-text="2" xlink:href="#font_2_12" transform="matrix(21.51915,0,0,-21.519562,370.82176,60.941804)"/>
<use data-text=")" xlink:href="#font_2_4" transform="matrix(21.51915,0,0,-21.519562,382.7554,60.941804)"/>
<use data-text="(" xlink:href="#font_2_2" transform="matrix(21.51915,0,0,-21.519562,394.69145,60.941804)"/>
<use data-text="s" xlink:href="#font_2_3" transform="matrix(21.51915,0,0,-21.519562,404.23649,60.941804)"/>
<use data-text="+" xlink:href="#font_2_7" transform="matrix(21.51915,0,0,-21.519562,418.80967,60.941804)"/>
<use data-text="1" xlink:href="#font_2_13" transform="matrix(21.51915,0,0,-21.519562,439.83866,60.941804)"/>
<use data-text="0" xlink:href="#font_2_14" transform="matrix(21.51915,0,0,-21.519562,450.5767,60.941804)"/>
<use data-text=")" xlink:href="#font_2_4" transform="matrix(21.51915,0,0,-21.519562,462.51036,60.941804)"/>
<path transform="matrix(1,0,0,-1,117.09091,44.324266)" stroke-width=".75" stroke-linecap="round" stroke-linejoin="round" fill="none" stroke="#000000" d="M209.06507-35.288564C208.46724-36.166448 209.40782-35.24035 208.36597-36.162149 256.196-36.772855 304.96327-35.51764 354.61619-35.463895 369.6339-35.595064 369.56709-35.849859 368.96287-20.23251 368.33204-7.34715 368.84019 7.500237 368.25926 21.38365 369.01695 35.439405 369.68949 35.619714 353.37425 36.04532 305.8708 36.907846 257.0618 36.761316 208.2178 35.393209 192.9691 36.663286 193.87807 35.8018 193.33683 20.240515 194.33347 6.14895 193.39608-6.660929 192.69077-20.351168 192.83808-36.52821 192.94435-36.71283 209.06507-35.288564Z"/>
<path transform="matrix(1,0,0,-1,117.09091,44.324266)" stroke-width=".75" stroke-linecap="round" stroke-linejoin="round" fill="none" stroke="#000000" d="M100.88006-35.426824C100.37204-35.957689 99.908107-37.1119 99.85294-36.93765 105.069309-36.57786 109.76345-36.523954 114.027988-36.761049 129.0474-36.117208 130.50849-36.036523 129.17929-21.665263 130.00926-6.09159 130.59302 7.493705 129.91677 21.753554 128.89757 36.67693 130.46541 36.01797 114.265277 36.32397 109.69411 36.894487 105.84591 35.62523 99.527507 36.458425 85.159999 35.35726 86.24901 35.354146 84.90325 21.03415 85.07074 6.186359 84.56217-7.327981 86.3284-20.642312 84.784839-36.68502 84.984668-35.31491 100.88006-35.426824Z"/>
<path transform="matrix(1,0,0,-1,117.09091,44.324266)" stroke-width=".75" stroke-linecap="round" stroke-linejoin="round" fill="none" stroke="#000000" d="M21.605172-.518786C21.653243 11.165366 11.407272 20.93445 .821052 21.8527-12.062893 22.22152-20.84371 11.955615-21.3705-.108726-22.525486-11.386913-12.214216-22.460179 .577806-22.354351 12.755993-20.99264 21.045235-11.910816 21.605172-.518786Z"/>
<path transform="matrix(1,0,0,-1,117.09091,44.324266)" stroke-width=".75" stroke-linecap="round" stroke-linejoin="round" fill="none" stroke="#000000" d="M-63.59788 .255014C-50.08662-.171106-35.973325-.218027-22.021937 .15899"/>
<path transform="matrix(1,0,0,-1,117.09091,44.324266)" stroke-width=".75" stroke-linecap="round" stroke-linejoin="round" fill="none" stroke="#000000" d="M-34.287275-8.050429C-31.512825-4.395513-27.028153-1.377664-21.72835-.36398-27.016642 .762629-30.94173 3.629288-34.666986 7.928336"/>
<path transform="matrix(1,0,0,-1,117.09091,44.324266)" stroke-width=".75" stroke-linecap="round" stroke-linejoin="round" fill="none" stroke="#000000" d="M21.342478 .247405C42.49213 .16695 63.83083-.445298 84.67649-.005029"/>
<path transform="matrix(1,0,0,-1,117.09091,44.324266)" stroke-width=".75" stroke-linecap="round" stroke-linejoin="round" fill="none" stroke="#000000" d="M71.989139-7.859685C75.70027-4.435756 80.012279-1.255224 85.11755 .41485 79.69913 .952812 75.220279 3.951505 72.72963 8.442024"/>
<path transform="matrix(1,0,0,-1,117.09091,44.324266)" stroke-width=".75" stroke-linecap="round" stroke-linejoin="round" fill="none" stroke="#000000" d="M129.7957-.38388C151.0052 .182299 172.2602-.084589 193.0103-.170744"/>
<path transform="matrix(1,0,0,-1,117.09091,44.324266)" stroke-width=".75" stroke-linecap="round" stroke-linejoin="round" fill="none" stroke="#000000" d="M180.51639-7.824058C183.50139-3.859864 188.19904-1.143052 193.34564 .443098 188.34572 1.56958 183.88092 4.335588 180.90505 7.815807"/>
<path transform="matrix(1,0,0,-1,117.09091,44.324266)" stroke-width=".75" stroke-linecap="round" stroke-linejoin="round" fill="none" stroke="#000000" d="M368.74089 .284233C396.97239-.096765 425.54536 .3768 454.02073 .094529"/>
<path transform="matrix(1,0,0,-1,117.09091,44.324266)" stroke-width=".75" stroke-linecap="round" stroke-linejoin="round" fill="none" stroke="#000000" d="M440.79954-8.140825C444.142-4.029373 448.46766-.938144 453.7409-.095686 449.172 1.265304 444.69343 4.358513 440.8433 8.024518"/>
<path transform="matrix(1,0,0,-1,117.09091,44.324266)" stroke-width=".75" stroke-linecap="round" stroke-linejoin="round" fill="none" stroke="#000000" d="M411.38423 .248408C411.33818-33.64735 410.95567-67.06788 411.45893-99.84276 368.2255-99.82618 325.0179-99.98498 281.04557-100.21263 187.45014-100.107418 93.57477-100.159008 .230524-99.53169-.42771-74.37379 .173563-48.128328 .209173-22.197169"/>
<path transform="matrix(1,0,0,-1,117.09091,44.324266)" stroke-width=".75" stroke-linecap="round" stroke-linejoin="round" fill="none" stroke="#000000" d="M8.221017-34.284448C4.399613-31.430264 1.304251-26.86009-.297149-22.015522-1.518118-26.899016-4.062657-31.716195-8.442759-34.65532"/>
<path transform="matrix(1,0,0,-1,117.09091,44.324266)" stroke-width=".75" stroke-linecap="round" stroke-linejoin="round" fill="none" stroke="#000000" d="M209.25464-35.615926C207.76454-36.14831 208.21535-35.627279 209.52227-36.827688 256.9744-36.213144 304.84056-36.20105 354.16056-35.308107 369.12358-37.115987 369.48744-36.790678 368.45036-21.672949 368.2089-7.678704 368.76515 7.925623 369.75727 20.954724 369.0457 35.772455 369.35276 36.660734 353.39256 36.24697 305.04353 35.31601 257.80097 37.098215 207.97963 35.34403 192.69687 36.22154 193.75246 36.6317 193.29903 20.550633 194.40236 6.095818 193.15737-6.278337 193.5496-20.730156 193.40692-36.23354 193.54618-35.2646 209.25464-35.615926Z"/>
<path transform="matrix(1,0,0,-1,117.09091,44.324266)" stroke-width=".75" stroke-linecap="round" stroke-linejoin="round" fill="none" stroke="#000000" d="M100.05149-36.108457C100.99585-36.35019 100.680507-35.566244 100.79065-35.64416 104.842678-36.794355 109.88655-35.631917 115.24228-35.83862 130.25975-35.704267 129.38755-35.466436 129.20273-20.549778 129.22461-6.48517 130.26956 6.148669 129.15023 20.314513 129.4129 36.159677 129.59693 36.852846 114.3988 36.987539 110.30873 36.600397 104.72401 35.468458 99.801219 36.769556 85.1441 35.850969 85.09806 36.443704 85.18048 20.897959 85.700878 6.240247 85.083019-6.730969 85.36776-20.304022 86.14459-35.257875 86.016628-35.84683 100.05149-36.108457Z"/>
<path transform="matrix(1,0,0,-1,117.09091,44.324266)" stroke-width=".75" stroke-linecap="round" stroke-linejoin="round" fill="none" stroke="#000000" d="M21.86457-.550137C21.623036 12.41757 12.356767 22.48858-.220011 22.283835-11.341785 21.283129-21.217728 11.317735-21.320946 .053742-21.136685-11.468332-11.738423-20.986603 .679385-21.739165 11.713885-22.325263 21.678166-11.091186 21.86457-.550137Z"/>
<path transform="matrix(1,0,0,-1,117.09091,44.324266)" stroke-width=".75" stroke-linecap="round" stroke-linejoin="round" fill="none" stroke="#000000" d="M-63.60815-.05481C-49.753065 .394901-36.018476 .331159-22.021414 .292553"/>
<path transform="matrix(1,0,0,-1,117.09091,44.324266)" stroke-width=".75" stroke-linecap="round" stroke-linejoin="round" fill="none" stroke="#000000" d="M-33.999383-8.127735C-30.69034-3.928995-26.43929-.966407-21.250222 .005418-26.965769 1.371041-31.310238 3.717465-34.098588 7.674318"/>
<path transform="matrix(1,0,0,-1,117.09091,44.324266)" stroke-width=".75" stroke-linecap="round" stroke-linejoin="round" fill="none" stroke="#000000" d="M21.858462 .41979C42.796514-.125825 63.843828-.399023 85.12353-.233779"/>
<path transform="matrix(1,0,0,-1,117.09091,44.324266)" stroke-width=".75" stroke-linecap="round" stroke-linejoin="round" fill="none" stroke="#000000" d="M72.451488-7.907656C75.57674-4.385169 79.876399-1.461513 84.70709-.257649 80.31283 .875422 75.3122 4.045659 72.08177 8.019449"/>
<path transform="matrix(1,0,0,-1,117.09091,44.324266)" stroke-width=".75" stroke-linecap="round" stroke-linejoin="round" fill="none" stroke="#000000" d="M129.53499 .192601C151.30652-.234332 172.14873 .271062 192.98206-.066571"/>
<path transform="matrix(1,0,0,-1,117.09091,44.324266)" stroke-width=".75" stroke-linecap="round" stroke-linejoin="round" fill="none" stroke="#000000" d="M180.76528-8.371148C183.9299-4.223948 188.32944-.839517 193.07967 .003774 187.95804 1.109899 183.56925 4.178311 180.43694 8.080644"/>
<path transform="matrix(1,0,0,-1,117.09091,44.324266)" stroke-width=".75" stroke-linecap="round" stroke-linejoin="round" fill="none" stroke="#000000" d="M368.9016-.179628C397.00074-.050365 425.35554-.319394 453.4659 .24565"/>
<path transform="matrix(1,0,0,-1,117.09091,44.324266)" stroke-width=".75" stroke-linecap="round" stroke-linejoin="round" fill="none" stroke="#000000" d="M441.18046-8.233378C444.12535-3.601392 448.7792-.982711 454.02146-.396441 448.96778 1.540902 444.08287 3.707259 441.26329 8.077571"/>
<path transform="matrix(1,0,0,-1,117.09091,44.324266)" stroke-width=".75" stroke-linecap="round" stroke-linejoin="round" fill="none" stroke="#000000" d="M411.1719 .00527C411.61216-32.983198 411.37556-66.982 411.39439-100.07082 368.34217-100.05473 324.46598-99.54114 280.87644-100.33173 187.42243-100.15292 93.581157-100.169239-.393572-100.297809 .019573-73.577899-.016987-48.24814-.206881-22.37103"/>
<path transform="matrix(1,0,0,-1,117.09091,44.324266)" stroke-width=".75" stroke-linecap="round" stroke-linejoin="round" fill="none" stroke="#000000" d="M8.025865-34.38673C4.33713-31.507042 1.1561-27.32623 .102332-22.079663-1.363999-26.594075-3.894201-31.660243-7.728015-34.589155"/>
<path transform="matrix(1,0,0,-1,117.09091,44.324266)" stroke-width=".75" stroke-linecap="round" stroke-linejoin="round" fill="none" stroke="#000000" d="M208.72554-35.575029C209.4953-36.91953 209.02129-36.81275 208.27906-35.63439 256.13694-35.583879 304.7108-36.076898 353.1588-36.04583 368.7568-36.239725 368.56483-36.15123 369.155-21.835028 368.40513-6.189215 369.53138 6.823243 368.5145 21.060303 369.50669 36.853174 369.64424 36.632043 354.46736 37.08543 304.55955 36.74507 257.00614 35.385076 209.06549 36.056688 194.20282 36.61871 193.67063 35.944719 193.63239 20.776288 194.53768 7.881552 192.94344-6.61832 194.08707-20.404419 194.41031-35.438379 193.88425-35.448606 208.72554-35.575029Z"/>
<path transform="matrix(1,0,0,-1,117.09091,44.324266)" stroke-width=".75" stroke-linecap="round" stroke-linejoin="round" fill="none" stroke="#000000" d="M101.26158-35.96416C101.12487-35.630788 100.10376-37.117078 99.98848-37.09339 105.828258-35.489225 109.4302-36.937814 113.83565-35.78572 129.85562-35.209363 129.9355-37.026769 130.75254-21.777703 128.89708-6.312993 129.83873 6.448447 130.55591 20.384148 130.36212 36.383199 130.22934 36.78002 114.747188 35.985849 110.71763 36.386178 105.54343 36.31426 100.86101 36.86621 85.10661 35.79185 85.00174 35.370786 84.57498 21.67217 85.03592 7.902425 84.88108-7.401837 86.30082-21.244462 85.90953-35.934129 86.02933-36.019044 101.26158-35.96416Z"/>
<path transform="matrix(1,0,0,-1,117.09091,44.324266)" stroke-width=".75" stroke-linecap="round" stroke-linejoin="round" fill="none" stroke="#000000" d="M21.467568 .537534C21.37002 11.709849 12.358765 21.290276 .687553 21.40684-12.665019 22.251687-20.94807 12.436448-22.494114 .393363-20.803133-11.735333-11.293546-22.420268 .75948-20.872046 12.739102-20.900652 21.01646-12.497745 21.467568 .537534Z"/>
<path transform="matrix(1,0,0,-1,117.09091,44.324266)" stroke-width=".75" stroke-linecap="round" stroke-linejoin="round" fill="none" stroke="#000000" d="M-63.49913-.356294C-50.024076 .21039-36.10693-.418014-21.44578-.426248"/>
<path transform="matrix(1,0,0,-1,117.09091,44.324266)" stroke-width=".75" stroke-linecap="round" stroke-linejoin="round" fill="none" stroke="#000000" d="M-34.401235-7.980175C-30.805506-3.741791-26.44711-1.267274-21.461712-.372038-26.875153 1.45294-30.771847 3.864424-34.01351 7.892653"/>
<path transform="matrix(1,0,0,-1,117.09091,44.324266)" stroke-width=".75" stroke-linecap="round" stroke-linejoin="round" fill="none" stroke="#000000" d="M21.91298-.135246C42.489099-.026663 63.647169 .414242 85.42673-.009603"/>
<path transform="matrix(1,0,0,-1,117.09091,44.324266)" stroke-width=".75" stroke-linecap="round" stroke-linejoin="round" fill="none" stroke="#000000" d="M72.228618-8.170269C75.91345-3.565588 79.66791-1.552502 85.48144 .411829 79.76381 1.520487 75.8298 3.729851 71.96093 8.005829"/>
<path transform="matrix(1,0,0,-1,117.09091,44.324266)" stroke-width=".75" stroke-linecap="round" stroke-linejoin="round" fill="none" stroke="#000000" d="M129.72054 .427173C151.1569-.05844 172.11287-.206186 193.05669-.154272"/>
<path transform="matrix(1,0,0,-1,117.09091,44.324266)" stroke-width=".75" stroke-linecap="round" stroke-linejoin="round" fill="none" stroke="#000000" d="M180.5086-8.121833C183.76209-4.18678 187.87137-.888524 193.28833-.169465 188.00466 1.034866 183.77106 3.8674 180.19872 7.847655"/>
<path transform="matrix(1,0,0,-1,117.09091,44.324266)" stroke-width=".75" stroke-linecap="round" stroke-linejoin="round" fill="none" stroke="#000000" d="M368.45109-.078925C397.17115 .053658 425.3432-.146809 454.27455-.238756"/>
<path transform="matrix(1,0,0,-1,117.09091,44.324266)" stroke-width=".75" stroke-linecap="round" stroke-linejoin="round" fill="none" stroke="#000000" d="M440.74583-7.860032C444.40763-3.776026 448.704-.802155 453.8758 .364563 449.24827 .748184 444.10887 3.756492 441.57759 7.702837"/>
<path transform="matrix(1,0,0,-1,117.09091,44.324266)" stroke-width=".75" stroke-linecap="round" stroke-linejoin="round" fill="none" stroke="#000000" d="M411.31236 .236596C411.6612-33.692945 411.7454-66.33509 411.1089-99.95661 368.1365-100.08969 324.15513-99.8957 281.36973-100.05013 187.80413-99.88528 94.007999-100.05295-.364555-99.652828 .128181-73.75141-.409744-47.785936-.151545-21.618384"/>
<path transform="matrix(1,0,0,-1,117.09091,44.324266)" stroke-width=".75" stroke-linecap="round" stroke-linejoin="round" fill="none" stroke="#000000" d="M7.902772-34.998037C4.139712-31.904633 1.584306-27.05841 .243555-22.472527-.862043-26.970633-3.682652-31.065812-8.275192-35.019239"/>
<path transform="matrix(1,0,0,-1,117.09091,44.324266)" stroke-width=".75" stroke-linecap="round" stroke-linejoin="round" fill="none" stroke="#000000" d="M207.91196-36.693143C208.1046-35.50747 208.43688-35.274957 208.48221-36.498994 256.17637-35.306669 305.4206-36.831018 354.0563-35.81297 368.59397-35.30288 369.24015-35.900297 368.22877-21.673436 369.39494-6.536421 368.2368 6.737348 369.3996 22.115221 369.53794 36.47443 369.65428 35.372907 353.22706 36.812387 306.31254 35.298265 256.94477 36.92092 207.80727 35.478635 193.96512 35.367414 193.5411 36.40767 193.60701 21.319594 192.84384 7.778089 194.53214-7.464196 194.44149-21.94603 193.43373-35.848527 192.85115-35.986349 207.91196-36.693143Z"/>
<path transform="matrix(1,0,0,-1,117.09091,44.324266)" stroke-width=".75" stroke-linecap="round" stroke-linejoin="round" fill="none" stroke="#000000" d="M100.55106-35.374174C101.349269-35.410589 99.70102-35.61225 100.40113-36.7883 105.196788-35.5147 109.53122-37.096487 114.29916-35.36269 129.38393-35.92046 130.52162-36.231889 130.64644-20.466904 129.45079-7.6667 130.29547 7.139763 130.58152 20.878134 129.15666 36.046926 129.03235 36.933969 114.76807 35.398267 109.106548 35.257478 104.504169 35.336706 100.34873 37.135416 85.27432 36.69529 85.034618 35.59051 84.970378 20.477646 85.20726 6.12306 85.87492-6.13205 85.896488-21.571324 86.10688-36.40532 84.79908-36.23493 100.55106-35.374174Z"/>
<path transform="matrix(1,0,0,-1,117.09091,44.324266)" stroke-width=".75" stroke-linecap="round" stroke-linejoin="round" fill="none" stroke="#000000" d="M22.060622 .495219C22.037552 11.709354 12.503845 21.683995-.543018 20.955275-11.248197 22.035689-21.893555 11.730841-21.515223 .558642-21.806138-11.075425-11.752169-21.972966 .635474-21.532017 11.667168-21.280514 21.672886-11.341081 22.060622 .495219Z"/>
<path transform="matrix(1,0,0,-1,117.09091,44.324266)" stroke-width=".75" stroke-linecap="round" stroke-linejoin="round" fill="none" stroke="#000000" d="M-63.516008-.123042C-49.57746 .102754-35.62767 .121519-21.671778-.359624"/>
<path transform="matrix(1,0,0,-1,117.09091,44.324266)" stroke-width=".75" stroke-linecap="round" stroke-linejoin="round" fill="none" stroke="#000000" d="M-34.73239-8.195986C-31.07609-4.085945-26.691586-1.330506-21.889367 .411923-26.983212 .98601-31.444191 4.299899-34.575628 7.769512"/>
<path transform="matrix(1,0,0,-1,117.09091,44.324266)" stroke-width=".75" stroke-linecap="round" stroke-linejoin="round" fill="none" stroke="#000000" d="M21.335267 .31696C43.083738 .054848 63.79024 .357387 85.47429 .065662"/>
<path transform="matrix(1,0,0,-1,117.09091,44.324266)" stroke-width=".75" stroke-linecap="round" stroke-linejoin="round" fill="none" stroke="#000000" d="M72.63163-7.644963C75.64985-3.575809 80.3132-.907171 85.31037 .399445 79.86343 1.361833 75.12288 3.675124 72.411609 8.134629"/>
<path transform="matrix(1,0,0,-1,117.09091,44.324266)" stroke-width=".75" stroke-linecap="round" stroke-linejoin="round" fill="none" stroke="#000000" d="M129.41353-.445932C150.85532-.440981 172.20825-.41719 193.26007 .163612"/>
<path transform="matrix(1,0,0,-1,117.09091,44.324266)" stroke-width=".75" stroke-linecap="round" stroke-linejoin="round" fill="none" stroke="#000000" d="M180.16031-8.005393C183.40486-3.639912 188.2501-1.237417 193.60355 .434353 188.02292 .779252 183.77828 4.167497 180.55913 8.104023"/>
<path transform="matrix(1,0,0,-1,117.09091,44.324266)" stroke-width=".75" stroke-linecap="round" stroke-linejoin="round" fill="none" stroke="#000000" d="M368.80223-.20528C397.12757-.303347 425.24168 .401107 453.74369 .197652"/>
<path transform="matrix(1,0,0,-1,117.09091,44.324266)" stroke-width=".75" stroke-linecap="round" stroke-linejoin="round" fill="none" stroke="#000000" d="M440.85713-8.325951C444.6407-3.585814 448.87748-1.376449 453.45597 .235898 449.01609 1.026168 444.28944 3.638988 441.05345 7.922559"/>
<path transform="matrix(1,0,0,-1,117.09091,44.324266)" stroke-width=".75" stroke-linecap="round" stroke-linejoin="round" fill="none" stroke="#000000" d="M410.89128 .030981C411.1502-33.268369 411.0608-67.06102 411.05155-99.57922 367.5283-100.33327 324.5505-100.06389 281.49946-99.77308 187.1522-99.849628 93.53356-99.770519-.220141-100.24501-.013779-74.37489-.189663-48.387155 .129474-21.683354"/>
<path transform="matrix(1,0,0,-1,117.09091,44.324266)" stroke-width=".75" stroke-linecap="round" stroke-linejoin="round" fill="none" stroke="#000000" d="M7.656815-34.625368C3.994242-31.338818 .884928-27.354296-.235546-21.787615-.850031-26.931769-3.629115-31.405797-7.677305-34.255247"/>
<path transform="matrix(1,0,0,-1,117.09091,44.324266)" stroke-width=".75" stroke-linecap="round" stroke-linejoin="round" fill="none" stroke="#000000" d="M207.91748-36.665277C209.41794-35.587179 208.9901-35.6879 208.95029-35.92242 257.41676-36.87928 305.93055-36.391935 353.07539-36.33284 369.46913-35.33834 368.8518-36.576364 367.85389-21.235222 368.76298-6.567443 367.8589 7.053135 369.1047 21.399975 369.29725 36.90092 368.79734 36.79785 354.26814 35.72275 304.5102 36.43927 257.40425 36.742616 209.47222 36.2119 194.09059 36.16471 193.91437 35.597604 194.03482 20.316565 193.4269 7.998575 193.53536-7.357967 194.07189-21.678223 194.24535-35.661119 192.88459-35.764455 207.91748-36.665277Z"/>
<path transform="matrix(1,0,0,-1,117.09091,44.324266)" stroke-width=".75" stroke-linecap="round" stroke-linejoin="round" fill="none" stroke="#000000" d="M100.61244-36.546464C99.86839-37.120325 101.29011-35.402704 101.31893-36.22786 105.77058-36.58729 110.84375-36.313859 115.15915-37.05975 130.10668-36.68785 128.96639-36.25155 130.65018-21.264443 129.10314-7.155716 130.49536 6.56209 129.87148 20.36669 130.436 36.208448 130.41252 35.686258 114.08384 36.461496 109.61654 35.486337 105.94732 36.216119 100.24586 35.961698 85.57345 36.100374 84.82847 36.704626 85.71942 20.731814 84.71091 7.71493 84.80774-6.828321 84.74218-21.901272 85.66468-36.239698 84.98714-37.08775 100.61244-36.546464Z"/>
<path transform="matrix(1,0,0,-1,117.09091,44.324266)" stroke-width=".75" stroke-linecap="round" stroke-linejoin="round" fill="none" stroke="#000000" d="M22.600705 .333005C20.839026 12.379853 11.496522 20.995209-.722992 21.290158-11.513598 21.405526-21.671874 11.89628-21.191546 .530838-21.474177-12.300804-12.806089-21.48111 .182244-21.554089 12.878564-21.509318 21.347083-11.957749 22.600705 .333005Z"/>
<path transform="matrix(1,0,0,-1,117.09091,44.324266)" stroke-width=".75" stroke-linecap="round" stroke-linejoin="round" fill="none" stroke="#000000" d="M-63.54872 .334204C-49.34292 .235188-36.086969-.445438-21.32893-.417393"/>
<path transform="matrix(1,0,0,-1,117.09091,44.324266)" stroke-width=".75" stroke-linecap="round" stroke-linejoin="round" fill="none" stroke="#000000" d="M-34.01062-8.496397C-30.977673-3.981907-26.530728-1.253298-21.856232 .357463-26.712313 .801888-30.726153 4.426625-34.29703 8.424711"/>
<path transform="matrix(1,0,0,-1,117.09091,44.324266)" stroke-width=".75" stroke-linecap="round" stroke-linejoin="round" fill="none" stroke="#000000" d="M21.347573 .170673C42.507429 .329518 63.89947-.434534 84.72595-.275715"/>
<path transform="matrix(1,0,0,-1,117.09091,44.324266)" stroke-width=".75" stroke-linecap="round" stroke-linejoin="round" fill="none" stroke="#000000" d="M72.58185-8.087068C75.85157-3.768446 79.70584-1.595692 84.67058-.123251 80.08241 1.296091 75.524127 3.938255 72.72266 7.867108"/>
<path transform="matrix(1,0,0,-1,117.09091,44.324266)" stroke-width=".75" stroke-linecap="round" stroke-linejoin="round" fill="none" stroke="#000000" d="M129.66591-.409791C151.29793-.04714 172.36048-.397438 192.93494-.424507"/>
<path transform="matrix(1,0,0,-1,117.09091,44.324266)" stroke-width=".75" stroke-linecap="round" stroke-linejoin="round" fill="none" stroke="#000000" d="M180.90407-8.311692C183.49036-4.04123 187.85868-1.513686 193.11589 .338037 188.42173 1.004803 183.69092 4.430363 181.0084 7.902624"/>
<path transform="matrix(1,0,0,-1,117.09091,44.324266)" stroke-width=".75" stroke-linecap="round" stroke-linejoin="round" fill="none" stroke="#000000" d="M368.98289 .376003C397.27037 .336925 425.6803 .121222 453.8114-.408911"/>
<path transform="matrix(1,0,0,-1,117.09091,44.324266)" stroke-width=".75" stroke-linecap="round" stroke-linejoin="round" fill="none" stroke="#000000" d="M441.47935-8.488267C443.97218-3.646195 449.08619-1.16015 453.77546-.207937 449.04493 1.144042 444.67744 4.153156 440.82136 7.744889"/>
<path transform="matrix(1,0,0,-1,117.09091,44.324266)" stroke-width=".75" stroke-linecap="round" stroke-linejoin="round" fill="none" stroke="#000000" d="M411.28648 .351964C411.47456-32.996728 411.47984-66.74126 411.4547-99.83779 367.80659-99.637279 324.78065-100.019687 281.47645-99.667209 187.0598-100.17286 94.13894-99.9901-.302948-100.05589 .040531-73.84135 .229904-47.918199 .057535-22.014536"/>
<path transform="matrix(1,0,0,-1,117.09091,44.324266)" stroke-width=".75" stroke-linecap="round" stroke-linejoin="round" fill="none" stroke="#000000" d="M8.181713-35.01926C3.870113-31.705069 1.226813-26.829361 .444221-22.220255-1.373197-26.851893-3.837332-31.71656-7.748451-34.462347"/>
<use data-text="+" xlink:href="#font_2_7" transform="matrix(21.519354,0,0,-21.519316,79.041629,36.581438)"/>
<use data-text="&#x2212;" xlink:href="#font_2_9" transform="matrix(21.519371,0,0,-21.519288,123.24082,74.93366)"/>
<use data-text="R" xlink:href="#font_2_5" transform="matrix(21.5195,0,0,-21.519398,6.814293,49.70555)"/>
<use data-text="(" xlink:href="#font_2_2" transform="matrix(21.5195,0,0,-21.519398,19.91967,49.70555)"/>
<use data-text="s" xlink:href="#font_2_3" transform="matrix(21.5195,0,0,-21.519398,29.464859,49.70555)"/>
<use data-text=")" xlink:href="#font_2_4" transform="matrix(21.5195,0,0,-21.519398,40.451856,49.70555)"/>
<use data-text="Y" xlink:href="#font_2_6" transform="matrix(21.519246,0,0,-21.519398,575.4321,49.70555)"/>
<use data-text="(" xlink:href="#font_2_2" transform="matrix(21.519246,0,0,-21.519398,588.5808,49.70555)"/>
<use data-text="s" xlink:href="#font_2_3" transform="matrix(21.519246,0,0,-21.519398,598.1259,49.70555)"/>
<use data-text=")" xlink:href="#font_2_4" transform="matrix(21.519246,0,0,-21.519398,609.11276,49.70555)"/>
</svg>
