<svg xmlns="http://www.w3.org/2000/svg" xmlns:xlink="http://www.w3.org/1999/xlink" version="1.1" width="698.50247" height="191.70148" viewBox="0 0 698.50247 191.70148">
<defs>
<path id="font_10_8" d="M.08999634 .32458497C.08999634 .22958374 .114990238 .13148499 .18299866 .06341553 .23699951 .009384155 .31199647-.016601563 .3880005-.016601563 .46099855-.016601563 .56900027 .010391235 .6569977 .03338623 .6569977 .03338623 .6539917 .216568 .6519928 .30760194L.37599183 .2966156V.27061463L.38198854 .265625C.43598939 .26361085 .5 .25961305 .5439911 .25660707 .57199099 .25460816 .57199099 .22257996 .57199099 .13449097 .57199099 .061416627 .56900027 .04940796 .5519867 .045394899 .5209961 .038391115 .48999024 .03538513 .45799256 .03538513 .37998963 .03538513 .30599977 .060409547 .2619934 .112472537 .20399475 .18052674 .17999268 .25260926 .17999268 .3405609 .17999268 .48339845 .23199463 .5653076 .26098634 .5942688 .3039856 .63623049 .36299134 .6502075 .42199708 .6502075 .5529938 .6502075 .59298709 .5563202 .60598757 .53034976L.6179962 .5293579 .6759949 .58628848C.6649933 .6032715 .6119995 .69921877 .46699525 .69921877 .3619995 .69921877 .25698854 .6682129 .18199158 .593277 .11199951 .5233612 .08999634 .4224701 .08999634 .32458497Z"/>
<path id="font_10_17" d="M.1349945 .6123047H.22898865C.25698854 .6123047 .27999879 .59129336 .2809906 .5662842 .28199769 .541275 .28199769 .46824647 .28199769 .41923524 .28199769 .27919007 .27799989 .13916016 .272995 .00010681152L.28599549-.0048828127 .3809967 .022125245C.37799073 .09814453 .37799073 .2962036 .37799073 .43223573 .37799073 .52127078 .37998963 .6112976 .38598634 .7003021L.3789978 .71229556 .1349945 .6392975V.6123047Z"/>
<path id="font_10_2" d="M.11299133 .24990845C.11299133 .007904053 .1519928-.09008789 .18299866-.13310242 .21099854-.17008972 .25299073-.20809937 .30099488-.21209717V-.1880951C.2809906-.18409729 .25099183-.16809082 .23399353-.1481018 .21998596-.13209534 .16499329-.05809021 .16499329 .24990845 .16499329 .4618988 .19799805 .5659027 .21998596 .6128998 .23599243 .6469116 .2689972 .6769104 .30099488 .684906V.71191409C.2599945 .7049103 .21598816 .6729126 .19099427 .63790896 .1599884 .5919037 .11299133 .4748993 .11299133 .24990845Z"/>
<path id="font_10_3" d="M.051986696 .06642151C.06199646 .047409059 .07598877 .030395508 .09199524 .01638794 .12098694-.009613037 .16099549-.016601563 .19898987-.016601563 .2559967-.016601563 .31199647 .0023956299 .35099793 .044403078 .375 .06941223 .3869934 .10343933 .3869934 .13845825 .3869934 .1634674 .37298585 .18649292 .35499574 .20449829 .34098817 .21850586 .3039856 .24052429 .27198792 .25453187 .24299622 .26654054 .19999695 .2885437 .18798828 .30055238 .17298889 .31655885 .1619873 .3285675 .1619873 .35058595 .1619873 .3725891 .16899109 .39360047 .18499756 .4086151 .19999695 .42362977 .22200012 .43164063 .24398804 .43164063 .2639923 .43164063 .2849884 .42462159 .29599 .4066162 .30599977 .39060975 .30799867 .3715973 .30899049 .35359193L.32099916 .34657289 .37599183 .38360597C.375 .40560914 .3639984 .42662049 .34799195 .44163514 .32499696 .46263124 .29299928 .46662904 .2630005 .46662904 .21398926 .46662904 .16699219 .45063783 .1309967 .4176178 .10398865 .39360047 .08999634 .35858155 .08999634 .32356263 .08999634 .29154969 .10798645 .26353456 .1309967 .2425232 .1539917 .22250366 .18399048 .2084961 .21499634 .1954956 .24099732 .18447876 .2689972 .17248535 .28799439 .1534729 .30299378 .13845825 .31399537 .11845398 .31399537 .09744263 .31399537 .079422 .30499269 .062408449 .29299928 .04940796 .27799989 .03340149 .25099183 .021392823 .22898865 .021392823 .19898987 .021392823 .17199707 .03439331 .1499939 .055404664 .1269989 .076416019 .116989139 .10644531 .114990238 .13645935L.100997928 .13745117 .051986696 .06642151Z"/>
<path id="font_10_4" d="M.085998538-.1880951V-.21209717C.13398743-.20610047 .1789856-.17208863 .20698548-.13510132 .23799134-.09210205 .27598573 .007904053 .27598573 .24990845 .27598573 .50090029 .22399903 .5919037 .19299317 .63790896 .16799927 .6729126 .1269989 .7049103 .085998538 .71191409V.684906C.117996219 .6759033 .14898682 .6469116 .16499329 .6128998 .18699646 .5659027 .22399903 .48190309 .22399903 .24990845 .22399903-.099090579 .17199707-.13209534 .1579895-.1481018 .14099121-.16809082 .10598755-.18409729 .085998538-.1880951Z"/>
<path id="font_10_18" d="M.04499817 .001953125H.5379944L.56399539 .079940799 .5589905 .08795166H.20999146C.20399475 .08795166 .19799805 .08894348 .19599915 .092941287 .19499207 .094940189 .19599915 .09794617 .19699097 .09895325 .2539978 .1569519 .30799867 .21495056 .35899354 .27496339 .394989 .31697084 .42999269 .358963 .45799256 .40496827 .48799134 .4509735 .5119934 .49998475 .5119934 .5529938 .5119934 .59399417 .49899293 .6349945 .46499635 .66400149 .43199159 .69299319 .3880005 .7080078 .34199525 .7080078 .29899598 .7080078 .2579956 .6970062 .22099304 .67900088 .17599488 .65800479 .13699341 .6279907 .102996829 .59498599L.125 .57598879C.1519928 .59599307 .17799378 .61099246 .20999146 .6259918 .23098755 .6360016 .2559967 .6399994 .2809906 .6399994 .31399537 .6399994 .34700013 .6289978 .37098695 .6069946 .40098573 .5779877 .4079895 .5369873 .4079895 .50798037 .4079895 .4429779 .38198854 .38197328 .34298707 .3259735 .31098939 .27996827 .27198792 .23796082 .23199463 .19696045 .17199707 .13494873 .10899353 .07594299 .04499817 .017944336V.001953125Z"/>
<path id="font_10_6" d="M.022994996 .6513672C.036987306 .649353 .049987794 .6463623 .06298828 .6433563 .07199097 .6413574 .07998657 .6353607 .085998538 .62835696 .09599304 .61834719 .102996829 .60635378 .10899353 .5943451L.2579956 .29930116C.2579956 .19927979 .2579956 .0982666 .25498963-.0017547608L.2659912-.0107421879 .35598756 .018249512 .34700013 .30630494C.42999269 .4343109 .5039978 .5303345 .61499026 .675354L.61099246 .6933594 .526001 .6763611C.48999024 .619339 .4059906 .47431947 .397995 .46032716 .3849945 .4373169 .34199525 .36730958 .33898927 .3623047 .33599855 .3572998 .33198548 .353302 .32798768 .353302 .32199098 .353302 .31698609 .3592987 .31599427 .36131288L.1749878 .6863556H.02999878L.022994996 .67936709V.6513672Z"/>
<path id="font_10_21" d="M.09199524 .65625C.09298706 .65625 .1329956 .6462555 .15299988 .6412506 .16799927 .6372528 .1789856 .6252594 .1789856 .61128237 .17999268 .5543213 .18199158 .45439149 .18199158 .43940736 .18199158 .29444886 .18099976 .14831543 .17199707 .003189087L.18499756-.0058135988 .27799989 .023208619C.272995 .11929321 .272995 .21638489 .272995 .31245423 .27999879 .31245423 .2889862 .30845643 .29499818 .30345155 .32798768 .27442933 .47200013 .11128235 .57699587-.0078125L.68899539 .018203736V.02720642L.3909912 .3234558 .3939972 .33146668C.48799134 .3404541 .57899478 .3734131 .61499026 .44322206 .6329956 .47714234 .6369934 .49110414 .6369934 .53897097 .6369934 .57388308 .62098696 .6077881 .59298709 .63272097 .57299807 .6506958 .5469971 .6596985 .519989 .6667023 .48399354 .67570498 .44599916 .67871096 .40699769 .67871096L.099990848 .679245 .09298706 .6732483 .09199524 .65625M.27198792 .37045289C.27198792 .375412 .27598573 .549942 .27799989 .61376956 .2789917 .63272097 .2829895 .6397095 .2919922 .6397095H.33699037C.36799623 .6397095 .39898683 .6377106 .42999269 .63072207 .45098878 .6257324 .47299195 .61776736 .4889984 .6037903 .5119934 .5828552 .526001 .55293276 .526001 .52301028 .526001 .47813417 .5029907 .43624879 .46798707 .40533448 .43099977 .37141419 .3769989 .36044313 .32499696 .35646058 .31098939 .35546876 .29599 .35546876 .28199769 .35546876 .27398683 .35546876 .27198792 .36444093 .27198792 .37042237V.37045289Z"/>
<path id="font_10_7" d="M.04598999 .23632813H.35598756V-.07368469L.3959961-.06668091V.23632813H.70399478L.70899966 .2763214H.3959961V.58631899L.35598756 .58032229V.2763214H.052993776L.04598999 .23632813Z"/>
<path id="font_10_9" d="M.04598999 .23046875H.70399478L.70999148 .27046205H.052993776L.04598999 .23046875Z"/>
<path id="font_10_5" d="M.053985597 .65625C.054992677 .65625 .08999634 .6462555 .10798645 .6412506 .12098694 .6372528 .1309967 .6252594 .1309967 .61128237 .13198853 .5543213 .13398743 .45439149 .13398743 .43940736 .13398743 .29444886 .1329956 .14831543 .125 .003189087L.13598633-.0058135988 .21899414 .023208619C.21398926 .11929321 .21398926 .21638489 .21398926 .31245423 .21998596 .31245423 .22898865 .30845643 .23399353 .30345155 .2630005 .27442933 .3899994 .11128235 .48298646-.0078125L.58200076 .018203736V.02720642L.31900025 .3234558 .32099916 .33146668C.4039917 .3404541 .4850006 .3734131 .5169983 .44322206 .5319977 .47714234 .5359955 .49110414 .5359955 .53897097 .5359955 .57388308 .5219879 .6077881 .49699403 .63272097 .47999574 .6506958 .45700074 .6596985 .43299867 .6667023 .40098573 .67570498 .36698915 .67871096 .33299256 .67871096L.06098938 .679245 .054992677 .6732483 .053985597 .65625M.21299744 .37045289C.21299744 .375412 .21699524 .549942 .21899414 .61376956 .21998596 .63272097 .22299195 .6397095 .23098755 .6397095H.2709961C.2979889 .6397095 .32598878 .6377106 .35299684 .63072207 .37199403 .6257324 .3909912 .61776736 .40499879 .6037903 .42599488 .5828552 .43798829 .55293276 .43798829 .52301028 .43798829 .47813417 .41799928 .43624879 .3869934 .40533448 .35398866 .37141419 .30599977 .36044313 .2599945 .35646058 .24798584 .35546876 .23498535 .35546876 .22200012 .35546876 .21499634 .35546876 .21299744 .36444093 .21299744 .37042237V.37045289Z"/>
</defs>
<use data-text="G" xlink:href="#font_10_8" transform="matrix(21.519362,0,0,-21.519398,217.9061,122.01192)"/>
<use data-text="1" xlink:href="#font_10_17" transform="matrix(16.438399,0,0,-16.438426,234.37332,126.31289)"/>
<use data-text="(" xlink:href="#font_10_2" transform="matrix(21.519362,0,0,-21.519398,244.61594,122.01192)"/>
<use data-text="s" xlink:href="#font_10_3" transform="matrix(21.519362,0,0,-21.519398,254.16107,122.01192)"/>
<use data-text=")" xlink:href="#font_10_4" transform="matrix(21.519362,0,0,-21.519398,265.148,122.01192)"/>
<use data-text="G" xlink:href="#font_10_8" transform="matrix(21.519362,0,0,-21.519398,474.35786,122.01192)"/>
<use data-text="2" xlink:href="#font_10_18" transform="matrix(16.438399,0,0,-16.438426,490.82508,126.24712)"/>
<use data-text="(" xlink:href="#font_10_2" transform="matrix(21.519362,0,0,-21.519398,501.0677,122.01192)"/>
<use data-text="s" xlink:href="#font_10_3" transform="matrix(21.519362,0,0,-21.519398,510.6128,122.01192)"/>
<use data-text=")" xlink:href="#font_10_4" transform="matrix(21.519362,0,0,-21.519398,521.59976,122.01192)"/>
<path transform="matrix(1,0,0,-1,117.47943,116.63064)" stroke-width=".75" stroke-linecap="round" stroke-linejoin="round" fill="none" stroke="#000000" d="M99.83637-24.008696C101.31601-24.470112 100.17826-25.228312 99.69364-24.179106 119.57236-24.340474 136.59128-25.455536 156.15979-25.655966 171.44187-25.360117 171.78534-24.865958 171.88709-10.446175 171.50209-3.366098 171.5108 4.222201 171.81916 9.822325 170.09037 25.494809 171.44261 24.12041 155.12358 24.998257 136.76122 25.303433 118.05872 24.701575 100.20216 25.264372 85.013118 23.971665 85.06395 24.149079 85.44807 9.540706 84.85881 2.916819 85.69186-3.304972 86.070919-10.263514 85.82605-24.133748 85.335-25.049195 99.83637-24.008696Z"/>
<path transform="matrix(1,0,0,-1,117.47943,116.63064)" stroke-width=".75" stroke-linecap="round" stroke-linejoin="round" fill="none" stroke="#000000" d="M356.8145-23.98772C357.59269-24.086903 357.1738-24.059609 357.22334-25.125073 376.19966-25.813193 394.3992-25.87794 411.84367-25.077544 428.01545-25.588475 427.3885-25.88845 426.53123-10.037457 426.69218-3.231987 428.34553 2.823747 426.67835 8.970146 426.63453 25.73746 427.98817 24.094025 412.1854 25.500752 393.7338 24.765549 375.49006 24.027859 357.22859 25.11241 342.53776 25.80106 342.55964 24.604025 341.51383 9.176565 342.06068 3.954672 340.92735-3.837585 342.77864-9.519427 341.99589-24.56828 341.58848-24.512724 356.8145-23.98772Z"/>
<path transform="matrix(1,0,0,-1,117.47943,116.63064)" stroke-width=".75" stroke-linecap="round" stroke-linejoin="round" fill="none" stroke="#000000" d="M427.37873-.336483C456.05329 .070569 484.57667 .36747 512.5164-.395165"/>
<path transform="matrix(1,0,0,-1,117.47943,116.63064)" stroke-width=".75" stroke-linecap="round" stroke-linejoin="round" fill="none" stroke="#000000" d="M499.8718-8.353246C503.16328-4.165748 507.4036-.882047 512.3183 .018827 507.7922 .71722 502.8827 4.036204 499.82905 8.327644"/>
<path transform="matrix(1,0,0,-1,117.47943,116.63064)" stroke-width=".75" stroke-linecap="round" stroke-linejoin="round" fill="none" stroke="#000000" d="M101.1217-25.871678C100.454708-25.52164 99.54117-24.082655 100.4003-24.967616 118.97092-24.203402 138.02922-25.767529 156.1718-25.89816 170.362-24.235785 171.89525-24.548184 170.3341-8.983525 170.96953-3.083927 171.0281 3.447605 171.64344 10.067923 171.48152 25.08826 171.88649 25.709305 156.28813 24.409695 137.69812 25.03869 118.65356 25.341343 100.860408 24.656054 86.01666 25.8054 84.741619 24.582314 85.28886 10.256118 85.64522 2.443443 85.468578-2.708279 85.323108-9.465526 85.029918-24.746365 86.31614-25.293713 101.1217-25.871678Z"/>
<path transform="matrix(1,0,0,-1,117.47943,116.63064)" stroke-width=".75" stroke-linecap="round" stroke-linejoin="round" fill="none" stroke="#000000" d="M357.5903-24.764426C357.62104-25.714045 357.18623-24.599076 356.28767-25.707352 375.76707-24.432103 393.11915-24.767298 412.9115-24.760443 428.05113-25.549082 427.26344-24.003874 427.8953-9.408205 427.56846-3.749028 426.71858 3.481414 427.09226 10.173294 427.09748 25.409083 427.74815 24.717474 412.63438 24.00193 394.0763 25.18366 376.34263 25.913899 357.0518 25.516386 341.2427 24.541354 342.81004 24.174403 342.58937 9.022887 342.73649 3.500639 340.9974-3.030113 342.31687-10.487589 341.9198-24.612952 341.95216-24.756442 357.5903-24.764426Z"/>
<path transform="matrix(1,0,0,-1,117.47943,116.63064)" stroke-width=".75" stroke-linecap="round" stroke-linejoin="round" fill="none" stroke="#000000" d="M427.2604 .18557C455.7333 .211397 484.4636 .087648 512.10317-.379255"/>
<path transform="matrix(1,0,0,-1,117.47943,116.63064)" stroke-width=".75" stroke-linecap="round" stroke-linejoin="round" fill="none" stroke="#000000" d="M499.574-8.075227C503.10899-3.83358 507.35115-.986774 512.0815 .206073 507.24794 1.597795 502.7786 3.755687 499.47373 7.647673"/>
<path transform="matrix(1,0,0,-1,117.47943,116.63064)" stroke-width=".75" stroke-linecap="round" stroke-linejoin="round" fill="none" stroke="#000000" d="M101.22093-24.04966C100.360797-24.347828 100.39368-25.09088 100.35172-24.564303 119.199298-24.096302 136.92287-25.277907 156.02065-25.653647 171.69986-24.477549 171.96794-24.812359 170.24085-10.005001 170.36855-3.193971 171.72702 2.427107 171.82126 10.912224 171.24002 25.665928 171.81478 25.553732 155.11235 25.189415 138.21569 24.321906 119.833339 25.760394 100.14483 25.80765 86.32692 25.77702 84.82783 25.16121 84.542987 8.982788 86.02138 3.293732 85.02302-2.681859 86.28667-10.120826 85.745418-25.661259 85.59887-25.095547 101.22093-24.04966Z"/>
<path transform="matrix(1,0,0,-1,117.47943,116.63064)" stroke-width=".75" stroke-linecap="round" stroke-linejoin="round" fill="none" stroke="#000000" d="M357.4681-25.05343C356.40797-25.737475 357.70896-24.735589 356.98847-25.72236 375.23747-24.114039 393.44273-25.159623 412.11155-24.144345 427.9878-25.446959 427.4656-24.489449 427.72459-9.316353 428.41764-3.943595 427.79594 3.078863 426.6087 9.856009 428.39546 24.207346 426.55839 25.773697 412.36158 25.414259 393.4348 25.631495 375.1225 24.361165 356.64888 24.235926 341.7931 24.616694 341.21949 24.72274 341.84864 10.747362 341.13014 4.198762 341.5173-4.285944 342.34877-10.040281 341.96534-25.11256 342.02897-24.890742 357.4681-25.05343Z"/>
<path transform="matrix(1,0,0,-1,117.47943,116.63064)" stroke-width=".75" stroke-linecap="round" stroke-linejoin="round" fill="none" stroke="#000000" d="M427.57136-.056411C456.05635 .174596 484.47746-.061856 512.0821-.322071"/>
<path transform="matrix(1,0,0,-1,117.47943,116.63064)" stroke-width=".75" stroke-linecap="round" stroke-linejoin="round" fill="none" stroke="#000000" d="M499.47694-7.740151C503.30708-4.088067 507.28324-.821865 512.11367-.243978 507.41734 .831741 502.985 4.272107 499.85264 8.130603"/>
<path transform="matrix(1,0,0,-1,117.47943,116.63064)" stroke-width=".75" stroke-linecap="round" stroke-linejoin="round" fill="none" stroke="#000000" d="M99.677-24.974856C101.08239-24.633389 100.70505-24.001479 99.47334-24.111214 119.48254-25.1026 137.91233-24.819928 156.9904-25.305373 170.8669-25.683129 171.17165-24.648894 170.63799-10.0705 170.71918-3.238984 171.93495 2.607858 170.07503 10.820044 171.41603 24.475579 171.55686 25.393204 156.22542 24.929137 136.84343 25.799523 119.09915 24.605002 100.925418 24.598006 85.29863 25.628569 85.46232 24.013508 85.3191 10.469232 86.37019 3.677489 86.00102-2.745415 85.794788-10.170151 85.5289-25.85175 86.004199-25.838612 99.677-24.974856Z"/>
<path transform="matrix(1,0,0,-1,117.47943,116.63064)" stroke-width=".75" stroke-linecap="round" stroke-linejoin="round" fill="none" stroke="#000000" d="M356.2569-24.702795C357.41877-24.128983 356.15733-24.84459 357.40299-25.57075 375.7829-25.10799 394.31199-24.311852 412.27958-25.52099 428.05033-25.548598 426.88136-24.26829 427.11457-9.179189 426.54847-3.26228 426.9579 2.428607 426.93028 10.669946 427.49403 25.397242 427.9624 24.310421 411.79316 24.822844 394.9113 25.035309 374.46449 25.15066 357.3674 24.036664 342.2881 25.67299 342.77973 25.087674 342.28309 9.377276 342.014 3.925418 342.37486-3.017322 342.29515-9.771283 342.38279-24.665646 342.18806-25.231917 356.2569-24.702795Z"/>
<path transform="matrix(1,0,0,-1,117.47943,116.63064)" stroke-width=".75" stroke-linecap="round" stroke-linejoin="round" fill="none" stroke="#000000" d="M427.4915 .414601C455.86637 .011325 484.09419 .256163 512.8019-.035376"/>
<path transform="matrix(1,0,0,-1,117.47943,116.63064)" stroke-width=".75" stroke-linecap="round" stroke-linejoin="round" fill="none" stroke="#000000" d="M500.17759-8.11344C503.47447-4.153466 507.69459-1.358817 512.4612-.412539 507.3148 1.546578 503.0117 3.641716 500.23359 8.482276"/>
<path transform="matrix(1,0,0,-1,117.47943,116.63064)" stroke-width=".75" stroke-linecap="round" stroke-linejoin="round" fill="none" stroke="#000000" d="M100.77033-25.242573C100.66633-24.667407 100.82399-24.37547 99.75281-24.598916 118.61178-25.23858 137.05844-25.651894 155.83777-24.939606 170.39893-25.855269 171.85703-25.462798 170.5948-10.664866 170.98442-3.044346 171.11574 2.851473 171.53025 10.782195 171.92786 25.412186 171.7581 24.51758 156.28023 25.327893 137.82868 24.73996 119.02817 25.875523 99.618907 25.370772 86.12333 25.336342 84.949268 25.687443 85.92365 9.271397 86.047168 3.652127 85.52213-3.313128 84.60377-10.353373 85.05534-25.301466 85.4597-25.900929 100.77033-25.242573Z"/>
<path transform="matrix(1,0,0,-1,117.47943,116.63064)" stroke-width=".75" stroke-linecap="round" stroke-linejoin="round" fill="none" stroke="#000000" d="M356.44606-25.010516C356.41395-25.402726 356.59718-25.27258 357.81556-23.983914 375.01838-24.71912 393.9758-25.353293 411.91584-24.903069 427.96528-25.204882 427.4933-25.373814 427.69258-9.98316 426.93943-3.696865 428.05857 3.820941 427.65037 9.388297 427.03193 24.224043 427.52217 25.422129 412.60533 24.888112 394.07609 24.072556 374.6071 24.513325 357.2818 23.997113 341.3776 25.386498 341.57603 25.047003 342.74726 9.486413 341.28935 3.851353 342.34873-3.146004 341.22868-10.755596 342.62376-24.857913 340.91786-24.741145 356.44606-25.010516Z"/>
<path transform="matrix(1,0,0,-1,117.47943,116.63064)" stroke-width=".75" stroke-linecap="round" stroke-linejoin="round" fill="none" stroke="#000000" d="M427.4069-.433702C455.6244-.322197 484.54563 .096529 512.9391 .27152"/>
<path transform="matrix(1,0,0,-1,117.47943,116.63064)" stroke-width=".75" stroke-linecap="round" stroke-linejoin="round" fill="none" stroke="#000000" d="M499.56236-7.853373C503.19465-3.699233 507.1061-1.369913 512.7798 .211384 507.11549 .759406 503.0263 3.864382 500.2584 7.944014"/>
<path transform="matrix(1,0,0,-1,117.47943,116.63064)" stroke-width=".75" stroke-linecap="round" stroke-linejoin="round" fill="none" stroke="#000000" d="M171.4549-.206819C227.99056 .389901 284.55744-.385416 341.40007-.198431"/>
<path transform="matrix(1,0,0,-1,117.47943,116.63064)" stroke-width=".75" stroke-linecap="round" stroke-linejoin="round" fill="none" stroke="#000000" d="M328.67036-7.984143C331.88078-3.722151 336.36189-1.603572 341.36589-.117936 336.16996 1.406033 331.91908 4.199522 328.81385 8.125697"/>
<path transform="matrix(1,0,0,-1,117.47943,116.63064)" stroke-width=".75" stroke-linecap="round" stroke-linejoin="round" fill="none" stroke="#000000" d="M170.72806 .341127C227.74202-.360886 284.70066-.380577 341.67347-.327475"/>
<path transform="matrix(1,0,0,-1,117.47943,116.63064)" stroke-width=".75" stroke-linecap="round" stroke-linejoin="round" fill="none" stroke="#000000" d="M329.1405-7.763566C331.76853-4.05081 336.73335-1.098627 341.66609 .050576 336.923 1.596335 331.7974 4.235606 328.4688 7.837947"/>
<path transform="matrix(1,0,0,-1,117.47943,116.63064)" stroke-width=".75" stroke-linecap="round" stroke-linejoin="round" fill="none" stroke="#000000" d="M170.9495-.071634C227.98339-.280793 284.65544 .343184 341.3629-.330083"/>
<path transform="matrix(1,0,0,-1,117.47943,116.63064)" stroke-width=".75" stroke-linecap="round" stroke-linejoin="round" fill="none" stroke="#000000" d="M328.442-8.267161C332.1332-4.387324 336.7314-1.198147 341.28706-.183233 336.42475 1.35353 331.94697 4.249532 329.11686 8.097943"/>
<path transform="matrix(1,0,0,-1,117.47943,116.63064)" stroke-width=".75" stroke-linecap="round" stroke-linejoin="round" fill="none" stroke="#000000" d="M171.4372 .045105C228.13625 .391547 284.6244 .339852 341.4697 .041973"/>
<path transform="matrix(1,0,0,-1,117.47943,116.63064)" stroke-width=".75" stroke-linecap="round" stroke-linejoin="round" fill="none" stroke="#000000" d="M328.62013-8.317629C331.62858-3.729516 336.06849-.767955 341.51875-.18571 336.86705 1.126822 332.21134 3.819071 329.2583 8.204454"/>
<path transform="matrix(1,0,0,-1,117.47943,116.63064)" stroke-width=".75" stroke-linecap="round" stroke-linejoin="round" fill="none" stroke="#000000" d="M170.6908-.319198C227.77602-.334781 284.60704 .201446 341.77824 .251159"/>
<path transform="matrix(1,0,0,-1,117.47943,116.63064)" stroke-width=".75" stroke-linecap="round" stroke-linejoin="round" fill="none" stroke="#000000" d="M329.2918-8.187721C331.6739-3.842102 336.23396-1.595062 341.3189 .325255 336.81068 1.208947 332.15547 4.0655 328.70167 7.665948"/>
<use data-text="Y" xlink:href="#font_10_6" transform="matrix(21.519532,0,0,-21.519398,634.4943,122.01192)"/>
<use data-text="R" xlink:href="#font_10_21" transform="matrix(16.438527,0,0,-16.438426,646.4413,125.77035)"/>
<use data-text="(" xlink:href="#font_10_2" transform="matrix(21.519532,0,0,-21.519398,658.7391,122.01192)"/>
<use data-text="s" xlink:href="#font_10_3" transform="matrix(21.519532,0,0,-21.519398,668.28427,122.01192)"/>
<use data-text=")" xlink:href="#font_10_4" transform="matrix(21.519532,0,0,-21.519398,679.27127,122.01192)"/>
<use data-text="+" xlink:href="#font_10_7" transform="matrix(37.185197,0,0,-37.18505,103.43995,126.15144)"/>
<path transform="matrix(1,0,0,-1,117.47943,116.63063)" stroke-width=".75" stroke-linecap="round" stroke-linejoin="round" fill="none" stroke="#000000" d="M20.737782-.151115C20.714394 11.977902 11.415668 22.475996 .28287 21.086287-12.737733 22.194792-21.271294 12.555331-22.010712 .779699-22.310868-12.660755-12.662461-22.268313 .447715-21.309203 11.48075-21.383059 21.089013-12.168389 20.737782-.151115Z"/>
<path transform="matrix(1,0,0,-1,117.47943,116.63063)" stroke-width=".75" stroke-linecap="round" stroke-linejoin="round" fill="none" stroke="#000000" d="M-64.51216-.084652C-49.826208 .165206-35.784 .225349-21.628476 .095069"/>
<path transform="matrix(1,0,0,-1,117.47943,116.63063)" stroke-width=".75" stroke-linecap="round" stroke-linejoin="round" fill="none" stroke="#000000" d="M-34.90912-7.73531C-31.081324-4.314634-26.777062-1.263626-22.103642 .068549-26.922186 1.073768-31.100628 3.975502-34.30719 7.671536"/>
<path transform="matrix(1,0,0,-1,117.47943,116.63063)" stroke-width=".75" stroke-linecap="round" stroke-linejoin="round" fill="none" stroke="#000000" d="M22.034174 .200631C43.15737-.378157 63.92523 .081864 85.2055-.261401"/>
<path transform="matrix(1,0,0,-1,117.47943,116.63063)" stroke-width=".75" stroke-linecap="round" stroke-linejoin="round" fill="none" stroke="#000000" d="M72.403179-7.653899C75.152667-4.195444 79.94981-1.014304 84.71722 .42772 80.41184 1.51937 75.97418 3.601279 72.092098 7.956353"/>
<path transform="matrix(1,0,0,-1,117.47943,116.63063)" stroke-width=".75" stroke-linecap="round" stroke-linejoin="round" fill="none" stroke="#000000" d="M469.93186 .107337C470.24638-22.628207 469.61964-45.202745 469.96525-67.6248 356.13276-67.80596 242.01868-67.8955 128.03559-67.058 85.10819-67.44848 42.610914-67.540348-.342093-67.38588-.242422-52.63723-.264792-36.893976 .314092-21.962344"/>
<path transform="matrix(1,0,0,-1,117.47943,116.63063)" stroke-width=".75" stroke-linecap="round" stroke-linejoin="round" fill="none" stroke="#000000" d="M8.27303-34.461896C4.020107-31.478281 1.568621-26.663403-.32122-21.91196-1.427293-26.602263-3.579195-31.69352-8.169113-34.689855"/>
<path transform="matrix(1,0,0,-1,117.47943,116.63063)" stroke-width=".75" stroke-linecap="round" stroke-linejoin="round" fill="none" stroke="#000000" d="M21.498822 .913979C22.480437 12.052071 12.650488 21.350642-.588487 20.93748-12.67673 21.038868-22.09497 12.226598-21.967938-.419828-22.20613-11.758989-12.847037-22.307805 .306276-21.777108 11.560424-21.824879 21.136128-10.98385 21.498822 .913979Z"/>
<path transform="matrix(1,0,0,-1,117.47943,116.63063)" stroke-width=".75" stroke-linecap="round" stroke-linejoin="round" fill="none" stroke="#000000" d="M-64.356128-.448627C-49.929994-.446833-35.841787 .273387-22.141938-.044229"/>
<path transform="matrix(1,0,0,-1,117.47943,116.63063)" stroke-width=".75" stroke-linecap="round" stroke-linejoin="round" fill="none" stroke="#000000" d="M-34.830396-7.649685C-31.496966-3.999603-26.736302-1.106375-22.329003 .069023-27.38736 1.269616-31.572802 3.938017-34.94972 8.233623"/>
<path transform="matrix(1,0,0,-1,117.47943,116.63063)" stroke-width=".75" stroke-linecap="round" stroke-linejoin="round" fill="none" stroke="#000000" d="M21.47513-.271928C43.186536 .357903 63.8886 .380422 85.48536 .104266"/>
<path transform="matrix(1,0,0,-1,117.47943,116.63063)" stroke-width=".75" stroke-linecap="round" stroke-linejoin="round" fill="none" stroke="#000000" d="M72.36784-8.451728C75.75859-3.719919 80.46957-1.57036 85.42407-.443774 79.959857 1.184955 75.76351 3.569494 72.064548 8.222076"/>
<path transform="matrix(1,0,0,-1,117.47943,116.63063)" stroke-width=".75" stroke-linecap="round" stroke-linejoin="round" fill="none" stroke="#000000" d="M470.02546 .381768C470.141-22.642775 469.60417-44.91503 469.62709-67.843547 356.2685-67.865619 242.58415-67.5134 128.56787-67.51688 85.17172-67.71114 42.98437-67.01852-.083672-67.70199 .132207-52.38173 .031847-37.049039-.445054-21.885857"/>
<path transform="matrix(1,0,0,-1,117.47943,116.63063)" stroke-width=".75" stroke-linecap="round" stroke-linejoin="round" fill="none" stroke="#000000" d="M7.658272-35.063035C4.44671-31.41125 1.179261-27.305613-.186015-21.590893-1.102184-27.14889-4.430652-31.66244-7.656864-34.47497"/>
<path transform="matrix(1,0,0,-1,117.47943,116.63063)" stroke-width=".75" stroke-linecap="round" stroke-linejoin="round" fill="none" stroke="#000000" d="M21.554808-.032773C21.501906 12.574683 12.481182 21.219855-.588731 21.999968-12.311731 20.73022-22.37396 12.341994-22.509072-.458411-22.266465-12.908666-12.012515-21.36588-.865819-21.930684 11.252466-20.72227 21.82344-11.640974 21.554808-.032773Z"/>
<path transform="matrix(1,0,0,-1,117.47943,116.63063)" stroke-width=".75" stroke-linecap="round" stroke-linejoin="round" fill="none" stroke="#000000" d="M-63.92207-.087027C-50.327894-.335129-35.81822 .017198-21.58368 .211608"/>
<path transform="matrix(1,0,0,-1,117.47943,116.63063)" stroke-width=".75" stroke-linecap="round" stroke-linejoin="round" fill="none" stroke="#000000" d="M-34.87535-8.327098C-31.177308-3.59867-26.994776-1.588417-22.40751 .039822-26.769795 .738872-31.925755 3.781371-34.876104 7.770513"/>
<path transform="matrix(1,0,0,-1,117.47943,116.63063)" stroke-width=".75" stroke-linecap="round" stroke-linejoin="round" fill="none" stroke="#000000" d="M21.95541 .022428C42.39892 .290981 64.01692 .16593 84.95457 .382563"/>
<path transform="matrix(1,0,0,-1,117.47943,116.63063)" stroke-width=".75" stroke-linecap="round" stroke-linejoin="round" fill="none" stroke="#000000" d="M72.78969-7.925545C75.18842-3.899624 80.03424-.886034 84.793498-.279557 79.974979 1.220122 75.13327 4.020481 72.18597 8.173205"/>
<path transform="matrix(1,0,0,-1,117.47943,116.63063)" stroke-width=".75" stroke-linecap="round" stroke-linejoin="round" fill="none" stroke="#000000" d="M469.63569 .133437C470.10124-22.465403 469.7631-45.111078 469.88685-67.22617 356.16688-67.88558 242.3898-67.69769 128.40235-67.732959 85.32404-67.334178 42.633619-67.7665-.073423-67.33678-.331758-52.48068-.222133-37.278314-.155048-22.264496"/>
<path transform="matrix(1,0,0,-1,117.47943,116.63063)" stroke-width=".75" stroke-linecap="round" stroke-linejoin="round" fill="none" stroke="#000000" d="M8.368237-34.499898C3.607732-31.129534 1.264644-26.86973-.38007-22.219275-.852755-27.45465-3.591599-31.757012-7.627606-35.076669"/>
<path transform="matrix(1,0,0,-1,117.47943,116.63063)" stroke-width=".75" stroke-linecap="round" stroke-linejoin="round" fill="none" stroke="#000000" d="M22.166642-.315305C22.571894 11.213164 12.245668 21.995593-.839686 21.298548-11.31954 22.252917-22.257935 11.524335-20.90734 .907297-22.373019-12.036166-12.761904-21.15451-.66933-20.893042 12.446619-20.716259 21.369746-12.848909 22.166642-.315305Z"/>
<path transform="matrix(1,0,0,-1,117.47943,116.63063)" stroke-width=".75" stroke-linecap="round" stroke-linejoin="round" fill="none" stroke="#000000" d="M-63.757585-.190805C-50.412309-.245575-35.787126 .136854-21.87928-.402598"/>
<path transform="matrix(1,0,0,-1,117.47943,116.63063)" stroke-width=".75" stroke-linecap="round" stroke-linejoin="round" fill="none" stroke="#000000" d="M-34.67249-8.013061C-31.716473-3.834533-27.015856-1.181942-21.63843-.084892-26.97366 1.371497-31.894026 3.789417-34.75586 8.315849"/>
<path transform="matrix(1,0,0,-1,117.47943,116.63063)" stroke-width=".75" stroke-linecap="round" stroke-linejoin="round" fill="none" stroke="#000000" d="M21.272639 .205307C42.81709-.238665 64.034587-.421667 85.02829 .129478"/>
<path transform="matrix(1,0,0,-1,117.47943,116.63063)" stroke-width=".75" stroke-linecap="round" stroke-linejoin="round" fill="none" stroke="#000000" d="M72.12481-7.676688C75.87674-3.990452 80.37325-1.208248 84.954448-.319344 80.46286 .818305 75.27055 3.997708 72.83431 7.690969"/>
<path transform="matrix(1,0,0,-1,117.47943,116.63063)" stroke-width=".75" stroke-linecap="round" stroke-linejoin="round" fill="none" stroke="#000000" d="M470.4073 .12886C469.72084-22.28744 470.42085-45.156949 470.35057-67.63203 355.943-67.45038 242.514-67.17847 128.60428-67.62602 85.49987-67.44023 43.089704-67.62569-.146502-67.01785 .236616-52.41988 .370313-37.280626-.306978-21.712908"/>
<path transform="matrix(1,0,0,-1,117.47943,116.63063)" stroke-width=".75" stroke-linecap="round" stroke-linejoin="round" fill="none" stroke="#000000" d="M7.757587-34.32674C3.738326-31.576037 1.013156-27.215266 .136101-21.950709-1.509164-27.369069-4.019102-31.680253-8.12095-34.8374"/>
<path transform="matrix(1,0,0,-1,117.47943,116.63063)" stroke-width=".75" stroke-linecap="round" stroke-linejoin="round" fill="none" stroke="#000000" d="M21.257632 .69708C22.05888 12.401954 11.027775 21.840634-.174313 22.190999-11.249099 22.180947-20.972266 12.732294-21.629763 .345454-22.16102-11.215685-11.193187-22.306038 .446808-22.333985 11.869263-21.60861 21.588267-12.002101 21.257632 .69708Z"/>
<path transform="matrix(1,0,0,-1,117.47943,116.63063)" stroke-width=".75" stroke-linecap="round" stroke-linejoin="round" fill="none" stroke="#000000" d="M-63.77604-.299492C-50.349557 .241551-36.04603-.205187-22.07692-.44265"/>
<path transform="matrix(1,0,0,-1,117.47943,116.63063)" stroke-width=".75" stroke-linecap="round" stroke-linejoin="round" fill="none" stroke="#000000" d="M-34.466577-7.700138C-31.17163-4.348103-27.473845-.941734-22.39667-.247794-26.858792 1.441191-31.189295 3.59413-34.49044 8.443295"/>
<path transform="matrix(1,0,0,-1,117.47943,116.63063)" stroke-width=".75" stroke-linecap="round" stroke-linejoin="round" fill="none" stroke="#000000" d="M21.916392 .095612C42.43307 .221421 64.22003 .071561 85.039608 .310809"/>
<path transform="matrix(1,0,0,-1,117.47943,116.63063)" stroke-width=".75" stroke-linecap="round" stroke-linejoin="round" fill="none" stroke="#000000" d="M72.13113-8.496624C75.79882-4.283555 80.16469-1.294175 84.637569 .197807 79.629459 1.294395 75.267169 3.803104 72.13723 8.184345"/>
<path transform="matrix(1,0,0,-1,117.47943,116.63063)" stroke-width=".75" stroke-linecap="round" stroke-linejoin="round" fill="none" stroke="#000000" d="M469.7413 .362099C469.81547-22.49439 470.00453-45.29725 469.84767-67.676158 355.76954-67.388248 242.51157-67.63531 128.51715-67.75484 85.121349-67.64644 43.13801-67.89616 .371654-67.304409 .219304-52.046884-.259318-37.290437 .304147-21.59554"/>
<path transform="matrix(1,0,0,-1,117.47943,116.63063)" stroke-width=".75" stroke-linecap="round" stroke-linejoin="round" fill="none" stroke="#000000" d="M7.908328-35.044214C3.572065-31.461747 1.16791-26.959008 .106542-21.9062-1.286428-26.781939-4.403904-31.368266-8.174656-34.43525"/>
<use data-text="+" xlink:href="#font_10_7" transform="matrix(21.519354,0,0,-21.519316,79.42961,108.8878)"/>
<use data-text="&#x2212;" xlink:href="#font_10_9" transform="matrix(21.519371,0,0,-21.519288,123.62934,147.24057)"/>
<use data-text="R" xlink:href="#font_10_5" transform="matrix(21.5195,0,0,-21.519398,6.814316,122.01192)"/>
<use data-text="(" xlink:href="#font_10_2" transform="matrix(21.5195,0,0,-21.519398,19.919693,122.01192)"/>
<use data-text="s" xlink:href="#font_10_3" transform="matrix(21.5195,0,0,-21.519398,29.464882,122.01192)"/>
<use data-text=")" xlink:href="#font_10_4" transform="matrix(21.5195,0,0,-21.519398,40.451879,122.01192)"/>
</svg>
