<svg xmlns="http://www.w3.org/2000/svg" xmlns:xlink="http://www.w3.org/1999/xlink" xmlns:inkscape="http://www.inkscape.org/namespaces/inkscape" version="1.1" width="416.2663" height="334.39933" viewBox="0 0 416.2663 334.39933">
<defs>
<path id="font_4_7" d="M.04598999 .23632813H.35598756V-.07368469L.3959961-.06668091V.23632813H.70399478L.70899966 .2763214H.3959961V.58631899L.35598756 .58032229V.2763214H.052993776L.04598999 .23632813Z"/>
<path id="font_4_8" d="M.08999634 .32458497C.08999634 .22958374 .114990238 .13148499 .18299866 .06341553 .23699951 .009384155 .31199647-.016601563 .3880005-.016601563 .46099855-.016601563 .56900027 .010391235 .6569977 .03338623 .6569977 .03338623 .6539917 .216568 .6519928 .30760194L.37599183 .2966156V.27061463L.38198854 .265625C.43598939 .26361085 .5 .25961305 .5439911 .25660707 .57199099 .25460816 .57199099 .22257996 .57199099 .13449097 .57199099 .061416627 .56900027 .04940796 .5519867 .045394899 .5209961 .038391115 .48999024 .03538513 .45799256 .03538513 .37998963 .03538513 .30599977 .060409547 .2619934 .112472537 .20399475 .18052674 .17999268 .25260926 .17999268 .3405609 .17999268 .48339845 .23199463 .5653076 .26098634 .5942688 .3039856 .63623049 .36299134 .6502075 .42199708 .6502075 .5529938 .6502075 .59298709 .5563202 .60598757 .53034976L.6179962 .5293579 .6759949 .58628848C.6649933 .6032715 .6119995 .69921877 .46699525 .69921877 .3619995 .69921877 .25698854 .6682129 .18199158 .593277 .11199951 .5233612 .08999634 .4224701 .08999634 .32458497Z"/>
<path id="font_4_2" d="M.11299133 .24990845C.11299133 .007904053 .1519928-.09008789 .18299866-.13310242 .21099854-.17008972 .25299073-.20809937 .30099488-.21209717V-.1880951C.2809906-.18409729 .25099183-.16809082 .23399353-.1481018 .21998596-.13209534 .16499329-.05809021 .16499329 .24990845 .16499329 .4618988 .19799805 .5659027 .21998596 .6128998 .23599243 .6469116 .2689972 .6769104 .30099488 .684906V.71191409C.2599945 .7049103 .21598816 .6729126 .19099427 .63790896 .1599884 .5919037 .11299133 .4748993 .11299133 .24990845Z"/>
<path id="font_4_3" d="M.051986696 .06642151C.06199646 .047409059 .07598877 .030395508 .09199524 .01638794 .12098694-.009613037 .16099549-.016601563 .19898987-.016601563 .2559967-.016601563 .31199647 .0023956299 .35099793 .044403078 .375 .06941223 .3869934 .10343933 .3869934 .13845825 .3869934 .1634674 .37298585 .18649292 .35499574 .20449829 .34098817 .21850586 .3039856 .24052429 .27198792 .25453187 .24299622 .26654054 .19999695 .2885437 .18798828 .30055238 .17298889 .31655885 .1619873 .3285675 .1619873 .35058595 .1619873 .3725891 .16899109 .39360047 .18499756 .4086151 .19999695 .42362977 .22200012 .43164063 .24398804 .43164063 .2639923 .43164063 .2849884 .42462159 .29599 .4066162 .30599977 .39060975 .30799867 .3715973 .30899049 .35359193L.32099916 .34657289 .37599183 .38360597C.375 .40560914 .3639984 .42662049 .34799195 .44163514 .32499696 .46263124 .29299928 .46662904 .2630005 .46662904 .21398926 .46662904 .16699219 .45063783 .1309967 .4176178 .10398865 .39360047 .08999634 .35858155 .08999634 .32356263 .08999634 .29154969 .10798645 .26353456 .1309967 .2425232 .1539917 .22250366 .18399048 .2084961 .21499634 .1954956 .24099732 .18447876 .2689972 .17248535 .28799439 .1534729 .30299378 .13845825 .31399537 .11845398 .31399537 .09744263 .31399537 .079422 .30499269 .062408449 .29299928 .04940796 .27799989 .03340149 .25099183 .021392823 .22898865 .021392823 .19898987 .021392823 .17199707 .03439331 .1499939 .055404664 .1269989 .076416019 .116989139 .10644531 .114990238 .13645935L.100997928 .13745117 .051986696 .06642151Z"/>
<path id="font_4_4" d="M.085998538-.1880951V-.21209717C.13398743-.20610047 .1789856-.17208863 .20698548-.13510132 .23799134-.09210205 .27598573 .007904053 .27598573 .24990845 .27598573 .50090029 .22399903 .5919037 .19299317 .63790896 .16799927 .6729126 .1269989 .7049103 .085998538 .71191409V.684906C.117996219 .6759033 .14898682 .6469116 .16499329 .6128998 .18699646 .5659027 .22399903 .48190309 .22399903 .24990845 .22399903-.099090579 .17199707-.13209534 .1579895-.1481018 .14099121-.16809082 .10598755-.18409729 .085998538-.1880951Z"/>
<path id="font_4_15" d="M.051986696 .6781769 .052993776 .6591797C.07299805 .65216067 .10899353 .6411438 .11299133 .6401367 .12298584 .6361389 .125 .6251221 .12599182 .6161041 .1309967 .53297427 .13198853 .44985963 .13198853 .36676026 .13198853 .24482727 .13198853 .11590576 .12199402 .0029907227L.12799073-.0020141602 .21998596 .025970459C.21699524 .051956178 .21499634 .10292053 .21499634 .1798706V.33377076C.21499634 .34075929 .22099304 .34576417 .22799683 .34576417H.57099917C.5799866 .34576417 .58299258 .33876039 .58299258 .33377076 .58299258 .23683167 .5799866 .11790466 .5779877 .020980835L.58898928 0 .73799136 .0078125 .74398806 .013809204 .7429962 .031799318C.72499087 .03981018 .66600039 .03981018 .66600039 .07879639 .66600039 .09979248 .6619873 .24076844 .6619873 .32176209 .6619873 .5129547 .66999819 .64515689 .6729889 .6841736L.66799929 .6901703 .5799866 .673172C.5799866 .58706668 .58299258 .48291017 .58299258 .3967743 .58299258 .39076234 .58200076 .38476563 .57099917 .38476563H.22499085C.21499634 .38476563 .21299744 .3917694 .21299744 .3967743 .21299744 .4618683 .21699524 .54600527 .21899414 .61109927 .21998596 .63414 .22200012 .6581726 .22599793 .6801758L.22099304 .6851654H.05899048L.051986696 .6781769Z"/>
<path id="font_4_9" d="M.04598999 .23046875H.70399478L.70999148 .27046205H.052993776L.04598999 .23046875Z"/>
<path id="font_4_13" d="M.09199524 .6121063H.1749878C.19999695 .6121063 .21998596 .5911102 .22099304 .56611636 .22200012 .5411072 .22200012 .46810914 .22200012 .41911317 .22200012 .27911378 .21899414 .13911438 .21398926 .00010681152L.22599793-.0048828127 .30999757 .022109986C.30699159 .09811401 .30699159 .29611207 .30699159 .43211366 .30699159 .52111819 .30899049 .6111145 .31399537 .70010378L.30799867 .7121124 .09199524 .6391144V.6121063Z"/>
<path id="font_4_5" d="M.053985597 .65625C.054992677 .65625 .08999634 .6462555 .10798645 .6412506 .12098694 .6372528 .1309967 .6252594 .1309967 .61128237 .13198853 .5543213 .13398743 .45439149 .13398743 .43940736 .13398743 .29444886 .1329956 .14831543 .125 .003189087L.13598633-.0058135988 .21899414 .023208619C.21398926 .11929321 .21398926 .21638489 .21398926 .31245423 .21998596 .31245423 .22898865 .30845643 .23399353 .30345155 .2630005 .27442933 .3899994 .11128235 .48298646-.0078125L.58200076 .018203736V.02720642L.31900025 .3234558 .32099916 .33146668C.4039917 .3404541 .4850006 .3734131 .5169983 .44322206 .5319977 .47714234 .5359955 .49110414 .5359955 .53897097 .5359955 .57388308 .5219879 .6077881 .49699403 .63272097 .47999574 .6506958 .45700074 .6596985 .43299867 .6667023 .40098573 .67570498 .36698915 .67871096 .33299256 .67871096L.06098938 .679245 .054992677 .6732483 .053985597 .65625M.21299744 .37045289C.21299744 .375412 .21699524 .549942 .21899414 .61376956 .21998596 .63272097 .22299195 .6397095 .23098755 .6397095H.2709961C.2979889 .6397095 .32598878 .6377106 .35299684 .63072207 .37199403 .6257324 .3909912 .61776736 .40499879 .6037903 .42599488 .5828552 .43798829 .55293276 .43798829 .52301028 .43798829 .47813417 .41799928 .43624879 .3869934 .40533448 .35398866 .37141419 .30599977 .36044313 .2599945 .35646058 .24798584 .35546876 .23498535 .35546876 .22200012 .35546876 .21499634 .35546876 .21299744 .36444093 .21299744 .37042237V.37045289Z"/>
<path id="font_4_6" d="M.022994996 .6513672C.036987306 .649353 .049987794 .6463623 .06298828 .6433563 .07199097 .6413574 .07998657 .6353607 .085998538 .62835696 .09599304 .61834719 .102996829 .60635378 .10899353 .5943451L.2579956 .29930116C.2579956 .19927979 .2579956 .0982666 .25498963-.0017547608L.2659912-.0107421879 .35598756 .018249512 .34700013 .30630494C.42999269 .4343109 .5039978 .5303345 .61499026 .675354L.61099246 .6933594 .526001 .6763611C.48999024 .619339 .4059906 .47431947 .397995 .46032716 .3849945 .4373169 .34199525 .36730958 .33898927 .3623047 .33599855 .3572998 .33198548 .353302 .32798768 .353302 .32199098 .353302 .31698609 .3592987 .31599427 .36131288L.1749878 .6863556H.02999878L.022994996 .67936709V.6513672Z"/>
</defs>
<use data-text="+" xlink:href="#font_4_7" transform="matrix(37.185197,0,0,-37.18505,103.05142,42.597078)"/>
<use data-text="G" xlink:href="#font_4_8" transform="matrix(21.51903,0,0,-21.519398,217.51706,38.45752)"/>
<use data-text="(" xlink:href="#font_4_2" transform="matrix(21.51903,0,0,-21.519398,233.97913,38.45752)"/>
<use data-text="s" xlink:href="#font_4_3" transform="matrix(21.51903,0,0,-21.519398,243.52411,38.45752)"/>
<use data-text=")" xlink:href="#font_4_4" transform="matrix(21.51903,0,0,-21.519398,254.51087,38.45752)"/>
<use data-text="H" xlink:href="#font_4_15" transform="matrix(21.519108,0,0,-21.519398,217.32334,130.86594)"/>
<use data-text="(" xlink:href="#font_4_2" transform="matrix(21.519108,0,0,-21.519398,234.17282,130.86594)"/>
<use data-text="s" xlink:href="#font_4_3" transform="matrix(21.519108,0,0,-21.519398,243.71784,130.86594)"/>
<use data-text=")" xlink:href="#font_4_4" transform="matrix(21.519108,0,0,-21.519398,254.70465,130.86594)"/>
<use data-text="&#x2212;" xlink:href="#font_4_9" transform="matrix(21.519242,0,0,-21.519217,226.68778,223.2744)"/>
<use data-text="1" xlink:href="#font_4_13" transform="matrix(21.519242,0,0,-21.519217,242.95633,223.2744)"/>
<use data-text="1" xlink:href="#font_4_13" transform="matrix(21.519234,0,0,-21.519217,234.8244,311.22703)"/>
<path transform="matrix(1,0,0,-1,117.09091,33.076295)" stroke-width=".75" stroke-linecap="round" stroke-linejoin="round" fill="none" stroke="#000000" d="M100.06096-24.690377C101.06472-25.232819 99.75358-24.471262 99.65074-25.236483 116.29425-24.18084 130.86699-24.401875 146.5428-25.569788 160.22269-25.626288 160.36174-24.379363 160.5024-10.551269 161.71076-3.773623 161.75405 2.611868 160.51409 9.603643 161.13375 24.970303 160.32097 25.794505 145.05228 25.8526 129.79796 25.048537 116.46287 25.624138 100.49303 25.887293 86.18212 24.49409 84.545978 24.194622 84.96815 10.042319 85.812839 3.586681 86.00268-2.446454 84.9462-10.218631 86.307727-24.858187 85.79676-25.911307 100.06096-24.690377Z"/>
<path transform="matrix(1,0,0,-1,117.09091,33.076295)" stroke-width=".75" stroke-linecap="round" stroke-linejoin="round" fill="none" stroke="#000000" d="M100.96916-117.44808C100.146678-117.09269 99.606578-116.860088 100.45726-118.07784 115.310619-116.72794 131.14952-118.24158 145.18033-117.89215 160.39192-116.83273 161.00678-117.38084 160.14678-103.06595 160.85054-95.13924 160.6588-88.24668 161.17562-82.94425 160.66805-67.146907 161.59395-67.092029 146.16345-66.61379 131.24492-67.955188 115.97177-66.628177 101.12823-68.068698 85.04898-66.856098 85.44948-68.118068 85.75602-82.86071 84.26378-89.015857 85.99411-96.10143 85.64825-102.269908 85.76976-117.341968 84.59533-118.021839 100.96916-117.44808Z"/>
<path transform="matrix(1,0,0,-1,117.09091,33.076295)" stroke-width=".75" stroke-linecap="round" stroke-linejoin="round" fill="none" stroke="#000000" d="M108.66708-205.28487C108.699-205.96872 109.67291-204.58263 109.728618-206.12589 118.20324-204.49716 127.59669-204.3973 135.95256-205.33124 152.39345-205.19069 151.71379-204.41663 150.95063-189.8047 152.26204-185.13269 151.492-179.86331 151.30467-174.33441 151.48761-160.66416 151.6955-159.2825 136.15067-158.90393 128.02732-159.27098 117.8073-160.74137 109.735309-159.85202 94.765918-159.26454 94.08769-159.6382 93.798549-175.47057 94.16061-180.78639 94.15489-185.89723 94.66034-189.40009 95.141689-204.89014 93.84891-205.17156 108.66708-205.28487Z"/>
<path transform="matrix(1,0,0,-1,117.09091,33.076295)" stroke-width=".75" stroke-linecap="round" stroke-linejoin="round" fill="none" stroke="#000000" d="M118.3321-293.29353C117.138599-292.55665 117.78275-293.54374 118.687168-292.81599 121.43585-292.65055 124.30354-292.67967 128.99813-292.84846 142.51509-293.05128 142.9278-292.9139 143.13622-277.66548 144.31183-274.08494 143.93373-268.40205 142.59555-261.96867 143.25214-248.61173 143.01581-247.15778 128.59737-247.31609 124.701908-248.79651 121.487148-248.36562 118.58209-248.76763 101.82952-247.54308 103.00264-247.99308 103.042438-262.8134 101.80671-268.3805 102.558-272.17723 102.01538-279.0699 102.400119-292.59724 103.32887-293.1377 118.3321-293.29353Z"/>
<path transform="matrix(1,0,0,-1,117.09091,33.076295)" stroke-width=".75" stroke-linecap="round" stroke-linejoin="round" fill="none" stroke="#000000" d="M21.540209 .272393C22.080567 11.553701 11.472423 22.293467 .234779 22.184086-11.433179 22.611195-21.614785 12.486047-22.140666 .409175-22.025147-11.001286-11.990531-21.601298-.17429-22.131468 12.418744-21.898941 22.527337-12.553985 21.540209 .272393Z"/>
<path transform="matrix(1,0,0,-1,117.09091,33.076295)" stroke-width=".75" stroke-linecap="round" stroke-linejoin="round" fill="none" stroke="#000000" d="M-63.545614 .19553C-49.783098-.288299-35.562994 .349171-21.70206 .065519"/>
<path transform="matrix(1,0,0,-1,117.09091,33.076295)" stroke-width=".75" stroke-linecap="round" stroke-linejoin="round" fill="none" stroke="#000000" d="M-34.472105-8.4753C-31.56368-3.93643-26.716618-.958231-21.290492-.328979-26.25388 .754463-31.077509 3.869435-34.271238 8.174887"/>
<path transform="matrix(1,0,0,-1,117.09091,33.076295)" stroke-width=".75" stroke-linecap="round" stroke-linejoin="round" fill="none" stroke="#000000" d="M22.035805 .148713C43.11457-.145748 63.86236 .180213 85.32394-.360045"/>
<path transform="matrix(1,0,0,-1,117.09091,33.076295)" stroke-width=".75" stroke-linecap="round" stroke-linejoin="round" fill="none" stroke="#000000" d="M72.11179-8.154968C75.917278-3.595542 80.09336-1.334368 85.35916-.225403 80.09165 1.587652 75.14927 3.979757 72.25779 8.039408"/>
<path transform="matrix(1,0,0,-1,117.09091,33.076295)" stroke-width=".75" stroke-linecap="round" stroke-linejoin="round" fill="none" stroke="#000000" d="M160.65541 .150099C189.25504-.015167 217.55074 .282634 245.39839 .025161"/>
<path transform="matrix(1,0,0,-1,117.09091,33.076295)" stroke-width=".75" stroke-linecap="round" stroke-linejoin="round" fill="none" stroke="#000000" d="M233.3132-8.148834C236.57036-4.134466 240.67-1.439891 246.17777 .069329 241.0778 1.244248 236.00875 3.624138 232.97487 7.742039"/>
<path transform="matrix(1,0,0,-1,117.09091,33.076295)" stroke-width=".75" stroke-linecap="round" stroke-linejoin="round" fill="none" stroke="#000000" d="M203.28853 .348566C203.33818-31.033436 203.07674-61.260198 202.86107-92.83712 189.46694-91.991718 175.10962-92.30176 161.25402-92.5914"/>
<path transform="matrix(1,0,0,-1,117.09091,33.076295)" stroke-width=".75" stroke-linecap="round" stroke-linejoin="round" fill="none" stroke="#000000" d="M173.653-84.67085C170.29846-88.34048 165.7572-91.14051 160.80785-92.13918 166.09786-93.958599 170.62268-96.82583 173.21489-100.60996"/>
<path transform="matrix(1,0,0,-1,117.09091,33.076295)" stroke-width=".75" stroke-linecap="round" stroke-linejoin="round" fill="none" stroke="#000000" d="M202.96631-.244901C203.1426-60.70636 203.34864-121.292339 203.39797-182.39426 186.39868-182.59455 168.63454-182.8561 151.63031-182.96579"/>
<path transform="matrix(1,0,0,-1,117.09091,33.076295)" stroke-width=".75" stroke-linecap="round" stroke-linejoin="round" fill="none" stroke="#000000" d="M164.52918-174.81349C160.76006-178.7711 156.65935-181.4965 151.75029-182.62932 156.40694-183.59369 161.24501-186.78704 164.5934-191.02558"/>
<path transform="matrix(1,0,0,-1,117.09091,33.076295)" stroke-width=".75" stroke-linecap="round" stroke-linejoin="round" fill="none" stroke="#000000" d="M203.7427-.261005C203.13439-90.37713 202.86197-180.02745 203.49335-270.3158 183.66791-270.93449 163.33542-270.9558 143.37004-270.34629"/>
<path transform="matrix(1,0,0,-1,117.09091,33.076295)" stroke-width=".75" stroke-linecap="round" stroke-linejoin="round" fill="none" stroke="#000000" d="M155.91208-262.2485C152.79854-266.5265 148.86724-269.15779 143.13431-270.23808 148.55832-271.97077 152.68881-274.95155 155.94045-279.00279"/>
<path transform="matrix(1,0,0,-1,117.09091,33.076295)" stroke-width=".75" stroke-linecap="round" stroke-linejoin="round" fill="none" stroke="#000000" d="M94.97599-182.6676C63.266736-182.85791 31.749707-182.50342 .309206-182.165-.190513-128.80434 .270698-75.56639-.05866-22.2841"/>
<path transform="matrix(1,0,0,-1,117.09091,33.076295)" stroke-width=".75" stroke-linecap="round" stroke-linejoin="round" fill="none" stroke="#000000" d="M8.255422-34.9717C4.010235-31.394309 .801438-27.093768 .401151-22.284365-.839405-26.669196-4.280846-31.119153-8.394363-34.574239"/>
<path transform="matrix(1,0,0,-1,117.09091,33.076295)" stroke-width=".75" stroke-linecap="round" stroke-linejoin="round" fill="none" stroke="#000000" d="M85.4615-92.54196C62.40666-92.4402 39.854906-92.22539 17.066973-92.38412 12.94496-68.33045 8.056378-45.302186 3.70764-21.025988"/>
<path transform="matrix(1,0,0,-1,117.09091,33.076295)" stroke-width=".75" stroke-linecap="round" stroke-linejoin="round" fill="none" stroke="#000000" d="M14.24219-31.874703C9.854127-29.684922 5.879738-26.430296 3.925841-21.634198 3.973781-26.128676 2.147821-31.448483-1.759304-35.40039"/>
<path transform="matrix(1,0,0,-1,117.09091,33.076295)" stroke-width=".75" stroke-linecap="round" stroke-linejoin="round" fill="none" stroke="#000000" d="M102.46612-270.67753C56.991609-270.75364 11.668142-270.65174-34.089067-270.69648-24.142165-187.75164-14.100011-104.03869-4.374229-21.001868"/>
<path transform="matrix(1,0,0,-1,117.09091,33.076295)" stroke-width=".75" stroke-linecap="round" stroke-linejoin="round" fill="none" stroke="#000000" d="M1.672281-34.217988C-1.597456-31.45008-3.940891-26.584452-5.153838-21.5482-6.120626-26.216534-10.253627-29.81866-14.208055-32.948099"/>
<path transform="matrix(1,0,0,-1,117.09091,33.076295)" stroke-width=".75" stroke-linecap="round" stroke-linejoin="round" fill="none" stroke="#000000" d="M101.31484-25.824305C99.855808-24.593775 101.21508-25.346396 100.76861-24.302273 115.97702-25.692317 131.20932-24.723586 145.39008-25.71378 160.52121-25.725365 160.9305-25.90367 160.41046-9.248192 161.34592-3.077622 161.30059 2.740416 161.03868 10.525801 160.15972 25.524308 160.95595 24.064173 145.1452 25.51512 130.68766 25.913525 114.950908 24.389199 100.53857 23.982106 84.99659 25.564518 85.356388 24.976416 85.26452 9.546346 85.14859 3.535544 86.34814-4.002076 85.576519-10.186994 86.28512-24.002354 85.357639-24.802327 101.31484-25.824305Z"/>
<path transform="matrix(1,0,0,-1,117.09091,33.076295)" stroke-width=".75" stroke-linecap="round" stroke-linejoin="round" fill="none" stroke="#000000" d="M100.72875-117.43795C99.65184-117.46131 99.71908-117.09729 100.10819-117.51256 115.51596-117.25434 130.67969-116.66696 145.5298-116.48376 160.855-116.732479 161.2067-116.422428 161.56122-102.87669 160.0835-95.623348 160.19614-89.65109 160.43477-83.230579 160.47666-67.75278 160.98867-67.57365 145.51528-66.98715 131.41956-66.84674 116.33928-67.96594 99.508808-66.952228 85.4257-67.036319 84.82279-66.807239 85.96165-83.30185 84.44855-88.737979 86.06319-95.792438 84.80361-103.24038 84.97877-116.87212 84.26276-117.893978 100.72875-117.43795Z"/>
<path transform="matrix(1,0,0,-1,117.09091,33.076295)" stroke-width=".75" stroke-linecap="round" stroke-linejoin="round" fill="none" stroke="#000000" d="M109.841609-204.58647C109.25269-205.965 109.70356-205.9868 108.88187-205.94188 119.11885-204.38137 127.423969-204.90578 136.19669-206.01145 151.61196-206.15488 152.5109-205.03647 152.04932-190.05234 150.6575-184.76377 151.37729-180.45915 150.96572-175.49494 151.16822-160.66371 151.30319-159.95503 137.03772-159.24594 126.68885-159.58435 119.04234-159.54926 110.483089-159.567 94.01808-159.17543 94.596927-159.66866 93.75086-173.98543 95.23696-179.7587 95.04588-184.23833 94.79586-189.33435 94.814807-206.11864 95.463909-206.21569 109.841609-204.58647Z"/>
<path transform="matrix(1,0,0,-1,117.09091,33.076295)" stroke-width=".75" stroke-linecap="round" stroke-linejoin="round" fill="none" stroke="#000000" d="M118.23934-292.3023C118.6588-293.522 117.07737-292.4589 118.424037-293.09333 120.68598-292.94776 125.853908-293.70124 128.3308-293.24455 144.16687-292.79298 143.11122-293.85728 144.16576-277.56797 142.87899-273.64067 143.29467-267.9718 142.76541-262.72169 143.39994-248.25632 144.1839-248.36223 129.16819-247.19989 124.03134-247.5231 120.56133-248.64318 118.53819-248.08884 102.42298-247.20978 103.02809-246.8619 103.052829-263.0878 102.00936-267.77223 102.34074-272.92918 102.4877-278.60844 102.20403-293.2495 102.1997-292.39659 118.23934-292.3023Z"/>
<path transform="matrix(1,0,0,-1,117.09091,33.076295)" stroke-width=".75" stroke-linecap="round" stroke-linejoin="round" fill="none" stroke="#000000" d="M21.889126 .689428C21.782542 12.453406 12.754745 20.767775 .148199 21.779616-12.309519 21.196667-22.069508 11.026896-20.75121 .447667-22.595063-12.29318-11.979707-22.597958 .159598-20.775582 11.629343-21.894845 21.352559-11.968122 21.889126 .689428Z"/>
<path transform="matrix(1,0,0,-1,117.09091,33.076295)" stroke-width=".75" stroke-linecap="round" stroke-linejoin="round" fill="none" stroke="#000000" d="M-64.129169-.419017C-49.85272-.097642-35.79283-.17146-21.635903 .136451"/>
<path transform="matrix(1,0,0,-1,117.09091,33.076295)" stroke-width=".75" stroke-linecap="round" stroke-linejoin="round" fill="none" stroke="#000000" d="M-34.53993-8.293358C-31.002083-4.42471-26.936406-1.519176-21.481829-.00019-26.732653 1.600171-30.778079 4.37843-34.365827 8.219716"/>
<path transform="matrix(1,0,0,-1,117.09091,33.076295)" stroke-width=".75" stroke-linecap="round" stroke-linejoin="round" fill="none" stroke="#000000" d="M21.984778 .112364C42.90667-.244065 63.757295 .196583 84.76581-.292857"/>
<path transform="matrix(1,0,0,-1,117.09091,33.076295)" stroke-width=".75" stroke-linecap="round" stroke-linejoin="round" fill="none" stroke="#000000" d="M72.33657-8.275665C75.64945-4.234345 80.11008-1.141511 85.050357-.355395 79.7284 1.290998 75.61035 3.772634 72.42217 8.143787"/>
<path transform="matrix(1,0,0,-1,117.09091,33.076295)" stroke-width=".75" stroke-linecap="round" stroke-linejoin="round" fill="none" stroke="#000000" d="M160.54154 .430235C189.42165-.300055 217.17888 .004378 245.75997 .176757"/>
<path transform="matrix(1,0,0,-1,117.09091,33.076295)" stroke-width=".75" stroke-linecap="round" stroke-linejoin="round" fill="none" stroke="#000000" d="M232.7605-7.888357C236.66024-3.955552 240.50421-1.074529 246.04965 .079058 240.53189 1.099074 236.68088 4.392571 233.05982 7.693547"/>
<path transform="matrix(1,0,0,-1,117.09091,33.076295)" stroke-width=".75" stroke-linecap="round" stroke-linejoin="round" fill="none" stroke="#000000" d="M203.75243 .336595C203.47159-31.059813 203.21485-61.964834 202.99262-92.431278 189.38057-92.4119 175.36643-92.4337 160.86193-92.464168"/>
<path transform="matrix(1,0,0,-1,117.09091,33.076295)" stroke-width=".75" stroke-linecap="round" stroke-linejoin="round" fill="none" stroke="#000000" d="M173.83238-84.19464C170.54169-88.52724 165.92888-91.51516 160.85886-92.825489 165.66948-93.33682 170.90409-95.97268 174.05593-100.54836"/>
<path transform="matrix(1,0,0,-1,117.09091,33.076295)" stroke-width=".75" stroke-linecap="round" stroke-linejoin="round" fill="none" stroke="#000000" d="M203.13024 .139114C203.63176-60.732309 203.69193-121.74808 203.46399-182.99855 186.08847-182.54644 169.09764-182.26195 151.59207-182.68943"/>
<path transform="matrix(1,0,0,-1,117.09091,33.076295)" stroke-width=".75" stroke-linecap="round" stroke-linejoin="round" fill="none" stroke="#000000" d="M164.54253-174.48249C161.35897-178.5048 156.30936-181.79869 151.87937-182.14252 156.70355-184.1521 161.36777-186.69806 164.1239-191.04909"/>
<path transform="matrix(1,0,0,-1,117.09091,33.076295)" stroke-width=".75" stroke-linecap="round" stroke-linejoin="round" fill="none" stroke="#000000" d="M202.89331 .434059C203.57157-89.945919 203.5275-180.7123 203.65628-270.91065 183.6836-270.7953 163.08104-270.1206 143.90595-270.70973"/>
<path transform="matrix(1,0,0,-1,117.09091,33.076295)" stroke-width=".75" stroke-linecap="round" stroke-linejoin="round" fill="none" stroke="#000000" d="M155.73535-262.60807C153.24622-266.663 148.32785-269.43913 143.1285-270.7755 148.84085-271.59944 152.55722-274.64817 156.1943-278.2916"/>
<path transform="matrix(1,0,0,-1,117.09091,33.076295)" stroke-width=".75" stroke-linecap="round" stroke-linejoin="round" fill="none" stroke="#000000" d="M94.34707-182.54042C62.92357-182.9716 31.591216-182.85254-.202184-182.20188-.310985-128.73879 .223775-75.22803-.423082-21.820595"/>
<path transform="matrix(1,0,0,-1,117.09091,33.076295)" stroke-width=".75" stroke-linecap="round" stroke-linejoin="round" fill="none" stroke="#000000" d="M8.263854-34.37397C3.968427-31.929244 .845377-26.781184 .030632-21.583733-1.173418-27.16665-4.154313-31.230963-7.990856-34.35479"/>
<path transform="matrix(1,0,0,-1,117.09091,33.076295)" stroke-width=".75" stroke-linecap="round" stroke-linejoin="round" fill="none" stroke="#000000" d="M85.16313-92.50107C62.197576-92.35302 40.063764-92.00372 16.762894-92.153949 12.288461-69.110347 8.105013-44.858858 4.289794-20.909829"/>
<path transform="matrix(1,0,0,-1,117.09091,33.076295)" stroke-width=".75" stroke-linecap="round" stroke-linejoin="round" fill="none" stroke="#000000" d="M14.192984-31.950442C9.654743-30.275113 6.156407-25.638512 4.296491-21.26077 3.80316-26.786938 2.001678-31.60638-1.392344-35.04857"/>
<path transform="matrix(1,0,0,-1,117.09091,33.076295)" stroke-width=".75" stroke-linecap="round" stroke-linejoin="round" fill="none" stroke="#000000" d="M103.127239-270.9254C57.367479-270.73637 11.264578-270.53297-34.32959-270.88877-24.403609-187.05295-14.398945-104.17551-4.999728-21.060574"/>
<path transform="matrix(1,0,0,-1,117.09091,33.076295)" stroke-width=".75" stroke-linecap="round" stroke-linejoin="round" fill="none" stroke="#000000" d="M2.14548-34.82985C-1.534286-31.38072-4.071074-26.054215-5.055602-20.812077-6.299864-26.263495-9.914728-30.238-14.589182-33.033834"/>
<path transform="matrix(1,0,0,-1,117.09091,33.076295)" stroke-width=".75" stroke-linecap="round" stroke-linejoin="round" fill="none" stroke="#000000" d="M100.27918-25.346159C100.25514-25.55855 99.77905-25.896573 101.28975-25.601887 116.22112-25.214053 131.60593-24.301362 146.50337-24.242178 160.62778-24.507416 160.85681-24.89555 160.54904-10.857307 161.1234-2.483701 161.2641 3.664581 160.76491 9.449255 161.4713 25.601592 161.15174 24.039982 145.31079 24.403616 129.8179 24.796322 114.93411 24.155402 101.31237 24.427422 85.9945 25.447733 85.122119 25.265746 85.129268 9.783944 85.49787 3.417404 85.97541-3.780096 85.83049-9.599101 85.9208-25.611744 85.7233-24.60062 100.27918-25.346159Z"/>
<path transform="matrix(1,0,0,-1,117.09091,33.076295)" stroke-width=".75" stroke-linecap="round" stroke-linejoin="round" fill="none" stroke="#000000" d="M99.52743-117.98371C100.67059-116.94633 100.991939-118.089878 101.17409-117.37504 114.57601-116.70564 131.3821-116.51257 145.83237-117.09868 160.67278-117.77874 161.71179-117.16538 161.34398-101.59374 160.02187-95.56065 160.1096-89.549488 161.8535-82.76737 161.53116-67.81245 160.2047-68.21328 146.17572-66.606227 131.1736-68.23204 115.193-67.0207 99.43737-67.051799 85.94091-67.90045 85.065547-67.91013 84.85692-82.11687 84.698368-88.762699 84.99828-94.93793 85.04311-102.690319 84.73363-116.646869 85.14854-117.45729 99.52743-117.98371Z"/>
<path transform="matrix(1,0,0,-1,117.09091,33.076295)" stroke-width=".75" stroke-linecap="round" stroke-linejoin="round" fill="none" stroke="#000000" d="M109.55476-204.43498C109.97997-205.17224 110.49414-205.86609 108.888179-205.7863 118.463329-205.14743 126.98037-205.50307 136.7127-204.42414 150.97052-205.36457 151.34636-205.83608 151.65493-190.95418 152.12595-184.50327 151.47962-180.31647 151.52667-174.7791 152.58113-158.93117 151.09394-160.30846 135.75019-159.96517 126.839267-160.77587 119.18504-158.96985 110.21745-159.88652 95.09048-159.69419 95.19721-159.0632 94.77295-175.25948 93.732769-180.90108 94.9648-184.57382 94.70389-190.34285 94.49654-205.3808 95.07003-204.93148 109.55476-204.43498Z"/>
<path transform="matrix(1,0,0,-1,117.09091,33.076295)" stroke-width=".75" stroke-linecap="round" stroke-linejoin="round" fill="none" stroke="#000000" d="M118.35623-292.89799C117.25536-293.98518 117.5284-293.16178 118.08657-292.35667 121.01839-292.80674 124.00996-293.00285 128.31899-292.95243 144.31699-294.22059 143.7126-292.72718 144.27033-277.31398 142.74259-272.40568 143.55786-268.32414 143.72138-263.49604 144.10478-247.47605 144.15453-248.67096 129.23342-248.63095 125.70535-248.08858 120.436267-248.69008 117.81061-248.16002 102.464099-247.00408 103.57942-247.4348 102.23988-263.63893 101.86098-268.91496 103.61442-273.85145 102.75063-278.38346 103.14292-293.82579 103.00702-292.40757 118.35623-292.89799Z"/>
<path transform="matrix(1,0,0,-1,117.09091,33.076295)" stroke-width=".75" stroke-linecap="round" stroke-linejoin="round" fill="none" stroke="#000000" d="M22.34887 .170729C20.827429 11.57574 12.073152 21.91116 .216473 21.266478-11.241653 21.276709-20.746443 12.357579-20.823899-.513055-22.129227-12.792201-12.162463-20.772582-.399888-21.261179 11.871325-21.769532 20.960148-12.454578 22.34887 .170729Z"/>
<path transform="matrix(1,0,0,-1,117.09091,33.076295)" stroke-width=".75" stroke-linecap="round" stroke-linejoin="round" fill="none" stroke="#000000" d="M-63.853845-.412871C-49.64243 .171684-35.577898 .176933-21.95602 .408475"/>
<path transform="matrix(1,0,0,-1,117.09091,33.076295)" stroke-width=".75" stroke-linecap="round" stroke-linejoin="round" fill="none" stroke="#000000" d="M-34.46513-8.347721C-30.873505-3.865561-26.975811-.986852-21.234005 .42245-26.912056 1.162636-31.126999 4.236032-34.637128 8.464875"/>
<path transform="matrix(1,0,0,-1,117.09091,33.076295)" stroke-width=".75" stroke-linecap="round" stroke-linejoin="round" fill="none" stroke="#000000" d="M21.315798-.0565C42.68771 .105001 63.518747 .046942 84.862949-.44286"/>
<path transform="matrix(1,0,0,-1,117.09091,33.076295)" stroke-width=".75" stroke-linecap="round" stroke-linejoin="round" fill="none" stroke="#000000" d="M72.7746-8.218411C75.255847-3.733875 80.18289-1.103359 85.083629-.210244 80.30857 1.549803 75.74274 4.438307 72.52336 7.949945"/>
<path transform="matrix(1,0,0,-1,117.09091,33.076295)" stroke-width=".75" stroke-linecap="round" stroke-linejoin="round" fill="none" stroke="#000000" d="M161.20835 .062046C188.97975 .156934 217.06707-.093161 245.69184 .168594"/>
<path transform="matrix(1,0,0,-1,117.09091,33.076295)" stroke-width=".75" stroke-linecap="round" stroke-linejoin="round" fill="none" stroke="#000000" d="M232.78089-7.823814C236.66658-3.749465 240.63848-1.10126 245.95804-.213093 240.80167 1.125607 236.7377 4.272052 233.36022 8.050054"/>
<path transform="matrix(1,0,0,-1,117.09091,33.076295)" stroke-width=".75" stroke-linecap="round" stroke-linejoin="round" fill="none" stroke="#000000" d="M203.59383 .180793C203.23954-30.789223 203.2874-61.65363 203.3892-92.4938 189.26596-92.7611 174.8199-92.55979 160.83531-92.26792"/>
<path transform="matrix(1,0,0,-1,117.09091,33.076295)" stroke-width=".75" stroke-linecap="round" stroke-linejoin="round" fill="none" stroke="#000000" d="M173.77359-84.41656C170.69878-88.239398 166.121-91.26392 161.35376-91.968868 165.7904-93.94535 170.72864-96.76057 173.88855-100.16159"/>
<path transform="matrix(1,0,0,-1,117.09091,33.076295)" stroke-width=".75" stroke-linecap="round" stroke-linejoin="round" fill="none" stroke="#000000" d="M203.53154-.00579C203.44748-60.856946 203.10298-121.666919 203.57408-182.9166 186.29288-182.34317 169.10446-182.65824 152.03827-182.28028"/>
<path transform="matrix(1,0,0,-1,117.09091,33.076295)" stroke-width=".75" stroke-linecap="round" stroke-linejoin="round" fill="none" stroke="#000000" d="M164.38147-174.18848C161.30229-178.22805 156.80213-181.73603 151.38674-182.49744 157.05101-184.1911 160.7938-186.94197 164.33867-190.67084"/>
<path transform="matrix(1,0,0,-1,117.09091,33.076295)" stroke-width=".75" stroke-linecap="round" stroke-linejoin="round" fill="none" stroke="#000000" d="M203.11232 .346286C203.37928-90.39145 203.0278-180.04126 203.73557-270.34059 183.69799-270.4466 163.38564-270.8485 143.42975-270.81715"/>
<path transform="matrix(1,0,0,-1,117.09091,33.076295)" stroke-width=".75" stroke-linecap="round" stroke-linejoin="round" fill="none" stroke="#000000" d="M156.1367-262.87318C152.52889-266.13313 148.35166-268.96095 143.68003-270.58488 148.22559-271.25904 152.82216-274.33564 156.2743-278.91529"/>
<path transform="matrix(1,0,0,-1,117.09091,33.076295)" stroke-width=".75" stroke-linecap="round" stroke-linejoin="round" fill="none" stroke="#000000" d="M94.40978-182.43572C63.072626-182.787 31.442128-182.74315-.155009-182.34418-.382196-128.753 .192633-75.34194 .125737-21.778548"/>
<path transform="matrix(1,0,0,-1,117.09091,33.076295)" stroke-width=".75" stroke-linecap="round" stroke-linejoin="round" fill="none" stroke="#000000" d="M7.761212-34.4079C4.367781-31.829564 .975191-27.304089-.057983-21.806904-1.3002-27.065398-3.969875-31.758387-8.054303-34.804235"/>
<path transform="matrix(1,0,0,-1,117.09091,33.076295)" stroke-width=".75" stroke-linecap="round" stroke-linejoin="round" fill="none" stroke="#000000" d="M84.89794-92.164768C62.19277-91.992519 39.62583-92.58097 17.445584-92.061008 12.936339-68.86498 7.968173-45.102857 4.157399-21.686863"/>
<path transform="matrix(1,0,0,-1,117.09091,33.076295)" stroke-width=".75" stroke-linecap="round" stroke-linejoin="round" fill="none" stroke="#000000" d="M14.518906-32.216676C9.797727-30.208407 6.030937-25.71327 4.263485-21.727879 4.001237-26.524523 1.274379-30.933829-2.023587-35.176195"/>
<path transform="matrix(1,0,0,-1,117.09091,33.076295)" stroke-width=".75" stroke-linecap="round" stroke-linejoin="round" fill="none" stroke="#000000" d="M102.710498-270.14915C56.858438-270.87989 11.711256-270.99018-33.873136-270.54634-24.422757-187.11461-14.676681-104.417079-5.08831-21.50273"/>
<path transform="matrix(1,0,0,-1,117.09091,33.076295)" stroke-width=".75" stroke-linecap="round" stroke-linejoin="round" fill="none" stroke="#000000" d="M1.361592-34.650678C-1.922964-31.194304-4.355121-26.446522-4.903798-21.282452-6.679712-25.782385-9.79805-29.84942-14.582906-33.196035"/>
<path transform="matrix(1,0,0,-1,117.09091,33.076295)" stroke-width=".75" stroke-linecap="round" stroke-linejoin="round" fill="none" stroke="#000000" d="M101.047779-24.213854C100.79814-25.395579 100.50574-25.599799 99.5255-24.81755 116.36537-24.023436 131.14933-24.761015 145.54694-25.63798 160.31084-25.257067 161.40312-24.196614 159.98249-10.067803 160.48863-2.717603 160.4106 3.36776 160.03897 10.741297 160.21979 24.187155 159.8176 25.266827 146.04839 24.203629 130.6412 24.146447 115.173259 25.348204 101.38464 25.417757 85.675868 24.707562 84.5937 24.91706 85.04221 9.914606 85.83509 4.207807 85.21216-2.581559 85.19378-9.534018 86.04953-25.83414 84.56236-25.641854 101.047779-24.213854Z"/>
<path transform="matrix(1,0,0,-1,117.09091,33.076295)" stroke-width=".75" stroke-linecap="round" stroke-linejoin="round" fill="none" stroke="#000000" d="M100.40229-117.345348C100.0176-117.69378 99.84548-116.59028 100.76723-117.24741 116.1781-117.97028 130.13387-117.64014 145.1509-117.51422 161.09949-116.905757 161.15988-116.75432 160.42142-101.94642 160.9564-94.915927 160.82463-88.31564 160.06775-82.84204 160.7805-68.16393 161.94364-68.361377 146.58252-67.62693 129.9924-67.09107 115.26201-67.22786 100.38172-67.39987 84.27396-67.96591 84.690448-66.56918 84.86364-82.138088 84.7757-89.06803 85.095989-96.16034 84.60472-101.82469 85.307628-117.50101 86.08633-116.65527 100.40229-117.345348Z"/>
<path transform="matrix(1,0,0,-1,117.09091,33.076295)" stroke-width=".75" stroke-linecap="round" stroke-linejoin="round" fill="none" stroke="#000000" d="M109.38966-204.68474C110.2091-205.9513 109.5722-204.58905 108.71576-205.7772 117.79041-205.15389 127.573879-205.40157 137.37056-205.16184 151.86142-206.21213 151.49391-205.76139 151.28437-189.55764 152.58531-184.68424 151.76113-180.39966 151.79178-175.2528 152.03708-159.39989 152.45664-159.54407 135.98354-159.73989 128.42882-159.62581 119.00583-159.1934 108.78699-160.23822 94.945117-159.98609 95.114719-160.3967 93.987468-175.29232 94.65712-180.91048 94.33049-184.25719 95.4786-190.88825 94.93866-204.40219 95.257938-206.26648 109.38966-204.68474Z"/>
<path transform="matrix(1,0,0,-1,117.09091,33.076295)" stroke-width=".75" stroke-linecap="round" stroke-linejoin="round" fill="none" stroke="#000000" d="M118.34272-293.84507C118.410549-293.52403 118.15131-293.6669 118.52599-293.23158 120.85109-293.9565 123.98402-293.46366 128.90056-294.13716 143.3015-292.74375 142.67937-293.549 143.65-277.63783 143.2644-273.59608 142.8038-268.17536 143.4035-262.0369 143.47858-247.94409 143.96605-247.28472 128.60715-247.47711 124.48875-247.68137 120.6733-247.6162 117.73385-247.36241 102.18897-248.10263 102.35621-248.14345 102.40067-263.43763 103.69209-268.5109 102.53844-273.9546 103.07593-278.66285 103.35795-293.64787 103.6256-293.70243 118.34272-293.84507Z"/>
<path transform="matrix(1,0,0,-1,117.09091,33.076295)" stroke-width=".75" stroke-linecap="round" stroke-linejoin="round" fill="none" stroke="#000000" d="M21.974398-.299207C21.628119 12.850914 12.73978 22.42103 .598397 21.949006-11.630663 22.610148-21.319325 11.202173-21.236174-.903955-22.206107-12.751621-11.899238-22.34286-.275945-20.681828 12.707892-21.475302 21.30613-12.458673 21.974398-.299207Z"/>
<path transform="matrix(1,0,0,-1,117.09091,33.076295)" stroke-width=".75" stroke-linecap="round" stroke-linejoin="round" fill="none" stroke="#000000" d="M-64.16575 .446768C-49.530267 .286523-35.931238-.236151-21.729489 .322537"/>
<path transform="matrix(1,0,0,-1,117.09091,33.076295)" stroke-width=".75" stroke-linecap="round" stroke-linejoin="round" fill="none" stroke="#000000" d="M-34.087804-8.272981C-31.080168-3.904527-26.330098-.996256-21.866747 .355521-26.284579 .934221-30.921095 4.339207-33.879789 8.355003"/>
<path transform="matrix(1,0,0,-1,117.09091,33.076295)" stroke-width=".75" stroke-linecap="round" stroke-linejoin="round" fill="none" stroke="#000000" d="M21.4843-.070642C42.51527 .264623 63.4771 .156533 85.414379-.009484"/>
<path transform="matrix(1,0,0,-1,117.09091,33.076295)" stroke-width=".75" stroke-linecap="round" stroke-linejoin="round" fill="none" stroke="#000000" d="M72.00381-8.376967C75.18502-3.762372 79.654598-1.541092 84.714748 .016794 79.74444 .959731 75.31554 3.771189 72.58116 8.29347"/>
<path transform="matrix(1,0,0,-1,117.09091,33.076295)" stroke-width=".75" stroke-linecap="round" stroke-linejoin="round" fill="none" stroke="#000000" d="M160.40235-.394969C189.44939-.147656 217.47731-.221119 246.14762 .42187"/>
<path transform="matrix(1,0,0,-1,117.09091,33.076295)" stroke-width=".75" stroke-linecap="round" stroke-linejoin="round" fill="none" stroke="#000000" d="M232.77985-7.657965C236.05452-3.634356 241.09047-1.051077 245.5282 .166866 240.68186 1.182872 236.76862 4.217371 233.03974 8.327755"/>
<path transform="matrix(1,0,0,-1,117.09091,33.076295)" stroke-width=".75" stroke-linecap="round" stroke-linejoin="round" fill="none" stroke="#000000" d="M203.16417 .34395C203.52945-31.073897 203.10903-61.60041 202.95778-92.760707 189.09008-92.69394 175.49784-92.81274 161.20883-92.03361"/>
<path transform="matrix(1,0,0,-1,117.09091,33.076295)" stroke-width=".75" stroke-linecap="round" stroke-linejoin="round" fill="none" stroke="#000000" d="M173.92348-84.173938C170.51749-88.37917 166.38521-91.013179 160.76966-92.12415 165.70215-93.4091 170.08834-96.19404 174.03324-100.2041"/>
<path transform="matrix(1,0,0,-1,117.09091,33.076295)" stroke-width=".75" stroke-linecap="round" stroke-linejoin="round" fill="none" stroke="#000000" d="M203.66309 .127288C202.97739-60.68935 202.85768-121.56007 203.74884-182.42264 185.97245-182.32643 168.52391-182.21697 151.71591-182.56421"/>
<path transform="matrix(1,0,0,-1,117.09091,33.076295)" stroke-width=".75" stroke-linecap="round" stroke-linejoin="round" fill="none" stroke="#000000" d="M164.48206-174.8629C161.3257-178.83415 156.65338-181.5438 151.71865-182.38745 156.78856-183.63123 161.50524-186.4031 164.70838-190.73389"/>
<path transform="matrix(1,0,0,-1,117.09091,33.076295)" stroke-width=".75" stroke-linecap="round" stroke-linejoin="round" fill="none" stroke="#000000" d="M202.94432-.284073C203.43555-89.98158 203.61374-180.39507 203.00626-270.27986 183.33649-270.72233 163.12964-270.2566 143.54027-270.24626"/>
<path transform="matrix(1,0,0,-1,117.09091,33.076295)" stroke-width=".75" stroke-linecap="round" stroke-linejoin="round" fill="none" stroke="#000000" d="M156.1897-262.31208C153.19524-266.2609 148.61965-269.3278 143.87218-270.43324 148.56822-271.6443 153.28406-274.98579 155.68027-278.69496"/>
<path transform="matrix(1,0,0,-1,117.09091,33.076295)" stroke-width=".75" stroke-linecap="round" stroke-linejoin="round" fill="none" stroke="#000000" d="M94.85075-182.62714C63.116235-182.38666 31.302613-182.57367-.039919-182.74184 .256892-129.05809-.099912-75.58494 .173481-22.105462"/>
<path transform="matrix(1,0,0,-1,117.09091,33.076295)" stroke-width=".75" stroke-linecap="round" stroke-linejoin="round" fill="none" stroke="#000000" d="M7.656208-34.446557C3.957099-31.68998 1.422689-27.13169-.079422-22.378935-1.234361-27.088776-4.069919-31.375374-8.355144-34.893419"/>
<path transform="matrix(1,0,0,-1,117.09091,33.076295)" stroke-width=".75" stroke-linecap="round" stroke-linejoin="round" fill="none" stroke="#000000" d="M84.88904-92.78599C62.80322-92.65799 40.1939-91.975269 16.844759-92.79443 12.743174-68.489139 8.318333-44.996698 4.035649-21.436146"/>
<path transform="matrix(1,0,0,-1,117.09091,33.076295)" stroke-width=".75" stroke-linecap="round" stroke-linejoin="round" fill="none" stroke="#000000" d="M14.066056-32.586259C9.686081-29.638863 5.832078-26.301962 4.199143-21.077445 3.541347-26.16932 1.36039-31.530274-2.048578-35.510606"/>
<path transform="matrix(1,0,0,-1,117.09091,33.076295)" stroke-width=".75" stroke-linecap="round" stroke-linejoin="round" fill="none" stroke="#000000" d="M102.35275-270.8524C56.972929-270.60264 11.475697-270.29679-34.059885-270.40834-24.204035-187.22171-14.395776-104.417438-4.756702-21.140513"/>
<path transform="matrix(1,0,0,-1,117.09091,33.076295)" stroke-width=".75" stroke-linecap="round" stroke-linejoin="round" fill="none" stroke="#000000" d="M1.394372-34.89622C-1.718919-30.594588-3.87843-26.599978-5.012167-21.464047-6.33372-25.891049-9.48428-30.17415-13.985163-33.16398"/>
<path transform="matrix(1,0,0,-1,117.09091,33.076295)" stroke-width=".75" stroke-linecap="round" stroke-linejoin="round" fill="none" stroke="#000000" d="M100.17816-24.677695C100.14588-24.044629 101.24185-25.635899 100.31087-25.634259 115.160999-24.544636 129.92473-24.51942 145.32343-24.608166 161.69309-24.70808 160.514-25.48057 161.02918-10.685456 159.86495-2.422294 161.00859 3.08554 161.47248 10.845255 161.26197 25.090056 160.9804 24.024359 145.76143 25.36455 130.68624 25.523896 114.57948 24.057509 99.80473 24.718083 86.25012 24.281657 84.710269 25.538327 85.68389 9.734797 84.77968 2.537899 84.7203-2.886056 85.7261-10.018973 84.75644-25.323033 84.943828-24.162236 100.17816-24.677695Z"/>
<path transform="matrix(1,0,0,-1,117.09091,33.076295)" stroke-width=".75" stroke-linecap="round" stroke-linejoin="round" fill="none" stroke="#000000" d="M100.70401-117.01559C100.89049-117.43922 99.80974-118.26432 100.56876-117.5501 115.53095-117.30391 131.63112-117.2548 146.01761-117.86816 161.2429-117.88839 160.97867-117.246479 161.48839-103.15445 160.68424-96.27585 160.81752-88.8355 161.3341-82.40578 161.75052-68.054019 161.41707-66.59872 145.36573-66.60466 130.21033-67.47088 115.34893-66.89203 99.54117-67.23617 85.465457-68.09082 84.33133-68.141628 84.54295-81.79371 85.586177-90.02671 85.17095-96.358058 85.70774-101.5788 85.92207-117.3335 84.56323-116.6996 100.70401-117.01559Z"/>
<path transform="matrix(1,0,0,-1,117.09091,33.076295)" stroke-width=".75" stroke-linecap="round" stroke-linejoin="round" fill="none" stroke="#000000" d="M109.34442-205.08C109.76455-204.94278 109.63262-205.18732 108.66577-206.21564 117.663738-206.22237 127.053218-205.88402 136.91915-204.4554 152.07968-205.82439 152.31601-204.6753 152.545-190.01302 151.43405-184.42218 151.97133-179.5962 151.0318-174.33159 151.54138-159.11006 150.9553-159.21305 135.66124-159.5008 127.76814-158.95487 118.496707-159.80101 109.33408-159.20723 94.92389-160.10214 93.697849-159.73377 95.447879-174.50177 95.28175-179.52727 94.00788-185.99933 93.749759-189.41344 94.9861-205.58028 94.13952-204.94422 109.34442-205.08Z"/>
<path transform="matrix(1,0,0,-1,117.09091,33.076295)" stroke-width=".75" stroke-linecap="round" stroke-linejoin="round" fill="none" stroke="#000000" d="M116.82508-292.3074C117.40358-293.13505 118.45473-293.31 116.8786-293.97978 120.8903-293.84474 125.507389-294.06599 128.97162-292.3713 142.78069-293.16346 143.63779-292.29185 143.52252-278.22523 143.26422-272.18647 142.77808-268.63655 143.82784-263.49998 143.54502-246.8686 142.856-248.76834 128.57126-247.36649 125.2142-248.67848 121.97089-247.72165 118.59868-247.84827 102.705059-248.57822 102.94741-248.56624 101.81155-262.7993 103.452419-267.71556 103.50763-272.72096 101.779949-277.57054 102.618938-294.19697 102.0923-293.4096 116.82508-292.3074Z"/>
<path transform="matrix(1,0,0,-1,117.09091,33.076295)" stroke-width=".75" stroke-linecap="round" stroke-linejoin="round" fill="none" stroke="#000000" d="M20.843459 .644822C22.249777 12.681495 11.206452 22.17424-.724658 21.21848-12.623094 21.885083-20.900723 11.555584-21.44444-.598182-20.710873-11.286156-11.915651-21.749087 .521647-21.9854 11.605617-20.723315 21.38763-12.492696 20.843459 .644822Z"/>
<path transform="matrix(1,0,0,-1,117.09091,33.076295)" stroke-width=".75" stroke-linecap="round" stroke-linejoin="round" fill="none" stroke="#000000" d="M-64.179088-.375568C-49.758794 .00291-35.836847-.083723-21.339213 .080583"/>
<path transform="matrix(1,0,0,-1,117.09091,33.076295)" stroke-width=".75" stroke-linecap="round" stroke-linejoin="round" fill="none" stroke="#000000" d="M-34.14772-8.33287C-31.482792-4.168357-26.465657-1.511578-21.624205-.349032-26.694462 1.217469-31.188096 4.130451-34.529718 7.992301"/>
<path transform="matrix(1,0,0,-1,117.09091,33.076295)" stroke-width=".75" stroke-linecap="round" stroke-linejoin="round" fill="none" stroke="#000000" d="M21.689612 .244602C42.771665 .040507 63.6573-.329765 84.9315 .127007"/>
<path transform="matrix(1,0,0,-1,117.09091,33.076295)" stroke-width=".75" stroke-linecap="round" stroke-linejoin="round" fill="none" stroke="#000000" d="M72.45195-7.617602C75.33833-4.093005 80.27202-1.125736 84.94535 .167463 80.29467 1.292746 75.401149 4.074763 72.295368 7.625685"/>
<path transform="matrix(1,0,0,-1,117.09091,33.076295)" stroke-width=".75" stroke-linecap="round" stroke-linejoin="round" fill="none" stroke="#000000" d="M160.53818-.396828C189.05376 .23835 217.16019 .375389 245.50698-.383821"/>
<path transform="matrix(1,0,0,-1,117.09091,33.076295)" stroke-width=".75" stroke-linecap="round" stroke-linejoin="round" fill="none" stroke="#000000" d="M233.10863-8.475255C236.27872-3.763932 240.93592-1.463685 245.63716 .423232 240.39308 .764427 235.91634 4.07513 233.5658 8.386918"/>
<path transform="matrix(1,0,0,-1,117.09091,33.076295)" stroke-width=".75" stroke-linecap="round" stroke-linejoin="round" fill="none" stroke="#000000" d="M203.13352 .205345C203.49556-31.000494 203.61483-61.60319 203.11006-92.814388 189.24868-92.58137 175.24652-92.516178 161.25719-92.49831"/>
<path transform="matrix(1,0,0,-1,117.09091,33.076295)" stroke-width=".75" stroke-linecap="round" stroke-linejoin="round" fill="none" stroke="#000000" d="M173.87799-84.040569C170.16776-88.645679 166.44301-90.97373 160.90752-92.00921 165.98069-93.82783 170.4396-96.615528 173.55912-100.06168"/>
<path transform="matrix(1,0,0,-1,117.09091,33.076295)" stroke-width=".75" stroke-linecap="round" stroke-linejoin="round" fill="none" stroke="#000000" d="M202.9279-.357329C203.33931-60.77118 203.05747-122.118968 203.11058-182.19438 186.51732-182.67511 169.22354-182.21878 151.86692-182.19744"/>
<path transform="matrix(1,0,0,-1,117.09091,33.076295)" stroke-width=".75" stroke-linecap="round" stroke-linejoin="round" fill="none" stroke="#000000" d="M164.54482-174.62323C161.43018-178.2302 156.33805-181.4934 151.30947-182.23926 156.22386-184.04225 161.44789-187.03572 163.89846-190.70253"/>
<path transform="matrix(1,0,0,-1,117.09091,33.076295)" stroke-width=".75" stroke-linecap="round" stroke-linejoin="round" fill="none" stroke="#000000" d="M203.70734 .105431C203.69472-90.294017 203.29155-179.96477 202.96427-270.77906 183.1055-270.6414 163.42642-270.20143 143.41594-270.9074"/>
<path transform="matrix(1,0,0,-1,117.09091,33.076295)" stroke-width=".75" stroke-linecap="round" stroke-linejoin="round" fill="none" stroke="#000000" d="M155.93904-262.09294C152.63257-266.10279 148.2861-269.26979 143.86917-270.70344 148.52875-271.36579 153.39107-274.52577 156.44582-278.5206"/>
<path transform="matrix(1,0,0,-1,117.09091,33.076295)" stroke-width=".75" stroke-linecap="round" stroke-linejoin="round" fill="none" stroke="#000000" d="M94.163448-182.66501C63.160448-182.59484 31.722386-182.3997 .435959-182.64438-.054248-129.32198 .257279-75.65631-.07602-21.874785"/>
<path transform="matrix(1,0,0,-1,117.09091,33.076295)" stroke-width=".75" stroke-linecap="round" stroke-linejoin="round" fill="none" stroke="#000000" d="M8.020574-34.951787C3.555497-31.22347 1.034955-27.232254 .056318-22.276753-.7459-26.835579-3.575953-31.787642-8.292605-35.06543"/>
<path transform="matrix(1,0,0,-1,117.09091,33.076295)" stroke-width=".75" stroke-linecap="round" stroke-linejoin="round" fill="none" stroke="#000000" d="M85.68243-92.31876C62.5505-92.57806 40.086034-92.21959 17.088784-92.40875 12.514039-68.92748 8.330592-44.735929 4.144256-21.641516"/>
<path transform="matrix(1,0,0,-1,117.09091,33.076295)" stroke-width=".75" stroke-linecap="round" stroke-linejoin="round" fill="none" stroke="#000000" d="M13.980053-32.046556C9.689113-29.986069 6.313076-25.705012 4.063141-21.22901 4.073978-26.64941 1.514363-31.562428-1.72001-35.30443"/>
<path transform="matrix(1,0,0,-1,117.09091,33.076295)" stroke-width=".75" stroke-linecap="round" stroke-linejoin="round" fill="none" stroke="#000000" d="M103.17904-270.58705C57.027914-270.93318 11.353756-270.31809-34.420324-270.43095-24.461205-187.65026-14.284854-103.974018-4.786624-21.29302"/>
<path transform="matrix(1,0,0,-1,117.09091,33.076295)" stroke-width=".75" stroke-linecap="round" stroke-linejoin="round" fill="none" stroke="#000000" d="M1.322029-35.010499C-2.142224-31.375195-4.59628-26.634316-4.671156-20.758627-6.640614-26.311532-10.209917-30.416296-14.098234-32.370557"/>
<use data-text="+" xlink:href="#font_4_7" transform="matrix(21.519354,0,0,-21.519316,79.041629,25.333527)"/>
<use data-text="&#x2212;" xlink:href="#font_4_9" transform="matrix(21.519371,0,0,-21.519288,123.24082,63.6857)"/>
<use data-text="R" xlink:href="#font_4_5" transform="matrix(21.5195,0,0,-21.519398,6.814293,38.45752)"/>
<use data-text="(" xlink:href="#font_4_2" transform="matrix(21.5195,0,0,-21.519398,19.91967,38.45752)"/>
<use data-text="s" xlink:href="#font_4_3" transform="matrix(21.5195,0,0,-21.519398,29.464859,38.45752)"/>
<use data-text=")" xlink:href="#font_4_4" transform="matrix(21.5195,0,0,-21.519398,40.451856,38.45752)"/>
<use data-text="Y" xlink:href="#font_4_6" transform="matrix(21.519246,0,0,-21.519398,367.41108,38.45752)"/>
<use data-text="(" xlink:href="#font_4_2" transform="matrix(21.519246,0,0,-21.519398,380.5597,38.45752)"/>
<use data-text="s" xlink:href="#font_4_3" transform="matrix(21.519246,0,0,-21.519398,390.1048,38.45752)"/>
<use data-text=")" xlink:href="#font_4_4" transform="matrix(21.519246,0,0,-21.519398,401.09169,38.45752)"/>
</svg>
