<svg xmlns="http://www.w3.org/2000/svg" xmlns:xlink="http://www.w3.org/1999/xlink" xmlns:inkscape="http://www.inkscape.org/namespaces/inkscape" version="1.1" width="416.2663" height="221.62596" viewBox="0 0 416.2663 221.62596">
<defs>
<path id="font_5_7" d="M.04598999 .23632813H.35598756V-.07368469L.3959961-.06668091V.23632813H.70399478L.70899966 .2763214H.3959961V.58631899L.35598756 .58032229V.2763214H.052993776L.04598999 .23632813Z"/>
<path id="font_5_8" d="M.08999634 .32458497C.08999634 .22958374 .114990238 .13148499 .18299866 .06341553 .23699951 .009384155 .31199647-.016601563 .3880005-.016601563 .46099855-.016601563 .56900027 .010391235 .6569977 .03338623 .6569977 .03338623 .6539917 .216568 .6519928 .30760194L.37599183 .2966156V.27061463L.38198854 .265625C.43598939 .26361085 .5 .25961305 .5439911 .25660707 .57199099 .25460816 .57199099 .22257996 .57199099 .13449097 .57199099 .061416627 .56900027 .04940796 .5519867 .045394899 .5209961 .038391115 .48999024 .03538513 .45799256 .03538513 .37998963 .03538513 .30599977 .060409547 .2619934 .112472537 .20399475 .18052674 .17999268 .25260926 .17999268 .3405609 .17999268 .48339845 .23199463 .5653076 .26098634 .5942688 .3039856 .63623049 .36299134 .6502075 .42199708 .6502075 .5529938 .6502075 .59298709 .5563202 .60598757 .53034976L.6179962 .5293579 .6759949 .58628848C.6649933 .6032715 .6119995 .69921877 .46699525 .69921877 .3619995 .69921877 .25698854 .6682129 .18199158 .593277 .11199951 .5233612 .08999634 .4224701 .08999634 .32458497Z"/>
<path id="font_5_2" d="M.11299133 .24990845C.11299133 .007904053 .1519928-.09008789 .18299866-.13310242 .21099854-.17008972 .25299073-.20809937 .30099488-.21209717V-.1880951C.2809906-.18409729 .25099183-.16809082 .23399353-.1481018 .21998596-.13209534 .16499329-.05809021 .16499329 .24990845 .16499329 .4618988 .19799805 .5659027 .21998596 .6128998 .23599243 .6469116 .2689972 .6769104 .30099488 .684906V.71191409C.2599945 .7049103 .21598816 .6729126 .19099427 .63790896 .1599884 .5919037 .11299133 .4748993 .11299133 .24990845Z"/>
<path id="font_5_3" d="M.051986696 .06642151C.06199646 .047409059 .07598877 .030395508 .09199524 .01638794 .12098694-.009613037 .16099549-.016601563 .19898987-.016601563 .2559967-.016601563 .31199647 .0023956299 .35099793 .044403078 .375 .06941223 .3869934 .10343933 .3869934 .13845825 .3869934 .1634674 .37298585 .18649292 .35499574 .20449829 .34098817 .21850586 .3039856 .24052429 .27198792 .25453187 .24299622 .26654054 .19999695 .2885437 .18798828 .30055238 .17298889 .31655885 .1619873 .3285675 .1619873 .35058595 .1619873 .3725891 .16899109 .39360047 .18499756 .4086151 .19999695 .42362977 .22200012 .43164063 .24398804 .43164063 .2639923 .43164063 .2849884 .42462159 .29599 .4066162 .30599977 .39060975 .30799867 .3715973 .30899049 .35359193L.32099916 .34657289 .37599183 .38360597C.375 .40560914 .3639984 .42662049 .34799195 .44163514 .32499696 .46263124 .29299928 .46662904 .2630005 .46662904 .21398926 .46662904 .16699219 .45063783 .1309967 .4176178 .10398865 .39360047 .08999634 .35858155 .08999634 .32356263 .08999634 .29154969 .10798645 .26353456 .1309967 .2425232 .1539917 .22250366 .18399048 .2084961 .21499634 .1954956 .24099732 .18447876 .2689972 .17248535 .28799439 .1534729 .30299378 .13845825 .31399537 .11845398 .31399537 .09744263 .31399537 .079422 .30499269 .062408449 .29299928 .04940796 .27799989 .03340149 .25099183 .021392823 .22898865 .021392823 .19898987 .021392823 .17199707 .03439331 .1499939 .055404664 .1269989 .076416019 .116989139 .10644531 .114990238 .13645935L.100997928 .13745117 .051986696 .06642151Z"/>
<path id="font_5_4" d="M.085998538-.1880951V-.21209717C.13398743-.20610047 .1789856-.17208863 .20698548-.13510132 .23799134-.09210205 .27598573 .007904053 .27598573 .24990845 .27598573 .50090029 .22399903 .5919037 .19299317 .63790896 .16799927 .6729126 .1269989 .7049103 .085998538 .71191409V.684906C.117996219 .6759033 .14898682 .6469116 .16499329 .6128998 .18699646 .5659027 .22399903 .48190309 .22399903 .24990845 .22399903-.099090579 .17199707-.13209534 .1579895-.1481018 .14099121-.16809082 .10598755-.18409729 .085998538-.1880951Z"/>
<path id="font_5_15" d="M.051986696 .6781769 .052993776 .6591797C.07299805 .65216067 .10899353 .6411438 .11299133 .6401367 .12298584 .6361389 .125 .6251221 .12599182 .6161041 .1309967 .53297427 .13198853 .44985963 .13198853 .36676026 .13198853 .24482727 .13198853 .11590576 .12199402 .0029907227L.12799073-.0020141602 .21998596 .025970459C.21699524 .051956178 .21499634 .10292053 .21499634 .1798706V.33377076C.21499634 .34075929 .22099304 .34576417 .22799683 .34576417H.57099917C.5799866 .34576417 .58299258 .33876039 .58299258 .33377076 .58299258 .23683167 .5799866 .11790466 .5779877 .020980835L.58898928 0 .73799136 .0078125 .74398806 .013809204 .7429962 .031799318C.72499087 .03981018 .66600039 .03981018 .66600039 .07879639 .66600039 .09979248 .6619873 .24076844 .6619873 .32176209 .6619873 .5129547 .66999819 .64515689 .6729889 .6841736L.66799929 .6901703 .5799866 .673172C.5799866 .58706668 .58299258 .48291017 .58299258 .3967743 .58299258 .39076234 .58200076 .38476563 .57099917 .38476563H.22499085C.21499634 .38476563 .21299744 .3917694 .21299744 .3967743 .21299744 .4618683 .21699524 .54600527 .21899414 .61109927 .21998596 .63414 .22200012 .6581726 .22599793 .6801758L.22099304 .6851654H.05899048L.051986696 .6781769Z"/>
<path id="font_5_9" d="M.04598999 .23046875H.70399478L.70999148 .27046205H.052993776L.04598999 .23046875Z"/>
<path id="font_5_13" d="M.09199524 .6121063H.1749878C.19999695 .6121063 .21998596 .5911102 .22099304 .56611636 .22200012 .5411072 .22200012 .46810914 .22200012 .41911317 .22200012 .27911378 .21899414 .13911438 .21398926 .00010681152L.22599793-.0048828127 .30999757 .022109986C.30699159 .09811401 .30699159 .29611207 .30699159 .43211366 .30699159 .52111819 .30899049 .6111145 .31399537 .70010378L.30799867 .7121124 .09199524 .6391144V.6121063Z"/>
<path id="font_5_5" d="M.053985597 .65625C.054992677 .65625 .08999634 .6462555 .10798645 .6412506 .12098694 .6372528 .1309967 .6252594 .1309967 .61128237 .13198853 .5543213 .13398743 .45439149 .13398743 .43940736 .13398743 .29444886 .1329956 .14831543 .125 .003189087L.13598633-.0058135988 .21899414 .023208619C.21398926 .11929321 .21398926 .21638489 .21398926 .31245423 .21998596 .31245423 .22898865 .30845643 .23399353 .30345155 .2630005 .27442933 .3899994 .11128235 .48298646-.0078125L.58200076 .018203736V.02720642L.31900025 .3234558 .32099916 .33146668C.4039917 .3404541 .4850006 .3734131 .5169983 .44322206 .5319977 .47714234 .5359955 .49110414 .5359955 .53897097 .5359955 .57388308 .5219879 .6077881 .49699403 .63272097 .47999574 .6506958 .45700074 .6596985 .43299867 .6667023 .40098573 .67570498 .36698915 .67871096 .33299256 .67871096L.06098938 .679245 .054992677 .6732483 .053985597 .65625M.21299744 .37045289C.21299744 .375412 .21699524 .549942 .21899414 .61376956 .21998596 .63272097 .22299195 .6397095 .23098755 .6397095H.2709961C.2979889 .6397095 .32598878 .6377106 .35299684 .63072207 .37199403 .6257324 .3909912 .61776736 .40499879 .6037903 .42599488 .5828552 .43798829 .55293276 .43798829 .52301028 .43798829 .47813417 .41799928 .43624879 .3869934 .40533448 .35398866 .37141419 .30599977 .36044313 .2599945 .35646058 .24798584 .35546876 .23498535 .35546876 .22200012 .35546876 .21499634 .35546876 .21299744 .36444093 .21299744 .37042237V.37045289Z"/>
<path id="font_5_6" d="M.022994996 .6513672C.036987306 .649353 .049987794 .6463623 .06298828 .6433563 .07199097 .6413574 .07998657 .6353607 .085998538 .62835696 .09599304 .61834719 .102996829 .60635378 .10899353 .5943451L.2579956 .29930116C.2579956 .19927979 .2579956 .0982666 .25498963-.0017547608L.2659912-.0107421879 .35598756 .018249512 .34700013 .30630494C.42999269 .4343109 .5039978 .5303345 .61499026 .675354L.61099246 .6933594 .526001 .6763611C.48999024 .619339 .4059906 .47431947 .397995 .46032716 .3849945 .4373169 .34199525 .36730958 .33898927 .3623047 .33599855 .3572998 .33198548 .353302 .32798768 .353302 .32199098 .353302 .31698609 .3592987 .31599427 .36131288L.1749878 .6863556H.02999878L.022994996 .67936709V.6513672Z"/>
</defs>
<use data-text="+" xlink:href="#font_5_7" transform="matrix(37.185197,0,0,-37.18505,103.05142,42.496248)"/>
<use data-text="G" xlink:href="#font_5_8" transform="matrix(21.51903,0,0,-21.519398,217.51706,38.35675)"/>
<use data-text="(" xlink:href="#font_5_2" transform="matrix(21.51903,0,0,-21.519398,233.97913,38.35675)"/>
<use data-text="s" xlink:href="#font_5_3" transform="matrix(21.51903,0,0,-21.519398,243.52411,38.35675)"/>
<use data-text=")" xlink:href="#font_5_4" transform="matrix(21.51903,0,0,-21.519398,254.51087,38.35675)"/>
<use data-text="H" xlink:href="#font_5_15" transform="matrix(21.519356,0,0,-21.519398,199.03406,130.76514)"/>
<use data-text="(" xlink:href="#font_5_2" transform="matrix(21.519356,0,0,-21.519398,215.8837,130.76514)"/>
<use data-text="s" xlink:href="#font_5_3" transform="matrix(21.519356,0,0,-21.519398,225.42884,130.76514)"/>
<use data-text=")" xlink:href="#font_5_4" transform="matrix(21.519356,0,0,-21.519398,236.41577,130.76514)"/>
<use data-text="&#x2212;" xlink:href="#font_5_9" transform="matrix(21.519356,0,0,-21.519398,249.54734,130.76514)"/>
<use data-text="1" xlink:href="#font_5_13" transform="matrix(21.519356,0,0,-21.519398,270.59803,130.76514)"/>
<path transform="matrix(1,0,0,-1,117.090908,32.975488)" stroke-width=".75" stroke-linecap="round" stroke-linejoin="round" fill="none" stroke="#000000" d="M100.70987-25.361817C101.15828-24.454815 100.97977-24.585999 100.8804-24.880234 116.24842-24.196379 130.09317-24.447592 145.414-24.074807 160.06584-24.667803 161.60932-23.971192 159.92159-9.66492 160.24445-3.373779 160.65418 3.962974 160.29593 10.312349 160.68015 25.105067 159.96883 24.95628 146.28852 24.08498 129.77323 24.546929 115.488719 25.1196 100.21584 23.993494 86.23711 24.959616 85.2232 25.09143 85.89206 9.067269 85.38785 2.712635 85.74564-3.905638 84.79365-9.96087 85.82413-25.592982 84.45893-25.085846 100.70987-25.361817Z"/>
<path transform="matrix(1,0,0,-1,117.090908,32.975488)" stroke-width=".75" stroke-linecap="round" stroke-linejoin="round" fill="none" stroke="#000000" d="M82.162738-116.962978C82.064289-116.54817 81.20294-116.7874 82.20512-116.7747 109.40218-117.12326 137.02239-117.85904 165.1257-117.76017 179.21759-117.964969 179.13207-116.60235 180.21195-102.36673 178.73381-95.764 179.95842-89.904949 179.75446-83.0775 179.9172-67.54951 179.30115-66.82569 163.48645-67.73684 137.68827-67.79333 109.56167-68.39076 82.26173-67.231 67.46954-67.35436 67.349178-67.78736 66.28311-81.523258 66.08283-89.907238 66.85654-96.265789 66.3792-102.07422 65.97503-117.43399 66.12326-117.869289 82.162738-116.962978Z"/>
<path transform="matrix(1,0,0,-1,117.090908,32.975488)" stroke-width=".75" stroke-linecap="round" stroke-linejoin="round" fill="none" stroke="#000000" d="M21.983664 .171292C22.008185 12.03942 11.797587 21.143918-.924582 22.499995-11.96534 20.7176-21.68221 12.677827-22.493262 .071047-21.276898-11.721014-12.205401-21.654612-.319333-20.888285 12.184392-20.755839 22.007208-11.375227 21.983664 .171292Z"/>
<path transform="matrix(1,0,0,-1,117.090908,32.975488)" stroke-width=".75" stroke-linecap="round" stroke-linejoin="round" fill="none" stroke="#000000" d="M-64.17993-.420846C-49.460245-.392454-35.675973-.237907-21.357905 .252103"/>
<path transform="matrix(1,0,0,-1,117.090908,32.975488)" stroke-width=".75" stroke-linecap="round" stroke-linejoin="round" fill="none" stroke="#000000" d="M-34.718667-8.247766C-30.82351-3.588991-26.412474-.818345-21.574057-.076615-26.871125 1.034159-31.12883 4.412537-34.588747 8.426348"/>
<path transform="matrix(1,0,0,-1,117.090908,32.975488)" stroke-width=".75" stroke-linecap="round" stroke-linejoin="round" fill="none" stroke="#000000" d="M21.455338 .201525C42.671564-.074048 63.888444-.207763 84.95026-.144936"/>
<path transform="matrix(1,0,0,-1,117.090908,32.975488)" stroke-width=".75" stroke-linecap="round" stroke-linejoin="round" fill="none" stroke="#000000" d="M72.444118-8.141098C75.38391-4.269862 80.219-.755115 85.4234-.245927 79.61323 1.321783 75.94755 4.025481 72.19887 8.393185"/>
<path transform="matrix(1,0,0,-1,117.090908,32.975488)" stroke-width=".75" stroke-linecap="round" stroke-linejoin="round" fill="none" stroke="#000000" d="M161.12012 .138263C188.70503 .245329 217.26528 .018811 246.10829-.209926"/>
<path transform="matrix(1,0,0,-1,117.090908,32.975488)" stroke-width=".75" stroke-linecap="round" stroke-linejoin="round" fill="none" stroke="#000000" d="M232.80525-8.151108C236.47635-3.683206 241.1546-.834043 245.82508-.165785 240.95784 1.514597 236.22165 3.828281 232.74286 7.888934"/>
<path transform="matrix(1,0,0,-1,117.090908,32.975488)" stroke-width=".75" stroke-linecap="round" stroke-linejoin="round" fill="none" stroke="#000000" d="M203.00875 .279648C203.55764-30.868899 202.87223-61.85276 203.6747-91.97766 195.48619-92.23456 187.38672-92.54478 179.31855-92.10173"/>
<path transform="matrix(1,0,0,-1,117.090908,32.975488)" stroke-width=".75" stroke-linecap="round" stroke-linejoin="round" fill="none" stroke="#000000" d="M191.8616-84.62999C188.56711-88.51784 184.4132-91.48776 179.49636-92.28325 184.30274-93.78154 188.88768-96.61156 192.02597-100.42378"/>
<path transform="matrix(1,0,0,-1,117.090908,32.975488)" stroke-width=".75" stroke-linecap="round" stroke-linejoin="round" fill="none" stroke="#000000" d="M203.20914-.428849C203.22913-60.073686 203.39763-120.524539 202.97338-181.37346 176.17815-181.1654 150.03668-181.09178 123.340457-180.82962 81.86971-180.87346 41.310525-180.78304 .420016-181.1162 .140578-127.912578-.386121-74.751338-.374119-21.902529"/>
<path transform="matrix(1,0,0,-1,117.090908,32.975488)" stroke-width=".75" stroke-linecap="round" stroke-linejoin="round" fill="none" stroke="#000000" d="M7.876638-34.85519C3.744627-31.620242 .758588-27.138623-.439372-22.037514-.82457-27.166455-4.39132-31.525977-8.250459-34.578065"/>
<path transform="matrix(1,0,0,-1,117.090908,32.975488)" stroke-width=".75" stroke-linecap="round" stroke-linejoin="round" fill="none" stroke="#000000" d="M66.78659-92.68992C50.55146-92.81944 34.014848-92.53865 17.047122-92.78985 13.013152-68.254619 8.144368-44.768125 3.804316-21.194972"/>
<path transform="matrix(1,0,0,-1,117.090908,32.975488)" stroke-width=".75" stroke-linecap="round" stroke-linejoin="round" fill="none" stroke="#000000" d="M14.487953-32.07346C9.842741-29.809952 5.917869-25.737776 3.633569-21.49501 3.32979-26.757067 2.082807-31.526316-1.529165-35.37978"/>
<path transform="matrix(1,0,0,-1,117.090908,32.975488)" stroke-width=".75" stroke-linecap="round" stroke-linejoin="round" fill="none" stroke="#000000" d="M100.94063-24.581433C100.6827-25.656655 100.83788-25.013236 99.598789-25.221955 115.22178-24.576254 129.96804-25.381234 146.12569-24.150162 160.2099-24.666493 161.4298-25.30949 160.25644-10.154834 159.8656-2.525647 160.29439 3.933104 161.16426 10.723806 161.44705 25.912652 160.34294 24.34993 146.47351 25.704537 130.64366 25.220803 115.94114 25.870524 100.34281 25.777182 84.97362 24.62688 84.67469 24.109917 85.97002 9.882402 85.82596 2.441184 85.96498-3.87153 85.63315-10.346378 85.709857-24.234086 84.55698-24.72517 100.94063-24.581433Z"/>
<path transform="matrix(1,0,0,-1,117.090908,32.975488)" stroke-width=".75" stroke-linecap="round" stroke-linejoin="round" fill="none" stroke="#000000" d="M82.75876-117.51094C81.96018-117.49073 82.36474-116.54301 82.63397-117.83917 109.25807-117.59565 136.12372-117.5955 164.82604-116.501499 178.84008-117.73984 178.66632-116.635898 179.31336-102.265789 178.35161-95.91056 178.5254-89.63285 179.45723-82.596088 179.14061-66.82394 180.12003-67.59871 164.91484-66.587108 136.31583-66.811229 109.598628-67.710659 82.893619-67.437679 67.21377-67.29441 67.46161-67.13647 66.853488-82.06168 66.85156-89.19394 67.3959-95.03751 67.07721-102.36145 67.42526-116.738529 67.46322-118.04006 82.75876-117.51094Z"/>
<path transform="matrix(1,0,0,-1,117.090908,32.975488)" stroke-width=".75" stroke-linecap="round" stroke-linejoin="round" fill="none" stroke="#000000" d="M22.467232 .40667C21.209776 12.639902 12.145555 20.740622 .598929 20.93315-11.050285 22.428036-20.745429 11.13417-21.765292 .226318-21.760355-11.137293-12.273636-22.338248 .920898-21.05407 11.259528-21.73444 21.353787-12.714962 22.467232 .40667Z"/>
<path transform="matrix(1,0,0,-1,117.090908,32.975488)" stroke-width=".75" stroke-linecap="round" stroke-linejoin="round" fill="none" stroke="#000000" d="M-63.917509-.153121C-49.728654-.066928-35.693765-.188502-21.625832-.122007"/>
<path transform="matrix(1,0,0,-1,117.090908,32.975488)" stroke-width=".75" stroke-linecap="round" stroke-linejoin="round" fill="none" stroke="#000000" d="M-34.349554-7.777053C-30.78814-3.772352-26.7022-1.038002-21.515147 .39922-27.093823 1.494792-31.566288 3.679441-34.459028 8.497597"/>
<path transform="matrix(1,0,0,-1,117.090908,32.975488)" stroke-width=".75" stroke-linecap="round" stroke-linejoin="round" fill="none" stroke="#000000" d="M21.354498 .414802C43.10156 .17109 63.65961 .094609 85.199-.211796"/>
<path transform="matrix(1,0,0,-1,117.090908,32.975488)" stroke-width=".75" stroke-linecap="round" stroke-linejoin="round" fill="none" stroke="#000000" d="M72.45029-8.346089C75.67672-3.889976 79.86635-.822938 85.39569 .428351 79.97372 1.432629 75.80989 3.966434 72.286289 7.696873"/>
<path transform="matrix(1,0,0,-1,117.090908,32.975488)" stroke-width=".75" stroke-linecap="round" stroke-linejoin="round" fill="none" stroke="#000000" d="M160.93465-.036454C188.85028-.313897 217.72243 .196031 246.03479-.321683"/>
<path transform="matrix(1,0,0,-1,117.090908,32.975488)" stroke-width=".75" stroke-linecap="round" stroke-linejoin="round" fill="none" stroke="#000000" d="M233.42334-7.705761C236.00217-4.399626 240.78528-1.307998 246.1101 .42093 240.55399 1.365112 236.66742 4.324091 233.26773 7.704551"/>
<path transform="matrix(1,0,0,-1,117.090908,32.975488)" stroke-width=".75" stroke-linecap="round" stroke-linejoin="round" fill="none" stroke="#000000" d="M203.26544 .390691C203.32729-31.210175 203.49718-61.43515 203.54778-92.21472 195.03504-92.29722 187.37587-92.07293 178.86057-92.69314"/>
<path transform="matrix(1,0,0,-1,117.090908,32.975488)" stroke-width=".75" stroke-linecap="round" stroke-linejoin="round" fill="none" stroke="#000000" d="M191.93184-84.373119C188.91329-88.4613 184.42436-91.05654 178.83557-92.57907 183.85279-93.64487 188.81658-96.58382 191.69998-100.27808"/>
<path transform="matrix(1,0,0,-1,117.090908,32.975488)" stroke-width=".75" stroke-linecap="round" stroke-linejoin="round" fill="none" stroke="#000000" d="M203.26207 .430625C203.57765-60.495557 203.41454-120.619678 203.6999-180.79508 176.50843-181.29695 149.7907-180.99509 122.733089-181.41573 81.82744-181.0242 41.40597-181.3883 .260041-180.97998 .088142-128.03478 .109049-75.348178 .228177-22.208518"/>
<path transform="matrix(1,0,0,-1,117.090908,32.975488)" stroke-width=".75" stroke-linecap="round" stroke-linejoin="round" fill="none" stroke="#000000" d="M7.874853-34.342439C3.787349-31.262194 .84847-27.134684-.181033-21.625948-1.231256-27.048436-3.927506-31.34268-7.815292-34.408788"/>
<path transform="matrix(1,0,0,-1,117.090908,32.975488)" stroke-width=".75" stroke-linecap="round" stroke-linejoin="round" fill="none" stroke="#000000" d="M67.06203-92.66547C49.98552-92.76107 33.839334-92.041118 16.739693-92.2462 12.287633-69.02601 8.505253-44.701837 4.259112-21.4046"/>
<path transform="matrix(1,0,0,-1,117.090908,32.975488)" stroke-width=".75" stroke-linecap="round" stroke-linejoin="round" fill="none" stroke="#000000" d="M14.170684-32.65996C9.266476-29.617686 6.306657-25.952944 3.484151-21.666489 3.418448-26.815695 1.540477-30.946778-1.971868-35.435415"/>
<path transform="matrix(1,0,0,-1,117.090908,32.975488)" stroke-width=".75" stroke-linecap="round" stroke-linejoin="round" fill="none" stroke="#000000" d="M100.98722-24.331254C99.92996-25.712229 99.9422-25.156262 101.246509-25.577095 115.86517-24.796198 129.88387-24.669232 144.86829-24.744812 161.46434-24.39549 161.75714-25.25824 160.58263-9.914123 161.29106-4.275404 161.3978 3.890761 160.31505 10.37655 161.73125 24.1311 160.33502 25.308918 145.57434 25.13432 130.78958 25.577876 116.147968 24.906285 99.771259 24.555989 85.668277 24.117295 85.460269 25.109257 85.49338 10.141016 84.75266 2.980958 85.72105-3.114162 86.14865-9.865338 86.30032-25.868222 86.07247-25.39105 100.98722-24.331254Z"/>
<path transform="matrix(1,0,0,-1,117.090908,32.975488)" stroke-width=".75" stroke-linecap="round" stroke-linejoin="round" fill="none" stroke="#000000" d="M82.528278-118.257328C82.52922-116.80868 82.81793-117.24198 82.537448-117.1086 109.07458-117.15388 136.56549-116.42669 164.57828-117.385349 179.75792-117.34352 179.22609-116.92654 178.72476-101.482578 179.7666-96.38954 178.49269-88.33187 178.61058-81.786998 179.08928-67.87297 178.43154-66.659458 164.02239-67.5757 137.62407-66.96166 109.58756-68.22821 82.19079-67.19981 66.692539-66.88912 67.47264-67.85648 66.00543-81.87475 67.72113-89.39337 66.02373-95.42407 67.79002-102.00085 66.341579-117.88299 66.23282-117.669399 82.528278-118.257328Z"/>
<path transform="matrix(1,0,0,-1,117.090908,32.975488)" stroke-width=".75" stroke-linecap="round" stroke-linejoin="round" fill="none" stroke="#000000" d="M21.769627 .607008C21.324286 11.513953 11.468248 21.90155 .200026 22.166735-11.212755 21.941466-20.733876 12.533083-21.422719-.750933-22.330805-11.685654-12.762954-22.30873-.160948-21.336443 11.952244-22.347172 20.870482-11.23807 21.769627 .607008Z"/>
<path transform="matrix(1,0,0,-1,117.090908,32.975488)" stroke-width=".75" stroke-linecap="round" stroke-linejoin="round" fill="none" stroke="#000000" d="M-64.197078-.237458C-49.605733 .056262-35.26883-.076849-21.42417-.166122"/>
<path transform="matrix(1,0,0,-1,117.090908,32.975488)" stroke-width=".75" stroke-linecap="round" stroke-linejoin="round" fill="none" stroke="#000000" d="M-34.339296-7.748409C-30.850935-4.300641-27.032904-1.113778-21.953049 .441196-26.764243 1.016758-30.862586 4.436822-34.04731 7.91985"/>
<path transform="matrix(1,0,0,-1,117.090908,32.975488)" stroke-width=".75" stroke-linecap="round" stroke-linejoin="round" fill="none" stroke="#000000" d="M21.25105-.375628C43.07246 .059739 64.30919 .042341 84.88023-.172872"/>
<path transform="matrix(1,0,0,-1,117.090908,32.975488)" stroke-width=".75" stroke-linecap="round" stroke-linejoin="round" fill="none" stroke="#000000" d="M72.37695-8.462555C75.145549-3.625302 80.20128-.859591 84.93255-.068249 80.475177 1.431746 75.73342 4.025086 72.13517 8.082256"/>
<path transform="matrix(1,0,0,-1,117.090908,32.975488)" stroke-width=".75" stroke-linecap="round" stroke-linejoin="round" fill="none" stroke="#000000" d="M160.98603 .381897C188.69388 .008533 217.83908-.016139 245.96907 .445992"/>
<path transform="matrix(1,0,0,-1,117.090908,32.975488)" stroke-width=".75" stroke-linecap="round" stroke-linejoin="round" fill="none" stroke="#000000" d="M233.36774-7.971507C236.5473-3.566443 240.40433-.710846 246.22974-.318973 240.37619 1.289014 236.41896 3.74033 232.90256 8.369143"/>
<path transform="matrix(1,0,0,-1,117.090908,32.975488)" stroke-width=".75" stroke-linecap="round" stroke-linejoin="round" fill="none" stroke="#000000" d="M203.59133 .38234C202.87627-30.83831 203.20597-61.773717 203.41646-92.73033 195.4905-92.503917 186.85048-92.77844 179.52495-92.07786"/>
<path transform="matrix(1,0,0,-1,117.090908,32.975488)" stroke-width=".75" stroke-linecap="round" stroke-linejoin="round" fill="none" stroke="#000000" d="M192.26979-84.440608C188.46811-88.02425 184.51367-91.425899 179.37184-92.653987 184.46717-93.68178 188.31609-96.05202 191.59627-100.33149"/>
<path transform="matrix(1,0,0,-1,117.090908,32.975488)" stroke-width=".75" stroke-linecap="round" stroke-linejoin="round" fill="none" stroke="#000000" d="M203.18573-.000073C203.40879-60.209318 203.48409-120.99262 203.7257-181.0274 176.61084-181.58283 149.45317-181.08533 123.31627-180.91214 82.04934-181.09935 41.130964-181.11272-.308161-181.4633 .212905-128.32212-.409026-74.708278-.01675-22.235514"/>
<path transform="matrix(1,0,0,-1,117.090908,32.975488)" stroke-width=".75" stroke-linecap="round" stroke-linejoin="round" fill="none" stroke="#000000" d="M8.374137-34.57346C3.825275-31.61134 1.234143-26.891352-.079791-22.46643-1.339175-26.64681-4.339346-31.859852-7.899427-34.25605"/>
<path transform="matrix(1,0,0,-1,117.090908,32.975488)" stroke-width=".75" stroke-linecap="round" stroke-linejoin="round" fill="none" stroke="#000000" d="M67.123859-92.83736C50.229394-92.14066 33.576074-92.48625 16.744135-92.31442 12.887569-68.366 8.464129-45.07213 4.204103-21.586585"/>
<path transform="matrix(1,0,0,-1,117.090908,32.975488)" stroke-width=".75" stroke-linecap="round" stroke-linejoin="round" fill="none" stroke="#000000" d="M14.22643-31.964575C10.004944-29.711514 6.375059-25.763676 3.970166-21.489436 3.536088-26.7301 1.760568-31.546448-1.520717-35.315156"/>
<path transform="matrix(1,0,0,-1,117.090908,32.975488)" stroke-width=".75" stroke-linecap="round" stroke-linejoin="round" fill="none" stroke="#000000" d="M100.17163-24.587346C100.77291-25.611138 100.53041-25.343403 99.7558-24.928698 115.30335-25.61743 130.17012-24.111449 146.25598-24.275553 161.06272-25.095194 160.92926-25.04395 160.37995-9.075123 160.21608-2.588451 161.68065 3.930997 161.16883 9.517055 160.23593 24.139632 160.0831 24.330668 146.2373 24.941786 131.0192 25.249775 116.20017 24.945668 100.79846 24.172833 85.08299 24.479386 85.00916 24.72861 84.94907 10.590207 84.89705 3.019811 84.48841-2.491089 85.09547-10.378134 85.809459-25.114819 85.395488-25.4913 100.17163-24.587346Z"/>
<path transform="matrix(1,0,0,-1,117.090908,32.975488)" stroke-width=".75" stroke-linecap="round" stroke-linejoin="round" fill="none" stroke="#000000" d="M82.82124-117.057888C81.61834-118.31985 82.60441-116.81771 81.272449-116.39682 108.64134-117.13098 136.17697-116.93858 163.80252-116.58771 179.49936-118.10976 179.34334-118.09809 179.60115-101.43109 178.52802-96.67802 178.74452-89.55091 178.74396-82.46852 179.04888-67.19256 178.88397-67.7337 164.76959-66.78889 137.75312-68.104389 110.13596-66.70228 81.61056-67.277538 67.228099-67.030849 66.58063-67.593837 66.96316-83.24161 66.673168-89.28388 67.88258-96.094898 67.03304-101.879779 66.68791-117.36315 66.48487-117.40746 82.82124-117.057888Z"/>
<path transform="matrix(1,0,0,-1,117.090908,32.975488)" stroke-width=".75" stroke-linecap="round" stroke-linejoin="round" fill="none" stroke="#000000" d="M21.778542 .200138C21.120148 12.146773 12.332953 22.477343-.848129 22.006596-12.233985 21.95679-21.804366 11.007917-20.823159 .532975-22.183184-12.15427-11.130594-21.339518-.141599-20.771939 12.119235-20.699463 21.628895-12.597313 21.778542 .200138Z"/>
<path transform="matrix(1,0,0,-1,117.090908,32.975488)" stroke-width=".75" stroke-linecap="round" stroke-linejoin="round" fill="none" stroke="#000000" d="M-63.65532 .176456C-49.38726-.09811-35.650304-.149583-21.43706 .067133"/>
<path transform="matrix(1,0,0,-1,117.090908,32.975488)" stroke-width=".75" stroke-linecap="round" stroke-linejoin="round" fill="none" stroke="#000000" d="M-34.70221-8.074167C-31.202618-3.842297-27.089867-1.000635-21.567698 .338847-26.671408 1.262176-31.061156 4.424872-34.57298 8.361469"/>
<path transform="matrix(1,0,0,-1,117.090908,32.975488)" stroke-width=".75" stroke-linecap="round" stroke-linejoin="round" fill="none" stroke="#000000" d="M21.240357 .189281C42.685407-.012273 63.560289 .206081 85.29575 .204894"/>
<path transform="matrix(1,0,0,-1,117.090908,32.975488)" stroke-width=".75" stroke-linecap="round" stroke-linejoin="round" fill="none" stroke="#000000" d="M72.83511-7.808097C75.89654-4.42759 80.14916-.902973 85.019168-.258695 79.91098 .82432 76.002429 4.222588 72.399868 8.369167"/>
<path transform="matrix(1,0,0,-1,117.090908,32.975488)" stroke-width=".75" stroke-linecap="round" stroke-linejoin="round" fill="none" stroke="#000000" d="M160.54683 .233403C189.46372 .342025 217.15901-.152052 245.78089-.403292"/>
<path transform="matrix(1,0,0,-1,117.090908,32.975488)" stroke-width=".75" stroke-linecap="round" stroke-linejoin="round" fill="none" stroke="#000000" d="M233.39505-8.498564C236.16847-4.350105 240.65029-1.231355 246.14118-.192024 240.68675 1.364049 236.62017 4.419884 233.03179 8.44653"/>
<path transform="matrix(1,0,0,-1,117.090908,32.975488)" stroke-width=".75" stroke-linecap="round" stroke-linejoin="round" fill="none" stroke="#000000" d="M203.12723-.211331C203.01348-30.819352 203.24576-61.3799 202.90256-92.39601 194.99321-91.98529 187.45876-92.13426 179.46916-91.99162"/>
<path transform="matrix(1,0,0,-1,117.090908,32.975488)" stroke-width=".75" stroke-linecap="round" stroke-linejoin="round" fill="none" stroke="#000000" d="M191.52793-84.755397C188.70177-88.657039 184.5123-91.15507 179.39725-92.093 184.04216-93.381 188.92671-95.99825 192.16594-100.29671"/>
<path transform="matrix(1,0,0,-1,117.090908,32.975488)" stroke-width=".75" stroke-linecap="round" stroke-linejoin="round" fill="none" stroke="#000000" d="M203.39833 .303753C203.59929-60.600645 203.09146-121.099758 202.87406-180.72878 176.13636-180.98217 150.03025-180.84978 123.17573-180.8555 82.10879-180.99634 41.26231-180.77404-.391128-180.92708-.213979-128.06484 .081012-75.09909 .025224-22.31183"/>
<path transform="matrix(1,0,0,-1,117.090908,32.975488)" stroke-width=".75" stroke-linecap="round" stroke-linejoin="round" fill="none" stroke="#000000" d="M7.861678-34.960004C3.71174-31.241063 .972564-27.438595 .435628-22.112914-.917379-27.243212-3.569296-31.670298-8.293332-34.92914"/>
<path transform="matrix(1,0,0,-1,117.090908,32.975488)" stroke-width=".75" stroke-linecap="round" stroke-linejoin="round" fill="none" stroke="#000000" d="M66.850627-92.42381C49.950735-92.11944 33.971265-92.513729 16.687209-92.28227 12.35915-68.81575 8.379502-44.99501 3.83076-21.315558"/>
<path transform="matrix(1,0,0,-1,117.090908,32.975488)" stroke-width=".75" stroke-linecap="round" stroke-linejoin="round" fill="none" stroke="#000000" d="M13.783594-31.984622C9.53085-29.682433 6.264022-26.07478 4.103968-21.546652 3.484728-26.055357 1.796661-31.127179-1.475449-35.448797"/>
<path transform="matrix(1,0,0,-1,117.090908,32.975488)" stroke-width=".75" stroke-linecap="round" stroke-linejoin="round" fill="none" stroke="#000000" d="M101.32622-25.851145C100.65479-25.329655 99.68374-24.441733 99.47595-24.59794 116.39249-24.289229 130.46443-25.091664 145.32923-24.267367 161.22919-24.148978 160.88283-25.25402 160.0202-9.8314 160.37545-3.870504 160.29485 4.103461 161.10099 9.578493 160.09978 24.269873 161.31311 24.959446 146.57 24.759861 131.30146 25.654219 116.155818 24.920514 99.857189 24.129494 85.498218 25.573966 84.68093 24.791642 85.687519 10.700089 85.00089 3.960371 86.37585-3.901013 85.7539-9.631765 85.03206-25.723679 85.74953-25.605017 101.32622-25.851145Z"/>
<path transform="matrix(1,0,0,-1,117.090908,32.975488)" stroke-width=".75" stroke-linecap="round" stroke-linejoin="round" fill="none" stroke="#000000" d="M81.35743-118.31087C81.394878-117.84052 81.93577-117.8756 82.30816-117.41243 109.505977-116.67146 136.13048-117.40605 163.70526-116.499629 179.6002-116.83851 178.30405-116.70988 178.57013-101.676509 179.0136-95.34217 178.9778-89.20884 178.96343-82.7368 180.10977-67.34355 179.11704-67.37275 165.22608-67.01098 137.54526-67.46137 108.46892-68.279109 81.90609-66.84074 67.448329-67.407108 66.12515-68.26783 66.91922-82.07523 67.33773-89.75427 67.29155-95.9054 67.05351-102.31671 67.80752-116.59487 67.21335-116.65458 81.35743-118.31087Z"/>
<path transform="matrix(1,0,0,-1,117.090908,32.975488)" stroke-width=".75" stroke-linecap="round" stroke-linejoin="round" fill="none" stroke="#000000" d="M22.081444-.454708C21.686047 12.11957 12.383027 21.527144 .043607 22.19134-11.298647 22.279679-22.125409 11.051808-20.721913 .383103-22.30044-12.129853-12.260697-21.259894 .509633-21.103043 11.631775-22.37823 21.86003-11.106786 22.081444-.454708Z"/>
<path transform="matrix(1,0,0,-1,117.090908,32.975488)" stroke-width=".75" stroke-linecap="round" stroke-linejoin="round" fill="none" stroke="#000000" d="M-64.15479 .383967C-49.420656-.335795-35.825227-.174188-21.919096-.241176"/>
<path transform="matrix(1,0,0,-1,117.090908,32.975488)" stroke-width=".75" stroke-linecap="round" stroke-linejoin="round" fill="none" stroke="#000000" d="M-33.985-8.29919C-31.56491-3.982999-26.95254-1.065727-21.75933-.05333-26.602713 .896902-30.70148 4.441398-34.20175 8.332141"/>
<path transform="matrix(1,0,0,-1,117.090908,32.975488)" stroke-width=".75" stroke-linecap="round" stroke-linejoin="round" fill="none" stroke="#000000" d="M21.304596-.208774C42.50917 .000225 64.00063-.162914 85.421939 .06037"/>
<path transform="matrix(1,0,0,-1,117.090908,32.975488)" stroke-width=".75" stroke-linecap="round" stroke-linejoin="round" fill="none" stroke="#000000" d="M72.32912-8.189825C75.340129-3.982438 79.81051-1.04599 84.8449-.228701 80.12371 1.200092 75.51856 4.083087 72.624217 7.87544"/>
<path transform="matrix(1,0,0,-1,117.090908,32.975488)" stroke-width=".75" stroke-linecap="round" stroke-linejoin="round" fill="none" stroke="#000000" d="M161.076-.251701C189.40282-.26542 217.57109 .44105 245.90006-.366189"/>
<path transform="matrix(1,0,0,-1,117.090908,32.975488)" stroke-width=".75" stroke-linecap="round" stroke-linejoin="round" fill="none" stroke="#000000" d="M233.41065-8.483561C236.18883-4.067248 240.38796-1.281774 245.93653 .311021 240.55609 1.551125 236.22515 4.319193 233.16385 8.177227"/>
<path transform="matrix(1,0,0,-1,117.090908,32.975488)" stroke-width=".75" stroke-linecap="round" stroke-linejoin="round" fill="none" stroke="#000000" d="M203.64278-.231243C203.6914-30.652899 203.2562-61.218835 203.32396-92.21767 195.24979-92.0963 187.41146-92.0193 178.96035-92.158168"/>
<path transform="matrix(1,0,0,-1,117.090908,32.975488)" stroke-width=".75" stroke-linecap="round" stroke-linejoin="round" fill="none" stroke="#000000" d="M191.5025-84.28793C189.15442-88.56019 184.13959-91.33761 178.99735-92.59724 184.42327-93.18953 188.78136-95.99903 192.2032-100.29697"/>
<path transform="matrix(1,0,0,-1,117.090908,32.975488)" stroke-width=".75" stroke-linecap="round" stroke-linejoin="round" fill="none" stroke="#000000" d="M203.01998-.372471C203.05463-60.291589 202.8643-120.934818 203.04439-181.2826 176.83753-181.26596 149.70082-180.9106 122.88129-181.36583 82.03679-180.72986 40.984987-181.13648-.093469-180.72318 .071568-128.04549 .266167-75.321308-.433255-22.10213"/>
<path transform="matrix(1,0,0,-1,117.090908,32.975488)" stroke-width=".75" stroke-linecap="round" stroke-linejoin="round" fill="none" stroke="#000000" d="M8.177826-34.72835C4.104524-31.2555 1.476484-26.589173-.101305-22.1582-1.1902-27.42222-3.971999-31.88996-8.201418-34.425088"/>
<path transform="matrix(1,0,0,-1,117.090908,32.975488)" stroke-width=".75" stroke-linecap="round" stroke-linejoin="round" fill="none" stroke="#000000" d="M67.20777-92.426708C49.87055-92.09782 33.231489-92.38723 16.701664-92.080669 12.492933-68.45348 8.715113-45.029714 3.744242-21.392487"/>
<path transform="matrix(1,0,0,-1,117.090908,32.975488)" stroke-width=".75" stroke-linecap="round" stroke-linejoin="round" fill="none" stroke="#000000" d="M13.740527-32.135026C9.795485-30.244086 5.894064-26.087405 4.335636-21.482909 3.721644-26.520894 1.409604-31.781607-1.385455-35.31687"/>
<use data-text="+" xlink:href="#font_5_7" transform="matrix(21.519354,0,0,-21.519316,79.04162,25.232666)"/>
<use data-text="&#x2212;" xlink:href="#font_5_9" transform="matrix(21.519371,0,0,-21.519288,123.240818,63.58487)"/>
<use data-text="R" xlink:href="#font_5_5" transform="matrix(21.5195,0,0,-21.519398,6.8142855,38.35675)"/>
<use data-text="(" xlink:href="#font_5_2" transform="matrix(21.5195,0,0,-21.519398,19.919663,38.35675)"/>
<use data-text="s" xlink:href="#font_5_3" transform="matrix(21.5195,0,0,-21.519398,29.464852,38.35675)"/>
<use data-text=")" xlink:href="#font_5_4" transform="matrix(21.5195,0,0,-21.519398,40.451848,38.35675)"/>
<use data-text="Y" xlink:href="#font_5_6" transform="matrix(21.519246,0,0,-21.519398,367.41108,38.35675)"/>
<use data-text="(" xlink:href="#font_5_2" transform="matrix(21.519246,0,0,-21.519398,380.5597,38.35675)"/>
<use data-text="s" xlink:href="#font_5_3" transform="matrix(21.519246,0,0,-21.519398,390.1048,38.35675)"/>
<use data-text=")" xlink:href="#font_5_4" transform="matrix(21.519246,0,0,-21.519398,401.09169,38.35675)"/>
</svg>
