<svg xmlns="http://www.w3.org/2000/svg" xmlns:xlink="http://www.w3.org/1999/xlink" version="1.1" width="416.2663" height="128.99448" viewBox="0 0 416.2663 128.99448">
<defs>
<path id="font_1_7" d="M.04598999 .23632813H.35598756V-.07368469L.3959961-.06668091V.23632813H.70399478L.70899966 .2763214H.3959961V.58631899L.35598756 .58032229V.2763214H.052993776L.04598999 .23632813Z"/>
<path id="font_1_8" d="M.08999634 .32458497C.08999634 .22958374 .114990238 .13148499 .18299866 .06341553 .23699951 .009384155 .31199647-.016601563 .3880005-.016601563 .46099855-.016601563 .56900027 .010391235 .6569977 .03338623 .6569977 .03338623 .6539917 .216568 .6519928 .30760194L.37599183 .2966156V.27061463L.38198854 .265625C.43598939 .26361085 .5 .25961305 .5439911 .25660707 .57199099 .25460816 .57199099 .22257996 .57199099 .13449097 .57199099 .061416627 .56900027 .04940796 .5519867 .045394899 .5209961 .038391115 .48999024 .03538513 .45799256 .03538513 .37998963 .03538513 .30599977 .060409547 .2619934 .112472537 .20399475 .18052674 .17999268 .25260926 .17999268 .3405609 .17999268 .48339845 .23199463 .5653076 .26098634 .5942688 .3039856 .63623049 .36299134 .6502075 .42199708 .6502075 .5529938 .6502075 .59298709 .5563202 .60598757 .53034976L.6179962 .5293579 .6759949 .58628848C.6649933 .6032715 .6119995 .69921877 .46699525 .69921877 .3619995 .69921877 .25698854 .6682129 .18199158 .593277 .11199951 .5233612 .08999634 .4224701 .08999634 .32458497Z"/>
<path id="font_1_2" d="M.11299133 .24990845C.11299133 .007904053 .1519928-.09008789 .18299866-.13310242 .21099854-.17008972 .25299073-.20809937 .30099488-.21209717V-.1880951C.2809906-.18409729 .25099183-.16809082 .23399353-.1481018 .21998596-.13209534 .16499329-.05809021 .16499329 .24990845 .16499329 .4618988 .19799805 .5659027 .21998596 .6128998 .23599243 .6469116 .2689972 .6769104 .30099488 .684906V.71191409C.2599945 .7049103 .21598816 .6729126 .19099427 .63790896 .1599884 .5919037 .11299133 .4748993 .11299133 .24990845Z"/>
<path id="font_1_3" d="M.051986696 .06642151C.06199646 .047409059 .07598877 .030395508 .09199524 .01638794 .12098694-.009613037 .16099549-.016601563 .19898987-.016601563 .2559967-.016601563 .31199647 .0023956299 .35099793 .044403078 .375 .06941223 .3869934 .10343933 .3869934 .13845825 .3869934 .1634674 .37298585 .18649292 .35499574 .20449829 .34098817 .21850586 .3039856 .24052429 .27198792 .25453187 .24299622 .26654054 .19999695 .2885437 .18798828 .30055238 .17298889 .31655885 .1619873 .3285675 .1619873 .35058595 .1619873 .3725891 .16899109 .39360047 .18499756 .4086151 .19999695 .42362977 .22200012 .43164063 .24398804 .43164063 .2639923 .43164063 .2849884 .42462159 .29599 .4066162 .30599977 .39060975 .30799867 .3715973 .30899049 .35359193L.32099916 .34657289 .37599183 .38360597C.375 .40560914 .3639984 .42662049 .34799195 .44163514 .32499696 .46263124 .29299928 .46662904 .2630005 .46662904 .21398926 .46662904 .16699219 .45063783 .1309967 .4176178 .10398865 .39360047 .08999634 .35858155 .08999634 .32356263 .08999634 .29154969 .10798645 .26353456 .1309967 .2425232 .1539917 .22250366 .18399048 .2084961 .21499634 .1954956 .24099732 .18447876 .2689972 .17248535 .28799439 .1534729 .30299378 .13845825 .31399537 .11845398 .31399537 .09744263 .31399537 .079422 .30499269 .062408449 .29299928 .04940796 .27799989 .03340149 .25099183 .021392823 .22898865 .021392823 .19898987 .021392823 .17199707 .03439331 .1499939 .055404664 .1269989 .076416019 .116989139 .10644531 .114990238 .13645935L.100997928 .13745117 .051986696 .06642151Z"/>
<path id="font_1_4" d="M.085998538-.1880951V-.21209717C.13398743-.20610047 .1789856-.17208863 .20698548-.13510132 .23799134-.09210205 .27598573 .007904053 .27598573 .24990845 .27598573 .50090029 .22399903 .5919037 .19299317 .63790896 .16799927 .6729126 .1269989 .7049103 .085998538 .71191409V.684906C.117996219 .6759033 .14898682 .6469116 .16499329 .6128998 .18699646 .5659027 .22399903 .48190309 .22399903 .24990845 .22399903-.099090579 .17199707-.13209534 .1579895-.1481018 .14099121-.16809082 .10598755-.18409729 .085998538-.1880951Z"/>
<path id="font_1_9" d="M.04598999 .23046875H.70399478L.70999148 .27046205H.052993776L.04598999 .23046875Z"/>
<path id="font_1_5" d="M.053985597 .65625C.054992677 .65625 .08999634 .6462555 .10798645 .6412506 .12098694 .6372528 .1309967 .6252594 .1309967 .61128237 .13198853 .5543213 .13398743 .45439149 .13398743 .43940736 .13398743 .29444886 .1329956 .14831543 .125 .003189087L.13598633-.0058135988 .21899414 .023208619C.21398926 .11929321 .21398926 .21638489 .21398926 .31245423 .21998596 .31245423 .22898865 .30845643 .23399353 .30345155 .2630005 .27442933 .3899994 .11128235 .48298646-.0078125L.58200076 .018203736V.02720642L.31900025 .3234558 .32099916 .33146668C.4039917 .3404541 .4850006 .3734131 .5169983 .44322206 .5319977 .47714234 .5359955 .49110414 .5359955 .53897097 .5359955 .57388308 .5219879 .6077881 .49699403 .63272097 .47999574 .6506958 .45700074 .6596985 .43299867 .6667023 .40098573 .67570498 .36698915 .67871096 .33299256 .67871096L.06098938 .679245 .054992677 .6732483 .053985597 .65625M.21299744 .37045289C.21299744 .375412 .21699524 .549942 .21899414 .61376956 .21998596 .63272097 .22299195 .6397095 .23098755 .6397095H.2709961C.2979889 .6397095 .32598878 .6377106 .35299684 .63072207 .37199403 .6257324 .3909912 .61776736 .40499879 .6037903 .42599488 .5828552 .43798829 .55293276 .43798829 .52301028 .43798829 .47813417 .41799928 .43624879 .3869934 .40533448 .35398866 .37141419 .30599977 .36044313 .2599945 .35646058 .24798584 .35546876 .23498535 .35546876 .22200012 .35546876 .21499634 .35546876 .21299744 .36444093 .21299744 .37042237V.37045289Z"/>
<path id="font_1_6" d="M.022994996 .6513672C.036987306 .649353 .049987794 .6463623 .06298828 .6433563 .07199097 .6413574 .07998657 .6353607 .085998538 .62835696 .09599304 .61834719 .102996829 .60635378 .10899353 .5943451L.2579956 .29930116C.2579956 .19927979 .2579956 .0982666 .25498963-.0017547608L.2659912-.0107421879 .35598756 .018249512 .34700013 .30630494C.42999269 .4343109 .5039978 .5303345 .61499026 .675354L.61099246 .6933594 .526001 .6763611C.48999024 .619339 .4059906 .47431947 .397995 .46032716 .3849945 .4373169 .34199525 .36730958 .33898927 .3623047 .33599855 .3572998 .33198548 .353302 .32798768 .353302 .32199098 .353302 .31698609 .3592987 .31599427 .36131288L.1749878 .6863556H.02999878L.022994996 .67936709V.6513672Z"/>
</defs>
<use data-text="+" xlink:href="#font_1_7" transform="matrix(37.185197,0,0,-37.18505,103.05142,42.257265)"/>
<use data-text="G" xlink:href="#font_1_8" transform="matrix(21.51903,0,0,-21.519398,217.51706,38.117753)"/>
<use data-text="(" xlink:href="#font_1_2" transform="matrix(21.51903,0,0,-21.519398,233.97913,38.117753)"/>
<use data-text="s" xlink:href="#font_1_3" transform="matrix(21.51903,0,0,-21.519398,243.52411,38.117753)"/>
<use data-text=")" xlink:href="#font_1_4" transform="matrix(21.51903,0,0,-21.519398,254.51087,38.117753)"/>
<path transform="matrix(1,0,0,-1,117.090908,32.736474)" stroke-width=".75" stroke-linecap="round" stroke-linejoin="round" fill="none" stroke="#000000" d="M101.39816-25.784213C100.2405-25.417096 100.143619-24.637194 100.52455-23.983466 115.44572-24.6818 130.80518-24.512927 145.58356-24.522112 161.01508-25.345637 160.22217-24.596083 160.6297-9.771068 160.49245-4.211887 160.84322 3.805947 161.62908 10.047672 160.8876 25.32681 161.55931 25.277005 145.40256 25.199215 130.63333 24.23345 115.96868 24.484923 100.01287 23.980267 84.79811 24.90592 85.463039 24.151837 85.93755 10.786015 86.29842 4.182145 86.03389-4.020202 85.91454-9.730165 85.81339-24.689793 86.14724-24.299164 101.39816-25.784213Z"/>
<path transform="matrix(1,0,0,-1,117.090908,32.736474)" stroke-width=".75" stroke-linecap="round" stroke-linejoin="round" fill="none" stroke="#000000" d="M21.526192-.175832C20.786446 12.786521 11.792626 20.752215 .057898 20.915059-11.051759 21.755705-22.123358 12.751342-20.782952-.655947-22.481406-12.743204-11.028673-22.14662-.788213-20.837559 12.601959-20.703095 20.940657-11.417309 21.526192-.175832Z"/>
<path transform="matrix(1,0,0,-1,117.090908,32.736474)" stroke-width=".75" stroke-linecap="round" stroke-linejoin="round" fill="none" stroke="#000000" d="M-63.980138 .095507C-49.72818 .323241-36.11138 .420059-21.746384-.205434"/>
<path transform="matrix(1,0,0,-1,117.090908,32.736474)" stroke-width=".75" stroke-linecap="round" stroke-linejoin="round" fill="none" stroke="#000000" d="M-34.616395-8.345673C-30.776127-4.067153-27.090985-.960977-21.667059-.051098-26.458207 .752885-31.138537 4.365042-33.98117 8.109511"/>
<path transform="matrix(1,0,0,-1,117.090908,32.736474)" stroke-width=".75" stroke-linecap="round" stroke-linejoin="round" fill="none" stroke="#000000" d="M21.64839 .261981C43.085515 .170969 64.20972 .221249 85.21184-.230156"/>
<path transform="matrix(1,0,0,-1,117.090908,32.736474)" stroke-width=".75" stroke-linecap="round" stroke-linejoin="round" fill="none" stroke="#000000" d="M72.27969-8.251411C75.47774-3.951614 79.68927-1.302428 84.684787-.272538 80.034229 1.280884 75.87929 4.276328 72.60845 8.18903"/>
<path transform="matrix(1,0,0,-1,117.090908,32.736474)" stroke-width=".75" stroke-linecap="round" stroke-linejoin="round" fill="none" stroke="#000000" d="M160.92958 .306749C189.22682-.092113 217.2099-.437521 245.59899-.310986"/>
<path transform="matrix(1,0,0,-1,117.090908,32.736474)" stroke-width=".75" stroke-linecap="round" stroke-linejoin="round" fill="none" stroke="#000000" d="M233.48593-8.03954C236.38916-4.342938 241.1999-1.220122 246.16483-.063099 241.03186 .903792 235.96231 4.112694 232.93799 8.036642"/>
<path transform="matrix(1,0,0,-1,117.090908,32.736474)" stroke-width=".75" stroke-linecap="round" stroke-linejoin="round" fill="none" stroke="#000000" d="M203.61841 .156239C203.0715-29.767113 203.32393-59.49256 203.29659-88.494487 176.15923-88.347 149.98319-88.53368 122.99394-88.79735 81.79926-88.34557 40.678129-88.88497-.394022-89.02105 .205336-66.333118 .199338-44.12001 .391558-21.78151"/>
<path transform="matrix(1,0,0,-1,117.090908,32.736474)" stroke-width=".75" stroke-linecap="round" stroke-linejoin="round" fill="none" stroke="#000000" d="M8.382505-34.86518C4.207636-31.61758 1.03668-26.745562 .367059-21.924765-.924856-27.425385-3.601936-31.620017-8.114042-34.286737"/>
<path transform="matrix(1,0,0,-1,117.090908,32.736474)" stroke-width=".75" stroke-linecap="round" stroke-linejoin="round" fill="none" stroke="#000000" d="M100.391529-24.459654C101.16672-25.874102 99.89903-24.050253 99.75418-25.05789 115.742099-24.553704 129.81955-24.481835 145.67873-25.374135 160.87096-24.364636 160.10524-24.114344 160.71433-10.268448 159.81224-3.073405 161.18958 3.691432 160.4619 10.214495 161.57541 25.509505 160.68897 25.369744 146.69193 25.08016 131.51882 25.178082 114.83367 24.182866 100.394618 25.27209 86.14488 25.841639 86.173969 25.470963 85.19317 10.500468 85.29592 3.736686 85.9511-3.205037 85.45913-10.502906 85.120738-24.127869 84.49314-24.783835 100.391529-24.459654Z"/>
<path transform="matrix(1,0,0,-1,117.090908,32.736474)" stroke-width=".75" stroke-linecap="round" stroke-linejoin="round" fill="none" stroke="#000000" d="M21.822119 .529238C21.73082 11.259065 12.804701 22.046742-.253516 21.208256-11.824081 21.134778-21.09286 12.742139-20.68787-.940454-20.820015-12.567356-12.4662-21.219393 .801807-21.660555 11.484424-21.649428 21.70046-12.017404 21.822119 .529238Z"/>
<path transform="matrix(1,0,0,-1,117.090908,32.736474)" stroke-width=".75" stroke-linecap="round" stroke-linejoin="round" fill="none" stroke="#000000" d="M-64.108867 .118212C-49.74419 .085864-35.296827-.341413-21.982989 .158225"/>
<path transform="matrix(1,0,0,-1,117.090908,32.736474)" stroke-width=".75" stroke-linecap="round" stroke-linejoin="round" fill="none" stroke="#000000" d="M-34.00581-8.296282C-30.719397-3.592794-26.425244-1.303401-21.205784-.313879-26.745457 1.042838-30.757927 3.58685-34.476408 7.929043"/>
<path transform="matrix(1,0,0,-1,117.090908,32.736474)" stroke-width=".75" stroke-linecap="round" stroke-linejoin="round" fill="none" stroke="#000000" d="M21.299002-.165793C42.7302 .366822 64.10337-.429534 85.49849-.217299"/>
<path transform="matrix(1,0,0,-1,117.090908,32.736474)" stroke-width=".75" stroke-linecap="round" stroke-linejoin="round" fill="none" stroke="#000000" d="M72.25019-8.102482C75.477039-4.440876 80.31044-.819997 85.03596 .26985 80.39715 .759552 75.7499 4.079403 72.290889 8.224224"/>
<path transform="matrix(1,0,0,-1,117.090908,32.736474)" stroke-width=".75" stroke-linecap="round" stroke-linejoin="round" fill="none" stroke="#000000" d="M160.86495-.189636C188.89806 .234819 217.24646-.107247 245.76403 .107165"/>
<path transform="matrix(1,0,0,-1,117.090908,32.736474)" stroke-width=".75" stroke-linecap="round" stroke-linejoin="round" fill="none" stroke="#000000" d="M232.73062-7.839906C235.93106-4.097597 241.12459-1.50921 246.08826-.081244 240.90633 1.539573 236.35678 4.267402 233.04834 8.504338"/>
<path transform="matrix(1,0,0,-1,117.090908,32.736474)" stroke-width=".75" stroke-linecap="round" stroke-linejoin="round" fill="none" stroke="#000000" d="M203.09795 .30989C203.60747-29.776524 203.08287-58.896539 203.35834-89.06977 176.71817-88.922939 150.04567-88.47608 122.94523-88.89533 82.38753-88.37754 41.171064-88.29988-.087006-88.904567-.008743-66.229167 .076642-43.968065 .018554-21.700476"/>
<path transform="matrix(1,0,0,-1,117.090908,32.736474)" stroke-width=".75" stroke-linecap="round" stroke-linejoin="round" fill="none" stroke="#000000" d="M8.02567-34.95515C4.080242-31.62467 .843394-27.127528 .390654-22.398312-1.292865-27.209435-3.603132-31.220656-8.375024-34.402536"/>
<path transform="matrix(1,0,0,-1,117.090908,32.736474)" stroke-width=".75" stroke-linecap="round" stroke-linejoin="round" fill="none" stroke="#000000" d="M100.181568-25.497754C101.05628-24.127518 100.897609-24.59906 100.79493-25.284052 114.78964-24.550553 130.94396-25.576798 145.11812-25.575343 160.28586-24.258028 160.66783-24.168768 160.7542-9.447551 161.03072-4.0105 159.92194 3.802321 159.95372 9.872478 160.11486 24.013401 161.58635 25.233714 145.14902 25.305594 131.31711 24.017765 114.92211 24.988389 100.30818 25.54749 84.9771 24.83725 86.28808 25.288937 86.15867 9.188464 86.17508 3.805973 86.339748-3.915996 85.142498-10.594663 85.98192-25.732224 85.93829-24.164479 100.181568-25.497754Z"/>
<path transform="matrix(1,0,0,-1,117.090908,32.736474)" stroke-width=".75" stroke-linecap="round" stroke-linejoin="round" fill="none" stroke="#000000" d="M20.99959 .50725C20.814145 12.72417 11.089417 22.459216 .941083 22.397604-12.258663 22.282736-22.51428 12.12974-22.189745 .714435-22.518568-11.978719-12.368454-22.141015-.313686-22.135409 12.365779-22.44634 20.782376-12.21036 20.99959 .50725Z"/>
<path transform="matrix(1,0,0,-1,117.090908,32.736474)" stroke-width=".75" stroke-linecap="round" stroke-linejoin="round" fill="none" stroke="#000000" d="M-64.11242 .173333C-50.106454 .397248-35.949369-.089829-21.857863-.001196"/>
<path transform="matrix(1,0,0,-1,117.090908,32.736474)" stroke-width=".75" stroke-linecap="round" stroke-linejoin="round" fill="none" stroke="#000000" d="M-34.359224-8.287805C-31.252755-4.172313-26.418332-1.021246-21.345728-.153155-26.920107 .86284-31.420083 4.35095-34.549356 7.985915"/>
<path transform="matrix(1,0,0,-1,117.090908,32.736474)" stroke-width=".75" stroke-linecap="round" stroke-linejoin="round" fill="none" stroke="#000000" d="M21.619906-.095713C42.61298 .010864 64.07962-.100181 84.81906 .0019"/>
<path transform="matrix(1,0,0,-1,117.090908,32.736474)" stroke-width=".75" stroke-linecap="round" stroke-linejoin="round" fill="none" stroke="#000000" d="M72.44541-7.722736C75.87789-4.422829 79.90126-1.56765 85.35671-.281798 79.64014 1.512595 75.53244 4.10586 72.47313 7.73109"/>
<path transform="matrix(1,0,0,-1,117.090908,32.736474)" stroke-width=".75" stroke-linecap="round" stroke-linejoin="round" fill="none" stroke="#000000" d="M160.95584-.365427C189.14064-.094843 217.56215-.230584 246.19612-.27152"/>
<path transform="matrix(1,0,0,-1,117.090908,32.736474)" stroke-width=".75" stroke-linecap="round" stroke-linejoin="round" fill="none" stroke="#000000" d="M232.898-7.769282C236.11727-4.250286 240.92508-1.060239 246.08153-.362938 240.60347 1.37144 236.0718 3.848308 233.55937 8.127833"/>
<path transform="matrix(1,0,0,-1,117.090908,32.736474)" stroke-width=".75" stroke-linecap="round" stroke-linejoin="round" fill="none" stroke="#000000" d="M203.51457-.391442C203.22362-29.75756 202.87424-58.734415 203.1473-88.41437 176.61997-88.42726 150.23088-88.29019 122.78934-88.57504 82.39374-89.013217 41.349615-88.801769-.332748-88.45849-.038422-66.7641 .000595-44.24284 .402606-22.383765"/>
<path transform="matrix(1,0,0,-1,117.090908,32.736474)" stroke-width=".75" stroke-linecap="round" stroke-linejoin="round" fill="none" stroke="#000000" d="M8.028565-34.52917C4.243166-31.355574 1.33071-27.111693 .078268-21.657977-.828357-26.696616-4.404203-31.691061-8.486421-34.41301"/>
<path transform="matrix(1,0,0,-1,117.090908,32.736474)" stroke-width=".75" stroke-linecap="round" stroke-linejoin="round" fill="none" stroke="#000000" d="M100.041919-24.382367C99.83056-25.31574 100.27642-23.987446 99.83247-25.186194 114.887279-24.658524 130.75342-24.273669 145.99384-25.887667 161.22249-25.28387 160.40627-24.745085 160.19477-10.71229 160.49246-2.551892 160.83507 3.738983 160.50037 9.094196 160.79253 24.758009 161.12343 24.54988 146.6894 25.009213 130.70316 25.77452 115.75254 24.132456 101.014469 25.494837 85.21079 25.200463 84.83065 25.188124 86.00421 10.725848 84.81911 2.845314 85.293308-3.67714 84.59511-10.336907 84.95385-25.756785 85.39697-25.838273 100.041919-24.382367Z"/>
<path transform="matrix(1,0,0,-1,117.090908,32.736474)" stroke-width=".75" stroke-linecap="round" stroke-linejoin="round" fill="none" stroke="#000000" d="M21.10099 .573625C22.600962 12.494671 11.671329 20.881884-.310273 22.207436-12.512983 20.831412-22.551692 11.838268-22.202637 .245849-21.859942-11.721042-11.478167-20.838225 .578899-20.95044 11.19145-22.322058 21.28069-11.987515 21.10099 .573625Z"/>
<path transform="matrix(1,0,0,-1,117.090908,32.736474)" stroke-width=".75" stroke-linecap="round" stroke-linejoin="round" fill="none" stroke="#000000" d="M-63.87424 .155696C-49.86412-.354286-35.41352 .00502-21.66473 .044403"/>
<path transform="matrix(1,0,0,-1,117.090908,32.736474)" stroke-width=".75" stroke-linecap="round" stroke-linejoin="round" fill="none" stroke="#000000" d="M-34.528684-8.135372C-31.277518-4.29812-27.098153-1.370972-21.65681 .222802-26.84954 1.363217-30.827424 4.193169-34.526178 8.449838"/>
<path transform="matrix(1,0,0,-1,117.090908,32.736474)" stroke-width=".75" stroke-linecap="round" stroke-linejoin="round" fill="none" stroke="#000000" d="M21.405606 .205051C42.684076-.016774 64.15916 .230606 85.04804 .232712"/>
<path transform="matrix(1,0,0,-1,117.090908,32.736474)" stroke-width=".75" stroke-linecap="round" stroke-linejoin="round" fill="none" stroke="#000000" d="M72.33946-8.116268C75.635929-4.210792 79.72364-1.420751 85.40436 .189889 79.85864 .79447 75.7819 4.420203 72.59339 7.636984"/>
<path transform="matrix(1,0,0,-1,117.090908,32.736474)" stroke-width=".75" stroke-linecap="round" stroke-linejoin="round" fill="none" stroke="#000000" d="M161.14954 .187209C188.81827 .164335 217.46314 .081035 245.67472 .113197"/>
<path transform="matrix(1,0,0,-1,117.090908,32.736474)" stroke-width=".75" stroke-linecap="round" stroke-linejoin="round" fill="none" stroke="#000000" d="M233.52103-8.105097C235.936-3.709108 240.36222-.790515 246.20893 .140209 240.75482 .759089 236.03536 3.560819 232.88329 8.279585"/>
<path transform="matrix(1,0,0,-1,117.090908,32.736474)" stroke-width=".75" stroke-linecap="round" stroke-linejoin="round" fill="none" stroke="#000000" d="M202.99396-.449308C203.18665-29.285517 203.62216-58.766798 203.47524-89.00684 176.63552-88.34598 149.54187-89.01268 122.88853-88.56852 82.4909-88.78938 40.68529-88.415569 .423556-88.85749 .082615-66.73621 .441219-44.575254 .039261-22.029719"/>
<path transform="matrix(1,0,0,-1,117.090908,32.736474)" stroke-width=".75" stroke-linecap="round" stroke-linejoin="round" fill="none" stroke="#000000" d="M8.499424-34.939428C4.246275-31.629702 .7458-27.19822 .333599-22.379387-1.066473-27.238434-4.149756-31.776907-8.377981-34.943769"/>
<path transform="matrix(1,0,0,-1,117.090908,32.736474)" stroke-width=".75" stroke-linecap="round" stroke-linejoin="round" fill="none" stroke="#000000" d="M101.10657-25.059117C99.45448-25.114638 100.8814-25.697432 99.58669-24.8443 114.94109-24.8215 130.39374-25.155943 146.14574-25.528023 161.25009-25.32152 161.55565-24.945429 161.4148-9.931341 159.83103-4.072838 160.26753 2.866015 160.35901 10.401854 160.60866 24.971545 161.24982 25.2866 146.4417 24.912907 130.49733 24.13969 116.4744 25.825392 100.49194 25.318249 85.56609 24.037226 85.280399 24.690522 85.47994 9.543663 85.16275 2.612027 85.45691-4.222301 85.565219-9.063937 85.34757-24.865756 86.08945-24.004982 101.10657-25.059117Z"/>
<path transform="matrix(1,0,0,-1,117.090908,32.736474)" stroke-width=".75" stroke-linecap="round" stroke-linejoin="round" fill="none" stroke="#000000" d="M21.129273-.632712C22.369954 12.88358 11.068737 21.740372-.611954 20.96317-11.68804 20.90475-22.611174 12.014045-22.554162-.358346-21.013405-11.891657-12.04962-21.557433-.390191-22.224326 12.156531-20.821017 21.674429-12.477183 21.129273-.632712Z"/>
<path transform="matrix(1,0,0,-1,117.090908,32.736474)" stroke-width=".75" stroke-linecap="round" stroke-linejoin="round" fill="none" stroke="#000000" d="M-63.682195 .378392C-49.673608 .164045-35.65152-.360222-21.21672-.000417"/>
<path transform="matrix(1,0,0,-1,117.090908,32.736474)" stroke-width=".75" stroke-linecap="round" stroke-linejoin="round" fill="none" stroke="#000000" d="M-33.95696-8.373047C-30.75403-3.996761-26.56605-1.532196-21.385375-.118021-26.800009 1.384332-31.545924 3.829696-34.40123 8.200505"/>
<path transform="matrix(1,0,0,-1,117.090908,32.736474)" stroke-width=".75" stroke-linecap="round" stroke-linejoin="round" fill="none" stroke="#000000" d="M22.044068-.269408C42.95198-.432037 63.687337-.368133 84.808559 .280927"/>
<path transform="matrix(1,0,0,-1,117.090908,32.736474)" stroke-width=".75" stroke-linecap="round" stroke-linejoin="round" fill="none" stroke="#000000" d="M72.800098-8.411339C75.98225-3.892418 80.14511-1.435554 84.76173-.084483 80.249568 1.486056 75.29995 3.816165 72.418567 8.346207"/>
<path transform="matrix(1,0,0,-1,117.090908,32.736474)" stroke-width=".75" stroke-linecap="round" stroke-linejoin="round" fill="none" stroke="#000000" d="M160.34772 .229274C189.10391-.009185 217.34079-.253967 246.18817-.422083"/>
<path transform="matrix(1,0,0,-1,117.090908,32.736474)" stroke-width=".75" stroke-linecap="round" stroke-linejoin="round" fill="none" stroke="#000000" d="M232.7568-8.463806C235.98668-4.207158 240.97972-1.339136 245.99248-.357544 241.19709 1.581179 236.55245 4.310584 232.8836 7.775402"/>
<path transform="matrix(1,0,0,-1,117.090908,32.736474)" stroke-width=".75" stroke-linecap="round" stroke-linejoin="round" fill="none" stroke="#000000" d="M203.58393 .291949C203.34133-29.369399 202.98499-58.84313 203.52803-88.72093 176.36696-88.83979 149.79207-88.73391 122.79883-88.6316 81.75706-88.91087 40.927446-88.525737-.401013-88.91181 .048961-66.426479 .149294-43.851999 .029342-22.454873"/>
<path transform="matrix(1,0,0,-1,117.090908,32.736474)" stroke-width=".75" stroke-linecap="round" stroke-linejoin="round" fill="none" stroke="#000000" d="M8.438655-34.612295C3.944676-31.61828 1.568454-27.254578-.446077-22.376324-.800237-27.101468-3.739317-31.950089-8.453947-34.487176"/>
<use data-text="+" xlink:href="#font_1_7" transform="matrix(21.519354,0,0,-21.519316,79.04162,24.993668)"/>
<use data-text="&#x2212;" xlink:href="#font_1_9" transform="matrix(21.519371,0,0,-21.519288,123.240818,63.34588)"/>
<use data-text="R" xlink:href="#font_1_5" transform="matrix(21.5195,0,0,-21.519398,6.8142855,38.117753)"/>
<use data-text="(" xlink:href="#font_1_2" transform="matrix(21.5195,0,0,-21.519398,19.919663,38.117753)"/>
<use data-text="s" xlink:href="#font_1_3" transform="matrix(21.5195,0,0,-21.519398,29.464852,38.117753)"/>
<use data-text=")" xlink:href="#font_1_4" transform="matrix(21.5195,0,0,-21.519398,40.451848,38.117753)"/>
<use data-text="Y" xlink:href="#font_1_6" transform="matrix(21.519246,0,0,-21.519398,367.41108,38.117753)"/>
<use data-text="(" xlink:href="#font_1_2" transform="matrix(21.519246,0,0,-21.519398,380.5597,38.117753)"/>
<use data-text="s" xlink:href="#font_1_3" transform="matrix(21.519246,0,0,-21.519398,390.1048,38.117753)"/>
<use data-text=")" xlink:href="#font_1_4" transform="matrix(21.519246,0,0,-21.519398,401.09169,38.117753)"/>
</svg>
