<svg xmlns="http://www.w3.org/2000/svg" xmlns:xlink="http://www.w3.org/1999/xlink" version="1.1" width="690.3566" height="189.59874" viewBox="0 0 690.3566 189.59874">
<defs>
<path id="font_11_13" d="M.09199524 .6121063H.1749878C.19999695 .6121063 .21998596 .5911102 .22099304 .56611636 .22200012 .5411072 .22200012 .46810914 .22200012 .41911317 .22200012 .27911378 .21899414 .13911438 .21398926 .00010681152L.22599793-.0048828127 .30999757 .022109986C.30699159 .09811401 .30699159 .29611207 .30699159 .43211366 .30699159 .52111819 .30899049 .6111145 .31399537 .70010378L.30799867 .7121124 .09199524 .6391144V.6121063Z"/>
<path id="font_11_14" d="M.033996583 .30323792C.033996583 .24525452 .038986207 .192276 .054992677 .1362915 .06599426 .09429932 .08699036 .05331421 .117996219 .022323609 .14199829-.0006866455 .17399597-.013671875 .20698548-.013671875 .2619934-.013671875 .31498719 .00831604 .35398866 .046325685 .3899994 .08331299 .41600038 .12928772 .43199159 .17727661 .45199586 .23425293 .45999146 .2952423 .45999146 .35621644 .45999146 .43418885 .44499208 .51316836 .40499879 .58213809 .37599183 .63212588 .33999635 .6721039 .2899933 .70410159 .24598694 .68611147 .19699097 .6621094 .1639862 .6291199 .07899475 .54415896 .033996583 .42318727 .033996583 .30323792M.100997928 .37121583C.100997928 .45217896 .1289978 .53215029 .18099976 .59513857 .19699097 .61413577 .21499634 .62812808 .23399353 .64012148 .2789917 .62112429 .32398988 .55114749 .32998658 .53915408 .37399293 .46118165 .397995 .37521363 .397995 .2852478 .397995 .24525452 .394989 .20426941 .3829956 .16627503 .37298585 .13529969 .3600006 .10630798 .33699037 .08331299 .31599427 .061325075 .2829895 .052322389 .2519989 .052322389 .23199463 .052322389 .20298767 .065322879 .18399048 .08430481 .15299988 .11529541 .1349945 .15628052 .12199402 .19926453 .10598755 .2542572 .100997928 .31323243 .100997928 .37121583Z"/>
<path id="font_11_3" d="M.051986696 .06642151C.06199646 .047409059 .07598877 .030395508 .09199524 .01638794 .12098694-.009613037 .16099549-.016601563 .19898987-.016601563 .2559967-.016601563 .31199647 .0023956299 .35099793 .044403078 .375 .06941223 .3869934 .10343933 .3869934 .13845825 .3869934 .1634674 .37298585 .18649292 .35499574 .20449829 .34098817 .21850586 .3039856 .24052429 .27198792 .25453187 .24299622 .26654054 .19999695 .2885437 .18798828 .30055238 .17298889 .31655885 .1619873 .3285675 .1619873 .35058595 .1619873 .3725891 .16899109 .39360047 .18499756 .4086151 .19999695 .42362977 .22200012 .43164063 .24398804 .43164063 .2639923 .43164063 .2849884 .42462159 .29599 .4066162 .30599977 .39060975 .30799867 .3715973 .30899049 .35359193L.32099916 .34657289 .37599183 .38360597C.375 .40560914 .3639984 .42662049 .34799195 .44163514 .32499696 .46263124 .29299928 .46662904 .2630005 .46662904 .21398926 .46662904 .16699219 .45063783 .1309967 .4176178 .10398865 .39360047 .08999634 .35858155 .08999634 .32356263 .08999634 .29154969 .10798645 .26353456 .1309967 .2425232 .1539917 .22250366 .18399048 .2084961 .21499634 .1954956 .24099732 .18447876 .2689972 .17248535 .28799439 .1534729 .30299378 .13845825 .31399537 .11845398 .31399537 .09744263 .31399537 .079422 .30499269 .062408449 .29299928 .04940796 .27799989 .03340149 .25099183 .021392823 .22898865 .021392823 .19898987 .021392823 .17199707 .03439331 .1499939 .055404664 .1269989 .076416019 .116989139 .10644531 .114990238 .13645935L.100997928 .13745117 .051986696 .06642151Z"/>
<path id="font_11_2" d="M.11299133 .24990845C.11299133 .007904053 .1519928-.09008789 .18299866-.13310242 .21099854-.17008972 .25299073-.20809937 .30099488-.21209717V-.1880951C.2809906-.18409729 .25099183-.16809082 .23399353-.1481018 .21998596-.13209534 .16499329-.05809021 .16499329 .24990845 .16499329 .4618988 .19799805 .5659027 .21998596 .6128998 .23599243 .6469116 .2689972 .6769104 .30099488 .684906V.71191409C.2599945 .7049103 .21598816 .6729126 .19099427 .63790896 .1599884 .5919037 .11299133 .4748993 .11299133 .24990845Z"/>
<path id="font_11_7" d="M.04598999 .23632813H.35598756V-.07368469L.3959961-.06668091V.23632813H.70399478L.70899966 .2763214H.3959961V.58631899L.35598756 .58032229V.2763214H.052993776L.04598999 .23632813Z"/>
<path id="font_11_11" d="M.011993408 .07626343 .0129852299 .06425476C.053985597 .01524353 .114990238-.0107421879 .17799378-.0107421879 .25299073-.0107421879 .32499696 .018249512 .37799073 .071258548 .4249878 .118270877 .44799806 .18429566 .44799806 .25131227 .44799806 .30332948 .43299867 .3563385 .394989 .39335633 .35899354 .4293518 .30799867 .44335938 .25698854 .44335938 .21099854 .44335938 .1659851 .42634584 .125 .4063568V.41334535 .5944824C.125 .6004791 .1309967 .6044922 .13699341 .6044922 .18499756 .6044922 .31098939 .6074829 .397995 .6094818L.4249878 .68748477H.08999634L.08299255 .68048098V.35333253L.09599304 .34233094C.12799073 .3733368 .16899109 .39535523 .21299744 .39535523 .24699402 .39535523 .2809906 .38534547 .30499269 .36134339 .34098817 .32533265 .35198976 .27331544 .35198976 .22329712 .35198976 .1672821 .33699037 .10827637 .2979889 .06925964 .2679901 .039260866 .22698975 .026245118 .18598938 .026245118 .1579895 .026245118 .13198853 .040252687 .11299133 .059265138 .09199524 .08026123 .07899475 .106277469 .066986087 .13227844H.055999757L.011993408 .07626343Z"/>
<path id="font_11_4" d="M.085998538-.1880951V-.21209717C.13398743-.20610047 .1789856-.17208863 .20698548-.13510132 .23799134-.09210205 .27598573 .007904053 .27598573 .24990845 .27598573 .50090029 .22399903 .5919037 .19299317 .63790896 .16799927 .6729126 .1269989 .7049103 .085998538 .71191409V.684906C.117996219 .6759033 .14898682 .6469116 .16499329 .6128998 .18699646 .5659027 .22399903 .48190309 .22399903 .24990845 .22399903-.099090579 .17199707-.13209534 .1579895-.1481018 .14099121-.16809082 .10598755-.18409729 .085998538-.1880951Z"/>
<path id="font_11_9" d="M.04598999 .23046875H.70399478L.70999148 .27046205H.052993776L.04598999 .23046875Z"/>
<path id="font_11_5" d="M.053985597 .65625C.054992677 .65625 .08999634 .6462555 .10798645 .6412506 .12098694 .6372528 .1309967 .6252594 .1309967 .61128237 .13198853 .5543213 .13398743 .45439149 .13398743 .43940736 .13398743 .29444886 .1329956 .14831543 .125 .003189087L.13598633-.0058135988 .21899414 .023208619C.21398926 .11929321 .21398926 .21638489 .21398926 .31245423 .21998596 .31245423 .22898865 .30845643 .23399353 .30345155 .2630005 .27442933 .3899994 .11128235 .48298646-.0078125L.58200076 .018203736V.02720642L.31900025 .3234558 .32099916 .33146668C.4039917 .3404541 .4850006 .3734131 .5169983 .44322206 .5319977 .47714234 .5359955 .49110414 .5359955 .53897097 .5359955 .57388308 .5219879 .6077881 .49699403 .63272097 .47999574 .6506958 .45700074 .6596985 .43299867 .6667023 .40098573 .67570498 .36698915 .67871096 .33299256 .67871096L.06098938 .679245 .054992677 .6732483 .053985597 .65625M.21299744 .37045289C.21299744 .375412 .21699524 .549942 .21899414 .61376956 .21998596 .63272097 .22299195 .6397095 .23098755 .6397095H.2709961C.2979889 .6397095 .32598878 .6377106 .35299684 .63072207 .37199403 .6257324 .3909912 .61776736 .40499879 .6037903 .42599488 .5828552 .43798829 .55293276 .43798829 .52301028 .43798829 .47813417 .41799928 .43624879 .3869934 .40533448 .35398866 .37141419 .30599977 .36044313 .2599945 .35646058 .24798584 .35546876 .23498535 .35546876 .22200012 .35546876 .21499634 .35546876 .21299744 .36444093 .21299744 .37042237V.37045289Z"/>
<path id="font_11_6" d="M.022994996 .6513672C.036987306 .649353 .049987794 .6463623 .06298828 .6433563 .07199097 .6413574 .07998657 .6353607 .085998538 .62835696 .09599304 .61834719 .102996829 .60635378 .10899353 .5943451L.2579956 .29930116C.2579956 .19927979 .2579956 .0982666 .25498963-.0017547608L.2659912-.0107421879 .35598756 .018249512 .34700013 .30630494C.42999269 .4343109 .5039978 .5303345 .61499026 .675354L.61099246 .6933594 .526001 .6763611C.48999024 .619339 .4059906 .47431947 .397995 .46032716 .3849945 .4373169 .34199525 .36730958 .33898927 .3623047 .33599855 .3572998 .33198548 .353302 .32798768 .353302 .32199098 .353302 .31698609 .3592987 .31599427 .36131288L.1749878 .6863556H.02999878L.022994996 .67936709V.6513672Z"/>
<path id="font_11_19" d="M.050994874 .6591797C.069992069 .6531677 .08999634 .64816287 .10899353 .6411743 .117996219 .63716128 .125 .6301575 .12599182 .62016299 .1269989 .6051636 .12799073 .5891571 .12799073 .57315066V.07904053C.1269989 .041030885 .12599182 .027038575 .10598755 .012023926V.002029419H.33699037C.39698792 .002029419 .45700074 .0070343019 .5139923 .024032593 .55799868 .03703308 .60798647 .057037355 .6389923 .091049198 .71598818 .174057 .73799136 .25808717 .73799136 .38511659 .73799136 .43011476 .73399356 .47512818 .72099307 .5171356 .71099856 .55114749 .69599917 .5831604 .67099 .6081543 .6399994 .63916018 .59799197 .6551666 .5549927 .6661682 .49499513 .680542 .43299867 .6855469 .37098695 .6855469L.057998659 .6861725 .050994874 .6781769V.6591797M.21199036 .1700592V.57514956C.21199036 .6061554 .21299744 .62615969 .21499634 .62916567 .21798706 .63516238 .21998596 .63816836 .22599793 .6411743 .23199463 .6435394 .24899292 .6445465 .2919922 .6445465 .33898927 .6445465 .44799806 .6415405 .48098756 .634552 .522995 .6255493 .548996 .6125641 .57099917 .5905762 .6269989 .5346222 .6439972 .43771363 .6439972 .37675477 .6439972 .2828369 .6230011 .184906 .5549927 .11697388 .5269928 .08898926 .4909973 .072006229 .45399476 .060012819 .40699769 .045028688 .35798646 .040039064 .30899049 .040039064 .28199769 .040039064 .24299622 .040039064 .22999573 .053024293 .21499634 .06800842 .21299744 .1299591 .21199036 .16992188V.1700592Z"/>
</defs>
<use data-text="1" xlink:href="#font_11_13" transform="matrix(21.519236,0,0,-21.519398,217.90505,124.14302)"/>
<use data-text="0" xlink:href="#font_11_14" transform="matrix(21.519236,0,0,-21.519398,228.64315,124.14302)"/>
<use data-text="0" xlink:href="#font_11_14" transform="matrix(21.519236,0,0,-21.519398,239.38124,124.14302)"/>
<use data-text="1" xlink:href="#font_11_13" transform="matrix(21.518713,0,0,-21.519562,488.60145,110.77505)"/>
<path transform="matrix(1.4999591,0,0,-1.5000182,450.98207,116.63011)" stroke-width=".574019" stroke-linecap="butt" stroke-linejoin="round" fill="none" stroke="#000000" d="M0 0H57.321455"/>
<use data-text="s" xlink:href="#font_11_3" transform="matrix(21.518713,0,0,-21.519562,450.98207,133.24817)"/>
<use data-text="(" xlink:href="#font_11_2" transform="matrix(21.518713,0,0,-21.519562,460.77308,133.24817)"/>
<use data-text="s" xlink:href="#font_11_3" transform="matrix(21.518713,0,0,-21.519562,470.31794,133.24817)"/>
<use data-text="+" xlink:href="#font_11_7" transform="matrix(21.518713,0,0,-21.519562,484.8908,133.24817)"/>
<use data-text="5" xlink:href="#font_11_11" transform="matrix(21.518713,0,0,-21.519562,505.91938,133.24817)"/>
<use data-text="0" xlink:href="#font_11_14" transform="matrix(21.518713,0,0,-21.519562,516.6572,133.24817)"/>
<use data-text=")" xlink:href="#font_11_4" transform="matrix(21.518713,0,0,-21.519562,528.59066,133.24817)"/>
<use data-text="+" xlink:href="#font_11_7" transform="matrix(37.185197,0,0,-37.18505,103.43938,126.15143)"/>
<use data-text="+" xlink:href="#font_11_7" transform="matrix(37.185197,0,0,-37.18505,336.51585,126.15143)"/>
<path transform="matrix(1,0,0,-1,234.01683,116.63063)" stroke-width=".75" stroke-linecap="round" stroke-linejoin="round" fill="none" stroke="#000000" d="M-15.267941-22.37122C-15.5818-22.864642-17.084919-22.919125-16.296189-22.44267-5.763313-22.465336 5.514997-22.919699 16.012585-22.33857 30.522625-23.314023 30.21258-23.46304 30.326605-7.038927 30.713389-3.022276 31.337668 2.326974 30.994626 8.772689 31.04491 23.701367 30.263478 22.053462 16.336943 23.09168 5.868471 22.996769-4.920408 22.343447-16.745217 22.654234-31.298268 23.460633-30.953642 22.77947-30.295474 7.390618-31.625029 2.230335-31.918927-2.253284-30.434327-7.82488-31.671376-23.22751-30.833029-22.32049-15.267941-22.37122Z"/>
<path transform="matrix(1,0,0,-1,234.01683,116.63063)" stroke-width=".75" stroke-linecap="round" stroke-linejoin="round" fill="none" stroke="#000000" d="M217.86804-35.65521C217.64795-36.36148 217.33246-37.134805 217.88852-36.34935 244.80219-36.095327 274.69425-36.565237 303.36054-36.737615 318.87379-35.51077 318.3858-35.988565 317.16636-20.550339 318.13566-7.17034 318.67225 7.019615 317.17579 21.883044 317.30198 36.49666 318.02864 35.475885 303.00984 35.989889 274.31303 35.28993 246.23697 37.132287 216.03525 36.116456 202.19635 35.487119 202.18923 35.701776 202.06624 21.12374 201.14128 6.228904 202.56897-7.504644 201.60611-20.669119 201.39177-36.470769 202.3286-35.328668 217.86804-35.65521Z"/>
<path transform="matrix(1,0,0,-1,234.01683,116.63063)" stroke-width=".75" stroke-linecap="round" stroke-linejoin="round" fill="none" stroke="#000000" d="M-94.09259-.655322C-95.01429 11.213898-104.33717 22.071738-115.666088 21.48792-128.9271 20.962744-138.59001 12.054193-137.6708 .502325-138.37851-12.812936-128.08106-21.011847-116.34775-22.238383-104.26675-21.814972-94.86755-12.292454-94.09259-.655322Z"/>
<path transform="matrix(1,0,0,-1,234.01683,116.63063)" stroke-width=".75" stroke-linecap="round" stroke-linejoin="round" fill="none" stroke="#000000" d="M138.53922-.360138C137.514 11.725383 127.94512 21.44521 116.72969 22.343815 105.167369 21.822375 94.36831 12.445992 95.55565-.965032 94.20115-12.61754 105.09015-21.09079 116.172458-22.450802 128.65689-21.88446 138.3077-12.873626 138.53922-.360138Z"/>
<path transform="matrix(1,0,0,-1,234.01683,116.63063)" stroke-width=".75" stroke-linecap="round" stroke-linejoin="round" fill="none" stroke="#000000" d="M-180.7664-.312515C-166.63095 .033913-152.43187-.009744-138.24611 .138715"/>
<path transform="matrix(1,0,0,-1,234.01683,116.63063)" stroke-width=".75" stroke-linecap="round" stroke-linejoin="round" fill="none" stroke="#000000" d="M-150.77281-8.45641C-147.9758-3.609851-143.64902-1.26621-138.9903-.391372-143.46231 1.168891-147.84693 4.15606-151.2761 8.406472"/>
<path transform="matrix(1,0,0,-1,234.01683,116.63063)" stroke-width=".75" stroke-linecap="round" stroke-linejoin="round" fill="none" stroke="#000000" d="M-95.00411-.279448C-73.89129-.357996-52.848264 .144953-31.21574-.295496"/>
<path transform="matrix(1,0,0,-1,234.01683,116.63063)" stroke-width=".75" stroke-linecap="round" stroke-linejoin="round" fill="none" stroke="#000000" d="M-43.81162-8.332477C-41.2937-3.635554-36.353265-.795598-31.5721 .430527-36.447587 .899691-41.04398 4.03942-44.536939 8.027352"/>
<path transform="matrix(1,0,0,-1,234.01683,116.63063)" stroke-width=".75" stroke-linecap="round" stroke-linejoin="round" fill="none" stroke="#000000" d="M30.83766 .041792C51.81513 .282361 73.516788-.122695 94.47314-.296565"/>
<path transform="matrix(1,0,0,-1,234.01683,116.63063)" stroke-width=".75" stroke-linecap="round" stroke-linejoin="round" fill="none" stroke="#000000" d="M81.68631-8.078069C84.59073-3.921188 89.06076-.953922 94.91429-.023464 89.3966 1.561732 85.158939 3.575577 81.63715 8.501716"/>
<path transform="matrix(1,0,0,-1,234.01683,116.63063)" stroke-width=".75" stroke-linecap="round" stroke-linejoin="round" fill="none" stroke="#000000" d="M137.73839 .025631C158.98819-.196875 180.64273-.38866 201.5286-.389953"/>
<path transform="matrix(1,0,0,-1,234.01683,116.63063)" stroke-width=".75" stroke-linecap="round" stroke-linejoin="round" fill="none" stroke="#000000" d="M188.55393-8.056782C191.94614-3.653804 196.33036-1.304169 201.98217-.068028 196.7697 1.392834 192.49959 3.625764 189.10376 7.801036"/>
<path transform="matrix(1,0,0,-1,234.01683,116.63063)" stroke-width=".75" stroke-linecap="round" stroke-linejoin="round" fill="none" stroke="#000000" d="M318.34907 .276523C346.425-.079156 374.8292-.03095 402.7333 .130937"/>
<path transform="matrix(1,0,0,-1,234.01683,116.63063)" stroke-width=".75" stroke-linecap="round" stroke-linejoin="round" fill="none" stroke="#000000" d="M390.65357-7.871272C393.4496-4.411933 397.55879-1.063014 403.16218 .06401 398.02339 .948786 393.07655 3.999649 390.20555 8.016174"/>
<path transform="matrix(1,0,0,-1,234.01683,116.63063)" stroke-width=".75" stroke-linecap="round" stroke-linejoin="round" fill="none" stroke="#000000" d="M360.30189-.009548C360.48945-21.926407 360.75126-43.76595 360.1541-65.49878 240.58678-65.75581 120.02478-65.63809 .304901-65.38009-38.95379-65.08927-77.5595-65.18838-116.39729-65.55239-116.206897-51.240095-116.308467-36.648046-116.736-21.779778"/>
<path transform="matrix(1,0,0,-1,234.01683,116.63063)" stroke-width=".75" stroke-linecap="round" stroke-linejoin="round" fill="none" stroke="#000000" d="M-108.804-35.121824C-112.44988-31.781884-115.653728-26.742272-116.92193-22.19828-117.668918-26.634039-120.61849-31.265479-124.7794-34.64053"/>
<path transform="matrix(1,0,0,-1,234.01683,116.63063)" stroke-width=".75" stroke-linecap="round" stroke-linejoin="round" fill="none" stroke="#000000" d="M116.73313 84.98943C116.43304 63.88984 116.260059 42.83072 116.78976 22.416754"/>
<path transform="matrix(1,0,0,-1,234.01683,116.63063)" stroke-width=".75" stroke-linecap="round" stroke-linejoin="round" fill="none" stroke="#000000" d="M108.540699 34.799234C112.23449 31.570258 114.96729 27.465985 116.83156 21.853484 117.94618 26.669808 120.58458 31.757002 124.34639 34.840475"/>
<path transform="matrix(1,0,0,-1,234.01683,116.63063)" stroke-width=".75" stroke-linecap="round" stroke-linejoin="round" fill="none" stroke="#000000" d="M-15.742751-22.192736C-16.941336-23.232546-16.352858-23.132725-15.928318-23.268694-6.275374-22.203764 4.737885-23.331183 15.940939-23.336085 31.012909-23.207499 30.734593-22.068017 32.0511-8.393623 30.676217-1.799911 31.432648 2.12988 31.913424 8.372034 30.907702 22.981543 30.813174 23.756972 15.577619 23.71791 5.037138 23.517199-6.113353 21.895012-16.366732 22.063218-31.765383 23.6015-30.893464 23.369168-30.555026 8.578056-31.255875 2.973237-31.775464-2.728785-31.61391-7.981938-30.585242-22.303744-31.468899-23.541443-15.742751-22.192736Z"/>
<path transform="matrix(1,0,0,-1,234.01683,116.63063)" stroke-width=".75" stroke-linecap="round" stroke-linejoin="round" fill="none" stroke="#000000" d="M216.26023-36.135869C217.5391-36.400247 216.0072-37.084688 216.02037-35.47232 245.34334-35.226449 274.27317-35.55722 303.66169-37.042287 317.45137-35.981348 317.83244-35.78219 317.80693-22.092001 318.8781-7.681878 318.75569 7.824303 317.3434 20.632548 318.05989 36.113874 317.469 36.682 303.12455 36.001367 274.24 36.26511 245.22602 37.09292 217.68674 36.282346 201.11623 36.231168 202.81143 36.396184 202.37859 21.689936 202.02497 7.581264 201.28922-6.221973 202.75467-21.162335 202.2578-35.31747 202.79384-35.860494 216.26023-36.135869Z"/>
<path transform="matrix(1,0,0,-1,234.01683,116.63063)" stroke-width=".75" stroke-linecap="round" stroke-linejoin="round" fill="none" stroke="#000000" d="M-95.252468 .17147C-94.176158 12.395068-104.14058 21.40743-115.92846 21.55449-129.10076 21.274083-138.69094 12.516802-138.08942 .657094-138.05516-12.859557-127.9849-22.438622-117.508319-21.708607-104.39562-22.048686-94.98596-11.35737-95.252468 .17147Z"/>
<path transform="matrix(1,0,0,-1,234.01683,116.63063)" stroke-width=".75" stroke-linecap="round" stroke-linejoin="round" fill="none" stroke="#000000" d="M138.30535-.742347C137.80481 11.337709 129.09082 21.96075 117.21455 22.274527 103.727039 20.803986 94.81747 11.730059 94.806529-.924924 95.343578-12.434033 104.32606-22.07298 115.75004-22.17193 129.27233-22.258767 137.56203-12.59892 138.30535-.742347Z"/>
<path transform="matrix(1,0,0,-1,234.01683,116.63063)" stroke-width=".75" stroke-linecap="round" stroke-linejoin="round" fill="none" stroke="#000000" d="M-180.67055-.321015C-166.47193-.060175-152.49341-.104295-138.31529-.32765"/>
<path transform="matrix(1,0,0,-1,234.01683,116.63063)" stroke-width=".75" stroke-linecap="round" stroke-linejoin="round" fill="none" stroke="#000000" d="M-151.15857-8.303862C-147.91011-4.334805-143.42111-.785919-138.98394-.352217-143.70684 1.123078-148.42455 3.597906-150.9635 8.115385"/>
<path transform="matrix(1,0,0,-1,234.01683,116.63063)" stroke-width=".75" stroke-linecap="round" stroke-linejoin="round" fill="none" stroke="#000000" d="M-95.28351 .404362C-73.80906 .177957-53.006959 .298879-31.731408-.03778"/>
<path transform="matrix(1,0,0,-1,234.01683,116.63063)" stroke-width=".75" stroke-linecap="round" stroke-linejoin="round" fill="none" stroke="#000000" d="M-44.41619-8.361161C-40.8441-3.602936-36.46837-1.155648-31.902522 .430069-36.102499 1.263414-40.58262 4.362986-44.01086 8.125263"/>
<path transform="matrix(1,0,0,-1,234.01683,116.63063)" stroke-width=".75" stroke-linecap="round" stroke-linejoin="round" fill="none" stroke="#000000" d="M31.056904 .182663C51.90979 .279794 73.409259-.106806 94.66575-.197606"/>
<path transform="matrix(1,0,0,-1,234.01683,116.63063)" stroke-width=".75" stroke-linecap="round" stroke-linejoin="round" fill="none" stroke="#000000" d="M81.58876-8.297758C85.2251-4.122333 89.20103-1.444578 94.19013 .083201 89.30118 1.398398 84.89988 4.068013 81.71682 8.213154"/>
<path transform="matrix(1,0,0,-1,234.01683,116.63063)" stroke-width=".75" stroke-linecap="round" stroke-linejoin="round" fill="none" stroke="#000000" d="M137.90876 .15863C158.99532 .177055 180.46828-.132636 201.39916-.234"/>
<path transform="matrix(1,0,0,-1,234.01683,116.63063)" stroke-width=".75" stroke-linecap="round" stroke-linejoin="round" fill="none" stroke="#000000" d="M189.06717-8.057252C191.93173-3.844517 196.25597-1.090012 201.8403-.038307 196.36106 .744552 191.6702 3.639683 189.18155 8.319727"/>
<path transform="matrix(1,0,0,-1,234.01683,116.63063)" stroke-width=".75" stroke-linecap="round" stroke-linejoin="round" fill="none" stroke="#000000" d="M317.75526 .343317C346.38169 .090332 374.6827-.317256 402.9785-.39063"/>
<path transform="matrix(1,0,0,-1,234.01683,116.63063)" stroke-width=".75" stroke-linecap="round" stroke-linejoin="round" fill="none" stroke="#000000" d="M389.95808-8.081267C393.5925-4.068035 397.81056-.781577 403.32017-.381476 398.35993 .813719 393.56044 3.785546 390.03874 7.817424"/>
<path transform="matrix(1,0,0,-1,234.01683,116.63063)" stroke-width=".75" stroke-linecap="round" stroke-linejoin="round" fill="none" stroke="#000000" d="M360.60035 .41323C360.202-21.80412 360.14744-43.452497 360.31986-65.1737 239.9534-65.46747 120.4006-65.121158 .060507-64.93355-39.049634-65.60676-77.8906-65.27461-116.87197-65.60676-116.28334-51.076738-116.654598-36.40154-116.95055-22.136544"/>
<path transform="matrix(1,0,0,-1,234.01683,116.63063)" stroke-width=".75" stroke-linecap="round" stroke-linejoin="round" fill="none" stroke="#000000" d="M-108.35864-35.11745C-112.43449-31.84398-115.543178-27.18871-116.11074-22.171425-117.74531-27.41023-120.825679-31.103659-125.03501-34.329668"/>
<path transform="matrix(1,0,0,-1,234.01683,116.63063)" stroke-width=".75" stroke-linecap="round" stroke-linejoin="round" fill="none" stroke="#000000" d="M116.67619 85.32845C116.57413 64.2106 116.33874 43.224744 116.34365 21.715592"/>
<path transform="matrix(1,0,0,-1,234.01683,116.63063)" stroke-width=".75" stroke-linecap="round" stroke-linejoin="round" fill="none" stroke="#000000" d="M108.763599 34.94813C112.17294 31.496495 114.93956 26.736506 116.351947 22.224795 117.33545 26.649966 120.515789 31.921008 124.772998 35.091184"/>
<path transform="matrix(1,0,0,-1,234.01683,116.63063)" stroke-width=".75" stroke-linecap="round" stroke-linejoin="round" fill="none" stroke="#000000" d="M-15.939855-22.327879C-16.003888-22.231665-16.999453-22.210082-15.384349-22.723723-5.353864-22.421292 5.977725-22.239363 15.16527-23.78641 31.040139-22.231329 30.471779-22.012667 30.287032-7.295758 31.43581-3.068265 31.356528 3.248804 31.518877 7.414142 31.639233 23.53501 31.29477 22.8429 16.982014 22.200825 5.055635 22.684079-5.741559 23.511132-15.507238 22.58907-31.931687 22.932852-31.809254 22.753687-31.508069 7.504455-31.502425 2.383473-31.2575-2.382803-31.482859-7.594028-30.475136-22.466748-30.53957-22.34243-15.939855-22.327879Z"/>
<path transform="matrix(1,0,0,-1,234.01683,116.63063)" stroke-width=".75" stroke-linecap="round" stroke-linejoin="round" fill="none" stroke="#000000" d="M217.75209-35.4286C217.34455-35.36258 216.43192-36.17629 217.41136-36.503747 246.3993-35.737787 275.22026-36.532388 303.50846-35.744066 318.78926-35.5594 317.3078-36.972284 318.56507-21.520155 317.37986-7.597031 317.79209 6.213014 317.03196 20.475417 318.76918 36.88519 318.062 37.066377 302.66819 36.522165 274.65754 35.477724 244.78443 37.067045 217.76338 36.27168 202.5636 36.861715 202.76779 36.95698 201.95722 20.943928 201.95484 7.667813 202.14665-7.769276 201.405-21.539193 202.00293-36.101408 201.27962-35.334329 217.75209-35.4286Z"/>
<path transform="matrix(1,0,0,-1,234.01683,116.63063)" stroke-width=".75" stroke-linecap="round" stroke-linejoin="round" fill="none" stroke="#000000" d="M-94.46345-.251387C-95.505268 12.59302-104.50249 22.263714-117.350719 21.068869-128.30362 22.28715-138.25075 11.631704-138.39766-.208437-137.46968-11.820441-129.04557-21.467587-116.72321-22.278225-104.90511-21.164164-94.081897-12.495485-94.46345-.251387Z"/>
<path transform="matrix(1,0,0,-1,234.01683,116.63063)" stroke-width=".75" stroke-linecap="round" stroke-linejoin="round" fill="none" stroke="#000000" d="M138.23024-.916109C137.30281 12.228032 129.3107 20.990857 116.89643 22.032664 104.84214 21.056134 94.689479 11.656322 94.83176-.814004 94.94879-12.293726 104.676418-21.108502 117.07259-22.252503 128.35106-21.130038 137.97583-12.712336 138.23024-.916109Z"/>
<path transform="matrix(1,0,0,-1,234.01683,116.63063)" stroke-width=".75" stroke-linecap="round" stroke-linejoin="round" fill="none" stroke="#000000" d="M-180.73407 .303068C-166.41622-.064789-152.65169-.079644-138.55477 .199979"/>
<path transform="matrix(1,0,0,-1,234.01683,116.63063)" stroke-width=".75" stroke-linecap="round" stroke-linejoin="round" fill="none" stroke="#000000" d="M-151.66248-8.006594C-147.61045-4.307079-143.83023-.906215-138.37392-.346156-143.77738 1.545381-148.26103 3.854968-151.26215 8.255154"/>
<path transform="matrix(1,0,0,-1,234.01683,116.63063)" stroke-width=".75" stroke-linecap="round" stroke-linejoin="round" fill="none" stroke="#000000" d="M-95.25358-.42886C-73.536968-.126531-52.18614 .443154-31.62636 .076147"/>
<path transform="matrix(1,0,0,-1,234.01683,116.63063)" stroke-width=".75" stroke-linecap="round" stroke-linejoin="round" fill="none" stroke="#000000" d="M-43.87393-7.653524C-41.01099-4.069976-36.72559-1.572981-31.350693 .126052-36.155836 .862113-41.235288 3.762771-44.39665 8.48464"/>
<path transform="matrix(1,0,0,-1,234.01683,116.63063)" stroke-width=".75" stroke-linecap="round" stroke-linejoin="round" fill="none" stroke="#000000" d="M30.907637-.182023C52.52674-.079425 73.70131-.34297 94.911159 .310623"/>
<path transform="matrix(1,0,0,-1,234.01683,116.63063)" stroke-width=".75" stroke-linecap="round" stroke-linejoin="round" fill="none" stroke="#000000" d="M81.889469-8.301127C85.25693-3.615099 89.24927-.752057 94.51806 .140894 89.863529 .762911 85.37185 3.871977 82.28251 7.900305"/>
<path transform="matrix(1,0,0,-1,234.01683,116.63063)" stroke-width=".75" stroke-linecap="round" stroke-linejoin="round" fill="none" stroke="#000000" d="M137.81662 .387344C159.57706-.321199 180.10448-.152279 201.63513 .35459"/>
<path transform="matrix(1,0,0,-1,234.01683,116.63063)" stroke-width=".75" stroke-linecap="round" stroke-linejoin="round" fill="none" stroke="#000000" d="M188.83588-7.761436C192.18758-3.731688 196.80106-1.458039 201.17629 .258238 196.22678 1.156923 192.31734 4.090388 188.89159 7.974388"/>
<path transform="matrix(1,0,0,-1,234.01683,116.63063)" stroke-width=".75" stroke-linecap="round" stroke-linejoin="round" fill="none" stroke="#000000" d="M317.5799 .389127C346.37416 .283937 374.92884-.246666 403.10197 .355504"/>
<path transform="matrix(1,0,0,-1,234.01683,116.63063)" stroke-width=".75" stroke-linecap="round" stroke-linejoin="round" fill="none" stroke="#000000" d="M390.6682-7.856083C393.88795-4.002071 398.1671-1.321064 402.6228-.274937 397.54664 1.087577 393.07917 3.765536 390.33497 7.78639"/>
<path transform="matrix(1,0,0,-1,234.01683,116.63063)" stroke-width=".75" stroke-linecap="round" stroke-linejoin="round" fill="none" stroke="#000000" d="M360.6132-.011567C360.07405-21.833544 360.14668-43.78173 360.05168-65.43642 239.88625-65.27233 119.88339-65.388858 .166169-64.94-38.782754-65.322109-78.13743-65.124568-116.23081-65.00537-116.980678-50.778657-116.69184-36.451978-116.81061-22.18045"/>
<path transform="matrix(1,0,0,-1,234.01683,116.63063)" stroke-width=".75" stroke-linecap="round" stroke-linejoin="round" fill="none" stroke="#000000" d="M-108.33587-34.66928C-112.34746-31.719655-115.07454-26.863396-116.505069-21.666445-117.923229-27.471079-120.697078-31.289683-124.64473-34.388254"/>
<path transform="matrix(1,0,0,-1,234.01683,116.63063)" stroke-width=".75" stroke-linecap="round" stroke-linejoin="round" fill="none" stroke="#000000" d="M116.520618 85.408679C116.93336 64.73123 116.70086 43.050638 116.52988 21.848254"/>
<path transform="matrix(1,0,0,-1,234.01683,116.63063)" stroke-width=".75" stroke-linecap="round" stroke-linejoin="round" fill="none" stroke="#000000" d="M108.79201 34.560708C112.56393 31.360896 115.60184 26.949484 116.436908 22.378232 117.86507 27.165534 120.629428 31.555426 124.19063 34.994359"/>
<path transform="matrix(1,0,0,-1,234.01683,116.63063)" stroke-width=".75" stroke-linecap="round" stroke-linejoin="round" fill="none" stroke="#000000" d="M-16.797453-22.183598C-15.682849-23.480519-15.800234-22.74446-16.396903-22.966536-4.731671-23.719269 6.309005-21.960162 16.230359-23.10534 31.335274-23.76344 30.72027-23.086226 31.075259-8.526094 31.959307-2.674286 31.731543 2.465054 32.015634 8.324109 30.816498 22.136599 31.003237 22.6005 15.51235 23.720849 4.92709 22.283724-5.641584 22.756436-15.808909 23.06499-31.48898 23.017157-32.03592 22.54972-32.02988 7.948983-31.491053 3.507473-31.239716-2.337061-30.530066-7.254679-30.94301-22.042292-30.710734-23.305392-16.797453-22.183598Z"/>
<path transform="matrix(1,0,0,-1,234.01683,116.63063)" stroke-width=".75" stroke-linecap="round" stroke-linejoin="round" fill="none" stroke="#000000" d="M216.58374-36.442289C216.51213-36.824644 217.75997-36.307157 217.23119-36.390424 246.09803-36.132787 273.51179-35.2202 303.73478-36.16935 318.77445-36.36547 317.9193-36.49563 317.73515-20.835963 317.0756-6.936071 318.10734 6.755479 317.98115 20.807108 318.48765 36.96759 317.52699 35.267385 302.50849 35.27352 273.80424 36.633909 246.54193 35.378145 216.21543 35.78904 202.2379 35.570478 201.89975 36.753076 202.1206 21.766549 201.98596 6.545665 202.41246-7.653101 201.04622-20.719437 202.03282-35.211458 202.89875-36.695604 216.58374-36.442289Z"/>
<path transform="matrix(1,0,0,-1,234.01683,116.63063)" stroke-width=".75" stroke-linecap="round" stroke-linejoin="round" fill="none" stroke="#000000" d="M-95.755359 .881806C-94.766178 11.069699-104.87262 20.823607-117.12833 21.934672-128.88587 21.245438-138.761 12.157476-138.32465 .565633-138.99568-12.312352-127.66954-21.157534-116.52129-21.70902-105.4906-21.028765-94.81369-12.729654-95.755359 .881806Z"/>
<path transform="matrix(1,0,0,-1,234.01683,116.63063)" stroke-width=".75" stroke-linecap="round" stroke-linejoin="round" fill="none" stroke="#000000" d="M138.28992-.134644C138.92562 11.769529 129.22896 21.364745 117.24086 20.754824 103.927059 22.276803 94.911579 12.554864 94.72842-.26544 94.08463-12.892686 105.28113-22.609339 117.13761-21.961642 127.912738-21.787226 138.07523-12.649127 138.28992-.134644Z"/>
<path transform="matrix(1,0,0,-1,234.01683,116.63063)" stroke-width=".75" stroke-linecap="round" stroke-linejoin="round" fill="none" stroke="#000000" d="M-180.27791-.136068C-166.3797-.104763-152.70046 .146304-138.96358 .305684"/>
<path transform="matrix(1,0,0,-1,234.01683,116.63063)" stroke-width=".75" stroke-linecap="round" stroke-linejoin="round" fill="none" stroke="#000000" d="M-151.60266-8.392944C-147.97193-3.582511-144.02104-1.11264-138.96219-.399565-143.7589 1.563752-148.23943 4.371579-151.5825 8.121469"/>
<path transform="matrix(1,0,0,-1,234.01683,116.63063)" stroke-width=".75" stroke-linecap="round" stroke-linejoin="round" fill="none" stroke="#000000" d="M-94.65379 .392237C-74.158359-.027601-52.954736-.147863-31.55565-.426063"/>
<path transform="matrix(1,0,0,-1,234.01683,116.63063)" stroke-width=".75" stroke-linecap="round" stroke-linejoin="round" fill="none" stroke="#000000" d="M-44.23278-7.760265C-41.228605-4.197489-36.146306-1.570931-31.265425-.185657-36.83454 1.148261-40.695348 4.39925-44.293489 7.869114"/>
<path transform="matrix(1,0,0,-1,234.01683,116.63063)" stroke-width=".75" stroke-linecap="round" stroke-linejoin="round" fill="none" stroke="#000000" d="M31.491517-.054932C52.12699-.1992 72.93262 .18747 94.4017-.419173"/>
<path transform="matrix(1,0,0,-1,234.01683,116.63063)" stroke-width=".75" stroke-linecap="round" stroke-linejoin="round" fill="none" stroke="#000000" d="M81.54312-7.824272C84.83554-4.418124 89.18203-.778498 94.49699 .052349 89.47982 1.204149 85.033359 3.808867 81.60531 8.149471"/>
<path transform="matrix(1,0,0,-1,234.01683,116.63063)" stroke-width=".75" stroke-linecap="round" stroke-linejoin="round" fill="none" stroke="#000000" d="M138.04737 .045163C159.73059-.120069 180.80966 .397584 201.70285 .220972"/>
<path transform="matrix(1,0,0,-1,234.01683,116.63063)" stroke-width=".75" stroke-linecap="round" stroke-linejoin="round" fill="none" stroke="#000000" d="M188.76453-8.142678C192.20435-4.020091 196.18254-1.057304 201.2474 .028149 196.22264 1.507294 192.4262 4.046138 188.55623 7.732926"/>
<path transform="matrix(1,0,0,-1,234.01683,116.63063)" stroke-width=".75" stroke-linecap="round" stroke-linejoin="round" fill="none" stroke="#000000" d="M317.5576 .148931C346.45658-.24635 374.79066 .116058 403.33744 .027902"/>
<path transform="matrix(1,0,0,-1,234.01683,116.63063)" stroke-width=".75" stroke-linecap="round" stroke-linejoin="round" fill="none" stroke="#000000" d="M390.00465-8.436143C393.29704-3.896044 397.63587-1.410271 403.2331 .190731 397.96678 1.550709 393.56373 3.977816 390.2285 7.678058"/>
<path transform="matrix(1,0,0,-1,234.01683,116.63063)" stroke-width=".75" stroke-linecap="round" stroke-linejoin="round" fill="none" stroke="#000000" d="M360.75389-.275441C360.85307-22.082219 360.72004-43.964 360.3809-65.76432 239.88164-64.92145 119.728748-64.89253-.219446-65.77959-38.541875-65.533649-77.90101-65.234088-116.94348-65.411128-116.12959-51.051786-116.14947-36.02459-116.11938-21.81661"/>
<path transform="matrix(1,0,0,-1,234.01683,116.63063)" stroke-width=".75" stroke-linecap="round" stroke-linejoin="round" fill="none" stroke="#000000" d="M-108.55504-34.70526C-112.96979-31.62198-115.000888-26.910222-116.351268-22.123227-117.773838-27.286835-120.27802-31.553107-124.71322-35.088563"/>
<path transform="matrix(1,0,0,-1,234.01683,116.63063)" stroke-width=".75" stroke-linecap="round" stroke-linejoin="round" fill="none" stroke="#000000" d="M116.89177 85.344989C116.7782 64.73982 116.59461 42.83399 116.50897 21.97862"/>
<path transform="matrix(1,0,0,-1,234.01683,116.63063)" stroke-width=".75" stroke-linecap="round" stroke-linejoin="round" fill="none" stroke="#000000" d="M108.822658 34.722826C112.170787 31.368323 115.07355 27.125172 116.146289 21.828257 117.51718 26.633502 120.1529 31.944996 124.24928 34.89449"/>
<path transform="matrix(1,0,0,-1,234.01683,116.63063)" stroke-width=".75" stroke-linecap="round" stroke-linejoin="round" fill="none" stroke="#000000" d="M-15.87005-22.591845C-15.883532-23.707369-15.373842-23.19004-15.244146-22.210522-6.066307-23.523423 4.727842-22.356793 16.241528-23.676062 30.764832-22.952319 30.76038-23.672665 31.413342-8.211295 30.534676-3.29496 31.357785 1.865565 30.653243 7.369346 30.914296 23.654944 30.347207 22.608662 16.907259 22.48083 6.274026 22.19713-4.507883 23.328158-15.495274 22.034678-30.206183 21.93062-30.349682 22.781094-30.853833 7.514252-31.94309 2.09613-30.772362-2.47586-30.587557-7.625269-30.68627-21.902476-31.035969-22.219443-15.87005-22.591845Z"/>
<path transform="matrix(1,0,0,-1,234.01683,116.63063)" stroke-width=".75" stroke-linecap="round" stroke-linejoin="round" fill="none" stroke="#000000" d="M216.83374-36.242116C216.63105-36.520265 217.33133-37.12543 217.1154-35.9342 246.40633-36.225767 274.08387-36.693006 302.89234-36.34943 317.11433-37.006986 317.16819-35.70905 317.2314-21.371615 317.76606-6.620712 316.9757 7.985783 318.6193 21.320542 316.98658 36.828714 317.80403 36.41028 303.6839 37.146268 275.00428 36.863508 245.94989 35.98573 217.75365 36.588815 202.85518 36.725038 202.4679 35.651174 202.55257 20.44263 202.42034 6.138112 201.20944-7.117557 202.51819-21.808339 201.40689-36.1559 202.81302-36.74887 216.83374-36.242116Z"/>
<path transform="matrix(1,0,0,-1,234.01683,116.63063)" stroke-width=".75" stroke-linecap="round" stroke-linejoin="round" fill="none" stroke="#000000" d="M-95.73649 .857378C-94.58094 11.147349-104.49021 20.822693-115.73012 21.12436-127.95121 20.849427-137.423 12.67869-137.95423-.960074-138.41089-11.620571-127.55493-21.707976-116.83764-22.475245-105.019618-21.372397-94.46254-12.423366-95.73649 .857378Z"/>
<path transform="matrix(1,0,0,-1,234.01683,116.63063)" stroke-width=".75" stroke-linecap="round" stroke-linejoin="round" fill="none" stroke="#000000" d="M138.96584-.853693C139.13661 12.590291 128.83939 20.897673 115.87486 21.152722 104.874858 21.105994 94.08794 11.627124 95.735507 .189189 95.42307-11.827064 103.66756-21.240368 117.19633-20.723576 128.27483-22.244357 138.22457-11.84256 138.96584-.853693Z"/>
<path transform="matrix(1,0,0,-1,234.01683,116.63063)" stroke-width=".75" stroke-linecap="round" stroke-linejoin="round" fill="none" stroke="#000000" d="M-180.4983-.167954C-166.54375-.371818-153.02577 .309945-138.73337 .343998"/>
<path transform="matrix(1,0,0,-1,234.01683,116.63063)" stroke-width=".75" stroke-linecap="round" stroke-linejoin="round" fill="none" stroke="#000000" d="M-151.22969-8.271389C-147.7402-4.283502-143.53153-1.02106-138.32338 .4096-143.68051 .977774-148.04448 4.235415-151.34778 8.310978"/>
<path transform="matrix(1,0,0,-1,234.01683,116.63063)" stroke-width=".75" stroke-linecap="round" stroke-linejoin="round" fill="none" stroke="#000000" d="M-95.081768 .234696C-73.73444 .077172-52.90255-.143326-31.150059 .161268"/>
<path transform="matrix(1,0,0,-1,234.01683,116.63063)" stroke-width=".75" stroke-linecap="round" stroke-linejoin="round" fill="none" stroke="#000000" d="M-44.164079-7.815914C-41.34759-4.431119-36.747175-1.026211-31.242466-.303786-36.128229 1.567587-41.18028 3.660063-44.161676 8.176389"/>
<path transform="matrix(1,0,0,-1,234.01683,116.63063)" stroke-width=".75" stroke-linecap="round" stroke-linejoin="round" fill="none" stroke="#000000" d="M31.146258 .442575C52.437108-.049404 73.145259 .416241 94.46951 .03952"/>
<path transform="matrix(1,0,0,-1,234.01683,116.63063)" stroke-width=".75" stroke-linecap="round" stroke-linejoin="round" fill="none" stroke="#000000" d="M81.70132-8.227766C85.27347-4.10819 89.12398-1.278567 94.107547-.010947 89.83424 1.297498 84.73501 3.667643 81.86822 8.482915"/>
<path transform="matrix(1,0,0,-1,234.01683,116.63063)" stroke-width=".75" stroke-linecap="round" stroke-linejoin="round" fill="none" stroke="#000000" d="M138.53089-.285082C158.90343-.215084 180.43929-.333986 201.58203 .382943"/>
<path transform="matrix(1,0,0,-1,234.01683,116.63063)" stroke-width=".75" stroke-linecap="round" stroke-linejoin="round" fill="none" stroke="#000000" d="M188.80864-8.425906C192.09949-3.766597 196.65419-1.105678 201.54865-.288651 196.805 .784492 191.92804 3.576873 189.10141 8.121168"/>
<path transform="matrix(1,0,0,-1,234.01683,116.63063)" stroke-width=".75" stroke-linecap="round" stroke-linejoin="round" fill="none" stroke="#000000" d="M317.9856-.172823C346.27723 .165371 374.26628-.261099 402.59638-.175348"/>
<path transform="matrix(1,0,0,-1,234.01683,116.63063)" stroke-width=".75" stroke-linecap="round" stroke-linejoin="round" fill="none" stroke="#000000" d="M390.59504-7.702886C393.7155-3.859879 397.58259-1.004098 403.18138-.226592 398.37834 .732944 393.9419 3.68754 390.56718 8.441574"/>
<path transform="matrix(1,0,0,-1,234.01683,116.63063)" stroke-width=".75" stroke-linecap="round" stroke-linejoin="round" fill="none" stroke="#000000" d="M360.4501-.291897C360.13056-22.179089 360.3932-43.71109 360.37037-65.15194 240.4278-65.37559 119.788669-65.05027 .042295-65.25498-38.566038-65.43657-77.44088-65.210849-116.325939-65.17197-116.28661-50.533315-116.813938-36.285875-116.449718-21.840533"/>
<path transform="matrix(1,0,0,-1,234.01683,116.63063)" stroke-width=".75" stroke-linecap="round" stroke-linejoin="round" fill="none" stroke="#000000" d="M-108.81485-34.36497C-112.96742-31.36457-115.81174-26.952107-116.362567-21.762747-117.397289-27.271969-120.50407-31.413025-124.4138-34.94621"/>
<path transform="matrix(1,0,0,-1,234.01683,116.63063)" stroke-width=".75" stroke-linecap="round" stroke-linejoin="round" fill="none" stroke="#000000" d="M116.64349 85.520938C116.3875 64.13511 116.582118 43.455137 116.17226 22.149188"/>
<path transform="matrix(1,0,0,-1,234.01683,116.63063)" stroke-width=".75" stroke-linecap="round" stroke-linejoin="round" fill="none" stroke="#000000" d="M108.11585 34.593889C112.900829 31.067412 115.378917 26.855029 116.246578 22.063153 117.46516 27.062932 120.173168 31.752514 124.68326 35.095785"/>
<use data-text="+" xlink:href="#font_11_7" transform="matrix(21.519354,0,0,-21.519316,79.429569,108.88782)"/>
<use data-text="&#x2212;" xlink:href="#font_11_9" transform="matrix(21.519371,0,0,-21.519288,123.628787,147.24002)"/>
<use data-text="+" xlink:href="#font_11_7" transform="matrix(21.519354,0,0,-21.519316,312.5055,108.8878)"/>
<use data-text="+" xlink:href="#font_11_7" transform="matrix(21.519354,0,0,-21.519316,356.70527,90.239658)"/>
<use data-text="R" xlink:href="#font_11_5" transform="matrix(21.5195,0,0,-21.519398,6.8142549,122.011928)"/>
<use data-text="(" xlink:href="#font_11_2" transform="matrix(21.5195,0,0,-21.519398,19.919632,122.011928)"/>
<use data-text="s" xlink:href="#font_11_3" transform="matrix(21.5195,0,0,-21.519398,29.46482,122.011928)"/>
<use data-text=")" xlink:href="#font_11_4" transform="matrix(21.5195,0,0,-21.519398,40.451818,122.011928)"/>
<use data-text="Y" xlink:href="#font_11_6" transform="matrix(21.519246,0,0,-21.519398,641.50137,122.011928)"/>
<use data-text="(" xlink:href="#font_11_2" transform="matrix(21.519246,0,0,-21.519398,654.65,122.011928)"/>
<use data-text="s" xlink:href="#font_11_3" transform="matrix(21.519246,0,0,-21.519398,664.1951,122.011928)"/>
<use data-text=")" xlink:href="#font_11_4" transform="matrix(21.519246,0,0,-21.519398,675.182,122.011928)"/>
<use data-text="D" xlink:href="#font_11_19" transform="matrix(21.519089,0,0,-21.519398,327.19935,22.140366)"/>
<use data-text="(" xlink:href="#font_11_2" transform="matrix(21.519089,0,0,-21.519398,345.01719,22.140366)"/>
<use data-text="s" xlink:href="#font_11_3" transform="matrix(21.519089,0,0,-21.519398,354.5622,22.140366)"/>
<use data-text=")" xlink:href="#font_11_4" transform="matrix(21.519089,0,0,-21.519398,365.549,22.140366)"/>
</svg>
