<svg xmlns="http://www.w3.org/2000/svg" xmlns:xlink="http://www.w3.org/1999/xlink" version="1.1" width="683.3495" height="260.0122" viewBox="0 0 683.3495 260.0122">
<defs>
<path id="font_12_8" d="M.08999634 .32458497C.08999634 .22958374 .114990238 .13148499 .18299866 .06341553 .23699951 .009384155 .31199647-.016601563 .3880005-.016601563 .46099855-.016601563 .56900027 .010391235 .6569977 .03338623 .6569977 .03338623 .6539917 .216568 .6519928 .30760194L.37599183 .2966156V.27061463L.38198854 .265625C.43598939 .26361085 .5 .25961305 .5439911 .25660707 .57199099 .25460816 .57199099 .22257996 .57199099 .13449097 .57199099 .061416627 .56900027 .04940796 .5519867 .045394899 .5209961 .038391115 .48999024 .03538513 .45799256 .03538513 .37998963 .03538513 .30599977 .060409547 .2619934 .112472537 .20399475 .18052674 .17999268 .25260926 .17999268 .3405609 .17999268 .48339845 .23199463 .5653076 .26098634 .5942688 .3039856 .63623049 .36299134 .6502075 .42199708 .6502075 .5529938 .6502075 .59298709 .5563202 .60598757 .53034976L.6179962 .5293579 .6759949 .58628848C.6649933 .6032715 .6119995 .69921877 .46699525 .69921877 .3619995 .69921877 .25698854 .6682129 .18199158 .593277 .11199951 .5233612 .08999634 .4224701 .08999634 .32458497Z"/>
<path id="font_12_17" d="M.1349945 .6123047H.22898865C.25698854 .6123047 .27999879 .59129336 .2809906 .5662842 .28199769 .541275 .28199769 .46824647 .28199769 .41923524 .28199769 .27919007 .27799989 .13916016 .272995 .00010681152L.28599549-.0048828127 .3809967 .022125245C.37799073 .09814453 .37799073 .2962036 .37799073 .43223573 .37799073 .52127078 .37998963 .6112976 .38598634 .7003021L.3789978 .71229556 .1349945 .6392975V.6123047Z"/>
<path id="font_12_2" d="M.11299133 .24990845C.11299133 .007904053 .1519928-.09008789 .18299866-.13310242 .21099854-.17008972 .25299073-.20809937 .30099488-.21209717V-.1880951C.2809906-.18409729 .25099183-.16809082 .23399353-.1481018 .21998596-.13209534 .16499329-.05809021 .16499329 .24990845 .16499329 .4618988 .19799805 .5659027 .21998596 .6128998 .23599243 .6469116 .2689972 .6769104 .30099488 .684906V.71191409C.2599945 .7049103 .21598816 .6729126 .19099427 .63790896 .1599884 .5919037 .11299133 .4748993 .11299133 .24990845Z"/>
<path id="font_12_3" d="M.051986696 .06642151C.06199646 .047409059 .07598877 .030395508 .09199524 .01638794 .12098694-.009613037 .16099549-.016601563 .19898987-.016601563 .2559967-.016601563 .31199647 .0023956299 .35099793 .044403078 .375 .06941223 .3869934 .10343933 .3869934 .13845825 .3869934 .1634674 .37298585 .18649292 .35499574 .20449829 .34098817 .21850586 .3039856 .24052429 .27198792 .25453187 .24299622 .26654054 .19999695 .2885437 .18798828 .30055238 .17298889 .31655885 .1619873 .3285675 .1619873 .35058595 .1619873 .3725891 .16899109 .39360047 .18499756 .4086151 .19999695 .42362977 .22200012 .43164063 .24398804 .43164063 .2639923 .43164063 .2849884 .42462159 .29599 .4066162 .30599977 .39060975 .30799867 .3715973 .30899049 .35359193L.32099916 .34657289 .37599183 .38360597C.375 .40560914 .3639984 .42662049 .34799195 .44163514 .32499696 .46263124 .29299928 .46662904 .2630005 .46662904 .21398926 .46662904 .16699219 .45063783 .1309967 .4176178 .10398865 .39360047 .08999634 .35858155 .08999634 .32356263 .08999634 .29154969 .10798645 .26353456 .1309967 .2425232 .1539917 .22250366 .18399048 .2084961 .21499634 .1954956 .24099732 .18447876 .2689972 .17248535 .28799439 .1534729 .30299378 .13845825 .31399537 .11845398 .31399537 .09744263 .31399537 .079422 .30499269 .062408449 .29299928 .04940796 .27799989 .03340149 .25099183 .021392823 .22898865 .021392823 .19898987 .021392823 .17199707 .03439331 .1499939 .055404664 .1269989 .076416019 .116989139 .10644531 .114990238 .13645935L.100997928 .13745117 .051986696 .06642151Z"/>
<path id="font_12_4" d="M.085998538-.1880951V-.21209717C.13398743-.20610047 .1789856-.17208863 .20698548-.13510132 .23799134-.09210205 .27598573 .007904053 .27598573 .24990845 .27598573 .50090029 .22399903 .5919037 .19299317 .63790896 .16799927 .6729126 .1269989 .7049103 .085998538 .71191409V.684906C.117996219 .6759033 .14898682 .6469116 .16499329 .6128998 .18699646 .5659027 .22399903 .48190309 .22399903 .24990845 .22399903-.099090579 .17199707-.13209534 .1579895-.1481018 .14099121-.16809082 .10598755-.18409729 .085998538-.1880951Z"/>
<path id="font_12_18" d="M.04499817 .001953125H.5379944L.56399539 .079940799 .5589905 .08795166H.20999146C.20399475 .08795166 .19799805 .08894348 .19599915 .092941287 .19499207 .094940189 .19599915 .09794617 .19699097 .09895325 .2539978 .1569519 .30799867 .21495056 .35899354 .27496339 .394989 .31697084 .42999269 .358963 .45799256 .40496827 .48799134 .4509735 .5119934 .49998475 .5119934 .5529938 .5119934 .59399417 .49899293 .6349945 .46499635 .66400149 .43199159 .69299319 .3880005 .7080078 .34199525 .7080078 .29899598 .7080078 .2579956 .6970062 .22099304 .67900088 .17599488 .65800479 .13699341 .6279907 .102996829 .59498599L.125 .57598879C.1519928 .59599307 .17799378 .61099246 .20999146 .6259918 .23098755 .6360016 .2559967 .6399994 .2809906 .6399994 .31399537 .6399994 .34700013 .6289978 .37098695 .6069946 .40098573 .5779877 .4079895 .5369873 .4079895 .50798037 .4079895 .4429779 .38198854 .38197328 .34298707 .3259735 .31098939 .27996827 .27198792 .23796082 .23199463 .19696045 .17199707 .13494873 .10899353 .07594299 .04499817 .017944336V.001953125Z"/>
<path id="font_12_15" d="M.051986696 .6781769 .052993776 .6591797C.07299805 .65216067 .10899353 .6411438 .11299133 .6401367 .12298584 .6361389 .125 .6251221 .12599182 .6161041 .1309967 .53297427 .13198853 .44985963 .13198853 .36676026 .13198853 .24482727 .13198853 .11590576 .12199402 .0029907227L.12799073-.0020141602 .21998596 .025970459C.21699524 .051956178 .21499634 .10292053 .21499634 .1798706V.33377076C.21499634 .34075929 .22099304 .34576417 .22799683 .34576417H.57099917C.5799866 .34576417 .58299258 .33876039 .58299258 .33377076 .58299258 .23683167 .5799866 .11790466 .5779877 .020980835L.58898928 0 .73799136 .0078125 .74398806 .013809204 .7429962 .031799318C.72499087 .03981018 .66600039 .03981018 .66600039 .07879639 .66600039 .09979248 .6619873 .24076844 .6619873 .32176209 .6619873 .5129547 .66999819 .64515689 .6729889 .6841736L.66799929 .6901703 .5799866 .673172C.5799866 .58706668 .58299258 .48291017 .58299258 .3967743 .58299258 .39076234 .58200076 .38476563 .57099917 .38476563H.22499085C.21499634 .38476563 .21299744 .3917694 .21299744 .3967743 .21299744 .4618683 .21699524 .54600527 .21899414 .61109927 .21998596 .63414 .22200012 .6581726 .22599793 .6801758L.22099304 .6851654H.05899048L.051986696 .6781769Z"/>
<path id="font_12_7" d="M.04598999 .23632813H.35598756V-.07368469L.3959961-.06668091V.23632813H.70399478L.70899966 .2763214H.3959961V.58631899L.35598756 .58032229V.2763214H.052993776L.04598999 .23632813Z"/>
<path id="font_12_9" d="M.04598999 .23046875H.70399478L.70999148 .27046205H.052993776L.04598999 .23046875Z"/>
<path id="font_12_5" d="M.053985597 .65625C.054992677 .65625 .08999634 .6462555 .10798645 .6412506 .12098694 .6372528 .1309967 .6252594 .1309967 .61128237 .13198853 .5543213 .13398743 .45439149 .13398743 .43940736 .13398743 .29444886 .1329956 .14831543 .125 .003189087L.13598633-.0058135988 .21899414 .023208619C.21398926 .11929321 .21398926 .21638489 .21398926 .31245423 .21998596 .31245423 .22898865 .30845643 .23399353 .30345155 .2630005 .27442933 .3899994 .11128235 .48298646-.0078125L.58200076 .018203736V.02720642L.31900025 .3234558 .32099916 .33146668C.4039917 .3404541 .4850006 .3734131 .5169983 .44322206 .5319977 .47714234 .5359955 .49110414 .5359955 .53897097 .5359955 .57388308 .5219879 .6077881 .49699403 .63272097 .47999574 .6506958 .45700074 .6596985 .43299867 .6667023 .40098573 .67570498 .36698915 .67871096 .33299256 .67871096L.06098938 .679245 .054992677 .6732483 .053985597 .65625M.21299744 .37045289C.21299744 .375412 .21699524 .549942 .21899414 .61376956 .21998596 .63272097 .22299195 .6397095 .23098755 .6397095H.2709961C.2979889 .6397095 .32598878 .6377106 .35299684 .63072207 .37199403 .6257324 .3909912 .61776736 .40499879 .6037903 .42599488 .5828552 .43798829 .55293276 .43798829 .52301028 .43798829 .47813417 .41799928 .43624879 .3869934 .40533448 .35398866 .37141419 .30599977 .36044313 .2599945 .35646058 .24798584 .35546876 .23498535 .35546876 .22200012 .35546876 .21499634 .35546876 .21299744 .36444093 .21299744 .37042237V.37045289Z"/>
<path id="font_12_6" d="M.022994996 .6513672C.036987306 .649353 .049987794 .6463623 .06298828 .6433563 .07199097 .6413574 .07998657 .6353607 .085998538 .62835696 .09599304 .61834719 .102996829 .60635378 .10899353 .5943451L.2579956 .29930116C.2579956 .19927979 .2579956 .0982666 .25498963-.0017547608L.2659912-.0107421879 .35598756 .018249512 .34700013 .30630494C.42999269 .4343109 .5039978 .5303345 .61499026 .675354L.61099246 .6933594 .526001 .6763611C.48999024 .619339 .4059906 .47431947 .397995 .46032716 .3849945 .4373169 .34199525 .36730958 .33898927 .3623047 .33599855 .3572998 .33198548 .353302 .32798768 .353302 .32199098 .353302 .31698609 .3592987 .31599427 .36131288L.1749878 .6863556H.02999878L.022994996 .67936709V.6513672Z"/>
<path id="font_12_19" d="M.050994874 .6591797C.069992069 .6531677 .08999634 .64816287 .10899353 .6411743 .117996219 .63716128 .125 .6301575 .12599182 .62016299 .1269989 .6051636 .12799073 .5891571 .12799073 .57315066V.07904053C.1269989 .041030885 .12599182 .027038575 .10598755 .012023926V.002029419H.33699037C.39698792 .002029419 .45700074 .0070343019 .5139923 .024032593 .55799868 .03703308 .60798647 .057037355 .6389923 .091049198 .71598818 .174057 .73799136 .25808717 .73799136 .38511659 .73799136 .43011476 .73399356 .47512818 .72099307 .5171356 .71099856 .55114749 .69599917 .5831604 .67099 .6081543 .6399994 .63916018 .59799197 .6551666 .5549927 .6661682 .49499513 .680542 .43299867 .6855469 .37098695 .6855469L.057998659 .6861725 .050994874 .6781769V.6591797M.21199036 .1700592V.57514956C.21199036 .6061554 .21299744 .62615969 .21499634 .62916567 .21798706 .63516238 .21998596 .63816836 .22599793 .6411743 .23199463 .6435394 .24899292 .6445465 .2919922 .6445465 .33898927 .6445465 .44799806 .6415405 .48098756 .634552 .522995 .6255493 .548996 .6125641 .57099917 .5905762 .6269989 .5346222 .6439972 .43771363 .6439972 .37675477 .6439972 .2828369 .6230011 .184906 .5549927 .11697388 .5269928 .08898926 .4909973 .072006229 .45399476 .060012819 .40699769 .045028688 .35798646 .040039064 .30899049 .040039064 .28199769 .040039064 .24299622 .040039064 .22999573 .053024293 .21499634 .06800842 .21299744 .1299591 .21199036 .16992188V.1700592Z"/>
</defs>
<use data-text="G" xlink:href="#font_12_8" transform="matrix(21.519362,0,0,-21.519398,217.9061,122.01193)"/>
<use data-text="1" xlink:href="#font_12_17" transform="matrix(16.438399,0,0,-16.438426,234.37332,126.3129)"/>
<use data-text="(" xlink:href="#font_12_2" transform="matrix(21.519362,0,0,-21.519398,244.61594,122.01193)"/>
<use data-text="s" xlink:href="#font_12_3" transform="matrix(21.519362,0,0,-21.519398,254.16107,122.01193)"/>
<use data-text=")" xlink:href="#font_12_4" transform="matrix(21.519362,0,0,-21.519398,265.148,122.01193)"/>
<use data-text="G" xlink:href="#font_12_8" transform="matrix(21.519362,0,0,-21.519398,474.3578,122.01193)"/>
<use data-text="2" xlink:href="#font_12_18" transform="matrix(16.438399,0,0,-16.438426,490.825,126.24713)"/>
<use data-text="(" xlink:href="#font_12_2" transform="matrix(21.519362,0,0,-21.519398,501.0677,122.01193)"/>
<use data-text="s" xlink:href="#font_12_3" transform="matrix(21.519362,0,0,-21.519398,510.6128,122.01193)"/>
<use data-text=")" xlink:href="#font_12_4" transform="matrix(21.519362,0,0,-21.519398,521.59976,122.01193)"/>
<use data-text="H" xlink:href="#font_12_15" transform="matrix(21.519108,0,0,-21.519398,351.05946,232.38339)"/>
<use data-text="(" xlink:href="#font_12_2" transform="matrix(21.519108,0,0,-21.519398,367.90888,232.38339)"/>
<use data-text="s" xlink:href="#font_12_3" transform="matrix(21.519108,0,0,-21.519398,377.45393,232.38339)"/>
<use data-text=")" xlink:href="#font_12_4" transform="matrix(21.519108,0,0,-21.519398,388.44075,232.38339)"/>
<use data-text="+" xlink:href="#font_12_7" transform="matrix(37.185197,0,0,-37.18505,103.439899,126.15146)"/>
<use data-text="+" xlink:href="#font_12_7" transform="matrix(37.185197,0,0,-37.18505,359.8916,126.15146)"/>
<path transform="matrix(1,0,0,-1,245.70526,116.630649)" stroke-width=".75" stroke-linecap="round" stroke-linejoin="round" fill="none" stroke="#000000" d="M-27.43693-25.193774C-28.376523-25.567627-27.875756-25.851878-27.528973-25.83279-8.485143-25.838809 9.456654-25.130743 27.083872-24.57582 43.39307-25.839362 41.985818-25.641802 42.699739-10.100232 43.270769-3.383211 43.4463 3.400337 41.8842 9.072835 43.566205 25.806349 42.461324 25.397168 27.631262 25.898112 8.329987 24.44318-8.34711 24.338446-27.098505 25.463614-43.634664 24.024342-41.859346 25.297642-42.031629 9.761396-43.416749 3.478673-43.2876-4.210825-42.60927-10.382333-43.091909-24.433154-43.140417-24.607094-27.43693-25.193774Z"/>
<path transform="matrix(1,0,0,-1,245.70526,116.630649)" stroke-width=".75" stroke-linecap="round" stroke-linejoin="round" fill="none" stroke="#000000" d="M228.41629-24.534667C228.82741-24.881718 229.1893-25.71575 228.99819-24.8944 246.8285-25.144602 264.92289-24.216174 283.38148-24.163664 298.3288-24.626383 298.9181-25.608712 299.44837-9.125367 298.89738-2.943963 299.4989 3.735368 300.0921 9.021518 300.19828 24.530436 298.65983 24.06177 284.21177 25.82213 266.06849 24.488738 246.58956 24.473536 228.2439 25.645747 214.29453 25.317793 213.23778 24.205594 213.19779 10.817926 213.23397 3.926298 212.78484-3.718724 213.96829-9.068765 212.92469-24.233803 214.56578-25.705025 228.41629-24.534667Z"/>
<path transform="matrix(1,0,0,-1,245.70526,116.630649)" stroke-width=".75" stroke-linecap="round" stroke-linejoin="round" fill="none" stroke="#000000" d="M105.90177-134.62042C105.229808-135.09085 104.81511-134.81279 105.72231-136.19385 120.560039-134.44759 136.24845-135.0709 150.49646-134.74808 166.85575-136.19608 165.29865-134.75284 166.65779-121.20047 165.51866-114.57184 165.47672-107.87051 165.62859-100.17026 166.86617-84.79526 166.42127-85.21815 150.28136-85.85053 135.84304-84.53797 121.17957-84.617137 105.8936-86.26024 89.775119-85.33338 91.25862-84.6634 89.81452-100.84804 90.42-107.968868 91.251789-112.79726 90.319698-119.53885 90.99654-134.41944 89.66009-136.00803 105.90177-134.62042Z"/>
<path transform="matrix(1,0,0,-1,245.70526,116.630649)" stroke-width=".75" stroke-linecap="round" stroke-linejoin="round" fill="none" stroke="#000000" d="M-107.02994 .207016C-106.65983 12.486779-115.626819 21.204388-127.41726 20.75592-140.6105 20.803183-149.86258 12.493693-149.15493-.743512-148.97649-11.287391-139.90926-22.020287-127.79211-21.354678-116.51746-20.781283-105.6353-12.648461-107.02994 .207016Z"/>
<path transform="matrix(1,0,0,-1,245.70526,116.630649)" stroke-width=".75" stroke-linecap="round" stroke-linejoin="round" fill="none" stroke="#000000" d="M150.74349-.266037C149.55565 11.695907 140.79776 21.002652 128.6057 22.352547 116.235759 22.19553 107.04724 11.893584 105.73015-.946754 106.287677-12.35163 117.166408-21.97703 128.06426-22.088946 140.61234-20.940348 149.0453-12.43501 150.74349-.266037Z"/>
<path transform="matrix(1,0,0,-1,245.70526,116.630649)" stroke-width=".75" stroke-linecap="round" stroke-linejoin="round" fill="none" stroke="#000000" d="M-192.02326 .326062C-178.77655 .186171-163.95513-.395622-150.26425 .270753"/>
<path transform="matrix(1,0,0,-1,245.70526,116.630649)" stroke-width=".75" stroke-linecap="round" stroke-linejoin="round" fill="none" stroke="#000000" d="M-163.21567-8.117482C-159.9906-3.724358-155.02812-1.602212-150.6226-.323837-155.27988 1.221044-159.30164 3.939978-163.18134 8.24979"/>
<path transform="matrix(1,0,0,-1,245.70526,116.630649)" stroke-width=".75" stroke-linecap="round" stroke-linejoin="round" fill="none" stroke="#000000" d="M-106.709178 .196207C-85.57894 .183439-64.030399 .345014-42.90189 .270192"/>
<path transform="matrix(1,0,0,-1,245.70526,116.630649)" stroke-width=".75" stroke-linecap="round" stroke-linejoin="round" fill="none" stroke="#000000" d="M-56.09302-7.856344C-52.885335-3.717898-48.04994-.747433-43.241346-.165037-48.559095 .835152-52.68865 3.739202-55.80851 7.898695"/>
<path transform="matrix(1,0,0,-1,245.70526,116.630649)" stroke-width=".75" stroke-linecap="round" stroke-linejoin="round" fill="none" stroke="#000000" d="M42.44823 .15997C63.727834-.254962 84.79559-.380122 105.814189-.356541"/>
<path transform="matrix(1,0,0,-1,245.70526,116.630649)" stroke-width=".75" stroke-linecap="round" stroke-linejoin="round" fill="none" stroke="#000000" d="M93.32977-7.988899C96.76603-4.258587 101.3724-.824631 105.90501 .036649 101.45926 1.452613 97.037158 3.902118 93.21303 8.138229"/>
<path transform="matrix(1,0,0,-1,245.70526,116.630649)" stroke-width=".75" stroke-linecap="round" stroke-linejoin="round" fill="none" stroke="#000000" d="M150.10678 .021878C170.94997-.330164 192.26532 .172121 213.35066 .242546"/>
<path transform="matrix(1,0,0,-1,245.70526,116.630649)" stroke-width=".75" stroke-linecap="round" stroke-linejoin="round" fill="none" stroke="#000000" d="M200.8839-7.646871C203.98674-4.186774 208.23567-1.419957 213.67856 .203378 207.96648 1.407774 203.84296 4.263835 200.63636 7.882707"/>
<path transform="matrix(1,0,0,-1,245.70526,116.630649)" stroke-width=".75" stroke-linecap="round" stroke-linejoin="round" fill="none" stroke="#000000" d="M299.17485 .448416C327.7323 .064977 356.13005 .079536 384.01026-.105318"/>
<path transform="matrix(1,0,0,-1,245.70526,116.630649)" stroke-width=".75" stroke-linecap="round" stroke-linejoin="round" fill="none" stroke="#000000" d="M371.51808-8.182227C374.40815-3.717885 379.31935-1.175231 384.43208 .248259 379.6865 1.454829 375.15098 4.212416 372.061 7.642511"/>
<path transform="matrix(1,0,0,-1,245.70526,116.630649)" stroke-width=".75" stroke-linecap="round" stroke-linejoin="round" fill="none" stroke="#000000" d="M342.1259 .427468C341.60404-36.71277 341.8016-74.01085 341.72575-110.33397 283.11174-110.285327 224.72725-110.51302 166.62535-109.925838"/>
<path transform="matrix(1,0,0,-1,245.70526,116.630649)" stroke-width=".75" stroke-linecap="round" stroke-linejoin="round" fill="none" stroke="#000000" d="M179.35935-102.577289C175.59204-105.9229 171.24947-109.56124 166.64495-110.493999 171.92462-111.487369 176.05248-114.27193 179.22917-118.06457"/>
<path transform="matrix(1,0,0,-1,245.70526,116.630649)" stroke-width=".75" stroke-linecap="round" stroke-linejoin="round" fill="none" stroke="#000000" d="M89.990558-110.5395C17.7798-110.20604-55.551954-110.183238-128.20497-110.21109-128.12665-80.717098-128.62993-51.59274-127.855358-22.337735"/>
<path transform="matrix(1,0,0,-1,245.70526,116.630649)" stroke-width=".75" stroke-linecap="round" stroke-linejoin="round" fill="none" stroke="#000000" d="M-120.28694-35.055166C-123.97858-31.847292-127.039897-27.051728-128.0747-21.974783-129.59044-27.44565-131.80898-31.668803-136.43547-34.53218"/>
<path transform="matrix(1,0,0,-1,245.70526,116.630649)" stroke-width=".75" stroke-linecap="round" stroke-linejoin="round" fill="none" stroke="#000000" d="M127.92085 85.502559C128.42302 63.864133 128.57032 42.828676 128.54523 21.682122"/>
<path transform="matrix(1,0,0,-1,245.70526,116.630649)" stroke-width=".75" stroke-linecap="round" stroke-linejoin="round" fill="none" stroke="#000000" d="M119.72592 34.6746C124.42946 31.399203 126.917568 26.777726 127.88135 22.25772 129.52533 27.448468 132.3379 31.92394 136.32236 34.88512"/>
<path transform="matrix(1,0,0,-1,245.70526,116.630649)" stroke-width=".75" stroke-linecap="round" stroke-linejoin="round" fill="none" stroke="#000000" d="M-28.45288-24.420414C-27.009875-25.282525-28.003869-25.66964-26.85047-25.90166-8.873479-24.63681 8.651225-25.370947 27.171145-24.046027 43.26813-25.490857 43.502267-24.561577 42.62269-10.349979 42.300218-3.597168 43.268117 3.679687 43.681219 9.583257 42.589223 24.960003 42.58552 24.461888 28.324292 24.940543 9.749624 25.158896-8.906352 25.05618-27.385239 24.203047-42.049448 24.470517-42.160879 25.088042-42.837404 10.088025-42.817937 3.105122-42.13332-2.702864-43.15052-10.448108-42.412565-25.597508-43.469388-25.27859-28.45288-24.420414Z"/>
<path transform="matrix(1,0,0,-1,245.70526,116.630649)" stroke-width=".75" stroke-linecap="round" stroke-linejoin="round" fill="none" stroke="#000000" d="M229.5643-24.565186C228.14682-24.132355 228.13034-25.233185 228.73899-25.340966 246.4269-25.31196 265.2885-24.285468 283.30339-25.036774 298.51875-25.597525 298.7018-24.11214 299.89356-9.34486 299.73213-2.66078 298.66145 2.821476 299.04896 10.052249 300.19935 24.725413 299.62998 25.706168 285.18659 24.639044 266.2117 25.706805 248.08719 25.766507 228.9424 24.835244 213.14389 24.1915 213.54097 24.994696 213.68558 9.607655 213.62958 2.645482 214.232-2.40451 213.81963-10.395588 214.24193-25.877358 212.78183-24.332327 229.5643-24.565186Z"/>
<path transform="matrix(1,0,0,-1,245.70526,116.630649)" stroke-width=".75" stroke-linecap="round" stroke-linejoin="round" fill="none" stroke="#000000" d="M105.290409-135.42087C104.88778-135.90628 106.043498-135.0727 104.69009-135.1747 121.46867-134.77524 136.02028-135.26056 150.55368-136.08937 165.88178-135.41233 165.61777-135.61544 166.30657-120.08809 165.65666-112.95584 166.13355-106.753559 165.89675-99.63873 166.6845-85.26928 165.53609-84.77414 152.05884-85.57973 136.19078-84.73291 120.70296-86.34769 105.747539-86.24025 89.605518-84.57193 90.88284-85.710689 90.18566-100.473758 91.08653-106.19135 90.73737-112.82208 90.26439-121.06184 90.37216-135.06372 89.77799-136.04843 105.290409-135.42087Z"/>
<path transform="matrix(1,0,0,-1,245.70526,116.630649)" stroke-width=".75" stroke-linecap="round" stroke-linejoin="round" fill="none" stroke="#000000" d="M-105.627147-.51835C-106.908 12.677402-115.38684 22.113133-127.55352 21.626814-140.71695 22.038802-150.5783 12.405199-149.12419 .177553-150.12236-12.175631-140.56555-22.42156-127.28261-21.558333-116.22209-20.919489-105.892-11.292516-105.627147-.51835Z"/>
<path transform="matrix(1,0,0,-1,245.70526,116.630649)" stroke-width=".75" stroke-linecap="round" stroke-linejoin="round" fill="none" stroke="#000000" d="M149.92743-.402581C150.51692 12.095466 139.63115 22.389948 128.83232 20.68688 116.19 22.157465 106.55115 11.302861 106.35814 .351574 106.906047-11.198347 116.67478-21.122666 128.19016-21.794215 139.7763-21.017878 150.84149-12.816222 149.92743-.402581Z"/>
<path transform="matrix(1,0,0,-1,245.70526,116.630649)" stroke-width=".75" stroke-linecap="round" stroke-linejoin="round" fill="none" stroke="#000000" d="M-192.23404 .088521C-178.21509-.270637-164.38172-.440816-150.35085 .19494"/>
<path transform="matrix(1,0,0,-1,245.70526,116.630649)" stroke-width=".75" stroke-linecap="round" stroke-linejoin="round" fill="none" stroke="#000000" d="M-162.74234-7.906875C-159.3152-4.397982-154.9445-1.299952-150.23062 .059541-155.11534 1.081624-159.89626 3.692194-163.16187 8.24979"/>
<path transform="matrix(1,0,0,-1,245.70526,116.630649)" stroke-width=".75" stroke-linecap="round" stroke-linejoin="round" fill="none" stroke="#000000" d="M-106.284587 .391421C-85.73132 .272761-64.27837 .322705-43.20316-.069514"/>
<path transform="matrix(1,0,0,-1,245.70526,116.630649)" stroke-width=".75" stroke-linecap="round" stroke-linejoin="round" fill="none" stroke="#000000" d="M-55.546525-8.088967C-52.53183-3.839177-48.638978-1.201399-43.47185 .392087-48.489625 .986801-52.990999 4.280293-55.96621 8.47994"/>
<path transform="matrix(1,0,0,-1,245.70526,116.630649)" stroke-width=".75" stroke-linecap="round" stroke-linejoin="round" fill="none" stroke="#000000" d="M42.908166-.186746C63.77389 .251077 84.83013 .072395 106.15827-.308238"/>
<path transform="matrix(1,0,0,-1,245.70526,116.630649)" stroke-width=".75" stroke-linecap="round" stroke-linejoin="round" fill="none" stroke="#000000" d="M93.89137-7.680818C96.88829-4.019733 101.11766-.851797 105.87255-.249106 101.19316 .829357 96.799617 3.79478 94.00128 7.918525"/>
<path transform="matrix(1,0,0,-1,245.70526,116.630649)" stroke-width=".75" stroke-linecap="round" stroke-linejoin="round" fill="none" stroke="#000000" d="M149.9799-.01316C170.72103 .38235 191.98856 .092458 212.88072-.265021"/>
<path transform="matrix(1,0,0,-1,245.70526,116.630649)" stroke-width=".75" stroke-linecap="round" stroke-linejoin="round" fill="none" stroke="#000000" d="M200.2121-8.106751C203.56348-4.202279 208.12848-1.408934 213.10015-.398655 207.86919 .922406 203.60596 3.971927 200.54898 8.041036"/>
<path transform="matrix(1,0,0,-1,245.70526,116.630649)" stroke-width=".75" stroke-linecap="round" stroke-linejoin="round" fill="none" stroke="#000000" d="M298.93199-.092926C327.28733 .301307 356.31044-.339451 384.2592-.182785"/>
<path transform="matrix(1,0,0,-1,245.70526,116.630649)" stroke-width=".75" stroke-linecap="round" stroke-linejoin="round" fill="none" stroke="#000000" d="M371.92185-7.686319C375.23945-4.283194 379.65827-1.064735 384.2914-.384774 379.11714 1.366178 374.52519 4.258621 371.6183 7.710458"/>
<path transform="matrix(1,0,0,-1,245.70526,116.630649)" stroke-width=".75" stroke-linecap="round" stroke-linejoin="round" fill="none" stroke="#000000" d="M341.63435-.025152C342.10026-36.36291 342.08479-73.41153 342.1546-110.52715 283.5241-110.697208 224.94754-110.41579 166.74752-110.45168"/>
<path transform="matrix(1,0,0,-1,245.70526,116.630649)" stroke-width=".75" stroke-linecap="round" stroke-linejoin="round" fill="none" stroke="#000000" d="M179.05495-102.21854C176.36997-105.9272 171.25559-109.39437 166.62752-110.10489 171.21234-111.30067 175.63443-114.08538 179.40798-118.76876"/>
<path transform="matrix(1,0,0,-1,245.70526,116.630649)" stroke-width=".75" stroke-linecap="round" stroke-linejoin="round" fill="none" stroke="#000000" d="M90.44789-110.34686C17.515164-109.99314-55.639574-110.10479-128.1807-110.723918-128.64388-81.02626-128.53997-51.34467-127.86559-22.17408"/>
<path transform="matrix(1,0,0,-1,245.70526,116.630649)" stroke-width=".75" stroke-linecap="round" stroke-linejoin="round" fill="none" stroke="#000000" d="M-120.35442-34.473669C-124.28198-31.42654-127.402378-26.769204-128.52468-21.93891-129.65256-27.360396-132.47347-31.882739-136.34963-34.874925"/>
<path transform="matrix(1,0,0,-1,245.70526,116.630649)" stroke-width=".75" stroke-linecap="round" stroke-linejoin="round" fill="none" stroke="#000000" d="M128.4844 85.667919C128.57575 64.450649 127.99131 43.124368 128.48581 22.138298"/>
<path transform="matrix(1,0,0,-1,245.70526,116.630649)" stroke-width=".75" stroke-linecap="round" stroke-linejoin="round" fill="none" stroke="#000000" d="M120.34488 34.6817C124.09492 31.535155 126.86002 26.647456 128.10399 21.915795 129.57575 27.180354 132.53946 31.300862 136.2306 34.24761"/>
<path transform="matrix(1,0,0,-1,245.70526,116.630649)" stroke-width=".75" stroke-linecap="round" stroke-linejoin="round" fill="none" stroke="#000000" d="M-28.62592-24.96437C-28.186823-25.455344-27.558373-25.409506-28.266846-25.34726-8.664236-25.304156 8.345824-25.297913 26.872662-25.775347 42.43364-24.279837 42.381139-24.220717 42.633104-10.607243 43.412477-4.161778 41.93743 2.587425 43.214067 9.205838 42.34069 25.10384 42.643655 25.894755 26.902976 25.579564 10.111017 25.281277-8.644294 24.006344-27.907549 24.950505-42.135244 24.335875-43.38769 24.617777-43.02838 9.863893-43.27085 3.45023-42.452-2.933597-42.444368-8.992213-43.443899-25.301396-43.676897-24.973273-28.62592-24.96437Z"/>
<path transform="matrix(1,0,0,-1,245.70526,116.630649)" stroke-width=".75" stroke-linecap="round" stroke-linejoin="round" fill="none" stroke="#000000" d="M228.28292-24.626509C227.69033-24.668255 228.30733-25.717738 228.05315-25.793635 247.7854-25.101288 265.88444-25.883202 284.46043-25.317427 299.36924-25.150824 299.35685-24.117594 299.19496-10.20101 298.66798-2.45356 300.12553 4.20624 298.6157 10.113881 298.2903 23.994908 298.84474 24.707917 284.31727 25.16238 265.90098 24.304959 247.85242 24.225522 228.72794 25.143355 214.37578 24.630875 214.16277 24.189972 213.08254 10.72171 214.12915 3.89682 214.11206-3.7665 214.15532-9.506708 214.58493-24.927519 214.13191-24.487 228.28292-24.626509Z"/>
<path transform="matrix(1,0,0,-1,245.70526,116.630649)" stroke-width=".75" stroke-linecap="round" stroke-linejoin="round" fill="none" stroke="#000000" d="M105.154438-134.86238C105.424037-135.23783 105.687458-134.9854 106.2256-134.761 119.645908-135.24623 135.78075-134.74559 150.66326-135.09438 165.31855-135.44773 166.92407-135.49279 165.26165-120.91063 166.96958-114.07183 166.10686-107.65054 165.21933-99.58298 165.99422-86.18676 165.36913-85.152408 151.10335-84.583698 136.24459-84.886028 119.92617-85.42532 105.18329-85.11348 90.172779-85.20878 89.86578-85.36964 91.05066-100.57187 91.24236-106.444049 91.12339-113.20255 89.8059-120.49294 90.826938-136.27555 90.957408-135.19173 105.154438-134.86238Z"/>
<path transform="matrix(1,0,0,-1,245.70526,116.630649)" stroke-width=".75" stroke-linecap="round" stroke-linejoin="round" fill="none" stroke="#000000" d="M-107.141048-.276659C-107.2062 11.651094-116.15198 22.062769-128.5305 21.395543-139.90578 20.798613-150.09165 12.405576-150.04695 .572852-149.02457-12.875004-140.68257-20.89948-128.42018-20.932805-116.52497-22.25924-107.080188-11.514714-107.141048-.276659Z"/>
<path transform="matrix(1,0,0,-1,245.70526,116.630649)" stroke-width=".75" stroke-linecap="round" stroke-linejoin="round" fill="none" stroke="#000000" d="M150.06543-.857519C150.63732 12.337252 141.13246 22.251978 127.58656 22.127314 115.55733 21.50205 106.35947 11.565362 106.15898-.077643 107.30975-12.098847 116.46492-22.026679 127.914638-21.669064 139.3021-22.498387 149.62448-11.367505 150.06543-.857519Z"/>
<path transform="matrix(1,0,0,-1,245.70526,116.630649)" stroke-width=".75" stroke-linecap="round" stroke-linejoin="round" fill="none" stroke="#000000" d="M-192.29332 .265924C-178.35582 .157382-164.66571 .422663-150.44454 .432367"/>
<path transform="matrix(1,0,0,-1,245.70526,116.630649)" stroke-width=".75" stroke-linecap="round" stroke-linejoin="round" fill="none" stroke="#000000" d="M-162.85569-8.507421C-160.13828-3.660806-154.9523-1.548218-150.4656-.160334-155.22902 1.562544-159.56507 3.672813-162.9005 8.16834"/>
<path transform="matrix(1,0,0,-1,245.70526,116.630649)" stroke-width=".75" stroke-linecap="round" stroke-linejoin="round" fill="none" stroke="#000000" d="M-106.80434 .233187C-85.190578-.292157-64.439838-.268795-42.78834-.257472"/>
<path transform="matrix(1,0,0,-1,245.70526,116.630649)" stroke-width=".75" stroke-linecap="round" stroke-linejoin="round" fill="none" stroke="#000000" d="M-56.014677-8.013803C-52.804708-4.18622-48.2815-.716338-42.837877 .195866-47.893964 1.501033-53.008699 3.898917-55.870229 8.21089"/>
<path transform="matrix(1,0,0,-1,245.70526,116.630649)" stroke-width=".75" stroke-linecap="round" stroke-linejoin="round" fill="none" stroke="#000000" d="M43.08925-.275798C64.331928-.080705 85.214519-.233128 106.05282-.240983"/>
<path transform="matrix(1,0,0,-1,245.70526,116.630649)" stroke-width=".75" stroke-linecap="round" stroke-linejoin="round" fill="none" stroke="#000000" d="M93.459888-8.298917C96.36322-4.216095 101.569858-1.190752 105.890499-.119755 101.04994 1.09837 96.80954 3.715293 93.51662 8.486412"/>
<path transform="matrix(1,0,0,-1,245.70526,116.630649)" stroke-width=".75" stroke-linecap="round" stroke-linejoin="round" fill="none" stroke="#000000" d="M149.9958-.016224C171.28327 .431251 191.9473-.277683 213.1372-.373057"/>
<path transform="matrix(1,0,0,-1,245.70526,116.630649)" stroke-width=".75" stroke-linecap="round" stroke-linejoin="round" fill="none" stroke="#000000" d="M200.52104-7.710211C203.54319-4.092844 208.50217-1.477542 213.1124 .050176 208.03395 .958066 204.10924 4.086763 200.3532 8.303515"/>
<path transform="matrix(1,0,0,-1,245.70526,116.630649)" stroke-width=".75" stroke-linecap="round" stroke-linejoin="round" fill="none" stroke="#000000" d="M298.8673 .119772C327.6062-.273826 355.59346-.167632 383.92729 .260521"/>
<path transform="matrix(1,0,0,-1,245.70526,116.630649)" stroke-width=".75" stroke-linecap="round" stroke-linejoin="round" fill="none" stroke="#000000" d="M371.83103-8.071342C375.15129-3.614751 379.02104-.808135 384.70637 .424528 379.35069 1.236128 374.67195 4.187436 371.83915 8.460774"/>
<path transform="matrix(1,0,0,-1,245.70526,116.630649)" stroke-width=".75" stroke-linecap="round" stroke-linejoin="round" fill="none" stroke="#000000" d="M341.3506-.263416C342.19657-36.43368 341.6155-73.84874 341.5203-110.08489 283.76658-110.16791 224.92223-110.06395 166.73458-110.242938"/>
<path transform="matrix(1,0,0,-1,245.70526,116.630649)" stroke-width=".75" stroke-linecap="round" stroke-linejoin="round" fill="none" stroke="#000000" d="M179.17618-102.12594C175.65045-106.10128 171.05747-109.23406 166.47675-109.93241 171.49323-111.44396 175.92475-114.80118 179.14221-118.85293"/>
<path transform="matrix(1,0,0,-1,245.70526,116.630649)" stroke-width=".75" stroke-linecap="round" stroke-linejoin="round" fill="none" stroke="#000000" d="M90.56275-110.58238C17.534686-110.30981-55.420499-110.14786-127.80094-110.59296-128.54055-80.99891-128.35759-51.84152-127.808879-21.822569"/>
<path transform="matrix(1,0,0,-1,245.70526,116.630649)" stroke-width=".75" stroke-linecap="round" stroke-linejoin="round" fill="none" stroke="#000000" d="M-120.294078-34.68069C-124.09267-31.44851-126.716579-27.086096-128.13092-21.751475-129.31798-26.851754-132.51764-31.894556-136.36641-34.612737"/>
<path transform="matrix(1,0,0,-1,245.70526,116.630649)" stroke-width=".75" stroke-linecap="round" stroke-linejoin="round" fill="none" stroke="#000000" d="M128.07387 85.57954C127.88437 64.60573 128.02608 43.177316 128.5898 21.735388"/>
<path transform="matrix(1,0,0,-1,245.70526,116.630649)" stroke-width=".75" stroke-linecap="round" stroke-linejoin="round" fill="none" stroke="#000000" d="M119.80796 34.909048C124.509738 31.239945 127.01025 26.609597 128.56043 21.91051 129.78406 27.318886 132.53987 31.426793 136.48714 34.629209"/>
<path transform="matrix(1,0,0,-1,245.70526,116.630649)" stroke-width=".75" stroke-linecap="round" stroke-linejoin="round" fill="none" stroke="#000000" d="M-27.218693-24.974078C-27.05156-24.252696-28.4683-24.769236-27.2722-25.260609-10.067002-25.844103 9.327889-24.716427 27.226634-24.259539 43.64378-25.028403 42.684309-24.04527 42.665887-10.41024 42.088769-2.784352 43.176565 2.852165 43.40151 10.332349 43.584276 25.567164 42.525537 24.265227 27.303246 24.512364 10.027358 24.656666-9.16493 24.14824-27.172448 25.258595-43.418134 24.50806-43.14127 25.521258-42.408277 9.090719-43.37261 3.756683-43.488088-3.178643-42.498228-9.031391-43.541345-24.729769-43.532369-24.885758-27.218693-24.974078Z"/>
<path transform="matrix(1,0,0,-1,245.70526,116.630649)" stroke-width=".75" stroke-linecap="round" stroke-linejoin="round" fill="none" stroke="#000000" d="M228.20369-25.376526C229.45734-24.243859 228.41997-25.40919 229.0391-25.368634 247.24626-24.626532 265.33085-25.431118 284.61839-25.255318 298.4758-24.362048 298.90647-24.346495 298.46644-9.767769 300.13954-2.649816 299.05473 2.980623 298.69847 9.226469 299.04045 25.208802 299.92948 25.20731 284.30494 25.623682 266.6283 24.415143 247.45095 24.876202 228.84123 25.642066 213.9932 25.423438 213.30454 24.815606 213.87619 10.556872 213.56049 4.15922 213.91187-2.96117 214.05062-9.194498 214.51685-24.818882 214.00324-25.91304 228.20369-25.376526Z"/>
<path transform="matrix(1,0,0,-1,245.70526,116.630649)" stroke-width=".75" stroke-linecap="round" stroke-linejoin="round" fill="none" stroke="#000000" d="M105.632328-135.57753C105.964359-134.50815 105.41563-134.95066 105.17349-134.64157 120.960689-135.39514 136.23374-134.61389 151.65685-135.87924 165.92055-134.36454 166.76418-136.28206 166.09278-119.89209 165.74565-114.48717 167.04744-106.59382 166.97965-100.508769 166.42797-85.53178 166.65625-84.52893 150.3864-86.31784 135.14713-84.550098 120.92474-84.62053 106.09457-84.457088 90.14788-86.3191 89.71151-85.1106 90.06926-99.99666 89.57596-107.47624 90.10696-114.43435 90.96445-120.863269 90.13162-134.98458 89.82668-136.05318 105.632328-135.57753Z"/>
<path transform="matrix(1,0,0,-1,245.70526,116.630649)" stroke-width=".75" stroke-linecap="round" stroke-linejoin="round" fill="none" stroke="#000000" d="M-106.9669-.957122C-106.71568 12.027872-117.22072 21.067967-128.6729 22.526204-140.31136 21.747225-150.80309 12.46563-148.92232 .010005-149.73998-11.252887-140.60054-20.997517-128.80889-22.574145-116.010288-21.055535-107.49221-11.821101-106.9669-.957122Z"/>
<path transform="matrix(1,0,0,-1,245.70526,116.630649)" stroke-width=".75" stroke-linecap="round" stroke-linejoin="round" fill="none" stroke="#000000" d="M149.21559-.154372C150.19951 11.753132 140.41536 22.560078 127.43018 21.741425 115.71387 21.51853 107.30721 11.38546 107.3055 .267561 107.53233-12.120899 116.86392-21.988698 128.39676-21.816073 140.781-20.792603 149.46648-12.826693 149.21559-.154372Z"/>
<path transform="matrix(1,0,0,-1,245.70526,116.630649)" stroke-width=".75" stroke-linecap="round" stroke-linejoin="round" fill="none" stroke="#000000" d="M-192.5679 .25795C-178.61458-.099797-163.8568-.017342-150.64061 .045736"/>
<path transform="matrix(1,0,0,-1,245.70526,116.630649)" stroke-width=".75" stroke-linecap="round" stroke-linejoin="round" fill="none" stroke="#000000" d="M-163.21566-7.848343C-160.1522-4.075424-155.61688-.974565-150.55208 .065038-155.40259 1.226314-159.63832 3.914123-163.235 7.884081"/>
<path transform="matrix(1,0,0,-1,245.70526,116.630649)" stroke-width=".75" stroke-linecap="round" stroke-linejoin="round" fill="none" stroke="#000000" d="M-106.567768 .203405C-85.33821 .345359-64.36366 .045153-43.39103 .331633"/>
<path transform="matrix(1,0,0,-1,245.70526,116.630649)" stroke-width=".75" stroke-linecap="round" stroke-linejoin="round" fill="none" stroke="#000000" d="M-56.176614-8.021267C-52.568418-3.868461-48.160734-.914089-43.50873 .142183-47.937658 1.217103-52.387834 4.201072-55.524457 7.816941"/>
<path transform="matrix(1,0,0,-1,245.70526,116.630649)" stroke-width=".75" stroke-linecap="round" stroke-linejoin="round" fill="none" stroke="#000000" d="M43.17049 .377694C63.55117 .021891 85.42648 .221026 106.55526 .192491"/>
<path transform="matrix(1,0,0,-1,245.70526,116.630649)" stroke-width=".75" stroke-linecap="round" stroke-linejoin="round" fill="none" stroke="#000000" d="M93.25939-7.893236C96.39914-3.807475 101.57621-.967229 105.94031-.093003 101.4164 1.503387 97.00006 3.998298 93.93157 8.06159"/>
<path transform="matrix(1,0,0,-1,245.70526,116.630649)" stroke-width=".75" stroke-linecap="round" stroke-linejoin="round" fill="none" stroke="#000000" d="M149.9502-.181806C170.97919-.119643 191.97081 .098584 213.36652-.403324"/>
<path transform="matrix(1,0,0,-1,245.70526,116.630649)" stroke-width=".75" stroke-linecap="round" stroke-linejoin="round" fill="none" stroke="#000000" d="M200.35974-8.331062C203.79892-3.826907 208.16231-.886369 213.16097 .22031 208.10422 1.060204 203.66486 3.641814 200.2365 7.824885"/>
<path transform="matrix(1,0,0,-1,245.70526,116.630649)" stroke-width=".75" stroke-linecap="round" stroke-linejoin="round" fill="none" stroke="#000000" d="M299.18873-.045044C327.7127 .415428 355.64564 .168632 384.24284-.37126"/>
<path transform="matrix(1,0,0,-1,245.70526,116.630649)" stroke-width=".75" stroke-linecap="round" stroke-linejoin="round" fill="none" stroke="#000000" d="M371.81849-7.652324C374.53678-4.289879 378.86927-.895842 384.31675 .322702 379.32499 .755703 374.7407 4.134827 371.83934 8.481083"/>
<path transform="matrix(1,0,0,-1,245.70526,116.630649)" stroke-width=".75" stroke-linecap="round" stroke-linejoin="round" fill="none" stroke="#000000" d="M342.07566 .291088C341.57347-36.555955 341.37785-73.36433 342.12733-110.04398 282.93275-110.02425 224.86281-110.07857 166.80405-110.582088"/>
<path transform="matrix(1,0,0,-1,245.70526,116.630649)" stroke-width=".75" stroke-linecap="round" stroke-linejoin="round" fill="none" stroke="#000000" d="M179.22931-101.89344C176.19757-106.434 171.85274-109.18892 166.80655-110.19322 171.3212-111.564929 176.35272-114.59512 179.54392-118.24589"/>
<path transform="matrix(1,0,0,-1,245.70526,116.630649)" stroke-width=".75" stroke-linecap="round" stroke-linejoin="round" fill="none" stroke="#000000" d="M90.722278-110.70809C17.428807-110.1154-54.920446-110.24836-128.18735-110.68108-128.15297-80.730678-128.0938-51.325208-128.1096-22.015387"/>
<path transform="matrix(1,0,0,-1,245.70526,116.630649)" stroke-width=".75" stroke-linecap="round" stroke-linejoin="round" fill="none" stroke="#000000" d="M-119.92904-34.700265C-124.02953-31.340439-126.97381-27.35316-127.83566-22.470705-129.33213-27.280423-132.48937-31.783265-136.0977-34.34409"/>
<path transform="matrix(1,0,0,-1,245.70526,116.630649)" stroke-width=".75" stroke-linecap="round" stroke-linejoin="round" fill="none" stroke="#000000" d="M128.23274 85.62897C128.53658 64.369258 127.85709 43.454149 127.87793 21.956227"/>
<path transform="matrix(1,0,0,-1,245.70526,116.630649)" stroke-width=".75" stroke-linecap="round" stroke-linejoin="round" fill="none" stroke="#000000" d="M119.887508 34.826574C123.95528 31.5511 127.01025 26.88471 128.04779 22.121499 129.70453 27.225285 132.56403 31.209027 136.13431 34.68202"/>
<path transform="matrix(1,0,0,-1,245.70526,116.630649)" stroke-width=".75" stroke-linecap="round" stroke-linejoin="round" fill="none" stroke="#000000" d="M-28.1133-25.609316C-28.563433-24.413006-27.20191-25.727784-26.849648-24.32489-8.452425-25.379286 9.217353-25.37055 28.675019-25.053475 43.45366-24.055254 42.33001-25.024289 42.207395-10.64486 43.026647-3.849005 43.58025 3.717087 43.112813 8.998873 43.52246 24.249585 43.454793 24.36177 28.401213 24.109692 8.38575 25.716088-9.49024 25.434529-27.382058 25.22322-43.64852 25.047448-41.89784 24.254405-42.00819 9.196031-42.02231 2.743317-43.4337-2.567808-42.678468-10.650872-42.483995-24.578516-42.670919-25.541344-28.1133-25.609316Z"/>
<path transform="matrix(1,0,0,-1,245.70526,116.630649)" stroke-width=".75" stroke-linecap="round" stroke-linejoin="round" fill="none" stroke="#000000" d="M228.8145-24.046C228.48072-24.158392 229.44188-25.161738 229.19792-25.471613 246.6213-24.248114 265.01646-24.44826 285.1017-25.57837 299.13758-24.544505 298.72227-24.55393 298.7249-9.408428 299.90599-3.44861 299.578 3.136097 300.08573 10.159812 298.37409 23.975811 299.9949 25.547268 284.9458 25.70588 265.99714 24.335597 247.28563 25.656718 229.48415 25.439263 213.96692 24.267329 214.19593 25.069176 213.65714 9.921137 213.58846 3.690928 213.53299-4.146418 213.54843-9.355883 214.5671-24.074604 213.83757-24.62793 228.8145-24.046Z"/>
<path transform="matrix(1,0,0,-1,245.70526,116.630649)" stroke-width=".75" stroke-linecap="round" stroke-linejoin="round" fill="none" stroke="#000000" d="M105.51469-135.05323C104.791919-134.9295 104.90786-136.14441 104.4875-134.96652 120.107257-134.72676 135.20195-134.56735 150.14295-136.1537 166.43972-135.62543 166.82944-135.44727 165.55046-120.762638 166.63549-114.01718 166.20345-106.67825 165.51543-100.6471 166.03856-84.64975 166.0761-86.35408 151.10088-84.73599 136.7734-85.06144 119.86176-85.01267 105.51692-84.75787 89.70202-85.30134 90.17967-85.58883 89.818698-100.7365 90.053249-107.71666 89.77358-114.60048 89.525669-120.02164 89.89517-134.68607 89.68936-134.62447 105.51469-135.05323Z"/>
<path transform="matrix(1,0,0,-1,245.70526,116.630649)" stroke-width=".75" stroke-linecap="round" stroke-linejoin="round" fill="none" stroke="#000000" d="M-106.85532-.178771C-106.63892 11.089257-117.15544 21.939196-127.46048 21.917796-140.17581 21.535134-149.6088 12.187207-150.34059 .384393-150.03017-12.779357-140.95693-21.91666-127.593189-21.722149-115.443889-21.785492-106.63881-11.071691-106.85532-.178771Z"/>
<path transform="matrix(1,0,0,-1,245.70526,116.630649)" stroke-width=".75" stroke-linecap="round" stroke-linejoin="round" fill="none" stroke="#000000" d="M150.1508 .405626C149.06275 11.511511 140.966 21.930535 128.36473 21.751753 116.7668 22.31347 106.609 11.578115 105.638 .312762 105.76172-12.640405 115.326229-20.804215 128.24285-20.815423 141.1453-22.173115 149.71083-12.365886 150.1508 .405626Z"/>
<path transform="matrix(1,0,0,-1,245.70526,116.630649)" stroke-width=".75" stroke-linecap="round" stroke-linejoin="round" fill="none" stroke="#000000" d="M-192.46338-.058454C-178.76224 .367246-164.6848-.083716-150.42444 .314339"/>
<path transform="matrix(1,0,0,-1,245.70526,116.630649)" stroke-width=".75" stroke-linecap="round" stroke-linejoin="round" fill="none" stroke="#000000" d="M-163.1451-8.098257C-160.13097-3.679847-154.8407-1.032818-149.81227 .292276-155.52858 1.034918-159.87169 4.052177-162.59844 8.350338"/>
<path transform="matrix(1,0,0,-1,245.70526,116.630649)" stroke-width=".75" stroke-linecap="round" stroke-linejoin="round" fill="none" stroke="#000000" d="M-106.94826-.391809C-85.316608-.077056-64.639408 .037772-42.782144 .03957"/>
<path transform="matrix(1,0,0,-1,245.70526,116.630649)" stroke-width=".75" stroke-linecap="round" stroke-linejoin="round" fill="none" stroke="#000000" d="M-56.272588-8.126071C-53.094167-4.396662-48.313817-.771746-42.737688-.381514-48.164484 1.283253-52.546205 4.035914-56.07042 8.480766"/>
<path transform="matrix(1,0,0,-1,245.70526,116.630649)" stroke-width=".75" stroke-linecap="round" stroke-linejoin="round" fill="none" stroke="#000000" d="M42.60083-.119135C63.87288-.182329 85.153949-.0381 106.12785-.13829"/>
<path transform="matrix(1,0,0,-1,245.70526,116.630649)" stroke-width=".75" stroke-linecap="round" stroke-linejoin="round" fill="none" stroke="#000000" d="M93.549518-7.865026C96.77145-3.67352 100.90455-.896036 106.095249 .287223 101.48291 1.394487 96.30562 4.015086 93.45507 8.444719"/>
<path transform="matrix(1,0,0,-1,245.70526,116.630649)" stroke-width=".75" stroke-linecap="round" stroke-linejoin="round" fill="none" stroke="#000000" d="M150.23 .315606C170.88755-.422733 192.32643 .025737 213.5821 .267061"/>
<path transform="matrix(1,0,0,-1,245.70526,116.630649)" stroke-width=".75" stroke-linecap="round" stroke-linejoin="round" fill="none" stroke="#000000" d="M201.02129-8.121102C203.6668-4.330989 208.20806-1.546171 213.35897-.24205 208.5827 .947047 203.6678 4.250518 200.52629 8.049122"/>
<path transform="matrix(1,0,0,-1,245.70526,116.630649)" stroke-width=".75" stroke-linecap="round" stroke-linejoin="round" fill="none" stroke="#000000" d="M299.06645 .00388C327.31986 .025297 355.79899 .175887 384.71815 .222938"/>
<path transform="matrix(1,0,0,-1,245.70526,116.630649)" stroke-width=".75" stroke-linecap="round" stroke-linejoin="round" fill="none" stroke="#000000" d="M371.66566-7.997413C375.05793-4.170807 379.25288-1.040441 384.4371 .320213 379.71064 1.028496 374.49388 3.722919 371.80476 8.487605"/>
<path transform="matrix(1,0,0,-1,245.70526,116.630649)" stroke-width=".75" stroke-linecap="round" stroke-linejoin="round" fill="none" stroke="#000000" d="M341.37763 .189887C341.92149-36.922689 341.63298-73.59613 341.99729-110.6345 283.74043-109.926158 225.02736-110.401988 166.47954-110.33496"/>
<path transform="matrix(1,0,0,-1,245.70526,116.630649)" stroke-width=".75" stroke-linecap="round" stroke-linejoin="round" fill="none" stroke="#000000" d="M178.74765-102.46616C176.11275-105.99215 171.815-109.654788 166.24588-110.72536 171.80043-111.57966 176.34438-114.34428 179.04306-118.65812"/>
<path transform="matrix(1,0,0,-1,245.70526,116.630649)" stroke-width=".75" stroke-linecap="round" stroke-linejoin="round" fill="none" stroke="#000000" d="M90.23809-110.34153C17.783741-110.695079-55.673517-110.71044-128.10472-110.44842-128.451-80.50031-128.27654-51.385953-128.41367-21.70139"/>
<path transform="matrix(1,0,0,-1,245.70526,116.630649)" stroke-width=".75" stroke-linecap="round" stroke-linejoin="round" fill="none" stroke="#000000" d="M-120.37066-34.930734C-124.09348-31.792176-127.468029-26.624585-128.136-21.98613-129.55355-26.877896-131.96916-31.10821-136.05776-34.422189"/>
<path transform="matrix(1,0,0,-1,245.70526,116.630649)" stroke-width=".75" stroke-linecap="round" stroke-linejoin="round" fill="none" stroke="#000000" d="M128.3369 85.09976C127.92943 64.14604 127.9681 43.269029 128.58226 21.863713"/>
<path transform="matrix(1,0,0,-1,245.70526,116.630649)" stroke-width=".75" stroke-linecap="round" stroke-linejoin="round" fill="none" stroke="#000000" d="M120.41039 34.605009C124.50702 31.76765 127.0247 27.114684 127.810489 21.837912 129.47571 26.868533 132.1561 31.438107 136.5031 34.4041"/>
<use data-text="+" xlink:href="#font_12_7" transform="matrix(21.519354,0,0,-21.519316,79.429569,108.88785)"/>
<use data-text="&#x2212;" xlink:href="#font_12_9" transform="matrix(21.519371,0,0,-21.519288,123.62934,147.24057)"/>
<use data-text="+" xlink:href="#font_12_7" transform="matrix(21.519354,0,0,-21.519316,335.8813,108.88785)"/>
<use data-text="+" xlink:href="#font_12_7" transform="matrix(21.519354,0,0,-21.519316,380.08106,90.23967)"/>
<use data-text="R" xlink:href="#font_12_5" transform="matrix(21.5195,0,0,-21.519398,6.814316,122.01193)"/>
<use data-text="(" xlink:href="#font_12_2" transform="matrix(21.5195,0,0,-21.519398,19.919693,122.01193)"/>
<use data-text="s" xlink:href="#font_12_3" transform="matrix(21.5195,0,0,-21.519398,29.464882,122.01193)"/>
<use data-text=")" xlink:href="#font_12_4" transform="matrix(21.5195,0,0,-21.519398,40.451879,122.01193)"/>
<use data-text="Y" xlink:href="#font_12_6" transform="matrix(21.519246,0,0,-21.519398,634.4943,122.01193)"/>
<use data-text="(" xlink:href="#font_12_2" transform="matrix(21.519246,0,0,-21.519398,647.643,122.01193)"/>
<use data-text="s" xlink:href="#font_12_3" transform="matrix(21.519246,0,0,-21.519398,657.1881,122.01193)"/>
<use data-text=")" xlink:href="#font_12_4" transform="matrix(21.519246,0,0,-21.519398,668.1749,122.01193)"/>
<use data-text="D" xlink:href="#font_12_19" transform="matrix(21.519089,0,0,-21.519398,350.57518,22.14038)"/>
<use data-text="(" xlink:href="#font_12_2" transform="matrix(21.519089,0,0,-21.519398,368.39299,22.14038)"/>
<use data-text="s" xlink:href="#font_12_3" transform="matrix(21.519089,0,0,-21.519398,377.93803,22.14038)"/>
<use data-text=")" xlink:href="#font_12_4" transform="matrix(21.519089,0,0,-21.519398,388.92485,22.14038)"/>
</svg>
