<svg xmlns="http://www.w3.org/2000/svg" xmlns:xlink="http://www.w3.org/1999/xlink" xmlns:inkscape="http://www.inkscape.org/namespaces/inkscape" version="1.1" width="416.2663" height="158.28986" viewBox="0 0 416.2663 158.28986">
<defs>
<path id="font_3_7" d="M.04598999 .23632813H.35598756V-.07368469L.3959961-.06668091V.23632813H.70399478L.70899966 .2763214H.3959961V.58631899L.35598756 .58032229V.2763214H.052993776L.04598999 .23632813Z"/>
<path id="font_3_8" d="M.08999634 .32458497C.08999634 .22958374 .114990238 .13148499 .18299866 .06341553 .23699951 .009384155 .31199647-.016601563 .3880005-.016601563 .46099855-.016601563 .56900027 .010391235 .6569977 .03338623 .6569977 .03338623 .6539917 .216568 .6519928 .30760194L.37599183 .2966156V.27061463L.38198854 .265625C.43598939 .26361085 .5 .25961305 .5439911 .25660707 .57199099 .25460816 .57199099 .22257996 .57199099 .13449097 .57199099 .061416627 .56900027 .04940796 .5519867 .045394899 .5209961 .038391115 .48999024 .03538513 .45799256 .03538513 .37998963 .03538513 .30599977 .060409547 .2619934 .112472537 .20399475 .18052674 .17999268 .25260926 .17999268 .3405609 .17999268 .48339845 .23199463 .5653076 .26098634 .5942688 .3039856 .63623049 .36299134 .6502075 .42199708 .6502075 .5529938 .6502075 .59298709 .5563202 .60598757 .53034976L.6179962 .5293579 .6759949 .58628848C.6649933 .6032715 .6119995 .69921877 .46699525 .69921877 .3619995 .69921877 .25698854 .6682129 .18199158 .593277 .11199951 .5233612 .08999634 .4224701 .08999634 .32458497Z"/>
<path id="font_3_2" d="M.11299133 .24990845C.11299133 .007904053 .1519928-.09008789 .18299866-.13310242 .21099854-.17008972 .25299073-.20809937 .30099488-.21209717V-.1880951C.2809906-.18409729 .25099183-.16809082 .23399353-.1481018 .21998596-.13209534 .16499329-.05809021 .16499329 .24990845 .16499329 .4618988 .19799805 .5659027 .21998596 .6128998 .23599243 .6469116 .2689972 .6769104 .30099488 .684906V.71191409C.2599945 .7049103 .21598816 .6729126 .19099427 .63790896 .1599884 .5919037 .11299133 .4748993 .11299133 .24990845Z"/>
<path id="font_3_3" d="M.051986696 .06642151C.06199646 .047409059 .07598877 .030395508 .09199524 .01638794 .12098694-.009613037 .16099549-.016601563 .19898987-.016601563 .2559967-.016601563 .31199647 .0023956299 .35099793 .044403078 .375 .06941223 .3869934 .10343933 .3869934 .13845825 .3869934 .1634674 .37298585 .18649292 .35499574 .20449829 .34098817 .21850586 .3039856 .24052429 .27198792 .25453187 .24299622 .26654054 .19999695 .2885437 .18798828 .30055238 .17298889 .31655885 .1619873 .3285675 .1619873 .35058595 .1619873 .3725891 .16899109 .39360047 .18499756 .4086151 .19999695 .42362977 .22200012 .43164063 .24398804 .43164063 .2639923 .43164063 .2849884 .42462159 .29599 .4066162 .30599977 .39060975 .30799867 .3715973 .30899049 .35359193L.32099916 .34657289 .37599183 .38360597C.375 .40560914 .3639984 .42662049 .34799195 .44163514 .32499696 .46263124 .29299928 .46662904 .2630005 .46662904 .21398926 .46662904 .16699219 .45063783 .1309967 .4176178 .10398865 .39360047 .08999634 .35858155 .08999634 .32356263 .08999634 .29154969 .10798645 .26353456 .1309967 .2425232 .1539917 .22250366 .18399048 .2084961 .21499634 .1954956 .24099732 .18447876 .2689972 .17248535 .28799439 .1534729 .30299378 .13845825 .31399537 .11845398 .31399537 .09744263 .31399537 .079422 .30499269 .062408449 .29299928 .04940796 .27799989 .03340149 .25099183 .021392823 .22898865 .021392823 .19898987 .021392823 .17199707 .03439331 .1499939 .055404664 .1269989 .076416019 .116989139 .10644531 .114990238 .13645935L.100997928 .13745117 .051986696 .06642151Z"/>
<path id="font_3_4" d="M.085998538-.1880951V-.21209717C.13398743-.20610047 .1789856-.17208863 .20698548-.13510132 .23799134-.09210205 .27598573 .007904053 .27598573 .24990845 .27598573 .50090029 .22399903 .5919037 .19299317 .63790896 .16799927 .6729126 .1269989 .7049103 .085998538 .71191409V.684906C.117996219 .6759033 .14898682 .6469116 .16499329 .6128998 .18699646 .5659027 .22399903 .48190309 .22399903 .24990845 .22399903-.099090579 .17199707-.13209534 .1579895-.1481018 .14099121-.16809082 .10598755-.18409729 .085998538-.1880951Z"/>
<path id="font_3_15" d="M.051986696 .6781769 .052993776 .6591797C.07299805 .65216067 .10899353 .6411438 .11299133 .6401367 .12298584 .6361389 .125 .6251221 .12599182 .6161041 .1309967 .53297427 .13198853 .44985963 .13198853 .36676026 .13198853 .24482727 .13198853 .11590576 .12199402 .0029907227L.12799073-.0020141602 .21998596 .025970459C.21699524 .051956178 .21499634 .10292053 .21499634 .1798706V.33377076C.21499634 .34075929 .22099304 .34576417 .22799683 .34576417H.57099917C.5799866 .34576417 .58299258 .33876039 .58299258 .33377076 .58299258 .23683167 .5799866 .11790466 .5779877 .020980835L.58898928 0 .73799136 .0078125 .74398806 .013809204 .7429962 .031799318C.72499087 .03981018 .66600039 .03981018 .66600039 .07879639 .66600039 .09979248 .6619873 .24076844 .6619873 .32176209 .6619873 .5129547 .66999819 .64515689 .6729889 .6841736L.66799929 .6901703 .5799866 .673172C.5799866 .58706668 .58299258 .48291017 .58299258 .3967743 .58299258 .39076234 .58200076 .38476563 .57099917 .38476563H.22499085C.21499634 .38476563 .21299744 .3917694 .21299744 .3967743 .21299744 .4618683 .21699524 .54600527 .21899414 .61109927 .21998596 .63414 .22200012 .6581726 .22599793 .6801758L.22099304 .6851654H.05899048L.051986696 .6781769Z"/>
<path id="font_3_9" d="M.04598999 .23046875H.70399478L.70999148 .27046205H.052993776L.04598999 .23046875Z"/>
<path id="font_3_5" d="M.053985597 .65625C.054992677 .65625 .08999634 .6462555 .10798645 .6412506 .12098694 .6372528 .1309967 .6252594 .1309967 .61128237 .13198853 .5543213 .13398743 .45439149 .13398743 .43940736 .13398743 .29444886 .1329956 .14831543 .125 .003189087L.13598633-.0058135988 .21899414 .023208619C.21398926 .11929321 .21398926 .21638489 .21398926 .31245423 .21998596 .31245423 .22898865 .30845643 .23399353 .30345155 .2630005 .27442933 .3899994 .11128235 .48298646-.0078125L.58200076 .018203736V.02720642L.31900025 .3234558 .32099916 .33146668C.4039917 .3404541 .4850006 .3734131 .5169983 .44322206 .5319977 .47714234 .5359955 .49110414 .5359955 .53897097 .5359955 .57388308 .5219879 .6077881 .49699403 .63272097 .47999574 .6506958 .45700074 .6596985 .43299867 .6667023 .40098573 .67570498 .36698915 .67871096 .33299256 .67871096L.06098938 .679245 .054992677 .6732483 .053985597 .65625M.21299744 .37045289C.21299744 .375412 .21699524 .549942 .21899414 .61376956 .21998596 .63272097 .22299195 .6397095 .23098755 .6397095H.2709961C.2979889 .6397095 .32598878 .6377106 .35299684 .63072207 .37199403 .6257324 .3909912 .61776736 .40499879 .6037903 .42599488 .5828552 .43798829 .55293276 .43798829 .52301028 .43798829 .47813417 .41799928 .43624879 .3869934 .40533448 .35398866 .37141419 .30599977 .36044313 .2599945 .35646058 .24798584 .35546876 .23498535 .35546876 .22200012 .35546876 .21499634 .35546876 .21299744 .36444093 .21299744 .37042237V.37045289Z"/>
<path id="font_3_6" d="M.022994996 .6513672C.036987306 .649353 .049987794 .6463623 .06298828 .6433563 .07199097 .6413574 .07998657 .6353607 .085998538 .62835696 .09599304 .61834719 .102996829 .60635378 .10899353 .5943451L.2579956 .29930116C.2579956 .19927979 .2579956 .0982666 .25498963-.0017547608L.2659912-.0107421879 .35598756 .018249512 .34700013 .30630494C.42999269 .4343109 .5039978 .5303345 .61499026 .675354L.61099246 .6933594 .526001 .6763611C.48999024 .619339 .4059906 .47431947 .397995 .46032716 .3849945 .4373169 .34199525 .36730958 .33898927 .3623047 .33599855 .3572998 .33198548 .353302 .32798768 .353302 .32199098 .353302 .31698609 .3592987 .31599427 .36131288L.1749878 .6863556H.02999878L.022994996 .67936709V.6513672Z"/>
</defs>
<use data-text="+" xlink:href="#font_3_7" transform="matrix(37.185197,0,0,-37.18505,103.05142,42.33737)"/>
<use data-text="G" xlink:href="#font_3_8" transform="matrix(21.51903,0,0,-21.519398,217.51706,38.197877)"/>
<use data-text="(" xlink:href="#font_3_2" transform="matrix(21.51903,0,0,-21.519398,233.97913,38.197877)"/>
<use data-text="s" xlink:href="#font_3_3" transform="matrix(21.51903,0,0,-21.519398,243.52411,38.197877)"/>
<use data-text=")" xlink:href="#font_3_4" transform="matrix(21.51903,0,0,-21.519398,254.51087,38.197877)"/>
<use data-text="H" xlink:href="#font_3_15" transform="matrix(21.519108,0,0,-21.519398,217.32334,130.60623)"/>
<use data-text="(" xlink:href="#font_3_2" transform="matrix(21.519108,0,0,-21.519398,234.17282,130.60623)"/>
<use data-text="s" xlink:href="#font_3_3" transform="matrix(21.519108,0,0,-21.519398,243.71784,130.60623)"/>
<use data-text=")" xlink:href="#font_3_4" transform="matrix(21.519108,0,0,-21.519398,254.70465,130.60623)"/>
<path transform="matrix(1,0,0,-1,117.09091,32.81658)" stroke-width=".75" stroke-linecap="round" stroke-linejoin="round" fill="none" stroke="#000000" d="M99.58521-25.209704C101.20595-24.608139 100.32539-25.488005 101.3857-25.637335 115.44597-25.875275 131.38765-25.887684 145.53043-24.074139 161.39809-25.729674 160.2455-25.426486 160.62647-9.564149 160.83467-2.436615 160.18698 2.98482 161.6561 8.988623 161.16225 23.985365 161.45923 25.133786 145.82674 25.627594 130.9956 25.355999 115.343349 25.43937 99.865909 24.696894 84.89009 25.544665 85.87152 24.483677 85.89646 10.216612 84.50151 4.231998 86.051548-3.648556 84.966709-10.858471 85.85391-23.980345 84.78731-25.087422 99.58521-25.209704Z"/>
<path transform="matrix(1,0,0,-1,117.09091,32.81658)" stroke-width=".75" stroke-linecap="round" stroke-linejoin="round" fill="none" stroke="#000000" d="M99.72954-116.736248C99.54908-117.60945 99.649257-116.76056 99.450168-117.309879 115.81066-118.120159 131.15232-118.29385 146.70182-117.23058 161.62134-116.98814 161.63986-116.87005 161.88095-101.944248 161.80345-94.7837 161.94652-88.32985 161.60562-81.61244 160.19872-66.746379 161.65271-68.30494 145.17082-67.30797 130.39803-67.259288 115.169467-66.52619 101.00459-67.169239 85.59123-67.582248 84.8539-67.15693 84.59404-81.7336 84.8414-89.993579 84.75841-96.55027 85.572399-102.22915 84.31165-117.66828 85.08168-116.82827 99.72954-116.736248Z"/>
<path transform="matrix(1,0,0,-1,117.09091,32.81658)" stroke-width=".75" stroke-linecap="round" stroke-linejoin="round" fill="none" stroke="#000000" d="M22.068156 .758271C21.849989 12.610931 11.949953 22.21629-.465688 21.538079-12.481154 21.231892-22.24922 12.477764-21.61202-.632197-21.69506-11.443903-12.784647-21.083605-.938984-22.51384 11.681341-20.776406 21.073357-12.511293 22.068156 .758271Z"/>
<path transform="matrix(1,0,0,-1,117.09091,32.81658)" stroke-width=".75" stroke-linecap="round" stroke-linejoin="round" fill="none" stroke="#000000" d="M-63.75262-.080769C-49.49889-.398473-35.51936 .421368-21.87158-.129027"/>
<path transform="matrix(1,0,0,-1,117.09091,32.81658)" stroke-width=".75" stroke-linecap="round" stroke-linejoin="round" fill="none" stroke="#000000" d="M-33.911039-8.423361C-31.200966-3.898689-26.214837-.779378-21.851387-.203794-26.880213 .771025-31.155907 4.190354-33.98365 7.963549"/>
<path transform="matrix(1,0,0,-1,117.09091,32.81658)" stroke-width=".75" stroke-linecap="round" stroke-linejoin="round" fill="none" stroke="#000000" d="M21.569277-.352166C42.547227 .128855 63.991205 .405178 85.24348-.048175"/>
<path transform="matrix(1,0,0,-1,117.09091,32.81658)" stroke-width=".75" stroke-linecap="round" stroke-linejoin="round" fill="none" stroke="#000000" d="M72.14878-7.769839C75.65973-4.076289 80.05999-1.240195 85.14826-.053484 80.38283 .762418 75.58354 3.809637 72.45492 8.006187"/>
<path transform="matrix(1,0,0,-1,117.09091,32.81658)" stroke-width=".75" stroke-linecap="round" stroke-linejoin="round" fill="none" stroke="#000000" d="M161.01242 .089739C188.94709 .268606 217.32587-.240255 246.22252-.443593"/>
<path transform="matrix(1,0,0,-1,117.09091,32.81658)" stroke-width=".75" stroke-linecap="round" stroke-linejoin="round" fill="none" stroke="#000000" d="M233.24173-7.790143C236.15618-3.67217 240.6496-1.008877 245.54146 .170992 240.87267 .822418 236.3793 3.648745 233.4268 8.177367"/>
<path transform="matrix(1,0,0,-1,117.09091,32.81658)" stroke-width=".75" stroke-linecap="round" stroke-linejoin="round" fill="none" stroke="#000000" d="M203.11293-.435865C202.99207-30.631354 203.61054-61.414148 203.5101-92.21929 189.53916-92.48508 175.2323-92.68938 160.81421-92.53623"/>
<path transform="matrix(1,0,0,-1,117.09091,32.81658)" stroke-width=".75" stroke-linecap="round" stroke-linejoin="round" fill="none" stroke="#000000" d="M173.82015-84.07C170.25882-88.12359 165.59815-90.88931 161.27674-92.39011 166.40505-93.16851 170.84142-96.37215 173.46503-100.475559"/>
<path transform="matrix(1,0,0,-1,117.09091,32.81658)" stroke-width=".75" stroke-linecap="round" stroke-linejoin="round" fill="none" stroke="#000000" d="M85.428798-92.15646C57.240957-92.09132 28.660082-92.17499-.329047-92.815097 .23379-68.5347 .311818-45.83443-.061373-22.01227"/>
<path transform="matrix(1,0,0,-1,117.09091,32.81658)" stroke-width=".75" stroke-linecap="round" stroke-linejoin="round" fill="none" stroke="#000000" d="M7.802073-35.081544C3.925354-31.411499 1.501867-26.639206 .072781-22.273903-1.54404-27.340657-4.345641-31.297755-7.702907-34.29318"/>
<path transform="matrix(1,0,0,-1,117.09091,32.81658)" stroke-width=".75" stroke-linecap="round" stroke-linejoin="round" fill="none" stroke="#000000" d="M100.01203-25.505656C99.71633-24.603396 100.73444-25.580306 99.98096-24.932984 115.985149-24.098898 130.36882-24.33473 145.91686-25.562956 160.21916-24.36793 161.1348-25.115443 160.37438-10.001607 160.5729-4.07714 161.2204 4.264826 161.71495 9.82578 160.69275 25.87228 161.33203 25.213284 145.38532 25.11053 129.85346 25.649699 114.790439 24.766428 101.121898 25.565732 84.7846 25.78336 85.54888 24.765463 84.82657 9.438376 85.14581 4.207701 84.84131-3.444671 84.562419-10.91776 85.14021-25.315678 84.45662-25.001156 100.01203-25.505656Z"/>
<path transform="matrix(1,0,0,-1,117.09091,32.81658)" stroke-width=".75" stroke-linecap="round" stroke-linejoin="round" fill="none" stroke="#000000" d="M101.10601-116.59199C100.52682-117.91526 100.66575-118.159008 100.54882-116.80023 116.103359-118.03988 130.7995-118.27459 145.24842-117.59743 161.30675-116.83171 160.37819-116.467517 160.04479-101.41202 161.17009-95.8376 161.46268-89.0577 160.71555-83.06173 160.99863-67.90293 161.14139-67.871608 145.05171-68.10144 130.95102-68.00971 114.67337-67.37456 99.81255-67.11536 84.348758-66.98465 85.529689-66.97507 84.2873-81.78896 85.660037-89.429248 85.98562-96.088108 85.268199-103.190738 85.29178-118.31711 84.53948-116.56211 101.10601-116.59199Z"/>
<path transform="matrix(1,0,0,-1,117.09091,32.81658)" stroke-width=".75" stroke-linecap="round" stroke-linejoin="round" fill="none" stroke="#000000" d="M22.542206 .913536C20.738064 12.046285 12.021384 21.123227-.160134 21.918292-11.937605 20.737524-20.704865 11.676485-21.168456 .208026-22.361365-11.543453-12.160188-22.189572-.008554-22.592366 12.842589-22.333373 22.310444-12.751225 22.542206 .913536Z"/>
<path transform="matrix(1,0,0,-1,117.09091,32.81658)" stroke-width=".75" stroke-linecap="round" stroke-linejoin="round" fill="none" stroke="#000000" d="M-64.01573 .136407C-49.979257-.431166-35.816339-.100628-22.04763-.372328"/>
<path transform="matrix(1,0,0,-1,117.09091,32.81658)" stroke-width=".75" stroke-linecap="round" stroke-linejoin="round" fill="none" stroke="#000000" d="M-34.01917-8.037197C-31.246773-3.67587-26.858983-.775662-21.795918-.228818-26.395367 .881465-31.14679 3.608748-34.28337 8.242659"/>
<path transform="matrix(1,0,0,-1,117.09091,32.81658)" stroke-width=".75" stroke-linecap="round" stroke-linejoin="round" fill="none" stroke="#000000" d="M21.502064 .148947C43.169149-.11209 63.818326 .030311 85.10675-.011815"/>
<path transform="matrix(1,0,0,-1,117.09091,32.81658)" stroke-width=".75" stroke-linecap="round" stroke-linejoin="round" fill="none" stroke="#000000" d="M72.820728-7.663191C75.20261-4.142857 80.4246-1.351622 84.61667 .001383 80.36654 .973112 75.38752 3.653033 72.01032 7.660838"/>
<path transform="matrix(1,0,0,-1,117.09091,32.81658)" stroke-width=".75" stroke-linecap="round" stroke-linejoin="round" fill="none" stroke="#000000" d="M160.54213 .21883C189.56079-.18337 217.42682 .244805 245.46996 .187995"/>
<path transform="matrix(1,0,0,-1,117.09091,32.81658)" stroke-width=".75" stroke-linecap="round" stroke-linejoin="round" fill="none" stroke="#000000" d="M232.98317-8.23991C236.73242-3.57276 240.5824-1.331484 245.44821 .172354 240.87593 1.206212 236.53827 3.878018 232.78592 7.623665"/>
<path transform="matrix(1,0,0,-1,117.09091,32.81658)" stroke-width=".75" stroke-linecap="round" stroke-linejoin="round" fill="none" stroke="#000000" d="M202.89214 .412463C203.30675-31.02854 202.861-61.568143 203.3758-92.31106 189.04193-91.99789 174.79608-92.182529 161.14859-92.5755"/>
<path transform="matrix(1,0,0,-1,117.09091,32.81658)" stroke-width=".75" stroke-linecap="round" stroke-linejoin="round" fill="none" stroke="#000000" d="M173.52944-84.03016C170.64992-88.27773 166.37746-91.19399 161.01006-92.39278 165.59395-93.5563 170.77106-96.79188 173.92801-100.61501"/>
<path transform="matrix(1,0,0,-1,117.09091,32.81658)" stroke-width=".75" stroke-linecap="round" stroke-linejoin="round" fill="none" stroke="#000000" d="M85.61542-92.32641C56.754045-92.07054 28.11953-92.6933 .151803-92.626-.183339-68.762668-.104009-45.542749-.218374-22.14643"/>
<path transform="matrix(1,0,0,-1,117.09091,32.81658)" stroke-width=".75" stroke-linecap="round" stroke-linejoin="round" fill="none" stroke="#000000" d="M7.91597-34.579149C3.707649-31.13134 .873643-27.198884 .287774-21.977229-.922827-27.045836-3.989128-31.32678-7.632056-34.750318"/>
<path transform="matrix(1,0,0,-1,117.09091,32.81658)" stroke-width=".75" stroke-linecap="round" stroke-linejoin="round" fill="none" stroke="#000000" d="M100.945339-24.843047C100.77247-24.256016 99.51688-24.911299 99.665218-25.62148 114.723308-24.406298 129.98909-24.67418 146.66043-24.183327 161.50348-25.245665 161.09503-24.153502 161.74698-10.318187 160.82236-2.908592 160.97914 3.758008 160.06839 9.835538 159.93482 25.448493 159.98918 24.116915 145.75745 24.641863 129.99474 23.970889 115.997158 24.237145 100.56689 24.883708 85.22717 25.74519 85.280048 24.537432 85.94697 9.742154 86.05961 3.299428 85.198459-3.229034 86.17608-9.588077 85.40906-24.959565 85.183498-24.220795 100.945339-24.843047Z"/>
<path transform="matrix(1,0,0,-1,117.09091,32.81658)" stroke-width=".75" stroke-linecap="round" stroke-linejoin="round" fill="none" stroke="#000000" d="M100.460437-116.89576C101.047389-117.42675 99.96418-116.93807 100.82999-118.28538 115.86136-116.47141 130.38968-118.12506 145.69762-117.505939 160.4716-118.313617 161.2961-117.9136 161.58043-102.48193 161.63346-95.433368 160.90042-88.335399 160.75351-82.20547 161.3409-66.824268 160.987-66.530178 145.65555-67.915 130.86545-66.919139 115.42576-66.887317 99.27102-67.51104 84.91899-68.20855 84.65781-66.64696 84.595218-81.56539 85.833019-88.15199 85.76217-96.517627 86.09954-103.087879 86.15067-117.926258 85.907039-117.889698 100.460437-116.89576Z"/>
<path transform="matrix(1,0,0,-1,117.09091,32.81658)" stroke-width=".75" stroke-linecap="round" stroke-linejoin="round" fill="none" stroke="#000000" d="M21.229382 .609455C20.911738 11.809545 11.741251 21.688006 .666102 21.340346-11.067537 21.379866-22.291777 11.777232-20.948548-.504304-22.307494-11.973315-11.87944-20.99656-.908755-21.421547 11.647185-20.819207 20.81323-12.604352 21.229382 .609455Z"/>
<path transform="matrix(1,0,0,-1,117.09091,32.81658)" stroke-width=".75" stroke-linecap="round" stroke-linejoin="round" fill="none" stroke="#000000" d="M-63.559396-.3375C-50.1179 .04693-35.60194 .274113-21.395655 .142235"/>
<path transform="matrix(1,0,0,-1,117.09091,32.81658)" stroke-width=".75" stroke-linecap="round" stroke-linejoin="round" fill="none" stroke="#000000" d="M-34.359476-8.406228C-30.989869-4.324552-26.948639-1.101393-21.91397-.326675-27.025883 .744662-30.919333 4.337561-34.161947 7.720758"/>
<path transform="matrix(1,0,0,-1,117.09091,32.81658)" stroke-width=".75" stroke-linecap="round" stroke-linejoin="round" fill="none" stroke="#000000" d="M21.947218 .386069C43.11533 .120517 64.36146 .041916 85.41295-.443664"/>
<path transform="matrix(1,0,0,-1,117.09091,32.81658)" stroke-width=".75" stroke-linecap="round" stroke-linejoin="round" fill="none" stroke="#000000" d="M72.57643-8.237305C75.22903-3.988391 79.800609-1.092436 85.2788-.066264 80.42577 1.283129 75.71672 4.356453 72.4675 7.831466"/>
<path transform="matrix(1,0,0,-1,117.09091,32.81658)" stroke-width=".75" stroke-linecap="round" stroke-linejoin="round" fill="none" stroke="#000000" d="M161.18148 .029593C189.45859-.337202 217.87709 .043745 245.55832 .050475"/>
<path transform="matrix(1,0,0,-1,117.09091,32.81658)" stroke-width=".75" stroke-linecap="round" stroke-linejoin="round" fill="none" stroke="#000000" d="M233.37235-7.721322C236.17946-3.621948 241.2491-1.192204 245.37929 .160018 240.40966 .926341 236.45427 4.304485 233.28266 8.08216"/>
<path transform="matrix(1,0,0,-1,117.09091,32.81658)" stroke-width=".75" stroke-linecap="round" stroke-linejoin="round" fill="none" stroke="#000000" d="M203.66996 .294261C203.10689-30.81163 203.55077-61.26164 203.03345-92.32418 189.32364-92.53477 174.84632-92.28212 160.63321-92.236469"/>
<path transform="matrix(1,0,0,-1,117.09091,32.81658)" stroke-width=".75" stroke-linecap="round" stroke-linejoin="round" fill="none" stroke="#000000" d="M174.04793-84.62708C170.25641-88.17811 166.06111-91.47129 161.32933-91.98823 165.6054-93.82459 170.01029-96.691539 173.53559-100.52017"/>
<path transform="matrix(1,0,0,-1,117.09091,32.81658)" stroke-width=".75" stroke-linecap="round" stroke-linejoin="round" fill="none" stroke="#000000" d="M84.87483-92.18932C57.118947-92.17591 28.57772-92.399539 .210846-92.04289-.392566-68.75656 .136564-45.780256-.279338-21.720122"/>
<path transform="matrix(1,0,0,-1,117.09091,32.81658)" stroke-width=".75" stroke-linecap="round" stroke-linejoin="round" fill="none" stroke="#000000" d="M8.419684-34.224515C4.15424-31.246953 1.137882-26.665217-.263374-21.677054-.812992-27.458998-4.207253-31.324347-7.818196-34.534276"/>
<path transform="matrix(1,0,0,-1,117.09091,32.81658)" stroke-width=".75" stroke-linecap="round" stroke-linejoin="round" fill="none" stroke="#000000" d="M101.275218-24.134968C99.800479-25.740239 100.00695-25.568814 101.21838-24.69106 115.02418-25.408904 131.09084-25.372258 145.3604-24.990872 161.58806-24.242188 160.83301-25.132975 160.0949-9.056414 160.41687-3.090015 161.3306 3.555243 161.42693 9.855377 159.9529 24.8604 161.69844 24.268948 145.76944 24.870604 131.56832 25.917489 115.08438 25.716908 100.16679 24.058814 85.311679 24.234095 86.04781 25.71559 85.10606 10.091899 85.22838 3.384779 84.8417-2.530002 85.34831-9.125253 84.81591-24.456229 85.5593-24.616175 101.275218-24.134968Z"/>
<path transform="matrix(1,0,0,-1,117.09091,32.81658)" stroke-width=".75" stroke-linecap="round" stroke-linejoin="round" fill="none" stroke="#000000" d="M99.31829-117.03226C99.47551-117.37097 100.62203-117.61485 100.575328-116.522289 114.99378-117.11709 130.06148-118.24248 146.10025-118.17828 160.06304-116.644847 160.52376-117.34658 161.74398-102.5709 160.00492-95.77498 161.32692-89.376628 160.62702-82.00623 161.05617-67.98208 160.66466-67.546039 146.17984-66.870708 130.50305-67.46012 114.978679-67.75171 100.96358-68.116909 85.201618-68.25917 84.767917-66.701068 85.43657-83.06923 86.17568-89.94723 86.02226-95.25762 85.835788-103.137699 85.765499-117.361408 85.43398-117.79717 99.31829-117.03226Z"/>
<path transform="matrix(1,0,0,-1,117.09091,32.81658)" stroke-width=".75" stroke-linecap="round" stroke-linejoin="round" fill="none" stroke="#000000" d="M20.871279 .912897C21.68357 11.73701 12.790719 21.969082-.874447 21.061635-11.816609 22.16357-22.530625 11.626751-21.612984-.751184-21.727442-11.286078-11.782631-21.322302-.711391-22.301976 11.363022-22.267594 21.82567-12.48177 20.871279 .912897Z"/>
<path transform="matrix(1,0,0,-1,117.09091,32.81658)" stroke-width=".75" stroke-linecap="round" stroke-linejoin="round" fill="none" stroke="#000000" d="M-63.920656-.11358C-50.12281 .254792-35.245889-.135847-21.948519 .330138"/>
<path transform="matrix(1,0,0,-1,117.09091,32.81658)" stroke-width=".75" stroke-linecap="round" stroke-linejoin="round" fill="none" stroke="#000000" d="M-34.275369-7.985691C-31.55761-4.120064-26.493428-.74091-21.344357-.215303-26.245852 1.128361-31.240416 4.175659-34.010496 8.033184"/>
<path transform="matrix(1,0,0,-1,117.09091,32.81658)" stroke-width=".75" stroke-linecap="round" stroke-linejoin="round" fill="none" stroke="#000000" d="M21.283146-.080323C42.4467 .25507 63.508707-.44164 84.751018-.404799"/>
<path transform="matrix(1,0,0,-1,117.09091,32.81658)" stroke-width=".75" stroke-linecap="round" stroke-linejoin="round" fill="none" stroke="#000000" d="M72.08014-8.229606C75.37005-3.563484 80.13041-1.294657 85.24982-.142419 80.161289 .8244 76.01465 4.368951 72.10898 8.271897"/>
<path transform="matrix(1,0,0,-1,117.09091,32.81658)" stroke-width=".75" stroke-linecap="round" stroke-linejoin="round" fill="none" stroke="#000000" d="M160.61727 .326351C189.07367-.340328 217.89395-.022084 246.08124 .045286"/>
<path transform="matrix(1,0,0,-1,117.09091,32.81658)" stroke-width=".75" stroke-linecap="round" stroke-linejoin="round" fill="none" stroke="#000000" d="M233.4329-8.34555C235.90515-4.444916 240.74224-1.573112 245.7847-.051157 240.62454 .856088 236.57649 3.677376 233.54816 8.368757"/>
<path transform="matrix(1,0,0,-1,117.09091,32.81658)" stroke-width=".75" stroke-linecap="round" stroke-linejoin="round" fill="none" stroke="#000000" d="M203.20172-.299988C203.51706-30.843487 203.7014-61.30602 202.93173-92.440258 188.85721-92.17044 175.33629-92.14862 161.38872-92.76785"/>
<path transform="matrix(1,0,0,-1,117.09091,32.81658)" stroke-width=".75" stroke-linecap="round" stroke-linejoin="round" fill="none" stroke="#000000" d="M173.94779-84.58873C170.79354-88.46936 165.9455-91.51494 160.9919-92.82831 166.17896-93.6637 170.1659-96.42549 173.40274-100.082889"/>
<path transform="matrix(1,0,0,-1,117.09091,32.81658)" stroke-width=".75" stroke-linecap="round" stroke-linejoin="round" fill="none" stroke="#000000" d="M85.67407-92.68813C57.082586-92.26808 28.14386-92.260219 .443807-92.54118-.086935-68.677-.284859-45.5431-.110497-22.263199"/>
<path transform="matrix(1,0,0,-1,117.09091,32.81658)" stroke-width=".75" stroke-linecap="round" stroke-linejoin="round" fill="none" stroke="#000000" d="M7.678772-34.33528C4.205757-31.494797 1.295216-26.773922-.112038-21.924986-.78975-26.80066-3.943145-31.152176-7.758785-34.518819"/>
<path transform="matrix(1,0,0,-1,117.09091,32.81658)" stroke-width=".75" stroke-linecap="round" stroke-linejoin="round" fill="none" stroke="#000000" d="M99.85448-24.43933C100.26157-24.73881 100.51397-24.950024 99.99894-24.941519 116.36574-24.606907 130.9584-25.406863 146.39472-24.31072 161.63138-24.3173 160.3992-25.621655 160.21239-10.24661 161.62284-2.459637 160.79396 3.560972 160.00995 9.022876 160.84601 24.734704 161.54364 24.658209 146.54608 24.100176 130.55806 24.076437 115.272838 24.099362 99.58489 24.334044 86.244258 25.032814 84.79784 24.340647 85.79457 10.829139 84.51119 4.031327 84.51546-3.855858 84.75755-10.300199 85.91641-24.654923 85.423458-24.755276 99.85448-24.43933Z"/>
<path transform="matrix(1,0,0,-1,117.09091,32.81658)" stroke-width=".75" stroke-linecap="round" stroke-linejoin="round" fill="none" stroke="#000000" d="M100.2734-117.00714C100.59086-118.07797 100.53814-116.48015 100.570018-118.19903 115.931728-116.57997 130.258-117.382678 146.54512-117.78668 160.06327-117.82081 160.1133-117.57498 161.78443-102.26559 161.83193-96.389789 160.2112-88.31892 160.41217-83.02203 161.2027-67.90926 160.22409-66.78655 145.67595-67.69691 131.06867-66.952037 116.08699-67.30146 99.27607-68.00981 84.64781-66.95643 85.18678-68.21872 84.37505-82.01904 84.9966-89.454578 86.105548-96.56484 85.92046-103.00339 85.56377-117.30043 84.48014-117.815898 100.2734-117.00714Z"/>
<path transform="matrix(1,0,0,-1,117.09091,32.81658)" stroke-width=".75" stroke-linecap="round" stroke-linejoin="round" fill="none" stroke="#000000" d="M21.458304-.360321C21.469502 12.557332 12.340455 21.987816 .833154 21.842095-11.171419 21.64246-22.340157 12.562769-22.228034 .316314-20.751944-11.428322-11.643044-21.683108 .516913-21.157752 12.318012-21.978343 21.877734-11.894587 21.458304-.360321Z"/>
<path transform="matrix(1,0,0,-1,117.09091,32.81658)" stroke-width=".75" stroke-linecap="round" stroke-linejoin="round" fill="none" stroke="#000000" d="M-63.422666 .047287C-50.07544-.012526-35.269609 .052862-21.7876 .240549"/>
<path transform="matrix(1,0,0,-1,117.09091,32.81658)" stroke-width=".75" stroke-linecap="round" stroke-linejoin="round" fill="none" stroke="#000000" d="M-34.04892-8.339383C-31.55353-3.612736-26.278618-.812138-22.032914 .17844-26.72282 .922818-30.94206 3.783043-34.629449 8.411746"/>
<path transform="matrix(1,0,0,-1,117.09091,32.81658)" stroke-width=".75" stroke-linecap="round" stroke-linejoin="round" fill="none" stroke="#000000" d="M21.930783-.244583C42.820985 .13975 64.07419-.375233 84.77389-.194935"/>
<path transform="matrix(1,0,0,-1,117.09091,32.81658)" stroke-width=".75" stroke-linecap="round" stroke-linejoin="round" fill="none" stroke="#000000" d="M72.65408-8.470067C75.85859-4.032257 80.002429-.905831 85.47695-.412584 80.30358 1.592253 75.38326 3.755433 72.77793 7.992701"/>
<path transform="matrix(1,0,0,-1,117.09091,32.81658)" stroke-width=".75" stroke-linecap="round" stroke-linejoin="round" fill="none" stroke="#000000" d="M160.59116-.129689C189.50008-.369047 217.26953 .058715 245.99478-.102503"/>
<path transform="matrix(1,0,0,-1,117.09091,32.81658)" stroke-width=".75" stroke-linecap="round" stroke-linejoin="round" fill="none" stroke="#000000" d="M233.46575-7.7352C236.48902-3.757951 241.24892-.847503 245.40955 .045461 240.43312 1.303731 236.15847 3.979625 232.88191 8.007265"/>
<path transform="matrix(1,0,0,-1,117.09091,32.81658)" stroke-width=".75" stroke-linecap="round" stroke-linejoin="round" fill="none" stroke="#000000" d="M203.60106 .049592C203.57279-30.897482 203.40381-61.611284 203.08097-92.40957 188.94876-92.104358 175.44225-92.563678 160.7869-92.85309"/>
<path transform="matrix(1,0,0,-1,117.09091,32.81658)" stroke-width=".75" stroke-linecap="round" stroke-linejoin="round" fill="none" stroke="#000000" d="M173.36112-84.05949C170.41997-88.61638 165.9925-91.48721 161.40927-92.56312 166.128-93.35404 170.33086-96.73554 173.95682-100.03809"/>
<path transform="matrix(1,0,0,-1,117.09091,32.81658)" stroke-width=".75" stroke-linecap="round" stroke-linejoin="round" fill="none" stroke="#000000" d="M84.92774-92.396709C57.02441-92.447879 28.584652-92.38148 .275155-92.42887 .066564-69.005168-.41076-45.61406 .368801-22.020504"/>
<path transform="matrix(1,0,0,-1,117.09091,32.81658)" stroke-width=".75" stroke-linecap="round" stroke-linejoin="round" fill="none" stroke="#000000" d="M8.435947-34.67536C3.818185-31.136685 .911404-27.381897-.205728-22.334086-.924451-27.44083-3.844469-31.463685-7.740722-34.477964"/>
<use data-text="+" xlink:href="#font_3_7" transform="matrix(21.519354,0,0,-21.519316,79.041629,25.073777)"/>
<use data-text="&#x2212;" xlink:href="#font_3_9" transform="matrix(21.519371,0,0,-21.519288,123.24082,63.42598)"/>
<use data-text="R" xlink:href="#font_3_5" transform="matrix(21.5195,0,0,-21.519398,6.814293,38.197877)"/>
<use data-text="(" xlink:href="#font_3_2" transform="matrix(21.5195,0,0,-21.519398,19.91967,38.197877)"/>
<use data-text="s" xlink:href="#font_3_3" transform="matrix(21.5195,0,0,-21.519398,29.464859,38.197877)"/>
<use data-text=")" xlink:href="#font_3_4" transform="matrix(21.5195,0,0,-21.519398,40.451856,38.197877)"/>
<use data-text="Y" xlink:href="#font_3_6" transform="matrix(21.519246,0,0,-21.519398,367.41108,38.197877)"/>
<use data-text="(" xlink:href="#font_3_2" transform="matrix(21.519246,0,0,-21.519398,380.5597,38.197877)"/>
<use data-text="s" xlink:href="#font_3_3" transform="matrix(21.519246,0,0,-21.519398,390.1048,38.197877)"/>
<use data-text=")" xlink:href="#font_3_4" transform="matrix(21.519246,0,0,-21.519398,401.09169,38.197877)"/>
</svg>
