<svg xmlns="http://www.w3.org/2000/svg" xmlns:xlink="http://www.w3.org/1999/xlink" version="1.1" width="698.50247" height="191.67981" viewBox="0 0 698.50247 191.67981">
<defs>
<path id="font_9_8" d="M.08999634 .32458497C.08999634 .22958374 .114990238 .13148499 .18299866 .06341553 .23699951 .009384155 .31199647-.016601563 .3880005-.016601563 .46099855-.016601563 .56900027 .010391235 .6569977 .03338623 .6569977 .03338623 .6539917 .216568 .6519928 .30760194L.37599183 .2966156V.27061463L.38198854 .265625C.43598939 .26361085 .5 .25961305 .5439911 .25660707 .57199099 .25460816 .57199099 .22257996 .57199099 .13449097 .57199099 .061416627 .56900027 .04940796 .5519867 .045394899 .5209961 .038391115 .48999024 .03538513 .45799256 .03538513 .37998963 .03538513 .30599977 .060409547 .2619934 .112472537 .20399475 .18052674 .17999268 .25260926 .17999268 .3405609 .17999268 .48339845 .23199463 .5653076 .26098634 .5942688 .3039856 .63623049 .36299134 .6502075 .42199708 .6502075 .5529938 .6502075 .59298709 .5563202 .60598757 .53034976L.6179962 .5293579 .6759949 .58628848C.6649933 .6032715 .6119995 .69921877 .46699525 .69921877 .3619995 .69921877 .25698854 .6682129 .18199158 .593277 .11199951 .5233612 .08999634 .4224701 .08999634 .32458497Z"/>
<path id="font_9_17" d="M.1349945 .6123047H.22898865C.25698854 .6123047 .27999879 .59129336 .2809906 .5662842 .28199769 .541275 .28199769 .46824647 .28199769 .41923524 .28199769 .27919007 .27799989 .13916016 .272995 .00010681152L.28599549-.0048828127 .3809967 .022125245C.37799073 .09814453 .37799073 .2962036 .37799073 .43223573 .37799073 .52127078 .37998963 .6112976 .38598634 .7003021L.3789978 .71229556 .1349945 .6392975V.6123047Z"/>
<path id="font_9_2" d="M.11299133 .24990845C.11299133 .007904053 .1519928-.09008789 .18299866-.13310242 .21099854-.17008972 .25299073-.20809937 .30099488-.21209717V-.1880951C.2809906-.18409729 .25099183-.16809082 .23399353-.1481018 .21998596-.13209534 .16499329-.05809021 .16499329 .24990845 .16499329 .4618988 .19799805 .5659027 .21998596 .6128998 .23599243 .6469116 .2689972 .6769104 .30099488 .684906V.71191409C.2599945 .7049103 .21598816 .6729126 .19099427 .63790896 .1599884 .5919037 .11299133 .4748993 .11299133 .24990845Z"/>
<path id="font_9_3" d="M.051986696 .06642151C.06199646 .047409059 .07598877 .030395508 .09199524 .01638794 .12098694-.009613037 .16099549-.016601563 .19898987-.016601563 .2559967-.016601563 .31199647 .0023956299 .35099793 .044403078 .375 .06941223 .3869934 .10343933 .3869934 .13845825 .3869934 .1634674 .37298585 .18649292 .35499574 .20449829 .34098817 .21850586 .3039856 .24052429 .27198792 .25453187 .24299622 .26654054 .19999695 .2885437 .18798828 .30055238 .17298889 .31655885 .1619873 .3285675 .1619873 .35058595 .1619873 .3725891 .16899109 .39360047 .18499756 .4086151 .19999695 .42362977 .22200012 .43164063 .24398804 .43164063 .2639923 .43164063 .2849884 .42462159 .29599 .4066162 .30599977 .39060975 .30799867 .3715973 .30899049 .35359193L.32099916 .34657289 .37599183 .38360597C.375 .40560914 .3639984 .42662049 .34799195 .44163514 .32499696 .46263124 .29299928 .46662904 .2630005 .46662904 .21398926 .46662904 .16699219 .45063783 .1309967 .4176178 .10398865 .39360047 .08999634 .35858155 .08999634 .32356263 .08999634 .29154969 .10798645 .26353456 .1309967 .2425232 .1539917 .22250366 .18399048 .2084961 .21499634 .1954956 .24099732 .18447876 .2689972 .17248535 .28799439 .1534729 .30299378 .13845825 .31399537 .11845398 .31399537 .09744263 .31399537 .079422 .30499269 .062408449 .29299928 .04940796 .27799989 .03340149 .25099183 .021392823 .22898865 .021392823 .19898987 .021392823 .17199707 .03439331 .1499939 .055404664 .1269989 .076416019 .116989139 .10644531 .114990238 .13645935L.100997928 .13745117 .051986696 .06642151Z"/>
<path id="font_9_4" d="M.085998538-.1880951V-.21209717C.13398743-.20610047 .1789856-.17208863 .20698548-.13510132 .23799134-.09210205 .27598573 .007904053 .27598573 .24990845 .27598573 .50090029 .22399903 .5919037 .19299317 .63790896 .16799927 .6729126 .1269989 .7049103 .085998538 .71191409V.684906C.117996219 .6759033 .14898682 .6469116 .16499329 .6128998 .18699646 .5659027 .22399903 .48190309 .22399903 .24990845 .22399903-.099090579 .17199707-.13209534 .1579895-.1481018 .14099121-.16809082 .10598755-.18409729 .085998538-.1880951Z"/>
<path id="font_9_18" d="M.04499817 .001953125H.5379944L.56399539 .079940799 .5589905 .08795166H.20999146C.20399475 .08795166 .19799805 .08894348 .19599915 .092941287 .19499207 .094940189 .19599915 .09794617 .19699097 .09895325 .2539978 .1569519 .30799867 .21495056 .35899354 .27496339 .394989 .31697084 .42999269 .358963 .45799256 .40496827 .48799134 .4509735 .5119934 .49998475 .5119934 .5529938 .5119934 .59399417 .49899293 .6349945 .46499635 .66400149 .43199159 .69299319 .3880005 .7080078 .34199525 .7080078 .29899598 .7080078 .2579956 .6970062 .22099304 .67900088 .17599488 .65800479 .13699341 .6279907 .102996829 .59498599L.125 .57598879C.1519928 .59599307 .17799378 .61099246 .20999146 .6259918 .23098755 .6360016 .2559967 .6399994 .2809906 .6399994 .31399537 .6399994 .34700013 .6289978 .37098695 .6069946 .40098573 .5779877 .4079895 .5369873 .4079895 .50798037 .4079895 .4429779 .38198854 .38197328 .34298707 .3259735 .31098939 .27996827 .27198792 .23796082 .23199463 .19696045 .17199707 .13494873 .10899353 .07594299 .04499817 .017944336V.001953125Z"/>
<path id="font_9_9" d="M.04598999 .23046875H.70399478L.70999148 .27046205H.052993776L.04598999 .23046875Z"/>
<path id="font_9_6" d="M.022994996 .6513672C.036987306 .649353 .049987794 .6463623 .06298828 .6433563 .07199097 .6413574 .07998657 .6353607 .085998538 .62835696 .09599304 .61834719 .102996829 .60635378 .10899353 .5943451L.2579956 .29930116C.2579956 .19927979 .2579956 .0982666 .25498963-.0017547608L.2659912-.0107421879 .35598756 .018249512 .34700013 .30630494C.42999269 .4343109 .5039978 .5303345 .61499026 .675354L.61099246 .6933594 .526001 .6763611C.48999024 .619339 .4059906 .47431947 .397995 .46032716 .3849945 .4373169 .34199525 .36730958 .33898927 .3623047 .33599855 .3572998 .33198548 .353302 .32798768 .353302 .32199098 .353302 .31698609 .3592987 .31599427 .36131288L.1749878 .6863556H.02999878L.022994996 .67936709V.6513672Z"/>
<path id="font_9_20" d="M.08898926 .6591797C.10998535 .6531677 .1329956 .64816287 .1539917 .6411743 .1639862 .63716128 .17199707 .6301575 .17298889 .62016299 .1749878 .6051636 .17599488 .5891571 .17599488 .57315066V.07904053C.17399597 .041030885 .17399597 .027038575 .15098572 .012023926V.002029419H.4119873C.47999574 .002029419 .5469971 .0070343019 .6119995 .024032593 .6619873 .03703308 .71798709 .057037355 .7529907 .091049198 .83999636 .174057 .86499026 .25808717 .86499026 .38511659 .86499026 .43011476 .8600006 .47512818 .84599307 .5171356 .83399966 .55114749 .81700137 .5831604 .78900149 .6081543 .7539978 .63916018 .70700076 .6551666 .6579895 .6661682 .58999636 .680542 .519989 .6855469 .44999696 .6855469L.09700012 .6861725 .08898926 .6781769V.6591797M.2709961 .1700592V.57514956C.2709961 .6061554 .27198792 .62615969 .27398683 .62916567 .2769928 .63516238 .27999879 .63816836 .28599549 .6411743 .29299928 .6435394 .31298829 .6445465 .3600006 .6445465 .4149933 .6445465 .5369873 .6415405 .57499697 .634552 .621994 .6255493 .651001 .6125641 .6759949 .5905762 .73999026 .5346222 .7589874 .43771363 .7589874 .37675477 .7589874 .2828369 .7350006 .184906 .6579895 .11697388 .6269989 .08898926 .58599856 .072006229 .5439911 .060012819 .4909973 .045028688 .43598939 .040039064 .37998963 .040039064 .34999085 .040039064 .30599977 .040039064 .29100038 .053024293 .27398683 .06800842 .27198792 .1299591 .2709961 .16992188V.1700592Z"/>
<path id="font_9_7" d="M.04598999 .23632813H.35598756V-.07368469L.3959961-.06668091V.23632813H.70399478L.70899966 .2763214H.3959961V.58631899L.35598756 .58032229V.2763214H.052993776L.04598999 .23632813Z"/>
<path id="font_9_19" d="M.050994874 .6591797C.069992069 .6531677 .08999634 .64816287 .10899353 .6411743 .117996219 .63716128 .125 .6301575 .12599182 .62016299 .1269989 .6051636 .12799073 .5891571 .12799073 .57315066V.07904053C.1269989 .041030885 .12599182 .027038575 .10598755 .012023926V.002029419H.33699037C.39698792 .002029419 .45700074 .0070343019 .5139923 .024032593 .55799868 .03703308 .60798647 .057037355 .6389923 .091049198 .71598818 .174057 .73799136 .25808717 .73799136 .38511659 .73799136 .43011476 .73399356 .47512818 .72099307 .5171356 .71099856 .55114749 .69599917 .5831604 .67099 .6081543 .6399994 .63916018 .59799197 .6551666 .5549927 .6661682 .49499513 .680542 .43299867 .6855469 .37098695 .6855469L.057998659 .6861725 .050994874 .6781769V.6591797M.21199036 .1700592V.57514956C.21199036 .6061554 .21299744 .62615969 .21499634 .62916567 .21798706 .63516238 .21998596 .63816836 .22599793 .6411743 .23199463 .6435394 .24899292 .6445465 .2919922 .6445465 .33898927 .6445465 .44799806 .6415405 .48098756 .634552 .522995 .6255493 .548996 .6125641 .57099917 .5905762 .6269989 .5346222 .6439972 .43771363 .6439972 .37675477 .6439972 .2828369 .6230011 .184906 .5549927 .11697388 .5269928 .08898926 .4909973 .072006229 .45399476 .060012819 .40699769 .045028688 .35798646 .040039064 .30899049 .040039064 .28199769 .040039064 .24299622 .040039064 .22999573 .053024293 .21499634 .06800842 .21299744 .1299591 .21199036 .16992188V.1700592Z"/>
</defs>
<use data-text="G" xlink:href="#font_9_8" transform="matrix(21.519362,0,0,-21.519398,217.9061,122.01193)"/>
<use data-text="1" xlink:href="#font_9_17" transform="matrix(16.438399,0,0,-16.438426,234.37332,126.312908)"/>
<use data-text="(" xlink:href="#font_9_2" transform="matrix(21.519362,0,0,-21.519398,244.61594,122.01193)"/>
<use data-text="s" xlink:href="#font_9_3" transform="matrix(21.519362,0,0,-21.519398,254.16107,122.01193)"/>
<use data-text=")" xlink:href="#font_9_4" transform="matrix(21.519362,0,0,-21.519398,265.148,122.01193)"/>
<use data-text="G" xlink:href="#font_9_8" transform="matrix(21.519362,0,0,-21.519398,474.35786,122.01193)"/>
<use data-text="2" xlink:href="#font_9_18" transform="matrix(16.438399,0,0,-16.438426,490.82508,126.24715)"/>
<use data-text="(" xlink:href="#font_9_2" transform="matrix(21.519362,0,0,-21.519398,501.0677,122.01193)"/>
<use data-text="s" xlink:href="#font_9_3" transform="matrix(21.519362,0,0,-21.519398,510.6128,122.01193)"/>
<use data-text=")" xlink:href="#font_9_4" transform="matrix(21.519362,0,0,-21.519398,521.59976,122.01193)"/>
<path transform="matrix(1,0,0,-1,117.47943,116.630649)" stroke-width=".75" stroke-linecap="round" stroke-linejoin="round" fill="none" stroke="#000000" d="M99.728809-24.150809C100.79435-24.488326 101.07709-25.425299 99.916309-24.929793 118.542919-25.587012 137.10292-24.140444 156.70282-25.513112 171.3265-24.572978 170.11812-25.745493 171.67118-10.668713 171.68315-4.279037 170.36302 3.234392 170.83542 10.434101 171.90862 25.720637 171.63355 24.43378 155.3852 24.209454 136.79848 25.861706 118.079578 24.476475 100.31407 25.048335 85.478618 24.497754 86.064067 24.243338 85.22452 9.9901 86.29459 3.903307 84.68367-3.389824 86.31359-9.754363 85.72337-25.141694 85.18283-25.043015 99.728809-24.150809Z"/>
<path transform="matrix(1,0,0,-1,117.47943,116.630649)" stroke-width=".75" stroke-linecap="round" stroke-linejoin="round" fill="none" stroke="#000000" d="M357.68098-24.873986C357.46116-24.785956 356.60975-25.241683 357.81898-24.975737 376.02769-24.861449 394.7691-25.589528 412.87495-25.47862 427.1266-24.376215 427.67765-24.224083 427.36463-10.753276 427.87208-4.007609 426.5734 3.951255 427.37858 10.454333 426.5343 24.192818 426.6972 25.68213 412.00517 24.635867 394.5439 25.795666 376.08497 24.152312 357.12983 24.878958 341.33064 25.543032 342.36833 25.04067 341.79307 10.121724 342.52046 4.1193 342.28709-2.879084 342.74699-10.590358 342.7094-24.589972 341.41075-25.82694 357.68098-24.873986Z"/>
<path transform="matrix(1,0,0,-1,117.47943,116.630649)" stroke-width=".75" stroke-linecap="round" stroke-linejoin="round" fill="none" stroke="#000000" d="M427.0487 .147097C455.4805-.31965 484.61573-.121898 512.56326 .133221"/>
<path transform="matrix(1,0,0,-1,117.47943,116.630649)" stroke-width=".75" stroke-linecap="round" stroke-linejoin="round" fill="none" stroke="#000000" d="M499.74919-7.758497C503.27696-3.776822 507.32279-1.343876 512.7653 .232978 507.7293 1.239296 503.08445 3.72505 500.20796 8.114568"/>
<path transform="matrix(1,0,0,-1,117.47943,116.630649)" stroke-width=".75" stroke-linecap="round" stroke-linejoin="round" fill="none" stroke="#000000" d="M100.61259-25.017292C101.15182-24.6861 101.2218-25.628102 100.57521-24.720709 118.187618-24.514964 136.63373-25.398833 155.18167-25.780114 171.94817-24.076863 171.02777-24.257578 171.75193-9.894048 171.30084-3.982766 171.39165 4.250514 171.87863 10.610962 171.02352 24.161316 170.82807 24.675108 156.69 25.74647 137.51126 25.542164 118.584987 25.436282 101.16842 25.450312 84.56584 24.696175 86.112918 25.636755 85.18102 10.377523 86.128398 3.060534 85.7439-4.194224 84.67222-10.226158 85.98565-25.621754 84.48551-24.208813 100.61259-25.017292Z"/>
<path transform="matrix(1,0,0,-1,117.47943,116.630649)" stroke-width=".75" stroke-linecap="round" stroke-linejoin="round" fill="none" stroke="#000000" d="M357.66725-25.662968C356.65644-25.069333 357.42375-25.791697 356.7574-24.87991 375.83454-25.299607 392.9929-24.572373 411.6479-24.440228 427.30778-24.764298 427.9991-25.88246 427.5478-10.018486 427.57615-3.692419 427.44703 4.046222 427.56764 9.29971 428.32835 24.788332 427.92207 25.060078 412.4036 25.166007 394.19233 25.001404 374.60588 24.194027 357.2245 24.103856 341.49995 25.253817 342.60484 25.43241 341.207 10.912655 341.8036 3.396462 341.7855-3.703945 341.5413-9.593509 341.99369-25.315648 341.00856-24.470067 357.66725-25.662968Z"/>
<path transform="matrix(1,0,0,-1,117.47943,116.630649)" stroke-width=".75" stroke-linecap="round" stroke-linejoin="round" fill="none" stroke="#000000" d="M427.758 .330612C456.1747 .093193 483.80613-.232862 512.8283 .394415"/>
<path transform="matrix(1,0,0,-1,117.47943,116.630649)" stroke-width=".75" stroke-linecap="round" stroke-linejoin="round" fill="none" stroke="#000000" d="M500.14735-7.760677C503.26438-3.637092 507.94349-1.227208 512.29647-.413918 507.8294 1.474324 502.6447 4.180279 499.46107 7.620191"/>
<path transform="matrix(1,0,0,-1,117.47943,116.630649)" stroke-width=".75" stroke-linecap="round" stroke-linejoin="round" fill="none" stroke="#000000" d="M100.39581-25.212279C100.94533-24.183386 101.37097-25.892767 100.43383-25.25212 118.17775-25.15183 138.03424-25.537507 156.55084-25.14868 171.66916-25.640135 171.53052-25.663329 171.71527-10.099764 170.79967-3.860061 170.9389 4.174788 170.31882 10.898392 170.3384 25.5652 171.32653 25.453795 155.30959 25.641852 137.42565 24.97991 118.751949 25.30742 99.47722 23.999339 85.43441 24.552399 85.07779 24.02756 85.02065 10.366315 84.51153 2.562557 85.40452-3.154982 86.31299-9.60209 84.69999-25.453869 85.53476-25.438563 100.39581-25.212279Z"/>
<path transform="matrix(1,0,0,-1,117.47943,116.630649)" stroke-width=".75" stroke-linecap="round" stroke-linejoin="round" fill="none" stroke="#000000" d="M357.0847-25.82591C357.33998-25.587058 356.03034-24.391058 356.34239-24.430052 375.172-25.406529 394.823-25.302382 412.1042-25.533967 427.8838-24.635397 427.97236-23.990803 427.6375-9.14691 426.85267-3.943772 427.3458 3.962828 426.9941 10.802275 428.35145 25.235146 427.13175 25.333382 413.41636 25.53408 394.59638 25.532557 375.3485 25.50843 357.5685 24.049769 341.1221 24.269774 341.70878 24.014479 340.93986 10.378981 341.46855 2.795115 341.03785-3.564958 341.0198-10.209532 341.3708-24.727204 341.81758-25.715558 357.0847-25.82591Z"/>
<path transform="matrix(1,0,0,-1,117.47943,116.630649)" stroke-width=".75" stroke-linecap="round" stroke-linejoin="round" fill="none" stroke="#000000" d="M427.36616 .435813C456.10169-.385934 483.80656 .146758 512.5633 .142233"/>
<path transform="matrix(1,0,0,-1,117.47943,116.630649)" stroke-width=".75" stroke-linecap="round" stroke-linejoin="round" fill="none" stroke="#000000" d="M500.2024-8.037791C502.84944-4.048434 507.76823-1.026522 512.7421 .44228 507.28886 1.170311 503.46607 3.753969 499.47203 8.146487"/>
<path transform="matrix(1,0,0,-1,117.47943,116.630649)" stroke-width=".75" stroke-linecap="round" stroke-linejoin="round" fill="none" stroke="#000000" d="M101.28795-24.24008C100.749988-25.126265 99.46384-24.585793 100.65297-25.042794 118.345638-24.089785 137.73268-25.192612 155.53914-25.543906 171.53363-25.091965 170.37406-24.89685 170.50339-10.242667 171.27051-4.280214 171.43105 2.465618 171.16985 10.749274 171.09734 25.184075 170.6249 25.575249 156.50954 25.41353 136.66648 24.95742 119.23587 25.049426 100.92143 24.544472 85.494709 25.098185 85.500789 25.60526 85.620578 9.135854 85.70647 3.589311 85.26359-3.56006 85.88921-10.871617 85.83221-25.347983 85.02283-25.510886 101.28795-24.24008Z"/>
<path transform="matrix(1,0,0,-1,117.47943,116.630649)" stroke-width=".75" stroke-linecap="round" stroke-linejoin="round" fill="none" stroke="#000000" d="M356.1736-24.731013C356.38505-24.156605 356.24229-24.605652 356.08766-24.23951 375.94169-24.121939 394.00764-24.929654 412.51026-25.738862 426.81263-25.000464 427.27473-24.604006 427.03935-10.804954 426.80259-3.493581 428.048 2.868446 428.3823 9.387538 427.52046 24.68416 427.99903 24.385848 412.9891 24.259934 394.2204 24.530194 376.32176 24.521586 356.98066 24.894957 341.24983 25.436932 341.28279 25.211222 342.11143 10.908701 341.18809 2.583866 341.67283-2.514259 341.19956-9.694374 342.5917-25.064028 341.47819-25.895716 356.1736-24.731013Z"/>
<path transform="matrix(1,0,0,-1,117.47943,116.630649)" stroke-width=".75" stroke-linecap="round" stroke-linejoin="round" fill="none" stroke="#000000" d="M427.74397 .08548C455.48954 .126081 483.8628 .288247 512.69998 .202187"/>
<path transform="matrix(1,0,0,-1,117.47943,116.630649)" stroke-width=".75" stroke-linecap="round" stroke-linejoin="round" fill="none" stroke="#000000" d="M500.3181-7.68768C502.64604-4.175941 507.53117-1.359676 512.6213 .254686 507.78599 1.306586 502.6889 4.089799 499.7744 8.052462"/>
<path transform="matrix(1,0,0,-1,117.47943,116.630649)" stroke-width=".75" stroke-linecap="round" stroke-linejoin="round" fill="none" stroke="#000000" d="M100.3207-24.655709C100.32882-25.29217 100.974887-24.332669 100.14659-25.86573 118.2689-25.184899 138.30474-25.293557 155.37087-25.662428 171.59697-25.83138 171.2915-24.18216 170.34255-10.767458 170.18102-3.202781 171.34613 2.72184 170.52884 10.527924 171.10488 24.046137 170.92667 24.21429 156.42163 25.753275 138.12744 24.392912 118.42376 25.727606 100.38653 24.686345 84.58266 24.642727 85.98217 24.138436 84.93891 10.167312 84.89021 3.484144 86.15942-3.867238 84.97884-9.117092 85.92185-24.118853 86.233348-24.179198 100.3207-24.655709Z"/>
<path transform="matrix(1,0,0,-1,117.47943,116.630649)" stroke-width=".75" stroke-linecap="round" stroke-linejoin="round" fill="none" stroke="#000000" d="M356.00416-25.799504C357.33226-25.22758 356.04313-24.002118 356.66328-25.04941 376.09806-24.271704 393.99159-24.730711 411.9346-24.696566 427.9597-24.198794 427.3433-25.493859 426.5956-9.295214 426.55628-3.166662 426.77973 3.874626 426.9275 10.841733 428.20634 24.064812 427.39317 25.273377 413.27684 24.385144 393.7341 23.991183 374.67387 24.460349 356.9888 24.166277 342.6816 25.289742 342.8183 24.828827 341.36628 9.780815 342.0515 3.625129 341.7606-2.512384 342.56098-10.08769 342.64476-25.814719 342.37443-25.514643 356.00416-25.799504Z"/>
<path transform="matrix(1,0,0,-1,117.47943,116.630649)" stroke-width=".75" stroke-linecap="round" stroke-linejoin="round" fill="none" stroke="#000000" d="M427.4646-.036631C455.6307-.00155 484.1052-.309084 512.4333 .18719"/>
<path transform="matrix(1,0,0,-1,117.47943,116.630649)" stroke-width=".75" stroke-linecap="round" stroke-linejoin="round" fill="none" stroke="#000000" d="M499.84584-7.945426C503.42408-3.606392 507.7582-1.319465 512.826-.054672 507.83876 1.585912 503.3942 3.954977 500.18849 7.904601"/>
<use data-text="&#x2212;" xlink:href="#font_9_9" transform="matrix(21.519371,0,0,-21.519288,109.34281,119.536579)"/>
<path transform="matrix(1,0,0,-1,117.47943,116.630649)" stroke-width=".75" stroke-linecap="round" stroke-linejoin="round" fill="none" stroke="#000000" d="M-8.413534-17.82224C-8.296971-18.252223-7.591556-17.351717-8.545928-17.123217-3.084784-18.258664 3.289873-18.185074 7.640932-17.71792 22.852858-18.526093 23.93719-18.232857 23.142584-3.375207 22.30787-.725932 23.237174 .01815 23.088942 3.270507 22.406306 17.957522 23.166485 18.646182 8.718252 17.557953 2.263676 17.163628-3.358871 17.735186-7.22103 17.57752-22.636967 17.088419-22.305006 18.768866-22.682404 3.721068-23.311945 1.142521-22.33198-1.427614-23.694836-2.361353-23.165513-17.815318-23.142956-17.273972-8.413534-17.82224Z"/>
<path transform="matrix(1,0,0,-1,117.47943,116.630649)" stroke-width=".75" stroke-linecap="round" stroke-linejoin="round" fill="none" stroke="#000000" d="M469.59263 .046385C469.68965-22.174494 469.5512-45.365354 470.17045-67.221889 356.02177-67.275928 242.06258-67.286 127.81827-67.30846 85.49655-67.38476 42.452077-67.05071 .426974-67.42089 .346735-50.9544-.160799-34.380174 .300085-18.23725"/>
<path transform="matrix(1,0,0,-1,117.47943,116.630649)" stroke-width=".75" stroke-linecap="round" stroke-linejoin="round" fill="none" stroke="#000000" d="M8.477828-30.585539C3.869346-28.078499 1.083223-22.880625 .107619-17.854046-.717164-23.598523-3.828693-28.140412-7.62227-30.94556"/>
<path transform="matrix(1,0,0,-1,117.47943,116.630649)" stroke-width=".75" stroke-linecap="round" stroke-linejoin="round" fill="none" stroke="#000000" d="M22.809027-.044171C43.91325 .188182 64.37836-.173476 85.1119 .338054"/>
<path transform="matrix(1,0,0,-1,117.47943,116.630649)" stroke-width=".75" stroke-linecap="round" stroke-linejoin="round" fill="none" stroke="#000000" d="M72.03799-8.029144C75.81167-4.062732 79.625888-1.369485 84.80721-.438478 80.25434 .989276 75.24347 3.83631 72.707439 8.362577"/>
<path transform="matrix(1,0,0,-1,117.47943,116.630649)" stroke-width=".75" stroke-linecap="round" stroke-linejoin="round" fill="none" stroke="#000000" d="M-8.549873-17.209332C-8.30094-16.966317-8.040989-18.065249-8.278721-17.61102-2.194909-18.383677 2.283589-17.990414 7.38197-17.976946 22.576916-17.030417 24.02023-17.435637 23.126654-3.314194 23.461657-1.374592 22.572096 1.378565 24.084124 3.439186 22.260914 18.15528 22.208226 17.175469 9.026103 18.858546 2.755646 18.09183-3.150915 17.197846-8.84825 18.208432-22.73129 18.395627-22.447127 17.141766-22.517325 3.401292-23.243729 .955336-22.27376-.475422-23.36357-3.765068-22.925259-17.226527-22.55309-17.93594-8.549873-17.209332Z"/>
<path transform="matrix(1,0,0,-1,117.47943,116.630649)" stroke-width=".75" stroke-linecap="round" stroke-linejoin="round" fill="none" stroke="#000000" d="M470.12733 .040482C469.75987-22.33347 469.6042-44.7807 470.35884-67.80014 356.3552-67.296749 242.31761-67.01693 128.08759-67.58384 85.21044-67.10095 42.623544-67.71147-.267572-67.17154 .361095-50.811029 .284321-34.49928 .047443-17.944457"/>
<path transform="matrix(1,0,0,-1,117.47943,116.630649)" stroke-width=".75" stroke-linecap="round" stroke-linejoin="round" fill="none" stroke="#000000" d="M8.247126-30.621146C4.01015-27.359475 1.538377-23.408022 .166906-17.975319-.893109-23.127928-3.703511-27.654744-8.280016-31.088217"/>
<path transform="matrix(1,0,0,-1,117.47943,116.630649)" stroke-width=".75" stroke-linecap="round" stroke-linejoin="round" fill="none" stroke="#000000" d="M23.103032 .098473C43.589715-.400185 64.80332 .294619 84.93337-.11229"/>
<path transform="matrix(1,0,0,-1,117.47943,116.630649)" stroke-width=".75" stroke-linecap="round" stroke-linejoin="round" fill="none" stroke="#000000" d="M72.54721-7.66902C75.13015-4.432251 80.36083-1.570228 84.77958-.366199 79.98306 1.08559 75.251308 3.800857 72.810779 7.620459"/>
<path transform="matrix(1,0,0,-1,117.47943,116.630649)" stroke-width=".75" stroke-linecap="round" stroke-linejoin="round" fill="none" stroke="#000000" d="M-7.506198-18.057055C-9.067777-17.76703-8.553077-18.322478-8.678773-16.981715-2.4387-17.59415 3.445831-17.75744 7.248567-17.373318 23.400294-18.799983 22.676032-18.325922 22.16433-2.984204 22.380219-.063361 22.99509 .617581 23.01166 2.975092 23.154494 18.234309 23.242825 18.499659 8.889693 18.561837 3.533062 17.806807-2.150296 18.479092-8.398144 18.132615-22.953927 17.4081-22.755915 18.170174-22.77536 3.880302-22.64674 .760641-22.429633-1.284253-23.523634-2.185372-23.713746-17.161883-23.881854-17.352532-7.506198-18.057055Z"/>
<path transform="matrix(1,0,0,-1,117.47943,116.630649)" stroke-width=".75" stroke-linecap="round" stroke-linejoin="round" fill="none" stroke="#000000" d="M470.01869 .133555C470.18934-22.391812 470.03929-44.852075 469.8323-67.54328 355.75535-67.05871 241.85103-67.73789 128.16777-67.72131 85.05782-67.30329 42.368524-67.03387-.366337-67.68272 .385705-51.407197-.291551-34.484399 .376818-18.505307"/>
<path transform="matrix(1,0,0,-1,117.47943,116.630649)" stroke-width=".75" stroke-linecap="round" stroke-linejoin="round" fill="none" stroke="#000000" d="M7.944481-30.504975C3.768924-27.543885 .923523-23.254532-.000807-18.479647-.803001-23.223198-3.617468-28.190188-7.90677-30.876597"/>
<path transform="matrix(1,0,0,-1,117.47943,116.630649)" stroke-width=".75" stroke-linecap="round" stroke-linejoin="round" fill="none" stroke="#000000" d="M22.945948-.440769C44.007616 .143977 64.83711 .190185 85.06675-.251662"/>
<path transform="matrix(1,0,0,-1,117.47943,116.630649)" stroke-width=".75" stroke-linecap="round" stroke-linejoin="round" fill="none" stroke="#000000" d="M72.06078-8.043627C75.536289-4.049622 79.81912-1.074719 85.233898-.221496 80.34482 1.429195 75.12868 3.770044 72.24666 7.797877"/>
<path transform="matrix(1,0,0,-1,117.47943,116.630649)" stroke-width=".75" stroke-linecap="round" stroke-linejoin="round" fill="none" stroke="#000000" d="M-8.762512-18.734709C-7.715152-18.748318-7.505865-17.012423-8.337268-18.163626-2.898833-17.04257 3.640339-18.829073 8.322948-17.461163 22.559828-18.022057 23.873276-18.294493 22.403388-3.502456 23.969689-1.794067 23.281865 .081093 22.986014 2.104154 22.192566 17.497952 22.265269 17.418292 8.040163 18.642479 2.281718 18.69202-1.809476 17.006859-7.589376 18.414179-22.737092 18.39231-23.150099 18.523417-23.278227 3.352491-23.13488 1.901337-22.258517-1.240313-22.873574-3.821335-22.522984-18.282742-23.12673-18.068709-8.762512-18.734709Z"/>
<path transform="matrix(1,0,0,-1,117.47943,116.630649)" stroke-width=".75" stroke-linecap="round" stroke-linejoin="round" fill="none" stroke="#000000" d="M470.3136 .07399C470.1395-22.4434 470.1588-45.267496 470.17454-67.29712 355.69383-67.21717 242.5641-67.63919 128.06505-67.069309 85.75428-67.205219 42.871549-67.87788-.172824-67.04889-.001302-51.49172 .206327-34.94032-.435339-18.43184"/>
<path transform="matrix(1,0,0,-1,117.47943,116.630649)" stroke-width=".75" stroke-linecap="round" stroke-linejoin="round" fill="none" stroke="#000000" d="M8.022778-30.654145C4.026057-27.424857 .846369-23.569108-.023204-18.63372-1.559873-22.877587-4.24751-28.012682-7.806045-30.540438"/>
<path transform="matrix(1,0,0,-1,117.47943,116.630649)" stroke-width=".75" stroke-linecap="round" stroke-linejoin="round" fill="none" stroke="#000000" d="M22.70281 .262719C43.416738 .192515 64.33864 .305603 84.94797-.347077"/>
<path transform="matrix(1,0,0,-1,117.47943,116.630649)" stroke-width=".75" stroke-linecap="round" stroke-linejoin="round" fill="none" stroke="#000000" d="M72.34736-7.752147C75.39656-3.879517 80.351779-.849183 84.74913-.395419 80.09933 .898135 75.84056 4.319176 72.73849 8.361441"/>
<path transform="matrix(1,0,0,-1,117.47943,116.630649)" stroke-width=".75" stroke-linecap="round" stroke-linejoin="round" fill="none" stroke="#000000" d="M-9.041047-17.503029C-8.224528-17.646159-9.102945-17.235163-8.784432-18.76746-3.376114-18.395117 2.857118-17.870255 8.40572-17.987284 23.686043-17.658469 22.614787-17.37998 23.76796-2.380929 23.044348-.496166 22.194594 1.781542 23.79635 2.704043 23.540394 17.01101 22.4815 17.995879 7.858947 18.657477 2.342672 18.442463-2.694761 18.831368-8.931954 18.417046-23.912032 18.650475-22.906573 17.073002-22.32457 2.970822-23.509657 .973772-22.79124-1.6198-24.035548-3.797227-23.809115-17.554005-23.079703-17.692584-9.041047-17.503029Z"/>
<path transform="matrix(1,0,0,-1,117.47943,116.630649)" stroke-width=".75" stroke-linecap="round" stroke-linejoin="round" fill="none" stroke="#000000" d="M470.35414-.164677C469.82066-22.928406 469.72053-45.226865 469.72724-67.20884 355.6276-67.374019 242.39928-67.27779 128.56038-67.50112 85.318698-67.40592 42.7818-67.724018-.323853-67.078289 .092881-50.840574-.012325-34.591249 .188067-18.562703"/>
<path transform="matrix(1,0,0,-1,117.47943,116.630649)" stroke-width=".75" stroke-linecap="round" stroke-linejoin="round" fill="none" stroke="#000000" d="M7.888532-30.808802C4.157654-27.434828 1.216216-23.269446-.427033-18.533833-1.496101-23.373568-3.968556-27.731238-8.115349-30.712086"/>
<path transform="matrix(1,0,0,-1,117.47943,116.630649)" stroke-width=".75" stroke-linecap="round" stroke-linejoin="round" fill="none" stroke="#000000" d="M22.994597-.032823C43.67747 .060057 64.00277 .202969 84.620967 .386515"/>
<path transform="matrix(1,0,0,-1,117.47943,116.630649)" stroke-width=".75" stroke-linecap="round" stroke-linejoin="round" fill="none" stroke="#000000" d="M72.08899-8.396123C75.45282-3.991338 79.767688-.986565 84.69882-.444774 80.050029 1.512517 75.35049 3.902595 72.63121 7.762897"/>
<use data-text="Y" xlink:href="#font_9_6" transform="matrix(21.51906,0,0,-21.519398,634.4943,122.01193)"/>
<use data-text="D" xlink:href="#font_9_20" transform="matrix(16.438168,0,0,-16.438426,646.441,125.885448)"/>
<use data-text="(" xlink:href="#font_9_2" transform="matrix(21.51906,0,0,-21.519398,662.7993,122.01193)"/>
<use data-text="s" xlink:href="#font_9_3" transform="matrix(21.51906,0,0,-21.519398,672.34439,122.01193)"/>
<use data-text=")" xlink:href="#font_9_4" transform="matrix(21.51906,0,0,-21.519398,683.3311,122.01193)"/>
<use data-text="+" xlink:href="#font_9_7" transform="matrix(37.185197,0,0,-37.18505,359.89167,126.15147)"/>
<path transform="matrix(1,0,0,-1,117.47945,116.630649)" stroke-width=".75" stroke-linecap="round" stroke-linejoin="round" fill="none" stroke="#000000" d="M277.6134-.314881C278.4402 12.226155 267.75578 21.265999 257.05967 21.287158 244.33571 21.950812 234.88399 12.593978 234.12845 .135973 234.25412-12.012612 244.14553-20.727967 256.42268-21.411597 267.47615-22.450438 278.31004-12.195366 277.6134-.314881Z"/>
<path transform="matrix(1,0,0,-1,117.47945,116.630649)" stroke-width=".75" stroke-linecap="round" stroke-linejoin="round" fill="none" stroke="#000000" d="M171.43755-.106021C192.5214-.24066 213.1175-.269324 234.04267 .130344"/>
<path transform="matrix(1,0,0,-1,117.47945,116.630649)" stroke-width=".75" stroke-linecap="round" stroke-linejoin="round" fill="none" stroke="#000000" d="M222.11217-8.043888C224.97298-3.728029 229.25562-1.330283 234.81029-.276099 229.63175 1.052628 225.1095 4.187176 221.88172 7.726567"/>
<path transform="matrix(1,0,0,-1,117.47945,116.630649)" stroke-width=".75" stroke-linecap="round" stroke-linejoin="round" fill="none" stroke="#000000" d="M277.95863 .20296C299.28846 .242597 320.33534-.162336 341.17286 .072067"/>
<path transform="matrix(1,0,0,-1,117.47945,116.630649)" stroke-width=".75" stroke-linecap="round" stroke-linejoin="round" fill="none" stroke="#000000" d="M328.90504-8.256302C331.91627-3.595259 336.6507-1.019834 341.7152 .093889 336.43617 1.153093 332.1186 3.822007 328.82637 7.808414"/>
<path transform="matrix(1,0,0,-1,117.47945,116.630649)" stroke-width=".75" stroke-linecap="round" stroke-linejoin="round" fill="none" stroke="#000000" d="M256.08497 85.69112C256.85823 63.843336 256.65068 43.117147 256.73408 22.202876"/>
<path transform="matrix(1,0,0,-1,117.47945,116.630649)" stroke-width=".75" stroke-linecap="round" stroke-linejoin="round" fill="none" stroke="#000000" d="M248.37506 34.81433C252.19846 31.179888 255.67153 27.463225 256.32078 22.253674 258.043 27.272767 260.33805 31.535159 264.8423 34.608114"/>
<path transform="matrix(1,0,0,-1,117.47945,116.630649)" stroke-width=".75" stroke-linecap="round" stroke-linejoin="round" fill="none" stroke="#000000" d="M277.53294 .286199C277.3563 12.519714 268.7242 21.279833 255.60175 21.374632 244.16983 22.414494 234.75365 11.160948 233.8336 .467284 235.22786-11.890459 243.61661-21.362895 257.1738-20.74965 269.0792-22.613619 278.3503-11.911488 277.53294 .286199Z"/>
<path transform="matrix(1,0,0,-1,117.47945,116.630649)" stroke-width=".75" stroke-linecap="round" stroke-linejoin="round" fill="none" stroke="#000000" d="M171.3927-.216202C192.29503 .015185 213.01926 .073453 234.85152 .150409"/>
<path transform="matrix(1,0,0,-1,117.47945,116.630649)" stroke-width=".75" stroke-linecap="round" stroke-linejoin="round" fill="none" stroke="#000000" d="M221.7035-8.403994C224.64469-3.729389 229.6282-1.215958 234.62926 .00809 229.6386 1.539588 225.23577 3.607356 222.05326 7.977445"/>
<path transform="matrix(1,0,0,-1,117.47945,116.630649)" stroke-width=".75" stroke-linecap="round" stroke-linejoin="round" fill="none" stroke="#000000" d="M277.84214-.281931C299.4503 .402279 320.565 .17699 341.24723-.080801"/>
<path transform="matrix(1,0,0,-1,117.47945,116.630649)" stroke-width=".75" stroke-linecap="round" stroke-linejoin="round" fill="none" stroke="#000000" d="M328.97828-7.782202C332.06144-3.960845 336.06233-1.196359 341.3746-.145789 336.11964 .828773 331.91606 3.916895 328.9894 7.662856"/>
<path transform="matrix(1,0,0,-1,117.47945,116.630649)" stroke-width=".75" stroke-linecap="round" stroke-linejoin="round" fill="none" stroke="#000000" d="M256.4044 85.87599C256.74879 64.55146 256.8035 43.113588 256.31718 21.613095"/>
<path transform="matrix(1,0,0,-1,117.47945,116.630649)" stroke-width=".75" stroke-linecap="round" stroke-linejoin="round" fill="none" stroke="#000000" d="M248.27602 34.51624C252.04634 31.064539 255.54386 26.860306 256.4019 22.342366 257.26609 26.955527 260.86943 31.465327 264.403 35.025945"/>
<path transform="matrix(1,0,0,-1,117.47945,116.630649)" stroke-width=".75" stroke-linecap="round" stroke-linejoin="round" fill="none" stroke="#000000" d="M277.29789 .647048C278.3408 11.677608 268.47306 21.365817 256.92729 21.782868 244.31465 21.149657 233.98146 11.83555 234.566-.360783 235.36215-12.285056 243.80614-21.505137 256.08277-21.930153 268.15-21.99118 277.8194-10.982716 277.29789 .647048Z"/>
<path transform="matrix(1,0,0,-1,117.47945,116.630649)" stroke-width=".75" stroke-linecap="round" stroke-linejoin="round" fill="none" stroke="#000000" d="M171.38669-.152957C192.04903-.403371 213.36173-.17613 234.10538-.24051"/>
<path transform="matrix(1,0,0,-1,117.47945,116.630649)" stroke-width=".75" stroke-linecap="round" stroke-linejoin="round" fill="none" stroke="#000000" d="M221.76815-7.753353C224.71334-3.570095 229.77608-1.501954 234.58614-.444718 229.32994 1.543336 224.8385 3.97171 221.64638 8.128528"/>
<path transform="matrix(1,0,0,-1,117.47945,116.630649)" stroke-width=".75" stroke-linecap="round" stroke-linejoin="round" fill="none" stroke="#000000" d="M278.55067 .299566C299.60447 .347716 320.59819 .086909 341.1731-.363934"/>
<path transform="matrix(1,0,0,-1,117.47945,116.630649)" stroke-width=".75" stroke-linecap="round" stroke-linejoin="round" fill="none" stroke="#000000" d="M329.00013-7.983902C332.47224-4.438374 336.1568-1.234307 341.82377 .309692 336.50019 1.482588 332.25477 3.725775 329.01576 8.253274"/>
<path transform="matrix(1,0,0,-1,117.47945,116.630649)" stroke-width=".75" stroke-linecap="round" stroke-linejoin="round" fill="none" stroke="#000000" d="M256.11024 85.50965C256.8051 63.881776 256.89695 42.86247 256.84364 22.019614"/>
<path transform="matrix(1,0,0,-1,117.47945,116.630649)" stroke-width=".75" stroke-linecap="round" stroke-linejoin="round" fill="none" stroke="#000000" d="M248.5975 34.901758C252.79967 31.797329 255.72588 26.658562 256.76655 22.163804 257.70417 26.821755 260.71055 31.543963 264.8901 34.965017"/>
<path transform="matrix(1,0,0,-1,117.47945,116.630649)" stroke-width=".75" stroke-linecap="round" stroke-linejoin="round" fill="none" stroke="#000000" d="M278.10359 .267363C277.57533 12.142826 268.90177 22.184605 255.51207 21.630743 245.4137 21.641827 235.275 11.582259 234.6134 .604729 233.95827-11.060886 244.33422-21.516905 256.51609-21.42616 269.1588-21.551846 278.1303-11.960464 278.10359 .267363Z"/>
<path transform="matrix(1,0,0,-1,117.47945,116.630649)" stroke-width=".75" stroke-linecap="round" stroke-linejoin="round" fill="none" stroke="#000000" d="M171.2331-.244933C192.21767-.232511 213.56656 .064576 234.14557 .070742"/>
<path transform="matrix(1,0,0,-1,117.47945,116.630649)" stroke-width=".75" stroke-linecap="round" stroke-linejoin="round" fill="none" stroke="#000000" d="M221.40973-8.221292C224.6804-3.672146 229.17043-1.259438 234.83998-.118302 229.77799 1.00586 224.68985 3.600042 221.99927 7.792109"/>
<path transform="matrix(1,0,0,-1,117.47945,116.630649)" stroke-width=".75" stroke-linecap="round" stroke-linejoin="round" fill="none" stroke="#000000" d="M278.1705-.042592C299.5284-.029679 320.47087 .155982 341.31504-.332672"/>
<path transform="matrix(1,0,0,-1,117.47945,116.630649)" stroke-width=".75" stroke-linecap="round" stroke-linejoin="round" fill="none" stroke="#000000" d="M328.93565-8.063511C332.34965-3.709412 336.56809-1.147229 341.09086 .262094 336.87886 .741817 331.72209 4.220961 328.49748 7.718496"/>
<path transform="matrix(1,0,0,-1,117.47945,116.630649)" stroke-width=".75" stroke-linecap="round" stroke-linejoin="round" fill="none" stroke="#000000" d="M256.1795 85.51822C256.74739 64.568637 256.57426 42.95389 256.18409 21.859251"/>
<path transform="matrix(1,0,0,-1,117.47945,116.630649)" stroke-width=".75" stroke-linecap="round" stroke-linejoin="round" fill="none" stroke="#000000" d="M248.31055 35.086206C252.36089 31.192828 255.36559 26.75855 256.68638 22.080817 257.78208 26.87187 260.6084 31.734469 264.42958 34.636976"/>
<path transform="matrix(1,0,0,-1,117.47945,116.630649)" stroke-width=".75" stroke-linecap="round" stroke-linejoin="round" fill="none" stroke="#000000" d="M277.53974 .548601C278.5532 12.720496 267.59178 22.497483 256.24327 22.23236 244.5594 20.755234 235.03789 11.931094 235.30649 .589095 233.99376-12.861198 244.87024-21.014988 256.29093-20.829953 267.87705-22.610472 278.08805-12.734548 277.53974 .548601Z"/>
<path transform="matrix(1,0,0,-1,117.47945,116.630649)" stroke-width=".75" stroke-linecap="round" stroke-linejoin="round" fill="none" stroke="#000000" d="M170.88182-.029292C191.8633-.083309 212.85881 .12157 234.53884 .171513"/>
<path transform="matrix(1,0,0,-1,117.47945,116.630649)" stroke-width=".75" stroke-linecap="round" stroke-linejoin="round" fill="none" stroke="#000000" d="M221.90932-8.217501C224.58513-3.792863 229.28963-.71599 234.00705-.196867 229.39052 1.015259 224.89522 3.92936 221.92311 8.357455"/>
<path transform="matrix(1,0,0,-1,117.47945,116.630649)" stroke-width=".75" stroke-linecap="round" stroke-linejoin="round" fill="none" stroke="#000000" d="M278.02513 .279764C298.86433 .430614 320.513-.085746 341.1118 .195576"/>
<path transform="matrix(1,0,0,-1,117.47945,116.630649)" stroke-width=".75" stroke-linecap="round" stroke-linejoin="round" fill="none" stroke="#000000" d="M328.45893-7.742339C331.71629-4.358885 336.1455-1.412815 341.90083-.024425 336.8449 1.323656 332.17979 4.098255 328.96708 8.152604"/>
<path transform="matrix(1,0,0,-1,117.47945,116.630649)" stroke-width=".75" stroke-linecap="round" stroke-linejoin="round" fill="none" stroke="#000000" d="M256.3637 85.11806C256.06916 64.72667 256.2482 43.508657 256.8028 21.840014"/>
<path transform="matrix(1,0,0,-1,117.47945,116.630649)" stroke-width=".75" stroke-linecap="round" stroke-linejoin="round" fill="none" stroke="#000000" d="M248.35799 35.112268C252.01873 31.53727 255.50597 27.137972 256.50099 22.09159 257.7957 27.20356 260.62428 31.37579 264.4522 34.521825"/>
<use data-text="+" xlink:href="#font_9_7" transform="matrix(21.519354,0,0,-21.519316,335.88136,108.88783)"/>
<use data-text="+" xlink:href="#font_9_7" transform="matrix(21.519354,0,0,-21.519316,380.08113,90.23967)"/>
<use data-text="D" xlink:href="#font_9_19" transform="matrix(21.519089,0,0,-21.519398,350.5752,22.14035)"/>
<use data-text="(" xlink:href="#font_9_2" transform="matrix(21.519089,0,0,-21.519398,368.393,22.14035)"/>
<use data-text="s" xlink:href="#font_9_3" transform="matrix(21.519089,0,0,-21.519398,377.93806,22.14035)"/>
<use data-text=")" xlink:href="#font_9_4" transform="matrix(21.519089,0,0,-21.519398,388.92488,22.14035)"/>
</svg>
