<svg xmlns="http://www.w3.org/2000/svg" xmlns:xlink="http://www.w3.org/1999/xlink" version="1.1" width="698.50247" height="191.70566" viewBox="0 0 698.50247 191.70566">
<defs>
<path id="font_8_8" d="M.08999634 .32458497C.08999634 .22958374 .114990238 .13148499 .18299866 .06341553 .23699951 .009384155 .31199647-.016601563 .3880005-.016601563 .46099855-.016601563 .56900027 .010391235 .6569977 .03338623 .6569977 .03338623 .6539917 .216568 .6519928 .30760194L.37599183 .2966156V.27061463L.38198854 .265625C.43598939 .26361085 .5 .25961305 .5439911 .25660707 .57199099 .25460816 .57199099 .22257996 .57199099 .13449097 .57199099 .061416627 .56900027 .04940796 .5519867 .045394899 .5209961 .038391115 .48999024 .03538513 .45799256 .03538513 .37998963 .03538513 .30599977 .060409547 .2619934 .112472537 .20399475 .18052674 .17999268 .25260926 .17999268 .3405609 .17999268 .48339845 .23199463 .5653076 .26098634 .5942688 .3039856 .63623049 .36299134 .6502075 .42199708 .6502075 .5529938 .6502075 .59298709 .5563202 .60598757 .53034976L.6179962 .5293579 .6759949 .58628848C.6649933 .6032715 .6119995 .69921877 .46699525 .69921877 .3619995 .69921877 .25698854 .6682129 .18199158 .593277 .11199951 .5233612 .08999634 .4224701 .08999634 .32458497Z"/>
<path id="font_8_17" d="M.1349945 .6123047H.22898865C.25698854 .6123047 .27999879 .59129336 .2809906 .5662842 .28199769 .541275 .28199769 .46824647 .28199769 .41923524 .28199769 .27919007 .27799989 .13916016 .272995 .00010681152L.28599549-.0048828127 .3809967 .022125245C.37799073 .09814453 .37799073 .2962036 .37799073 .43223573 .37799073 .52127078 .37998963 .6112976 .38598634 .7003021L.3789978 .71229556 .1349945 .6392975V.6123047Z"/>
<path id="font_8_2" d="M.11299133 .24990845C.11299133 .007904053 .1519928-.09008789 .18299866-.13310242 .21099854-.17008972 .25299073-.20809937 .30099488-.21209717V-.1880951C.2809906-.18409729 .25099183-.16809082 .23399353-.1481018 .21998596-.13209534 .16499329-.05809021 .16499329 .24990845 .16499329 .4618988 .19799805 .5659027 .21998596 .6128998 .23599243 .6469116 .2689972 .6769104 .30099488 .684906V.71191409C.2599945 .7049103 .21598816 .6729126 .19099427 .63790896 .1599884 .5919037 .11299133 .4748993 .11299133 .24990845Z"/>
<path id="font_8_3" d="M.051986696 .06642151C.06199646 .047409059 .07598877 .030395508 .09199524 .01638794 .12098694-.009613037 .16099549-.016601563 .19898987-.016601563 .2559967-.016601563 .31199647 .0023956299 .35099793 .044403078 .375 .06941223 .3869934 .10343933 .3869934 .13845825 .3869934 .1634674 .37298585 .18649292 .35499574 .20449829 .34098817 .21850586 .3039856 .24052429 .27198792 .25453187 .24299622 .26654054 .19999695 .2885437 .18798828 .30055238 .17298889 .31655885 .1619873 .3285675 .1619873 .35058595 .1619873 .3725891 .16899109 .39360047 .18499756 .4086151 .19999695 .42362977 .22200012 .43164063 .24398804 .43164063 .2639923 .43164063 .2849884 .42462159 .29599 .4066162 .30599977 .39060975 .30799867 .3715973 .30899049 .35359193L.32099916 .34657289 .37599183 .38360597C.375 .40560914 .3639984 .42662049 .34799195 .44163514 .32499696 .46263124 .29299928 .46662904 .2630005 .46662904 .21398926 .46662904 .16699219 .45063783 .1309967 .4176178 .10398865 .39360047 .08999634 .35858155 .08999634 .32356263 .08999634 .29154969 .10798645 .26353456 .1309967 .2425232 .1539917 .22250366 .18399048 .2084961 .21499634 .1954956 .24099732 .18447876 .2689972 .17248535 .28799439 .1534729 .30299378 .13845825 .31399537 .11845398 .31399537 .09744263 .31399537 .079422 .30499269 .062408449 .29299928 .04940796 .27799989 .03340149 .25099183 .021392823 .22898865 .021392823 .19898987 .021392823 .17199707 .03439331 .1499939 .055404664 .1269989 .076416019 .116989139 .10644531 .114990238 .13645935L.100997928 .13745117 .051986696 .06642151Z"/>
<path id="font_8_4" d="M.085998538-.1880951V-.21209717C.13398743-.20610047 .1789856-.17208863 .20698548-.13510132 .23799134-.09210205 .27598573 .007904053 .27598573 .24990845 .27598573 .50090029 .22399903 .5919037 .19299317 .63790896 .16799927 .6729126 .1269989 .7049103 .085998538 .71191409V.684906C.117996219 .6759033 .14898682 .6469116 .16499329 .6128998 .18699646 .5659027 .22399903 .48190309 .22399903 .24990845 .22399903-.099090579 .17199707-.13209534 .1579895-.1481018 .14099121-.16809082 .10598755-.18409729 .085998538-.1880951Z"/>
<path id="font_8_18" d="M.04499817 .001953125H.5379944L.56399539 .079940799 .5589905 .08795166H.20999146C.20399475 .08795166 .19799805 .08894348 .19599915 .092941287 .19499207 .094940189 .19599915 .09794617 .19699097 .09895325 .2539978 .1569519 .30799867 .21495056 .35899354 .27496339 .394989 .31697084 .42999269 .358963 .45799256 .40496827 .48799134 .4509735 .5119934 .49998475 .5119934 .5529938 .5119934 .59399417 .49899293 .6349945 .46499635 .66400149 .43199159 .69299319 .3880005 .7080078 .34199525 .7080078 .29899598 .7080078 .2579956 .6970062 .22099304 .67900088 .17599488 .65800479 .13699341 .6279907 .102996829 .59498599L.125 .57598879C.1519928 .59599307 .17799378 .61099246 .20999146 .6259918 .23098755 .6360016 .2559967 .6399994 .2809906 .6399994 .31399537 .6399994 .34700013 .6289978 .37098695 .6069946 .40098573 .5779877 .4079895 .5369873 .4079895 .50798037 .4079895 .4429779 .38198854 .38197328 .34298707 .3259735 .31098939 .27996827 .27198792 .23796082 .23199463 .19696045 .17199707 .13494873 .10899353 .07594299 .04499817 .017944336V.001953125Z"/>
<path id="font_8_7" d="M.04598999 .23632813H.35598756V-.07368469L.3959961-.06668091V.23632813H.70399478L.70899966 .2763214H.3959961V.58631899L.35598756 .58032229V.2763214H.052993776L.04598999 .23632813Z"/>
<path id="font_8_19" d="M.050994874 .6591797C.069992069 .6531677 .08999634 .64816287 .10899353 .6411743 .117996219 .63716128 .125 .6301575 .12599182 .62016299 .1269989 .6051636 .12799073 .5891571 .12799073 .57315066V.07904053C.1269989 .041030885 .12599182 .027038575 .10598755 .012023926V.002029419H.33699037C.39698792 .002029419 .45700074 .0070343019 .5139923 .024032593 .55799868 .03703308 .60798647 .057037355 .6389923 .091049198 .71598818 .174057 .73799136 .25808717 .73799136 .38511659 .73799136 .43011476 .73399356 .47512818 .72099307 .5171356 .71099856 .55114749 .69599917 .5831604 .67099 .6081543 .6399994 .63916018 .59799197 .6551666 .5549927 .6661682 .49499513 .680542 .43299867 .6855469 .37098695 .6855469L.057998659 .6861725 .050994874 .6781769V.6591797M.21199036 .1700592V.57514956C.21199036 .6061554 .21299744 .62615969 .21499634 .62916567 .21798706 .63516238 .21998596 .63816836 .22599793 .6411743 .23199463 .6435394 .24899292 .6445465 .2919922 .6445465 .33898927 .6445465 .44799806 .6415405 .48098756 .634552 .522995 .6255493 .548996 .6125641 .57099917 .5905762 .6269989 .5346222 .6439972 .43771363 .6439972 .37675477 .6439972 .2828369 .6230011 .184906 .5549927 .11697388 .5269928 .08898926 .4909973 .072006229 .45399476 .060012819 .40699769 .045028688 .35798646 .040039064 .30899049 .040039064 .28199769 .040039064 .24299622 .040039064 .22999573 .053024293 .21499634 .06800842 .21299744 .1299591 .21199036 .16992188V.1700592Z"/>
<path id="font_8_9" d="M.04598999 .23046875H.70399478L.70999148 .27046205H.052993776L.04598999 .23046875Z"/>
<path id="font_8_5" d="M.053985597 .65625C.054992677 .65625 .08999634 .6462555 .10798645 .6412506 .12098694 .6372528 .1309967 .6252594 .1309967 .61128237 .13198853 .5543213 .13398743 .45439149 .13398743 .43940736 .13398743 .29444886 .1329956 .14831543 .125 .003189087L.13598633-.0058135988 .21899414 .023208619C.21398926 .11929321 .21398926 .21638489 .21398926 .31245423 .21998596 .31245423 .22898865 .30845643 .23399353 .30345155 .2630005 .27442933 .3899994 .11128235 .48298646-.0078125L.58200076 .018203736V.02720642L.31900025 .3234558 .32099916 .33146668C.4039917 .3404541 .4850006 .3734131 .5169983 .44322206 .5319977 .47714234 .5359955 .49110414 .5359955 .53897097 .5359955 .57388308 .5219879 .6077881 .49699403 .63272097 .47999574 .6506958 .45700074 .6596985 .43299867 .6667023 .40098573 .67570498 .36698915 .67871096 .33299256 .67871096L.06098938 .679245 .054992677 .6732483 .053985597 .65625M.21299744 .37045289C.21299744 .375412 .21699524 .549942 .21899414 .61376956 .21998596 .63272097 .22299195 .6397095 .23098755 .6397095H.2709961C.2979889 .6397095 .32598878 .6377106 .35299684 .63072207 .37199403 .6257324 .3909912 .61776736 .40499879 .6037903 .42599488 .5828552 .43798829 .55293276 .43798829 .52301028 .43798829 .47813417 .41799928 .43624879 .3869934 .40533448 .35398866 .37141419 .30599977 .36044313 .2599945 .35646058 .24798584 .35546876 .23498535 .35546876 .22200012 .35546876 .21499634 .35546876 .21299744 .36444093 .21299744 .37042237V.37045289Z"/>
</defs>
<use data-text="G" xlink:href="#font_8_8" transform="matrix(21.519362,0,0,-21.519398,217.9061,122.01193)"/>
<use data-text="1" xlink:href="#font_8_17" transform="matrix(16.438399,0,0,-16.438426,234.37332,126.312908)"/>
<use data-text="(" xlink:href="#font_8_2" transform="matrix(21.519362,0,0,-21.519398,244.61594,122.01193)"/>
<use data-text="s" xlink:href="#font_8_3" transform="matrix(21.519362,0,0,-21.519398,254.16107,122.01193)"/>
<use data-text=")" xlink:href="#font_8_4" transform="matrix(21.519362,0,0,-21.519398,265.148,122.01193)"/>
<use data-text="G" xlink:href="#font_8_8" transform="matrix(21.519362,0,0,-21.519398,474.35786,122.01193)"/>
<use data-text="2" xlink:href="#font_8_18" transform="matrix(16.438399,0,0,-16.438426,490.82508,126.24714)"/>
<use data-text="(" xlink:href="#font_8_2" transform="matrix(21.519362,0,0,-21.519398,501.0677,122.01193)"/>
<use data-text="s" xlink:href="#font_8_3" transform="matrix(21.519362,0,0,-21.519398,510.6128,122.01193)"/>
<use data-text=")" xlink:href="#font_8_4" transform="matrix(21.519362,0,0,-21.519398,521.59976,122.01193)"/>
<path transform="matrix(1,0,0,-1,117.47943,116.63064)" stroke-width=".75" stroke-linecap="round" stroke-linejoin="round" fill="none" stroke="#000000" d="M100.78469-25.88573C99.538379-25.13878 99.58768-25.691323 100.32385-25.29439 119.30159-25.34868 136.56525-25.899075 155.63014-24.989708 171.7847-25.401989 171.47676-25.019219 170.96564-10.510326 170.81671-3.829701 171.91117 4.260911 171.08728 10.220108 171.33869 25.064654 170.94394 25.498257 155.48445 24.327569 136.68367 25.016165 118.538417 24.738787 99.48016 24.400504 84.503208 25.196948 86.37138 24.8396 85.431728 9.288986 85.373928 3.211195 85.43324-3.302456 85.913379-9.701429 86.018878-25.917756 85.44638-24.806262 100.78469-25.88573Z"/>
<path transform="matrix(1,0,0,-1,117.47943,116.63064)" stroke-width=".75" stroke-linecap="round" stroke-linejoin="round" fill="none" stroke="#000000" d="M357.46607-25.87821C357.45243-24.32477 357.34577-25.137583 356.79496-24.57561 376.10383-24.479886 394.46394-25.619185 411.9947-24.977152 427.73695-25.372477 427.7783-24.807835 426.52534-10.550531 426.68278-3.937167 427.1818 4.240015 427.6362 10.043566 426.712 25.801316 428.20439 25.636536 412.8234 24.930329 394.4756 24.640442 376.17054 25.387434 356.39833 24.24508 342.15235 25.031382 341.36299 25.037804 342.1098 9.255038 341.38734 2.524489 341.0737-3.396487 342.2102-9.743694 342.42515-25.83328 342.8472-25.011769 357.46607-25.87821Z"/>
<path transform="matrix(1,0,0,-1,117.47943,116.63064)" stroke-width=".75" stroke-linecap="round" stroke-linejoin="round" fill="none" stroke="#000000" d="M427.23335-.14473C456.2399 .166783 484.42088-.331653 512.9367 .368249"/>
<path transform="matrix(1,0,0,-1,117.47943,116.63064)" stroke-width=".75" stroke-linecap="round" stroke-linejoin="round" fill="none" stroke="#000000" d="M499.42195-8.032997C503.114-3.915946 507.5286-1.072115 512.916 .20678 507.85115 1.388924 503.36485 4.39128 499.89353 7.64913"/>
<path transform="matrix(1,0,0,-1,117.47943,116.63064)" stroke-width=".75" stroke-linecap="round" stroke-linejoin="round" fill="none" stroke="#000000" d="M99.72043-24.29855C101.09647-25.23271 101.02412-24.872876 100.19472-25.446152 118.24064-25.913264 137.55225-24.886818 156.28993-25.695462 170.31607-25.19709 170.7578-24.722245 170.28322-10.89656 171.85135-3.773488 170.45912 3.729482 170.218 9.180948 170.88571 24.41076 171.03827 24.822636 156.63719 24.052706 136.61806 23.969983 119.24579 25.41159 100.686649 23.992743 84.59972 25.377787 85.27436 24.788416 84.56074 10.772311 84.68744 3.834998 85.600749-4.147241 85.54651-9.388023 86.07602-25.25199 84.879878-24.703629 99.72043-24.29855Z"/>
<path transform="matrix(1,0,0,-1,117.47943,116.63064)" stroke-width=".75" stroke-linecap="round" stroke-linejoin="round" fill="none" stroke="#000000" d="M357.31126-24.139773C356.57316-24.518876 356.4927-24.942688 356.7129-24.441084 374.5315-24.161778 394.05455-25.104933 412.6855-24.567849 427.1061-24.767645 428.15855-25.513264 428.35194-10.286154 427.01536-3.49067 427.07106 2.811875 427.83277 9.625898 426.71726 24.837101 427.68989 25.788849 412.51383 24.382159 394.3703 24.022938 375.0011 25.867085 356.2986 24.575644 341.7755 25.688015 341.36027 25.84195 341.31013 10.817517 341.57945 3.765234 342.63246-2.507028 341.07157-9.934064 341.4337-24.234566 341.3789-24.062102 357.31126-24.139773Z"/>
<path transform="matrix(1,0,0,-1,117.47943,116.63064)" stroke-width=".75" stroke-linecap="round" stroke-linejoin="round" fill="none" stroke="#000000" d="M427.1605-.386265C455.56974 .33899 484.475 .067618 512.86819 .28342"/>
<path transform="matrix(1,0,0,-1,117.47943,116.63064)" stroke-width=".75" stroke-linecap="round" stroke-linejoin="round" fill="none" stroke="#000000" d="M500.0123-8.190798C503.07078-3.779509 507.2038-.778145 512.88107-.285838 507.8755 .913247 502.96415 3.987434 499.66679 8.499593"/>
<path transform="matrix(1,0,0,-1,117.47943,116.63064)" stroke-width=".75" stroke-linecap="round" stroke-linejoin="round" fill="none" stroke="#000000" d="M99.794879-24.226475C100.777538-25.84524 100.49699-24.319005 100.75934-24.753323 118.65424-24.772797 138.19586-24.012333 155.38979-24.681122 171.26485-24.609869 170.60225-25.304375 171.85393-8.995441 171.90155-4.145321 171.17902 2.734894 170.1742 10.857162 170.23628 25.19085 171.91466 24.354544 156.49053 24.616015 136.59506 24.861348 119.73118 24.690602 101.21886 25.344199 85.81299 24.15988 85.83278 24.841933 84.58653 10.67259 85.73789 3.938171 84.63648-3.20147 84.61333-9.971289 85.99313-24.4093 84.98889-24.102416 99.794879-24.226475Z"/>
<path transform="matrix(1,0,0,-1,117.47943,116.63064)" stroke-width=".75" stroke-linecap="round" stroke-linejoin="round" fill="none" stroke="#000000" d="M356.97248-25.620783C355.92539-24.644793 357.59638-24.01438 357.4872-25.20427 375.49678-24.57753 394.55448-24.000828 411.8034-25.065203 428.45408-24.390135 427.9339-24.242077 427.5327-9.500724 426.67576-4.206205 427.16215 3.871926 427.9954 9.88243 428.0048 24.315289 428.1986 24.4841 413.1701 25.802685 394.73466 24.474808 375.8752 25.814692 355.94004 25.235247 341.83296 25.101828 341.5582 23.999543 341.52864 9.843176 341.74113 2.613628 340.92619-4.101091 341.08583-10.274989 341.5383-25.908896 342.75773-24.261775 356.97248-25.620783Z"/>
<path transform="matrix(1,0,0,-1,117.47943,116.63064)" stroke-width=".75" stroke-linecap="round" stroke-linejoin="round" fill="none" stroke="#000000" d="M427.2039-.440386C455.8363 .098308 483.8769 .38346 512.0854-.012036"/>
<path transform="matrix(1,0,0,-1,117.47943,116.63064)" stroke-width=".75" stroke-linecap="round" stroke-linejoin="round" fill="none" stroke="#000000" d="M500.26744-8.347521C502.89173-3.97948 507.25587-1.600401 512.35079 .101653 507.54768 .837863 503.294 3.983982 499.72688 7.844631"/>
<path transform="matrix(1,0,0,-1,117.47943,116.63064)" stroke-width=".75" stroke-linecap="round" stroke-linejoin="round" fill="none" stroke="#000000" d="M100.12585-25.19241C100.174549-25.087502 100.98425-25.250887 99.92225-24.18511 118.28145-25.70249 138.13802-24.861536 156.82862-25.173838 171.81443-24.223919 171.92325-25.812476 171.54341-9.829457 171.00266-2.909675 170.95558 2.596399 170.10785 9.384579 171.84056 25.310019 170.64473 25.043639 155.59477 24.512259 136.75495 25.331387 118.806118 24.803933 99.72919 25.54427 85.05741 24.786547 84.63425 24.023123 84.720188 9.864931 84.82075 4.051695 84.47028-4.182957 85.638797-9.7078 85.239048-24.643147 85.95142-24.972666 100.12585-25.19241Z"/>
<path transform="matrix(1,0,0,-1,117.47943,116.63064)" stroke-width=".75" stroke-linecap="round" stroke-linejoin="round" fill="none" stroke="#000000" d="M356.76243-25.539975C357.4909-24.279362 356.6071-24.474358 357.85395-24.26674 375.08454-25.135376 393.86134-25.679696 411.8115-24.682253 428.1616-25.836827 427.0379-25.160857 428.44096-9.676928 427.55027-3.990117 428.18647 3.930055 427.41035 10.284292 427.1324 24.18538 426.73414 24.137482 413.05128 25.492203 393.07954 25.711422 376.18418 25.064043 357.22447 25.79687 342.2382 25.073876 341.2937 24.259085 342.04203 10.811215 342.0204 4.075508 342.73435-2.572368 341.04664-9.573635 341.03776-24.464612 341.17204-25.168862 356.76243-25.539975Z"/>
<path transform="matrix(1,0,0,-1,117.47943,116.63064)" stroke-width=".75" stroke-linecap="round" stroke-linejoin="round" fill="none" stroke="#000000" d="M427.9016-.417342C455.5285 .015113 484.60813-.381057 512.9443-.376118"/>
<path transform="matrix(1,0,0,-1,117.47943,116.63064)" stroke-width=".75" stroke-linecap="round" stroke-linejoin="round" fill="none" stroke="#000000" d="M500.04814-8.005652C502.88587-4.399384 507.43824-.801792 512.3429 .026961 507.60987 1.601059 503.04939 3.818093 499.5918 8.272746"/>
<path transform="matrix(1,0,0,-1,117.47943,116.63064)" stroke-width=".75" stroke-linecap="round" stroke-linejoin="round" fill="none" stroke="#000000" d="M100.77017-24.740759C101.00522-25.69249 100.109508-25.210835 99.8699-25.588067 119.82934-24.34052 138.44602-25.444909 156.3256-24.593882 170.57616-24.321223 171.65326-25.833342 170.80889-9.547663 171.8267-3.461588 170.37538 2.34294 171.43547 9.428617 170.41173 25.55188 171.03462 24.598778 155.78173 25.86587 137.4562 25.369185 119.7883 24.134749 100.74375 25.00035 85.348339 25.33235 85.75058 24.857272 85.504367 9.907339 85.20672 2.400984 85.480068-3.580889 84.61955-10.852088 84.69328-25.162758 84.95797-24.647313 100.77017-24.740759Z"/>
<path transform="matrix(1,0,0,-1,117.47943,116.63064)" stroke-width=".75" stroke-linecap="round" stroke-linejoin="round" fill="none" stroke="#000000" d="M357.09269-25.69741C356.6035-25.502177 356.04655-24.696974 356.60404-24.56262 375.8218-24.705916 394.0182-24.339932 413.28038-25.089083 426.53919-24.20301 427.57893-24.215285 428.11564-10.424404 427.81986-4.096327 427.2266 2.558362 426.8173 9.204273 427.3319 25.017657 428.4213 24.751088 413.25544 24.118014 393.7085 25.284653 376.0843 24.093504 357.39967 24.383912 342.83226 25.168936 342.66294 25.514639 341.1014 9.875211 340.97587 3.152548 342.3953-4.199269 342.74757-10.386824 341.45088-25.372065 342.70094-24.92686 357.09269-25.69741Z"/>
<path transform="matrix(1,0,0,-1,117.47943,116.63064)" stroke-width=".75" stroke-linecap="round" stroke-linejoin="round" fill="none" stroke="#000000" d="M427.68943 .447898C456.22648-.182642 484.52976-.088344 512.4475 .351368"/>
<path transform="matrix(1,0,0,-1,117.47943,116.63064)" stroke-width=".75" stroke-linecap="round" stroke-linejoin="round" fill="none" stroke="#000000" d="M499.65864-8.162337C502.8397-3.559016 507.85987-1.372716 512.08718-.079536 507.65193 1.350019 503.03233 3.97634 499.86018 7.65652"/>
<use data-text="+" xlink:href="#font_8_7" transform="matrix(37.185197,0,0,-37.18505,359.89167,126.15143)"/>
<path transform="matrix(1,0,0,-1,117.47945,116.63063)" stroke-width=".75" stroke-linecap="round" stroke-linejoin="round" fill="none" stroke="#000000" d="M278.66474 .727473C277.62379 11.342594 267.77305 21.063349 255.93459 21.143477 245.39022 21.949219 234.76964 12.210912 234.59558-.621953 234.40506-12.387447 245.0331-21.022202 256.98344-21.67256 268.65269-22.177338 278.36424-12.183159 278.66474 .727473Z"/>
<path transform="matrix(1,0,0,-1,117.47945,116.63063)" stroke-width=".75" stroke-linecap="round" stroke-linejoin="round" fill="none" stroke="#000000" d="M170.74623-.038375C192.25713-.103716 213.16454 .382113 234.15338-.308328"/>
<path transform="matrix(1,0,0,-1,117.47945,116.63063)" stroke-width=".75" stroke-linecap="round" stroke-linejoin="round" fill="none" stroke="#000000" d="M221.65119-7.94461C225.3267-4.290583 229.5736-1.335336 234.83756 .254908 229.46749 1.438467 224.6832 4.44239 221.59815 8.076643"/>
<path transform="matrix(1,0,0,-1,117.47945,116.63063)" stroke-width=".75" stroke-linecap="round" stroke-linejoin="round" fill="none" stroke="#000000" d="M278.5152-.146177C298.85969 .393556 320.78675 .050589 341.33708-.252892"/>
<path transform="matrix(1,0,0,-1,117.47945,116.63063)" stroke-width=".75" stroke-linecap="round" stroke-linejoin="round" fill="none" stroke="#000000" d="M329.01753-8.360853C332.17576-3.730396 336.88023-1.072359 341.8834-.328727 336.3735 .877651 331.7651 4.064623 328.6868 7.612391"/>
<path transform="matrix(1,0,0,-1,117.47945,116.63063)" stroke-width=".75" stroke-linecap="round" stroke-linejoin="round" fill="none" stroke="#000000" d="M256.16813 85.43411C256.32975 63.914995 256.44618 43.31979 256.1331 22.211447"/>
<path transform="matrix(1,0,0,-1,117.47945,116.63063)" stroke-width=".75" stroke-linecap="round" stroke-linejoin="round" fill="none" stroke="#000000" d="M248.74034 34.77524C252.70046 31.923584 255.32137 27.08269 256.37898 21.671713 257.40144 26.868517 260.73966 31.184376 264.94007 34.907495"/>
<path transform="matrix(1,0,0,-1,117.47945,116.63063)" stroke-width=".75" stroke-linecap="round" stroke-linejoin="round" fill="none" stroke="#000000" d="M278.5988 .415769C277.3928 11.296472 267.7742 21.099305 257.4043 20.881985 243.75464 22.293208 234.70664 12.256177 234.58985-.80419 235.05028-11.089242 244.78142-22.431878 256.18464-22.330479 267.94477-21.154904 277.13777-11.685892 278.5988 .415769Z"/>
<path transform="matrix(1,0,0,-1,117.47945,116.63063)" stroke-width=".75" stroke-linecap="round" stroke-linejoin="round" fill="none" stroke="#000000" d="M171.29097-.369499C191.84598-.067102 212.91115 .354698 234.57886 .243661"/>
<path transform="matrix(1,0,0,-1,117.47945,116.63063)" stroke-width=".75" stroke-linecap="round" stroke-linejoin="round" fill="none" stroke="#000000" d="M222.11299-8.226167C225.10297-3.68341 229.08557-1.362831 234.41948 .156171 229.86188 .989232 224.72324 3.709159 221.38434 7.994284"/>
<path transform="matrix(1,0,0,-1,117.47945,116.63063)" stroke-width=".75" stroke-linecap="round" stroke-linejoin="round" fill="none" stroke="#000000" d="M277.89918-.274667C299.09428-.386364 320.1138-.391251 341.14167-.091173"/>
<path transform="matrix(1,0,0,-1,117.47945,116.63063)" stroke-width=".75" stroke-linecap="round" stroke-linejoin="round" fill="none" stroke="#000000" d="M328.84938-8.474489C332.09754-3.868392 336.38114-.847785 341.13877-.404648 336.7978 .848395 332.1867 3.583041 328.68156 7.619931"/>
<path transform="matrix(1,0,0,-1,117.47945,116.63063)" stroke-width=".75" stroke-linecap="round" stroke-linejoin="round" fill="none" stroke="#000000" d="M256.19645 85.14099C256.79646 64.29624 256.2636 43.07463 256.37977 21.727669"/>
<path transform="matrix(1,0,0,-1,117.47945,116.63063)" stroke-width=".75" stroke-linecap="round" stroke-linejoin="round" fill="none" stroke="#000000" d="M248.55112 34.81576C252.75409 31.23866 255.52684 27.104523 256.4029 22.057906 257.91377 27.403918 260.5303 31.714116 264.26856 34.51985"/>
<path transform="matrix(1,0,0,-1,117.47945,116.63063)" stroke-width=".75" stroke-linecap="round" stroke-linejoin="round" fill="none" stroke="#000000" d="M278.24055-.045651C278.98066 11.051339 267.84028 21.797396 256.5203 21.746127 244.78438 22.36926 234.31963 12.724087 233.99425 .48017 234.81114-12.240664 245.02039-20.755129 257.3599-21.548169 268.2281-21.730126 277.373-11.121137 278.24055-.045651Z"/>
<path transform="matrix(1,0,0,-1,117.47945,116.63063)" stroke-width=".75" stroke-linecap="round" stroke-linejoin="round" fill="none" stroke="#000000" d="M171.27083 .249273C192.0358 .314329 212.90056 .259893 234.27231 .021865"/>
<path transform="matrix(1,0,0,-1,117.47945,116.63063)" stroke-width=".75" stroke-linecap="round" stroke-linejoin="round" fill="none" stroke="#000000" d="M221.75998-7.69319C224.98476-4.18682 229.32096-1.20372 234.19953 .322727 229.47684 1.41235 224.7383 4.381842 221.77245 8.098435"/>
<path transform="matrix(1,0,0,-1,117.47945,116.63063)" stroke-width=".75" stroke-linecap="round" stroke-linejoin="round" fill="none" stroke="#000000" d="M278.5185 .035929C298.83198-.027561 320.24577 .113642 341.06877 .159272"/>
<path transform="matrix(1,0,0,-1,117.47945,116.63063)" stroke-width=".75" stroke-linecap="round" stroke-linejoin="round" fill="none" stroke="#000000" d="M328.91044-8.115869C331.66838-3.93173 336.18733-1.32831 341.90409 .142165 336.29887 1.449888 332.45243 3.607772 328.4729 8.35401"/>
<path transform="matrix(1,0,0,-1,117.47945,116.63063)" stroke-width=".75" stroke-linecap="round" stroke-linejoin="round" fill="none" stroke="#000000" d="M256.52287 85.10002C256.85356 63.854116 256.5743 42.78384 256.8988 21.593298"/>
<path transform="matrix(1,0,0,-1,117.47945,116.63063)" stroke-width=".75" stroke-linecap="round" stroke-linejoin="round" fill="none" stroke="#000000" d="M248.50914 34.3088C252.24665 31.064047 255.37039 27.156247 256.65776 22.110859 257.19206 27.077412 260.68296 31.115048 264.56547 34.98393"/>
<path transform="matrix(1,0,0,-1,117.47945,116.63063)" stroke-width=".75" stroke-linecap="round" stroke-linejoin="round" fill="none" stroke="#000000" d="M278.89683 .882214C277.88813 12.243033 267.5529 22.33169 257.06129 22.575438 245.20467 22.078633 235.51534 11.08069 234.44426 .733853 235.00194-11.517237 243.60948-21.441514 256.4681-21.686207 268.40843-22.030983 277.32893-11.970728 278.89683 .882214Z"/>
<path transform="matrix(1,0,0,-1,117.47945,116.63063)" stroke-width=".75" stroke-linecap="round" stroke-linejoin="round" fill="none" stroke="#000000" d="M170.91664-.319676C191.99909 .069097 213.67668 .333877 234.8127-.348935"/>
<path transform="matrix(1,0,0,-1,117.47945,116.63063)" stroke-width=".75" stroke-linecap="round" stroke-linejoin="round" fill="none" stroke="#000000" d="M222.18163-7.92509C224.96663-3.967702 229.77722-1.22978 234.2404-.326185 229.8269 1.235052 224.63706 3.709707 221.96849 8.299252"/>
<path transform="matrix(1,0,0,-1,117.47945,116.63063)" stroke-width=".75" stroke-linecap="round" stroke-linejoin="round" fill="none" stroke="#000000" d="M278.27314-.1234C299.01799-.24793 320.6973-.204606 341.44004-.044545"/>
<path transform="matrix(1,0,0,-1,117.47945,116.63063)" stroke-width=".75" stroke-linecap="round" stroke-linejoin="round" fill="none" stroke="#000000" d="M328.755-7.879222C332.3251-3.878588 336.34614-1.434834 341.29545 .43306 336.28425 .871628 331.8624 3.571475 328.58323 8.398758"/>
<path transform="matrix(1,0,0,-1,117.47945,116.63063)" stroke-width=".75" stroke-linecap="round" stroke-linejoin="round" fill="none" stroke="#000000" d="M256.56233 85.49532C256.3094 63.883436 256.49198 43.564546 256.8676 21.887658"/>
<path transform="matrix(1,0,0,-1,117.47945,116.63063)" stroke-width=".75" stroke-linecap="round" stroke-linejoin="round" fill="none" stroke="#000000" d="M248.522 34.766119C252.23979 31.189528 255.74277 26.668585 256.06315 21.806437 257.95454 27.178433 260.61665 31.449534 264.8356 34.516874"/>
<path transform="matrix(1,0,0,-1,117.47945,116.63063)" stroke-width=".75" stroke-linecap="round" stroke-linejoin="round" fill="none" stroke="#000000" d="M278.6267-.432698C277.2244 12.117239 268.7698 22.081992 256.13548 22.576785 244.41461 22.481516 234.29926 12.829298 234.81459 .121706 234.27019-12.186171 244.24477-21.856717 257.1552-22.484679 267.90208-21.977856 278.16954-11.311995 278.6267-.432698Z"/>
<path transform="matrix(1,0,0,-1,117.47945,116.63063)" stroke-width=".75" stroke-linecap="round" stroke-linejoin="round" fill="none" stroke="#000000" d="M171.15505 .076472C192.32035-.361433 213.46865 .111162 234.58708-.391798"/>
<path transform="matrix(1,0,0,-1,117.47945,116.63063)" stroke-width=".75" stroke-linecap="round" stroke-linejoin="round" fill="none" stroke="#000000" d="M222.1472-8.390559C225.12624-3.572412 229.29422-1.53422 234.76592-.110949 229.59023 1.362359 225.12084 4.114273 222.14078 7.867033"/>
<path transform="matrix(1,0,0,-1,117.47945,116.63063)" stroke-width=".75" stroke-linecap="round" stroke-linejoin="round" fill="none" stroke="#000000" d="M278.00099-.241574C298.97767-.107309 320.158-.209091 341.86698 .294909"/>
<path transform="matrix(1,0,0,-1,117.47945,116.63063)" stroke-width=".75" stroke-linecap="round" stroke-linejoin="round" fill="none" stroke="#000000" d="M328.99119-7.737238C332.05833-4.098645 336.3736-1.136284 341.63746-.327454 336.82765 1.54431 332.01493 3.607125 328.81596 8.492376"/>
<path transform="matrix(1,0,0,-1,117.47945,116.63063)" stroke-width=".75" stroke-linecap="round" stroke-linejoin="round" fill="none" stroke="#000000" d="M256.74089 85.08915C256.18275 64.46342 256.72715 43.10368 256.28617 21.96234"/>
<path transform="matrix(1,0,0,-1,117.47945,116.63063)" stroke-width=".75" stroke-linecap="round" stroke-linejoin="round" fill="none" stroke="#000000" d="M247.96379 34.889265C252.45677 31.372456 255.67453 27.008954 256.83775 21.599356 257.48493 26.851275 260.84056 31.857426 264.27876 34.647859"/>
<use data-text="+" xlink:href="#font_8_7" transform="matrix(21.519354,0,0,-21.519316,335.88136,108.88782)"/>
<use data-text="+" xlink:href="#font_8_7" transform="matrix(21.519354,0,0,-21.519316,380.08113,90.23967)"/>
<use data-text="D" xlink:href="#font_8_19" transform="matrix(21.519089,0,0,-21.519398,350.5752,22.140336)"/>
<use data-text="(" xlink:href="#font_8_2" transform="matrix(21.519089,0,0,-21.519398,368.393,22.140336)"/>
<use data-text="s" xlink:href="#font_8_3" transform="matrix(21.519089,0,0,-21.519398,377.93806,22.140336)"/>
<use data-text=")" xlink:href="#font_8_4" transform="matrix(21.519089,0,0,-21.519398,388.92488,22.140336)"/>
<use data-text="+" xlink:href="#font_8_7" transform="matrix(37.185197,0,0,-37.18505,103.43998,126.15143)"/>
<path transform="matrix(1,0,0,-1,117.47946,116.63063)" stroke-width=".75" stroke-linecap="round" stroke-linejoin="round" fill="none" stroke="#000000" d="M21.255566 .903411C21.544604 11.939117 12.358882 20.690022 .688544 21.52378-11.957381 21.509818-21.529128 12.311152-20.692538-.826137-21.262475-11.031627-12.76821-21.711903 .654953-21.293715 11.189357-22.081315 20.849879-11.657567 21.255566 .903411Z"/>
<path transform="matrix(1,0,0,-1,117.47946,116.63063)" stroke-width=".75" stroke-linecap="round" stroke-linejoin="round" fill="none" stroke="#000000" d="M-64.09726 .385917C-50.273649-.302257-36.50119-.29128-21.803095-.294504"/>
<path transform="matrix(1,0,0,-1,117.47946,116.63063)" stroke-width=".75" stroke-linecap="round" stroke-linejoin="round" fill="none" stroke="#000000" d="M-34.40564-8.358359C-31.113865-4.447508-26.795926-.843112-22.45121 .214407-26.77807 .924657-31.304448 4.134378-34.34605 8.340148"/>
<path transform="matrix(1,0,0,-1,117.47946,116.63063)" stroke-width=".75" stroke-linecap="round" stroke-linejoin="round" fill="none" stroke="#000000" d="M21.62971-.271109C42.918478 .020979 63.944547 .082134 85.08206-.425307"/>
<path transform="matrix(1,0,0,-1,117.47946,116.63063)" stroke-width=".75" stroke-linecap="round" stroke-linejoin="round" fill="none" stroke="#000000" d="M72.59123-7.721026C75.84588-4.318974 80.39615-1.219351 84.60722-.247092 80.40414 1.15141 75.29241 4.038264 72.63665 8.039609"/>
<path transform="matrix(1,0,0,-1,117.47946,116.63063)" stroke-width=".75" stroke-linecap="round" stroke-linejoin="round" fill="none" stroke="#000000" d="M469.79618 .051754C470.39247-22.151862 469.63084-45.043596 470.3395-67.274059 355.96226-67.86926 241.8219-67.088199 128.65383-67.46446 85.58711-67.079929 42.65915-67.09623 .344781-67.80493-.428061-52.529394 .086404-37.345338-.241206-22.35344"/>
<path transform="matrix(1,0,0,-1,117.47946,116.63063)" stroke-width=".75" stroke-linecap="round" stroke-linejoin="round" fill="none" stroke="#000000" d="M8.006065-34.58801C4.197797-31.488396 .915401-26.767437 .050751-21.960888-1.038696-27.11426-4.410117-31.915284-8.11407-34.44403"/>
<path transform="matrix(1,0,0,-1,117.47946,116.63063)" stroke-width=".75" stroke-linecap="round" stroke-linejoin="round" fill="none" stroke="#000000" d="M22.513167-.077296C20.701579 11.918139 11.118435 22.267569-.820527 21.042155-12.199848 20.997059-22.077792 12.174616-21.753993 .449801-21.481486-12.730124-11.140101-20.981173-.773519-22.156096 11.590842-22.23467 20.748929-11.572884 22.513167-.077296Z"/>
<path transform="matrix(1,0,0,-1,117.47946,116.63063)" stroke-width=".75" stroke-linecap="round" stroke-linejoin="round" fill="none" stroke="#000000" d="M-64.39498-.171527C-49.825754-.220574-35.919866 .199762-22.471627 .009823"/>
<path transform="matrix(1,0,0,-1,117.47946,116.63063)" stroke-width=".75" stroke-linecap="round" stroke-linejoin="round" fill="none" stroke="#000000" d="M-35.10643-7.783572C-31.176489-4.260961-26.866995-1.013929-22.036803-.1622-27.039134 1.587848-31.907723 3.81891-34.862756 8.450971"/>
<path transform="matrix(1,0,0,-1,117.47946,116.63063)" stroke-width=".75" stroke-linecap="round" stroke-linejoin="round" fill="none" stroke="#000000" d="M21.751868 .270586C42.594198 .320668 64.2665 .344849 84.73 .137045"/>
<path transform="matrix(1,0,0,-1,117.47946,116.63063)" stroke-width=".75" stroke-linecap="round" stroke-linejoin="round" fill="none" stroke="#000000" d="M72.09883-7.762042C75.82491-3.607402 79.92196-1.52437 85.12749 .054239 80.18691 1.027383 75.924869 3.599511 72.69964 8.066867"/>
<path transform="matrix(1,0,0,-1,117.47946,116.63063)" stroke-width=".75" stroke-linecap="round" stroke-linejoin="round" fill="none" stroke="#000000" d="M470.25224-.348372C470.02989-22.180428 469.84806-44.918939 469.69178-67.149707 356.27116-67.105937 241.75159-67.2125 128.30956-67.13681 85.04447-67.4898 42.43567-67.569919 .138852-67.08386-.073973-52.412858-.130119-37.241014-.241841-21.918946"/>
<path transform="matrix(1,0,0,-1,117.47946,116.63063)" stroke-width=".75" stroke-linecap="round" stroke-linejoin="round" fill="none" stroke="#000000" d="M7.962702-34.238187C4.137656-31.607802 1.408436-27.038155 .434634-21.895699-1.576207-27.268763-3.891702-31.648152-7.909705-34.52597"/>
<path transform="matrix(1,0,0,-1,117.47946,116.63063)" stroke-width=".75" stroke-linecap="round" stroke-linejoin="round" fill="none" stroke="#000000" d="M21.871624 .046955C21.33248 11.737735 12.896465 22.227564 .589397 21.648825-12.591825 21.213095-21.16022 12.119653-22.432347 .730239-20.854744-12.389733-11.013283-20.851725 .666224-22.089875 12.540505-22.220936 21.717793-11.223613 21.871624 .046955Z"/>
<path transform="matrix(1,0,0,-1,117.47946,116.63063)" stroke-width=".75" stroke-linecap="round" stroke-linejoin="round" fill="none" stroke="#000000" d="M-63.88393-.420477C-50.26739 .012827-36.24424-.229639-21.974339 .124446"/>
<path transform="matrix(1,0,0,-1,117.47946,116.63063)" stroke-width=".75" stroke-linecap="round" stroke-linejoin="round" fill="none" stroke="#000000" d="M-34.763753-7.64043C-31.709855-3.990176-26.967297-1.293561-21.729418-.105348-27.375376 1.111005-31.397089 4.29703-34.61502 8.326282"/>
<path transform="matrix(1,0,0,-1,117.47946,116.63063)" stroke-width=".75" stroke-linecap="round" stroke-linejoin="round" fill="none" stroke="#000000" d="M21.301026-.371373C43.09738 .285405 63.79243 .328125 84.8782-.278299"/>
<path transform="matrix(1,0,0,-1,117.47946,116.63063)" stroke-width=".75" stroke-linecap="round" stroke-linejoin="round" fill="none" stroke="#000000" d="M72.72946-7.784363C75.38203-3.668964 80.00591-.920961 85.10418-.370431 79.98861 1.57484 75.44775 4.149764 72.58234 7.888027"/>
<path transform="matrix(1,0,0,-1,117.47946,116.63063)" stroke-width=".75" stroke-linecap="round" stroke-linejoin="round" fill="none" stroke="#000000" d="M470.08378 .022814C469.89198-22.096583 469.78327-44.950487 469.7017-67.46864 355.80223-67.91444 242.1199-67.6755 128.15216-67.88651 85.25234-67.77019 42.691419-67.53636-.346668-67.79778-.328572-52.532388-.305937-36.958707 .131669-22.460854"/>
<path transform="matrix(1,0,0,-1,117.47946,116.63063)" stroke-width=".75" stroke-linecap="round" stroke-linejoin="round" fill="none" stroke="#000000" d="M8.262935-34.47789C3.798618-31.122189 1.470177-26.761298 .355647-22.152409-1.404197-27.314707-4.335019-31.1255-8.295312-34.572114"/>
<path transform="matrix(1,0,0,-1,117.47946,116.63063)" stroke-width=".75" stroke-linecap="round" stroke-linejoin="round" fill="none" stroke="#000000" d="M22.508673 .86467C22.476548 12.763369 12.442458 22.383866-.3757 21.503203-11.752305 22.260893-22.616463 11.928948-21.029616-.745599-22.584942-12.842018-11.095295-22.09436-.29805-20.86529 12.709035-22.084298 21.09978-12.506074 22.508673 .86467Z"/>
<path transform="matrix(1,0,0,-1,117.47946,116.63063)" stroke-width=".75" stroke-linecap="round" stroke-linejoin="round" fill="none" stroke="#000000" d="M-64.61187-.426755C-50.018297 .262675-36.07742-.09202-22.10664 .05962"/>
<path transform="matrix(1,0,0,-1,117.47946,116.63063)" stroke-width=".75" stroke-linecap="round" stroke-linejoin="round" fill="none" stroke="#000000" d="M-34.38738-7.98903C-31.60927-3.685376-27.162383-1.389323-22.183482-.268928-27.096859 1.121554-31.490853 3.930482-35.113958 8.457184"/>
<path transform="matrix(1,0,0,-1,117.47946,116.63063)" stroke-width=".75" stroke-linecap="round" stroke-linejoin="round" fill="none" stroke="#000000" d="M21.419678 .070646C42.504297-.153858 64.34161-.239061 85.39179 .41623"/>
<path transform="matrix(1,0,0,-1,117.47946,116.63063)" stroke-width=".75" stroke-linecap="round" stroke-linejoin="round" fill="none" stroke="#000000" d="M72.08157-7.8933C75.92148-4.034085 80.21715-1.547233 84.65641 .224648 80.359798 1.467154 75.73665 3.628199 72.54912 8.014665"/>
<path transform="matrix(1,0,0,-1,117.47946,116.63063)" stroke-width=".75" stroke-linecap="round" stroke-linejoin="round" fill="none" stroke="#000000" d="M470.05485-.429065C469.92424-22.66421 470.2469-44.640184 469.93409-67.14243 356.24116-67.461719 242.0753-67.7683 128.66825-67.88334 85.248958-67.627758 42.486974-67.38847 .025809-67.71945-.250358-52.098855 .414129-37.378198-.396331-21.950478"/>
<path transform="matrix(1,0,0,-1,117.47946,116.63063)" stroke-width=".75" stroke-linecap="round" stroke-linejoin="round" fill="none" stroke="#000000" d="M7.956058-34.8641C4.446659-31.526896 1.302942-27.265145-.134293-21.989188-.913665-26.857983-3.658903-31.954039-8.249904-34.23367"/>
<path transform="matrix(1,0,0,-1,117.47946,116.63063)" stroke-width=".75" stroke-linecap="round" stroke-linejoin="round" fill="none" stroke="#000000" d="M22.065384 .807376C21.552178 11.312793 12.654482 21.311867 .71922 21.61195-11.226696 22.17857-22.616072 12.235074-21.497189 .146524-21.599532-11.300936-12.413306-21.260214-.66693-21.262492 11.347128-22.416428 20.961968-12.224124 22.065384 .807376Z"/>
<path transform="matrix(1,0,0,-1,117.47946,116.63063)" stroke-width=".75" stroke-linecap="round" stroke-linejoin="round" fill="none" stroke="#000000" d="M-63.77164 .321577C-49.714166 .279455-35.677248 .067157-22.1494 .036507"/>
<path transform="matrix(1,0,0,-1,117.47946,116.63063)" stroke-width=".75" stroke-linecap="round" stroke-linejoin="round" fill="none" stroke="#000000" d="M-34.926469-8.474332C-31.558547-4.118837-26.867089-1.024239-22.249709-.411847-26.961756 1.412744-31.763283 3.782837-34.92539 7.723279"/>
<path transform="matrix(1,0,0,-1,117.47946,116.63063)" stroke-width=".75" stroke-linecap="round" stroke-linejoin="round" fill="none" stroke="#000000" d="M21.22635 .066091C43.18762 .024574 63.88019-.368379 85.04562-.016958"/>
<path transform="matrix(1,0,0,-1,117.47946,116.63063)" stroke-width=".75" stroke-linecap="round" stroke-linejoin="round" fill="none" stroke="#000000" d="M72.514019-7.860584C75.23373-3.615834 80.13763-1.09109 84.636798-.445892 79.687007 1.012865 75.8476 3.679473 72.4414 7.946612"/>
<path transform="matrix(1,0,0,-1,117.47946,116.63063)" stroke-width=".75" stroke-linecap="round" stroke-linejoin="round" fill="none" stroke="#000000" d="M470.08207 .264276C469.9795-22.618979 469.88499-44.907548 469.88078-67.31541 355.8022-67.18103 242.28696-67.73031 128.36313-67.44765 85.37676-67.20733 42.592859-67.09809 .11328-67.7986 .124544-52.267335-.387345-36.78451-.091349-21.810759"/>
<path transform="matrix(1,0,0,-1,117.47946,116.63063)" stroke-width=".75" stroke-linecap="round" stroke-linejoin="round" fill="none" stroke="#000000" d="M8.17834-34.646944C3.715441-31.797017 1.318948-27.025982 .102785-22.388394-.904185-27.242697-3.791253-31.12364-7.866984-34.916154"/>
<use data-text="+" xlink:href="#font_8_7" transform="matrix(21.519354,0,0,-21.519316,79.42964,108.88782)"/>
<use data-text="&#x2212;" xlink:href="#font_8_9" transform="matrix(21.519371,0,0,-21.519288,123.62937,147.24054)"/>
<use data-text="R" xlink:href="#font_8_5" transform="matrix(21.5195,0,0,-21.519398,6.8143465,122.01192)"/>
<use data-text="(" xlink:href="#font_8_2" transform="matrix(21.5195,0,0,-21.519398,19.919724,122.01192)"/>
<use data-text="s" xlink:href="#font_8_3" transform="matrix(21.5195,0,0,-21.519398,29.464913,122.01192)"/>
<use data-text=")" xlink:href="#font_8_4" transform="matrix(21.5195,0,0,-21.519398,40.45191,122.01192)"/>
</svg>
