<svg xmlns="http://www.w3.org/2000/svg" xmlns:xlink="http://www.w3.org/1999/xlink" version="1.1" width="499.76469" height="88.32368" viewBox="0 0 499.76469 88.32368">
<defs>
<path id="font_0_1" d="M.09199524 .6121063H.1749878C.19999695 .6121063 .21998596 .5911102 .22099304 .56611636 .22200012 .5411072 .22200012 .46810914 .22200012 .41911317 .22200012 .27911378 .21899414 .13911438 .21398926 .00010681152L.22599793-.0048828127 .30999757 .022109986C.30699159 .09811401 .30699159 .29611207 .30699159 .43211366 .30699159 .52111819 .30899049 .6111145 .31399537 .70010378L.30799867 .7121124 .09199524 .6391144V.6121063Z"/>
<path id="font_0_2" d="M.051986696 .06642151C.06199646 .047409059 .07598877 .030395508 .09199524 .01638794 .12098694-.009613037 .16099549-.016601563 .19898987-.016601563 .2559967-.016601563 .31199647 .0023956299 .35099793 .044403078 .375 .06941223 .3869934 .10343933 .3869934 .13845825 .3869934 .1634674 .37298585 .18649292 .35499574 .20449829 .34098817 .21850586 .3039856 .24052429 .27198792 .25453187 .24299622 .26654054 .19999695 .2885437 .18798828 .30055238 .17298889 .31655885 .1619873 .3285675 .1619873 .35058595 .1619873 .3725891 .16899109 .39360047 .18499756 .4086151 .19999695 .42362977 .22200012 .43164063 .24398804 .43164063 .2639923 .43164063 .2849884 .42462159 .29599 .4066162 .30599977 .39060975 .30799867 .3715973 .30899049 .35359193L.32099916 .34657289 .37599183 .38360597C.375 .40560914 .3639984 .42662049 .34799195 .44163514 .32499696 .46263124 .29299928 .46662904 .2630005 .46662904 .21398926 .46662904 .16699219 .45063783 .1309967 .4176178 .10398865 .39360047 .08999634 .35858155 .08999634 .32356263 .08999634 .29154969 .10798645 .26353456 .1309967 .2425232 .1539917 .22250366 .18399048 .2084961 .21499634 .1954956 .24099732 .18447876 .2689972 .17248535 .28799439 .1534729 .30299378 .13845825 .31399537 .11845398 .31399537 .09744263 .31399537 .079422 .30499269 .062408449 .29299928 .04940796 .27799989 .03340149 .25099183 .021392823 .22898865 .021392823 .19898987 .021392823 .17199707 .03439331 .1499939 .055404664 .1269989 .076416019 .116989139 .10644531 .114990238 .13645935L.100997928 .13745117 .051986696 .06642151Z"/>
<path id="font_0_3" d="M.04598999 .23632813H.35598756V-.07368469L.3959961-.06668091V.23632813H.70399478L.70899966 .2763214H.3959961V.58631899L.35598756 .58032229V.2763214H.052993776L.04598999 .23632813Z"/>
<path id="font_0_4" d="M.011993408 .001953125H.44898988L.47200013 .079940799 .46699525 .08795166H.1579895C.15299988 .08795166 .147995 .08894348 .1459961 .092941287 .14498902 .094940189 .1459961 .09794617 .14698792 .09895325 .19699097 .1569519 .24499512 .21495056 .2899933 .27496339 .32199098 .31697084 .35299684 .358963 .37799073 .40496827 .4039917 .4509735 .42599488 .49998475 .42599488 .5529938 .42599488 .59399417 .4139862 .6349945 .38398744 .66400149 .35499574 .69299319 .31599427 .7080078 .2749939 .7080078 .23699951 .7080078 .20098877 .6970062 .16799927 .67900088 .12799073 .65800479 .09399414 .6279907 .06399536 .59498599L.083999637 .57598879C.10798645 .59599307 .12998963 .61099246 .1579895 .6259918 .1769867 .6360016 .19898987 .6399994 .22099304 .6399994 .25 .6399994 .27999879 .6289978 .2999878 .6069946 .32798768 .5779877 .33399964 .5369873 .33399964 .50798037 .33399964 .4429779 .31098939 .38197328 .27598573 .3259735 .24798584 .27996827 .21299744 .23796082 .17799378 .19696045 .125 .13494873 .068984989 .07594299 .011993408 .017944336V.001953125Z"/>
<path id="font_0_5" d="M.033996583 .6733093 .035995485 .6533203C.037994386 .6533203 .07398987 .6443176 .09199524 .63931277 .12298584 .6313019 .125 .6222992 .125 .54229739 .125 .46427918 .12199402 .38627626 .12199402 .30825807 .12199402 .24723816 .12399292 .17323303 .12998963 .12721253 .1349945 .08821106 .1559906-.0087890629 .31399537-.0087890629 .39698792-.0087890629 .47698976 .02520752 .5469971 .07020569L.5549927 .064208988C.5549927 .048202516 .5549927 .032196046 .55599978 .016204834 .55799868 .0012054443 .57598879-.0047912599 .58799746-.0047912599 .61898806-.0047912599 .6899872 .016204834 .7409973 .032196046L.74598696 .03919983 .74198916 .05619812C.7220001 .05419922 .70399478 .048202516 .6839905 .048202516 .673996 .048202516 .6609955 .050201417 .6539917 .0592041 .6389923 .07620239 .6359863 .15222168 .6359863 .20223999 .6359863 .3642578 .6369934 .5733032 .6519928 .68733218L.6459961 .69433596 .55799868 .659317C.55599978 .47727967 .55400088 .2942505 .55400088 .11122131 .5 .079208377 .43998719 .052200319 .37799073 .052200319 .24598694 .052200319 .22399903 .13922119 .21598816 .16522217 .20599365 .19923401 .20199585 .23423767 .20199585 .26924134L.20999146 .54229739C.20999146 .55929568 .21598816 .6603241 .21798706 .67433169L.21099854 .6803131H.041992189L.033996583 .6733093Z"/>
<path id="font_0_6" d="M.11299133 .24990845C.11299133 .007904053 .1519928-.09008789 .18299866-.13310242 .21099854-.17008972 .25299073-.20809937 .30099488-.21209717V-.1880951C.2809906-.18409729 .25099183-.16809082 .23399353-.1481018 .21998596-.13209534 .16499329-.05809021 .16499329 .24990845 .16499329 .4618988 .19799805 .5659027 .21998596 .6128998 .23599243 .6469116 .2689972 .6769104 .30099488 .684906V.71191409C.2599945 .7049103 .21598816 .6729126 .19099427 .63790896 .1599884 .5919037 .11299133 .4748993 .11299133 .24990845Z"/>
<path id="font_0_7" d="M.085998538-.1880951V-.21209717C.13398743-.20610047 .1789856-.17208863 .20698548-.13510132 .23799134-.09210205 .27598573 .007904053 .27598573 .24990845 .27598573 .50090029 .22399903 .5919037 .19299317 .63790896 .16799927 .6729126 .1269989 .7049103 .085998538 .71191409V.684906C.117996219 .6759033 .14898682 .6469116 .16499329 .6128998 .18699646 .5659027 .22399903 .48190309 .22399903 .24990845 .22399903-.099090579 .17199707-.13209534 .1579895-.1481018 .14099121-.16809082 .10598755-.18409729 .085998538-.1880951Z"/>
<path id="font_0_8" d="M.053985597 .13186646H.71598818L.7220001 .171875H.06098938L.053985597 .13186646M.053985597 .328125H.71598818L.7220001 .3681183H.06098938L.053985597 .328125Z"/>
<path id="font_0_9" d="M.022994996 .6513672C.036987306 .649353 .049987794 .6463623 .06298828 .6433563 .07199097 .6413574 .07998657 .6353607 .085998538 .62835696 .09599304 .61834719 .102996829 .60635378 .10899353 .5943451L.2579956 .29930116C.2579956 .19927979 .2579956 .0982666 .25498963-.0017547608L.2659912-.0107421879 .35598756 .018249512 .34700013 .30630494C.42999269 .4343109 .5039978 .5303345 .61499026 .675354L.61099246 .6933594 .526001 .6763611C.48999024 .619339 .4059906 .47431947 .397995 .46032716 .3849945 .4373169 .34199525 .36730958 .33898927 .3623047 .33599855 .3572998 .33198548 .353302 .32798768 .353302 .32199098 .353302 .31698609 .3592987 .31599427 .36131288L.1749878 .6863556H.02999878L.022994996 .67936709V.6513672Z"/>
</defs>
<use data-text="1" xlink:href="#font_0_1" transform="matrix(21.519089,0,0,-21.519562,214.01671,38.424486)"/>
<path transform="matrix(1.4999852,0,0,-1.5000182,196.21175,44.279554)" stroke-width=".574019" stroke-linecap="butt" stroke-miterlimit="10" stroke-linejoin="miter" fill="none" stroke="#000000" d="M0 0H30.901089"/>
<use data-text="s" xlink:href="#font_0_2" transform="matrix(21.519089,0,0,-21.519562,196.21175,60.897615)"/>
<use data-text="+" xlink:href="#font_0_3" transform="matrix(21.519089,0,0,-21.519562,210.78493,60.897615)"/>
<use data-text="2" xlink:href="#font_0_4" transform="matrix(21.519089,0,0,-21.519562,231.8138,60.897615)"/>
<path transform="matrix(1,0,0,-1,219.38729,44.280069)" stroke-width=".75" stroke-linecap="round" stroke-linejoin="round" fill="none" stroke="#000000" d="M-45.16661-36.23375C-45.29878-35.242158-44.943368-36.938474-45.232294-35.85778-15.68454-36.230363 14.65235-35.479089 45.51666-36.766584 59.451055-36.433237 58.927469-37.011007 59.891866-21.961325 59.149755-7.626905 59.18432 7.250876 60.277349 21.918063 59.427614 35.4791 60.578004 35.356557 44.24825 35.890855 14.222194 35.292078-15.093386 36.99145-44.444677 37.091215-60.29879 35.80989-60.09881 36.78195-59.016084 21.953703-60.238176 6.240354-58.915327-6.177992-60.368944-21.354262-59.333364-36.66693-59.85212-36.49352-45.16661-36.23375Z"/>
<path transform="matrix(1,0,0,-1,219.38729,44.280069)" stroke-width=".75" stroke-linecap="round" stroke-linejoin="round" fill="none" stroke="#000000" d="M-123.61305-.409023C-103.61528 .015176-82.77875 .107015-62.34572-.295635"/>
<path transform="matrix(1,0,0,-1,219.38729,44.280069)" stroke-width=".75" stroke-linecap="round" stroke-linejoin="round" fill="none" stroke="#000000" d="M-75.50844-8.172855C-71.93491-3.992553-67.823497-.963461-62.652044-.106642-67.962238 .984709-72.3881 4.129264-75.0642 7.750808"/>
<path transform="matrix(1,0,0,-1,219.38729,44.280069)" stroke-width=".75" stroke-linecap="round" stroke-linejoin="round" fill="none" stroke="#000000" d="M59.768148 .154417C81.280208 .288432 101.938068 .247771 123.94467 .304318"/>
<path transform="matrix(1,0,0,-1,219.38729,44.280069)" stroke-width=".75" stroke-linecap="round" stroke-linejoin="round" fill="none" stroke="#000000" d="M111.0823-8.448663C114.05021-4.018136 118.21681-1.387127 123.623027 .263165 118.577 1.061475 113.820949 3.821998 111.12661 7.876949"/>
<path transform="matrix(1,0,0,-1,219.38729,44.280069)" stroke-width=".75" stroke-linecap="round" stroke-linejoin="round" fill="none" stroke="#000000" d="M-45.336606-35.951929C-43.90035-36.138959-45.434419-35.561845-44.23768-36.854749-15.051808-36.629907 14.356758-36.324716 44.35-35.328245 60.74571-36.3018 60.19416-36.84337 59.887449-20.239985 59.11499-6.922508 58.928956 8.021113 60.587797 22.14966 58.853075 35.701257 59.785478 35.38783 44.929155 36.27359 15.323242 36.80456-14.338322 35.833078-44.673517 35.313936-59.60743 36.201158-60.606374 36.91015-59.409269 21.147183-58.877855 7.080664-60.073034-7.820071-59.77393-20.770859-59.12752-37.115034-60.597227-36.098779-45.336606-35.951929Z"/>
<path transform="matrix(1,0,0,-1,219.38729,44.280069)" stroke-width=".75" stroke-linecap="round" stroke-linejoin="round" fill="none" stroke="#000000" d="M-123.25064-.416357C-103.20931-.036568-83.271938-.2851-63.12891 .306576"/>
<path transform="matrix(1,0,0,-1,219.38729,44.280069)" stroke-width=".75" stroke-linecap="round" stroke-linejoin="round" fill="none" stroke="#000000" d="M-75.131427-8.002711C-72.18559-4.19194-67.725559-1.530543-63.074117-.359587-67.98743 1.244441-72.2442 3.660957-75.6249 8.073501"/>
<path transform="matrix(1,0,0,-1,219.38729,44.280069)" stroke-width=".75" stroke-linecap="round" stroke-linejoin="round" fill="none" stroke="#000000" d="M59.971109-.042682C80.9508-.44215 102.37259 .087609 123.767879 .083079"/>
<path transform="matrix(1,0,0,-1,219.38729,44.280069)" stroke-width=".75" stroke-linecap="round" stroke-linejoin="round" fill="none" stroke="#000000" d="M110.97538-8.498946C113.68309-3.756493 118.69392-.902566 123.68695-.358362 118.37985 1.240611 113.88138 4.00479 110.55161 7.688611"/>
<path transform="matrix(1,0,0,-1,219.38729,44.280069)" stroke-width=".75" stroke-linecap="round" stroke-linejoin="round" fill="none" stroke="#000000" d="M-45.2357-35.892408C-44.89719-36.664678-44.963529-35.3623-45.555414-36.253179-14.320146-35.22111 15.436452-35.861246 45.71957-36.55669 59.151556-36.75425 58.91932-36.36101 60.05446-21.366509 60.291727-6.895359 59.214456 6.555869 59.115087 20.711333 60.130544 35.26829 58.822099 36.40881 44.205087 36.64867 14.831781 36.96966-14.838607 36.12394-45.33736 36.21885-59.21336 36.643774-59.513174 36.519369-59.472337 20.39563-60.599107 7.680467-59.725793-6.229262-60.128965-21.95446-59.40466-36.88448-59.962568-36.64426-45.2357-35.892408Z"/>
<path transform="matrix(1,0,0,-1,219.38729,44.280069)" stroke-width=".75" stroke-linecap="round" stroke-linejoin="round" fill="none" stroke="#000000" d="M-123.74289-.387305C-102.98955-.058623-82.97074-.133824-62.741899 .225712"/>
<path transform="matrix(1,0,0,-1,219.38729,44.280069)" stroke-width=".75" stroke-linecap="round" stroke-linejoin="round" fill="none" stroke="#000000" d="M-75.767848-7.651393C-72.16479-3.881026-67.98981-1.077974-62.97131-.342322-68.00529 1.377294-72.20526 4.247002-75.42591 7.869824"/>
<path transform="matrix(1,0,0,-1,219.38729,44.280069)" stroke-width=".75" stroke-linecap="round" stroke-linejoin="round" fill="none" stroke="#000000" d="M59.33444 .231864C81.0108-.113495 102.3283 .308864 123.10955 .007478"/>
<path transform="matrix(1,0,0,-1,219.38729,44.280069)" stroke-width=".75" stroke-linecap="round" stroke-linejoin="round" fill="none" stroke="#000000" d="M111.11468-8.486242C113.63554-3.994612 118.21048-.841102 123.8264-.429218 118.11343 1.515812 114.23463 3.799112 110.65875 8.384375"/>
<path transform="matrix(1,0,0,-1,219.38729,44.280069)" stroke-width=".75" stroke-linecap="round" stroke-linejoin="round" fill="none" stroke="#000000" d="M-44.2711-35.88192C-44.669038-35.230985-45.20884-36.19794-45.297235-36.089704-14.927817-35.88718 14.786267-37.04631 44.577596-36.415655 60.348146-37.045934 59.45017-36.690149 58.81714-21.698895 59.900518-7.499397 59.958326 6.62811 59.45667 20.957907 59.474645 35.21808 59.06323 36.01186 45.446527 35.45571 14.452157 36.52791-15.534089 36.36809-43.84993 36.453619-60.491815 36.58846-60.62904 35.932985-59.742567 20.924885-59.729787 6.937465-58.982656-7.290419-60.537496-21.643282-60.655477-35.577016-59.547018-36.02111-44.2711-35.88192Z"/>
<path transform="matrix(1,0,0,-1,219.38729,44.280069)" stroke-width=".75" stroke-linecap="round" stroke-linejoin="round" fill="none" stroke="#000000" d="M-123.306888-.382225C-103.31414 .046818-82.79274 .084961-62.594114 .439059"/>
<path transform="matrix(1,0,0,-1,219.38729,44.280069)" stroke-width=".75" stroke-linecap="round" stroke-linejoin="round" fill="none" stroke="#000000" d="M-75.03006-8.216637C-72.58848-3.729164-67.62974-1.538055-63.15808 .218539-68.09472 1.118858-72.58202 3.791201-75.44552 8.292349"/>
<path transform="matrix(1,0,0,-1,219.38729,44.280069)" stroke-width=".75" stroke-linecap="round" stroke-linejoin="round" fill="none" stroke="#000000" d="M59.89384 .04692C80.94886 .305922 102.23024 .311492 123.34319-.218726"/>
<path transform="matrix(1,0,0,-1,219.38729,44.280069)" stroke-width=".75" stroke-linecap="round" stroke-linejoin="round" fill="none" stroke="#000000" d="M111.23177-7.623199C114.10276-3.844847 118.72554-1.458408 123.20062 .220685 118.97705 1.055713 114.32545 4.410207 111.17227 8.431591"/>
<path transform="matrix(1,0,0,-1,219.38729,44.280069)" stroke-width=".75" stroke-linecap="round" stroke-linejoin="round" fill="none" stroke="#000000" d="M-44.900884-36.405836C-43.8349-35.643377-45.02197-35.78968-44.8788-36.405187-14.515248-36.944227 15.177535-36.68986 45.385824-36.64365 60.228963-35.33323 59.964799-36.787336 59.338167-21.593947 60.145753-6.796889 59.707258 7.793668 58.986417 20.298577 59.798898 36.79351 60.622865 36.446874 45.058698 36.884286 14.741857 35.324396-14.077997 35.802839-44.695695 36.7147-59.684808 35.94327-59.598394 35.445447-59.061227 22.0291-60.243734 7.97482-59.5813-7.666124-59.003568-20.647505-60.561029-36.717489-59.42784-36.10761-44.900884-36.405836Z"/>
<path transform="matrix(1,0,0,-1,219.38729,44.280069)" stroke-width=".75" stroke-linecap="round" stroke-linejoin="round" fill="none" stroke="#000000" d="M-123.5616 .117875C-103.42409-.022397-83.373989-.008766-62.44249 .18917"/>
<path transform="matrix(1,0,0,-1,219.38729,44.280069)" stroke-width=".75" stroke-linecap="round" stroke-linejoin="round" fill="none" stroke="#000000" d="M-75.11109-7.868065C-72.69414-3.597623-67.35171-1.039989-62.60893 .392244-68.145809 1.002052-72.258388 3.684258-75.31415 7.683523"/>
<path transform="matrix(1,0,0,-1,219.38729,44.280069)" stroke-width=".75" stroke-linecap="round" stroke-linejoin="round" fill="none" stroke="#000000" d="M59.76236-.158011C80.90434 .219322 102.27698-.050644 123.772838-.091587"/>
<path transform="matrix(1,0,0,-1,219.38729,44.280069)" stroke-width=".75" stroke-linecap="round" stroke-linejoin="round" fill="none" stroke="#000000" d="M110.863849-8.455266C114.400508-3.595288 118.43217-1.569258 123.94336 .379731 118.33648 .708747 113.9187 3.78216 111.25682 8.36681"/>
<use data-text="U" xlink:href="#font_0_5" transform="matrix(21.518992,0,0,-21.519562,6.8142855,49.66105)"/>
<use data-text="(" xlink:href="#font_0_6" transform="matrix(21.518992,0,0,-21.519562,23.469988,49.66105)"/>
<use data-text="s" xlink:href="#font_0_2" transform="matrix(21.518992,0,0,-21.519562,33.014955,49.66105)"/>
<use data-text=")" xlink:href="#font_0_7" transform="matrix(21.518992,0,0,-21.519562,44.001695,49.66105)"/>
<use data-text="=" xlink:href="#font_0_8" transform="matrix(21.518992,0,0,-21.519562,58.328607,49.66105)"/>
<use data-text="1" xlink:href="#font_0_1" transform="matrix(21.518992,0,0,-21.519562,80.59201,38.424486)"/>
<path transform="matrix(1.4999786,0,0,-1.5000182,80.59201,44.279554)" stroke-width=".574019" stroke-linecap="butt" stroke-linejoin="round" fill="none" stroke="#000000" d="M0 0H7.160891"/>
<use data-text="s" xlink:href="#font_0_2" transform="matrix(21.518992,0,0,-21.519562,81.06557,60.897615)"/>
<use data-text="Y" xlink:href="#font_0_9" transform="matrix(21.520335,0,0,-21.519562,347.44117,49.66105)"/>
<use data-text="(" xlink:href="#font_0_6" transform="matrix(21.520335,0,0,-21.519562,360.59046,49.66105)"/>
<use data-text="s" xlink:href="#font_0_2" transform="matrix(21.520335,0,0,-21.519562,370.13606,49.66105)"/>
<use data-text=")" xlink:href="#font_0_7" transform="matrix(21.520335,0,0,-21.519562,381.12348,49.66105)"/>
<use data-text="=" xlink:href="#font_0_8" transform="matrix(21.520335,0,0,-21.519562,395.4513,49.66105)"/>
<use data-text="1" xlink:href="#font_0_1" transform="matrix(21.520335,0,0,-21.519562,449.96589,38.424486)"/>
<path transform="matrix(1.5000721,0,0,-1.5000182,417.7146,44.279554)" stroke-width=".574019" stroke-linecap="butt" stroke-linejoin="round" fill="none" stroke="#000000" d="M0 0H50.16056"/>
<use data-text="s" xlink:href="#font_0_2" transform="matrix(21.520335,0,0,-21.519562,417.7146,60.897615)"/>
<use data-text="(" xlink:href="#font_0_6" transform="matrix(21.520335,0,0,-21.519562,427.50636,60.897615)"/>
<use data-text="s" xlink:href="#font_0_2" transform="matrix(21.520335,0,0,-21.519562,437.05189,60.897615)"/>
<use data-text="+" xlink:href="#font_0_3" transform="matrix(21.520335,0,0,-21.519562,451.62593,60.897615)"/>
<use data-text="2" xlink:href="#font_0_4" transform="matrix(21.520335,0,0,-21.519562,472.65608,60.897615)"/>
<use data-text=")" xlink:href="#font_0_7" transform="matrix(21.520335,0,0,-21.519562,484.5904,60.897615)"/>
</svg>
