<svg xmlns="http://www.w3.org/2000/svg" xmlns:xlink="http://www.w3.org/1999/xlink" xmlns:inkscape="http://www.inkscape.org/namespaces/inkscape" version="1.1" width="520.098" height="86.74033" viewBox="0 0 520.098 86.74033">
<defs>
<path id="font_1_10" d="M.04899597 .6591797C.049987794 .6591797 .08999634 .647171 .10998535 .6411743 .116989139 .63916018 .12098694 .63217166 .12399292 .62615969 .12799073 .61616519 .1289978 .6051636 .1289978 .59516909V.14816284L.12599182 .001159668 .13699341-.0038452149 .21798706 .025161744C.21199036 .122161868 .21199036 .22015381 .21199036 .318161L.22099304 .3191681C.32899476 .2101593 .44099427 .105163577 .54599-.0068359377L.6309967 .024154664 .6319885 .03515625C.57099917 .089157108 .4059906 .25315858 .29899598 .36016847 .29499818 .36416627 .2939911 .36616517 .2939911 .36915589 .2939911 .37216188 .29899598 .37716676 .3019867 .38015748L.59298709 .6741791 .59399417 .6831665H.5039978L.21699524 .35716249 .20899964 .35816957C.20899964 .4711609 .21398926 .59916689 .21598816 .62615969 .21598816 .62716677 .21998596 .6641693 .22399903 .676178L.21699524 .6831665H.05899048L.050994874 .676178 .04899597 .6591797Z"/>
<path id="font_1_11" d="M.08799744 .19340515C.08799744 .13534546 .09700012 .075302127 .1349945 .030273438 .1599884 .0012664795 .19799805-.01171875 .23498535-.01171875 .2630005-.01171875 .2889862-.0037231446 .31399537 .0062713625 .34399415 .01828003 .36999513 .03327942 .397995 .05126953L.41299439 .04727173C.41600038 .030273438 .4189911 .016281128 .42999269 .0032806397 .43998719-.008728027 .45599366-.01171875 .46998597-.01171875 .5019989-.01171875 .55599978 .022277832 .59599307 .046279909L.58898928 .07029724C.56799319 .062286378 .5379944 .05227661 .5239868 .05227661 .5139923 .05227661 .5029907 .056274415 .49798585 .06529236 .48799134 .08129883 .4850006 .10832214 .4850006 .23945618 .4850006 .31251527 .4869995 .3855896 .4909973 .45762635L.48599244 .46263124 .43299867 .43164063C.40098573 .45463563 .35798646 .46662904 .32598878 .46662904 .2669983 .46662904 .20899964 .44963075 .1659851 .4086151 .10899353 .35255433 .08799744 .2724762 .08799744 .19340515M.17799378 .21542359C.18099976 .31652833 .20799256 .37257386 .23199463 .39360047 .2579956 .41862489 .29100038 .43164063 .32699586 .43164063 .35198976 .43164063 .3769989 .4176178 .394989 .39860536 .41099549 .38157655 .41099549 .3555603 .41099549 .3295288V.09931946C.3909912 .08430481 .3809967 .07829285 .3600006 .06828308 .34498597 .061279298 .32199098 .054275514 .30499269 .054275514 .2679901 .054275514 .22698975 .062286378 .20599365 .095321658 .18299866 .13034058 .17799378 .17338562 .17799378 .21542359Z"/>
<path id="font_1_2" d="M.051986696 .06642151C.06199646 .047409059 .07598877 .030395508 .09199524 .01638794 .12098694-.009613037 .16099549-.016601563 .19898987-.016601563 .2559967-.016601563 .31199647 .0023956299 .35099793 .044403078 .375 .06941223 .3869934 .10343933 .3869934 .13845825 .3869934 .1634674 .37298585 .18649292 .35499574 .20449829 .34098817 .21850586 .3039856 .24052429 .27198792 .25453187 .24299622 .26654054 .19999695 .2885437 .18798828 .30055238 .17298889 .31655885 .1619873 .3285675 .1619873 .35058595 .1619873 .3725891 .16899109 .39360047 .18499756 .4086151 .19999695 .42362977 .22200012 .43164063 .24398804 .43164063 .2639923 .43164063 .2849884 .42462159 .29599 .4066162 .30599977 .39060975 .30799867 .3715973 .30899049 .35359193L.32099916 .34657289 .37599183 .38360597C.375 .40560914 .3639984 .42662049 .34799195 .44163514 .32499696 .46263124 .29299928 .46662904 .2630005 .46662904 .21398926 .46662904 .16699219 .45063783 .1309967 .4176178 .10398865 .39360047 .08999634 .35858155 .08999634 .32356263 .08999634 .29154969 .10798645 .26353456 .1309967 .2425232 .1539917 .22250366 .18399048 .2084961 .21499634 .1954956 .24099732 .18447876 .2689972 .17248535 .28799439 .1534729 .30299378 .13845825 .31399537 .11845398 .31399537 .09744263 .31399537 .079422 .30499269 .062408449 .29299928 .04940796 .27799989 .03340149 .25099183 .021392823 .22898865 .021392823 .19898987 .021392823 .17199707 .03439331 .1499939 .055404664 .1269989 .076416019 .116989139 .10644531 .114990238 .13645935L.100997928 .13745117 .051986696 .06642151Z"/>
<path id="font_1_3" d="M.04598999 .23632813H.35598756V-.07368469L.3959961-.06668091V.23632813H.70399478L.70899966 .2763214H.3959961V.58631899L.35598756 .58032229V.2763214H.052993776L.04598999 .23632813Z"/>
<path id="font_1_5" d="M.033996583 .6733093 .035995485 .6533203C.037994386 .6533203 .07398987 .6443176 .09199524 .63931277 .12298584 .6313019 .125 .6222992 .125 .54229739 .125 .46427918 .12199402 .38627626 .12199402 .30825807 .12199402 .24723816 .12399292 .17323303 .12998963 .12721253 .1349945 .08821106 .1559906-.0087890629 .31399537-.0087890629 .39698792-.0087890629 .47698976 .02520752 .5469971 .07020569L.5549927 .064208988C.5549927 .048202516 .5549927 .032196046 .55599978 .016204834 .55799868 .0012054443 .57598879-.0047912599 .58799746-.0047912599 .61898806-.0047912599 .6899872 .016204834 .7409973 .032196046L.74598696 .03919983 .74198916 .05619812C.7220001 .05419922 .70399478 .048202516 .6839905 .048202516 .673996 .048202516 .6609955 .050201417 .6539917 .0592041 .6389923 .07620239 .6359863 .15222168 .6359863 .20223999 .6359863 .3642578 .6369934 .5733032 .6519928 .68733218L.6459961 .69433596 .55799868 .659317C.55599978 .47727967 .55400088 .2942505 .55400088 .11122131 .5 .079208377 .43998719 .052200319 .37799073 .052200319 .24598694 .052200319 .22399903 .13922119 .21598816 .16522217 .20599365 .19923401 .20199585 .23423767 .20199585 .26924134L.20999146 .54229739C.20999146 .55929568 .21598816 .6603241 .21798706 .67433169L.21099854 .6803131H.041992189L.033996583 .6733093Z"/>
<path id="font_1_6" d="M.11299133 .24990845C.11299133 .007904053 .1519928-.09008789 .18299866-.13310242 .21099854-.17008972 .25299073-.20809937 .30099488-.21209717V-.1880951C.2809906-.18409729 .25099183-.16809082 .23399353-.1481018 .21998596-.13209534 .16499329-.05809021 .16499329 .24990845 .16499329 .4618988 .19799805 .5659027 .21998596 .6128998 .23599243 .6469116 .2689972 .6769104 .30099488 .684906V.71191409C.2599945 .7049103 .21598816 .6729126 .19099427 .63790896 .1599884 .5919037 .11299133 .4748993 .11299133 .24990845Z"/>
<path id="font_1_7" d="M.085998538-.1880951V-.21209717C.13398743-.20610047 .1789856-.17208863 .20698548-.13510132 .23799134-.09210205 .27598573 .007904053 .27598573 .24990845 .27598573 .50090029 .22399903 .5919037 .19299317 .63790896 .16799927 .6729126 .1269989 .7049103 .085998538 .71191409V.684906C.117996219 .6759033 .14898682 .6469116 .16499329 .6128998 .18699646 .5659027 .22399903 .48190309 .22399903 .24990845 .22399903-.099090579 .17199707-.13209534 .1579895-.1481018 .14099121-.16809082 .10598755-.18409729 .085998538-.1880951Z"/>
<path id="font_1_8" d="M.053985597 .13186646H.71598818L.7220001 .171875H.06098938L.053985597 .13186646M.053985597 .328125H.71598818L.7220001 .3681183H.06098938L.053985597 .328125Z"/>
<path id="font_1_1" d="M.09199524 .6121063H.1749878C.19999695 .6121063 .21998596 .5911102 .22099304 .56611636 .22200012 .5411072 .22200012 .46810914 .22200012 .41911317 .22200012 .27911378 .21899414 .13911438 .21398926 .00010681152L.22599793-.0048828127 .30999757 .022109986C.30699159 .09811401 .30699159 .29611207 .30699159 .43211366 .30699159 .52111819 .30899049 .6111145 .31399537 .70010378L.30799867 .7121124 .09199524 .6391144V.6121063Z"/>
<path id="font_1_9" d="M.022994996 .6513672C.036987306 .649353 .049987794 .6463623 .06298828 .6433563 .07199097 .6413574 .07998657 .6353607 .085998538 .62835696 .09599304 .61834719 .102996829 .60635378 .10899353 .5943451L.2579956 .29930116C.2579956 .19927979 .2579956 .0982666 .25498963-.0017547608L.2659912-.0107421879 .35598756 .018249512 .34700013 .30630494C.42999269 .4343109 .5039978 .5303345 .61499026 .675354L.61099246 .6933594 .526001 .6763611C.48999024 .619339 .4059906 .47431947 .397995 .46032716 .3849945 .4373169 .34199525 .36730958 .33898927 .3623047 .33599855 .3572998 .33198548 .353302 .32798768 .353302 .32199098 .353302 .31698609 .3592987 .31599427 .36131288L.1749878 .6863556H.02999878L.022994996 .67936709V.6513672Z"/>
</defs>
<use data-text="K" xlink:href="#font_1_10" transform="matrix(21.519545,0,0,-21.519562,186.04508,48.751146)"/>
<use data-text="a" xlink:href="#font_1_11" transform="matrix(21.519545,0,0,-21.519562,221.81638,37.51458)"/>
<path transform="matrix(1.500017,0,0,-1.5000182,204.01102,43.369649)" stroke-width=".574019" stroke-linecap="butt" stroke-miterlimit="10" stroke-linejoin="miter" fill="none" stroke="#000000" d="M0 0H32.47964"/>
<use data-text="s" xlink:href="#font_1_2" transform="matrix(21.519545,0,0,-21.519562,204.01102,59.987714)"/>
<use data-text="+" xlink:href="#font_1_3" transform="matrix(21.519545,0,0,-21.519562,218.5845,59.987714)"/>
<use data-text="a" xlink:href="#font_1_11" transform="matrix(21.519545,0,0,-21.519562,239.61383,59.987714)"/>
<path transform="matrix(1,0,0,-1,219.38729,43.37017)" stroke-width=".75" stroke-linecap="round" stroke-linejoin="round" fill="none" stroke="#000000" d="M-44.77584-36.181314V-36.181314H44.77584C59.77584-36.181314 59.77584-36.181314 59.77584-21.181313V21.181313C59.77584 36.181314 59.77584 36.181314 44.77584 36.181314H-44.77584C-59.77584 36.181314-59.77584 36.181314-59.77584 21.181313V-21.181313C-59.77584-36.181314-59.77584-36.181314-44.77584-36.181314Z"/>
<path transform="matrix(1,0,0,-1,219.38729,43.37017)" stroke-width=".75" stroke-linecap="round" stroke-linejoin="round" fill="none" stroke="#000000" d="M-123.55535 0H-62.77621"/>
<path transform="matrix(1,0,0,-1,219.38729,43.37017)" stroke-width=".75" stroke-linecap="round" stroke-linejoin="round" fill="none" stroke="#000000" d="M-75.42711-8.059509C-72.257907-4.003114-67.791919-1.157967-62.77621 -0-67.791919 1.157967-72.257907 4.003114-75.42711 8.059509"/>
<path transform="matrix(1,0,0,-1,219.38729,43.37017)" stroke-width=".75" stroke-linecap="round" stroke-linejoin="round" fill="none" stroke="#000000" d="M59.77584 0H123.55535"/>
<path transform="matrix(1,0,0,-1,219.38729,43.37017)" stroke-width=".75" stroke-linecap="round" stroke-linejoin="round" fill="none" stroke="#000000" d="M110.904567-8.059442C114.07374-4.00308 118.53969-1.157957 123.55535 0 118.53969 1.157957 114.07374 4.00308 110.904567 8.059442"/>
<path transform="matrix(1,0,0,-1,219.38729,43.37017)" stroke-width=".75" stroke-linecap="round" stroke-linejoin="round" fill="none" stroke="#000000" d="M-44.77584-36.181314V-36.181314H44.77584C59.77584-36.181314 59.77584-36.181314 59.77584-21.181313V21.181313C59.77584 36.181314 59.77584 36.181314 44.77584 36.181314H-44.77584C-59.77584 36.181314-59.77584 36.181314-59.77584 21.181313V-21.181313C-59.77584-36.181314-59.77584-36.181314-44.77584-36.181314Z"/>
<path transform="matrix(1,0,0,-1,219.38729,43.37017)" stroke-width=".75" stroke-linecap="round" stroke-linejoin="round" fill="none" stroke="#000000" d="M-123.55535 0H-62.77621"/>
<path transform="matrix(1,0,0,-1,219.38729,43.37017)" stroke-width=".75" stroke-linecap="round" stroke-linejoin="round" fill="none" stroke="#000000" d="M-75.42711-8.059509C-72.257907-4.003114-67.791919-1.157967-62.77621 -0-67.791919 1.157967-72.257907 4.003114-75.42711 8.059509"/>
<path transform="matrix(1,0,0,-1,219.38729,43.37017)" stroke-width=".75" stroke-linecap="round" stroke-linejoin="round" fill="none" stroke="#000000" d="M59.77584 0H123.55535"/>
<path transform="matrix(1,0,0,-1,219.38729,43.37017)" stroke-width=".75" stroke-linecap="round" stroke-linejoin="round" fill="none" stroke="#000000" d="M110.904567-8.059442C114.07374-4.00308 118.53969-1.157957 123.55535 0 118.53969 1.157957 114.07374 4.00308 110.904567 8.059442"/>
<path transform="matrix(1,0,0,-1,219.38729,43.37017)" stroke-width=".75" stroke-linecap="round" stroke-linejoin="round" fill="none" stroke="#000000" d="M-44.77584-36.181314V-36.181314H44.77584C59.77584-36.181314 59.77584-36.181314 59.77584-21.181313V21.181313C59.77584 36.181314 59.77584 36.181314 44.77584 36.181314H-44.77584C-59.77584 36.181314-59.77584 36.181314-59.77584 21.181313V-21.181313C-59.77584-36.181314-59.77584-36.181314-44.77584-36.181314Z"/>
<path transform="matrix(1,0,0,-1,219.38729,43.37017)" stroke-width=".75" stroke-linecap="round" stroke-linejoin="round" fill="none" stroke="#000000" d="M-123.55535 0H-62.77621"/>
<path transform="matrix(1,0,0,-1,219.38729,43.37017)" stroke-width=".75" stroke-linecap="round" stroke-linejoin="round" fill="none" stroke="#000000" d="M-75.42711-8.059509C-72.257907-4.003114-67.791919-1.157967-62.77621 -0-67.791919 1.157967-72.257907 4.003114-75.42711 8.059509"/>
<path transform="matrix(1,0,0,-1,219.38729,43.37017)" stroke-width=".75" stroke-linecap="round" stroke-linejoin="round" fill="none" stroke="#000000" d="M59.77584 0H123.55535"/>
<path transform="matrix(1,0,0,-1,219.38729,43.37017)" stroke-width=".75" stroke-linecap="round" stroke-linejoin="round" fill="none" stroke="#000000" d="M110.904567-8.059442C114.07374-4.00308 118.53969-1.157957 123.55535 0 118.53969 1.157957 114.07374 4.00308 110.904567 8.059442"/>
<path transform="matrix(1,0,0,-1,219.38729,43.37017)" stroke-width=".75" stroke-linecap="round" stroke-linejoin="round" fill="none" stroke="#000000" d="M-44.77584-36.181314V-36.181314H44.77584C59.77584-36.181314 59.77584-36.181314 59.77584-21.181313V21.181313C59.77584 36.181314 59.77584 36.181314 44.77584 36.181314H-44.77584C-59.77584 36.181314-59.77584 36.181314-59.77584 21.181313V-21.181313C-59.77584-36.181314-59.77584-36.181314-44.77584-36.181314Z"/>
<path transform="matrix(1,0,0,-1,219.38729,43.37017)" stroke-width=".75" stroke-linecap="round" stroke-linejoin="round" fill="none" stroke="#000000" d="M-123.55535 0H-62.77621"/>
<path transform="matrix(1,0,0,-1,219.38729,43.37017)" stroke-width=".75" stroke-linecap="round" stroke-linejoin="round" fill="none" stroke="#000000" d="M-75.42711-8.059509C-72.257907-4.003114-67.791919-1.157967-62.77621 -0-67.791919 1.157967-72.257907 4.003114-75.42711 8.059509"/>
<path transform="matrix(1,0,0,-1,219.38729,43.37017)" stroke-width=".75" stroke-linecap="round" stroke-linejoin="round" fill="none" stroke="#000000" d="M59.77584 0H123.55535"/>
<path transform="matrix(1,0,0,-1,219.38729,43.37017)" stroke-width=".75" stroke-linecap="round" stroke-linejoin="round" fill="none" stroke="#000000" d="M110.904567-8.059442C114.07374-4.00308 118.53969-1.157957 123.55535 0 118.53969 1.157957 114.07374 4.00308 110.904567 8.059442"/>
<path transform="matrix(1,0,0,-1,219.38729,43.37017)" stroke-width=".75" stroke-linecap="round" stroke-linejoin="round" fill="none" stroke="#000000" d="M-44.77584-36.181314V-36.181314H44.77584C59.77584-36.181314 59.77584-36.181314 59.77584-21.181313V21.181313C59.77584 36.181314 59.77584 36.181314 44.77584 36.181314H-44.77584C-59.77584 36.181314-59.77584 36.181314-59.77584 21.181313V-21.181313C-59.77584-36.181314-59.77584-36.181314-44.77584-36.181314Z"/>
<path transform="matrix(1,0,0,-1,219.38729,43.37017)" stroke-width=".75" stroke-linecap="round" stroke-linejoin="round" fill="none" stroke="#000000" d="M-123.55535 0H-62.77621"/>
<path transform="matrix(1,0,0,-1,219.38729,43.37017)" stroke-width=".75" stroke-linecap="round" stroke-linejoin="round" fill="none" stroke="#000000" d="M-75.42711-8.059509C-72.257907-4.003114-67.791919-1.157967-62.77621 -0-67.791919 1.157967-72.257907 4.003114-75.42711 8.059509"/>
<path transform="matrix(1,0,0,-1,219.38729,43.37017)" stroke-width=".75" stroke-linecap="round" stroke-linejoin="round" fill="none" stroke="#000000" d="M59.77584 0H123.55535"/>
<path transform="matrix(1,0,0,-1,219.38729,43.37017)" stroke-width=".75" stroke-linecap="round" stroke-linejoin="round" fill="none" stroke="#000000" d="M110.904567-8.059442C114.07374-4.00308 118.53969-1.157957 123.55535 0 118.53969 1.157957 114.07374 4.00308 110.904567 8.059442"/>
<use data-text="U" xlink:href="#font_1_5" transform="matrix(21.518992,0,0,-21.519562,6.8142855,48.751146)"/>
<use data-text="(" xlink:href="#font_1_6" transform="matrix(21.518992,0,0,-21.519562,23.469988,48.751146)"/>
<use data-text="s" xlink:href="#font_1_2" transform="matrix(21.518992,0,0,-21.519562,33.014955,48.751146)"/>
<use data-text=")" xlink:href="#font_1_7" transform="matrix(21.518992,0,0,-21.519562,44.001695,48.751146)"/>
<use data-text="=" xlink:href="#font_1_8" transform="matrix(21.518992,0,0,-21.519562,58.328607,48.751146)"/>
<use data-text="1" xlink:href="#font_1_1" transform="matrix(21.518992,0,0,-21.519562,80.59201,37.51458)"/>
<path transform="matrix(1.4999786,0,0,-1.5000182,80.59201,43.369649)" stroke-width=".574019" stroke-linecap="butt" stroke-linejoin="round" fill="none" stroke="#000000" d="M0 0H7.160891"/>
<use data-text="s" xlink:href="#font_1_2" transform="matrix(21.518992,0,0,-21.519562,81.06557,59.987714)"/>
<use data-text="Y" xlink:href="#font_1_9" transform="matrix(21.520215,0,0,-21.519562,347.44117,48.751146)"/>
<use data-text="(" xlink:href="#font_1_6" transform="matrix(21.520215,0,0,-21.519562,360.59046,48.751146)"/>
<use data-text="s" xlink:href="#font_1_2" transform="matrix(21.520215,0,0,-21.519562,370.136,48.751146)"/>
<use data-text=")" xlink:href="#font_1_7" transform="matrix(21.520215,0,0,-21.519562,381.12336,48.751146)"/>
<use data-text="=" xlink:href="#font_1_8" transform="matrix(21.520215,0,0,-21.519562,395.45106,48.751146)"/>
<use data-text="K" xlink:href="#font_1_10" transform="matrix(21.520215,0,0,-21.519562,417.69819,48.751146)"/>
<use data-text="a" xlink:href="#font_1_11" transform="matrix(21.520215,0,0,-21.519562,467.9319,37.51458)"/>
<path transform="matrix(1.5000637,0,0,-1.5000182,435.68074,43.369649)" stroke-width=".574019" stroke-linecap="butt" stroke-linejoin="round" fill="none" stroke="#000000" d="M0 0H51.739114"/>
<use data-text="s" xlink:href="#font_1_2" transform="matrix(21.520215,0,0,-21.519562,435.68074,59.987714)"/>
<use data-text="(" xlink:href="#font_1_6" transform="matrix(21.520215,0,0,-21.519562,445.47248,59.987714)"/>
<use data-text="s" xlink:href="#font_1_2" transform="matrix(21.520215,0,0,-21.519562,455.01795,59.987714)"/>
<use data-text="+" xlink:href="#font_1_3" transform="matrix(21.520215,0,0,-21.519562,469.59193,59.987714)"/>
<use data-text="a" xlink:href="#font_1_11" transform="matrix(21.520215,0,0,-21.519562,490.6219,59.987714)"/>
<use data-text=")" xlink:href="#font_1_7" transform="matrix(21.520215,0,0,-21.519562,504.9234,59.987714)"/>
</svg>
