<?xml version="1.0" encoding="UTF-8"?>
<svg xmlns="http://www.w3.org/2000/svg" xmlns:xlink="http://www.w3.org/1999/xlink" width="425.297699" height="165.324074" viewBox="0 0 425.297699 165.324074">
<path fill-rule="nonzero" fill="rgb(0%, 0%, 0%)" fill-opacity="1" d="M 108.167969 37.132812 L 119.695312 37.132812 L 119.695312 48.664062 L 121.183594 48.402344 L 121.183594 37.132812 L 132.636719 37.132812 L 132.824219 35.648438 L 121.183594 35.648438 L 121.183594 24.121094 L 119.695312 24.34375 L 119.695312 35.648438 L 108.429688 35.648438 Z M 108.167969 37.132812 "/>
<path fill-rule="nonzero" fill="rgb(0%, 0%, 0%)" fill-opacity="1" d="M 222.859375 34.796875 C 222.859375 36.84375 223.398438 38.953125 224.863281 40.417969 C 226.023438 41.582031 227.636719 42.140625 229.273438 42.140625 C 230.84375 42.140625 233.167969 41.558594 235.0625 41.066406 C 235.0625 41.066406 234.996094 37.121094 234.953125 35.164062 L 229.015625 35.398438 L 229.015625 35.960938 L 229.144531 36.066406 C 230.304688 36.109375 231.683594 36.195312 232.628906 36.261719 C 233.234375 36.304688 233.234375 36.992188 233.234375 38.890625 C 233.234375 40.460938 233.167969 40.71875 232.800781 40.804688 C 232.136719 40.957031 231.46875 41.023438 230.78125 41.023438 C 229.101562 41.023438 227.507812 40.484375 226.5625 39.363281 C 225.3125 37.898438 224.796875 36.347656 224.796875 34.453125 C 224.796875 31.378906 225.917969 29.617188 226.539062 28.996094 C 227.464844 28.089844 228.734375 27.789062 230.003906 27.789062 C 232.824219 27.789062 233.683594 29.8125 233.964844 30.371094 L 234.222656 30.390625 L 235.472656 29.167969 C 235.234375 28.800781 234.09375 26.734375 230.972656 26.734375 C 228.714844 26.734375 226.453125 27.402344 224.839844 29.015625 C 223.335938 30.519531 222.859375 32.691406 222.859375 34.796875 Z M 222.859375 34.796875 "/>
<path fill-rule="nonzero" fill="rgb(0%, 0%, 0%)" fill-opacity="1" d="M 239.816406 36.40625 C 239.816406 41.613281 240.65625 43.722656 241.324219 44.648438 C 241.925781 45.441406 242.832031 46.261719 243.863281 46.347656 L 243.863281 45.832031 C 243.433594 45.746094 242.789062 45.398438 242.421875 44.96875 C 242.121094 44.625 240.9375 43.03125 240.9375 36.40625 C 240.9375 31.84375 241.648438 29.605469 242.121094 28.59375 C 242.464844 27.863281 243.175781 27.214844 243.863281 27.042969 L 243.863281 26.464844 C 242.980469 26.613281 242.035156 27.300781 241.496094 28.054688 C 240.828125 29.046875 239.816406 31.5625 239.816406 36.40625 Z M 239.816406 36.40625 "/>
<path fill-rule="nonzero" fill="rgb(0%, 0%, 0%)" fill-opacity="1" d="M 248.058594 40.355469 C 248.273438 40.761719 248.574219 41.128906 248.921875 41.429688 C 249.542969 41.988281 250.40625 42.140625 251.222656 42.140625 C 252.449219 42.140625 253.65625 41.730469 254.492188 40.828125 C 255.011719 40.289062 255.269531 39.558594 255.269531 38.804688 C 255.269531 38.265625 254.96875 37.769531 254.578125 37.382812 C 254.277344 37.082031 253.480469 36.605469 252.792969 36.304688 C 252.167969 36.046875 251.246094 35.574219 250.984375 35.316406 C 250.664062 34.972656 250.425781 34.710938 250.425781 34.238281 C 250.425781 33.765625 250.578125 33.3125 250.921875 32.988281 C 251.246094 32.667969 251.71875 32.496094 252.191406 32.496094 C 252.621094 32.496094 253.074219 32.644531 253.308594 33.03125 C 253.527344 33.378906 253.570312 33.785156 253.589844 34.175781 L 253.847656 34.324219 L 255.03125 33.527344 C 255.011719 33.054688 254.773438 32.601562 254.429688 32.28125 C 253.933594 31.828125 253.246094 31.742188 252.601562 31.742188 C 251.546875 31.742188 250.535156 32.085938 249.757812 32.796875 C 249.179688 33.3125 248.878906 34.066406 248.878906 34.820312 C 248.878906 35.507812 249.265625 36.113281 249.757812 36.5625 C 250.253906 36.996094 250.898438 37.296875 251.566406 37.574219 C 252.125 37.8125 252.730469 38.070312 253.136719 38.480469 C 253.460938 38.804688 253.699219 39.234375 253.699219 39.6875 C 253.699219 40.074219 253.503906 40.441406 253.246094 40.71875 C 252.921875 41.0625 252.34375 41.324219 251.867188 41.324219 C 251.222656 41.324219 250.640625 41.042969 250.167969 40.589844 C 249.671875 40.136719 249.457031 39.492188 249.414062 38.847656 L 249.113281 38.824219 Z M 248.058594 40.355469 "/>
<path fill-rule="nonzero" fill="rgb(0%, 0%, 0%)" fill-opacity="1" d="M 259.789062 45.832031 L 259.789062 46.347656 C 260.820312 46.21875 261.789062 45.484375 262.390625 44.691406 C 263.058594 43.765625 263.875 41.613281 263.875 36.40625 C 263.875 31.003906 262.757812 29.046875 262.089844 28.054688 C 261.550781 27.300781 260.667969 26.613281 259.789062 26.464844 L 259.789062 27.042969 C 260.476562 27.238281 261.144531 27.863281 261.488281 28.59375 C 261.960938 29.605469 262.757812 31.414062 262.757812 36.40625 C 262.757812 43.914062 261.636719 44.625 261.335938 44.96875 C 260.972656 45.398438 260.21875 45.746094 259.789062 45.832031 Z M 259.789062 45.832031 "/>
<path fill-rule="nonzero" fill="rgb(0%, 0%, 0%)" fill-opacity="1" d="M 221.847656 119.597656 L 221.871094 120.007812 C 222.300781 120.15625 223.074219 120.394531 223.160156 120.417969 C 223.378906 120.503906 223.421875 120.738281 223.441406 120.933594 C 223.550781 122.722656 223.570312 124.511719 223.570312 126.300781 C 223.570312 128.921875 223.570312 131.695312 223.355469 134.128906 L 223.484375 134.234375 L 225.464844 133.632812 C 225.398438 133.074219 225.355469 131.976562 225.355469 130.320312 L 225.355469 127.007812 C 225.355469 126.859375 225.484375 126.75 225.636719 126.75 L 233.019531 126.75 C 233.210938 126.75 233.277344 126.902344 233.277344 127.007812 C 233.277344 129.09375 233.210938 131.652344 233.167969 133.738281 L 233.40625 134.191406 L 236.613281 134.023438 L 236.742188 133.894531 L 236.71875 133.507812 C 236.332031 133.335938 235.0625 133.335938 235.0625 132.496094 C 235.0625 132.042969 234.976562 129.011719 234.976562 127.265625 C 234.976562 123.152344 235.148438 120.308594 235.210938 119.46875 L 235.105469 119.339844 L 233.210938 119.707031 C 233.210938 121.558594 233.277344 123.800781 233.277344 125.652344 C 233.277344 125.78125 233.253906 125.910156 233.019531 125.910156 L 225.570312 125.910156 C 225.355469 125.910156 225.3125 125.761719 225.3125 125.652344 C 225.3125 124.253906 225.398438 122.441406 225.441406 121.039062 C 225.464844 120.546875 225.507812 120.027344 225.59375 119.554688 L 225.484375 119.445312 L 222 119.445312 Z M 221.847656 119.597656 "/>
<path fill-rule="nonzero" fill="rgb(0%, 0%, 0%)" fill-opacity="1" d="M 240.011719 128.8125 C 240.011719 134.019531 240.851562 136.128906 241.519531 137.054688 C 242.121094 137.851562 243.023438 138.667969 244.058594 138.753906 L 244.058594 138.238281 C 243.625 138.152344 242.980469 137.808594 242.617188 137.378906 C 242.3125 137.035156 241.128906 135.441406 241.128906 128.8125 C 241.128906 124.25 241.839844 122.011719 242.3125 121.003906 C 242.660156 120.269531 243.367188 119.625 244.058594 119.453125 L 244.058594 118.871094 C 243.175781 119.023438 242.226562 119.710938 241.691406 120.464844 C 241.023438 121.453125 240.011719 123.972656 240.011719 128.8125 Z M 240.011719 128.8125 "/>
<path fill-rule="nonzero" fill="rgb(0%, 0%, 0%)" fill-opacity="1" d="M 248.253906 132.761719 C 248.46875 133.171875 248.769531 133.539062 249.113281 133.839844 C 249.738281 134.398438 250.597656 134.546875 251.417969 134.546875 C 252.644531 134.546875 253.847656 134.140625 254.6875 133.234375 C 255.203125 132.699219 255.460938 131.964844 255.460938 131.210938 C 255.460938 130.671875 255.160156 130.179688 254.773438 129.789062 C 254.472656 129.488281 253.675781 129.015625 252.988281 128.714844 C 252.363281 128.457031 251.4375 127.980469 251.179688 127.722656 C 250.855469 127.378906 250.621094 127.121094 250.621094 126.648438 C 250.621094 126.171875 250.769531 125.722656 251.117188 125.398438 C 251.4375 125.074219 251.910156 124.902344 252.386719 124.902344 C 252.816406 124.902344 253.265625 125.054688 253.503906 125.441406 C 253.71875 125.785156 253.761719 126.195312 253.785156 126.582031 L 254.042969 126.734375 L 255.226562 125.9375 C 255.203125 125.464844 254.96875 125.011719 254.621094 124.6875 C 254.128906 124.234375 253.441406 124.148438 252.792969 124.148438 C 251.738281 124.148438 250.726562 124.492188 249.953125 125.203125 C 249.371094 125.722656 249.070312 126.476562 249.070312 127.230469 C 249.070312 127.917969 249.457031 128.519531 249.953125 128.972656 C 250.449219 129.402344 251.09375 129.703125 251.761719 129.984375 C 252.320312 130.222656 252.921875 130.480469 253.332031 130.890625 C 253.65625 131.210938 253.890625 131.640625 253.890625 132.09375 C 253.890625 132.480469 253.699219 132.847656 253.441406 133.128906 C 253.117188 133.472656 252.535156 133.730469 252.0625 133.730469 C 251.417969 133.730469 250.835938 133.453125 250.363281 133 C 249.867188 132.546875 249.652344 131.902344 249.609375 131.253906 L 249.308594 131.234375 Z M 248.253906 132.761719 "/>
<path fill-rule="nonzero" fill="rgb(0%, 0%, 0%)" fill-opacity="1" d="M 259.980469 138.238281 L 259.980469 138.753906 C 261.015625 138.625 261.980469 137.894531 262.585938 137.097656 C 263.253906 136.171875 264.070312 134.019531 264.070312 128.8125 C 264.070312 123.414062 262.949219 121.453125 262.285156 120.464844 C 261.746094 119.710938 260.863281 119.023438 259.980469 118.871094 L 259.980469 119.453125 C 260.667969 119.644531 261.335938 120.269531 261.679688 121.003906 C 262.15625 122.011719 262.949219 123.820312 262.949219 128.8125 C 262.949219 136.324219 261.832031 137.035156 261.53125 137.378906 C 261.164062 137.808594 260.410156 138.152344 259.980469 138.238281 Z M 259.980469 138.238281 "/>
<path fill="none" stroke-width="0.5" stroke-linecap="round" stroke-linejoin="round" stroke="rgb(0%, 0%, 0%)" stroke-opacity="1" stroke-miterlimit="4" d="M 56.967448 -16.138405 C 73.313802 -16.286842 89.839844 -16.578509 107.347656 -16.271217 C 107.824219 -6.000384 107.511719 5.390241 107.68099 16.418887 C 90.022135 16.68972 74.115885 16.494408 57.22526 16.012637 C 57.39974 5.510033 56.342448 -5.750384 56.967448 -16.138405 Z M 56.967448 -16.138405 " transform="matrix(1.5, 0, 0, -1.5, 120.498047, 36.401768)"/>
<path fill="none" stroke-width="0.5" stroke-linecap="round" stroke-linejoin="round" stroke="rgb(0%, 0%, 0%)" stroke-opacity="1" stroke-miterlimit="4" d="M 56.21224 -77.883197 C 73.28776 -78.224342 90.136719 -78.474342 106.77474 -78.219134 C 107.095052 -67.588926 106.920573 -56.62278 107.311198 -44.406634 C 91.022135 -45.338926 74.147135 -44.661842 57.428385 -45.112363 C 57.436198 -56.013405 57.342448 -66.898822 56.21224 -77.883197 Z M 56.21224 -77.883197 " transform="matrix(1.5, 0, 0, -1.5, 120.498047, 36.401768)"/>
<path fill="none" stroke-width="0.5" stroke-linecap="round" stroke-linejoin="round" stroke="rgb(0%, 0%, 0%)" stroke-opacity="1" stroke-miterlimit="4" d="M 14.64974 0.168887 C 13.996094 7.866803 8.269531 14.184512 0.329427 14.851178 C -8.040365 14.874616 -14.108073 7.733991 -14.83724 -0.101947 C -14.352865 -8.604551 -7.626302 -14.77903 0.511719 -14.114967 C 7.608073 -14.177467 14.269531 -7.930072 14.64974 0.168887 Z M 14.64974 0.168887 " transform="matrix(1.5, 0, 0, -1.5, 120.498047, 36.401768)"/>
<path fill="none" stroke-width="0.5" stroke-linecap="round" stroke-linejoin="round" stroke="rgb(0%, 0%, 0%)" stroke-opacity="1" stroke-miterlimit="4" d="M -42.61849 -0.0238215 C -33.160156 0.236595 -23.766927 -0.219134 -14.490885 0.257428 " transform="matrix(1.5, 0, 0, -1.5, 120.498047, 36.401768)"/>
<path fill="none" stroke-width="0.5" stroke-linecap="round" stroke-linejoin="round" stroke="rgb(0%, 0%, 0%)" stroke-opacity="1" stroke-miterlimit="4" d="M -22.910156 -5.138405 C -20.990885 -2.43528 -17.535156 -1.055072 -14.68099 -0.0576757 C -18.040365 1.015241 -20.798177 2.528262 -23.05599 5.119408 " transform="matrix(1.5, 0, 0, -1.5, 120.498047, 36.401768)"/>
<path fill="none" stroke-width="0.5" stroke-linecap="round" stroke-linejoin="round" stroke="rgb(0%, 0%, 0%)" stroke-opacity="1" stroke-miterlimit="4" d="M 14.44401 0.166283 C 28.248698 -0.167051 42.488281 0.12722 56.764323 0.257428 " transform="matrix(1.5, 0, 0, -1.5, 120.498047, 36.401768)"/>
<path fill="none" stroke-width="0.5" stroke-linecap="round" stroke-linejoin="round" stroke="rgb(0%, 0%, 0%)" stroke-opacity="1" stroke-miterlimit="4" d="M 48.511719 -5.167051 C 50.170573 -2.906634 53.332031 -0.536842 56.701823 0.239199 C 53.095052 0.507428 50.300781 2.403262 48.201823 5.411074 " transform="matrix(1.5, 0, 0, -1.5, 120.498047, 36.401768)"/>
<path fill="none" stroke-width="0.5" stroke-linecap="round" stroke-linejoin="round" stroke="rgb(0%, 0%, 0%)" stroke-opacity="1" stroke-miterlimit="4" d="M 107.441406 0.137637 C 125.970052 -0.0811132 145.240885 0.233991 164.003906 -0.138405 " transform="matrix(1.5, 0, 0, -1.5, 120.498047, 36.401768)"/>
<path fill="none" stroke-width="0.5" stroke-linecap="round" stroke-linejoin="round" stroke="rgb(0%, 0%, 0%)" stroke-opacity="1" stroke-miterlimit="4" d="M 155.608073 -5.182676 C 157.730469 -2.768613 160.623698 -1.023822 164.147135 0.116803 C 160.56901 0.694928 157.550781 2.760033 155.230469 5.226178 " transform="matrix(1.5, 0, 0, -1.5, 120.498047, 36.401768)"/>
<path fill="none" stroke-width="0.5" stroke-linecap="round" stroke-linejoin="round" stroke="rgb(0%, 0%, 0%)" stroke-opacity="1" stroke-miterlimit="4" d="M 56.77474 -61.724342 C 37.80599 -61.635801 18.75651 -61.820697 -0.147135 -61.56028 C 0.0351562 -45.989967 -0.144531 -30.24778 -0.0533854 -14.575905 " transform="matrix(1.5, 0, 0, -1.5, 120.498047, 36.401768)"/>
<path fill="none" stroke-width="0.5" stroke-linecap="round" stroke-linejoin="round" stroke="rgb(0%, 0%, 0%)" stroke-opacity="1" stroke-miterlimit="4" d="M 5.391927 -23.328509 C 2.407552 -21.193092 0.688802 -18.250384 0.00651042 -14.674863 C -0.707031 -17.844134 -2.535156 -20.737363 -5.545573 -22.823301 " transform="matrix(1.5, 0, 0, -1.5, 120.498047, 36.401768)"/>
<path fill="none" stroke-width="0.5" stroke-linecap="round" stroke-linejoin="round" stroke="rgb(0%, 0%, 0%)" stroke-opacity="1" stroke-miterlimit="4" d="M 135.334635 0.231387 C 135.498698 -20.609759 135.709635 -41.318092 135.566406 -61.461322 C 126.207031 -61.336322 116.39974 -61.518613 107.009115 -61.40403 " transform="matrix(1.5, 0, 0, -1.5, 120.498047, 36.401768)"/>
<path fill="none" stroke-width="0.5" stroke-linecap="round" stroke-linejoin="round" stroke="rgb(0%, 0%, 0%)" stroke-opacity="1" stroke-miterlimit="4" d="M 115.613281 -56.211322 C 113.38151 -59.195697 110.425781 -60.760801 107.134115 -61.805072 C 110.608073 -62.471738 113.576823 -64.419655 115.660156 -66.961322 " transform="matrix(1.5, 0, 0, -1.5, 120.498047, 36.401768)"/>
<path fill="none" stroke-width="0.5" stroke-linecap="round" stroke-linejoin="round" stroke="rgb(0%, 0%, 0%)" stroke-opacity="1" stroke-miterlimit="4" d="M 56.55599 -16.693092 C 73.417969 -16.974342 90.373698 -16.448301 106.688802 -16.963926 C 107.759115 -5.40403 106.74349 5.593366 107.02474 16.832949 C 91.00651 16.90847 73.417969 16.512637 57.433594 16.004824 C 57.108073 5.749616 57.404948 -6.008197 56.55599 -16.693092 Z M 56.55599 -16.693092 " transform="matrix(1.5, 0, 0, -1.5, 120.498047, 36.401768)"/>
<path fill="none" stroke-width="0.5" stroke-linecap="round" stroke-linejoin="round" stroke="rgb(0%, 0%, 0%)" stroke-opacity="1" stroke-miterlimit="4" d="M 56.201823 -78.320697 C 74.28776 -77.690488 90.720052 -77.745176 106.68099 -78.851947 C 107.157552 -67.552467 106.727865 -55.976947 107.342448 -44.331113 C 90.858073 -45.346738 73.063802 -45.266009 57.43099 -44.875384 C 56.64974 -56.427467 57.084635 -66.875384 56.201823 -78.320697 Z M 56.201823 -78.320697 " transform="matrix(1.5, 0, 0, -1.5, 120.498047, 36.401768)"/>
<path fill="none" stroke-width="0.5" stroke-linecap="round" stroke-linejoin="round" stroke="rgb(0%, 0%, 0%)" stroke-opacity="1" stroke-miterlimit="4" d="M 14.029948 -0.315488 C 14.292969 8.228783 7.38151 13.950137 0.217448 14.848574 C -8.175781 13.918887 -14.574219 7.405866 -13.980469 0.0543035 C -14.102865 -7.84153 -8.152344 -14.221738 -0.597656 -13.974342 C 7.553385 -14.854551 14.589844 -8.193092 14.029948 -0.315488 Z M 14.029948 -0.315488 " transform="matrix(1.5, 0, 0, -1.5, 120.498047, 36.401768)"/>
<path fill="none" stroke-width="0.5" stroke-linecap="round" stroke-linejoin="round" stroke="rgb(0%, 0%, 0%)" stroke-opacity="1" stroke-miterlimit="4" d="M -42.220052 -0.0967382 C -32.876302 -0.21653 -23.91276 0.0647202 -14.290365 -0.00819651 " transform="matrix(1.5, 0, 0, -1.5, 120.498047, 36.401768)"/>
<path fill="none" stroke-width="0.5" stroke-linecap="round" stroke-linejoin="round" stroke="rgb(0%, 0%, 0%)" stroke-opacity="1" stroke-miterlimit="4" d="M -23.154948 -5.141009 C -20.839844 -2.620176 -17.753906 -0.867572 -14.558594 -0.0342382 C -17.53776 0.546491 -21.019531 2.624616 -22.959635 5.523053 " transform="matrix(1.5, 0, 0, -1.5, 120.498047, 36.401768)"/>
<path fill="none" stroke-width="0.5" stroke-linecap="round" stroke-linejoin="round" stroke="rgb(0%, 0%, 0%)" stroke-opacity="1" stroke-miterlimit="4" d="M 14.170573 0.174095 C 28.558594 0.161074 42.644531 0.15847 56.753906 -0.101947 " transform="matrix(1.5, 0, 0, -1.5, 120.498047, 36.401768)"/>
<path fill="none" stroke-width="0.5" stroke-linecap="round" stroke-linejoin="round" stroke="rgb(0%, 0%, 0%)" stroke-opacity="1" stroke-miterlimit="4" d="M 48.045573 -5.286842 C 50.433594 -2.71653 53.326823 -0.674863 56.53776 -0.193092 C 53.186198 0.663678 50.470052 2.786074 48.011719 5.325137 " transform="matrix(1.5, 0, 0, -1.5, 120.498047, 36.401768)"/>
<path fill="none" stroke-width="0.5" stroke-linecap="round" stroke-linejoin="round" stroke="rgb(0%, 0%, 0%)" stroke-opacity="1" stroke-miterlimit="4" d="M 107.342448 0.236595 C 126.13151 0.0881577 145.282552 -0.252988 163.75651 0.200137 " transform="matrix(1.5, 0, 0, -1.5, 120.498047, 36.401768)"/>
<path fill="none" stroke-width="0.5" stroke-linecap="round" stroke-linejoin="round" stroke="rgb(0%, 0%, 0%)" stroke-opacity="1" stroke-miterlimit="4" d="M 155.423177 -5.164447 C 157.785156 -2.542051 160.36849 -0.534238 163.657552 -0.169655 C 160.764323 0.536074 157.720052 2.72097 155.733073 5.317324 " transform="matrix(1.5, 0, 0, -1.5, 120.498047, 36.401768)"/>
<path fill="none" stroke-width="0.5" stroke-linecap="round" stroke-linejoin="round" stroke="rgb(0%, 0%, 0%)" stroke-opacity="1" stroke-miterlimit="4" d="M 57.061198 -61.789447 C 37.733073 -61.773822 18.71224 -61.891009 -0.00130208 -61.596738 C -0.123698 -45.846738 0.25651 -30.130592 -0.188802 -14.87278 " transform="matrix(1.5, 0, 0, -1.5, 120.498047, 36.401768)"/>
<path fill="none" stroke-width="0.5" stroke-linecap="round" stroke-linejoin="round" stroke="rgb(0%, 0%, 0%)" stroke-opacity="1" stroke-miterlimit="4" d="M 5.352865 -23.396217 C 2.425781 -20.930072 0.647135 -18.318092 -0.0195312 -14.729551 C -0.904948 -17.815488 -2.451823 -20.763405 -5.43099 -23.195697 " transform="matrix(1.5, 0, 0, -1.5, 120.498047, 36.401768)"/>
<path fill="none" stroke-width="0.5" stroke-linecap="round" stroke-linejoin="round" stroke="rgb(0%, 0%, 0%)" stroke-opacity="1" stroke-miterlimit="4" d="M 135.50651 -0.0837173 C 135.498698 -20.594134 135.292969 -41.27903 135.576823 -61.838926 C 125.808594 -61.641009 116.691406 -61.555072 106.949219 -61.724342 " transform="matrix(1.5, 0, 0, -1.5, 120.498047, 36.401768)"/>
<path fill="none" stroke-width="0.5" stroke-linecap="round" stroke-linejoin="round" stroke="rgb(0%, 0%, 0%)" stroke-opacity="1" stroke-miterlimit="4" d="M 115.746094 -56.034238 C 113.11849 -58.726947 110.647135 -60.568092 107.016927 -61.805072 C 110.597656 -62.200905 113.498698 -64.234759 115.49349 -67.112363 " transform="matrix(1.5, 0, 0, -1.5, 120.498047, 36.401768)"/>
<path fill="none" stroke-width="0.5" stroke-linecap="round" stroke-linejoin="round" stroke="rgb(0%, 0%, 0%)" stroke-opacity="1" stroke-miterlimit="4" d="M 57.404948 -16.739967 C 74.13151 -16.818092 90.115885 -16.448301 107.035156 -16.177467 C 107.58724 -4.953509 106.77474 4.981387 106.816406 16.335553 C 91.06901 16.348574 74.321615 16.895449 56.623698 16.004824 C 56.33724 5.267845 57.084635 -6.049863 57.404948 -16.739967 Z M 57.404948 -16.739967 " transform="matrix(1.5, 0, 0, -1.5, 120.498047, 36.401768)"/>
<path fill="none" stroke-width="0.5" stroke-linecap="round" stroke-linejoin="round" stroke="rgb(0%, 0%, 0%)" stroke-opacity="1" stroke-miterlimit="4" d="M 56.553385 -77.797259 C 73.761719 -78.002988 90.303385 -78.263405 107.561198 -78.469134 C 107.733073 -66.71653 107.485677 -56.489967 106.779948 -44.875384 C 90.764323 -45.380592 73.894531 -44.969134 57.404948 -44.648822 C 56.821615 -56.159238 56.30599 -67.344134 56.553385 -77.797259 Z M 56.553385 -77.797259 " transform="matrix(1.5, 0, 0, -1.5, 120.498047, 36.401768)"/>
<path fill="none" stroke-width="0.5" stroke-linecap="round" stroke-linejoin="round" stroke="rgb(0%, 0%, 0%)" stroke-opacity="1" stroke-miterlimit="4" d="M 13.980469 -0.284238 C 14.115885 8.179303 7.47526 14.476178 -0.501302 13.869408 C -8.282552 13.887637 -13.878906 8.593366 -14.811198 -0.422259 C -14.204427 -8.164447 -7.449219 -13.851947 -0.480469 -13.893613 C 7.371094 -14.357155 14.003906 -7.46653 13.980469 -0.284238 Z M 13.980469 -0.284238 " transform="matrix(1.5, 0, 0, -1.5, 120.498047, 36.401768)"/>
<path fill="none" stroke-width="0.5" stroke-linecap="round" stroke-linejoin="round" stroke="rgb(0%, 0%, 0%)" stroke-opacity="1" stroke-miterlimit="4" d="M -42.446615 -0.109759 C -33.144531 -0.135801 -23.77474 0.249616 -14.72526 -0.289447 " transform="matrix(1.5, 0, 0, -1.5, 120.498047, 36.401768)"/>
<path fill="none" stroke-width="0.5" stroke-linecap="round" stroke-linejoin="round" stroke="rgb(0%, 0%, 0%)" stroke-opacity="1" stroke-miterlimit="4" d="M -23.001302 -5.526426 C -20.589844 -2.930072 -17.891927 -1.034238 -14.574219 -0.234759 C -18.042969 0.879824 -20.542969 2.483991 -23.00651 5.161074 " transform="matrix(1.5, 0, 0, -1.5, 120.498047, 36.401768)"/>
<path fill="none" stroke-width="0.5" stroke-linecap="round" stroke-linejoin="round" stroke="rgb(0%, 0%, 0%)" stroke-opacity="1" stroke-miterlimit="4" d="M 14.519531 0.0959702 C 28.751302 0.0595118 42.886719 -0.0915298 56.441406 0.215762 " transform="matrix(1.5, 0, 0, -1.5, 120.498047, 36.401768)"/>
<path fill="none" stroke-width="0.5" stroke-linecap="round" stroke-linejoin="round" stroke="rgb(0%, 0%, 0%)" stroke-opacity="1" stroke-miterlimit="4" d="M 48.058594 -5.476947 C 50.472656 -2.601947 53.35026 -0.932676 56.41276 -0.138405 C 53.394531 0.59597 50.298177 2.455345 48.126302 5.379824 " transform="matrix(1.5, 0, 0, -1.5, 120.498047, 36.401768)"/>
<path fill="none" stroke-width="0.5" stroke-linecap="round" stroke-linejoin="round" stroke="rgb(0%, 0%, 0%)" stroke-opacity="1" stroke-miterlimit="4" d="M 107.048177 0.0985743 C 126.009115 0.288678 145.220052 -0.180072 163.678385 0.0204493 " transform="matrix(1.5, 0, 0, -1.5, 120.498047, 36.401768)"/>
<path fill="none" stroke-width="0.5" stroke-linecap="round" stroke-linejoin="round" stroke="rgb(0%, 0%, 0%)" stroke-opacity="1" stroke-miterlimit="4" d="M 155.269531 -5.424863 C 157.558594 -2.46653 160.707031 -0.693092 164.063802 0.22097 C 160.253906 0.812116 157.608073 2.786074 155.667969 5.611595 " transform="matrix(1.5, 0, 0, -1.5, 120.498047, 36.401768)"/>
<path fill="none" stroke-width="0.5" stroke-linecap="round" stroke-linejoin="round" stroke="rgb(0%, 0%, 0%)" stroke-opacity="1" stroke-miterlimit="4" d="M 56.920573 -61.65403 C 37.824219 -61.737363 18.842448 -61.414447 -0.175781 -61.599342 C 0.266927 -45.729551 0.0820312 -30.594134 0.248698 -14.945697 " transform="matrix(1.5, 0, 0, -1.5, 120.498047, 36.401768)"/>
<path fill="none" stroke-width="0.5" stroke-linecap="round" stroke-linejoin="round" stroke="rgb(0%, 0%, 0%)" stroke-opacity="1" stroke-miterlimit="4" d="M 5.61849 -22.948301 C 2.654948 -20.857155 0.720052 -17.963926 -0.282552 -14.453509 C -0.52474 -18.031634 -2.566406 -21.161842 -5.152344 -23.086322 " transform="matrix(1.5, 0, 0, -1.5, 120.498047, 36.401768)"/>
<path fill="none" stroke-width="0.5" stroke-linecap="round" stroke-linejoin="round" stroke="rgb(0%, 0%, 0%)" stroke-opacity="1" stroke-miterlimit="4" d="M 135.621094 -0.0576757 C 135.441406 -20.331113 135.80599 -40.815488 135.44401 -61.388405 C 126.035156 -61.586322 116.701823 -61.617572 106.852865 -61.739967 " transform="matrix(1.5, 0, 0, -1.5, 120.498047, 36.401768)"/>
<path fill="none" stroke-width="0.5" stroke-linecap="round" stroke-linejoin="round" stroke="rgb(0%, 0%, 0%)" stroke-opacity="1" stroke-miterlimit="4" d="M 115.540365 -55.987363 C 113.673177 -59.190488 110.33724 -60.682676 106.811198 -61.81028 C 110.535156 -62.588926 113.584635 -64.344134 115.72526 -66.969134 " transform="matrix(1.5, 0, 0, -1.5, 120.498047, 36.401768)"/>
<path fill="none" stroke-width="0.5" stroke-linecap="round" stroke-linejoin="round" stroke="rgb(0%, 0%, 0%)" stroke-opacity="1" stroke-miterlimit="4" d="M 57.428385 -16.260801 C 74.13151 -16.417051 90.766927 -16.052467 107.428385 -16.008197 C 106.667969 -5.656634 106.654948 5.778262 107.811198 16.793887 C 90.079427 16.861595 73.839844 16.405866 56.39974 17.202741 C 57.389323 5.590762 57.045573 -5.919655 57.428385 -16.260801 Z M 57.428385 -16.260801 " transform="matrix(1.5, 0, 0, -1.5, 120.498047, 36.401768)"/>
<path fill="none" stroke-width="0.5" stroke-linecap="round" stroke-linejoin="round" stroke="rgb(0%, 0%, 0%)" stroke-opacity="1" stroke-miterlimit="4" d="M 57.277344 -77.976947 C 73.68099 -77.768613 90.779948 -77.651426 106.863281 -78.885801 C 106.97526 -66.755592 107.009115 -56.633197 107.246094 -45.018613 C 90.566406 -45.068092 73.454427 -44.820697 56.990885 -45.031634 C 57.31901 -56.297259 56.201823 -67.250384 57.277344 -77.976947 Z M 57.277344 -77.976947 " transform="matrix(1.5, 0, 0, -1.5, 120.498047, 36.401768)"/>
<path fill="none" stroke-width="0.5" stroke-linecap="round" stroke-linejoin="round" stroke="rgb(0%, 0%, 0%)" stroke-opacity="1" stroke-miterlimit="4" d="M 14.529948 -0.406634 C 15.001302 7.588158 8.61849 14.312116 -0.634115 14.991803 C -7.345052 15.00222 -13.847656 7.898053 -14.061198 0.161074 C -14.983073 -7.831113 -7.660156 -14.752988 -0.24349 -13.818092 C 8.063802 -14.268613 13.790365 -7.614967 14.529948 -0.406634 Z M 14.529948 -0.406634 " transform="matrix(1.5, 0, 0, -1.5, 120.498047, 36.401768)"/>
<path fill="none" stroke-width="0.5" stroke-linecap="round" stroke-linejoin="round" stroke="rgb(0%, 0%, 0%)" stroke-opacity="1" stroke-miterlimit="4" d="M -42.654948 -0.198301 C -33.053385 -0.047259 -23.811198 0.0204493 -14.519531 0.106387 " transform="matrix(1.5, 0, 0, -1.5, 120.498047, 36.401768)"/>
<path fill="none" stroke-width="0.5" stroke-linecap="round" stroke-linejoin="round" stroke="rgb(0%, 0%, 0%)" stroke-opacity="1" stroke-miterlimit="4" d="M -22.928385 -5.143613 C -20.71224 -2.419655 -17.871094 -1.026426 -14.394531 0.129824 C -17.957031 1.015241 -21.014323 2.864199 -22.886719 5.262637 " transform="matrix(1.5, 0, 0, -1.5, 120.498047, 36.401768)"/>
<path fill="none" stroke-width="0.5" stroke-linecap="round" stroke-linejoin="round" stroke="rgb(0%, 0%, 0%)" stroke-opacity="1" stroke-miterlimit="4" d="M 14.46224 -0.226947 C 28.665365 0.244408 42.31901 0.280866 56.516927 -0.094134 " transform="matrix(1.5, 0, 0, -1.5, 120.498047, 36.401768)"/>
<path fill="none" stroke-width="0.5" stroke-linecap="round" stroke-linejoin="round" stroke="rgb(0%, 0%, 0%)" stroke-opacity="1" stroke-miterlimit="4" d="M 48.186198 -5.633197 C 50.652344 -2.729551 53.636719 -1.062884 56.470052 -0.232155 C 53.282552 0.541283 50.347656 2.853783 48.001302 5.343366 " transform="matrix(1.5, 0, 0, -1.5, 120.498047, 36.401768)"/>
<path fill="none" stroke-width="0.5" stroke-linecap="round" stroke-linejoin="round" stroke="rgb(0%, 0%, 0%)" stroke-opacity="1" stroke-miterlimit="4" d="M 107.029948 -0.161842 C 126.30599 -0.143613 144.803385 0.093366 164.027344 -0.0264257 " transform="matrix(1.5, 0, 0, -1.5, 120.498047, 36.401768)"/>
<path fill="none" stroke-width="0.5" stroke-linecap="round" stroke-linejoin="round" stroke="rgb(0%, 0%, 0%)" stroke-opacity="1" stroke-miterlimit="4" d="M 155.41276 -5.641009 C 157.623698 -2.508197 160.43099 -0.49778 163.855469 -0.245176 C 160.30599 0.601178 157.735677 2.598574 155.415365 5.335553 " transform="matrix(1.5, 0, 0, -1.5, 120.498047, 36.401768)"/>
<path fill="none" stroke-width="0.5" stroke-linecap="round" stroke-linejoin="round" stroke="rgb(0%, 0%, 0%)" stroke-opacity="1" stroke-miterlimit="4" d="M 57.097656 -61.823301 C 37.61849 -61.633197 18.665365 -61.680072 0.141927 -61.682676 C -0.14974 -45.958717 -0.235677 -30.086322 -0.0611979 -14.385801 " transform="matrix(1.5, 0, 0, -1.5, 120.498047, 36.401768)"/>
<path fill="none" stroke-width="0.5" stroke-linecap="round" stroke-linejoin="round" stroke="rgb(0%, 0%, 0%)" stroke-opacity="1" stroke-miterlimit="4" d="M 5.259115 -23.377988 C 2.459635 -20.726947 1.022135 -18.198301 0.0299479 -14.87278 C -1.02474 -17.752988 -2.824219 -20.906634 -5.540365 -22.854551 " transform="matrix(1.5, 0, 0, -1.5, 120.498047, 36.401768)"/>
<path fill="none" stroke-width="0.5" stroke-linecap="round" stroke-linejoin="round" stroke="rgb(0%, 0%, 0%)" stroke-opacity="1" stroke-miterlimit="4" d="M 135.704427 0.273053 C 135.561198 -20.594134 135.376302 -41.273822 135.800781 -61.625384 C 125.75651 -61.401426 116.339844 -61.409238 106.990885 -61.536842 " transform="matrix(1.5, 0, 0, -1.5, 120.498047, 36.401768)"/>
<path fill="none" stroke-width="0.5" stroke-linecap="round" stroke-linejoin="round" stroke="rgb(0%, 0%, 0%)" stroke-opacity="1" stroke-miterlimit="4" d="M 115.605469 -56.013405 C 113.61849 -58.893613 110.31901 -60.664447 107.251302 -61.807676 C 110.321615 -62.096738 113.558594 -64.182676 115.355469 -67.055072 " transform="matrix(1.5, 0, 0, -1.5, 120.498047, 36.401768)"/>
<path fill="none" stroke-width="0.5" stroke-linecap="round" stroke-linejoin="round" stroke="rgb(0%, 0%, 0%)" stroke-opacity="1" stroke-miterlimit="4" d="M 57.009115 -16.99778 C 74.282552 -16.34153 90.402344 -16.138405 106.779948 -17.27903 C 107.391927 -5.81028 106.871094 5.273053 107.779948 16.733991 C 90.550781 17.205345 73.35026 17.200137 56.535156 17.197533 C 57.571615 5.059512 57.217448 -5.151426 57.009115 -16.99778 Z M 57.009115 -16.99778 " transform="matrix(1.5, 0, 0, -1.5, 120.498047, 36.401768)"/>
<path fill="none" stroke-width="0.5" stroke-linecap="round" stroke-linejoin="round" stroke="rgb(0%, 0%, 0%)" stroke-opacity="1" stroke-miterlimit="4" d="M 56.38151 -78.354551 C 73.282552 -78.31028 91.003906 -78.732155 107.079427 -77.974342 C 107.959635 -66.641009 107.920573 -56.068092 106.75651 -45.539447 C 90.514323 -44.859759 74.071615 -44.708717 56.798177 -44.760801 C 57.438802 -55.526426 57.121094 -67.177467 56.38151 -78.354551 Z M 56.38151 -78.354551 " transform="matrix(1.5, 0, 0, -1.5, 120.498047, 36.401768)"/>
<path fill="none" stroke-width="0.5" stroke-linecap="round" stroke-linejoin="round" stroke="rgb(0%, 0%, 0%)" stroke-opacity="1" stroke-miterlimit="4" d="M 14.144531 0.0959702 C 14.173177 8.411074 8.61849 14.968366 -0.178385 15.059512 C -7.407552 14.773053 -13.782552 7.374616 -14.563802 0.205345 C -13.86849 -8.117572 -8.608073 -15.044655 0.259115 -14.96653 C 7.436198 -15.042051 14.675781 -7.880592 14.144531 0.0959702 Z M 14.144531 0.0959702 " transform="matrix(1.5, 0, 0, -1.5, 120.498047, 36.401768)"/>
<path fill="none" stroke-width="0.5" stroke-linecap="round" stroke-linejoin="round" stroke="rgb(0%, 0%, 0%)" stroke-opacity="1" stroke-miterlimit="4" d="M -42.782552 0.0829493 C -33.246094 0.291283 -23.970052 -0.167051 -14.233073 0.202741 " transform="matrix(1.5, 0, 0, -1.5, 120.498047, 36.401768)"/>
<path fill="none" stroke-width="0.5" stroke-linecap="round" stroke-linejoin="round" stroke="rgb(0%, 0%, 0%)" stroke-opacity="1" stroke-miterlimit="4" d="M -22.964844 -5.362363 C -20.503906 -2.37278 -17.563802 -0.992572 -14.233073 0.166283 C -17.730469 0.53347 -20.834635 2.457949 -22.865885 5.150658 " transform="matrix(1.5, 0, 0, -1.5, 120.498047, 36.401768)"/>
<path fill="none" stroke-width="0.5" stroke-linecap="round" stroke-linejoin="round" stroke="rgb(0%, 0%, 0%)" stroke-opacity="1" stroke-miterlimit="4" d="M 14.553385 -0.143613 C 28.488281 -0.258197 42.436198 -0.109759 56.410156 -0.161842 " transform="matrix(1.5, 0, 0, -1.5, 120.498047, 36.401768)"/>
<path fill="none" stroke-width="0.5" stroke-linecap="round" stroke-linejoin="round" stroke="rgb(0%, 0%, 0%)" stroke-opacity="1" stroke-miterlimit="4" d="M 48.511719 -5.302467 C 50.467448 -2.680072 53.386719 -0.547259 57.001302 -0.252988 C 53.347656 0.671491 50.217448 2.418887 48.347656 5.093366 " transform="matrix(1.5, 0, 0, -1.5, 120.498047, 36.401768)"/>
<path fill="none" stroke-width="0.5" stroke-linecap="round" stroke-linejoin="round" stroke="rgb(0%, 0%, 0%)" stroke-opacity="1" stroke-miterlimit="4" d="M 107.404948 0.0204493 C 126.092448 0.0985743 144.88151 0.00482432 163.77474 0.280866 " transform="matrix(1.5, 0, 0, -1.5, 120.498047, 36.401768)"/>
<path fill="none" stroke-width="0.5" stroke-linecap="round" stroke-linejoin="round" stroke="rgb(0%, 0%, 0%)" stroke-opacity="1" stroke-miterlimit="4" d="M 155.727865 -5.258197 C 157.31901 -2.664447 160.623698 -0.630592 163.74349 -0.284238 C 160.56901 0.931908 157.571615 2.640241 155.449219 5.608991 " transform="matrix(1.5, 0, 0, -1.5, 120.498047, 36.401768)"/>
<path fill="none" stroke-width="0.5" stroke-linecap="round" stroke-linejoin="round" stroke="rgb(0%, 0%, 0%)" stroke-opacity="1" stroke-miterlimit="4" d="M 56.832031 -61.71653 C 37.652344 -61.338926 18.766927 -61.635801 0.282552 -61.812884 C -0.0325521 -46.169655 0.0325521 -30.073301 -0.0117188 -14.888405 " transform="matrix(1.5, 0, 0, -1.5, 120.498047, 36.401768)"/>
<path fill="none" stroke-width="0.5" stroke-linecap="round" stroke-linejoin="round" stroke="rgb(0%, 0%, 0%)" stroke-opacity="1" stroke-miterlimit="4" d="M 5.13151 -23.292051 C 2.63151 -20.768613 0.834635 -17.771217 0.0950521 -14.724342 C -0.826823 -17.825905 -2.519531 -20.706113 -5.157552 -23.409238 " transform="matrix(1.5, 0, 0, -1.5, 120.498047, 36.401768)"/>
<path fill="none" stroke-width="0.5" stroke-linecap="round" stroke-linejoin="round" stroke="rgb(0%, 0%, 0%)" stroke-opacity="1" stroke-miterlimit="4" d="M 135.68099 -0.239967 C 135.813802 -20.703509 135.634115 -41.318092 135.355469 -61.643613 C 125.878906 -61.43528 116.529948 -61.612363 106.83724 -61.690488 " transform="matrix(1.5, 0, 0, -1.5, 120.498047, 36.401768)"/>
<path fill="none" stroke-width="0.5" stroke-linecap="round" stroke-linejoin="round" stroke="rgb(0%, 0%, 0%)" stroke-opacity="1" stroke-miterlimit="4" d="M 115.709635 -56.146217 C 113.683594 -59.000384 110.11849 -61.083717 107.001302 -61.667051 C 110.50651 -62.406634 113.321615 -64.391009 115.56901 -67.211322 " transform="matrix(1.5, 0, 0, -1.5, 120.498047, 36.401768)"/>
<path fill-rule="nonzero" fill="rgb(0%, 0%, 0%)" fill-opacity="1" d="M 83.4375 23.574219 L 90.109375 23.574219 L 90.109375 30.246094 L 90.96875 30.09375 L 90.96875 23.574219 L 97.597656 23.574219 L 97.707031 22.710938 L 90.96875 22.710938 L 90.96875 16.042969 L 90.109375 16.171875 L 90.109375 22.710938 L 83.589844 22.710938 Z M 83.4375 23.574219 "/>
<path fill-rule="nonzero" fill="rgb(0%, 0%, 0%)" fill-opacity="1" d="M 127.636719 62.050781 L 141.796875 62.050781 L 141.925781 61.191406 L 127.789062 61.191406 Z M 127.636719 62.050781 "/>
<path fill-rule="nonzero" fill="rgb(0%, 0%, 0%)" fill-opacity="1" d="M 11.382812 27.660156 C 11.40625 27.660156 12.15625 27.875 12.546875 27.984375 C 12.824219 28.070312 13.039062 28.328125 13.039062 28.628906 C 13.0625 29.855469 13.105469 32.003906 13.105469 32.328125 C 13.105469 35.445312 13.082031 38.589844 12.910156 41.714844 L 13.148438 41.90625 L 14.933594 41.285156 C 14.828125 39.214844 14.828125 37.125 14.828125 35.058594 C 14.957031 35.058594 15.148438 35.144531 15.257812 35.253906 C 15.882812 35.878906 18.613281 39.386719 20.613281 41.953125 L 22.746094 41.390625 L 22.746094 41.199219 L 17.085938 34.824219 L 17.128906 34.648438 C 18.914062 34.457031 20.660156 33.746094 21.347656 32.246094 C 21.667969 31.515625 21.753906 31.214844 21.753906 30.183594 C 21.753906 29.433594 21.453125 28.703125 20.917969 28.167969 C 20.550781 27.78125 20.054688 27.585938 19.539062 27.4375 C 18.851562 27.242188 18.117188 27.175781 17.386719 27.175781 L 11.535156 27.167969 L 11.40625 27.296875 L 11.382812 27.660156 M 14.804688 33.8125 C 14.804688 33.703125 14.890625 29.949219 14.933594 28.574219 C 14.957031 28.167969 15.019531 28.015625 15.191406 28.015625 L 16.054688 28.015625 C 16.632812 28.015625 17.238281 28.058594 17.816406 28.210938 C 18.226562 28.316406 18.636719 28.488281 18.9375 28.789062 C 19.386719 29.242188 19.648438 29.882812 19.648438 30.527344 C 19.648438 31.492188 19.214844 32.394531 18.550781 33.058594 C 17.839844 33.789062 16.804688 34.027344 15.816406 34.113281 C 15.558594 34.132812 15.277344 34.132812 15 34.132812 C 14.847656 34.132812 14.804688 33.941406 14.804688 33.8125 Z M 14.804688 33.8125 "/>
<path fill-rule="nonzero" fill="rgb(0%, 0%, 0%)" fill-opacity="1" d="M 25.757812 36.40625 C 25.757812 41.613281 26.597656 43.722656 27.265625 44.648438 C 27.867188 45.441406 28.769531 46.261719 29.804688 46.347656 L 29.804688 45.832031 C 29.375 45.746094 28.726562 45.398438 28.363281 44.96875 C 28.0625 44.625 26.878906 43.03125 26.878906 36.40625 C 26.878906 31.84375 27.585938 29.605469 28.0625 28.59375 C 28.40625 27.863281 29.117188 27.214844 29.804688 27.042969 L 29.804688 26.464844 C 28.921875 26.613281 27.976562 27.300781 27.4375 28.054688 C 26.769531 29.046875 25.757812 31.5625 25.757812 36.40625 Z M 25.757812 36.40625 "/>
<path fill-rule="nonzero" fill="rgb(0%, 0%, 0%)" fill-opacity="1" d="M 34 40.355469 C 34.214844 40.761719 34.515625 41.128906 34.859375 41.429688 C 35.484375 41.988281 36.347656 42.140625 37.164062 42.140625 C 38.390625 42.140625 39.59375 41.730469 40.433594 40.828125 C 40.953125 40.289062 41.210938 39.558594 41.210938 38.804688 C 41.210938 38.265625 40.90625 37.769531 40.519531 37.382812 C 40.21875 37.082031 39.421875 36.605469 38.734375 36.304688 C 38.109375 36.046875 37.183594 35.574219 36.925781 35.316406 C 36.605469 34.972656 36.367188 34.710938 36.367188 34.238281 C 36.367188 33.765625 36.519531 33.3125 36.863281 32.988281 C 37.183594 32.667969 37.660156 32.496094 38.132812 32.496094 C 38.5625 32.496094 39.015625 32.644531 39.25 33.03125 C 39.464844 33.378906 39.507812 33.785156 39.53125 34.175781 L 39.789062 34.324219 L 40.972656 33.527344 C 40.953125 33.054688 40.714844 32.601562 40.371094 32.28125 C 39.875 31.828125 39.1875 31.742188 38.542969 31.742188 C 37.488281 31.742188 36.476562 32.085938 35.699219 32.796875 C 35.121094 33.3125 34.816406 34.066406 34.816406 34.820312 C 34.816406 35.507812 35.207031 36.113281 35.699219 36.5625 C 36.195312 36.996094 36.839844 37.296875 37.507812 37.574219 C 38.066406 37.8125 38.671875 38.070312 39.078125 38.480469 C 39.402344 38.804688 39.636719 39.234375 39.636719 39.6875 C 39.636719 40.074219 39.445312 40.441406 39.1875 40.71875 C 38.863281 41.0625 38.28125 41.324219 37.808594 41.324219 C 37.164062 41.324219 36.582031 41.042969 36.109375 40.589844 C 35.613281 40.136719 35.398438 39.492188 35.355469 38.847656 L 35.054688 38.824219 Z M 34 40.355469 "/>
<path fill-rule="nonzero" fill="rgb(0%, 0%, 0%)" fill-opacity="1" d="M 45.730469 45.832031 L 45.730469 46.347656 C 46.761719 46.21875 47.730469 45.484375 48.332031 44.691406 C 49 43.765625 49.816406 41.613281 49.816406 36.40625 C 49.816406 31.003906 48.699219 29.046875 48.03125 28.054688 C 47.492188 27.300781 46.609375 26.613281 45.730469 26.464844 L 45.730469 27.042969 C 46.417969 27.238281 47.085938 27.863281 47.429688 28.59375 C 47.902344 29.605469 48.699219 31.414062 48.699219 36.40625 C 48.699219 43.914062 47.578125 44.625 47.277344 44.96875 C 46.910156 45.398438 46.160156 45.746094 45.730469 45.832031 Z M 45.730469 45.832031 "/>
<path fill-rule="nonzero" fill="rgb(0%, 0%, 0%)" fill-opacity="1" d="M 372.691406 34.761719 C 372.691406 36.871094 373.25 39 374.757812 40.507812 C 375.984375 41.734375 377.746094 42.097656 379.445312 42.097656 C 381.320312 42.097656 383.042969 41.195312 384.589844 40.140625 L 384.226562 39.515625 C 383.019531 40.335938 381.664062 40.957031 380.199219 40.957031 C 378.4375 40.957031 377.53125 40.355469 376.347656 39.171875 C 375.636719 38.460938 374.605469 36.355469 374.605469 34.375 C 374.605469 33.320312 374.734375 32.246094 375.058594 31.234375 C 375.316406 30.414062 375.703125 29.640625 376.304688 29.015625 C 377.253906 28.070312 378.585938 27.617188 379.898438 27.617188 C 380.890625 27.617188 381.921875 27.878906 382.632812 28.585938 C 383.128906 29.082031 383.492188 29.707031 383.75 30.394531 L 384.050781 30.414062 L 385.277344 29.167969 C 385.042969 28.78125 384.761719 28.414062 384.441406 28.09375 C 383.449219 27.082031 382.03125 26.734375 380.632812 26.734375 C 378.394531 26.734375 376.21875 27.511719 374.648438 29.082031 C 373.140625 30.566406 372.691406 32.695312 372.691406 34.761719 Z M 372.691406 34.761719 "/>
<path fill-rule="nonzero" fill="rgb(0%, 0%, 0%)" fill-opacity="1" d="M 388.613281 36.40625 C 388.613281 41.613281 389.453125 43.722656 390.121094 44.648438 C 390.722656 45.441406 391.628906 46.261719 392.660156 46.347656 L 392.660156 45.832031 C 392.230469 45.746094 391.585938 45.398438 391.21875 44.96875 C 390.917969 44.625 389.734375 43.03125 389.734375 36.40625 C 389.734375 31.84375 390.445312 29.605469 390.917969 28.59375 C 391.261719 27.863281 391.972656 27.214844 392.660156 27.042969 L 392.660156 26.464844 C 391.777344 26.613281 390.832031 27.300781 390.292969 28.054688 C 389.625 29.046875 388.613281 31.5625 388.613281 36.40625 Z M 388.613281 36.40625 "/>
<path fill-rule="nonzero" fill="rgb(0%, 0%, 0%)" fill-opacity="1" d="M 396.855469 40.355469 C 397.070312 40.761719 397.371094 41.128906 397.71875 41.429688 C 398.339844 41.988281 399.203125 42.140625 400.019531 42.140625 C 401.246094 42.140625 402.453125 41.730469 403.289062 40.828125 C 403.808594 40.289062 404.066406 39.558594 404.066406 38.804688 C 404.066406 38.265625 403.765625 37.769531 403.378906 37.382812 C 403.074219 37.082031 402.28125 36.605469 401.589844 36.304688 C 400.96875 36.046875 400.042969 35.574219 399.78125 35.316406 C 399.460938 34.972656 399.222656 34.710938 399.222656 34.238281 C 399.222656 33.765625 399.375 33.3125 399.71875 32.988281 C 400.042969 32.667969 400.515625 32.496094 400.988281 32.496094 C 401.417969 32.496094 401.871094 32.644531 402.105469 33.03125 C 402.324219 33.378906 402.367188 33.785156 402.386719 34.175781 L 402.644531 34.324219 L 403.828125 33.527344 C 403.808594 33.054688 403.570312 32.601562 403.226562 32.28125 C 402.730469 31.828125 402.042969 31.742188 401.398438 31.742188 C 400.34375 31.742188 399.332031 32.085938 398.558594 32.796875 C 397.976562 33.3125 397.675781 34.066406 397.675781 34.820312 C 397.675781 35.507812 398.0625 36.113281 398.558594 36.5625 C 399.050781 36.996094 399.695312 37.296875 400.363281 37.574219 C 400.925781 37.8125 401.527344 38.070312 401.933594 38.480469 C 402.257812 38.804688 402.496094 39.234375 402.496094 39.6875 C 402.496094 40.074219 402.300781 40.441406 402.042969 40.71875 C 401.71875 41.0625 401.140625 41.324219 400.664062 41.324219 C 400.019531 41.324219 399.4375 41.042969 398.964844 40.589844 C 398.46875 40.136719 398.253906 39.492188 398.210938 38.847656 L 397.910156 38.824219 Z M 396.855469 40.355469 "/>
<path fill-rule="nonzero" fill="rgb(0%, 0%, 0%)" fill-opacity="1" d="M 408.585938 45.832031 L 408.585938 46.347656 C 409.617188 46.21875 410.585938 45.484375 411.1875 44.691406 C 411.855469 43.765625 412.671875 41.613281 412.671875 36.40625 C 412.671875 31.003906 411.554688 29.046875 410.886719 28.054688 C 410.347656 27.300781 409.46875 26.613281 408.585938 26.464844 L 408.585938 27.042969 C 409.273438 27.238281 409.941406 27.863281 410.285156 28.59375 C 410.757812 29.605469 411.554688 31.414062 411.554688 36.40625 C 411.554688 43.914062 410.433594 44.625 410.132812 44.96875 C 409.769531 45.398438 409.015625 45.746094 408.585938 45.832031 Z M 408.585938 45.832031 "/>
</svg>
