<?xml version="1.0" encoding="UTF-8"?>
<svg xmlns="http://www.w3.org/2000/svg" xmlns:xlink="http://www.w3.org/1999/xlink" width="276.09256" height="72.849775" viewBox="0 0 276.09256 72.849775">
<path fill-rule="nonzero" fill="rgb(0%, 0%, 0%)" fill-opacity="1" d="M 116.175781 34.742188 C 116.175781 36.785156 116.710938 38.898438 118.175781 40.363281 C 119.339844 41.523438 120.953125 42.082031 122.585938 42.082031 C 124.160156 42.082031 126.484375 41.503906 128.375 41.007812 C 128.375 41.007812 128.3125 37.066406 128.269531 35.105469 L 122.328125 35.34375 L 122.328125 35.902344 L 122.457031 36.011719 C 123.621094 36.054688 124.996094 36.140625 125.945312 36.203125 C 126.546875 36.246094 126.546875 36.9375 126.546875 38.832031 C 126.546875 40.40625 126.484375 40.664062 126.117188 40.75 C 125.449219 40.898438 124.78125 40.964844 124.09375 40.964844 C 122.414062 40.964844 120.824219 40.425781 119.875 39.304688 C 118.628906 37.839844 118.113281 36.289062 118.113281 34.398438 C 118.113281 31.324219 119.230469 29.5625 119.855469 28.9375 C 120.78125 28.035156 122.050781 27.734375 123.320312 27.734375 C 126.136719 27.734375 127 29.753906 127.277344 30.3125 L 127.535156 30.335938 L 128.785156 29.109375 C 128.546875 28.746094 127.40625 26.679688 124.289062 26.679688 C 122.027344 26.679688 119.769531 27.347656 118.15625 28.960938 C 116.648438 30.464844 116.175781 32.636719 116.175781 34.742188 Z M 116.175781 34.742188 "/>
<path fill-rule="nonzero" fill="rgb(0%, 0%, 0%)" fill-opacity="1" d="M 133.132812 36.347656 C 133.132812 41.554688 133.972656 43.664062 134.636719 44.589844 C 135.242188 45.386719 136.144531 46.203125 137.175781 46.289062 L 137.175781 45.773438 C 136.746094 45.6875 136.101562 45.34375 135.734375 44.914062 C 135.433594 44.570312 134.25 42.976562 134.25 36.347656 C 134.25 31.785156 134.960938 29.546875 135.433594 28.539062 C 135.777344 27.804688 136.488281 27.160156 137.175781 26.988281 L 137.175781 26.40625 C 136.296875 26.558594 135.347656 27.246094 134.808594 28 C 134.144531 28.988281 133.132812 31.507812 133.132812 36.347656 Z M 133.132812 36.347656 "/>
<path fill-rule="nonzero" fill="rgb(0%, 0%, 0%)" fill-opacity="1" d="M 141.375 40.296875 C 141.589844 40.707031 141.890625 41.074219 142.234375 41.375 C 142.859375 41.933594 143.71875 42.082031 144.535156 42.082031 C 145.761719 42.082031 146.96875 41.675781 147.808594 40.769531 C 148.324219 40.234375 148.582031 39.5 148.582031 38.746094 C 148.582031 38.207031 148.28125 37.714844 147.894531 37.324219 C 147.59375 37.023438 146.796875 36.550781 146.109375 36.25 C 145.484375 35.992188 144.558594 35.515625 144.300781 35.257812 C 143.976562 34.914062 143.742188 34.65625 143.742188 34.183594 C 143.742188 33.707031 143.890625 33.257812 144.234375 32.933594 C 144.558594 32.609375 145.03125 32.4375 145.503906 32.4375 C 145.9375 32.4375 146.386719 32.589844 146.625 32.976562 C 146.839844 33.320312 146.882812 33.730469 146.902344 34.117188 L 147.164062 34.269531 L 148.347656 33.472656 C 148.324219 32.996094 148.085938 32.546875 147.742188 32.222656 C 147.25 31.769531 146.558594 31.683594 145.914062 31.683594 C 144.859375 31.683594 143.847656 32.027344 143.074219 32.738281 C 142.492188 33.257812 142.191406 34.011719 142.191406 34.761719 C 142.191406 35.453125 142.578125 36.054688 143.074219 36.507812 C 143.570312 36.9375 144.214844 37.238281 144.882812 37.519531 C 145.441406 37.757812 146.042969 38.015625 146.453125 38.421875 C 146.773438 38.746094 147.011719 39.175781 147.011719 39.628906 C 147.011719 40.015625 146.816406 40.382812 146.558594 40.664062 C 146.238281 41.007812 145.65625 41.265625 145.183594 41.265625 C 144.535156 41.265625 143.957031 40.984375 143.484375 40.535156 C 142.988281 40.082031 142.773438 39.4375 142.730469 38.789062 L 142.429688 38.769531 Z M 141.375 40.296875 "/>
<path fill-rule="nonzero" fill="rgb(0%, 0%, 0%)" fill-opacity="1" d="M 153.101562 45.773438 L 153.101562 46.289062 C 154.132812 46.160156 155.101562 45.429688 155.707031 44.632812 C 156.371094 43.707031 157.191406 41.554688 157.191406 36.347656 C 157.191406 30.949219 156.070312 28.988281 155.402344 28 C 154.867188 27.246094 153.984375 26.558594 153.101562 26.40625 L 153.101562 26.988281 C 153.789062 27.179688 154.457031 27.804688 154.800781 28.539062 C 155.273438 29.546875 156.070312 31.355469 156.070312 36.347656 C 156.070312 43.859375 154.953125 44.570312 154.652344 44.914062 C 154.285156 45.34375 153.53125 45.6875 153.101562 45.773438 Z M 153.101562 45.773438 "/>
<path fill="none" stroke-width="0.5" stroke-linecap="round" stroke-linejoin="round" stroke="rgb(0%, 0%, 0%)" stroke-opacity="1" stroke-miterlimit="4" d="M -15.636833 -16.522544 C -14.483187 -16.548585 -14.470167 -16.249106 -15.472771 -16.181398 C -5.576937 -17.264731 5.394417 -16.733481 15.180875 -17.118898 C 24.524625 -16.572023 24.847542 -16.816814 24.876188 -6.280356 C 25.360563 -2.457439 24.798063 2.480061 25.055875 7.076415 C 24.829313 16.709227 24.717333 16.063394 14.618375 16.961831 C 5.089729 16.943602 -5.652458 17.065998 -15.235792 17.02954 C -24.915479 16.865477 -25.399854 16.579019 -25.550896 6.454019 C -25.699333 2.263915 -24.597771 -2.738689 -25.269646 -6.014731 C -24.962354 -16.894939 -25.256625 -15.996502 -15.636833 -16.522544 Z M -15.636833 -16.522544 " transform="matrix(1.5, 0, 0, -1.5, 136.916187, 36.345091)"/>
<path fill="none" stroke-width="0.5" stroke-linecap="round" stroke-linejoin="round" stroke="rgb(0%, 0%, 0%)" stroke-opacity="1" stroke-miterlimit="4" d="M -53.579542 -0.293377 C -44.313917 -0.290773 -34.879021 -0.139731 -25.230583 0.256102 " transform="matrix(1.5, 0, 0, -1.5, 136.916187, 36.345091)"/>
<path fill="none" stroke-width="0.5" stroke-linecap="round" stroke-linejoin="round" stroke="rgb(0%, 0%, 0%)" stroke-opacity="1" stroke-miterlimit="4" d="M -33.618604 -5.215252 C -31.602979 -2.624106 -28.808708 -1.006919 -25.235792 0.243081 C -28.545687 1.003498 -31.399854 2.532144 -33.957146 5.399331 " transform="matrix(1.5, 0, 0, -1.5, 136.916187, 36.345091)"/>
<path fill="none" stroke-width="0.5" stroke-linecap="round" stroke-linejoin="round" stroke="rgb(0%, 0%, 0%)" stroke-opacity="1" stroke-miterlimit="4" d="M 25.053271 -0.0225436 C 34.303271 0.0946439 43.891813 -0.124106 53.613167 -0.285564 " transform="matrix(1.5, 0, 0, -1.5, 136.916187, 36.345091)"/>
<path fill="none" stroke-width="0.5" stroke-linecap="round" stroke-linejoin="round" stroke="rgb(0%, 0%, 0%)" stroke-opacity="1" stroke-miterlimit="4" d="M 44.756396 -5.155356 C 46.988167 -2.392335 50.344938 -0.926189 53.706917 -0.207439 C 50.342333 0.480061 47.066292 2.899331 44.967333 5.651936 " transform="matrix(1.5, 0, 0, -1.5, 136.916187, 36.345091)"/>
<path fill="none" stroke-width="0.5" stroke-linecap="round" stroke-linejoin="round" stroke="rgb(0%, 0%, 0%)" stroke-opacity="1" stroke-miterlimit="4" d="M -14.962354 -16.12671 C -15.350375 -17.085044 -15.129021 -16.236085 -14.837354 -16.293377 C -4.582146 -16.069419 5.680875 -16.040773 15.766813 -16.238689 C 24.675667 -16.264731 25.188688 -17.045981 25.305875 -6.592856 C 25.706917 -1.868898 25.264208 2.761311 25.10275 6.138915 C 25.667854 16.823811 25.72775 16.943602 15.428271 16.240477 C 5.303271 15.987873 -5.126417 16.313394 -15.410271 16.329019 C -24.6785 17.058186 -24.957146 16.628498 -25.214958 7.079019 C -25.493604 1.972248 -25.642042 -2.335044 -25.311312 -7.014731 C -25.673292 -16.738689 -25.243604 -16.767335 -14.962354 -16.12671 Z M -14.962354 -16.12671 " transform="matrix(1.5, 0, 0, -1.5, 136.916187, 36.345091)"/>
<path fill="none" stroke-width="0.5" stroke-linecap="round" stroke-linejoin="round" stroke="rgb(0%, 0%, 0%)" stroke-opacity="1" stroke-miterlimit="4" d="M -53.759229 0.21704 C -44.326937 -0.243898 -34.642042 -0.121502 -25.321729 -0.217856 " transform="matrix(1.5, 0, 0, -1.5, 136.916187, 36.345091)"/>
<path fill="none" stroke-width="0.5" stroke-linecap="round" stroke-linejoin="round" stroke="rgb(0%, 0%, 0%)" stroke-opacity="1" stroke-miterlimit="4" d="M -33.889437 -5.233481 C -31.949333 -2.613689 -28.673292 -0.973064 -25.199333 -0.202231 C -28.45975 0.862873 -31.782667 2.881102 -33.785271 5.485269 " transform="matrix(1.5, 0, 0, -1.5, 136.916187, 36.345091)"/>
<path fill="none" stroke-width="0.5" stroke-linecap="round" stroke-linejoin="round" stroke="rgb(0%, 0%, 0%)" stroke-opacity="1" stroke-miterlimit="4" d="M 25.324104 0.263915 C 34.657438 -0.269939 43.805875 -0.280356 53.748583 0.180581 " transform="matrix(1.5, 0, 0, -1.5, 136.916187, 36.345091)"/>
<path fill="none" stroke-width="0.5" stroke-linecap="round" stroke-linejoin="round" stroke="rgb(0%, 0%, 0%)" stroke-opacity="1" stroke-miterlimit="4" d="M 44.967333 -5.31421 C 47.251188 -2.920981 50.339729 -0.608481 53.430875 -0.0251478 C 50.061083 0.730061 47.279833 2.539956 45.147021 5.571206 " transform="matrix(1.5, 0, 0, -1.5, 136.916187, 36.345091)"/>
<path fill="none" stroke-width="0.5" stroke-linecap="round" stroke-linejoin="round" stroke="rgb(0%, 0%, 0%)" stroke-opacity="1" stroke-miterlimit="4" d="M -15.061312 -16.926189 C -14.579542 -16.723064 -15.384229 -16.147544 -15.660271 -17.197023 C -5.540479 -16.551189 4.475146 -16.288169 14.805875 -16.452231 C 24.553271 -17.225669 24.787646 -16.62671 25.3215 -6.079835 C 24.782438 -2.09546 24.509 1.834227 24.800667 6.287352 C 25.472542 16.917561 25.745979 17.050373 15.118375 16.31079 C 5.3215 16.743081 -4.412875 16.901936 -15.691521 16.862873 C -24.975375 16.227456 -25.761833 16.534748 -25.144646 6.336831 C -24.819125 1.688394 -24.754021 -1.913169 -25.1785 -6.746502 C -24.868604 -16.837648 -25.040479 -16.038169 -15.061312 -16.926189 Z M -15.061312 -16.926189 " transform="matrix(1.5, 0, 0, -1.5, 136.916187, 36.345091)"/>
<path fill="none" stroke-width="0.5" stroke-linecap="round" stroke-linejoin="round" stroke="rgb(0%, 0%, 0%)" stroke-opacity="1" stroke-miterlimit="4" d="M -53.186312 -0.0928561 C -43.915479 -0.212648 -34.871208 0.282144 -25.527458 -0.217856 " transform="matrix(1.5, 0, 0, -1.5, 136.916187, 36.345091)"/>
<path fill="none" stroke-width="0.5" stroke-linecap="round" stroke-linejoin="round" stroke="rgb(0%, 0%, 0%)" stroke-opacity="1" stroke-miterlimit="4" d="M -33.764437 -5.105877 C -31.800896 -2.587648 -28.972771 -0.772544 -25.449333 -0.210044 C -28.535271 0.753498 -31.530062 2.844644 -33.64725 5.131102 " transform="matrix(1.5, 0, 0, -1.5, 136.916187, 36.345091)"/>
<path fill="none" stroke-width="0.5" stroke-linecap="round" stroke-linejoin="round" stroke="rgb(0%, 0%, 0%)" stroke-opacity="1" stroke-miterlimit="4" d="M 25.35275 -0.298585 C 34.480354 -0.207439 43.982958 0.0477689 53.178271 0.232665 " transform="matrix(1.5, 0, 0, -1.5, 136.916187, 36.345091)"/>
<path fill="none" stroke-width="0.5" stroke-linecap="round" stroke-linejoin="round" stroke="rgb(0%, 0%, 0%)" stroke-opacity="1" stroke-miterlimit="4" d="M 44.766813 -5.655356 C 47.180875 -2.832439 50.232958 -0.652752 53.456917 0.120686 C 50.248583 0.670165 47.050667 2.594644 44.753792 5.355061 " transform="matrix(1.5, 0, 0, -1.5, 136.916187, 36.345091)"/>
<path fill="none" stroke-width="0.5" stroke-linecap="round" stroke-linejoin="round" stroke="rgb(0%, 0%, 0%)" stroke-opacity="1" stroke-miterlimit="4" d="M -15.045687 -17.272544 C -15.118604 -16.832439 -15.116 -16.243898 -15.032667 -16.460044 C -4.451937 -16.980877 4.634 -16.129314 14.5715 -16.155356 C 24.673063 -17.212648 24.889208 -16.78296 25.600146 -6.098064 C 25.089729 -2.673585 24.488167 2.237873 25.558479 5.995686 C 25.524625 16.047769 24.785042 16.657144 15.644417 16.112873 C 4.441292 16.336831 -5.639437 16.534748 -14.717562 17.164956 C -25.642042 16.31079 -24.876417 16.448811 -25.759229 6.443602 C -25.64725 2.65454 -25.149854 -2.197023 -24.644646 -6.75171 C -24.491 -16.637127 -24.852979 -16.980877 -15.045687 -17.272544 Z M -15.045687 -17.272544 " transform="matrix(1.5, 0, 0, -1.5, 136.916187, 36.345091)"/>
<path fill="none" stroke-width="0.5" stroke-linecap="round" stroke-linejoin="round" stroke="rgb(0%, 0%, 0%)" stroke-opacity="1" stroke-miterlimit="4" d="M -53.415479 -0.0199394 C -43.991 0.105061 -34.774854 0.159748 -25.282667 -0.285564 " transform="matrix(1.5, 0, 0, -1.5, 136.916187, 36.345091)"/>
<path fill="none" stroke-width="0.5" stroke-linecap="round" stroke-linejoin="round" stroke="rgb(0%, 0%, 0%)" stroke-opacity="1" stroke-miterlimit="4" d="M -33.988396 -5.551189 C -31.808708 -2.460044 -28.912875 -0.90796 -25.472771 -0.139731 C -28.735792 0.961831 -31.576937 2.641519 -33.954542 5.131102 " transform="matrix(1.5, 0, 0, -1.5, 136.916187, 36.345091)"/>
<path fill="none" stroke-width="0.5" stroke-linecap="round" stroke-linejoin="round" stroke="rgb(0%, 0%, 0%)" stroke-opacity="1" stroke-miterlimit="4" d="M 25.35275 -0.178794 C 34.8215 0.157144 44.107958 0.133706 53.618375 -0.0746269 " transform="matrix(1.5, 0, 0, -1.5, 136.916187, 36.345091)"/>
<path fill="none" stroke-width="0.5" stroke-linecap="round" stroke-linejoin="round" stroke="rgb(0%, 0%, 0%)" stroke-opacity="1" stroke-miterlimit="4" d="M 45.068896 -5.577231 C 46.860563 -2.527752 50.1965 -0.769939 53.5715 0.214436 C 50.027229 0.985269 47.180875 2.683186 45.105354 5.110269 " transform="matrix(1.5, 0, 0, -1.5, 136.916187, 36.345091)"/>
<path fill="none" stroke-width="0.5" stroke-linecap="round" stroke-linejoin="round" stroke="rgb(0%, 0%, 0%)" stroke-opacity="1" stroke-miterlimit="4" d="M -15.712354 -16.47046 C -15.652458 -16.551189 -15.316521 -16.473064 -14.941521 -16.56421 C -5.386833 -17.228273 5.266813 -17.238689 15.732958 -16.113689 C 25.232958 -16.420981 24.641813 -16.194419 25.001188 -6.030356 C 24.995979 -1.801189 25.248583 1.638915 25.618375 6.472248 C 24.584521 16.597248 25.076708 16.662352 14.613167 17.107665 C 4.949104 17.243081 -5.220167 16.503498 -15.425896 16.352456 C -24.813917 16.198811 -25.233187 17.107665 -25.412875 6.136311 C -24.540479 2.855061 -24.470167 -2.803794 -25.319125 -7.006919 C -25.319125 -16.017335 -25.259229 -16.387127 -15.712354 -16.47046 Z M -15.712354 -16.47046 " transform="matrix(1.5, 0, 0, -1.5, 136.916187, 36.345091)"/>
<path fill="none" stroke-width="0.5" stroke-linecap="round" stroke-linejoin="round" stroke="rgb(0%, 0%, 0%)" stroke-opacity="1" stroke-miterlimit="4" d="M -53.639437 -0.0824394 C -44.269646 -0.163169 -34.975375 -0.269939 -25.222771 0.120686 " transform="matrix(1.5, 0, 0, -1.5, 136.916187, 36.345091)"/>
<path fill="none" stroke-width="0.5" stroke-linecap="round" stroke-linejoin="round" stroke="rgb(0%, 0%, 0%)" stroke-opacity="1" stroke-miterlimit="4" d="M -33.970167 -5.566814 C -31.694125 -2.920981 -28.894646 -0.611085 -25.157667 0.222248 C -28.699333 0.784748 -31.735792 2.891519 -33.602979 5.589436 " transform="matrix(1.5, 0, 0, -1.5, 136.916187, 36.345091)"/>
<path fill="none" stroke-width="0.5" stroke-linecap="round" stroke-linejoin="round" stroke="rgb(0%, 0%, 0%)" stroke-opacity="1" stroke-miterlimit="4" d="M 25.058479 -0.280356 C 34.730354 0.222248 44.277229 0.128498 53.667854 -0.295981 " transform="matrix(1.5, 0, 0, -1.5, 136.916187, 36.345091)"/>
<path fill="none" stroke-width="0.5" stroke-linecap="round" stroke-linejoin="round" stroke="rgb(0%, 0%, 0%)" stroke-opacity="1" stroke-miterlimit="4" d="M 44.899625 -5.644939 C 47.157438 -2.410564 50.399625 -0.803794 53.631396 -0.0433769 C 50.410042 0.922769 47.3215 2.430581 44.920458 5.451415 " transform="matrix(1.5, 0, 0, -1.5, 136.916187, 36.345091)"/>
<path fill-rule="nonzero" fill="rgb(0%, 0%, 0%)" fill-opacity="1" d="M 11.382812 27.605469 C 11.40625 27.605469 12.15625 27.820312 12.546875 27.925781 C 12.824219 28.011719 13.039062 28.269531 13.039062 28.570312 C 13.0625 29.796875 13.105469 31.949219 13.105469 32.269531 C 13.105469 35.390625 13.082031 38.535156 12.910156 41.65625 L 13.148438 41.851562 L 14.933594 41.226562 C 14.828125 39.160156 14.828125 37.070312 14.828125 35.003906 C 14.957031 35.003906 15.148438 35.089844 15.257812 35.195312 C 15.882812 35.820312 18.613281 39.332031 20.613281 41.894531 L 22.746094 41.335938 L 22.746094 41.140625 L 17.085938 34.765625 L 17.128906 34.59375 C 18.914062 34.398438 20.660156 33.691406 21.347656 32.1875 C 21.667969 31.457031 21.753906 31.15625 21.753906 30.128906 C 21.753906 29.375 21.453125 28.648438 20.917969 28.109375 C 20.550781 27.722656 20.054688 27.53125 19.539062 27.378906 C 18.851562 27.1875 18.117188 27.121094 17.386719 27.121094 L 11.535156 27.109375 L 11.40625 27.238281 L 11.382812 27.605469 M 14.804688 33.753906 C 14.804688 33.648438 14.890625 29.890625 14.933594 28.519531 C 14.957031 28.109375 15.019531 27.960938 15.191406 27.960938 L 16.054688 27.960938 C 16.632812 27.960938 17.238281 28.003906 17.816406 28.152344 C 18.226562 28.261719 18.636719 28.433594 18.9375 28.734375 C 19.386719 29.183594 19.648438 29.828125 19.648438 30.472656 C 19.648438 31.4375 19.214844 32.339844 18.550781 33.003906 C 17.839844 33.734375 16.804688 33.96875 15.816406 34.054688 C 15.558594 34.078125 15.277344 34.078125 15 34.078125 C 14.847656 34.078125 14.804688 33.882812 14.804688 33.753906 Z M 14.804688 33.753906 "/>
<path fill-rule="nonzero" fill="rgb(0%, 0%, 0%)" fill-opacity="1" d="M 25.757812 36.347656 C 25.757812 41.554688 26.597656 43.664062 27.265625 44.589844 C 27.867188 45.386719 28.769531 46.203125 29.804688 46.289062 L 29.804688 45.773438 C 29.375 45.6875 28.726562 45.34375 28.363281 44.914062 C 28.0625 44.570312 26.878906 42.976562 26.878906 36.347656 C 26.878906 31.785156 27.585938 29.546875 28.0625 28.539062 C 28.40625 27.804688 29.117188 27.160156 29.804688 26.988281 L 29.804688 26.40625 C 28.921875 26.558594 27.976562 27.246094 27.4375 28 C 26.769531 28.988281 25.757812 31.507812 25.757812 36.347656 Z M 25.757812 36.347656 "/>
<path fill-rule="nonzero" fill="rgb(0%, 0%, 0%)" fill-opacity="1" d="M 34 40.296875 C 34.214844 40.707031 34.515625 41.074219 34.859375 41.375 C 35.484375 41.933594 36.347656 42.082031 37.164062 42.082031 C 38.390625 42.082031 39.59375 41.675781 40.433594 40.769531 C 40.953125 40.234375 41.210938 39.5 41.210938 38.746094 C 41.210938 38.207031 40.90625 37.714844 40.519531 37.324219 C 40.21875 37.023438 39.421875 36.550781 38.734375 36.25 C 38.109375 35.992188 37.183594 35.515625 36.925781 35.257812 C 36.605469 34.914062 36.367188 34.65625 36.367188 34.183594 C 36.367188 33.707031 36.519531 33.257812 36.863281 32.933594 C 37.183594 32.609375 37.660156 32.4375 38.132812 32.4375 C 38.5625 32.4375 39.015625 32.589844 39.25 32.976562 C 39.464844 33.320312 39.507812 33.730469 39.53125 34.117188 L 39.789062 34.269531 L 40.972656 33.472656 C 40.953125 32.996094 40.714844 32.546875 40.371094 32.222656 C 39.875 31.769531 39.1875 31.683594 38.542969 31.683594 C 37.488281 31.683594 36.476562 32.027344 35.699219 32.738281 C 35.121094 33.257812 34.816406 34.011719 34.816406 34.761719 C 34.816406 35.453125 35.207031 36.054688 35.699219 36.507812 C 36.195312 36.9375 36.839844 37.238281 37.507812 37.519531 C 38.066406 37.757812 38.671875 38.015625 39.078125 38.421875 C 39.402344 38.746094 39.636719 39.175781 39.636719 39.628906 C 39.636719 40.015625 39.445312 40.382812 39.1875 40.664062 C 38.863281 41.007812 38.28125 41.265625 37.808594 41.265625 C 37.164062 41.265625 36.582031 40.984375 36.109375 40.535156 C 35.613281 40.082031 35.398438 39.4375 35.355469 38.789062 L 35.054688 38.769531 Z M 34 40.296875 "/>
<path fill-rule="nonzero" fill="rgb(0%, 0%, 0%)" fill-opacity="1" d="M 45.730469 45.773438 L 45.730469 46.289062 C 46.761719 46.160156 47.730469 45.429688 48.332031 44.632812 C 49 43.707031 49.816406 41.554688 49.816406 36.347656 C 49.816406 30.949219 48.699219 28.988281 48.03125 28 C 47.492188 27.246094 46.609375 26.558594 45.730469 26.40625 L 45.730469 26.988281 C 46.417969 27.179688 47.085938 27.804688 47.429688 28.539062 C 47.902344 29.546875 48.699219 31.355469 48.699219 36.347656 C 48.699219 43.859375 47.578125 44.570312 47.277344 44.914062 C 46.910156 45.34375 46.160156 45.6875 45.730469 45.773438 Z M 45.730469 45.773438 "/>
<path fill-rule="nonzero" fill="rgb(0%, 0%, 0%)" fill-opacity="1" d="M 223.484375 34.703125 C 223.484375 36.8125 224.042969 38.945312 225.550781 40.449219 C 226.777344 41.675781 228.542969 42.042969 230.242188 42.042969 C 232.113281 42.042969 233.835938 41.136719 235.386719 40.082031 L 235.019531 39.460938 C 233.8125 40.277344 232.457031 40.902344 230.996094 40.902344 C 229.230469 40.902344 228.328125 40.296875 227.144531 39.117188 C 226.433594 38.40625 225.398438 36.296875 225.398438 34.316406 C 225.398438 33.261719 225.53125 32.1875 225.851562 31.175781 C 226.109375 30.359375 226.496094 29.585938 227.101562 28.960938 C 228.046875 28.015625 229.382812 27.5625 230.695312 27.5625 C 231.683594 27.5625 232.71875 27.820312 233.425781 28.53125 C 233.921875 29.023438 234.289062 29.648438 234.546875 30.335938 L 234.847656 30.359375 L 236.074219 29.109375 C 235.835938 28.722656 235.558594 28.359375 235.234375 28.035156 C 234.246094 27.023438 232.824219 26.679688 231.425781 26.679688 C 229.1875 26.679688 227.015625 27.453125 225.445312 29.023438 C 223.9375 30.507812 223.484375 32.640625 223.484375 34.703125 Z M 223.484375 34.703125 "/>
<path fill-rule="nonzero" fill="rgb(0%, 0%, 0%)" fill-opacity="1" d="M 239.410156 36.347656 C 239.410156 41.554688 240.25 43.664062 240.914062 44.589844 C 241.519531 45.386719 242.421875 46.203125 243.457031 46.289062 L 243.457031 45.773438 C 243.023438 45.6875 242.378906 45.34375 242.011719 44.914062 C 241.710938 44.570312 240.527344 42.976562 240.527344 36.347656 C 240.527344 31.785156 241.238281 29.546875 241.710938 28.539062 C 242.054688 27.804688 242.765625 27.160156 243.457031 26.988281 L 243.457031 26.40625 C 242.574219 26.558594 241.625 27.246094 241.089844 28 C 240.421875 28.988281 239.410156 31.507812 239.410156 36.347656 Z M 239.410156 36.347656 "/>
<path fill-rule="nonzero" fill="rgb(0%, 0%, 0%)" fill-opacity="1" d="M 247.652344 40.296875 C 247.867188 40.707031 248.167969 41.074219 248.511719 41.375 C 249.136719 41.933594 249.996094 42.082031 250.816406 42.082031 C 252.042969 42.082031 253.246094 41.675781 254.085938 40.769531 C 254.601562 40.234375 254.859375 39.5 254.859375 38.746094 C 254.859375 38.207031 254.558594 37.714844 254.171875 37.324219 C 253.871094 37.023438 253.074219 36.550781 252.386719 36.25 C 251.761719 35.992188 250.835938 35.515625 250.578125 35.257812 C 250.253906 34.914062 250.019531 34.65625 250.019531 34.183594 C 250.019531 33.707031 250.167969 33.257812 250.511719 32.933594 C 250.835938 32.609375 251.308594 32.4375 251.78125 32.4375 C 252.214844 32.4375 252.664062 32.589844 252.902344 32.976562 C 253.117188 33.320312 253.160156 33.730469 253.183594 34.117188 L 253.441406 34.269531 L 254.625 33.472656 C 254.601562 32.996094 254.367188 32.546875 254.019531 32.222656 C 253.527344 31.769531 252.835938 31.683594 252.191406 31.683594 C 251.136719 31.683594 250.125 32.027344 249.351562 32.738281 C 248.769531 33.257812 248.46875 34.011719 248.46875 34.761719 C 248.46875 35.453125 248.855469 36.054688 249.351562 36.507812 C 249.847656 36.9375 250.492188 37.238281 251.160156 37.519531 C 251.71875 37.757812 252.320312 38.015625 252.730469 38.421875 C 253.054688 38.746094 253.289062 39.175781 253.289062 39.628906 C 253.289062 40.015625 253.097656 40.382812 252.835938 40.664062 C 252.515625 41.007812 251.933594 41.265625 251.460938 41.265625 C 250.816406 41.265625 250.234375 40.984375 249.761719 40.535156 C 249.265625 40.082031 249.050781 39.4375 249.007812 38.789062 L 248.707031 38.769531 Z M 247.652344 40.296875 "/>
<path fill-rule="nonzero" fill="rgb(0%, 0%, 0%)" fill-opacity="1" d="M 259.378906 45.773438 L 259.378906 46.289062 C 260.414062 46.160156 261.378906 45.429688 261.984375 44.632812 C 262.652344 43.707031 263.46875 41.554688 263.46875 36.347656 C 263.46875 30.949219 262.347656 28.988281 261.683594 28 C 261.144531 27.246094 260.261719 26.558594 259.378906 26.40625 L 259.378906 26.988281 C 260.066406 27.179688 260.734375 27.804688 261.078125 28.539062 C 261.554688 29.546875 262.347656 31.355469 262.347656 36.347656 C 262.347656 43.859375 261.230469 44.570312 260.929688 44.914062 C 260.5625 45.34375 259.808594 45.6875 259.378906 45.773438 Z M 259.378906 45.773438 "/>
</svg>
