<?xml version="1.0" encoding="UTF-8"?>
<svg xmlns="http://www.w3.org/2000/svg" xmlns:xlink="http://www.w3.org/1999/xlink" width="446.94635" height="186.575329" viewBox="0 0 446.94635 186.575329">
<path fill-rule="nonzero" fill="rgb(0%, 0%, 0%)" fill-opacity="1" d="M 311.46875 93.996094 L 322.996094 93.996094 L 322.996094 105.523438 L 324.484375 105.265625 L 324.484375 93.996094 L 335.9375 93.996094 L 336.125 92.507812 L 324.484375 92.507812 L 324.484375 80.980469 L 322.996094 81.203125 L 322.996094 92.507812 L 311.730469 92.507812 Z M 311.46875 93.996094 "/>
<path fill-rule="nonzero" fill="rgb(0%, 0%, 0%)" fill-opacity="1" d="M 179.953125 34.824219 C 179.953125 36.871094 180.492188 38.980469 181.953125 40.445312 C 183.117188 41.609375 184.730469 42.167969 186.367188 42.167969 C 187.9375 42.167969 190.261719 41.585938 192.15625 41.09375 C 192.15625 41.09375 192.089844 37.148438 192.046875 35.191406 L 186.109375 35.429688 L 186.109375 35.988281 L 186.238281 36.09375 C 187.398438 36.136719 188.777344 36.222656 189.722656 36.289062 C 190.324219 36.332031 190.324219 37.019531 190.324219 38.917969 C 190.324219 40.488281 190.261719 40.746094 189.894531 40.832031 C 189.226562 40.984375 188.5625 41.050781 187.871094 41.050781 C 186.195312 41.050781 184.601562 40.511719 183.65625 39.390625 C 182.40625 37.925781 181.890625 36.375 181.890625 34.480469 C 181.890625 31.410156 183.007812 29.644531 183.632812 29.023438 C 184.558594 28.121094 185.828125 27.820312 187.097656 27.820312 C 189.917969 27.820312 190.777344 29.839844 191.058594 30.398438 L 191.316406 30.417969 L 192.5625 29.195312 C 192.328125 28.828125 191.1875 26.765625 188.066406 26.765625 C 185.808594 26.765625 183.546875 27.429688 181.933594 29.042969 C 180.425781 30.546875 179.953125 32.71875 179.953125 34.824219 Z M 179.953125 34.824219 "/>
<path fill-rule="nonzero" fill="rgb(0%, 0%, 0%)" fill-opacity="1" d="M 196.910156 36.433594 C 196.910156 41.640625 197.75 43.75 198.417969 44.675781 C 199.019531 45.472656 199.921875 46.289062 200.957031 46.375 L 200.957031 45.859375 C 200.527344 45.773438 199.878906 45.429688 199.515625 44.996094 C 199.214844 44.652344 198.03125 43.0625 198.03125 36.433594 C 198.03125 31.871094 198.738281 29.632812 199.214844 28.621094 C 199.558594 27.890625 200.269531 27.242188 200.957031 27.070312 L 200.957031 26.492188 C 200.074219 26.640625 199.128906 27.328125 198.589844 28.082031 C 197.921875 29.074219 196.910156 31.589844 196.910156 36.433594 Z M 196.910156 36.433594 "/>
<path fill-rule="nonzero" fill="rgb(0%, 0%, 0%)" fill-opacity="1" d="M 205.152344 40.382812 C 205.367188 40.789062 205.667969 41.15625 206.011719 41.457031 C 206.636719 42.019531 207.496094 42.167969 208.316406 42.167969 C 209.542969 42.167969 210.746094 41.757812 211.585938 40.855469 C 212.101562 40.316406 212.359375 39.585938 212.359375 38.832031 C 212.359375 38.292969 212.058594 37.796875 211.671875 37.410156 C 211.371094 37.109375 210.574219 36.636719 209.886719 36.332031 C 209.261719 36.074219 208.335938 35.601562 208.078125 35.34375 C 207.757812 35 207.519531 34.738281 207.519531 34.265625 C 207.519531 33.792969 207.671875 33.339844 208.015625 33.019531 C 208.335938 32.695312 208.8125 32.523438 209.285156 32.523438 C 209.714844 32.523438 210.167969 32.671875 210.402344 33.0625 C 210.617188 33.40625 210.660156 33.8125 210.683594 34.203125 L 210.941406 34.351562 L 212.125 33.554688 C 212.101562 33.082031 211.867188 32.628906 211.523438 32.308594 C 211.027344 31.855469 210.339844 31.769531 209.691406 31.769531 C 208.636719 31.769531 207.628906 32.113281 206.851562 32.824219 C 206.269531 33.339844 205.96875 34.09375 205.96875 34.847656 C 205.96875 35.535156 206.355469 36.140625 206.851562 36.589844 C 207.347656 37.023438 207.992188 37.324219 208.660156 37.605469 C 209.21875 37.839844 209.820312 38.097656 210.230469 38.507812 C 210.554688 38.832031 210.789062 39.261719 210.789062 39.714844 C 210.789062 40.101562 210.597656 40.46875 210.339844 40.746094 C 210.015625 41.09375 209.433594 41.351562 208.960938 41.351562 C 208.316406 41.351562 207.734375 41.070312 207.261719 40.617188 C 206.765625 40.167969 206.550781 39.519531 206.507812 38.875 L 206.207031 38.851562 Z M 205.152344 40.382812 "/>
<path fill-rule="nonzero" fill="rgb(0%, 0%, 0%)" fill-opacity="1" d="M 216.878906 45.859375 L 216.878906 46.375 C 217.914062 46.246094 218.882812 45.515625 219.484375 44.71875 C 220.152344 43.792969 220.96875 41.640625 220.96875 36.433594 C 220.96875 31.03125 219.851562 29.074219 219.183594 28.082031 C 218.644531 27.328125 217.761719 26.640625 216.878906 26.492188 L 216.878906 27.070312 C 217.570312 27.265625 218.234375 27.890625 218.582031 28.621094 C 219.054688 29.632812 219.851562 31.441406 219.851562 36.433594 C 219.851562 43.941406 218.730469 44.652344 218.429688 44.996094 C 218.0625 45.429688 217.3125 45.773438 216.878906 45.859375 Z M 216.878906 45.859375 "/>
<path fill-rule="nonzero" fill="rgb(0%, 0%, 0%)" fill-opacity="1" d="M 179.953125 148.492188 C 179.953125 150.539062 180.492188 152.648438 181.953125 154.113281 C 183.117188 155.277344 184.730469 155.835938 186.367188 155.835938 C 187.9375 155.835938 190.261719 155.253906 192.15625 154.761719 C 192.15625 154.761719 192.089844 150.816406 192.046875 148.859375 L 186.109375 149.097656 L 186.109375 149.65625 L 186.238281 149.761719 C 187.398438 149.804688 188.777344 149.890625 189.722656 149.957031 C 190.324219 150 190.324219 150.6875 190.324219 152.585938 C 190.324219 154.15625 190.261719 154.414062 189.894531 154.5 C 189.226562 154.652344 188.5625 154.71875 187.871094 154.71875 C 186.195312 154.71875 184.601562 154.179688 183.65625 153.058594 C 182.40625 151.59375 181.890625 150.042969 181.890625 148.148438 C 181.890625 145.078125 183.007812 143.3125 183.632812 142.691406 C 184.558594 141.789062 185.828125 141.488281 187.097656 141.488281 C 189.917969 141.488281 190.777344 143.507812 191.058594 144.066406 L 191.316406 144.085938 L 192.5625 142.863281 C 192.328125 142.496094 191.1875 140.433594 188.066406 140.433594 C 185.808594 140.433594 183.546875 141.097656 181.933594 142.710938 C 180.425781 144.214844 179.953125 146.386719 179.953125 148.492188 Z M 179.953125 148.492188 "/>
<path fill-rule="nonzero" fill="rgb(0%, 0%, 0%)" fill-opacity="1" d="M 196.910156 150.101562 C 196.910156 155.308594 197.75 157.417969 198.417969 158.34375 C 199.019531 159.140625 199.921875 159.957031 200.957031 160.042969 L 200.957031 159.527344 C 200.527344 159.441406 199.878906 159.097656 199.515625 158.664062 C 199.214844 158.320312 198.03125 156.730469 198.03125 150.101562 C 198.03125 145.539062 198.738281 143.300781 199.214844 142.289062 C 199.558594 141.558594 200.269531 140.910156 200.957031 140.738281 L 200.957031 140.160156 C 200.074219 140.308594 199.128906 141 198.589844 141.75 C 197.921875 142.742188 196.910156 145.257812 196.910156 150.101562 Z M 196.910156 150.101562 "/>
<path fill-rule="nonzero" fill="rgb(0%, 0%, 0%)" fill-opacity="1" d="M 205.152344 154.050781 C 205.367188 154.457031 205.667969 154.824219 206.011719 155.125 C 206.636719 155.6875 207.496094 155.835938 208.316406 155.835938 C 209.542969 155.835938 210.746094 155.425781 211.585938 154.523438 C 212.101562 153.984375 212.359375 153.253906 212.359375 152.5 C 212.359375 151.960938 212.058594 151.464844 211.671875 151.078125 C 211.371094 150.777344 210.574219 150.304688 209.886719 150 C 209.261719 149.742188 208.335938 149.269531 208.078125 149.011719 C 207.757812 148.667969 207.519531 148.40625 207.519531 147.933594 C 207.519531 147.460938 207.671875 147.007812 208.015625 146.6875 C 208.335938 146.363281 208.8125 146.191406 209.285156 146.191406 C 209.714844 146.191406 210.167969 146.339844 210.402344 146.730469 C 210.617188 147.074219 210.660156 147.480469 210.683594 147.871094 L 210.941406 148.019531 L 212.125 147.222656 C 212.101562 146.75 211.867188 146.296875 211.523438 145.976562 C 211.027344 145.523438 210.339844 145.4375 209.691406 145.4375 C 208.636719 145.4375 207.628906 145.78125 206.851562 146.492188 C 206.269531 147.007812 205.96875 147.761719 205.96875 148.515625 C 205.96875 149.203125 206.355469 149.808594 206.851562 150.261719 C 207.347656 150.691406 207.992188 150.992188 208.660156 151.273438 C 209.21875 151.507812 209.820312 151.765625 210.230469 152.175781 C 210.554688 152.5 210.789062 152.929688 210.789062 153.382812 C 210.789062 153.769531 210.597656 154.136719 210.339844 154.414062 C 210.015625 154.761719 209.433594 155.019531 208.960938 155.019531 C 208.316406 155.019531 207.734375 154.738281 207.261719 154.285156 C 206.765625 153.835938 206.550781 153.1875 206.507812 152.542969 L 206.207031 152.519531 Z M 205.152344 154.050781 "/>
<path fill-rule="nonzero" fill="rgb(0%, 0%, 0%)" fill-opacity="1" d="M 216.878906 159.527344 L 216.878906 160.042969 C 217.914062 159.914062 218.882812 159.183594 219.484375 158.386719 C 220.152344 157.460938 220.96875 155.308594 220.96875 150.101562 C 220.96875 144.699219 219.851562 142.742188 219.183594 141.75 C 218.644531 141 217.761719 140.308594 216.878906 140.160156 L 216.878906 140.738281 C 217.570312 140.933594 218.234375 141.558594 218.582031 142.289062 C 219.054688 143.300781 219.851562 145.109375 219.851562 150.101562 C 219.851562 157.609375 218.730469 158.320312 218.429688 158.664062 C 218.0625 159.097656 217.3125 159.441406 216.878906 159.527344 Z M 216.878906 159.527344 "/>
<path fill="none" stroke-width="0.5" stroke-linecap="round" stroke-linejoin="round" stroke="rgb(0%, 0%, 0%)" stroke-opacity="1" stroke-miterlimit="4" d="M 53.007701 21.816254 C 52.346242 21.154795 53.124888 21.761566 52.156138 20.774587 C 62.346242 21.378754 73.033742 20.667816 82.492076 21.006358 C 92.408742 21.464691 92.421763 21.230316 92.507701 31.699066 C 92.627492 35.923024 93.385305 39.558441 92.593638 44.985524 C 92.674367 53.883962 93.153534 54.589691 83.104055 54.805837 C 72.205617 54.928233 62.312388 54.160004 52.624888 55.113129 C 42.140513 53.870941 42.749888 54.933441 42.520721 43.998545 C 42.781138 39.714691 42.93218 35.537608 42.328013 30.878754 C 42.510305 20.972504 42.174367 21.206879 53.007701 21.816254 Z M 53.007701 21.816254 " transform="matrix(1.5, 0, 0, -1.5, 99.238449, 93.263443)"/>
<path fill="none" stroke-width="0.5" stroke-linecap="round" stroke-linejoin="round" stroke="rgb(0%, 0%, 0%)" stroke-opacity="1" stroke-miterlimit="4" d="M 53.05718 -54.519684 C 52.760305 -54.741038 52.02593 -54.701976 52.036346 -54.980621 C 62.145721 -53.899892 72.174367 -53.944163 82.523326 -54.425934 C 92.736867 -54.907705 93.218638 -55.053538 92.205617 -44.194163 C 92.721242 -40.603017 92.624888 -35.756663 93.176971 -30.649892 C 93.273326 -20.949371 93.322805 -21.386871 82.981659 -21.655101 C 72.742076 -21.23583 62.203013 -21.613434 52.189992 -21.316559 C 41.895721 -21.847809 42.385305 -21.438955 42.609263 -30.754059 C 42.156138 -35.306142 42.091034 -40.082184 43.010305 -44.259267 C 42.958221 -54.793121 41.882701 -53.936351 53.05718 -54.519684 Z M 53.05718 -54.519684 " transform="matrix(1.5, 0, 0, -1.5, 99.238449, 93.263443)"/>
<path fill="none" stroke-width="0.5" stroke-linecap="round" stroke-linejoin="round" stroke="rgb(0%, 0%, 0%)" stroke-opacity="1" stroke-miterlimit="4" d="M 163.562388 0.574066 C 163.854055 7.329274 157.676971 14.290212 150.093638 15.061045 C 142.023326 13.943858 134.809784 7.831879 135.153534 0.131358 C 135.377492 -7.912913 142.239471 -14.938955 149.070201 -14.347809 C 158.028534 -13.951976 163.794159 -8.254059 163.562388 0.574066 Z M 163.562388 0.574066 " transform="matrix(1.5, 0, 0, -1.5, 99.238449, 93.263443)"/>
<path fill="none" stroke-width="0.5" stroke-linecap="round" stroke-linejoin="round" stroke="rgb(0%, 0%, 0%)" stroke-opacity="1" stroke-miterlimit="4" d="M -28.125112 0.0662537 C -18.919383 -0.0170797 -9.221466 -0.243642 -0.0652161 0.165212 " transform="matrix(1.5, 0, 0, -1.5, 99.238449, 93.263443)"/>
<path fill="none" stroke-width="0.5" stroke-linecap="round" stroke-linejoin="round" stroke="rgb(0%, 0%, 0%)" stroke-opacity="1" stroke-miterlimit="4" d="M -0.0860494 -0.0978088 C -0.185008 12.738129 0.265513 25.266774 -0.195424 37.644379 C 14.11968 37.712087 28.11968 38.110524 42.156138 37.688649 " transform="matrix(1.5, 0, 0, -1.5, 99.238449, 93.263443)"/>
<path fill="none" stroke-width="0.5" stroke-linecap="round" stroke-linejoin="round" stroke="rgb(0%, 0%, 0%)" stroke-opacity="1" stroke-miterlimit="4" d="M 33.906138 32.35792 C 35.656138 35.035004 39.031138 37.100108 42.153534 37.774587 C 39.096242 38.777191 35.96343 40.342295 34.111867 43.149587 " transform="matrix(1.5, 0, 0, -1.5, 99.238449, 93.263443)"/>
<path fill="none" stroke-width="0.5" stroke-linecap="round" stroke-linejoin="round" stroke="rgb(0%, 0%, 0%)" stroke-opacity="1" stroke-miterlimit="4" d="M 0.166555 0.0844828 C 0.247284 -12.420726 -0.0990702 -25.285309 0.171763 -37.884267 C 14.153534 -37.678538 28.122284 -38.116038 42.393117 -38.092601 " transform="matrix(1.5, 0, 0, -1.5, 99.238449, 93.263443)"/>
<path fill="none" stroke-width="0.5" stroke-linecap="round" stroke-linejoin="round" stroke="rgb(0%, 0%, 0%)" stroke-opacity="1" stroke-miterlimit="4" d="M 34.11968 -43.379059 C 36.216034 -40.42333 39.195201 -38.444163 42.351451 -37.751455 C 38.783742 -37.311351 35.848846 -35.217601 33.843638 -32.475413 " transform="matrix(1.5, 0, 0, -1.5, 99.238449, 93.263443)"/>
<path fill="none" stroke-width="0.5" stroke-linecap="round" stroke-linejoin="round" stroke="rgb(0%, 0%, 0%)" stroke-opacity="1" stroke-miterlimit="4" d="M 92.786346 37.962087 C 111.997284 37.998545 130.708221 38.175629 149.916555 37.719899 C 149.546763 30.38917 149.887909 22.334483 149.598846 14.532399 " transform="matrix(1.5, 0, 0, -1.5, 99.238449, 93.263443)"/>
<path fill="none" stroke-width="0.5" stroke-linecap="round" stroke-linejoin="round" stroke="rgb(0%, 0%, 0%)" stroke-opacity="1" stroke-miterlimit="4" d="M 144.408742 23.329274 C 147.234263 21.217295 148.820201 17.88917 149.945201 14.855316 C 150.442596 17.803233 152.429576 20.910004 155.078013 23.024587 " transform="matrix(1.5, 0, 0, -1.5, 99.238449, 93.263443)"/>
<path fill="none" stroke-width="0.5" stroke-linecap="round" stroke-linejoin="round" stroke="rgb(0%, 0%, 0%)" stroke-opacity="1" stroke-miterlimit="4" d="M 92.512909 -38.061351 C 111.46343 -38.032705 131.010305 -37.647288 149.825409 -38.04833 C 149.505096 -30.157705 149.856659 -22.496246 149.783742 -14.561351 " transform="matrix(1.5, 0, 0, -1.5, 99.238449, 93.263443)"/>
<path fill="none" stroke-width="0.5" stroke-linecap="round" stroke-linejoin="round" stroke="rgb(0%, 0%, 0%)" stroke-opacity="1" stroke-miterlimit="4" d="M 155.012909 -22.98583 C 152.632701 -20.902496 150.507701 -17.751455 149.726451 -14.438955 C 148.903534 -17.813955 146.942596 -21.178538 144.075409 -22.980621 " transform="matrix(1.5, 0, 0, -1.5, 99.238449, 93.263443)"/>
<path fill="none" stroke-width="0.5" stroke-linecap="round" stroke-linejoin="round" stroke="rgb(0%, 0%, 0%)" stroke-opacity="1" stroke-miterlimit="4" d="M 164.153534 -0.186351 C 173.747284 -0.272288 182.973846 0.0766703 192.578013 -0.160309 " transform="matrix(1.5, 0, 0, -1.5, 99.238449, 93.263443)"/>
<path fill="none" stroke-width="0.5" stroke-linecap="round" stroke-linejoin="round" stroke="rgb(0%, 0%, 0%)" stroke-opacity="1" stroke-miterlimit="4" d="M 183.817596 -5.32958 C 186.296763 -2.574371 188.885305 -0.678538 192.27593 0.245941 C 189.36968 1.04542 186.148326 2.917816 184.083221 5.219899 " transform="matrix(1.5, 0, 0, -1.5, 99.238449, 93.263443)"/>
<path fill="none" stroke-width="0.5" stroke-linecap="round" stroke-linejoin="round" stroke="rgb(0%, 0%, 0%)" stroke-opacity="1" stroke-miterlimit="4" d="M 52.098846 21.589691 C 52.158742 20.808441 52.762909 21.665212 52.848846 20.891774 C 62.455617 21.863129 72.541555 21.459483 83.122284 21.490733 C 93.296763 21.391774 92.814992 20.894379 92.546763 30.873545 C 92.203013 35.391774 92.515513 40.532399 92.406138 44.17042 C 93.104055 54.443858 92.726451 54.206879 83.380096 54.183441 C 72.239471 55.120941 62.049367 55.027191 52.453013 54.756358 C 42.226451 54.498545 42.434784 55.160004 42.692596 44.654795 C 42.575409 40.673024 42.413951 35.370941 42.801971 30.886566 C 42.367076 21.188649 43.012909 21.245941 52.098846 21.589691 Z M 52.098846 21.589691 " transform="matrix(1.5, 0, 0, -1.5, 99.238449, 93.263443)"/>
<path fill="none" stroke-width="0.5" stroke-linecap="round" stroke-linejoin="round" stroke="rgb(0%, 0%, 0%)" stroke-opacity="1" stroke-miterlimit="4" d="M 52.663951 -54.306142 C 53.114471 -54.032705 52.283742 -54.243642 52.885305 -54.014476 C 62.041555 -54.363434 72.187388 -54.308746 82.872284 -54.712392 C 92.249888 -54.386871 92.598846 -54.113434 93.351451 -44.092601 C 92.236867 -39.819163 92.877492 -35.030101 92.145721 -30.894684 C 93.36968 -21.418121 92.575409 -21.647288 83.197805 -21.649892 C 72.564992 -20.910309 62.18218 -21.592601 52.036346 -21.670726 C 42.984263 -20.826976 41.981659 -20.712392 42.939992 -31.056142 C 43.093638 -35.246246 42.481659 -40.264476 42.505096 -44.623851 C 42.505096 -54.04833 43.137909 -54.183746 52.663951 -54.306142 Z M 52.663951 -54.306142 " transform="matrix(1.5, 0, 0, -1.5, 99.238449, 93.263443)"/>
<path fill="none" stroke-width="0.5" stroke-linecap="round" stroke-linejoin="round" stroke="rgb(0%, 0%, 0%)" stroke-opacity="1" stroke-miterlimit="4" d="M 164.510305 0.344899 C 164.729055 8.238129 157.322805 14.303233 149.453013 14.904795 C 141.643117 14.813649 135.031138 8.238129 135.695201 -0.20458 C 135.585826 -8.011871 142.033742 -14.819163 150.226451 -14.886871 C 158.328013 -15.069163 163.637909 -8.524892 164.510305 0.344899 Z M 164.510305 0.344899 " transform="matrix(1.5, 0, 0, -1.5, 99.238449, 93.263443)"/>
<path fill="none" stroke-width="0.5" stroke-linecap="round" stroke-linejoin="round" stroke="rgb(0%, 0%, 0%)" stroke-opacity="1" stroke-miterlimit="4" d="M -28.19282 -0.113434 C -18.690216 -0.280101 -9.270945 0.222504 -0.0990702 -0.116038 " transform="matrix(1.5, 0, 0, -1.5, 99.238449, 93.263443)"/>
<path fill="none" stroke-width="0.5" stroke-linecap="round" stroke-linejoin="round" stroke="rgb(0%, 0%, 0%)" stroke-opacity="1" stroke-miterlimit="4" d="M 0.111867 0.165212 C -0.187612 12.558441 -0.182404 25.183441 -0.16157 37.673024 C 14.387909 37.618337 28.419159 37.769379 42.351451 37.787608 " transform="matrix(1.5, 0, 0, -1.5, 99.238449, 93.263443)"/>
<path fill="none" stroke-width="0.5" stroke-linecap="round" stroke-linejoin="round" stroke="rgb(0%, 0%, 0%)" stroke-opacity="1" stroke-miterlimit="4" d="M 33.762909 32.321462 C 35.913951 35.475108 38.663951 37.008962 42.031138 38.131358 C 38.981659 38.941254 36.145721 40.376149 33.903534 43.029795 " transform="matrix(1.5, 0, 0, -1.5, 99.238449, 93.263443)"/>
<path fill="none" stroke-width="0.5" stroke-linecap="round" stroke-linejoin="round" stroke="rgb(0%, 0%, 0%)" stroke-opacity="1" stroke-miterlimit="4" d="M 0.0259298 -0.0795797 C 0.0962423 -12.855621 -0.0964661 -25.066559 0.166555 -37.941559 C 14.140513 -37.957184 27.903534 -38.105621 42.380096 -38.030101 " transform="matrix(1.5, 0, 0, -1.5, 99.238449, 93.263443)"/>
<path fill="none" stroke-width="0.5" stroke-linecap="round" stroke-linejoin="round" stroke="rgb(0%, 0%, 0%)" stroke-opacity="1" stroke-miterlimit="4" d="M 33.781138 -43.183746 C 36.033742 -40.347809 39.127492 -38.785309 42.062388 -37.683746 C 38.973846 -37.358226 35.830617 -35.376455 34.031138 -32.233226 " transform="matrix(1.5, 0, 0, -1.5, 99.238449, 93.263443)"/>
<path fill="none" stroke-width="0.5" stroke-linecap="round" stroke-linejoin="round" stroke="rgb(0%, 0%, 0%)" stroke-opacity="1" stroke-miterlimit="4" d="M 92.765513 38.115733 C 111.564992 38.048024 130.447805 37.912608 149.783742 38.055837 C 150.002492 29.943858 149.856659 22.347504 149.937388 14.584483 " transform="matrix(1.5, 0, 0, -1.5, 99.238449, 93.263443)"/>
<path fill="none" stroke-width="0.5" stroke-linecap="round" stroke-linejoin="round" stroke="rgb(0%, 0%, 0%)" stroke-opacity="1" stroke-miterlimit="4" d="M 144.140513 23.144379 C 147.234263 20.941254 149.062388 17.740733 149.916555 14.667816 C 150.200409 17.930837 152.096242 21.165212 154.913951 23.120941 " transform="matrix(1.5, 0, 0, -1.5, 99.238449, 93.263443)"/>
<path fill="none" stroke-width="0.5" stroke-linecap="round" stroke-linejoin="round" stroke="rgb(0%, 0%, 0%)" stroke-opacity="1" stroke-miterlimit="4" d="M 92.596242 -38.001455 C 111.489471 -37.881663 130.622284 -38.092601 149.52593 -38.147288 C 149.705617 -29.89208 149.955617 -22.584788 149.937388 -14.537913 " transform="matrix(1.5, 0, 0, -1.5, 99.238449, 93.263443)"/>
<path fill="none" stroke-width="0.5" stroke-linecap="round" stroke-linejoin="round" stroke="rgb(0%, 0%, 0%)" stroke-opacity="1" stroke-miterlimit="4" d="M 155.361867 -23.178538 C 152.661346 -20.980621 150.721242 -17.910309 149.809784 -14.605621 C 148.736867 -18.074371 147.179576 -21.118642 144.489471 -22.92333 " transform="matrix(1.5, 0, 0, -1.5, 99.238449, 93.263443)"/>
<path fill="none" stroke-width="0.5" stroke-linecap="round" stroke-linejoin="round" stroke="rgb(0%, 0%, 0%)" stroke-opacity="1" stroke-miterlimit="4" d="M 164.109263 0.204274 C 173.739471 -0.11083 182.851451 -0.0457255 192.523326 -0.293121 " transform="matrix(1.5, 0, 0, -1.5, 99.238449, 93.263443)"/>
<path fill="none" stroke-width="0.5" stroke-linecap="round" stroke-linejoin="round" stroke="rgb(0%, 0%, 0%)" stroke-opacity="1" stroke-miterlimit="4" d="M 184.21343 -5.532705 C 186.403534 -2.522288 188.976451 -0.655101 192.413951 0.0193787 C 189.044159 0.745941 186.163951 2.904795 184.080617 5.154795 " transform="matrix(1.5, 0, 0, -1.5, 99.238449, 93.263443)"/>
<path fill="none" stroke-width="0.5" stroke-linecap="round" stroke-linejoin="round" stroke="rgb(0%, 0%, 0%)" stroke-opacity="1" stroke-miterlimit="4" d="M 52.395721 21.816254 C 52.424367 21.771983 52.005096 21.769379 53.041555 20.646983 C 62.05718 21.131358 72.106659 21.785004 82.658742 20.954274 C 92.346242 20.712087 92.783742 21.623545 92.166555 30.899587 C 92.489471 35.956879 92.895721 40.654795 93.286346 44.967295 C 92.299367 54.003754 92.700409 55.029795 82.757701 55.037608 C 72.106659 53.946462 62.429576 53.943858 52.377492 54.602712 C 43.064992 54.821462 42.265513 54.344899 43.078013 45.024587 C 42.781138 39.800629 42.864471 36.089691 42.885305 31.04542 C 42.708221 20.712087 43.093638 21.511566 52.395721 21.816254 Z M 52.395721 21.816254 " transform="matrix(1.5, 0, 0, -1.5, 99.238449, 93.263443)"/>
<path fill="none" stroke-width="0.5" stroke-linecap="round" stroke-linejoin="round" stroke="rgb(0%, 0%, 0%)" stroke-opacity="1" stroke-miterlimit="4" d="M 52.585826 -54.683746 C 52.49468 -54.324371 52.046763 -54.839996 52.413951 -54.777496 C 62.434784 -54.584788 72.278534 -54.983226 82.439992 -54.420726 C 92.835826 -54.576976 92.442596 -54.358226 92.643117 -44.293121 C 92.799367 -40.558746 92.192596 -36.092601 92.578013 -31.748851 C 92.770721 -21.243642 92.898326 -20.863434 83.046763 -20.686351 C 72.304576 -20.623851 62.161346 -20.756663 52.442596 -21.420726 C 42.895721 -21.795726 42.58843 -20.944163 42.86968 -30.67333 C 42.176971 -35.491038 42.390513 -39.660309 42.757701 -44.472809 C 42.505096 -55.082184 42.549367 -54.358226 52.585826 -54.683746 Z M 52.585826 -54.683746 " transform="matrix(1.5, 0, 0, -1.5, 99.238449, 93.263443)"/>
<path fill="none" stroke-width="0.5" stroke-linecap="round" stroke-linejoin="round" stroke="rgb(0%, 0%, 0%)" stroke-opacity="1" stroke-miterlimit="4" d="M 164.283742 -0.431142 C 164.567596 7.766774 158.08843 14.118337 150.049367 14.472504 C 141.341034 14.368337 134.997284 7.626149 135.208221 0.180837 C 134.77593 -8.306142 142.309784 -14.293121 149.262909 -14.381663 C 157.515513 -14.230621 164.705617 -7.691559 164.283742 -0.431142 Z M 164.283742 -0.431142 " transform="matrix(1.5, 0, 0, -1.5, 99.238449, 93.263443)"/>
<path fill="none" stroke-width="0.5" stroke-linecap="round" stroke-linejoin="round" stroke="rgb(0%, 0%, 0%)" stroke-opacity="1" stroke-miterlimit="4" d="M -28.47407 -0.053538 C -18.674591 -0.287913 -9.375112 0.0948995 0.210826 -0.214996 " transform="matrix(1.5, 0, 0, -1.5, 99.238449, 93.263443)"/>
<path fill="none" stroke-width="0.5" stroke-linecap="round" stroke-linejoin="round" stroke="rgb(0%, 0%, 0%)" stroke-opacity="1" stroke-miterlimit="4" d="M -0.28657 -0.0405172 C 0.291555 12.881358 0.109263 25.485524 -0.294383 37.605316 C 14.015513 37.704274 27.906138 37.930837 42.281138 38.186045 " transform="matrix(1.5, 0, 0, -1.5, 99.238449, 93.263443)"/>
<path fill="none" stroke-width="0.5" stroke-linecap="round" stroke-linejoin="round" stroke="rgb(0%, 0%, 0%)" stroke-opacity="1" stroke-miterlimit="4" d="M 34.007701 32.344899 C 35.676971 35.087087 39.208221 37.165212 42.189992 37.722504 C 39.046763 38.787608 35.762909 40.412608 33.770721 43.381358 " transform="matrix(1.5, 0, 0, -1.5, 99.238449, 93.263443)"/>
<path fill="none" stroke-width="0.5" stroke-linecap="round" stroke-linejoin="round" stroke="rgb(0%, 0%, 0%)" stroke-opacity="1" stroke-miterlimit="4" d="M -0.270945 -0.222809 C 0.101451 -12.438955 -0.0938619 -25.496246 -0.0652161 -38.149892 C 14.299367 -37.866038 28.330617 -37.82958 42.187388 -37.793121 " transform="matrix(1.5, 0, 0, -1.5, 99.238449, 93.263443)"/>
<path fill="none" stroke-width="0.5" stroke-linecap="round" stroke-linejoin="round" stroke="rgb(0%, 0%, 0%)" stroke-opacity="1" stroke-miterlimit="4" d="M 33.559784 -43.053538 C 35.755096 -40.754059 38.997284 -38.764476 42.567596 -37.988434 C 39.205617 -37.334788 35.830617 -35.157705 33.976451 -32.524892 " transform="matrix(1.5, 0, 0, -1.5, 99.238449, 93.263443)"/>
<path fill="none" stroke-width="0.5" stroke-linecap="round" stroke-linejoin="round" stroke="rgb(0%, 0%, 0%)" stroke-opacity="1" stroke-miterlimit="4" d="M 92.468638 38.123545 C 111.653534 37.938649 130.74468 37.792816 149.583221 37.85792 C 149.945201 29.928233 149.442596 22.373545 149.614471 14.831879 " transform="matrix(1.5, 0, 0, -1.5, 99.238449, 93.263443)"/>
<path fill="none" stroke-width="0.5" stroke-linecap="round" stroke-linejoin="round" stroke="rgb(0%, 0%, 0%)" stroke-opacity="1" stroke-miterlimit="4" d="M 144.075409 23.290212 C 147.075409 21.165212 148.968638 18.183441 149.760305 14.579274 C 150.260305 18.113129 152.43218 20.956879 155.051971 23.214691 " transform="matrix(1.5, 0, 0, -1.5, 99.238449, 93.263443)"/>
<path fill="none" stroke-width="0.5" stroke-linecap="round" stroke-linejoin="round" stroke="rgb(0%, 0%, 0%)" stroke-opacity="1" stroke-miterlimit="4" d="M 92.593638 -38.084788 C 111.570201 -37.998851 130.814992 -37.772288 149.453013 -37.938955 C 149.864471 -29.918121 149.752492 -22.32958 150.007701 -14.933746 " transform="matrix(1.5, 0, 0, -1.5, 99.238449, 93.263443)"/>
<path fill="none" stroke-width="0.5" stroke-linecap="round" stroke-linejoin="round" stroke="rgb(0%, 0%, 0%)" stroke-opacity="1" stroke-miterlimit="4" d="M 154.955617 -22.915517 C 152.354055 -20.793121 150.705617 -17.899892 149.538951 -14.444163 C 148.71343 -18.194163 147.265513 -21.238434 144.49468 -23.063955 " transform="matrix(1.5, 0, 0, -1.5, 99.238449, 93.263443)"/>
<path fill="none" stroke-width="0.5" stroke-linecap="round" stroke-linejoin="round" stroke="rgb(0%, 0%, 0%)" stroke-opacity="1" stroke-miterlimit="4" d="M 164.426971 -0.0561422 C 173.828013 -0.183746 182.890513 -0.168121 192.260305 -0.285309 " transform="matrix(1.5, 0, 0, -1.5, 99.238449, 93.263443)"/>
<path fill="none" stroke-width="0.5" stroke-linecap="round" stroke-linejoin="round" stroke="rgb(0%, 0%, 0%)" stroke-opacity="1" stroke-miterlimit="4" d="M 184.051971 -5.363434 C 186.044159 -2.550934 189.40093 -0.57958 192.299367 -0.188955 C 189.122284 0.493337 185.924367 2.740733 183.929576 5.081879 " transform="matrix(1.5, 0, 0, -1.5, 99.238449, 93.263443)"/>
<path fill="none" stroke-width="0.5" stroke-linecap="round" stroke-linejoin="round" stroke="rgb(0%, 0%, 0%)" stroke-opacity="1" stroke-miterlimit="4" d="M 52.476451 21.160004 C 52.231659 21.714691 52.992076 21.779795 52.393117 21.084483 C 62.536346 21.079274 72.596242 21.133962 82.229055 20.808441 C 92.846242 20.758962 92.242076 21.186045 93.049367 31.370941 C 92.497284 35.425629 93.286346 40.529795 92.171763 44.975108 C 93.265513 55.097504 92.645721 54.087087 83.161346 54.904795 C 72.913951 54.60792 62.580617 54.23292 52.973846 54.410004 C 42.955617 54.331879 42.192596 54.70167 42.367076 44.972504 C 42.916555 40.688649 42.104055 35.118337 42.145721 30.967295 C 43.145721 20.977712 43.143117 21.524587 52.476451 21.160004 Z M 52.476451 21.160004 " transform="matrix(1.5, 0, 0, -1.5, 99.238449, 93.263443)"/>
<path fill="none" stroke-width="0.5" stroke-linecap="round" stroke-linejoin="round" stroke="rgb(0%, 0%, 0%)" stroke-opacity="1" stroke-miterlimit="4" d="M 52.192596 -55.144684 C 51.906138 -54.795726 52.653534 -55.024892 52.249888 -54.07958 C 62.705617 -54.285309 72.497284 -54.54833 83.002492 -54.754059 C 93.174367 -54.087392 92.924367 -54.946767 92.218638 -44.418121 C 93.036346 -40.504059 92.997284 -35.67333 93.33843 -30.931142 C 92.755096 -21.355621 92.242076 -21.45458 82.30718 -21.543121 C 72.361867 -21.050934 62.104055 -21.217601 52.018117 -21.824371 C 42.205617 -21.803538 43.072805 -20.636871 42.140513 -31.683746 C 42.747284 -35.873851 43.041555 -39.519684 42.038951 -43.983226 C 41.921763 -54.444163 42.091034 -54.014476 52.192596 -55.144684 Z M 52.192596 -55.144684 " transform="matrix(1.5, 0, 0, -1.5, 99.238449, 93.263443)"/>
<path fill="none" stroke-width="0.5" stroke-linecap="round" stroke-linejoin="round" stroke="rgb(0%, 0%, 0%)" stroke-opacity="1" stroke-miterlimit="4" d="M 164.299367 -0.238434 C 164.166555 7.673024 157.723846 14.969899 149.070201 13.805837 C 141.447805 14.100108 135.627492 7.407399 135.023326 -0.569163 C 134.968638 -8.478017 141.161346 -14.199371 150.166555 -14.834788 C 157.374888 -14.89208 164.333221 -7.764476 164.299367 -0.238434 Z M 164.299367 -0.238434 " transform="matrix(1.5, 0, 0, -1.5, 99.238449, 93.263443)"/>
<path fill="none" stroke-width="0.5" stroke-linecap="round" stroke-linejoin="round" stroke="rgb(0%, 0%, 0%)" stroke-opacity="1" stroke-miterlimit="4" d="M -28.114695 0.0584412 C -18.622508 -0.0899963 -9.708445 0.214691 -0.211049 -0.103017 " transform="matrix(1.5, 0, 0, -1.5, 99.238449, 93.263443)"/>
<path fill="none" stroke-width="0.5" stroke-linecap="round" stroke-linejoin="round" stroke="rgb(0%, 0%, 0%)" stroke-opacity="1" stroke-miterlimit="4" d="M 0.0936381 0.0662537 C -0.0079244 12.469899 -0.28657 25.120941 0.0363464 37.714691 C 14.007701 37.675629 28.038951 37.896983 42.127492 37.988129 " transform="matrix(1.5, 0, 0, -1.5, 99.238449, 93.263443)"/>
<path fill="none" stroke-width="0.5" stroke-linecap="round" stroke-linejoin="round" stroke="rgb(0%, 0%, 0%)" stroke-opacity="1" stroke-miterlimit="4" d="M 33.757701 32.805837 C 36.184784 35.040212 38.723846 37.13917 42.091034 37.839691 C 38.924367 38.863129 36.117076 40.63917 34.015513 43.48292 " transform="matrix(1.5, 0, 0, -1.5, 99.238449, 93.263443)"/>
<path fill="none" stroke-width="0.5" stroke-linecap="round" stroke-linejoin="round" stroke="rgb(0%, 0%, 0%)" stroke-opacity="1" stroke-miterlimit="4" d="M -0.283966 0.040212 C 0.0467631 -12.511871 0.221242 -25.022288 0.0988464 -37.938955 C 14.033742 -38.019684 28.080617 -37.696767 42.093638 -37.884267 " transform="matrix(1.5, 0, 0, -1.5, 99.238449, 93.263443)"/>
<path fill="none" stroke-width="0.5" stroke-linecap="round" stroke-linejoin="round" stroke="rgb(0%, 0%, 0%)" stroke-opacity="1" stroke-miterlimit="4" d="M 34.101451 -43.027496 C 36.031138 -40.82958 39.174367 -38.925934 42.515513 -37.720205 C 38.911346 -36.972809 35.895721 -35.157705 33.551971 -32.287913 " transform="matrix(1.5, 0, 0, -1.5, 99.238449, 93.263443)"/>
<path fill="none" stroke-width="0.5" stroke-linecap="round" stroke-linejoin="round" stroke="rgb(0%, 0%, 0%)" stroke-opacity="1" stroke-miterlimit="4" d="M 93.005096 37.883962 C 111.843638 37.730316 130.945201 37.92042 149.794159 37.834483 C 149.614471 30.35792 149.979055 22.673024 149.617076 14.899587 " transform="matrix(1.5, 0, 0, -1.5, 99.238449, 93.263443)"/>
<path fill="none" stroke-width="0.5" stroke-linecap="round" stroke-linejoin="round" stroke="rgb(0%, 0%, 0%)" stroke-opacity="1" stroke-miterlimit="4" d="M 144.325409 23.136566 C 147.184784 20.990733 148.721242 17.891774 149.747284 14.928233 C 150.762909 17.774587 152.304576 21.154795 154.825409 22.912608 " transform="matrix(1.5, 0, 0, -1.5, 99.238449, 93.263443)"/>
<path fill="none" stroke-width="0.5" stroke-linecap="round" stroke-linejoin="round" stroke="rgb(0%, 0%, 0%)" stroke-opacity="1" stroke-miterlimit="4" d="M 92.880096 -38.100413 C 111.934784 -37.957184 130.947805 -37.879059 149.929576 -37.720205 C 149.908742 -30.056142 149.859263 -22.149892 149.820201 -14.394684 " transform="matrix(1.5, 0, 0, -1.5, 99.238449, 93.263443)"/>
<path fill="none" stroke-width="0.5" stroke-linecap="round" stroke-linejoin="round" stroke="rgb(0%, 0%, 0%)" stroke-opacity="1" stroke-miterlimit="4" d="M 154.841034 -23.168121 C 152.130096 -20.894684 150.768117 -17.949371 149.541555 -14.574371 C 149.002492 -18.129059 146.786346 -20.738434 144.538951 -23.095205 " transform="matrix(1.5, 0, 0, -1.5, 99.238449, 93.263443)"/>
<path fill="none" stroke-width="0.5" stroke-linecap="round" stroke-linejoin="round" stroke="rgb(0%, 0%, 0%)" stroke-opacity="1" stroke-miterlimit="4" d="M 164.184784 -0.17333 C 173.799367 0.118337 183.051971 0.217295 192.622284 0.269379 " transform="matrix(1.5, 0, 0, -1.5, 99.238449, 93.263443)"/>
<path fill="none" stroke-width="0.5" stroke-linecap="round" stroke-linejoin="round" stroke="rgb(0%, 0%, 0%)" stroke-opacity="1" stroke-miterlimit="4" d="M 183.843638 -5.67333 C 186.007701 -2.48583 189.002492 -1.035309 192.455617 -0.0196838 C 189.18218 0.730316 186.075409 2.740733 184.130096 5.347504 " transform="matrix(1.5, 0, 0, -1.5, 99.238449, 93.263443)"/>
<path fill="none" stroke-width="0.5" stroke-linecap="round" stroke-linejoin="round" stroke="rgb(0%, 0%, 0%)" stroke-opacity="1" stroke-miterlimit="4" d="M 53.018117 21.024587 C 51.898326 21.157399 52.617076 20.852712 53.08843 20.876149 C 63.247284 21.13917 72.044159 21.818858 83.382701 21.829274 C 93.341034 21.186045 93.127492 21.42042 92.205617 31.399587 C 93.067596 35.35792 92.512909 40.712087 92.851451 44.680837 C 92.117076 54.876149 92.466034 54.092295 82.981659 54.417816 C 72.643117 54.566254 62.411346 54.751149 52.385305 55.019379 C 42.606659 55.058441 42.312388 53.967295 42.598846 44.800629 C 42.124888 40.628754 41.955617 36.100108 42.476451 31.021983 C 42.583221 20.766774 42.833221 21.790212 53.018117 21.024587 Z M 53.018117 21.024587 " transform="matrix(1.5, 0, 0, -1.5, 99.238449, 93.263443)"/>
<path fill="none" stroke-width="0.5" stroke-linecap="round" stroke-linejoin="round" stroke="rgb(0%, 0%, 0%)" stroke-opacity="1" stroke-miterlimit="4" d="M 51.885305 -53.912913 C 52.11968 -54.722809 52.346242 -55.084788 53.111867 -54.649892 C 63.205617 -55.149892 72.176971 -55.019684 82.593638 -55.019684 C 92.687388 -54.118642 92.18218 -54.582184 92.411346 -44.868642 C 93.231659 -40.412913 92.361867 -35.478017 93.072805 -31.313955 C 92.679576 -21.839996 92.893117 -20.912913 82.52593 -20.668121 C 72.61968 -21.790517 62.093638 -21.631663 52.90093 -21.412913 C 42.450409 -21.342601 43.114471 -21.728017 41.950409 -31.321767 C 41.924367 -35.837392 42.828013 -40.264476 42.197805 -44.506663 C 42.010305 -54.006663 42.385305 -53.876455 51.885305 -53.912913 Z M 51.885305 -53.912913 " transform="matrix(1.5, 0, 0, -1.5, 99.238449, 93.263443)"/>
<path fill="none" stroke-width="0.5" stroke-linecap="round" stroke-linejoin="round" stroke="rgb(0%, 0%, 0%)" stroke-opacity="1" stroke-miterlimit="4" d="M 163.893117 -0.569163 C 163.689992 8.568858 158.221242 14.058441 149.773326 14.016774 C 141.189992 15.021983 134.942596 8.180837 134.913951 0.563649 C 135.643117 -7.379059 141.796763 -14.558746 149.361867 -14.871246 C 158.255096 -14.475413 163.515513 -7.524892 163.893117 -0.569163 Z M 163.893117 -0.569163 " transform="matrix(1.5, 0, 0, -1.5, 99.238449, 93.263443)"/>
<path fill="none" stroke-width="0.5" stroke-linecap="round" stroke-linejoin="round" stroke="rgb(0%, 0%, 0%)" stroke-opacity="1" stroke-miterlimit="4" d="M -28.565216 0.196462 C -18.97407 0.0688578 -9.346466 0.219899 0.229055 0.0454203 " transform="matrix(1.5, 0, 0, -1.5, 99.238449, 93.263443)"/>
<path fill="none" stroke-width="0.5" stroke-linecap="round" stroke-linejoin="round" stroke="rgb(0%, 0%, 0%)" stroke-opacity="1" stroke-miterlimit="4" d="M -0.0938619 0.17042 C 0.18218 12.428233 -0.0912577 25.542816 0.169159 37.98292 C 13.942596 37.816254 28.205617 37.719899 42.538951 38.024587 " transform="matrix(1.5, 0, 0, -1.5, 99.238449, 93.263443)"/>
<path fill="none" stroke-width="0.5" stroke-linecap="round" stroke-linejoin="round" stroke="rgb(0%, 0%, 0%)" stroke-opacity="1" stroke-miterlimit="4" d="M 33.814992 32.743337 C 35.760305 34.92042 39.020721 36.993337 42.122284 37.76417 C 39.197805 38.709483 35.997284 40.824066 33.674367 43.527191 " transform="matrix(1.5, 0, 0, -1.5, 99.238449, 93.263443)"/>
<path fill="none" stroke-width="0.5" stroke-linecap="round" stroke-linejoin="round" stroke="rgb(0%, 0%, 0%)" stroke-opacity="1" stroke-miterlimit="4" d="M -0.19282 0.261566 C 0.286346 -12.853017 0.122284 -25.07958 -0.203237 -37.944163 C 13.919159 -37.92333 28.419159 -38.118642 42.158742 -37.769684 " transform="matrix(1.5, 0, 0, -1.5, 99.238449, 93.263443)"/>
<path fill="none" stroke-width="0.5" stroke-linecap="round" stroke-linejoin="round" stroke="rgb(0%, 0%, 0%)" stroke-opacity="1" stroke-miterlimit="4" d="M 34.130096 -43.027496 C 36.226451 -40.561351 38.666555 -38.920726 42.283742 -37.837392 C 39.11968 -36.993642 35.937388 -35.121246 34.11968 -32.269684 " transform="matrix(1.5, 0, 0, -1.5, 99.238449, 93.263443)"/>
<path fill="none" stroke-width="0.5" stroke-linecap="round" stroke-linejoin="round" stroke="rgb(0%, 0%, 0%)" stroke-opacity="1" stroke-miterlimit="4" d="M 92.895721 37.876149 C 111.609263 37.933441 130.606659 38.092295 150.007701 38.13917 C 149.627492 30.443858 149.968638 22.57667 150.007701 14.407399 " transform="matrix(1.5, 0, 0, -1.5, 99.238449, 93.263443)"/>
<path fill="none" stroke-width="0.5" stroke-linecap="round" stroke-linejoin="round" stroke="rgb(0%, 0%, 0%)" stroke-opacity="1" stroke-miterlimit="4" d="M 144.27593 23.212087 C 147.301971 20.936045 148.643117 17.743337 149.828013 14.436045 C 150.234263 17.743337 152.489471 21.04542 154.820201 23.199066 " transform="matrix(1.5, 0, 0, -1.5, 99.238449, 93.263443)"/>
<path fill="none" stroke-width="0.5" stroke-linecap="round" stroke-linejoin="round" stroke="rgb(0%, 0%, 0%)" stroke-opacity="1" stroke-miterlimit="4" d="M 92.669159 -37.597809 C 111.564992 -38.058746 130.921763 -37.686351 149.611867 -37.879059 C 149.958221 -29.858226 149.921763 -22.639476 149.906138 -14.51708 " transform="matrix(1.5, 0, 0, -1.5, 99.238449, 93.263443)"/>
<path fill="none" stroke-width="0.5" stroke-linecap="round" stroke-linejoin="round" stroke="rgb(0%, 0%, 0%)" stroke-opacity="1" stroke-miterlimit="4" d="M 155.127492 -23.353017 C 152.296763 -21.214996 150.481659 -18.248851 149.830617 -14.826976 C 148.903534 -18.282705 146.864471 -21.11083 144.046763 -23.277496 " transform="matrix(1.5, 0, 0, -1.5, 99.238449, 93.263443)"/>
<path fill="none" stroke-width="0.5" stroke-linecap="round" stroke-linejoin="round" stroke="rgb(0%, 0%, 0%)" stroke-opacity="1" stroke-miterlimit="4" d="M 164.385305 0.0688578 C 173.676971 -0.0118713 183.067596 0.225108 192.786346 -0.254059 " transform="matrix(1.5, 0, 0, -1.5, 99.238449, 93.263443)"/>
<path fill="none" stroke-width="0.5" stroke-linecap="round" stroke-linejoin="round" stroke="rgb(0%, 0%, 0%)" stroke-opacity="1" stroke-miterlimit="4" d="M 184.044159 -5.472809 C 186.005096 -2.918121 189.223846 -1.053538 192.703013 0.0219828 C 189.15093 0.870941 186.062388 2.675629 183.947805 5.654795 " transform="matrix(1.5, 0, 0, -1.5, 99.238449, 93.263443)"/>
<path fill-rule="nonzero" fill="rgb(0%, 0%, 0%)" fill-opacity="1" d="M 330.9375 61.785156 L 337.609375 61.785156 L 337.609375 68.457031 L 338.472656 68.308594 L 338.472656 61.785156 L 345.097656 61.785156 L 345.207031 60.925781 L 338.472656 60.925781 L 338.472656 54.253906 L 337.609375 54.382812 L 337.609375 60.925781 L 331.089844 60.925781 Z M 330.9375 61.785156 "/>
<path fill-rule="nonzero" fill="rgb(0%, 0%, 0%)" fill-opacity="1" d="M 330.9375 125.589844 L 337.609375 125.589844 L 337.609375 132.261719 L 338.472656 132.109375 L 338.472656 125.589844 L 345.097656 125.589844 L 345.207031 124.730469 L 338.472656 124.730469 L 338.472656 118.058594 L 337.609375 118.1875 L 337.609375 124.730469 L 331.089844 124.730469 Z M 330.9375 125.589844 "/>
<path fill-rule="nonzero" fill="rgb(0%, 0%, 0%)" fill-opacity="1" d="M 11.382812 84.523438 C 11.40625 84.523438 12.15625 84.738281 12.546875 84.84375 C 12.824219 84.929688 13.039062 85.191406 13.039062 85.492188 C 13.0625 86.714844 13.105469 88.867188 13.105469 89.1875 C 13.105469 92.308594 13.082031 95.453125 12.910156 98.574219 L 13.148438 98.769531 L 14.933594 98.144531 C 14.828125 96.078125 14.828125 93.988281 14.828125 91.921875 C 14.957031 91.921875 15.148438 92.007812 15.257812 92.113281 C 15.882812 92.738281 18.613281 96.25 20.613281 98.8125 L 22.746094 98.253906 L 22.746094 98.058594 L 17.085938 91.683594 L 17.128906 91.511719 C 18.914062 91.320312 20.660156 90.609375 21.347656 89.105469 C 21.667969 88.375 21.753906 88.078125 21.753906 87.046875 C 21.753906 86.296875 21.453125 85.566406 20.917969 85.027344 C 20.550781 84.640625 20.054688 84.449219 19.539062 84.296875 C 18.851562 84.105469 18.117188 84.039062 17.386719 84.039062 L 11.535156 84.027344 L 11.40625 84.15625 L 11.382812 84.523438 M 14.804688 90.671875 C 14.804688 90.566406 14.890625 86.808594 14.933594 85.4375 C 14.957031 85.027344 15.019531 84.878906 15.191406 84.878906 L 16.054688 84.878906 C 16.632812 84.878906 17.238281 84.921875 17.816406 85.070312 C 18.226562 85.179688 18.636719 85.351562 18.9375 85.652344 C 19.386719 86.101562 19.648438 86.746094 19.648438 87.390625 C 19.648438 88.355469 19.214844 89.257812 18.550781 89.921875 C 17.839844 90.652344 16.804688 90.886719 15.816406 90.972656 C 15.558594 90.996094 15.277344 90.996094 15 90.996094 C 14.847656 90.996094 14.804688 90.800781 14.804688 90.671875 Z M 14.804688 90.671875 "/>
<path fill-rule="nonzero" fill="rgb(0%, 0%, 0%)" fill-opacity="1" d="M 25.757812 93.265625 C 25.757812 98.476562 26.597656 100.582031 27.265625 101.507812 C 27.867188 102.304688 28.769531 103.121094 29.804688 103.207031 L 29.804688 102.691406 C 29.375 102.605469 28.726562 102.261719 28.363281 101.832031 C 28.0625 101.488281 26.878906 99.894531 26.878906 93.265625 C 26.878906 88.703125 27.585938 86.46875 28.0625 85.457031 C 28.40625 84.722656 29.117188 84.078125 29.804688 83.90625 L 29.804688 83.324219 C 28.921875 83.476562 27.976562 84.164062 27.4375 84.917969 C 26.769531 85.90625 25.757812 88.425781 25.757812 93.265625 Z M 25.757812 93.265625 "/>
<path fill-rule="nonzero" fill="rgb(0%, 0%, 0%)" fill-opacity="1" d="M 34 97.214844 C 34.214844 97.625 34.515625 97.992188 34.859375 98.292969 C 35.484375 98.851562 36.347656 99.003906 37.164062 99.003906 C 38.390625 99.003906 39.59375 98.59375 40.433594 97.6875 C 40.953125 97.152344 41.210938 96.417969 41.210938 95.664062 C 41.210938 95.128906 40.90625 94.632812 40.519531 94.242188 C 40.21875 93.941406 39.421875 93.46875 38.734375 93.167969 C 38.109375 92.910156 37.183594 92.433594 36.925781 92.175781 C 36.605469 91.832031 36.367188 91.574219 36.367188 91.101562 C 36.367188 90.625 36.519531 90.175781 36.863281 89.851562 C 37.183594 89.527344 37.660156 89.355469 38.132812 89.355469 C 38.5625 89.355469 39.015625 89.507812 39.25 89.894531 C 39.464844 90.238281 39.507812 90.648438 39.53125 91.035156 L 39.789062 91.1875 L 40.972656 90.390625 C 40.953125 89.917969 40.714844 89.464844 40.371094 89.140625 C 39.875 88.6875 39.1875 88.601562 38.542969 88.601562 C 37.488281 88.601562 36.476562 88.949219 35.699219 89.65625 C 35.121094 90.175781 34.816406 90.929688 34.816406 91.683594 C 34.816406 92.371094 35.207031 92.972656 35.699219 93.425781 C 36.195312 93.855469 36.839844 94.15625 37.507812 94.4375 C 38.066406 94.675781 38.671875 94.933594 39.078125 95.34375 C 39.402344 95.664062 39.636719 96.09375 39.636719 96.546875 C 39.636719 96.9375 39.445312 97.300781 39.1875 97.582031 C 38.863281 97.925781 38.28125 98.183594 37.808594 98.183594 C 37.164062 98.183594 36.582031 97.90625 36.109375 97.453125 C 35.613281 97 35.398438 96.355469 35.355469 95.707031 L 35.054688 95.6875 Z M 34 97.214844 "/>
<path fill-rule="nonzero" fill="rgb(0%, 0%, 0%)" fill-opacity="1" d="M 45.730469 102.691406 L 45.730469 103.207031 C 46.761719 103.078125 47.730469 102.347656 48.332031 101.550781 C 49 100.625 49.816406 98.476562 49.816406 93.265625 C 49.816406 87.867188 48.699219 85.90625 48.03125 84.917969 C 47.492188 84.164062 46.609375 83.476562 45.730469 83.324219 L 45.730469 83.90625 C 46.417969 84.101562 47.085938 84.722656 47.429688 85.457031 C 47.902344 86.46875 48.699219 88.273438 48.699219 93.265625 C 48.699219 100.777344 47.578125 101.488281 47.277344 101.832031 C 46.910156 102.261719 46.160156 102.605469 45.730469 102.691406 Z M 45.730469 102.691406 "/>
<path fill-rule="nonzero" fill="rgb(0%, 0%, 0%)" fill-opacity="1" d="M 394.339844 91.625 C 394.339844 93.730469 394.898438 95.863281 396.40625 97.367188 C 397.632812 98.59375 399.394531 98.960938 401.097656 98.960938 C 402.96875 98.960938 404.691406 98.054688 406.238281 97 L 405.875 96.378906 C 404.667969 97.195312 403.3125 97.820312 401.847656 97.820312 C 400.085938 97.820312 399.179688 97.21875 397.996094 96.035156 C 397.289062 95.324219 396.253906 93.214844 396.253906 91.234375 C 396.253906 90.183594 396.382812 89.105469 396.707031 88.09375 C 396.964844 87.277344 397.351562 86.503906 397.953125 85.878906 C 398.902344 84.933594 400.234375 84.480469 401.546875 84.480469 C 402.539062 84.480469 403.570312 84.738281 404.28125 85.449219 C 404.777344 85.945312 405.140625 86.566406 405.398438 87.257812 L 405.699219 87.277344 L 406.929688 86.03125 C 406.691406 85.640625 406.410156 85.277344 406.089844 84.953125 C 405.097656 83.941406 403.679688 83.597656 402.28125 83.597656 C 400.042969 83.597656 397.867188 84.371094 396.296875 85.945312 C 394.789062 87.429688 394.339844 89.558594 394.339844 91.625 Z M 394.339844 91.625 "/>
<path fill-rule="nonzero" fill="rgb(0%, 0%, 0%)" fill-opacity="1" d="M 410.261719 93.265625 C 410.261719 98.476562 411.101562 100.582031 411.769531 101.507812 C 412.371094 102.304688 413.277344 103.121094 414.308594 103.207031 L 414.308594 102.691406 C 413.878906 102.605469 413.234375 102.261719 412.867188 101.832031 C 412.566406 101.488281 411.382812 99.894531 411.382812 93.265625 C 411.382812 88.703125 412.09375 86.46875 412.566406 85.457031 C 412.910156 84.722656 413.621094 84.078125 414.308594 83.90625 L 414.308594 83.324219 C 413.425781 83.476562 412.480469 84.164062 411.941406 84.917969 C 411.273438 85.90625 410.261719 88.425781 410.261719 93.265625 Z M 410.261719 93.265625 "/>
<path fill-rule="nonzero" fill="rgb(0%, 0%, 0%)" fill-opacity="1" d="M 418.503906 97.214844 C 418.71875 97.625 419.023438 97.992188 419.367188 98.292969 C 419.988281 98.851562 420.851562 99.003906 421.667969 99.003906 C 422.894531 99.003906 424.101562 98.59375 424.941406 97.6875 C 425.457031 97.152344 425.714844 96.417969 425.714844 95.664062 C 425.714844 95.128906 425.414062 94.632812 425.027344 94.242188 C 424.722656 93.941406 423.929688 93.46875 423.238281 93.167969 C 422.617188 92.910156 421.691406 92.433594 421.433594 92.175781 C 421.109375 91.832031 420.871094 91.574219 420.871094 91.101562 C 420.871094 90.625 421.023438 90.175781 421.367188 89.851562 C 421.691406 89.527344 422.164062 89.355469 422.636719 89.355469 C 423.066406 89.355469 423.519531 89.507812 423.757812 89.894531 C 423.972656 90.238281 424.015625 90.648438 424.035156 91.035156 L 424.292969 91.1875 L 425.476562 90.390625 C 425.457031 89.917969 425.21875 89.464844 424.875 89.140625 C 424.378906 88.6875 423.691406 88.601562 423.046875 88.601562 C 421.992188 88.601562 420.980469 88.949219 420.207031 89.65625 C 419.625 90.175781 419.324219 90.929688 419.324219 91.683594 C 419.324219 92.371094 419.710938 92.972656 420.207031 93.425781 C 420.699219 93.855469 421.347656 94.15625 422.011719 94.4375 C 422.574219 94.675781 423.175781 94.933594 423.582031 95.34375 C 423.90625 95.664062 424.144531 96.09375 424.144531 96.546875 C 424.144531 96.9375 423.949219 97.300781 423.691406 97.582031 C 423.367188 97.925781 422.789062 98.183594 422.3125 98.183594 C 421.667969 98.183594 421.085938 97.90625 420.613281 97.453125 C 420.121094 97 419.902344 96.355469 419.859375 95.707031 L 419.558594 95.6875 Z M 418.503906 97.214844 "/>
<path fill-rule="nonzero" fill="rgb(0%, 0%, 0%)" fill-opacity="1" d="M 430.234375 102.691406 L 430.234375 103.207031 C 431.265625 103.078125 432.234375 102.347656 432.835938 101.550781 C 433.503906 100.625 434.320312 98.476562 434.320312 93.265625 C 434.320312 87.867188 433.203125 85.90625 432.535156 84.917969 C 431.996094 84.164062 431.117188 83.476562 430.234375 83.324219 L 430.234375 83.90625 C 430.921875 84.101562 431.589844 84.722656 431.933594 85.457031 C 432.40625 86.46875 433.203125 88.273438 433.203125 93.265625 C 433.203125 100.777344 432.085938 101.488281 431.78125 101.832031 C 431.417969 102.261719 430.664062 102.605469 430.234375 102.691406 Z M 430.234375 102.691406 "/>
</svg>
