<?xml version="1.0" encoding="UTF-8"?>
<svg xmlns="http://www.w3.org/2000/svg" xmlns:xlink="http://www.w3.org/1999/xlink" width="324.824593" height="73.598391" viewBox="0 0 324.824593 73.598391">
<path fill-rule="nonzero" fill="rgb(0%, 0%, 0%)" fill-opacity="1" d="M 119.230469 41.847656 C 120.113281 41.847656 120.304688 40.683594 120.304688 40.039062 C 120.304688 40.039062 119.917969 40.363281 118.453125 40.363281 L 113.117188 40.363281 L 113.117188 27.644531 C 113.117188 26.570312 111.308594 26.570312 111.308594 26.570312 L 111.308594 40.769531 C 111.308594 41.847656 113.117188 41.847656 113.117188 41.847656 Z M 119.230469 41.847656 "/>
<path fill-rule="nonzero" fill="rgb(0%, 0%, 0%)" fill-opacity="1" d="M 128.074219 28.265625 C 129.386719 28.269531 129.582031 27.109375 129.582031 26.464844 C 129.582031 26.457031 129.191406 26.78125 127.730469 26.78125 L 119.746094 26.78125 C 118.28125 26.785156 117.894531 26.464844 117.894531 26.464844 C 117.894531 27.101562 118.089844 28.265625 119.402344 28.265625 L 122.800781 28.265625 L 122.800781 40.980469 C 122.800781 42.058594 124.609375 42.058594 124.609375 42.058594 L 124.609375 28.265625 Z M 128.074219 28.265625 "/>
<path fill-rule="nonzero" fill="rgb(0%, 0%, 0%)" fill-opacity="1" d="M 131.34375 40.980469 C 131.34375 42.058594 133.152344 42.058594 133.152344 42.058594 L 133.152344 27.644531 C 133.152344 26.570312 131.34375 26.570312 131.34375 26.570312 Z M 131.34375 40.980469 "/>
<path fill-rule="nonzero" fill="rgb(0%, 0%, 0%)" fill-opacity="1" d="M 142.792969 37.882812 C 142.449219 38.550781 142.296875 39.128906 142.296875 39.605469 C 142.296875 41.667969 145.246094 42.097656 147.808594 42.097656 C 150.96875 42.097656 153.421875 40.570312 153.421875 37.539062 C 153.421875 31.109375 143.867188 34.722656 143.867188 30.65625 C 143.867188 28.765625 145.375 28.121094 147.699219 28.121094 C 150.132812 28.121094 152.410156 28.484375 152.410156 30.742188 C 152.757812 30.054688 152.90625 29.472656 152.90625 29 C 152.90625 26.957031 150.261719 26.527344 147.699219 26.527344 C 144.535156 26.527344 141.976562 27.539062 141.976562 30.851562 C 141.976562 36.636719 151.53125 33.128906 151.53125 37.648438 C 151.53125 39.367188 150.238281 40.507812 147.808594 40.507812 C 145.375 40.507812 142.792969 40.140625 142.792969 37.882812 Z M 142.792969 37.882812 "/>
<path fill-rule="nonzero" fill="rgb(0%, 0%, 0%)" fill-opacity="1" d="M 155.359375 30.941406 L 155.789062 35.136719 C 156.070312 37.914062 157.707031 40.0625 158.847656 40.625 C 157.296875 41.722656 155.875 43.054688 155.875 44.949219 C 155.875 46.777344 156.996094 47.101562 157.640625 47.101562 C 157.878906 47.101562 158.070312 47.015625 158.113281 46.992188 C 157.769531 46.238281 157.621094 45.617188 157.621094 45.058594 C 157.621094 43.570312 158.695312 42.667969 160.160156 41.527344 L 161 40.882812 C 162.269531 39.914062 163.882812 38.019531 164.183594 35.136719 L 164.613281 30.941406 C 164.613281 30.941406 162.957031 30.941406 162.828125 32.015625 L 162.398438 35.609375 C 162.097656 38.171875 159.988281 39.71875 159.988281 39.71875 C 159.988281 39.71875 157.878906 38.171875 157.578125 35.609375 L 157.144531 32.015625 C 157.015625 30.941406 155.359375 30.941406 155.359375 30.941406 Z M 155.359375 30.941406 "/>
<path fill-rule="nonzero" fill="rgb(0%, 0%, 0%)" fill-opacity="1" d="M 166.121094 34.191406 C 166.121094 38.703125 173.050781 35.628906 173.050781 38.722656 C 173.050781 39.796875 172.554688 40.59375 170.335938 40.59375 C 168.121094 40.59375 166.765625 39.820312 166.765625 38.316406 C 166.355469 38.960938 166.183594 39.496094 166.183594 39.96875 C 166.183594 41.476562 168.078125 42.097656 170.335938 42.097656 C 173.285156 42.097656 174.769531 40.785156 174.769531 38.832031 C 174.769531 33.847656 167.839844 36.746094 167.839844 34.191406 C 167.839844 32.898438 168.335938 32.34375 170.335938 32.34375 C 172.554688 32.34375 173.695312 33.136719 173.695312 34.621094 C 174.125 33.953125 174.320312 33.375 174.320312 32.898438 C 174.320312 31.4375 172.554688 30.835938 170.335938 30.835938 C 167.605469 30.835938 166.121094 32.019531 166.121094 34.191406 Z M 166.121094 34.191406 "/>
<path fill-rule="nonzero" fill="rgb(0%, 0%, 0%)" fill-opacity="1" d="M 177.136719 38.632812 C 177.136719 40.808594 178.621094 42.097656 180.925781 42.097656 C 182.667969 42.097656 184.433594 41.367188 184.433594 39.902344 C 184.433594 39.453125 184.261719 38.914062 183.851562 38.3125 C 183.851562 39.773438 182.582031 40.59375 181.097656 40.59375 C 179.398438 40.59375 178.859375 39.582031 178.859375 38.03125 L 178.859375 32.886719 L 182.28125 32.886719 C 183.335938 32.886719 183.355469 31.402344 183.355469 31.402344 L 178.859375 31.402344 L 178.859375 29.621094 C 178.859375 28.546875 177.136719 28.523438 177.136719 28.523438 Z M 177.136719 38.632812 "/>
<path fill-rule="nonzero" fill="rgb(0%, 0%, 0%)" fill-opacity="1" d="M 193.859375 38.316406 C 193.859375 39.820312 192.289062 40.59375 190.414062 40.59375 C 188.414062 40.59375 187.574219 39.820312 187.574219 38.316406 L 187.574219 36.75 C 188.089844 37.117188 189.210938 37.265625 189.941406 37.265625 C 193.105469 37.265625 194.289062 35.824219 194.289062 34.082031 C 194.289062 32.125 192.933594 30.835938 190.199219 30.835938 C 187.46875 30.835938 185.851562 32.125 185.851562 34.296875 L 185.851562 38.640625 C 185.851562 40.808594 187.554688 42.097656 190.285156 42.097656 C 192.394531 42.097656 194.417969 41.324219 194.417969 39.820312 C 194.417969 39.371094 194.246094 38.875 193.859375 38.316406 M 187.574219 34.621094 C 187.574219 33.117188 188.285156 32.234375 190.199219 32.234375 C 191.964844 32.234375 192.566406 32.988281 192.566406 34.082031 C 192.566406 35.136719 191.855469 35.757812 189.8125 35.757812 C 188.886719 35.757812 187.597656 35.414062 187.574219 35.371094 Z M 187.574219 34.621094 "/>
<path fill-rule="nonzero" fill="rgb(0%, 0%, 0%)" fill-opacity="1" d="M 210.816406 40.917969 C 210.816406 41.972656 212.535156 41.996094 212.535156 41.996094 L 212.535156 34.125 C 212.535156 31.804688 210.558594 30.835938 208.597656 30.835938 C 206.402344 30.835938 205.242188 31.609375 204.832031 31.996094 C 204.253906 31.203125 202.808594 30.835938 201.605469 30.835938 C 200.378906 30.84375 199.324219 31.339844 198.226562 31.339844 C 197.839844 31.339844 197 30.953125 197 30.953125 L 197 40.921875 C 197 41.996094 198.722656 41.996094 198.722656 41.996094 L 198.722656 32.78125 C 198.722656 32.78125 199.734375 32.285156 201.304688 32.285156 C 203.21875 32.285156 203.90625 32.910156 203.90625 34.390625 L 203.90625 40.921875 C 203.90625 41.996094 205.628906 41.996094 205.628906 41.996094 L 205.628906 34.023438 C 205.628906 33.058594 206.640625 32.285156 208.210938 32.285156 C 209.867188 32.285156 210.816406 32.910156 210.816406 34.390625 Z M 210.816406 40.917969 "/>
<path fill="none" stroke-width="0.5" stroke-linecap="round" stroke-linejoin="round" stroke="rgb(0%, 0%, 0%)" stroke-opacity="1" stroke-miterlimit="4" d="M -34.387398 -16.374625 C -34.345731 -16.361604 -35.246773 -16.718375 -34.384794 -16.911083 C -11.246773 -16.582958 11.232394 -16.734 34.365206 -16.385042 C 45.399061 -16.429312 45.373019 -16.356396 45.341769 -6.645458 C 45.253227 -2.26525 44.26104 2.060271 44.672498 7.052458 C 44.563123 17.23475 44.195936 16.266 34.958956 17.4535 C 11.076144 17.247771 -11.009794 17.143604 -35.374377 16.505583 C -44.366564 16.917042 -44.702502 16.760792 -44.903023 7.404021 C -44.350939 2.104542 -44.731148 -2.137646 -44.942085 -6.984 C -44.356148 -17.030875 -45.254585 -17.499625 -34.387398 -16.374625 Z M -34.387398 -16.374625 " transform="matrix(1.5, 0, 0, -1.5, 161.831097, 36.777906)"/>
<path fill="none" stroke-width="0.5" stroke-linecap="round" stroke-linejoin="round" stroke="rgb(0%, 0%, 0%)" stroke-opacity="1" stroke-miterlimit="4" d="M -73.413439 0.0576668 C -63.723335 0.146208 -54.233752 0.180063 -45.330106 -0.158479 " transform="matrix(1.5, 0, 0, -1.5, 161.831097, 36.777906)"/>
<path fill="none" stroke-width="0.5" stroke-linecap="round" stroke-linejoin="round" stroke="rgb(0%, 0%, 0%)" stroke-opacity="1" stroke-miterlimit="4" d="M -53.806669 -5.541292 C -51.272814 -2.840771 -48.491564 -0.835562 -45.077502 -0.267854 C -48.624377 0.9535 -51.473335 2.896208 -53.280627 5.164438 " transform="matrix(1.5, 0, 0, -1.5, 161.831097, 36.777906)"/>
<path fill="none" stroke-width="0.5" stroke-linecap="round" stroke-linejoin="round" stroke="rgb(0%, 0%, 0%)" stroke-opacity="1" stroke-miterlimit="4" d="M 44.651665 -0.168896 C 54.123019 0.29725 63.630831 0.112354 73.461561 0.242563 " transform="matrix(1.5, 0, 0, -1.5, 161.831097, 36.777906)"/>
<path fill="none" stroke-width="0.5" stroke-linecap="round" stroke-linejoin="round" stroke="rgb(0%, 0%, 0%)" stroke-opacity="1" stroke-miterlimit="4" d="M 64.938123 -5.351187 C 67.133436 -2.939729 70.016248 -1.038687 73.456352 0.185271 C 69.654269 1.016 66.763644 2.864958 65.024061 5.271208 " transform="matrix(1.5, 0, 0, -1.5, 161.831097, 36.777906)"/>
<path fill="none" stroke-width="0.5" stroke-linecap="round" stroke-linejoin="round" stroke="rgb(0%, 0%, 0%)" stroke-opacity="1" stroke-miterlimit="4" d="M -35.392606 -16.580354 C -34.517606 -17.148062 -34.830106 -16.89025 -34.184273 -17.049104 C -12.069689 -16.51525 11.690727 -17.499625 34.287081 -16.989208 C 44.987602 -16.650667 45.125623 -17.395458 45.240206 -7.002229 C 44.531873 -1.692333 44.990206 2.182667 45.169894 6.966521 C 44.706352 16.562875 45.438123 17.466521 34.599581 16.841521 C 12.07354 16.654021 -12.061877 16.698292 -34.73896 16.661833 C -44.202502 17.432667 -44.999377 16.612354 -45.473335 6.469125 C -44.897814 2.120167 -44.280627 -1.642854 -44.80146 -6.424104 C -44.509794 -16.424104 -44.952502 -17.166292 -35.392606 -16.580354 Z M -35.392606 -16.580354 " transform="matrix(1.5, 0, 0, -1.5, 161.831097, 36.777906)"/>
<path fill="none" stroke-width="0.5" stroke-linecap="round" stroke-linejoin="round" stroke="rgb(0%, 0%, 0%)" stroke-opacity="1" stroke-miterlimit="4" d="M -73.137398 -0.278271 C -64.017606 -0.00483322 -54.418648 -0.142854 -45.283231 0.156625 " transform="matrix(1.5, 0, 0, -1.5, 161.831097, 36.777906)"/>
<path fill="none" stroke-width="0.5" stroke-linecap="round" stroke-linejoin="round" stroke="rgb(0%, 0%, 0%)" stroke-opacity="1" stroke-miterlimit="4" d="M -53.725939 -5.408479 C -51.306669 -2.895458 -48.215523 -0.957958 -45.116564 -0.103792 C -48.538439 0.536833 -51.205106 2.867563 -53.751981 5.260792 " transform="matrix(1.5, 0, 0, -1.5, 161.831097, 36.777906)"/>
<path fill="none" stroke-width="0.5" stroke-linecap="round" stroke-linejoin="round" stroke="rgb(0%, 0%, 0%)" stroke-opacity="1" stroke-miterlimit="4" d="M 45.128227 0.299854 C 54.576144 0.0498543 63.54229 0.198292 73.221977 0.0837084 " transform="matrix(1.5, 0, 0, -1.5, 161.831097, 36.777906)"/>
<path fill="none" stroke-width="0.5" stroke-linecap="round" stroke-linejoin="round" stroke="rgb(0%, 0%, 0%)" stroke-opacity="1" stroke-miterlimit="4" d="M 64.516248 -5.254833 C 66.563123 -2.832958 69.711561 -0.773062 73.344373 0.0550626 C 70.065727 1.062875 66.771456 2.591521 64.992811 5.466521 " transform="matrix(1.5, 0, 0, -1.5, 161.831097, 36.777906)"/>
<path fill="none" stroke-width="0.5" stroke-linecap="round" stroke-linejoin="round" stroke="rgb(0%, 0%, 0%)" stroke-opacity="1" stroke-miterlimit="4" d="M -34.223335 -17.484 C -34.525419 -17.153271 -34.684273 -16.754833 -34.251981 -16.786083 C -11.783231 -16.845979 11.839165 -17.124625 35.344373 -16.707958 C 44.250623 -17.041292 45.159477 -17.033479 44.500623 -6.856396 C 44.578748 -2.340771 45.076144 2.0785 45.003227 6.325896 C 44.623019 16.963917 44.904269 17.4535 34.680311 16.469125 C 12.195936 16.385792 -11.405627 16.961313 -34.921252 16.529021 C -44.897814 17.083708 -44.725939 17.500375 -44.554064 6.976938 C -44.598335 2.531625 -44.798856 -1.89025 -44.429064 -7.051708 C -44.434273 -16.957958 -44.262398 -17.181917 -34.223335 -17.484 Z M -34.223335 -17.484 " transform="matrix(1.5, 0, 0, -1.5, 161.831097, 36.777906)"/>
<path fill="none" stroke-width="0.5" stroke-linecap="round" stroke-linejoin="round" stroke="rgb(0%, 0%, 0%)" stroke-opacity="1" stroke-miterlimit="4" d="M -72.994169 -0.184521 C -64.08271 0.0238126 -54.624377 -0.247021 -44.853544 -0.158479 " transform="matrix(1.5, 0, 0, -1.5, 161.831097, 36.777906)"/>
<path fill="none" stroke-width="0.5" stroke-linecap="round" stroke-linejoin="round" stroke="rgb(0%, 0%, 0%)" stroke-opacity="1" stroke-miterlimit="4" d="M -53.512398 -5.197542 C -51.621773 -2.642854 -48.619169 -0.700146 -45.111356 0.146208 C -48.444689 0.823292 -51.483752 2.492563 -53.530627 5.393604 " transform="matrix(1.5, 0, 0, -1.5, 161.831097, 36.777906)"/>
<path fill="none" stroke-width="0.5" stroke-linecap="round" stroke-linejoin="round" stroke="rgb(0%, 0%, 0%)" stroke-opacity="1" stroke-miterlimit="4" d="M 44.675102 0.0967293 C 54.162081 0.182667 63.844373 0.00818761 73.026665 -0.247021 " transform="matrix(1.5, 0, 0, -1.5, 161.831097, 36.777906)"/>
<path fill="none" stroke-width="0.5" stroke-linecap="round" stroke-linejoin="round" stroke="rgb(0%, 0%, 0%)" stroke-opacity="1" stroke-miterlimit="4" d="M 64.490206 -5.556917 C 67.07354 -2.674104 69.787081 -1.0465 72.925102 0.279021 C 69.998019 0.971729 66.943331 2.669646 64.583956 5.448292 " transform="matrix(1.5, 0, 0, -1.5, 161.831097, 36.777906)"/>
<path fill="none" stroke-width="0.5" stroke-linecap="round" stroke-linejoin="round" stroke="rgb(0%, 0%, 0%)" stroke-opacity="1" stroke-miterlimit="4" d="M -35.36396 -17.437125 C -34.546252 -16.984 -34.908231 -16.843375 -34.249377 -16.655875 C -11.212919 -16.260042 11.940727 -16.861604 34.787081 -16.460562 C 45.065727 -16.595979 44.208956 -16.994417 44.906873 -6.590771 C 45.341769 -2.254833 44.831352 1.862354 45.175102 6.320688 C 44.987602 16.948292 45.258436 16.487354 35.063123 16.79725 C 11.953748 17.443083 -11.361356 16.310271 -35.184273 17.122771 C -44.319689 16.393604 -44.384794 17.362354 -44.869169 7.437875 C -44.595731 2.841521 -45.249377 -1.869417 -45.069689 -6.504833 C -45.335314 -17.220979 -44.481148 -17.507437 -35.36396 -17.437125 Z M -35.36396 -17.437125 " transform="matrix(1.5, 0, 0, -1.5, 161.831097, 36.777906)"/>
<path fill="none" stroke-width="0.5" stroke-linecap="round" stroke-linejoin="round" stroke="rgb(0%, 0%, 0%)" stroke-opacity="1" stroke-miterlimit="4" d="M -73.330106 -0.223583 C -63.798856 0.138396 -54.254585 0.255583 -45.340523 0.221729 " transform="matrix(1.5, 0, 0, -1.5, 161.831097, 36.777906)"/>
<path fill="none" stroke-width="0.5" stroke-linecap="round" stroke-linejoin="round" stroke="rgb(0%, 0%, 0%)" stroke-opacity="1" stroke-miterlimit="4" d="M -53.749377 -5.200146 C -51.262398 -2.457958 -48.262398 -1.056917 -45.134794 0.0576668 C -48.718127 1.013396 -51.192085 2.739958 -53.23896 5.167042 " transform="matrix(1.5, 0, 0, -1.5, 161.831097, 36.777906)"/>
<path fill="none" stroke-width="0.5" stroke-linecap="round" stroke-linejoin="round" stroke="rgb(0%, 0%, 0%)" stroke-opacity="1" stroke-miterlimit="4" d="M 45.003227 -0.0907707 C 54.221977 0.122771 63.977186 0.237354 73.336561 0.294646 " transform="matrix(1.5, 0, 0, -1.5, 161.831097, 36.777906)"/>
<path fill="none" stroke-width="0.5" stroke-linecap="round" stroke-linejoin="round" stroke="rgb(0%, 0%, 0%)" stroke-opacity="1" stroke-miterlimit="4" d="M 64.521456 -5.645458 C 66.623019 -2.463167 69.862602 -0.931917 73.425102 0.000375112 C 69.560519 0.7035 66.693331 2.450896 65.003227 5.135792 " transform="matrix(1.5, 0, 0, -1.5, 161.831097, 36.777906)"/>
<path fill="none" stroke-width="0.5" stroke-linecap="round" stroke-linejoin="round" stroke="rgb(0%, 0%, 0%)" stroke-opacity="1" stroke-miterlimit="4" d="M -34.866564 -17.20275 C -35.473335 -16.499625 -35.257189 -16.731396 -34.710314 -16.684521 C -11.504585 -16.843375 11.242811 -16.757437 35.018852 -17.109 C 45.188123 -16.499625 44.669894 -17.017854 44.427706 -6.679312 C 45.219373 -2.543896 45.063123 2.521208 45.32354 7.232146 C 45.341769 16.656625 44.380831 17.232146 35.396456 17.091521 C 11.162081 16.284229 -12.246773 17.216521 -34.658231 16.456104 C -44.272814 16.281625 -44.423856 16.344125 -45.324898 7.364958 C -44.871773 2.685271 -44.296252 -2.283479 -45.254585 -6.325146 C -44.348335 -17.187125 -45.460314 -16.291292 -34.866564 -17.20275 Z M -34.866564 -17.20275 " transform="matrix(1.5, 0, 0, -1.5, 161.831097, 36.777906)"/>
<path fill="none" stroke-width="0.5" stroke-linecap="round" stroke-linejoin="round" stroke="rgb(0%, 0%, 0%)" stroke-opacity="1" stroke-miterlimit="4" d="M -73.095731 -0.205354 C -63.616564 -0.0256666 -54.285835 0.154021 -45.210314 -0.0308749 " transform="matrix(1.5, 0, 0, -1.5, 161.831097, 36.777906)"/>
<path fill="none" stroke-width="0.5" stroke-linecap="round" stroke-linejoin="round" stroke="rgb(0%, 0%, 0%)" stroke-opacity="1" stroke-miterlimit="4" d="M -53.236356 -5.489208 C -51.280627 -2.869417 -48.61396 -0.749625 -45.124377 0.266 C -48.251981 1.044646 -51.538439 2.7035 -53.515002 5.336313 " transform="matrix(1.5, 0, 0, -1.5, 161.831097, 36.777906)"/>
<path fill="none" stroke-width="0.5" stroke-linecap="round" stroke-linejoin="round" stroke="rgb(0%, 0%, 0%)" stroke-opacity="1" stroke-miterlimit="4" d="M 44.810519 0.169646 C 54.560519 -0.0334791 63.906873 0.151417 73.13604 0.146208 " transform="matrix(1.5, 0, 0, -1.5, 161.831097, 36.777906)"/>
<path fill="none" stroke-width="0.5" stroke-linecap="round" stroke-linejoin="round" stroke="rgb(0%, 0%, 0%)" stroke-opacity="1" stroke-miterlimit="4" d="M 64.649061 -5.601187 C 67.13604 -2.783479 69.659477 -0.728792 73.141248 -0.0985832 C 69.912081 1.021208 66.745415 2.674854 64.706352 5.159229 " transform="matrix(1.5, 0, 0, -1.5, 161.831097, 36.777906)"/>
<path fill-rule="nonzero" fill="rgb(0%, 0%, 0%)" fill-opacity="1" d="M 10.414062 33.59375 L 10.671875 33.957031 C 11.210938 33.65625 11.855469 33.289062 12.351562 33.289062 C 12.589844 33.289062 12.804688 33.398438 12.933594 33.613281 C 13.277344 34.152344 13.277344 35.789062 13.277344 36.929688 C 13.253906 38.648438 13.167969 40.523438 13.019531 42.027344 L 13.339844 42.222656 L 14.847656 41.769531 C 14.804688 39.789062 14.804688 37.832031 14.804688 35.832031 C 14.804688 35.527344 14.828125 35.097656 14.933594 34.839844 C 15.191406 34.265625 15.707031 33.511719 16.589844 33.511719 C 17.515625 33.511719 17.667969 34.417969 17.730469 34.761719 L 17.988281 34.867188 L 19.152344 33.8125 C 19.109375 33.339844 19.023438 32.113281 17.453125 32.113281 C 16.699219 32.113281 15.492188 33.234375 15.085938 33.621094 L 14.871094 33.535156 C 14.804688 33.097656 14.632812 31.976562 13.320312 31.976562 C 12.480469 31.976562 10.953125 33.160156 10.414062 33.59375 Z M 10.414062 33.59375 "/>
<path fill-rule="nonzero" fill="rgb(0%, 0%, 0%)" fill-opacity="1" d="M 21.949219 36.78125 C 21.949219 41.988281 22.789062 44.097656 23.457031 45.023438 C 24.058594 45.820312 24.960938 46.636719 25.996094 46.722656 L 25.996094 46.207031 C 25.566406 46.121094 24.917969 45.777344 24.554688 45.347656 C 24.25 45 23.066406 43.410156 23.066406 36.78125 C 23.066406 32.21875 23.777344 29.980469 24.25 28.96875 C 24.597656 28.238281 25.304688 27.59375 25.996094 27.421875 L 25.996094 26.839844 C 25.113281 26.988281 24.164062 27.679688 23.628906 28.433594 C 22.960938 29.421875 21.949219 31.941406 21.949219 36.78125 Z M 21.949219 36.78125 "/>
<path fill-rule="nonzero" fill="rgb(0%, 0%, 0%)" fill-opacity="1" d="M 29.4375 33.4375 L 29.546875 33.542969 L 31.957031 33.542969 L 32.085938 33.695312 L 32.085938 37.785156 C 32.085938 40.691406 32.128906 41.101562 32.578125 41.679688 C 32.96875 42.199219 33.632812 42.347656 34.128906 42.347656 C 34.710938 42.347656 35.25 42.132812 35.765625 41.851562 C 36.453125 41.488281 37.078125 40.992188 37.660156 40.453125 L 37.507812 40.132812 L 37.25 40.089844 C 36.605469 40.496094 35.828125 40.972656 35.292969 40.972656 C 34.925781 40.972656 34.601562 40.863281 34.324219 40.539062 C 33.851562 40.023438 33.761719 38.644531 33.761719 37.742188 L 33.761719 33.671875 L 33.894531 33.542969 L 36.453125 33.542969 L 36.582031 33.4375 L 36.753906 32.875 L 36.648438 32.789062 L 33.894531 32.789062 L 33.761719 32.683594 C 33.785156 31.433594 33.894531 30.335938 34 29.109375 L 33.851562 29.003906 L 32.042969 29.625 C 32.085938 30.1875 32.085938 31.5625 32.085938 32.660156 L 31.957031 32.789062 L 29.71875 32.789062 L 29.589844 32.917969 Z M 29.4375 33.4375 "/>
<path fill-rule="nonzero" fill="rgb(0%, 0%, 0%)" fill-opacity="1" d="M 41.082031 46.207031 L 41.082031 46.722656 C 42.113281 46.59375 43.082031 45.863281 43.683594 45.066406 C 44.351562 44.140625 45.167969 41.988281 45.167969 36.78125 C 45.167969 31.378906 44.050781 29.421875 43.382812 28.433594 C 42.84375 27.679688 41.960938 26.988281 41.082031 26.839844 L 41.082031 27.421875 C 41.769531 27.613281 42.4375 28.238281 42.78125 28.96875 C 43.253906 29.980469 44.050781 31.789062 44.050781 36.78125 C 44.050781 44.292969 42.929688 45 42.628906 45.347656 C 42.261719 45.777344 41.511719 46.121094 41.082031 46.207031 Z M 41.082031 46.207031 "/>
<path fill-rule="nonzero" fill="rgb(0%, 0%, 0%)" fill-opacity="1" d="M 277.148438 37.480469 C 277.148438 38.46875 277.148438 39.460938 277.511719 40.386719 C 277.726562 40.921875 278.050781 41.484375 278.503906 41.871094 C 279.125 42.386719 279.921875 42.558594 280.871094 42.558594 C 282.785156 42.558594 284.355469 41.398438 285.691406 40.082031 L 285.453125 39.695312 L 285.257812 39.652344 C 284.3125 40.472656 283.238281 41.136719 281.96875 41.136719 C 281.320312 41.136719 280.652344 40.964844 280.160156 40.515625 C 279.125 39.632812 278.933594 38.125 278.933594 36.8125 C 278.933594 35.691406 279.148438 34.550781 279.902344 33.691406 C 280.503906 32.980469 281 32.765625 281.730469 32.765625 C 282.117188 32.765625 282.570312 32.980469 282.847656 33.28125 C 283.214844 33.667969 283.453125 34.25 283.558594 35.046875 L 283.925781 35.175781 L 285.085938 34.035156 C 285.023438 33.410156 284.742188 32.832031 284.226562 32.421875 C 283.773438 32.054688 283.195312 31.925781 282.589844 31.925781 C 281.128906 31.925781 279.558594 32.421875 278.546875 33.539062 C 277.578125 34.617188 277.148438 36.039062 277.148438 37.480469 Z M 277.148438 37.480469 "/>
<path fill-rule="nonzero" fill="rgb(0%, 0%, 0%)" fill-opacity="1" d="M 288.980469 36.78125 C 288.980469 41.988281 289.820312 44.097656 290.488281 45.023438 C 291.089844 45.820312 291.996094 46.636719 293.027344 46.722656 L 293.027344 46.207031 C 292.597656 46.121094 291.953125 45.777344 291.585938 45.347656 C 291.285156 45 290.101562 43.410156 290.101562 36.78125 C 290.101562 32.21875 290.8125 29.980469 291.285156 28.96875 C 291.628906 28.238281 292.339844 27.59375 293.027344 27.421875 L 293.027344 26.839844 C 292.144531 26.988281 291.199219 27.679688 290.660156 28.433594 C 289.992188 29.421875 288.980469 31.941406 288.980469 36.78125 Z M 288.980469 36.78125 "/>
<path fill-rule="nonzero" fill="rgb(0%, 0%, 0%)" fill-opacity="1" d="M 296.472656 33.4375 L 296.578125 33.542969 L 298.988281 33.542969 L 299.117188 33.695312 L 299.117188 37.785156 C 299.117188 40.691406 299.160156 41.101562 299.613281 41.679688 C 300 42.199219 300.667969 42.347656 301.164062 42.347656 C 301.742188 42.347656 302.28125 42.132812 302.796875 41.851562 C 303.488281 41.488281 304.109375 40.992188 304.691406 40.453125 L 304.542969 40.132812 L 304.28125 40.089844 C 303.636719 40.496094 302.863281 40.972656 302.324219 40.972656 C 301.957031 40.972656 301.636719 40.863281 301.355469 40.539062 C 300.882812 40.023438 300.796875 38.644531 300.796875 37.742188 L 300.796875 33.671875 L 300.925781 33.542969 L 303.488281 33.542969 L 303.617188 33.4375 L 303.789062 32.875 L 303.679688 32.789062 L 300.925781 32.789062 L 300.796875 32.683594 C 300.816406 31.433594 300.925781 30.335938 301.03125 29.109375 L 300.882812 29.003906 L 299.074219 29.625 C 299.117188 30.1875 299.117188 31.5625 299.117188 32.660156 L 298.988281 32.789062 L 296.75 32.789062 L 296.621094 32.917969 Z M 296.472656 33.4375 "/>
<path fill-rule="nonzero" fill="rgb(0%, 0%, 0%)" fill-opacity="1" d="M 308.113281 46.207031 L 308.113281 46.722656 C 309.144531 46.59375 310.113281 45.863281 310.71875 45.066406 C 311.382812 44.140625 312.203125 41.988281 312.203125 36.78125 C 312.203125 31.378906 311.082031 29.421875 310.414062 28.433594 C 309.878906 27.679688 308.996094 26.988281 308.113281 26.839844 L 308.113281 27.421875 C 308.800781 27.613281 309.46875 28.238281 309.8125 28.96875 C 310.285156 29.980469 311.082031 31.789062 311.082031 36.78125 C 311.082031 44.292969 309.964844 45 309.664062 45.347656 C 309.296875 45.777344 308.542969 46.121094 308.113281 46.207031 Z M 308.113281 46.207031 "/>
</svg>
