<?xml version="1.0" encoding="UTF-8"?>
<svg xmlns="http://www.w3.org/2000/svg" xmlns:xlink="http://www.w3.org/1999/xlink" width="446.94635" height="186.411564" viewBox="0 0 446.94635 186.411564">
<path fill-rule="nonzero" fill="rgb(0%, 0%, 0%)" fill-opacity="1" d="M 311.46875 93.996094 L 322.996094 93.996094 L 322.996094 105.523438 L 324.484375 105.265625 L 324.484375 93.996094 L 335.9375 93.996094 L 336.125 92.507812 L 324.484375 92.507812 L 324.484375 80.984375 L 322.996094 81.207031 L 322.996094 92.507812 L 311.730469 92.507812 Z M 311.46875 93.996094 "/>
<path fill-rule="nonzero" fill="rgb(0%, 0%, 0%)" fill-opacity="1" d="M 179.953125 34.828125 C 179.953125 36.871094 180.492188 38.980469 181.953125 40.445312 C 183.117188 41.609375 184.730469 42.167969 186.367188 42.167969 C 187.9375 42.167969 190.261719 41.585938 192.15625 41.09375 C 192.15625 41.09375 192.089844 37.152344 192.046875 35.191406 L 186.109375 35.429688 L 186.109375 35.988281 L 186.238281 36.09375 C 187.398438 36.136719 188.777344 36.222656 189.722656 36.289062 C 190.324219 36.332031 190.324219 37.019531 190.324219 38.917969 C 190.324219 40.488281 190.261719 40.746094 189.894531 40.835938 C 189.226562 40.984375 188.5625 41.050781 187.871094 41.050781 C 186.195312 41.050781 184.601562 40.511719 183.65625 39.390625 C 182.40625 37.925781 181.890625 36.375 181.890625 34.484375 C 181.890625 31.410156 183.007812 29.644531 183.632812 29.023438 C 184.558594 28.121094 185.828125 27.820312 187.097656 27.820312 C 189.917969 27.820312 190.777344 29.839844 191.058594 30.398438 L 191.316406 30.417969 L 192.5625 29.195312 C 192.328125 28.828125 191.1875 26.765625 188.066406 26.765625 C 185.808594 26.765625 183.546875 27.433594 181.933594 29.042969 C 180.425781 30.550781 179.953125 32.71875 179.953125 34.828125 Z M 179.953125 34.828125 "/>
<path fill-rule="nonzero" fill="rgb(0%, 0%, 0%)" fill-opacity="1" d="M 196.910156 36.433594 C 196.910156 41.640625 197.75 43.75 198.417969 44.675781 C 199.019531 45.472656 199.921875 46.289062 200.957031 46.375 L 200.957031 45.859375 C 200.527344 45.773438 199.878906 45.429688 199.515625 45 C 199.214844 44.652344 198.03125 43.0625 198.03125 36.433594 C 198.03125 31.871094 198.738281 29.632812 199.214844 28.621094 C 199.558594 27.890625 200.269531 27.246094 200.957031 27.074219 L 200.957031 26.492188 C 200.074219 26.640625 199.128906 27.332031 198.589844 28.082031 C 197.921875 29.074219 196.910156 31.589844 196.910156 36.433594 Z M 196.910156 36.433594 "/>
<path fill-rule="nonzero" fill="rgb(0%, 0%, 0%)" fill-opacity="1" d="M 205.152344 40.382812 C 205.367188 40.792969 205.667969 41.15625 206.011719 41.457031 C 206.636719 42.019531 207.496094 42.167969 208.316406 42.167969 C 209.542969 42.167969 210.746094 41.757812 211.585938 40.855469 C 212.101562 40.316406 212.359375 39.585938 212.359375 38.832031 C 212.359375 38.292969 212.058594 37.796875 211.671875 37.410156 C 211.371094 37.109375 210.574219 36.636719 209.886719 36.332031 C 209.261719 36.074219 208.335938 35.601562 208.078125 35.34375 C 207.757812 35 207.519531 34.742188 207.519531 34.265625 C 207.519531 33.792969 207.671875 33.339844 208.015625 33.019531 C 208.335938 32.695312 208.8125 32.523438 209.285156 32.523438 C 209.714844 32.523438 210.167969 32.671875 210.402344 33.0625 C 210.617188 33.40625 210.660156 33.816406 210.683594 34.203125 L 210.941406 34.351562 L 212.125 33.554688 C 212.101562 33.082031 211.867188 32.628906 211.523438 32.308594 C 211.027344 31.855469 210.339844 31.769531 209.691406 31.769531 C 208.636719 31.769531 207.628906 32.113281 206.851562 32.824219 C 206.269531 33.339844 205.96875 34.09375 205.96875 34.847656 C 205.96875 35.539062 206.355469 36.140625 206.851562 36.59375 C 207.347656 37.023438 207.992188 37.324219 208.660156 37.605469 C 209.21875 37.839844 209.820312 38.097656 210.230469 38.507812 C 210.554688 38.832031 210.789062 39.261719 210.789062 39.714844 C 210.789062 40.101562 210.597656 40.46875 210.339844 40.746094 C 210.015625 41.09375 209.433594 41.351562 208.960938 41.351562 C 208.316406 41.351562 207.734375 41.070312 207.261719 40.617188 C 206.765625 40.167969 206.550781 39.519531 206.507812 38.875 L 206.207031 38.851562 Z M 205.152344 40.382812 "/>
<path fill-rule="nonzero" fill="rgb(0%, 0%, 0%)" fill-opacity="1" d="M 216.878906 45.859375 L 216.878906 46.375 C 217.914062 46.246094 218.882812 45.515625 219.484375 44.71875 C 220.152344 43.792969 220.96875 41.640625 220.96875 36.433594 C 220.96875 31.03125 219.851562 29.074219 219.183594 28.082031 C 218.644531 27.332031 217.761719 26.640625 216.878906 26.492188 L 216.878906 27.074219 C 217.570312 27.265625 218.234375 27.890625 218.582031 28.621094 C 219.054688 29.632812 219.851562 31.441406 219.851562 36.433594 C 219.851562 43.945312 218.730469 44.652344 218.429688 45 C 218.0625 45.429688 217.3125 45.773438 216.878906 45.859375 Z M 216.878906 45.859375 "/>
<path fill-rule="nonzero" fill="rgb(0%, 0%, 0%)" fill-opacity="1" d="M 179.953125 148.496094 C 179.953125 150.539062 180.492188 152.648438 181.953125 154.113281 C 183.117188 155.277344 184.730469 155.835938 186.367188 155.835938 C 187.9375 155.835938 190.261719 155.253906 192.15625 154.761719 C 192.15625 154.761719 192.089844 150.820312 192.046875 148.859375 L 186.109375 149.097656 L 186.109375 149.65625 L 186.238281 149.761719 C 187.398438 149.804688 188.777344 149.890625 189.722656 149.957031 C 190.324219 150 190.324219 150.6875 190.324219 152.585938 C 190.324219 154.15625 190.261719 154.414062 189.894531 154.503906 C 189.226562 154.652344 188.5625 154.71875 187.871094 154.71875 C 186.195312 154.71875 184.601562 154.179688 183.65625 153.058594 C 182.40625 151.59375 181.890625 150.042969 181.890625 148.152344 C 181.890625 145.078125 183.007812 143.3125 183.632812 142.691406 C 184.558594 141.789062 185.828125 141.488281 187.097656 141.488281 C 189.917969 141.488281 190.777344 143.507812 191.058594 144.066406 L 191.316406 144.085938 L 192.5625 142.863281 C 192.328125 142.496094 191.1875 140.433594 188.066406 140.433594 C 185.808594 140.433594 183.546875 141.101562 181.933594 142.710938 C 180.425781 144.21875 179.953125 146.386719 179.953125 148.496094 Z M 179.953125 148.496094 "/>
<path fill-rule="nonzero" fill="rgb(0%, 0%, 0%)" fill-opacity="1" d="M 196.910156 150.101562 C 196.910156 155.308594 197.75 157.417969 198.417969 158.34375 C 199.019531 159.140625 199.921875 159.957031 200.957031 160.042969 L 200.957031 159.527344 C 200.527344 159.441406 199.878906 159.097656 199.515625 158.667969 C 199.214844 158.320312 198.03125 156.730469 198.03125 150.101562 C 198.03125 145.539062 198.738281 143.300781 199.214844 142.289062 C 199.558594 141.558594 200.269531 140.914062 200.957031 140.742188 L 200.957031 140.160156 C 200.074219 140.308594 199.128906 141 198.589844 141.75 C 197.921875 142.742188 196.910156 145.257812 196.910156 150.101562 Z M 196.910156 150.101562 "/>
<path fill-rule="nonzero" fill="rgb(0%, 0%, 0%)" fill-opacity="1" d="M 205.152344 154.050781 C 205.367188 154.460938 205.667969 154.824219 206.011719 155.125 C 206.636719 155.6875 207.496094 155.835938 208.316406 155.835938 C 209.542969 155.835938 210.746094 155.425781 211.585938 154.523438 C 212.101562 153.984375 212.359375 153.253906 212.359375 152.5 C 212.359375 151.960938 212.058594 151.464844 211.671875 151.078125 C 211.371094 150.777344 210.574219 150.304688 209.886719 150 C 209.261719 149.742188 208.335938 149.269531 208.078125 149.011719 C 207.757812 148.667969 207.519531 148.410156 207.519531 147.933594 C 207.519531 147.460938 207.671875 147.007812 208.015625 146.6875 C 208.335938 146.363281 208.8125 146.191406 209.285156 146.191406 C 209.714844 146.191406 210.167969 146.339844 210.402344 146.730469 C 210.617188 147.074219 210.660156 147.484375 210.683594 147.871094 L 210.941406 148.019531 L 212.125 147.222656 C 212.101562 146.75 211.867188 146.296875 211.523438 145.976562 C 211.027344 145.523438 210.339844 145.4375 209.691406 145.4375 C 208.636719 145.4375 207.628906 145.78125 206.851562 146.492188 C 206.269531 147.007812 205.96875 147.761719 205.96875 148.515625 C 205.96875 149.207031 206.355469 149.808594 206.851562 150.261719 C 207.347656 150.691406 207.992188 150.992188 208.660156 151.273438 C 209.21875 151.507812 209.820312 151.765625 210.230469 152.175781 C 210.554688 152.5 210.789062 152.929688 210.789062 153.382812 C 210.789062 153.769531 210.597656 154.136719 210.339844 154.414062 C 210.015625 154.761719 209.433594 155.019531 208.960938 155.019531 C 208.316406 155.019531 207.734375 154.738281 207.261719 154.285156 C 206.765625 153.835938 206.550781 153.1875 206.507812 152.542969 L 206.207031 152.519531 Z M 205.152344 154.050781 "/>
<path fill-rule="nonzero" fill="rgb(0%, 0%, 0%)" fill-opacity="1" d="M 216.878906 159.527344 L 216.878906 160.042969 C 217.914062 159.914062 218.882812 159.183594 219.484375 158.386719 C 220.152344 157.460938 220.96875 155.308594 220.96875 150.101562 C 220.96875 144.699219 219.851562 142.742188 219.183594 141.75 C 218.644531 141 217.761719 140.308594 216.878906 140.160156 L 216.878906 140.742188 C 217.570312 140.933594 218.234375 141.558594 218.582031 142.289062 C 219.054688 143.300781 219.851562 145.109375 219.851562 150.101562 C 219.851562 157.613281 218.730469 158.320312 218.429688 158.667969 C 218.0625 159.097656 217.3125 159.441406 216.878906 159.527344 Z M 216.878906 159.527344 "/>
<path fill="none" stroke-width="0.5" stroke-linecap="round" stroke-linejoin="round" stroke="rgb(0%, 0%, 0%)" stroke-opacity="1" stroke-miterlimit="4" d="M 42.257701 21.441589 C 59.312388 20.858256 75.950409 20.631694 93.111867 21.418152 C 93.028534 32.569194 92.755096 43.639506 92.380096 54.678569 C 76.08843 54.98586 59.416555 54.07961 42.335826 54.577006 C 42.515513 42.912944 42.981659 32.98586 42.257701 21.441589 Z M 42.257701 21.441589 " transform="matrix(1.5, 0, 0, -1.5, 99.238449, 93.263947)"/>
<path fill="none" stroke-width="0.5" stroke-linecap="round" stroke-linejoin="round" stroke="rgb(0%, 0%, 0%)" stroke-opacity="1" stroke-miterlimit="4" d="M 42.617076 -54.363098 C 59.450409 -54.915181 76.403534 -54.613098 92.49468 -55.034973 C 93.367076 -42.797994 92.309784 -32.04539 93.30718 -21.253723 C 76.348846 -20.990702 58.937388 -21.386536 42.74468 -20.811015 C 42.906138 -32.003723 43.015513 -42.985494 42.617076 -54.363098 Z M 42.617076 -54.363098 " transform="matrix(1.5, 0, 0, -1.5, 99.238449, 93.263947)"/>
<path fill="none" stroke-width="0.5" stroke-linecap="round" stroke-linejoin="round" stroke="rgb(0%, 0%, 0%)" stroke-opacity="1" stroke-miterlimit="4" d="M 164.291555 -0.193827 C 164.760305 7.996277 157.08843 14.879089 149.413951 15.004089 C 141.104055 14.056173 135.721242 8.155131 135.679576 -0.100077 C 135.387909 -7.644348 141.747284 -14.511536 150.296763 -13.92039 C 158.140513 -14.581848 163.801971 -8.407369 164.291555 -0.193827 Z M 164.291555 -0.193827 " transform="matrix(1.5, 0, 0, -1.5, 99.238449, 93.263947)"/>
<path fill="none" stroke-width="0.5" stroke-linecap="round" stroke-linejoin="round" stroke="rgb(0%, 0%, 0%)" stroke-opacity="1" stroke-miterlimit="4" d="M -28.560008 0.134298 C -18.609487 0.282735 -9.200633 -0.191223 -0.278758 0.287944 " transform="matrix(1.5, 0, 0, -1.5, 99.238449, 93.263947)"/>
<path fill="none" stroke-width="0.5" stroke-linecap="round" stroke-linejoin="round" stroke="rgb(0%, 0%, 0%)" stroke-opacity="1" stroke-miterlimit="4" d="M 0.135305 -0.157369 C 0.229055 12.511902 -0.289174 25.006694 0.0702006 38.183777 C 13.864471 37.688985 28.328013 38.011902 42.471242 38.077006 " transform="matrix(1.5, 0, 0, -1.5, 99.238449, 93.263947)"/>
<path fill="none" stroke-width="0.5" stroke-linecap="round" stroke-linejoin="round" stroke="rgb(0%, 0%, 0%)" stroke-opacity="1" stroke-miterlimit="4" d="M 33.937388 32.811381 C 36.156138 35.274923 38.656138 36.821798 42.046763 37.683777 C 38.83843 38.657735 35.971242 40.319194 33.997284 43.027527 " transform="matrix(1.5, 0, 0, -1.5, 99.238449, 93.263947)"/>
<path fill="none" stroke-width="0.5" stroke-linecap="round" stroke-linejoin="round" stroke="rgb(0%, 0%, 0%)" stroke-opacity="1" stroke-miterlimit="4" d="M 0.169159 0.259298 C 0.278534 -12.605286 -0.117299 -25.394348 0.208221 -37.717265 C 14.374888 -38.128723 28.390513 -37.949036 42.314992 -37.696431 " transform="matrix(1.5, 0, 0, -1.5, 99.238449, 93.263947)"/>
<path fill="none" stroke-width="0.5" stroke-linecap="round" stroke-linejoin="round" stroke="rgb(0%, 0%, 0%)" stroke-opacity="1" stroke-miterlimit="4" d="M 34.005096 -43.417786 C 35.794159 -40.691223 38.86968 -38.808411 42.247284 -37.936015 C 38.979055 -37.157369 36.197805 -35.373515 33.825409 -32.391744 " transform="matrix(1.5, 0, 0, -1.5, 99.238449, 93.263947)"/>
<path fill="none" stroke-width="0.5" stroke-linecap="round" stroke-linejoin="round" stroke="rgb(0%, 0%, 0%)" stroke-opacity="1" stroke-miterlimit="4" d="M 92.549367 38.160339 C 111.499888 38.037944 130.447805 38.121277 149.882701 38.022319 C 149.710826 29.959819 149.554576 22.558777 149.74468 14.631694 " transform="matrix(1.5, 0, 0, -1.5, 99.238449, 93.263947)"/>
<path fill="none" stroke-width="0.5" stroke-linecap="round" stroke-linejoin="round" stroke="rgb(0%, 0%, 0%)" stroke-opacity="1" stroke-miterlimit="4" d="M 144.197805 23.254089 C 146.799367 21.144714 148.835826 17.907735 149.992076 14.834819 C 150.726451 18.313985 152.624888 21.217631 155.231659 22.897319 " transform="matrix(1.5, 0, 0, -1.5, 99.238449, 93.263947)"/>
<path fill="none" stroke-width="0.5" stroke-linecap="round" stroke-linejoin="round" stroke="rgb(0%, 0%, 0%)" stroke-opacity="1" stroke-miterlimit="4" d="M 92.604055 -37.837056 C 111.919159 -37.631327 130.476451 -38.152161 149.960826 -37.644348 C 149.416555 -30.303202 149.898326 -22.511536 149.856659 -14.774556 " transform="matrix(1.5, 0, 0, -1.5, 99.238449, 93.263947)"/>
<path fill="none" stroke-width="0.5" stroke-linecap="round" stroke-linejoin="round" stroke="rgb(0%, 0%, 0%)" stroke-opacity="1" stroke-miterlimit="4" d="M 155.127492 -22.834452 C 152.473846 -21.180806 150.458221 -18.227681 149.825409 -14.438619 C 148.99468 -17.738098 147.301971 -21.256327 144.078013 -23.391744 " transform="matrix(1.5, 0, 0, -1.5, 99.238449, 93.263947)"/>
<path fill="none" stroke-width="0.5" stroke-linecap="round" stroke-linejoin="round" stroke="rgb(0%, 0%, 0%)" stroke-opacity="1" stroke-miterlimit="4" d="M 164.341034 0.186381 C 173.846242 0.285339 183.05718 -0.0453898 192.661346 -0.0610148 " transform="matrix(1.5, 0, 0, -1.5, 99.238449, 93.263947)"/>
<path fill="none" stroke-width="0.5" stroke-linecap="round" stroke-linejoin="round" stroke="rgb(0%, 0%, 0%)" stroke-opacity="1" stroke-miterlimit="4" d="M 183.828013 -5.277161 C 186.163951 -2.756327 189.018117 -0.964661 192.356659 -0.225077 C 189.044159 0.800964 186.064992 2.51711 183.937388 5.311381 " transform="matrix(1.5, 0, 0, -1.5, 99.238449, 93.263947)"/>
<path fill="none" stroke-width="0.5" stroke-linecap="round" stroke-linejoin="round" stroke="rgb(0%, 0%, 0%)" stroke-opacity="1" stroke-miterlimit="4" d="M 41.973846 21.905131 C 58.814992 21.056173 75.979055 21.86086 92.757701 21.186381 C 92.973846 31.876485 92.989471 43.524923 92.499888 54.32961 C 76.064992 54.79836 59.783742 54.186381 42.364471 54.70461 C 42.671763 43.670756 42.330617 32.608256 41.973846 21.905131 Z M 41.973846 21.905131 " transform="matrix(1.5, 0, 0, -1.5, 99.238449, 93.263947)"/>
<path fill="none" stroke-width="0.5" stroke-linecap="round" stroke-linejoin="round" stroke="rgb(0%, 0%, 0%)" stroke-opacity="1" stroke-miterlimit="4" d="M 42.135305 -54.547994 C 59.822805 -54.467265 75.689992 -54.225077 92.111867 -53.98289 C 92.752492 -43.370911 93.127492 -32.324036 92.893117 -21.774556 C 76.523326 -20.740702 58.645721 -21.774556 41.882701 -20.977681 C 41.958221 -32.51414 42.861867 -42.943827 42.135305 -54.547994 Z M 42.135305 -54.547994 " transform="matrix(1.5, 0, 0, -1.5, 99.238449, 93.263947)"/>
<path fill="none" stroke-width="0.5" stroke-linecap="round" stroke-linejoin="round" stroke="rgb(0%, 0%, 0%)" stroke-opacity="1" stroke-miterlimit="4" d="M 164.372284 -0.0115356 C 163.643117 8.449402 157.604055 14.967631 149.359263 14.199402 C 141.716034 13.855652 135.476451 7.61086 135.419159 -0.503723 C 135.788951 -7.686015 142.098846 -14.688619 149.580617 -13.98289 C 158.098846 -14.891744 164.416555 -7.675598 164.372284 -0.0115356 Z M 164.372284 -0.0115356 " transform="matrix(1.5, 0, 0, -1.5, 99.238449, 93.263947)"/>
<path fill="none" stroke-width="0.5" stroke-linecap="round" stroke-linejoin="round" stroke="rgb(0%, 0%, 0%)" stroke-opacity="1" stroke-miterlimit="4" d="M -28.086049 -0.102681 C -19.00532 0.108256 -9.492299 0.23586 0.0467631 -0.0610148 " transform="matrix(1.5, 0, 0, -1.5, 99.238449, 93.263947)"/>
<path fill="none" stroke-width="0.5" stroke-linecap="round" stroke-linejoin="round" stroke="rgb(0%, 0%, 0%)" stroke-opacity="1" stroke-miterlimit="4" d="M 0.200409 -0.110494 C -0.0391744 12.587423 -0.0652161 25.420756 0.0519714 37.975444 C 13.791555 38.126485 28.098846 37.889506 42.361867 37.774923 " transform="matrix(1.5, 0, 0, -1.5, 99.238449, 93.263947)"/>
<path fill="none" stroke-width="0.5" stroke-linecap="round" stroke-linejoin="round" stroke="rgb(0%, 0%, 0%)" stroke-opacity="1" stroke-miterlimit="4" d="M 34.002492 32.42336 C 36.049367 35.259298 39.051971 37.056173 42.40093 37.691589 C 38.718638 38.452006 36.210826 40.321798 33.809784 43.36086 " transform="matrix(1.5, 0, 0, -1.5, 99.238449, 93.263947)"/>
<path fill="none" stroke-width="0.5" stroke-linecap="round" stroke-linejoin="round" stroke="rgb(0%, 0%, 0%)" stroke-opacity="1" stroke-miterlimit="4" d="M 0.249888 0.238464 C 0.221242 -12.865702 -0.198029 -25.230286 -0.294383 -37.636536 C 13.968638 -37.917786 28.283742 -37.782369 42.166555 -38.102681 " transform="matrix(1.5, 0, 0, -1.5, 99.238449, 93.263947)"/>
<path fill="none" stroke-width="0.5" stroke-linecap="round" stroke-linejoin="round" stroke="rgb(0%, 0%, 0%)" stroke-opacity="1" stroke-miterlimit="4" d="M 33.630096 -43.238098 C 36.033742 -40.652161 38.674367 -38.787577 42.247284 -37.964661 C 38.627492 -37.227681 35.828013 -35.438619 34.111867 -32.574036 " transform="matrix(1.5, 0, 0, -1.5, 99.238449, 93.263947)"/>
<path fill="none" stroke-width="0.5" stroke-linecap="round" stroke-linejoin="round" stroke="rgb(0%, 0%, 0%)" stroke-opacity="1" stroke-miterlimit="4" d="M 92.632701 37.858256 C 111.99468 38.084819 130.455617 37.978048 149.554576 38.183777 C 149.453013 29.907735 149.864471 22.514506 149.46343 14.730652 " transform="matrix(1.5, 0, 0, -1.5, 99.238449, 93.263947)"/>
<path fill="none" stroke-width="0.5" stroke-linecap="round" stroke-linejoin="round" stroke="rgb(0%, 0%, 0%)" stroke-opacity="1" stroke-miterlimit="4" d="M 144.570201 23.014506 C 146.986867 20.808777 148.843638 18.186381 149.473846 14.79836 C 150.768117 18.131694 152.174367 21.095235 155.361867 22.837423 " transform="matrix(1.5, 0, 0, -1.5, 99.238449, 93.263947)"/>
<path fill="none" stroke-width="0.5" stroke-linecap="round" stroke-linejoin="round" stroke="rgb(0%, 0%, 0%)" stroke-opacity="1" stroke-miterlimit="4" d="M 92.984263 -37.594869 C 111.523326 -37.808411 130.505096 -37.683411 149.830617 -37.756327 C 149.999888 -30.363098 149.874888 -22.144348 149.937388 -14.63914 " transform="matrix(1.5, 0, 0, -1.5, 99.238449, 93.263947)"/>
<path fill="none" stroke-width="0.5" stroke-linecap="round" stroke-linejoin="round" stroke="rgb(0%, 0%, 0%)" stroke-opacity="1" stroke-miterlimit="4" d="M 155.247284 -23.178202 C 152.299367 -20.959452 150.671763 -17.797994 149.437388 -14.839661 C 148.666555 -18.055806 146.913951 -21.196431 144.301971 -22.962056 " transform="matrix(1.5, 0, 0, -1.5, 99.238449, 93.263947)"/>
<path fill="none" stroke-width="0.5" stroke-linecap="round" stroke-linejoin="round" stroke="rgb(0%, 0%, 0%)" stroke-opacity="1" stroke-miterlimit="4" d="M 163.882701 -0.0219523 C 173.851451 0.0483602 183.283742 -0.180806 192.335826 -0.118306 " transform="matrix(1.5, 0, 0, -1.5, 99.238449, 93.263947)"/>
<path fill="none" stroke-width="0.5" stroke-linecap="round" stroke-linejoin="round" stroke="rgb(0%, 0%, 0%)" stroke-opacity="1" stroke-miterlimit="4" d="M 183.848846 -5.136536 C 186.328013 -2.722473 189.231659 -0.475077 192.736867 0.207214 C 189.218638 1.01711 185.890513 2.373881 183.814992 5.209819 " transform="matrix(1.5, 0, 0, -1.5, 99.238449, 93.263947)"/>
<path fill="none" stroke-width="0.5" stroke-linecap="round" stroke-linejoin="round" stroke="rgb(0%, 0%, 0%)" stroke-opacity="1" stroke-miterlimit="4" d="M 42.926971 20.944194 C 59.036346 21.100444 76.416555 21.899923 93.078013 21.574402 C 93.189992 32.600444 92.161346 43.368673 93.197805 54.571798 C 76.320201 54.071798 59.091034 55.160339 42.476451 54.873881 C 42.989471 43.616069 42.822805 32.569194 42.926971 20.944194 Z M 42.926971 20.944194 " transform="matrix(1.5, 0, 0, -1.5, 99.238449, 93.263947)"/>
<path fill="none" stroke-width="0.5" stroke-linecap="round" stroke-linejoin="round" stroke="rgb(0%, 0%, 0%)" stroke-opacity="1" stroke-miterlimit="4" d="M 42.054576 -54.063619 C 58.663951 -54.532369 75.564992 -54.891744 92.653534 -54.839661 C 92.143117 -43.568827 92.322805 -32.123515 93.012909 -21.199036 C 76.072805 -21.659973 59.564992 -21.446431 42.828013 -20.771952 C 41.953013 -32.915181 42.598846 -43.956848 42.054576 -54.063619 Z M 42.054576 -54.063619 " transform="matrix(1.5, 0, 0, -1.5, 99.238449, 93.263947)"/>
<path fill="none" stroke-width="0.5" stroke-linecap="round" stroke-linejoin="round" stroke="rgb(0%, 0%, 0%)" stroke-opacity="1" stroke-miterlimit="4" d="M 164.216034 -0.261536 C 164.755096 8.274923 157.413951 14.412944 150.343638 14.014506 C 142.054576 14.688985 135.734263 7.582214 134.929576 -0.566223 C 135.148326 -8.363098 142.046763 -15.061015 149.304576 -14.225077 C 157.328013 -15.001119 164.020721 -8.193827 164.216034 -0.261536 Z M 164.216034 -0.261536 " transform="matrix(1.5, 0, 0, -1.5, 99.238449, 93.263947)"/>
<path fill="none" stroke-width="0.5" stroke-linecap="round" stroke-linejoin="round" stroke="rgb(0%, 0%, 0%)" stroke-opacity="1" stroke-miterlimit="4" d="M -28.398549 0.215027 C -18.799591 -0.0193481 -9.403758 -0.287577 0.122284 -0.102681 " transform="matrix(1.5, 0, 0, -1.5, 99.238449, 93.263947)"/>
<path fill="none" stroke-width="0.5" stroke-linecap="round" stroke-linejoin="round" stroke="rgb(0%, 0%, 0%)" stroke-opacity="1" stroke-miterlimit="4" d="M 0.0728048 -0.269348 C 0.0702006 12.694194 -0.257924 25.394714 0.195201 37.993673 C 13.856659 37.696798 27.976451 37.597839 42.460826 37.824402 " transform="matrix(1.5, 0, 0, -1.5, 99.238449, 93.263947)"/>
<path fill="none" stroke-width="0.5" stroke-linecap="round" stroke-linejoin="round" stroke="rgb(0%, 0%, 0%)" stroke-opacity="1" stroke-miterlimit="4" d="M 34.122284 32.587423 C 35.898326 35.129089 38.911346 37.144714 42.111867 38.043152 C 38.830617 38.498881 36.169159 40.496277 33.689992 43.506694 " transform="matrix(1.5, 0, 0, -1.5, 99.238449, 93.263947)"/>
<path fill="none" stroke-width="0.5" stroke-linecap="round" stroke-linejoin="round" stroke="rgb(0%, 0%, 0%)" stroke-opacity="1" stroke-miterlimit="4" d="M -0.218862 -0.212056 C -0.125112 -12.568827 0.137909 -25.32664 -0.182404 -37.800598 C 14.059784 -38.040181 28.296763 -37.688619 42.098846 -38.123515 " transform="matrix(1.5, 0, 0, -1.5, 99.238449, 93.263947)"/>
<path fill="none" stroke-width="0.5" stroke-linecap="round" stroke-linejoin="round" stroke="rgb(0%, 0%, 0%)" stroke-opacity="1" stroke-miterlimit="4" d="M 33.676971 -43.115702 C 35.71343 -40.516744 39.062388 -38.933411 42.281138 -38.079244 C 38.765513 -37.188619 35.913951 -34.943827 33.921763 -32.579244 " transform="matrix(1.5, 0, 0, -1.5, 99.238449, 93.263947)"/>
<path fill="none" stroke-width="0.5" stroke-linecap="round" stroke-linejoin="round" stroke="rgb(0%, 0%, 0%)" stroke-opacity="1" stroke-miterlimit="4" d="M 92.479055 37.649923 C 111.505096 37.803569 130.466034 38.024923 149.536346 37.748881 C 149.848846 30.011902 149.801971 22.152527 149.718638 14.894714 " transform="matrix(1.5, 0, 0, -1.5, 99.238449, 93.263947)"/>
<path fill="none" stroke-width="0.5" stroke-linecap="round" stroke-linejoin="round" stroke="rgb(0%, 0%, 0%)" stroke-opacity="1" stroke-miterlimit="4" d="M 144.403534 23.056173 C 146.825409 20.717631 149.067596 17.803569 149.486867 14.756694 C 150.61968 18.027527 152.40093 20.889506 154.921763 22.980652 " transform="matrix(1.5, 0, 0, -1.5, 99.238449, 93.263947)"/>
<path fill="none" stroke-width="0.5" stroke-linecap="round" stroke-linejoin="round" stroke="rgb(0%, 0%, 0%)" stroke-opacity="1" stroke-miterlimit="4" d="M 92.979055 -37.623515 C 111.512909 -37.852681 130.55718 -37.740702 149.502492 -38.149556 C 149.934784 -29.896952 149.630096 -22.467265 149.989471 -14.449036 " transform="matrix(1.5, 0, 0, -1.5, 99.238449, 93.263947)"/>
<path fill="none" stroke-width="0.5" stroke-linecap="round" stroke-linejoin="round" stroke="rgb(0%, 0%, 0%)" stroke-opacity="1" stroke-miterlimit="4" d="M 154.913951 -23.339661 C 152.260305 -20.949036 150.645721 -18.300598 149.585826 -14.797994 C 148.77593 -17.930806 146.885305 -21.016744 144.221242 -22.912577 " transform="matrix(1.5, 0, 0, -1.5, 99.238449, 93.263947)"/>
<path fill="none" stroke-width="0.5" stroke-linecap="round" stroke-linejoin="round" stroke="rgb(0%, 0%, 0%)" stroke-opacity="1" stroke-miterlimit="4" d="M 164.080617 0.11086 C 173.880096 -0.251119 182.96343 0.215027 192.450409 -0.292786 " transform="matrix(1.5, 0, 0, -1.5, 99.238449, 93.263947)"/>
<path fill="none" stroke-width="0.5" stroke-linecap="round" stroke-linejoin="round" stroke="rgb(0%, 0%, 0%)" stroke-opacity="1" stroke-miterlimit="4" d="M 184.236867 -5.339661 C 186.325409 -2.537577 188.926971 -0.584452 192.354055 -0.165181 C 189.192596 1.045756 185.992076 2.368673 184.161346 5.563985 " transform="matrix(1.5, 0, 0, -1.5, 99.238449, 93.263947)"/>
<path fill="none" stroke-width="0.5" stroke-linecap="round" stroke-linejoin="round" stroke="rgb(0%, 0%, 0%)" stroke-opacity="1" stroke-miterlimit="4" d="M 42.520721 20.738464 C 59.52593 20.873881 76.424367 21.118673 92.564992 20.879089 C 92.747284 32.058777 92.411346 43.379089 93.294159 54.519714 C 76.252492 54.29836 58.770721 54.337423 42.036346 54.058777 C 42.064992 44.050964 42.015513 32.920756 42.520721 20.738464 Z M 42.520721 20.738464 " transform="matrix(1.5, 0, 0, -1.5, 99.238449, 93.263947)"/>
<path fill="none" stroke-width="0.5" stroke-linecap="round" stroke-linejoin="round" stroke="rgb(0%, 0%, 0%)" stroke-opacity="1" stroke-miterlimit="4" d="M 42.286346 -54.425598 C 59.247284 -54.909973 76.473846 -55.053202 92.205617 -54.193827 C 92.721242 -43.936015 92.624888 -32.422994 93.176971 -20.649556 C 76.528534 -20.949036 59.830617 -21.386536 42.74468 -21.654765 C 42.583221 -32.324036 42.122284 -43.787577 42.286346 -54.425598 Z M 42.286346 -54.425598 " transform="matrix(1.5, 0, 0, -1.5, 99.238449, 93.263947)"/>
<path fill="none" stroke-width="0.5" stroke-linecap="round" stroke-linejoin="round" stroke="rgb(0%, 0%, 0%)" stroke-opacity="1" stroke-miterlimit="4" d="M 163.812388 -0.0584106 C 163.518117 7.381694 157.544159 14.254089 149.799367 14.936381 C 141.374888 14.803569 134.848846 7.988464 135.768117 0.259298 C 135.716034 -8.243306 141.101451 -13.850077 149.130096 -13.85789 C 157.393117 -15.074036 164.137909 -8.113098 163.812388 -0.0584106 Z M 163.812388 -0.0584106 " transform="matrix(1.5, 0, 0, -1.5, 99.238449, 93.263947)"/>
<path fill="none" stroke-width="0.5" stroke-linecap="round" stroke-linejoin="round" stroke="rgb(0%, 0%, 0%)" stroke-opacity="1" stroke-miterlimit="4" d="M -28.169383 0.290548 C -18.765737 -0.225077 -9.664174 -0.063619 -0.0574036 0.061381 " transform="matrix(1.5, 0, 0, -1.5, 99.238449, 93.263947)"/>
<path fill="none" stroke-width="0.5" stroke-linecap="round" stroke-linejoin="round" stroke="rgb(0%, 0%, 0%)" stroke-opacity="1" stroke-miterlimit="4" d="M 0.0467631 0.0275269 C 0.231659 12.394714 -0.294383 25.29836 0.161346 38.11086 C 13.929576 37.759298 28.40093 37.957214 42.247284 37.873881 " transform="matrix(1.5, 0, 0, -1.5, 99.238449, 93.263947)"/>
<path fill="none" stroke-width="0.5" stroke-linecap="round" stroke-linejoin="round" stroke="rgb(0%, 0%, 0%)" stroke-opacity="1" stroke-miterlimit="4" d="M 34.062388 32.274923 C 35.882701 35.386902 38.83843 37.019714 42.083221 37.998881 C 39.192596 38.668152 35.752492 40.311381 33.864471 43.084819 " transform="matrix(1.5, 0, 0, -1.5, 99.238449, 93.263947)"/>
<path fill="none" stroke-width="0.5" stroke-linecap="round" stroke-linejoin="round" stroke="rgb(0%, 0%, 0%)" stroke-opacity="1" stroke-miterlimit="4" d="M -0.0600077 0.220235 C -0.114695 -12.831848 0.0702006 -25.417786 -0.291779 -38.074036 C 14.195201 -37.907369 28.062388 -38.006327 42.439992 -37.774556 " transform="matrix(1.5, 0, 0, -1.5, 99.238449, 93.263947)"/>
<path fill="none" stroke-width="0.5" stroke-linecap="round" stroke-linejoin="round" stroke="rgb(0%, 0%, 0%)" stroke-opacity="1" stroke-miterlimit="4" d="M 33.848846 -43.480286 C 36.223846 -40.672994 39.091034 -38.579244 42.515513 -37.680806 C 38.825409 -37.144348 36.11968 -35.214661 33.898326 -32.305806 " transform="matrix(1.5, 0, 0, -1.5, 99.238449, 93.263947)"/>
<path fill="none" stroke-width="0.5" stroke-linecap="round" stroke-linejoin="round" stroke="rgb(0%, 0%, 0%)" stroke-opacity="1" stroke-miterlimit="4" d="M 92.700409 37.662944 C 111.864471 37.686381 131.010305 37.772319 149.976451 38.024923 C 149.979055 30.371277 149.791555 22.556173 149.564992 14.491069 " transform="matrix(1.5, 0, 0, -1.5, 99.238449, 93.263947)"/>
<path fill="none" stroke-width="0.5" stroke-linecap="round" stroke-linejoin="round" stroke="rgb(0%, 0%, 0%)" stroke-opacity="1" stroke-miterlimit="4" d="M 144.236867 23.118673 C 147.046763 21.045756 148.966034 18.097839 149.966034 14.790548 C 150.46343 18.311381 152.585826 20.832214 154.919159 23.350444 " transform="matrix(1.5, 0, 0, -1.5, 99.238449, 93.263947)"/>
<path fill="none" stroke-width="0.5" stroke-linecap="round" stroke-linejoin="round" stroke="rgb(0%, 0%, 0%)" stroke-opacity="1" stroke-miterlimit="4" d="M 92.934784 -37.972473 C 111.632701 -38.037577 130.796763 -37.675598 149.903534 -37.675598 C 149.591034 -30.290181 149.945201 -22.245911 149.669159 -14.904765 " transform="matrix(1.5, 0, 0, -1.5, 99.238449, 93.263947)"/>
<path fill="none" stroke-width="0.5" stroke-linecap="round" stroke-linejoin="round" stroke="rgb(0%, 0%, 0%)" stroke-opacity="1" stroke-miterlimit="4" d="M 155.132701 -23.209452 C 152.374888 -21.094869 150.236867 -18.196431 149.43218 -14.824036 C 149.223846 -17.784973 147.156138 -21.162577 144.132701 -23.118306 " transform="matrix(1.5, 0, 0, -1.5, 99.238449, 93.263947)"/>
<path fill="none" stroke-width="0.5" stroke-linecap="round" stroke-linejoin="round" stroke="rgb(0%, 0%, 0%)" stroke-opacity="1" stroke-miterlimit="4" d="M 164.288951 -0.0766398 C 173.663951 0.121277 182.971242 0.131694 192.74468 0.100444 " transform="matrix(1.5, 0, 0, -1.5, 99.238449, 93.263947)"/>
<path fill="none" stroke-width="0.5" stroke-linecap="round" stroke-linejoin="round" stroke="rgb(0%, 0%, 0%)" stroke-opacity="1" stroke-miterlimit="4" d="M 184.080617 -5.097473 C 186.18218 -2.425598 189.111867 -0.558411 192.390513 -0.175598 C 188.882701 0.907735 186.176971 2.480652 184.210826 5.100444 " transform="matrix(1.5, 0, 0, -1.5, 99.238449, 93.263947)"/>
<path fill="none" stroke-width="0.5" stroke-linecap="round" stroke-linejoin="round" stroke="rgb(0%, 0%, 0%)" stroke-opacity="1" stroke-miterlimit="4" d="M 42.380096 21.428569 C 59.460826 20.912944 75.497284 21.355652 93.038951 21.465027 C 92.197805 32.550964 92.299367 43.967631 93.24468 55.113464 C 75.971242 55.061381 59.330617 54.186381 42.098846 54.847839 C 42.158742 42.980652 42.762909 32.751485 42.380096 21.428569 Z M 42.380096 21.428569 " transform="matrix(1.5, 0, 0, -1.5, 99.238449, 93.263947)"/>
<path fill="none" stroke-width="0.5" stroke-linecap="round" stroke-linejoin="round" stroke="rgb(0%, 0%, 0%)" stroke-opacity="1" stroke-miterlimit="4" d="M 42.848846 -54.886536 C 59.122284 -53.915181 75.874888 -54.318827 93.122284 -54.287577 C 93.296763 -43.300598 92.814992 -32.712056 92.546763 -21.646952 C 75.458221 -21.547994 59.023326 -20.829244 42.166555 -21.610494 C 42.867076 -32.42039 42.489471 -43.745911 42.848846 -54.886536 Z M 42.848846 -54.886536 " transform="matrix(1.5, 0, 0, -1.5, 99.238449, 93.263947)"/>
<path fill="none" stroke-width="0.5" stroke-linecap="round" stroke-linejoin="round" stroke="rgb(0%, 0%, 0%)" stroke-opacity="1" stroke-miterlimit="4" d="M 164.762909 -0.337056 C 163.703013 8.571798 157.130096 14.938985 149.640513 14.668152 C 141.445201 14.410339 135.189992 8.61086 135.450409 0.134298 C 135.330617 -7.396952 141.632701 -14.740702 149.992076 -14.803202 C 157.528534 -14.503723 164.632701 -7.985494 164.762909 -0.337056 Z M 164.762909 -0.337056 " transform="matrix(1.5, 0, 0, -1.5, 99.238449, 93.263947)"/>
<path fill="none" stroke-width="0.5" stroke-linecap="round" stroke-linejoin="round" stroke="rgb(0%, 0%, 0%)" stroke-opacity="1" stroke-miterlimit="4" d="M -28.278758 0.0978394 C -18.622508 0.225444 -9.557404 0.126485 0.169159 0.233256 " transform="matrix(1.5, 0, 0, -1.5, 99.238449, 93.263947)"/>
<path fill="none" stroke-width="0.5" stroke-linecap="round" stroke-linejoin="round" stroke="rgb(0%, 0%, 0%)" stroke-opacity="1" stroke-miterlimit="4" d="M -0.257924 0.0717977 C -0.226674 12.728048 0.0545756 25.170756 -0.234487 37.952006 C 14.018117 38.077006 28.453013 38.087423 42.028534 38.019714 " transform="matrix(1.5, 0, 0, -1.5, 99.238449, 93.263947)"/>
<path fill="none" stroke-width="0.5" stroke-linecap="round" stroke-linejoin="round" stroke="rgb(0%, 0%, 0%)" stroke-opacity="1" stroke-miterlimit="4" d="M 33.890513 32.816589 C 35.666555 35.389506 39.208221 37.043152 42.184784 37.709819 C 39.130096 38.480652 35.895721 40.720235 33.643117 43.108256 " transform="matrix(1.5, 0, 0, -1.5, 99.238449, 93.263947)"/>
<path fill="none" stroke-width="0.5" stroke-linecap="round" stroke-linejoin="round" stroke="rgb(0%, 0%, 0%)" stroke-opacity="1" stroke-miterlimit="4" d="M -0.22407 -0.188619 C 0.21343 -12.430806 -0.247508 -25.006327 0.195201 -37.79539 C 14.354055 -37.691223 28.161346 -37.964661 42.262909 -37.938619 " transform="matrix(1.5, 0, 0, -1.5, 99.238449, 93.263947)"/>
<path fill="none" stroke-width="0.5" stroke-linecap="round" stroke-linejoin="round" stroke="rgb(0%, 0%, 0%)" stroke-opacity="1" stroke-miterlimit="4" d="M 33.828013 -43.04539 C 36.234263 -40.402161 39.096242 -38.503723 42.541555 -37.766744 C 38.760305 -37.178202 35.830617 -35.003723 33.791555 -32.339661 " transform="matrix(1.5, 0, 0, -1.5, 99.238449, 93.263947)"/>
<path fill="none" stroke-width="0.5" stroke-linecap="round" stroke-linejoin="round" stroke="rgb(0%, 0%, 0%)" stroke-opacity="1" stroke-miterlimit="4" d="M 92.643117 38.014506 C 111.934784 37.795756 130.867076 37.871277 149.846242 37.712423 C 149.947805 29.944194 150.007701 22.123881 149.476451 14.425964 " transform="matrix(1.5, 0, 0, -1.5, 99.238449, 93.263947)"/>
<path fill="none" stroke-width="0.5" stroke-linecap="round" stroke-linejoin="round" stroke="rgb(0%, 0%, 0%)" stroke-opacity="1" stroke-miterlimit="4" d="M 144.489471 23.004089 C 147.247284 20.725444 149.114471 18.248881 149.611867 14.566589 C 150.593638 18.191589 152.189992 20.933777 154.90093 23.040548 " transform="matrix(1.5, 0, 0, -1.5, 99.238449, 93.263947)"/>
<path fill="none" stroke-width="0.5" stroke-linecap="round" stroke-linejoin="round" stroke="rgb(0%, 0%, 0%)" stroke-opacity="1" stroke-miterlimit="4" d="M 92.596242 -38.10789 C 112.038951 -38.162577 130.96343 -38.011536 149.791555 -37.990702 C 149.635305 -30.350077 149.676971 -22.165181 149.447805 -14.790181 " transform="matrix(1.5, 0, 0, -1.5, 99.238449, 93.263947)"/>
<path fill="none" stroke-width="0.5" stroke-linecap="round" stroke-linejoin="round" stroke="rgb(0%, 0%, 0%)" stroke-opacity="1" stroke-miterlimit="4" d="M 154.843638 -22.876119 C 152.43218 -20.725077 150.679576 -18.206848 149.778534 -14.915181 C 148.960826 -18.105286 147.137909 -21.227681 144.239471 -22.922994 " transform="matrix(1.5, 0, 0, -1.5, 99.238449, 93.263947)"/>
<path fill="none" stroke-width="0.5" stroke-linecap="round" stroke-linejoin="round" stroke="rgb(0%, 0%, 0%)" stroke-opacity="1" stroke-miterlimit="4" d="M 164.30718 -0.0532023 C 173.640513 -0.0688273 182.760305 -0.214661 192.598846 -0.141744 " transform="matrix(1.5, 0, 0, -1.5, 99.238449, 93.263947)"/>
<path fill="none" stroke-width="0.5" stroke-linecap="round" stroke-linejoin="round" stroke="rgb(0%, 0%, 0%)" stroke-opacity="1" stroke-miterlimit="4" d="M 183.999888 -5.292786 C 186.252492 -2.459452 189.346242 -0.896952 192.281138 0.20461 C 189.192596 0.532735 186.049367 2.514506 184.249888 5.655131 " transform="matrix(1.5, 0, 0, -1.5, 99.238449, 93.263947)"/>
<path fill-rule="nonzero" fill="rgb(0%, 0%, 0%)" fill-opacity="1" d="M 330.9375 61.789062 L 337.609375 61.789062 L 337.609375 68.457031 L 338.472656 68.308594 L 338.472656 61.789062 L 345.097656 61.789062 L 345.207031 60.925781 L 338.472656 60.925781 L 338.472656 54.253906 L 337.609375 54.386719 L 337.609375 60.925781 L 331.089844 60.925781 Z M 330.9375 61.789062 "/>
<path fill-rule="nonzero" fill="rgb(0%, 0%, 0%)" fill-opacity="1" d="M 330.9375 125.589844 L 337.609375 125.589844 L 337.609375 132.261719 L 338.472656 132.109375 L 338.472656 125.589844 L 345.097656 125.589844 L 345.207031 124.730469 L 338.472656 124.730469 L 338.472656 118.058594 L 337.609375 118.1875 L 337.609375 124.730469 L 331.089844 124.730469 Z M 330.9375 125.589844 "/>
<path fill-rule="nonzero" fill="rgb(0%, 0%, 0%)" fill-opacity="1" d="M 11.382812 84.523438 C 11.40625 84.523438 12.15625 84.738281 12.546875 84.847656 C 12.824219 84.933594 13.039062 85.191406 13.039062 85.492188 C 13.0625 86.714844 13.105469 88.867188 13.105469 89.1875 C 13.105469 92.308594 13.082031 95.453125 12.910156 98.578125 L 13.148438 98.769531 L 14.933594 98.144531 C 14.828125 96.078125 14.828125 93.988281 14.828125 91.921875 C 14.957031 91.921875 15.148438 92.007812 15.257812 92.113281 C 15.882812 92.738281 18.613281 96.25 20.613281 98.8125 L 22.746094 98.253906 L 22.746094 98.058594 L 17.085938 91.683594 L 17.128906 91.511719 C 18.914062 91.320312 20.660156 90.609375 21.347656 89.105469 C 21.667969 88.378906 21.753906 88.078125 21.753906 87.046875 C 21.753906 86.296875 21.453125 85.566406 20.917969 85.03125 C 20.550781 84.644531 20.054688 84.449219 19.539062 84.296875 C 18.851562 84.105469 18.117188 84.039062 17.386719 84.039062 L 11.535156 84.027344 L 11.40625 84.15625 L 11.382812 84.523438 M 14.804688 90.671875 C 14.804688 90.566406 14.890625 86.8125 14.933594 85.4375 C 14.957031 85.03125 15.019531 84.878906 15.191406 84.878906 L 16.054688 84.878906 C 16.632812 84.878906 17.238281 84.921875 17.816406 85.074219 C 18.226562 85.179688 18.636719 85.351562 18.9375 85.652344 C 19.386719 86.101562 19.648438 86.746094 19.648438 87.390625 C 19.648438 88.355469 19.214844 89.257812 18.550781 89.921875 C 17.839844 90.652344 16.804688 90.890625 15.816406 90.972656 C 15.558594 90.996094 15.277344 90.996094 15 90.996094 C 14.847656 90.996094 14.804688 90.800781 14.804688 90.675781 Z M 14.804688 90.671875 "/>
<path fill-rule="nonzero" fill="rgb(0%, 0%, 0%)" fill-opacity="1" d="M 25.757812 93.265625 C 25.757812 98.476562 26.597656 100.582031 27.265625 101.507812 C 27.867188 102.304688 28.769531 103.125 29.804688 103.210938 L 29.804688 102.691406 C 29.375 102.605469 28.726562 102.261719 28.363281 101.832031 C 28.0625 101.488281 26.878906 99.894531 26.878906 93.265625 C 26.878906 88.707031 27.585938 86.46875 28.0625 85.457031 C 28.40625 84.722656 29.117188 84.078125 29.804688 83.90625 L 29.804688 83.324219 C 28.921875 83.476562 27.976562 84.164062 27.4375 84.917969 C 26.769531 85.90625 25.757812 88.425781 25.757812 93.265625 Z M 25.757812 93.265625 "/>
<path fill-rule="nonzero" fill="rgb(0%, 0%, 0%)" fill-opacity="1" d="M 34 97.214844 C 34.214844 97.625 34.515625 97.992188 34.859375 98.292969 C 35.484375 98.851562 36.347656 99.003906 37.164062 99.003906 C 38.390625 99.003906 39.59375 98.59375 40.433594 97.691406 C 40.953125 97.152344 41.210938 96.417969 41.210938 95.664062 C 41.210938 95.128906 40.90625 94.632812 40.519531 94.246094 C 40.21875 93.941406 39.421875 93.46875 38.734375 93.167969 C 38.109375 92.910156 37.183594 92.4375 36.925781 92.175781 C 36.605469 91.832031 36.367188 91.574219 36.367188 91.101562 C 36.367188 90.628906 36.519531 90.175781 36.863281 89.851562 C 37.183594 89.527344 37.660156 89.355469 38.132812 89.355469 C 38.5625 89.355469 39.015625 89.507812 39.25 89.894531 C 39.464844 90.238281 39.507812 90.648438 39.53125 91.035156 L 39.789062 91.1875 L 40.972656 90.390625 C 40.953125 89.917969 40.714844 89.464844 40.371094 89.140625 C 39.875 88.691406 39.1875 88.605469 38.542969 88.605469 C 37.488281 88.605469 36.476562 88.949219 35.699219 89.660156 C 35.121094 90.175781 34.816406 90.929688 34.816406 91.683594 C 34.816406 92.371094 35.207031 92.972656 35.699219 93.425781 C 36.195312 93.855469 36.839844 94.160156 37.507812 94.4375 C 38.066406 94.675781 38.671875 94.933594 39.078125 95.34375 C 39.402344 95.664062 39.636719 96.097656 39.636719 96.546875 C 39.636719 96.9375 39.445312 97.300781 39.1875 97.582031 C 38.863281 97.925781 38.28125 98.183594 37.808594 98.183594 C 37.164062 98.183594 36.582031 97.90625 36.109375 97.453125 C 35.613281 97 35.398438 96.355469 35.355469 95.707031 L 35.054688 95.6875 Z M 34 97.214844 "/>
<path fill-rule="nonzero" fill="rgb(0%, 0%, 0%)" fill-opacity="1" d="M 45.730469 102.691406 L 45.730469 103.210938 C 46.761719 103.082031 47.730469 102.347656 48.332031 101.550781 C 49 100.628906 49.816406 98.476562 49.816406 93.265625 C 49.816406 87.867188 48.699219 85.90625 48.03125 84.917969 C 47.492188 84.164062 46.609375 83.476562 45.730469 83.324219 L 45.730469 83.90625 C 46.417969 84.101562 47.085938 84.722656 47.429688 85.457031 C 47.902344 86.46875 48.699219 88.273438 48.699219 93.265625 C 48.699219 100.777344 47.578125 101.488281 47.277344 101.832031 C 46.910156 102.261719 46.160156 102.605469 45.730469 102.691406 Z M 45.730469 102.691406 "/>
<path fill-rule="nonzero" fill="rgb(0%, 0%, 0%)" fill-opacity="1" d="M 394.339844 91.625 C 394.339844 93.730469 394.898438 95.863281 396.40625 97.367188 C 397.632812 98.59375 399.394531 98.960938 401.097656 98.960938 C 402.96875 98.960938 404.691406 98.058594 406.238281 97.003906 L 405.875 96.378906 C 404.667969 97.195312 403.3125 97.820312 401.847656 97.820312 C 400.085938 97.820312 399.179688 97.21875 397.996094 96.035156 C 397.289062 95.324219 396.253906 93.214844 396.253906 91.238281 C 396.253906 90.183594 396.382812 89.105469 396.707031 88.09375 C 396.964844 87.277344 397.351562 86.503906 397.953125 85.878906 C 398.902344 84.933594 400.234375 84.480469 401.546875 84.480469 C 402.539062 84.480469 403.570312 84.738281 404.28125 85.449219 C 404.777344 85.945312 405.140625 86.566406 405.398438 87.257812 L 405.699219 87.277344 L 406.929688 86.03125 C 406.691406 85.644531 406.410156 85.277344 406.089844 84.953125 C 405.097656 83.941406 403.679688 83.597656 402.28125 83.597656 C 400.042969 83.597656 397.867188 84.375 396.296875 85.945312 C 394.789062 87.429688 394.339844 89.558594 394.339844 91.625 Z M 394.339844 91.625 "/>
<path fill-rule="nonzero" fill="rgb(0%, 0%, 0%)" fill-opacity="1" d="M 410.261719 93.265625 C 410.261719 98.476562 411.101562 100.582031 411.769531 101.507812 C 412.371094 102.304688 413.277344 103.125 414.308594 103.210938 L 414.308594 102.691406 C 413.878906 102.605469 413.234375 102.261719 412.867188 101.832031 C 412.566406 101.488281 411.382812 99.894531 411.382812 93.265625 C 411.382812 88.707031 412.09375 86.46875 412.566406 85.457031 C 412.910156 84.722656 413.621094 84.078125 414.308594 83.90625 L 414.308594 83.324219 C 413.425781 83.476562 412.480469 84.164062 411.941406 84.917969 C 411.273438 85.90625 410.261719 88.425781 410.261719 93.265625 Z M 410.261719 93.265625 "/>
<path fill-rule="nonzero" fill="rgb(0%, 0%, 0%)" fill-opacity="1" d="M 418.503906 97.214844 C 418.71875 97.625 419.023438 97.992188 419.367188 98.292969 C 419.988281 98.851562 420.851562 99.003906 421.667969 99.003906 C 422.894531 99.003906 424.101562 98.59375 424.941406 97.691406 C 425.457031 97.152344 425.714844 96.417969 425.714844 95.664062 C 425.714844 95.128906 425.414062 94.632812 425.027344 94.246094 C 424.722656 93.941406 423.929688 93.46875 423.238281 93.167969 C 422.617188 92.910156 421.691406 92.4375 421.433594 92.175781 C 421.109375 91.832031 420.871094 91.574219 420.871094 91.101562 C 420.871094 90.628906 421.023438 90.175781 421.367188 89.851562 C 421.691406 89.527344 422.164062 89.355469 422.636719 89.355469 C 423.066406 89.355469 423.519531 89.507812 423.757812 89.894531 C 423.972656 90.238281 424.015625 90.648438 424.035156 91.035156 L 424.292969 91.1875 L 425.476562 90.390625 C 425.457031 89.917969 425.21875 89.464844 424.875 89.140625 C 424.378906 88.691406 423.691406 88.605469 423.046875 88.605469 C 421.992188 88.605469 420.980469 88.949219 420.207031 89.660156 C 419.625 90.175781 419.324219 90.929688 419.324219 91.683594 C 419.324219 92.371094 419.710938 92.972656 420.207031 93.425781 C 420.699219 93.855469 421.347656 94.160156 422.011719 94.4375 C 422.574219 94.675781 423.175781 94.933594 423.582031 95.34375 C 423.90625 95.664062 424.144531 96.097656 424.144531 96.546875 C 424.144531 96.9375 423.949219 97.300781 423.691406 97.582031 C 423.367188 97.925781 422.789062 98.183594 422.3125 98.183594 C 421.667969 98.183594 421.085938 97.90625 420.613281 97.453125 C 420.121094 97 419.902344 96.355469 419.859375 95.707031 L 419.558594 95.6875 Z M 418.503906 97.214844 "/>
<path fill-rule="nonzero" fill="rgb(0%, 0%, 0%)" fill-opacity="1" d="M 430.234375 102.691406 L 430.234375 103.210938 C 431.265625 103.082031 432.234375 102.347656 432.835938 101.550781 C 433.503906 100.628906 434.320312 98.476562 434.320312 93.265625 C 434.320312 87.867188 433.203125 85.90625 432.535156 84.917969 C 431.996094 84.164062 431.117188 83.476562 430.234375 83.324219 L 430.234375 83.90625 C 430.921875 84.101562 431.589844 84.722656 431.933594 85.457031 C 432.40625 86.46875 433.203125 88.273438 433.203125 93.265625 C 433.203125 100.777344 432.085938 101.488281 431.78125 101.832031 C 431.417969 102.261719 430.664062 102.605469 430.234375 102.691406 Z M 430.234375 102.691406 "/>
</svg>
