<?xml version="1.0" encoding="UTF-8"?>
<svg xmlns="http://www.w3.org/2000/svg" xmlns:xlink="http://www.w3.org/1999/xlink" width="456.971375" height="72.8384" viewBox="0 0 456.971375 72.8384">
<path fill-rule="nonzero" fill="rgb(0%, 0%, 0%)" fill-opacity="1" d="M 116.175781 34.90625 C 116.175781 36.949219 116.710938 39.0625 118.175781 40.527344 C 119.339844 41.6875 120.953125 42.246094 122.585938 42.246094 C 124.160156 42.246094 126.484375 41.667969 128.375 41.171875 C 128.375 41.171875 128.3125 37.230469 128.269531 35.269531 L 122.328125 35.507812 L 122.328125 36.066406 L 122.457031 36.175781 C 123.621094 36.21875 124.996094 36.304688 125.945312 36.367188 C 126.546875 36.410156 126.546875 37.101562 126.546875 38.996094 C 126.546875 40.570312 126.484375 40.828125 126.117188 40.914062 C 125.449219 41.066406 124.78125 41.128906 124.09375 41.128906 C 122.414062 41.128906 120.824219 40.589844 119.875 39.46875 C 118.628906 38.003906 118.113281 36.453125 118.113281 34.5625 C 118.113281 31.488281 119.230469 29.726562 119.855469 29.101562 C 120.78125 28.199219 122.050781 27.898438 123.320312 27.898438 C 126.136719 27.898438 127 29.917969 127.277344 30.476562 L 127.539062 30.5 L 128.785156 29.273438 C 128.546875 28.910156 127.40625 26.84375 124.289062 26.84375 C 122.027344 26.84375 119.769531 27.511719 118.15625 29.125 C 116.648438 30.628906 116.175781 32.800781 116.175781 34.90625 Z M 116.175781 34.90625 "/>
<path fill-rule="nonzero" fill="rgb(0%, 0%, 0%)" fill-opacity="1" d="M 132.925781 36.125 L 134.46875 36.125 C 134.929688 36.125 135.308594 36.472656 135.324219 36.882812 C 135.339844 37.292969 135.339844 38.496094 135.339844 39.300781 C 135.339844 41.601562 135.273438 43.902344 135.191406 46.191406 L 135.40625 46.273438 L 136.96875 45.828125 C 136.917969 44.578125 136.917969 41.324219 136.917969 39.085938 C 136.917969 37.621094 136.953125 36.144531 137.050781 34.679688 L 136.9375 34.484375 L 132.925781 35.683594 Z M 132.925781 36.125 "/>
<path fill-rule="nonzero" fill="rgb(0%, 0%, 0%)" fill-opacity="1" d="M 143.378906 36.511719 C 143.378906 41.71875 144.21875 43.828125 144.886719 44.753906 C 145.488281 45.550781 146.390625 46.367188 147.425781 46.453125 L 147.425781 45.9375 C 146.996094 45.851562 146.347656 45.507812 145.984375 45.078125 C 145.683594 44.734375 144.5 43.140625 144.5 36.511719 C 144.5 31.949219 145.207031 29.710938 145.683594 28.703125 C 146.027344 27.96875 146.738281 27.324219 147.425781 27.152344 L 147.425781 26.570312 C 146.542969 26.722656 145.597656 27.410156 145.058594 28.164062 C 144.390625 29.152344 143.378906 31.671875 143.378906 36.511719 Z M 143.378906 36.511719 "/>
<path fill-rule="nonzero" fill="rgb(0%, 0%, 0%)" fill-opacity="1" d="M 151.621094 40.460938 C 151.835938 40.871094 152.136719 41.238281 152.480469 41.539062 C 153.105469 42.097656 153.96875 42.246094 154.785156 42.246094 C 156.011719 42.246094 157.214844 41.839844 158.054688 40.933594 C 158.574219 40.398438 158.832031 39.664062 158.832031 38.910156 C 158.832031 38.371094 158.527344 37.878906 158.140625 37.488281 C 157.839844 37.1875 157.042969 36.714844 156.355469 36.414062 C 155.730469 36.15625 154.804688 35.679688 154.546875 35.421875 C 154.226562 35.078125 153.988281 34.820312 153.988281 34.347656 C 153.988281 33.871094 154.140625 33.421875 154.484375 33.097656 C 154.804688 32.773438 155.28125 32.601562 155.753906 32.601562 C 156.183594 32.601562 156.636719 32.753906 156.871094 33.140625 C 157.085938 33.484375 157.128906 33.894531 157.152344 34.28125 L 157.410156 34.433594 L 158.59375 33.636719 C 158.574219 33.164062 158.335938 32.710938 157.992188 32.386719 C 157.496094 31.933594 156.808594 31.847656 156.164062 31.847656 C 155.109375 31.847656 154.097656 32.191406 153.320312 32.902344 C 152.742188 33.421875 152.4375 34.175781 152.4375 34.929688 C 152.4375 35.617188 152.828125 36.21875 153.320312 36.671875 C 153.816406 37.101562 154.460938 37.402344 155.128906 37.683594 C 155.6875 37.921875 156.292969 38.179688 156.699219 38.589844 C 157.023438 38.910156 157.257812 39.339844 157.257812 39.792969 C 157.257812 40.179688 157.066406 40.546875 156.808594 40.828125 C 156.484375 41.171875 155.902344 41.429688 155.429688 41.429688 C 154.785156 41.429688 154.203125 41.152344 153.730469 40.699219 C 153.234375 40.246094 153.019531 39.601562 152.976562 38.953125 L 152.675781 38.933594 Z M 151.621094 40.460938 "/>
<path fill-rule="nonzero" fill="rgb(0%, 0%, 0%)" fill-opacity="1" d="M 163.351562 45.9375 L 163.351562 46.453125 C 164.382812 46.324219 165.351562 45.59375 165.953125 44.796875 C 166.621094 43.871094 167.4375 41.71875 167.4375 36.511719 C 167.4375 31.113281 166.320312 29.152344 165.652344 28.164062 C 165.113281 27.410156 164.230469 26.722656 163.351562 26.570312 L 163.351562 27.152344 C 164.039062 27.34375 164.707031 27.96875 165.050781 28.703125 C 165.523438 29.710938 166.320312 31.519531 166.320312 36.511719 C 166.320312 44.023438 165.199219 44.734375 164.898438 45.078125 C 164.53125 45.507812 163.78125 45.851562 163.351562 45.9375 Z M 163.351562 45.9375 "/>
<path fill-rule="nonzero" fill="rgb(0%, 0%, 0%)" fill-opacity="1" d="M 286.8125 34.90625 C 286.8125 36.949219 287.347656 39.0625 288.8125 40.527344 C 289.976562 41.6875 291.589844 42.246094 293.222656 42.246094 C 294.796875 42.246094 297.121094 41.667969 299.011719 41.171875 C 299.011719 41.171875 298.949219 37.230469 298.90625 35.269531 L 292.964844 35.507812 L 292.964844 36.066406 L 293.09375 36.175781 C 294.257812 36.21875 295.632812 36.304688 296.582031 36.367188 C 297.183594 36.410156 297.183594 37.101562 297.183594 38.996094 C 297.183594 40.570312 297.121094 40.828125 296.753906 40.914062 C 296.085938 41.066406 295.417969 41.128906 294.730469 41.128906 C 293.050781 41.128906 291.460938 40.589844 290.511719 39.46875 C 289.265625 38.003906 288.746094 36.453125 288.746094 34.5625 C 288.746094 31.488281 289.867188 29.726562 290.492188 29.101562 C 291.417969 28.199219 292.6875 27.898438 293.957031 27.898438 C 296.773438 27.898438 297.636719 29.917969 297.914062 30.476562 L 298.171875 30.5 L 299.421875 29.273438 C 299.183594 28.910156 298.042969 26.84375 294.925781 26.84375 C 292.664062 26.84375 290.40625 27.511719 288.789062 29.125 C 287.285156 30.628906 286.8125 32.800781 286.8125 34.90625 Z M 286.8125 34.90625 "/>
<path fill-rule="nonzero" fill="rgb(0%, 0%, 0%)" fill-opacity="1" d="M 302.082031 46.09375 L 310.1875 46.09375 L 310.613281 44.8125 L 310.53125 44.679688 L 304.792969 44.679688 C 304.695312 44.679688 304.597656 44.664062 304.5625 44.597656 C 304.546875 44.566406 304.5625 44.515625 304.578125 44.5 C 305.515625 43.546875 306.40625 42.59375 307.242188 41.605469 C 307.835938 40.914062 308.410156 40.226562 308.871094 39.46875 C 309.363281 38.710938 309.757812 37.90625 309.757812 37.035156 C 309.757812 36.363281 309.542969 35.6875 308.984375 35.210938 C 308.441406 34.734375 307.71875 34.488281 306.964844 34.488281 C 306.257812 34.488281 305.582031 34.667969 304.976562 34.964844 C 304.234375 35.308594 303.59375 35.800781 303.035156 36.34375 L 303.398438 36.65625 C 303.839844 36.328125 304.269531 36.082031 304.792969 35.835938 C 305.140625 35.671875 305.550781 35.605469 305.960938 35.605469 C 306.503906 35.605469 307.046875 35.785156 307.441406 36.148438 C 307.933594 36.625 308.046875 37.296875 308.046875 37.777344 C 308.046875 38.84375 307.621094 39.847656 306.980469 40.765625 C 306.453125 41.523438 305.8125 42.214844 305.15625 42.886719 C 304.167969 43.90625 303.132812 44.878906 302.082031 45.832031 Z M 302.082031 46.09375 "/>
<path fill-rule="nonzero" fill="rgb(0%, 0%, 0%)" fill-opacity="1" d="M 314.015625 36.511719 C 314.015625 41.71875 314.855469 43.828125 315.523438 44.753906 C 316.125 45.550781 317.027344 46.367188 318.0625 46.453125 L 318.0625 45.9375 C 317.632812 45.851562 316.984375 45.507812 316.621094 45.078125 C 316.320312 44.734375 315.136719 43.140625 315.136719 36.511719 C 315.136719 31.949219 315.84375 29.710938 316.320312 28.703125 C 316.664062 27.96875 317.375 27.324219 318.0625 27.152344 L 318.0625 26.570312 C 317.179688 26.722656 316.230469 27.410156 315.695312 28.164062 C 315.027344 29.152344 314.015625 31.671875 314.015625 36.511719 Z M 314.015625 36.511719 "/>
<path fill-rule="nonzero" fill="rgb(0%, 0%, 0%)" fill-opacity="1" d="M 322.257812 40.460938 C 322.472656 40.871094 322.773438 41.238281 323.117188 41.539062 C 323.742188 42.097656 324.605469 42.246094 325.421875 42.246094 C 326.648438 42.246094 327.851562 41.839844 328.691406 40.933594 C 329.207031 40.398438 329.46875 39.664062 329.46875 38.910156 C 329.46875 38.371094 329.164062 37.878906 328.777344 37.488281 C 328.476562 37.1875 327.679688 36.714844 326.992188 36.414062 C 326.367188 36.15625 325.441406 35.679688 325.183594 35.421875 C 324.863281 35.078125 324.625 34.820312 324.625 34.347656 C 324.625 33.871094 324.777344 33.421875 325.121094 33.097656 C 325.441406 32.773438 325.917969 32.601562 326.390625 32.601562 C 326.820312 32.601562 327.273438 32.753906 327.507812 33.140625 C 327.722656 33.484375 327.765625 33.894531 327.789062 34.28125 L 328.046875 34.433594 L 329.230469 33.636719 C 329.207031 33.164062 328.972656 32.710938 328.628906 32.386719 C 328.132812 31.933594 327.445312 31.847656 326.796875 31.847656 C 325.742188 31.847656 324.734375 32.191406 323.957031 32.902344 C 323.375 33.421875 323.074219 34.175781 323.074219 34.929688 C 323.074219 35.617188 323.460938 36.21875 323.957031 36.671875 C 324.453125 37.101562 325.097656 37.402344 325.765625 37.683594 C 326.324219 37.921875 326.925781 38.179688 327.335938 38.589844 C 327.660156 38.910156 327.894531 39.339844 327.894531 39.792969 C 327.894531 40.179688 327.703125 40.546875 327.445312 40.828125 C 327.121094 41.171875 326.539062 41.429688 326.066406 41.429688 C 325.421875 41.429688 324.839844 41.152344 324.367188 40.699219 C 323.871094 40.246094 323.65625 39.601562 323.613281 38.953125 L 323.3125 38.933594 Z M 322.257812 40.460938 "/>
<path fill-rule="nonzero" fill="rgb(0%, 0%, 0%)" fill-opacity="1" d="M 333.984375 45.9375 L 333.984375 46.453125 C 335.019531 46.324219 335.988281 45.59375 336.589844 44.796875 C 337.257812 43.871094 338.074219 41.71875 338.074219 36.511719 C 338.074219 31.113281 336.957031 29.152344 336.289062 28.164062 C 335.75 27.410156 334.867188 26.722656 333.984375 26.570312 L 333.984375 27.152344 C 334.675781 27.34375 335.339844 27.96875 335.6875 28.703125 C 336.160156 29.710938 336.957031 31.519531 336.957031 36.511719 C 336.957031 44.023438 335.835938 44.734375 335.535156 45.078125 C 335.167969 45.507812 334.417969 45.851562 333.984375 45.9375 Z M 333.984375 45.9375 "/>
<path fill="none" stroke-width="0.5" stroke-linecap="round" stroke-linejoin="round" stroke="rgb(0%, 0%, 0%)" stroke-opacity="1" stroke-miterlimit="4" d="M -28.660378 -16.717717 C -9.215065 -16.907821 9.764102 -16.199488 28.589622 -16.92605 C 29.071393 -5.636988 28.26931 6.027075 27.990664 16.063533 C 9.008893 16.706762 -10.077044 16.972387 -28.845273 16.808325 C -29.097878 4.94895 -28.863503 -5.540634 -28.660378 -16.717717 Z M -28.660378 -16.717717 " transform="matrix(1.5, 0, 0, -1.5, 142.037441, 36.509362)"/>
<path fill="none" stroke-width="0.5" stroke-linecap="round" stroke-linejoin="round" stroke="rgb(0%, 0%, 0%)" stroke-opacity="1" stroke-miterlimit="4" d="M 85.430768 -16.079696 C 103.912539 -16.514592 122.662539 -17.004175 141.972435 -16.972925 C 142.646914 -5.254175 142.917747 5.964575 142.292747 16.310929 C 123.553164 16.740616 104.873477 16.902075 84.654727 16.863012 C 85.370872 5.141658 84.58181 -5.636988 85.430768 -16.079696 Z M 85.430768 -16.079696 " transform="matrix(1.5, 0, 0, -1.5, 142.037441, 36.509362)"/>
<path fill="none" stroke-width="0.5" stroke-linecap="round" stroke-linejoin="round" stroke="rgb(0%, 0%, 0%)" stroke-opacity="1" stroke-miterlimit="4" d="M -56.889544 -0.134384 C -47.376523 -0.241154 -37.98069 0.13645 -28.808815 -0.0536544 " transform="matrix(1.5, 0, 0, -1.5, 142.037441, 36.509362)"/>
<path fill="none" stroke-width="0.5" stroke-linecap="round" stroke-linejoin="round" stroke="rgb(0%, 0%, 0%)" stroke-opacity="1" stroke-miterlimit="4" d="M -37.103086 -5.467717 C -35.069232 -2.3948 -31.847878 -0.866154 -28.600482 -0.212509 C -32.264544 1.055721 -35.264544 2.44895 -37.178607 5.641658 " transform="matrix(1.5, 0, 0, -1.5, 142.037441, 36.509362)"/>
<path fill="none" stroke-width="0.5" stroke-linecap="round" stroke-linejoin="round" stroke="rgb(0%, 0%, 0%)" stroke-opacity="1" stroke-miterlimit="4" d="M 28.420352 0.0817623 C 47.087018 0.00103315 66.08181 -0.209904 85.152122 -0.0198002 " transform="matrix(1.5, 0, 0, -1.5, 142.037441, 36.509362)"/>
<path fill="none" stroke-width="0.5" stroke-linecap="round" stroke-linejoin="round" stroke="rgb(0%, 0%, 0%)" stroke-opacity="1" stroke-miterlimit="4" d="M 76.701602 -5.196884 C 78.808372 -2.910425 81.865664 -1.071884 84.886497 -0.2073 C 81.600039 0.821346 78.365664 2.902075 76.277122 5.089575 " transform="matrix(1.5, 0, 0, -1.5, 142.037441, 36.509362)"/>
<path fill="none" stroke-width="0.5" stroke-linecap="round" stroke-linejoin="round" stroke="rgb(0%, 0%, 0%)" stroke-opacity="1" stroke-miterlimit="4" d="M 142.326602 -0.165634 C 151.852643 0.118221 161.183372 0.120825 170.764102 -0.100529 " transform="matrix(1.5, 0, 0, -1.5, 142.037441, 36.509362)"/>
<path fill="none" stroke-width="0.5" stroke-linecap="round" stroke-linejoin="round" stroke="rgb(0%, 0%, 0%)" stroke-opacity="1" stroke-miterlimit="4" d="M 162.110456 -5.446884 C 164.040143 -2.686467 167.326602 -1.069279 170.639102 -0.0927169 C 167.295352 0.94895 164.357852 2.745825 162.475039 5.211971 " transform="matrix(1.5, 0, 0, -1.5, 142.037441, 36.509362)"/>
<path fill="none" stroke-width="0.5" stroke-linecap="round" stroke-linejoin="round" stroke="rgb(0%, 0%, 0%)" stroke-opacity="1" stroke-miterlimit="4" d="M -28.939023 -16.129175 C -10.058815 -16.155217 9.066185 -17.212509 28.303164 -16.782821 C 29.014102 -5.011988 28.503685 5.079158 27.902122 16.657283 C 9.951602 15.995825 -9.10569 16.047908 -28.868711 16.654679 C -28.006732 5.024471 -29.131732 -5.837509 -28.939023 -16.129175 Z M -28.939023 -16.129175 " transform="matrix(1.5, 0, 0, -1.5, 142.037441, 36.509362)"/>
<path fill="none" stroke-width="0.5" stroke-linecap="round" stroke-linejoin="round" stroke="rgb(0%, 0%, 0%)" stroke-opacity="1" stroke-miterlimit="4" d="M 84.626081 -16.725529 C 104.649518 -16.092717 122.745872 -16.949488 142.532331 -16.811467 C 141.649518 -5.730738 141.764102 5.988012 142.261497 16.644262 C 123.743268 16.506241 104.876081 16.623429 85.493268 16.279679 C 85.33181 5.501033 85.462018 -5.316675 84.626081 -16.725529 Z M 84.626081 -16.725529 " transform="matrix(1.5, 0, 0, -1.5, 142.037441, 36.509362)"/>
<path fill="none" stroke-width="0.5" stroke-linecap="round" stroke-linejoin="round" stroke="rgb(0%, 0%, 0%)" stroke-opacity="1" stroke-miterlimit="4" d="M -56.91819 0.159887 C -47.426003 -0.285425 -38.334857 -0.178654 -28.902565 0.209366 " transform="matrix(1.5, 0, 0, -1.5, 142.037441, 36.509362)"/>
<path fill="none" stroke-width="0.5" stroke-linecap="round" stroke-linejoin="round" stroke="rgb(0%, 0%, 0%)" stroke-opacity="1" stroke-miterlimit="4" d="M -37.415586 -5.506779 C -35.207253 -2.808863 -32.149961 -0.5823 -28.66819 -0.0276127 C -32.280169 0.529679 -34.868711 2.490616 -36.962461 5.529679 " transform="matrix(1.5, 0, 0, -1.5, 142.037441, 36.509362)"/>
<path fill="none" stroke-width="0.5" stroke-linecap="round" stroke-linejoin="round" stroke="rgb(0%, 0%, 0%)" stroke-opacity="1" stroke-miterlimit="4" d="M 28.623477 0.133846 C 47.501081 -0.0744877 66.198997 -0.204696 84.691185 0.141658 " transform="matrix(1.5, 0, 0, -1.5, 142.037441, 36.509362)"/>
<path fill="none" stroke-width="0.5" stroke-linecap="round" stroke-linejoin="round" stroke="rgb(0%, 0%, 0%)" stroke-opacity="1" stroke-miterlimit="4" d="M 76.615664 -5.371363 C 78.761497 -2.452092 81.537539 -0.558863 85.011497 0.014054 C 81.70681 0.508846 78.381289 2.743221 76.295352 5.409887 " transform="matrix(1.5, 0, 0, -1.5, 142.037441, 36.509362)"/>
<path fill="none" stroke-width="0.5" stroke-linecap="round" stroke-linejoin="round" stroke="rgb(0%, 0%, 0%)" stroke-opacity="1" stroke-miterlimit="4" d="M 142.198997 0.0713456 C 151.821393 0.029679 161.029727 -0.277613 170.743268 -0.280217 " transform="matrix(1.5, 0, 0, -1.5, 142.037441, 36.509362)"/>
<path fill="none" stroke-width="0.5" stroke-linecap="round" stroke-linejoin="round" stroke="rgb(0%, 0%, 0%)" stroke-opacity="1" stroke-miterlimit="4" d="M 162.48806 -5.134384 C 164.368268 -2.571884 167.073997 -0.571884 170.584414 0.277075 C 167.23806 0.961971 164.376081 2.404679 162.435977 5.300512 " transform="matrix(1.5, 0, 0, -1.5, 142.037441, 36.509362)"/>
<path fill="none" stroke-width="0.5" stroke-linecap="round" stroke-linejoin="round" stroke="rgb(0%, 0%, 0%)" stroke-opacity="1" stroke-miterlimit="4" d="M -29.066628 -16.663029 C -9.551003 -16.597925 9.006289 -16.152613 28.443789 -16.017196 C 28.352643 -5.670842 28.225039 5.266658 28.839622 16.19895 C 9.396914 17.1052 -9.806211 16.13645 -27.954648 17.274471 C -27.884336 4.94895 -28.733294 -5.918238 -29.066628 -16.663029 Z M -29.066628 -16.663029 " transform="matrix(1.5, 0, 0, -1.5, 142.037441, 36.509362)"/>
<path fill="none" stroke-width="0.5" stroke-linecap="round" stroke-linejoin="round" stroke="rgb(0%, 0%, 0%)" stroke-opacity="1" stroke-miterlimit="4" d="M 85.024518 -16.017196 C 104.107852 -16.386988 122.891706 -16.808863 141.92556 -16.985946 C 141.771914 -6.126571 142.605247 5.805721 141.928164 16.209366 C 123.264102 16.081762 103.852643 16.9802 85.683372 17.110408 C 85.256289 5.568741 85.126081 -5.061467 85.024518 -16.017196 Z M 85.024518 -16.017196 " transform="matrix(1.5, 0, 0, -1.5, 142.037441, 36.509362)"/>
<path fill="none" stroke-width="0.5" stroke-linecap="round" stroke-linejoin="round" stroke="rgb(0%, 0%, 0%)" stroke-opacity="1" stroke-miterlimit="4" d="M -56.681211 0.217179 C -47.57444 -0.280217 -37.985898 0.222387 -28.522357 0.128637 " transform="matrix(1.5, 0, 0, -1.5, 142.037441, 36.509362)"/>
<path fill="none" stroke-width="0.5" stroke-linecap="round" stroke-linejoin="round" stroke="rgb(0%, 0%, 0%)" stroke-opacity="1" stroke-miterlimit="4" d="M -37.014544 -5.668238 C -35.235898 -2.941675 -32.113503 -0.514592 -28.504128 -0.032821 C -31.959857 0.7302 -34.816628 2.821346 -37.040586 5.13645 " transform="matrix(1.5, 0, 0, -1.5, 142.037441, 36.509362)"/>
<path fill="none" stroke-width="0.5" stroke-linecap="round" stroke-linejoin="round" stroke="rgb(0%, 0%, 0%)" stroke-opacity="1" stroke-miterlimit="4" d="M 28.422956 0.0791581 C 47.464622 -0.100529 66.084414 -0.191675 85.271914 -0.267196 " transform="matrix(1.5, 0, 0, -1.5, 142.037441, 36.509362)"/>
<path fill="none" stroke-width="0.5" stroke-linecap="round" stroke-linejoin="round" stroke="rgb(0%, 0%, 0%)" stroke-opacity="1" stroke-miterlimit="4" d="M 76.498477 -5.467717 C 78.430768 -2.449488 81.402122 -0.483342 84.748477 0.0791581 C 81.727643 0.680721 78.600039 2.38645 76.725039 5.316137 " transform="matrix(1.5, 0, 0, -1.5, 142.037441, 36.509362)"/>
<path fill="none" stroke-width="0.5" stroke-linecap="round" stroke-linejoin="round" stroke="rgb(0%, 0%, 0%)" stroke-opacity="1" stroke-miterlimit="4" d="M 142.344831 0.256241 C 151.86306 0.00624148 161.201602 -0.150009 170.571393 -0.217717 " transform="matrix(1.5, 0, 0, -1.5, 142.037441, 36.509362)"/>
<path fill="none" stroke-width="0.5" stroke-linecap="round" stroke-linejoin="round" stroke="rgb(0%, 0%, 0%)" stroke-opacity="1" stroke-miterlimit="4" d="M 162.495872 -5.342717 C 164.480247 -2.423446 167.235456 -0.650009 170.930768 0.193741 C 167.316185 1.001033 164.420352 2.915096 162.420352 5.357804 " transform="matrix(1.5, 0, 0, -1.5, 142.037441, 36.509362)"/>
<path fill="none" stroke-width="0.5" stroke-linecap="round" stroke-linejoin="round" stroke="rgb(0%, 0%, 0%)" stroke-opacity="1" stroke-miterlimit="4" d="M -28.176003 -16.350529 C -8.88694 -16.392196 9.23806 -16.350529 29.034935 -16.577092 C 29.055768 -5.574488 27.98806 5.787491 27.889102 17.191137 C 9.545352 16.165096 -8.993711 16.349991 -28.272357 17.024471 C -28.613503 4.990616 -28.892148 -5.360946 -28.176003 -16.350529 Z M -28.176003 -16.350529 " transform="matrix(1.5, 0, 0, -1.5, 142.037441, 36.509362)"/>
<path fill="none" stroke-width="0.5" stroke-linecap="round" stroke-linejoin="round" stroke="rgb(0%, 0%, 0%)" stroke-opacity="1" stroke-miterlimit="4" d="M 85.654727 -17.116154 C 104.506289 -16.735946 123.230247 -17.1448 142.482852 -16.004175 C 141.740664 -5.525009 141.975039 5.579158 141.891706 16.253637 C 123.17556 16.38645 103.779727 16.467179 85.516706 16.714575 C 84.907331 5.251033 84.857852 -5.222925 85.654727 -17.116154 Z M 85.654727 -17.116154 " transform="matrix(1.5, 0, 0, -1.5, 142.037441, 36.509362)"/>
<path fill="none" stroke-width="0.5" stroke-linecap="round" stroke-linejoin="round" stroke="rgb(0%, 0%, 0%)" stroke-opacity="1" stroke-miterlimit="4" d="M -56.821836 -0.079696 C -47.241107 -0.126571 -38.019753 -0.0119877 -28.498919 0.206762 " transform="matrix(1.5, 0, 0, -1.5, 142.037441, 36.509362)"/>
<path fill="none" stroke-width="0.5" stroke-linecap="round" stroke-linejoin="round" stroke="rgb(0%, 0%, 0%)" stroke-opacity="1" stroke-miterlimit="4" d="M -37.280169 -5.259384 C -35.147357 -2.824488 -32.084857 -0.574488 -28.785378 0.0661373 C -32.342669 0.6052 -35.004128 2.568741 -37.478086 5.3552 " transform="matrix(1.5, 0, 0, -1.5, 142.037441, 36.509362)"/>
<path fill="none" stroke-width="0.5" stroke-linecap="round" stroke-linejoin="round" stroke="rgb(0%, 0%, 0%)" stroke-opacity="1" stroke-miterlimit="4" d="M 28.784935 0.248429 C 47.48806 0.251033 66.357852 -0.0276127 84.964622 -0.254175 " transform="matrix(1.5, 0, 0, -1.5, 142.037441, 36.509362)"/>
<path fill="none" stroke-width="0.5" stroke-linecap="round" stroke-linejoin="round" stroke="rgb(0%, 0%, 0%)" stroke-opacity="1" stroke-miterlimit="4" d="M 76.701602 -5.452092 C 78.745872 -2.556259 81.756289 -0.558863 84.969831 0.0322831 C 81.67556 0.615616 78.909935 2.38645 76.597435 5.342179 " transform="matrix(1.5, 0, 0, -1.5, 142.037441, 36.509362)"/>
<path fill="none" stroke-width="0.5" stroke-linecap="round" stroke-linejoin="round" stroke="rgb(0%, 0%, 0%)" stroke-opacity="1" stroke-miterlimit="4" d="M 142.058372 -0.0718835 C 151.534935 0.00363731 161.292747 0.0114498 170.415143 -0.0901127 " transform="matrix(1.5, 0, 0, -1.5, 142.037441, 36.509362)"/>
<path fill="none" stroke-width="0.5" stroke-linecap="round" stroke-linejoin="round" stroke="rgb(0%, 0%, 0%)" stroke-opacity="1" stroke-miterlimit="4" d="M 162.329206 -5.389592 C 164.261497 -2.535425 167.527122 -0.556259 170.409935 0.0557206 C 167.165143 0.889054 164.245872 2.94895 162.248477 5.485408 " transform="matrix(1.5, 0, 0, -1.5, 142.037441, 36.509362)"/>
<path fill="none" stroke-width="0.5" stroke-linecap="round" stroke-linejoin="round" stroke="rgb(0%, 0%, 0%)" stroke-opacity="1" stroke-miterlimit="4" d="M -28.282773 -16.454696 C -9.07444 -16.511988 9.857852 -16.413029 28.920352 -16.194279 C 28.857852 -6.038029 28.696393 4.915096 28.821393 16.516658 C 9.274518 16.581762 -9.277565 17.040096 -28.600482 16.422908 C -27.972878 6.003637 -28.873919 -5.139592 -28.282773 -16.454696 Z M -28.282773 -16.454696 " transform="matrix(1.5, 0, 0, -1.5, 142.037441, 36.509362)"/>
<path fill="none" stroke-width="0.5" stroke-linecap="round" stroke-linejoin="round" stroke="rgb(0%, 0%, 0%)" stroke-opacity="1" stroke-miterlimit="4" d="M 85.868268 -16.665634 C 104.131289 -16.871363 123.873477 -16.889592 142.454206 -17.155217 C 141.67556 -5.230738 141.784935 5.303116 142.08181 17.001033 C 123.534935 16.454158 104.251081 17.178116 85.133893 16.266658 C 85.480247 4.912491 84.891706 -5.350529 85.868268 -16.665634 Z M 85.868268 -16.665634 " transform="matrix(1.5, 0, 0, -1.5, 142.037441, 36.509362)"/>
<path fill="none" stroke-width="0.5" stroke-linecap="round" stroke-linejoin="round" stroke="rgb(0%, 0%, 0%)" stroke-opacity="1" stroke-miterlimit="4" d="M -56.801003 -0.293238 C -47.556211 -0.0432377 -37.952044 0.014054 -28.759336 -0.123967 " transform="matrix(1.5, 0, 0, -1.5, 142.037441, 36.509362)"/>
<path fill="none" stroke-width="0.5" stroke-linecap="round" stroke-linejoin="round" stroke="rgb(0%, 0%, 0%)" stroke-opacity="1" stroke-miterlimit="4" d="M -37.19944 -5.095321 C -34.884336 -2.663029 -32.358294 -0.834904 -28.517148 0.240616 C -32.087461 0.495825 -35.134336 2.461971 -36.975482 5.245825 " transform="matrix(1.5, 0, 0, -1.5, 142.037441, 36.509362)"/>
<path fill="none" stroke-width="0.5" stroke-linecap="round" stroke-linejoin="round" stroke="rgb(0%, 0%, 0%)" stroke-opacity="1" stroke-miterlimit="4" d="M 28.670352 -0.0927169 C 47.563581 0.141658 66.037539 -0.194279 84.693789 0.2302 " transform="matrix(1.5, 0, 0, -1.5, 142.037441, 36.509362)"/>
<path fill="none" stroke-width="0.5" stroke-linecap="round" stroke-linejoin="round" stroke="rgb(0%, 0%, 0%)" stroke-opacity="1" stroke-miterlimit="4" d="M 76.667747 -5.418238 C 78.527122 -2.623967 81.915143 -1.001571 85.120872 0.0270748 C 81.477643 0.826554 78.420352 2.935929 76.498477 5.594783 " transform="matrix(1.5, 0, 0, -1.5, 142.037441, 36.509362)"/>
<path fill="none" stroke-width="0.5" stroke-linecap="round" stroke-linejoin="round" stroke="rgb(0%, 0%, 0%)" stroke-opacity="1" stroke-miterlimit="4" d="M 142.339622 0.0479081 C 151.534935 -0.11355 160.951602 -0.157821 170.438581 -0.0458419 " transform="matrix(1.5, 0, 0, -1.5, 142.037441, 36.509362)"/>
<path fill="none" stroke-width="0.5" stroke-linecap="round" stroke-linejoin="round" stroke="rgb(0%, 0%, 0%)" stroke-opacity="1" stroke-miterlimit="4" d="M 162.287539 -5.558863 C 164.222435 -2.928654 167.058372 -0.975529 170.709414 -0.142196 C 167.571393 0.474991 164.058372 2.881241 162.370872 5.409887 " transform="matrix(1.5, 0, 0, -1.5, 142.037441, 36.509362)"/>
<path fill-rule="nonzero" fill="rgb(0%, 0%, 0%)" fill-opacity="1" d="M 11.382812 27.769531 C 11.40625 27.769531 12.15625 27.984375 12.546875 28.089844 C 12.824219 28.175781 13.039062 28.433594 13.039062 28.734375 C 13.0625 29.960938 13.105469 32.113281 13.105469 32.433594 C 13.105469 35.554688 13.082031 38.699219 12.910156 41.820312 L 13.148438 42.015625 L 14.933594 41.390625 C 14.828125 39.324219 14.828125 37.234375 14.828125 35.167969 C 14.957031 35.167969 15.148438 35.253906 15.257812 35.359375 C 15.882812 35.984375 18.613281 39.496094 20.613281 42.058594 L 22.746094 41.5 L 22.746094 41.304688 L 17.085938 34.929688 L 17.128906 34.757812 C 18.914062 34.5625 20.660156 33.855469 21.347656 32.351562 C 21.667969 31.621094 21.753906 31.324219 21.753906 30.292969 C 21.753906 29.542969 21.453125 28.8125 20.917969 28.273438 C 20.550781 27.886719 20.054688 27.695312 19.539062 27.542969 C 18.851562 27.351562 18.117188 27.285156 17.386719 27.285156 L 11.535156 27.273438 L 11.40625 27.402344 L 11.382812 27.769531 M 14.804688 33.917969 C 14.804688 33.8125 14.890625 30.054688 14.933594 28.683594 C 14.957031 28.273438 15.019531 28.125 15.191406 28.125 L 16.054688 28.125 C 16.632812 28.125 17.238281 28.167969 17.816406 28.316406 C 18.226562 28.425781 18.636719 28.597656 18.9375 28.898438 C 19.386719 29.347656 19.648438 29.992188 19.648438 30.636719 C 19.648438 31.601562 19.214844 32.503906 18.550781 33.167969 C 17.839844 33.898438 16.804688 34.132812 15.816406 34.21875 C 15.558594 34.242188 15.277344 34.242188 15 34.242188 C 14.847656 34.242188 14.804688 34.046875 14.804688 33.917969 Z M 14.804688 33.917969 "/>
<path fill-rule="nonzero" fill="rgb(0%, 0%, 0%)" fill-opacity="1" d="M 25.757812 36.511719 C 25.757812 41.71875 26.597656 43.828125 27.265625 44.753906 C 27.867188 45.550781 28.769531 46.367188 29.804688 46.453125 L 29.804688 45.9375 C 29.375 45.851562 28.726562 45.507812 28.363281 45.078125 C 28.0625 44.734375 26.878906 43.140625 26.878906 36.511719 C 26.878906 31.949219 27.585938 29.710938 28.0625 28.703125 C 28.40625 27.96875 29.117188 27.324219 29.804688 27.152344 L 29.804688 26.570312 C 28.921875 26.722656 27.976562 27.410156 27.4375 28.164062 C 26.769531 29.152344 25.757812 31.671875 25.757812 36.511719 Z M 25.757812 36.511719 "/>
<path fill-rule="nonzero" fill="rgb(0%, 0%, 0%)" fill-opacity="1" d="M 34 40.460938 C 34.214844 40.871094 34.515625 41.238281 34.859375 41.539062 C 35.484375 42.097656 36.347656 42.246094 37.164062 42.246094 C 38.390625 42.246094 39.59375 41.839844 40.433594 40.933594 C 40.953125 40.398438 41.210938 39.664062 41.210938 38.910156 C 41.210938 38.371094 40.90625 37.878906 40.519531 37.488281 C 40.21875 37.1875 39.421875 36.714844 38.734375 36.414062 C 38.109375 36.15625 37.183594 35.679688 36.925781 35.421875 C 36.605469 35.078125 36.367188 34.820312 36.367188 34.347656 C 36.367188 33.871094 36.519531 33.421875 36.863281 33.097656 C 37.183594 32.773438 37.660156 32.601562 38.132812 32.601562 C 38.5625 32.601562 39.015625 32.753906 39.25 33.140625 C 39.464844 33.484375 39.507812 33.894531 39.53125 34.28125 L 39.789062 34.433594 L 40.972656 33.636719 C 40.953125 33.164062 40.714844 32.710938 40.371094 32.386719 C 39.875 31.933594 39.1875 31.847656 38.542969 31.847656 C 37.488281 31.847656 36.476562 32.191406 35.699219 32.902344 C 35.121094 33.421875 34.816406 34.175781 34.816406 34.929688 C 34.816406 35.617188 35.207031 36.21875 35.699219 36.671875 C 36.195312 37.101562 36.839844 37.402344 37.507812 37.683594 C 38.066406 37.921875 38.671875 38.179688 39.078125 38.589844 C 39.402344 38.910156 39.636719 39.339844 39.636719 39.792969 C 39.636719 40.179688 39.445312 40.546875 39.1875 40.828125 C 38.863281 41.171875 38.28125 41.429688 37.808594 41.429688 C 37.164062 41.429688 36.582031 41.152344 36.109375 40.699219 C 35.613281 40.246094 35.398438 39.601562 35.355469 38.953125 L 35.054688 38.933594 Z M 34 40.460938 "/>
<path fill-rule="nonzero" fill="rgb(0%, 0%, 0%)" fill-opacity="1" d="M 45.730469 45.9375 L 45.730469 46.453125 C 46.761719 46.324219 47.730469 45.59375 48.332031 44.796875 C 49 43.871094 49.816406 41.71875 49.816406 36.511719 C 49.816406 31.113281 48.699219 29.152344 48.03125 28.164062 C 47.492188 27.410156 46.609375 26.722656 45.730469 26.570312 L 45.730469 27.152344 C 46.417969 27.34375 47.085938 27.96875 47.429688 28.703125 C 47.902344 29.710938 48.699219 31.519531 48.699219 36.511719 C 48.699219 44.023438 47.578125 44.734375 47.277344 45.078125 C 46.910156 45.507812 46.160156 45.851562 45.730469 45.9375 Z M 45.730469 45.9375 "/>
<path fill-rule="nonzero" fill="rgb(0%, 0%, 0%)" fill-opacity="1" d="M 404.363281 34.871094 C 404.363281 36.976562 404.921875 39.109375 406.429688 40.613281 C 407.65625 41.839844 409.421875 42.207031 411.121094 42.207031 C 412.992188 42.207031 414.714844 41.300781 416.265625 40.246094 L 415.898438 39.625 C 414.691406 40.441406 413.335938 41.066406 411.875 41.066406 C 410.109375 41.066406 409.207031 40.464844 408.023438 39.28125 C 407.3125 38.570312 406.277344 36.460938 406.277344 34.480469 C 406.277344 33.429688 406.410156 32.351562 406.730469 31.339844 C 406.988281 30.523438 407.375 29.75 407.980469 29.125 C 408.925781 28.179688 410.261719 27.726562 411.574219 27.726562 C 412.5625 27.726562 413.597656 27.984375 414.304688 28.695312 C 414.800781 29.1875 415.167969 29.8125 415.425781 30.5 L 415.726562 30.523438 L 416.953125 29.277344 C 416.714844 28.886719 416.4375 28.523438 416.113281 28.199219 C 415.125 27.1875 413.703125 26.84375 412.304688 26.84375 C 410.066406 26.84375 407.894531 27.617188 406.320312 29.1875 C 404.816406 30.675781 404.363281 32.804688 404.363281 34.871094 Z M 404.363281 34.871094 "/>
<path fill-rule="nonzero" fill="rgb(0%, 0%, 0%)" fill-opacity="1" d="M 420.289062 36.511719 C 420.289062 41.71875 421.128906 43.828125 421.792969 44.753906 C 422.398438 45.550781 423.300781 46.367188 424.335938 46.453125 L 424.335938 45.9375 C 423.902344 45.851562 423.257812 45.507812 422.890625 45.078125 C 422.589844 44.734375 421.40625 43.140625 421.40625 36.511719 C 421.40625 31.949219 422.117188 29.710938 422.589844 28.703125 C 422.933594 27.96875 423.644531 27.324219 424.335938 27.152344 L 424.335938 26.570312 C 423.453125 26.722656 422.503906 27.410156 421.96875 28.164062 C 421.300781 29.152344 420.289062 31.671875 420.289062 36.511719 Z M 420.289062 36.511719 "/>
<path fill-rule="nonzero" fill="rgb(0%, 0%, 0%)" fill-opacity="1" d="M 428.53125 40.460938 C 428.746094 40.871094 429.046875 41.238281 429.390625 41.539062 C 430.015625 42.097656 430.875 42.246094 431.695312 42.246094 C 432.921875 42.246094 434.125 41.839844 434.964844 40.933594 C 435.480469 40.398438 435.738281 39.664062 435.738281 38.910156 C 435.738281 38.371094 435.4375 37.878906 435.050781 37.488281 C 434.75 37.1875 433.953125 36.714844 433.265625 36.414062 C 432.640625 36.15625 431.714844 35.679688 431.457031 35.421875 C 431.132812 35.078125 430.898438 34.820312 430.898438 34.347656 C 430.898438 33.871094 431.046875 33.421875 431.390625 33.097656 C 431.714844 32.773438 432.1875 32.601562 432.660156 32.601562 C 433.09375 32.601562 433.542969 32.753906 433.78125 33.140625 C 433.996094 33.484375 434.039062 33.894531 434.0625 34.28125 L 434.320312 34.433594 L 435.503906 33.636719 C 435.480469 33.164062 435.246094 32.710938 434.898438 32.386719 C 434.40625 31.933594 433.714844 31.847656 433.070312 31.847656 C 432.015625 31.847656 431.003906 32.191406 430.230469 32.902344 C 429.648438 33.421875 429.347656 34.175781 429.347656 34.929688 C 429.347656 35.617188 429.734375 36.21875 430.230469 36.671875 C 430.726562 37.101562 431.371094 37.402344 432.039062 37.683594 C 432.597656 37.921875 433.199219 38.179688 433.609375 38.589844 C 433.933594 38.910156 434.167969 39.339844 434.167969 39.792969 C 434.167969 40.179688 433.976562 40.546875 433.714844 40.828125 C 433.394531 41.171875 432.8125 41.429688 432.339844 41.429688 C 431.695312 41.429688 431.113281 41.152344 430.640625 40.699219 C 430.144531 40.246094 429.929688 39.601562 429.886719 38.953125 L 429.585938 38.933594 Z M 428.53125 40.460938 "/>
<path fill-rule="nonzero" fill="rgb(0%, 0%, 0%)" fill-opacity="1" d="M 440.257812 45.9375 L 440.257812 46.453125 C 441.292969 46.324219 442.257812 45.59375 442.863281 44.796875 C 443.527344 43.871094 444.347656 41.71875 444.347656 36.511719 C 444.347656 31.113281 443.226562 29.152344 442.5625 28.164062 C 442.023438 27.410156 441.140625 26.722656 440.257812 26.570312 L 440.257812 27.152344 C 440.945312 27.34375 441.613281 27.96875 441.957031 28.703125 C 442.433594 29.710938 443.226562 31.519531 443.226562 36.511719 C 443.226562 44.023438 442.109375 44.734375 441.808594 45.078125 C 441.441406 45.507812 440.6875 45.851562 440.257812 45.9375 Z M 440.257812 45.9375 "/>
</svg>
