<?xml version="1.0" encoding="UTF-8"?>
<svg xmlns="http://www.w3.org/2000/svg" xmlns:xlink="http://www.w3.org/1999/xlink" width="324.824593" height="73.451769" viewBox="0 0 324.824593 73.451769">
<path fill-rule="nonzero" fill="rgb(0%, 0%, 0%)" fill-opacity="1" d="M 119.230469 41.730469 C 120.113281 41.730469 120.304688 40.570312 120.304688 39.925781 C 120.304688 39.925781 119.917969 40.246094 118.453125 40.246094 L 113.117188 40.246094 L 113.117188 27.53125 C 113.117188 26.453125 111.308594 26.453125 111.308594 26.453125 L 111.308594 40.65625 C 111.308594 41.730469 113.117188 41.730469 113.117188 41.730469 Z M 119.230469 41.730469 "/>
<path fill-rule="nonzero" fill="rgb(0%, 0%, 0%)" fill-opacity="1" d="M 128.074219 28.148438 C 129.386719 28.15625 129.582031 26.996094 129.582031 26.347656 C 129.582031 26.34375 129.191406 26.664062 127.730469 26.664062 L 119.746094 26.664062 C 118.28125 26.671875 117.894531 26.347656 117.894531 26.347656 C 117.894531 26.988281 118.089844 28.148438 119.402344 28.148438 L 122.800781 28.148438 L 122.800781 40.867188 C 122.800781 41.941406 124.609375 41.941406 124.609375 41.941406 L 124.609375 28.148438 Z M 128.074219 28.148438 "/>
<path fill-rule="nonzero" fill="rgb(0%, 0%, 0%)" fill-opacity="1" d="M 131.34375 40.867188 C 131.34375 41.941406 133.152344 41.941406 133.152344 41.941406 L 133.152344 27.53125 C 133.152344 26.453125 131.34375 26.453125 131.34375 26.453125 Z M 131.34375 40.867188 "/>
<path fill-rule="nonzero" fill="rgb(0%, 0%, 0%)" fill-opacity="1" d="M 142.792969 37.769531 C 142.449219 38.433594 142.296875 39.015625 142.296875 39.488281 C 142.296875 41.554688 145.246094 41.984375 147.808594 41.984375 C 150.96875 41.984375 153.421875 40.457031 153.421875 37.425781 C 153.421875 30.996094 143.867188 34.605469 143.867188 30.542969 C 143.867188 28.648438 145.375 28.003906 147.699219 28.003906 C 150.132812 28.003906 152.410156 28.371094 152.410156 30.628906 C 152.757812 29.941406 152.90625 29.359375 152.90625 28.886719 C 152.90625 26.84375 150.261719 26.414062 147.699219 26.414062 C 144.535156 26.414062 141.976562 27.425781 141.976562 30.734375 C 141.976562 36.519531 151.53125 33.015625 151.53125 37.53125 C 151.53125 39.253906 150.238281 40.390625 147.808594 40.390625 C 145.375 40.390625 142.792969 40.027344 142.792969 37.769531 Z M 142.792969 37.769531 "/>
<path fill-rule="nonzero" fill="rgb(0%, 0%, 0%)" fill-opacity="1" d="M 155.359375 30.824219 L 155.789062 35.023438 C 156.070312 37.796875 157.707031 39.949219 158.847656 40.507812 C 157.296875 41.605469 155.875 42.941406 155.875 44.835938 C 155.875 46.664062 156.996094 46.984375 157.640625 46.984375 C 157.878906 46.984375 158.070312 46.898438 158.113281 46.878906 C 157.769531 46.125 157.621094 45.5 157.621094 44.941406 C 157.621094 43.457031 158.695312 42.554688 160.160156 41.414062 L 161 40.765625 C 162.269531 39.800781 163.882812 37.90625 164.183594 35.023438 L 164.613281 30.824219 C 164.613281 30.824219 162.957031 30.824219 162.828125 31.902344 L 162.398438 35.496094 C 162.097656 38.054688 159.988281 39.605469 159.988281 39.605469 C 159.988281 39.605469 157.878906 38.054688 157.578125 35.496094 L 157.144531 31.902344 C 157.015625 30.824219 155.359375 30.824219 155.359375 30.824219 Z M 155.359375 30.824219 "/>
<path fill-rule="nonzero" fill="rgb(0%, 0%, 0%)" fill-opacity="1" d="M 166.121094 34.074219 C 166.121094 38.585938 173.050781 35.515625 173.050781 38.609375 C 173.050781 39.683594 172.554688 40.476562 170.335938 40.476562 C 168.121094 40.476562 166.765625 39.703125 166.765625 38.199219 C 166.355469 38.84375 166.183594 39.382812 166.183594 39.855469 C 166.183594 41.359375 168.078125 41.984375 170.335938 41.984375 C 173.285156 41.984375 174.769531 40.671875 174.769531 38.714844 C 174.769531 33.730469 167.839844 36.632812 167.839844 34.074219 C 167.839844 32.785156 168.335938 32.226562 170.335938 32.226562 C 172.554688 32.226562 173.695312 33.023438 173.695312 34.503906 C 174.125 33.839844 174.320312 33.257812 174.320312 32.785156 C 174.320312 31.324219 172.554688 30.71875 170.335938 30.71875 C 167.605469 30.71875 166.121094 31.902344 166.121094 34.074219 Z M 166.121094 34.074219 "/>
<path fill-rule="nonzero" fill="rgb(0%, 0%, 0%)" fill-opacity="1" d="M 177.136719 38.519531 C 177.136719 40.695312 178.621094 41.984375 180.925781 41.984375 C 182.667969 41.984375 184.433594 41.253906 184.433594 39.789062 C 184.433594 39.335938 184.261719 38.800781 183.851562 38.195312 C 183.851562 39.660156 182.582031 40.476562 181.097656 40.476562 C 179.398438 40.476562 178.859375 39.464844 178.859375 37.917969 L 178.859375 32.773438 L 182.28125 32.773438 C 183.335938 32.773438 183.355469 31.289062 183.355469 31.289062 L 178.859375 31.289062 L 178.859375 29.503906 C 178.859375 28.429688 177.136719 28.410156 177.136719 28.410156 Z M 177.136719 38.519531 "/>
<path fill-rule="nonzero" fill="rgb(0%, 0%, 0%)" fill-opacity="1" d="M 193.859375 38.203125 C 193.859375 39.707031 192.289062 40.476562 190.414062 40.476562 C 188.414062 40.476562 187.574219 39.707031 187.574219 38.203125 L 187.574219 36.636719 C 188.089844 37 189.210938 37.152344 189.941406 37.152344 C 193.105469 37.152344 194.289062 35.710938 194.289062 33.96875 C 194.289062 32.011719 192.933594 30.71875 190.199219 30.71875 C 187.46875 30.71875 185.851562 32.011719 185.851562 34.183594 L 185.851562 38.523438 C 185.851562 40.695312 187.554688 41.984375 190.285156 41.984375 C 192.394531 41.984375 194.417969 41.210938 194.417969 39.707031 C 194.417969 39.253906 194.246094 38.761719 193.859375 38.203125 M 187.574219 34.503906 C 187.574219 33 188.285156 32.121094 190.199219 32.121094 C 191.964844 32.121094 192.566406 32.871094 192.566406 33.96875 C 192.566406 35.019531 191.855469 35.644531 189.8125 35.644531 C 188.886719 35.644531 187.597656 35.300781 187.574219 35.257812 Z M 187.574219 34.503906 "/>
<path fill-rule="nonzero" fill="rgb(0%, 0%, 0%)" fill-opacity="1" d="M 210.816406 40.804688 C 210.816406 41.859375 212.535156 41.878906 212.535156 41.878906 L 212.535156 34.011719 C 212.535156 31.6875 210.558594 30.71875 208.597656 30.71875 C 206.402344 30.71875 205.242188 31.496094 204.832031 31.882812 C 204.253906 31.085938 202.808594 30.71875 201.605469 30.71875 C 200.378906 30.730469 199.324219 31.222656 198.226562 31.222656 C 197.839844 31.222656 197 30.835938 197 30.835938 L 197 40.804688 C 197 41.878906 198.722656 41.878906 198.722656 41.878906 L 198.722656 32.664062 C 198.722656 32.664062 199.734375 32.171875 201.304688 32.171875 C 203.21875 32.171875 203.90625 32.792969 203.90625 34.277344 L 203.90625 40.804688 C 203.90625 41.878906 205.628906 41.878906 205.628906 41.878906 L 205.628906 33.910156 C 205.628906 32.945312 206.640625 32.171875 208.210938 32.171875 C 209.867188 32.171875 210.816406 32.792969 210.816406 34.277344 Z M 210.816406 40.804688 "/>
<path fill="none" stroke-width="0.5" stroke-linecap="round" stroke-linejoin="round" stroke="rgb(0%, 0%, 0%)" stroke-opacity="1" stroke-miterlimit="4" d="M -44.387398 -16.375642 C -14.460314 -16.360017 14.526665 -16.719392 45.271456 -16.9121 C 45.193331 -5.328767 44.451144 5.772795 44.365206 17.376962 C 15.513644 17.332691 -14.400419 17.405608 -44.314481 17.116545 C -44.403023 5.655608 -45.397814 -5.860017 -44.387398 -16.375642 Z M -44.387398 -16.375642 " transform="matrix(1.5, 0, 0, -1.5, 161.831097, 36.663099)"/>
<path fill="none" stroke-width="0.5" stroke-linecap="round" stroke-linejoin="round" stroke="rgb(0%, 0%, 0%)" stroke-opacity="1" stroke-miterlimit="4" d="M -73.246773 0.080087 C -63.931669 0.16342 -54.736356 -0.284496 -45.017606 0.264983 " transform="matrix(1.5, 0, 0, -1.5, 161.831097, 36.663099)"/>
<path fill="none" stroke-width="0.5" stroke-linecap="round" stroke-linejoin="round" stroke="rgb(0%, 0%, 0%)" stroke-opacity="1" stroke-miterlimit="4" d="M -53.759794 -5.203767 C -51.124377 -2.547517 -48.673856 -0.945955 -44.86396 0.017587 C -48.36396 0.715504 -51.434273 2.910816 -53.291044 5.285816 " transform="matrix(1.5, 0, 0, -1.5, 161.831097, 36.663099)"/>
<path fill="none" stroke-width="0.5" stroke-linecap="round" stroke-linejoin="round" stroke="rgb(0%, 0%, 0%)" stroke-opacity="1" stroke-miterlimit="4" d="M 44.873019 0.0722745 C 54.224581 -0.0475171 63.943331 -0.0683505 72.977186 -0.284496 " transform="matrix(1.5, 0, 0, -1.5, 161.831097, 36.663099)"/>
<path fill="none" stroke-width="0.5" stroke-linecap="round" stroke-linejoin="round" stroke="rgb(0%, 0%, 0%)" stroke-opacity="1" stroke-miterlimit="4" d="M 64.503227 -5.315746 C 66.940727 -2.521475 70.04229 -0.591788 72.922498 -0.156892 C 69.537081 0.603525 66.982394 2.496754 64.672498 5.309254 " transform="matrix(1.5, 0, 0, -1.5, 161.831097, 36.663099)"/>
<path fill="none" stroke-width="0.5" stroke-linecap="round" stroke-linejoin="round" stroke="rgb(0%, 0%, 0%)" stroke-opacity="1" stroke-miterlimit="4" d="M -44.824898 -17.46158 C -15.382189 -16.490225 14.781873 -16.391267 45.331352 -17.333975 C 44.443331 -5.99283 44.492811 6.267587 44.620415 17.124358 C 15.565727 17.405608 -14.517606 16.926441 -44.220731 16.296233 C -44.42646 5.051441 -44.220731 -5.2246 -44.824898 -17.46158 Z M -44.824898 -17.46158 " transform="matrix(1.5, 0, 0, -1.5, 161.831097, 36.663099)"/>
<path fill="none" stroke-width="0.5" stroke-linecap="round" stroke-linejoin="round" stroke="rgb(0%, 0%, 0%)" stroke-opacity="1" stroke-miterlimit="4" d="M -73.350939 0.24415 C -63.900419 0.19467 -54.160835 -0.102205 -45.337919 0.137379 " transform="matrix(1.5, 0, 0, -1.5, 161.831097, 36.663099)"/>
<path fill="none" stroke-width="0.5" stroke-linecap="round" stroke-linejoin="round" stroke="rgb(0%, 0%, 0%)" stroke-opacity="1" stroke-miterlimit="4" d="M -53.369169 -5.495434 C -51.400419 -2.672517 -48.124377 -0.8496 -45.291044 0.168629 C -48.384794 0.486337 -51.650419 2.61915 -53.439481 5.478525 " transform="matrix(1.5, 0, 0, -1.5, 161.831097, 36.663099)"/>
<path fill="none" stroke-width="0.5" stroke-linecap="round" stroke-linejoin="round" stroke="rgb(0%, 0%, 0%)" stroke-opacity="1" stroke-miterlimit="4" d="M 44.964165 -0.237621 C 54.466769 -0.0553296 63.589165 0.278004 73.250623 -0.0527255 " transform="matrix(1.5, 0, 0, -1.5, 161.831097, 36.663099)"/>
<path fill="none" stroke-width="0.5" stroke-linecap="round" stroke-linejoin="round" stroke="rgb(0%, 0%, 0%)" stroke-opacity="1" stroke-miterlimit="4" d="M 64.899061 -5.333975 C 66.797498 -2.815746 70.112602 -0.503246 73.068331 -0.0188713 C 70.044894 0.666025 66.643852 2.585295 64.781873 5.272795 " transform="matrix(1.5, 0, 0, -1.5, 161.831097, 36.663099)"/>
<path fill="none" stroke-width="0.5" stroke-linecap="round" stroke-linejoin="round" stroke="rgb(0%, 0%, 0%)" stroke-opacity="1" stroke-miterlimit="4" d="M -44.202502 -16.328767 C -15.11396 -17.14908 14.300102 -17.294913 44.758436 -17.05533 C 45.375623 -4.977205 44.85479 6.085295 45.146456 17.3379 C 14.818331 16.595712 -14.861356 16.280608 -45.280627 16.86915 C -44.775419 5.314462 -45.272814 -5.2871 -44.202502 -16.328767 Z M -44.202502 -16.328767 " transform="matrix(1.5, 0, 0, -1.5, 161.831097, 36.663099)"/>
<path fill="none" stroke-width="0.5" stroke-linecap="round" stroke-linejoin="round" stroke="rgb(0%, 0%, 0%)" stroke-opacity="1" stroke-miterlimit="4" d="M -73.390002 -0.0344963 C -63.718127 -0.227205 -54.236356 -0.185538 -45.116564 -0.104809 " transform="matrix(1.5, 0, 0, -1.5, 161.831097, 36.663099)"/>
<path fill="none" stroke-width="0.5" stroke-linecap="round" stroke-linejoin="round" stroke="rgb(0%, 0%, 0%)" stroke-opacity="1" stroke-miterlimit="4" d="M -53.629585 -5.607413 C -51.205106 -2.469392 -48.660835 -0.883455 -44.780627 0.298837 C -48.124377 0.822275 -51.585314 2.866545 -53.465523 5.457691 " transform="matrix(1.5, 0, 0, -1.5, 161.831097, 36.663099)"/>
<path fill="none" stroke-width="0.5" stroke-linecap="round" stroke-linejoin="round" stroke="rgb(0%, 0%, 0%)" stroke-opacity="1" stroke-miterlimit="4" d="M 44.60479 0.11915 C 53.984998 -0.164705 63.60479 -0.000642141 73.344373 0.0540454 " transform="matrix(1.5, 0, 0, -1.5, 161.831097, 36.663099)"/>
<path fill="none" stroke-width="0.5" stroke-linecap="round" stroke-linejoin="round" stroke="rgb(0%, 0%, 0%)" stroke-opacity="1" stroke-miterlimit="4" d="M 64.974581 -5.081371 C 66.771456 -2.745434 70.083956 -0.677725 73.453748 -0.276684 C 69.971977 0.645191 66.919894 2.728525 65.005831 5.416025 " transform="matrix(1.5, 0, 0, -1.5, 161.831097, 36.663099)"/>
<path fill="none" stroke-width="0.5" stroke-linecap="round" stroke-linejoin="round" stroke="rgb(0%, 0%, 0%)" stroke-opacity="1" stroke-miterlimit="4" d="M -45.001981 -16.846996 C -14.712919 -17.123038 15.458956 -16.708975 44.250623 -17.039705 C 45.159477 -5.779288 44.500623 5.653004 44.578748 16.832691 C 15.190727 16.666025 -14.77021 16.324879 -45.033231 16.965504 C -44.754585 6.199879 -44.978544 -6.0371 -45.001981 -16.846996 Z M -45.001981 -16.846996 " transform="matrix(1.5, 0, 0, -1.5, 161.831097, 36.663099)"/>
<path fill="none" stroke-width="0.5" stroke-linecap="round" stroke-linejoin="round" stroke="rgb(0%, 0%, 0%)" stroke-opacity="1" stroke-miterlimit="4" d="M -72.903023 -0.229809 C -63.715523 0.0384204 -54.486356 -0.1621 -45.108752 0.0931079 " transform="matrix(1.5, 0, 0, -1.5, 161.831097, 36.663099)"/>
<path fill="none" stroke-width="0.5" stroke-linecap="round" stroke-linejoin="round" stroke="rgb(0%, 0%, 0%)" stroke-opacity="1" stroke-miterlimit="4" d="M -53.465523 -5.08658 C -51.272814 -2.625642 -48.317085 -0.6621 -45.064481 0.186858 C -48.23896 0.692066 -51.218127 2.63217 -53.251981 5.233733 " transform="matrix(1.5, 0, 0, -1.5, 161.831097, 36.663099)"/>
<path fill="none" stroke-width="0.5" stroke-linecap="round" stroke-linejoin="round" stroke="rgb(0%, 0%, 0%)" stroke-opacity="1" stroke-miterlimit="4" d="M 45.008436 -0.185538 C 54.003227 0.0227954 63.547498 -0.248038 73.399061 -0.156892 " transform="matrix(1.5, 0, 0, -1.5, 161.831097, 36.663099)"/>
<path fill="none" stroke-width="0.5" stroke-linecap="round" stroke-linejoin="round" stroke="rgb(0%, 0%, 0%)" stroke-opacity="1" stroke-miterlimit="4" d="M 64.742811 -5.195955 C 66.633436 -2.641267 69.633436 -0.698559 73.141248 0.145191 C 69.807915 0.822275 66.768852 2.49415 64.724581 5.392587 " transform="matrix(1.5, 0, 0, -1.5, 161.831097, 36.663099)"/>
<path fill="none" stroke-width="0.5" stroke-linecap="round" stroke-linejoin="round" stroke="rgb(0%, 0%, 0%)" stroke-opacity="1" stroke-miterlimit="4" d="M -45.158231 -16.669913 C -15.192085 -16.487621 15.195936 -16.865225 44.505831 -17.414705 C 44.287081 -6.02408 45.305311 5.613941 44.72979 16.285816 C 14.404269 17.483733 -14.58271 17.311858 -44.634794 16.88217 C -45.168648 5.78842 -45.36396 -6.185538 -45.158231 -16.669913 Z M -45.158231 -16.669913 " transform="matrix(1.5, 0, 0, -1.5, 161.831097, 36.663099)"/>
<path fill="none" stroke-width="0.5" stroke-linecap="round" stroke-linejoin="round" stroke="rgb(0%, 0%, 0%)" stroke-opacity="1" stroke-miterlimit="4" d="M -73.043648 -0.0475171 C -63.845731 0.017587 -54.17646 0.103525 -44.89521 0.285816 " transform="matrix(1.5, 0, 0, -1.5, 161.831097, 36.663099)"/>
<path fill="none" stroke-width="0.5" stroke-linecap="round" stroke-linejoin="round" stroke="rgb(0%, 0%, 0%)" stroke-opacity="1" stroke-miterlimit="4" d="M -53.358752 -5.365225 C -51.418648 -2.4746 -48.314481 -0.641267 -45.36396 -0.0527255 C -48.387398 0.905608 -51.163439 2.686858 -53.509794 5.173837 " transform="matrix(1.5, 0, 0, -1.5, 161.831097, 36.663099)"/>
<path fill="none" stroke-width="0.5" stroke-linecap="round" stroke-linejoin="round" stroke="rgb(0%, 0%, 0%)" stroke-opacity="1" stroke-miterlimit="4" d="M 44.987602 -0.258455 C 54.352186 0.0306079 63.925102 -0.18033 73.284477 -0.0371005 " transform="matrix(1.5, 0, 0, -1.5, 161.831097, 36.663099)"/>
<path fill="none" stroke-width="0.5" stroke-linecap="round" stroke-linejoin="round" stroke="rgb(0%, 0%, 0%)" stroke-opacity="1" stroke-miterlimit="4" d="M 64.901665 -5.112621 C 66.966769 -2.932934 69.66729 -0.659496 73.409477 -0.2246 C 70.034477 0.99415 66.836561 2.926441 64.849581 5.626962 " transform="matrix(1.5, 0, 0, -1.5, 161.831097, 36.663099)"/>
<path fill-rule="nonzero" fill="rgb(0%, 0%, 0%)" fill-opacity="1" d="M 10.414062 33.476562 L 10.671875 33.84375 C 11.210938 33.542969 11.855469 33.175781 12.351562 33.175781 C 12.589844 33.175781 12.804688 33.285156 12.933594 33.5 C 13.277344 34.035156 13.277344 35.671875 13.277344 36.8125 C 13.253906 38.535156 13.167969 40.40625 13.019531 41.914062 L 13.339844 42.109375 L 14.847656 41.65625 C 14.804688 39.675781 14.804688 37.71875 14.804688 35.714844 C 14.804688 35.414062 14.828125 34.984375 14.933594 34.726562 C 15.191406 34.152344 15.707031 33.398438 16.589844 33.398438 C 17.515625 33.398438 17.667969 34.300781 17.730469 34.644531 L 17.988281 34.753906 L 19.152344 33.699219 C 19.109375 33.226562 19.023438 32 17.453125 32 C 16.699219 32 15.492188 33.117188 15.085938 33.503906 L 14.871094 33.417969 C 14.804688 32.984375 14.632812 31.863281 13.320312 31.863281 C 12.480469 31.863281 10.953125 33.046875 10.414062 33.476562 Z M 10.414062 33.476562 "/>
<path fill-rule="nonzero" fill="rgb(0%, 0%, 0%)" fill-opacity="1" d="M 21.949219 36.667969 C 21.949219 41.875 22.789062 43.984375 23.457031 44.910156 C 24.058594 45.703125 24.960938 46.523438 25.996094 46.609375 L 25.996094 46.09375 C 25.566406 46.007812 24.917969 45.660156 24.554688 45.230469 C 24.25 44.886719 23.066406 43.292969 23.066406 36.667969 C 23.066406 32.105469 23.777344 29.867188 24.25 28.855469 C 24.597656 28.125 25.304688 27.476562 25.996094 27.304688 L 25.996094 26.722656 C 25.113281 26.875 24.164062 27.5625 23.628906 28.316406 C 22.960938 29.308594 21.949219 31.824219 21.949219 36.667969 Z M 21.949219 36.667969 "/>
<path fill-rule="nonzero" fill="rgb(0%, 0%, 0%)" fill-opacity="1" d="M 29.4375 33.320312 L 29.546875 33.429688 L 31.957031 33.429688 L 32.085938 33.578125 L 32.085938 37.671875 C 32.085938 40.578125 32.128906 40.984375 32.578125 41.566406 C 32.96875 42.082031 33.632812 42.234375 34.128906 42.234375 C 34.710938 42.234375 35.25 42.019531 35.765625 41.738281 C 36.453125 41.371094 37.078125 40.878906 37.660156 40.339844 L 37.507812 40.015625 L 37.25 39.972656 C 36.605469 40.382812 35.828125 40.855469 35.292969 40.855469 C 34.925781 40.855469 34.601562 40.75 34.324219 40.425781 C 33.851562 39.910156 33.761719 38.53125 33.761719 37.628906 L 33.761719 33.558594 L 33.894531 33.429688 L 36.453125 33.429688 L 36.582031 33.320312 L 36.753906 32.761719 L 36.648438 32.675781 L 33.894531 32.675781 L 33.761719 32.566406 C 33.785156 31.320312 33.894531 30.222656 34 28.996094 L 33.851562 28.886719 L 32.042969 29.511719 C 32.085938 30.070312 32.085938 31.449219 32.085938 32.546875 L 31.957031 32.675781 L 29.71875 32.675781 L 29.589844 32.804688 Z M 29.4375 33.320312 "/>
<path fill-rule="nonzero" fill="rgb(0%, 0%, 0%)" fill-opacity="1" d="M 41.082031 46.09375 L 41.082031 46.609375 C 42.113281 46.480469 43.082031 45.746094 43.683594 44.953125 C 44.351562 44.027344 45.167969 41.875 45.167969 36.667969 C 45.167969 31.265625 44.050781 29.308594 43.382812 28.316406 C 42.84375 27.5625 41.960938 26.875 41.082031 26.722656 L 41.082031 27.304688 C 41.769531 27.5 42.4375 28.125 42.78125 28.855469 C 43.253906 29.867188 44.050781 31.675781 44.050781 36.667969 C 44.050781 44.175781 42.929688 44.886719 42.628906 45.230469 C 42.261719 45.660156 41.511719 46.007812 41.082031 46.09375 Z M 41.082031 46.09375 "/>
<path fill-rule="nonzero" fill="rgb(0%, 0%, 0%)" fill-opacity="1" d="M 277.148438 37.363281 C 277.148438 38.355469 277.148438 39.34375 277.511719 40.269531 C 277.726562 40.808594 278.050781 41.367188 278.503906 41.753906 C 279.125 42.273438 279.921875 42.445312 280.871094 42.445312 C 282.785156 42.445312 284.355469 41.28125 285.691406 39.96875 L 285.453125 39.582031 L 285.257812 39.539062 C 284.3125 40.355469 283.238281 41.023438 281.96875 41.023438 C 281.320312 41.023438 280.652344 40.851562 280.160156 40.398438 C 279.125 39.515625 278.933594 38.011719 278.933594 36.699219 C 278.933594 35.578125 279.148438 34.4375 279.902344 33.578125 C 280.503906 32.867188 281 32.652344 281.730469 32.652344 C 282.117188 32.652344 282.570312 32.867188 282.847656 33.167969 C 283.214844 33.554688 283.453125 34.136719 283.558594 34.933594 L 283.925781 35.0625 L 285.085938 33.921875 C 285.023438 33.296875 284.742188 32.714844 284.226562 32.304688 C 283.773438 31.941406 283.195312 31.8125 282.589844 31.8125 C 281.128906 31.8125 279.558594 32.304688 278.546875 33.425781 C 277.578125 34.503906 277.148438 35.921875 277.148438 37.363281 Z M 277.148438 37.363281 "/>
<path fill-rule="nonzero" fill="rgb(0%, 0%, 0%)" fill-opacity="1" d="M 288.980469 36.667969 C 288.980469 41.875 289.820312 43.984375 290.488281 44.910156 C 291.089844 45.703125 291.996094 46.523438 293.027344 46.609375 L 293.027344 46.09375 C 292.597656 46.007812 291.953125 45.660156 291.585938 45.230469 C 291.285156 44.886719 290.101562 43.292969 290.101562 36.667969 C 290.101562 32.105469 290.8125 29.867188 291.285156 28.855469 C 291.628906 28.125 292.339844 27.476562 293.027344 27.304688 L 293.027344 26.722656 C 292.144531 26.875 291.199219 27.5625 290.660156 28.316406 C 289.992188 29.308594 288.980469 31.824219 288.980469 36.667969 Z M 288.980469 36.667969 "/>
<path fill-rule="nonzero" fill="rgb(0%, 0%, 0%)" fill-opacity="1" d="M 296.472656 33.320312 L 296.578125 33.429688 L 298.988281 33.429688 L 299.117188 33.578125 L 299.117188 37.671875 C 299.117188 40.578125 299.160156 40.984375 299.613281 41.566406 C 300 42.082031 300.667969 42.234375 301.164062 42.234375 C 301.742188 42.234375 302.28125 42.019531 302.796875 41.738281 C 303.488281 41.371094 304.109375 40.878906 304.691406 40.339844 L 304.542969 40.015625 L 304.28125 39.972656 C 303.636719 40.382812 302.863281 40.855469 302.324219 40.855469 C 301.957031 40.855469 301.636719 40.75 301.355469 40.425781 C 300.882812 39.910156 300.796875 38.53125 300.796875 37.628906 L 300.796875 33.558594 L 300.925781 33.429688 L 303.488281 33.429688 L 303.617188 33.320312 L 303.789062 32.761719 L 303.679688 32.675781 L 300.925781 32.675781 L 300.796875 32.566406 C 300.816406 31.320312 300.925781 30.222656 301.03125 28.996094 L 300.882812 28.886719 L 299.074219 29.511719 C 299.117188 30.070312 299.117188 31.449219 299.117188 32.546875 L 298.988281 32.675781 L 296.75 32.675781 L 296.621094 32.804688 Z M 296.472656 33.320312 "/>
<path fill-rule="nonzero" fill="rgb(0%, 0%, 0%)" fill-opacity="1" d="M 308.113281 46.09375 L 308.113281 46.609375 C 309.144531 46.480469 310.113281 45.746094 310.71875 44.953125 C 311.382812 44.027344 312.203125 41.875 312.203125 36.667969 C 312.203125 31.265625 311.082031 29.308594 310.414062 28.316406 C 309.878906 27.5625 308.996094 26.875 308.113281 26.722656 L 308.113281 27.304688 C 308.800781 27.5 309.46875 28.125 309.8125 28.855469 C 310.285156 29.867188 311.082031 31.675781 311.082031 36.667969 C 311.082031 44.175781 309.964844 44.886719 309.664062 45.230469 C 309.296875 45.660156 308.542969 46.007812 308.113281 46.09375 Z M 308.113281 46.09375 "/>
</svg>
