<?xml version="1.0" encoding="UTF-8"?>
<svg xmlns="http://www.w3.org/2000/svg" xmlns:xlink="http://www.w3.org/1999/xlink" width="456.971375" height="72.871531" viewBox="0 0 456.971375 72.871531">
<path fill-rule="nonzero" fill="rgb(0%, 0%, 0%)" fill-opacity="1" d="M 116.175781 34.78125 C 116.175781 36.828125 116.710938 38.9375 118.175781 40.402344 C 119.339844 41.566406 120.953125 42.125 122.585938 42.125 C 124.160156 42.125 126.484375 41.542969 128.375 41.046875 C 128.375 41.046875 128.3125 37.105469 128.269531 35.148438 L 122.328125 35.382812 L 122.328125 35.945312 L 122.457031 36.050781 C 123.621094 36.09375 124.996094 36.179688 125.945312 36.246094 C 126.546875 36.289062 126.546875 36.976562 126.546875 38.871094 C 126.546875 40.445312 126.484375 40.703125 126.117188 40.789062 C 125.449219 40.941406 124.78125 41.003906 124.09375 41.003906 C 122.414062 41.003906 120.824219 40.46875 119.875 39.347656 C 118.628906 37.882812 118.113281 36.332031 118.113281 34.4375 C 118.113281 31.363281 119.230469 29.601562 119.855469 28.980469 C 120.78125 28.074219 122.050781 27.773438 123.320312 27.773438 C 126.136719 27.773438 127 29.796875 127.277344 30.355469 L 127.539062 30.375 L 128.785156 29.152344 C 128.546875 28.785156 127.40625 26.71875 124.289062 26.71875 C 122.027344 26.71875 119.769531 27.386719 118.15625 29 C 116.648438 30.503906 116.175781 32.675781 116.175781 34.78125 Z M 116.175781 34.78125 "/>
<path fill-rule="nonzero" fill="rgb(0%, 0%, 0%)" fill-opacity="1" d="M 132.925781 36.003906 L 134.46875 36.003906 C 134.929688 36.003906 135.308594 36.347656 135.324219 36.757812 C 135.339844 37.171875 135.339844 38.371094 135.339844 39.175781 C 135.339844 41.480469 135.273438 43.78125 135.191406 46.066406 L 135.40625 46.148438 L 136.96875 45.703125 C 136.917969 44.453125 136.917969 41.199219 136.917969 38.960938 C 136.917969 37.5 136.953125 36.019531 137.050781 34.554688 L 136.9375 34.359375 L 132.925781 35.558594 Z M 132.925781 36.003906 "/>
<path fill-rule="nonzero" fill="rgb(0%, 0%, 0%)" fill-opacity="1" d="M 143.378906 36.390625 C 143.378906 41.597656 144.21875 43.707031 144.886719 44.632812 C 145.488281 45.425781 146.390625 46.246094 147.425781 46.332031 L 147.425781 45.816406 C 146.996094 45.730469 146.347656 45.382812 145.984375 44.953125 C 145.683594 44.609375 144.5 43.015625 144.5 36.390625 C 144.5 31.828125 145.207031 29.589844 145.683594 28.578125 C 146.027344 27.847656 146.738281 27.199219 147.425781 27.027344 L 147.425781 26.445312 C 146.542969 26.597656 145.597656 27.285156 145.058594 28.039062 C 144.390625 29.03125 143.378906 31.546875 143.378906 36.390625 Z M 143.378906 36.390625 "/>
<path fill-rule="nonzero" fill="rgb(0%, 0%, 0%)" fill-opacity="1" d="M 151.621094 40.335938 C 151.835938 40.746094 152.136719 41.113281 152.480469 41.414062 C 153.105469 41.972656 153.96875 42.125 154.785156 42.125 C 156.011719 42.125 157.214844 41.714844 158.054688 40.8125 C 158.574219 40.273438 158.832031 39.542969 158.832031 38.789062 C 158.832031 38.25 158.527344 37.753906 158.140625 37.367188 C 157.839844 37.066406 157.042969 36.589844 156.355469 36.289062 C 155.730469 36.03125 154.804688 35.558594 154.546875 35.300781 C 154.226562 34.953125 153.988281 34.695312 153.988281 34.222656 C 153.988281 33.75 154.140625 33.296875 154.484375 32.972656 C 154.804688 32.652344 155.28125 32.476562 155.753906 32.476562 C 156.183594 32.476562 156.636719 32.628906 156.871094 33.015625 C 157.085938 33.363281 157.128906 33.769531 157.152344 34.15625 L 157.410156 34.308594 L 158.59375 33.511719 C 158.574219 33.039062 158.335938 32.585938 157.992188 32.261719 C 157.496094 31.8125 156.808594 31.726562 156.164062 31.726562 C 155.109375 31.726562 154.097656 32.070312 153.320312 32.78125 C 152.742188 33.296875 152.4375 34.050781 152.4375 34.804688 C 152.4375 35.492188 152.828125 36.097656 153.320312 36.546875 C 153.816406 36.980469 154.460938 37.28125 155.128906 37.558594 C 155.6875 37.796875 156.292969 38.054688 156.699219 38.464844 C 157.023438 38.789062 157.257812 39.21875 157.257812 39.671875 C 157.257812 40.058594 157.066406 40.425781 156.808594 40.703125 C 156.484375 41.046875 155.902344 41.308594 155.429688 41.308594 C 154.785156 41.308594 154.203125 41.027344 153.730469 40.574219 C 153.234375 40.121094 153.019531 39.476562 152.976562 38.832031 L 152.675781 38.808594 Z M 151.621094 40.335938 "/>
<path fill-rule="nonzero" fill="rgb(0%, 0%, 0%)" fill-opacity="1" d="M 163.351562 45.816406 L 163.351562 46.332031 C 164.382812 46.203125 165.351562 45.46875 165.953125 44.675781 C 166.621094 43.75 167.4375 41.597656 167.4375 36.390625 C 167.4375 30.988281 166.320312 29.03125 165.652344 28.039062 C 165.113281 27.285156 164.230469 26.597656 163.351562 26.445312 L 163.351562 27.027344 C 164.039062 27.222656 164.707031 27.847656 165.050781 28.578125 C 165.523438 29.589844 166.320312 31.398438 166.320312 36.390625 C 166.320312 43.898438 165.199219 44.609375 164.898438 44.953125 C 164.53125 45.382812 163.78125 45.730469 163.351562 45.816406 Z M 163.351562 45.816406 "/>
<path fill-rule="nonzero" fill="rgb(0%, 0%, 0%)" fill-opacity="1" d="M 286.8125 34.78125 C 286.8125 36.828125 287.347656 38.9375 288.8125 40.402344 C 289.976562 41.566406 291.589844 42.125 293.222656 42.125 C 294.796875 42.125 297.121094 41.542969 299.011719 41.046875 C 299.011719 41.046875 298.949219 37.105469 298.90625 35.148438 L 292.964844 35.382812 L 292.964844 35.945312 L 293.09375 36.050781 C 294.257812 36.09375 295.632812 36.179688 296.582031 36.246094 C 297.183594 36.289062 297.183594 36.976562 297.183594 38.871094 C 297.183594 40.445312 297.121094 40.703125 296.753906 40.789062 C 296.085938 40.941406 295.417969 41.003906 294.730469 41.003906 C 293.050781 41.003906 291.460938 40.46875 290.511719 39.347656 C 289.265625 37.882812 288.746094 36.332031 288.746094 34.4375 C 288.746094 31.363281 289.867188 29.601562 290.492188 28.980469 C 291.417969 28.074219 292.6875 27.773438 293.957031 27.773438 C 296.773438 27.773438 297.636719 29.796875 297.914062 30.355469 L 298.171875 30.375 L 299.421875 29.152344 C 299.183594 28.785156 298.042969 26.71875 294.925781 26.71875 C 292.664062 26.71875 290.40625 27.386719 288.789062 29 C 287.285156 30.503906 286.8125 32.675781 286.8125 34.78125 Z M 286.8125 34.78125 "/>
<path fill-rule="nonzero" fill="rgb(0%, 0%, 0%)" fill-opacity="1" d="M 302.082031 45.96875 L 310.1875 45.96875 L 310.613281 44.6875 L 310.53125 44.554688 L 304.792969 44.554688 C 304.695312 44.554688 304.597656 44.539062 304.5625 44.472656 C 304.546875 44.441406 304.5625 44.390625 304.578125 44.375 C 305.515625 43.421875 306.40625 42.46875 307.242188 41.480469 C 307.835938 40.792969 308.410156 40.101562 308.871094 39.34375 C 309.363281 38.589844 309.757812 37.785156 309.757812 36.910156 C 309.757812 36.238281 309.542969 35.5625 308.984375 35.085938 C 308.441406 34.609375 307.71875 34.363281 306.964844 34.363281 C 306.257812 34.363281 305.582031 34.542969 304.976562 34.839844 C 304.234375 35.1875 303.59375 35.679688 303.035156 36.222656 L 303.398438 36.535156 C 303.839844 36.207031 304.269531 35.957031 304.792969 35.710938 C 305.140625 35.546875 305.550781 35.480469 305.960938 35.480469 C 306.503906 35.480469 307.046875 35.664062 307.441406 36.023438 C 307.933594 36.5 308.046875 37.175781 308.046875 37.652344 C 308.046875 38.71875 307.621094 39.722656 306.980469 40.644531 C 306.453125 41.398438 305.8125 42.089844 305.15625 42.765625 C 304.167969 43.785156 303.132812 44.753906 302.082031 45.707031 Z M 302.082031 45.96875 "/>
<path fill-rule="nonzero" fill="rgb(0%, 0%, 0%)" fill-opacity="1" d="M 314.015625 36.390625 C 314.015625 41.597656 314.855469 43.707031 315.523438 44.632812 C 316.125 45.425781 317.027344 46.246094 318.0625 46.332031 L 318.0625 45.816406 C 317.632812 45.730469 316.984375 45.382812 316.621094 44.953125 C 316.320312 44.609375 315.136719 43.015625 315.136719 36.390625 C 315.136719 31.828125 315.84375 29.589844 316.320312 28.578125 C 316.664062 27.847656 317.375 27.199219 318.0625 27.027344 L 318.0625 26.445312 C 317.179688 26.597656 316.230469 27.285156 315.695312 28.039062 C 315.027344 29.03125 314.015625 31.546875 314.015625 36.390625 Z M 314.015625 36.390625 "/>
<path fill-rule="nonzero" fill="rgb(0%, 0%, 0%)" fill-opacity="1" d="M 322.257812 40.335938 C 322.472656 40.746094 322.773438 41.113281 323.117188 41.414062 C 323.742188 41.972656 324.605469 42.125 325.421875 42.125 C 326.648438 42.125 327.851562 41.714844 328.691406 40.8125 C 329.207031 40.273438 329.46875 39.542969 329.46875 38.789062 C 329.46875 38.25 329.164062 37.753906 328.777344 37.367188 C 328.476562 37.066406 327.679688 36.589844 326.992188 36.289062 C 326.367188 36.03125 325.441406 35.558594 325.183594 35.300781 C 324.863281 34.953125 324.625 34.695312 324.625 34.222656 C 324.625 33.75 324.777344 33.296875 325.121094 32.972656 C 325.441406 32.652344 325.917969 32.476562 326.390625 32.476562 C 326.820312 32.476562 327.273438 32.628906 327.507812 33.015625 C 327.722656 33.363281 327.765625 33.769531 327.789062 34.15625 L 328.046875 34.308594 L 329.230469 33.511719 C 329.207031 33.039062 328.972656 32.585938 328.628906 32.261719 C 328.132812 31.8125 327.445312 31.726562 326.796875 31.726562 C 325.742188 31.726562 324.734375 32.070312 323.957031 32.78125 C 323.375 33.296875 323.074219 34.050781 323.074219 34.804688 C 323.074219 35.492188 323.460938 36.097656 323.957031 36.546875 C 324.453125 36.980469 325.097656 37.28125 325.765625 37.558594 C 326.324219 37.796875 326.925781 38.054688 327.335938 38.464844 C 327.660156 38.789062 327.894531 39.21875 327.894531 39.671875 C 327.894531 40.058594 327.703125 40.425781 327.445312 40.703125 C 327.121094 41.046875 326.539062 41.308594 326.066406 41.308594 C 325.421875 41.308594 324.839844 41.027344 324.367188 40.574219 C 323.871094 40.121094 323.65625 39.476562 323.613281 38.832031 L 323.3125 38.808594 Z M 322.257812 40.335938 "/>
<path fill-rule="nonzero" fill="rgb(0%, 0%, 0%)" fill-opacity="1" d="M 333.984375 45.816406 L 333.984375 46.332031 C 335.019531 46.203125 335.988281 45.46875 336.589844 44.675781 C 337.257812 43.75 338.074219 41.597656 338.074219 36.390625 C 338.074219 30.988281 336.957031 29.03125 336.289062 28.039062 C 335.75 27.285156 334.867188 26.597656 333.984375 26.445312 L 333.984375 27.027344 C 334.675781 27.222656 335.339844 27.847656 335.6875 28.578125 C 336.160156 29.589844 336.957031 31.398438 336.957031 36.390625 C 336.957031 43.898438 335.835938 44.609375 335.535156 44.953125 C 335.167969 45.382812 334.417969 45.730469 333.984375 45.816406 Z M 333.984375 45.816406 "/>
<path fill="none" stroke-width="0.5" stroke-linecap="round" stroke-linejoin="round" stroke="rgb(0%, 0%, 0%)" stroke-opacity="1" stroke-miterlimit="4" d="M -18.280169 -16.846924 C -18.702044 -17.047445 -17.894753 -17.206299 -18.629128 -16.836508 C -6.662982 -16.154216 5.680768 -16.005779 18.040143 -16.456299 C 28.740664 -16.828695 28.412539 -17.240154 28.928164 -6.75057 C 28.649518 -1.654216 28.795352 2.223388 28.558372 6.306721 C 28.389102 16.158284 29.165143 16.694742 18.889102 17.163492 C 6.05056 16.897867 -5.54319 17.046305 -18.488503 17.127034 C -28.311419 17.160888 -28.064023 16.598388 -28.176003 6.908284 C -27.907773 2.449951 -28.806211 -1.930258 -28.030169 -6.576091 C -28.009336 -16.659424 -29.077044 -16.385987 -18.280169 -16.846924 Z M -18.280169 -16.846924 " transform="matrix(1.5, 0, 0, -1.5, 142.037441, 36.385863)"/>
<path fill="none" stroke-width="0.5" stroke-linecap="round" stroke-linejoin="round" stroke="rgb(0%, 0%, 0%)" stroke-opacity="1" stroke-miterlimit="4" d="M 94.58181 -16.068279 C 95.258893 -17.09432 95.743268 -16.909424 95.48806 -16.234945 C 107.501081 -17.182862 119.576602 -16.445883 132.719831 -17.115154 C 142.55056 -16.734945 142.251081 -17.146404 142.482852 -6.003174 C 141.740664 -2.190674 141.975039 2.244221 141.891706 6.254638 C 142.196393 16.387451 141.823997 16.46818 132.58181 16.712971 C 119.618268 16.337971 107.214622 16.949951 95.350039 16.457763 C 85.816185 16.353596 85.503685 16.603596 85.842227 7.077555 C 85.089622 2.455159 85.133893 -2.544841 85.316185 -6.201091 C 85.222435 -16.484945 84.756289 -16.990154 94.58181 -16.068279 Z M 94.58181 -16.068279 " transform="matrix(1.5, 0, 0, -1.5, 142.037441, 36.385863)"/>
<path fill="none" stroke-width="0.5" stroke-linecap="round" stroke-linejoin="round" stroke="rgb(0%, 0%, 0%)" stroke-opacity="1" stroke-miterlimit="4" d="M -56.777565 -0.0995286 C -47.774961 -0.0161953 -37.897357 0.24943 -28.642148 0.252034 " transform="matrix(1.5, 0, 0, -1.5, 142.037441, 36.385863)"/>
<path fill="none" stroke-width="0.5" stroke-linecap="round" stroke-linejoin="round" stroke="rgb(0%, 0%, 0%)" stroke-opacity="1" stroke-miterlimit="4" d="M -37.022357 -5.399008 C -35.116107 -2.922445 -31.967669 -0.849529 -28.691628 0.111409 C -32.001523 0.983805 -35.110898 2.699951 -37.173398 5.21818 " transform="matrix(1.5, 0, 0, -1.5, 142.037441, 36.385863)"/>
<path fill="none" stroke-width="0.5" stroke-linecap="round" stroke-linejoin="round" stroke="rgb(0%, 0%, 0%)" stroke-opacity="1" stroke-miterlimit="4" d="M 28.787539 -0.28182 C 47.402122 -0.0318203 65.928164 -0.073487 84.76931 0.00463804 " transform="matrix(1.5, 0, 0, -1.5, 142.037441, 36.385863)"/>
<path fill="none" stroke-width="0.5" stroke-linecap="round" stroke-linejoin="round" stroke="rgb(0%, 0%, 0%)" stroke-opacity="1" stroke-miterlimit="4" d="M 76.646914 -5.362549 C 78.430768 -2.760987 81.756289 -0.789633 84.920352 0.134846 C 81.865664 0.989013 78.428164 2.723388 76.412539 5.489013 " transform="matrix(1.5, 0, 0, -1.5, 142.037441, 36.385863)"/>
<path fill="none" stroke-width="0.5" stroke-linecap="round" stroke-linejoin="round" stroke="rgb(0%, 0%, 0%)" stroke-opacity="1" stroke-miterlimit="4" d="M 142.219831 0.28068 C 151.784935 0.111409 161.305768 0.0801589 170.839622 0.0541172 " transform="matrix(1.5, 0, 0, -1.5, 142.037441, 36.385863)"/>
<path fill="none" stroke-width="0.5" stroke-linecap="round" stroke-linejoin="round" stroke="rgb(0%, 0%, 0%)" stroke-opacity="1" stroke-miterlimit="4" d="M 162.36306 -5.274008 C 164.495872 -2.466716 167.443789 -1.00057 170.712018 -0.289633 C 167.428164 0.720784 164.20681 2.647867 162.310977 5.56193 " transform="matrix(1.5, 0, 0, -1.5, 142.037441, 36.385863)"/>
<path fill="none" stroke-width="0.5" stroke-linecap="round" stroke-linejoin="round" stroke="rgb(0%, 0%, 0%)" stroke-opacity="1" stroke-miterlimit="4" d="M -18.600482 -16.836508 C -17.972878 -16.167237 -18.873919 -16.224529 -17.889544 -16.664633 C -6.295794 -16.870362 6.782331 -16.888591 18.696393 -17.154216 C 27.917747 -16.318279 28.024518 -16.870362 28.321393 -6.258383 C 28.797956 -2.385987 28.534935 2.757242 28.441185 6.267659 C 28.787539 15.99943 28.198997 16.822346 18.704206 15.996826 C 6.084414 16.535888 -5.754128 16.658284 -18.48069 16.361409 C -28.493711 17.233805 -28.058815 16.642659 -29.035378 6.491617 C -27.957253 2.731201 -28.446836 -2.807862 -28.597878 -7.078695 C -28.009336 -16.90682 -28.235898 -16.831299 -18.600482 -16.836508 Z M -18.600482 -16.836508 " transform="matrix(1.5, 0, 0, -1.5, 142.037441, 36.385863)"/>
<path fill="none" stroke-width="0.5" stroke-linecap="round" stroke-linejoin="round" stroke="rgb(0%, 0%, 0%)" stroke-opacity="1" stroke-miterlimit="4" d="M 95.693789 -16.323487 C 94.959414 -17.052654 94.61306 -16.133383 95.501081 -16.727133 C 107.303164 -16.53182 120.547956 -17.128174 132.605247 -16.570883 C 141.954206 -16.510987 141.784935 -16.050049 142.196393 -6.149008 C 142.39431 -2.104737 141.842227 1.962971 141.774518 6.288492 C 141.857852 16.53068 142.472435 16.225992 132.087018 16.064534 C 119.42556 16.189534 107.735456 16.319742 95.829206 15.989013 C 84.667747 17.090576 85.587018 16.707763 84.964622 6.809326 C 85.274518 1.809326 85.165143 -2.836508 85.579206 -6.471924 C 85.498477 -16.40682 85.225039 -16.422445 95.693789 -16.323487 Z M 95.693789 -16.323487 " transform="matrix(1.5, 0, 0, -1.5, 142.037441, 36.385863)"/>
<path fill="none" stroke-width="0.5" stroke-linecap="round" stroke-linejoin="round" stroke="rgb(0%, 0%, 0%)" stroke-opacity="1" stroke-miterlimit="4" d="M -57.053607 0.0723464 C -47.478086 0.215576 -38.079648 -0.203695 -28.868711 0.0254714 " transform="matrix(1.5, 0, 0, -1.5, 142.037441, 36.385863)"/>
<path fill="none" stroke-width="0.5" stroke-linecap="round" stroke-linejoin="round" stroke="rgb(0%, 0%, 0%)" stroke-opacity="1" stroke-miterlimit="4" d="M -37.217669 -5.612549 C -34.889544 -2.372966 -32.082253 -0.698487 -28.696836 -0.182862 C -31.946836 0.728596 -35.225482 2.431721 -36.936419 5.666096 " transform="matrix(1.5, 0, 0, -1.5, 142.037441, 36.385863)"/>
<path fill="none" stroke-width="0.5" stroke-linecap="round" stroke-linejoin="round" stroke="rgb(0%, 0%, 0%)" stroke-opacity="1" stroke-miterlimit="4" d="M 28.326602 0.140055 C 47.600039 0.00203387 66.316185 0.12443 84.823997 -0.057862 " transform="matrix(1.5, 0, 0, -1.5, 142.037441, 36.385863)"/>
<path fill="none" stroke-width="0.5" stroke-linecap="round" stroke-linejoin="round" stroke="rgb(0%, 0%, 0%)" stroke-opacity="1" stroke-miterlimit="4" d="M 76.646914 -5.164633 C 78.83181 -2.510987 81.860456 -0.565674 85.045352 -0.089112 C 81.917747 0.783284 78.381289 2.87443 76.404727 5.637451 " transform="matrix(1.5, 0, 0, -1.5, 142.037441, 36.385863)"/>
<path fill="none" stroke-width="0.5" stroke-linecap="round" stroke-linejoin="round" stroke="rgb(0%, 0%, 0%)" stroke-opacity="1" stroke-miterlimit="4" d="M 141.998477 -0.172445 C 151.946393 0.0853672 161.376081 -0.0474453 170.688581 0.150471 " transform="matrix(1.5, 0, 0, -1.5, 142.037441, 36.385863)"/>
<path fill="none" stroke-width="0.5" stroke-linecap="round" stroke-linejoin="round" stroke="rgb(0%, 0%, 0%)" stroke-opacity="1" stroke-miterlimit="4" d="M 162.20681 -5.409424 C 164.587018 -2.432862 167.506289 -0.841716 170.480247 -0.201091 C 167.08181 0.90568 164.605247 2.949951 162.451602 5.181721 " transform="matrix(1.5, 0, 0, -1.5, 142.037441, 36.385863)"/>
<path fill="none" stroke-width="0.5" stroke-linecap="round" stroke-linejoin="round" stroke="rgb(0%, 0%, 0%)" stroke-opacity="1" stroke-miterlimit="4" d="M -19.13694 -16.008383 C -18.241107 -16.974529 -18.035378 -16.885987 -19.157773 -17.177654 C -6.027565 -15.995362 5.688581 -17.065674 18.855247 -16.367758 C 28.969831 -16.227133 28.756289 -15.992758 28.982852 -6.510987 C 27.948997 -2.849529 28.05056 1.765055 28.344831 6.62443 C 28.58181 16.108805 28.881289 16.116617 18.896914 17.192138 C 6.782331 16.684326 -6.433815 16.340576 -18.082253 17.004638 C -27.915586 16.111409 -28.079648 16.502034 -28.436419 7.048909 C -28.165586 1.87443 -28.868711 -2.497966 -28.652565 -6.951091 C -28.582253 -16.729737 -28.420794 -16.716716 -19.13694 -16.008383 Z M -19.13694 -16.008383 " transform="matrix(1.5, 0, 0, -1.5, 142.037441, 36.385863)"/>
<path fill="none" stroke-width="0.5" stroke-linecap="round" stroke-linejoin="round" stroke="rgb(0%, 0%, 0%)" stroke-opacity="1" stroke-miterlimit="4" d="M 95.764102 -16.958904 C 95.201602 -16.359945 94.777122 -16.044841 94.704206 -16.307862 C 106.980247 -16.128174 120.310977 -16.34432 132.295352 -17.047445 C 141.95681 -16.323487 142.370872 -16.740154 141.990664 -6.333904 C 141.76931 -1.904216 142.073997 1.949951 142.902122 6.960367 C 142.823997 17.252034 142.823997 17.095784 132.618268 16.15568 C 119.607852 16.741617 107.967227 17.189534 94.688581 16.064534 C 85.76931 17.160888 84.592227 16.309326 85.633893 6.429117 C 85.545352 2.012451 85.323997 -1.599529 85.435977 -7.016195 C 85.17556 -17.068279 85.475039 -16.102133 95.764102 -16.958904 Z M 95.764102 -16.958904 " transform="matrix(1.5, 0, 0, -1.5, 142.037441, 36.385863)"/>
<path fill="none" stroke-width="0.5" stroke-linecap="round" stroke-linejoin="round" stroke="rgb(0%, 0%, 0%)" stroke-opacity="1" stroke-miterlimit="4" d="M -56.821836 0.288492 C -47.251523 -0.253174 -38.407773 -0.276612 -28.584857 0.18693 " transform="matrix(1.5, 0, 0, -1.5, 142.037441, 36.385863)"/>
<path fill="none" stroke-width="0.5" stroke-linecap="round" stroke-linejoin="round" stroke="rgb(0%, 0%, 0%)" stroke-opacity="1" stroke-miterlimit="4" d="M -36.962461 -5.089112 C -35.084857 -2.714112 -31.952044 -0.831299 -29.009336 0.0957839 C -32.129128 0.684326 -35.228086 2.475992 -37.347878 5.147867 " transform="matrix(1.5, 0, 0, -1.5, 142.037441, 36.385863)"/>
<path fill="none" stroke-width="0.5" stroke-linecap="round" stroke-linejoin="round" stroke="rgb(0%, 0%, 0%)" stroke-opacity="1" stroke-miterlimit="4" d="M 28.430768 0.0280755 C 47.245872 -0.151612 66.045352 -0.0630703 84.725039 0.298909 " transform="matrix(1.5, 0, 0, -1.5, 142.037441, 36.385863)"/>
<path fill="none" stroke-width="0.5" stroke-linecap="round" stroke-linejoin="round" stroke="rgb(0%, 0%, 0%)" stroke-opacity="1" stroke-miterlimit="4" d="M 76.334414 -5.466716 C 78.639102 -2.391195 81.633893 -0.805258 85.076602 -0.216716 C 81.740664 0.814534 78.537539 2.580159 76.566185 5.502034 " transform="matrix(1.5, 0, 0, -1.5, 142.037441, 36.385863)"/>
<path fill="none" stroke-width="0.5" stroke-linecap="round" stroke-linejoin="round" stroke="rgb(0%, 0%, 0%)" stroke-opacity="1" stroke-miterlimit="4" d="M 142.532331 -0.154216 C 151.670352 0.0853672 161.258893 0.108805 170.55056 0.121826 " transform="matrix(1.5, 0, 0, -1.5, 142.037441, 36.385863)"/>
<path fill="none" stroke-width="0.5" stroke-linecap="round" stroke-linejoin="round" stroke="rgb(0%, 0%, 0%)" stroke-opacity="1" stroke-miterlimit="4" d="M 162.027122 -5.385987 C 164.573997 -2.643799 167.146914 -0.635987 170.339622 0.246826 C 167.292747 0.801513 164.48806 2.679117 162.266706 5.134846 " transform="matrix(1.5, 0, 0, -1.5, 142.037441, 36.385863)"/>
<path fill="none" stroke-width="0.5" stroke-linecap="round" stroke-linejoin="round" stroke="rgb(0%, 0%, 0%)" stroke-opacity="1" stroke-miterlimit="4" d="M -18.022357 -16.109945 C -19.152565 -17.143799 -19.170794 -16.349529 -19.095273 -16.797445 C -5.834857 -16.138591 6.409935 -16.641195 18.034935 -16.151612 C 28.45681 -16.09432 28.183372 -16.862549 28.508893 -7.206299 C 28.732852 -2.568279 28.67556 1.705159 29.045352 6.913492 C 28.89431 16.37443 28.404727 17.080159 18.954206 16.168701 C 6.451602 16.923909 -5.616107 16.408284 -18.764544 16.866617 C -28.629128 17.142659 -28.433815 16.496826 -28.097878 6.392659 C -28.621315 2.119221 -28.673398 -1.862549 -28.41819 -6.443279 C -29.181211 -16.120362 -28.707253 -16.630779 -18.022357 -16.109945 Z M -18.022357 -16.109945 " transform="matrix(1.5, 0, 0, -1.5, 142.037441, 36.385863)"/>
<path fill="none" stroke-width="0.5" stroke-linecap="round" stroke-linejoin="round" stroke="rgb(0%, 0%, 0%)" stroke-opacity="1" stroke-miterlimit="4" d="M 95.42556 -16.878174 C 95.587018 -16.831299 95.443789 -16.547445 95.501081 -16.760987 C 107.86306 -17.060466 119.48806 -17.083904 132.860456 -17.141195 C 142.23806 -16.419841 142.834414 -16.112549 142.774518 -7.141195 C 141.860456 -2.146404 141.654727 2.759846 142.029727 6.569742 C 142.51931 16.861409 142.066185 16.166096 131.847435 16.684326 C 120.123477 16.426513 107.034935 16.356201 95.178164 16.465576 C 84.579206 16.390055 84.964622 16.15568 85.823997 6.504638 C 84.954206 2.140055 85.777122 -1.787029 84.639102 -6.440674 C 84.891706 -15.992758 84.667747 -17.164633 95.42556 -16.878174 Z M 95.42556 -16.878174 " transform="matrix(1.5, 0, 0, -1.5, 142.037441, 36.385863)"/>
<path fill="none" stroke-width="0.5" stroke-linecap="round" stroke-linejoin="round" stroke="rgb(0%, 0%, 0%)" stroke-opacity="1" stroke-miterlimit="4" d="M -56.722878 0.0957839 C -47.759336 0.0463047 -37.912982 -0.102133 -28.837461 -0.193279 " transform="matrix(1.5, 0, 0, -1.5, 142.037441, 36.385863)"/>
<path fill="none" stroke-width="0.5" stroke-linecap="round" stroke-linejoin="round" stroke="rgb(0%, 0%, 0%)" stroke-opacity="1" stroke-miterlimit="4" d="M -37.308815 -5.211508 C -35.340065 -2.552654 -31.840065 -0.664633 -28.988503 0.0931797 C -31.847878 0.491617 -34.879128 2.962971 -37.436419 5.455159 " transform="matrix(1.5, 0, 0, -1.5, 142.037441, 36.385863)"/>
<path fill="none" stroke-width="0.5" stroke-linecap="round" stroke-linejoin="round" stroke="rgb(0%, 0%, 0%)" stroke-opacity="1" stroke-miterlimit="4" d="M 28.310977 0.205159 C 47.467227 0.134846 66.454206 -0.208904 85.141706 0.272867 " transform="matrix(1.5, 0, 0, -1.5, 142.037441, 36.385863)"/>
<path fill="none" stroke-width="0.5" stroke-linecap="round" stroke-linejoin="round" stroke="rgb(0%, 0%, 0%)" stroke-opacity="1" stroke-miterlimit="4" d="M 76.771914 -5.331299 C 78.821393 -2.729737 81.553164 -0.727133 85.165143 0.228596 C 81.360456 0.614013 78.383893 2.637451 76.415143 5.179117 " transform="matrix(1.5, 0, 0, -1.5, 142.037441, 36.385863)"/>
<path fill="none" stroke-width="0.5" stroke-linecap="round" stroke-linejoin="round" stroke="rgb(0%, 0%, 0%)" stroke-opacity="1" stroke-miterlimit="4" d="M 142.256289 0.153076 C 151.482852 -0.0214036 161.451602 0.0489089 170.883893 -0.180258 " transform="matrix(1.5, 0, 0, -1.5, 142.037441, 36.385863)"/>
<path fill="none" stroke-width="0.5" stroke-linecap="round" stroke-linejoin="round" stroke="rgb(0%, 0%, 0%)" stroke-opacity="1" stroke-miterlimit="4" d="M 162.053164 -5.490154 C 164.11306 -2.432862 167.45681 -0.826091 170.725039 0.296305 C 167.542747 0.978596 164.391706 2.916096 161.928164 5.080159 " transform="matrix(1.5, 0, 0, -1.5, 142.037441, 36.385863)"/>
<path fill="none" stroke-width="0.5" stroke-linecap="round" stroke-linejoin="round" stroke="rgb(0%, 0%, 0%)" stroke-opacity="1" stroke-miterlimit="4" d="M -19.053607 -16.982341 C -18.126523 -16.945883 -18.76194 -16.789633 -18.129128 -15.990154 C -5.858294 -16.315674 6.610456 -16.37557 17.935977 -16.693279 C 28.975039 -16.576091 28.842227 -17.076091 28.357852 -5.987549 C 28.48806 -1.857341 29.001081 2.392659 28.837018 6.853596 C 28.068789 17.087971 27.930768 16.616617 18.087018 16.257242 C 6.073997 16.309326 -6.790586 16.494221 -18.967669 16.853596 C -28.277565 16.689534 -28.470273 16.231201 -28.233294 6.442138 C -28.225482 2.697346 -29.097878 -2.779216 -28.452044 -7.154216 C -28.459857 -16.891195 -27.920794 -16.326091 -19.053607 -16.982341 Z M -19.053607 -16.982341 " transform="matrix(1.5, 0, 0, -1.5, 142.037441, 36.385863)"/>
<path fill="none" stroke-width="0.5" stroke-linecap="round" stroke-linejoin="round" stroke="rgb(0%, 0%, 0%)" stroke-opacity="1" stroke-miterlimit="4" d="M 94.962018 -16.649008 C 95.860456 -17.047445 95.542747 -16.372966 95.683372 -17.018799 C 107.235456 -17.195883 119.808372 -17.021404 132.600039 -17.260987 C 141.886497 -16.422445 141.938581 -17.198487 142.170352 -6.852133 C 142.178164 -1.742758 142.506289 2.166096 142.386497 6.007242 C 142.555768 16.408284 142.446393 16.048909 132.441185 16.767659 C 119.376081 16.921305 108.006289 16.856201 94.717227 16.210367 C 84.787539 15.99943 85.641706 16.486409 85.847435 6.783284 C 85.120872 2.012451 85.193789 -2.149008 84.883893 -6.300049 C 85.01931 -16.982341 85.704206 -16.766195 94.962018 -16.649008 Z M 94.962018 -16.649008 " transform="matrix(1.5, 0, 0, -1.5, 142.037441, 36.385863)"/>
<path fill="none" stroke-width="0.5" stroke-linecap="round" stroke-linejoin="round" stroke="rgb(0%, 0%, 0%)" stroke-opacity="1" stroke-miterlimit="4" d="M -57.024961 0.244221 C -47.733294 -0.211508 -38.272357 0.0619297 -28.647357 -0.0656745 " transform="matrix(1.5, 0, 0, -1.5, 142.037441, 36.385863)"/>
<path fill="none" stroke-width="0.5" stroke-linecap="round" stroke-linejoin="round" stroke="rgb(0%, 0%, 0%)" stroke-opacity="1" stroke-miterlimit="4" d="M -37.399961 -5.284424 C -35.134336 -2.820883 -32.01194 -0.570883 -28.954648 -0.234945 C -32.285378 0.918701 -35.337461 2.712971 -37.079648 5.100992 " transform="matrix(1.5, 0, 0, -1.5, 142.037441, 36.385863)"/>
<path fill="none" stroke-width="0.5" stroke-linecap="round" stroke-linejoin="round" stroke="rgb(0%, 0%, 0%)" stroke-opacity="1" stroke-miterlimit="4" d="M 28.545352 -0.190674 C 47.188581 -0.0708828 66.128685 0.278076 85.063581 -0.0630703 " transform="matrix(1.5, 0, 0, -1.5, 142.037441, 36.385863)"/>
<path fill="none" stroke-width="0.5" stroke-linecap="round" stroke-linejoin="round" stroke="rgb(0%, 0%, 0%)" stroke-opacity="1" stroke-miterlimit="4" d="M 76.264102 -5.612549 C 78.420352 -2.753174 81.373477 -0.638591 84.803164 -0.138591 C 81.771914 0.629638 78.745872 2.403076 76.55056 5.585367 " transform="matrix(1.5, 0, 0, -1.5, 142.037441, 36.385863)"/>
<path fill="none" stroke-width="0.5" stroke-linecap="round" stroke-linejoin="round" stroke="rgb(0%, 0%, 0%)" stroke-opacity="1" stroke-miterlimit="4" d="M 142.360456 -0.057862 C 151.524518 -0.287029 161.318789 -0.221924 170.415143 0.0749505 " transform="matrix(1.5, 0, 0, -1.5, 142.037441, 36.385863)"/>
<path fill="none" stroke-width="0.5" stroke-linecap="round" stroke-linejoin="round" stroke="rgb(0%, 0%, 0%)" stroke-opacity="1" stroke-miterlimit="4" d="M 162.344831 -5.370362 C 164.342227 -2.784424 167.133893 -0.909424 170.857852 0.267659 C 167.066185 0.809326 164.149518 2.817138 161.995872 5.111409 " transform="matrix(1.5, 0, 0, -1.5, 142.037441, 36.385863)"/>
<path fill-rule="nonzero" fill="rgb(0%, 0%, 0%)" fill-opacity="1" d="M 11.382812 27.644531 C 11.40625 27.644531 12.15625 27.859375 12.546875 27.96875 C 12.824219 28.054688 13.039062 28.3125 13.039062 28.613281 C 13.0625 29.839844 13.105469 31.988281 13.105469 32.3125 C 13.105469 35.429688 13.082031 38.574219 12.910156 41.699219 L 13.148438 41.890625 L 14.933594 41.269531 C 14.828125 39.199219 14.828125 37.109375 14.828125 35.042969 C 14.957031 35.042969 15.148438 35.128906 15.257812 35.238281 C 15.882812 35.863281 18.613281 39.371094 20.613281 41.933594 L 22.746094 41.375 L 22.746094 41.183594 L 17.085938 34.804688 L 17.128906 34.632812 C 18.914062 34.441406 20.660156 33.730469 21.347656 32.230469 C 21.667969 31.5 21.753906 31.199219 21.753906 30.167969 C 21.753906 29.417969 21.453125 28.6875 20.917969 28.152344 C 20.550781 27.765625 20.054688 27.570312 19.539062 27.421875 C 18.851562 27.226562 18.117188 27.160156 17.386719 27.160156 L 11.535156 27.148438 L 11.40625 27.277344 L 11.382812 27.644531 M 14.804688 33.796875 C 14.804688 33.6875 14.890625 29.933594 14.933594 28.558594 C 14.957031 28.152344 15.019531 28 15.191406 28 L 16.054688 28 C 16.632812 28 17.238281 28.042969 17.816406 28.195312 C 18.226562 28.300781 18.636719 28.472656 18.9375 28.773438 C 19.386719 29.222656 19.648438 29.867188 19.648438 30.511719 C 19.648438 31.476562 19.214844 32.378906 18.550781 33.042969 C 17.839844 33.773438 16.804688 34.011719 15.816406 34.097656 C 15.558594 34.117188 15.277344 34.117188 15 34.117188 C 14.847656 34.117188 14.804688 33.925781 14.804688 33.796875 Z M 14.804688 33.796875 "/>
<path fill-rule="nonzero" fill="rgb(0%, 0%, 0%)" fill-opacity="1" d="M 25.757812 36.390625 C 25.757812 41.597656 26.597656 43.707031 27.265625 44.632812 C 27.867188 45.425781 28.769531 46.246094 29.804688 46.332031 L 29.804688 45.816406 C 29.375 45.730469 28.726562 45.382812 28.363281 44.953125 C 28.0625 44.609375 26.878906 43.015625 26.878906 36.390625 C 26.878906 31.828125 27.585938 29.589844 28.0625 28.578125 C 28.40625 27.847656 29.117188 27.199219 29.804688 27.027344 L 29.804688 26.445312 C 28.921875 26.597656 27.976562 27.285156 27.4375 28.039062 C 26.769531 29.03125 25.757812 31.546875 25.757812 36.390625 Z M 25.757812 36.390625 "/>
<path fill-rule="nonzero" fill="rgb(0%, 0%, 0%)" fill-opacity="1" d="M 34 40.335938 C 34.214844 40.746094 34.515625 41.113281 34.859375 41.414062 C 35.484375 41.972656 36.347656 42.125 37.164062 42.125 C 38.390625 42.125 39.59375 41.714844 40.433594 40.8125 C 40.953125 40.273438 41.210938 39.542969 41.210938 38.789062 C 41.210938 38.25 40.90625 37.753906 40.519531 37.367188 C 40.21875 37.066406 39.421875 36.589844 38.734375 36.289062 C 38.109375 36.03125 37.183594 35.558594 36.925781 35.300781 C 36.605469 34.953125 36.367188 34.695312 36.367188 34.222656 C 36.367188 33.75 36.519531 33.296875 36.863281 32.972656 C 37.183594 32.652344 37.660156 32.476562 38.132812 32.476562 C 38.5625 32.476562 39.015625 32.628906 39.25 33.015625 C 39.464844 33.363281 39.507812 33.769531 39.53125 34.15625 L 39.789062 34.308594 L 40.972656 33.511719 C 40.953125 33.039062 40.714844 32.585938 40.371094 32.261719 C 39.875 31.8125 39.1875 31.726562 38.542969 31.726562 C 37.488281 31.726562 36.476562 32.070312 35.699219 32.78125 C 35.121094 33.296875 34.816406 34.050781 34.816406 34.804688 C 34.816406 35.492188 35.207031 36.097656 35.699219 36.546875 C 36.195312 36.980469 36.839844 37.28125 37.507812 37.558594 C 38.066406 37.796875 38.671875 38.054688 39.078125 38.464844 C 39.402344 38.789062 39.636719 39.21875 39.636719 39.671875 C 39.636719 40.058594 39.445312 40.425781 39.1875 40.703125 C 38.863281 41.046875 38.28125 41.308594 37.808594 41.308594 C 37.164062 41.308594 36.582031 41.027344 36.109375 40.574219 C 35.613281 40.121094 35.398438 39.476562 35.355469 38.832031 L 35.054688 38.808594 Z M 34 40.335938 "/>
<path fill-rule="nonzero" fill="rgb(0%, 0%, 0%)" fill-opacity="1" d="M 45.730469 45.816406 L 45.730469 46.332031 C 46.761719 46.203125 47.730469 45.46875 48.332031 44.675781 C 49 43.75 49.816406 41.597656 49.816406 36.390625 C 49.816406 30.988281 48.699219 29.03125 48.03125 28.039062 C 47.492188 27.285156 46.609375 26.597656 45.730469 26.445312 L 45.730469 27.027344 C 46.417969 27.222656 47.085938 27.847656 47.429688 28.578125 C 47.902344 29.589844 48.699219 31.398438 48.699219 36.390625 C 48.699219 43.898438 47.578125 44.609375 47.277344 44.953125 C 46.910156 45.382812 46.160156 45.730469 45.730469 45.816406 Z M 45.730469 45.816406 "/>
<path fill-rule="nonzero" fill="rgb(0%, 0%, 0%)" fill-opacity="1" d="M 404.363281 34.746094 C 404.363281 36.855469 404.921875 38.984375 406.429688 40.488281 C 407.65625 41.714844 409.421875 42.082031 411.121094 42.082031 C 412.992188 42.082031 414.714844 41.179688 416.265625 40.125 L 415.898438 39.5 C 414.691406 40.316406 413.335938 40.941406 411.875 40.941406 C 410.109375 40.941406 409.207031 40.339844 408.023438 39.15625 C 407.3125 38.445312 406.277344 36.335938 406.277344 34.359375 C 406.277344 33.304688 406.410156 32.230469 406.730469 31.21875 C 406.988281 30.398438 407.375 29.625 407.980469 29 C 408.925781 28.054688 410.261719 27.601562 411.574219 27.601562 C 412.5625 27.601562 413.597656 27.859375 414.304688 28.570312 C 414.800781 29.066406 415.167969 29.691406 415.425781 30.378906 L 415.726562 30.398438 L 416.953125 29.152344 C 416.714844 28.765625 416.4375 28.398438 416.113281 28.078125 C 415.125 27.066406 413.703125 26.71875 412.304688 26.71875 C 410.066406 26.71875 407.894531 27.496094 406.320312 29.066406 C 404.816406 30.550781 404.363281 32.679688 404.363281 34.746094 Z M 404.363281 34.746094 "/>
<path fill-rule="nonzero" fill="rgb(0%, 0%, 0%)" fill-opacity="1" d="M 420.289062 36.390625 C 420.289062 41.597656 421.128906 43.707031 421.792969 44.632812 C 422.398438 45.425781 423.300781 46.246094 424.335938 46.332031 L 424.335938 45.816406 C 423.902344 45.730469 423.257812 45.382812 422.890625 44.953125 C 422.589844 44.609375 421.40625 43.015625 421.40625 36.390625 C 421.40625 31.828125 422.117188 29.589844 422.589844 28.578125 C 422.933594 27.847656 423.644531 27.199219 424.335938 27.027344 L 424.335938 26.445312 C 423.453125 26.597656 422.503906 27.285156 421.96875 28.039062 C 421.300781 29.03125 420.289062 31.546875 420.289062 36.390625 Z M 420.289062 36.390625 "/>
<path fill-rule="nonzero" fill="rgb(0%, 0%, 0%)" fill-opacity="1" d="M 428.53125 40.335938 C 428.746094 40.746094 429.046875 41.113281 429.390625 41.414062 C 430.015625 41.972656 430.875 42.125 431.695312 42.125 C 432.921875 42.125 434.125 41.714844 434.964844 40.8125 C 435.480469 40.273438 435.738281 39.542969 435.738281 38.789062 C 435.738281 38.25 435.4375 37.753906 435.050781 37.367188 C 434.75 37.066406 433.953125 36.589844 433.265625 36.289062 C 432.640625 36.03125 431.714844 35.558594 431.457031 35.300781 C 431.132812 34.953125 430.898438 34.695312 430.898438 34.222656 C 430.898438 33.75 431.046875 33.296875 431.390625 32.972656 C 431.714844 32.652344 432.1875 32.476562 432.660156 32.476562 C 433.09375 32.476562 433.542969 32.628906 433.78125 33.015625 C 433.996094 33.363281 434.039062 33.769531 434.0625 34.15625 L 434.320312 34.308594 L 435.503906 33.511719 C 435.480469 33.039062 435.246094 32.585938 434.898438 32.261719 C 434.40625 31.8125 433.714844 31.726562 433.070312 31.726562 C 432.015625 31.726562 431.003906 32.070312 430.230469 32.78125 C 429.648438 33.296875 429.347656 34.050781 429.347656 34.804688 C 429.347656 35.492188 429.734375 36.097656 430.230469 36.546875 C 430.726562 36.980469 431.371094 37.28125 432.039062 37.558594 C 432.597656 37.796875 433.199219 38.054688 433.609375 38.464844 C 433.933594 38.789062 434.167969 39.21875 434.167969 39.671875 C 434.167969 40.058594 433.976562 40.425781 433.714844 40.703125 C 433.394531 41.046875 432.8125 41.308594 432.339844 41.308594 C 431.695312 41.308594 431.113281 41.027344 430.640625 40.574219 C 430.144531 40.121094 429.929688 39.476562 429.886719 38.832031 L 429.585938 38.808594 Z M 428.53125 40.335938 "/>
<path fill-rule="nonzero" fill="rgb(0%, 0%, 0%)" fill-opacity="1" d="M 440.257812 45.816406 L 440.257812 46.332031 C 441.292969 46.203125 442.257812 45.46875 442.863281 44.675781 C 443.527344 43.75 444.347656 41.597656 444.347656 36.390625 C 444.347656 30.988281 443.226562 29.03125 442.5625 28.039062 C 442.023438 27.285156 441.140625 26.597656 440.257812 26.445312 L 440.257812 27.027344 C 440.945312 27.222656 441.613281 27.847656 441.957031 28.578125 C 442.433594 29.589844 443.226562 31.398438 443.226562 36.390625 C 443.226562 43.898438 442.109375 44.609375 441.808594 44.953125 C 441.441406 45.382812 440.6875 45.730469 440.257812 45.816406 Z M 440.257812 45.816406 "/>
</svg>
