<?xml version="1.0" encoding="UTF-8"?>
<svg xmlns="http://www.w3.org/2000/svg" xmlns:xlink="http://www.w3.org/1999/xlink" width="276.09256" height="72.862616" viewBox="0 0 276.09256 72.862616">
<path fill-rule="nonzero" fill="rgb(0%, 0%, 0%)" fill-opacity="1" d="M 116.175781 34.765625 C 116.175781 36.808594 116.710938 38.917969 118.175781 40.382812 C 119.339844 41.546875 120.953125 42.105469 122.585938 42.105469 C 124.160156 42.105469 126.484375 41.523438 128.375 41.03125 C 128.375 41.03125 128.3125 37.089844 128.269531 35.128906 L 122.328125 35.367188 L 122.328125 35.925781 L 122.457031 36.03125 C 123.621094 36.074219 124.996094 36.160156 125.945312 36.226562 C 126.546875 36.269531 126.546875 36.960938 126.546875 38.855469 C 126.546875 40.425781 126.484375 40.6875 126.117188 40.773438 C 125.449219 40.921875 124.78125 40.988281 124.09375 40.988281 C 122.414062 40.988281 120.824219 40.449219 119.875 39.328125 C 118.628906 37.863281 118.113281 36.3125 118.113281 34.421875 C 118.113281 31.347656 119.230469 29.582031 119.855469 28.960938 C 120.78125 28.058594 122.050781 27.757812 123.320312 27.757812 C 126.136719 27.757812 127 29.777344 127.277344 30.335938 L 127.535156 30.355469 L 128.785156 29.132812 C 128.546875 28.765625 127.40625 26.703125 124.289062 26.703125 C 122.027344 26.703125 119.769531 27.371094 118.15625 28.980469 C 116.648438 30.488281 116.175781 32.65625 116.175781 34.765625 Z M 116.175781 34.765625 "/>
<path fill-rule="nonzero" fill="rgb(0%, 0%, 0%)" fill-opacity="1" d="M 133.132812 36.371094 C 133.132812 41.578125 133.972656 43.6875 134.636719 44.613281 C 135.242188 45.410156 136.144531 46.226562 137.175781 46.3125 L 137.175781 45.796875 C 136.746094 45.710938 136.101562 45.367188 135.734375 44.9375 C 135.433594 44.589844 134.25 43 134.25 36.371094 C 134.25 31.808594 134.960938 29.570312 135.433594 28.558594 C 135.777344 27.828125 136.488281 27.183594 137.175781 27.011719 L 137.175781 26.429688 C 136.296875 26.578125 135.347656 27.269531 134.808594 28.019531 C 134.144531 29.011719 133.132812 31.527344 133.132812 36.371094 Z M 133.132812 36.371094 "/>
<path fill-rule="nonzero" fill="rgb(0%, 0%, 0%)" fill-opacity="1" d="M 141.375 40.320312 C 141.589844 40.730469 141.890625 41.09375 142.234375 41.394531 C 142.859375 41.957031 143.71875 42.105469 144.535156 42.105469 C 145.761719 42.105469 146.96875 41.695312 147.808594 40.792969 C 148.324219 40.253906 148.582031 39.523438 148.582031 38.769531 C 148.582031 38.230469 148.28125 37.734375 147.894531 37.347656 C 147.59375 37.046875 146.796875 36.574219 146.109375 36.269531 C 145.484375 36.011719 144.558594 35.539062 144.300781 35.28125 C 143.976562 34.9375 143.742188 34.679688 143.742188 34.203125 C 143.742188 33.730469 143.890625 33.277344 144.234375 32.957031 C 144.558594 32.632812 145.03125 32.460938 145.503906 32.460938 C 145.9375 32.460938 146.386719 32.609375 146.625 33 C 146.839844 33.34375 146.882812 33.753906 146.902344 34.140625 L 147.164062 34.289062 L 148.347656 33.492188 C 148.324219 33.019531 148.085938 32.566406 147.742188 32.246094 C 147.25 31.792969 146.558594 31.707031 145.914062 31.707031 C 144.859375 31.707031 143.847656 32.050781 143.074219 32.761719 C 142.492188 33.277344 142.191406 34.03125 142.191406 34.785156 C 142.191406 35.476562 142.578125 36.078125 143.074219 36.53125 C 143.570312 36.960938 144.214844 37.261719 144.882812 37.542969 C 145.441406 37.777344 146.042969 38.035156 146.453125 38.445312 C 146.773438 38.769531 147.011719 39.199219 147.011719 39.652344 C 147.011719 40.039062 146.816406 40.40625 146.558594 40.6875 C 146.238281 41.03125 145.65625 41.289062 145.183594 41.289062 C 144.535156 41.289062 143.957031 41.007812 143.484375 40.554688 C 142.988281 40.105469 142.773438 39.457031 142.730469 38.8125 L 142.429688 38.789062 Z M 141.375 40.320312 "/>
<path fill-rule="nonzero" fill="rgb(0%, 0%, 0%)" fill-opacity="1" d="M 153.101562 45.796875 L 153.101562 46.3125 C 154.132812 46.183594 155.101562 45.453125 155.707031 44.65625 C 156.371094 43.730469 157.191406 41.578125 157.191406 36.371094 C 157.191406 30.96875 156.070312 29.011719 155.402344 28.019531 C 154.867188 27.269531 153.984375 26.578125 153.101562 26.429688 L 153.101562 27.011719 C 153.789062 27.203125 154.457031 27.828125 154.800781 28.558594 C 155.273438 29.570312 156.070312 31.378906 156.070312 36.371094 C 156.070312 43.882812 154.953125 44.589844 154.652344 44.9375 C 154.285156 45.367188 153.53125 45.710938 153.101562 45.796875 Z M 153.101562 45.796875 "/>
<path fill="none" stroke-width="0.5" stroke-linecap="round" stroke-linejoin="round" stroke="rgb(0%, 0%, 0%)" stroke-opacity="1" stroke-miterlimit="4" d="M -25.540479 -16.205516 C -8.616 -16.252391 7.865771 -16.968537 25.464729 -17.2576 C 24.782438 -6.025829 25.144417 5.843963 25.527229 17.1799 C 7.803271 17.112192 -8.886833 17.005421 -24.819125 17.08615 C -24.769646 4.927296 -25.243604 -5.421662 -25.540479 -16.205516 Z M -25.540479 -16.205516 " transform="matrix(1.5, 0, 0, -1.5, 136.916187, 36.367507)"/>
<path fill="none" stroke-width="0.5" stroke-linecap="round" stroke-linejoin="round" stroke="rgb(0%, 0%, 0%)" stroke-opacity="1" stroke-miterlimit="4" d="M -53.759229 0.2424 C -43.892042 0.0731297 -34.462354 -0.205516 -25.194125 -0.0909328 " transform="matrix(1.5, 0, 0, -1.5, 136.916187, 36.367507)"/>
<path fill="none" stroke-width="0.5" stroke-linecap="round" stroke-linejoin="round" stroke="rgb(0%, 0%, 0%)" stroke-opacity="1" stroke-miterlimit="4" d="M -33.858187 -5.252391 C -31.438917 -2.432079 -28.550896 -0.478954 -25.587354 -0.27062 C -28.944125 0.97938 -31.657667 2.51063 -33.550896 5.372609 " transform="matrix(1.5, 0, 0, -1.5, 136.916187, 36.367507)"/>
<path fill="none" stroke-width="0.5" stroke-linecap="round" stroke-linejoin="round" stroke="rgb(0%, 0%, 0%)" stroke-opacity="1" stroke-miterlimit="4" d="M 24.847542 -0.0674953 C 34.407438 -0.218537 44.277229 -0.236766 53.4465 -0.148225 " transform="matrix(1.5, 0, 0, -1.5, 136.916187, 36.367507)"/>
<path fill="none" stroke-width="0.5" stroke-linecap="round" stroke-linejoin="round" stroke="rgb(0%, 0%, 0%)" stroke-opacity="1" stroke-miterlimit="4" d="M 44.732958 -5.197704 C 46.9465 -2.598745 50.175667 -0.682079 53.514208 0.015838 C 49.951708 0.828338 47.232958 2.562713 45.1965 5.549692 " transform="matrix(1.5, 0, 0, -1.5, 136.916187, 36.367507)"/>
<path fill="none" stroke-width="0.5" stroke-linecap="round" stroke-linejoin="round" stroke="rgb(0%, 0%, 0%)" stroke-opacity="1" stroke-miterlimit="4" d="M -25.277458 -16.768016 C -8.77225 -16.429475 8.764208 -16.879995 25.355354 -16.403433 C 25.613167 -5.192495 25.631396 5.320525 24.670458 16.97938 C 8.938688 16.841359 -8.819125 16.034067 -25.756625 16.963755 C -24.949333 5.1174 -24.563917 -6.143016 -25.277458 -16.768016 Z M -25.277458 -16.768016 " transform="matrix(1.5, 0, 0, -1.5, 136.916187, 36.367507)"/>
<path fill="none" stroke-width="0.5" stroke-linecap="round" stroke-linejoin="round" stroke="rgb(0%, 0%, 0%)" stroke-opacity="1" stroke-miterlimit="4" d="M -53.277458 -0.247183 C -44.329542 0.224171 -34.754021 0.1799 -25.123812 0.00542132 " transform="matrix(1.5, 0, 0, -1.5, 136.916187, 36.367507)"/>
<path fill="none" stroke-width="0.5" stroke-linecap="round" stroke-linejoin="round" stroke="rgb(0%, 0%, 0%)" stroke-opacity="1" stroke-miterlimit="4" d="M -33.998812 -5.116975 C -31.470167 -2.809683 -29.004021 -0.499787 -25.287875 -0.205516 C -28.519646 0.747609 -31.530062 2.82313 -33.936312 5.343963 " transform="matrix(1.5, 0, 0, -1.5, 136.916187, 36.367507)"/>
<path fill="none" stroke-width="0.5" stroke-linecap="round" stroke-linejoin="round" stroke="rgb(0%, 0%, 0%)" stroke-opacity="1" stroke-miterlimit="4" d="M 25.394417 -0.116975 C 34.686083 -0.200308 43.824104 0.0236505 53.420458 0.265838 " transform="matrix(1.5, 0, 0, -1.5, 136.916187, 36.367507)"/>
<path fill="none" stroke-width="0.5" stroke-linecap="round" stroke-linejoin="round" stroke="rgb(0%, 0%, 0%)" stroke-opacity="1" stroke-miterlimit="4" d="M 45.201708 -5.10135 C 47.006396 -2.6326 50.118375 -0.809683 53.449104 0.169484 C 50.404833 0.739796 47.324104 2.820525 44.993375 5.521046 " transform="matrix(1.5, 0, 0, -1.5, 136.916187, 36.367507)"/>
<path fill="none" stroke-width="0.5" stroke-linecap="round" stroke-linejoin="round" stroke="rgb(0%, 0%, 0%)" stroke-opacity="1" stroke-miterlimit="4" d="M -25.319125 -17.124787 C -7.759229 -16.879995 8.003792 -16.53885 25.045458 -16.840933 C 25.295458 -5.004995 24.886604 5.5549 25.045458 16.16688 C 7.855354 16.737192 -7.738396 16.71115 -24.470167 17.01063 C -25.472771 5.9924 -25.657667 -6.17687 -25.319125 -17.124787 Z M -25.319125 -17.124787 " transform="matrix(1.5, 0, 0, -1.5, 136.916187, 36.367507)"/>
<path fill="none" stroke-width="0.5" stroke-linecap="round" stroke-linejoin="round" stroke="rgb(0%, 0%, 0%)" stroke-opacity="1" stroke-miterlimit="4" d="M -53.300896 -0.046662 C -44.071729 -0.22635 -35.009229 0.0262547 -25.493604 -0.0857245 " transform="matrix(1.5, 0, 0, -1.5, 136.916187, 36.367507)"/>
<path fill="none" stroke-width="0.5" stroke-linecap="round" stroke-linejoin="round" stroke="rgb(0%, 0%, 0%)" stroke-opacity="1" stroke-miterlimit="4" d="M -33.915479 -5.213329 C -31.579542 -2.783641 -28.860792 -0.648225 -25.39725 0.205942 C -28.845167 0.807505 -31.876417 2.409067 -34.035271 5.526255 " transform="matrix(1.5, 0, 0, -1.5, 136.916187, 36.367507)"/>
<path fill="none" stroke-width="0.5" stroke-linecap="round" stroke-linejoin="round" stroke="rgb(0%, 0%, 0%)" stroke-opacity="1" stroke-miterlimit="4" d="M 25.141813 0.143442 C 34.285042 0.200734 43.962125 0.185109 53.558479 0.109588 " transform="matrix(1.5, 0, 0, -1.5, 136.916187, 36.367507)"/>
<path fill="none" stroke-width="0.5" stroke-linecap="round" stroke-linejoin="round" stroke="rgb(0%, 0%, 0%)" stroke-opacity="1" stroke-miterlimit="4" d="M 44.902229 -5.39562 C 46.943896 -2.749787 49.85275 -0.747183 53.706917 -0.244579 C 50.050667 1.0549 47.217333 2.547088 44.967333 5.66688 " transform="matrix(1.5, 0, 0, -1.5, 136.916187, 36.367507)"/>
<path fill="none" stroke-width="0.5" stroke-linecap="round" stroke-linejoin="round" stroke="rgb(0%, 0%, 0%)" stroke-opacity="1" stroke-miterlimit="4" d="M -25.368604 -17.265412 C -8.83475 -17.262808 8.055875 -16.932079 25.41525 -16.072704 C 25.519417 -5.200308 25.305875 5.640838 24.907438 16.122609 C 8.660042 17.159067 -8.009229 17.133025 -24.488396 16.333546 C -25.449333 5.599171 -25.264437 -5.593537 -25.368604 -17.265412 Z M -25.368604 -17.265412 " transform="matrix(1.5, 0, 0, -1.5, 136.916187, 36.367507)"/>
<path fill="none" stroke-width="0.5" stroke-linecap="round" stroke-linejoin="round" stroke="rgb(0%, 0%, 0%)" stroke-opacity="1" stroke-miterlimit="4" d="M -53.730583 0.0965672 C -44.222771 -0.124787 -34.587354 -0.283641 -25.644646 0.218963 " transform="matrix(1.5, 0, 0, -1.5, 136.916187, 36.367507)"/>
<path fill="none" stroke-width="0.5" stroke-linecap="round" stroke-linejoin="round" stroke="rgb(0%, 0%, 0%)" stroke-opacity="1" stroke-miterlimit="4" d="M -33.95975 -5.096141 C -31.467562 -2.822704 -28.470167 -0.978954 -25.14725 -0.291454 C -28.790479 1.002817 -31.754021 2.94813 -33.730583 5.60438 " transform="matrix(1.5, 0, 0, -1.5, 136.916187, 36.367507)"/>
<path fill="none" stroke-width="0.5" stroke-linecap="round" stroke-linejoin="round" stroke="rgb(0%, 0%, 0%)" stroke-opacity="1" stroke-miterlimit="4" d="M 25.011604 -0.210725 C 34.563688 0.182505 44.147021 0.156463 53.675667 0.258025 " transform="matrix(1.5, 0, 0, -1.5, 136.916187, 36.367507)"/>
<path fill="none" stroke-width="0.5" stroke-linecap="round" stroke-linejoin="round" stroke="rgb(0%, 0%, 0%)" stroke-opacity="1" stroke-miterlimit="4" d="M 45.326708 -5.10135 C 47.443896 -2.48937 49.917854 -0.603954 53.498583 -0.192495 C 50.206917 0.789275 47.41525 2.825734 45.097542 5.627817 " transform="matrix(1.5, 0, 0, -1.5, 136.916187, 36.367507)"/>
<path fill="none" stroke-width="0.5" stroke-linecap="round" stroke-linejoin="round" stroke="rgb(0%, 0%, 0%)" stroke-opacity="1" stroke-miterlimit="4" d="M -25.134229 -17.122183 C -7.821729 -16.434683 8.980354 -16.314891 25.428271 -17.02062 C 25.381396 -6.184683 25.032438 5.226775 24.826708 16.330942 C 8.813688 17.057505 -8.20975 16.627817 -25.214958 17.078338 C -25.493604 5.3049 -25.642042 -5.669058 -25.134229 -17.122183 Z M -25.134229 -17.122183 " transform="matrix(1.5, 0, 0, -1.5, 136.916187, 36.367507)"/>
<path fill="none" stroke-width="0.5" stroke-linecap="round" stroke-linejoin="round" stroke="rgb(0%, 0%, 0%)" stroke-opacity="1" stroke-miterlimit="4" d="M -53.5535 -0.17687 C -44.355583 -0.0492662 -34.790479 -0.062287 -25.660271 0.216359 " transform="matrix(1.5, 0, 0, -1.5, 136.916187, 36.367507)"/>
<path fill="none" stroke-width="0.5" stroke-linecap="round" stroke-linejoin="round" stroke="rgb(0%, 0%, 0%)" stroke-opacity="1" stroke-miterlimit="4" d="M -34.030062 -5.616975 C -31.597771 -2.78885 -28.665479 -0.98937 -25.457146 0.140838 C -28.972771 0.828338 -31.649854 2.466359 -33.631625 5.169484 " transform="matrix(1.5, 0, 0, -1.5, 136.916187, 36.367507)"/>
<path fill="none" stroke-width="0.5" stroke-linecap="round" stroke-linejoin="round" stroke="rgb(0%, 0%, 0%)" stroke-opacity="1" stroke-miterlimit="4" d="M 25.370979 0.0887547 C 34.475146 0.213755 44.035042 0.112192 53.670458 0.263234 " transform="matrix(1.5, 0, 0, -1.5, 136.916187, 36.367507)"/>
<path fill="none" stroke-width="0.5" stroke-linecap="round" stroke-linejoin="round" stroke="rgb(0%, 0%, 0%)" stroke-opacity="1" stroke-miterlimit="4" d="M 45.120979 -5.643016 C 46.933479 -2.947704 50.404833 -0.593537 53.402229 0.0575047 C 50.22775 0.521046 47.363167 2.833546 44.995979 5.346567 " transform="matrix(1.5, 0, 0, -1.5, 136.916187, 36.367507)"/>
<path fill-rule="nonzero" fill="rgb(0%, 0%, 0%)" fill-opacity="1" d="M 11.382812 27.625 C 11.40625 27.625 12.15625 27.839844 12.546875 27.949219 C 12.824219 28.035156 13.039062 28.292969 13.039062 28.59375 C 13.0625 29.820312 13.105469 31.96875 13.105469 32.292969 C 13.105469 35.414062 13.082031 38.558594 12.910156 41.679688 L 13.148438 41.875 L 14.933594 41.25 C 14.828125 39.183594 14.828125 37.09375 14.828125 35.023438 C 14.957031 35.023438 15.148438 35.109375 15.257812 35.21875 C 15.882812 35.84375 18.613281 39.355469 20.613281 41.917969 L 22.746094 41.355469 L 22.746094 41.164062 L 17.085938 34.789062 L 17.128906 34.617188 C 18.914062 34.421875 20.660156 33.714844 21.347656 32.210938 C 21.667969 31.480469 21.753906 31.179688 21.753906 30.152344 C 21.753906 29.398438 21.453125 28.667969 20.917969 28.132812 C 20.550781 27.746094 20.054688 27.550781 19.539062 27.402344 C 18.851562 27.207031 18.117188 27.144531 17.386719 27.144531 L 11.535156 27.132812 L 11.40625 27.261719 L 11.382812 27.625 M 14.804688 33.777344 C 14.804688 33.671875 14.890625 29.914062 14.933594 28.539062 C 14.957031 28.132812 15.019531 27.984375 15.191406 27.984375 L 16.054688 27.984375 C 16.632812 27.984375 17.238281 28.027344 17.816406 28.175781 C 18.226562 28.285156 18.636719 28.453125 18.9375 28.753906 C 19.386719 29.207031 19.648438 29.851562 19.648438 30.492188 C 19.648438 31.460938 19.214844 32.359375 18.550781 33.027344 C 17.839844 33.757812 16.804688 33.992188 15.816406 34.078125 C 15.558594 34.097656 15.277344 34.097656 15 34.097656 C 14.847656 34.097656 14.804688 33.90625 14.804688 33.777344 Z M 14.804688 33.777344 "/>
<path fill-rule="nonzero" fill="rgb(0%, 0%, 0%)" fill-opacity="1" d="M 25.757812 36.371094 C 25.757812 41.578125 26.597656 43.6875 27.265625 44.613281 C 27.867188 45.410156 28.769531 46.226562 29.804688 46.3125 L 29.804688 45.796875 C 29.375 45.710938 28.726562 45.367188 28.363281 44.9375 C 28.0625 44.589844 26.878906 43 26.878906 36.371094 C 26.878906 31.808594 27.585938 29.570312 28.0625 28.558594 C 28.40625 27.828125 29.117188 27.183594 29.804688 27.011719 L 29.804688 26.429688 C 28.921875 26.578125 27.976562 27.269531 27.4375 28.019531 C 26.769531 29.011719 25.757812 31.527344 25.757812 36.371094 Z M 25.757812 36.371094 "/>
<path fill-rule="nonzero" fill="rgb(0%, 0%, 0%)" fill-opacity="1" d="M 34 40.320312 C 34.214844 40.730469 34.515625 41.09375 34.859375 41.394531 C 35.484375 41.957031 36.347656 42.105469 37.164062 42.105469 C 38.390625 42.105469 39.59375 41.695312 40.433594 40.792969 C 40.953125 40.253906 41.210938 39.523438 41.210938 38.769531 C 41.210938 38.230469 40.90625 37.734375 40.519531 37.347656 C 40.21875 37.046875 39.421875 36.574219 38.734375 36.269531 C 38.109375 36.011719 37.183594 35.539062 36.925781 35.28125 C 36.605469 34.9375 36.367188 34.679688 36.367188 34.203125 C 36.367188 33.730469 36.519531 33.277344 36.863281 32.957031 C 37.183594 32.632812 37.660156 32.460938 38.132812 32.460938 C 38.5625 32.460938 39.015625 32.609375 39.25 33 C 39.464844 33.34375 39.507812 33.753906 39.53125 34.140625 L 39.789062 34.289062 L 40.972656 33.492188 C 40.953125 33.019531 40.714844 32.566406 40.371094 32.246094 C 39.875 31.792969 39.1875 31.707031 38.542969 31.707031 C 37.488281 31.707031 36.476562 32.050781 35.699219 32.761719 C 35.121094 33.277344 34.816406 34.03125 34.816406 34.785156 C 34.816406 35.476562 35.207031 36.078125 35.699219 36.53125 C 36.195312 36.960938 36.839844 37.261719 37.507812 37.542969 C 38.066406 37.777344 38.671875 38.035156 39.078125 38.445312 C 39.402344 38.769531 39.636719 39.199219 39.636719 39.652344 C 39.636719 40.039062 39.445312 40.40625 39.1875 40.6875 C 38.863281 41.03125 38.28125 41.289062 37.808594 41.289062 C 37.164062 41.289062 36.582031 41.007812 36.109375 40.554688 C 35.613281 40.105469 35.398438 39.457031 35.355469 38.8125 L 35.054688 38.789062 Z M 34 40.320312 "/>
<path fill-rule="nonzero" fill="rgb(0%, 0%, 0%)" fill-opacity="1" d="M 45.730469 45.796875 L 45.730469 46.3125 C 46.761719 46.183594 47.730469 45.453125 48.332031 44.65625 C 49 43.730469 49.816406 41.578125 49.816406 36.371094 C 49.816406 30.96875 48.699219 29.011719 48.03125 28.019531 C 47.492188 27.269531 46.609375 26.578125 45.730469 26.429688 L 45.730469 27.011719 C 46.417969 27.203125 47.085938 27.828125 47.429688 28.558594 C 47.902344 29.570312 48.699219 31.378906 48.699219 36.371094 C 48.699219 43.882812 47.578125 44.589844 47.277344 44.9375 C 46.910156 45.367188 46.160156 45.710938 45.730469 45.796875 Z M 45.730469 45.796875 "/>
<path fill-rule="nonzero" fill="rgb(0%, 0%, 0%)" fill-opacity="1" d="M 223.484375 34.726562 C 223.484375 36.835938 224.042969 38.964844 225.550781 40.472656 C 226.777344 41.699219 228.542969 42.0625 230.242188 42.0625 C 232.113281 42.0625 233.835938 41.160156 235.386719 40.105469 L 235.019531 39.480469 C 233.8125 40.300781 232.457031 40.921875 230.996094 40.921875 C 229.230469 40.921875 228.328125 40.320312 227.144531 39.136719 C 226.433594 38.429688 225.398438 36.320312 225.398438 34.339844 C 225.398438 33.285156 225.53125 32.210938 225.851562 31.199219 C 226.109375 30.382812 226.496094 29.605469 227.101562 28.984375 C 228.046875 28.035156 229.382812 27.585938 230.695312 27.585938 C 231.683594 27.585938 232.71875 27.84375 233.425781 28.550781 C 233.921875 29.046875 234.289062 29.671875 234.546875 30.359375 L 234.847656 30.382812 L 236.074219 29.132812 C 235.835938 28.746094 235.558594 28.378906 235.234375 28.058594 C 234.246094 27.046875 232.824219 26.703125 231.425781 26.703125 C 229.1875 26.703125 227.015625 27.476562 225.445312 29.046875 C 223.9375 30.53125 223.484375 32.660156 223.484375 34.726562 Z M 223.484375 34.726562 "/>
<path fill-rule="nonzero" fill="rgb(0%, 0%, 0%)" fill-opacity="1" d="M 239.410156 36.371094 C 239.410156 41.578125 240.25 43.6875 240.914062 44.613281 C 241.519531 45.410156 242.421875 46.226562 243.457031 46.3125 L 243.457031 45.796875 C 243.023438 45.710938 242.378906 45.367188 242.011719 44.9375 C 241.710938 44.589844 240.527344 43 240.527344 36.371094 C 240.527344 31.808594 241.238281 29.570312 241.710938 28.558594 C 242.054688 27.828125 242.765625 27.183594 243.457031 27.011719 L 243.457031 26.429688 C 242.574219 26.578125 241.625 27.269531 241.089844 28.019531 C 240.421875 29.011719 239.410156 31.527344 239.410156 36.371094 Z M 239.410156 36.371094 "/>
<path fill-rule="nonzero" fill="rgb(0%, 0%, 0%)" fill-opacity="1" d="M 247.652344 40.320312 C 247.867188 40.730469 248.167969 41.09375 248.511719 41.394531 C 249.136719 41.957031 249.996094 42.105469 250.816406 42.105469 C 252.042969 42.105469 253.246094 41.695312 254.085938 40.792969 C 254.601562 40.253906 254.859375 39.523438 254.859375 38.769531 C 254.859375 38.230469 254.558594 37.734375 254.171875 37.347656 C 253.871094 37.046875 253.074219 36.574219 252.386719 36.269531 C 251.761719 36.011719 250.835938 35.539062 250.578125 35.28125 C 250.253906 34.9375 250.019531 34.679688 250.019531 34.203125 C 250.019531 33.730469 250.167969 33.277344 250.511719 32.957031 C 250.835938 32.632812 251.308594 32.460938 251.78125 32.460938 C 252.214844 32.460938 252.664062 32.609375 252.902344 33 C 253.117188 33.34375 253.160156 33.753906 253.183594 34.140625 L 253.441406 34.289062 L 254.625 33.492188 C 254.601562 33.019531 254.367188 32.566406 254.019531 32.246094 C 253.527344 31.792969 252.835938 31.707031 252.191406 31.707031 C 251.136719 31.707031 250.125 32.050781 249.351562 32.761719 C 248.769531 33.277344 248.46875 34.03125 248.46875 34.785156 C 248.46875 35.476562 248.855469 36.078125 249.351562 36.53125 C 249.847656 36.960938 250.492188 37.261719 251.160156 37.542969 C 251.71875 37.777344 252.320312 38.035156 252.730469 38.445312 C 253.054688 38.769531 253.289062 39.199219 253.289062 39.652344 C 253.289062 40.039062 253.097656 40.40625 252.835938 40.6875 C 252.515625 41.03125 251.933594 41.289062 251.460938 41.289062 C 250.816406 41.289062 250.234375 41.007812 249.761719 40.554688 C 249.265625 40.105469 249.050781 39.457031 249.007812 38.8125 L 248.707031 38.789062 Z M 247.652344 40.320312 "/>
<path fill-rule="nonzero" fill="rgb(0%, 0%, 0%)" fill-opacity="1" d="M 259.378906 45.796875 L 259.378906 46.3125 C 260.414062 46.183594 261.378906 45.453125 261.984375 44.65625 C 262.652344 43.730469 263.46875 41.578125 263.46875 36.371094 C 263.46875 30.96875 262.347656 29.011719 261.683594 28.019531 C 261.144531 27.269531 260.261719 26.578125 259.378906 26.429688 L 259.378906 27.011719 C 260.066406 27.203125 260.734375 27.828125 261.078125 28.558594 C 261.554688 29.570312 262.347656 31.378906 262.347656 36.371094 C 262.347656 43.882812 261.230469 44.589844 260.929688 44.9375 C 260.5625 45.367188 259.808594 45.710938 259.378906 45.796875 Z M 259.378906 45.796875 "/>
</svg>
