<?xml version="1.0" encoding="UTF-8"?>
<svg xmlns="http://www.w3.org/2000/svg" xmlns:xlink="http://www.w3.org/1999/xlink" width="425.297699" height="165.069923" viewBox="0 0 425.297699 165.069923">
<path fill-rule="nonzero" fill="rgb(0%, 0%, 0%)" fill-opacity="1" d="M 108.167969 37.039062 L 119.695312 37.039062 L 119.695312 48.566406 L 121.183594 48.304688 L 121.183594 37.039062 L 132.636719 37.039062 L 132.824219 35.550781 L 121.183594 35.550781 L 121.183594 24.023438 L 119.695312 24.246094 L 119.695312 35.550781 L 108.429688 35.550781 Z M 108.167969 37.039062 "/>
<path fill-rule="nonzero" fill="rgb(0%, 0%, 0%)" fill-opacity="1" d="M 222.859375 34.703125 C 222.859375 36.746094 223.398438 38.859375 224.863281 40.324219 C 226.023438 41.484375 227.636719 42.042969 229.273438 42.042969 C 230.84375 42.042969 233.167969 41.464844 235.0625 40.96875 C 235.0625 40.96875 234.996094 37.027344 234.953125 35.066406 L 229.015625 35.304688 L 229.015625 35.863281 L 229.144531 35.972656 C 230.304688 36.015625 231.683594 36.101562 232.628906 36.164062 C 233.234375 36.207031 233.234375 36.898438 233.234375 38.792969 C 233.234375 40.367188 233.167969 40.625 232.800781 40.710938 C 232.136719 40.859375 231.46875 40.925781 230.78125 40.925781 C 229.101562 40.925781 227.507812 40.386719 226.5625 39.265625 C 225.3125 37.800781 224.796875 36.25 224.796875 34.359375 C 224.796875 31.285156 225.917969 29.523438 226.539062 28.898438 C 227.464844 27.996094 228.734375 27.695312 230.003906 27.695312 C 232.824219 27.695312 233.683594 29.714844 233.964844 30.273438 L 234.222656 30.296875 L 235.472656 29.070312 C 235.234375 28.707031 234.09375 26.640625 230.972656 26.640625 C 228.714844 26.640625 226.453125 27.308594 224.839844 28.921875 C 223.335938 30.425781 222.859375 32.597656 222.859375 34.703125 Z M 222.859375 34.703125 "/>
<path fill-rule="nonzero" fill="rgb(0%, 0%, 0%)" fill-opacity="1" d="M 239.816406 36.308594 C 239.816406 41.515625 240.65625 43.625 241.324219 44.550781 C 241.925781 45.347656 242.832031 46.164062 243.863281 46.25 L 243.863281 45.734375 C 243.433594 45.648438 242.789062 45.304688 242.421875 44.875 C 242.121094 44.53125 240.9375 42.9375 240.9375 36.308594 C 240.9375 31.746094 241.648438 29.507812 242.121094 28.496094 C 242.464844 27.765625 243.175781 27.121094 243.863281 26.949219 L 243.863281 26.367188 C 242.980469 26.519531 242.035156 27.207031 241.496094 27.960938 C 240.828125 28.949219 239.816406 31.46875 239.816406 36.308594 Z M 239.816406 36.308594 "/>
<path fill-rule="nonzero" fill="rgb(0%, 0%, 0%)" fill-opacity="1" d="M 248.058594 40.257812 C 248.273438 40.667969 248.574219 41.03125 248.921875 41.335938 C 249.542969 41.894531 250.40625 42.042969 251.222656 42.042969 C 252.449219 42.042969 253.65625 41.636719 254.492188 40.730469 C 255.011719 40.195312 255.269531 39.460938 255.269531 38.707031 C 255.269531 38.167969 254.96875 37.675781 254.578125 37.285156 C 254.277344 36.984375 253.480469 36.511719 252.792969 36.210938 C 252.167969 35.953125 251.246094 35.476562 250.984375 35.21875 C 250.664062 34.875 250.425781 34.617188 250.425781 34.144531 C 250.425781 33.667969 250.578125 33.21875 250.921875 32.894531 C 251.246094 32.570312 251.71875 32.398438 252.191406 32.398438 C 252.621094 32.398438 253.074219 32.550781 253.308594 32.9375 C 253.527344 33.28125 253.570312 33.691406 253.589844 34.078125 L 253.847656 34.230469 L 255.03125 33.433594 C 255.011719 32.957031 254.773438 32.507812 254.429688 32.183594 C 253.933594 31.730469 253.246094 31.644531 252.601562 31.644531 C 251.546875 31.644531 250.535156 31.988281 249.757812 32.699219 C 249.179688 33.21875 248.878906 33.96875 248.878906 34.722656 C 248.878906 35.414062 249.265625 36.015625 249.757812 36.46875 C 250.253906 36.898438 250.898438 37.199219 251.566406 37.480469 C 252.125 37.71875 252.730469 37.976562 253.136719 38.382812 C 253.460938 38.707031 253.699219 39.136719 253.699219 39.589844 C 253.699219 39.976562 253.503906 40.34375 253.246094 40.625 C 252.921875 40.96875 252.34375 41.226562 251.867188 41.226562 C 251.222656 41.226562 250.640625 40.945312 250.167969 40.496094 C 249.671875 40.042969 249.457031 39.398438 249.414062 38.75 L 249.113281 38.730469 Z M 248.058594 40.257812 "/>
<path fill-rule="nonzero" fill="rgb(0%, 0%, 0%)" fill-opacity="1" d="M 259.789062 45.734375 L 259.789062 46.25 C 260.820312 46.121094 261.789062 45.390625 262.390625 44.59375 C 263.058594 43.667969 263.875 41.515625 263.875 36.308594 C 263.875 30.90625 262.757812 28.949219 262.089844 27.960938 C 261.550781 27.207031 260.667969 26.519531 259.789062 26.367188 L 259.789062 26.949219 C 260.476562 27.140625 261.144531 27.765625 261.488281 28.496094 C 261.960938 29.507812 262.757812 31.316406 262.757812 36.308594 C 262.757812 43.820312 261.636719 44.53125 261.335938 44.875 C 260.972656 45.304688 260.21875 45.648438 259.789062 45.734375 Z M 259.789062 45.734375 "/>
<path fill-rule="nonzero" fill="rgb(0%, 0%, 0%)" fill-opacity="1" d="M 221.847656 119.5 L 221.871094 119.910156 C 222.300781 120.0625 223.074219 120.296875 223.160156 120.320312 C 223.378906 120.40625 223.421875 120.644531 223.441406 120.835938 C 223.550781 122.625 223.570312 124.414062 223.570312 126.203125 C 223.570312 128.828125 223.570312 131.601562 223.355469 134.03125 L 223.484375 134.140625 L 225.464844 133.535156 C 225.398438 132.976562 225.355469 131.878906 225.355469 130.226562 L 225.355469 126.914062 C 225.355469 126.761719 225.484375 126.65625 225.636719 126.65625 L 233.019531 126.65625 C 233.210938 126.65625 233.277344 126.804688 233.277344 126.914062 C 233.277344 129 233.210938 131.558594 233.167969 133.644531 L 233.40625 134.09375 L 236.613281 133.925781 L 236.742188 133.796875 L 236.71875 133.410156 C 236.332031 133.238281 235.0625 133.238281 235.0625 132.398438 C 235.0625 131.949219 234.976562 128.914062 234.976562 127.171875 C 234.976562 123.058594 235.148438 120.210938 235.210938 119.371094 L 235.105469 119.242188 L 233.210938 119.609375 C 233.210938 121.460938 233.277344 123.703125 233.277344 125.558594 C 233.277344 125.6875 233.253906 125.816406 233.019531 125.816406 L 225.570312 125.816406 C 225.355469 125.816406 225.3125 125.664062 225.3125 125.558594 C 225.3125 124.15625 225.398438 122.347656 225.441406 120.945312 C 225.464844 120.449219 225.507812 119.933594 225.59375 119.457031 L 225.484375 119.351562 L 222 119.351562 Z M 221.847656 119.5 "/>
<path fill-rule="nonzero" fill="rgb(0%, 0%, 0%)" fill-opacity="1" d="M 240.011719 128.71875 C 240.011719 133.925781 240.851562 136.035156 241.519531 136.960938 C 242.121094 137.753906 243.023438 138.574219 244.058594 138.660156 L 244.058594 138.144531 C 243.625 138.058594 242.980469 137.710938 242.617188 137.28125 C 242.3125 136.9375 241.128906 135.34375 241.128906 128.71875 C 241.128906 124.15625 241.839844 121.917969 242.3125 120.90625 C 242.660156 120.175781 243.367188 119.527344 244.058594 119.355469 L 244.058594 118.777344 C 243.175781 118.925781 242.226562 119.613281 241.691406 120.367188 C 241.023438 121.359375 240.011719 123.875 240.011719 128.71875 Z M 240.011719 128.71875 "/>
<path fill-rule="nonzero" fill="rgb(0%, 0%, 0%)" fill-opacity="1" d="M 248.253906 132.667969 C 248.46875 133.074219 248.769531 133.441406 249.113281 133.742188 C 249.738281 134.300781 250.597656 134.453125 251.417969 134.453125 C 252.644531 134.453125 253.847656 134.042969 254.6875 133.140625 C 255.203125 132.601562 255.460938 131.871094 255.460938 131.117188 C 255.460938 130.578125 255.160156 130.082031 254.773438 129.695312 C 254.472656 129.394531 253.675781 128.917969 252.988281 128.617188 C 252.363281 128.359375 251.4375 127.886719 251.179688 127.628906 C 250.855469 127.285156 250.621094 127.023438 250.621094 126.550781 C 250.621094 126.078125 250.769531 125.625 251.117188 125.300781 C 251.4375 124.980469 251.910156 124.808594 252.386719 124.808594 C 252.816406 124.808594 253.265625 124.957031 253.503906 125.34375 C 253.71875 125.691406 253.761719 126.097656 253.785156 126.488281 L 254.042969 126.636719 L 255.226562 125.839844 C 255.203125 125.367188 254.96875 124.914062 254.621094 124.59375 C 254.128906 124.140625 253.441406 124.054688 252.792969 124.054688 C 251.738281 124.054688 250.726562 124.398438 249.953125 125.109375 C 249.371094 125.625 249.070312 126.378906 249.070312 127.132812 C 249.070312 127.820312 249.457031 128.425781 249.953125 128.875 C 250.449219 129.308594 251.09375 129.609375 251.761719 129.886719 C 252.320312 130.125 252.921875 130.382812 253.332031 130.792969 C 253.65625 131.117188 253.890625 131.546875 253.890625 132 C 253.890625 132.386719 253.699219 132.753906 253.441406 133.03125 C 253.117188 133.375 252.535156 133.636719 252.0625 133.636719 C 251.417969 133.636719 250.835938 133.355469 250.363281 132.902344 C 249.867188 132.449219 249.652344 131.804688 249.609375 131.160156 L 249.308594 131.136719 Z M 248.253906 132.667969 "/>
<path fill-rule="nonzero" fill="rgb(0%, 0%, 0%)" fill-opacity="1" d="M 259.980469 138.144531 L 259.980469 138.660156 C 261.015625 138.53125 261.980469 137.796875 262.585938 137.003906 C 263.253906 136.078125 264.070312 133.925781 264.070312 128.71875 C 264.070312 123.316406 262.949219 121.359375 262.285156 120.367188 C 261.746094 119.613281 260.863281 118.925781 259.980469 118.777344 L 259.980469 119.355469 C 260.667969 119.550781 261.335938 120.175781 261.679688 120.90625 C 262.15625 121.917969 262.949219 123.726562 262.949219 128.71875 C 262.949219 136.226562 261.832031 136.9375 261.53125 137.28125 C 261.164062 137.710938 260.410156 138.058594 259.980469 138.144531 Z M 259.980469 138.144531 "/>
<path fill="none" stroke-width="0.5" stroke-linecap="round" stroke-linejoin="round" stroke="rgb(0%, 0%, 0%)" stroke-opacity="1" stroke-miterlimit="4" d="M 67.55599 -16.382027 C 66.425781 -16.62161 67.134115 -16.319527 66.652344 -17.24661 C 77.097656 -16.285673 87.134115 -16.689318 97.19401 -16.12161 C 107.209635 -16.869006 106.69401 -16.053902 106.816406 -6.694527 C 107.800781 -2.658068 107.121094 1.763807 107.25651 7.172661 C 107.165365 16.185682 106.667969 16.245577 97.105469 17.136202 C 87.248698 17.183077 77.238281 16.537244 66.834635 17.063286 C 57.272135 17.271619 57.415365 15.995577 57.266927 6.107557 C 57.553385 1.84714 57.165365 -2.744006 56.561198 -6.710152 C 56.589844 -16.259631 56.891927 -16.642443 67.55599 -16.382027 Z M 67.55599 -16.382027 " transform="matrix(1.5, 0, 0, -1.5, 120.498047, 36.305866)"/>
<path fill="none" stroke-width="0.5" stroke-linecap="round" stroke-linejoin="round" stroke="rgb(0%, 0%, 0%)" stroke-opacity="1" stroke-miterlimit="4" d="M 66.321615 -78.421089 C 67.272135 -78.046089 67.459635 -78.37161 66.188802 -78.780464 C 76.842448 -78.369006 87.358073 -78.296089 97.170573 -78.483589 C 107.46224 -78.741402 107.334635 -78.845568 107.63151 -68.040881 C 106.863281 -63.165881 107.69401 -59.952339 106.855469 -54.40286 C 107.826823 -45.530464 107.196615 -45.572131 97.011719 -44.462756 C 87.326823 -45.572131 76.52474 -45.202339 67.141927 -45.007027 C 57.152344 -45.405464 56.701823 -45.499214 56.605469 -54.460152 C 57.196615 -59.038277 56.248698 -63.775256 56.58724 -67.676298 C 56.722656 -78.467964 57.35026 -78.46536 66.321615 -78.421089 Z M 66.321615 -78.421089 " transform="matrix(1.5, 0, 0, -1.5, 120.498047, 36.305866)"/>
<path fill="none" stroke-width="0.5" stroke-linecap="round" stroke-linejoin="round" stroke="rgb(0%, 0%, 0%)" stroke-opacity="1" stroke-miterlimit="4" d="M 14.970052 0.477348 C 14.316406 7.779432 8.313802 14.87839 -0.298177 14.380994 C -7.842448 13.946098 -15.016927 8.235161 -14.964844 0.0789108 C -13.829427 -8.186714 -7.58724 -14.452339 0.295573 -14.49661 C 8.214844 -14.012235 15.027344 -7.704943 14.970052 0.477348 Z M 14.970052 0.477348 " transform="matrix(1.5, 0, 0, -1.5, 120.498047, 36.305866)"/>
<path fill="none" stroke-width="0.5" stroke-linecap="round" stroke-linejoin="round" stroke="rgb(0%, 0%, 0%)" stroke-opacity="1" stroke-miterlimit="4" d="M -42.595052 0.198702 C -33.084635 -0.0174433 -24.022135 -0.139839 -14.144531 0.235161 " transform="matrix(1.5, 0, 0, -1.5, 120.498047, 36.305866)"/>
<path fill="none" stroke-width="0.5" stroke-linecap="round" stroke-linejoin="round" stroke="rgb(0%, 0%, 0%)" stroke-opacity="1" stroke-miterlimit="4" d="M -22.842448 -5.642443 C -20.597656 -2.619006 -17.858073 -0.957548 -14.22526 -0.108589 C -17.670573 0.638807 -20.785156 2.914848 -23.092448 5.235161 " transform="matrix(1.5, 0, 0, -1.5, 120.498047, 36.305866)"/>
<path fill="none" stroke-width="0.5" stroke-linecap="round" stroke-linejoin="round" stroke="rgb(0%, 0%, 0%)" stroke-opacity="1" stroke-miterlimit="4" d="M 14.376302 -0.230985 C 28.730469 0.237765 42.566406 0.12839 56.56901 -0.0669225 " transform="matrix(1.5, 0, 0, -1.5, 120.498047, 36.305866)"/>
<path fill="none" stroke-width="0.5" stroke-linecap="round" stroke-linejoin="round" stroke="rgb(0%, 0%, 0%)" stroke-opacity="1" stroke-miterlimit="4" d="M 48.10026 -5.457548 C 50.082031 -2.488798 53.511719 -0.603381 56.498698 0.0945358 C 53.589844 0.90964 50.49349 2.550265 48.470052 5.414848 " transform="matrix(1.5, 0, 0, -1.5, 120.498047, 36.305866)"/>
<path fill="none" stroke-width="0.5" stroke-linecap="round" stroke-linejoin="round" stroke="rgb(0%, 0%, 0%)" stroke-opacity="1" stroke-miterlimit="4" d="M 107.233073 0.240369 C 125.983073 -0.0512975 145.014323 -0.129423 163.96224 0.115369 " transform="matrix(1.5, 0, 0, -1.5, 120.498047, 36.305866)"/>
<path fill="none" stroke-width="0.5" stroke-linecap="round" stroke-linejoin="round" stroke="rgb(0%, 0%, 0%)" stroke-opacity="1" stroke-miterlimit="4" d="M 155.423177 -5.384631 C 157.269531 -2.798693 160.378906 -0.645048 163.623698 0.0632858 C 160.46224 1.06589 157.428385 2.719536 155.27474 5.519015 " transform="matrix(1.5, 0, 0, -1.5, 120.498047, 36.305866)"/>
<path fill="none" stroke-width="0.5" stroke-linecap="round" stroke-linejoin="round" stroke="rgb(0%, 0%, 0%)" stroke-opacity="1" stroke-miterlimit="4" d="M 56.605469 -61.895048 C 38.147135 -61.783068 18.652344 -61.87161 0.0638021 -61.538277 C -0.0794271 -45.764839 -0.264323 -30.447131 0.0403646 -14.767443 " transform="matrix(1.5, 0, 0, -1.5, 120.498047, 36.305866)"/>
<path fill="none" stroke-width="0.5" stroke-linecap="round" stroke-linejoin="round" stroke="rgb(0%, 0%, 0%)" stroke-opacity="1" stroke-miterlimit="4" d="M 5.076823 -23.189318 C 2.602865 -21.303902 0.790365 -18.223173 -0.204427 -14.803902 C -0.657552 -17.913277 -2.470052 -21.259631 -5.548177 -23.017443 " transform="matrix(1.5, 0, 0, -1.5, 120.498047, 36.305866)"/>
<path fill="none" stroke-width="0.5" stroke-linecap="round" stroke-linejoin="round" stroke="rgb(0%, 0%, 0%)" stroke-opacity="1" stroke-miterlimit="4" d="M 135.47526 0.06589 C 135.691406 -20.598173 135.38151 -41.105985 135.826823 -61.350777 C 126.196615 -61.889839 116.277344 -61.548693 107.154948 -61.605985 " transform="matrix(1.5, 0, 0, -1.5, 120.498047, 36.305866)"/>
<path fill="none" stroke-width="0.5" stroke-linecap="round" stroke-linejoin="round" stroke="rgb(0%, 0%, 0%)" stroke-opacity="1" stroke-miterlimit="4" d="M 115.397135 -56.040881 C 113.113281 -58.647652 110.55599 -60.772652 106.769531 -61.882027 C 110.227865 -62.629423 113.183594 -64.444527 115.701823 -66.84036 " transform="matrix(1.5, 0, 0, -1.5, 120.498047, 36.305866)"/>
<path fill="none" stroke-width="0.5" stroke-linecap="round" stroke-linejoin="round" stroke="rgb(0%, 0%, 0%)" stroke-opacity="1" stroke-miterlimit="4" d="M 66.904948 -16.77786 C 67.488281 -16.647652 67.261719 -16.048693 66.542969 -16.59036 C 76.384115 -16.223173 86.58724 -17.105985 97.196615 -16.24661 C 106.58724 -17.176298 107.191406 -16.001818 106.553385 -6.835152 C 107.391927 -1.736193 107.397135 2.667452 107.415365 6.349744 C 107.49349 16.479952 106.761719 16.15964 97.022135 16.985161 C 86.644531 16.433077 77.154948 16.026827 67.360677 17.016411 C 56.938802 16.456515 56.626302 16.774223 56.803385 6.529432 C 56.99349 1.821098 56.792969 -2.046089 57.175781 -6.650256 C 57.251302 -16.030464 56.936198 -16.366402 66.904948 -16.77786 Z M 66.904948 -16.77786 " transform="matrix(1.5, 0, 0, -1.5, 120.498047, 36.305866)"/>
<path fill="none" stroke-width="0.5" stroke-linecap="round" stroke-linejoin="round" stroke="rgb(0%, 0%, 0%)" stroke-opacity="1" stroke-miterlimit="4" d="M 67.011719 -77.796089 C 67.303385 -78.267443 66.44401 -78.21536 67.136719 -77.866402 C 76.376302 -78.34036 86.977865 -77.723173 97.592448 -78.350777 C 107.49349 -78.770048 107.438802 -78.24661 107.246094 -67.889839 C 107.157552 -63.598173 106.936198 -59.822131 106.704427 -54.587756 C 106.785156 -45.056506 107.829427 -44.499214 97.001302 -44.949735 C 87.027344 -44.392443 77.50651 -45.494006 67.303385 -44.538277 C 57.183594 -44.431506 56.579427 -44.931506 57.03776 -54.918485 C 57.410156 -58.850777 56.792969 -63.470568 56.548177 -67.59036 C 56.878906 -78.46536 56.89974 -78.069527 67.011719 -77.796089 Z M 67.011719 -77.796089 " transform="matrix(1.5, 0, 0, -1.5, 120.498047, 36.305866)"/>
<path fill="none" stroke-width="0.5" stroke-linecap="round" stroke-linejoin="round" stroke="rgb(0%, 0%, 0%)" stroke-opacity="1" stroke-miterlimit="4" d="M 13.998698 -0.275256 C 14.14974 8.25339 7.545573 14.862765 0.0299479 14.505994 C -8.394531 14.581515 -14.389323 7.438286 -14.717448 0.474744 C -14.800781 -7.80911 -7.811198 -14.517443 -0.0690104 -14.40286 C 7.397135 -14.954943 14.123698 -7.543485 13.998698 -0.275256 Z M 13.998698 -0.275256 " transform="matrix(1.5, 0, 0, -1.5, 120.498047, 36.305866)"/>
<path fill="none" stroke-width="0.5" stroke-linecap="round" stroke-linejoin="round" stroke="rgb(0%, 0%, 0%)" stroke-opacity="1" stroke-miterlimit="4" d="M -42.33724 0.0554733 C -33.324219 -0.178902 -23.571615 -0.249214 -14.470052 0.157036 " transform="matrix(1.5, 0, 0, -1.5, 120.498047, 36.305866)"/>
<path fill="none" stroke-width="0.5" stroke-linecap="round" stroke-linejoin="round" stroke="rgb(0%, 0%, 0%)" stroke-opacity="1" stroke-miterlimit="4" d="M -22.89974 -5.238798 C -20.60026 -2.55911 -17.483073 -1.064318 -14.365885 -0.296089 C -17.553385 0.630994 -20.852865 2.836723 -22.933594 5.388807 " transform="matrix(1.5, 0, 0, -1.5, 120.498047, 36.305866)"/>
<path fill="none" stroke-width="0.5" stroke-linecap="round" stroke-linejoin="round" stroke="rgb(0%, 0%, 0%)" stroke-opacity="1" stroke-miterlimit="4" d="M 14.454427 -0.0799433 C 28.72526 -0.150256 42.545573 0.177869 56.686198 -0.285673 " transform="matrix(1.5, 0, 0, -1.5, 120.498047, 36.305866)"/>
<path fill="none" stroke-width="0.5" stroke-linecap="round" stroke-linejoin="round" stroke="rgb(0%, 0%, 0%)" stroke-opacity="1" stroke-miterlimit="4" d="M 48.10026 -5.100777 C 50.545573 -2.678902 53.496094 -1.053902 56.878906 -0.103381 C 53.615885 0.821098 50.108073 2.894015 48.061198 5.500786 " transform="matrix(1.5, 0, 0, -1.5, 120.498047, 36.305866)"/>
<path fill="none" stroke-width="0.5" stroke-linecap="round" stroke-linejoin="round" stroke="rgb(0%, 0%, 0%)" stroke-opacity="1" stroke-miterlimit="4" d="M 107.352865 -0.24661 C 126.032552 0.133598 144.769531 -0.241402 164.016927 0.0320358 " transform="matrix(1.5, 0, 0, -1.5, 120.498047, 36.305866)"/>
<path fill="none" stroke-width="0.5" stroke-linecap="round" stroke-linejoin="round" stroke="rgb(0%, 0%, 0%)" stroke-opacity="1" stroke-miterlimit="4" d="M 155.529948 -5.551298 C 157.558594 -2.738798 160.35026 -0.616402 163.691406 0.282036 C 160.417969 0.563286 157.522135 2.951307 155.738281 5.407036 " transform="matrix(1.5, 0, 0, -1.5, 120.498047, 36.305866)"/>
<path fill="none" stroke-width="0.5" stroke-linecap="round" stroke-linejoin="round" stroke="rgb(0%, 0%, 0%)" stroke-opacity="1" stroke-miterlimit="4" d="M 56.777344 -61.387235 C 38.053385 -61.491402 19.06901 -61.582548 0.0950521 -61.525256 C 0.157552 -46.202339 0.136719 -30.223173 0.0872396 -14.43411 " transform="matrix(1.5, 0, 0, -1.5, 120.498047, 36.305866)"/>
<path fill="none" stroke-width="0.5" stroke-linecap="round" stroke-linejoin="round" stroke="rgb(0%, 0%, 0%)" stroke-opacity="1" stroke-miterlimit="4" d="M 5.092448 -23.147652 C 2.592448 -21.137235 1.00651 -17.889839 0.246094 -14.824735 C -0.954427 -18.079943 -2.582031 -21.108589 -5.298177 -23.191923 " transform="matrix(1.5, 0, 0, -1.5, 120.498047, 36.305866)"/>
<path fill="none" stroke-width="0.5" stroke-linecap="round" stroke-linejoin="round" stroke="rgb(0%, 0%, 0%)" stroke-opacity="1" stroke-miterlimit="4" d="M 135.509115 -0.142443 C 135.402344 -20.796089 135.68099 -41.077339 135.425781 -61.751818 C 126.248698 -61.55911 116.764323 -61.816923 107.33724 -61.832548 " transform="matrix(1.5, 0, 0, -1.5, 120.498047, 36.305866)"/>
<path fill="none" stroke-width="0.5" stroke-linecap="round" stroke-linejoin="round" stroke="rgb(0%, 0%, 0%)" stroke-opacity="1" stroke-miterlimit="4" d="M 115.204427 -56.259631 C 113.61849 -58.712756 110.157552 -60.634631 107.165365 -61.452339 C 110.39974 -62.314318 113.386719 -64.533068 115.449219 -67.129423 " transform="matrix(1.5, 0, 0, -1.5, 120.498047, 36.305866)"/>
<path fill="none" stroke-width="0.5" stroke-linecap="round" stroke-linejoin="round" stroke="rgb(0%, 0%, 0%)" stroke-opacity="1" stroke-miterlimit="4" d="M 67.332031 -16.845568 C 66.977865 -16.702339 66.667969 -16.900256 67.238281 -16.460152 C 77.05599 -16.241402 87.040365 -16.007027 96.571615 -16.111193 C 106.540365 -16.582548 106.842448 -16.757027 107.696615 -6.270048 C 107.048177 -1.829943 106.871094 2.336723 107.079427 7.276827 C 107.488281 16.25339 107.238281 16.40964 97.52474 16.912244 C 87.496094 16.164848 77.660156 17.185682 67.345052 16.198702 C 56.50651 17.021619 56.433594 16.664848 56.759115 6.880994 C 57.157552 2.792452 57.279948 -2.207548 56.332031 -6.132027 C 57.074219 -16.629423 56.977865 -17.259631 67.332031 -16.845568 Z M 67.332031 -16.845568 " transform="matrix(1.5, 0, 0, -1.5, 120.498047, 36.305866)"/>
<path fill="none" stroke-width="0.5" stroke-linecap="round" stroke-linejoin="round" stroke="rgb(0%, 0%, 0%)" stroke-opacity="1" stroke-miterlimit="4" d="M 67.39974 -78.272652 C 67.365885 -77.889839 67.152344 -77.68411 66.759115 -77.689318 C 76.824219 -78.02786 87.183594 -78.491402 96.766927 -77.819527 C 106.985677 -78.725777 107.144531 -77.905464 106.769531 -67.796089 C 107.272135 -63.564318 107.72526 -59.744006 107.686198 -55.410673 C 107.10026 -45.494006 106.735677 -45.405464 97.425781 -45.103381 C 87.410156 -44.879423 77.123698 -45.035673 66.873698 -44.869006 C 57.003906 -45.400256 57.272135 -45.543485 56.925781 -55.400256 C 57.470052 -59.303902 56.477865 -63.18411 56.394531 -67.691923 C 56.589844 -77.676298 56.47526 -78.238798 67.39974 -78.272652 Z M 67.39974 -78.272652 " transform="matrix(1.5, 0, 0, -1.5, 120.498047, 36.305866)"/>
<path fill="none" stroke-width="0.5" stroke-linecap="round" stroke-linejoin="round" stroke="rgb(0%, 0%, 0%)" stroke-opacity="1" stroke-miterlimit="4" d="M 14.061198 -0.238798 C 14.371094 7.576307 7.821615 14.594536 -0.532552 14.412244 C -8.467448 13.977348 -13.81901 8.063286 -14.352865 -0.533068 C -13.873698 -7.355985 -7.407552 -14.796089 -0.56901 -14.973173 C 7.998698 -14.999214 13.847656 -7.480985 14.061198 -0.238798 Z M 14.061198 -0.238798 " transform="matrix(1.5, 0, 0, -1.5, 120.498047, 36.305866)"/>
<path fill="none" stroke-width="0.5" stroke-linecap="round" stroke-linejoin="round" stroke="rgb(0%, 0%, 0%)" stroke-opacity="1" stroke-miterlimit="4" d="M -42.529948 -0.236193 C -32.933594 0.235161 -23.660156 -0.126818 -14.561198 -0.0200475 " transform="matrix(1.5, 0, 0, -1.5, 120.498047, 36.305866)"/>
<path fill="none" stroke-width="0.5" stroke-linecap="round" stroke-linejoin="round" stroke="rgb(0%, 0%, 0%)" stroke-opacity="1" stroke-miterlimit="4" d="M -23.152344 -5.376818 C -20.97526 -2.444527 -17.740885 -0.921089 -14.610677 0.240369 C -17.63151 0.813286 -20.485677 2.706515 -22.907552 5.427869 " transform="matrix(1.5, 0, 0, -1.5, 120.498047, 36.305866)"/>
<path fill="none" stroke-width="0.5" stroke-linecap="round" stroke-linejoin="round" stroke="rgb(0%, 0%, 0%)" stroke-opacity="1" stroke-miterlimit="4" d="M 14.717448 0.154432 C 28.558594 -0.267443 42.69401 -0.173693 56.636719 -0.124214 " transform="matrix(1.5, 0, 0, -1.5, 120.498047, 36.305866)"/>
<path fill="none" stroke-width="0.5" stroke-linecap="round" stroke-linejoin="round" stroke="rgb(0%, 0%, 0%)" stroke-opacity="1" stroke-miterlimit="4" d="M 48.246094 -5.408068 C 50.352865 -2.488798 53.654948 -0.585152 56.800781 -0.207548 C 53.610677 0.714327 50.641927 2.914848 48.10026 5.076307 " transform="matrix(1.5, 0, 0, -1.5, 120.498047, 36.305866)"/>
<path fill="none" stroke-width="0.5" stroke-linecap="round" stroke-linejoin="round" stroke="rgb(0%, 0%, 0%)" stroke-opacity="1" stroke-miterlimit="4" d="M 107.154948 0.0997442 C 126.201823 -0.191923 144.842448 0.151827 164.144531 -0.0226517 " transform="matrix(1.5, 0, 0, -1.5, 120.498047, 36.305866)"/>
<path fill="none" stroke-width="0.5" stroke-linecap="round" stroke-linejoin="round" stroke="rgb(0%, 0%, 0%)" stroke-opacity="1" stroke-miterlimit="4" d="M 155.329427 -5.408068 C 157.44401 -2.564318 160.501302 -0.905464 164.108073 0.266411 C 160.438802 0.727348 157.81901 2.740369 155.378906 5.292452 " transform="matrix(1.5, 0, 0, -1.5, 120.498047, 36.305866)"/>
<path fill="none" stroke-width="0.5" stroke-linecap="round" stroke-linejoin="round" stroke="rgb(0%, 0%, 0%)" stroke-opacity="1" stroke-miterlimit="4" d="M 57.095052 -61.553902 C 37.733073 -61.361193 18.78776 -61.546089 -0.272135 -61.413277 C 0.264323 -46.020048 -0.246094 -30.194527 -0.165365 -14.793485 " transform="matrix(1.5, 0, 0, -1.5, 120.498047, 36.305866)"/>
<path fill="none" stroke-width="0.5" stroke-linecap="round" stroke-linejoin="round" stroke="rgb(0%, 0%, 0%)" stroke-opacity="1" stroke-miterlimit="4" d="M 5.511719 -22.983589 C 2.83724 -21.259631 0.91276 -17.811714 -0.00911458 -14.676298 C -0.917969 -17.897652 -2.94401 -21.126818 -5.621094 -23.001818 " transform="matrix(1.5, 0, 0, -1.5, 120.498047, 36.305866)"/>
<path fill="none" stroke-width="0.5" stroke-linecap="round" stroke-linejoin="round" stroke="rgb(0%, 0%, 0%)" stroke-opacity="1" stroke-miterlimit="4" d="M 135.772135 0.250786 C 135.324219 -20.293485 135.584635 -40.850777 135.766927 -61.561714 C 126.14974 -61.582548 116.621094 -61.814318 107.222656 -61.392443 " transform="matrix(1.5, 0, 0, -1.5, 120.498047, 36.305866)"/>
<path fill="none" stroke-width="0.5" stroke-linecap="round" stroke-linejoin="round" stroke="rgb(0%, 0%, 0%)" stroke-opacity="1" stroke-miterlimit="4" d="M 115.795573 -55.970568 C 113.264323 -59.040881 110.404948 -60.665881 107.134115 -61.780464 C 110.540365 -62.103381 113.584635 -64.111193 115.324219 -67.150256 " transform="matrix(1.5, 0, 0, -1.5, 120.498047, 36.305866)"/>
<path fill="none" stroke-width="0.5" stroke-linecap="round" stroke-linejoin="round" stroke="rgb(0%, 0%, 0%)" stroke-opacity="1" stroke-miterlimit="4" d="M 67.540365 -16.645048 C 66.345052 -16.650256 67.451823 -16.217964 66.446615 -17.020048 C 77.657552 -16.811714 86.894531 -16.105985 96.920573 -16.473173 C 107.50651 -16.832548 107.238281 -16.405464 106.688802 -6.744006 C 107.571615 -2.566923 106.96224 2.438286 106.824219 6.750786 C 107.813802 16.367973 107.795573 16.860161 97.472656 16.72214 C 87.644531 15.995577 76.78776 16.935682 66.761719 16.927869 C 57.46224 16.013807 57.464844 17.219536 57.277344 6.59714 C 57.420573 2.297661 56.527344 -2.189318 57.470052 -6.84036 C 56.316406 -16.098173 57.279948 -16.842964 67.540365 -16.645048 Z M 67.540365 -16.645048 " transform="matrix(1.5, 0, 0, -1.5, 120.498047, 36.305866)"/>
<path fill="none" stroke-width="0.5" stroke-linecap="round" stroke-linejoin="round" stroke="rgb(0%, 0%, 0%)" stroke-opacity="1" stroke-miterlimit="4" d="M 67.079427 -78.405464 C 67.097656 -78.27786 66.279948 -78.134631 66.813802 -77.691923 C 76.407552 -78.363798 87.191406 -78.329943 97.641927 -77.772652 C 107.561198 -77.87161 107.061198 -78.405464 107.608073 -68.835152 C 107.126302 -63.626818 107.621094 -59.27786 107.329427 -54.697131 C 106.923177 -45.327339 106.897135 -44.824735 97.496094 -44.480985 C 87.082031 -45.24661 77.365885 -45.43411 67.092448 -45.014839 C 56.977865 -44.944527 56.597656 -45.035673 57.472656 -55.293485 C 56.628906 -59.116402 56.72526 -64.129423 56.25651 -67.941923 C 56.621094 -78.241402 57.420573 -77.663277 67.079427 -78.405464 Z M 67.079427 -78.405464 " transform="matrix(1.5, 0, 0, -1.5, 120.498047, 36.305866)"/>
<path fill="none" stroke-width="0.5" stroke-linecap="round" stroke-linejoin="round" stroke="rgb(0%, 0%, 0%)" stroke-opacity="1" stroke-miterlimit="4" d="M 14.079427 0.477348 C 14.915365 7.604952 7.584635 13.953911 0.0690104 14.675265 C -8.488281 14.998182 -14.27474 8.224744 -14.782552 0.0424525 C -13.923177 -7.822131 -8.540365 -13.824735 -0.21224 -15.025256 C 7.871094 -14.548693 14.938802 -8.178902 14.079427 0.477348 Z M 14.079427 0.477348 " transform="matrix(1.5, 0, 0, -1.5, 120.498047, 36.305866)"/>
<path fill="none" stroke-width="0.5" stroke-linecap="round" stroke-linejoin="round" stroke="rgb(0%, 0%, 0%)" stroke-opacity="1" stroke-miterlimit="4" d="M -42.644531 0.00338999 C -33.001302 0.0841192 -23.904948 0.216932 -14.647135 -0.251818 " transform="matrix(1.5, 0, 0, -1.5, 120.498047, 36.305866)"/>
<path fill="none" stroke-width="0.5" stroke-linecap="round" stroke-linejoin="round" stroke="rgb(0%, 0%, 0%)" stroke-opacity="1" stroke-miterlimit="4" d="M -23.084635 -5.366402 C -20.920573 -2.697131 -17.97526 -0.566923 -14.264323 0.000785828 C -17.798177 0.521619 -20.886719 2.654432 -23.032552 5.141411 " transform="matrix(1.5, 0, 0, -1.5, 120.498047, 36.305866)"/>
<path fill="none" stroke-width="0.5" stroke-linecap="round" stroke-linejoin="round" stroke="rgb(0%, 0%, 0%)" stroke-opacity="1" stroke-miterlimit="4" d="M 14.50651 0.28464 C 28.589844 0.0320358 42.811198 0.224744 56.813802 -0.267443 " transform="matrix(1.5, 0, 0, -1.5, 120.498047, 36.305866)"/>
<path fill="none" stroke-width="0.5" stroke-linecap="round" stroke-linejoin="round" stroke="rgb(0%, 0%, 0%)" stroke-opacity="1" stroke-miterlimit="4" d="M 48.191406 -5.663277 C 50.279948 -2.697131 53.527344 -0.530464 56.665365 -0.0460892 C 53.636719 0.680473 50.33724 2.529432 48.342448 5.136202 " transform="matrix(1.5, 0, 0, -1.5, 120.498047, 36.305866)"/>
<path fill="none" stroke-width="0.5" stroke-linecap="round" stroke-linejoin="round" stroke="rgb(0%, 0%, 0%)" stroke-opacity="1" stroke-miterlimit="4" d="M 107.363281 -0.0825475 C 126.352865 -0.186714 144.701823 0.219536 164.175781 -0.0981725 " transform="matrix(1.5, 0, 0, -1.5, 120.498047, 36.305866)"/>
<path fill="none" stroke-width="0.5" stroke-linecap="round" stroke-linejoin="round" stroke="rgb(0%, 0%, 0%)" stroke-opacity="1" stroke-miterlimit="4" d="M 155.30599 -5.418485 C 157.347656 -2.582548 160.80599 -0.764839 164.10026 -0.18411 C 160.542969 0.912244 157.795573 2.430473 155.311198 5.318494 " transform="matrix(1.5, 0, 0, -1.5, 120.498047, 36.305866)"/>
<path fill="none" stroke-width="0.5" stroke-linecap="round" stroke-linejoin="round" stroke="rgb(0%, 0%, 0%)" stroke-opacity="1" stroke-miterlimit="4" d="M 56.714844 -61.447131 C 38.165365 -61.363798 19.071615 -61.819527 -0.204427 -61.668485 C 0.108073 -45.728381 -0.261719 -30.314318 -0.196615 -14.647652 " transform="matrix(1.5, 0, 0, -1.5, 120.498047, 36.305866)"/>
<path fill="none" stroke-width="0.5" stroke-linecap="round" stroke-linejoin="round" stroke="rgb(0%, 0%, 0%)" stroke-opacity="1" stroke-miterlimit="4" d="M 5.147135 -23.163277 C 2.720052 -21.092964 0.902344 -17.858589 -0.186198 -14.392443 C -0.954427 -18.085152 -2.81901 -21.254423 -5.647135 -23.319527 " transform="matrix(1.5, 0, 0, -1.5, 120.498047, 36.305866)"/>
<path fill="none" stroke-width="0.5" stroke-linecap="round" stroke-linejoin="round" stroke="rgb(0%, 0%, 0%)" stroke-opacity="1" stroke-miterlimit="4" d="M 135.623698 0.196098 C 135.71224 -20.491402 135.433594 -40.855985 135.626302 -61.363798 C 126.02474 -61.595568 116.498698 -61.90286 106.891927 -61.473173 " transform="matrix(1.5, 0, 0, -1.5, 120.498047, 36.305866)"/>
<path fill="none" stroke-width="0.5" stroke-linecap="round" stroke-linejoin="round" stroke="rgb(0%, 0%, 0%)" stroke-opacity="1" stroke-miterlimit="4" d="M 115.52474 -56.449735 C 113.548177 -59.113798 110.167969 -61.072131 106.821615 -61.65286 C 110.282552 -62.259631 113.402344 -64.21536 115.623698 -66.699735 " transform="matrix(1.5, 0, 0, -1.5, 120.498047, 36.305866)"/>
<path fill="none" stroke-width="0.5" stroke-linecap="round" stroke-linejoin="round" stroke="rgb(0%, 0%, 0%)" stroke-opacity="1" stroke-miterlimit="4" d="M 66.597656 -16.436714 C 67.490885 -16.499214 67.110677 -16.926298 67.092448 -16.991402 C 77.24349 -17.202339 87.10026 -16.629423 97.428385 -16.21536 C 107.50651 -16.77786 106.996094 -16.572131 107.269531 -6.119006 C 107.652344 -2.048693 106.93099 2.209119 106.990885 6.935682 C 106.886719 16.813286 107.425781 16.172661 97.316406 16.711723 C 86.832031 16.032036 76.798177 16.849744 66.610677 16.068494 C 56.985677 16.641411 57.095052 17.094536 56.957031 6.987765 C 56.509115 2.107557 57.584635 -2.306506 56.701823 -6.293485 C 56.946615 -16.066923 56.764323 -17.012235 66.597656 -16.436714 Z M 66.597656 -16.436714 " transform="matrix(1.5, 0, 0, -1.5, 120.498047, 36.305866)"/>
<path fill="none" stroke-width="0.5" stroke-linecap="round" stroke-linejoin="round" stroke="rgb(0%, 0%, 0%)" stroke-opacity="1" stroke-miterlimit="4" d="M 66.873698 -78.374214 C 67.253906 -78.556506 66.21224 -78.863798 66.613281 -77.686714 C 77.08724 -77.835152 87.527344 -78.600777 97.496094 -78.770048 C 107.730469 -77.913277 107.084635 -77.910673 106.925781 -68.043485 C 107.86849 -63.49661 107.511719 -58.754423 107.891927 -55.494006 C 107.501302 -44.379423 107.134115 -45.353381 96.865885 -45.100777 C 86.803385 -45.37161 77.259115 -45.129423 66.957031 -45.272652 C 57.207031 -44.40286 56.863281 -44.395048 56.811198 -55.34036 C 56.983073 -59.098173 56.563802 -64.098173 56.459635 -67.908068 C 57.160156 -78.77786 56.485677 -78.707548 66.873698 -78.374214 Z M 66.873698 -78.374214 " transform="matrix(1.5, 0, 0, -1.5, 120.498047, 36.305866)"/>
<path fill="none" stroke-width="0.5" stroke-linecap="round" stroke-linejoin="round" stroke="rgb(0%, 0%, 0%)" stroke-opacity="1" stroke-miterlimit="4" d="M 14.735677 -0.155464 C 14.121094 7.380994 8.454427 14.170057 0.25651 14.623182 C -7.566406 13.844536 -15.074219 7.946098 -14.246094 0.318494 C -14.144531 -8.613798 -7.839844 -14.262235 0.501302 -14.62161 C 8.339844 -13.785673 14.751302 -8.350777 14.735677 -0.155464 Z M 14.735677 -0.155464 " transform="matrix(1.5, 0, 0, -1.5, 120.498047, 36.305866)"/>
<path fill="none" stroke-width="0.5" stroke-linecap="round" stroke-linejoin="round" stroke="rgb(0%, 0%, 0%)" stroke-opacity="1" stroke-miterlimit="4" d="M -42.483073 0.276827 C -33.308594 0.224744 -23.996094 -0.0773392 -14.730469 0.06589 " transform="matrix(1.5, 0, 0, -1.5, 120.498047, 36.305866)"/>
<path fill="none" stroke-width="0.5" stroke-linecap="round" stroke-linejoin="round" stroke="rgb(0%, 0%, 0%)" stroke-opacity="1" stroke-miterlimit="4" d="M -22.865885 -5.501818 C -20.855469 -2.431506 -17.717448 -0.488798 -14.415365 -0.09036 C -17.884115 0.953911 -20.64974 2.719536 -23.089844 5.375786 " transform="matrix(1.5, 0, 0, -1.5, 120.498047, 36.305866)"/>
<path fill="none" stroke-width="0.5" stroke-linecap="round" stroke-linejoin="round" stroke="rgb(0%, 0%, 0%)" stroke-opacity="1" stroke-miterlimit="4" d="M 14.248698 0.188286 C 28.438802 -0.168485 42.665365 0.0164108 56.824219 -0.150256 " transform="matrix(1.5, 0, 0, -1.5, 120.498047, 36.305866)"/>
<path fill="none" stroke-width="0.5" stroke-linecap="round" stroke-linejoin="round" stroke="rgb(0%, 0%, 0%)" stroke-opacity="1" stroke-miterlimit="4" d="M 48.079427 -5.241402 C 50.66276 -2.431506 53.074219 -0.507027 56.467448 -0.132027 C 53.10026 0.742973 50.160156 2.896619 48.165365 5.604952 " transform="matrix(1.5, 0, 0, -1.5, 120.498047, 36.305866)"/>
<path fill="none" stroke-width="0.5" stroke-linecap="round" stroke-linejoin="round" stroke="rgb(0%, 0%, 0%)" stroke-opacity="1" stroke-miterlimit="4" d="M 107.423177 -0.217964 C 125.897135 -0.0799433 144.860677 0.136202 163.644531 -0.257027 " transform="matrix(1.5, 0, 0, -1.5, 120.498047, 36.305866)"/>
<path fill="none" stroke-width="0.5" stroke-linecap="round" stroke-linejoin="round" stroke="rgb(0%, 0%, 0%)" stroke-opacity="1" stroke-miterlimit="4" d="M 155.342448 -5.543485 C 157.285156 -2.37161 160.446615 -0.494006 163.977865 -0.21536 C 160.63151 0.985161 157.31901 2.422661 155.730469 5.211723 " transform="matrix(1.5, 0, 0, -1.5, 120.498047, 36.305866)"/>
<path fill="none" stroke-width="0.5" stroke-linecap="round" stroke-linejoin="round" stroke="rgb(0%, 0%, 0%)" stroke-opacity="1" stroke-miterlimit="4" d="M 57.027344 -61.535673 C 37.623698 -61.345568 19.058594 -61.80911 -0.0169271 -61.632027 C 0.295573 -45.949735 0.0950521 -30.178902 -0.0273438 -14.923693 " transform="matrix(1.5, 0, 0, -1.5, 120.498047, 36.305866)"/>
<path fill="none" stroke-width="0.5" stroke-linecap="round" stroke-linejoin="round" stroke="rgb(0%, 0%, 0%)" stroke-opacity="1" stroke-miterlimit="4" d="M 5.477865 -23.316923 C 2.597656 -20.884631 1.022135 -17.827339 -0.00130208 -14.741402 C -1.050781 -17.926298 -2.501302 -21.210152 -5.108073 -23.355985 " transform="matrix(1.5, 0, 0, -1.5, 120.498047, 36.305866)"/>
<path fill="none" stroke-width="0.5" stroke-linecap="round" stroke-linejoin="round" stroke="rgb(0%, 0%, 0%)" stroke-opacity="1" stroke-miterlimit="4" d="M 135.56901 -0.197131 C 135.303385 -20.639839 135.829427 -41.025256 135.548177 -61.801298 C 125.996094 -61.316923 116.714844 -61.699735 106.983073 -61.710152 " transform="matrix(1.5, 0, 0, -1.5, 120.498047, 36.305866)"/>
<path fill="none" stroke-width="0.5" stroke-linecap="round" stroke-linejoin="round" stroke="rgb(0%, 0%, 0%)" stroke-opacity="1" stroke-miterlimit="4" d="M 115.535156 -56.43411 C 113.582031 -58.949735 110.269531 -60.712756 107.191406 -61.634631 C 110.391927 -62.178902 113.144531 -64.507027 115.238281 -66.923693 " transform="matrix(1.5, 0, 0, -1.5, 120.498047, 36.305866)"/>
<path fill-rule="nonzero" fill="rgb(0%, 0%, 0%)" fill-opacity="1" d="M 83.4375 23.476562 L 90.109375 23.476562 L 90.109375 30.148438 L 90.96875 29.996094 L 90.96875 23.476562 L 97.597656 23.476562 L 97.707031 22.617188 L 90.96875 22.617188 L 90.96875 15.945312 L 90.109375 16.074219 L 90.109375 22.617188 L 83.589844 22.617188 Z M 83.4375 23.476562 "/>
<path fill-rule="nonzero" fill="rgb(0%, 0%, 0%)" fill-opacity="1" d="M 127.636719 61.957031 L 141.796875 61.957031 L 141.925781 61.09375 L 127.789062 61.09375 Z M 127.636719 61.957031 "/>
<path fill-rule="nonzero" fill="rgb(0%, 0%, 0%)" fill-opacity="1" d="M 11.382812 27.566406 C 11.40625 27.566406 12.15625 27.78125 12.546875 27.886719 C 12.824219 27.972656 13.039062 28.230469 13.039062 28.53125 C 13.0625 29.757812 13.105469 31.910156 13.105469 32.230469 C 13.105469 35.351562 13.082031 38.496094 12.910156 41.617188 L 13.148438 41.8125 L 14.933594 41.1875 C 14.828125 39.121094 14.828125 37.03125 14.828125 34.964844 C 14.957031 34.964844 15.148438 35.050781 15.257812 35.15625 C 15.882812 35.78125 18.613281 39.292969 20.613281 41.855469 L 22.746094 41.296875 L 22.746094 41.101562 L 17.085938 34.726562 L 17.128906 34.554688 C 18.914062 34.359375 20.660156 33.652344 21.347656 32.148438 C 21.667969 31.417969 21.753906 31.117188 21.753906 30.089844 C 21.753906 29.335938 21.453125 28.609375 20.917969 28.070312 C 20.550781 27.683594 20.054688 27.492188 19.539062 27.339844 C 18.851562 27.144531 18.117188 27.082031 17.386719 27.082031 L 11.535156 27.070312 L 11.40625 27.199219 L 11.382812 27.566406 M 14.804688 33.714844 C 14.804688 33.609375 14.890625 29.851562 14.933594 28.480469 C 14.957031 28.070312 15.019531 27.921875 15.191406 27.921875 L 16.054688 27.921875 C 16.632812 27.921875 17.238281 27.964844 17.816406 28.113281 C 18.226562 28.222656 18.636719 28.394531 18.9375 28.695312 C 19.386719 29.144531 19.648438 29.789062 19.648438 30.433594 C 19.648438 31.398438 19.214844 32.300781 18.550781 32.964844 C 17.839844 33.695312 16.804688 33.929688 15.816406 34.015625 C 15.558594 34.039062 15.277344 34.039062 15 34.039062 C 14.847656 34.039062 14.804688 33.84375 14.804688 33.714844 Z M 14.804688 33.714844 "/>
<path fill-rule="nonzero" fill="rgb(0%, 0%, 0%)" fill-opacity="1" d="M 25.757812 36.308594 C 25.757812 41.515625 26.597656 43.625 27.265625 44.550781 C 27.867188 45.347656 28.769531 46.164062 29.804688 46.25 L 29.804688 45.734375 C 29.375 45.648438 28.726562 45.304688 28.363281 44.875 C 28.0625 44.53125 26.878906 42.9375 26.878906 36.308594 C 26.878906 31.746094 27.585938 29.507812 28.0625 28.496094 C 28.40625 27.765625 29.117188 27.121094 29.804688 26.949219 L 29.804688 26.367188 C 28.921875 26.519531 27.976562 27.207031 27.4375 27.960938 C 26.769531 28.949219 25.757812 31.46875 25.757812 36.308594 Z M 25.757812 36.308594 "/>
<path fill-rule="nonzero" fill="rgb(0%, 0%, 0%)" fill-opacity="1" d="M 34 40.257812 C 34.214844 40.667969 34.515625 41.03125 34.859375 41.335938 C 35.484375 41.894531 36.347656 42.042969 37.164062 42.042969 C 38.390625 42.042969 39.59375 41.636719 40.433594 40.730469 C 40.953125 40.195312 41.210938 39.460938 41.210938 38.707031 C 41.210938 38.167969 40.90625 37.675781 40.519531 37.285156 C 40.21875 36.984375 39.421875 36.511719 38.734375 36.210938 C 38.109375 35.953125 37.183594 35.476562 36.925781 35.21875 C 36.605469 34.875 36.367188 34.617188 36.367188 34.144531 C 36.367188 33.667969 36.519531 33.21875 36.863281 32.894531 C 37.183594 32.570312 37.660156 32.398438 38.132812 32.398438 C 38.5625 32.398438 39.015625 32.550781 39.25 32.9375 C 39.464844 33.28125 39.507812 33.691406 39.53125 34.078125 L 39.789062 34.230469 L 40.972656 33.433594 C 40.953125 32.957031 40.714844 32.507812 40.371094 32.183594 C 39.875 31.730469 39.1875 31.644531 38.542969 31.644531 C 37.488281 31.644531 36.476562 31.988281 35.699219 32.699219 C 35.121094 33.21875 34.816406 33.96875 34.816406 34.722656 C 34.816406 35.414062 35.207031 36.015625 35.699219 36.46875 C 36.195312 36.898438 36.839844 37.199219 37.507812 37.480469 C 38.066406 37.71875 38.671875 37.976562 39.078125 38.382812 C 39.402344 38.707031 39.636719 39.136719 39.636719 39.589844 C 39.636719 39.976562 39.445312 40.34375 39.1875 40.625 C 38.863281 40.96875 38.28125 41.226562 37.808594 41.226562 C 37.164062 41.226562 36.582031 40.945312 36.109375 40.496094 C 35.613281 40.042969 35.398438 39.398438 35.355469 38.75 L 35.054688 38.730469 Z M 34 40.257812 "/>
<path fill-rule="nonzero" fill="rgb(0%, 0%, 0%)" fill-opacity="1" d="M 45.730469 45.734375 L 45.730469 46.25 C 46.761719 46.121094 47.730469 45.390625 48.332031 44.59375 C 49 43.667969 49.816406 41.515625 49.816406 36.308594 C 49.816406 30.90625 48.699219 28.949219 48.03125 27.960938 C 47.492188 27.207031 46.609375 26.519531 45.730469 26.367188 L 45.730469 26.949219 C 46.417969 27.140625 47.085938 27.765625 47.429688 28.496094 C 47.902344 29.507812 48.699219 31.316406 48.699219 36.308594 C 48.699219 43.820312 47.578125 44.53125 47.277344 44.875 C 46.910156 45.304688 46.160156 45.648438 45.730469 45.734375 Z M 45.730469 45.734375 "/>
<path fill-rule="nonzero" fill="rgb(0%, 0%, 0%)" fill-opacity="1" d="M 372.691406 34.664062 C 372.691406 36.773438 373.25 38.90625 374.757812 40.410156 C 375.984375 41.636719 377.746094 42.003906 379.445312 42.003906 C 381.320312 42.003906 383.042969 41.097656 384.589844 40.042969 L 384.226562 39.421875 C 383.019531 40.238281 381.664062 40.863281 380.199219 40.863281 C 378.4375 40.863281 377.53125 40.257812 376.347656 39.078125 C 375.636719 38.367188 374.605469 36.257812 374.605469 34.277344 C 374.605469 33.222656 374.734375 32.148438 375.058594 31.136719 C 375.316406 30.320312 375.703125 29.546875 376.304688 28.921875 C 377.253906 27.976562 378.585938 27.523438 379.898438 27.523438 C 380.890625 27.523438 381.921875 27.78125 382.632812 28.492188 C 383.128906 28.984375 383.492188 29.609375 383.75 30.296875 L 384.050781 30.320312 L 385.277344 29.070312 C 385.042969 28.683594 384.761719 28.320312 384.441406 27.996094 C 383.449219 26.984375 382.03125 26.640625 380.632812 26.640625 C 378.394531 26.640625 376.21875 27.414062 374.648438 28.984375 C 373.140625 30.46875 372.691406 32.601562 372.691406 34.664062 Z M 372.691406 34.664062 "/>
<path fill-rule="nonzero" fill="rgb(0%, 0%, 0%)" fill-opacity="1" d="M 388.613281 36.308594 C 388.613281 41.515625 389.453125 43.625 390.121094 44.550781 C 390.722656 45.347656 391.628906 46.164062 392.660156 46.25 L 392.660156 45.734375 C 392.230469 45.648438 391.585938 45.304688 391.21875 44.875 C 390.917969 44.53125 389.734375 42.9375 389.734375 36.308594 C 389.734375 31.746094 390.445312 29.507812 390.917969 28.496094 C 391.261719 27.765625 391.972656 27.121094 392.660156 26.949219 L 392.660156 26.367188 C 391.777344 26.519531 390.832031 27.207031 390.292969 27.960938 C 389.625 28.949219 388.613281 31.46875 388.613281 36.308594 Z M 388.613281 36.308594 "/>
<path fill-rule="nonzero" fill="rgb(0%, 0%, 0%)" fill-opacity="1" d="M 396.855469 40.257812 C 397.070312 40.667969 397.371094 41.03125 397.71875 41.335938 C 398.339844 41.894531 399.203125 42.042969 400.019531 42.042969 C 401.246094 42.042969 402.453125 41.636719 403.289062 40.730469 C 403.808594 40.195312 404.066406 39.460938 404.066406 38.707031 C 404.066406 38.167969 403.765625 37.675781 403.378906 37.285156 C 403.074219 36.984375 402.28125 36.511719 401.589844 36.210938 C 400.96875 35.953125 400.042969 35.476562 399.78125 35.21875 C 399.460938 34.875 399.222656 34.617188 399.222656 34.144531 C 399.222656 33.667969 399.375 33.21875 399.71875 32.894531 C 400.042969 32.570312 400.515625 32.398438 400.988281 32.398438 C 401.417969 32.398438 401.871094 32.550781 402.105469 32.9375 C 402.324219 33.28125 402.367188 33.691406 402.386719 34.078125 L 402.644531 34.230469 L 403.828125 33.433594 C 403.808594 32.957031 403.570312 32.507812 403.226562 32.183594 C 402.730469 31.730469 402.042969 31.644531 401.398438 31.644531 C 400.34375 31.644531 399.332031 31.988281 398.558594 32.699219 C 397.976562 33.21875 397.675781 33.96875 397.675781 34.722656 C 397.675781 35.414062 398.0625 36.015625 398.558594 36.46875 C 399.050781 36.898438 399.695312 37.199219 400.363281 37.480469 C 400.925781 37.71875 401.527344 37.976562 401.933594 38.382812 C 402.257812 38.707031 402.496094 39.136719 402.496094 39.589844 C 402.496094 39.976562 402.300781 40.34375 402.042969 40.625 C 401.71875 40.96875 401.140625 41.226562 400.664062 41.226562 C 400.019531 41.226562 399.4375 40.945312 398.964844 40.496094 C 398.46875 40.042969 398.253906 39.398438 398.210938 38.75 L 397.910156 38.730469 Z M 396.855469 40.257812 "/>
<path fill-rule="nonzero" fill="rgb(0%, 0%, 0%)" fill-opacity="1" d="M 408.585938 45.734375 L 408.585938 46.25 C 409.617188 46.121094 410.585938 45.390625 411.1875 44.59375 C 411.855469 43.667969 412.671875 41.515625 412.671875 36.308594 C 412.671875 30.90625 411.554688 28.949219 410.886719 27.960938 C 410.347656 27.207031 409.46875 26.519531 408.585938 26.367188 L 408.585938 26.949219 C 409.273438 27.140625 409.941406 27.765625 410.285156 28.496094 C 410.757812 29.507812 411.554688 31.316406 411.554688 36.308594 C 411.554688 43.820312 410.433594 44.53125 410.132812 44.875 C 409.769531 45.304688 409.015625 45.648438 408.585938 45.734375 Z M 408.585938 45.734375 "/>
</svg>
